<?xml version="1.0" encoding="UTF-8"?>
<!DOCTYPE svg  PUBLIC '-//W3C//DTD SVG 1.1//EN'  'http://www.w3.org/Graphics/SVG/1.1/DTD/svg11.dtd'>
<svg width="557.33pt" height="293.33pt" version="1.1" viewBox="0 0 557.33 293.33" xmlns="http://www.w3.org/2000/svg" xmlns:xlink="http://www.w3.org/1999/xlink">
<metadata>
<rdf:RDF xmlns:cc="http://creativecommons.org/ns#" xmlns:dc="http://purl.org/dc/elements/1.1/" xmlns:rdf="http://www.w3.org/1999/02/22-rdf-syntax-ns#">
<cc:Work>
<dc:type rdf:resource="http://purl.org/dc/dcmitype/StillImage"/>
<dc:date>2021-02-23T10:59:36.908576</dc:date>
<dc:format>image/svg+xml</dc:format>
<dc:creator>
<cc:Agent>
<dc:title>Matplotlib v3.3.3, https://matplotlib.org/</dc:title>
</cc:Agent>
</dc:creator>
</cc:Work>
</rdf:RDF>
</metadata>
<defs>
<style type="text/css">*{stroke-linecap:butt;stroke-linejoin:round;}</style>
</defs>
<path d="m0 293.33h557.33v-293.33h-557.33z" fill="#fff"/>
<g fill="none" stroke="#000">
<path d="m119.04 13.333v44.849" clip-path="url(#a)"/>
<path d="m119.04 58.183-93.71 178.16" clip-path="url(#a)"/>
<path d="m119.04 58.183-73.443 178.16" clip-path="url(#a)"/>
<path d="m119.04 58.183 167.15 44.759" clip-path="url(#a)"/>
<path d="m25.333 236.34v43.655" clip-path="url(#a)"/>
<path d="m45.6 236.34v43.655" clip-path="url(#a)"/>
<path d="m286.2 102.94-151.93 44.646" clip-path="url(#a)"/>
<path d="m286.2 102.94 22.87 133.4" clip-path="url(#a)"/>
<path d="m286.2 102.94 166.99 89.141" clip-path="url(#a)"/>
<path d="m286.2 102.94-37.93 133.4" clip-path="url(#a)"/>
<path d="m134.27 147.59-44.756 44.495" clip-path="url(#a)"/>
<path d="m134.27 147.59-27.867 88.757" clip-path="url(#a)"/>
<path d="m134.27 147.59 59.956 88.757" clip-path="url(#a)"/>
<path d="m134.27 147.59 12.667 88.757" clip-path="url(#a)"/>
<path d="m309.07 236.34v43.655" clip-path="url(#a)"/>
<path d="m453.19 192.08-76.563 44.262" clip-path="url(#a)"/>
<path d="m453.19 192.08-2.2519 44.262" clip-path="url(#a)"/>
<path d="m453.19 192.08 78.815 44.262" clip-path="url(#a)"/>
<path d="m376.62 236.34v43.655" clip-path="url(#a)"/>
<path d="m450.93 236.34v43.655" clip-path="url(#a)"/>
<path d="m89.511 192.08 16.889 44.262" clip-path="url(#a)" stroke-dasharray="3.7,1.6"/>
<path d="m89.511 192.08-16.889 44.262" clip-path="url(#a)"/>
<path d="m106.4 236.34v43.655" clip-path="url(#a)"/>
<path d="m194.22 236.34v43.655" clip-path="url(#a)"/>
<path d="m146.93 236.34v43.655" clip-path="url(#a)"/>
<path d="m72.622 236.34v43.655" clip-path="url(#a)"/>
<path d="m248.27 236.34v43.655" clip-path="url(#a)"/>
<path d="m532 236.34v43.655" clip-path="url(#a)"/>
</g>
<path d="m112.77 32.75v6.0162q0 2.4 2.4 2.4h7.7425q2.4 0 2.4-2.4v-6.0162q0-2.4-2.4-2.4h-7.7425q-2.4 0-2.4 2.4z" clip-path="url(#a)" fill="#fff" stroke="#fff"/>
<g clip-path="url(#a)">
<g transform="translate(116.84 32.75) rotate(90) scale(.08 -.08)">
<defs>
<path id="ao" d="m9.8125 72.906h9.8594v-29.891h35.844v29.891h9.8594v-72.906h-9.8594v34.719h-35.844v-34.719h-9.8594z"/>
</defs>
<use xlink:href="#ao"/>
</g>
</g>
<path d="m76.556 152.43 2.3642-4.4949q1.1172-2.1241-1.0069-3.2413l-6.8524-3.6042q-2.1241-1.1172-3.2413 1.0069l-2.3642 4.4949q-1.1172 2.1241 1.0069 3.2413l6.8524 3.6042q2.1241 1.1172 3.2413-1.0069z" clip-path="url(#a)" fill="#fff" stroke="#fff"/>
<g clip-path="url(#a)">
<g transform="translate(72.96 150.54) rotate(-62.257) scale(.08 -.08)">
<defs>
<path id="w" d="m53.516 70.516v-9.625q-5.6094 2.6875-10.594 4-4.9844 1.3281-9.625 1.3281-8.0469 0-12.422-3.125t-4.375-8.8906q0-4.8438 2.9062-7.3125 2.9062-2.4531 11.016-3.9688l5.9531-1.2188q11.031-2.1094 16.281-7.4062t5.25-14.172q0-10.609-7.1094-16.078-7.0938-5.4688-20.812-5.4688-5.1719 0-11.016 1.1719-5.8281 1.1719-12.078 3.4688v10.156q6-3.3594 11.766-5.0781 5.7656-1.7031 11.328-1.7031 8.4375 0 13.031 3.3125 4.5938 3.3281 4.5938 9.4844 0 5.3594-3.2969 8.3906t-10.812 4.5469l-6.0156 1.1719q-11.031 2.1875-15.969 6.875-4.9219 4.6875-4.9219 13.047 0 9.6719 6.8125 15.234t18.766 5.5625q5.1406 0 10.453-0.9375 5.3281-0.92188 10.891-2.7656z"/>
</defs>
<use xlink:href="#w"/>
</g>
</g>
<path d="m87.077 152.18 2.0857-5.0595q0.91468-2.2189-1.3042-3.1335l-7.1582-2.9508q-2.2189-0.91468-3.1335 1.3042l-2.0857 5.0595q-0.91468 2.2189 1.3042 3.1335l7.1582 2.9508q2.2189 0.91468 3.1335-1.3042z" clip-path="url(#a)" fill="#fff" stroke="#fff"/>
<g clip-path="url(#a)">
<g transform="translate(83.32 150.63) rotate(-67.597) scale(.08 -.08)">
<defs>
<path id="n" d="m34.188 63.188-13.391-36.281h26.812zm-5.5781 9.7188h11.188l27.781-72.906h-10.25l-6.6406 18.703h-32.859l-6.6406-18.703h-10.406z"/>
</defs>
<use xlink:href="#n"/>
</g>
</g>
<path d="m198.35 85.912 5.2863 1.4155q2.3183 0.62078 2.9391-1.6975l2.0027-7.479q0.62078-2.3183-1.6975-2.9391l-5.2863-1.4155q-2.3183-0.62078-2.9391 1.6975l-2.0027 7.479q-0.62078 2.3183 1.6975 2.9391z" clip-path="url(#a)" fill="#fff" stroke="#fff"/>
<g clip-path="url(#a)">
<g transform="translate(199.41 81.987) rotate(14.991) scale(.08 -.08)">
<use xlink:href="#n"/>
</g>
</g>
<path d="m19.062 241.27v33.808q0 2.4 2.4 2.4h7.7425q2.4 0 2.4-2.4v-33.808q0-2.4-2.4-2.4h-7.7425q-2.4 0-2.4 2.4z" clip-path="url(#a)" fill="#fff" stroke="#fff"/>
<g clip-path="url(#a)">
<g transform="translate(23.126 241.27) rotate(90) scale(.08 -.08)">
<defs>
<path id="f" d="m-0.29688 72.906h61.672v-8.3125h-25.875v-64.594h-9.9062v64.594h-25.891z"/>
<path id="l" d="m56.203 29.594v-4.3906h-41.312q0.59375-9.2812 5.5938-14.141t13.938-4.8594q5.1719 0 10.031 1.2656t9.6562 3.8125v-8.5q-4.8438-2.0469-9.9219-3.125t-10.297-1.0781q-13.094 0-20.734 7.6094-7.6406 7.625-7.6406 20.625 0 13.422 7.25 21.297 7.25 7.8906 19.562 7.8906 11.031 0 17.453-7.1094 6.4219-7.0938 6.4219-19.297zm-8.9844 2.6406q-0.09375 7.3594-4.125 11.75-4.0312 4.4062-10.672 4.4062-7.5156 0-12.031-4.25t-5.2031-11.969z"/>
<path id="g" d="m41.109 46.297q-1.5156 0.875-3.2969 1.2812-1.7812 0.42188-3.9219 0.42188-7.625 0-11.703-4.9531t-4.0781-14.234v-28.812h-9.0312v54.688h9.0312v-8.5q2.8438 4.9844 7.375 7.3906 4.5469 2.4219 11.047 2.4219 0.92188 0 2.0469-0.125 1.125-0.10938 2.4844-0.35938z"/>
<path id="i" d="m52 44.188q3.375 6.0625 8.0625 8.9375t11.031 2.875q8.5469 0 13.188-5.9844 4.6406-5.9688 4.6406-17v-33.016h-9.0312v32.719q0 7.8594-2.7969 11.656-2.7812 3.8125-8.4844 3.8125-6.9844 0-11.047-4.6406-4.0469-4.625-4.0469-12.641v-30.906h-9.0312v32.719q0 7.9062-2.7812 11.688t-8.5938 3.7812q-6.8906 0-10.953-4.6562-4.0469-4.6562-4.0469-12.625v-30.906h-9.0312v54.688h9.0312v-8.5q3.0781 5.0312 7.375 7.4219t10.203 2.3906q5.9688 0 10.141-3.0312 4.1719-3.0156 6.1719-8.7812z"/>
<path id="k" d="m9.4219 54.688h8.9844v-54.688h-8.9844zm0 21.297h8.9844v-11.391h-8.9844z"/>
<path id="h" d="m54.891 33.016v-33.016h-8.9844v32.719q0 7.7656-3.0312 11.609-3.0312 3.8594-9.0781 3.8594-7.2812 0-11.484-4.6406-4.2031-4.625-4.2031-12.641v-30.906h-9.0312v54.688h9.0312v-8.5q3.2344 4.9375 7.5938 7.375 4.375 2.4375 10.094 2.4375 9.4219 0 14.25-5.8281 4.8438-5.8281 4.8438-17.156z"/>
<path id="e" d="m34.281 27.484q-10.891 0-15.094-2.4844t-4.2031-8.5q0-4.7812 3.1562-7.5938 3.1562-2.7969 8.5625-2.7969 7.4844 0 12 5.2969t4.5156 14.078v2zm17.922 3.7188v-31.203h-8.9844v8.2969q-3.0781-4.9688-7.6719-7.3438t-11.234-2.375q-8.3906 0-13.359 4.7188-4.9531 4.7188-4.9531 12.625 0 9.2188 6.1719 13.906 6.1875 4.6875 18.438 4.6875h12.609v0.89062q0 6.2031-4.0781 9.5938t-11.453 3.3906q-4.6875 0-9.1406-1.125-4.4375-1.125-8.5312-3.375v8.3125q4.9219 1.9062 9.5625 2.8438 4.6406 0.95312 9.0312 0.95312 11.875 0 17.734-6.1562 5.8594-6.1406 5.8594-18.641z"/>
<path id="j" d="m9.4219 75.984h8.9844v-75.984h-8.9844z"/>
</defs>
<use xlink:href="#f"/>
<use x="44.083984" xlink:href="#l"/>
<use x="105.607422" xlink:href="#g"/>
<use x="144.970703" xlink:href="#i"/>
<use x="242.382812" xlink:href="#k"/>
<use x="270.166016" xlink:href="#h"/>
<use x="333.544922" xlink:href="#e"/>
<use x="394.824219" xlink:href="#j"/>
</g>
</g>
<path d="m39.329 241.27v33.808q0 2.4 2.4 2.4h7.7425q2.4 0 2.4-2.4v-33.808q0-2.4-2.4-2.4h-7.7425q-2.4 0-2.4 2.4z" clip-path="url(#a)" fill="#fff" stroke="#fff"/>
<g clip-path="url(#a)">
<g transform="translate(43.392 241.27) rotate(90) scale(.08 -.08)">
<use xlink:href="#f"/>
<use x="44.083984" xlink:href="#l"/>
<use x="105.607422" xlink:href="#g"/>
<use x="144.970703" xlink:href="#i"/>
<use x="242.382812" xlink:href="#k"/>
<use x="270.166016" xlink:href="#h"/>
<use x="333.544922" xlink:href="#e"/>
<use x="394.824219" xlink:href="#j"/>
</g>
</g>
<path d="m209.37 132.05 5.2505-1.5429q2.3026-0.67665 1.626-2.9793l-2.1829-7.4284q-0.67665-2.3026-2.9793-1.626l-5.2505 1.5429q-2.3026 0.67665-1.626 2.9793l2.1829 7.4284q0.67665 2.3026 2.9793 1.626z" clip-path="url(#a)" fill="#fff" stroke="#fff"/>
<g clip-path="url(#a)">
<g transform="translate(208.23 128.15) rotate(-16.376) scale(.08 -.08)">
<use xlink:href="#n"/>
</g>
</g>
<path d="m291.04 168.33 0.81508 4.7544q0.40553 2.3655 2.771 1.96l7.6312-1.3083q2.3655-0.40553 1.96-2.771l-0.81508-4.7544q-0.40553-2.3655-2.771-1.96l-7.6312 1.3083q-2.3655 0.40553-1.96 2.771z" clip-path="url(#a)" fill="#fff" stroke="#fff"/>
<g clip-path="url(#a)">
<g transform="translate(295.05 167.64) rotate(80.272) scale(.08 -.08)">
<defs>
<path id="an" d="m19.672 64.797v-27.391h12.406q6.8906 0 10.641 3.5625 3.7656 3.5625 3.7656 10.156 0 6.5469-3.7656 10.109-3.75 3.5625-10.641 3.5625zm-9.8594 8.1094h22.266q12.266 0 18.531-5.5469 6.2812-5.5469 6.2812-16.234 0-10.797-6.2812-16.312-6.2656-5.5156-18.531-5.5156h-12.406v-29.297h-9.8594z"/>
</defs>
<use xlink:href="#an"/>
</g>
</g>
<path d="m364.32 151.76 4.8277 2.5771q2.1172 1.1302 3.2474-0.98702l3.6461-6.8303q1.1302-2.1172-0.98702-3.2474l-4.8277-2.5771q-2.1172-1.1302-3.2474 0.98702l-3.6461 6.8303q-1.1302 2.1172 0.98702 3.2474z" clip-path="url(#a)" fill="#fff" stroke="#fff"/>
<g clip-path="url(#a)">
<g transform="translate(366.24 148.17) rotate(28.094) scale(.08 -.08)">
<use xlink:href="#n"/>
</g>
</g>
<path d="m272.46 174.17 1.6012-5.6318q0.65636-2.3085-1.6521-2.9649l-7.4473-2.1174q-2.3085-0.65636-2.9649 1.6521l-1.6012 5.6318q-0.65636 2.3085 1.6521 2.9649l7.4473 2.1174q2.3085 0.65636 2.9649-1.6521z" clip-path="url(#a)" fill="#fff" stroke="#fff"/>
<g clip-path="url(#a)">
<g transform="translate(268.55 173.06) rotate(-74.128) scale(.08 -.08)">
<defs>
<path id="p" d="m8.6875 72.906h9.9219v-44.297q0-11.719 4.2344-16.875 4.25-5.1406 13.781-5.1406 9.4688 0 13.719 5.1406 4.25 5.1562 4.25 16.875v44.297h9.9062v-45.516q0-14.25-7.0625-21.531-7.0469-7.2812-20.812-7.2812-13.828 0-20.891 7.2812-7.0469 7.2812-7.0469 21.531z"/>
</defs>
<use xlink:href="#p"/>
</g>
</g>
<path d="m114.52 176.06 3.5849-3.564q1.702-1.6921 0.009923-3.3941l-5.4587-5.4908q-1.6921-1.702-3.3941-0.009922l-3.5849 3.564q-1.702 1.6921-0.009923 3.3941l5.4587 5.4908q1.6921 1.702 3.3941 0.009922z" clip-path="url(#a)" fill="#fff" stroke="#fff"/>
<g clip-path="url(#a)">
<g transform="translate(111.65 173.18) rotate(-44.833) scale(.08 -.08)">
<defs>
<path id="q" d="m9.8125 72.906h46.094v-8.3125h-36.234v-21.578h34.719v-8.2969h-34.719v-26.422h37.109v-8.2969h-46.969z"/>
</defs>
<use xlink:href="#q"/>
</g>
</g>
<path d="m125.48 196.51 1.6734-5.3297q0.71892-2.2898-1.5709-3.0087l-7.387-2.3193q-2.2898-0.71892-3.0087 1.5709l-1.6734 5.3297q-0.71892 2.2898 1.5709 3.0087l7.387 2.3193q2.2898 0.71892 3.0087-1.5709z" clip-path="url(#a)" fill="#fff" stroke="#fff"/>
<g clip-path="url(#a)">
<g transform="translate(121.6 195.29) rotate(-72.57) scale(.08 -.08)">
<defs>
<path id="x" d="m64.406 67.281v-10.391q-4.9844 4.6406-10.625 6.9219-5.6406 2.2969-11.984 2.2969-12.5 0-19.141-7.6406t-6.6406-22.094q0-14.406 6.6406-22.047t19.141-7.6406q6.3438 0 11.984 2.2969t10.625 6.9375v-10.312q-5.1719-3.5156-10.969-5.2812-5.7812-1.75-12.219-1.75-16.562 0-26.094 10.125-9.5156 10.141-9.5156 27.672 0 17.578 9.5156 27.703 9.5312 10.141 26.094 10.141 6.5312 0 12.312-1.7344 5.7969-1.7344 10.875-5.2031z"/>
</defs>
<use xlink:href="#x"/>
</g>
</g>
<path d="m157.63 193.38 2.8296 4.1889q1.3434 1.9888 3.3322 0.64536l6.4159-4.3339q1.9888-1.3434 0.64536-3.3322l-2.8296-4.1889q-1.3434-1.9888-3.3322-0.64536l-6.4159 4.3339q-1.9888 1.3434-0.64535 3.3322z" clip-path="url(#a)" fill="#fff" stroke="#fff"/>
<g clip-path="url(#a)">
<g transform="translate(161 191.11) rotate(55.961) scale(.08 -.08)">
<use xlink:href="#q"/>
</g>
</g>
<path d="m133.98 189.95 0.8272 5.7963q0.33907 2.3759 2.715 2.0369l7.6648-1.0939q2.3759-0.33907 2.0369-2.715l-0.8272-5.7963q-0.33907-2.3759-2.715-2.0369l-7.6648 1.0939q-2.3759 0.33907-2.0369 2.715z" clip-path="url(#a)" fill="#fff" stroke="#fff"/>
<g clip-path="url(#a)">
<g transform="translate(138 189.38) rotate(81.878) scale(.08 -.08)">
<use xlink:href="#p"/>
</g>
</g>
<path d="m302.8 241.27v33.808q0 2.4 2.4 2.4h7.7425q2.4 0 2.4-2.4v-33.808q0-2.4-2.4-2.4h-7.7425q-2.4 0-2.4 2.4z" clip-path="url(#a)" fill="#fff" stroke="#fff"/>
<g clip-path="url(#a)">
<g transform="translate(306.86 241.27) rotate(90) scale(.08 -.08)">
<use xlink:href="#f"/>
<use x="44.083984" xlink:href="#l"/>
<use x="105.607422" xlink:href="#g"/>
<use x="144.970703" xlink:href="#i"/>
<use x="242.382812" xlink:href="#k"/>
<use x="270.166016" xlink:href="#h"/>
<use x="333.544922" xlink:href="#e"/>
<use x="394.824219" xlink:href="#j"/>
</g>
</g>
<path d="m415.85 220.91 4.3763-2.53q2.0778-1.2012 0.87657-3.279l-3.8751-6.703q-1.2012-2.0778-3.279-0.87657l-4.3763 2.53q-2.0778 1.2012-0.87657 3.279l3.8751 6.703q1.2012 2.0778 3.279 0.87657z" clip-path="url(#a)" fill="#fff" stroke="#fff"/>
<g clip-path="url(#a)">
<g transform="translate(413.82 217.39) rotate(-30.033) scale(.08 -.08)">
<use xlink:href="#q"/>
</g>
</g>
<path d="m458.18 217.32 0.28383-5.579q0.12194-2.3969-2.275-2.5188l-7.7325-0.39339q-2.3969-0.12194-2.5188 2.275l-0.28383 5.579q-0.12194 2.3969 2.275 2.5188l7.7325 0.39339q2.3969 0.12194 2.5188-2.275z" clip-path="url(#a)" fill="#fff" stroke="#fff"/>
<g clip-path="url(#a)">
<g transform="translate(454.12 217.12) rotate(-87.088) scale(.08 -.08)">
<use xlink:href="#x"/>
</g>
</g>
<path d="m486.97 218.25 5.105 2.867q2.0926 1.1752 3.2678-0.91739l3.7912-6.7508q1.1752-2.0926-0.91739-3.2678l-5.105-2.867q-2.0926-1.1752-3.2678 0.91739l-3.7912 6.7508q-1.1752 2.0926 0.91739 3.2678z" clip-path="url(#a)" fill="#fff" stroke="#fff"/>
<g clip-path="url(#a)">
<g transform="translate(488.96 214.7) rotate(29.319) scale(.08 -.08)">
<use xlink:href="#p"/>
</g>
</g>
<path d="m370.35 241.27v33.808q0 2.4 2.4 2.4h7.7425q2.4 0 2.4-2.4v-33.808q0-2.4-2.4-2.4h-7.7425q-2.4 0-2.4 2.4z" clip-path="url(#a)" fill="#fff" stroke="#fff"/>
<g clip-path="url(#a)">
<g transform="translate(374.41 241.27) rotate(90) scale(.08 -.08)">
<use xlink:href="#f"/>
<use x="44.083984" xlink:href="#l"/>
<use x="105.607422" xlink:href="#g"/>
<use x="144.970703" xlink:href="#i"/>
<use x="242.382812" xlink:href="#k"/>
<use x="270.166016" xlink:href="#h"/>
<use x="333.544922" xlink:href="#e"/>
<use x="394.824219" xlink:href="#j"/>
</g>
</g>
<path d="m444.66 241.27v33.808q0 2.4 2.4 2.4h7.7425q2.4 0 2.4-2.4v-33.808q0-2.4-2.4-2.4h-7.7425q-2.4 0-2.4 2.4z" clip-path="url(#a)" fill="#fff" stroke="#fff"/>
<g clip-path="url(#a)">
<g transform="translate(448.73 241.27) rotate(90) scale(.08 -.08)">
<use xlink:href="#f"/>
<use x="44.083984" xlink:href="#l"/>
<use x="105.607422" xlink:href="#g"/>
<use x="144.970703" xlink:href="#i"/>
<use x="242.382812" xlink:href="#k"/>
<use x="270.166016" xlink:href="#h"/>
<use x="333.544922" xlink:href="#e"/>
<use x="394.824219" xlink:href="#j"/>
</g>
</g>
<path d="m91.121 213.89 1.9509 5.1129q0.85558 2.2423 3.0979 1.3867l7.2338-2.7601q2.2423-0.85558 1.3867-3.0979l-1.9509-5.1129q-0.85558-2.2423-3.0979-1.3867l-7.2338 2.7601q-2.2423 0.85558-1.3867 3.0979z" clip-path="url(#a)" fill="#fff" stroke="#fff"/>
<g clip-path="url(#a)">
<g transform="translate(94.918 212.44) rotate(69.115) scale(.08 -.08)">
<use xlink:href="#n"/>
</g>
</g>
<path d="m86.021 218.82 1.8105-4.7451q0.85558-2.2423-1.3867-3.0979l-7.2338-2.7601q-2.2423-0.85558-3.0979 1.3867l-1.8105 4.7451q-0.85558 2.2423 1.3867 3.0979l7.2338 2.7601q2.2423 0.85558 3.0979-1.3867z" clip-path="url(#a)" fill="#fff" stroke="#fff"/>
<g clip-path="url(#a)">
<g transform="translate(82.224 217.37) rotate(-69.115) scale(.08 -.08)">
<use xlink:href="#w"/>
</g>
</g>
<path d="m100.13 241.27v33.808q0 2.4 2.4 2.4h7.7425q2.4 0 2.4-2.4v-33.808q0-2.4-2.4-2.4h-7.7425q-2.4 0-2.4 2.4z" clip-path="url(#a)" fill="#fff" stroke="#fff"/>
<g clip-path="url(#a)">
<g transform="translate(104.19 241.27) rotate(90) scale(.08 -.08)">
<use xlink:href="#f"/>
<use x="44.083984" xlink:href="#l"/>
<use x="105.607422" xlink:href="#g"/>
<use x="144.970703" xlink:href="#i"/>
<use x="242.382812" xlink:href="#k"/>
<use x="270.166016" xlink:href="#h"/>
<use x="333.544922" xlink:href="#e"/>
<use x="394.824219" xlink:href="#j"/>
</g>
</g>
<path d="m187.95 241.27v33.808q0 2.4 2.4 2.4h7.7425q2.4 0 2.4-2.4v-33.808q0-2.4-2.4-2.4h-7.7425q-2.4 0-2.4 2.4z" clip-path="url(#a)" fill="#fff" stroke="#fff"/>
<g clip-path="url(#a)">
<g transform="translate(192.01 241.27) rotate(90) scale(.08 -.08)">
<use xlink:href="#f"/>
<use x="44.083984" xlink:href="#l"/>
<use x="105.607422" xlink:href="#g"/>
<use x="144.970703" xlink:href="#i"/>
<use x="242.382812" xlink:href="#k"/>
<use x="270.166016" xlink:href="#h"/>
<use x="333.544922" xlink:href="#e"/>
<use x="394.824219" xlink:href="#j"/>
</g>
</g>
<path d="m140.66 241.27v33.808q0 2.4 2.4 2.4h7.7425q2.4 0 2.4-2.4v-33.808q0-2.4-2.4-2.4h-7.7425q-2.4 0-2.4 2.4z" clip-path="url(#a)" fill="#fff" stroke="#fff"/>
<g clip-path="url(#a)">
<g transform="translate(144.73 241.27) rotate(90) scale(.08 -.08)">
<use xlink:href="#f"/>
<use x="44.083984" xlink:href="#l"/>
<use x="105.607422" xlink:href="#g"/>
<use x="144.970703" xlink:href="#i"/>
<use x="242.382812" xlink:href="#k"/>
<use x="270.166016" xlink:href="#h"/>
<use x="333.544922" xlink:href="#e"/>
<use x="394.824219" xlink:href="#j"/>
</g>
</g>
<path d="m66.351 241.27v33.808q0 2.4 2.4 2.4h7.7425q2.4 0 2.4-2.4v-33.808q0-2.4-2.4-2.4h-7.7425q-2.4 0-2.4 2.4z" clip-path="url(#a)" fill="#fff" stroke="#fff"/>
<g clip-path="url(#a)">
<g transform="translate(70.415 241.27) rotate(90) scale(.08 -.08)">
<use xlink:href="#f"/>
<use x="44.083984" xlink:href="#l"/>
<use x="105.607422" xlink:href="#g"/>
<use x="144.970703" xlink:href="#i"/>
<use x="242.382812" xlink:href="#k"/>
<use x="270.166016" xlink:href="#h"/>
<use x="333.544922" xlink:href="#e"/>
<use x="394.824219" xlink:href="#j"/>
</g>
</g>
<path d="m242 241.27v33.808q0 2.4 2.4 2.4h7.7425q2.4 0 2.4-2.4v-33.808q0-2.4-2.4-2.4h-7.7425q-2.4 0-2.4 2.4z" clip-path="url(#a)" fill="#fff" stroke="#fff"/>
<g clip-path="url(#a)">
<g transform="translate(246.06 241.27) rotate(90) scale(.08 -.08)">
<use xlink:href="#f"/>
<use x="44.083984" xlink:href="#l"/>
<use x="105.607422" xlink:href="#g"/>
<use x="144.970703" xlink:href="#i"/>
<use x="242.382812" xlink:href="#k"/>
<use x="270.166016" xlink:href="#h"/>
<use x="333.544922" xlink:href="#e"/>
<use x="394.824219" xlink:href="#j"/>
</g>
</g>
<path d="m525.73 241.27v33.808q0 2.4 2.4 2.4h7.7425q2.4 0 2.4-2.4v-33.808q0-2.4-2.4-2.4h-7.7425q-2.4 0-2.4 2.4z" clip-path="url(#a)" fill="#fff" stroke="#fff"/>
<g clip-path="url(#a)">
<g transform="translate(529.79 241.27) rotate(90) scale(.08 -.08)">
<use xlink:href="#f"/>
<use x="44.083984" xlink:href="#l"/>
<use x="105.607422" xlink:href="#g"/>
<use x="144.970703" xlink:href="#i"/>
<use x="242.382812" xlink:href="#k"/>
<use x="270.166016" xlink:href="#h"/>
<use x="333.544922" xlink:href="#e"/>
<use x="394.824219" xlink:href="#j"/>
</g>
</g>
<defs>
<path id="c" d="m0 8.6603c2.2967 0 4.4997-0.9125 6.1237-2.5365 1.624-1.624 2.5365-3.827 2.5365-6.1237s-0.9125-4.4997-2.5365-6.1237c-1.624-1.624-3.827-2.5365-6.1237-2.5365s-4.4997 0.9125-6.1237 2.5365c-1.624 1.624-2.5365 3.827-2.5365 6.1237s0.9125 4.4997 2.5365 6.1237c1.624 1.624 3.827 2.5365 6.1237 2.5365z"/>
</defs>
<g clip-path="url(#a)" fill="#ffffff" stroke="#ffffff">
<use x="25.333333" y="280" xlink:href="#c"/>
<use x="45.6" y="280" xlink:href="#c"/>
<use x="72.622222" y="280" xlink:href="#c"/>
<use x="106.4" y="280" xlink:href="#c"/>
<use x="146.933333" y="280" xlink:href="#c"/>
<use x="194.222222" y="280" xlink:href="#c"/>
<use x="248.266667" y="280" xlink:href="#c"/>
<use x="309.066667" y="280" xlink:href="#c"/>
<use x="376.622222" y="280" xlink:href="#c"/>
<use x="450.933333" y="280" xlink:href="#c"/>
<use x="532" y="280" xlink:href="#c"/>
<use x="119.04321" y="13.333333" xlink:href="#c"/>
<use x="119.04321" y="58.182568" xlink:href="#c"/>
<use x="25.333333" y="236.344801" xlink:href="#c"/>
<use x="45.6" y="236.344801" xlink:href="#c"/>
<use x="286.196296" y="102.94159" xlink:href="#c"/>
<use x="134.266667" y="147.587667" xlink:href="#c"/>
<use x="309.066667" y="236.344801" xlink:href="#c"/>
<use x="453.185185" y="192.082311" xlink:href="#c"/>
<use x="376.622222" y="236.344801" xlink:href="#c"/>
<use x="450.933333" y="236.344801" xlink:href="#c"/>
<use x="89.511111" y="192.082311" xlink:href="#c"/>
<use x="106.4" y="236.344801" xlink:href="#c"/>
<use x="194.222222" y="236.344801" xlink:href="#c"/>
<use x="146.933333" y="236.344801" xlink:href="#c"/>
<use x="72.622222" y="236.344801" xlink:href="#c"/>
<use x="248.266667" y="236.344801" xlink:href="#c"/>
<use x="532" y="236.344801" xlink:href="#c"/>
</g>
<g clip-path="url(#a)">
<g transform="translate(18.509 282.76) scale(.1 -.1)">
<defs>
<path id="au" d="m9.8125 72.906h9.8594v-29.891h35.844v29.891h9.8594v-72.906h-9.8594v34.719h-35.844v-34.719h-9.8594z"/>
<path id="m" d="m34.281 27.484q-10.891 0-15.094-2.4844t-4.2031-8.5q0-4.7812 3.1562-7.5938 3.1562-2.7969 8.5625-2.7969 7.4844 0 12 5.2969t4.5156 14.078v2zm17.922 3.7188v-31.203h-8.9844v8.2969q-3.0781-4.9688-7.6719-7.3438t-11.234-2.375q-8.3906 0-13.359 4.7188-4.9531 4.7188-4.9531 12.625 0 9.2188 6.1719 13.906 6.1875 4.6875 18.438 4.6875h12.609v0.89062q0 6.2031-4.0781 9.5938t-11.453 3.3906q-4.6875 0-9.1406-1.125-4.4375-1.125-8.5312-3.375v8.3125q4.9219 1.9062 9.5625 2.8438 4.6406 0.95312 9.0312 0.95312 11.875 0 17.734-6.1562 5.8594-6.1406 5.8594-18.641z"/>
</defs>
<use xlink:href="#au"/>
<use x="75.195312" xlink:href="#m"/>
</g>
</g>
<g clip-path="url(#a)">
<g transform="translate(20.814 282.76) scale(.1 -.1)">
<defs>
<path id="aj" d="m9.0781 54.688h8.9375v-25.688l25.344 25.688h11.031l-20.891-21.141 23.578-33.547h-10.062l-19.375 27.594-9.625-9.7656v-17.828h-8.9375z"/>
<path id="s" d="m18.109 8.2031v-29h-9.0312v75.484h9.0312v-8.2969q2.8438 4.875 7.1562 7.2344 4.3281 2.375 10.328 2.375 9.9688 0 16.188-7.9062 6.2344-7.9062 6.2344-20.797t-6.2344-20.812q-6.2188-7.9062-16.188-7.9062-6 0-10.328 2.375-4.3125 2.375-7.1562 7.25zm30.578 19.094q0 9.9062-4.0781 15.547t-11.203 5.6406q-7.1406 0-11.219-5.6406t-4.0781-15.547 4.0781-15.547 11.219-5.6406q7.125 0 11.203 5.6406t4.0781 15.547z"/>
<path id="ag" d="m2.9375 54.688h52.391v-7.1719h-21.781v-47.516h-8.8438v47.516h-21.766z"/>
<path id="ak" d="m55.906 54.688v-54.688h-8.9375v43.891l-26.359-43.891h-11.531v54.688h8.9375v-43.797l26.328 43.797z"/>
<path id="t" d="m9.0781 54.688h9.0312v-22.312h29.156v22.312h9.0312v-54.688h-9.0312v25.203h-29.156v-25.203h-9.0312z"/>
<path id="u" d="m56.203 29.594v-4.3906h-41.312q0.59375-9.2812 5.5938-14.141t13.938-4.8594q5.1719 0 10.031 1.2656t9.6562 3.8125v-8.5q-4.8438-2.0469-9.9219-3.125t-10.297-1.0781q-13.094 0-20.734 7.6094-7.6406 7.625-7.6406 20.625 0 13.422 7.25 21.297 7.25 7.8906 19.562 7.8906 11.031 0 17.453-7.1094 6.4219-7.0938 6.4219-19.297zm-8.9844 2.6406q-0.09375 7.3594-4.125 11.75-4.0312 4.4062-10.672 4.4062-7.5156 0-12.031-4.25t-5.2031-11.969z"/>
</defs>
<use xlink:href="#aj"/>
<use x="60.400391" xlink:href="#m"/>
<use x="121.679688" xlink:href="#s"/>
<use x="185.15625" xlink:href="#ag"/>
<use x="243.408203" xlink:href="#ak"/>
<use x="308.398438" xlink:href="#t"/>
<use x="373.779297" xlink:href="#aj"/>
<use x="434.179688" xlink:href="#u"/>
</g>
</g>
<g clip-path="url(#a)">
<g transform="translate(47.589 282.76) scale(.1 -.1)">
<defs>
<path id="o" d="m30.609 48.391q-7.2188 0-11.422-5.6406t-4.2031-15.453 4.1719-15.453q4.1875-5.6406 11.453-5.6406 7.1875 0 11.375 5.6562 4.2031 5.6719 4.2031 15.438 0 9.7188-4.2031 15.406-4.1875 5.6875-11.375 5.6875zm0 7.6094q11.719 0 18.406-7.625 6.7031-7.6094 6.7031-21.078 0-13.422-6.7031-21.078-6.6875-7.6406-18.406-7.6406-11.766 0-18.438 7.6406-6.6562 7.6562-6.6562 21.078 0 13.469 6.6562 21.078 6.6719 7.625 18.438 7.625z"/>
<path id="v" d="m9.0781 0v54.688h38.578v-7.1719h-29.547v-47.516z"/>
<path id="ah" d="m9.0781 54.688h13.141l15.531-36.625 15.578 36.625h13.031v-54.688h-9.0312v46.094l-15.094-35.594h-8.9844l-15.141 35.594v-46.094h-9.0312z"/>
<path id="r" d="m18.453 38.922q0-4.0625 3.125-6.3594 3.125-2.2812 8.9375-2.2812h12.109v17.234h-12.109q-5.8125 0-8.9375-2.25t-3.125-6.3438zm-12.781-38.922 16.688 23.969q-5.6562 1.2812-9.4219 4.625-3.75 3.3438-3.75 10.328 0 7.9062 5.2344 11.828 5.25 3.9375 15.859 3.9375h21.375v-54.688h-9.0312v23.094h-11.172l-16.125-23.094z"/>
</defs>
<use xlink:href="#o"/>
<use x="61.181641" xlink:href="#v"/>
<use x="113.720703" xlink:href="#s"/>
<use x="177.197266" xlink:href="#o"/>
<use x="238.378906" xlink:href="#ah"/>
<use x="313.818359" xlink:href="#t"/>
<use x="379.199219" xlink:href="#m"/>
<use x="440.478516" xlink:href="#r"/>
</g>
</g>
<g clip-path="url(#a)">
<g transform="translate(93.885 282.76) scale(.1 -.1)">
<defs>
<path id="al" d="m34.469 29.5q6.0625-1.1719 9.4219-4.75 3.375-3.5625 3.375-8.8281 0-8.4531-6.2969-12.906-6.2969-4.4375-17.922-4.4375-3.9062 0-8.0312 0.6875t-8.5156 2.0469v8.3594q3.4688-1.8125 7.6094-2.7188 4.1562-0.89062 8.6875-0.89062 7.375 0 11.5 2.7344t4.125 7.125q0 4.2969-3.6562 6.9062t-10.344 2.6094h-7.2344v7.4219h7.5625q5.6719 0 8.9688 2.1719t3.2969 5.5938q0 3.125-3.4062 5.375-3.3906 2.25-9.1875 2.25-3.4688 0-7.4062-0.64062-3.9219-0.64062-8.6719-2.0469v8.1562q4.7969 1.1719 8.9375 1.75 4.1562 0.59375 7.8594 0.59375 9.5781 0 15.109-3.8438 5.5469-3.8281 5.5469-10.719 0-4.5312-2.9375-7.6875-2.9219-3.1406-8.3906-4.3125z"/>
</defs>
<use xlink:href="#al"/>
<use x="53.173828" xlink:href="#ah"/>
<use x="128.613281" xlink:href="#u"/>
<use x="190.136719" xlink:href="#r"/>
</g>
</g>
<g clip-path="url(#a)">
<g transform="translate(145.13 282.76) scale(.1 -.1)">
<defs>
<path id="af" d="m4.8906 31.391h26.312v-8h-26.312z"/>
</defs>
<use xlink:href="#af"/>
</g>
</g>
<g clip-path="url(#a)">
<g transform="translate(181.79 282.76) scale(.1 -.1)">
<defs>
<path id="as" d="m32.172-5.0781q-3.7969-9.7656-7.4219-12.734-3.6094-2.9844-9.6562-2.9844h-7.1875v7.5156h5.2812q3.7031 0 5.75 1.7656 2.0625 1.75 4.5469 8.2969l1.6094 4.0938-22.109 53.812h9.5156l17.094-42.766 17.094 42.766h9.5156z"/>
<path id="at" d="m21.625 7.1719h26.078v40.344h-18.891v-6.8438q0-20.109-5.7656-30.859zm-13.031 0q4.4375 1.9531 6.3906 6.1094 4.7969 10.297 4.7969 31.062v10.344h36.953v-47.516h7.1875v-20.984h-7.1875v13.812h-44.328v-13.812h-7.1875v20.984z"/>
<path id="am" d="m18.062 25.203v-18.031h12.797q6.1562 0 9.375 2.3125 3.2188 2.3281 3.2188 6.7344 0 4.3906-3.2188 6.6875t-9.375 2.2969zm0 22.312v-15.141h11.828q5.0781 0 8.2969 2.0156 3.2188 2.0312 3.2188 5.6562 0 3.6094-3.2188 5.5312-3.2188 1.9375-8.2969 1.9375zm-8.9844 7.1719h21.391q9.625 0 14.797-3.5156t5.1719-10.016q0-5.0156-2.6406-7.9844-2.625-2.9531-7.8125-3.6719 6.2031-1.1719 9.625-4.8906 3.4219-3.7031 3.4219-9.2812 0-7.3125-5.6406-11.328-5.6406-4-16.094-4h-22.219z"/>
</defs>
<use xlink:href="#as"/>
<use x="59.179688" xlink:href="#at"/>
<use x="128.320312" xlink:href="#m"/>
<use x="189.599609" xlink:href="#am"/>
</g>
</g>
<g clip-path="url(#a)">
<g transform="translate(246.46 282.76) scale(.1 -.1)">
<use xlink:href="#af"/>
</g>
</g>
<g clip-path="url(#a)">
<g transform="translate(287.95 282.76) scale(.1 -.1)">
<defs>
<path id="ai" d="m3.7188 0v7.4688q8.875 1.375 11.609 7.5156 3.3281 8.6562 3.3281 30.766v8.9375h36.953v-54.688h-8.9844v47.516h-18.984v-5.4219q0-21.094-4.2969-30.562-4.5938-10.109-19.625-11.531z"/>
</defs>
<use xlink:href="#v"/>
<use x="52.539062" xlink:href="#ai"/>
<use x="116.455078" xlink:href="#o"/>
<use x="177.636719" xlink:href="#ag"/>
<use x="235.888672" xlink:href="#m"/>
<use x="297.167969" xlink:href="#ai"/>
<use x="361.083984" xlink:href="#m"/>
</g>
</g>
<g clip-path="url(#a)">
<g transform="translate(353.69 282.76) scale(.1 -.1)">
<defs>
<path id="ar" d="m54.891 54.688-19.781-26.609 20.797-28.078h-10.594l-15.922 21.484-15.906-21.484h-10.609l21.25 28.609-19.438 26.078h10.594l14.5-19.484 14.5 19.484z"/>
<path id="aq" d="m82.422 0h-73.344v54.688h9.0312v-47.516h23.109v47.516h9.0312v-47.516h23.141v47.516h9.0312v-47.516h7.1719v-20.984h-7.1719z"/>
</defs>
<use xlink:href="#ar"/>
<use x="59.179688" xlink:href="#ak"/>
<use x="124.169922" xlink:href="#aq"/>
<use x="218.359375" xlink:href="#t"/>
<use x="283.740234" xlink:href="#o"/>
<use x="344.921875" xlink:href="#v"/>
<use x="397.460938" xlink:href="#o"/>
</g>
</g>
<g clip-path="url(#a)">
<g transform="translate(436.07 282.76) scale(.1 -.1)">
<use xlink:href="#al"/>
<use x="53.173828" xlink:href="#am"/>
<use x="112.109375" xlink:href="#u"/>
<use x="173.632812" xlink:href="#s"/>
<use x="237.109375" xlink:href="#r"/>
</g>
</g>
<g clip-path="url(#a)">
<g transform="translate(530.41 282.76) scale(.1 -.1)">
<defs>
<path id="d" d="m10.688 12.406h10.312v-12.406h-10.312z"/>
</defs>
<use xlink:href="#d"/>
</g>
</g>
<g clip-path="url(#a)">
<g transform="translate(111.09 16.093) scale(.1 -.1)">
<defs>
<path id="b" d="m12.406 8.2969h16.109v55.625l-17.531-3.5156v8.9844l17.438 3.5156h9.8594v-64.609h16.109v-8.2969h-41.984z"/>
</defs>
<use xlink:href="#b"/>
<use x="63.623047" xlink:href="#d"/>
<use x="95.410156" xlink:href="#b"/>
</g>
</g>
<g clip-path="url(#a)">
<g transform="translate(111.09 60.942) scale(.1 -.1)">
<defs>
<path id="ae" d="m19.188 8.2969h34.422v-8.2969h-46.281v8.2969q5.6094 5.8125 15.297 15.594 9.7031 9.7969 12.188 12.641 4.7344 5.3125 6.6094 9 1.8906 3.6875 1.8906 7.25 0 5.8125-4.0781 9.4688-4.0781 3.6719-10.625 3.6719-4.6406 0-9.7969-1.6094-5.1406-1.6094-11-4.8906v9.9688q5.9531 2.3906 11.125 3.6094 5.1875 1.2188 9.4844 1.2188 11.328 0 18.062-5.6719 6.7344-5.6562 6.7344-15.125 0-4.5-1.6875-8.5312-1.6719-4.0156-6.125-9.4844-1.2188-1.4219-7.7656-8.1875-6.5312-6.7656-18.453-18.922z"/>
</defs>
<use xlink:href="#b"/>
<use x="63.623047" xlink:href="#d"/>
<use x="95.410156" xlink:href="#ae"/>
</g>
</g>
<g clip-path="url(#a)">
<g transform="translate(17.382 239.1) scale(.1 -.1)">
<defs>
<path id="ad" d="m37.797 64.312-24.906-38.922h24.906zm-2.5938 8.5938h12.406v-47.516h10.406v-8.2031h-10.406v-17.188h-9.8125v17.188h-32.906v9.5156z"/>
</defs>
<use xlink:href="#b"/>
<use x="63.623047" xlink:href="#d"/>
<use x="95.410156" xlink:href="#ad"/>
</g>
</g>
<g clip-path="url(#a)">
<g transform="translate(37.648 239.1) scale(.1 -.1)">
<defs>
<path id="ac" d="m10.797 72.906h38.719v-8.3125h-29.688v-17.859q2.1406 0.73438 4.2812 1.0938 2.1562 0.35938 4.3125 0.35938 12.203 0 19.328-6.6875 7.1406-6.6875 7.1406-18.109 0-11.766-7.3281-18.297-7.3281-6.5156-20.656-6.5156-4.5938 0-9.3594 0.78125-4.75 0.78125-9.8281 2.3438v9.9219q4.3906-2.3906 9.0781-3.5625t9.9062-1.1719q8.4531 0 13.375 4.4375 4.9375 4.4375 4.9375 12.062 0 7.6094-4.9375 12.047-4.9219 4.4531-13.375 4.4531-3.9531 0-7.8906-0.875-3.9219-0.875-8.0156-2.7344z"/>
</defs>
<use xlink:href="#b"/>
<use x="63.623047" xlink:href="#d"/>
<use x="95.410156" xlink:href="#ac"/>
</g>
</g>
<g clip-path="url(#a)">
<g transform="translate(278.24 105.7) scale(.1 -.1)">
<defs>
<path id="ab" d="m33.016 40.375q-6.6406 0-10.531-4.5469-3.875-4.5312-3.875-12.438 0-7.8594 3.875-12.438 3.8906-4.5625 10.531-4.5625t10.516 4.5625q3.875 4.5781 3.875 12.438 0 7.9062-3.875 12.438-3.875 4.5469-10.516 4.5469zm19.578 30.922v-8.9844q-3.7188 1.75-7.5 2.6719-3.7812 0.9375-7.5 0.9375-9.7656 0-14.922-6.5938-5.1406-6.5938-5.875-19.922 2.875 4.25 7.2188 6.5156 4.3594 2.2656 9.5781 2.2656 10.984 0 17.359-6.6719 6.375-6.6562 6.375-18.125 0-11.234-6.6406-18.031-6.6406-6.7812-17.672-6.7812-12.656 0-19.344 9.6875-6.6875 9.7031-6.6875 28.109 0 17.281 8.2031 27.562t22.016 10.281q3.7188 0 7.5-0.73438t7.8906-2.1875z"/>
</defs>
<use xlink:href="#b"/>
<use x="63.623047" xlink:href="#d"/>
<use x="95.410156" xlink:href="#ab"/>
</g>
</g>
<g clip-path="url(#a)">
<g transform="translate(126.32 150.35) scale(.1 -.1)">
<defs>
<path id="aa" d="m8.2031 72.906h46.875v-4.2031l-26.469-68.703h-10.297l24.906 64.594h-35.016z"/>
</defs>
<use xlink:href="#b"/>
<use x="63.623047" xlink:href="#d"/>
<use x="95.410156" xlink:href="#aa"/>
</g>
</g>
<g clip-path="url(#a)">
<g transform="translate(301.12 239.1) scale(.1 -.1)">
<defs>
<path id="z" d="m31.781 34.625q-7.0312 0-11.062-3.7656-4.0156-3.7656-4.0156-10.344 0-6.5938 4.0156-10.359 4.0312-3.7656 11.062-3.7656t11.078 3.7812q4.0625 3.7969 4.0625 10.344 0 6.5781-4.0312 10.344-4.0156 3.7656-11.109 3.7656zm-9.8594 4.1875q-6.3438 1.5625-9.8906 5.9062-3.5312 4.3594-3.5312 10.609 0 8.7344 6.2188 13.812 6.2344 5.0781 17.062 5.0781 10.891 0 17.094-5.0781t6.2031-13.812q0-6.25-3.5469-10.609-3.5312-4.3438-9.8281-5.9062 7.125-1.6562 11.094-6.5 3.9844-4.8281 3.9844-11.797 0-10.609-6.4688-16.281-6.4688-5.6562-18.531-5.6562-12.047 0-18.531 5.6562-6.4688 5.6719-6.4688 16.281 0 6.9688 4 11.797 4.0156 4.8438 11.141 6.5zm-3.6094 15.578q0-5.6562 3.5312-8.8281 3.5469-3.1719 9.9375-3.1719 6.3594 0 9.9375 3.1719 3.5938 3.1719 3.5938 8.8281 0 5.6719-3.5938 8.8438-3.5781 3.1719-9.9375 3.1719-6.3906 0-9.9375-3.1719-3.5312-3.1719-3.5312-8.8438z"/>
</defs>
<use xlink:href="#b"/>
<use x="63.623047" xlink:href="#d"/>
<use x="95.410156" xlink:href="#z"/>
</g>
</g>
<g clip-path="url(#a)">
<g transform="translate(445.23 194.84) scale(.1 -.1)">
<defs>
<path id="y" d="m10.984 1.5156v8.9844q3.7188-1.7656 7.5156-2.6875 3.8125-0.92188 7.4844-0.92188 9.7656 0 14.906 6.5625 5.1562 6.5625 5.8906 19.953-2.8281-4.2031-7.1875-6.4531-4.3438-2.25-9.6094-2.25-10.938 0-17.312 6.6094-6.375 6.625-6.375 18.109 0 11.219 6.6406 18 6.6406 6.7969 17.672 6.7969 12.656 0 19.312-9.7031 6.6719-9.6875 6.6719-28.141 0-17.234-8.1875-27.516-8.1719-10.281-21.984-10.281-3.7188 0-7.5312 0.73438-3.7969 0.73438-7.9062 2.2031zm19.625 30.906q6.6406 0 10.516 4.5312 3.8906 4.5469 3.8906 12.469 0 7.8594-3.8906 12.422-3.875 4.5625-10.516 4.5625t-10.516-4.5625-3.875-12.422q0-7.9219 3.875-12.469 3.875-4.5312 10.516-4.5312z"/>
</defs>
<use xlink:href="#b"/>
<use x="63.623047" xlink:href="#d"/>
<use x="95.410156" xlink:href="#y"/>
</g>
</g>
<g clip-path="url(#a)">
<g transform="translate(365.49 239.1) scale(.1 -.1)">
<use xlink:href="#b"/>
<use x="63.623047" xlink:href="#d"/>
<use x="95.410156" xlink:href="#b"/>
<use x="159.033203" xlink:href="#b"/>
</g>
</g>
<g clip-path="url(#a)">
<g transform="translate(439.8 239.1) scale(.1 -.1)">
<use xlink:href="#b"/>
<use x="63.623047" xlink:href="#d"/>
<use x="95.410156" xlink:href="#b"/>
<use x="159.033203" xlink:href="#ae"/>
</g>
</g>
<g clip-path="url(#a)">
<g transform="translate(78.378 194.84) scale(.1 -.1)">
<defs>
<path id="ap" d="m40.578 39.312q7.0781-1.5156 11.047-6.3125 3.9844-4.7812 3.9844-11.812 0-10.781-7.4219-16.703-7.4219-5.9062-21.094-5.9062-4.5781 0-9.4375 0.90625t-10.031 2.7188v9.5156q4.0938-2.3906 8.9688-3.6094 4.8906-1.2188 10.219-1.2188 9.2656 0 14.125 3.6562t4.8594 10.641q0 6.4531-4.5156 10.078-4.5156 3.6406-12.562 3.6406h-8.5v8.1094h8.8906q7.2656 0 11.125 2.9062t3.8594 8.375q0 5.6094-3.9844 8.6094-3.9688 3.0156-11.391 3.0156-4.0625 0-8.7031-0.89062-4.6406-0.875-10.203-2.7188v8.7812q5.625 1.5625 10.531 2.3438t9.25 0.78125q11.234 0 17.766-5.1094 6.5469-5.0938 6.5469-13.781 0-6.0625-3.4688-10.234t-9.8594-5.7812z"/>
</defs>
<use xlink:href="#b"/>
<use x="63.623047" xlink:href="#d"/>
<use x="95.410156" xlink:href="#b"/>
<use x="159.033203" xlink:href="#ap"/>
</g>
</g>
<g clip-path="url(#a)">
<g transform="translate(95.267 239.1) scale(.1 -.1)">
<use xlink:href="#b"/>
<use x="63.623047" xlink:href="#d"/>
<use x="95.410156" xlink:href="#b"/>
<use x="159.033203" xlink:href="#ad"/>
</g>
</g>
<g clip-path="url(#a)">
<g transform="translate(183.09 239.1) scale(.1 -.1)">
<use xlink:href="#b"/>
<use x="63.623047" xlink:href="#d"/>
<use x="95.410156" xlink:href="#b"/>
<use x="159.033203" xlink:href="#ac"/>
</g>
</g>
<g clip-path="url(#a)">
<g transform="translate(135.8 239.1) scale(.1 -.1)">
<use xlink:href="#b"/>
<use x="63.623047" xlink:href="#d"/>
<use x="95.410156" xlink:href="#b"/>
<use x="159.033203" xlink:href="#ab"/>
</g>
</g>
<g clip-path="url(#a)">
<g transform="translate(61.489 239.1) scale(.1 -.1)">
<use xlink:href="#b"/>
<use x="63.623047" xlink:href="#d"/>
<use x="95.410156" xlink:href="#b"/>
<use x="159.033203" xlink:href="#aa"/>
</g>
</g>
<g clip-path="url(#a)">
<g transform="translate(237.13 239.1) scale(.1 -.1)">
<use xlink:href="#b"/>
<use x="63.623047" xlink:href="#d"/>
<use x="95.410156" xlink:href="#b"/>
<use x="159.033203" xlink:href="#z"/>
</g>
</g>
<g clip-path="url(#a)">
<g transform="translate(520.87 239.1) scale(.1 -.1)">
<use xlink:href="#b"/>
<use x="63.623047" xlink:href="#d"/>
<use x="95.410156" xlink:href="#b"/>
<use x="159.033203" xlink:href="#y"/>
</g>
</g>
<defs>
<clipPath id="a">
<rect width="557.33" height="293.33"/>
</clipPath>
</defs>
</svg>
