<?xml version="1.0" encoding="UTF-8"?>
<!DOCTYPE svg  PUBLIC '-//W3C//DTD SVG 1.1//EN'  'http://www.w3.org/Graphics/SVG/1.1/DTD/svg11.dtd'>
<svg width="1013.3pt" height="533.33pt" version="1.1" viewBox="0 0 1013.3 533.33" xmlns="http://www.w3.org/2000/svg" xmlns:xlink="http://www.w3.org/1999/xlink">
<metadata>
<rdf:RDF xmlns:cc="http://creativecommons.org/ns#" xmlns:dc="http://purl.org/dc/elements/1.1/" xmlns:rdf="http://www.w3.org/1999/02/22-rdf-syntax-ns#">
<cc:Work>
<dc:type rdf:resource="http://purl.org/dc/dcmitype/StillImage"/>
<dc:date>2021-01-21T01:15:29.666663</dc:date>
<dc:format>image/svg+xml</dc:format>
<dc:creator>
<cc:Agent>
<dc:title>Matplotlib v3.3.3, https://matplotlib.org/</dc:title>
</cc:Agent>
</dc:creator>
</cc:Work>
</rdf:RDF>
</metadata>
<defs>
<style type="text/css">*{stroke-linecap:butt;stroke-linejoin:round;}</style>
</defs>
<path d="m0 533.33h1013.3v-533.33h-1013.3z" fill="#fff"/>
<g fill="none" stroke="#000">
<path d="m356.86 24.242-267.03 244.1" clip-path="url(#a)"/>
<path d="m356.86 24.242-141.1 365.31" clip-path="url(#a)"/>
<path d="m356.86 24.242 37.89 122.26" clip-path="url(#a)"/>
<path d="m356.86 24.242 444.76 365.31" clip-path="url(#a)"/>
<path d="m356.86 24.242 102.94 122.26" clip-path="url(#a)"/>
<path d="m356.86 24.242-177.46 365.31" clip-path="url(#a)"/>
<path d="m89.832 268.34-43.771 121.21" clip-path="url(#a)"/>
<path d="m89.832 268.34-31.65 121.21" clip-path="url(#a)"/>
<path d="m89.832 268.34-15.488 121.21" clip-path="url(#a)"/>
<path d="m89.832 268.34 4.7138 121.21" clip-path="url(#a)"/>
<path d="m89.832 268.34 28.956 121.21" clip-path="url(#a)"/>
<path d="m89.832 268.34 57.239 121.21" clip-path="url(#a)"/>
<path d="m215.76 389.55v119.54" clip-path="url(#a)"/>
<path d="m394.75 146.5-116.36 121.84" clip-path="url(#a)"/>
<path d="m394.75 146.5-45.657 243.05" clip-path="url(#a)"/>
<path d="m394.75 146.5 6.8687 243.05" clip-path="url(#a)"/>
<path d="m394.75 146.5 155.15 121.84" clip-path="url(#a)"/>
<path d="m801.62 389.55v119.54" clip-path="url(#a)"/>
<path d="m459.8 146.5 217.37 121.84" clip-path="url(#a)"/>
<path d="m459.8 146.5-58.182 243.05" clip-path="url(#a)" stroke-dasharray="3.7,1.6"/>
<path d="m459.8 146.5-159.19 243.05" clip-path="url(#a)" stroke-dasharray="3.7,1.6"/>
<path d="m677.17 268.34 205.25 121.21" clip-path="url(#a)"/>
<path d="m677.17 268.34-93.737 121.21" clip-path="url(#a)" stroke-dasharray="3.7,1.6"/>
<path d="m677.17 268.34-25.051 121.21" clip-path="url(#a)" stroke-dasharray="3.7,1.6"/>
<path d="m677.17 268.34-376.57 121.21" clip-path="url(#a)" stroke-dasharray="3.7,1.6"/>
<path d="m677.17 268.34 290.1 121.21" clip-path="url(#a)"/>
<path d="m882.42 389.55v119.54" clip-path="url(#a)"/>
<path d="m278.38 268.34-22.222 121.21" clip-path="url(#a)"/>
<path d="m278.38 268.34 22.222 121.21" clip-path="url(#a)"/>
<path d="m349.09 389.55v119.54" clip-path="url(#a)"/>
<path d="m401.62 389.55v119.54" clip-path="url(#a)"/>
<path d="m549.9 268.34-61.414 121.21" clip-path="url(#a)"/>
<path d="m549.9 268.34 33.535 121.21" clip-path="url(#a)"/>
<path d="m549.9 268.34 102.22 121.21" clip-path="url(#a)"/>
<path d="m549.9 268.34 174.95 121.21" clip-path="url(#a)"/>
<path d="m549.9 268.34-249.29 121.21" clip-path="url(#a)" stroke-dasharray="3.7,1.6"/>
<path d="m488.48 389.55-30.303 119.54" clip-path="url(#a)"/>
<path d="m488.48 389.55 30.303 119.54" clip-path="url(#a)"/>
<path d="m583.43 389.55v119.54" clip-path="url(#a)"/>
<path d="m652.12 389.55v119.54" clip-path="url(#a)"/>
<path d="m724.85 389.55v119.54" clip-path="url(#a)"/>
<path d="m256.16 389.55v119.54" clip-path="url(#a)"/>
<path d="m300.61 389.55v119.54" clip-path="url(#a)"/>
<path d="m46.061 389.55v119.54" clip-path="url(#a)"/>
<path d="m58.182 389.55v119.54" clip-path="url(#a)"/>
<path d="m74.343 389.55v119.54" clip-path="url(#a)"/>
<path d="m94.545 389.55v119.54" clip-path="url(#a)"/>
<path d="m118.79 389.55v119.54" clip-path="url(#a)"/>
<path d="m147.07 389.55v119.54" clip-path="url(#a)"/>
<path d="m179.39 389.55v119.54" clip-path="url(#a)"/>
<path d="m967.27 389.55v119.54" clip-path="url(#a)"/>
</g>
<path d="m225.36 152.95 4.4405-4.0592q1.7714-1.6193 0.15209-3.3907l-5.2239-5.7146q-1.6193-1.7714-3.3907-0.15209l-4.4405 4.0592q-1.7714 1.6193-0.15209 3.3907l5.2239 5.7146q1.6193 1.7714 3.3907 0.15209z" clip-path="url(#a)" fill="#fff" stroke="#fff"/>
<g clip-path="url(#a)">
<g transform="translate(222.61 149.95) rotate(-42.432) scale(.08 -.08)">
<defs>
<path id="aa" d="m9.8125 72.906h9.8594v-29.891h35.844v29.891h9.8594v-72.906h-9.8594v34.719h-35.844v-34.719h-9.8594z"/>
</defs>
<use xlink:href="#aa"/>
</g>
</g>
<path d="m291.35 211.23 1.6061-4.1581q0.86474-2.2388-1.3741-3.1035l-7.2225-2.7897q-2.2388-0.86474-3.1035 1.3741l-1.6061 4.1581q-0.86474 2.2388 1.3741 3.1035l7.2225 2.7897q2.2388 0.86474 3.1035-1.3741z" clip-path="url(#a)" fill="#fff" stroke="#fff"/>
<g clip-path="url(#a)">
<g transform="translate(287.56 209.77) rotate(-68.881) scale(.08 -.08)">
<defs>
<path id="al" d="m9.8125 72.906h9.8594v-64.609h35.5v-8.2969h-45.359z"/>
</defs>
<use xlink:href="#al"/>
</g>
</g>
<path d="m368.92 84.354 1.781 5.7466q0.71047 2.2924 3.0029 1.582l7.3955-2.292q2.2924-0.71047 1.582-3.0029l-1.781-5.7466q-0.71047-2.2924-3.0029-1.582l-7.3955 2.292q-2.2924 0.71047-1.582 3.0029z" clip-path="url(#a)" fill="#fff" stroke="#fff"/>
<g clip-path="url(#a)">
<g transform="translate(372.8 83.151) rotate(72.781) scale(.08 -.08)">
<use xlink:href="#aa"/>
</g>
</g>
<path d="m573.53 210.33 3.4446 2.8292q1.8546 1.5233 3.3779-0.33132l4.9142-5.983q1.5233-1.8546-0.33132-3.3779l-3.4446-2.8292q-1.8546-1.5233-3.3779 0.33132l-4.9142 5.983q-1.5233 1.8546 0.33132 3.3779z" clip-path="url(#a)" fill="#fff" stroke="#fff"/>
<g clip-path="url(#a)">
<g transform="translate(576.11 207.19) rotate(39.398) scale(.08 -.08)">
<use xlink:href="#al"/>
</g>
</g>
<path d="m401.59 87.109 3.875 4.6021q1.5458 1.8359 3.3817 0.29006l5.9226-4.9869q1.8359-1.5458 0.29006-3.3817l-3.875-4.6021q-1.5458-1.8359-3.3817-0.29006l-5.9226 4.9869q-1.8359 1.5458-0.29006 3.3817z" clip-path="url(#a)" fill="#fff" stroke="#fff"/>
<g clip-path="url(#a)">
<g transform="translate(404.7 84.492) rotate(49.903) scale(.08 -.08)">
<use xlink:href="#aa"/>
</g>
</g>
<path d="m272.49 212.27 2.5584-5.2665q1.0487-2.1588-1.11-3.2075l-6.9642-3.3832q-2.1588-1.0487-3.2075 1.11l-2.5584 5.2665q-1.0487 2.1588 1.11 3.2075l6.9642 3.3832q2.1588 1.0487 3.2075-1.11z" clip-path="url(#a)" fill="#fff" stroke="#fff"/>
<g clip-path="url(#a)">
<g transform="translate(268.83 210.49) rotate(-64.09) scale(.08 -.08)">
<defs>
<path id="aj" d="m8.6875 72.906h9.9219v-44.297q0-11.719 4.2344-16.875 4.25-5.1406 13.781-5.1406 9.4688 0 13.719 5.1406 4.25 5.1562 4.25 16.875v44.297h9.9062v-45.516q0-14.25-7.0625-21.531-7.0469-7.2812-20.812-7.2812-13.828 0-20.891 7.2812-7.0469 7.2812-7.0469 21.531z"/>
</defs>
<use xlink:href="#aj"/>
</g>
</g>
<path d="m72.915 333.65 1.8588-5.1472q0.81518-2.2573-1.4421-3.0725l-7.2822-2.6298q-2.2573-0.81518-3.0725 1.4421l-1.8588 5.1472q-0.81518 2.2573 1.4421 3.0725l7.2822 2.6298q2.2573 0.81518 3.0725-1.4421z" clip-path="url(#a)" fill="#fff" stroke="#fff"/>
<g clip-path="url(#a)">
<g transform="translate(69.093 332.27) rotate(-70.144) scale(.08 -.08)">
<defs>
<path id="m" d="m34.188 63.188-13.391-36.281h26.812zm-5.5781 9.7188h11.188l27.781-72.906h-10.25l-6.6406 18.703h-32.859l-6.6406-18.703h-10.406z"/>
</defs>
<use xlink:href="#m"/>
</g>
</g>
<path d="m79.296 333.51 1.5563-5.9602q0.60636-2.3221-1.7158-2.9285l-7.4913-1.9562q-2.3221-0.60636-2.9285 1.7158l-1.5563 5.9602q-0.60636 2.3221 1.7158 2.9285l7.4913 1.9562q2.3221 0.60636 2.9285-1.7158z" clip-path="url(#a)" fill="#fff" stroke="#fff"/>
<g clip-path="url(#a)">
<g transform="translate(75.364 332.48) rotate(-75.366) scale(.08 -.08)">
<defs>
<path id="u" d="m19.672 64.797v-56.688h11.922q15.094 0 22.094 6.8281 7 6.8438 7 21.594 0 14.641-7 21.453t-22.094 6.8125zm-9.8594 8.1094h20.266q21.188 0 31.094-8.8125 9.9219-8.8125 9.9219-27.562 0-18.859-9.9688-27.703-9.9531-8.8281-31.047-8.8281h-20.266z"/>
</defs>
<use xlink:href="#u"/>
</g>
</g>
<path d="m87.961 332.45 0.69366-5.4284q0.30421-2.3806-2.0764-2.6848l-7.6801-0.98139q-2.3806-0.30421-2.6848 2.0764l-0.69366 5.4284q-0.30421 2.3806 2.0764 2.6848l7.6801 0.98139q2.3806 0.30421 2.6848-2.0764z" clip-path="url(#a)" fill="#fff" stroke="#fff"/>
<g clip-path="url(#a)">
<g transform="translate(83.93 331.94) rotate(-82.718) scale(.08 -.08)">
<use xlink:href="#m"/>
</g>
</g>
<path d="m85.802 326.11 0.23939 6.1553q0.093268 2.3982 2.4915 2.3049l7.7367-0.30088q2.3982-0.093268 2.3049-2.4915l-0.23939-6.1553q-0.093267-2.3982-2.4915-2.3049l-7.7367 0.30088q-2.3982 0.093267-2.3049 2.4915z" clip-path="url(#a)" fill="#fff" stroke="#fff"/>
<g clip-path="url(#a)">
<g transform="translate(89.863 325.95) rotate(87.773) scale(.08 -.08)">
<use xlink:href="#u"/>
</g>
</g>
<path d="m97.65 328.06 1.1209 4.6917q0.55767 2.3343 2.892 1.7766l7.5306-1.7991q2.3343-0.55767 1.7766-2.892l-1.1209-4.6917q-0.55767-2.3343-2.892-1.7766l-7.5306 1.7991q-2.3343 0.55767-1.7766 2.892z" clip-path="url(#a)" fill="#fff" stroke="#fff"/>
<g clip-path="url(#a)">
<g transform="translate(101.6 327.11) rotate(76.564) scale(.08 -.08)">
<defs>
<path id="z" d="m19.672 64.797v-27.391h12.406q6.8906 0 10.641 3.5625 3.7656 3.5625 3.7656 10.156 0 6.5469-3.7656 10.109-3.75 3.5625-10.641 3.5625zm-9.8594 8.1094h22.266q12.266 0 18.531-5.5469 6.2812-5.5469 6.2812-16.234 0-10.797-6.2812-16.312-6.2656-5.5156-18.531-5.5156h-12.406v-29.297h-9.8594z"/>
</defs>
<use xlink:href="#z"/>
</g>
</g>
<path d="m111.47 328.84 2.6305 5.5701q1.0249 2.1702 3.195 1.1453l7.0011-3.3062q2.1702-1.0249 1.1453-3.195l-2.6305-5.5701q-1.0249-2.1702-3.195-1.1453l-7.0011 3.3062q-2.1702 1.0249-1.1453 3.195z" clip-path="url(#a)" fill="#fff" stroke="#fff"/>
<g clip-path="url(#a)">
<g transform="translate(115.14 327.1) rotate(64.721) scale(.08 -.08)">
<use xlink:href="#u"/>
</g>
</g>
<path d="m209.49 432.42v33.808q0 2.4 2.4 2.4h7.7425q2.4 0 2.4-2.4v-33.808q0-2.4-2.4-2.4h-7.7425q-2.4 0-2.4 2.4z" clip-path="url(#a)" fill="#fff" stroke="#fff"/>
<g clip-path="url(#a)">
<g transform="translate(213.55 432.42) rotate(90) scale(.08 -.08)">
<defs>
<path id="f" d="m-0.29688 72.906h61.672v-8.3125h-25.875v-64.594h-9.9062v64.594h-25.891z"/>
<path id="l" d="m56.203 29.594v-4.3906h-41.312q0.59375-9.2812 5.5938-14.141t13.938-4.8594q5.1719 0 10.031 1.2656t9.6562 3.8125v-8.5q-4.8438-2.0469-9.9219-3.125t-10.297-1.0781q-13.094 0-20.734 7.6094-7.6406 7.625-7.6406 20.625 0 13.422 7.25 21.297 7.25 7.8906 19.562 7.8906 11.031 0 17.453-7.1094 6.4219-7.0938 6.4219-19.297zm-8.9844 2.6406q-0.09375 7.3594-4.125 11.75-4.0312 4.4062-10.672 4.4062-7.5156 0-12.031-4.25t-5.2031-11.969z"/>
<path id="g" d="m41.109 46.297q-1.5156 0.875-3.2969 1.2812-1.7812 0.42188-3.9219 0.42188-7.625 0-11.703-4.9531t-4.0781-14.234v-28.812h-9.0312v54.688h9.0312v-8.5q2.8438 4.9844 7.375 7.3906 4.5469 2.4219 11.047 2.4219 0.92188 0 2.0469-0.125 1.125-0.10938 2.4844-0.35938z"/>
<path id="i" d="m52 44.188q3.375 6.0625 8.0625 8.9375t11.031 2.875q8.5469 0 13.188-5.9844 4.6406-5.9688 4.6406-17v-33.016h-9.0312v32.719q0 7.8594-2.7969 11.656-2.7812 3.8125-8.4844 3.8125-6.9844 0-11.047-4.6406-4.0469-4.625-4.0469-12.641v-30.906h-9.0312v32.719q0 7.9062-2.7812 11.688t-8.5938 3.7812q-6.8906 0-10.953-4.6562-4.0469-4.6562-4.0469-12.625v-30.906h-9.0312v54.688h9.0312v-8.5q3.0781 5.0312 7.375 7.4219t10.203 2.3906q5.9688 0 10.141-3.0312 4.1719-3.0156 6.1719-8.7812z"/>
<path id="k" d="m9.4219 54.688h8.9844v-54.688h-8.9844zm0 21.297h8.9844v-11.391h-8.9844z"/>
<path id="h" d="m54.891 33.016v-33.016h-8.9844v32.719q0 7.7656-3.0312 11.609-3.0312 3.8594-9.0781 3.8594-7.2812 0-11.484-4.6406-4.2031-4.625-4.2031-12.641v-30.906h-9.0312v54.688h9.0312v-8.5q3.2344 4.9375 7.5938 7.375 4.375 2.4375 10.094 2.4375 9.4219 0 14.25-5.8281 4.8438-5.8281 4.8438-17.156z"/>
<path id="e" d="m34.281 27.484q-10.891 0-15.094-2.4844t-4.2031-8.5q0-4.7812 3.1562-7.5938 3.1562-2.7969 8.5625-2.7969 7.4844 0 12 5.2969t4.5156 14.078v2zm17.922 3.7188v-31.203h-8.9844v8.2969q-3.0781-4.9688-7.6719-7.3438t-11.234-2.375q-8.3906 0-13.359 4.7188-4.9531 4.7188-4.9531 12.625 0 9.2188 6.1719 13.906 6.1875 4.6875 18.438 4.6875h12.609v0.89062q0 6.2031-4.0781 9.5938t-11.453 3.3906q-4.6875 0-9.1406-1.125-4.4375-1.125-8.5312-3.375v8.3125q4.9219 1.9062 9.5625 2.8438 4.6406 0.95312 9.0312 0.95312 11.875 0 17.734-6.1562 5.8594-6.1406 5.8594-18.641z"/>
<path id="j" d="m9.4219 75.984h8.9844v-75.984h-8.9844z"/>
</defs>
<use xlink:href="#f"/>
<use x="44.083984" xlink:href="#l"/>
<use x="105.607422" xlink:href="#g"/>
<use x="144.970703" xlink:href="#i"/>
<use x="242.382812" xlink:href="#k"/>
<use x="270.166016" xlink:href="#h"/>
<use x="333.544922" xlink:href="#e"/>
<use x="394.824219" xlink:href="#j"/>
</g>
</g>
<path d="m339.21 213.73 3.7796-3.9576q1.6576-1.7356-0.07804-3.3932l-5.5992-5.3474q-1.7356-1.6576-3.3932 0.078039l-3.7796 3.9576q-1.6576 1.7356 0.07804 3.3932l5.5992 5.3474q1.7356 1.6576 3.3932-0.078039z" clip-path="url(#a)" fill="#fff" stroke="#fff"/>
<g clip-path="url(#a)">
<g transform="translate(336.27 210.92) rotate(-46.317) scale(.08 -.08)">
<use xlink:href="#m"/>
</g>
</g>
<path d="m377.51 272.21 1.1373-6.0541q0.44309-2.3587-1.9157-2.8018l-7.6094-1.4294q-2.3587-0.44309-2.8018 1.9157l-1.1373 6.0541q-0.44309 2.3587 1.9157 2.8018l7.6094 1.4294q2.3587 0.44309 2.8018-1.9157z" clip-path="url(#a)" fill="#fff" stroke="#fff"/>
<g clip-path="url(#a)">
<g transform="translate(373.52 271.46) rotate(-79.361) scale(.08 -.08)">
<use xlink:href="#u"/>
</g>
</g>
<path d="m391.84 265.66 0.14347 5.0767q0.067798 2.399 2.4668 2.3312l7.7394-0.21872q2.399-0.067799 2.3312-2.4668l-0.14347-5.0767q-0.067798-2.399-2.4668-2.3312l-7.7394 0.21872q-2.399 0.067799-2.3312 2.4668z" clip-path="url(#a)" fill="#fff" stroke="#fff"/>
<g clip-path="url(#a)">
<g transform="translate(395.9 265.55) rotate(88.381) scale(.08 -.08)">
<defs>
<path id="ak" d="m53.516 70.516v-9.625q-5.6094 2.6875-10.594 4-4.9844 1.3281-9.625 1.3281-8.0469 0-12.422-3.125t-4.375-8.8906q0-4.8438 2.9062-7.3125 2.9062-2.4531 11.016-3.9688l5.9531-1.2188q11.031-2.1094 16.281-7.4062t5.25-14.172q0-10.609-7.1094-16.078-7.0938-5.4688-20.812-5.4688-5.1719 0-11.016 1.1719-5.8281 1.1719-12.078 3.4688v10.156q6-3.3594 11.766-5.0781 5.7656-1.7031 11.328-1.7031 8.4375 0 13.031 3.3125 4.5938 3.3281 4.5938 9.4844 0 5.3594-3.2969 8.3906t-10.812 4.5469l-6.0156 1.1719q-11.031 2.1875-15.969 6.875-4.9219 4.6875-4.9219 13.047 0 9.6719 6.8125 15.234t18.766 5.5625q5.1406 0 10.453-0.9375 5.3281-0.92188 10.891-2.7656z"/>
</defs>
<use xlink:href="#ak"/>
</g>
</g>
<path d="m466.3 210.66 4.304 3.38q1.8875 1.4823 3.3698-0.40524l4.782-6.0893q1.4823-1.8875-0.40524-3.3698l-4.304-3.38q-1.8875-1.4823-3.3698 0.40524l-4.782 6.0893q-1.4823 1.8875 0.40524 3.3698z" clip-path="url(#a)" fill="#fff" stroke="#fff"/>
<g clip-path="url(#a)">
<g transform="translate(468.81 207.47) rotate(38.143) scale(.08 -.08)">
<use xlink:href="#m"/>
</g>
</g>
<path d="m795.34 432.42v33.808q0 2.4 2.4 2.4h7.7425q2.4 0 2.4-2.4v-33.808q0-2.4-2.4-2.4h-7.7425q-2.4 0-2.4 2.4z" clip-path="url(#a)" fill="#fff" stroke="#fff"/>
<g clip-path="url(#a)">
<g transform="translate(799.41 432.42) rotate(90) scale(.08 -.08)">
<use xlink:href="#f"/>
<use x="44.083984" xlink:href="#l"/>
<use x="105.607422" xlink:href="#g"/>
<use x="144.970703" xlink:href="#i"/>
<use x="242.382812" xlink:href="#k"/>
<use x="270.166016" xlink:href="#h"/>
<use x="333.544922" xlink:href="#e"/>
<use x="394.824219" xlink:href="#j"/>
</g>
</g>
<path d="m563.03 211.55 4.7737 2.6758q2.0936 1.1735 3.267-0.92008l3.7857-6.7539q1.1735-2.0936-0.92008-3.267l-4.7737-2.6758q-2.0936-1.1735-3.267 0.92008l-3.7857 6.7539q-1.1735 2.0936 0.92008 3.267z" clip-path="url(#a)" fill="#fff" stroke="#fff"/>
<g clip-path="url(#a)">
<g transform="translate(565.02 208.01) rotate(29.271) scale(.08 -.08)">
<use xlink:href="#m"/>
</g>
</g>
<path d="m436.21 271.95 1.1824-4.9392q0.55874-2.3341-1.7753-2.8928l-7.5298-1.8025q-2.3341-0.55873-2.8928 1.7753l-1.1824 4.9392q-0.55874 2.3341 1.7753 2.8928l7.5298 1.8025q2.3341 0.55874 2.8928-1.7753z" clip-path="url(#a)" fill="#fff" stroke="#fff"/>
<g clip-path="url(#a)">
<g transform="translate(432.26 271.01) rotate(-76.538) scale(.08 -.08)">
<use xlink:href="#ak"/>
</g>
</g>
<path d="m383.95 273.75 2.9985-4.5779q1.315-2.0077-0.69269-3.3227l-6.4769-4.2422q-2.0077-1.315-3.3227 0.69269l-2.9985 4.5779q-1.315 2.0077 0.69269 3.3227l6.4769 4.2422q2.0077 1.315 3.3227-0.69269z" clip-path="url(#a)" fill="#fff" stroke="#fff"/>
<g clip-path="url(#a)">
<g transform="translate(380.55 271.52) rotate(-56.776) scale(.08 -.08)">
<use xlink:href="#m"/>
</g>
</g>
<path d="m774.53 333.12 4.1536 2.4528q2.0666 1.2204 3.2869-0.84621l3.9369-6.6669q1.2204-2.0666-0.84621-3.2869l-4.1536-2.4528q-2.0666-1.2204-3.2869 0.84621l-3.9369 6.6668q-1.2204 2.0666 0.84621 3.2869z" clip-path="url(#a)" fill="#fff" stroke="#fff"/>
<g clip-path="url(#a)">
<g transform="translate(776.6 329.62) rotate(30.563) scale(.08 -.08)">
<use xlink:href="#z"/>
</g>
</g>
<path d="m633.59 334.95 3.3479-4.329q1.4682-1.8985-0.43026-3.3667l-6.1246-4.7366q-1.8985-1.4682-3.3667 0.43026l-3.3479 4.329q-1.4682 1.8985 0.43026 3.3667l6.1246 4.7366q1.8985 1.4682 3.3667-0.43026z" clip-path="url(#a)" fill="#fff" stroke="#fff"/>
<g clip-path="url(#a)">
<g transform="translate(630.38 332.46) rotate(-52.283) scale(.08 -.08)">
<use xlink:href="#m"/>
</g>
</g>
<path d="m670.23 332.89 1.1076-5.3592q0.48576-2.3503-1.8646-2.8361l-7.5823-1.5671q-2.3503-0.48576-2.8361 1.8646l-1.1076 5.3592q-0.48576 2.3503 1.8646 2.8361l7.5823 1.5671q2.3503 0.48576 2.8361-1.8646z" clip-path="url(#a)" fill="#fff" stroke="#fff"/>
<g clip-path="url(#a)">
<g transform="translate(666.25 332.07) rotate(-78.323) scale(.08 -.08)">
<use xlink:href="#m"/>
</g>
</g>
<path d="m488.21 335.75 5.2093-1.6767q2.2846-0.73534 1.5492-3.0199l-2.3722-7.3701q-0.73534-2.2846-3.0199-1.5492l-5.2093 1.6767q-2.2846 0.73534-1.5492 3.0199l2.3722 7.3701q0.73534 2.2846 3.0199 1.5492z" clip-path="url(#a)" fill="#fff" stroke="#fff"/>
<g clip-path="url(#a)">
<g transform="translate(486.96 331.88) rotate(-17.842) scale(.08 -.08)">
<use xlink:href="#m"/>
</g>
</g>
<path d="m817.1 333.6 5.4024 2.2572q2.2145 0.92523 3.1397-1.2893l2.9848-7.144q0.92523-2.2145-1.2893-3.1397l-5.4024-2.2572q-2.2145-0.92523-3.1397 1.2893l-2.9848 7.144q-0.92523 2.2145 1.2893 3.1397z" clip-path="url(#a)" fill="#fff" stroke="#fff"/>
<g clip-path="url(#a)">
<g transform="translate(818.67 329.85) rotate(22.676) scale(.08 -.08)">
<use xlink:href="#aj"/>
</g>
</g>
<path d="m876.15 432.42v33.808q0 2.4 2.4 2.4h7.7425q2.4 0 2.4-2.4v-33.808q0-2.4-2.4-2.4h-7.7425q-2.4 0-2.4 2.4z" clip-path="url(#a)" fill="#fff" stroke="#fff"/>
<g clip-path="url(#a)">
<g transform="translate(880.22 432.42) rotate(90) scale(.08 -.08)">
<use xlink:href="#f"/>
<use x="44.083984" xlink:href="#l"/>
<use x="105.607422" xlink:href="#g"/>
<use x="144.970703" xlink:href="#i"/>
<use x="242.382812" xlink:href="#k"/>
<use x="270.166016" xlink:href="#h"/>
<use x="333.544922" xlink:href="#e"/>
<use x="394.824219" xlink:href="#j"/>
</g>
</g>
<path d="m272.94 332.81 1.0024-5.4676q0.43281-2.3607-1.9278-2.7935l-7.6156-1.3963q-2.3607-0.43281-2.7935 1.9278l-1.0024 5.4676q-0.43281 2.3607 1.9278 2.7935l7.6156 1.3963q2.3607 0.43281 2.7935-1.9278z" clip-path="url(#a)" fill="#fff" stroke="#fff"/>
<g clip-path="url(#a)">
<g transform="translate(268.94 332.08) rotate(-79.611) scale(.08 -.08)">
<defs>
<path id="aw" d="m44.391 34.188q3.1719-1.0781 6.1719-4.5938t6.0312-9.6719l10.016-19.922h-10.609l-9.3125 18.703q-3.625 7.3281-7.0156 9.7188t-9.25 2.3906h-10.75v-30.812h-9.8594v72.906h22.266q12.5 0 18.656-5.2344 6.1562-5.2188 6.1562-15.766 0-6.8906-3.2031-11.438-3.2031-4.5312-9.2969-6.2812zm-24.719 30.609v-25.875h12.406q7.125 0 10.766 3.2969t3.6406 9.6875-3.6406 9.6406-10.766 3.25z"/>
</defs>
<use xlink:href="#aw"/>
</g>
</g>
<path d="m282.82 327.33 1.0074 5.4947q0.43281 2.3607 2.7935 1.9278l7.6156-1.3963q2.3607-0.43281 1.9278-2.7935l-1.0074-5.4947q-0.43281-2.3607-2.7935-1.9278l-7.6156 1.3963q-2.3607 0.43281-1.9278 2.7935z" clip-path="url(#a)" fill="#fff" stroke="#fff"/>
<g clip-path="url(#a)">
<g transform="translate(286.82 326.6) rotate(79.611) scale(.08 -.08)">
<defs>
<path id="ax" d="m64.406 67.281v-10.391q-4.9844 4.6406-10.625 6.9219-5.6406 2.2969-11.984 2.2969-12.5 0-19.141-7.6406t-6.6406-22.094q0-14.406 6.6406-22.047t19.141-7.6406q6.3438 0 11.984 2.2969t10.625 6.9375v-10.312q-5.1719-3.5156-10.969-5.2812-5.7812-1.75-12.219-1.75-16.562 0-26.094 10.125-9.5156 10.141-9.5156 27.672 0 17.578 9.5156 27.703 9.5312 10.141 26.094 10.141 6.5312 0 12.312-1.7344 5.7969-1.7344 10.875-5.2031z"/>
</defs>
<use xlink:href="#ax"/>
</g>
</g>
<path d="m342.82 432.42v33.808q0 2.4 2.4 2.4h7.7425q2.4 0 2.4-2.4v-33.808q0-2.4-2.4-2.4h-7.7425q-2.4 0-2.4 2.4z" clip-path="url(#a)" fill="#fff" stroke="#fff"/>
<g clip-path="url(#a)">
<g transform="translate(346.88 432.42) rotate(90) scale(.08 -.08)">
<use xlink:href="#f"/>
<use x="44.083984" xlink:href="#l"/>
<use x="105.607422" xlink:href="#g"/>
<use x="144.970703" xlink:href="#i"/>
<use x="242.382812" xlink:href="#k"/>
<use x="270.166016" xlink:href="#h"/>
<use x="333.544922" xlink:href="#e"/>
<use x="394.824219" xlink:href="#j"/>
</g>
</g>
<path d="m395.34 432.42v33.808q0 2.4 2.4 2.4h7.7425q2.4 0 2.4-2.4v-33.808q0-2.4-2.4-2.4h-7.7425q-2.4 0-2.4 2.4z" clip-path="url(#a)" fill="#fff" stroke="#fff"/>
<g clip-path="url(#a)">
<g transform="translate(399.41 432.42) rotate(90) scale(.08 -.08)">
<use xlink:href="#f"/>
<use x="44.083984" xlink:href="#l"/>
<use x="105.607422" xlink:href="#g"/>
<use x="144.970703" xlink:href="#i"/>
<use x="242.382812" xlink:href="#k"/>
<use x="270.166016" xlink:href="#h"/>
<use x="333.544922" xlink:href="#e"/>
<use x="394.824219" xlink:href="#j"/>
</g>
</g>
<path d="m523.39 334.53 2.7842-5.4949q1.0848-2.1409-1.0561-3.2256l-6.9065-3.4995q-2.1409-1.0848-3.2256 1.0561l-2.7842 5.4949q-1.0848 2.1409 1.0561 3.2256l6.9065 3.4995q2.1409 1.0848 3.2256-1.0561z" clip-path="url(#a)" fill="#fff" stroke="#fff"/>
<g clip-path="url(#a)">
<g transform="translate(519.77 332.69) rotate(-63.129) scale(.08 -.08)">
<use xlink:href="#u"/>
</g>
</g>
<path d="m559.89 327.98 1.4593 5.2743q0.63999 2.3131 2.9531 1.6731l7.4621-2.0646q2.3131-0.63999 1.6731-2.9531l-1.4593-5.2743q-0.63999-2.3131-2.9531-1.6731l-7.4621 2.0646q-2.3131 0.63999-1.6731 2.9531z" clip-path="url(#a)" fill="#fff" stroke="#fff"/>
<g clip-path="url(#a)">
<g transform="translate(563.81 326.9) rotate(74.534) scale(.08 -.08)">
<use xlink:href="#m"/>
</g>
</g>
<path d="m594.45 330.9 3.5281 4.1834q1.5473 1.8346 3.3819 0.28735l5.9186-4.9916q1.8346-1.5473 0.28735-3.3819l-3.5281-4.1834q-1.5473-1.8346-3.3819-0.28735l-5.9186 4.9916q-1.8346 1.5473-0.28735 3.3819z" clip-path="url(#a)" fill="#fff" stroke="#fff"/>
<g clip-path="url(#a)">
<g transform="translate(597.56 328.28) rotate(49.857) scale(.08 -.08)">
<use xlink:href="#m"/>
</g>
</g>
<path d="m631.82 332.73 3.9651 2.7471q1.9728 1.3668 3.3396-0.60603l4.4093-6.3643q1.3668-1.9728-0.60603-3.3396l-3.9651-2.7471q-1.9728-1.3668-3.3396 0.60603l-4.4093 6.3643q-1.3668 1.9728 0.60603 3.3396z" clip-path="url(#a)" fill="#fff" stroke="#fff"/>
<g clip-path="url(#a)">
<g transform="translate(634.13 329.39) rotate(34.715) scale(.08 -.08)">
<use xlink:href="#z"/>
</g>
</g>
<path d="m425.53 335.78 4.9216-2.3929q2.1584-1.0494 1.109-3.2078l-3.3855-6.9631q-1.0494-2.1584-3.2078-1.109l-4.9216 2.3929q-2.1584 1.0494-1.109 3.2078l3.3855 6.9631q1.0494 2.1584 3.2078 1.109z" clip-path="url(#a)" fill="#fff" stroke="#fff"/>
<g clip-path="url(#a)">
<g transform="translate(423.76 332.13) rotate(-25.929) scale(.08 -.08)">
<use xlink:href="#m"/>
</g>
</g>
<path d="m475.26 467.25 8.3071-32.771q0.58972-2.3264-1.7367-2.9161l-7.5051-1.9025q-2.3264-0.58972-2.9161 1.7367l-8.3071 32.771q-0.58972 2.3264 1.7367 2.9161l7.5051 1.9025q2.3264 0.58972 2.9161-1.7367z" clip-path="url(#a)" fill="#fff" stroke="#fff"/>
<g clip-path="url(#a)">
<g transform="translate(471.32 466.25) rotate(-75.776) scale(.08 -.08)">
<use xlink:href="#f"/>
<use x="44.083984" xlink:href="#l"/>
<use x="105.607422" xlink:href="#g"/>
<use x="144.970703" xlink:href="#i"/>
<use x="242.382812" xlink:href="#k"/>
<use x="270.166016" xlink:href="#h"/>
<use x="333.544922" xlink:href="#e"/>
<use x="394.824219" xlink:href="#j"/>
</g>
</g>
<path d="m493.4 434.47 8.3071 32.771q0.58972 2.3264 2.9161 1.7367l7.5051-1.9025q2.3264-0.58972 1.7367-2.9161l-8.3071-32.771q-0.58972-2.3264-2.9161-1.7367l-7.5051 1.9025q-2.3264 0.58972-1.7367 2.9161z" clip-path="url(#a)" fill="#fff" stroke="#fff"/>
<g clip-path="url(#a)">
<g transform="translate(497.34 433.48) rotate(75.776) scale(.08 -.08)">
<use xlink:href="#f"/>
<use x="44.083984" xlink:href="#l"/>
<use x="105.607422" xlink:href="#g"/>
<use x="144.970703" xlink:href="#i"/>
<use x="242.382812" xlink:href="#k"/>
<use x="270.166016" xlink:href="#h"/>
<use x="333.544922" xlink:href="#e"/>
<use x="394.824219" xlink:href="#j"/>
</g>
</g>
<path d="m577.16 432.42v33.808q0 2.4 2.4 2.4h7.7425q2.4 0 2.4-2.4v-33.808q0-2.4-2.4-2.4h-7.7425q-2.4 0-2.4 2.4z" clip-path="url(#a)" fill="#fff" stroke="#fff"/>
<g clip-path="url(#a)">
<g transform="translate(581.23 432.42) rotate(90) scale(.08 -.08)">
<use xlink:href="#f"/>
<use x="44.083984" xlink:href="#l"/>
<use x="105.607422" xlink:href="#g"/>
<use x="144.970703" xlink:href="#i"/>
<use x="242.382812" xlink:href="#k"/>
<use x="270.166016" xlink:href="#h"/>
<use x="333.544922" xlink:href="#e"/>
<use x="394.824219" xlink:href="#j"/>
</g>
</g>
<path d="m645.85 432.42v33.808q0 2.4 2.4 2.4h7.7425q2.4 0 2.4-2.4v-33.808q0-2.4-2.4-2.4h-7.7425q-2.4 0-2.4 2.4z" clip-path="url(#a)" fill="#fff" stroke="#fff"/>
<g clip-path="url(#a)">
<g transform="translate(649.91 432.42) rotate(90) scale(.08 -.08)">
<use xlink:href="#f"/>
<use x="44.083984" xlink:href="#l"/>
<use x="105.607422" xlink:href="#g"/>
<use x="144.970703" xlink:href="#i"/>
<use x="242.382812" xlink:href="#k"/>
<use x="270.166016" xlink:href="#h"/>
<use x="333.544922" xlink:href="#e"/>
<use x="394.824219" xlink:href="#j"/>
</g>
</g>
<path d="m718.58 432.42v33.808q0 2.4 2.4 2.4h7.7425q2.4 0 2.4-2.4v-33.808q0-2.4-2.4-2.4h-7.7425q-2.4 0-2.4 2.4z" clip-path="url(#a)" fill="#fff" stroke="#fff"/>
<g clip-path="url(#a)">
<g transform="translate(722.64 432.42) rotate(90) scale(.08 -.08)">
<use xlink:href="#f"/>
<use x="44.083984" xlink:href="#l"/>
<use x="105.607422" xlink:href="#g"/>
<use x="144.970703" xlink:href="#i"/>
<use x="242.382812" xlink:href="#k"/>
<use x="270.166016" xlink:href="#h"/>
<use x="333.544922" xlink:href="#e"/>
<use x="394.824219" xlink:href="#j"/>
</g>
</g>
<path d="m249.89 432.42v33.808q0 2.4 2.4 2.4h7.7425q2.4 0 2.4-2.4v-33.808q0-2.4-2.4-2.4h-7.7425q-2.4 0-2.4 2.4z" clip-path="url(#a)" fill="#fff" stroke="#fff"/>
<g clip-path="url(#a)">
<g transform="translate(253.95 432.42) rotate(90) scale(.08 -.08)">
<use xlink:href="#f"/>
<use x="44.083984" xlink:href="#l"/>
<use x="105.607422" xlink:href="#g"/>
<use x="144.970703" xlink:href="#i"/>
<use x="242.382812" xlink:href="#k"/>
<use x="270.166016" xlink:href="#h"/>
<use x="333.544922" xlink:href="#e"/>
<use x="394.824219" xlink:href="#j"/>
</g>
</g>
<path d="m294.33 432.42v33.808q0 2.4 2.4 2.4h7.7425q2.4 0 2.4-2.4v-33.808q0-2.4-2.4-2.4h-7.7425q-2.4 0-2.4 2.4z" clip-path="url(#a)" fill="#fff" stroke="#fff"/>
<g clip-path="url(#a)">
<g transform="translate(298.4 432.42) rotate(90) scale(.08 -.08)">
<use xlink:href="#f"/>
<use x="44.083984" xlink:href="#l"/>
<use x="105.607422" xlink:href="#g"/>
<use x="144.970703" xlink:href="#i"/>
<use x="242.382812" xlink:href="#k"/>
<use x="270.166016" xlink:href="#h"/>
<use x="333.544922" xlink:href="#e"/>
<use x="394.824219" xlink:href="#j"/>
</g>
</g>
<path d="m39.789 432.42v33.808q0 2.4 2.4 2.4h7.7425q2.4 0 2.4-2.4v-33.808q0-2.4-2.4-2.4h-7.7425q-2.4 0-2.4 2.4z" clip-path="url(#a)" fill="#fff" stroke="#fff"/>
<g clip-path="url(#a)">
<g transform="translate(43.853 432.42) rotate(90) scale(.08 -.08)">
<use xlink:href="#f"/>
<use x="44.083984" xlink:href="#l"/>
<use x="105.607422" xlink:href="#g"/>
<use x="144.970703" xlink:href="#i"/>
<use x="242.382812" xlink:href="#k"/>
<use x="270.166016" xlink:href="#h"/>
<use x="333.544922" xlink:href="#e"/>
<use x="394.824219" xlink:href="#j"/>
</g>
</g>
<path d="m51.911 432.42v33.808q0 2.4 2.4 2.4h7.7425q2.4 0 2.4-2.4v-33.808q0-2.4-2.4-2.4h-7.7425q-2.4 0-2.4 2.4z" clip-path="url(#a)" fill="#fff" stroke="#fff"/>
<g clip-path="url(#a)">
<g transform="translate(55.974 432.42) rotate(90) scale(.08 -.08)">
<use xlink:href="#f"/>
<use x="44.083984" xlink:href="#l"/>
<use x="105.607422" xlink:href="#g"/>
<use x="144.970703" xlink:href="#i"/>
<use x="242.382812" xlink:href="#k"/>
<use x="270.166016" xlink:href="#h"/>
<use x="333.544922" xlink:href="#e"/>
<use x="394.824219" xlink:href="#j"/>
</g>
</g>
<path d="m68.072 432.42v33.808q0 2.4 2.4 2.4h7.7425q2.4 0 2.4-2.4v-33.808q0-2.4-2.4-2.4h-7.7425q-2.4 0-2.4 2.4z" clip-path="url(#a)" fill="#fff" stroke="#fff"/>
<g clip-path="url(#a)">
<g transform="translate(72.136 432.42) rotate(90) scale(.08 -.08)">
<use xlink:href="#f"/>
<use x="44.083984" xlink:href="#l"/>
<use x="105.607422" xlink:href="#g"/>
<use x="144.970703" xlink:href="#i"/>
<use x="242.382812" xlink:href="#k"/>
<use x="270.166016" xlink:href="#h"/>
<use x="333.544922" xlink:href="#e"/>
<use x="394.824219" xlink:href="#j"/>
</g>
</g>
<path d="m88.274 432.42v33.808q0 2.4 2.4 2.4h7.7425q2.4 0 2.4-2.4v-33.808q0-2.4-2.4-2.4h-7.7425q-2.4 0-2.4 2.4z" clip-path="url(#a)" fill="#fff" stroke="#fff"/>
<g clip-path="url(#a)">
<g transform="translate(92.338 432.42) rotate(90) scale(.08 -.08)">
<use xlink:href="#f"/>
<use x="44.083984" xlink:href="#l"/>
<use x="105.607422" xlink:href="#g"/>
<use x="144.970703" xlink:href="#i"/>
<use x="242.382812" xlink:href="#k"/>
<use x="270.166016" xlink:href="#h"/>
<use x="333.544922" xlink:href="#e"/>
<use x="394.824219" xlink:href="#j"/>
</g>
</g>
<path d="m112.52 432.42v33.808q0 2.4 2.4 2.4h7.7425q2.4 0 2.4-2.4v-33.808q0-2.4-2.4-2.4h-7.7425q-2.4 0-2.4 2.4z" clip-path="url(#a)" fill="#fff" stroke="#fff"/>
<g clip-path="url(#a)">
<g transform="translate(116.58 432.42) rotate(90) scale(.08 -.08)">
<use xlink:href="#f"/>
<use x="44.083984" xlink:href="#l"/>
<use x="105.607422" xlink:href="#g"/>
<use x="144.970703" xlink:href="#i"/>
<use x="242.382812" xlink:href="#k"/>
<use x="270.166016" xlink:href="#h"/>
<use x="333.544922" xlink:href="#e"/>
<use x="394.824219" xlink:href="#j"/>
</g>
</g>
<path d="m140.8 432.42v33.808q0 2.4 2.4 2.4h7.7425q2.4 0 2.4-2.4v-33.808q0-2.4-2.4-2.4h-7.7425q-2.4 0-2.4 2.4z" clip-path="url(#a)" fill="#fff" stroke="#fff"/>
<g clip-path="url(#a)">
<g transform="translate(144.86 432.42) rotate(90) scale(.08 -.08)">
<use xlink:href="#f"/>
<use x="44.083984" xlink:href="#l"/>
<use x="105.607422" xlink:href="#g"/>
<use x="144.970703" xlink:href="#i"/>
<use x="242.382812" xlink:href="#k"/>
<use x="270.166016" xlink:href="#h"/>
<use x="333.544922" xlink:href="#e"/>
<use x="394.824219" xlink:href="#j"/>
</g>
</g>
<path d="m173.12 432.42v33.808q0 2.4 2.4 2.4h7.7425q2.4 0 2.4-2.4v-33.808q0-2.4-2.4-2.4h-7.7425q-2.4 0-2.4 2.4z" clip-path="url(#a)" fill="#fff" stroke="#fff"/>
<g clip-path="url(#a)">
<g transform="translate(177.19 432.42) rotate(90) scale(.08 -.08)">
<use xlink:href="#f"/>
<use x="44.083984" xlink:href="#l"/>
<use x="105.607422" xlink:href="#g"/>
<use x="144.970703" xlink:href="#i"/>
<use x="242.382812" xlink:href="#k"/>
<use x="270.166016" xlink:href="#h"/>
<use x="333.544922" xlink:href="#e"/>
<use x="394.824219" xlink:href="#j"/>
</g>
</g>
<path d="m961 432.42v33.808q0 2.4 2.4 2.4h7.7425q2.4 0 2.4-2.4v-33.808q0-2.4-2.4-2.4h-7.7425q-2.4 0-2.4 2.4z" clip-path="url(#a)" fill="#fff" stroke="#fff"/>
<g clip-path="url(#a)">
<g transform="translate(965.07 432.42) rotate(90) scale(.08 -.08)">
<use xlink:href="#f"/>
<use x="44.083984" xlink:href="#l"/>
<use x="105.607422" xlink:href="#g"/>
<use x="144.970703" xlink:href="#i"/>
<use x="242.382812" xlink:href="#k"/>
<use x="270.166016" xlink:href="#h"/>
<use x="333.544922" xlink:href="#e"/>
<use x="394.824219" xlink:href="#j"/>
</g>
</g>
<defs>
<path id="b" d="m0 8.6603c2.2967 0 4.4997-0.9125 6.1237-2.5365 1.624-1.624 2.5365-3.827 2.5365-6.1237s-0.9125-4.4997-2.5365-6.1237c-1.624-1.624-3.827-2.5365-6.1237-2.5365s-4.4997 0.9125-6.1237 2.5365c-1.624 1.624-2.5365 3.827-2.5365 6.1237s0.9125 4.4997 2.5365 6.1237c1.624 1.624 3.827 2.5365 6.1237 2.5365z"/>
</defs>
<g clip-path="url(#a)" fill="#ffffff" stroke="#ffffff">
<use x="46.060606" y="509.090909" xlink:href="#b"/>
<use x="58.181818" y="509.090909" xlink:href="#b"/>
<use x="74.343434" y="509.090909" xlink:href="#b"/>
<use x="94.545455" y="509.090909" xlink:href="#b"/>
<use x="118.787879" y="509.090909" xlink:href="#b"/>
<use x="147.070707" y="509.090909" xlink:href="#b"/>
<use x="179.393939" y="509.090909" xlink:href="#b"/>
<use x="215.757576" y="509.090909" xlink:href="#b"/>
<use x="256.161616" y="509.090909" xlink:href="#b"/>
<use x="300.606061" y="509.090909" xlink:href="#b"/>
<use x="349.090909" y="509.090909" xlink:href="#b"/>
<use x="401.616162" y="509.090909" xlink:href="#b"/>
<use x="458.181818" y="509.090909" xlink:href="#b"/>
<use x="518.787879" y="509.090909" xlink:href="#b"/>
<use x="583.434343" y="509.090909" xlink:href="#b"/>
<use x="652.121212" y="509.090909" xlink:href="#b"/>
<use x="724.848485" y="509.090909" xlink:href="#b"/>
<use x="801.616162" y="509.090909" xlink:href="#b"/>
<use x="882.424242" y="509.090909" xlink:href="#b"/>
<use x="967.272727" y="509.090909" xlink:href="#b"/>
<use x="356.857464" y="24.242424" xlink:href="#b"/>
<use x="89.83165" y="268.341213" xlink:href="#b"/>
<use x="215.757576" y="389.547551" xlink:href="#b"/>
<use x="394.747475" y="146.499159" xlink:href="#b"/>
<use x="801.616162" y="389.547551" xlink:href="#b"/>
<use x="459.79798" y="146.499159" xlink:href="#b"/>
<use x="677.171717" y="268.341213" xlink:href="#b"/>
<use x="882.424242" y="389.547551" xlink:href="#b"/>
<use x="278.383838" y="268.341213" xlink:href="#b"/>
<use x="349.090909" y="389.547551" xlink:href="#b"/>
<use x="401.616162" y="389.547551" xlink:href="#b"/>
<use x="549.89899" y="268.341213" xlink:href="#b"/>
<use x="488.484848" y="389.547551" xlink:href="#b"/>
<use x="583.434343" y="389.547551" xlink:href="#b"/>
<use x="652.121212" y="389.547551" xlink:href="#b"/>
<use x="724.848485" y="389.547551" xlink:href="#b"/>
<use x="256.161616" y="389.547551" xlink:href="#b"/>
<use x="300.606061" y="389.547551" xlink:href="#b"/>
<use x="46.060606" y="389.547551" xlink:href="#b"/>
<use x="58.181818" y="389.547551" xlink:href="#b"/>
<use x="74.343434" y="389.547551" xlink:href="#b"/>
<use x="94.545455" y="389.547551" xlink:href="#b"/>
<use x="118.787879" y="389.547551" xlink:href="#b"/>
<use x="147.070707" y="389.547551" xlink:href="#b"/>
<use x="179.393939" y="389.547551" xlink:href="#b"/>
<use x="967.272727" y="389.547551" xlink:href="#b"/>
</g>
<g clip-path="url(#a)">
<g transform="translate(20.768 511.85) scale(.1 -.1)">
<defs>
<path id="bf" d="m19.672 34.812v-26.703h15.828q7.9531 0 11.781 3.2969 3.8438 3.2969 3.8438 10.078 0 6.8438-3.8438 10.078-3.8281 3.25-11.781 3.25zm0 29.984v-21.969h14.609q7.2188 0 10.75 2.7031 3.5469 2.7188 3.5469 8.2812 0 5.5156-3.5469 8.25-3.5312 2.7344-10.75 2.7344zm-9.8594 8.1094h25.203q11.281 0 17.375-4.6875 6.1094-4.6875 6.1094-13.328 0-6.7031-3.125-10.656t-9.1875-4.9219q7.2812-1.5625 11.312-6.5312 4.0312-4.9531 4.0312-12.375 0-9.7656-6.6406-15.094-6.6406-5.3125-18.906-5.3125h-26.172z"/>
<path id="at" d="m34.469 29.5q6.0625-1.1719 9.4219-4.75 3.375-3.5625 3.375-8.8281 0-8.4531-6.2969-12.906-6.2969-4.4375-17.922-4.4375-3.9062 0-8.0312 0.6875t-8.5156 2.0469v8.3594q3.4688-1.8125 7.6094-2.7188 4.1562-0.89062 8.6875-0.89062 7.375 0 11.5 2.7344t4.125 7.125q0 4.2969-3.6562 6.9062t-10.344 2.6094h-7.2344v7.4219h7.5625q5.6719 0 8.9688 2.1719t3.2969 5.5938q0 3.125-3.4062 5.375-3.3906 2.25-9.1875 2.25-3.4688 0-7.4062-0.64062-3.9219-0.64062-8.6719-2.0469v8.1562q4.7969 1.1719 8.9375 1.75 4.1562 0.59375 7.8594 0.59375 9.5781 0 15.109-3.8438 5.5469-3.8281 5.5469-10.719 0-4.5312-2.9375-7.6875-2.9219-3.1406-8.3906-4.3125z"/>
<path id="as" d="m18.109 8.2031v-29h-9.0312v75.484h9.0312v-8.2969q2.8438 4.875 7.1562 7.2344 4.3281 2.375 10.328 2.375 9.9688 0 16.188-7.9062 6.2344-7.9062 6.2344-20.797t-6.2344-20.812q-6.2188-7.9062-16.188-7.9062-6 0-10.328 2.375-4.3125 2.375-7.1562 7.25zm30.578 19.094q0 9.9062-4.0781 15.547t-11.203 5.6406q-7.1406 0-11.219-5.6406t-4.0781-15.547 4.0781-15.547 11.219-5.6406q7.125 0 11.203 5.6406t4.0781 15.547z"/>
<path id="o" d="m30.609 48.391q-7.2188 0-11.422-5.6406t-4.2031-15.453 4.1719-15.453q4.1875-5.6406 11.453-5.6406 7.1875 0 11.375 5.6562 4.2031 5.6719 4.2031 15.438 0 9.7188-4.2031 15.406-4.1875 5.6875-11.375 5.6875zm0 7.6094q11.719 0 18.406-7.625 6.7031-7.6094 6.7031-21.078 0-13.422-6.7031-21.078-6.6875-7.6406-18.406-7.6406-11.766 0-18.438 7.6406-6.6562 7.6562-6.6562 21.078 0 13.469 6.6562 21.078 6.6719 7.625 18.438 7.625z"/>
<path id="v" d="m48.781 52.594v-8.4062q-3.8125 2.1094-7.6406 3.1562t-7.7344 1.0469q-8.75 0-13.594-5.5469-4.8281-5.5312-4.8281-15.547t4.8281-15.562q4.8438-5.5312 13.594-5.5312 3.9062 0 7.7344 1.0469t7.6406 3.1562v-8.3125q-3.7656-1.75-7.7969-2.625-4.0156-0.89062-8.5625-0.89062-12.359 0-19.641 7.7656-7.2656 7.7656-7.2656 20.953 0 13.375 7.3438 21.031 7.3594 7.6719 20.156 7.6719 4.1406 0 8.0938-0.85938 3.9531-0.84375 7.6719-2.5469z"/>
<path id="y" d="m3.7188 0v7.4688q8.875 1.375 11.609 7.5156 3.3281 8.6562 3.3281 30.766v8.9375h36.953v-54.688h-8.9844v47.516h-18.984v-5.4219q0-21.094-4.2969-30.562-4.5938-10.109-19.625-11.531z"/>
<path id="aq" d="m61.047 54.688h8.9844v-54.688h-8.9844zm4.5 1.3125m-22.094-39.781q0 4.3906-3.2031 6.6875-3.1875 2.2969-9.3438 2.2969h-12.797v-18.031h12.797q6.1562 0 9.3438 2.3125 3.2031 2.3281 3.2031 6.7344zm-34.375 38.469h9.0312v-22.312h13.188q10.453 0 16.094-3.9844 5.6406-3.9688 5.6406-12.172t-5.6406-12.219q-5.6406-4-16.094-4h-22.219z"/>
<path id="p" d="m56.203 29.594v-4.3906h-41.312q0.59375-9.2812 5.5938-14.141t13.938-4.8594q5.1719 0 10.031 1.2656t9.6562 3.8125v-8.5q-4.8438-2.0469-9.9219-3.125t-10.297-1.0781q-13.094 0-20.734 7.6094-7.6406 7.625-7.6406 20.625 0 13.422 7.25 21.297 7.25 7.8906 19.562 7.8906 11.031 0 17.453-7.1094 6.4219-7.0938 6.4219-19.297zm-8.9844 2.6406q-0.09375 7.3594-4.125 11.75-4.0312 4.4062-10.672 4.4062-7.5156 0-12.031-4.25t-5.2031-11.969z"/>
</defs>
<use xlink:href="#bf"/>
<use x="68.603516" xlink:href="#at"/>
<use x="121.777344" xlink:href="#as"/>
<use x="185.253906" xlink:href="#o"/>
<use x="246.435547" xlink:href="#v"/>
<use x="301.416016" xlink:href="#y"/>
<use x="365.332031" xlink:href="#aq"/>
<use x="444.287109" xlink:href="#p"/>
</g>
</g>
<g clip-path="url(#a)">
<g transform="translate(36.436 511.85) scale(.1 -.1)">
<defs>
<path id="q" d="m9.0781 54.688h9.0312v-22.312h29.156v22.312h9.0312v-54.688h-9.0312v25.203h-29.156v-25.203h-9.0312z"/>
<path id="s" d="m55.906 54.688v-54.688h-8.9375v43.891l-26.359-43.891h-11.531v54.688h8.9375v-43.797l26.328 43.797z"/>
<path id="ag" d="m9.0781 54.688h8.9375v-25.688l25.344 25.688h11.031l-20.891-21.141 23.578-33.547h-10.062l-19.375 27.594-9.625-9.7656v-17.828h-8.9375z"/>
<path id="au" d="m9.0781 0v54.688h38.578v-7.1719h-29.547v-47.516z"/>
<path id="ah" d="m21.625 7.1719h26.078v40.344h-18.891v-6.8438q0-20.109-5.7656-30.859zm-13.031 0q4.4375 1.9531 6.3906 6.1094 4.7969 10.297 4.7969 31.062v10.344h36.953v-47.516h7.1875v-20.984h-7.1875v13.812h-44.328v-13.812h-7.1875v20.984z"/>
<path id="t" d="m34.281 27.484q-10.891 0-15.094-2.4844t-4.2031-8.5q0-4.7812 3.1562-7.5938 3.1562-2.7969 8.5625-2.7969 7.4844 0 12 5.2969t4.5156 14.078v2zm17.922 3.7188v-31.203h-8.9844v8.2969q-3.0781-4.9688-7.6719-7.3438t-11.234-2.375q-8.3906 0-13.359 4.7188-4.9531 4.7188-4.9531 12.625 0 9.2188 6.1719 13.906 6.1875 4.6875 18.438 4.6875h12.609v0.89062q0 6.2031-4.0781 9.5938t-11.453 3.3906q-4.6875 0-9.1406-1.125-4.4375-1.125-8.5312-3.375v8.3125q4.9219 1.9062 9.5625 2.8438 4.6406 0.95312 9.0312 0.95312 11.875 0 17.734-6.1562 5.8594-6.1406 5.8594-18.641z"/>
</defs>
<use xlink:href="#q"/>
<use x="65.380859" xlink:href="#s"/>
<use x="130.371094" xlink:href="#ag"/>
<use x="190.771484" xlink:href="#o"/>
<use x="251.953125" xlink:href="#au"/>
<use x="304.492188" xlink:href="#ah"/>
<use x="373.632812" xlink:href="#t"/>
</g>
</g>
<g clip-path="url(#a)">
<g transform="translate(56.108 511.85) scale(.1 -.1)">
<defs>
<path id="ar" d="m41.016 0v23h-16.75q-7.4688 0-12.453 4.6406-4.4844 4.2031-4.4844 13.188v13.859h8.9844v-13.031q0-5.7188 2.5312-8.5938 2.5938-2.8906 7.6719-2.8906h14.5v24.516h8.9844v-54.688z"/>
</defs>
<use xlink:href="#q"/>
<use x="65.380859" xlink:href="#s"/>
<use x="130.371094" xlink:href="#ar"/>
<use x="189.453125" xlink:href="#p"/>
<use x="250.976562" xlink:href="#au"/>
<use x="303.515625" xlink:href="#o"/>
</g>
</g>
<g clip-path="url(#a)">
<g transform="translate(88.2 511.85) scale(.1 -.1)">
<use xlink:href="#q"/>
<use x="65.380859" xlink:href="#p"/>
</g>
</g>
<g clip-path="url(#a)">
<g transform="translate(91.984 511.85) scale(.1 -.1)">
<defs>
<path id="bd" d="m56.297 54.688v-54.688h-9.0312v47.516h-29.156v-47.516h-9.0312v54.688z"/>
<path id="x" d="m9.0781 54.688h13.141l15.531-36.625 15.578 36.625h13.031v-54.688h-9.0312v46.094l-15.094-35.594h-8.9844l-15.141 35.594v-46.094h-9.0312z"/>
<path id="az" d="m53.609 48.391q-7.2188 0-11.422-5.6406t-4.2031-15.453 4.1719-15.453q4.1875-5.6406 11.453-5.6406 7.1875 0 11.375 5.6562 4.2031 5.6719 4.2031 15.438 0 9.7188-4.2031 15.406-4.1875 5.6875-11.375 5.6875zm-24.797-15.531q0.92188 9.2812 7 16.203 6.0781 6.9375 17.797 6.9375t18.406-7.625q6.7031-7.6094 6.7031-21.078 0-13.422-6.7031-21.078-6.6875-7.6406-18.406-7.6406-11.766 0-18.188 7.375t-6.8594 19.484h-10.156v-25.438h-8.9844v54.688h8.9844v-21.828z"/>
<path id="r" d="m2.9375 54.688h52.391v-7.1719h-21.781v-47.516h-8.8438v47.516h-21.766z"/>
</defs>
<use xlink:href="#bd"/>
<use x="65.380859" xlink:href="#o"/>
<use x="126.5625" xlink:href="#q"/>
<use x="191.943359" xlink:href="#s"/>
<use x="256.933594" xlink:href="#x"/>
<use x="332.373047" xlink:href="#t"/>
<use x="393.652344" xlink:href="#az"/>
<use x="477.832031" xlink:href="#r"/>
</g>
</g>
<g clip-path="url(#a)">
<g transform="translate(134.24 511.85) scale(.1 -.1)">
<use xlink:href="#v"/>
<use x="54.980469" xlink:href="#t"/>
<use x="116.259766" xlink:href="#x"/>
<use x="191.699219" xlink:href="#s"/>
</g>
</g>
<g clip-path="url(#a)">
<g transform="translate(177.8 511.85) scale(.1 -.1)">
<defs>
<path id="ay" d="m11.719 12.406h10.297v-8.4062l-8-15.625h-6.2969l4 15.625z"/>
</defs>
<use xlink:href="#ay"/>
</g>
</g>
<g clip-path="url(#a)">
<g transform="translate(212.69 511.85) scale(.1 -.1)">
<use xlink:href="#t"/>
</g>
</g>
<g clip-path="url(#a)">
<g transform="translate(246.5 511.85) scale(.1 -.1)">
<defs>
<path id="af" d="m18.453 38.922q0-4.0625 3.125-6.3594 3.125-2.2812 8.9375-2.2812h12.109v17.234h-12.109q-5.8125 0-8.9375-2.25t-3.125-6.3438zm-12.781-38.922 16.688 23.969q-5.6562 1.2812-9.4219 4.625-3.75 3.3438-3.75 10.328 0 7.9062 5.2344 11.828 5.25 3.9375 15.859 3.9375h21.375v-54.688h-9.0312v23.094h-11.172l-16.125-23.094z"/>
</defs>
<use xlink:href="#ah"/>
<use x="69.140625" xlink:href="#y"/>
<use x="133.056641" xlink:href="#af"/>
</g>
</g>
<g clip-path="url(#a)">
<g transform="translate(284.83 511.85) scale(.1 -.1)">
<defs>
<path id="be" d="m55.906 54.688v-54.688h-8.9375v43.891l-26.359-43.891h-11.531v54.688h8.9375v-43.797l26.328 43.797zm-38.688 20.828h5.7656q0.53125-3.6562 2.8906-5.5 2.375-1.8281 6.625-1.8281 4.2031 0 6.5469 1.8125t2.9688 5.5156h5.7656q-0.48438-6.9844-4.3438-10.5t-10.938-3.5156-10.938 3.5156-4.3438 10.5z"/>
</defs>
<use xlink:href="#ah"/>
<use x="69.140625" xlink:href="#p"/>
<use x="130.664062" xlink:href="#r"/>
<use x="188.916016" xlink:href="#p"/>
<use x="250.439453" xlink:href="#be"/>
</g>
</g>
<g clip-path="url(#a)">
<g transform="translate(333.79 511.85) scale(.1 -.1)">
<defs>
<path id="w" d="m43.453 16.219q0 4.3906-3.2031 6.6875-3.1875 2.2969-9.3438 2.2969h-12.797v-18.031h12.797q6.1562 0 9.3438 2.3125 3.2031 2.3281 3.2031 6.7344zm-34.375 38.469h9.0312v-22.312h13.188q10.453 0 16.094-3.9844 5.6406-3.9688 5.6406-12.172t-5.6406-12.219q-5.6406-4-16.094-4h-22.219z"/>
</defs>
<use xlink:href="#o"/>
<use x="61.181641" xlink:href="#ar"/>
<use x="120.263672" xlink:href="#p"/>
<use x="181.787109" xlink:href="#q"/>
<use x="247.167969" xlink:href="#w"/>
</g>
</g>
<g clip-path="url(#a)">
<g transform="translate(367.2 511.85) scale(.1 -.1)">
<defs>
<path id="bc" d="m32.172-5.0781q-3.7969-9.7656-7.4219-12.734-3.6094-2.9844-9.6562-2.9844h-7.1875v7.5156h5.2812q3.7031 0 5.75 1.7656 2.0625 1.75 4.5469 8.2969l1.6094 4.0938-22.109 53.812h9.5156l17.094-42.766 17.094 42.766h9.5156z"/>
</defs>
<use xlink:href="#bc"/>
<use x="59.179688" xlink:href="#r"/>
<use x="117.431641" xlink:href="#o"/>
<use x="178.613281" xlink:href="#x"/>
<use x="254.052734" xlink:href="#s"/>
<use x="319.042969" xlink:href="#r"/>
<use x="377.294922" xlink:href="#p"/>
<use x="438.818359" xlink:href="#y"/>
<use x="502.734375" xlink:href="#w"/>
<use x="561.669922" xlink:href="#q"/>
<use x="627.050781" xlink:href="#o"/>
</g>
</g>
<g clip-path="url(#a)">
<g transform="translate(449.36 511.85) scale(.1 -.1)">
<defs>
<path id="av" d="m31.109 56q11.719 0 18.406-7.625 6.6875-7.6094 6.6875-21.078 0-13.422-6.6875-21.078-6.6875-7.6406-18.406-7.6406-11.766 0-18.266 7.4219t-6.8438 21.297l-0.28125 11.188q-0.25 5.7969-0.25 7.8125 0 7.8125 2.8281 13.562 4.4531 9.0312 12.141 12.938t20.578 4.0156q5.9531 0.046875 8.5938 0.875l2.4844-7.125q-2.3906-0.98438-4.5781-1.0312l-12.219-0.82812q-6.1406-0.4375-9.8594-2.5938-9.7188-5.7031-10.641-13.172l-0.34375-2.7344q6.3438 5.7969 16.656 5.7969zm0-7.6094q-7.2344 0-11.438-5.6406-4.1875-5.6406-4.1875-15.453t4.1719-15.453 11.453-5.6406q7.1719 0 11.375 5.6562 4.2031 5.6719 4.2031 15.438 0 9.7188-4.2031 15.406t-11.375 5.6875z"/>
</defs>
<use xlink:href="#av"/>
<use x="61.669922" xlink:href="#p"/>
<use x="123.193359" xlink:href="#at"/>
</g>
</g>
<g clip-path="url(#a)">
<g transform="translate(502.97 511.85) scale(.1 -.1)">
<defs>
<path id="bb" d="m56.297 0h-47.219v54.688h9.0312v-47.516h29.156v47.516h9.0312v-47.516h7.1875v-20.984h-7.1875z"/>
</defs>
<use xlink:href="#ag"/>
<use x="60.400391" xlink:href="#o"/>
<use x="121.582031" xlink:href="#q"/>
<use x="186.962891" xlink:href="#bb"/>
<use x="255.029297" xlink:href="#t"/>
</g>
</g>
<g clip-path="url(#a)">
<g transform="translate(576.41 511.85) scale(.1 -.1)">
<use xlink:href="#s"/>
<use x="64.990234" xlink:href="#x"/>
</g>
</g>
<g clip-path="url(#a)">
<g transform="translate(643.35 511.85) scale(.1 -.1)">
<defs>
<path id="ai" d="m18.062 25.203v-18.031h12.797q6.1562 0 9.375 2.3125 3.2188 2.3281 3.2188 6.7344 0 4.3906-3.2188 6.6875t-9.375 2.2969zm0 22.312v-15.141h11.828q5.0781 0 8.2969 2.0156 3.2188 2.0312 3.2188 5.6562 0 3.6094-3.2188 5.5312-3.2188 1.9375-8.2969 1.9375zm-8.9844 7.1719h21.391q9.625 0 14.797-3.5156t5.1719-10.016q0-5.0156-2.6406-7.9844-2.625-2.9531-7.8125-3.6719 6.2031-1.1719 9.625-4.8906 3.4219-3.7031 3.4219-9.2812 0-7.3125-5.6406-11.328-5.6406-4-16.094-4h-22.219z"/>
</defs>
<use xlink:href="#ai"/>
<use x="58.935547" xlink:href="#v"/>
<use x="113.916016" xlink:href="#p"/>
</g>
</g>
<g clip-path="url(#a)">
<g transform="translate(697.28 511.85) scale(.1 -.1)">
<defs>
<path id="ba" d="m43.016 32.375q10.453 0 16.094-3.9844 5.6406-3.9688 5.6406-12.172t-5.6406-12.219q-5.6406-4-16.094-4h-22.266v47.516h-17.719v7.1719h26.75v-22.312zm-0.39062-7.1719h-12.844v-18.031h12.844q6.1562 0 9.3438 2.3125 3.2031 2.3281 3.2031 6.7344 0 4.3906-3.2031 6.6875-3.1875 2.2969-9.3438 2.2969z"/>
</defs>
<use xlink:href="#o"/>
<use x="61.181641" xlink:href="#av"/>
<use x="122.851562" xlink:href="#ba"/>
<use x="193.505859" xlink:href="#af"/>
<use x="253.662109" xlink:href="#v"/>
<use x="308.642578" xlink:href="#q"/>
<use x="374.023438" xlink:href="#af"/>
<use x="434.179688" xlink:href="#r"/>
<use x="492.431641" xlink:href="#w"/>
</g>
</g>
<g clip-path="url(#a)">
<g transform="translate(798.37 511.85) scale(.1 -.1)">
<use xlink:href="#s"/>
</g>
</g>
<g clip-path="url(#a)">
<g transform="translate(839.42 511.85) scale(.1 -.1)">
<use xlink:href="#as"/>
<use x="63.476562" xlink:href="#t"/>
<use x="124.755859" xlink:href="#v"/>
<use x="179.736328" xlink:href="#r"/>
<use x="237.988281" xlink:href="#o"/>
<use x="299.169922" xlink:href="#y"/>
<use x="363.085938" xlink:href="#ag"/>
<use x="423.486328" xlink:href="#o"/>
<use x="484.667969" xlink:href="#ai"/>
<use x="543.603516" xlink:href="#aq"/>
<use x="622.558594" xlink:href="#ai"/>
<use x="681.494141" xlink:href="#t"/>
<use x="742.773438" xlink:href="#r"/>
<use x="801.025391" xlink:href="#w"/>
</g>
</g>
<g clip-path="url(#a)">
<g transform="translate(965.68 511.85) scale(.1 -.1)">
<defs>
<path id="d" d="m10.688 12.406h10.312v-12.406h-10.312z"/>
</defs>
<use xlink:href="#d"/>
</g>
</g>
<g clip-path="url(#a)">
<g transform="translate(348.91 27.002) scale(.1 -.1)">
<defs>
<path id="c" d="m12.406 8.2969h16.109v55.625l-17.531-3.5156v8.9844l17.438 3.5156h9.8594v-64.609h16.109v-8.2969h-41.984z"/>
</defs>
<use xlink:href="#c"/>
<use x="63.623047" xlink:href="#d"/>
<use x="95.410156" xlink:href="#c"/>
</g>
</g>
<g clip-path="url(#a)">
<g transform="translate(81.88 271.1) scale(.1 -.1)">
<defs>
<path id="n" d="m19.188 8.2969h34.422v-8.2969h-46.281v8.2969q5.6094 5.8125 15.297 15.594 9.7031 9.7969 12.188 12.641 4.7344 5.3125 6.6094 9 1.8906 3.6875 1.8906 7.25 0 5.8125-4.0781 9.4688-4.0781 3.6719-10.625 3.6719-4.6406 0-9.7969-1.6094-5.1406-1.6094-11-4.8906v9.9688q5.9531 2.3906 11.125 3.6094 5.1875 1.2188 9.4844 1.2188 11.328 0 18.062-5.6719 6.7344-5.6562 6.7344-15.125 0-4.5-1.6875-8.5312-1.6719-4.0156-6.125-9.4844-1.2188-1.4219-7.7656-8.1875-6.5312-6.7656-18.453-18.922z"/>
</defs>
<use xlink:href="#c"/>
<use x="63.623047" xlink:href="#d"/>
<use x="95.410156" xlink:href="#n"/>
</g>
</g>
<g clip-path="url(#a)">
<g transform="translate(207.81 392.31) scale(.1 -.1)">
<defs>
<path id="ae" d="m40.578 39.312q7.0781-1.5156 11.047-6.3125 3.9844-4.7812 3.9844-11.812 0-10.781-7.4219-16.703-7.4219-5.9062-21.094-5.9062-4.5781 0-9.4375 0.90625t-10.031 2.7188v9.5156q4.0938-2.3906 8.9688-3.6094 4.8906-1.2188 10.219-1.2188 9.2656 0 14.125 3.6562t4.8594 10.641q0 6.4531-4.5156 10.078-4.5156 3.6406-12.562 3.6406h-8.5v8.1094h8.8906q7.2656 0 11.125 2.9062t3.8594 8.375q0 5.6094-3.9844 8.6094-3.9688 3.0156-11.391 3.0156-4.0625 0-8.7031-0.89062-4.6406-0.875-10.203-2.7188v8.7812q5.625 1.5625 10.531 2.3438t9.25 0.78125q11.234 0 17.766-5.1094 6.5469-5.0938 6.5469-13.781 0-6.0625-3.4688-10.234t-9.8594-5.7812z"/>
</defs>
<use xlink:href="#c"/>
<use x="63.623047" xlink:href="#d"/>
<use x="95.410156" xlink:href="#ae"/>
</g>
</g>
<g clip-path="url(#a)">
<g transform="translate(386.8 149.26) scale(.1 -.1)">
<defs>
<path id="ad" d="m37.797 64.312-24.906-38.922h24.906zm-2.5938 8.5938h12.406v-47.516h10.406v-8.2031h-10.406v-17.188h-9.8125v17.188h-32.906v9.5156z"/>
</defs>
<use xlink:href="#c"/>
<use x="63.623047" xlink:href="#d"/>
<use x="95.410156" xlink:href="#ad"/>
</g>
</g>
<g clip-path="url(#a)">
<g transform="translate(793.66 392.31) scale(.1 -.1)">
<defs>
<path id="ac" d="m10.797 72.906h38.719v-8.3125h-29.688v-17.859q2.1406 0.73438 4.2812 1.0938 2.1562 0.35938 4.3125 0.35938 12.203 0 19.328-6.6875 7.1406-6.6875 7.1406-18.109 0-11.766-7.3281-18.297-7.3281-6.5156-20.656-6.5156-4.5938 0-9.3594 0.78125-4.75 0.78125-9.8281 2.3438v9.9219q4.3906-2.3906 9.0781-3.5625t9.9062-1.1719q8.4531 0 13.375 4.4375 4.9375 4.4375 4.9375 12.062 0 7.6094-4.9375 12.047-4.9219 4.4531-13.375 4.4531-3.9531 0-7.8906-0.875-3.9219-0.875-8.0156-2.7344z"/>
</defs>
<use xlink:href="#c"/>
<use x="63.623047" xlink:href="#d"/>
<use x="95.410156" xlink:href="#ac"/>
</g>
</g>
<g clip-path="url(#a)">
<g transform="translate(451.85 149.26) scale(.1 -.1)">
<defs>
<path id="ab" d="m33.016 40.375q-6.6406 0-10.531-4.5469-3.875-4.5312-3.875-12.438 0-7.8594 3.875-12.438 3.8906-4.5625 10.531-4.5625t10.516 4.5625q3.875 4.5781 3.875 12.438 0 7.9062-3.875 12.438-3.875 4.5469-10.516 4.5469zm19.578 30.922v-8.9844q-3.7188 1.75-7.5 2.6719-3.7812 0.9375-7.5 0.9375-9.7656 0-14.922-6.5938-5.1406-6.5938-5.875-19.922 2.875 4.25 7.2188 6.5156 4.3594 2.2656 9.5781 2.2656 10.984 0 17.359-6.6719 6.375-6.6562 6.375-18.125 0-11.234-6.6406-18.031-6.6406-6.7812-17.672-6.7812-12.656 0-19.344 9.6875-6.6875 9.7031-6.6875 28.109 0 17.281 8.2031 27.562t22.016 10.281q3.7188 0 7.5-0.73438t7.8906-2.1875z"/>
</defs>
<use xlink:href="#c"/>
<use x="63.623047" xlink:href="#d"/>
<use x="95.410156" xlink:href="#ab"/>
</g>
</g>
<g clip-path="url(#a)">
<g transform="translate(669.22 271.1) scale(.1 -.1)">
<defs>
<path id="am" d="m10.984 1.5156v8.9844q3.7188-1.7656 7.5156-2.6875 3.8125-0.92188 7.4844-0.92188 9.7656 0 14.906 6.5625 5.1562 6.5625 5.8906 19.953-2.8281-4.2031-7.1875-6.4531-4.3438-2.25-9.6094-2.25-10.938 0-17.312 6.6094-6.375 6.625-6.375 18.109 0 11.219 6.6406 18 6.6406 6.7969 17.672 6.7969 12.656 0 19.312-9.7031 6.6719-9.6875 6.6719-28.141 0-17.234-8.1875-27.516-8.1719-10.281-21.984-10.281-3.7188 0-7.5312 0.73438-3.7969 0.73438-7.9062 2.2031zm19.625 30.906q6.6406 0 10.516 4.5312 3.8906 4.5469 3.8906 12.469 0 7.8594-3.8906 12.422-3.875 4.5625-10.516 4.5625t-10.516-4.5625-3.875-12.422q0-7.9219 3.875-12.469 3.875-4.5312 10.516-4.5312z"/>
</defs>
<use xlink:href="#c"/>
<use x="63.623047" xlink:href="#d"/>
<use x="95.410156" xlink:href="#am"/>
</g>
</g>
<g clip-path="url(#a)">
<g transform="translate(871.29 392.31) scale(.1 -.1)">
<defs>
<path id="ap" d="m31.781 66.406q-7.6094 0-11.453-7.5-3.8281-7.4844-3.8281-22.531 0-14.984 3.8281-22.484 3.8438-7.5 11.453-7.5 7.6719 0 11.5 7.5 3.8438 7.5 3.8438 22.484 0 15.047-3.8438 22.531-3.8281 7.5-11.5 7.5zm0 7.8125q12.266 0 18.734-9.7031 6.4688-9.6875 6.4688-28.141 0-18.406-6.4688-28.109-6.4688-9.6875-18.734-9.6875-12.25 0-18.719 9.6875-6.4688 9.7031-6.4688 28.109 0 18.453 6.4688 28.141 6.4688 9.7031 18.719 9.7031z"/>
</defs>
<use xlink:href="#c"/>
<use x="63.623047" xlink:href="#d"/>
<use x="95.410156" xlink:href="#c"/>
<use x="159.033203" xlink:href="#ap"/>
</g>
</g>
<g clip-path="url(#a)">
<g transform="translate(267.25 271.1) scale(.1 -.1)">
<use xlink:href="#c"/>
<use x="63.623047" xlink:href="#d"/>
<use x="95.410156" xlink:href="#c"/>
<use x="159.033203" xlink:href="#c"/>
</g>
</g>
<g clip-path="url(#a)">
<g transform="translate(337.96 392.31) scale(.1 -.1)">
<use xlink:href="#c"/>
<use x="63.623047" xlink:href="#d"/>
<use x="95.410156" xlink:href="#c"/>
<use x="159.033203" xlink:href="#n"/>
</g>
</g>
<g clip-path="url(#a)">
<g transform="translate(390.48 392.31) scale(.1 -.1)">
<use xlink:href="#c"/>
<use x="63.623047" xlink:href="#d"/>
<use x="95.410156" xlink:href="#c"/>
<use x="159.033203" xlink:href="#ae"/>
</g>
</g>
<g clip-path="url(#a)">
<g transform="translate(538.77 271.1) scale(.1 -.1)">
<use xlink:href="#c"/>
<use x="63.623047" xlink:href="#d"/>
<use x="95.410156" xlink:href="#c"/>
<use x="159.033203" xlink:href="#ad"/>
</g>
</g>
<g clip-path="url(#a)">
<g transform="translate(477.35 392.31) scale(.1 -.1)">
<use xlink:href="#c"/>
<use x="63.623047" xlink:href="#d"/>
<use x="95.410156" xlink:href="#c"/>
<use x="159.033203" xlink:href="#ac"/>
</g>
</g>
<g clip-path="url(#a)">
<g transform="translate(572.3 392.31) scale(.1 -.1)">
<use xlink:href="#c"/>
<use x="63.623047" xlink:href="#d"/>
<use x="95.410156" xlink:href="#c"/>
<use x="159.033203" xlink:href="#ab"/>
</g>
</g>
<g clip-path="url(#a)">
<g transform="translate(640.99 392.31) scale(.1 -.1)">
<defs>
<path id="ao" d="m8.2031 72.906h46.875v-4.2031l-26.469-68.703h-10.297l24.906 64.594h-35.016z"/>
</defs>
<use xlink:href="#c"/>
<use x="63.623047" xlink:href="#d"/>
<use x="95.410156" xlink:href="#c"/>
<use x="159.033203" xlink:href="#ao"/>
</g>
</g>
<g clip-path="url(#a)">
<g transform="translate(713.72 392.31) scale(.1 -.1)">
<defs>
<path id="an" d="m31.781 34.625q-7.0312 0-11.062-3.7656-4.0156-3.7656-4.0156-10.344 0-6.5938 4.0156-10.359 4.0312-3.7656 11.062-3.7656t11.078 3.7812q4.0625 3.7969 4.0625 10.344 0 6.5781-4.0312 10.344-4.0156 3.7656-11.109 3.7656zm-9.8594 4.1875q-6.3438 1.5625-9.8906 5.9062-3.5312 4.3594-3.5312 10.609 0 8.7344 6.2188 13.812 6.2344 5.0781 17.062 5.0781 10.891 0 17.094-5.0781t6.2031-13.812q0-6.25-3.5469-10.609-3.5312-4.3438-9.8281-5.9062 7.125-1.6562 11.094-6.5 3.9844-4.8281 3.9844-11.797 0-10.609-6.4688-16.281-6.4688-5.6562-18.531-5.6562-12.047 0-18.531 5.6562-6.4688 5.6719-6.4688 16.281 0 6.9688 4 11.797 4.0156 4.8438 11.141 6.5zm-3.6094 15.578q0-5.6562 3.5312-8.8281 3.5469-3.1719 9.9375-3.1719 6.3594 0 9.9375 3.1719 3.5938 3.1719 3.5938 8.8281 0 5.6719-3.5938 8.8438-3.5781 3.1719-9.9375 3.1719-6.3906 0-9.9375-3.1719-3.5312-3.1719-3.5312-8.8438z"/>
</defs>
<use xlink:href="#c"/>
<use x="63.623047" xlink:href="#d"/>
<use x="95.410156" xlink:href="#c"/>
<use x="159.033203" xlink:href="#an"/>
</g>
</g>
<g clip-path="url(#a)">
<g transform="translate(245.03 392.31) scale(.1 -.1)">
<use xlink:href="#c"/>
<use x="63.623047" xlink:href="#d"/>
<use x="95.410156" xlink:href="#c"/>
<use x="159.033203" xlink:href="#am"/>
</g>
</g>
<g clip-path="url(#a)">
<g transform="translate(289.47 392.31) scale(.1 -.1)">
<use xlink:href="#c"/>
<use x="63.623047" xlink:href="#d"/>
<use x="95.410156" xlink:href="#n"/>
<use x="159.033203" xlink:href="#ap"/>
</g>
</g>
<g clip-path="url(#a)">
<g transform="translate(34.928 392.31) scale(.1 -.1)">
<use xlink:href="#c"/>
<use x="63.623047" xlink:href="#d"/>
<use x="95.410156" xlink:href="#n"/>
<use x="159.033203" xlink:href="#c"/>
</g>
</g>
<g clip-path="url(#a)">
<g transform="translate(47.049 392.31) scale(.1 -.1)">
<use xlink:href="#c"/>
<use x="63.623047" xlink:href="#d"/>
<use x="95.410156" xlink:href="#n"/>
<use x="159.033203" xlink:href="#n"/>
</g>
</g>
<g clip-path="url(#a)">
<g transform="translate(63.211 392.31) scale(.1 -.1)">
<use xlink:href="#c"/>
<use x="63.623047" xlink:href="#d"/>
<use x="95.410156" xlink:href="#n"/>
<use x="159.033203" xlink:href="#ae"/>
</g>
</g>
<g clip-path="url(#a)">
<g transform="translate(83.413 392.31) scale(.1 -.1)">
<use xlink:href="#c"/>
<use x="63.623047" xlink:href="#d"/>
<use x="95.410156" xlink:href="#n"/>
<use x="159.033203" xlink:href="#ad"/>
</g>
</g>
<g clip-path="url(#a)">
<g transform="translate(107.66 392.31) scale(.1 -.1)">
<use xlink:href="#c"/>
<use x="63.623047" xlink:href="#d"/>
<use x="95.410156" xlink:href="#n"/>
<use x="159.033203" xlink:href="#ac"/>
</g>
</g>
<g clip-path="url(#a)">
<g transform="translate(135.94 392.31) scale(.1 -.1)">
<use xlink:href="#c"/>
<use x="63.623047" xlink:href="#d"/>
<use x="95.410156" xlink:href="#n"/>
<use x="159.033203" xlink:href="#ab"/>
</g>
</g>
<g clip-path="url(#a)">
<g transform="translate(168.26 392.31) scale(.1 -.1)">
<use xlink:href="#c"/>
<use x="63.623047" xlink:href="#d"/>
<use x="95.410156" xlink:href="#n"/>
<use x="159.033203" xlink:href="#ao"/>
</g>
</g>
<g clip-path="url(#a)">
<g transform="translate(956.14 392.31) scale(.1 -.1)">
<use xlink:href="#c"/>
<use x="63.623047" xlink:href="#d"/>
<use x="95.410156" xlink:href="#n"/>
<use x="159.033203" xlink:href="#an"/>
</g>
</g>
<defs>
<clipPath id="a">
<rect width="1013.3" height="533.33"/>
</clipPath>
</defs>
</svg>
