<?xml version="1.0" encoding="UTF-8"?>
<!DOCTYPE svg  PUBLIC '-//W3C//DTD SVG 1.1//EN'  'http://www.w3.org/Graphics/SVG/1.1/DTD/svg11.dtd'>
<svg width="608pt" height="320pt" version="1.1" viewBox="0 0 608 320" xmlns="http://www.w3.org/2000/svg" xmlns:xlink="http://www.w3.org/1999/xlink">
<metadata>
<rdf:RDF xmlns:cc="http://creativecommons.org/ns#" xmlns:dc="http://purl.org/dc/elements/1.1/" xmlns:rdf="http://www.w3.org/1999/02/22-rdf-syntax-ns#">
<cc:Work>
<dc:type rdf:resource="http://purl.org/dc/dcmitype/StillImage"/>
<dc:date>2021-02-01T11:21:56.250492</dc:date>
<dc:format>image/svg+xml</dc:format>
<dc:creator>
<cc:Agent>
<dc:title>Matplotlib v3.3.3, https://matplotlib.org/</dc:title>
</cc:Agent>
</dc:creator>
</cc:Work>
</rdf:RDF>
</metadata>
<defs>
<style type="text/css">*{stroke-linecap:butt;stroke-linejoin:round;}</style>
</defs>
<path d="m0 320h608v-320h-608z" fill="#fff"/>
<g fill="none" stroke="#000">
<path d="m120.28 14.545 48.678 58.701" clip-path="url(#a)"/>
<path d="m120.28 14.545-48.678 233.66" clip-path="url(#a)"/>
<path d="m168.96 73.246-141.32 116.91" clip-path="url(#a)"/>
<path d="m168.96 73.246-122.48 174.96" clip-path="url(#a)"/>
<path d="m168.96 73.246 3.1405 58.552" clip-path="url(#a)"/>
<path d="m168.96 73.246 260.66 116.91" clip-path="url(#a)"/>
<path d="m71.603 248.2v57.253" clip-path="url(#a)"/>
<path d="m27.636 190.15v58.049" clip-path="url(#a)"/>
<path d="m46.479 248.2v57.253" clip-path="url(#a)"/>
<path d="m172.1 131.8-69.091 116.4" clip-path="url(#a)"/>
<path d="m172.1 131.8-31.405 116.4" clip-path="url(#a)"/>
<path d="m172.1 131.8 37.686 58.354" clip-path="url(#a)"/>
<path d="m172.1 131.8 62.81 116.4" clip-path="url(#a)"/>
<path d="m429.62 190.15-138.18 58.049" clip-path="url(#a)"/>
<path d="m429.62 190.15-75.372 58.049" clip-path="url(#a)"/>
<path d="m429.62 190.15-6.281 58.049" clip-path="url(#a)"/>
<path d="m429.62 190.15 69.091 58.049" clip-path="url(#a)"/>
<path d="m429.62 190.15 150.74 58.049" clip-path="url(#a)"/>
<path d="m291.44 248.2v57.253" clip-path="url(#a)"/>
<path d="m354.25 248.2v57.253" clip-path="url(#a)"/>
<path d="m423.34 248.2v57.253" clip-path="url(#a)"/>
<path d="m498.71 248.2v57.253" clip-path="url(#a)"/>
<path d="m103.01 248.2v57.253" clip-path="url(#a)"/>
<path d="m140.69 248.2v57.253" clip-path="url(#a)"/>
<path d="m209.79 190.15 25.124 58.049" clip-path="url(#a)" stroke-dasharray="3.7,1.6"/>
<path d="m209.79 190.15-25.124 58.049" clip-path="url(#a)"/>
<path d="m234.91 248.2v57.253" clip-path="url(#a)"/>
<path d="m184.66 248.2v57.253" clip-path="url(#a)"/>
<path d="m27.636 248.2v57.253" clip-path="url(#a)"/>
<path d="m580.36 248.2v57.253" clip-path="url(#a)"/>
</g>
<path d="m137.87 45.583 3.8404 4.6311q1.532 1.8474 3.3794 0.31544l5.9599-4.9423q1.8474-1.532 0.31544-3.3794l-3.8403-4.6311q-1.532-1.8474-3.3794-0.31544l-5.9599 4.9423q-1.8474 1.532-0.31544 3.3794z" clip-path="url(#a)" fill="#fff" stroke="#fff"/>
<g clip-path="url(#a)">
<g transform="translate(141 42.989) rotate(50.333) scale(.08 -.08)">
<defs>
<path id="ap" d="m9.8125 72.906h9.8594v-29.891h35.844v29.891h9.8594v-72.906h-9.8594v34.719h-35.844v-34.719h-9.8594z"/>
</defs>
<use xlink:href="#ap"/>
</g>
</g>
<path d="m101.63 134.83 0.90911-4.3638q0.48948-2.3496-1.8601-2.839l-7.5798-1.5791q-2.3496-0.48948-2.839 1.8601l-0.90911 4.3638q-0.48948 2.3496 1.8601 2.839l7.5798 1.5791q2.3496 0.48948 2.839-1.8601z" clip-path="url(#a)" fill="#fff" stroke="#fff"/>
<g clip-path="url(#a)">
<g transform="translate(97.649 134.01) rotate(-78.232) scale(.08 -.08)">
<defs>
<path id="ao" d="m9.8125 72.906h9.8594v-64.609h35.5v-8.2969h-45.359z"/>
</defs>
<use xlink:href="#ao"/>
</g>
</g>
<path d="m100.19 138.28 4.2167-3.4882q1.8493-1.5298 0.3195-3.379l-4.9351-5.9658q-1.5298-1.8493-3.379-0.3195l-4.2167 3.4882q-1.8493 1.5298-0.3195 3.379l4.9351 5.9658q1.5298 1.8493 3.379 0.3195z" clip-path="url(#a)" fill="#fff" stroke="#fff"/>
<g clip-path="url(#a)">
<g transform="translate(97.596 135.14) rotate(-39.599) scale(.08 -.08)">
<defs>
<path id="n" d="m34.188 63.188-13.391-36.281h26.812zm-5.5781 9.7188h11.188l27.781-72.906h-10.25l-6.6406 18.703h-32.859l-6.6406-18.703h-10.406z"/>
</defs>
<use xlink:href="#n"/>
</g>
</g>
<path d="m111.47 166.3 2.7664-3.9517q1.3764-1.9661-0.58971-3.3425l-6.3427-4.4403q-1.9661-1.3764-3.3425 0.58971l-2.7664 3.9517q-1.3764 1.9661 0.58971 3.3425l6.3427 4.4403q1.9661 1.3764 3.3425-0.58971z" clip-path="url(#a)" fill="#fff" stroke="#fff"/>
<g clip-path="url(#a)">
<g transform="translate(108.14 163.97) rotate(-55.006) scale(.08 -.08)">
<defs>
<path id="x" d="m19.672 64.797v-27.391h12.406q6.8906 0 10.641 3.5625 3.7656 3.5625 3.7656 10.156 0 6.5469-3.7656 10.109-3.75 3.5625-10.641 3.5625zm-9.8594 8.1094h22.266q12.266 0 18.531-5.5469 6.2812-5.5469 6.2812-16.234 0-10.797-6.2812-16.312-6.2656-5.5156-18.531-5.5156h-12.406v-29.297h-9.8594z"/>
</defs>
<use xlink:href="#x"/>
</g>
</g>
<path d="m164.12 100.13 0.2931 5.4646q0.12854 2.3966 2.5251 2.268l7.7314-0.41468q2.3966-0.12854 2.268-2.5251l-0.2931-5.4646q-0.12854-2.3966-2.5251-2.268l-7.7314 0.41468q-2.3966 0.12854-2.268 2.5251z" clip-path="url(#a)" fill="#fff" stroke="#fff"/>
<g clip-path="url(#a)">
<g transform="translate(168.18 99.908) rotate(86.93) scale(.08 -.08)">
<use xlink:href="#n"/>
</g>
</g>
<path d="m294.23 136.3 4.9933 2.2395q2.1898 0.98214 3.172-1.2077l3.1684-7.0645q0.98214-2.1898-1.2077-3.172l-4.9933-2.2395q-2.1898-0.98214-3.172 1.2077l-3.1684 7.0645q-0.98214 2.1898 1.2077 3.172z" clip-path="url(#a)" fill="#fff" stroke="#fff"/>
<g clip-path="url(#a)">
<g transform="translate(295.89 132.59) rotate(24.156) scale(.08 -.08)">
<use xlink:href="#n"/>
</g>
</g>
<path d="m65.332 259.92v33.808q0 2.4 2.4 2.4h7.7425q2.4 0 2.4-2.4v-33.808q0-2.4-2.4-2.4h-7.7425q-2.4 0-2.4 2.4z" clip-path="url(#a)" fill="#fff" stroke="#fff"/>
<g clip-path="url(#a)">
<g transform="translate(69.396 259.92) rotate(90) scale(.08 -.08)">
<defs>
<path id="g" d="m-0.29688 72.906h61.672v-8.3125h-25.875v-64.594h-9.9062v64.594h-25.891z"/>
<path id="m" d="m56.203 29.594v-4.3906h-41.312q0.59375-9.2812 5.5938-14.141t13.938-4.8594q5.1719 0 10.031 1.2656t9.6562 3.8125v-8.5q-4.8438-2.0469-9.9219-3.125t-10.297-1.0781q-13.094 0-20.734 7.6094-7.6406 7.625-7.6406 20.625 0 13.422 7.25 21.297 7.25 7.8906 19.562 7.8906 11.031 0 17.453-7.1094 6.4219-7.0938 6.4219-19.297zm-8.9844 2.6406q-0.09375 7.3594-4.125 11.75-4.0312 4.4062-10.672 4.4062-7.5156 0-12.031-4.25t-5.2031-11.969z"/>
<path id="h" d="m41.109 46.297q-1.5156 0.875-3.2969 1.2812-1.7812 0.42188-3.9219 0.42188-7.625 0-11.703-4.9531t-4.0781-14.234v-28.812h-9.0312v54.688h9.0312v-8.5q2.8438 4.9844 7.375 7.3906 4.5469 2.4219 11.047 2.4219 0.92188 0 2.0469-0.125 1.125-0.10938 2.4844-0.35938z"/>
<path id="j" d="m52 44.188q3.375 6.0625 8.0625 8.9375t11.031 2.875q8.5469 0 13.188-5.9844 4.6406-5.9688 4.6406-17v-33.016h-9.0312v32.719q0 7.8594-2.7969 11.656-2.7812 3.8125-8.4844 3.8125-6.9844 0-11.047-4.6406-4.0469-4.625-4.0469-12.641v-30.906h-9.0312v32.719q0 7.9062-2.7812 11.688t-8.5938 3.7812q-6.8906 0-10.953-4.6562-4.0469-4.6562-4.0469-12.625v-30.906h-9.0312v54.688h9.0312v-8.5q3.0781 5.0312 7.375 7.4219t10.203 2.3906q5.9688 0 10.141-3.0312 4.1719-3.0156 6.1719-8.7812z"/>
<path id="l" d="m9.4219 54.688h8.9844v-54.688h-8.9844zm0 21.297h8.9844v-11.391h-8.9844z"/>
<path id="i" d="m54.891 33.016v-33.016h-8.9844v32.719q0 7.7656-3.0312 11.609-3.0312 3.8594-9.0781 3.8594-7.2812 0-11.484-4.6406-4.2031-4.625-4.2031-12.641v-30.906h-9.0312v54.688h9.0312v-8.5q3.2344 4.9375 7.5938 7.375 4.375 2.4375 10.094 2.4375 9.4219 0 14.25-5.8281 4.8438-5.8281 4.8438-17.156z"/>
<path id="f" d="m34.281 27.484q-10.891 0-15.094-2.4844t-4.2031-8.5q0-4.7812 3.1562-7.5938 3.1562-2.7969 8.5625-2.7969 7.4844 0 12 5.2969t4.5156 14.078v2zm17.922 3.7188v-31.203h-8.9844v8.2969q-3.0781-4.9688-7.6719-7.3438t-11.234-2.375q-8.3906 0-13.359 4.7188-4.9531 4.7188-4.9531 12.625 0 9.2188 6.1719 13.906 6.1875 4.6875 18.438 4.6875h12.609v0.89062q0 6.2031-4.0781 9.5938t-11.453 3.3906q-4.6875 0-9.1406-1.125-4.4375-1.125-8.5312-3.375v8.3125q4.9219 1.9062 9.5625 2.8438 4.6406 0.95312 9.0312 0.95312 11.875 0 17.734-6.1562 5.8594-6.1406 5.8594-18.641z"/>
<path id="k" d="m9.4219 75.984h8.9844v-75.984h-8.9844z"/>
</defs>
<use xlink:href="#g"/>
<use x="44.083984" xlink:href="#m"/>
<use x="105.607422" xlink:href="#h"/>
<use x="144.970703" xlink:href="#j"/>
<use x="242.382812" xlink:href="#l"/>
<use x="270.166016" xlink:href="#i"/>
<use x="333.544922" xlink:href="#f"/>
<use x="394.824219" xlink:href="#k"/>
</g>
</g>
<path d="m21.236 212.68v12.991q0 2.4 2.4 2.4h8q2.4 0 2.4-2.4v-12.991q0-2.4-2.4-2.4h-8q-2.4 0-2.4 2.4z" clip-path="url(#a)" fill="#fff" stroke="#fff"/>
<g clip-path="url(#a)">
<g transform="translate(25.523 212.68) rotate(90) scale(.08 -.08)">
<defs>
<path id="at" d="m21 76.422v-100h-8.2969v100z"/>
</defs>
<use xlink:href="#n"/>
<use x="68.408203" xlink:href="#at"/>
<use x="102.099609" xlink:href="#x"/>
</g>
</g>
<path d="m40.208 259.92v33.808q0 2.4 2.4 2.4h7.7425q2.4 0 2.4-2.4v-33.808q0-2.4-2.4-2.4h-7.7425q-2.4 0-2.4 2.4z" clip-path="url(#a)" fill="#fff" stroke="#fff"/>
<g clip-path="url(#a)">
<g transform="translate(44.272 259.92) rotate(90) scale(.08 -.08)">
<use xlink:href="#g"/>
<use x="44.083984" xlink:href="#m"/>
<use x="105.607422" xlink:href="#h"/>
<use x="144.970703" xlink:href="#j"/>
<use x="242.382812" xlink:href="#l"/>
<use x="270.166016" xlink:href="#i"/>
<use x="333.544922" xlink:href="#f"/>
<use x="394.824219" xlink:href="#k"/>
</g>
</g>
<path d="m141.53 195.59 2.8372-4.7801q1.225-2.0638-0.83885-3.2888l-6.658-3.9519q-2.0638-1.225-3.2888 0.83885l-2.8372 4.7801q-1.225 2.0638 0.83885 3.2888l6.658 3.9519q2.0638 1.225 3.2888-0.83885z" clip-path="url(#a)" fill="#fff" stroke="#fff"/>
<g clip-path="url(#a)">
<g transform="translate(138.03 193.52) rotate(-59.309) scale(.08 -.08)">
<defs>
<path id="aa" d="m44.391 34.188q3.1719-1.0781 6.1719-4.5938t6.0312-9.6719l10.016-19.922h-10.609l-9.3125 18.703q-3.625 7.3281-7.0156 9.7188t-9.25 2.3906h-10.75v-30.812h-9.8594v72.906h22.266q12.5 0 18.656-5.2344 6.1562-5.2188 6.1562-15.766 0-6.8906-3.2031-11.438-3.2031-4.5312-9.2969-6.2812zm-24.719 30.609v-25.875h12.406q7.125 0 10.766 3.2969t3.6406 9.6875-3.6406 9.6406-10.766 3.25z"/>
</defs>
<use xlink:href="#aa"/>
</g>
</g>
<path d="m161.79 194.07 1.3167-4.8805q0.62516-2.3171-1.692-2.9423l-7.4752-2.0168q-2.3171-0.62516-2.9423 1.692l-1.3167 4.8805q-0.62515 2.3171 1.692 2.9423l7.4752 2.0168q2.3172 0.62516 2.9423-1.692z" clip-path="url(#a)" fill="#fff" stroke="#fff"/>
<g clip-path="url(#a)">
<g transform="translate(157.87 193.02) rotate(-74.901) scale(.08 -.08)">
<defs>
<path id="ab" d="m9.8125 72.906h46.094v-8.3125h-36.234v-21.578h34.719v-8.2969h-34.719v-26.422h37.109v-8.2969h-46.969z"/>
</defs>
<use xlink:href="#ab"/>
</g>
</g>
<path d="m184.3 162.25 2.7424 4.2464q1.302 2.0161 3.3181 0.71407l6.504-4.2004q2.0161-1.302 0.71407-3.3181l-2.7424-4.2464q-1.302-2.0161-3.3181-0.71407l-6.5041 4.2004q-2.0161 1.302-0.71407 3.3181z" clip-path="url(#a)" fill="#fff" stroke="#fff"/>
<g clip-path="url(#a)">
<g transform="translate(187.72 160.05) rotate(57.145) scale(.08 -.08)">
<use xlink:href="#ab"/>
</g>
</g>
<path d="m196.66 190.52 2.6527 4.9162q1.1397 2.1121 3.2518 0.97245l6.8138-3.6767q2.1121-1.1397 0.97245-3.2518l-2.6527-4.9162q-1.1397-2.1121-3.2518-0.97245l-6.8138 3.6767q-2.1121 1.1397-0.97245 3.2518z" clip-path="url(#a)" fill="#fff" stroke="#fff"/>
<g clip-path="url(#a)">
<g transform="translate(200.24 188.59) rotate(61.649) scale(.08 -.08)">
<defs>
<path id="aq" d="m64.406 67.281v-10.391q-4.9844 4.6406-10.625 6.9219-5.6406 2.2969-11.984 2.2969-12.5 0-19.141-7.6406t-6.6406-22.094q0-14.406 6.6406-22.047t19.141-7.6406q6.3438 0 11.984 2.2969t10.625 6.9375v-10.312q-5.1719-3.5156-10.969-5.2812-5.7812-1.75-12.219-1.75-16.562 0-26.094 10.125-9.5156 10.141-9.5156 27.672 0 17.578 9.5156 27.703 9.5312 10.141 26.094 10.141 6.5312 0 12.312-1.7344 5.7969-1.7344 10.875-5.2031z"/>
</defs>
<use xlink:href="#aq"/>
</g>
</g>
<path d="m360.4 226.04 5.1249-2.1529q2.2127-0.92954 1.2831-3.1422l-2.9987-7.1382q-0.92954-2.2127-3.1422-1.2831l-5.1249 2.1529q-2.2127 0.92953-1.2831 3.1422l2.9987 7.1382q0.92954 2.2127 3.1422 1.2831z" clip-path="url(#a)" fill="#fff" stroke="#fff"/>
<g clip-path="url(#a)">
<g transform="translate(358.82 222.29) rotate(-22.787) scale(.08 -.08)">
<use xlink:href="#aa"/>
</g>
</g>
<path d="m393.59 225.82 4.3357-3.3392q1.9014-1.4644 0.437-3.3659l-4.7243-6.1341q-1.4644-1.9014-3.3659-0.437l-4.3357 3.3392q-1.9014 1.4644-0.437 3.3659l4.7243 6.1341q1.4644 1.9014 3.3659 0.437z" clip-path="url(#a)" fill="#fff" stroke="#fff"/>
<g clip-path="url(#a)">
<g transform="translate(391.11 222.6) rotate(-37.602) scale(.08 -.08)">
<use xlink:href="#n"/>
</g>
</g>
<path d="m432.42 222.57 0.58869-5.4407q0.25818-2.3861-2.1279-2.6442l-7.6976-0.83288q-2.3861-0.25818-2.6442 2.1279l-0.58869 5.4407q-0.25818 2.3861 2.1279 2.6442l7.6976 0.83288q2.3861 0.25818 2.6442-2.1279z" clip-path="url(#a)" fill="#fff" stroke="#fff"/>
<g clip-path="url(#a)">
<g transform="translate(428.38 222.13) rotate(-83.825) scale(.08 -.08)">
<use xlink:href="#n"/>
</g>
</g>
<path d="m458.28 222.43 3.6932 3.103q1.8375 1.5439 3.3814-0.29366l4.9806-5.9279q1.5439-1.8375-0.29366-3.3814l-3.6932-3.103q-1.8375-1.5439-3.3814 0.29366l-4.9806 5.9279q-1.5439 1.8375 0.29366 3.3814z" clip-path="url(#a)" fill="#fff" stroke="#fff"/>
<g clip-path="url(#a)">
<g transform="translate(460.9 219.32) rotate(40.037) scale(.08 -.08)">
<use xlink:href="#x"/>
</g>
</g>
<path d="m500.01 223.98 5.4639 2.1041q2.2397 0.86247 3.1021-1.3772l2.7824-7.2253q0.86247-2.2397-1.3772-3.1021l-5.4639-2.1041q-2.2397-0.86247-3.1021 1.3772l-2.7824 7.2253q-0.86247 2.2397 1.3772 3.1021z" clip-path="url(#a)" fill="#fff" stroke="#fff"/>
<g clip-path="url(#a)">
<g transform="translate(501.47 220.18) rotate(21.061) scale(.08 -.08)">
<defs>
<path id="am" d="m8.6875 72.906h9.9219v-44.297q0-11.719 4.2344-16.875 4.25-5.1406 13.781-5.1406 9.4688 0 13.719 5.1406 4.25 5.1562 4.25 16.875v44.297h9.9062v-45.516q0-14.25-7.0625-21.531-7.0469-7.2812-20.812-7.2812-13.828 0-20.891 7.2812-7.0469 7.2812-7.0469 21.531z"/>
</defs>
<use xlink:href="#am"/>
</g>
</g>
<path d="m285.17 259.92v33.808q0 2.4 2.4 2.4h7.7425q2.4 0 2.4-2.4v-33.808q0-2.4-2.4-2.4h-7.7425q-2.4 0-2.4 2.4z" clip-path="url(#a)" fill="#fff" stroke="#fff"/>
<g clip-path="url(#a)">
<g transform="translate(289.23 259.92) rotate(90) scale(.08 -.08)">
<use xlink:href="#g"/>
<use x="44.083984" xlink:href="#m"/>
<use x="105.607422" xlink:href="#h"/>
<use x="144.970703" xlink:href="#j"/>
<use x="242.382812" xlink:href="#l"/>
<use x="270.166016" xlink:href="#i"/>
<use x="333.544922" xlink:href="#f"/>
<use x="394.824219" xlink:href="#k"/>
</g>
</g>
<path d="m347.98 259.92v33.808q0 2.4 2.4 2.4h7.7425q2.4 0 2.4-2.4v-33.808q0-2.4-2.4-2.4h-7.7425q-2.4 0-2.4 2.4z" clip-path="url(#a)" fill="#fff" stroke="#fff"/>
<g clip-path="url(#a)">
<g transform="translate(352.04 259.92) rotate(90) scale(.08 -.08)">
<use xlink:href="#g"/>
<use x="44.083984" xlink:href="#m"/>
<use x="105.607422" xlink:href="#h"/>
<use x="144.970703" xlink:href="#j"/>
<use x="242.382812" xlink:href="#l"/>
<use x="270.166016" xlink:href="#i"/>
<use x="333.544922" xlink:href="#f"/>
<use x="394.824219" xlink:href="#k"/>
</g>
</g>
<path d="m417.07 259.92v33.808q0 2.4 2.4 2.4h7.7425q2.4 0 2.4-2.4v-33.808q0-2.4-2.4-2.4h-7.7425q-2.4 0-2.4 2.4z" clip-path="url(#a)" fill="#fff" stroke="#fff"/>
<g clip-path="url(#a)">
<g transform="translate(421.13 259.92) rotate(90) scale(.08 -.08)">
<use xlink:href="#g"/>
<use x="44.083984" xlink:href="#m"/>
<use x="105.607422" xlink:href="#h"/>
<use x="144.970703" xlink:href="#j"/>
<use x="242.382812" xlink:href="#l"/>
<use x="270.166016" xlink:href="#i"/>
<use x="333.544922" xlink:href="#f"/>
<use x="394.824219" xlink:href="#k"/>
</g>
</g>
<path d="m492.44 259.92v33.808q0 2.4 2.4 2.4h7.7425q2.4 0 2.4-2.4v-33.808q0-2.4-2.4-2.4h-7.7425q-2.4 0-2.4 2.4z" clip-path="url(#a)" fill="#fff" stroke="#fff"/>
<g clip-path="url(#a)">
<g transform="translate(496.5 259.92) rotate(90) scale(.08 -.08)">
<use xlink:href="#g"/>
<use x="44.083984" xlink:href="#m"/>
<use x="105.607422" xlink:href="#h"/>
<use x="144.970703" xlink:href="#j"/>
<use x="242.382812" xlink:href="#l"/>
<use x="270.166016" xlink:href="#i"/>
<use x="333.544922" xlink:href="#f"/>
<use x="394.824219" xlink:href="#k"/>
</g>
</g>
<path d="m96.737 259.92v33.808q0 2.4 2.4 2.4h7.7425q2.4 0 2.4-2.4v-33.808q0-2.4-2.4-2.4h-7.7425q-2.4 0-2.4 2.4z" clip-path="url(#a)" fill="#fff" stroke="#fff"/>
<g clip-path="url(#a)">
<g transform="translate(100.8 259.92) rotate(90) scale(.08 -.08)">
<use xlink:href="#g"/>
<use x="44.083984" xlink:href="#m"/>
<use x="105.607422" xlink:href="#h"/>
<use x="144.970703" xlink:href="#j"/>
<use x="242.382812" xlink:href="#l"/>
<use x="270.166016" xlink:href="#i"/>
<use x="333.544922" xlink:href="#f"/>
<use x="394.824219" xlink:href="#k"/>
</g>
</g>
<path d="m134.42 259.92v33.808q0 2.4 2.4 2.4h7.7425q2.4 0 2.4-2.4v-33.808q0-2.4-2.4-2.4h-7.7425q-2.4 0-2.4 2.4z" clip-path="url(#a)" fill="#fff" stroke="#fff"/>
<g clip-path="url(#a)">
<g transform="translate(138.49 259.92) rotate(90) scale(.08 -.08)">
<use xlink:href="#g"/>
<use x="44.083984" xlink:href="#m"/>
<use x="105.607422" xlink:href="#h"/>
<use x="144.970703" xlink:href="#j"/>
<use x="242.382812" xlink:href="#l"/>
<use x="270.166016" xlink:href="#i"/>
<use x="333.544922" xlink:href="#f"/>
<use x="394.824219" xlink:href="#k"/>
</g>
</g>
<path d="m215.5 219.16 2.1737 5.0223q0.95328 2.2026 3.1558 1.2493l7.1055-3.0753q2.2026-0.95328 1.2493-3.1558l-2.1737-5.0223q-0.95328-2.2026-3.1558-1.2493l-7.1055 3.0753q-2.2026 0.95328-1.2493 3.1558z" clip-path="url(#a)" fill="#fff" stroke="#fff"/>
<g clip-path="url(#a)">
<g transform="translate(219.23 217.54) rotate(66.597) scale(.08 -.08)">
<use xlink:href="#n"/>
</g>
</g>
<path d="m201.97 224 2.0173-4.6609q0.95328-2.2026-1.2493-3.1558l-7.1055-3.0753q-2.2026-0.95328-3.1558 1.2493l-2.0173 4.6609q-0.95328 2.2026 1.2493 3.1558l7.1055 3.0753q2.2026 0.95328 3.1558-1.2493z" clip-path="url(#a)" fill="#fff" stroke="#fff"/>
<g clip-path="url(#a)">
<g transform="translate(198.24 222.38) rotate(-66.597) scale(.08 -.08)">
<defs>
<path id="an" d="m53.516 70.516v-9.625q-5.6094 2.6875-10.594 4-4.9844 1.3281-9.625 1.3281-8.0469 0-12.422-3.125t-4.375-8.8906q0-4.8438 2.9062-7.3125 2.9062-2.4531 11.016-3.9688l5.9531-1.2188q11.031-2.1094 16.281-7.4062t5.25-14.172q0-10.609-7.1094-16.078-7.0938-5.4688-20.812-5.4688-5.1719 0-11.016 1.1719-5.8281 1.1719-12.078 3.4688v10.156q6-3.3594 11.766-5.0781 5.7656-1.7031 11.328-1.7031 8.4375 0 13.031 3.3125 4.5938 3.3281 4.5938 9.4844 0 5.3594-3.2969 8.3906t-10.812 4.5469l-6.0156 1.1719q-11.031 2.1875-15.969 6.875-4.9219 4.6875-4.9219 13.047 0 9.6719 6.8125 15.234t18.766 5.5625q5.1406 0 10.453-0.9375 5.3281-0.92188 10.891-2.7656z"/>
</defs>
<use xlink:href="#an"/>
</g>
</g>
<path d="m228.64 259.92v33.808q0 2.4 2.4 2.4h7.7425q2.4 0 2.4-2.4v-33.808q0-2.4-2.4-2.4h-7.7425q-2.4 0-2.4 2.4z" clip-path="url(#a)" fill="#fff" stroke="#fff"/>
<g clip-path="url(#a)">
<g transform="translate(232.7 259.92) rotate(90) scale(.08 -.08)">
<use xlink:href="#g"/>
<use x="44.083984" xlink:href="#m"/>
<use x="105.607422" xlink:href="#h"/>
<use x="144.970703" xlink:href="#j"/>
<use x="242.382812" xlink:href="#l"/>
<use x="270.166016" xlink:href="#i"/>
<use x="333.544922" xlink:href="#f"/>
<use x="394.824219" xlink:href="#k"/>
</g>
</g>
<path d="m178.39 259.92v33.808q0 2.4 2.4 2.4h7.7425q2.4 0 2.4-2.4v-33.808q0-2.4-2.4-2.4h-7.7425q-2.4 0-2.4 2.4z" clip-path="url(#a)" fill="#fff" stroke="#fff"/>
<g clip-path="url(#a)">
<g transform="translate(182.45 259.92) rotate(90) scale(.08 -.08)">
<use xlink:href="#g"/>
<use x="44.083984" xlink:href="#m"/>
<use x="105.607422" xlink:href="#h"/>
<use x="144.970703" xlink:href="#j"/>
<use x="242.382812" xlink:href="#l"/>
<use x="270.166016" xlink:href="#i"/>
<use x="333.544922" xlink:href="#f"/>
<use x="394.824219" xlink:href="#k"/>
</g>
</g>
<path d="m21.365 259.92v33.808q0 2.4 2.4 2.4h7.7425q2.4 0 2.4-2.4v-33.808q0-2.4-2.4-2.4h-7.7425q-2.4 0-2.4 2.4z" clip-path="url(#a)" fill="#fff" stroke="#fff"/>
<g clip-path="url(#a)">
<g transform="translate(25.429 259.92) rotate(90) scale(.08 -.08)">
<use xlink:href="#g"/>
<use x="44.083984" xlink:href="#m"/>
<use x="105.607422" xlink:href="#h"/>
<use x="144.970703" xlink:href="#j"/>
<use x="242.382812" xlink:href="#l"/>
<use x="270.166016" xlink:href="#i"/>
<use x="333.544922" xlink:href="#f"/>
<use x="394.824219" xlink:href="#k"/>
</g>
</g>
<path d="m574.09 259.92v33.808q0 2.4 2.4 2.4h7.7425q2.4 0 2.4-2.4v-33.808q0-2.4-2.4-2.4h-7.7425q-2.4 0-2.4 2.4z" clip-path="url(#a)" fill="#fff" stroke="#fff"/>
<g clip-path="url(#a)">
<g transform="translate(578.16 259.92) rotate(90) scale(.08 -.08)">
<use xlink:href="#g"/>
<use x="44.083984" xlink:href="#m"/>
<use x="105.607422" xlink:href="#h"/>
<use x="144.970703" xlink:href="#j"/>
<use x="242.382812" xlink:href="#l"/>
<use x="270.166016" xlink:href="#i"/>
<use x="333.544922" xlink:href="#f"/>
<use x="394.824219" xlink:href="#k"/>
</g>
</g>
<defs>
<path id="c" d="m0 8.6603c2.2967 0 4.4997-0.9125 6.1237-2.5365 1.624-1.624 2.5365-3.827 2.5365-6.1237s-0.9125-4.4997-2.5365-6.1237c-1.624-1.624-3.827-2.5365-6.1237-2.5365s-4.4997 0.9125-6.1237 2.5365c-1.624 1.624-2.5365 3.827-2.5365 6.1237s0.9125 4.4997 2.5365 6.1237c1.624 1.624 3.827 2.5365 6.1237 2.5365z"/>
</defs>
<g clip-path="url(#a)" fill="#ffffff" stroke="#ffffff">
<use x="27.636364" y="305.454545" xlink:href="#c"/>
<use x="46.479339" y="305.454545" xlink:href="#c"/>
<use x="71.603306" y="305.454545" xlink:href="#c"/>
<use x="103.008264" y="305.454545" xlink:href="#c"/>
<use x="140.694215" y="305.454545" xlink:href="#c"/>
<use x="184.661157" y="305.454545" xlink:href="#c"/>
<use x="234.909091" y="305.454545" xlink:href="#c"/>
<use x="291.438017" y="305.454545" xlink:href="#c"/>
<use x="354.247934" y="305.454545" xlink:href="#c"/>
<use x="423.338843" y="305.454545" xlink:href="#c"/>
<use x="498.710744" y="305.454545" xlink:href="#c"/>
<use x="580.363636" y="305.454545" xlink:href="#c"/>
<use x="120.280992" y="14.545455" xlink:href="#c"/>
<use x="168.958678" y="73.24601" xlink:href="#c"/>
<use x="71.603306" y="248.201632" xlink:href="#c"/>
<use x="27.636364" y="190.152268" xlink:href="#c"/>
<use x="46.479339" y="248.201632" xlink:href="#c"/>
<use x="172.099174" y="131.79844" xlink:href="#c"/>
<use x="429.619835" y="190.152268" xlink:href="#c"/>
<use x="291.438017" y="248.201632" xlink:href="#c"/>
<use x="354.247934" y="248.201632" xlink:href="#c"/>
<use x="423.338843" y="248.201632" xlink:href="#c"/>
<use x="498.710744" y="248.201632" xlink:href="#c"/>
<use x="103.008264" y="248.201632" xlink:href="#c"/>
<use x="140.694215" y="248.201632" xlink:href="#c"/>
<use x="209.785124" y="190.152268" xlink:href="#c"/>
<use x="234.909091" y="248.201632" xlink:href="#c"/>
<use x="184.661157" y="248.201632" xlink:href="#c"/>
<use x="27.636364" y="248.201632" xlink:href="#c"/>
<use x="580.363636" y="248.201632" xlink:href="#c"/>
</g>
<g clip-path="url(#a)">
<g transform="translate(2.2207 308.21) scale(.1 -.1)">
<defs>
<path id="ba" d="m34.188 63.188-13.391-36.281h26.812zm-5.5781 9.7188h11.188l27.781-72.906h-10.25l-6.6406 18.703h-32.859l-6.6406-18.703h-10.406z"/>
<path id="s" d="m48.781 52.594v-8.4062q-3.8125 2.1094-7.6406 3.1562t-7.7344 1.0469q-8.75 0-13.594-5.5469-4.8281-5.5312-4.8281-15.547t4.8281-15.562q4.8438-5.5312 13.594-5.5312 3.9062 0 7.7344 1.0469t7.6406 3.1562v-8.3125q-3.7656-1.75-7.7969-2.625-4.0156-0.89062-8.5625-0.89062-12.359 0-19.641 7.7656-7.2656 7.7656-7.2656 20.953 0 13.375 7.3438 21.031 7.3594 7.6719 20.156 7.6719 4.1406 0 8.0938-0.85938 3.9531-0.84375 7.6719-2.5469z"/>
<path id="r" d="m2.9375 54.688h52.391v-7.1719h-21.781v-47.516h-8.8438v47.516h-21.766z"/>
<path id="u" d="m18.109 8.2031v-29h-9.0312v75.484h9.0312v-8.2969q2.8438 4.875 7.1562 7.2344 4.3281 2.375 10.328 2.375 9.9688 0 16.188-7.9062 6.2344-7.9062 6.2344-20.797t-6.2344-20.812q-6.2188-7.9062-16.188-7.9062-6 0-10.328 2.375-4.3125 2.375-7.1562 7.25zm30.578 19.094q0 9.9062-4.0781 15.547t-11.203 5.6406q-7.1406 0-11.219-5.6406t-4.0781-15.547 4.0781-15.547 11.219-5.6406q7.125 0 11.203 5.6406t4.0781 15.547z"/>
<path id="e" d="m30.609 48.391q-7.2188 0-11.422-5.6406t-4.2031-15.453 4.1719-15.453q4.1875-5.6406 11.453-5.6406 7.1875 0 11.375 5.6562 4.2031 5.6719 4.2031 15.438 0 9.7188-4.2031 15.406-4.1875 5.6875-11.375 5.6875zm0 7.6094q11.719 0 18.406-7.625 6.7031-7.6094 6.7031-21.078 0-13.422-6.7031-21.078-6.6875-7.6406-18.406-7.6406-11.766 0-18.438 7.6406-6.6562 7.6562-6.6562 21.078 0 13.469 6.6562 21.078 6.6719 7.625 18.438 7.625z"/>
<path id="o" d="m9.0781 54.688h9.0312v-22.312h29.156v22.312h9.0312v-54.688h-9.0312v25.203h-29.156v-25.203h-9.0312z"/>
<path id="p" d="m9.0781 54.688h13.141l15.531-36.625 15.578 36.625h13.031v-54.688h-9.0312v46.094l-15.094-35.594h-8.9844l-15.141 35.594v-46.094h-9.0312z"/>
</defs>
<use xlink:href="#ba"/>
<use x="68.408203" xlink:href="#s"/>
<use x="123.388672" xlink:href="#r"/>
<use x="181.640625" xlink:href="#u"/>
<use x="245.117188" xlink:href="#e"/>
<use x="306.298828" xlink:href="#o"/>
<use x="371.679688" xlink:href="#e"/>
<use x="432.861328" xlink:href="#p"/>
</g>
</g>
<g clip-path="url(#a)">
<g transform="translate(22.757 308.21) scale(.1 -.1)">
<defs>
<path id="w" d="m21.625 7.1719h26.078v40.344h-18.891v-6.8438q0-20.109-5.7656-30.859zm-13.031 0q4.4375 1.9531 6.3906 6.1094 4.7969 10.297 4.7969 31.062v10.344h36.953v-47.516h7.1875v-20.984h-7.1875v13.812h-44.328v-13.812h-7.1875v20.984z"/>
<path id="y" d="m3.7188 0v7.4688q8.875 1.375 11.609 7.5156 3.3281 8.6562 3.3281 30.766v8.9375h36.953v-54.688h-8.9844v47.516h-18.984v-5.4219q0-21.094-4.2969-30.562-4.5938-10.109-19.625-11.531z"/>
<path id="ak" d="m40.578 54.688h8.9375v-25.688l23.875 25.688h10.453l-19.641-21.047 22.469-33.641h-9.625l-18.406 27.641-9.125-9.8125v-17.828h-8.9375v17.828l-9.125 9.8125-18.422-27.641h-9.6094l22.453 33.641-19.625 21.047h10.453l23.875-25.688z"/>
<path id="v" d="m55.906 54.688v-54.688h-8.9375v43.891l-26.359-43.891h-11.531v54.688h8.9375v-43.797l26.328 43.797z"/>
</defs>
<use xlink:href="#w"/>
<use x="69.140625" xlink:href="#e"/>
<use x="130.322266" xlink:href="#y"/>
<use x="194.238281" xlink:href="#e"/>
<use x="255.419922" xlink:href="#ak"/>
<use x="345.507812" xlink:href="#v"/>
<use x="410.498047" xlink:href="#y"/>
</g>
</g>
<g clip-path="url(#a)">
<g transform="translate(56.483 308.21) scale(.1 -.1)">
<defs>
<path id="al" d="m9.0781 0v54.688h38.578v-7.1719h-29.547v-47.516z"/>
<path id="t" d="m34.281 27.484q-10.891 0-15.094-2.4844t-4.2031-8.5q0-4.7812 3.1562-7.5938 3.1562-2.7969 8.5625-2.7969 7.4844 0 12 5.2969t4.5156 14.078v2zm17.922 3.7188v-31.203h-8.9844v8.2969q-3.0781-4.9688-7.6719-7.3438t-11.234-2.375q-8.3906 0-13.359 4.7188-4.9531 4.7188-4.9531 12.625 0 9.2188 6.1719 13.906 6.1875 4.6875 18.438 4.6875h12.609v0.89062q0 6.2031-4.0781 9.5938t-11.453 3.3906q-4.6875 0-9.1406-1.125-4.4375-1.125-8.5312-3.375v8.3125q4.9219 1.9062 9.5625 2.8438 4.6406 0.95312 9.0312 0.95312 11.875 0 17.734-6.1562 5.8594-6.1406 5.8594-18.641z"/>
</defs>
<use xlink:href="#r"/>
<use x="58.251953" xlink:href="#e"/>
<use x="119.433594" xlink:href="#al"/>
<use x="171.972656" xlink:href="#w"/>
<use x="241.113281" xlink:href="#t"/>
</g>
</g>
<g clip-path="url(#a)">
<g transform="translate(99.949 308.21) scale(.1 -.1)">
<use xlink:href="#e"/>
</g>
</g>
<g clip-path="url(#a)">
<g transform="translate(125.09 308.21) scale(.1 -.1)">
<defs>
<path id="ay" d="m18.062 25.203v-18.031h12.797q6.1562 0 9.375 2.3125 3.2188 2.3281 3.2188 6.7344 0 4.3906-3.2188 6.6875t-9.375 2.2969zm0 22.312v-15.141h11.828q5.0781 0 8.2969 2.0156 3.2188 2.0312 3.2188 5.6562 0 3.6094-3.2188 5.5312-3.2188 1.9375-8.2969 1.9375zm-8.9844 7.1719h21.391q9.625 0 14.797-3.5156t5.1719-10.016q0-5.0156-2.6406-7.9844-2.625-2.9531-7.8125-3.6719 6.2031-1.1719 9.625-4.8906 3.4219-3.7031 3.4219-9.2812 0-7.3125-5.6406-11.328-5.6406-4-16.094-4h-22.219z"/>
<path id="q" d="m56.203 29.594v-4.3906h-41.312q0.59375-9.2812 5.5938-14.141t13.938-4.8594q5.1719 0 10.031 1.2656t9.6562 3.8125v-8.5q-4.8438-2.0469-9.9219-3.125t-10.297-1.0781q-13.094 0-20.734 7.6094-7.6406 7.625-7.6406 20.625 0 13.422 7.25 21.297 7.25 7.8906 19.562 7.8906 11.031 0 17.453-7.1094 6.4219-7.0938 6.4219-19.297zm-8.9844 2.6406q-0.09375 7.3594-4.125 11.75-4.0312 4.4062-10.672 4.4062-7.5156 0-12.031-4.25t-5.2031-11.969z"/>
</defs>
<use xlink:href="#s"/>
<use x="54.980469" xlink:href="#ay"/>
<use x="113.916016" xlink:href="#e"/>
<use x="175.097656" xlink:href="#q"/>
<use x="236.621094" xlink:href="#p"/>
</g>
</g>
<g clip-path="url(#a)">
<g transform="translate(143.84 308.21) scale(.1 -.1)">
<defs>
<path id="ax" d="m34.469 29.5q6.0625-1.1719 9.4219-4.75 3.375-3.5625 3.375-8.8281 0-8.4531-6.2969-12.906-6.2969-4.4375-17.922-4.4375-3.9062 0-8.0312 0.6875t-8.5156 2.0469v8.3594q3.4688-1.8125 7.6094-2.7188 4.1562-0.89062 8.6875-0.89062 7.375 0 11.5 2.7344t4.125 7.125q0 4.2969-3.6562 6.9062t-10.344 2.6094h-7.2344v7.4219h7.5625q5.6719 0 8.9688 2.1719t3.2969 5.5938q0 3.125-3.4062 5.375-3.3906 2.25-9.1875 2.25-3.4688 0-7.4062-0.64062-3.9219-0.64062-8.6719-2.0469v8.1562q4.7969 1.1719 8.9375 1.75 4.1562 0.59375 7.8594 0.59375 9.5781 0 15.109-3.8438 5.5469-3.8281 5.5469-10.719 0-4.5312-2.9375-7.6875-2.9219-3.1406-8.3906-4.3125z"/>
<path id="aj" d="m41.016 0v23h-16.75q-7.4688 0-12.453 4.6406-4.4844 4.2031-4.4844 13.188v13.859h8.9844v-13.031q0-5.7188 2.5312-8.5938 2.5938-2.8906 7.6719-2.8906h14.5v24.516h8.9844v-54.688z"/>
<path id="au" d="m43.453 16.219q0 4.3906-3.2031 6.6875-3.1875 2.2969-9.3438 2.2969h-12.797v-18.031h12.797q6.1562 0 9.3438 2.3125 3.2031 2.3281 3.2031 6.7344zm-34.375 38.469h9.0312v-22.312h13.188q10.453 0 16.094-3.9844 5.6406-3.9688 5.6406-12.172t-5.6406-12.219q-5.6406-4-16.094-4h-22.219z"/>
</defs>
<use xlink:href="#ax"/>
<use x="53.173828" xlink:href="#t"/>
<use x="114.453125" xlink:href="#p"/>
<use x="189.892578" xlink:href="#q"/>
<use x="251.416016" xlink:href="#aj"/>
<use x="310.498047" xlink:href="#t"/>
<use x="371.777344" xlink:href="#r"/>
<use x="430.029297" xlink:href="#q"/>
<use x="491.552734" xlink:href="#y"/>
<use x="555.46875" xlink:href="#au"/>
<use x="614.404297" xlink:href="#o"/>
<use x="679.785156" xlink:href="#e"/>
<use x="740.966797" xlink:href="#p"/>
</g>
</g>
<g clip-path="url(#a)">
<g transform="translate(209.38 308.21) scale(.1 -.1)">
<defs>
<path id="z" d="m9.0781 54.688h8.9375v-25.688l25.344 25.688h11.031l-20.891-21.141 23.578-33.547h-10.062l-19.375 27.594-9.625-9.7656v-17.828h-8.9375z"/>
<path id="av" d="m61.047 54.688h8.9844v-54.688h-8.9844zm4.5 1.3125m-22.094-39.781q0 4.3906-3.2031 6.6875-3.1875 2.2969-9.3438 2.2969h-12.797v-18.031h12.797q6.1562 0 9.3438 2.3125 3.2031 2.3281 3.2031 6.7344zm-34.375 38.469h9.0312v-22.312h13.188q10.453 0 16.094-3.9844 5.6406-3.9688 5.6406-12.172t-5.6406-12.219q-5.6406-4-16.094-4h-22.219z"/>
</defs>
<use xlink:href="#e"/>
<use x="61.181641" xlink:href="#r"/>
<use x="119.433594" xlink:href="#z"/>
<use x="179.833984" xlink:href="#u"/>
<use x="243.310547" xlink:href="#av"/>
<use x="322.265625" xlink:href="#r"/>
<use x="380.517578" xlink:href="#v"/>
<use x="445.507812" xlink:href="#v"/>
</g>
</g>
<g clip-path="url(#a)">
<g transform="translate(285.11 308.21) scale(.1 -.1)">
<use xlink:href="#o"/>
<use x="65.380859" xlink:href="#t"/>
</g>
</g>
<g clip-path="url(#a)">
<g transform="translate(309.81 308.21) scale(.1 -.1)">
<defs>
<path id="az" d="m9.8125 72.906h14.703l18.594-49.609 18.703 49.609h14.703v-72.906h-9.625v64.016l-18.797-50h-9.9062l-18.797 50v-64.016h-9.5781z"/>
<path id="aw" d="m32.172-5.0781q-3.7969-9.7656-7.4219-12.734-3.6094-2.9844-9.6562-2.9844h-7.1875v7.5156h5.2812q3.7031 0 5.75 1.7656 2.0625 1.75 4.5469 8.2969l1.6094 4.0938-22.109 53.812h9.5156l17.094-42.766 17.094 42.766h9.5156z"/>
</defs>
<use xlink:href="#az"/>
<use x="86.279297" xlink:href="#q"/>
<use x="147.802734" xlink:href="#ak"/>
<use x="237.890625" xlink:href="#w"/>
<use x="307.03125" xlink:href="#aw"/>
<use x="366.210938" xlink:href="#o"/>
<use x="431.591797" xlink:href="#t"/>
<use x="492.871094" xlink:href="#u"/>
<use x="556.347656" xlink:href="#e"/>
<use x="617.529297" xlink:href="#w"/>
<use x="686.669922" xlink:href="#o"/>
<use x="752.050781" xlink:href="#e"/>
<use x="813.232422" xlink:href="#p"/>
</g>
</g>
<g clip-path="url(#a)">
<g transform="translate(376.4 308.21) scale(.1 -.1)">
<use xlink:href="#t"/>
<use x="61.279297" xlink:href="#s"/>
<use x="116.259766" xlink:href="#r"/>
<use x="174.511719" xlink:href="#u"/>
<use x="237.988281" xlink:href="#e"/>
<use x="299.169922" xlink:href="#o"/>
<use x="364.550781" xlink:href="#e"/>
<use x="425.732422" xlink:href="#p"/>
<use x="501.171875" xlink:href="#v"/>
<use x="566.162109" xlink:href="#aj"/>
<use x="625.244141" xlink:href="#q"/>
<use x="686.767578" xlink:href="#s"/>
<use x="741.748047" xlink:href="#z"/>
<use x="802.148438" xlink:href="#e"/>
<use x="863.330078" xlink:href="#p"/>
</g>
</g>
<g clip-path="url(#a)">
<g transform="translate(471.91 308.21) scale(.1 -.1)">
<use xlink:href="#z"/>
<use x="60.400391" xlink:href="#e"/>
<use x="121.582031" xlink:href="#o"/>
<use x="186.962891" xlink:href="#al"/>
<use x="239.501953" xlink:href="#u"/>
<use x="302.978516" xlink:href="#q"/>
<use x="364.501953" xlink:href="#s"/>
<use x="419.482422" xlink:href="#s"/>
<use x="474.462891" xlink:href="#q"/>
</g>
</g>
<g clip-path="url(#a)">
<g transform="translate(578.77 308.21) scale(.1 -.1)">
<defs>
<path id="d" d="m10.688 12.406h10.312v-12.406h-10.312z"/>
</defs>
<use xlink:href="#d"/>
</g>
</g>
<g clip-path="url(#a)">
<g transform="translate(112.33 17.305) scale(.1 -.1)">
<defs>
<path id="b" d="m12.406 8.2969h16.109v55.625l-17.531-3.5156v8.9844l17.438 3.5156h9.8594v-64.609h16.109v-8.2969h-41.984z"/>
</defs>
<use xlink:href="#b"/>
<use x="63.623047" xlink:href="#d"/>
<use x="95.410156" xlink:href="#b"/>
</g>
</g>
<g clip-path="url(#a)">
<g transform="translate(161.01 76.005) scale(.1 -.1)">
<defs>
<path id="ai" d="m19.188 8.2969h34.422v-8.2969h-46.281v8.2969q5.6094 5.8125 15.297 15.594 9.7031 9.7969 12.188 12.641 4.7344 5.3125 6.6094 9 1.8906 3.6875 1.8906 7.25 0 5.8125-4.0781 9.4688-4.0781 3.6719-10.625 3.6719-4.6406 0-9.7969-1.6094-5.1406-1.6094-11-4.8906v9.9688q5.9531 2.3906 11.125 3.6094 5.1875 1.2188 9.4844 1.2188 11.328 0 18.062-5.6719 6.7344-5.6562 6.7344-15.125 0-4.5-1.6875-8.5312-1.6719-4.0156-6.125-9.4844-1.2188-1.4219-7.7656-8.1875-6.5312-6.7656-18.453-18.922z"/>
</defs>
<use xlink:href="#b"/>
<use x="63.623047" xlink:href="#d"/>
<use x="95.410156" xlink:href="#ai"/>
</g>
</g>
<g clip-path="url(#a)">
<g transform="translate(63.652 250.96) scale(.1 -.1)">
<defs>
<path id="ah" d="m40.578 39.312q7.0781-1.5156 11.047-6.3125 3.9844-4.7812 3.9844-11.812 0-10.781-7.4219-16.703-7.4219-5.9062-21.094-5.9062-4.5781 0-9.4375 0.90625t-10.031 2.7188v9.5156q4.0938-2.3906 8.9688-3.6094 4.8906-1.2188 10.219-1.2188 9.2656 0 14.125 3.6562t4.8594 10.641q0 6.4531-4.5156 10.078-4.5156 3.6406-12.562 3.6406h-8.5v8.1094h8.8906q7.2656 0 11.125 2.9062t3.8594 8.375q0 5.6094-3.9844 8.6094-3.9688 3.0156-11.391 3.0156-4.0625 0-8.7031-0.89062-4.6406-0.875-10.203-2.7188v8.7812q5.625 1.5625 10.531 2.3438t9.25 0.78125q11.234 0 17.766-5.1094 6.5469-5.0938 6.5469-13.781 0-6.0625-3.4688-10.234t-9.8594-5.7812z"/>
</defs>
<use xlink:href="#b"/>
<use x="63.623047" xlink:href="#d"/>
<use x="95.410156" xlink:href="#ah"/>
</g>
</g>
<g clip-path="url(#a)">
<g transform="translate(19.685 192.91) scale(.1 -.1)">
<defs>
<path id="ag" d="m10.797 72.906h38.719v-8.3125h-29.688v-17.859q2.1406 0.73438 4.2812 1.0938 2.1562 0.35938 4.3125 0.35938 12.203 0 19.328-6.6875 7.1406-6.6875 7.1406-18.109 0-11.766-7.3281-18.297-7.3281-6.5156-20.656-6.5156-4.5938 0-9.3594 0.78125-4.75 0.78125-9.8281 2.3438v9.9219q4.3906-2.3906 9.0781-3.5625t9.9062-1.1719q8.4531 0 13.375 4.4375 4.9375 4.4375 4.9375 12.062 0 7.6094-4.9375 12.047-4.9219 4.4531-13.375 4.4531-3.9531 0-7.8906-0.875-3.9219-0.875-8.0156-2.7344z"/>
</defs>
<use xlink:href="#b"/>
<use x="63.623047" xlink:href="#d"/>
<use x="95.410156" xlink:href="#ag"/>
</g>
</g>
<g clip-path="url(#a)">
<g transform="translate(38.528 250.96) scale(.1 -.1)">
<defs>
<path id="af" d="m33.016 40.375q-6.6406 0-10.531-4.5469-3.875-4.5312-3.875-12.438 0-7.8594 3.875-12.438 3.8906-4.5625 10.531-4.5625t10.516 4.5625q3.875 4.5781 3.875 12.438 0 7.9062-3.875 12.438-3.875 4.5469-10.516 4.5469zm19.578 30.922v-8.9844q-3.7188 1.75-7.5 2.6719-3.7812 0.9375-7.5 0.9375-9.7656 0-14.922-6.5938-5.1406-6.5938-5.875-19.922 2.875 4.25 7.2188 6.5156 4.3594 2.2656 9.5781 2.2656 10.984 0 17.359-6.6719 6.375-6.6562 6.375-18.125 0-11.234-6.6406-18.031-6.6406-6.7812-17.672-6.7812-12.656 0-19.344 9.6875-6.6875 9.7031-6.6875 28.109 0 17.281 8.2031 27.562t22.016 10.281q3.7188 0 7.5-0.73438t7.8906-2.1875z"/>
</defs>
<use xlink:href="#b"/>
<use x="63.623047" xlink:href="#d"/>
<use x="95.410156" xlink:href="#af"/>
</g>
</g>
<g clip-path="url(#a)">
<g transform="translate(164.15 134.56) scale(.1 -.1)">
<defs>
<path id="ae" d="m8.2031 72.906h46.875v-4.2031l-26.469-68.703h-10.297l24.906 64.594h-35.016z"/>
</defs>
<use xlink:href="#b"/>
<use x="63.623047" xlink:href="#d"/>
<use x="95.410156" xlink:href="#ae"/>
</g>
</g>
<g clip-path="url(#a)">
<g transform="translate(421.67 192.91) scale(.1 -.1)">
<defs>
<path id="ad" d="m31.781 34.625q-7.0312 0-11.062-3.7656-4.0156-3.7656-4.0156-10.344 0-6.5938 4.0156-10.359 4.0312-3.7656 11.062-3.7656t11.078 3.7812q4.0625 3.7969 4.0625 10.344 0 6.5781-4.0312 10.344-4.0156 3.7656-11.109 3.7656zm-9.8594 4.1875q-6.3438 1.5625-9.8906 5.9062-3.5312 4.3594-3.5312 10.609 0 8.7344 6.2188 13.812 6.2344 5.0781 17.062 5.0781 10.891 0 17.094-5.0781t6.2031-13.812q0-6.25-3.5469-10.609-3.5312-4.3438-9.8281-5.9062 7.125-1.6562 11.094-6.5 3.9844-4.8281 3.9844-11.797 0-10.609-6.4688-16.281-6.4688-5.6562-18.531-5.6562-12.047 0-18.531 5.6562-6.4688 5.6719-6.4688 16.281 0 6.9688 4 11.797 4.0156 4.8438 11.141 6.5zm-3.6094 15.578q0-5.6562 3.5312-8.8281 3.5469-3.1719 9.9375-3.1719 6.3594 0 9.9375 3.1719 3.5938 3.1719 3.5938 8.8281 0 5.6719-3.5938 8.8438-3.5781 3.1719-9.9375 3.1719-6.3906 0-9.9375-3.1719-3.5312-3.1719-3.5312-8.8438z"/>
</defs>
<use xlink:href="#b"/>
<use x="63.623047" xlink:href="#d"/>
<use x="95.410156" xlink:href="#ad"/>
</g>
</g>
<g clip-path="url(#a)">
<g transform="translate(283.49 250.96) scale(.1 -.1)">
<defs>
<path id="ac" d="m10.984 1.5156v8.9844q3.7188-1.7656 7.5156-2.6875 3.8125-0.92188 7.4844-0.92188 9.7656 0 14.906 6.5625 5.1562 6.5625 5.8906 19.953-2.8281-4.2031-7.1875-6.4531-4.3438-2.25-9.6094-2.25-10.938 0-17.312 6.6094-6.375 6.625-6.375 18.109 0 11.219 6.6406 18 6.6406 6.7969 17.672 6.7969 12.656 0 19.312-9.7031 6.6719-9.6875 6.6719-28.141 0-17.234-8.1875-27.516-8.1719-10.281-21.984-10.281-3.7188 0-7.5312 0.73438-3.7969 0.73438-7.9062 2.2031zm19.625 30.906q6.6406 0 10.516 4.5312 3.8906 4.5469 3.8906 12.469 0 7.8594-3.8906 12.422-3.875 4.5625-10.516 4.5625t-10.516-4.5625-3.875-12.422q0-7.9219 3.875-12.469 3.875-4.5312 10.516-4.5312z"/>
</defs>
<use xlink:href="#b"/>
<use x="63.623047" xlink:href="#d"/>
<use x="95.410156" xlink:href="#ac"/>
</g>
</g>
<g clip-path="url(#a)">
<g transform="translate(343.12 250.96) scale(.1 -.1)">
<defs>
<path id="as" d="m31.781 66.406q-7.6094 0-11.453-7.5-3.8281-7.4844-3.8281-22.531 0-14.984 3.8281-22.484 3.8438-7.5 11.453-7.5 7.6719 0 11.5 7.5 3.8438 7.5 3.8438 22.484 0 15.047-3.8438 22.531-3.8281 7.5-11.5 7.5zm0 7.8125q12.266 0 18.734-9.7031 6.4688-9.6875 6.4688-28.141 0-18.406-6.4688-28.109-6.4688-9.6875-18.734-9.6875-12.25 0-18.719 9.6875-6.4688 9.7031-6.4688 28.109 0 18.453 6.4688 28.141 6.4688 9.7031 18.719 9.7031z"/>
</defs>
<use xlink:href="#b"/>
<use x="63.623047" xlink:href="#d"/>
<use x="95.410156" xlink:href="#b"/>
<use x="159.033203" xlink:href="#as"/>
</g>
</g>
<g clip-path="url(#a)">
<g transform="translate(412.21 250.96) scale(.1 -.1)">
<use xlink:href="#b"/>
<use x="63.623047" xlink:href="#d"/>
<use x="95.410156" xlink:href="#b"/>
<use x="159.033203" xlink:href="#b"/>
</g>
</g>
<g clip-path="url(#a)">
<g transform="translate(487.58 250.96) scale(.1 -.1)">
<use xlink:href="#b"/>
<use x="63.623047" xlink:href="#d"/>
<use x="95.410156" xlink:href="#b"/>
<use x="159.033203" xlink:href="#ai"/>
</g>
</g>
<g clip-path="url(#a)">
<g transform="translate(91.875 250.96) scale(.1 -.1)">
<use xlink:href="#b"/>
<use x="63.623047" xlink:href="#d"/>
<use x="95.410156" xlink:href="#b"/>
<use x="159.033203" xlink:href="#ah"/>
</g>
</g>
<g clip-path="url(#a)">
<g transform="translate(129.56 250.96) scale(.1 -.1)">
<defs>
<path id="ar" d="m37.797 64.312-24.906-38.922h24.906zm-2.5938 8.5938h12.406v-47.516h10.406v-8.2031h-10.406v-17.188h-9.8125v17.188h-32.906v9.5156z"/>
</defs>
<use xlink:href="#b"/>
<use x="63.623047" xlink:href="#d"/>
<use x="95.410156" xlink:href="#b"/>
<use x="159.033203" xlink:href="#ar"/>
</g>
</g>
<g clip-path="url(#a)">
<g transform="translate(198.65 192.91) scale(.1 -.1)">
<use xlink:href="#b"/>
<use x="63.623047" xlink:href="#d"/>
<use x="95.410156" xlink:href="#b"/>
<use x="159.033203" xlink:href="#ag"/>
</g>
</g>
<g clip-path="url(#a)">
<g transform="translate(223.78 250.96) scale(.1 -.1)">
<use xlink:href="#b"/>
<use x="63.623047" xlink:href="#d"/>
<use x="95.410156" xlink:href="#b"/>
<use x="159.033203" xlink:href="#af"/>
</g>
</g>
<g clip-path="url(#a)">
<g transform="translate(173.53 250.96) scale(.1 -.1)">
<use xlink:href="#b"/>
<use x="63.623047" xlink:href="#d"/>
<use x="95.410156" xlink:href="#b"/>
<use x="159.033203" xlink:href="#ae"/>
</g>
</g>
<g clip-path="url(#a)">
<g transform="translate(16.504 250.96) scale(.1 -.1)">
<use xlink:href="#b"/>
<use x="63.623047" xlink:href="#d"/>
<use x="95.410156" xlink:href="#b"/>
<use x="159.033203" xlink:href="#ad"/>
</g>
</g>
<g clip-path="url(#a)">
<g transform="translate(569.23 250.96) scale(.1 -.1)">
<use xlink:href="#b"/>
<use x="63.623047" xlink:href="#d"/>
<use x="95.410156" xlink:href="#b"/>
<use x="159.033203" xlink:href="#ac"/>
</g>
</g>
<defs>
<clipPath id="a">
<rect width="608" height="320"/>
</clipPath>
</defs>
</svg>
