<?xml version="1.0" encoding="UTF-8"?>
<!DOCTYPE svg  PUBLIC '-//W3C//DTD SVG 1.1//EN'  'http://www.w3.org/Graphics/SVG/1.1/DTD/svg11.dtd'>
<svg width="810.67pt" height="426.67pt" version="1.1" viewBox="0 0 810.67 426.67" xmlns="http://www.w3.org/2000/svg" xmlns:xlink="http://www.w3.org/1999/xlink">
<metadata>
<rdf:RDF xmlns:cc="http://creativecommons.org/ns#" xmlns:dc="http://purl.org/dc/elements/1.1/" xmlns:rdf="http://www.w3.org/1999/02/22-rdf-syntax-ns#">
<cc:Work>
<dc:type rdf:resource="http://purl.org/dc/dcmitype/StillImage"/>
<dc:date>2021-01-21T01:15:59.974321</dc:date>
<dc:format>image/svg+xml</dc:format>
<dc:creator>
<cc:Agent>
<dc:title>Matplotlib v3.3.3, https://matplotlib.org/</dc:title>
</cc:Agent>
</dc:creator>
</cc:Work>
</rdf:RDF>
</metadata>
<defs>
<style type="text/css">*{stroke-linecap:butt;stroke-linejoin:round;}</style>
</defs>
<path d="m0 426.67h810.67v-426.67h-810.67z" fill="#fff"/>
<g fill="none" stroke="#000">
<path d="m379.04 19.394-241.63 78.267" clip-path="url(#a)"/>
<path d="m379.04 19.394 26.295 311.54" clip-path="url(#a)"/>
<path d="m379.04 19.394 248 156.34" clip-path="url(#a)"/>
<path d="m379.04 19.394-32.662 311.54" clip-path="url(#a)"/>
<path d="m137.4 97.661-84.178 155.88" clip-path="url(#a)"/>
<path d="m137.4 97.661-41.598 233.27" clip-path="url(#a)"/>
<path d="m137.4 97.661-12.119 233.27" clip-path="url(#a)"/>
<path d="m137.4 97.661 22.273 233.27" clip-path="url(#a)"/>
<path d="m137.4 97.661 115.62 78.07" clip-path="url(#a)"/>
<path d="m405.33 330.94v76.337" clip-path="url(#a)"/>
<path d="m627.04 175.73-157.83 155.2" clip-path="url(#a)"/>
<path d="m627.04 175.73-52.202 77.805" clip-path="url(#a)"/>
<path d="m627.04 175.73 63.257 155.2" clip-path="url(#a)"/>
<path d="m627.04 175.73 146.78 155.2" clip-path="url(#a)"/>
<path d="m469.2 330.94v76.337" clip-path="url(#a)"/>
<path d="m574.84 253.54-36.848 77.399" clip-path="url(#a)"/>
<path d="m574.84 253.54 36.848 77.399" clip-path="url(#a)"/>
<path d="m690.29 330.94v76.337" clip-path="url(#a)"/>
<path d="m537.99 330.94v76.337" clip-path="url(#a)"/>
<path d="m611.68 330.94v76.337" clip-path="url(#a)"/>
<path d="m53.226 253.54-16.377 77.399" clip-path="url(#a)"/>
<path d="m53.226 253.54-1.6377 77.399" clip-path="url(#a)"/>
<path d="m53.226 253.54 18.015 77.399" clip-path="url(#a)"/>
<path d="m95.806 330.94v76.337" clip-path="url(#a)"/>
<path d="m125.28 330.94v76.337" clip-path="url(#a)"/>
<path d="m159.68 330.94v76.337" clip-path="url(#a)"/>
<path d="m253.03 175.73-54.044 155.2" clip-path="url(#a)"/>
<path d="m253.03 175.73 14.739 77.805" clip-path="url(#a)"/>
<path d="m253.03 175.73 39.305 155.2" clip-path="url(#a)"/>
<path d="m198.98 330.94v76.337" clip-path="url(#a)"/>
<path d="m267.77 253.54 24.566 77.399" clip-path="url(#a)" stroke-dasharray="3.7,1.6"/>
<path d="m267.77 253.54-24.566 77.399" clip-path="url(#a)"/>
<path d="m292.33 330.94v76.337" clip-path="url(#a)"/>
<path d="m243.2 330.94v76.337" clip-path="url(#a)"/>
<path d="m36.848 330.94v76.337" clip-path="url(#a)"/>
<path d="m51.588 330.94v76.337" clip-path="url(#a)"/>
<path d="m71.24 330.94v76.337" clip-path="url(#a)"/>
<path d="m346.38 330.94v76.337" clip-path="url(#a)"/>
<path d="m773.82 330.94v76.337" clip-path="url(#a)"/>
</g>
<path d="m257.29 65.421 5.7235-1.8539q2.2832-0.73955 1.5437-3.0228l-2.3858-7.3657q-0.73955-2.2832-3.0228-1.5437l-5.7235 1.8539q-2.2832 0.73955-1.5437 3.0228l2.3858 7.3657q0.73955 2.2832 3.0228 1.5437z" clip-path="url(#a)" fill="#fff" stroke="#fff"/>
<g clip-path="url(#a)">
<g transform="translate(256.04 61.555) rotate(-17.948) scale(.08 -.08)">
<defs>
<path id="ad" d="m9.8125 72.906h9.8594v-29.891h35.844v29.891h9.8594v-72.906h-9.8594v34.719h-35.844v-34.719h-9.8594z"/>
</defs>
<use xlink:href="#ad"/>
</g>
</g>
<path d="m385.75 173.47 0.3749 4.4417q0.20185 2.3915 2.5933 2.1896l7.7151-0.65119q2.3915-0.20185 2.1896-2.5933l-0.3749-4.4417q-0.20185-2.3915-2.5933-2.1896l-7.7151 0.65119q-2.3915 0.20185-2.1896 2.5933z" clip-path="url(#a)" fill="#fff" stroke="#fff"/>
<g clip-path="url(#a)">
<g transform="translate(389.8 173.13) rotate(85.175) scale(.08 -.08)">
<defs>
<path id="an" d="m9.8125 72.906h9.8594v-64.609h35.5v-8.2969h-45.359z"/>
</defs>
<use xlink:href="#an"/>
</g>
</g>
<path d="m497.15 101.26 5.0894 3.2083q2.0303 1.2799 3.3101-0.7504l4.1289-6.5497q1.2799-2.0303-0.7504-3.3101l-5.0894-3.2083q-2.0303-1.2799-3.3101 0.7504l-4.1289 6.5497q-1.2799 2.0303 0.7504 3.3101z" clip-path="url(#a)" fill="#fff" stroke="#fff"/>
<g clip-path="url(#a)">
<g transform="translate(499.32 97.826) rotate(32.227) scale(.08 -.08)">
<use xlink:href="#ad"/>
</g>
</g>
<path d="m368.64 178.73 0.61049-5.8231q0.25024-2.3869-2.1367-2.6372l-7.7003-0.8073q-2.3869-0.25024-2.6372 2.1367l-0.61049 5.8231q-0.25024 2.3869 2.1367 2.6372l7.7003 0.8073q2.3869 0.25024 2.6372-2.1367z" clip-path="url(#a)" fill="#fff" stroke="#fff"/>
<g clip-path="url(#a)">
<g transform="translate(364.6 178.31) rotate(-84.015) scale(.08 -.08)">
<defs>
<path id="ab" d="m8.6875 72.906h9.9219v-44.297q0-11.719 4.2344-16.875 4.25-5.1406 13.781-5.1406 9.4688 0 13.719 5.1406 4.25 5.1562 4.25 16.875v44.297h9.9062v-45.516q0-14.25-7.0625-21.531-7.0469-7.2812-20.812-7.2812-13.828 0-20.891 7.2812-7.0469 7.2812-7.0469 21.531z"/>
</defs>
<use xlink:href="#ab"/>
</g>
</g>
<path d="m99.672 180.73 2.3218-4.2994q1.1404-2.1117-0.97132-3.2522l-6.8126-3.679q-2.1117-1.1404-3.2522 0.97132l-2.3218 4.2994q-1.1404 2.1117 0.97132 3.2522l6.8126 3.679q2.1117 1.1404 3.2522-0.97132z" clip-path="url(#a)" fill="#fff" stroke="#fff"/>
<g clip-path="url(#a)">
<g transform="translate(96.096 178.8) rotate(-61.629) scale(.08 -.08)">
<defs>
<path id="e" d="m-0.29688 72.906h61.672v-8.3125h-25.875v-64.594h-9.9062v64.594h-25.891z"/>
</defs>
<use xlink:href="#e"/>
</g>
</g>
<path d="m122.3 218.09 0.96071-5.3875q0.42133-2.3627-1.9414-2.7841l-7.6223-1.3592q-2.3627-0.42132-2.7841 1.9414l-0.96071 5.3875q-0.42133 2.3627 1.9414 2.7841l7.6223 1.3592q2.3627 0.42132 2.7841-1.9414z" clip-path="url(#a)" fill="#fff" stroke="#fff"/>
<g clip-path="url(#a)">
<g transform="translate(118.3 217.38) rotate(-79.889) scale(.08 -.08)">
<defs>
<path id="p" d="m34.188 63.188-13.391-36.281h26.812zm-5.5781 9.7188h11.188l27.781-72.906h-10.25l-6.6406 18.703h-32.859l-6.6406-18.703h-10.406z"/>
</defs>
<use xlink:href="#p"/>
</g>
</g>
<path d="m137.49 216.92 0.23872-4.5951q0.12452-2.3968-2.2723-2.5213l-7.7321-0.4017q-2.3968-0.12452-2.5213 2.2723l-0.23872 4.5951q-0.12452 2.3968 2.2723 2.5213l7.7321 0.4017q2.3968 0.12452 2.5213-2.2723z" clip-path="url(#a)" fill="#fff" stroke="#fff"/>
<g clip-path="url(#a)">
<g transform="translate(133.43 216.71) rotate(-87.026) scale(.08 -.08)">
<defs>
<path id="ao" d="m9.8125 72.906h41.891v-8.3125h-32.031v-21.484h28.906v-8.2969h-28.906v-34.812h-9.8594z"/>
</defs>
<use xlink:href="#ao"/>
</g>
</g>
<path d="m142.07 212.49 0.45848 4.8019q0.22811 2.3891 2.6172 2.161l7.7074-0.7359q2.3891-0.22811 2.161-2.6172l-0.45848-4.8019q-0.22811-2.3891-2.6172-2.161l-7.7074 0.7359q-2.3891 0.22811-2.161 2.6172z" clip-path="url(#a)" fill="#fff" stroke="#fff"/>
<g clip-path="url(#a)">
<g transform="translate(146.11 212.11) rotate(84.546) scale(.08 -.08)">
<defs>
<path id="ac" d="m19.672 64.797v-27.391h12.406q6.8906 0 10.641 3.5625 3.7656 3.5625 3.7656 10.156 0 6.5469-3.7656 10.109-3.75 3.5625-10.641 3.5625zm-9.8594 8.1094h22.266q12.266 0 18.531-5.5469 6.2812-5.5469 6.2812-16.234 0-10.797-6.2812-16.312-6.2656-5.5156-18.531-5.5156h-12.406v-29.297h-9.8594z"/>
</defs>
<use xlink:href="#ac"/>
</g>
</g>
<path d="m189.44 140.36 4.5354 3.0624q1.989 1.343 3.3321-0.64601l4.3327-6.4167q1.343-1.989-0.64601-3.3321l-4.5354-3.0624q-1.989-1.343-3.3321 0.64601l-4.3327 6.4167q-1.343 1.989 0.64601 3.3321z" clip-path="url(#a)" fill="#fff" stroke="#fff"/>
<g clip-path="url(#a)">
<g transform="translate(191.71 136.99) rotate(34.028) scale(.08 -.08)">
<use xlink:href="#p"/>
</g>
</g>
<path d="m399.06 352.2v33.808q0 2.4 2.4 2.4h7.7425q2.4 0 2.4-2.4v-33.808q0-2.4-2.4-2.4h-7.7425q-2.4 0-2.4 2.4z" clip-path="url(#a)" fill="#fff" stroke="#fff"/>
<g clip-path="url(#a)">
<g transform="translate(403.13 352.2) rotate(90) scale(.08 -.08)">
<defs>
<path id="l" d="m56.203 29.594v-4.3906h-41.312q0.59375-9.2812 5.5938-14.141t13.938-4.8594q5.1719 0 10.031 1.2656t9.6562 3.8125v-8.5q-4.8438-2.0469-9.9219-3.125t-10.297-1.0781q-13.094 0-20.734 7.6094-7.6406 7.625-7.6406 20.625 0 13.422 7.25 21.297 7.25 7.8906 19.562 7.8906 11.031 0 17.453-7.1094 6.4219-7.0938 6.4219-19.297zm-8.9844 2.6406q-0.09375 7.3594-4.125 11.75-4.0312 4.4062-10.672 4.4062-7.5156 0-12.031-4.25t-5.2031-11.969z"/>
<path id="g" d="m41.109 46.297q-1.5156 0.875-3.2969 1.2812-1.7812 0.42188-3.9219 0.42188-7.625 0-11.703-4.9531t-4.0781-14.234v-28.812h-9.0312v54.688h9.0312v-8.5q2.8438 4.9844 7.375 7.3906 4.5469 2.4219 11.047 2.4219 0.92188 0 2.0469-0.125 1.125-0.10938 2.4844-0.35938z"/>
<path id="i" d="m52 44.188q3.375 6.0625 8.0625 8.9375t11.031 2.875q8.5469 0 13.188-5.9844 4.6406-5.9688 4.6406-17v-33.016h-9.0312v32.719q0 7.8594-2.7969 11.656-2.7812 3.8125-8.4844 3.8125-6.9844 0-11.047-4.6406-4.0469-4.625-4.0469-12.641v-30.906h-9.0312v32.719q0 7.9062-2.7812 11.688t-8.5938 3.7812q-6.8906 0-10.953-4.6562-4.0469-4.6562-4.0469-12.625v-30.906h-9.0312v54.688h9.0312v-8.5q3.0781 5.0312 7.375 7.4219t10.203 2.3906q5.9688 0 10.141-3.0312 4.1719-3.0156 6.1719-8.7812z"/>
<path id="k" d="m9.4219 54.688h8.9844v-54.688h-8.9844zm0 21.297h8.9844v-11.391h-8.9844z"/>
<path id="h" d="m54.891 33.016v-33.016h-8.9844v32.719q0 7.7656-3.0312 11.609-3.0312 3.8594-9.0781 3.8594-7.2812 0-11.484-4.6406-4.2031-4.625-4.2031-12.641v-30.906h-9.0312v54.688h9.0312v-8.5q3.2344 4.9375 7.5938 7.375 4.375 2.4375 10.094 2.4375 9.4219 0 14.25-5.8281 4.8438-5.8281 4.8438-17.156z"/>
<path id="f" d="m34.281 27.484q-10.891 0-15.094-2.4844t-4.2031-8.5q0-4.7812 3.1562-7.5938 3.1562-2.7969 8.5625-2.7969 7.4844 0 12 5.2969t4.5156 14.078v2zm17.922 3.7188v-31.203h-8.9844v8.2969q-3.0781-4.9688-7.6719-7.3438t-11.234-2.375q-8.3906 0-13.359 4.7188-4.9531 4.7188-4.9531 12.625 0 9.2188 6.1719 13.906 6.1875 4.6875 18.438 4.6875h12.609v0.89062q0 6.2031-4.0781 9.5938t-11.453 3.3906q-4.6875 0-9.1406-1.125-4.4375-1.125-8.5312-3.375v8.3125q4.9219 1.9062 9.5625 2.8438 4.6406 0.95312 9.0312 0.95312 11.875 0 17.734-6.1562 5.8594-6.1406 5.8594-18.641z"/>
<path id="j" d="m9.4219 75.984h8.9844v-75.984h-8.9844z"/>
</defs>
<use xlink:href="#e"/>
<use x="44.083984" xlink:href="#l"/>
<use x="105.607422" xlink:href="#g"/>
<use x="144.970703" xlink:href="#i"/>
<use x="242.382812" xlink:href="#k"/>
<use x="270.166016" xlink:href="#h"/>
<use x="333.544922" xlink:href="#f"/>
<use x="394.824219" xlink:href="#j"/>
</g>
</g>
<path d="m550.57 259.72 3.902-3.837q1.7113-1.6827 0.028516-3.394l-5.4286-5.5206q-1.6827-1.7113-3.394-0.028515l-3.902 3.837q-1.7113 1.6827-0.028515 3.394l5.4286 5.5206q1.6827 1.7113 3.394 0.028516z" clip-path="url(#a)" fill="#fff" stroke="#fff"/>
<g clip-path="url(#a)">
<g transform="translate(547.72 256.83) rotate(-44.519) scale(.08 -.08)">
<use xlink:href="#p"/>
</g>
</g>
<path d="m604.62 220.4 3.049-4.5444q1.3372-1.993-0.65583-3.3301l-6.4295-4.3137q-1.993-1.3372-3.3301 0.65583l-3.049 4.5444q-1.3372 1.993 0.65583 3.3301l6.4295 4.3137q1.993 1.3372 3.3301-0.65583z" clip-path="url(#a)" fill="#fff" stroke="#fff"/>
<g clip-path="url(#a)">
<g transform="translate(601.25 218.14) rotate(-56.141) scale(.08 -.08)">
<use xlink:href="#p"/>
</g>
</g>
<path d="m651.95 253.47 1.8206 4.467q0.90582 2.2225 3.1283 1.3167l7.1699-2.9222q2.2225-0.90582 1.3167-3.1283l-1.8206-4.467q-0.90582-2.2225-3.1283-1.3167l-7.1699 2.9222q-2.2225 0.90582-1.3167 3.1283z" clip-path="url(#a)" fill="#fff" stroke="#fff"/>
<g clip-path="url(#a)">
<g transform="translate(655.71 251.93) rotate(67.826) scale(.08 -.08)">
<use xlink:href="#ac"/>
</g>
</g>
<path d="m693.86 255.52 4.023 4.254q1.6491 1.7437 3.3928 0.094649l5.6253-5.32q1.7437-1.6491 0.094649-3.3928l-4.023-4.254q-1.6491-1.7437-3.3928-0.094649l-5.6253 5.32q-1.7437 1.6491-0.094649 3.3928z" clip-path="url(#a)" fill="#fff" stroke="#fff"/>
<g clip-path="url(#a)">
<g transform="translate(696.81 252.72) rotate(46.598) scale(.08 -.08)">
<use xlink:href="#ab"/>
</g>
</g>
<path d="m462.93 352.2v33.808q0 2.4 2.4 2.4h7.7425q2.4 0 2.4-2.4v-33.808q0-2.4-2.4-2.4h-7.7425q-2.4 0-2.4 2.4z" clip-path="url(#a)" fill="#fff" stroke="#fff"/>
<g clip-path="url(#a)">
<g transform="translate(467 352.2) rotate(90) scale(.08 -.08)">
<use xlink:href="#e"/>
<use x="44.083984" xlink:href="#l"/>
<use x="105.607422" xlink:href="#g"/>
<use x="144.970703" xlink:href="#i"/>
<use x="242.382812" xlink:href="#k"/>
<use x="270.166016" xlink:href="#h"/>
<use x="333.544922" xlink:href="#f"/>
<use x="394.824219" xlink:href="#j"/>
</g>
</g>
<path d="m560.88 297.44 2.3895-5.019q1.0317-2.167-1.1353-3.1986l-6.9907-3.3282q-2.167-1.0317-3.1986 1.1353l-2.3895 5.019q-1.0317 2.167 1.1353 3.1986l6.9907 3.3282q2.167 1.0317 3.1986-1.1353z" clip-path="url(#a)" fill="#fff" stroke="#fff"/>
<g clip-path="url(#a)">
<g transform="translate(557.21 295.69) rotate(-64.542) scale(.08 -.08)">
<defs>
<path id="t" d="m44.391 34.188q3.1719-1.0781 6.1719-4.5938t6.0312-9.6719l10.016-19.922h-10.609l-9.3125 18.703q-3.625 7.3281-7.0156 9.7188t-9.25 2.3906h-10.75v-30.812h-9.8594v72.906h22.266q12.5 0 18.656-5.2344 6.1562-5.2188 6.1562-15.766 0-6.8906-3.2031-11.438-3.2031-4.5312-9.2969-6.2812zm-24.719 30.609v-25.875h12.406q7.125 0 10.766 3.2969t3.6406 9.6875-3.6406 9.6406-10.766 3.25z"/>
</defs>
<use xlink:href="#t"/>
</g>
</g>
<path d="m586.4 292.41 2.4013 5.0438q1.0317 2.167 3.1986 1.1353l6.9907-3.3282q2.167-1.0317 1.1353-3.1986l-2.4013-5.0438q-1.0317-2.167-3.1986-1.1353l-6.9907 3.3282q-2.167 1.0317-1.1353 3.1986z" clip-path="url(#a)" fill="#fff" stroke="#fff"/>
<g clip-path="url(#a)">
<g transform="translate(590.07 290.66) rotate(64.542) scale(.08 -.08)">
<defs>
<path id="u" d="m64.406 67.281v-10.391q-4.9844 4.6406-10.625 6.9219-5.6406 2.2969-11.984 2.2969-12.5 0-19.141-7.6406t-6.6406-22.094q0-14.406 6.6406-22.047t19.141-7.6406q6.3438 0 11.984 2.2969t10.625 6.9375v-10.312q-5.1719-3.5156-10.969-5.2812-5.7812-1.75-12.219-1.75-16.562 0-26.094 10.125-9.5156 10.141-9.5156 27.672 0 17.578 9.5156 27.703 9.5312 10.141 26.094 10.141 6.5312 0 12.312-1.7344 5.7969-1.7344 10.875-5.2031z"/>
</defs>
<use xlink:href="#u"/>
</g>
</g>
<path d="m684.02 352.2v33.808q0 2.4 2.4 2.4h7.7425q2.4 0 2.4-2.4v-33.808q0-2.4-2.4-2.4h-7.7425q-2.4 0-2.4 2.4z" clip-path="url(#a)" fill="#fff" stroke="#fff"/>
<g clip-path="url(#a)">
<g transform="translate(688.09 352.2) rotate(90) scale(.08 -.08)">
<use xlink:href="#e"/>
<use x="44.083984" xlink:href="#l"/>
<use x="105.607422" xlink:href="#g"/>
<use x="144.970703" xlink:href="#i"/>
<use x="242.382812" xlink:href="#k"/>
<use x="270.166016" xlink:href="#h"/>
<use x="333.544922" xlink:href="#f"/>
<use x="394.824219" xlink:href="#j"/>
</g>
</g>
<path d="m531.72 352.2v33.808q0 2.4 2.4 2.4h7.7425q2.4 0 2.4-2.4v-33.808q0-2.4-2.4-2.4h-7.7425q-2.4 0-2.4 2.4z" clip-path="url(#a)" fill="#fff" stroke="#fff"/>
<g clip-path="url(#a)">
<g transform="translate(535.78 352.2) rotate(90) scale(.08 -.08)">
<use xlink:href="#e"/>
<use x="44.083984" xlink:href="#l"/>
<use x="105.607422" xlink:href="#g"/>
<use x="144.970703" xlink:href="#i"/>
<use x="242.382812" xlink:href="#k"/>
<use x="270.166016" xlink:href="#h"/>
<use x="333.544922" xlink:href="#f"/>
<use x="394.824219" xlink:href="#j"/>
</g>
</g>
<path d="m605.41 352.2v33.808q0 2.4 2.4 2.4h7.7425q2.4 0 2.4-2.4v-33.808q0-2.4-2.4-2.4h-7.7425q-2.4 0-2.4 2.4z" clip-path="url(#a)" fill="#fff" stroke="#fff"/>
<g clip-path="url(#a)">
<g transform="translate(609.48 352.2) rotate(90) scale(.08 -.08)">
<use xlink:href="#e"/>
<use x="44.083984" xlink:href="#l"/>
<use x="105.607422" xlink:href="#g"/>
<use x="144.970703" xlink:href="#i"/>
<use x="242.382812" xlink:href="#k"/>
<use x="270.166016" xlink:href="#h"/>
<use x="333.544922" xlink:href="#f"/>
<use x="394.824219" xlink:href="#j"/>
</g>
</g>
<path d="m50.597 296.25 1.1507-5.4383q0.49682-2.348-1.8512-2.8448l-7.5748-1.6028q-2.348-0.49682-2.8448 1.8512l-1.1507 5.4383q-0.49682 2.348 1.8512 2.8448l7.5748 1.6028q2.348 0.49682 2.8448-1.8512z" clip-path="url(#a)" fill="#fff" stroke="#fff"/>
<g clip-path="url(#a)">
<g transform="translate(46.621 295.41) rotate(-78.053) scale(.08 -.08)">
<use xlink:href="#t"/>
</g>
</g>
<path d="m58.623 294.9 0.10694-5.0539q0.050771-2.3995-2.3487-2.4502l-7.7408-0.16379q-2.3995-0.050771-2.4502 2.3487l-0.10694 5.0539q-0.050771 2.3995 2.3487 2.4502l7.7408 0.16379q2.3995 0.050771 2.4502-2.3487z" clip-path="url(#a)" fill="#fff" stroke="#fff"/>
<g clip-path="url(#a)">
<g transform="translate(54.56 294.81) rotate(-88.788) scale(.08 -.08)">
<defs>
<path id="ae" d="m9.8125 72.906h46.094v-8.3125h-36.234v-21.578h34.719v-8.2969h-34.719v-26.422h37.109v-8.2969h-46.969z"/>
</defs>
<use xlink:href="#ae"/>
</g>
</g>
<path d="m55.492 290.94 1.2664 5.4408q0.54406 2.3375 2.8816 1.7935l7.5409-1.7552q2.3375-0.54406 1.7935-2.8816l-1.2664-5.4408q-0.54406-2.3375-2.8816-1.7935l-7.5409 1.7552q-2.3375 0.54406-1.7935 2.8816z" clip-path="url(#a)" fill="#fff" stroke="#fff"/>
<g clip-path="url(#a)">
<g transform="translate(59.45 290.02) rotate(76.898) scale(.08 -.08)">
<use xlink:href="#u"/>
</g>
</g>
<path d="m89.535 352.2v33.808q0 2.4 2.4 2.4h7.7425q2.4 0 2.4-2.4v-33.808q0-2.4-2.4-2.4h-7.7425q-2.4 0-2.4 2.4z" clip-path="url(#a)" fill="#fff" stroke="#fff"/>
<g clip-path="url(#a)">
<g transform="translate(93.599 352.2) rotate(90) scale(.08 -.08)">
<use xlink:href="#e"/>
<use x="44.083984" xlink:href="#l"/>
<use x="105.607422" xlink:href="#g"/>
<use x="144.970703" xlink:href="#i"/>
<use x="242.382812" xlink:href="#k"/>
<use x="270.166016" xlink:href="#h"/>
<use x="333.544922" xlink:href="#f"/>
<use x="394.824219" xlink:href="#j"/>
</g>
</g>
<path d="m119.01 352.2v33.808q0 2.4 2.4 2.4h7.7425q2.4 0 2.4-2.4v-33.808q0-2.4-2.4-2.4h-7.7425q-2.4 0-2.4 2.4z" clip-path="url(#a)" fill="#fff" stroke="#fff"/>
<g clip-path="url(#a)">
<g transform="translate(123.08 352.2) rotate(90) scale(.08 -.08)">
<use xlink:href="#e"/>
<use x="44.083984" xlink:href="#l"/>
<use x="105.607422" xlink:href="#g"/>
<use x="144.970703" xlink:href="#i"/>
<use x="242.382812" xlink:href="#k"/>
<use x="270.166016" xlink:href="#h"/>
<use x="333.544922" xlink:href="#f"/>
<use x="394.824219" xlink:href="#j"/>
</g>
</g>
<path d="m153.41 352.2v33.808q0 2.4 2.4 2.4h7.7425q2.4 0 2.4-2.4v-33.808q0-2.4-2.4-2.4h-7.7425q-2.4 0-2.4 2.4z" clip-path="url(#a)" fill="#fff" stroke="#fff"/>
<g clip-path="url(#a)">
<g transform="translate(157.47 352.2) rotate(90) scale(.08 -.08)">
<use xlink:href="#e"/>
<use x="44.083984" xlink:href="#l"/>
<use x="105.607422" xlink:href="#g"/>
<use x="144.970703" xlink:href="#i"/>
<use x="242.382812" xlink:href="#k"/>
<use x="270.166016" xlink:href="#h"/>
<use x="333.544922" xlink:href="#f"/>
<use x="394.824219" xlink:href="#j"/>
</g>
</g>
<path d="m231.01 258.02 1.828-5.2496q0.78924-2.2665-1.4773-3.0558l-7.3119-2.5461q-2.2665-0.78924-3.0558 1.4773l-1.828 5.2496q-0.78924 2.2665 1.4773 3.0558l7.3119 2.5461q2.2665 0.78924 3.0558-1.4773z" clip-path="url(#a)" fill="#fff" stroke="#fff"/>
<g clip-path="url(#a)">
<g transform="translate(227.17 256.68) rotate(-70.801) scale(.08 -.08)">
<use xlink:href="#t"/>
</g>
</g>
<path d="m253.76 213.32 0.94088 4.9667q0.44671 2.3581 2.8048 1.9114l7.6072-1.4411q2.3581-0.44671 1.9113-2.8048l-0.94088-4.9667q-0.44671-2.3581-2.8048-1.9114l-7.6072 1.4411q-2.3581 0.44671-1.9114 2.8048z" clip-path="url(#a)" fill="#fff" stroke="#fff"/>
<g clip-path="url(#a)">
<g transform="translate(257.76 212.56) rotate(79.273) scale(.08 -.08)">
<use xlink:href="#ae"/>
</g>
</g>
<path d="m265.91 252.17 1.3714 5.4153q0.58919 2.3266 2.9157 1.7374l7.5056-1.9008q2.3266-0.58919 1.7374-2.9157l-1.3714-5.4153q-0.58919-2.3266-2.9157-1.7374l-7.5056 1.9008q-2.3266 0.58919-1.7374 2.9157z" clip-path="url(#a)" fill="#fff" stroke="#fff"/>
<g clip-path="url(#a)">
<g transform="translate(269.85 251.17) rotate(75.789) scale(.08 -.08)">
<use xlink:href="#u"/>
</g>
</g>
<path d="m192.71 352.2v33.808q0 2.4 2.4 2.4h7.7425q2.4 0 2.4-2.4v-33.808q0-2.4-2.4-2.4h-7.7425q-2.4 0-2.4 2.4z" clip-path="url(#a)" fill="#fff" stroke="#fff"/>
<g clip-path="url(#a)">
<g transform="translate(196.77 352.2) rotate(90) scale(.08 -.08)">
<use xlink:href="#e"/>
<use x="44.083984" xlink:href="#l"/>
<use x="105.607422" xlink:href="#g"/>
<use x="144.970703" xlink:href="#i"/>
<use x="242.382812" xlink:href="#k"/>
<use x="270.166016" xlink:href="#h"/>
<use x="333.544922" xlink:href="#f"/>
<use x="394.824219" xlink:href="#j"/>
</g>
</g>
<path d="m273.24 291.53 1.6555 5.2161q0.72604 2.2875 3.0136 1.5615l7.3797-2.3422q2.2875-0.72604 1.5615-3.0136l-1.6555-5.2161q-0.72604-2.2875-3.0136-1.5615l-7.3797 2.3422q-2.2875 0.72604-1.5615 3.0136z" clip-path="url(#a)" fill="#fff" stroke="#fff"/>
<g clip-path="url(#a)">
<g transform="translate(277.12 290.3) rotate(72.391) scale(.08 -.08)">
<use xlink:href="#p"/>
</g>
</g>
<path d="m260.69 296.55 1.5364-4.8408q0.72604-2.2875-1.5615-3.0136l-7.3797-2.3422q-2.2875-0.72604-3.0136 1.5615l-1.5364 4.8408q-0.72604 2.2875 1.5615 3.0136l7.3797 2.3422q2.2875 0.72604 3.0136-1.5615z" clip-path="url(#a)" fill="#fff" stroke="#fff"/>
<g clip-path="url(#a)">
<g transform="translate(256.82 295.32) rotate(-72.391) scale(.08 -.08)">
<defs>
<path id="am" d="m53.516 70.516v-9.625q-5.6094 2.6875-10.594 4-4.9844 1.3281-9.625 1.3281-8.0469 0-12.422-3.125t-4.375-8.8906q0-4.8438 2.9062-7.3125 2.9062-2.4531 11.016-3.9688l5.9531-1.2188q11.031-2.1094 16.281-7.4062t5.25-14.172q0-10.609-7.1094-16.078-7.0938-5.4688-20.812-5.4688-5.1719 0-11.016 1.1719-5.8281 1.1719-12.078 3.4688v10.156q6-3.3594 11.766-5.0781 5.7656-1.7031 11.328-1.7031 8.4375 0 13.031 3.3125 4.5938 3.3281 4.5938 9.4844 0 5.3594-3.2969 8.3906t-10.812 4.5469l-6.0156 1.1719q-11.031 2.1875-15.969 6.875-4.9219 4.6875-4.9219 13.047 0 9.6719 6.8125 15.234t18.766 5.5625q5.1406 0 10.453-0.9375 5.3281-0.92188 10.891-2.7656z"/>
</defs>
<use xlink:href="#am"/>
</g>
</g>
<path d="m286.06 352.2v33.808q0 2.4 2.4 2.4h7.7425q2.4 0 2.4-2.4v-33.808q0-2.4-2.4-2.4h-7.7425q-2.4 0-2.4 2.4z" clip-path="url(#a)" fill="#fff" stroke="#fff"/>
<g clip-path="url(#a)">
<g transform="translate(290.12 352.2) rotate(90) scale(.08 -.08)">
<use xlink:href="#e"/>
<use x="44.083984" xlink:href="#l"/>
<use x="105.607422" xlink:href="#g"/>
<use x="144.970703" xlink:href="#i"/>
<use x="242.382812" xlink:href="#k"/>
<use x="270.166016" xlink:href="#h"/>
<use x="333.544922" xlink:href="#f"/>
<use x="394.824219" xlink:href="#j"/>
</g>
</g>
<path d="m236.93 352.2v33.808q0 2.4 2.4 2.4h7.7425q2.4 0 2.4-2.4v-33.808q0-2.4-2.4-2.4h-7.7425q-2.4 0-2.4 2.4z" clip-path="url(#a)" fill="#fff" stroke="#fff"/>
<g clip-path="url(#a)">
<g transform="translate(240.99 352.2) rotate(90) scale(.08 -.08)">
<use xlink:href="#e"/>
<use x="44.083984" xlink:href="#l"/>
<use x="105.607422" xlink:href="#g"/>
<use x="144.970703" xlink:href="#i"/>
<use x="242.382812" xlink:href="#k"/>
<use x="270.166016" xlink:href="#h"/>
<use x="333.544922" xlink:href="#f"/>
<use x="394.824219" xlink:href="#j"/>
</g>
</g>
<path d="m30.577 352.2v33.808q0 2.4 2.4 2.4h7.7425q2.4 0 2.4-2.4v-33.808q0-2.4-2.4-2.4h-7.7425q-2.4 0-2.4 2.4z" clip-path="url(#a)" fill="#fff" stroke="#fff"/>
<g clip-path="url(#a)">
<g transform="translate(34.641 352.2) rotate(90) scale(.08 -.08)">
<use xlink:href="#e"/>
<use x="44.083984" xlink:href="#l"/>
<use x="105.607422" xlink:href="#g"/>
<use x="144.970703" xlink:href="#i"/>
<use x="242.382812" xlink:href="#k"/>
<use x="270.166016" xlink:href="#h"/>
<use x="333.544922" xlink:href="#f"/>
<use x="394.824219" xlink:href="#j"/>
</g>
</g>
<path d="m45.317 352.2v33.808q0 2.4 2.4 2.4h7.7425q2.4 0 2.4-2.4v-33.808q0-2.4-2.4-2.4h-7.7425q-2.4 0-2.4 2.4z" clip-path="url(#a)" fill="#fff" stroke="#fff"/>
<g clip-path="url(#a)">
<g transform="translate(49.38 352.2) rotate(90) scale(.08 -.08)">
<use xlink:href="#e"/>
<use x="44.083984" xlink:href="#l"/>
<use x="105.607422" xlink:href="#g"/>
<use x="144.970703" xlink:href="#i"/>
<use x="242.382812" xlink:href="#k"/>
<use x="270.166016" xlink:href="#h"/>
<use x="333.544922" xlink:href="#f"/>
<use x="394.824219" xlink:href="#j"/>
</g>
</g>
<path d="m64.969 352.2v33.808q0 2.4 2.4 2.4h7.7425q2.4 0 2.4-2.4v-33.808q0-2.4-2.4-2.4h-7.7425q-2.4 0-2.4 2.4z" clip-path="url(#a)" fill="#fff" stroke="#fff"/>
<g clip-path="url(#a)">
<g transform="translate(69.033 352.2) rotate(90) scale(.08 -.08)">
<use xlink:href="#e"/>
<use x="44.083984" xlink:href="#l"/>
<use x="105.607422" xlink:href="#g"/>
<use x="144.970703" xlink:href="#i"/>
<use x="242.382812" xlink:href="#k"/>
<use x="270.166016" xlink:href="#h"/>
<use x="333.544922" xlink:href="#f"/>
<use x="394.824219" xlink:href="#j"/>
</g>
</g>
<path d="m340.1 352.2v33.808q0 2.4 2.4 2.4h7.7425q2.4 0 2.4-2.4v-33.808q0-2.4-2.4-2.4h-7.7425q-2.4 0-2.4 2.4z" clip-path="url(#a)" fill="#fff" stroke="#fff"/>
<g clip-path="url(#a)">
<g transform="translate(344.17 352.2) rotate(90) scale(.08 -.08)">
<use xlink:href="#e"/>
<use x="44.083984" xlink:href="#l"/>
<use x="105.607422" xlink:href="#g"/>
<use x="144.970703" xlink:href="#i"/>
<use x="242.382812" xlink:href="#k"/>
<use x="270.166016" xlink:href="#h"/>
<use x="333.544922" xlink:href="#f"/>
<use x="394.824219" xlink:href="#j"/>
</g>
</g>
<path d="m767.55 352.2v33.808q0 2.4 2.4 2.4h7.7425q2.4 0 2.4-2.4v-33.808q0-2.4-2.4-2.4h-7.7425q-2.4 0-2.4 2.4z" clip-path="url(#a)" fill="#fff" stroke="#fff"/>
<g clip-path="url(#a)">
<g transform="translate(771.61 352.2) rotate(90) scale(.08 -.08)">
<use xlink:href="#e"/>
<use x="44.083984" xlink:href="#l"/>
<use x="105.607422" xlink:href="#g"/>
<use x="144.970703" xlink:href="#i"/>
<use x="242.382812" xlink:href="#k"/>
<use x="270.166016" xlink:href="#h"/>
<use x="333.544922" xlink:href="#f"/>
<use x="394.824219" xlink:href="#j"/>
</g>
</g>
<defs>
<path id="b" d="m0 8.6603c2.2967 0 4.4997-0.9125 6.1237-2.5365 1.624-1.624 2.5365-3.827 2.5365-6.1237s-0.9125-4.4997-2.5365-6.1237c-1.624-1.624-3.827-2.5365-6.1237-2.5365s-4.4997 0.9125-6.1237 2.5365c-1.624 1.624-2.5365 3.827-2.5365 6.1237s0.9125 4.4997 2.5365 6.1237c1.624 1.624 3.827 2.5365 6.1237 2.5365z"/>
</defs>
<g clip-path="url(#a)" fill="#ffffff" stroke="#ffffff">
<use x="36.848485" y="407.272727" xlink:href="#b"/>
<use x="51.587879" y="407.272727" xlink:href="#b"/>
<use x="71.240404" y="407.272727" xlink:href="#b"/>
<use x="95.806061" y="407.272727" xlink:href="#b"/>
<use x="125.284848" y="407.272727" xlink:href="#b"/>
<use x="159.676768" y="407.272727" xlink:href="#b"/>
<use x="198.981818" y="407.272727" xlink:href="#b"/>
<use x="243.2" y="407.272727" xlink:href="#b"/>
<use x="292.331313" y="407.272727" xlink:href="#b"/>
<use x="346.375758" y="407.272727" xlink:href="#b"/>
<use x="405.333333" y="407.272727" xlink:href="#b"/>
<use x="469.20404" y="407.272727" xlink:href="#b"/>
<use x="537.987879" y="407.272727" xlink:href="#b"/>
<use x="611.684848" y="407.272727" xlink:href="#b"/>
<use x="690.294949" y="407.272727" xlink:href="#b"/>
<use x="773.818182" y="407.272727" xlink:href="#b"/>
<use x="379.037845" y="19.393939" xlink:href="#b"/>
<use x="137.403906" y="97.661346" xlink:href="#b"/>
<use x="405.333333" y="330.93551" xlink:href="#b"/>
<use x="627.038384" y="175.731254" xlink:href="#b"/>
<use x="469.20404" y="330.93551" xlink:href="#b"/>
<use x="574.836364" y="253.536358" xlink:href="#b"/>
<use x="690.294949" y="330.93551" xlink:href="#b"/>
<use x="537.987879" y="330.93551" xlink:href="#b"/>
<use x="611.684848" y="330.93551" xlink:href="#b"/>
<use x="53.225589" y="253.536358" xlink:href="#b"/>
<use x="95.806061" y="330.93551" xlink:href="#b"/>
<use x="125.284848" y="330.93551" xlink:href="#b"/>
<use x="159.676768" y="330.93551" xlink:href="#b"/>
<use x="253.026263" y="175.731254" xlink:href="#b"/>
<use x="198.981818" y="330.93551" xlink:href="#b"/>
<use x="267.765657" y="253.536358" xlink:href="#b"/>
<use x="292.331313" y="330.93551" xlink:href="#b"/>
<use x="243.2" y="330.93551" xlink:href="#b"/>
<use x="36.848485" y="330.93551" xlink:href="#b"/>
<use x="51.587879" y="330.93551" xlink:href="#b"/>
<use x="71.240404" y="330.93551" xlink:href="#b"/>
<use x="346.375758" y="330.93551" xlink:href="#b"/>
<use x="773.818182" y="330.93551" xlink:href="#b"/>
</g>
<g clip-path="url(#a)">
<g transform="translate(30.024 410.03) scale(.1 -.1)">
<defs>
<path id="ba" d="m9.8125 72.906h9.8594v-29.891h35.844v29.891h9.8594v-72.906h-9.8594v34.719h-35.844v-34.719h-9.8594z"/>
<path id="aa" d="m34.281 27.484q-10.891 0-15.094-2.4844t-4.2031-8.5q0-4.7812 3.1562-7.5938 3.1562-2.7969 8.5625-2.7969 7.4844 0 12 5.2969t4.5156 14.078v2zm17.922 3.7188v-31.203h-8.9844v8.2969q-3.0781-4.9688-7.6719-7.3438t-11.234-2.375q-8.3906 0-13.359 4.7188-4.9531 4.7188-4.9531 12.625 0 9.2188 6.1719 13.906 6.1875 4.6875 18.438 4.6875h12.609v0.89062q0 6.2031-4.0781 9.5938t-11.453 3.3906q-4.6875 0-9.1406-1.125-4.4375-1.125-8.5312-3.375v8.3125q4.9219 1.9062 9.5625 2.8438 4.6406 0.95312 9.0312 0.95312 11.875 0 17.734-6.1562 5.8594-6.1406 5.8594-18.641z"/>
</defs>
<use xlink:href="#ba"/>
<use x="75.195312" xlink:href="#aa"/>
</g>
</g>
<g clip-path="url(#a)">
<g transform="translate(39.959 410.03) scale(.1 -.1)">
<defs>
<path id="ar" d="m5.5156 10.406q7.7188-4.2031 15.391-4.2031 7.1719 0 12.297 4.1719t6.0625 14.828h-27.734v7.1719h27.438q-0.59375 5.125-4.4844 10.562-3.875 5.4531-13.578 5.4531-7.5312 0-15.391-4.2031v8.4062q7.6719 3.4062 15.781 3.4062 12.781 0 20.125-7.7344 7.3594-7.7344 7.3594-20.969 0-13.188-7.1562-20.953t-19.703-7.7656q-9.2188 0-16.406 3.5156z"/>
<path id="x" d="m2.9375 54.688h52.391v-7.1719h-21.781v-47.516h-8.8438v47.516h-21.766z"/>
<path id="n" d="m30.609 48.391q-7.2188 0-11.422-5.6406t-4.2031-15.453 4.1719-15.453q4.1875-5.6406 11.453-5.6406 7.1875 0 11.375 5.6562 4.2031 5.6719 4.2031 15.438 0 9.7188-4.2031 15.406-4.1875 5.6875-11.375 5.6875zm0 7.6094q11.719 0 18.406-7.625 6.7031-7.6094 6.7031-21.078 0-13.422-6.7031-21.078-6.6875-7.6406-18.406-7.6406-11.766 0-18.438 7.6406-6.6562 7.6562-6.6562 21.078 0 13.469 6.6562 21.078 6.6719 7.625 18.438 7.625z"/>
</defs>
<use xlink:href="#ar"/>
<use x="54.882812" xlink:href="#x"/>
<use x="113.134766" xlink:href="#n"/>
<use x="174.316406" xlink:href="#x"/>
</g>
</g>
<g clip-path="url(#a)">
<g transform="translate(62.344 410.03) scale(.1 -.1)">
<defs>
<path id="au" d="m18.109 8.2031v-29h-9.0312v75.484h9.0312v-8.2969q2.8438 4.875 7.1562 7.2344 4.3281 2.375 10.328 2.375 9.9688 0 16.188-7.9062 6.2344-7.9062 6.2344-20.797t-6.2344-20.812q-6.2188-7.9062-16.188-7.9062-6 0-10.328 2.375-4.3125 2.375-7.1562 7.25zm30.578 19.094q0 9.9062-4.0781 15.547t-11.203 5.6406q-7.1406 0-11.219-5.6406t-4.0781-15.547 4.0781-15.547 11.219-5.6406q7.125 0 11.203 5.6406t4.0781 15.547z"/>
<path id="aw" d="m34.469 29.5q6.0625-1.1719 9.4219-4.75 3.375-3.5625 3.375-8.8281 0-8.4531-6.2969-12.906-6.2969-4.4375-17.922-4.4375-3.9062 0-8.0312 0.6875t-8.5156 2.0469v8.3594q3.4688-1.8125 7.6094-2.7188 4.1562-0.89062 8.6875-0.89062 7.375 0 11.5 2.7344t4.125 7.125q0 4.2969-3.6562 6.9062t-10.344 2.6094h-7.2344v7.4219h7.5625q5.6719 0 8.9688 2.1719t3.2969 5.5938q0 3.125-3.4062 5.375-3.3906 2.25-9.1875 2.25-3.4688 0-7.4062-0.64062-3.9219-0.64062-8.6719-2.0469v8.1562q4.7969 1.1719 8.9375 1.75 4.1562 0.59375 7.8594 0.59375 9.5781 0 15.109-3.8438 5.5469-3.8281 5.5469-10.719 0-4.5312-2.9375-7.6875-2.9219-3.1406-8.3906-4.3125z"/>
</defs>
<use xlink:href="#au"/>
<use x="63.476562" xlink:href="#aa"/>
<use x="124.755859" xlink:href="#aw"/>
</g>
</g>
<g clip-path="url(#a)">
<g transform="translate(89.478 410.03) scale(.1 -.1)">
<defs>
<path id="y" d="m9.0781 54.688h9.0312v-22.312h29.156v22.312h9.0312v-54.688h-9.0312v25.203h-29.156v-25.203h-9.0312z"/>
</defs>
<use xlink:href="#n"/>
<use x="61.181641" xlink:href="#y"/>
</g>
</g>
<g clip-path="url(#a)">
<g transform="translate(115.06 410.03) scale(.1 -.1)">
<defs>
<path id="az" d="m31.109 56q11.719 0 18.406-7.625 6.6875-7.6094 6.6875-21.078 0-13.422-6.6875-21.078-6.6875-7.6406-18.406-7.6406-11.766 0-18.266 7.4219t-6.8438 21.297l-0.28125 11.188q-0.25 5.7969-0.25 7.8125 0 7.8125 2.8281 13.562 4.4531 9.0312 12.141 12.938t20.578 4.0156q5.9531 0.046875 8.5938 0.875l2.4844-7.125q-2.3906-0.98438-4.5781-1.0312l-12.219-0.82812q-6.1406-0.4375-9.8594-2.5938-9.7188-5.7031-10.641-13.172l-0.34375-2.7344q6.3438 5.7969 16.656 5.7969zm0-7.6094q-7.2344 0-11.438-5.6406-4.1875-5.6406-4.1875-15.453t4.1719-15.453 11.453-5.6406q7.1719 0 11.375 5.6562 4.2031 5.6719 4.2031 15.438 0 9.7188-4.2031 15.406t-11.375 5.6875z"/>
<path id="at" d="m61.047 54.688h8.9844v-54.688h-8.9844zm4.5 1.3125m-22.094-39.781q0 4.3906-3.2031 6.6875-3.1875 2.2969-9.3438 2.2969h-12.797v-18.031h12.797q6.1562 0 9.3438 2.3125 3.2031 2.3281 3.2031 6.7344zm-34.375 38.469h9.0312v-22.312h13.188q10.453 0 16.094-3.9844 5.6406-3.9688 5.6406-12.172t-5.6406-12.219q-5.6406-4-16.094-4h-22.219z"/>
<path id="r" d="m3.7188 0v7.4688q8.875 1.375 11.609 7.5156 3.3281 8.6562 3.3281 30.766v8.9375h36.953v-54.688h-8.9844v47.516h-18.984v-5.4219q0-21.094-4.2969-30.562-4.5938-10.109-19.625-11.531z"/>
</defs>
<use xlink:href="#az"/>
<use x="61.669922" xlink:href="#at"/>
<use x="140.625" xlink:href="#r"/>
</g>
</g>
<g clip-path="url(#a)">
<g transform="translate(147.17 410.03) scale(.1 -.1)">
<defs>
<path id="z" d="m21.625 7.1719h26.078v40.344h-18.891v-6.8438q0-20.109-5.7656-30.859zm-13.031 0q4.4375 1.9531 6.3906 6.1094 4.7969 10.297 4.7969 31.062v10.344h36.953v-47.516h7.1875v-20.984h-7.1875v13.812h-44.328v-13.812h-7.1875v20.984z"/>
<path id="q" d="m56.203 29.594v-4.3906h-41.312q0.59375-9.2812 5.5938-14.141t13.938-4.8594q5.1719 0 10.031 1.2656t9.6562 3.8125v-8.5q-4.8438-2.0469-9.9219-3.125t-10.297-1.0781q-13.094 0-20.734 7.6094-7.6406 7.625-7.6406 20.625 0 13.422 7.25 21.297 7.25 7.8906 19.562 7.8906 11.031 0 17.453-7.1094 6.4219-7.0938 6.4219-19.297zm-8.9844 2.6406q-0.09375 7.3594-4.125 11.75-4.0312 4.4062-10.672 4.4062-7.5156 0-12.031-4.25t-5.2031-11.969z"/>
</defs>
<use xlink:href="#n"/>
<use x="61.181641" xlink:href="#z"/>
<use x="130.322266" xlink:href="#q"/>
<use x="191.845703" xlink:href="#x"/>
</g>
</g>
<g clip-path="url(#a)">
<g transform="translate(192.65 410.03) scale(.1 -.1)">
<defs>
<path id="ak" d="m56.297 54.688v-54.688h-9.0312v47.516h-29.156v-47.516h-9.0312v54.688z"/>
</defs>
<use xlink:href="#ak"/>
<use x="65.380859" xlink:href="#n"/>
</g>
</g>
<g clip-path="url(#a)">
<g transform="translate(214.8 410.03) scale(.1 -.1)">
<defs>
<path id="o" d="m48.781 52.594v-8.4062q-3.8125 2.1094-7.6406 3.1562t-7.7344 1.0469q-8.75 0-13.594-5.5469-4.8281-5.5312-4.8281-15.547t4.8281-15.562q4.8438-5.5312 13.594-5.5312 3.9062 0 7.7344 1.0469t7.6406 3.1562v-8.3125q-3.7656-1.75-7.7969-2.625-4.0156-0.89062-8.5625-0.89062-12.359 0-19.641 7.7656-7.2656 7.7656-7.2656 20.953 0 13.375 7.3438 21.031 7.3594 7.6719 20.156 7.6719 4.1406 0 8.0938-0.85938 3.9531-0.84375 7.6719-2.5469z"/>
<path id="av" d="m55.906 54.688v-54.688h-8.9375v43.891l-26.359-43.891h-11.531v54.688h8.9375v-43.797l26.328 43.797zm-38.688 20.828h5.7656q0.53125-3.6562 2.8906-5.5 2.375-1.8281 6.625-1.8281 4.2031 0 6.5469 1.8125t2.9688 5.5156h5.7656q-0.48438-6.9844-4.3438-10.5t-10.938-3.5156-10.938 3.5156-4.3438 10.5z"/>
</defs>
<use xlink:href="#ak"/>
<use x="65.380859" xlink:href="#n"/>
<use x="126.5625" xlink:href="#o"/>
<use x="181.542969" xlink:href="#r"/>
<use x="245.458984" xlink:href="#q"/>
<use x="306.982422" xlink:href="#z"/>
<use x="376.123047" xlink:href="#y"/>
<use x="441.503906" xlink:href="#q"/>
<use x="503.027344" xlink:href="#av"/>
</g>
</g>
<g clip-path="url(#a)">
<g transform="translate(278.97 410.03) scale(.1 -.1)">
<defs>
<path id="al" d="m9.0781 54.688h13.141l15.531-36.625 15.578 36.625h13.031v-54.688h-9.0312v46.094l-15.094-35.594h-8.9844l-15.141 35.594v-46.094h-9.0312z"/>
</defs>
<use xlink:href="#al"/>
<use x="75.439453" xlink:href="#n"/>
<use x="136.621094" xlink:href="#z"/>
<use x="205.761719" xlink:href="#q"/>
</g>
</g>
<g clip-path="url(#a)">
<g transform="translate(344.57 410.03) scale(.1 -.1)">
<defs>
<path id="aq" d="m4.8906 31.391h26.312v-8h-26.312z"/>
</defs>
<use xlink:href="#aq"/>
</g>
</g>
<g clip-path="url(#a)">
<g transform="translate(402.08 410.03) scale(.1 -.1)">
<defs>
<path id="s" d="m55.906 54.688v-54.688h-8.9375v43.891l-26.359-43.891h-11.531v54.688h8.9375v-43.797l26.328 43.797z"/>
</defs>
<use xlink:href="#s"/>
</g>
</g>
<g clip-path="url(#a)">
<g transform="translate(460.43 410.03) scale(.1 -.1)">
<defs>
<path id="ay" d="m18.062 25.203v-18.031h12.797q6.1562 0 9.375 2.3125 3.2188 2.3281 3.2188 6.7344 0 4.3906-3.2188 6.6875t-9.375 2.2969zm0 22.312v-15.141h11.828q5.0781 0 8.2969 2.0156 3.2188 2.0312 3.2188 5.6562 0 3.6094-3.2188 5.5312-3.2188 1.9375-8.2969 1.9375zm-8.9844 7.1719h21.391q9.625 0 14.797-3.5156t5.1719-10.016q0-5.0156-2.6406-7.9844-2.625-2.9531-7.8125-3.6719 6.2031-1.1719 9.625-4.8906 3.4219-3.7031 3.4219-9.2812 0-7.3125-5.6406-11.328-5.6406-4-16.094-4h-22.219z"/>
</defs>
<use xlink:href="#ay"/>
<use x="58.935547" xlink:href="#o"/>
<use x="113.916016" xlink:href="#q"/>
</g>
</g>
<g clip-path="url(#a)">
<g transform="translate(535.24 410.03) scale(.1 -.1)">
<use xlink:href="#o"/>
</g>
</g>
<g clip-path="url(#a)">
<g transform="translate(601.4 410.03) scale(.1 -.1)">
<use xlink:href="#y"/>
<use x="65.380859" xlink:href="#s"/>
<use x="130.371094" xlink:href="#al"/>
</g>
</g>
<g clip-path="url(#a)">
<g transform="translate(657.46 410.03) scale(.1 -.1)">
<defs>
<path id="ax" d="m9.0781 0v54.688h38.578v-7.1719h-29.547v-47.516z"/>
<path id="as" d="m43.453 16.219q0 4.3906-3.2031 6.6875-3.1875 2.2969-9.3438 2.2969h-12.797v-18.031h12.797q6.1562 0 9.3438 2.3125 3.2031 2.3281 3.2031 6.7344zm-34.375 38.469h9.0312v-22.312h13.188q10.453 0 16.094-3.9844 5.6406-3.9688 5.6406-12.172t-5.6406-12.219q-5.6406-4-16.094-4h-22.219z"/>
</defs>
<use xlink:href="#o"/>
<use x="54.980469" xlink:href="#n"/>
<use x="116.162109" xlink:href="#ax"/>
<use x="168.701172" xlink:href="#r"/>
<use x="232.617188" xlink:href="#aa"/>
<use x="293.896484" xlink:href="#o"/>
<use x="348.876953" xlink:href="#s"/>
<use x="413.867188" xlink:href="#r"/>
<use x="477.783203" xlink:href="#s"/>
<use x="542.773438" xlink:href="#o"/>
<use x="597.753906" xlink:href="#as"/>
</g>
</g>
<g clip-path="url(#a)">
<g transform="translate(772.23 410.03) scale(.1 -.1)">
<defs>
<path id="d" d="m10.688 12.406h10.312v-12.406h-10.312z"/>
</defs>
<use xlink:href="#d"/>
</g>
</g>
<g clip-path="url(#a)">
<g transform="translate(371.09 22.153) scale(.1 -.1)">
<defs>
<path id="c" d="m12.406 8.2969h16.109v55.625l-17.531-3.5156v8.9844l17.438 3.5156h9.8594v-64.609h16.109v-8.2969h-41.984z"/>
</defs>
<use xlink:href="#c"/>
<use x="63.623047" xlink:href="#d"/>
<use x="95.410156" xlink:href="#c"/>
</g>
</g>
<g clip-path="url(#a)">
<g transform="translate(129.45 100.42) scale(.1 -.1)">
<defs>
<path id="m" d="m19.188 8.2969h34.422v-8.2969h-46.281v8.2969q5.6094 5.8125 15.297 15.594 9.7031 9.7969 12.188 12.641 4.7344 5.3125 6.6094 9 1.8906 3.6875 1.8906 7.25 0 5.8125-4.0781 9.4688-4.0781 3.6719-10.625 3.6719-4.6406 0-9.7969-1.6094-5.1406-1.6094-11-4.8906v9.9688q5.9531 2.3906 11.125 3.6094 5.1875 1.2188 9.4844 1.2188 11.328 0 18.062-5.6719 6.7344-5.6562 6.7344-15.125 0-4.5-1.6875-8.5312-1.6719-4.0156-6.125-9.4844-1.2188-1.4219-7.7656-8.1875-6.5312-6.7656-18.453-18.922z"/>
</defs>
<use xlink:href="#c"/>
<use x="63.623047" xlink:href="#d"/>
<use x="95.410156" xlink:href="#m"/>
</g>
</g>
<g clip-path="url(#a)">
<g transform="translate(397.38 333.69) scale(.1 -.1)">
<defs>
<path id="w" d="m40.578 39.312q7.0781-1.5156 11.047-6.3125 3.9844-4.7812 3.9844-11.812 0-10.781-7.4219-16.703-7.4219-5.9062-21.094-5.9062-4.5781 0-9.4375 0.90625t-10.031 2.7188v9.5156q4.0938-2.3906 8.9688-3.6094 4.8906-1.2188 10.219-1.2188 9.2656 0 14.125 3.6562t4.8594 10.641q0 6.4531-4.5156 10.078-4.5156 3.6406-12.562 3.6406h-8.5v8.1094h8.8906q7.2656 0 11.125 2.9062t3.8594 8.375q0 5.6094-3.9844 8.6094-3.9688 3.0156-11.391 3.0156-4.0625 0-8.7031-0.89062-4.6406-0.875-10.203-2.7188v8.7812q5.625 1.5625 10.531 2.3438t9.25 0.78125q11.234 0 17.766-5.1094 6.5469-5.0938 6.5469-13.781 0-6.0625-3.4688-10.234t-9.8594-5.7812z"/>
</defs>
<use xlink:href="#c"/>
<use x="63.623047" xlink:href="#d"/>
<use x="95.410156" xlink:href="#w"/>
</g>
</g>
<g clip-path="url(#a)">
<g transform="translate(619.09 178.49) scale(.1 -.1)">
<defs>
<path id="v" d="m37.797 64.312-24.906-38.922h24.906zm-2.5938 8.5938h12.406v-47.516h10.406v-8.2031h-10.406v-17.188h-9.8125v17.188h-32.906v9.5156z"/>
</defs>
<use xlink:href="#c"/>
<use x="63.623047" xlink:href="#d"/>
<use x="95.410156" xlink:href="#v"/>
</g>
</g>
<g clip-path="url(#a)">
<g transform="translate(461.25 333.69) scale(.1 -.1)">
<defs>
<path id="ah" d="m33.016 40.375q-6.6406 0-10.531-4.5469-3.875-4.5312-3.875-12.438 0-7.8594 3.875-12.438 3.8906-4.5625 10.531-4.5625t10.516 4.5625q3.875 4.5781 3.875 12.438 0 7.9062-3.875 12.438-3.875 4.5469-10.516 4.5469zm19.578 30.922v-8.9844q-3.7188 1.75-7.5 2.6719-3.7812 0.9375-7.5 0.9375-9.7656 0-14.922-6.5938-5.1406-6.5938-5.875-19.922 2.875 4.25 7.2188 6.5156 4.3594 2.2656 9.5781 2.2656 10.984 0 17.359-6.6719 6.375-6.6562 6.375-18.125 0-11.234-6.6406-18.031-6.6406-6.7812-17.672-6.7812-12.656 0-19.344 9.6875-6.6875 9.7031-6.6875 28.109 0 17.281 8.2031 27.562t22.016 10.281q3.7188 0 7.5-0.73438t7.8906-2.1875z"/>
</defs>
<use xlink:href="#c"/>
<use x="63.623047" xlink:href="#d"/>
<use x="95.410156" xlink:href="#ah"/>
</g>
</g>
<g clip-path="url(#a)">
<g transform="translate(566.88 256.3) scale(.1 -.1)">
<defs>
<path id="ag" d="m8.2031 72.906h46.875v-4.2031l-26.469-68.703h-10.297l24.906 64.594h-35.016z"/>
</defs>
<use xlink:href="#c"/>
<use x="63.623047" xlink:href="#d"/>
<use x="95.410156" xlink:href="#ag"/>
</g>
</g>
<g clip-path="url(#a)">
<g transform="translate(682.34 333.69) scale(.1 -.1)">
<defs>
<path id="af" d="m31.781 34.625q-7.0312 0-11.062-3.7656-4.0156-3.7656-4.0156-10.344 0-6.5938 4.0156-10.359 4.0312-3.7656 11.062-3.7656t11.078 3.7812q4.0625 3.7969 4.0625 10.344 0 6.5781-4.0312 10.344-4.0156 3.7656-11.109 3.7656zm-9.8594 4.1875q-6.3438 1.5625-9.8906 5.9062-3.5312 4.3594-3.5312 10.609 0 8.7344 6.2188 13.812 6.2344 5.0781 17.062 5.0781 10.891 0 17.094-5.0781t6.2031-13.812q0-6.25-3.5469-10.609-3.5312-4.3438-9.8281-5.9062 7.125-1.6562 11.094-6.5 3.9844-4.8281 3.9844-11.797 0-10.609-6.4688-16.281-6.4688-5.6562-18.531-5.6562-12.047 0-18.531 5.6562-6.4688 5.6719-6.4688 16.281 0 6.9688 4 11.797 4.0156 4.8438 11.141 6.5zm-3.6094 15.578q0-5.6562 3.5312-8.8281 3.5469-3.1719 9.9375-3.1719 6.3594 0 9.9375 3.1719 3.5938 3.1719 3.5938 8.8281 0 5.6719-3.5938 8.8438-3.5781 3.1719-9.9375 3.1719-6.3906 0-9.9375-3.1719-3.5312-3.1719-3.5312-8.8438z"/>
</defs>
<use xlink:href="#c"/>
<use x="63.623047" xlink:href="#d"/>
<use x="95.410156" xlink:href="#af"/>
</g>
</g>
<g clip-path="url(#a)">
<g transform="translate(526.86 333.69) scale(.1 -.1)">
<defs>
<path id="aj" d="m31.781 66.406q-7.6094 0-11.453-7.5-3.8281-7.4844-3.8281-22.531 0-14.984 3.8281-22.484 3.8438-7.5 11.453-7.5 7.6719 0 11.5 7.5 3.8438 7.5 3.8438 22.484 0 15.047-3.8438 22.531-3.8281 7.5-11.5 7.5zm0 7.8125q12.266 0 18.734-9.7031 6.4688-9.6875 6.4688-28.141 0-18.406-6.4688-28.109-6.4688-9.6875-18.734-9.6875-12.25 0-18.719 9.6875-6.4688 9.7031-6.4688 28.109 0 18.453 6.4688 28.141 6.4688 9.7031 18.719 9.7031z"/>
</defs>
<use xlink:href="#c"/>
<use x="63.623047" xlink:href="#d"/>
<use x="95.410156" xlink:href="#c"/>
<use x="159.033203" xlink:href="#aj"/>
</g>
</g>
<g clip-path="url(#a)">
<g transform="translate(600.55 333.69) scale(.1 -.1)">
<use xlink:href="#c"/>
<use x="63.623047" xlink:href="#d"/>
<use x="95.410156" xlink:href="#c"/>
<use x="159.033203" xlink:href="#c"/>
</g>
</g>
<g clip-path="url(#a)">
<g transform="translate(42.093 256.3) scale(.1 -.1)">
<use xlink:href="#c"/>
<use x="63.623047" xlink:href="#d"/>
<use x="95.410156" xlink:href="#c"/>
<use x="159.033203" xlink:href="#m"/>
</g>
</g>
<g clip-path="url(#a)">
<g transform="translate(84.673 333.69) scale(.1 -.1)">
<use xlink:href="#c"/>
<use x="63.623047" xlink:href="#d"/>
<use x="95.410156" xlink:href="#c"/>
<use x="159.033203" xlink:href="#w"/>
</g>
</g>
<g clip-path="url(#a)">
<g transform="translate(114.15 333.69) scale(.1 -.1)">
<use xlink:href="#c"/>
<use x="63.623047" xlink:href="#d"/>
<use x="95.410156" xlink:href="#c"/>
<use x="159.033203" xlink:href="#v"/>
</g>
</g>
<g clip-path="url(#a)">
<g transform="translate(148.54 333.69) scale(.1 -.1)">
<defs>
<path id="ai" d="m10.797 72.906h38.719v-8.3125h-29.688v-17.859q2.1406 0.73438 4.2812 1.0938 2.1562 0.35938 4.3125 0.35938 12.203 0 19.328-6.6875 7.1406-6.6875 7.1406-18.109 0-11.766-7.3281-18.297-7.3281-6.5156-20.656-6.5156-4.5938 0-9.3594 0.78125-4.75 0.78125-9.8281 2.3438v9.9219q4.3906-2.3906 9.0781-3.5625t9.9062-1.1719q8.4531 0 13.375 4.4375 4.9375 4.4375 4.9375 12.062 0 7.6094-4.9375 12.047-4.9219 4.4531-13.375 4.4531-3.9531 0-7.8906-0.875-3.9219-0.875-8.0156-2.7344z"/>
</defs>
<use xlink:href="#c"/>
<use x="63.623047" xlink:href="#d"/>
<use x="95.410156" xlink:href="#c"/>
<use x="159.033203" xlink:href="#ai"/>
</g>
</g>
<g clip-path="url(#a)">
<g transform="translate(241.89 178.49) scale(.1 -.1)">
<use xlink:href="#c"/>
<use x="63.623047" xlink:href="#d"/>
<use x="95.410156" xlink:href="#c"/>
<use x="159.033203" xlink:href="#ah"/>
</g>
</g>
<g clip-path="url(#a)">
<g transform="translate(187.85 333.69) scale(.1 -.1)">
<use xlink:href="#c"/>
<use x="63.623047" xlink:href="#d"/>
<use x="95.410156" xlink:href="#c"/>
<use x="159.033203" xlink:href="#ag"/>
</g>
</g>
<g clip-path="url(#a)">
<g transform="translate(256.63 256.3) scale(.1 -.1)">
<use xlink:href="#c"/>
<use x="63.623047" xlink:href="#d"/>
<use x="95.410156" xlink:href="#c"/>
<use x="159.033203" xlink:href="#af"/>
</g>
</g>
<g clip-path="url(#a)">
<g transform="translate(281.2 333.69) scale(.1 -.1)">
<defs>
<path id="ap" d="m10.984 1.5156v8.9844q3.7188-1.7656 7.5156-2.6875 3.8125-0.92188 7.4844-0.92188 9.7656 0 14.906 6.5625 5.1562 6.5625 5.8906 19.953-2.8281-4.2031-7.1875-6.4531-4.3438-2.25-9.6094-2.25-10.938 0-17.312 6.6094-6.375 6.625-6.375 18.109 0 11.219 6.6406 18 6.6406 6.7969 17.672 6.7969 12.656 0 19.312-9.7031 6.6719-9.6875 6.6719-28.141 0-17.234-8.1875-27.516-8.1719-10.281-21.984-10.281-3.7188 0-7.5312 0.73438-3.7969 0.73438-7.9062 2.2031zm19.625 30.906q6.6406 0 10.516 4.5312 3.8906 4.5469 3.8906 12.469 0 7.8594-3.8906 12.422-3.875 4.5625-10.516 4.5625t-10.516-4.5625-3.875-12.422q0-7.9219 3.875-12.469 3.875-4.5312 10.516-4.5312z"/>
</defs>
<use xlink:href="#c"/>
<use x="63.623047" xlink:href="#d"/>
<use x="95.410156" xlink:href="#c"/>
<use x="159.033203" xlink:href="#ap"/>
</g>
</g>
<g clip-path="url(#a)">
<g transform="translate(232.07 333.69) scale(.1 -.1)">
<use xlink:href="#c"/>
<use x="63.623047" xlink:href="#d"/>
<use x="95.410156" xlink:href="#m"/>
<use x="159.033203" xlink:href="#aj"/>
</g>
</g>
<g clip-path="url(#a)">
<g transform="translate(25.716 333.69) scale(.1 -.1)">
<use xlink:href="#c"/>
<use x="63.623047" xlink:href="#d"/>
<use x="95.410156" xlink:href="#m"/>
<use x="159.033203" xlink:href="#c"/>
</g>
</g>
<g clip-path="url(#a)">
<g transform="translate(40.455 333.69) scale(.1 -.1)">
<use xlink:href="#c"/>
<use x="63.623047" xlink:href="#d"/>
<use x="95.410156" xlink:href="#m"/>
<use x="159.033203" xlink:href="#m"/>
</g>
</g>
<g clip-path="url(#a)">
<g transform="translate(60.108 333.69) scale(.1 -.1)">
<use xlink:href="#c"/>
<use x="63.623047" xlink:href="#d"/>
<use x="95.410156" xlink:href="#m"/>
<use x="159.033203" xlink:href="#w"/>
</g>
</g>
<g clip-path="url(#a)">
<g transform="translate(335.24 333.69) scale(.1 -.1)">
<use xlink:href="#c"/>
<use x="63.623047" xlink:href="#d"/>
<use x="95.410156" xlink:href="#m"/>
<use x="159.033203" xlink:href="#v"/>
</g>
</g>
<g clip-path="url(#a)">
<g transform="translate(762.69 333.69) scale(.1 -.1)">
<use xlink:href="#c"/>
<use x="63.623047" xlink:href="#d"/>
<use x="95.410156" xlink:href="#m"/>
<use x="159.033203" xlink:href="#ai"/>
</g>
</g>
<defs>
<clipPath id="a">
<rect width="810.67" height="426.67"/>
</clipPath>
</defs>
</svg>
