<?xml version="1.0" encoding="UTF-8"?>
<!DOCTYPE svg  PUBLIC '-//W3C//DTD SVG 1.1//EN'  'http://www.w3.org/Graphics/SVG/1.1/DTD/svg11.dtd'>
<svg width="962.67pt" height="506.67pt" version="1.1" viewBox="0 0 962.67 506.67" xmlns="http://www.w3.org/2000/svg" xmlns:xlink="http://www.w3.org/1999/xlink">
<metadata>
<rdf:RDF xmlns:cc="http://creativecommons.org/ns#" xmlns:dc="http://purl.org/dc/elements/1.1/" xmlns:rdf="http://www.w3.org/1999/02/22-rdf-syntax-ns#">
<cc:Work>
<dc:type rdf:resource="http://purl.org/dc/dcmitype/StillImage"/>
<dc:date>2021-01-13T08:45:59.753557</dc:date>
<dc:format>image/svg+xml</dc:format>
<dc:creator>
<cc:Agent>
<dc:title>Matplotlib v3.3.3, https://matplotlib.org/</dc:title>
</cc:Agent>
</dc:creator>
</cc:Work>
</rdf:RDF>
</metadata>
<defs>
<style type="text/css">*{stroke-linecap:butt;stroke-linejoin:round;}</style>
</defs>
<path d="m0 506.67h962.67v-506.67h-962.67z" fill="#fff"/>
<g fill="none" stroke="#000">
<path d="m267.16 23.03-223.41 369.96" clip-path="url(#a)"/>
<path d="m267.16 23.03-157.98 92.943" clip-path="url(#a)"/>
<path d="m267.16 23.03 288.07 92.943" clip-path="url(#a)"/>
<path d="m267.16 23.03 93.315 369.96" clip-path="url(#a)"/>
<path d="m43.758 392.99v90.65" clip-path="url(#a)"/>
<path d="m109.19 115.97 201.28 92.708" clip-path="url(#a)"/>
<path d="m109.19 115.97-52.926 277.01" clip-path="url(#a)"/>
<path d="m109.19 115.97-36.256 277.01" clip-path="url(#a)"/>
<path d="m109.19 115.97 104.6 92.708" clip-path="url(#a)"/>
<path d="m109.19 115.97-15.419 277.01" clip-path="url(#a)"/>
<path d="m555.24 115.97-140.58 277.01" clip-path="url(#a)"/>
<path d="m555.24 115.97-82.236 277.01" clip-path="url(#a)"/>
<path d="m555.24 115.97-19.726 277.01" clip-path="url(#a)"/>
<path d="m555.24 115.97 46.953 277.01" clip-path="url(#a)"/>
<path d="m555.24 115.97 195.59 92.708" clip-path="url(#a)"/>
<path d="m414.66 392.99v90.65" clip-path="url(#a)"/>
<path d="m473 392.99v90.65" clip-path="url(#a)"/>
<path d="m535.51 392.99v90.65" clip-path="url(#a)"/>
<path d="m602.19 392.99v90.65" clip-path="url(#a)"/>
<path d="m750.82 208.68 168.08 92.394" clip-path="url(#a)"/>
<path d="m750.82 208.68-77.791 184.31" clip-path="url(#a)"/>
<path d="m750.82 208.68 77.791 92.394" clip-path="url(#a)"/>
<path d="m673.03 392.99v90.65" clip-path="url(#a)"/>
<path d="m828.62 301.07 90.293 91.911" clip-path="url(#a)"/>
<path d="m828.62 301.07-80.57 91.911" clip-path="url(#a)"/>
<path d="m828.62 301.07-1.3891 91.911" clip-path="url(#a)"/>
<path d="m828.62 301.07 81.959 91.911" clip-path="url(#a)"/>
<path d="m748.05 392.99v90.65" clip-path="url(#a)"/>
<path d="m827.23 392.99v90.65" clip-path="url(#a)"/>
<path d="m56.26 392.99v90.65" clip-path="url(#a)"/>
<path d="m72.929 392.99v90.65" clip-path="url(#a)"/>
<path d="m213.79 208.68-95.016 184.31" clip-path="url(#a)"/>
<path d="m213.79 208.68-49.175 92.394" clip-path="url(#a)"/>
<path d="m213.79 208.68 5.0009 184.31" clip-path="url(#a)"/>
<path d="m213.79 208.68 46.675 184.31" clip-path="url(#a)"/>
<path d="m213.79 208.68 92.516 184.31" clip-path="url(#a)"/>
<path d="m118.77 392.99v90.65" clip-path="url(#a)"/>
<path d="m164.61 301.07-16.67 91.911" clip-path="url(#a)"/>
<path d="m164.61 301.07 16.67 91.911" clip-path="url(#a)"/>
<path d="m218.79 392.99v90.65" clip-path="url(#a)"/>
<path d="m260.46 392.99v90.65" clip-path="url(#a)"/>
<path d="m306.3 392.99v90.65" clip-path="url(#a)"/>
<path d="m147.94 392.99v90.65" clip-path="url(#a)"/>
<path d="m181.28 392.99v90.65" clip-path="url(#a)"/>
<path d="m93.766 392.99v90.65" clip-path="url(#a)"/>
<path d="m360.48 392.99v90.65" clip-path="url(#a)"/>
<path d="m910.57 392.99v90.65" clip-path="url(#a)"/>
</g>
<path d="m159.68 213.16 2.3042-3.8157q1.2406-2.0545-0.81382-3.2951l-6.6278-4.0023q-2.0545-1.2406-3.2951 0.81382l-2.3042 3.8157q-1.2406 2.0545 0.81382 3.2951l6.6278 4.0023q2.0545 1.2406 3.2951-0.81382z" clip-path="url(#a)" fill="#fff" stroke="#fff"/>
<g clip-path="url(#a)">
<g transform="translate(156.2 211.06) rotate(-58.873) scale(.08 -.08)">
<defs>
<path id="w" d="m9.8125 72.906h9.8594v-64.609h35.5v-8.2969h-45.359z"/>
</defs>
<use xlink:href="#w"/>
</g>
</g>
<path d="m188.76 76.432 5.1854-3.0507q2.0686-1.217 0.85158-3.2855l-3.926-6.6733q-1.217-2.0686-3.2855-0.85158l-5.1854 3.0507q-2.0686 1.217-0.85158 3.2855l3.926 6.6733q1.217 2.0686 3.2855 0.85158z" clip-path="url(#a)" fill="#fff" stroke="#fff"/>
<g clip-path="url(#a)">
<g transform="translate(186.7 72.93) rotate(-30.469) scale(.08 -.08)">
<defs>
<path id="ap" d="m9.8125 72.906h9.8594v-29.891h35.844v29.891h9.8594v-72.906h-9.8594v34.719h-35.844v-34.719h-9.8594z"/>
</defs>
<use xlink:href="#ap"/>
</g>
</g>
<path d="m406.41 74.546 5.7256 1.8473q2.2841 0.73692 3.021-1.5471l2.3774-7.3685q0.73692-2.2841-1.5471-3.021l-5.7256-1.8473q-2.2841-0.73692-3.021 1.5471l-2.3774 7.3685q-0.73693 2.2841 1.5471 3.021z" clip-path="url(#a)" fill="#fff" stroke="#fff"/>
<g clip-path="url(#a)">
<g transform="translate(407.66 70.679) rotate(17.882) scale(.08 -.08)">
<use xlink:href="#ap"/>
</g>
</g>
<path d="m307.02 206.7 1.432 5.6772q0.58697 2.3271 2.9141 1.7401l7.5074-1.8936q2.3271-0.58697 1.7401-2.9141l-1.432-5.6772q-0.58697-2.3271-2.9141-1.7401l-7.5074 1.8936q-2.3271 0.58697-1.7401 2.9141z" clip-path="url(#a)" fill="#fff" stroke="#fff"/>
<g clip-path="url(#a)">
<g transform="translate(310.97 205.71) rotate(75.843) scale(.08 -.08)">
<defs>
<path id="ad" d="m8.6875 72.906h9.9219v-44.297q0-11.719 4.2344-16.875 4.25-5.1406 13.781-5.1406 9.4688 0 13.719 5.1406 4.25 5.1562 4.25 16.875v44.297h9.9062v-45.516q0-14.25-7.0625-21.531-7.0469-7.2812-20.812-7.2812-13.828 0-20.891 7.2812-7.0469 7.2812-7.0469 21.531z"/>
</defs>
<use xlink:href="#ad"/>
</g>
</g>
<path d="m37.486 421.41v33.808q0 2.4 2.4 2.4h7.7425q2.4 0 2.4-2.4v-33.808q0-2.4-2.4-2.4h-7.7425q-2.4 0-2.4 2.4z" clip-path="url(#a)" fill="#fff" stroke="#fff"/>
<g clip-path="url(#a)">
<g transform="translate(41.55 421.41) rotate(90) scale(.08 -.08)">
<defs>
<path id="e" d="m-0.29688 72.906h61.672v-8.3125h-25.875v-64.594h-9.9062v64.594h-25.891z"/>
<path id="l" d="m56.203 29.594v-4.3906h-41.312q0.59375-9.2812 5.5938-14.141t13.938-4.8594q5.1719 0 10.031 1.2656t9.6562 3.8125v-8.5q-4.8438-2.0469-9.9219-3.125t-10.297-1.0781q-13.094 0-20.734 7.6094-7.6406 7.625-7.6406 20.625 0 13.422 7.25 21.297 7.25 7.8906 19.562 7.8906 11.031 0 17.453-7.1094 6.4219-7.0938 6.4219-19.297zm-8.9844 2.6406q-0.09375 7.3594-4.125 11.75-4.0312 4.4062-10.672 4.4062-7.5156 0-12.031-4.25t-5.2031-11.969z"/>
<path id="g" d="m41.109 46.297q-1.5156 0.875-3.2969 1.2812-1.7812 0.42188-3.9219 0.42188-7.625 0-11.703-4.9531t-4.0781-14.234v-28.812h-9.0312v54.688h9.0312v-8.5q2.8438 4.9844 7.375 7.3906 4.5469 2.4219 11.047 2.4219 0.92188 0 2.0469-0.125 1.125-0.10938 2.4844-0.35938z"/>
<path id="i" d="m52 44.188q3.375 6.0625 8.0625 8.9375t11.031 2.875q8.5469 0 13.188-5.9844 4.6406-5.9688 4.6406-17v-33.016h-9.0312v32.719q0 7.8594-2.7969 11.656-2.7812 3.8125-8.4844 3.8125-6.9844 0-11.047-4.6406-4.0469-4.625-4.0469-12.641v-30.906h-9.0312v32.719q0 7.9062-2.7812 11.688t-8.5938 3.7812q-6.8906 0-10.953-4.6562-4.0469-4.6562-4.0469-12.625v-30.906h-9.0312v54.688h9.0312v-8.5q3.0781 5.0312 7.375 7.4219t10.203 2.3906q5.9688 0 10.141-3.0312 4.1719-3.0156 6.1719-8.7812z"/>
<path id="k" d="m9.4219 54.688h8.9844v-54.688h-8.9844zm0 21.297h8.9844v-11.391h-8.9844z"/>
<path id="h" d="m54.891 33.016v-33.016h-8.9844v32.719q0 7.7656-3.0312 11.609-3.0312 3.8594-9.0781 3.8594-7.2812 0-11.484-4.6406-4.2031-4.625-4.2031-12.641v-30.906h-9.0312v54.688h9.0312v-8.5q3.2344 4.9375 7.5938 7.375 4.375 2.4375 10.094 2.4375 9.4219 0 14.25-5.8281 4.8438-5.8281 4.8438-17.156z"/>
<path id="f" d="m34.281 27.484q-10.891 0-15.094-2.4844t-4.2031-8.5q0-4.7812 3.1562-7.5938 3.1562-2.7969 8.5625-2.7969 7.4844 0 12 5.2969t4.5156 14.078v2zm17.922 3.7188v-31.203h-8.9844v8.2969q-3.0781-4.9688-7.6719-7.3438t-11.234-2.375q-8.3906 0-13.359 4.7188-4.9531 4.7188-4.9531 12.625 0 9.2188 6.1719 13.906 6.1875 4.6875 18.438 4.6875h12.609v0.89062q0 6.2031-4.0781 9.5938t-11.453 3.3906q-4.6875 0-9.1406-1.125-4.4375-1.125-8.5312-3.375v8.3125q4.9219 1.9062 9.5625 2.8438 4.6406 0.95312 9.0312 0.95312 11.875 0 17.734-6.1562 5.8594-6.1406 5.8594-18.641z"/>
<path id="j" d="m9.4219 75.984h8.9844v-75.984h-8.9844z"/>
</defs>
<use xlink:href="#e"/>
<use x="44.083984" xlink:href="#l"/>
<use x="105.607422" xlink:href="#g"/>
<use x="144.970703" xlink:href="#i"/>
<use x="242.382812" xlink:href="#k"/>
<use x="270.166016" xlink:href="#h"/>
<use x="333.544922" xlink:href="#f"/>
<use x="394.824219" xlink:href="#j"/>
</g>
</g>
<path d="m204.72 166.88 4.9706 2.2894q2.1799 1.004 3.1839-1.1759l3.239-7.0324q1.004-2.1799-1.1759-3.1839l-4.9706-2.2894q-2.1799-1.004-3.1839 1.1759l-3.239 7.0324q-1.004 2.1799 1.1759 3.1839z" clip-path="url(#a)" fill="#fff" stroke="#fff"/>
<g clip-path="url(#a)">
<g transform="translate(206.42 163.19) rotate(24.73) scale(.08 -.08)">
<defs>
<path id="p" d="m34.188 63.188-13.391-36.281h26.812zm-5.5781 9.7188h11.188l27.781-72.906h-10.25l-6.6406 18.703h-32.859l-6.6406-18.703h-10.406z"/>
</defs>
<use xlink:href="#p"/>
</g>
</g>
<path d="m88.43 258.03 0.90525-4.738q0.4504-2.3574-1.907-2.8078l-7.6049-1.453q-2.3574-0.4504-2.8078 1.907l-0.90525 4.738q-0.4504 2.3574 1.907 2.8078l7.6049 1.453q2.3574 0.45039 2.8078-1.907z" clip-path="url(#a)" fill="#fff" stroke="#fff"/>
<g clip-path="url(#a)">
<g transform="translate(84.438 257.26) rotate(-79.183) scale(.08 -.08)">
<defs>
<path id="t" d="m19.672 64.797v-27.391h12.406q6.8906 0 10.641 3.5625 3.7656 3.5625 3.7656 10.156 0 6.5469-3.7656 10.109-3.75 3.5625-10.641 3.5625zm-9.8594 8.1094h22.266q12.266 0 18.531-5.5469 6.2812-5.5469 6.2812-16.234 0-10.797-6.2812-16.312-6.2656-5.5156-18.531-5.5156h-12.406v-29.297h-9.8594z"/>
</defs>
<use xlink:href="#t"/>
</g>
</g>
<path d="m96.921 258.01 0.7102-5.4262q0.31146-2.3797-2.0682-2.6912l-7.677-1.0048q-2.3797-0.31146-2.6912 2.0682l-0.7102 5.4262q-0.31146 2.3797 2.0682 2.6912l7.677 1.0048q2.3797 0.31146 2.6912-2.0682z" clip-path="url(#a)" fill="#fff" stroke="#fff"/>
<g clip-path="url(#a)">
<g transform="translate(92.891 257.48) rotate(-82.543) scale(.08 -.08)">
<use xlink:href="#p"/>
</g>
</g>
<path d="m155.28 165.21 4.0955 3.6298q1.7961 1.5919 3.388-0.20422l5.1354-5.7943q1.5919-1.7961-0.20422-3.388l-4.0955-3.6298q-1.7961-1.5919-3.388 0.20422l-5.1354 5.7943q-1.5919 1.7961 0.20422 3.388z" clip-path="url(#a)" fill="#fff" stroke="#fff"/>
<g clip-path="url(#a)">
<g transform="translate(157.97 162.16) rotate(41.55) scale(.08 -.08)">
<use xlink:href="#p"/>
</g>
</g>
<path d="m107.57 257.75 0.3254-5.846q0.13338-2.3963-2.2629-2.5297l-7.7305-0.4303q-2.3963-0.13338-2.5297 2.2629l-0.3254 5.846q-0.13338 2.3963 2.2629 2.5297l7.7305 0.4303q2.3963 0.13338 2.5297-2.2629z" clip-path="url(#a)" fill="#fff" stroke="#fff"/>
<g clip-path="url(#a)">
<g transform="translate(103.52 257.53) rotate(-86.814) scale(.08 -.08)">
<use xlink:href="#ad"/>
</g>
</g>
<path d="m489.3 259.76 2.4766-4.8801q1.0861-2.1402-1.0541-3.2263l-6.9043-3.5038q-2.1402-1.0861-3.2263 1.0541l-2.4766 4.8801q-1.0861 2.1402 1.0541 3.2263l6.9043 3.5038q2.1402 1.0861 3.2263-1.0541z" clip-path="url(#a)" fill="#fff" stroke="#fff"/>
<g clip-path="url(#a)">
<g transform="translate(485.68 257.92) rotate(-63.093) scale(.08 -.08)">
<use xlink:href="#p"/>
</g>
</g>
<path d="m519.43 258.61 1.3906-4.6842q0.68302-2.3008-1.6177-2.9838l-7.4223-2.2035q-2.3008-0.68302-2.9838 1.6177l-1.3906 4.6842q-0.68302 2.3008 1.6177 2.9838l7.4223 2.2035q2.3008 0.68302 2.9838-1.6177z" clip-path="url(#a)" fill="#fff" stroke="#fff"/>
<g clip-path="url(#a)">
<g transform="translate(515.54 257.45) rotate(-73.466) scale(.08 -.08)">
<use xlink:href="#e"/>
</g>
</g>
<path d="m551.41 258 0.43754-6.1444q0.17047-2.3939-2.2235-2.5644l-7.7229-0.54994q-2.3939-0.17047-2.5644 2.2235l-0.43754 6.1444q-0.17047 2.3939 2.2235 2.5644l7.7229 0.54994q2.3939 0.17047 2.5644-2.2235z" clip-path="url(#a)" fill="#fff" stroke="#fff"/>
<g clip-path="url(#a)">
<g transform="translate(547.36 257.71) rotate(-85.927) scale(.08 -.08)">
<defs>
<path id="x" d="m19.672 64.797v-56.688h11.922q15.094 0 22.094 6.8281 7 6.8438 7 21.594 0 14.641-7 21.453t-22.094 6.8125zm-9.8594 8.1094h20.266q21.188 0 31.094-8.8125 9.9219-8.8125 9.9219-27.562 0-18.859-9.9688-27.703-9.9531-8.8281-31.047-8.8281h-20.266z"/>
</defs>
<use xlink:href="#x"/>
</g>
</g>
<path d="m572.13 253.15 0.80611 4.7559q0.40107 2.3663 2.7673 1.9652l7.6336-1.2939q2.3663-0.40107 1.9652-2.7673l-0.80611-4.7559q-0.40107-2.3663-2.7673-1.9652l-7.6336 1.2939q-2.3663 0.40107-1.9652 2.7673z" clip-path="url(#a)" fill="#fff" stroke="#fff"/>
<g clip-path="url(#a)">
<g transform="translate(576.13 252.47) rotate(80.38) scale(.08 -.08)">
<use xlink:href="#t"/>
</g>
</g>
<path d="m647.87 166.82 4.9451 2.344q2.1687 1.028 3.1967-1.1408l3.3162-6.9964q1.028-2.1687-1.1408-3.1967l-4.9451-2.3439q-2.1687-1.028-3.1967 1.1408l-3.3162 6.9964q-1.028 2.1687 1.1408 3.1967z" clip-path="url(#a)" fill="#fff" stroke="#fff"/>
<g clip-path="url(#a)">
<g transform="translate(649.61 163.15) rotate(25.361) scale(.08 -.08)">
<use xlink:href="#p"/>
</g>
</g>
<path d="m408.38 421.41v33.808q0 2.4 2.4 2.4h7.7425q2.4 0 2.4-2.4v-33.808q0-2.4-2.4-2.4h-7.7425q-2.4 0-2.4 2.4z" clip-path="url(#a)" fill="#fff" stroke="#fff"/>
<g clip-path="url(#a)">
<g transform="translate(412.45 421.41) rotate(90) scale(.08 -.08)">
<use xlink:href="#e"/>
<use x="44.083984" xlink:href="#l"/>
<use x="105.607422" xlink:href="#g"/>
<use x="144.970703" xlink:href="#i"/>
<use x="242.382812" xlink:href="#k"/>
<use x="270.166016" xlink:href="#h"/>
<use x="333.544922" xlink:href="#f"/>
<use x="394.824219" xlink:href="#j"/>
</g>
</g>
<path d="m466.73 421.41v33.808q0 2.4 2.4 2.4h7.7425q2.4 0 2.4-2.4v-33.808q0-2.4-2.4-2.4h-7.7425q-2.4 0-2.4 2.4z" clip-path="url(#a)" fill="#fff" stroke="#fff"/>
<g clip-path="url(#a)">
<g transform="translate(470.79 421.41) rotate(90) scale(.08 -.08)">
<use xlink:href="#e"/>
<use x="44.083984" xlink:href="#l"/>
<use x="105.607422" xlink:href="#g"/>
<use x="144.970703" xlink:href="#i"/>
<use x="242.382812" xlink:href="#k"/>
<use x="270.166016" xlink:href="#h"/>
<use x="333.544922" xlink:href="#f"/>
<use x="394.824219" xlink:href="#j"/>
</g>
</g>
<path d="m529.24 421.41v33.808q0 2.4 2.4 2.4h7.7425q2.4 0 2.4-2.4v-33.808q0-2.4-2.4-2.4h-7.7425q-2.4 0-2.4 2.4z" clip-path="url(#a)" fill="#fff" stroke="#fff"/>
<g clip-path="url(#a)">
<g transform="translate(533.3 421.41) rotate(90) scale(.08 -.08)">
<use xlink:href="#e"/>
<use x="44.083984" xlink:href="#l"/>
<use x="105.607422" xlink:href="#g"/>
<use x="144.970703" xlink:href="#i"/>
<use x="242.382812" xlink:href="#k"/>
<use x="270.166016" xlink:href="#h"/>
<use x="333.544922" xlink:href="#f"/>
<use x="394.824219" xlink:href="#j"/>
</g>
</g>
<path d="m595.92 421.41v33.808q0 2.4 2.4 2.4h7.7425q2.4 0 2.4-2.4v-33.808q0-2.4-2.4-2.4h-7.7425q-2.4 0-2.4 2.4z" clip-path="url(#a)" fill="#fff" stroke="#fff"/>
<g clip-path="url(#a)">
<g transform="translate(599.98 421.41) rotate(90) scale(.08 -.08)">
<use xlink:href="#e"/>
<use x="44.083984" xlink:href="#l"/>
<use x="105.607422" xlink:href="#g"/>
<use x="144.970703" xlink:href="#i"/>
<use x="242.382812" xlink:href="#k"/>
<use x="270.166016" xlink:href="#h"/>
<use x="333.544922" xlink:href="#f"/>
<use x="394.824219" xlink:href="#j"/>
</g>
</g>
<path d="m829.4 259.03 4.8954 2.6909q2.1032 1.1561 3.2593-0.9471l3.7296-6.785q1.1561-2.1032-0.9471-3.2593l-4.8954-2.6909q-2.1032-1.1561-3.2593 0.9471l-3.7296 6.785q-1.1561 2.1032 0.9471 3.2593z" clip-path="url(#a)" fill="#fff" stroke="#fff"/>
<g clip-path="url(#a)">
<g transform="translate(831.36 255.47) rotate(28.797) scale(.08 -.08)">
<defs>
<path id="u" d="m64.406 67.281v-10.391q-4.9844 4.6406-10.625 6.9219-5.6406 2.2969-11.984 2.2969-12.5 0-19.141-7.6406t-6.6406-22.094q0-14.406 6.6406-22.047t19.141-7.6406q6.3438 0 11.984 2.2969t10.625 6.9375v-10.312q-5.1719-3.5156-10.969-5.2812-5.7812-1.75-12.219-1.75-16.562 0-26.094 10.125-9.5156 10.141-9.5156 27.672 0 17.578 9.5156 27.703 9.5312 10.141 26.094 10.141 6.5312 0 12.312-1.7344 5.7969-1.7344 10.875-5.2031z"/>
</defs>
<use xlink:href="#u"/>
</g>
</g>
<path d="m716.63 305.83 2.1616-5.1213q0.93326-2.2111-1.2778-3.1444l-7.1331-3.0107q-2.2111-0.93326-3.1444 1.2778l-2.1616 5.1213q-0.93326 2.2111 1.2778 3.1444l7.1331 3.0107q2.2111 0.93326 3.1444-1.2778z" clip-path="url(#a)" fill="#fff" stroke="#fff"/>
<g clip-path="url(#a)">
<g transform="translate(712.88 304.25) rotate(-67.116) scale(.08 -.08)">
<defs>
<path id="ae" d="m44.391 34.188q3.1719-1.0781 6.1719-4.5938t6.0312-9.6719l10.016-19.922h-10.609l-9.3125 18.703q-3.625 7.3281-7.0156 9.7188t-9.25 2.3906h-10.75v-30.812h-9.8594v72.906h22.266q12.5 0 18.656-5.2344 6.1562-5.2188 6.1562-15.766 0-6.8906-3.2031-11.438-3.2031-4.5312-9.2969-6.2812zm-24.719 30.609v-25.875h12.406q7.125 0 10.766 3.2969t3.6406 9.6875-3.6406 9.6406-10.766 3.25z"/>
</defs>
<use xlink:href="#ae"/>
</g>
</g>
<path d="m783.29 256.98 3.2558 3.8669q1.5458 1.8359 3.3817 0.29016l5.9228-4.9867q1.8359-1.5458 0.29016-3.3817l-3.2558-3.8669q-1.5458-1.8359-3.3817-0.29016l-5.9228 4.9867q-1.8359 1.5458-0.29016 3.3817z" clip-path="url(#a)" fill="#fff" stroke="#fff"/>
<g clip-path="url(#a)">
<g transform="translate(786.4 254.37) rotate(49.904) scale(.08 -.08)">
<defs>
<path id="ay" d="m9.8125 72.906h46.094v-8.3125h-36.234v-21.578h34.719v-8.2969h-34.719v-26.422h37.109v-8.2969h-46.969z"/>
</defs>
<use xlink:href="#ay"/>
</g>
</g>
<path d="m666.76 421.41v33.808q0 2.4 2.4 2.4h7.7425q2.4 0 2.4-2.4v-33.808q0-2.4-2.4-2.4h-7.7425q-2.4 0-2.4 2.4z" clip-path="url(#a)" fill="#fff" stroke="#fff"/>
<g clip-path="url(#a)">
<g transform="translate(670.83 421.41) rotate(90) scale(.08 -.08)">
<use xlink:href="#e"/>
<use x="44.083984" xlink:href="#l"/>
<use x="105.607422" xlink:href="#g"/>
<use x="144.970703" xlink:href="#i"/>
<use x="242.382812" xlink:href="#k"/>
<use x="270.166016" xlink:href="#h"/>
<use x="333.544922" xlink:href="#f"/>
<use x="394.824219" xlink:href="#j"/>
</g>
</g>
<path d="m867.37 349.47 3.8351 3.9039q1.6819 1.7121 3.394 0.030141l5.5232-5.4259q1.7121-1.6819 0.03014-3.394l-3.8351-3.9039q-1.6819-1.7121-3.394-0.03014l-5.5232 5.4259q-1.7121 1.6819-0.030141 3.394z" clip-path="url(#a)" fill="#fff" stroke="#fff"/>
<g clip-path="url(#a)">
<g transform="translate(870.27 346.63) rotate(45.509) scale(.08 -.08)">
<use xlink:href="#p"/>
</g>
</g>
<path d="m791.02 353.48 4.0606-4.6322q1.582-1.8048-0.22271-3.3868l-5.8222-5.1037q-1.8048-1.582-3.3868 0.22271l-4.0606 4.6322q-1.582 1.8048 0.22271 3.3868l5.8222 5.1037q1.8048 1.582 3.3868-0.22271z" clip-path="url(#a)" fill="#fff" stroke="#fff"/>
<g clip-path="url(#a)">
<g transform="translate(787.96 350.8) rotate(-48.762) scale(.08 -.08)">
<use xlink:href="#x"/>
</g>
</g>
<path d="m834.15 349.66 0.07675-5.0782q0.036269-2.3997-2.3635-2.436l-7.7416-0.117q-2.3997-0.036269-2.436 2.3635l-0.07675 5.0782q-0.036269 2.3997 2.3635 2.436l7.7416 0.117q2.3997 0.036269 2.436-2.3635z" clip-path="url(#a)" fill="#fff" stroke="#fff"/>
<g clip-path="url(#a)">
<g transform="translate(830.09 349.6) rotate(-89.134) scale(.08 -.08)">
<defs>
<path id="ao" d="m53.516 70.516v-9.625q-5.6094 2.6875-10.594 4-4.9844 1.3281-9.625 1.3281-8.0469 0-12.422-3.125t-4.375-8.8906q0-4.8438 2.9062-7.3125 2.9062-2.4531 11.016-3.9688l5.9531-1.2188q11.031-2.1094 16.281-7.4062t5.25-14.172q0-10.609-7.1094-16.078-7.0938-5.4688-20.812-5.4688-5.1719 0-11.016 1.1719-5.8281 1.1719-12.078 3.4688v10.156q6-3.3594 11.766-5.0781 5.7656-1.7031 11.328-1.7031 8.4375 0 13.031 3.3125 4.5938 3.3281 4.5938 9.4844 0 5.3594-3.2969 8.3906t-10.812 4.5469l-6.0156 1.1719q-11.031 2.1875-15.969 6.875-4.9219 4.6875-4.9219 13.047 0 9.6719 6.8125 15.234t18.766 5.5625q5.1406 0 10.453-0.9375 5.3281-0.92188 10.891-2.7656z"/>
</defs>
<use xlink:href="#ao"/>
</g>
</g>
<path d="m862.97 349.02 3.8967 4.3699q1.5973 1.7913 3.3886 0.19397l5.7787-5.1529q1.7913-1.5973 0.19397-3.3886l-3.8967-4.3699q-1.5973-1.7913-3.3886-0.19397l-5.7787 5.1529q-1.7913 1.5973-0.19397 3.3886z" clip-path="url(#a)" fill="#fff" stroke="#fff"/>
<g clip-path="url(#a)">
<g transform="translate(866 346.31) rotate(48.276) scale(.08 -.08)">
<use xlink:href="#ad"/>
</g>
</g>
<path d="m741.77 421.41v33.808q0 2.4 2.4 2.4h7.7425q2.4 0 2.4-2.4v-33.808q0-2.4-2.4-2.4h-7.7425q-2.4 0-2.4 2.4z" clip-path="url(#a)" fill="#fff" stroke="#fff"/>
<g clip-path="url(#a)">
<g transform="translate(745.84 421.41) rotate(90) scale(.08 -.08)">
<use xlink:href="#e"/>
<use x="44.083984" xlink:href="#l"/>
<use x="105.607422" xlink:href="#g"/>
<use x="144.970703" xlink:href="#i"/>
<use x="242.382812" xlink:href="#k"/>
<use x="270.166016" xlink:href="#h"/>
<use x="333.544922" xlink:href="#f"/>
<use x="394.824219" xlink:href="#j"/>
</g>
</g>
<path d="m820.96 421.41v33.808q0 2.4 2.4 2.4h7.7425q2.4 0 2.4-2.4v-33.808q0-2.4-2.4-2.4h-7.7425q-2.4 0-2.4 2.4z" clip-path="url(#a)" fill="#fff" stroke="#fff"/>
<g clip-path="url(#a)">
<g transform="translate(825.02 421.41) rotate(90) scale(.08 -.08)">
<use xlink:href="#e"/>
<use x="44.083984" xlink:href="#l"/>
<use x="105.607422" xlink:href="#g"/>
<use x="144.970703" xlink:href="#i"/>
<use x="242.382812" xlink:href="#k"/>
<use x="270.166016" xlink:href="#h"/>
<use x="333.544922" xlink:href="#f"/>
<use x="394.824219" xlink:href="#j"/>
</g>
</g>
<path d="m49.988 421.41v33.808q0 2.4 2.4 2.4h7.7425q2.4 0 2.4-2.4v-33.808q0-2.4-2.4-2.4h-7.7425q-2.4 0-2.4 2.4z" clip-path="url(#a)" fill="#fff" stroke="#fff"/>
<g clip-path="url(#a)">
<g transform="translate(54.052 421.41) rotate(90) scale(.08 -.08)">
<use xlink:href="#e"/>
<use x="44.083984" xlink:href="#l"/>
<use x="105.607422" xlink:href="#g"/>
<use x="144.970703" xlink:href="#i"/>
<use x="242.382812" xlink:href="#k"/>
<use x="270.166016" xlink:href="#h"/>
<use x="333.544922" xlink:href="#f"/>
<use x="394.824219" xlink:href="#j"/>
</g>
</g>
<path d="m66.658 421.41v33.808q0 2.4 2.4 2.4h7.7425q2.4 0 2.4-2.4v-33.808q0-2.4-2.4-2.4h-7.7425q-2.4 0-2.4 2.4z" clip-path="url(#a)" fill="#fff" stroke="#fff"/>
<g clip-path="url(#a)">
<g transform="translate(70.722 421.41) rotate(90) scale(.08 -.08)">
<use xlink:href="#e"/>
<use x="44.083984" xlink:href="#l"/>
<use x="105.607422" xlink:href="#g"/>
<use x="144.970703" xlink:href="#i"/>
<use x="242.382812" xlink:href="#k"/>
<use x="270.166016" xlink:href="#h"/>
<use x="333.544922" xlink:href="#f"/>
<use x="394.824219" xlink:href="#j"/>
</g>
</g>
<path d="m170.58 306.18 2.5472-4.9408q1.0997-2.1332-1.0335-3.233l-6.8818-3.5478q-2.1332-1.0997-3.233 1.0335l-2.5472 4.9408q-1.0997 2.1332 1.0335 3.233l6.8818 3.5478q2.1332 1.0997 3.233-1.0335z" clip-path="url(#a)" fill="#fff" stroke="#fff"/>
<g clip-path="url(#a)">
<g transform="translate(166.97 304.32) rotate(-62.727) scale(.08 -.08)">
<use xlink:href="#ae"/>
</g>
</g>
<path d="m193.45 260.24 2.5712-4.8309q1.1276-2.1186-0.99101-3.2462l-6.8347-3.6377q-2.1186-1.1276-3.2462 0.99101l-2.5712 4.8309q-1.1276 2.1186 0.99101 3.2462l6.8347 3.6377q2.1186 1.1276 3.2462-0.99101z" clip-path="url(#a)" fill="#fff" stroke="#fff"/>
<g clip-path="url(#a)">
<g transform="translate(189.86 258.33) rotate(-61.976) scale(.08 -.08)">
<use xlink:href="#p"/>
</g>
</g>
<path d="m209.93 297.92 0.16708 6.1577q0.065097 2.3991 2.4642 2.334l7.7397-0.21q2.3991-0.065096 2.334-2.4642l-0.16708-6.1577q-0.065097-2.3991-2.4642-2.334l-7.7397 0.21q-2.3991 0.065096-2.334 2.4642z" clip-path="url(#a)" fill="#fff" stroke="#fff"/>
<g clip-path="url(#a)">
<g transform="translate(214 297.81) rotate(88.446) scale(.08 -.08)">
<use xlink:href="#x"/>
</g>
</g>
<path d="m230.29 299.39 1.5123 5.9715q0.58919 2.3266 2.9157 1.7374l7.5056-1.9008q2.3266-0.58919 1.7374-2.9157l-1.5123-5.9715q-0.58919-2.3266-2.9157-1.7374l-7.5056 1.9008q-2.3266 0.58919-1.7374 2.9157z" clip-path="url(#a)" fill="#fff" stroke="#fff"/>
<g clip-path="url(#a)">
<g transform="translate(234.23 298.39) rotate(75.789) scale(.08 -.08)">
<use xlink:href="#x"/>
</g>
</g>
<path d="m251.35 297.79 5.9426 11.838q1.0767 2.1449 3.2216 1.0682l7.1498-3.589q2.1449-1.0767 1.0682-3.2216l-5.9426-11.838q-1.0767-2.1449-3.2216-1.0682l-7.1498 3.589q-2.1449 1.0767-1.0682 3.2216z" clip-path="url(#a)" fill="#fff" stroke="#fff"/>
<g clip-path="url(#a)">
<g transform="translate(255.18 295.86) rotate(63.345) scale(.08 -.08)">
<defs>
<path id="ba" d="m21 76.422v-100h-8.2969v100z"/>
</defs>
<use xlink:href="#p"/>
<use x="68.408203" xlink:href="#ba"/>
<use x="102.099609" xlink:href="#ao"/>
</g>
</g>
<path d="m112.5 421.41v33.808q0 2.4 2.4 2.4h7.7425q2.4 0 2.4-2.4v-33.808q0-2.4-2.4-2.4h-7.7425q-2.4 0-2.4 2.4z" clip-path="url(#a)" fill="#fff" stroke="#fff"/>
<g clip-path="url(#a)">
<g transform="translate(116.56 421.41) rotate(90) scale(.08 -.08)">
<use xlink:href="#e"/>
<use x="44.083984" xlink:href="#l"/>
<use x="105.607422" xlink:href="#g"/>
<use x="144.970703" xlink:href="#i"/>
<use x="242.382812" xlink:href="#k"/>
<use x="270.166016" xlink:href="#h"/>
<use x="333.544922" xlink:href="#f"/>
<use x="394.824219" xlink:href="#j"/>
</g>
</g>
<path d="m161.95 350.88 0.99198-5.4695q0.42829-2.3615-1.9332-2.7898l-7.6182-1.3817q-2.3615-0.42829-2.7898 1.9332l-0.99198 5.4695q-0.42829 2.3615 1.9332 2.7898l7.6182 1.3817q2.3615 0.42829 2.7898-1.9332z" clip-path="url(#a)" fill="#fff" stroke="#fff"/>
<g clip-path="url(#a)">
<g transform="translate(157.95 350.16) rotate(-79.72) scale(.08 -.08)">
<use xlink:href="#ae"/>
</g>
</g>
<path d="m166.28 345.4 0.99689 5.4966q0.42829 2.3615 2.7898 1.9332l7.6182-1.3817q2.3615-0.42829 1.9332-2.7898l-0.99689-5.4966q-0.42829-2.3615-2.7898-1.9332l-7.6182 1.3817q-2.3615 0.42829-1.9332 2.7898z" clip-path="url(#a)" fill="#fff" stroke="#fff"/>
<g clip-path="url(#a)">
<g transform="translate(170.28 344.68) rotate(79.72) scale(.08 -.08)">
<use xlink:href="#u"/>
</g>
</g>
<path d="m212.52 421.41v33.808q0 2.4 2.4 2.4h7.7425q2.4 0 2.4-2.4v-33.808q0-2.4-2.4-2.4h-7.7425q-2.4 0-2.4 2.4z" clip-path="url(#a)" fill="#fff" stroke="#fff"/>
<g clip-path="url(#a)">
<g transform="translate(216.58 421.41) rotate(90) scale(.08 -.08)">
<use xlink:href="#e"/>
<use x="44.083984" xlink:href="#l"/>
<use x="105.607422" xlink:href="#g"/>
<use x="144.970703" xlink:href="#i"/>
<use x="242.382812" xlink:href="#k"/>
<use x="270.166016" xlink:href="#h"/>
<use x="333.544922" xlink:href="#f"/>
<use x="394.824219" xlink:href="#j"/>
</g>
</g>
<path d="m254.19 421.41v33.808q0 2.4 2.4 2.4h7.7425q2.4 0 2.4-2.4v-33.808q0-2.4-2.4-2.4h-7.7425q-2.4 0-2.4 2.4z" clip-path="url(#a)" fill="#fff" stroke="#fff"/>
<g clip-path="url(#a)">
<g transform="translate(258.25 421.41) rotate(90) scale(.08 -.08)">
<use xlink:href="#e"/>
<use x="44.083984" xlink:href="#l"/>
<use x="105.607422" xlink:href="#g"/>
<use x="144.970703" xlink:href="#i"/>
<use x="242.382812" xlink:href="#k"/>
<use x="270.166016" xlink:href="#h"/>
<use x="333.544922" xlink:href="#f"/>
<use x="394.824219" xlink:href="#j"/>
</g>
</g>
<path d="m300.03 421.41v33.808q0 2.4 2.4 2.4h7.7425q2.4 0 2.4-2.4v-33.808q0-2.4-2.4-2.4h-7.7425q-2.4 0-2.4 2.4z" clip-path="url(#a)" fill="#fff" stroke="#fff"/>
<g clip-path="url(#a)">
<g transform="translate(304.1 421.41) rotate(90) scale(.08 -.08)">
<use xlink:href="#e"/>
<use x="44.083984" xlink:href="#l"/>
<use x="105.607422" xlink:href="#g"/>
<use x="144.970703" xlink:href="#i"/>
<use x="242.382812" xlink:href="#k"/>
<use x="270.166016" xlink:href="#h"/>
<use x="333.544922" xlink:href="#f"/>
<use x="394.824219" xlink:href="#j"/>
</g>
</g>
<path d="m141.67 421.41v33.808q0 2.4 2.4 2.4h7.7425q2.4 0 2.4-2.4v-33.808q0-2.4-2.4-2.4h-7.7425q-2.4 0-2.4 2.4z" clip-path="url(#a)" fill="#fff" stroke="#fff"/>
<g clip-path="url(#a)">
<g transform="translate(145.73 421.41) rotate(90) scale(.08 -.08)">
<use xlink:href="#e"/>
<use x="44.083984" xlink:href="#l"/>
<use x="105.607422" xlink:href="#g"/>
<use x="144.970703" xlink:href="#i"/>
<use x="242.382812" xlink:href="#k"/>
<use x="270.166016" xlink:href="#h"/>
<use x="333.544922" xlink:href="#f"/>
<use x="394.824219" xlink:href="#j"/>
</g>
</g>
<path d="m175.01 421.41v33.808q0 2.4 2.4 2.4h7.7425q2.4 0 2.4-2.4v-33.808q0-2.4-2.4-2.4h-7.7425q-2.4 0-2.4 2.4z" clip-path="url(#a)" fill="#fff" stroke="#fff"/>
<g clip-path="url(#a)">
<g transform="translate(179.07 421.41) rotate(90) scale(.08 -.08)">
<use xlink:href="#e"/>
<use x="44.083984" xlink:href="#l"/>
<use x="105.607422" xlink:href="#g"/>
<use x="144.970703" xlink:href="#i"/>
<use x="242.382812" xlink:href="#k"/>
<use x="270.166016" xlink:href="#h"/>
<use x="333.544922" xlink:href="#f"/>
<use x="394.824219" xlink:href="#j"/>
</g>
</g>
<path d="m87.495 421.41v33.808q0 2.4 2.4 2.4h7.7425q2.4 0 2.4-2.4v-33.808q0-2.4-2.4-2.4h-7.7425q-2.4 0-2.4 2.4z" clip-path="url(#a)" fill="#fff" stroke="#fff"/>
<g clip-path="url(#a)">
<g transform="translate(91.559 421.41) rotate(90) scale(.08 -.08)">
<use xlink:href="#e"/>
<use x="44.083984" xlink:href="#l"/>
<use x="105.607422" xlink:href="#g"/>
<use x="144.970703" xlink:href="#i"/>
<use x="242.382812" xlink:href="#k"/>
<use x="270.166016" xlink:href="#h"/>
<use x="333.544922" xlink:href="#f"/>
<use x="394.824219" xlink:href="#j"/>
</g>
</g>
<path d="m354.21 421.41v33.808q0 2.4 2.4 2.4h7.7425q2.4 0 2.4-2.4v-33.808q0-2.4-2.4-2.4h-7.7425q-2.4 0-2.4 2.4z" clip-path="url(#a)" fill="#fff" stroke="#fff"/>
<g clip-path="url(#a)">
<g transform="translate(358.27 421.41) rotate(90) scale(.08 -.08)">
<use xlink:href="#e"/>
<use x="44.083984" xlink:href="#l"/>
<use x="105.607422" xlink:href="#g"/>
<use x="144.970703" xlink:href="#i"/>
<use x="242.382812" xlink:href="#k"/>
<use x="270.166016" xlink:href="#h"/>
<use x="333.544922" xlink:href="#f"/>
<use x="394.824219" xlink:href="#j"/>
</g>
</g>
<path d="m904.3 421.41v33.808q0 2.4 2.4 2.4h7.7425q2.4 0 2.4-2.4v-33.808q0-2.4-2.4-2.4h-7.7425q-2.4 0-2.4 2.4z" clip-path="url(#a)" fill="#fff" stroke="#fff"/>
<g clip-path="url(#a)">
<g transform="translate(908.37 421.41) rotate(90) scale(.08 -.08)">
<use xlink:href="#e"/>
<use x="44.083984" xlink:href="#l"/>
<use x="105.607422" xlink:href="#g"/>
<use x="144.970703" xlink:href="#i"/>
<use x="242.382812" xlink:href="#k"/>
<use x="270.166016" xlink:href="#h"/>
<use x="333.544922" xlink:href="#f"/>
<use x="394.824219" xlink:href="#j"/>
</g>
</g>
<defs>
<path id="b" d="m0 8.6603c2.2967 0 4.4997-0.9125 6.1237-2.5365 1.624-1.624 2.5365-3.827 2.5365-6.1237s-0.9125-4.4997-2.5365-6.1237c-1.624-1.624-3.827-2.5365-6.1237-2.5365s-4.4997 0.9125-6.1237 2.5365c-1.624 1.624-2.5365 3.827-2.5365 6.1237s0.9125 4.4997 2.5365 6.1237c1.624 1.624 3.827 2.5365 6.1237 2.5365z"/>
</defs>
<g clip-path="url(#a)" fill="#ffffff" stroke="#ffffff">
<use x="43.757576" y="483.636364" xlink:href="#b"/>
<use x="56.25974" y="483.636364" xlink:href="#b"/>
<use x="72.929293" y="483.636364" xlink:href="#b"/>
<use x="93.766234" y="483.636364" xlink:href="#b"/>
<use x="118.770563" y="483.636364" xlink:href="#b"/>
<use x="147.94228" y="483.636364" xlink:href="#b"/>
<use x="181.281385" y="483.636364" xlink:href="#b"/>
<use x="218.787879" y="483.636364" xlink:href="#b"/>
<use x="260.46176" y="483.636364" xlink:href="#b"/>
<use x="306.30303" y="483.636364" xlink:href="#b"/>
<use x="360.479076" y="483.636364" xlink:href="#b"/>
<use x="414.655123" y="483.636364" xlink:href="#b"/>
<use x="472.998557" y="483.636364" xlink:href="#b"/>
<use x="535.50938" y="483.636364" xlink:href="#b"/>
<use x="602.18759" y="483.636364" xlink:href="#b"/>
<use x="673.033189" y="483.636364" xlink:href="#b"/>
<use x="748.046176" y="483.636364" xlink:href="#b"/>
<use x="827.226551" y="483.636364" xlink:href="#b"/>
<use x="910.574315" y="483.636364" xlink:href="#b"/>
<use x="918.909091" y="301.074425" xlink:href="#b"/>
<use x="918.909091" y="392.985918" xlink:href="#b"/>
<use x="310.470418" y="208.680864" xlink:href="#b"/>
<use x="267.16431" y="23.030303" xlink:href="#b"/>
<use x="43.757576" y="392.985918" xlink:href="#b"/>
<use x="109.18557" y="115.972849" xlink:href="#b"/>
<use x="555.235017" y="115.972849" xlink:href="#b"/>
<use x="414.655123" y="392.985918" xlink:href="#b"/>
<use x="472.998557" y="392.985918" xlink:href="#b"/>
<use x="535.50938" y="392.985918" xlink:href="#b"/>
<use x="602.18759" y="392.985918" xlink:href="#b"/>
<use x="750.824435" y="208.680864" xlink:href="#b"/>
<use x="673.033189" y="392.985918" xlink:href="#b"/>
<use x="828.615681" y="301.074425" xlink:href="#b"/>
<use x="748.046176" y="392.985918" xlink:href="#b"/>
<use x="827.226551" y="392.985918" xlink:href="#b"/>
<use x="56.25974" y="392.985918" xlink:href="#b"/>
<use x="72.929293" y="392.985918" xlink:href="#b"/>
<use x="213.787013" y="208.680864" xlink:href="#b"/>
<use x="118.770563" y="392.985918" xlink:href="#b"/>
<use x="164.611833" y="301.074425" xlink:href="#b"/>
<use x="218.787879" y="392.985918" xlink:href="#b"/>
<use x="260.46176" y="392.985918" xlink:href="#b"/>
<use x="306.30303" y="392.985918" xlink:href="#b"/>
<use x="147.94228" y="392.985918" xlink:href="#b"/>
<use x="181.281385" y="392.985918" xlink:href="#b"/>
<use x="93.766234" y="392.985918" xlink:href="#b"/>
<use x="360.479076" y="392.985918" xlink:href="#b"/>
<use x="910.574315" y="392.985918" xlink:href="#b"/>
</g>
<g clip-path="url(#a)">
<g transform="translate(28 486.4) scale(.1 -.1)">
<defs>
<path id="bh" d="m9.8125 72.906h9.8594v-36.047l35.266 36.047h12.641l-28.172-28.812 29.641-44.094h-10.75l-25.281 37.547-13.344-13.625v-23.922h-9.8594z"/>
<path id="n" d="m30.609 48.391q-7.2188 0-11.422-5.6406t-4.2031-15.453 4.1719-15.453q4.1875-5.6406 11.453-5.6406 7.1875 0 11.375 5.6562 4.2031 5.6719 4.2031 15.438 0 9.7188-4.2031 15.406-4.1875 5.6875-11.375 5.6875zm0 7.6094q11.719 0 18.406-7.625 6.7031-7.6094 6.7031-21.078 0-13.422-6.7031-21.078-6.6875-7.6406-18.406-7.6406-11.766 0-18.438 7.6406-6.6562 7.6562-6.6562 21.078 0 13.469 6.6562 21.078 6.6719 7.625 18.438 7.625z"/>
<path id="ab" d="m9.0781 0v54.688h38.578v-7.1719h-29.547v-47.516z"/>
<path id="an" d="m21.625 7.1719h26.078v40.344h-18.891v-6.8438q0-20.109-5.7656-30.859zm-13.031 0q4.4375 1.9531 6.3906 6.1094 4.7969 10.297 4.7969 31.062v10.344h36.953v-47.516h7.1875v-20.984h-7.1875v13.812h-44.328v-13.812h-7.1875v20.984z"/>
<path id="q" d="m34.281 27.484q-10.891 0-15.094-2.4844t-4.2031-8.5q0-4.7812 3.1562-7.5938 3.1562-2.7969 8.5625-2.7969 7.4844 0 12 5.2969t4.5156 14.078v2zm17.922 3.7188v-31.203h-8.9844v8.2969q-3.0781-4.9688-7.6719-7.3438t-11.234-2.375q-8.3906 0-13.359 4.7188-4.9531 4.7188-4.9531 12.625 0 9.2188 6.1719 13.906 6.1875 4.6875 18.438 4.6875h12.609v0.89062q0 6.2031-4.0781 9.5938t-11.453 3.3906q-4.6875 0-9.1406-1.125-4.4375-1.125-8.5312-3.375v8.3125q4.9219 1.9062 9.5625 2.8438 4.6406 0.95312 9.0312 0.95312 11.875 0 17.734-6.1562 5.8594-6.1406 5.8594-18.641z"/>
</defs>
<use xlink:href="#bh"/>
<use x="70.996094" xlink:href="#n"/>
<use x="132.177734" xlink:href="#ab"/>
<use x="184.716797" xlink:href="#an"/>
<use x="253.857422" xlink:href="#q"/>
</g>
</g>
<g clip-path="url(#a)">
<g transform="translate(15.223 486.4) scale(.1 -.1)">
<defs>
<path id="al" d="m18.109 8.2031v-29h-9.0312v75.484h9.0312v-8.2969q2.8438 4.875 7.1562 7.2344 4.3281 2.375 10.328 2.375 9.9688 0 16.188-7.9062 6.2344-7.9062 6.2344-20.797t-6.2344-20.812q-6.2188-7.9062-16.188-7.9062-6 0-10.328 2.375-4.3125 2.375-7.1562 7.25zm30.578 19.094q0 9.9062-4.0781 15.547t-11.203 5.6406q-7.1406 0-11.219-5.6406t-4.0781-15.547 4.0781-15.547 11.219-5.6406q7.125 0 11.203 5.6406t4.0781 15.547z"/>
<path id="s" d="m48.781 52.594v-8.4062q-3.8125 2.1094-7.6406 3.1562t-7.7344 1.0469q-8.75 0-13.594-5.5469-4.8281-5.5312-4.8281-15.547t4.8281-15.562q4.8438-5.5312 13.594-5.5312 3.9062 0 7.7344 1.0469t7.6406 3.1562v-8.3125q-3.7656-1.75-7.7969-2.625-4.0156-0.89062-8.5625-0.89062-12.359 0-19.641 7.7656-7.2656 7.7656-7.2656 20.953 0 13.375 7.3438 21.031 7.3594 7.6719 20.156 7.6719 4.1406 0 8.0938-0.85938 3.9531-0.84375 7.6719-2.5469z"/>
<path id="ax" d="m9.0781 54.688h8.9375v-25.688l25.344 25.688h11.031l-20.891-21.141 23.578-33.547h-10.062l-19.375 27.594-9.625-9.7656v-17.828h-8.9375z"/>
<path id="bf" d="m34.469 29.5q6.0625-1.1719 9.4219-4.75 3.375-3.5625 3.375-8.8281 0-8.4531-6.2969-12.906-6.2969-4.4375-17.922-4.4375-3.9062 0-8.0312 0.6875t-8.5156 2.0469v8.3594q3.4688-1.8125 7.6094-2.7188 4.1562-0.89062 8.6875-0.89062 7.375 0 11.5 2.7344t4.125 7.125q0 4.2969-3.6562 6.9062t-10.344 2.6094h-7.2344v7.4219h7.5625q5.6719 0 8.9688 2.1719t3.2969 5.5938q0 3.125-3.4062 5.375-3.3906 2.25-9.1875 2.25-3.4688 0-7.4062-0.64062-3.9219-0.64062-8.6719-2.0469v8.1562q4.7969 1.1719 8.9375 1.75 4.1562 0.59375 7.8594 0.59375 9.5781 0 15.109-3.8438 5.5469-3.8281 5.5469-10.719 0-4.5312-2.9375-7.6875-2.9219-3.1406-8.3906-4.3125z"/>
<path id="at" d="m61.047 54.688h8.9844v-54.688h-8.9844zm4.5 1.3125m-22.094-39.781q0 4.3906-3.2031 6.6875-3.1875 2.2969-9.3438 2.2969h-12.797v-18.031h12.797q6.1562 0 9.3438 2.3125 3.2031 2.3281 3.2031 6.7344zm-34.375 38.469h9.0312v-22.312h13.188q10.453 0 16.094-3.9844 5.6406-3.9688 5.6406-12.172t-5.6406-12.219q-5.6406-4-16.094-4h-22.219z"/>
<path id="ac" d="m18.062 25.203v-18.031h12.797q6.1562 0 9.375 2.3125 3.2188 2.3281 3.2188 6.7344 0 4.3906-3.2188 6.6875t-9.375 2.2969zm0 22.312v-15.141h11.828q5.0781 0 8.2969 2.0156 3.2188 2.0312 3.2188 5.6562 0 3.6094-3.2188 5.5312-3.2188 1.9375-8.2969 1.9375zm-8.9844 7.1719h21.391q9.625 0 14.797-3.5156t5.1719-10.016q0-5.0156-2.6406-7.9844-2.625-2.9531-7.8125-3.6719 6.2031-1.1719 9.625-4.8906 3.4219-3.7031 3.4219-9.2812 0-7.3125-5.6406-11.328-5.6406-4-16.094-4h-22.219z"/>
<path id="am" d="m56.203 29.594v-4.3906h-41.312q0.59375-9.2812 5.5938-14.141t13.938-4.8594q5.1719 0 10.031 1.2656t9.6562 3.8125v-8.5q-4.8438-2.0469-9.9219-3.125t-10.297-1.0781q-13.094 0-20.734 7.6094-7.6406 7.625-7.6406 20.625 0 13.422 7.25 21.297 7.25 7.8906 19.562 7.8906 11.031 0 17.453-7.1094 6.4219-7.0938 6.4219-19.297zm-8.9844 2.6406q-0.09375 7.3594-4.125 11.75-4.0312 4.4062-10.672 4.4062-7.5156 0-12.031-4.25t-5.2031-11.969z"/>
<path id="bc" d="m50.25 7.1719h23.141v47.516h9.0312v-54.688h-73.344v54.688h9.0312v-47.516h23.109v47.516h9.0312z"/>
<path id="bb" d="m43.453 16.219q0 4.3906-3.2031 6.6875-3.1875 2.2969-9.3438 2.2969h-12.797v-18.031h12.797q6.1562 0 9.3438 2.3125 3.2031 2.3281 3.2031 6.7344zm-34.375 38.469h9.0312v-22.312h13.188q10.453 0 16.094-3.9844 5.6406-3.9688 5.6406-12.172t-5.6406-12.219q-5.6406-4-16.094-4h-22.219z"/>
</defs>
<use xlink:href="#al"/>
<use x="63.476562" xlink:href="#q"/>
<use x="124.755859" xlink:href="#s"/>
<use x="179.736328" xlink:href="#s"/>
<use x="234.716797" xlink:href="#ax"/>
<use x="295.117188" xlink:href="#q"/>
<use x="356.396484" xlink:href="#bf"/>
<use x="409.570312" xlink:href="#at"/>
<use x="488.525391" xlink:href="#ac"/>
<use x="547.460938" xlink:href="#q"/>
<use x="608.740234" xlink:href="#am"/>
<use x="670.263672" xlink:href="#bc"/>
<use x="761.767578" xlink:href="#bb"/>
</g>
</g>
<g clip-path="url(#a)">
<g transform="translate(65.908 486.4) scale(.1 -.1)">
<defs>
<path id="aa" d="m55.906 54.688v-54.688h-8.9375v43.891l-26.359-43.891h-11.531v54.688h8.9375v-43.797l26.328 43.797z"/>
<path id="z" d="m9.0781 54.688h13.141l15.531-36.625 15.578 36.625h13.031v-54.688h-9.0312v46.094l-15.094-35.594h-8.9844l-15.141 35.594v-46.094h-9.0312z"/>
</defs>
<use xlink:href="#aa"/>
<use x="64.990234" xlink:href="#z"/>
</g>
</g>
<g clip-path="url(#a)">
<g transform="translate(92.177 486.4) scale(.1 -.1)">
<defs>
<path id="as" d="m11.719 12.406h10.297v-8.4062l-8-15.625h-6.2969l4 15.625z"/>
</defs>
<use xlink:href="#as"/>
</g>
</g>
<g clip-path="url(#a)">
<g transform="translate(109.84 486.4) scale(.1 -.1)">
<defs>
<path id="bd" d="m41.016 0v23h-16.75q-7.4688 0-12.453 4.6406-4.4844 4.2031-4.4844 13.188v13.859h8.9844v-13.031q0-5.7188 2.5312-8.5938 2.5938-2.8906 7.6719-2.8906h14.5v24.516h8.9844v-54.688z"/>
<path id="ak" d="m2.9375 54.688h52.391v-7.1719h-21.781v-47.516h-8.8438v47.516h-21.766z"/>
</defs>
<use xlink:href="#bd"/>
<use x="59.082031" xlink:href="#ak"/>
<use x="117.333984" xlink:href="#n"/>
</g>
</g>
<g clip-path="url(#a)">
<g transform="translate(144.98 486.4) scale(.1 -.1)">
<defs>
<path id="au" d="m32.172-5.0781q-3.7969-9.7656-7.4219-12.734-3.6094-2.9844-9.6562-2.9844h-7.1875v7.5156h5.2812q3.7031 0 5.75 1.7656 2.0625 1.75 4.5469 8.2969l1.6094 4.0938-22.109 53.812h9.5156l17.094-42.766 17.094 42.766h9.5156z"/>
</defs>
<use xlink:href="#au"/>
</g>
</g>
<g clip-path="url(#a)">
<g transform="translate(169.2 486.4) scale(.1 -.1)">
<defs>
<path id="bg" d="m31.109 56q11.719 0 18.406-7.625 6.6875-7.6094 6.6875-21.078 0-13.422-6.6875-21.078-6.6875-7.6406-18.406-7.6406-11.766 0-18.266 7.4219t-6.8438 21.297l-0.28125 11.188q-0.25 5.7969-0.25 7.8125 0 7.8125 2.8281 13.562 4.4531 9.0312 12.141 12.938t20.578 4.0156q5.9531 0.046875 8.5938 0.875l2.4844-7.125q-2.3906-0.98438-4.5781-1.0312l-12.219-0.82812q-6.1406-0.4375-9.8594-2.5938-9.7188-5.7031-10.641-13.172l-0.34375-2.7344q6.3438 5.7969 16.656 5.7969zm0-7.6094q-7.2344 0-11.438-5.6406-4.1875-5.6406-4.1875-15.453t4.1719-15.453 11.453-5.6406q7.1719 0 11.375 5.6562 4.2031 5.6719 4.2031 15.438 0 9.7188-4.2031 15.406t-11.375 5.6875z"/>
<path id="y" d="m18.453 38.922q0-4.0625 3.125-6.3594 3.125-2.2812 8.9375-2.2812h12.109v17.234h-12.109q-5.8125 0-8.9375-2.25t-3.125-6.3438zm-12.781-38.922 16.688 23.969q-5.6562 1.2812-9.4219 4.625-3.75 3.3438-3.75 10.328 0 7.9062 5.2344 11.828 5.25 3.9375 15.859 3.9375h21.375v-54.688h-9.0312v23.094h-11.172l-16.125-23.094z"/>
</defs>
<use xlink:href="#ak"/>
<use x="58.251953" xlink:href="#am"/>
<use x="119.775391" xlink:href="#bg"/>
<use x="181.445312" xlink:href="#y"/>
</g>
</g>
<g clip-path="url(#a)">
<g transform="translate(194.3 486.4) scale(.1 -.1)">
<defs>
<path id="av" d="m56.297 54.688v-54.688h-9.0312v47.516h-29.156v-47.516h-9.0312v54.688z"/>
<path id="aw" d="m3.7188 0v7.4688q8.875 1.375 11.609 7.5156 3.3281 8.6562 3.3281 30.766v8.9375h36.953v-54.688h-8.9844v47.516h-18.984v-5.4219q0-21.094-4.2969-30.562-4.5938-10.109-19.625-11.531z"/>
</defs>
<use xlink:href="#av"/>
<use x="65.380859" xlink:href="#n"/>
<use x="126.5625" xlink:href="#y"/>
<use x="186.71875" xlink:href="#ac"/>
<use x="245.654297" xlink:href="#aa"/>
<use x="310.644531" xlink:href="#aw"/>
<use x="374.560547" xlink:href="#s"/>
<use x="429.541016" xlink:href="#y"/>
</g>
</g>
<g clip-path="url(#a)">
<g transform="translate(243.99 486.4) scale(.1 -.1)">
<defs>
<path id="v" d="m9.0781 54.688h9.0312v-22.312h29.156v22.312h9.0312v-54.688h-9.0312v25.203h-29.156v-25.203h-9.0312z"/>
<path id="be" d="m55.906 54.688v-54.688h-8.9375v43.891l-26.359-43.891h-11.531v54.688h8.9375v-43.797l26.328 43.797zm-38.688 20.828h5.7656q0.53125-3.6562 2.8906-5.5 2.375-1.8281 6.625-1.8281 4.2031 0 6.5469 1.8125t2.9688 5.5156h5.7656q-0.48438-6.9844-4.3438-10.5t-10.938-3.5156-10.938 3.5156-4.3438 10.5z"/>
</defs>
<use xlink:href="#v"/>
<use x="65.380859" xlink:href="#n"/>
<use x="126.5625" xlink:href="#ac"/>
<use x="185.498047" xlink:href="#at"/>
<use x="264.453125" xlink:href="#be"/>
</g>
</g>
<g clip-path="url(#a)">
<g transform="translate(294.09 486.4) scale(.1 -.1)">
<use xlink:href="#an"/>
<use x="69.140625" xlink:href="#al"/>
<use x="132.617188" xlink:href="#au"/>
<use x="191.796875" xlink:href="#ab"/>
</g>
</g>
<g clip-path="url(#a)">
<g transform="translate(358.89 486.4) scale(.1 -.1)">
<use xlink:href="#as"/>
</g>
</g>
<g clip-path="url(#a)">
<g transform="translate(405.08 486.4) scale(.1 -.1)">
<use xlink:href="#n"/>
<use x="61.181641" xlink:href="#v"/>
<use x="126.5625" xlink:href="#aa"/>
</g>
</g>
<g clip-path="url(#a)">
<g transform="translate(451.25 486.4) scale(.1 -.1)">
<use xlink:href="#v"/>
<use x="65.380859" xlink:href="#aa"/>
<use x="130.371094" xlink:href="#ax"/>
<use x="190.771484" xlink:href="#n"/>
<use x="251.953125" xlink:href="#ab"/>
<use x="304.492188" xlink:href="#an"/>
<use x="373.632812" xlink:href="#q"/>
</g>
</g>
<g clip-path="url(#a)">
<g transform="translate(529.16 486.4) scale(.1 -.1)">
<use xlink:href="#v"/>
<use x="65.380859" xlink:href="#am"/>
</g>
</g>
<g clip-path="url(#a)">
<g transform="translate(581.27 486.4) scale(.1 -.1)">
<use xlink:href="#s"/>
<use x="54.980469" xlink:href="#av"/>
<use x="120.361328" xlink:href="#al"/>
<use x="183.837891" xlink:href="#n"/>
<use x="245.019531" xlink:href="#s"/>
<use x="300" xlink:href="#y"/>
<use x="360.15625" xlink:href="#ak"/>
</g>
</g>
<g clip-path="url(#a)">
<g transform="translate(669.97 486.4) scale(.1 -.1)">
<use xlink:href="#n"/>
</g>
</g>
<g clip-path="url(#a)">
<g transform="translate(731.63 486.4) scale(.1 -.1)">
<use xlink:href="#s"/>
<use x="54.980469" xlink:href="#q"/>
<use x="116.259766" xlink:href="#z"/>
<use x="191.699219" xlink:href="#n"/>
<use x="252.880859" xlink:href="#z"/>
</g>
</g>
<g clip-path="url(#a)">
<g transform="translate(805.29 486.4) scale(.1 -.1)">
<use xlink:href="#ab"/>
<use x="52.539062" xlink:href="#aw"/>
<use x="116.455078" xlink:href="#q"/>
<use x="177.734375" xlink:href="#ac"/>
<use x="236.669922" xlink:href="#v"/>
<use x="302.050781" xlink:href="#n"/>
<use x="363.232422" xlink:href="#z"/>
</g>
</g>
<g clip-path="url(#a)">
<g transform="translate(908.99 486.4) scale(.1 -.1)">
<defs>
<path id="d" d="m10.688 12.406h10.312v-12.406h-10.312z"/>
</defs>
<use xlink:href="#d"/>
</g>
</g>
<g clip-path="url(#a)">
<g transform="translate(897.82 303.83) scale(.1 -.1)">
<defs>
<path id="o" d="m9.8125 72.906h9.8594v-72.906h-9.8594z"/>
<path id="af" d="m9.8125 72.906h14.703l18.594-49.609 18.703 49.609h14.703v-72.906h-9.625v64.016l-18.797-50h-9.9062l-18.797 50v-64.016h-9.5781z"/>
</defs>
<use xlink:href="#o"/>
<use x="29.492188" xlink:href="#af"/>
<use x="115.771484" xlink:href="#t"/>
<use x="176.074219" xlink:href="#w"/>
<use x="231.787109" xlink:href="#o"/>
<use x="261.279297" xlink:href="#u"/>
<use x="331.103516" xlink:href="#o"/>
<use x="360.595703" xlink:href="#e"/>
</g>
</g>
<g clip-path="url(#a)">
<g transform="translate(897.82 395.75) scale(.1 -.1)">
<use xlink:href="#o"/>
<use x="29.492188" xlink:href="#af"/>
<use x="115.771484" xlink:href="#t"/>
<use x="176.074219" xlink:href="#w"/>
<use x="231.787109" xlink:href="#o"/>
<use x="261.279297" xlink:href="#u"/>
<use x="331.103516" xlink:href="#o"/>
<use x="360.595703" xlink:href="#e"/>
</g>
</g>
<g clip-path="url(#a)">
<g transform="translate(289.39 211.44) scale(.1 -.1)">
<use xlink:href="#o"/>
<use x="29.492188" xlink:href="#af"/>
<use x="115.771484" xlink:href="#t"/>
<use x="176.074219" xlink:href="#w"/>
<use x="231.787109" xlink:href="#o"/>
<use x="261.279297" xlink:href="#u"/>
<use x="331.103516" xlink:href="#o"/>
<use x="360.595703" xlink:href="#e"/>
</g>
</g>
<g clip-path="url(#a)">
<g transform="translate(259.21 25.79) scale(.1 -.1)">
<defs>
<path id="c" d="m12.406 8.2969h16.109v55.625l-17.531-3.5156v8.9844l17.438 3.5156h9.8594v-64.609h16.109v-8.2969h-41.984z"/>
</defs>
<use xlink:href="#c"/>
<use x="63.623047" xlink:href="#d"/>
<use x="95.410156" xlink:href="#c"/>
</g>
</g>
<g clip-path="url(#a)">
<g transform="translate(35.806 395.75) scale(.1 -.1)">
<defs>
<path id="m" d="m19.188 8.2969h34.422v-8.2969h-46.281v8.2969q5.6094 5.8125 15.297 15.594 9.7031 9.7969 12.188 12.641 4.7344 5.3125 6.6094 9 1.8906 3.6875 1.8906 7.25 0 5.8125-4.0781 9.4688-4.0781 3.6719-10.625 3.6719-4.6406 0-9.7969-1.6094-5.1406-1.6094-11-4.8906v9.9688q5.9531 2.3906 11.125 3.6094 5.1875 1.2188 9.4844 1.2188 11.328 0 18.062-5.6719 6.7344-5.6562 6.7344-15.125 0-4.5-1.6875-8.5312-1.6719-4.0156-6.125-9.4844-1.2188-1.4219-7.7656-8.1875-6.5312-6.7656-18.453-18.922z"/>
</defs>
<use xlink:href="#c"/>
<use x="63.623047" xlink:href="#d"/>
<use x="95.410156" xlink:href="#m"/>
</g>
</g>
<g clip-path="url(#a)">
<g transform="translate(101.23 118.73) scale(.1 -.1)">
<defs>
<path id="r" d="m40.578 39.312q7.0781-1.5156 11.047-6.3125 3.9844-4.7812 3.9844-11.812 0-10.781-7.4219-16.703-7.4219-5.9062-21.094-5.9062-4.5781 0-9.4375 0.90625t-10.031 2.7188v9.5156q4.0938-2.3906 8.9688-3.6094 4.8906-1.2188 10.219-1.2188 9.2656 0 14.125 3.6562t4.8594 10.641q0 6.4531-4.5156 10.078-4.5156 3.6406-12.562 3.6406h-8.5v8.1094h8.8906q7.2656 0 11.125 2.9062t3.8594 8.375q0 5.6094-3.9844 8.6094-3.9688 3.0156-11.391 3.0156-4.0625 0-8.7031-0.89062-4.6406-0.875-10.203-2.7188v8.7812q5.625 1.5625 10.531 2.3438t9.25 0.78125q11.234 0 17.766-5.1094 6.5469-5.0938 6.5469-13.781 0-6.0625-3.4688-10.234t-9.8594-5.7812z"/>
</defs>
<use xlink:href="#c"/>
<use x="63.623047" xlink:href="#d"/>
<use x="95.410156" xlink:href="#r"/>
</g>
</g>
<g clip-path="url(#a)">
<g transform="translate(547.28 118.73) scale(.1 -.1)">
<defs>
<path id="ai" d="m37.797 64.312-24.906-38.922h24.906zm-2.5938 8.5938h12.406v-47.516h10.406v-8.2031h-10.406v-17.188h-9.8125v17.188h-32.906v9.5156z"/>
</defs>
<use xlink:href="#c"/>
<use x="63.623047" xlink:href="#d"/>
<use x="95.410156" xlink:href="#ai"/>
</g>
</g>
<g clip-path="url(#a)">
<g transform="translate(406.7 395.75) scale(.1 -.1)">
<defs>
<path id="ah" d="m8.2031 72.906h46.875v-4.2031l-26.469-68.703h-10.297l24.906 64.594h-35.016z"/>
</defs>
<use xlink:href="#c"/>
<use x="63.623047" xlink:href="#d"/>
<use x="95.410156" xlink:href="#ah"/>
</g>
</g>
<g clip-path="url(#a)">
<g transform="translate(465.05 395.75) scale(.1 -.1)">
<defs>
<path id="aq" d="m31.781 34.625q-7.0312 0-11.062-3.7656-4.0156-3.7656-4.0156-10.344 0-6.5938 4.0156-10.359 4.0312-3.7656 11.062-3.7656t11.078 3.7812q4.0625 3.7969 4.0625 10.344 0 6.5781-4.0312 10.344-4.0156 3.7656-11.109 3.7656zm-9.8594 4.1875q-6.3438 1.5625-9.8906 5.9062-3.5312 4.3594-3.5312 10.609 0 8.7344 6.2188 13.812 6.2344 5.0781 17.062 5.0781 10.891 0 17.094-5.0781t6.2031-13.812q0-6.25-3.5469-10.609-3.5312-4.3438-9.8281-5.9062 7.125-1.6562 11.094-6.5 3.9844-4.8281 3.9844-11.797 0-10.609-6.4688-16.281-6.4688-5.6562-18.531-5.6562-12.047 0-18.531 5.6562-6.4688 5.6719-6.4688 16.281 0 6.9688 4 11.797 4.0156 4.8438 11.141 6.5zm-3.6094 15.578q0-5.6562 3.5312-8.8281 3.5469-3.1719 9.9375-3.1719 6.3594 0 9.9375 3.1719 3.5938 3.1719 3.5938 8.8281 0 5.6719-3.5938 8.8438-3.5781 3.1719-9.9375 3.1719-6.3906 0-9.9375-3.1719-3.5312-3.1719-3.5312-8.8438z"/>
</defs>
<use xlink:href="#c"/>
<use x="63.623047" xlink:href="#d"/>
<use x="95.410156" xlink:href="#aq"/>
</g>
</g>
<g clip-path="url(#a)">
<g transform="translate(527.56 395.75) scale(.1 -.1)">
<defs>
<path id="ag" d="m10.984 1.5156v8.9844q3.7188-1.7656 7.5156-2.6875 3.8125-0.92188 7.4844-0.92188 9.7656 0 14.906 6.5625 5.1562 6.5625 5.8906 19.953-2.8281-4.2031-7.1875-6.4531-4.3438-2.25-9.6094-2.25-10.938 0-17.312 6.6094-6.375 6.625-6.375 18.109 0 11.219 6.6406 18 6.6406 6.7969 17.672 6.7969 12.656 0 19.312-9.7031 6.6719-9.6875 6.6719-28.141 0-17.234-8.1875-27.516-8.1719-10.281-21.984-10.281-3.7188 0-7.5312 0.73438-3.7969 0.73438-7.9062 2.2031zm19.625 30.906q6.6406 0 10.516 4.5312 3.8906 4.5469 3.8906 12.469 0 7.8594-3.8906 12.422-3.875 4.5625-10.516 4.5625t-10.516-4.5625-3.875-12.422q0-7.9219 3.875-12.469 3.875-4.5312 10.516-4.5312z"/>
</defs>
<use xlink:href="#c"/>
<use x="63.623047" xlink:href="#d"/>
<use x="95.410156" xlink:href="#ag"/>
</g>
</g>
<g clip-path="url(#a)">
<g transform="translate(591.05 395.75) scale(.1 -.1)">
<defs>
<path id="aj" d="m31.781 66.406q-7.6094 0-11.453-7.5-3.8281-7.4844-3.8281-22.531 0-14.984 3.8281-22.484 3.8438-7.5 11.453-7.5 7.6719 0 11.5 7.5 3.8438 7.5 3.8438 22.484 0 15.047-3.8438 22.531-3.8281 7.5-11.5 7.5zm0 7.8125q12.266 0 18.734-9.7031 6.4688-9.6875 6.4688-28.141 0-18.406-6.4688-28.109-6.4688-9.6875-18.734-9.6875-12.25 0-18.719 9.6875-6.4688 9.7031-6.4688 28.109 0 18.453 6.4688 28.141 6.4688 9.7031 18.719 9.7031z"/>
</defs>
<use xlink:href="#c"/>
<use x="63.623047" xlink:href="#d"/>
<use x="95.410156" xlink:href="#c"/>
<use x="159.033203" xlink:href="#aj"/>
</g>
</g>
<g clip-path="url(#a)">
<g transform="translate(739.69 211.44) scale(.1 -.1)">
<use xlink:href="#c"/>
<use x="63.623047" xlink:href="#d"/>
<use x="95.410156" xlink:href="#c"/>
<use x="159.033203" xlink:href="#c"/>
</g>
</g>
<g clip-path="url(#a)">
<g transform="translate(661.9 395.75) scale(.1 -.1)">
<use xlink:href="#c"/>
<use x="63.623047" xlink:href="#d"/>
<use x="95.410156" xlink:href="#c"/>
<use x="159.033203" xlink:href="#r"/>
</g>
</g>
<g clip-path="url(#a)">
<g transform="translate(817.48 303.83) scale(.1 -.1)">
<use xlink:href="#c"/>
<use x="63.623047" xlink:href="#d"/>
<use x="95.410156" xlink:href="#c"/>
<use x="159.033203" xlink:href="#ai"/>
</g>
</g>
<g clip-path="url(#a)">
<g transform="translate(736.91 395.75) scale(.1 -.1)">
<defs>
<path id="ar" d="m33.016 40.375q-6.6406 0-10.531-4.5469-3.875-4.5312-3.875-12.438 0-7.8594 3.875-12.438 3.8906-4.5625 10.531-4.5625t10.516 4.5625q3.875 4.5781 3.875 12.438 0 7.9062-3.875 12.438-3.875 4.5469-10.516 4.5469zm19.578 30.922v-8.9844q-3.7188 1.75-7.5 2.6719-3.7812 0.9375-7.5 0.9375-9.7656 0-14.922-6.5938-5.1406-6.5938-5.875-19.922 2.875 4.25 7.2188 6.5156 4.3594 2.2656 9.5781 2.2656 10.984 0 17.359-6.6719 6.375-6.6562 6.375-18.125 0-11.234-6.6406-18.031-6.6406-6.7812-17.672-6.7812-12.656 0-19.344 9.6875-6.6875 9.7031-6.6875 28.109 0 17.281 8.2031 27.562t22.016 10.281q3.7188 0 7.5-0.73438t7.8906-2.1875z"/>
</defs>
<use xlink:href="#c"/>
<use x="63.623047" xlink:href="#d"/>
<use x="95.410156" xlink:href="#c"/>
<use x="159.033203" xlink:href="#ar"/>
</g>
</g>
<g clip-path="url(#a)">
<g transform="translate(816.09 395.75) scale(.1 -.1)">
<use xlink:href="#c"/>
<use x="63.623047" xlink:href="#d"/>
<use x="95.410156" xlink:href="#c"/>
<use x="159.033203" xlink:href="#ah"/>
</g>
</g>
<g clip-path="url(#a)">
<g transform="translate(45.127 395.75) scale(.1 -.1)">
<use xlink:href="#c"/>
<use x="63.623047" xlink:href="#d"/>
<use x="95.410156" xlink:href="#c"/>
<use x="159.033203" xlink:href="#ag"/>
</g>
</g>
<g clip-path="url(#a)">
<g transform="translate(61.796 395.75) scale(.1 -.1)">
<use xlink:href="#c"/>
<use x="63.623047" xlink:href="#d"/>
<use x="95.410156" xlink:href="#m"/>
<use x="159.033203" xlink:href="#aj"/>
</g>
</g>
<g clip-path="url(#a)">
<g transform="translate(202.65 211.44) scale(.1 -.1)">
<use xlink:href="#c"/>
<use x="63.623047" xlink:href="#d"/>
<use x="95.410156" xlink:href="#m"/>
<use x="159.033203" xlink:href="#c"/>
</g>
</g>
<g clip-path="url(#a)">
<g transform="translate(107.64 395.75) scale(.1 -.1)">
<use xlink:href="#c"/>
<use x="63.623047" xlink:href="#d"/>
<use x="95.410156" xlink:href="#m"/>
<use x="159.033203" xlink:href="#r"/>
</g>
</g>
<g clip-path="url(#a)">
<g transform="translate(153.48 303.83) scale(.1 -.1)">
<use xlink:href="#c"/>
<use x="63.623047" xlink:href="#d"/>
<use x="95.410156" xlink:href="#m"/>
<use x="159.033203" xlink:href="#ai"/>
</g>
</g>
<g clip-path="url(#a)">
<g transform="translate(207.66 395.75) scale(.1 -.1)">
<defs>
<path id="az" d="m10.797 72.906h38.719v-8.3125h-29.688v-17.859q2.1406 0.73438 4.2812 1.0938 2.1562 0.35938 4.3125 0.35938 12.203 0 19.328-6.6875 7.1406-6.6875 7.1406-18.109 0-11.766-7.3281-18.297-7.3281-6.5156-20.656-6.5156-4.5938 0-9.3594 0.78125-4.75 0.78125-9.8281 2.3438v9.9219q4.3906-2.3906 9.0781-3.5625t9.9062-1.1719q8.4531 0 13.375 4.4375 4.9375 4.4375 4.9375 12.062 0 7.6094-4.9375 12.047-4.9219 4.4531-13.375 4.4531-3.9531 0-7.8906-0.875-3.9219-0.875-8.0156-2.7344z"/>
</defs>
<use xlink:href="#c"/>
<use x="63.623047" xlink:href="#d"/>
<use x="95.410156" xlink:href="#m"/>
<use x="159.033203" xlink:href="#az"/>
</g>
</g>
<g clip-path="url(#a)">
<g transform="translate(249.33 395.75) scale(.1 -.1)">
<use xlink:href="#c"/>
<use x="63.623047" xlink:href="#d"/>
<use x="95.410156" xlink:href="#m"/>
<use x="159.033203" xlink:href="#ar"/>
</g>
</g>
<g clip-path="url(#a)">
<g transform="translate(295.17 395.75) scale(.1 -.1)">
<use xlink:href="#c"/>
<use x="63.623047" xlink:href="#d"/>
<use x="95.410156" xlink:href="#m"/>
<use x="159.033203" xlink:href="#ah"/>
</g>
</g>
<g clip-path="url(#a)">
<g transform="translate(136.81 395.75) scale(.1 -.1)">
<use xlink:href="#c"/>
<use x="63.623047" xlink:href="#d"/>
<use x="95.410156" xlink:href="#m"/>
<use x="159.033203" xlink:href="#aq"/>
</g>
</g>
<g clip-path="url(#a)">
<g transform="translate(170.15 395.75) scale(.1 -.1)">
<use xlink:href="#c"/>
<use x="63.623047" xlink:href="#d"/>
<use x="95.410156" xlink:href="#m"/>
<use x="159.033203" xlink:href="#ag"/>
</g>
</g>
<g clip-path="url(#a)">
<g transform="translate(82.633 395.75) scale(.1 -.1)">
<use xlink:href="#c"/>
<use x="63.623047" xlink:href="#d"/>
<use x="95.410156" xlink:href="#r"/>
<use x="159.033203" xlink:href="#aj"/>
</g>
</g>
<g clip-path="url(#a)">
<g transform="translate(349.35 395.75) scale(.1 -.1)">
<use xlink:href="#c"/>
<use x="63.623047" xlink:href="#d"/>
<use x="95.410156" xlink:href="#r"/>
<use x="159.033203" xlink:href="#c"/>
</g>
</g>
<g clip-path="url(#a)">
<g transform="translate(899.44 395.75) scale(.1 -.1)">
<use xlink:href="#c"/>
<use x="63.623047" xlink:href="#d"/>
<use x="95.410156" xlink:href="#r"/>
<use x="159.033203" xlink:href="#m"/>
</g>
</g>
<defs>
<clipPath id="a">
<rect width="962.67" height="506.67"/>
</clipPath>
</defs>
</svg>
