<?xml version="1.0" encoding="UTF-8"?>
<!DOCTYPE svg  PUBLIC '-//W3C//DTD SVG 1.1//EN'  'http://www.w3.org/Graphics/SVG/1.1/DTD/svg11.dtd'>
<svg width="912pt" height="480pt" version="1.1" viewBox="0 0 912 480" xmlns="http://www.w3.org/2000/svg" xmlns:xlink="http://www.w3.org/1999/xlink">
<metadata>
<rdf:RDF xmlns:cc="http://creativecommons.org/ns#" xmlns:dc="http://purl.org/dc/elements/1.1/" xmlns:rdf="http://www.w3.org/1999/02/22-rdf-syntax-ns#">
<cc:Work>
<dc:type rdf:resource="http://purl.org/dc/dcmitype/StillImage"/>
<dc:date>2021-01-21T01:16:17.643975</dc:date>
<dc:format>image/svg+xml</dc:format>
<dc:creator>
<cc:Agent>
<dc:title>Matplotlib v3.3.3, https://matplotlib.org/</dc:title>
</cc:Agent>
</dc:creator>
</cc:Work>
</rdf:RDF>
</metadata>
<defs>
<style type="text/css">*{stroke-linecap:butt;stroke-linejoin:round;}</style>
</defs>
<path d="m0 480h912v-480h-912z" fill="#fff"/>
<g fill="none" stroke="#000">
<path d="m94.809 21.818-53.355 350.48" clip-path="url(#a)"/>
<path d="m94.809 21.818 53.355 88.051" clip-path="url(#a)"/>
<path d="m41.455 372.3v85.879" clip-path="url(#a)"/>
<path d="m148.16 109.87-93.479 262.43" clip-path="url(#a)"/>
<path d="m148.16 109.87-75.839 262.43" clip-path="url(#a)"/>
<path d="m148.16 109.87-53.789 262.43" clip-path="url(#a)"/>
<path d="m148.16 109.87 246.89 87.829" clip-path="url(#a)"/>
<path d="m148.16 109.87 722.38 87.829" clip-path="url(#a)"/>
<path d="m148.16 109.87-27.328 262.43" clip-path="url(#a)"/>
<path d="m148.16 109.87 3.542 262.43" clip-path="url(#a)"/>
<path d="m54.685 372.3v85.879" clip-path="url(#a)"/>
<path d="m72.325 372.3v85.879" clip-path="url(#a)"/>
<path d="m94.375 372.3v85.879" clip-path="url(#a)"/>
<path d="m395.06 197.7 169.3 87.531" clip-path="url(#a)"/>
<path d="m395.06 197.7-75.769 174.6" clip-path="url(#a)"/>
<path d="m395.06 197.7-65.479 87.531" clip-path="url(#a)"/>
<path d="m395.06 197.7-124.28 174.6" clip-path="url(#a)"/>
<path d="m395.06 197.7 96.223 174.6" clip-path="url(#a)"/>
<path d="m564.36 285.23-377.37 87.074" clip-path="url(#a)"/>
<path d="m564.36 285.23-337.68 87.074" clip-path="url(#a)"/>
<path d="m564.36 285.23-6.9301 87.074" clip-path="url(#a)"/>
<path d="m564.36 285.23 63.631 87.074" clip-path="url(#a)"/>
<path d="m564.36 285.23 138.6 87.074" clip-path="url(#a)"/>
<path d="m564.36 285.23 217.98 87.074" clip-path="url(#a)"/>
<path d="m564.36 285.23 301.77 87.074" clip-path="url(#a)"/>
<path d="m319.29 372.3v85.879" clip-path="url(#a)"/>
<path d="m329.58 285.23 42.631 87.074" clip-path="url(#a)"/>
<path d="m329.58 285.23 99.961 87.074" clip-path="url(#a)"/>
<path d="m329.58 285.23-142.59 87.074" clip-path="url(#a)" stroke-dasharray="3.7,1.6"/>
<path d="m372.21 372.3v85.879" clip-path="url(#a)"/>
<path d="m429.54 372.3v85.879" clip-path="url(#a)"/>
<path d="m186.99 372.3v85.879" clip-path="url(#a)"/>
<path d="m226.68 372.3v85.879" clip-path="url(#a)"/>
<path d="m557.43 372.3v85.879" clip-path="url(#a)"/>
<path d="m627.99 372.3v85.879" clip-path="url(#a)"/>
<path d="m702.96 372.3v85.879" clip-path="url(#a)"/>
<path d="m120.84 372.3v85.879" clip-path="url(#a)"/>
<path d="m151.71 372.3v85.879" clip-path="url(#a)"/>
<path d="m270.78 372.3v85.879" clip-path="url(#a)"/>
<path d="m491.28 372.3v85.879" clip-path="url(#a)"/>
<path d="m782.34 372.3v85.879" clip-path="url(#a)"/>
<path d="m866.14 372.3v85.879" clip-path="url(#a)"/>
</g>
<path d="m73.996 200.21 0.67084-4.4067q0.36119-2.3727-2.0115-2.7339l-7.6543-1.1652q-2.3727-0.36119-2.7339 2.0115l-0.67084 4.4067q-0.36119 2.3727 2.0115 2.7339l7.6543 1.1652q2.3727 0.36119 2.7339-2.0115z" clip-path="url(#a)" fill="#fff" stroke="#fff"/>
<g clip-path="url(#a)">
<g transform="translate(69.979 199.6) rotate(-81.344) scale(.08 -.08)">
<defs>
<path id="x" d="m9.8125 72.906h9.8594v-64.609h35.5v-8.2969h-45.359z"/>
</defs>
<use xlink:href="#x"/>
</g>
</g>
<path d="m114.56 66.521 3.1178 5.1453q1.2438 2.0526 3.2963 0.80881l6.6217-4.0124q2.0526-1.2438 0.80881-3.2963l-3.1178-5.1453q-1.2438-2.0526-3.2963-0.80881l-6.6217 4.0124q-2.0526 1.2438-0.80881 3.2963z" clip-path="url(#a)" fill="#fff" stroke="#fff"/>
<g clip-path="url(#a)">
<g transform="translate(118.04 64.415) rotate(58.786) scale(.08 -.08)">
<defs>
<path id="z" d="m9.8125 72.906h9.8594v-29.891h35.844v29.891h9.8594v-72.906h-9.8594v34.719h-35.844v-34.719h-9.8594z"/>
</defs>
<use xlink:href="#z"/>
</g>
</g>
<path d="m35.183 398.34v33.808q0 2.4 2.4 2.4h7.7425q2.4 0 2.4-2.4v-33.808q0-2.4-2.4-2.4h-7.7425q-2.4 0-2.4 2.4z" clip-path="url(#a)" fill="#fff" stroke="#fff"/>
<g clip-path="url(#a)">
<g transform="translate(39.247 398.34) rotate(90) scale(.08 -.08)">
<defs>
<path id="e" d="m-0.29688 72.906h61.672v-8.3125h-25.875v-64.594h-9.9062v64.594h-25.891z"/>
<path id="l" d="m56.203 29.594v-4.3906h-41.312q0.59375-9.2812 5.5938-14.141t13.938-4.8594q5.1719 0 10.031 1.2656t9.6562 3.8125v-8.5q-4.8438-2.0469-9.9219-3.125t-10.297-1.0781q-13.094 0-20.734 7.6094-7.6406 7.625-7.6406 20.625 0 13.422 7.25 21.297 7.25 7.8906 19.562 7.8906 11.031 0 17.453-7.1094 6.4219-7.0938 6.4219-19.297zm-8.9844 2.6406q-0.09375 7.3594-4.125 11.75-4.0312 4.4062-10.672 4.4062-7.5156 0-12.031-4.25t-5.2031-11.969z"/>
<path id="g" d="m41.109 46.297q-1.5156 0.875-3.2969 1.2812-1.7812 0.42188-3.9219 0.42188-7.625 0-11.703-4.9531t-4.0781-14.234v-28.812h-9.0312v54.688h9.0312v-8.5q2.8438 4.9844 7.375 7.3906 4.5469 2.4219 11.047 2.4219 0.92188 0 2.0469-0.125 1.125-0.10938 2.4844-0.35938z"/>
<path id="i" d="m52 44.188q3.375 6.0625 8.0625 8.9375t11.031 2.875q8.5469 0 13.188-5.9844 4.6406-5.9688 4.6406-17v-33.016h-9.0312v32.719q0 7.8594-2.7969 11.656-2.7812 3.8125-8.4844 3.8125-6.9844 0-11.047-4.6406-4.0469-4.625-4.0469-12.641v-30.906h-9.0312v32.719q0 7.9062-2.7812 11.688t-8.5938 3.7812q-6.8906 0-10.953-4.6562-4.0469-4.6562-4.0469-12.625v-30.906h-9.0312v54.688h9.0312v-8.5q3.0781 5.0312 7.375 7.4219t10.203 2.3906q5.9688 0 10.141-3.0312 4.1719-3.0156 6.1719-8.7812z"/>
<path id="k" d="m9.4219 54.688h8.9844v-54.688h-8.9844zm0 21.297h8.9844v-11.391h-8.9844z"/>
<path id="h" d="m54.891 33.016v-33.016h-8.9844v32.719q0 7.7656-3.0312 11.609-3.0312 3.8594-9.0781 3.8594-7.2812 0-11.484-4.6406-4.2031-4.625-4.2031-12.641v-30.906h-9.0312v54.688h9.0312v-8.5q3.2344 4.9375 7.5938 7.375 4.375 2.4375 10.094 2.4375 9.4219 0 14.25-5.8281 4.8438-5.8281 4.8438-17.156z"/>
<path id="f" d="m34.281 27.484q-10.891 0-15.094-2.4844t-4.2031-8.5q0-4.7812 3.1562-7.5938 3.1562-2.7969 8.5625-2.7969 7.4844 0 12 5.2969t4.5156 14.078v2zm17.922 3.7188v-31.203h-8.9844v8.2969q-3.0781-4.9688-7.6719-7.3438t-11.234-2.375q-8.3906 0-13.359 4.7188-4.9531 4.7188-4.9531 12.625 0 9.2188 6.1719 13.906 6.1875 4.6875 18.438 4.6875h12.609v0.89062q0 6.2031-4.0781 9.5938t-11.453 3.3906q-4.6875 0-9.1406-1.125-4.4375-1.125-8.5312-3.375v8.3125q4.9219 1.9062 9.5625 2.8438 4.6406 0.95312 9.0312 0.95312 11.875 0 17.734-6.1562 5.8594-6.1406 5.8594-18.641z"/>
<path id="j" d="m9.4219 75.984h8.9844v-75.984h-8.9844z"/>
</defs>
<use xlink:href="#e"/>
<use x="44.083984" xlink:href="#l"/>
<use x="105.607422" xlink:href="#g"/>
<use x="144.970703" xlink:href="#i"/>
<use x="242.382812" xlink:href="#k"/>
<use x="270.166016" xlink:href="#h"/>
<use x="333.544922" xlink:href="#f"/>
<use x="394.824219" xlink:href="#j"/>
</g>
</g>
<path d="m106.51 245.49 1.6396-4.603q0.80532-2.2609-1.4555-3.0662l-7.2936-2.598q-2.2609-0.80532-3.0662 1.4555l-1.6396 4.603q-0.80532 2.2609 1.4555 3.0662l7.2936 2.598q2.2609 0.80532 3.0662-1.4555z" clip-path="url(#a)" fill="#fff" stroke="#fff"/>
<g clip-path="url(#a)">
<g transform="translate(102.68 244.13) rotate(-70.394) scale(.08 -.08)">
<use xlink:href="#e"/>
</g>
</g>
<path d="m115.6 245.14 1.3392-4.6341q0.6663-2.3057-1.6394-2.972l-7.4381-2.1495q-2.3057-0.6663-2.972 1.6394l-1.3392 4.6341q-0.6663 2.3057 1.6394 2.972l7.4381 2.1495q2.3057 0.6663 2.972-1.6394z" clip-path="url(#a)" fill="#fff" stroke="#fff"/>
<g clip-path="url(#a)">
<g transform="translate(111.7 244.02) rotate(-73.882) scale(.08 -.08)">
<defs>
<path id="w" d="m19.672 64.797v-27.391h12.406q6.8906 0 10.641 3.5625 3.7656 3.5625 3.7656 10.156 0 6.5469-3.7656 10.109-3.75 3.5625-10.641 3.5625zm-9.8594 8.1094h22.266q12.266 0 18.531-5.5469 6.2812-5.5469 6.2812-16.234 0-10.797-6.2812-16.312-6.2656-5.5156-18.531-5.5156h-12.406v-29.297h-9.8594z"/>
</defs>
<use xlink:href="#w"/>
</g>
</g>
<path d="m126.79 245.36 1.2368-6.0346q0.48189-2.3511-1.8692-2.833l-7.5848-1.5546q-2.3511-0.48189-2.833 1.8692l-1.2368 6.0346q-0.48189 2.3511 1.8692 2.833l7.5848 1.5546q2.3511 0.48189 2.833-1.8692z" clip-path="url(#a)" fill="#fff" stroke="#fff"/>
<g clip-path="url(#a)">
<g transform="translate(122.81 244.55) rotate(-78.417) scale(.08 -.08)">
<defs>
<path id="aa" d="m19.672 64.797v-56.688h11.922q15.094 0 22.094 6.8281 7 6.8438 7 21.594 0 14.641-7 21.453t-22.094 6.8125zm-9.8594 8.1094h20.266q21.188 0 31.094-8.8125 9.9219-8.8125 9.9219-27.562 0-18.859-9.9688-27.703-9.9531-8.8281-31.047-8.8281h-20.266z"/>
</defs>
<use xlink:href="#aa"/>
</g>
</g>
<path d="m266.93 158.77 5.156 1.8342q2.2612 0.80438 3.0656-1.4568l2.595-7.2947q0.80438-2.2612-1.4568-3.0656l-5.156-1.8342q-2.2612-0.80438-3.0656 1.4568l-2.595 7.2947q-0.80438 2.2612 1.4568 3.0656z" clip-path="url(#a)" fill="#fff" stroke="#fff"/>
<g clip-path="url(#a)">
<g transform="translate(268.29 154.95) rotate(19.582) scale(.08 -.08)">
<defs>
<path id="t" d="m34.188 63.188-13.391-36.281h26.812zm-5.5781 9.7188h11.188l27.781-72.906h-10.25l-6.6406 18.703h-32.859l-6.6406-18.703h-10.406z"/>
</defs>
<use xlink:href="#t"/>
</g>
</g>
<path d="m505.88 159.68 5.4325 0.66049q2.3825 0.28966 2.6721-2.0928l0.93447-7.6859q0.28966-2.3825-2.0928-2.6721l-5.4325-0.66049q-2.3825-0.28966-2.6721 2.0928l-0.93447 7.6859q-0.28966 2.3825 2.0928 2.6721z" clip-path="url(#a)" fill="#fff" stroke="#fff"/>
<g clip-path="url(#a)">
<g transform="translate(506.37 155.64) rotate(6.9321) scale(.08 -.08)">
<use xlink:href="#t"/>
</g>
</g>
<path d="m140.43 244.65 0.60643-5.8235q0.24858-2.3871-2.1385-2.6357l-7.7009-0.80192q-2.3871-0.24858-2.6357 2.1385l-0.60643 5.8235q-0.24858 2.3871 2.1385 2.6357l7.7009 0.80192q2.3871 0.24858 2.6357-2.1385z" clip-path="url(#a)" fill="#fff" stroke="#fff"/>
<g clip-path="url(#a)">
<g transform="translate(136.39 244.23) rotate(-84.055) scale(.08 -.08)">
<defs>
<path id="p" d="m8.6875 72.906h9.9219v-44.297q0-11.719 4.2344-16.875 4.25-5.1406 13.781-5.1406 9.4688 0 13.719 5.1406 4.25 5.1562 4.25 16.875v44.297h9.9062v-45.516q0-14.25-7.0625-21.531-7.0469-7.2812-20.812-7.2812-13.828 0-20.891 7.2812-7.0469 7.2812-7.0469 21.531z"/>
</defs>
<use xlink:href="#p"/>
</g>
</g>
<path d="m143.62 238.24 0.079018 5.8545q0.032389 2.3998 2.4322 2.3674l7.7418-0.10449q2.3998-0.03239 2.3674-2.4322l-0.079017-5.8545q-0.03239-2.3998-2.4322-2.3674l-7.7418 0.10449q-2.3998 0.03239-2.3674 2.4322z" clip-path="url(#a)" fill="#fff" stroke="#fff"/>
<g clip-path="url(#a)">
<g transform="translate(147.69 238.19) rotate(89.227) scale(.08 -.08)">
<use xlink:href="#p"/>
</g>
</g>
<path d="m48.413 398.34v33.808q0 2.4 2.4 2.4h7.7425q2.4 0 2.4-2.4v-33.808q0-2.4-2.4-2.4h-7.7425q-2.4 0-2.4 2.4z" clip-path="url(#a)" fill="#fff" stroke="#fff"/>
<g clip-path="url(#a)">
<g transform="translate(52.477 398.34) rotate(90) scale(.08 -.08)">
<use xlink:href="#e"/>
<use x="44.083984" xlink:href="#l"/>
<use x="105.607422" xlink:href="#g"/>
<use x="144.970703" xlink:href="#i"/>
<use x="242.382812" xlink:href="#k"/>
<use x="270.166016" xlink:href="#h"/>
<use x="333.544922" xlink:href="#f"/>
<use x="394.824219" xlink:href="#j"/>
</g>
</g>
<path d="m66.054 398.34v33.808q0 2.4 2.4 2.4h7.7425q2.4 0 2.4-2.4v-33.808q0-2.4-2.4-2.4h-7.7425q-2.4 0-2.4 2.4z" clip-path="url(#a)" fill="#fff" stroke="#fff"/>
<g clip-path="url(#a)">
<g transform="translate(70.117 398.34) rotate(90) scale(.08 -.08)">
<use xlink:href="#e"/>
<use x="44.083984" xlink:href="#l"/>
<use x="105.607422" xlink:href="#g"/>
<use x="144.970703" xlink:href="#i"/>
<use x="242.382812" xlink:href="#k"/>
<use x="270.166016" xlink:href="#h"/>
<use x="333.544922" xlink:href="#f"/>
<use x="394.824219" xlink:href="#j"/>
</g>
</g>
<path d="m88.104 398.34v33.808q0 2.4 2.4 2.4h7.7425q2.4 0 2.4-2.4v-33.808q0-2.4-2.4-2.4h-7.7425q-2.4 0-2.4 2.4z" clip-path="url(#a)" fill="#fff" stroke="#fff"/>
<g clip-path="url(#a)">
<g transform="translate(92.168 398.34) rotate(90) scale(.08 -.08)">
<use xlink:href="#e"/>
<use x="44.083984" xlink:href="#l"/>
<use x="105.607422" xlink:href="#g"/>
<use x="144.970703" xlink:href="#i"/>
<use x="242.382812" xlink:href="#k"/>
<use x="270.166016" xlink:href="#h"/>
<use x="333.544922" xlink:href="#f"/>
<use x="394.824219" xlink:href="#j"/>
</g>
</g>
<path d="m474.16 245.65 5.3443 2.763q2.1319 1.1022 3.2341-1.0297l3.5558-6.8777q1.1022-2.1319-1.0297-3.2341l-5.3443-2.763q-2.1319-1.1022-3.2341 1.0297l-3.5558 6.8777q-1.1022 2.1319 1.0297 3.2341z" clip-path="url(#a)" fill="#fff" stroke="#fff"/>
<g clip-path="url(#a)">
<g transform="translate(476.02 242.04) rotate(27.339) scale(.08 -.08)">
<use xlink:href="#z"/>
</g>
</g>
<path d="m362.04 289.54 1.7744-4.0891q0.95539-2.2016-1.2462-3.157l-7.1026-3.0821q-2.2016-0.95539-3.157 1.2462l-1.7744 4.0891q-0.95539 2.2016 1.2462 3.157l7.1026 3.0821q2.2016 0.95539 3.157-1.2462z" clip-path="url(#a)" fill="#fff" stroke="#fff"/>
<g clip-path="url(#a)">
<g transform="translate(358.31 287.92) rotate(-66.542) scale(.08 -.08)">
<use xlink:href="#x"/>
</g>
</g>
<path d="m365.54 247.63 3.6038-4.8175q1.4376-1.9218-0.48416-3.3594l-6.1997-4.6378q-1.9218-1.4376-3.3594 0.48416l-3.6038 4.8175q-1.4376 1.9218 0.48416 3.3594l6.1997 4.6378q1.9218 1.4376 3.3594-0.48416z" clip-path="url(#a)" fill="#fff" stroke="#fff"/>
<g clip-path="url(#a)">
<g transform="translate(362.28 245.19) rotate(-53.201) scale(.08 -.08)">
<use xlink:href="#z"/>
</g>
</g>
<path d="m336.33 291.02 3.3952-4.7701q1.3917-1.9553-0.56356-3.347l-6.3078-4.4898q-1.9553-1.3917-3.347 0.56356l-3.3952 4.7701q-1.3917 1.9553 0.56356 3.347l6.3078 4.4898q1.9553 1.3917 3.347-0.56356z" clip-path="url(#a)" fill="#fff" stroke="#fff"/>
<g clip-path="url(#a)">
<g transform="translate(333.02 288.67) rotate(-54.558) scale(.08 -.08)">
<use xlink:href="#p"/>
</g>
</g>
<path d="m436.26 285.46 2.8259 5.1279q1.1584 2.1019 3.2603 0.94358l6.781-3.7369q2.1019-1.1584 0.94358-3.2603l-2.8259-5.1279q-1.1584-2.1019-3.2603-0.94358l-6.781 3.7369q-2.1019 1.1584-0.94358 3.2603z" clip-path="url(#a)" fill="#fff" stroke="#fff"/>
<g clip-path="url(#a)">
<g transform="translate(439.82 283.5) rotate(61.141) scale(.08 -.08)">
<use xlink:href="#p"/>
</g>
</g>
<path d="m374.42 335.49 5.3324-1.2304q2.3386-0.53959 1.799-2.8781l-1.7407-7.5443q-0.53959-2.3386-2.8781-1.799l-5.3324 1.2304q-2.3386 0.53959-1.799 2.8781l1.7407 7.5443q0.53959 2.3386 2.8781 1.799z" clip-path="url(#a)" fill="#fff" stroke="#fff"/>
<g clip-path="url(#a)">
<g transform="translate(373.5 331.53) rotate(-12.993) scale(.08 -.08)">
<use xlink:href="#t"/>
</g>
</g>
<path d="m394.72 335.45 4.7315-1.22q2.324-0.59925 1.7247-2.9232l-1.9332-7.4973q-0.59925-2.324-2.9232-1.7247l-4.7315 1.22q-2.324 0.59925-1.7247 2.9232l1.9332 7.4973q0.59925 2.324 2.9232 1.7247z" clip-path="url(#a)" fill="#fff" stroke="#fff"/>
<g clip-path="url(#a)">
<g transform="translate(393.7 331.51) rotate(-14.459) scale(.08 -.08)">
<use xlink:href="#e"/>
</g>
</g>
<path d="m566.97 331.56 0.36505-4.5867q0.19041-2.3924-2.202-2.5828l-7.7181-0.61427q-2.3924-0.19041-2.5828 2.202l-0.36505 4.5867q-0.19041 2.3924 2.202 2.5828l7.7181 0.61427q2.3924 0.19041 2.5828-2.202z" clip-path="url(#a)" fill="#fff" stroke="#fff"/>
<g clip-path="url(#a)">
<g transform="translate(562.91 331.23) rotate(-85.45) scale(.08 -.08)">
<defs>
<path id="ax" d="m9.8125 72.906h41.891v-8.3125h-32.031v-21.484h28.906v-8.2969h-28.906v-34.812h-9.8594z"/>
</defs>
<use xlink:href="#ax"/>
</g>
</g>
<path d="m589.3 329.98 3.6345 4.9735q1.416 1.9377 3.3538 0.5217l6.2512-4.5682q1.9377-1.416 0.5217-3.3538l-3.6345-4.9735q-1.416-1.9377-3.3538-0.5217l-6.2512 4.5682q-1.9377 1.416-0.5217 3.3538z" clip-path="url(#a)" fill="#fff" stroke="#fff"/>
<g clip-path="url(#a)">
<g transform="translate(592.58 327.58) rotate(53.842) scale(.08 -.08)">
<use xlink:href="#aa"/>
</g>
</g>
<path d="m628.18 332.72 4.3005 2.7017q2.0322 1.2767 3.309-0.75552l4.1187-6.5561q1.2767-2.0322-0.75552-3.309l-4.3005-2.7017q-2.0322-1.2767-3.309 0.75552l-4.1187 6.5561q-1.2767 2.0322 0.75552 3.309z" clip-path="url(#a)" fill="#fff" stroke="#fff"/>
<g clip-path="url(#a)">
<g transform="translate(630.34 329.28) rotate(32.138) scale(.08 -.08)">
<defs>
<path id="av" d="m53.516 70.516v-9.625q-5.6094 2.6875-10.594 4-4.9844 1.3281-9.625 1.3281-8.0469 0-12.422-3.125t-4.375-8.8906q0-4.8438 2.9062-7.3125 2.9062-2.4531 11.016-3.9688l5.9531-1.2188q11.031-2.1094 16.281-7.4062t5.25-14.172q0-10.609-7.1094-16.078-7.0938-5.4688-20.812-5.4688-5.1719 0-11.016 1.1719-5.8281 1.1719-12.078 3.4688v10.156q6-3.3594 11.766-5.0781 5.7656-1.7031 11.328-1.7031 8.4375 0 13.031 3.3125 4.5938 3.3281 4.5938 9.4844 0 5.3594-3.2969 8.3906t-10.812 4.5469l-6.0156 1.1719q-11.031 2.1875-15.969 6.875-4.9219 4.6875-4.9219 13.047 0 9.6719 6.8125 15.234t18.766 5.5625q5.1406 0 10.453-0.9375 5.3281-0.92188 10.891-2.7656z"/>
</defs>
<use xlink:href="#av"/>
</g>
</g>
<path d="m668.31 333.5 5.4373 2.1719q2.2288 0.89029 3.1191-1.3385l2.8721-7.1901q0.89029-2.2288-1.3385-3.1191l-5.4373-2.1719q-2.2288-0.89029-3.1191 1.3385l-2.8721 7.1901q-0.89029 2.2288 1.3385 3.1191z" clip-path="url(#a)" fill="#fff" stroke="#fff"/>
<g clip-path="url(#a)">
<g transform="translate(669.82 329.73) rotate(21.774) scale(.08 -.08)">
<use xlink:href="#p"/>
</g>
</g>
<path d="m710.7 333.98 5.6255 1.6232q2.3059 0.66535 2.9713-1.6406l2.1465-7.439q0.66535-2.3059-1.6406-2.9713l-5.6255-1.6232q-2.3059-0.66535-2.9713 1.6406l-2.1465 7.439q-0.66535 2.3059 1.6406 2.9713z" clip-path="url(#a)" fill="#fff" stroke="#fff"/>
<g clip-path="url(#a)">
<g transform="translate(711.82 330.07) rotate(16.095) scale(.08 -.08)">
<use xlink:href="#p"/>
</g>
</g>
<path d="m313.02 398.34v33.808q0 2.4 2.4 2.4h7.7425q2.4 0 2.4-2.4v-33.808q0-2.4-2.4-2.4h-7.7425q-2.4 0-2.4 2.4z" clip-path="url(#a)" fill="#fff" stroke="#fff"/>
<g clip-path="url(#a)">
<g transform="translate(317.08 398.34) rotate(90) scale(.08 -.08)">
<use xlink:href="#e"/>
<use x="44.083984" xlink:href="#l"/>
<use x="105.607422" xlink:href="#g"/>
<use x="144.970703" xlink:href="#i"/>
<use x="242.382812" xlink:href="#k"/>
<use x="270.166016" xlink:href="#h"/>
<use x="333.544922" xlink:href="#f"/>
<use x="394.824219" xlink:href="#j"/>
</g>
</g>
<path d="m343.91 328.76 2.7087 5.5325q1.0553 2.1555 3.2108 1.1002l6.9538-3.4045q2.1555-1.0553 1.1002-3.2108l-2.7087-5.5325q-1.0553-2.1555-3.2108-1.1002l-6.9538 3.4045q-2.1555 1.0553-1.1002 3.2108z" clip-path="url(#a)" fill="#fff" stroke="#fff"/>
<g clip-path="url(#a)">
<g transform="translate(347.56 326.97) rotate(63.914) scale(.08 -.08)">
<use xlink:href="#aa"/>
</g>
</g>
<path d="m373.62 331.91 3.6373 3.1684q1.8097 1.5764 3.3861-0.23331l5.0855-5.8382q1.5764-1.8097-0.23331-3.3861l-3.6373-3.1684q-1.8097-1.5764-3.3861 0.23331l-5.0855 5.8382q-1.5764 1.8097 0.23331 3.3861z" clip-path="url(#a)" fill="#fff" stroke="#fff"/>
<g clip-path="url(#a)">
<g transform="translate(376.29 328.85) rotate(41.058) scale(.08 -.08)">
<use xlink:href="#w"/>
</g>
</g>
<path d="m259.22 335.54 4.6705-2.8521q2.0483-1.2508 0.7975-3.2991l-4.0351-6.6079q-1.2508-2.0483-3.2991-0.7975l-4.6705 2.8521q-2.0483 1.2508-0.7975 3.2991l4.0351 6.6079q1.2508 2.0483 3.2991 0.7975z" clip-path="url(#a)" fill="#fff" stroke="#fff"/>
<g clip-path="url(#a)">
<g transform="translate(257.1 332.08) rotate(-31.41) scale(.08 -.08)">
<use xlink:href="#t"/>
</g>
</g>
<path d="m365.94 398.34v33.808q0 2.4 2.4 2.4h7.7425q2.4 0 2.4-2.4v-33.808q0-2.4-2.4-2.4h-7.7425q-2.4 0-2.4 2.4z" clip-path="url(#a)" fill="#fff" stroke="#fff"/>
<g clip-path="url(#a)">
<g transform="translate(370 398.34) rotate(90) scale(.08 -.08)">
<use xlink:href="#e"/>
<use x="44.083984" xlink:href="#l"/>
<use x="105.607422" xlink:href="#g"/>
<use x="144.970703" xlink:href="#i"/>
<use x="242.382812" xlink:href="#k"/>
<use x="270.166016" xlink:href="#h"/>
<use x="333.544922" xlink:href="#f"/>
<use x="394.824219" xlink:href="#j"/>
</g>
</g>
<path d="m423.27 398.34v33.808q0 2.4 2.4 2.4h7.7425q2.4 0 2.4-2.4v-33.808q0-2.4-2.4-2.4h-7.7425q-2.4 0-2.4 2.4z" clip-path="url(#a)" fill="#fff" stroke="#fff"/>
<g clip-path="url(#a)">
<g transform="translate(427.33 398.34) rotate(90) scale(.08 -.08)">
<use xlink:href="#e"/>
<use x="44.083984" xlink:href="#l"/>
<use x="105.607422" xlink:href="#g"/>
<use x="144.970703" xlink:href="#i"/>
<use x="242.382812" xlink:href="#k"/>
<use x="270.166016" xlink:href="#h"/>
<use x="333.544922" xlink:href="#f"/>
<use x="394.824219" xlink:href="#j"/>
</g>
</g>
<path d="m180.72 398.34v33.808q0 2.4 2.4 2.4h7.7425q2.4 0 2.4-2.4v-33.808q0-2.4-2.4-2.4h-7.7425q-2.4 0-2.4 2.4z" clip-path="url(#a)" fill="#fff" stroke="#fff"/>
<g clip-path="url(#a)">
<g transform="translate(184.78 398.34) rotate(90) scale(.08 -.08)">
<use xlink:href="#e"/>
<use x="44.083984" xlink:href="#l"/>
<use x="105.607422" xlink:href="#g"/>
<use x="144.970703" xlink:href="#i"/>
<use x="242.382812" xlink:href="#k"/>
<use x="270.166016" xlink:href="#h"/>
<use x="333.544922" xlink:href="#f"/>
<use x="394.824219" xlink:href="#j"/>
</g>
</g>
<path d="m220.41 398.34v33.808q0 2.4 2.4 2.4h7.7425q2.4 0 2.4-2.4v-33.808q0-2.4-2.4-2.4h-7.7425q-2.4 0-2.4 2.4z" clip-path="url(#a)" fill="#fff" stroke="#fff"/>
<g clip-path="url(#a)">
<g transform="translate(224.47 398.34) rotate(90) scale(.08 -.08)">
<use xlink:href="#e"/>
<use x="44.083984" xlink:href="#l"/>
<use x="105.607422" xlink:href="#g"/>
<use x="144.970703" xlink:href="#i"/>
<use x="242.382812" xlink:href="#k"/>
<use x="270.166016" xlink:href="#h"/>
<use x="333.544922" xlink:href="#f"/>
<use x="394.824219" xlink:href="#j"/>
</g>
</g>
<path d="m551.16 398.34v33.808q0 2.4 2.4 2.4h7.7425q2.4 0 2.4-2.4v-33.808q0-2.4-2.4-2.4h-7.7425q-2.4 0-2.4 2.4z" clip-path="url(#a)" fill="#fff" stroke="#fff"/>
<g clip-path="url(#a)">
<g transform="translate(555.22 398.34) rotate(90) scale(.08 -.08)">
<use xlink:href="#e"/>
<use x="44.083984" xlink:href="#l"/>
<use x="105.607422" xlink:href="#g"/>
<use x="144.970703" xlink:href="#i"/>
<use x="242.382812" xlink:href="#k"/>
<use x="270.166016" xlink:href="#h"/>
<use x="333.544922" xlink:href="#f"/>
<use x="394.824219" xlink:href="#j"/>
</g>
</g>
<path d="m621.72 398.34v33.808q0 2.4 2.4 2.4h7.7425q2.4 0 2.4-2.4v-33.808q0-2.4-2.4-2.4h-7.7425q-2.4 0-2.4 2.4z" clip-path="url(#a)" fill="#fff" stroke="#fff"/>
<g clip-path="url(#a)">
<g transform="translate(625.78 398.34) rotate(90) scale(.08 -.08)">
<use xlink:href="#e"/>
<use x="44.083984" xlink:href="#l"/>
<use x="105.607422" xlink:href="#g"/>
<use x="144.970703" xlink:href="#i"/>
<use x="242.382812" xlink:href="#k"/>
<use x="270.166016" xlink:href="#h"/>
<use x="333.544922" xlink:href="#f"/>
<use x="394.824219" xlink:href="#j"/>
</g>
</g>
<path d="m696.69 398.34v33.808q0 2.4 2.4 2.4h7.7425q2.4 0 2.4-2.4v-33.808q0-2.4-2.4-2.4h-7.7425q-2.4 0-2.4 2.4z" clip-path="url(#a)" fill="#fff" stroke="#fff"/>
<g clip-path="url(#a)">
<g transform="translate(700.76 398.34) rotate(90) scale(.08 -.08)">
<use xlink:href="#e"/>
<use x="44.083984" xlink:href="#l"/>
<use x="105.607422" xlink:href="#g"/>
<use x="144.970703" xlink:href="#i"/>
<use x="242.382812" xlink:href="#k"/>
<use x="270.166016" xlink:href="#h"/>
<use x="333.544922" xlink:href="#f"/>
<use x="394.824219" xlink:href="#j"/>
</g>
</g>
<path d="m114.56 398.34v33.808q0 2.4 2.4 2.4h7.7425q2.4 0 2.4-2.4v-33.808q0-2.4-2.4-2.4h-7.7425q-2.4 0-2.4 2.4z" clip-path="url(#a)" fill="#fff" stroke="#fff"/>
<g clip-path="url(#a)">
<g transform="translate(118.63 398.34) rotate(90) scale(.08 -.08)">
<use xlink:href="#e"/>
<use x="44.083984" xlink:href="#l"/>
<use x="105.607422" xlink:href="#g"/>
<use x="144.970703" xlink:href="#i"/>
<use x="242.382812" xlink:href="#k"/>
<use x="270.166016" xlink:href="#h"/>
<use x="333.544922" xlink:href="#f"/>
<use x="394.824219" xlink:href="#j"/>
</g>
</g>
<path d="m145.43 398.34v33.808q0 2.4 2.4 2.4h7.7425q2.4 0 2.4-2.4v-33.808q0-2.4-2.4-2.4h-7.7425q-2.4 0-2.4 2.4z" clip-path="url(#a)" fill="#fff" stroke="#fff"/>
<g clip-path="url(#a)">
<g transform="translate(149.5 398.34) rotate(90) scale(.08 -.08)">
<use xlink:href="#e"/>
<use x="44.083984" xlink:href="#l"/>
<use x="105.607422" xlink:href="#g"/>
<use x="144.970703" xlink:href="#i"/>
<use x="242.382812" xlink:href="#k"/>
<use x="270.166016" xlink:href="#h"/>
<use x="333.544922" xlink:href="#f"/>
<use x="394.824219" xlink:href="#j"/>
</g>
</g>
<path d="m264.51 398.34v33.808q0 2.4 2.4 2.4h7.7425q2.4 0 2.4-2.4v-33.808q0-2.4-2.4-2.4h-7.7425q-2.4 0-2.4 2.4z" clip-path="url(#a)" fill="#fff" stroke="#fff"/>
<g clip-path="url(#a)">
<g transform="translate(268.57 398.34) rotate(90) scale(.08 -.08)">
<use xlink:href="#e"/>
<use x="44.083984" xlink:href="#l"/>
<use x="105.607422" xlink:href="#g"/>
<use x="144.970703" xlink:href="#i"/>
<use x="242.382812" xlink:href="#k"/>
<use x="270.166016" xlink:href="#h"/>
<use x="333.544922" xlink:href="#f"/>
<use x="394.824219" xlink:href="#j"/>
</g>
</g>
<path d="m485.01 398.34v33.808q0 2.4 2.4 2.4h7.7425q2.4 0 2.4-2.4v-33.808q0-2.4-2.4-2.4h-7.7425q-2.4 0-2.4 2.4z" clip-path="url(#a)" fill="#fff" stroke="#fff"/>
<g clip-path="url(#a)">
<g transform="translate(489.07 398.34) rotate(90) scale(.08 -.08)">
<use xlink:href="#e"/>
<use x="44.083984" xlink:href="#l"/>
<use x="105.607422" xlink:href="#g"/>
<use x="144.970703" xlink:href="#i"/>
<use x="242.382812" xlink:href="#k"/>
<use x="270.166016" xlink:href="#h"/>
<use x="333.544922" xlink:href="#f"/>
<use x="394.824219" xlink:href="#j"/>
</g>
</g>
<path d="m776.07 398.34v33.808q0 2.4 2.4 2.4h7.7425q2.4 0 2.4-2.4v-33.808q0-2.4-2.4-2.4h-7.7425q-2.4 0-2.4 2.4z" clip-path="url(#a)" fill="#fff" stroke="#fff"/>
<g clip-path="url(#a)">
<g transform="translate(780.14 398.34) rotate(90) scale(.08 -.08)">
<use xlink:href="#e"/>
<use x="44.083984" xlink:href="#l"/>
<use x="105.607422" xlink:href="#g"/>
<use x="144.970703" xlink:href="#i"/>
<use x="242.382812" xlink:href="#k"/>
<use x="270.166016" xlink:href="#h"/>
<use x="333.544922" xlink:href="#f"/>
<use x="394.824219" xlink:href="#j"/>
</g>
</g>
<path d="m859.86 398.34v33.808q0 2.4 2.4 2.4h7.7425q2.4 0 2.4-2.4v-33.808q0-2.4-2.4-2.4h-7.7425q-2.4 0-2.4 2.4z" clip-path="url(#a)" fill="#fff" stroke="#fff"/>
<g clip-path="url(#a)">
<g transform="translate(863.93 398.34) rotate(90) scale(.08 -.08)">
<use xlink:href="#e"/>
<use x="44.083984" xlink:href="#l"/>
<use x="105.607422" xlink:href="#g"/>
<use x="144.970703" xlink:href="#i"/>
<use x="242.382812" xlink:href="#k"/>
<use x="270.166016" xlink:href="#h"/>
<use x="333.544922" xlink:href="#f"/>
<use x="394.824219" xlink:href="#j"/>
</g>
</g>
<defs>
<path id="b" d="m0 8.6603c2.2967 0 4.4997-0.9125 6.1237-2.5365 1.624-1.624 2.5365-3.827 2.5365-6.1237s-0.9125-4.4997-2.5365-6.1237c-1.624-1.624-3.827-2.5365-6.1237-2.5365s-4.4997 0.9125-6.1237 2.5365c-1.624 1.624-2.5365 3.827-2.5365 6.1237s0.9125 4.4997 2.5365 6.1237c1.624 1.624 3.827 2.5365 6.1237 2.5365z"/>
</defs>
<g clip-path="url(#a)" fill="#ffffff" stroke="#ffffff">
<use x="41.454545" y="458.181818" xlink:href="#b"/>
<use x="54.68472" y="458.181818" xlink:href="#b"/>
<use x="72.324952" y="458.181818" xlink:href="#b"/>
<use x="94.375242" y="458.181818" xlink:href="#b"/>
<use x="120.83559" y="458.181818" xlink:href="#b"/>
<use x="151.705996" y="458.181818" xlink:href="#b"/>
<use x="186.98646" y="458.181818" xlink:href="#b"/>
<use x="226.676983" y="458.181818" xlink:href="#b"/>
<use x="270.777563" y="458.181818" xlink:href="#b"/>
<use x="319.288201" y="458.181818" xlink:href="#b"/>
<use x="372.208897" y="458.181818" xlink:href="#b"/>
<use x="429.539652" y="458.181818" xlink:href="#b"/>
<use x="491.280464" y="458.181818" xlink:href="#b"/>
<use x="557.431335" y="458.181818" xlink:href="#b"/>
<use x="627.992263" y="458.181818" xlink:href="#b"/>
<use x="702.96325" y="458.181818" xlink:href="#b"/>
<use x="782.344294" y="458.181818" xlink:href="#b"/>
<use x="866.135397" y="458.181818" xlink:href="#b"/>
<use x="870.545455" y="197.697661" xlink:href="#b"/>
<use x="94.809247" y="21.818182" xlink:href="#b"/>
<use x="41.454545" y="372.302449" xlink:href="#b"/>
<use x="148.16395" y="109.869014" xlink:href="#b"/>
<use x="54.68472" y="372.302449" xlink:href="#b"/>
<use x="72.324952" y="372.302449" xlink:href="#b"/>
<use x="94.375242" y="372.302449" xlink:href="#b"/>
<use x="395.057198" y="197.697661" xlink:href="#b"/>
<use x="564.361426" y="285.228402" xlink:href="#b"/>
<use x="319.288201" y="372.302449" xlink:href="#b"/>
<use x="329.578337" y="285.228402" xlink:href="#b"/>
<use x="372.208897" y="372.302449" xlink:href="#b"/>
<use x="429.539652" y="372.302449" xlink:href="#b"/>
<use x="186.98646" y="372.302449" xlink:href="#b"/>
<use x="226.676983" y="372.302449" xlink:href="#b"/>
<use x="557.431335" y="372.302449" xlink:href="#b"/>
<use x="627.992263" y="372.302449" xlink:href="#b"/>
<use x="702.96325" y="372.302449" xlink:href="#b"/>
<use x="120.83559" y="372.302449" xlink:href="#b"/>
<use x="151.705996" y="372.302449" xlink:href="#b"/>
<use x="270.777563" y="372.302449" xlink:href="#b"/>
<use x="491.280464" y="372.302449" xlink:href="#b"/>
<use x="782.344294" y="372.302449" xlink:href="#b"/>
<use x="866.135397" y="372.302449" xlink:href="#b"/>
</g>
<g clip-path="url(#a)">
<g transform="translate(38.034 460.94) scale(.1 -.1)">
<defs>
<path id="be" d="m34.188 63.188-13.391-36.281h26.812zm-5.5781 9.7188h11.188l27.781-72.906h-10.25l-6.6406 18.703h-32.859l-6.6406-18.703h-10.406z"/>
</defs>
<use xlink:href="#be"/>
</g>
</g>
<g clip-path="url(#a)">
<g transform="translate(38.613 460.94) scale(.1 -.1)">
<defs>
<path id="af" d="m56.297 54.688v-54.688h-9.0312v47.516h-29.156v-47.516h-9.0312v54.688z"/>
<path id="q" d="m30.609 48.391q-7.2188 0-11.422-5.6406t-4.2031-15.453 4.1719-15.453q4.1875-5.6406 11.453-5.6406 7.1875 0 11.375 5.6562 4.2031 5.6719 4.2031 15.438 0 9.7188-4.2031 15.406-4.1875 5.6875-11.375 5.6875zm0 7.6094q11.719 0 18.406-7.625 6.7031-7.6094 6.7031-21.078 0-13.422-6.7031-21.078-6.6875-7.6406-18.406-7.6406-11.766 0-18.438 7.6406-6.6562 7.6562-6.6562 21.078 0 13.469 6.6562 21.078 6.6719 7.625 18.438 7.625z"/>
<path id="s" d="m2.9375 54.688h52.391v-7.1719h-21.781v-47.516h-8.8438v47.516h-21.766z"/>
<path id="ah" d="m9.0781 54.688h13.141l15.531-36.625 15.578 36.625h13.031v-54.688h-9.0312v46.094l-15.094-35.594h-8.9844l-15.141 35.594v-46.094h-9.0312z"/>
</defs>
<use xlink:href="#af"/>
<use x="65.380859" xlink:href="#q"/>
<use x="126.5625" xlink:href="#s"/>
<use x="184.814453" xlink:href="#q"/>
<use x="245.996094" xlink:href="#ah"/>
</g>
</g>
<g clip-path="url(#a)">
<g transform="translate(54.573 460.94) scale(.1 -.1)">
<defs>
<path id="o" d="m48.781 52.594v-8.4062q-3.8125 2.1094-7.6406 3.1562t-7.7344 1.0469q-8.75 0-13.594-5.5469-4.8281-5.5312-4.8281-15.547t4.8281-15.562q4.8438-5.5312 13.594-5.5312 3.9062 0 7.7344 1.0469t7.6406 3.1562v-8.3125q-3.7656-1.75-7.7969-2.625-4.0156-0.89062-8.5625-0.89062-12.359 0-19.641 7.7656-7.2656 7.7656-7.2656 20.953 0 13.375 7.3438 21.031 7.3594 7.6719 20.156 7.6719 4.1406 0 8.0938-0.85938 3.9531-0.84375 7.6719-2.5469z"/>
<path id="aj" d="m9.0781 54.688h8.9375v-25.688l25.344 25.688h11.031l-20.891-21.141 23.578-33.547h-10.062l-19.375 27.594-9.625-9.7656v-17.828h-8.9375z"/>
<path id="n" d="m34.281 27.484q-10.891 0-15.094-2.4844t-4.2031-8.5q0-4.7812 3.1562-7.5938 3.1562-2.7969 8.5625-2.7969 7.4844 0 12 5.2969t4.5156 14.078v2zm17.922 3.7188v-31.203h-8.9844v8.2969q-3.0781-4.9688-7.6719-7.3438t-11.234-2.375q-8.3906 0-13.359 4.7188-4.9531 4.7188-4.9531 12.625 0 9.2188 6.1719 13.906 6.1875 4.6875 18.438 4.6875h12.609v0.89062q0 6.2031-4.0781 9.5938t-11.453 3.3906q-4.6875 0-9.1406-1.125-4.4375-1.125-8.5312-3.375v8.3125q4.9219 1.9062 9.5625 2.8438 4.6406 0.95312 9.0312 0.95312 11.875 0 17.734-6.1562 5.8594-6.1406 5.8594-18.641z"/>
<path id="bb" d="m34.469 29.5q6.0625-1.1719 9.4219-4.75 3.375-3.5625 3.375-8.8281 0-8.4531-6.2969-12.906-6.2969-4.4375-17.922-4.4375-3.9062 0-8.0312 0.6875t-8.5156 2.0469v8.3594q3.4688-1.8125 7.6094-2.7188 4.1562-0.89062 8.6875-0.89062 7.375 0 11.5 2.7344t4.125 7.125q0 4.2969-3.6562 6.9062t-10.344 2.6094h-7.2344v7.4219h7.5625q5.6719 0 8.9688 2.1719t3.2969 5.5938q0 3.125-3.4062 5.375-3.3906 2.25-9.1875 2.25-3.4688 0-7.4062-0.64062-3.9219-0.64062-8.6719-2.0469v8.1562q4.7969 1.1719 8.9375 1.75 4.1562 0.59375 7.8594 0.59375 9.5781 0 15.109-3.8438 5.5469-3.8281 5.5469-10.719 0-4.5312-2.9375-7.6875-2.9219-3.1406-8.3906-4.3125z"/>
<path id="ai" d="m3.7188 0v7.4688q8.875 1.375 11.609 7.5156 3.3281 8.6562 3.3281 30.766v8.9375h36.953v-54.688h-8.9844v47.516h-18.984v-5.4219q0-21.094-4.2969-30.562-4.5938-10.109-19.625-11.531z"/>
</defs>
<use xlink:href="#o"/>
<use x="54.980469" xlink:href="#aj"/>
<use x="115.380859" xlink:href="#n"/>
<use x="176.660156" xlink:href="#bb"/>
<use x="229.833984" xlink:href="#n"/>
<use x="291.113281" xlink:href="#ai"/>
</g>
</g>
<g clip-path="url(#a)">
<g transform="translate(54.513 460.94) scale(.1 -.1)">
<defs>
<path id="ae" d="m18.109 8.2031v-29h-9.0312v75.484h9.0312v-8.2969q2.8438 4.875 7.1562 7.2344 4.3281 2.375 10.328 2.375 9.9688 0 16.188-7.9062 6.2344-7.9062 6.2344-20.797t-6.2344-20.812q-6.2188-7.9062-16.188-7.9062-6 0-10.328 2.375-4.3125 2.375-7.1562 7.25zm30.578 19.094q0 9.9062-4.0781 15.547t-11.203 5.6406q-7.1406 0-11.219-5.6406t-4.0781-15.547 4.0781-15.547 11.219-5.6406q7.125 0 11.203 5.6406t4.0781 15.547z"/>
<path id="at" d="m32.172-5.0781q-3.7969-9.7656-7.4219-12.734-3.6094-2.9844-9.6562-2.9844h-7.1875v7.5156h5.2812q3.7031 0 5.75 1.7656 2.0625 1.75 4.5469 8.2969l1.6094 4.0938-22.109 53.812h9.5156l17.094-42.766 17.094 42.766h9.5156z"/>
<path id="bc" d="m21.625 7.1719h26.078v40.344h-18.891v-6.8438q0-20.109-5.7656-30.859zm-13.031 0q4.4375 1.9531 6.3906 6.1094 4.7969 10.297 4.7969 31.062v10.344h36.953v-47.516h7.1875v-20.984h-7.1875v13.812h-44.328v-13.812h-7.1875v20.984z"/>
<path id="au" d="m55.906 54.688v-54.688h-8.9375v43.891l-26.359-43.891h-11.531v54.688h8.9375v-43.797l26.328 43.797z"/>
<path id="r" d="m56.203 29.594v-4.3906h-41.312q0.59375-9.2812 5.5938-14.141t13.938-4.8594q5.1719 0 10.031 1.2656t9.6562 3.8125v-8.5q-4.8438-2.0469-9.9219-3.125t-10.297-1.0781q-13.094 0-20.734 7.6094-7.6406 7.625-7.6406 20.625 0 13.422 7.25 21.297 7.25 7.8906 19.562 7.8906 11.031 0 17.453-7.1094 6.4219-7.0938 6.4219-19.297zm-8.9844 2.6406q-0.09375 7.3594-4.125 11.75-4.0312 4.4062-10.672 4.4062-7.5156 0-12.031-4.25t-5.2031-11.969z"/>
<path id="as" d="m43.453 16.219q0 4.3906-3.2031 6.6875-3.1875 2.2969-9.3438 2.2969h-12.797v-18.031h12.797q6.1562 0 9.3438 2.3125 3.2031 2.3281 3.2031 6.7344zm-34.375 38.469h9.0312v-22.312h13.188q10.453 0 16.094-3.9844 5.6406-3.9688 5.6406-12.172t-5.6406-12.219q-5.6406-4-16.094-4h-22.219z"/>
<path id="ag" d="m9.0781 54.688h9.0312v-22.312h29.156v22.312h9.0312v-54.688h-9.0312v25.203h-29.156v-25.203h-9.0312z"/>
</defs>
<use xlink:href="#ae"/>
<use x="63.476562" xlink:href="#n"/>
<use x="124.755859" xlink:href="#o"/>
<use x="179.736328" xlink:href="#o"/>
<use x="234.716797" xlink:href="#at"/>
<use x="293.896484" xlink:href="#bc"/>
<use x="363.037109" xlink:href="#au"/>
<use x="428.027344" xlink:href="#s"/>
<use x="486.279297" xlink:href="#r"/>
<use x="547.802734" xlink:href="#ai"/>
<use x="611.71875" xlink:href="#as"/>
<use x="670.654297" xlink:href="#ag"/>
<use x="736.035156" xlink:href="#q"/>
</g>
</g>
<g clip-path="url(#a)">
<g transform="translate(119.15 460.94) scale(.1 -.1)">
<defs>
<path id="az" d="m11.719 12.406h10.297v-12.406h-10.297zm0 39.297h10.297v-12.391h-10.297z"/>
</defs>
<use xlink:href="#az"/>
</g>
</g>
<g clip-path="url(#a)">
<g transform="translate(149.9 460.94) scale(.1 -.1)">
<defs>
<path id="aq" d="m4.8906 31.391h26.312v-8h-26.312z"/>
</defs>
<use xlink:href="#aq"/>
</g>
</g>
<g clip-path="url(#a)">
<g transform="translate(164.25 460.94) scale(.1 -.1)">
<defs>
<path id="bd" d="m51.125 21.438q0 6.7812-3.8438 10.078-3.8281 3.2969-11.781 3.2969h-15.828v-26.703h15.828q7.9531 0 11.781 3.2969 3.8438 3.2969 3.8438 10.031zm5.2656 51.469v-8.1094h-36.719v-21.875h16.312q12.266 0 18.906-5.3281 6.6406-5.3125 6.6406-16.156 0-10.797-6.4219-16.125-6.4219-5.3125-19.125-5.3125h-26.172v72.906z"/>
<path id="ak" d="m31.109 56q11.719 0 18.406-7.625 6.6875-7.6094 6.6875-21.078 0-13.422-6.6875-21.078-6.6875-7.6406-18.406-7.6406-11.766 0-18.266 7.4219t-6.8438 21.297l-0.28125 11.188q-0.25 5.7969-0.25 7.8125 0 7.8125 2.8281 13.562 4.4531 9.0312 12.141 12.938t20.578 4.0156q5.9531 0.046875 8.5938 0.875l2.4844-7.125q-2.3906-0.98438-4.5781-1.0312l-12.219-0.82812q-6.1406-0.4375-9.8594-2.5938-9.7188-5.7031-10.641-13.172l-0.34375-2.7344q6.3438 5.7969 16.656 5.7969zm0-7.6094q-7.2344 0-11.438-5.6406-4.1875-5.6406-4.1875-15.453t4.1719-15.453 11.453-5.6406q7.1719 0 11.375 5.6562 4.2031 5.6719 4.2031 15.438 0 9.7188-4.2031 15.406t-11.375 5.6875z"/>
<path id="ad" d="m61.047 54.688h8.9844v-54.688h-8.9844zm4.5 1.3125m-22.094-39.781q0 4.3906-3.2031 6.6875-3.1875 2.2969-9.3438 2.2969h-12.797v-18.031h12.797q6.1562 0 9.3438 2.3125 3.2031 2.3281 3.2031 6.7344zm-34.375 38.469h9.0312v-22.312h13.188q10.453 0 16.094-3.9844 5.6406-3.9688 5.6406-12.172t-5.6406-12.219q-5.6406-4-16.094-4h-22.219z"/>
</defs>
<use xlink:href="#bd"/>
<use x="68.603516" xlink:href="#n"/>
<use x="129.882812" xlink:href="#q"/>
<use x="191.064453" xlink:href="#ak"/>
<use x="252.734375" xlink:href="#n"/>
<use x="314.013672" xlink:href="#ak"/>
<use x="375.683594" xlink:href="#ad"/>
</g>
</g>
<g clip-path="url(#a)">
<g transform="translate(208.4 460.94) scale(.1 -.1)">
<defs>
<path id="v" d="m18.062 25.203v-18.031h12.797q6.1562 0 9.375 2.3125 3.2188 2.3281 3.2188 6.7344 0 4.3906-3.2188 6.6875t-9.375 2.2969zm0 22.312v-15.141h11.828q5.0781 0 8.2969 2.0156 3.2188 2.0312 3.2188 5.6562 0 3.6094-3.2188 5.5312-3.2188 1.9375-8.2969 1.9375zm-8.9844 7.1719h21.391q9.625 0 14.797-3.5156t5.1719-10.016q0-5.0156-2.6406-7.9844-2.625-2.9531-7.8125-3.6719 6.2031-1.1719 9.625-4.8906 3.4219-3.7031 3.4219-9.2812 0-7.3125-5.6406-11.328-5.6406-4-16.094-4h-22.219z"/>
</defs>
<use xlink:href="#o"/>
<use x="54.980469" xlink:href="#af"/>
<use x="120.361328" xlink:href="#r"/>
<use x="181.884766" xlink:href="#ae"/>
<use x="245.361328" xlink:href="#v"/>
<use x="304.296875" xlink:href="#n"/>
</g>
</g>
<g clip-path="url(#a)">
<g transform="translate(269.19 460.94) scale(.1 -.1)">
<defs>
<path id="ar" d="m11.719 12.406h10.297v-8.4062l-8-15.625h-6.2969l4 15.625z"/>
</defs>
<use xlink:href="#ar"/>
</g>
</g>
<g clip-path="url(#a)">
<g transform="translate(306.88 460.94) scale(.1 -.1)">
<use xlink:href="#af"/>
<use x="65.380859" xlink:href="#q"/>
<use x="126.5625" xlink:href="#aj"/>
<use x="186.962891" xlink:href="#n"/>
</g>
</g>
<g clip-path="url(#a)">
<g transform="translate(365.86 460.94) scale(.1 -.1)">
<use xlink:href="#ag"/>
<use x="65.380859" xlink:href="#r"/>
</g>
</g>
<g clip-path="url(#a)">
<g transform="translate(404.87 460.94) scale(.1 -.1)">
<use xlink:href="#v"/>
<use x="58.935547" xlink:href="#ad"/>
<use x="137.890625" xlink:href="#ae"/>
<use x="201.367188" xlink:href="#n"/>
<use x="262.646484" xlink:href="#o"/>
<use x="317.626953" xlink:href="#s"/>
<use x="375.878906" xlink:href="#at"/>
<use x="435.058594" xlink:href="#s"/>
</g>
</g>
<g clip-path="url(#a)">
<g transform="translate(489.69 460.94) scale(.1 -.1)">
<use xlink:href="#ar"/>
</g>
</g>
<g clip-path="url(#a)">
<g transform="translate(537.27 460.94) scale(.1 -.1)">
<defs>
<path id="ba" d="m53.609 48.391q-7.2188 0-11.422-5.6406t-4.2031-15.453 4.1719-15.453q4.1875-5.6406 11.453-5.6406 7.1875 0 11.375 5.6562 4.2031 5.6719 4.2031 15.438 0 9.7188-4.2031 15.406-4.1875 5.6875-11.375 5.6875zm-24.797-15.531q0.92188 9.2812 7 16.203 6.0781 6.9375 17.797 6.9375t18.406-7.625q6.7031-7.6094 6.7031-21.078 0-13.422-6.7031-21.078-6.6875-7.6406-18.406-7.6406-11.766 0-18.188 7.375t-6.8594 19.484h-10.156v-25.438h-8.9844v54.688h8.9844v-21.828z"/>
</defs>
<use xlink:href="#ak"/>
<use x="61.669922" xlink:href="#ad"/>
<use x="140.625" xlink:href="#v"/>
<use x="199.560547" xlink:href="#n"/>
<use x="260.839844" xlink:href="#ba"/>
<use x="345.019531" xlink:href="#s"/>
</g>
</g>
<g clip-path="url(#a)">
<g transform="translate(609.64 460.94) scale(.1 -.1)">
<use xlink:href="#o"/>
<use x="54.980469" xlink:href="#q"/>
<use x="116.162109" xlink:href="#v"/>
<use x="175.097656" xlink:href="#o"/>
<use x="230.078125" xlink:href="#r"/>
<use x="291.601562" xlink:href="#ah"/>
</g>
</g>
<g clip-path="url(#a)">
<g transform="translate(674.29 460.94) scale(.1 -.1)">
<use xlink:href="#ah"/>
<use x="75.439453" xlink:href="#n"/>
<use x="136.71875" xlink:href="#ai"/>
<use x="200.634766" xlink:href="#r"/>
<use x="262.158203" xlink:href="#ag"/>
<use x="327.539062" xlink:href="#as"/>
<use x="386.474609" xlink:href="#aj"/>
<use x="446.875" xlink:href="#au"/>
<use x="511.865234" xlink:href="#r"/>
</g>
</g>
<g clip-path="url(#a)">
<g transform="translate(780.76 460.94) scale(.1 -.1)">
<defs>
<path id="d" d="m10.688 12.406h10.312v-12.406h-10.312z"/>
</defs>
<use xlink:href="#d"/>
</g>
</g>
<g clip-path="url(#a)">
<g transform="translate(864.33 460.94) scale(.1 -.1)">
<use xlink:href="#aq"/>
</g>
</g>
<g clip-path="url(#a)">
<g transform="translate(849.46 200.46) scale(.1 -.1)">
<defs>
<path id="y" d="m9.8125 72.906h9.8594v-72.906h-9.8594z"/>
<path id="aw" d="m9.8125 72.906h14.703l18.594-49.609 18.703 49.609h14.703v-72.906h-9.625v64.016l-18.797-50h-9.9062l-18.797 50v-64.016h-9.5781z"/>
<path id="ay" d="m64.406 67.281v-10.391q-4.9844 4.6406-10.625 6.9219-5.6406 2.2969-11.984 2.2969-12.5 0-19.141-7.6406t-6.6406-22.094q0-14.406 6.6406-22.047t19.141-7.6406q6.3438 0 11.984 2.2969t10.625 6.9375v-10.312q-5.1719-3.5156-10.969-5.2812-5.7812-1.75-12.219-1.75-16.562 0-26.094 10.125-9.5156 10.141-9.5156 27.672 0 17.578 9.5156 27.703 9.5312 10.141 26.094 10.141 6.5312 0 12.312-1.7344 5.7969-1.7344 10.875-5.2031z"/>
</defs>
<use xlink:href="#y"/>
<use x="29.492188" xlink:href="#aw"/>
<use x="115.771484" xlink:href="#w"/>
<use x="176.074219" xlink:href="#x"/>
<use x="231.787109" xlink:href="#y"/>
<use x="261.279297" xlink:href="#ay"/>
<use x="331.103516" xlink:href="#y"/>
<use x="360.595703" xlink:href="#e"/>
</g>
</g>
<g clip-path="url(#a)">
<g transform="translate(86.858 24.578) scale(.1 -.1)">
<defs>
<path id="c" d="m12.406 8.2969h16.109v55.625l-17.531-3.5156v8.9844l17.438 3.5156h9.8594v-64.609h16.109v-8.2969h-41.984z"/>
</defs>
<use xlink:href="#c"/>
<use x="63.623047" xlink:href="#d"/>
<use x="95.410156" xlink:href="#c"/>
</g>
</g>
<g clip-path="url(#a)">
<g transform="translate(33.503 375.06) scale(.1 -.1)">
<defs>
<path id="m" d="m19.188 8.2969h34.422v-8.2969h-46.281v8.2969q5.6094 5.8125 15.297 15.594 9.7031 9.7969 12.188 12.641 4.7344 5.3125 6.6094 9 1.8906 3.6875 1.8906 7.25 0 5.8125-4.0781 9.4688-4.0781 3.6719-10.625 3.6719-4.6406 0-9.7969-1.6094-5.1406-1.6094-11-4.8906v9.9688q5.9531 2.3906 11.125 3.6094 5.1875 1.2188 9.4844 1.2188 11.328 0 18.062-5.6719 6.7344-5.6562 6.7344-15.125 0-4.5-1.6875-8.5312-1.6719-4.0156-6.125-9.4844-1.2188-1.4219-7.7656-8.1875-6.5312-6.7656-18.453-18.922z"/>
</defs>
<use xlink:href="#c"/>
<use x="63.623047" xlink:href="#d"/>
<use x="95.410156" xlink:href="#m"/>
</g>
</g>
<g clip-path="url(#a)">
<g transform="translate(140.21 112.63) scale(.1 -.1)">
<defs>
<path id="u" d="m40.578 39.312q7.0781-1.5156 11.047-6.3125 3.9844-4.7812 3.9844-11.812 0-10.781-7.4219-16.703-7.4219-5.9062-21.094-5.9062-4.5781 0-9.4375 0.90625t-10.031 2.7188v9.5156q4.0938-2.3906 8.9688-3.6094 4.8906-1.2188 10.219-1.2188 9.2656 0 14.125 3.6562t4.8594 10.641q0 6.4531-4.5156 10.078-4.5156 3.6406-12.562 3.6406h-8.5v8.1094h8.8906q7.2656 0 11.125 2.9062t3.8594 8.375q0 5.6094-3.9844 8.6094-3.9688 3.0156-11.391 3.0156-4.0625 0-8.7031-0.89062-4.6406-0.875-10.203-2.7188v8.7812q5.625 1.5625 10.531 2.3438t9.25 0.78125q11.234 0 17.766-5.1094 6.5469-5.0938 6.5469-13.781 0-6.0625-3.4688-10.234t-9.8594-5.7812z"/>
</defs>
<use xlink:href="#c"/>
<use x="63.623047" xlink:href="#d"/>
<use x="95.410156" xlink:href="#u"/>
</g>
</g>
<g clip-path="url(#a)">
<g transform="translate(46.733 375.06) scale(.1 -.1)">
<defs>
<path id="am" d="m33.016 40.375q-6.6406 0-10.531-4.5469-3.875-4.5312-3.875-12.438 0-7.8594 3.875-12.438 3.8906-4.5625 10.531-4.5625t10.516 4.5625q3.875 4.5781 3.875 12.438 0 7.9062-3.875 12.438-3.875 4.5469-10.516 4.5469zm19.578 30.922v-8.9844q-3.7188 1.75-7.5 2.6719-3.7812 0.9375-7.5 0.9375-9.7656 0-14.922-6.5938-5.1406-6.5938-5.875-19.922 2.875 4.25 7.2188 6.5156 4.3594 2.2656 9.5781 2.2656 10.984 0 17.359-6.6719 6.375-6.6562 6.375-18.125 0-11.234-6.6406-18.031-6.6406-6.7812-17.672-6.7812-12.656 0-19.344 9.6875-6.6875 9.7031-6.6875 28.109 0 17.281 8.2031 27.562t22.016 10.281q3.7188 0 7.5-0.73438t7.8906-2.1875z"/>
</defs>
<use xlink:href="#c"/>
<use x="63.623047" xlink:href="#d"/>
<use x="95.410156" xlink:href="#am"/>
</g>
</g>
<g clip-path="url(#a)">
<g transform="translate(64.373 375.06) scale(.1 -.1)">
<defs>
<path id="al" d="m8.2031 72.906h46.875v-4.2031l-26.469-68.703h-10.297l24.906 64.594h-35.016z"/>
</defs>
<use xlink:href="#c"/>
<use x="63.623047" xlink:href="#d"/>
<use x="95.410156" xlink:href="#al"/>
</g>
</g>
<g clip-path="url(#a)">
<g transform="translate(86.424 375.06) scale(.1 -.1)">
<defs>
<path id="ac" d="m31.781 34.625q-7.0312 0-11.062-3.7656-4.0156-3.7656-4.0156-10.344 0-6.5938 4.0156-10.359 4.0312-3.7656 11.062-3.7656t11.078 3.7812q4.0625 3.7969 4.0625 10.344 0 6.5781-4.0312 10.344-4.0156 3.7656-11.109 3.7656zm-9.8594 4.1875q-6.3438 1.5625-9.8906 5.9062-3.5312 4.3594-3.5312 10.609 0 8.7344 6.2188 13.812 6.2344 5.0781 17.062 5.0781 10.891 0 17.094-5.0781t6.2031-13.812q0-6.25-3.5469-10.609-3.5312-4.3438-9.8281-5.9062 7.125-1.6562 11.094-6.5 3.9844-4.8281 3.9844-11.797 0-10.609-6.4688-16.281-6.4688-5.6562-18.531-5.6562-12.047 0-18.531 5.6562-6.4688 5.6719-6.4688 16.281 0 6.9688 4 11.797 4.0156 4.8438 11.141 6.5zm-3.6094 15.578q0-5.6562 3.5312-8.8281 3.5469-3.1719 9.9375-3.1719 6.3594 0 9.9375 3.1719 3.5938 3.1719 3.5938 8.8281 0 5.6719-3.5938 8.8438-3.5781 3.1719-9.9375 3.1719-6.3906 0-9.9375-3.1719-3.5312-3.1719-3.5312-8.8438z"/>
</defs>
<use xlink:href="#c"/>
<use x="63.623047" xlink:href="#d"/>
<use x="95.410156" xlink:href="#ac"/>
</g>
</g>
<g clip-path="url(#a)">
<g transform="translate(387.11 200.46) scale(.1 -.1)">
<defs>
<path id="ab" d="m10.984 1.5156v8.9844q3.7188-1.7656 7.5156-2.6875 3.8125-0.92188 7.4844-0.92188 9.7656 0 14.906 6.5625 5.1562 6.5625 5.8906 19.953-2.8281-4.2031-7.1875-6.4531-4.3438-2.25-9.6094-2.25-10.938 0-17.312 6.6094-6.375 6.625-6.375 18.109 0 11.219 6.6406 18 6.6406 6.7969 17.672 6.7969 12.656 0 19.312-9.7031 6.6719-9.6875 6.6719-28.141 0-17.234-8.1875-27.516-8.1719-10.281-21.984-10.281-3.7188 0-7.5312 0.73438-3.7969 0.73438-7.9062 2.2031zm19.625 30.906q6.6406 0 10.516 4.5312 3.8906 4.5469 3.8906 12.469 0 7.8594-3.8906 12.422-3.875 4.5625-10.516 4.5625t-10.516-4.5625-3.875-12.422q0-7.9219 3.875-12.469 3.875-4.5312 10.516-4.5312z"/>
</defs>
<use xlink:href="#c"/>
<use x="63.623047" xlink:href="#d"/>
<use x="95.410156" xlink:href="#ab"/>
</g>
</g>
<g clip-path="url(#a)">
<g transform="translate(553.23 287.99) scale(.1 -.1)">
<use xlink:href="#c"/>
<use x="63.623047" xlink:href="#d"/>
<use x="95.410156" xlink:href="#c"/>
<use x="159.033203" xlink:href="#u"/>
</g>
</g>
<g clip-path="url(#a)">
<g transform="translate(308.16 375.06) scale(.1 -.1)">
<defs>
<path id="ao" d="m37.797 64.312-24.906-38.922h24.906zm-2.5938 8.5938h12.406v-47.516h10.406v-8.2031h-10.406v-17.188h-9.8125v17.188h-32.906v9.5156z"/>
</defs>
<use xlink:href="#c"/>
<use x="63.623047" xlink:href="#d"/>
<use x="95.410156" xlink:href="#c"/>
<use x="159.033203" xlink:href="#ao"/>
</g>
</g>
<g clip-path="url(#a)">
<g transform="translate(318.45 287.99) scale(.1 -.1)">
<defs>
<path id="an" d="m10.797 72.906h38.719v-8.3125h-29.688v-17.859q2.1406 0.73438 4.2812 1.0938 2.1562 0.35938 4.3125 0.35938 12.203 0 19.328-6.6875 7.1406-6.6875 7.1406-18.109 0-11.766-7.3281-18.297-7.3281-6.5156-20.656-6.5156-4.5938 0-9.3594 0.78125-4.75 0.78125-9.8281 2.3438v9.9219q4.3906-2.3906 9.0781-3.5625t9.9062-1.1719q8.4531 0 13.375 4.4375 4.9375 4.4375 4.9375 12.062 0 7.6094-4.9375 12.047-4.9219 4.4531-13.375 4.4531-3.9531 0-7.8906-0.875-3.9219-0.875-8.0156-2.7344z"/>
</defs>
<use xlink:href="#c"/>
<use x="63.623047" xlink:href="#d"/>
<use x="95.410156" xlink:href="#c"/>
<use x="159.033203" xlink:href="#an"/>
</g>
</g>
<g clip-path="url(#a)">
<g transform="translate(361.08 375.06) scale(.1 -.1)">
<use xlink:href="#c"/>
<use x="63.623047" xlink:href="#d"/>
<use x="95.410156" xlink:href="#c"/>
<use x="159.033203" xlink:href="#ac"/>
</g>
</g>
<g clip-path="url(#a)">
<g transform="translate(418.41 375.06) scale(.1 -.1)">
<use xlink:href="#c"/>
<use x="63.623047" xlink:href="#d"/>
<use x="95.410156" xlink:href="#c"/>
<use x="159.033203" xlink:href="#ab"/>
</g>
</g>
<g clip-path="url(#a)">
<g transform="translate(175.85 375.06) scale(.1 -.1)">
<defs>
<path id="ap" d="m31.781 66.406q-7.6094 0-11.453-7.5-3.8281-7.4844-3.8281-22.531 0-14.984 3.8281-22.484 3.8438-7.5 11.453-7.5 7.6719 0 11.5 7.5 3.8438 7.5 3.8438 22.484 0 15.047-3.8438 22.531-3.8281 7.5-11.5 7.5zm0 7.8125q12.266 0 18.734-9.7031 6.4688-9.6875 6.4688-28.141 0-18.406-6.4688-28.109-6.4688-9.6875-18.734-9.6875-12.25 0-18.719 9.6875-6.4688 9.7031-6.4688 28.109 0 18.453 6.4688 28.141 6.4688 9.7031 18.719 9.7031z"/>
</defs>
<use xlink:href="#c"/>
<use x="63.623047" xlink:href="#d"/>
<use x="95.410156" xlink:href="#m"/>
<use x="159.033203" xlink:href="#ap"/>
</g>
</g>
<g clip-path="url(#a)">
<g transform="translate(215.54 375.06) scale(.1 -.1)">
<use xlink:href="#c"/>
<use x="63.623047" xlink:href="#d"/>
<use x="95.410156" xlink:href="#m"/>
<use x="159.033203" xlink:href="#c"/>
</g>
</g>
<g clip-path="url(#a)">
<g transform="translate(546.3 375.06) scale(.1 -.1)">
<use xlink:href="#c"/>
<use x="63.623047" xlink:href="#d"/>
<use x="95.410156" xlink:href="#m"/>
<use x="159.033203" xlink:href="#m"/>
</g>
</g>
<g clip-path="url(#a)">
<g transform="translate(616.86 375.06) scale(.1 -.1)">
<use xlink:href="#c"/>
<use x="63.623047" xlink:href="#d"/>
<use x="95.410156" xlink:href="#m"/>
<use x="159.033203" xlink:href="#u"/>
</g>
</g>
<g clip-path="url(#a)">
<g transform="translate(691.83 375.06) scale(.1 -.1)">
<use xlink:href="#c"/>
<use x="63.623047" xlink:href="#d"/>
<use x="95.410156" xlink:href="#m"/>
<use x="159.033203" xlink:href="#ao"/>
</g>
</g>
<g clip-path="url(#a)">
<g transform="translate(109.7 375.06) scale(.1 -.1)">
<use xlink:href="#c"/>
<use x="63.623047" xlink:href="#d"/>
<use x="95.410156" xlink:href="#m"/>
<use x="159.033203" xlink:href="#an"/>
</g>
</g>
<g clip-path="url(#a)">
<g transform="translate(140.57 375.06) scale(.1 -.1)">
<use xlink:href="#c"/>
<use x="63.623047" xlink:href="#d"/>
<use x="95.410156" xlink:href="#m"/>
<use x="159.033203" xlink:href="#am"/>
</g>
</g>
<g clip-path="url(#a)">
<g transform="translate(259.64 375.06) scale(.1 -.1)">
<use xlink:href="#c"/>
<use x="63.623047" xlink:href="#d"/>
<use x="95.410156" xlink:href="#m"/>
<use x="159.033203" xlink:href="#al"/>
</g>
</g>
<g clip-path="url(#a)">
<g transform="translate(480.15 375.06) scale(.1 -.1)">
<use xlink:href="#c"/>
<use x="63.623047" xlink:href="#d"/>
<use x="95.410156" xlink:href="#m"/>
<use x="159.033203" xlink:href="#ac"/>
</g>
</g>
<g clip-path="url(#a)">
<g transform="translate(771.21 375.06) scale(.1 -.1)">
<use xlink:href="#c"/>
<use x="63.623047" xlink:href="#d"/>
<use x="95.410156" xlink:href="#m"/>
<use x="159.033203" xlink:href="#ab"/>
</g>
</g>
<g clip-path="url(#a)">
<g transform="translate(855 375.06) scale(.1 -.1)">
<use xlink:href="#c"/>
<use x="63.623047" xlink:href="#d"/>
<use x="95.410156" xlink:href="#u"/>
<use x="159.033203" xlink:href="#ap"/>
</g>
</g>
<defs>
<clipPath id="a">
<rect width="912" height="480"/>
</clipPath>
</defs>
</svg>
