<?xml version="1.0" encoding="UTF-8"?>
<!DOCTYPE svg  PUBLIC '-//W3C//DTD SVG 1.1//EN'  'http://www.w3.org/Graphics/SVG/1.1/DTD/svg11.dtd'>
<svg width="1874.7pt" height="986.67pt" version="1.1" viewBox="0 0 1874.7 986.67" xmlns="http://www.w3.org/2000/svg" xmlns:xlink="http://www.w3.org/1999/xlink">
<metadata>
<rdf:RDF xmlns:cc="http://creativecommons.org/ns#" xmlns:dc="http://purl.org/dc/elements/1.1/" xmlns:rdf="http://www.w3.org/1999/02/22-rdf-syntax-ns#">
<cc:Work>
<dc:type rdf:resource="http://purl.org/dc/dcmitype/StillImage"/>
<dc:date>2021-01-13T08:46:25.299707</dc:date>
<dc:format>image/svg+xml</dc:format>
<dc:creator>
<cc:Agent>
<dc:title>Matplotlib v3.3.3, https://matplotlib.org/</dc:title>
</cc:Agent>
</dc:creator>
</cc:Work>
</rdf:RDF>
</metadata>
<defs>
<style type="text/css">*{stroke-linecap:butt;stroke-linejoin:round;}</style>
</defs>
<path d="m0 986.67h1874.7v-986.67h-1874.7z" fill="#fff"/>
<g fill="none" stroke="#000">
<path d="m582.85 44.848-497.63 787.16" clip-path="url(#a)"/>
<path d="m582.85 44.848-458.18 563.89" clip-path="url(#a)"/>
<path d="m582.85 44.848-352.15 787.16" clip-path="url(#a)"/>
<path d="m582.85 44.848 28.645 113.17" clip-path="url(#a)"/>
<path d="m582.85 44.848 305.99 787.16" clip-path="url(#a)"/>
<path d="m582.85 44.848 368.34 787.16" clip-path="url(#a)"/>
<path d="m582.85 44.848 736.59 563.89" clip-path="url(#a)"/>
<path d="m582.85 44.848-377.55 787.16" clip-path="url(#a)"/>
<path d="m582.85 44.848 245.95 787.16" clip-path="url(#a)"/>
<path d="m85.212 832v109.81" clip-path="url(#a)"/>
<path d="m124.66 608.74-27.904 111.93" clip-path="url(#a)"/>
<path d="m124.66 608.74-11.739 223.27" clip-path="url(#a)"/>
<path d="m124.66 608.74 37.526 111.93" clip-path="url(#a)"/>
<path d="m124.66 608.74 2.1168 223.27" clip-path="url(#a)"/>
<path d="m230.7 832v109.81" clip-path="url(#a)"/>
<path d="m611.49 158.02-314.76 113.01" clip-path="url(#a)"/>
<path d="m611.49 158.02 104.15 673.99" clip-path="url(#a)"/>
<path d="m611.49 158.02 159.57 673.99" clip-path="url(#a)"/>
<path d="m611.49 158.02 51.039 673.99" clip-path="url(#a)"/>
<path d="m888.84 832v109.81" clip-path="url(#a)"/>
<path d="m951.19 832v109.81" clip-path="url(#a)"/>
<path d="m1319.4 608.74-235.85 111.93" clip-path="url(#a)"/>
<path d="m1319.4 608.74-95.758 223.27" clip-path="url(#a)"/>
<path d="m1319.4 608.74-21.861 223.27" clip-path="url(#a)"/>
<path d="m1319.4 608.74 54.345 223.27" clip-path="url(#a)"/>
<path d="m1319.4 608.74 299.13 111.93" clip-path="url(#a)"/>
<path d="m1083.6 720.66-67.739 111.34" clip-path="url(#a)"/>
<path d="m1083.6 720.66-0.76976 111.34" clip-path="url(#a)"/>
<path d="m1083.6 720.66 68.508 111.34" clip-path="url(#a)"/>
<path d="m1223.7 832v109.81" clip-path="url(#a)"/>
<path d="m1297.6 832v109.81" clip-path="url(#a)"/>
<path d="m1373.8 832v109.81" clip-path="url(#a)"/>
<path d="m1618.6 720.66-166.27 111.34" clip-path="url(#a)"/>
<path d="m1618.6 720.66-85.443 111.34" clip-path="url(#a)"/>
<path d="m1618.6 720.66-2.3093 111.34" clip-path="url(#a)"/>
<path d="m1618.6 720.66 83.134 111.34" clip-path="url(#a)"/>
<path d="m1618.6 720.66 170.89 111.34" clip-path="url(#a)"/>
<path d="m1452.3 832v109.81" clip-path="url(#a)"/>
<path d="m1533.1 832v109.81" clip-path="url(#a)"/>
<path d="m1616.3 832v109.81" clip-path="url(#a)"/>
<path d="m1015.8 832v109.81" clip-path="url(#a)"/>
<path d="m1082.8 832v109.81" clip-path="url(#a)"/>
<path d="m1152.1 832v109.81" clip-path="url(#a)"/>
<path d="m296.73 271.02-38.319 560.98" clip-path="url(#a)"/>
<path d="m296.73 271.02 46.618 112.82" clip-path="url(#a)"/>
<path d="m296.73 271.02-8.2989 560.98" clip-path="url(#a)"/>
<path d="m715.64 832v109.81" clip-path="url(#a)"/>
<path d="m771.07 832v109.81" clip-path="url(#a)"/>
<path d="m258.41 832v109.81" clip-path="url(#a)"/>
<path d="m343.35 383.84-84.938 448.16" clip-path="url(#a)" stroke-dasharray="3.7,1.6"/>
<path d="m343.35 383.84-22.588 448.16" clip-path="url(#a)"/>
<path d="m343.35 383.84 12.052 448.16" clip-path="url(#a)"/>
<path d="m343.35 383.84 95.474 112.59" clip-path="url(#a)"/>
<path d="m320.76 832v109.81" clip-path="url(#a)"/>
<path d="m355.4 832v109.81" clip-path="url(#a)"/>
<path d="m438.82 496.43-46.474 335.57" clip-path="url(#a)"/>
<path d="m438.82 496.43 53.691 112.31" clip-path="url(#a)"/>
<path d="m438.82 496.43-7.2165 335.57" clip-path="url(#a)"/>
<path d="m392.35 832v109.81" clip-path="url(#a)"/>
<path d="m492.51 608.74-100.16 223.27" clip-path="url(#a)" stroke-dasharray="3.7,1.6"/>
<path d="m492.51 608.74-19.34 223.27" clip-path="url(#a)"/>
<path d="m492.51 608.74 24.536 223.27" clip-path="url(#a)"/>
<path d="m492.51 608.74 94.969 111.93" clip-path="url(#a)"/>
<path d="m473.17 832v109.81" clip-path="url(#a)"/>
<path d="m517.05 832v109.81" clip-path="url(#a)"/>
<path d="m587.48 720.66-24.247 111.34" clip-path="url(#a)"/>
<path d="m587.48 720.66 24.247 111.34" clip-path="url(#a)"/>
<path d="m563.23 832v109.81" clip-path="url(#a)"/>
<path d="m611.73 832v109.81" clip-path="url(#a)"/>
<path d="m96.758 720.66-4.6185 111.34" clip-path="url(#a)"/>
<path d="m96.758 720.66 4.6185 111.34" clip-path="url(#a)"/>
<path d="m112.92 832v109.81" clip-path="url(#a)"/>
<path d="m162.19 720.66-19.244 111.34" clip-path="url(#a)"/>
<path d="m162.19 720.66-0.76976 111.34" clip-path="url(#a)"/>
<path d="m162.19 720.66 20.014 111.34" clip-path="url(#a)"/>
<path d="m126.78 832v109.81" clip-path="url(#a)"/>
<path d="m142.94 832v109.81" clip-path="url(#a)"/>
<path d="m161.42 832v109.81" clip-path="url(#a)"/>
<path d="m182.2 832v109.81" clip-path="url(#a)"/>
<path d="m92.14 832v109.81" clip-path="url(#a)"/>
<path d="m101.38 832v109.81" clip-path="url(#a)"/>
<path d="m205.29 832v109.81" clip-path="url(#a)"/>
<path d="m288.43 832v109.81" clip-path="url(#a)"/>
<path d="m431.6 832v109.81" clip-path="url(#a)"/>
<path d="m662.53 832v109.81" clip-path="url(#a)"/>
<path d="m828.8 832v109.81" clip-path="url(#a)"/>
<path d="m1701.7 832v109.81" clip-path="url(#a)"/>
<path d="m1789.5 832v109.81" clip-path="url(#a)"/>
</g>
<path d="m338.14 443.66 2.3819-3.7677q1.2825-2.0286-0.74614-3.3111l-6.5444-4.1373q-2.0286-1.2825-3.3111 0.74614l-2.3819 3.7677q-1.2825 2.0286 0.74614 3.3111l6.5444 4.1373q2.0286 1.2825 3.3111-0.74614z" clip-path="url(#a)" fill="#fff" stroke="#fff"/>
<g clip-path="url(#a)">
<g transform="translate(334.7 441.49) rotate(-57.699) scale(.08 -.08)">
<defs>
<path id="al" d="m9.8125 72.906h9.8594v-64.609h35.5v-8.2969h-45.359z"/>
</defs>
<use xlink:href="#al"/>
</g>
</g>
<path d="m356.72 333.08 3.7939-4.6692q1.5135-1.8626-0.34916-3.3761l-6.0089-4.8825q-1.8626-1.5135-3.3761 0.34916l-3.7939 4.6692q-1.5135 1.8626 0.34916 3.3761l6.0089 4.8825q1.8626 1.5135 3.3761-0.34916z" clip-path="url(#a)" fill="#fff" stroke="#fff"/>
<g clip-path="url(#a)">
<g transform="translate(353.57 330.52) rotate(-50.905) scale(.08 -.08)">
<defs>
<path id="au" d="m9.8125 72.906h9.8594v-29.891h35.844v29.891h9.8594v-72.906h-9.8594v34.719h-35.844v-34.719h-9.8594z"/>
</defs>
<use xlink:href="#au"/>
</g>
</g>
<path d="m411.59 443.02 1.8203-4.0689q0.98008-2.1908-1.2107-3.1708l-7.0675-3.1618q-2.1908-0.98008-3.1708 1.2107l-1.8203 4.0689q-0.98008 2.1908 1.2107 3.1708l7.0675 3.1618q2.1908 0.98008 3.1708-1.2107z" clip-path="url(#a)" fill="#fff" stroke="#fff"/>
<g clip-path="url(#a)">
<g transform="translate(407.88 441.36) rotate(-65.898) scale(.08 -.08)">
<use xlink:href="#al"/>
</g>
</g>
<path d="m590.35 100.06 1.4762 5.8323q0.5889 2.3266 2.9155 1.7377l7.5058-1.8998q2.3266-0.5889 1.7377-2.9155l-1.4762-5.8323q-0.5889-2.3266-2.9155-1.7377l-7.5058 1.8998q-2.3266 0.5889-1.7377 2.9155z" clip-path="url(#a)" fill="#fff" stroke="#fff"/>
<g clip-path="url(#a)">
<g transform="translate(594.29 99.058) rotate(75.796) scale(.08 -.08)">
<use xlink:href="#au"/>
</g>
</g>
<path d="m729.19 438.62 1.615 4.1546q0.86956 2.2369 3.1065 1.3674l7.2164-2.8052q2.2369-0.86956 1.3674-3.1065l-1.615-4.1546q-0.86956-2.2369-3.1065-1.3674l-7.2164 2.8052q-2.2369 0.86956-1.3674 3.1065z" clip-path="url(#a)" fill="#fff" stroke="#fff"/>
<g clip-path="url(#a)">
<g transform="translate(732.98 437.15) rotate(68.757) scale(.08 -.08)">
<use xlink:href="#al"/>
</g>
</g>
<path d="m760.39 439.07 1.8892 4.0373q1.0172 2.1738 3.191 1.1566l7.0127-3.2815q2.1738-1.0172 1.1566-3.191l-1.8892-4.0373q-1.0172-2.1738-3.191-1.1566l-7.0127 3.2815q-2.1738 1.0172-1.1566 3.191z" clip-path="url(#a)" fill="#fff" stroke="#fff"/>
<g clip-path="url(#a)">
<g transform="translate(764.07 437.34) rotate(64.923) scale(.08 -.08)">
<use xlink:href="#al"/>
</g>
</g>
<path d="m944.94 329.94 4.7771 3.6571q1.9057 1.4589 3.3646-0.44682l4.7064-6.1479q1.4589-1.9057-0.44682-3.3646l-4.7771-3.6571q-1.9057-1.4589-3.3646 0.44682l-4.7064 6.1479q-1.4589 1.9057 0.44682 3.3646z" clip-path="url(#a)" fill="#fff" stroke="#fff"/>
<g clip-path="url(#a)">
<g transform="translate(947.41 326.72) rotate(37.435) scale(.08 -.08)">
<use xlink:href="#au"/>
</g>
</g>
<path d="m398.46 443.78 2.5321-5.2792q1.0379-2.164-1.126-3.2019l-6.981-3.3484q-2.164-1.0379-3.2019 1.126l-2.5321 5.2792q-1.0379 2.164 1.126 3.2019l6.981 3.3484q2.164 1.0379 3.2019-1.126z" clip-path="url(#a)" fill="#fff" stroke="#fff"/>
<g clip-path="url(#a)">
<g transform="translate(394.79 442.02) rotate(-64.376) scale(.08 -.08)">
<defs>
<path id="x" d="m8.6875 72.906h9.9219v-44.297q0-11.719 4.2344-16.875 4.25-5.1406 13.781-5.1406 9.4688 0 13.719 5.1406 4.25 5.1562 4.25 16.875v44.297h9.9062v-45.516q0-14.25-7.0625-21.531-7.0469-7.2812-20.812-7.2812-13.828 0-20.891 7.2812-7.0469 7.2812-7.0469 21.531z"/>
</defs>
<use xlink:href="#x"/>
</g>
</g>
<path d="m698.96 437.5 1.7462 5.5886q0.71577 2.2908 3.0065 1.575l7.3902-2.3091q2.2908-0.71576 1.575-3.0065l-1.7462-5.5886q-0.71577-2.2908-3.0065-1.575l-7.3902 2.3091q-2.2908 0.71577-1.575 3.0065z" clip-path="url(#a)" fill="#fff" stroke="#fff"/>
<g clip-path="url(#a)">
<g transform="translate(702.84 436.29) rotate(72.648) scale(.08 -.08)">
<use xlink:href="#x"/>
</g>
</g>
<path d="m78.941 870.01v33.808q0 2.4 2.4 2.4h7.7425q2.4 0 2.4-2.4v-33.808q0-2.4-2.4-2.4h-7.7425q-2.4 0-2.4 2.4z" clip-path="url(#a)" fill="#fff" stroke="#fff"/>
<g clip-path="url(#a)">
<g transform="translate(83.005 870.01) rotate(90) scale(.08 -.08)">
<defs>
<path id="e" d="m-0.29688 72.906h61.672v-8.3125h-25.875v-64.594h-9.9062v64.594h-25.891z"/>
<path id="l" d="m56.203 29.594v-4.3906h-41.312q0.59375-9.2812 5.5938-14.141t13.938-4.8594q5.1719 0 10.031 1.2656t9.6562 3.8125v-8.5q-4.8438-2.0469-9.9219-3.125t-10.297-1.0781q-13.094 0-20.734 7.6094-7.6406 7.625-7.6406 20.625 0 13.422 7.25 21.297 7.25 7.8906 19.562 7.8906 11.031 0 17.453-7.1094 6.4219-7.0938 6.4219-19.297zm-8.9844 2.6406q-0.09375 7.3594-4.125 11.75-4.0312 4.4062-10.672 4.4062-7.5156 0-12.031-4.25t-5.2031-11.969z"/>
<path id="g" d="m41.109 46.297q-1.5156 0.875-3.2969 1.2812-1.7812 0.42188-3.9219 0.42188-7.625 0-11.703-4.9531t-4.0781-14.234v-28.812h-9.0312v54.688h9.0312v-8.5q2.8438 4.9844 7.375 7.3906 4.5469 2.4219 11.047 2.4219 0.92188 0 2.0469-0.125 1.125-0.10938 2.4844-0.35938z"/>
<path id="i" d="m52 44.188q3.375 6.0625 8.0625 8.9375t11.031 2.875q8.5469 0 13.188-5.9844 4.6406-5.9688 4.6406-17v-33.016h-9.0312v32.719q0 7.8594-2.7969 11.656-2.7812 3.8125-8.4844 3.8125-6.9844 0-11.047-4.6406-4.0469-4.625-4.0469-12.641v-30.906h-9.0312v32.719q0 7.9062-2.7812 11.688t-8.5938 3.7812q-6.8906 0-10.953-4.6562-4.0469-4.6562-4.0469-12.625v-30.906h-9.0312v54.688h9.0312v-8.5q3.0781 5.0312 7.375 7.4219t10.203 2.3906q5.9688 0 10.141-3.0312 4.1719-3.0156 6.1719-8.7812z"/>
<path id="k" d="m9.4219 54.688h8.9844v-54.688h-8.9844zm0 21.297h8.9844v-11.391h-8.9844z"/>
<path id="h" d="m54.891 33.016v-33.016h-8.9844v32.719q0 7.7656-3.0312 11.609-3.0312 3.8594-9.0781 3.8594-7.2812 0-11.484-4.6406-4.2031-4.625-4.2031-12.641v-30.906h-9.0312v54.688h9.0312v-8.5q3.2344 4.9375 7.5938 7.375 4.375 2.4375 10.094 2.4375 9.4219 0 14.25-5.8281 4.8438-5.8281 4.8438-17.156z"/>
<path id="f" d="m34.281 27.484q-10.891 0-15.094-2.4844t-4.2031-8.5q0-4.7812 3.1562-7.5938 3.1562-2.7969 8.5625-2.7969 7.4844 0 12 5.2969t4.5156 14.078v2zm17.922 3.7188v-31.203h-8.9844v8.2969q-3.0781-4.9688-7.6719-7.3438t-11.234-2.375q-8.3906 0-13.359 4.7188-4.9531 4.7188-4.9531 12.625 0 9.2188 6.1719 13.906 6.1875 4.6875 18.438 4.6875h12.609v0.89062q0 6.2031-4.0781 9.5938t-11.453 3.3906q-4.6875 0-9.1406-1.125-4.4375-1.125-8.5312-3.375v8.3125q4.9219 1.9062 9.5625 2.8438 4.6406 0.95312 9.0312 0.95312 11.875 0 17.734-6.1562 5.8594-6.1406 5.8594-18.641z"/>
<path id="j" d="m9.4219 75.984h8.9844v-75.984h-8.9844z"/>
</defs>
<use xlink:href="#e"/>
<use x="44.083984" xlink:href="#l"/>
<use x="105.607422" xlink:href="#g"/>
<use x="144.970703" xlink:href="#i"/>
<use x="242.382812" xlink:href="#k"/>
<use x="270.166016" xlink:href="#h"/>
<use x="333.544922" xlink:href="#f"/>
<use x="394.824219" xlink:href="#j"/>
</g>
</g>
<path d="m116.13 668.87 1.3238-5.31q0.58056-2.3287-1.7482-2.9093l-7.5126-1.8729q-2.3287-0.58056-2.9093 1.7482l-1.3238 5.31q-0.58056 2.3287 1.7482 2.9093l7.5126 1.8729q2.3287 0.58056 2.9093-1.7482z" clip-path="url(#a)" fill="#fff" stroke="#fff"/>
<g clip-path="url(#a)">
<g transform="translate(112.19 667.89) rotate(-76.001) scale(.08 -.08)">
<defs>
<path id="t" d="m34.188 63.188-13.391-36.281h26.812zm-5.5781 9.7188h11.188l27.781-72.906h-10.25l-6.6406 18.703h-32.859l-6.6406-18.703h-10.406z"/>
</defs>
<use xlink:href="#t"/>
</g>
</g>
<path d="m124.93 723.11 0.25327-4.8171q0.12601-2.3967-2.2707-2.5227l-7.7318-0.40652q-2.3967-0.12601-2.5227 2.2707l-0.25327 4.8171q-0.12601 2.3967 2.2707 2.5227l7.7318 0.40652q2.3967 0.12601 2.5227-2.2707z" clip-path="url(#a)" fill="#fff" stroke="#fff"/>
<g clip-path="url(#a)">
<g transform="translate(120.87 722.9) rotate(-86.99) scale(.08 -.08)">
<defs>
<path id="aa" d="m19.672 64.797v-27.391h12.406q6.8906 0 10.641 3.5625 3.7656 3.5625 3.7656 10.156 0 6.5469-3.7656 10.109-3.75 3.5625-10.641 3.5625zm-9.8594 8.1094h22.266q12.266 0 18.531-5.5469 6.2812-5.5469 6.2812-16.234 0-10.797-6.2812-16.312-6.2656-5.5156-18.531-5.5156h-12.406v-29.297h-9.8594z"/>
</defs>
<use xlink:href="#aa"/>
</g>
</g>
<path d="m136.61 664.1 1.7396 5.1886q0.76292 2.2755 3.0384 1.5126l7.3409-2.4612q2.2755-0.76292 1.5126-3.0384l-1.7396-5.1886q-0.76292-2.2755-3.0384-1.5126l-7.3409 2.4612q-2.2755 0.76292-1.5126 3.0384z" clip-path="url(#a)" fill="#fff" stroke="#fff"/>
<g clip-path="url(#a)">
<g transform="translate(140.46 662.81) rotate(71.465) scale(.08 -.08)">
<use xlink:href="#t"/>
</g>
</g>
<path d="m119.42 717.5 0.05551 5.8547q0.022754 2.3999 2.4226 2.3771l7.7422-0.073405q2.3999-0.022753 2.3771-2.4226l-0.05551-5.8547q-0.022754-2.3999-2.4226-2.3771l-7.7422 0.073405q-2.3999 0.022754-2.3771 2.4226z" clip-path="url(#a)" fill="#fff" stroke="#fff"/>
<g clip-path="url(#a)">
<g transform="translate(123.49 717.46) rotate(89.457) scale(.08 -.08)">
<use xlink:href="#x"/>
</g>
</g>
<path d="m224.42 870.01v33.808q0 2.4 2.4 2.4h7.7425q2.4 0 2.4-2.4v-33.808q0-2.4-2.4-2.4h-7.7425q-2.4 0-2.4 2.4z" clip-path="url(#a)" fill="#fff" stroke="#fff"/>
<g clip-path="url(#a)">
<g transform="translate(228.49 870.01) rotate(90) scale(.08 -.08)">
<use xlink:href="#e"/>
<use x="44.083984" xlink:href="#l"/>
<use x="105.607422" xlink:href="#g"/>
<use x="144.970703" xlink:href="#i"/>
<use x="242.382812" xlink:href="#k"/>
<use x="270.166016" xlink:href="#h"/>
<use x="333.544922" xlink:href="#f"/>
<use x="394.824219" xlink:href="#j"/>
</g>
</g>
<path d="m453.65 221.35 5.1506-1.8492q2.2588-0.81096 1.4479-3.0698l-2.6162-7.2871q-0.81096-2.2588-3.0698-1.4479l-5.1506 1.8492q-2.2588 0.81096-1.4479 3.0698l2.6162 7.2871q0.81096 2.2588 3.0698 1.4479z" clip-path="url(#a)" fill="#fff" stroke="#fff"/>
<g clip-path="url(#a)">
<g transform="translate(452.28 217.52) rotate(-19.749) scale(.08 -.08)">
<use xlink:href="#t"/>
</g>
</g>
<path d="m656.9 492.92 0.94074 6.0877q0.36652 2.3718 2.7384 2.0053l7.6517-1.1824q2.3718-0.36652 2.0053-2.7384l-0.94074-6.0877q-0.36652-2.3718-2.7384-2.0053l-7.6517 1.1824q-2.3718 0.36652-2.0053 2.7384z" clip-path="url(#a)" fill="#fff" stroke="#fff"/>
<g clip-path="url(#a)">
<g transform="translate(660.92 492.3) rotate(81.216) scale(.08 -.08)">
<defs>
<path id="aw" d="m19.672 64.797v-56.688h11.922q15.094 0 22.094 6.8281 7 6.8438 7 21.594 0 14.641-7 21.453t-22.094 6.8125zm-9.8594 8.1094h20.266q21.188 0 31.094-8.8125 9.9219-8.8125 9.9219-27.562 0-18.859-9.9688-27.703-9.9531-8.8281-31.047-8.8281h-20.266z"/>
</defs>
<use xlink:href="#aw"/>
</g>
</g>
<path d="m684.59 493.98 1.1701 4.9421q0.55294 2.3354 2.8884 1.7825l7.5342-1.7838q2.3354-0.55294 1.7825-2.8884l-1.1701-4.9421q-0.55294-2.3354-2.8884-1.7825l-7.5342 1.7838q-2.3354 0.55294-1.7825 2.8884z" clip-path="url(#a)" fill="#fff" stroke="#fff"/>
<g clip-path="url(#a)">
<g transform="translate(688.55 493.05) rotate(76.68) scale(.08 -.08)">
<defs>
<path id="ay" d="m53.516 70.516v-9.625q-5.6094 2.6875-10.594 4-4.9844 1.3281-9.625 1.3281-8.0469 0-12.422-3.125t-4.375-8.8906q0-4.8438 2.9062-7.3125 2.9062-2.4531 11.016-3.9688l5.9531-1.2188q11.031-2.1094 16.281-7.4062t5.25-14.172q0-10.609-7.1094-16.078-7.0938-5.4688-20.812-5.4688-5.1719 0-11.016 1.1719-5.8281 1.1719-12.078 3.4688v10.156q6-3.3594 11.766-5.0781 5.7656-1.7031 11.328-1.7031 8.4375 0 13.031 3.3125 4.5938 3.3281 4.5938 9.4844 0 5.3594-3.2969 8.3906t-10.812 4.5469l-6.0156 1.1719q-11.031 2.1875-15.969 6.875-4.9219 4.6875-4.9219 13.047 0 9.6719 6.8125 15.234t18.766 5.5625q5.1406 0 10.453-0.9375 5.3281-0.92188 10.891-2.7656z"/>
</defs>
<use xlink:href="#ay"/>
</g>
</g>
<path d="m630.54 492.57 0.44211 5.8383q0.18122 2.3931 2.5744 2.2119l7.7204-0.58464q2.3931-0.18122 2.2119-2.5744l-0.44211-5.8383q-0.18122-2.3931-2.5744-2.2119l-7.7204 0.58464q-2.3931 0.18122-2.2119 2.5744z" clip-path="url(#a)" fill="#fff" stroke="#fff"/>
<g clip-path="url(#a)">
<g transform="translate(634.59 492.26) rotate(85.669) scale(.08 -.08)">
<use xlink:href="#x"/>
</g>
</g>
<path d="m882.57 870.01v33.808q0 2.4 2.4 2.4h7.7425q2.4 0 2.4-2.4v-33.808q0-2.4-2.4-2.4h-7.7425q-2.4 0-2.4 2.4z" clip-path="url(#a)" fill="#fff" stroke="#fff"/>
<g clip-path="url(#a)">
<g transform="translate(886.63 870.01) rotate(90) scale(.08 -.08)">
<use xlink:href="#e"/>
<use x="44.083984" xlink:href="#l"/>
<use x="105.607422" xlink:href="#g"/>
<use x="144.970703" xlink:href="#i"/>
<use x="242.382812" xlink:href="#k"/>
<use x="270.166016" xlink:href="#h"/>
<use x="333.544922" xlink:href="#f"/>
<use x="394.824219" xlink:href="#j"/>
</g>
</g>
<path d="m944.92 870.01v33.808q0 2.4 2.4 2.4h7.7425q2.4 0 2.4-2.4v-33.808q0-2.4-2.4-2.4h-7.7425q-2.4 0-2.4 2.4z" clip-path="url(#a)" fill="#fff" stroke="#fff"/>
<g clip-path="url(#a)">
<g transform="translate(948.98 870.01) rotate(90) scale(.08 -.08)">
<use xlink:href="#e"/>
<use x="44.083984" xlink:href="#l"/>
<use x="105.607422" xlink:href="#g"/>
<use x="144.970703" xlink:href="#i"/>
<use x="242.382812" xlink:href="#k"/>
<use x="270.166016" xlink:href="#h"/>
<use x="333.544922" xlink:href="#f"/>
<use x="394.824219" xlink:href="#j"/>
</g>
</g>
<path d="m1202 671.41 4.4144-2.0949q2.1682-1.0289 1.1393-3.1972l-3.3194-6.9948q-1.0289-2.1682-3.1972-1.1393l-4.4144 2.0949q-2.1682 1.0289-1.1393 3.1972l3.3194 6.9948q1.0289 2.1682 3.1972 1.1393z" clip-path="url(#a)" fill="#fff" stroke="#fff"/>
<g clip-path="url(#a)">
<g transform="translate(1200.3 667.74) rotate(-25.387) scale(.08 -.08)">
<use xlink:href="#e"/>
</g>
</g>
<path d="m1276.2 725.36 2.1571-5.0294q0.94601-2.2057-1.2597-3.1517l-7.1156-3.0519q-2.2057-0.94601-3.1517 1.2597l-2.1571 5.0294q-0.94601 2.2057 1.2597 3.1517l7.1156 3.0519q2.2057 0.94601 3.1517-1.2597z" clip-path="url(#a)" fill="#fff" stroke="#fff"/>
<g clip-path="url(#a)">
<g transform="translate(1272.5 723.76) rotate(-66.786) scale(.08 -.08)">
<use xlink:href="#t"/>
</g>
</g>
<path d="m1314.5 724.05 0.60028-6.1307q0.23388-2.3886-2.1547-2.6225l-7.7056-0.7545q-2.3886-0.23388-2.6225 2.1547l-0.60028 6.1307q-0.23388 2.3886 2.1547 2.6225l7.7056 0.7545q2.3886 0.23388 2.6225-2.1547z" clip-path="url(#a)" fill="#fff" stroke="#fff"/>
<g clip-path="url(#a)">
<g transform="translate(1310.4 723.65) rotate(-84.408) scale(.08 -.08)">
<use xlink:href="#aw"/>
</g>
</g>
<path d="m1339.9 719.51 1.1408 4.6869q0.5676 2.3319 2.8995 1.7643l7.5229-1.8311q2.3319-0.56761 1.7643-2.8995l-1.1408-4.6869q-0.56761-2.3319-2.8995-1.7643l-7.5229 1.8311q-2.3319 0.56761-1.7643 2.8995z" clip-path="url(#a)" fill="#fff" stroke="#fff"/>
<g clip-path="url(#a)">
<g transform="translate(1343.9 718.55) rotate(76.32) scale(.08 -.08)">
<use xlink:href="#aa"/>
</g>
</g>
<path d="m1464.2 669.61 5.1255 1.9178q2.2478 0.84107 3.0889-1.4067l2.7133-7.2515q0.84106-2.2478-1.4067-3.0889l-5.1255-1.9178q-2.2478-0.84107-3.0889 1.4067l-2.7133 7.2515q-0.84107 2.2478 1.4067 3.0889z" clip-path="url(#a)" fill="#fff" stroke="#fff"/>
<g clip-path="url(#a)">
<g transform="translate(1465.7 665.81) rotate(20.514) scale(.08 -.08)">
<use xlink:href="#t"/>
</g>
</g>
<path d="m1053.6 781.97 2.8892-4.7489q1.2474-2.0504-0.80295-3.2978l-6.6145-4.0242q-2.0504-1.2474-3.2978 0.80295l-2.8892 4.7489q-1.2474 2.0504 0.80295 3.2978l6.6145 4.0242q2.0504 1.2474 3.2978-0.80295z" clip-path="url(#a)" fill="#fff" stroke="#fff"/>
<g clip-path="url(#a)">
<g transform="translate(1050.2 779.86) rotate(-58.684) scale(.08 -.08)">
<defs>
<path id="ak" d="m44.391 34.188q3.1719-1.0781 6.1719-4.5938t6.0312-9.6719l10.016-19.922h-10.609l-9.3125 18.703q-3.625 7.3281-7.0156 9.7188t-9.25 2.3906h-10.75v-30.812h-9.8594v72.906h22.266q12.5 0 18.656-5.2344 6.1562-5.2188 6.1562-15.766 0-6.8906-3.2031-11.438-3.2031-4.5312-9.2969-6.2812zm-24.719 30.609v-25.875h12.406q7.125 0 10.766 3.2969t3.6406 9.6875-3.6406 9.6406-10.766 3.25z"/>
</defs>
<use xlink:href="#ak"/>
</g>
</g>
<path d="m1089.5 778.9 0.034947-5.0549q0.016592-2.3999-2.3834-2.4165l-7.7423-0.053526q-2.3999-0.016592-2.4165 2.3834l-0.034947 5.0549q-0.016592 2.3999 2.3834 2.4165l7.7423 0.053527q2.3999 0.016591 2.4165-2.3834z" clip-path="url(#a)" fill="#fff" stroke="#fff"/>
<g clip-path="url(#a)">
<g transform="translate(1085.4 778.88) rotate(-89.604) scale(.08 -.08)">
<defs>
<path id="av" d="m9.8125 72.906h46.094v-8.3125h-36.234v-21.578h34.719v-8.2969h-34.719v-26.422h37.109v-8.2969h-46.969z"/>
</defs>
<use xlink:href="#av"/>
</g>
</g>
<path d="m1111 777.24 2.9274 4.7578q1.2577 2.0441 3.3018 0.78635l6.5942-4.0574q2.0441-1.2577 0.78635-3.3018l-2.9274-4.7578q-1.2577-2.0441-3.3018-0.78635l-6.5942 4.0574q-2.0441 1.2577-0.78635 3.3018z" clip-path="url(#a)" fill="#fff" stroke="#fff"/>
<g clip-path="url(#a)">
<g transform="translate(1114.5 775.11) rotate(58.396) scale(.08 -.08)">
<defs>
<path id="ab" d="m64.406 67.281v-10.391q-4.9844 4.6406-10.625 6.9219-5.6406 2.2969-11.984 2.2969-12.5 0-19.141-7.6406t-6.6406-22.094q0-14.406 6.6406-22.047t19.141-7.6406q6.3438 0 11.984 2.2969t10.625 6.9375v-10.312q-5.1719-3.5156-10.969-5.2812-5.7812-1.75-12.219-1.75-16.562 0-26.094 10.125-9.5156 10.141-9.5156 27.672 0 17.578 9.5156 27.703 9.5312 10.141 26.094 10.141 6.5312 0 12.312-1.7344 5.7969-1.7344 10.875-5.2031z"/>
</defs>
<use xlink:href="#ab"/>
</g>
</g>
<path d="m1217.4 870.01v33.808q0 2.4 2.4 2.4h7.7425q2.4 0 2.4-2.4v-33.808q0-2.4-2.4-2.4h-7.7425q-2.4 0-2.4 2.4z" clip-path="url(#a)" fill="#fff" stroke="#fff"/>
<g clip-path="url(#a)">
<g transform="translate(1221.5 870.01) rotate(90) scale(.08 -.08)">
<use xlink:href="#e"/>
<use x="44.083984" xlink:href="#l"/>
<use x="105.607422" xlink:href="#g"/>
<use x="144.970703" xlink:href="#i"/>
<use x="242.382812" xlink:href="#k"/>
<use x="270.166016" xlink:href="#h"/>
<use x="333.544922" xlink:href="#f"/>
<use x="394.824219" xlink:href="#j"/>
</g>
</g>
<path d="m1291.3 870.01v33.808q0 2.4 2.4 2.4h7.7425q2.4 0 2.4-2.4v-33.808q0-2.4-2.4-2.4h-7.7425q-2.4 0-2.4 2.4z" clip-path="url(#a)" fill="#fff" stroke="#fff"/>
<g clip-path="url(#a)">
<g transform="translate(1295.4 870.01) rotate(90) scale(.08 -.08)">
<use xlink:href="#e"/>
<use x="44.083984" xlink:href="#l"/>
<use x="105.607422" xlink:href="#g"/>
<use x="144.970703" xlink:href="#i"/>
<use x="242.382812" xlink:href="#k"/>
<use x="270.166016" xlink:href="#h"/>
<use x="333.544922" xlink:href="#f"/>
<use x="394.824219" xlink:href="#j"/>
</g>
</g>
<path d="m1367.5 870.01v33.808q0 2.4 2.4 2.4h7.7425q2.4 0 2.4-2.4v-33.808q0-2.4-2.4-2.4h-7.7425q-2.4 0-2.4 2.4z" clip-path="url(#a)" fill="#fff" stroke="#fff"/>
<g clip-path="url(#a)">
<g transform="translate(1371.6 870.01) rotate(90) scale(.08 -.08)">
<use xlink:href="#e"/>
<use x="44.083984" xlink:href="#l"/>
<use x="105.607422" xlink:href="#g"/>
<use x="144.970703" xlink:href="#i"/>
<use x="242.382812" xlink:href="#k"/>
<use x="270.166016" xlink:href="#h"/>
<use x="333.544922" xlink:href="#f"/>
<use x="394.824219" xlink:href="#j"/>
</g>
</g>
<path d="m1536.7 783.07 4.5471-3.045q1.9942-1.3354 0.65877-3.3296l-4.3081-6.4333q-1.3354-1.9942-3.3296-0.65877l-4.5471 3.045q-1.9942 1.3354-0.65877 3.3296l4.3081 6.4333q1.3354 1.9942 3.3296 0.65877z" clip-path="url(#a)" fill="#fff" stroke="#fff"/>
<g clip-path="url(#a)">
<g transform="translate(1534.4 779.69) rotate(-33.808) scale(.08 -.08)">
<use xlink:href="#t"/>
</g>
</g>
<path d="m1578.9 782.6 3.7502-4.8869q1.4611-1.904-0.44287-3.3651l-6.1423-4.7136q-1.904-1.4611-3.3651 0.44287l-3.7502 4.8869q-1.4611 1.904 0.44287 3.3651l6.1423 4.7136q1.904 1.4611 3.3651-0.44287z" clip-path="url(#a)" fill="#fff" stroke="#fff"/>
<g clip-path="url(#a)">
<g transform="translate(1575.7 780.12) rotate(-52.497) scale(.08 -.08)">
<use xlink:href="#aw"/>
</g>
</g>
<path d="m1623.6 779 0.10531-5.0777q0.049766-2.3995-2.3497-2.4493l-7.7408-0.16055q-2.3995-0.049766-2.4492 2.3497l-0.10531 5.0777q-0.049767 2.3995 2.3497 2.4493l7.7408 0.16055q2.3995 0.049767 2.4492-2.3497z" clip-path="url(#a)" fill="#fff" stroke="#fff"/>
<g clip-path="url(#a)">
<g transform="translate(1619.6 778.92) rotate(-88.812) scale(.08 -.08)">
<use xlink:href="#ay"/>
</g>
</g>
<path d="m1653.4 777.74 3.503 4.6915q1.4359 1.9231 3.359 0.4872l6.2039-4.6322q1.9231-1.4359 0.4872-3.359l-3.503-4.6915q-1.4359-1.9231-3.359-0.4872l-6.2039 4.6322q-1.9231 1.4359-0.4872 3.359z" clip-path="url(#a)" fill="#fff" stroke="#fff"/>
<g clip-path="url(#a)">
<g transform="translate(1656.6 775.31) rotate(53.253) scale(.08 -.08)">
<use xlink:href="#x"/>
</g>
</g>
<path d="m1698.1 779.99 4.9056 3.1963q2.0108 1.3102 3.321-0.70067l4.2267-6.487q1.3102-2.0108-0.70067-3.321l-4.9056-3.1963q-2.0108-1.3102-3.321 0.70067l-4.2267 6.487q-1.3102 2.0108 0.70067 3.321z" clip-path="url(#a)" fill="#fff" stroke="#fff"/>
<g clip-path="url(#a)">
<g transform="translate(1700.4 776.59) rotate(33.086) scale(.08 -.08)">
<use xlink:href="#x"/>
</g>
</g>
<path d="m1446 870.01v33.808q0 2.4 2.4 2.4h7.7425q2.4 0 2.4-2.4v-33.808q0-2.4-2.4-2.4h-7.7425q-2.4 0-2.4 2.4z" clip-path="url(#a)" fill="#fff" stroke="#fff"/>
<g clip-path="url(#a)">
<g transform="translate(1450.1 870.01) rotate(90) scale(.08 -.08)">
<use xlink:href="#e"/>
<use x="44.083984" xlink:href="#l"/>
<use x="105.607422" xlink:href="#g"/>
<use x="144.970703" xlink:href="#i"/>
<use x="242.382812" xlink:href="#k"/>
<use x="270.166016" xlink:href="#h"/>
<use x="333.544922" xlink:href="#f"/>
<use x="394.824219" xlink:href="#j"/>
</g>
</g>
<path d="m1526.9 870.01v33.808q0 2.4 2.4 2.4h7.7425q2.4 0 2.4-2.4v-33.808q0-2.4-2.4-2.4h-7.7425q-2.4 0-2.4 2.4z" clip-path="url(#a)" fill="#fff" stroke="#fff"/>
<g clip-path="url(#a)">
<g transform="translate(1530.9 870.01) rotate(90) scale(.08 -.08)">
<use xlink:href="#e"/>
<use x="44.083984" xlink:href="#l"/>
<use x="105.607422" xlink:href="#g"/>
<use x="144.970703" xlink:href="#i"/>
<use x="242.382812" xlink:href="#k"/>
<use x="270.166016" xlink:href="#h"/>
<use x="333.544922" xlink:href="#f"/>
<use x="394.824219" xlink:href="#j"/>
</g>
</g>
<path d="m1610 870.01v33.808q0 2.4 2.4 2.4h7.7425q2.4 0 2.4-2.4v-33.808q0-2.4-2.4-2.4h-7.7425q-2.4 0-2.4 2.4z" clip-path="url(#a)" fill="#fff" stroke="#fff"/>
<g clip-path="url(#a)">
<g transform="translate(1614.1 870.01) rotate(90) scale(.08 -.08)">
<use xlink:href="#e"/>
<use x="44.083984" xlink:href="#l"/>
<use x="105.607422" xlink:href="#g"/>
<use x="144.970703" xlink:href="#i"/>
<use x="242.382812" xlink:href="#k"/>
<use x="270.166016" xlink:href="#h"/>
<use x="333.544922" xlink:href="#f"/>
<use x="394.824219" xlink:href="#j"/>
</g>
</g>
<path d="m1009.6 870.01v33.808q0 2.4 2.4 2.4h7.7425q2.4 0 2.4-2.4v-33.808q0-2.4-2.4-2.4h-7.7425q-2.4 0-2.4 2.4z" clip-path="url(#a)" fill="#fff" stroke="#fff"/>
<g clip-path="url(#a)">
<g transform="translate(1013.6 870.01) rotate(90) scale(.08 -.08)">
<use xlink:href="#e"/>
<use x="44.083984" xlink:href="#l"/>
<use x="105.607422" xlink:href="#g"/>
<use x="144.970703" xlink:href="#i"/>
<use x="242.382812" xlink:href="#k"/>
<use x="270.166016" xlink:href="#h"/>
<use x="333.544922" xlink:href="#f"/>
<use x="394.824219" xlink:href="#j"/>
</g>
</g>
<path d="m1076.5 870.01v33.808q0 2.4 2.4 2.4h7.7425q2.4 0 2.4-2.4v-33.808q0-2.4-2.4-2.4h-7.7425q-2.4 0-2.4 2.4z" clip-path="url(#a)" fill="#fff" stroke="#fff"/>
<g clip-path="url(#a)">
<g transform="translate(1080.6 870.01) rotate(90) scale(.08 -.08)">
<use xlink:href="#e"/>
<use x="44.083984" xlink:href="#l"/>
<use x="105.607422" xlink:href="#g"/>
<use x="144.970703" xlink:href="#i"/>
<use x="242.382812" xlink:href="#k"/>
<use x="270.166016" xlink:href="#h"/>
<use x="333.544922" xlink:href="#f"/>
<use x="394.824219" xlink:href="#j"/>
</g>
</g>
<path d="m1145.8 870.01v33.808q0 2.4 2.4 2.4h7.7425q2.4 0 2.4-2.4v-33.808q0-2.4-2.4-2.4h-7.7425q-2.4 0-2.4 2.4z" clip-path="url(#a)" fill="#fff" stroke="#fff"/>
<g clip-path="url(#a)">
<g transform="translate(1149.9 870.01) rotate(90) scale(.08 -.08)">
<use xlink:href="#e"/>
<use x="44.083984" xlink:href="#l"/>
<use x="105.607422" xlink:href="#g"/>
<use x="144.970703" xlink:href="#i"/>
<use x="242.382812" xlink:href="#k"/>
<use x="270.166016" xlink:href="#h"/>
<use x="333.544922" xlink:href="#f"/>
<use x="394.824219" xlink:href="#j"/>
</g>
</g>
<path d="m283.63 554.73 0.3807-5.5733q0.16356-2.3944-2.2309-2.558l-7.7245-0.52764q-2.3944-0.16356-2.558 2.2309l-0.3807 5.5733q-0.16356 2.3944 2.2309 2.558l7.7245 0.52764q2.3944 0.16356 2.558-2.2309z" clip-path="url(#a)" fill="#fff" stroke="#fff"/>
<g clip-path="url(#a)">
<g transform="translate(279.58 554.45) rotate(-86.092) scale(.08 -.08)">
<use xlink:href="#ab"/>
</g>
</g>
<path d="m313.28 327.49 1.9305 4.6718q0.91656 2.2181 3.1346 1.3015l7.1556-2.9569q2.2181-0.91656 1.3015-3.1346l-1.9305-4.6718q-0.91656-2.2181-3.1346-1.3015l-7.1556 2.9569q-2.2181 0.91656-1.3015 3.1346z" clip-path="url(#a)" fill="#fff" stroke="#fff"/>
<g clip-path="url(#a)">
<g transform="translate(317.03 325.94) rotate(67.549) scale(.08 -.08)">
<use xlink:href="#av"/>
</g>
</g>
<path d="m298.8 554.53 0.086607-5.8544q0.035501-2.3997-2.3642-2.4352l-7.7417-0.11453q-2.3997-0.035501-2.4352 2.3642l-0.086607 5.8544q-0.035501 2.3997 2.3642 2.4352l7.7417 0.11453q2.3997 0.035501 2.4352-2.3642z" clip-path="url(#a)" fill="#fff" stroke="#fff"/>
<g clip-path="url(#a)">
<g transform="translate(294.74 554.47) rotate(-89.152) scale(.08 -.08)">
<use xlink:href="#x"/>
</g>
</g>
<path d="m709.37 870.01v33.808q0 2.4 2.4 2.4h7.7425q2.4 0 2.4-2.4v-33.808q0-2.4-2.4-2.4h-7.7425q-2.4 0-2.4 2.4z" clip-path="url(#a)" fill="#fff" stroke="#fff"/>
<g clip-path="url(#a)">
<g transform="translate(713.44 870.01) rotate(90) scale(.08 -.08)">
<use xlink:href="#e"/>
<use x="44.083984" xlink:href="#l"/>
<use x="105.607422" xlink:href="#g"/>
<use x="144.970703" xlink:href="#i"/>
<use x="242.382812" xlink:href="#k"/>
<use x="270.166016" xlink:href="#h"/>
<use x="333.544922" xlink:href="#f"/>
<use x="394.824219" xlink:href="#j"/>
</g>
</g>
<path d="m764.79 870.01v33.808q0 2.4 2.4 2.4h7.7425q2.4 0 2.4-2.4v-33.808q0-2.4-2.4-2.4h-7.7425q-2.4 0-2.4 2.4z" clip-path="url(#a)" fill="#fff" stroke="#fff"/>
<g clip-path="url(#a)">
<g transform="translate(768.86 870.01) rotate(90) scale(.08 -.08)">
<use xlink:href="#e"/>
<use x="44.083984" xlink:href="#l"/>
<use x="105.607422" xlink:href="#g"/>
<use x="144.970703" xlink:href="#i"/>
<use x="242.382812" xlink:href="#k"/>
<use x="270.166016" xlink:href="#h"/>
<use x="333.544922" xlink:href="#f"/>
<use x="394.824219" xlink:href="#j"/>
</g>
</g>
<path d="m252.14 870.01v33.808q0 2.4 2.4 2.4h7.7425q2.4 0 2.4-2.4v-33.808q0-2.4-2.4-2.4h-7.7425q-2.4 0-2.4 2.4z" clip-path="url(#a)" fill="#fff" stroke="#fff"/>
<g clip-path="url(#a)">
<g transform="translate(256.2 870.01) rotate(90) scale(.08 -.08)">
<use xlink:href="#e"/>
<use x="44.083984" xlink:href="#l"/>
<use x="105.607422" xlink:href="#g"/>
<use x="144.970703" xlink:href="#i"/>
<use x="242.382812" xlink:href="#k"/>
<use x="270.166016" xlink:href="#h"/>
<use x="333.544922" xlink:href="#f"/>
<use x="394.824219" xlink:href="#j"/>
</g>
</g>
<path d="m306.53 611.78 1.019-5.3768q0.4469-2.358-1.9111-2.8049l-7.6071-1.4417q-2.358-0.4469-2.8049 1.9111l-1.019 5.3768q-0.4469 2.358 1.9111 2.8049l7.6071 1.4417q2.358 0.4469 2.8049-1.9111z" clip-path="url(#a)" fill="#fff" stroke="#fff"/>
<g clip-path="url(#a)">
<g transform="translate(302.54 611.02) rotate(-79.268) scale(.08 -.08)">
<use xlink:href="#t"/>
</g>
</g>
<path d="m338.18 611.01 0.27981-5.5517q0.12081-2.397-2.2762-2.5178l-7.7327-0.38973q-2.397-0.12081-2.5178 2.2762l-0.27981 5.5517q-0.12081 2.397 2.2762 2.5178l7.7327 0.38973q2.397 0.12081 2.5178-2.2762z" clip-path="url(#a)" fill="#fff" stroke="#fff"/>
<g clip-path="url(#a)">
<g transform="translate(334.12 610.81) rotate(-87.115) scale(.08 -.08)">
<use xlink:href="#ak"/>
</g>
</g>
<path d="m343.04 605.68 0.12967 4.822q0.064515 2.3991 2.4636 2.3346l7.7397-0.20813q2.3991-0.064515 2.3346-2.4636l-0.12967-4.822q-0.064515-2.3991-2.4636-2.3346l-7.7397 0.20813q-2.3991 0.064515-2.3346 2.4636z" clip-path="url(#a)" fill="#fff" stroke="#fff"/>
<g clip-path="url(#a)">
<g transform="translate(347.1 605.57) rotate(88.46) scale(.08 -.08)">
<use xlink:href="#aa"/>
</g>
</g>
<path d="m384.53 442.11 3.5393 4.1739q1.5522 1.8305 3.3827 0.27828l5.9052-5.0075q1.8305-1.5522 0.27828-3.3827l-3.5393-4.1739q-1.5522-1.8305-3.3827-0.27828l-5.9052 5.0075q-1.8305 1.5522-0.27828 3.3827z" clip-path="url(#a)" fill="#fff" stroke="#fff"/>
<g clip-path="url(#a)">
<g transform="translate(387.63 439.48) rotate(49.703) scale(.08 -.08)">
<use xlink:href="#t"/>
</g>
</g>
<path d="m314.49 870.01v33.808q0 2.4 2.4 2.4h7.7425q2.4 0 2.4-2.4v-33.808q0-2.4-2.4-2.4h-7.7425q-2.4 0-2.4 2.4z" clip-path="url(#a)" fill="#fff" stroke="#fff"/>
<g clip-path="url(#a)">
<g transform="translate(318.55 870.01) rotate(90) scale(.08 -.08)">
<use xlink:href="#e"/>
<use x="44.083984" xlink:href="#l"/>
<use x="105.607422" xlink:href="#g"/>
<use x="144.970703" xlink:href="#i"/>
<use x="242.382812" xlink:href="#k"/>
<use x="270.166016" xlink:href="#h"/>
<use x="333.544922" xlink:href="#f"/>
<use x="394.824219" xlink:href="#j"/>
</g>
</g>
<path d="m349.13 870.01v33.808q0 2.4 2.4 2.4h7.7425q2.4 0 2.4-2.4v-33.808q0-2.4-2.4-2.4h-7.7425q-2.4 0-2.4 2.4z" clip-path="url(#a)" fill="#fff" stroke="#fff"/>
<g clip-path="url(#a)">
<g transform="translate(353.19 870.01) rotate(90) scale(.08 -.08)">
<use xlink:href="#e"/>
<use x="44.083984" xlink:href="#l"/>
<use x="105.607422" xlink:href="#g"/>
<use x="144.970703" xlink:href="#i"/>
<use x="242.382812" xlink:href="#k"/>
<use x="270.166016" xlink:href="#h"/>
<use x="333.544922" xlink:href="#f"/>
<use x="394.824219" xlink:href="#j"/>
</g>
</g>
<path d="m421.41 667.84 0.76634-5.5334q0.32924-2.3773-2.0481-2.7065l-7.6693-1.0621q-2.3773-0.32924-2.7065 2.0481l-0.76634 5.5334q-0.32924 2.3773 2.0481 2.7065l7.6693 1.0621q2.3773 0.32924 2.7065-2.0481z" clip-path="url(#a)" fill="#fff" stroke="#fff"/>
<g clip-path="url(#a)">
<g transform="translate(417.39 667.29) rotate(-82.115) scale(.08 -.08)">
<use xlink:href="#ab"/>
</g>
</g>
<path d="m458.92 553.01 2.1803 4.5606q1.0352 2.1653 3.2004 1.1301l6.9853-3.3395q2.1653-1.0352 1.1301-3.2004l-2.1803-4.5606q-1.0352-2.1653-3.2004-1.1301l-6.9853 3.3395q-2.1653 1.0352-1.1301 3.2004z" clip-path="url(#a)" fill="#fff" stroke="#fff"/>
<g clip-path="url(#a)">
<g transform="translate(462.58 551.26) rotate(64.449) scale(.08 -.08)">
<use xlink:href="#av"/>
</g>
</g>
<path d="m441.42 667.28 0.12588-5.8536q0.0516-2.3994-2.3478-2.451l-7.7407-0.16646q-2.3994-0.051599-2.451 2.3478l-0.12588 5.8536q-0.0516 2.3994 2.3478 2.451l7.7407 0.16646q2.3994 0.0516 2.451-2.3478z" clip-path="url(#a)" fill="#fff" stroke="#fff"/>
<g clip-path="url(#a)">
<g transform="translate(437.36 667.19) rotate(-88.768) scale(.08 -.08)">
<use xlink:href="#x"/>
</g>
</g>
<path d="m386.07 870.01v33.808q0 2.4 2.4 2.4h7.7425q2.4 0 2.4-2.4v-33.808q0-2.4-2.4-2.4h-7.7425q-2.4 0-2.4 2.4z" clip-path="url(#a)" fill="#fff" stroke="#fff"/>
<g clip-path="url(#a)">
<g transform="translate(390.14 870.01) rotate(90) scale(.08 -.08)">
<use xlink:href="#e"/>
<use x="44.083984" xlink:href="#l"/>
<use x="105.607422" xlink:href="#g"/>
<use x="144.970703" xlink:href="#i"/>
<use x="242.382812" xlink:href="#k"/>
<use x="270.166016" xlink:href="#h"/>
<use x="333.544922" xlink:href="#f"/>
<use x="394.824219" xlink:href="#j"/>
</g>
</g>
<path d="m447.03 725.43 2.24-4.993q0.98238-2.1897-1.2073-3.1721l-7.0642-3.1692q-2.1897-0.98238-3.1721 1.2073l-2.24 4.993q-0.98238 2.1897 1.2073 3.1721l7.0642 3.1692q2.1897 0.98238 3.1721-1.2073z" clip-path="url(#a)" fill="#fff" stroke="#fff"/>
<g clip-path="url(#a)">
<g transform="translate(443.32 723.77) rotate(-65.837) scale(.08 -.08)">
<use xlink:href="#t"/>
</g>
</g>
<path d="m488.85 723.68 0.47972-5.538q0.20712-2.391-2.1839-2.5982l-7.7136-0.66818q-2.391-0.20712-2.5982 2.1839l-0.47972 5.538q-0.20712 2.391 2.1839 2.5982l7.7136 0.66818q2.391 0.20712 2.5982-2.1839z" clip-path="url(#a)" fill="#fff" stroke="#fff"/>
<g clip-path="url(#a)">
<g transform="translate(484.8 723.33) rotate(-85.049) scale(.08 -.08)">
<use xlink:href="#ak"/>
</g>
</g>
<path d="m498.28 718.66 0.52694 4.7949q0.26217 2.3856 2.6478 2.1235l7.6962-0.84577q2.3856-0.26217 2.1235-2.6478l-0.52694-4.7949q-0.26217-2.3856-2.6478-2.1235l-7.6962 0.84577q-2.3856 0.26217-2.1235 2.6478z" clip-path="url(#a)" fill="#fff" stroke="#fff"/>
<g clip-path="url(#a)">
<g transform="translate(502.32 718.21) rotate(83.729) scale(.08 -.08)">
<use xlink:href="#aa"/>
</g>
</g>
<path d="m533.44 666.67 3.5406 4.1728q1.5528 1.83 3.3828 0.27724l5.9037-5.0093q1.83-1.5528 0.27724-3.3828l-3.5406-4.1728q-1.5528-1.83-3.3828-0.27724l-5.9037 5.0093q-1.83 1.5528-0.27724 3.3828z" clip-path="url(#a)" fill="#fff" stroke="#fff"/>
<g clip-path="url(#a)">
<g transform="translate(536.54 664.04) rotate(49.685) scale(.08 -.08)">
<use xlink:href="#t"/>
</g>
</g>
<path d="m466.9 870.01v33.808q0 2.4 2.4 2.4h7.7425q2.4 0 2.4-2.4v-33.808q0-2.4-2.4-2.4h-7.7425q-2.4 0-2.4 2.4z" clip-path="url(#a)" fill="#fff" stroke="#fff"/>
<g clip-path="url(#a)">
<g transform="translate(470.96 870.01) rotate(90) scale(.08 -.08)">
<use xlink:href="#e"/>
<use x="44.083984" xlink:href="#l"/>
<use x="105.607422" xlink:href="#g"/>
<use x="144.970703" xlink:href="#i"/>
<use x="242.382812" xlink:href="#k"/>
<use x="270.166016" xlink:href="#h"/>
<use x="333.544922" xlink:href="#f"/>
<use x="394.824219" xlink:href="#j"/>
</g>
</g>
<path d="m510.77 870.01v33.808q0 2.4 2.4 2.4h7.7425q2.4 0 2.4-2.4v-33.808q0-2.4-2.4-2.4h-7.7425q-2.4 0-2.4 2.4z" clip-path="url(#a)" fill="#fff" stroke="#fff"/>
<g clip-path="url(#a)">
<g transform="translate(514.84 870.01) rotate(90) scale(.08 -.08)">
<use xlink:href="#e"/>
<use x="44.083984" xlink:href="#l"/>
<use x="105.607422" xlink:href="#g"/>
<use x="144.970703" xlink:href="#i"/>
<use x="242.382812" xlink:href="#k"/>
<use x="270.166016" xlink:href="#h"/>
<use x="333.544922" xlink:href="#f"/>
<use x="394.824219" xlink:href="#j"/>
</g>
</g>
<path d="m580.89 780.38 1.1828-5.4314q0.51069-2.345-1.8343-2.8557l-7.5652-1.6475q-2.345-0.51069-2.8557 1.8343l-1.1828 5.4314q-0.51069 2.345 1.8343 2.8557l7.5652 1.6475q2.345 0.51069 2.8557-1.8343z" clip-path="url(#a)" fill="#fff" stroke="#fff"/>
<g clip-path="url(#a)">
<g transform="translate(576.92 779.52) rotate(-77.714) scale(.08 -.08)">
<use xlink:href="#ak"/>
</g>
</g>
<path d="m592.88 774.94 1.1887 5.4583q0.51069 2.345 2.8557 1.8343l7.5652-1.6475q2.345-0.51069 1.8343-2.8557l-1.1887-5.4583q-0.51069-2.345-2.8557-1.8343l-7.5652 1.6475q-2.345 0.51069-1.8343 2.8557z" clip-path="url(#a)" fill="#fff" stroke="#fff"/>
<g clip-path="url(#a)">
<g transform="translate(596.85 774.07) rotate(77.714) scale(.08 -.08)">
<use xlink:href="#ab"/>
</g>
</g>
<path d="m556.96 870.01v33.808q0 2.4 2.4 2.4h7.7425q2.4 0 2.4-2.4v-33.808q0-2.4-2.4-2.4h-7.7425q-2.4 0-2.4 2.4z" clip-path="url(#a)" fill="#fff" stroke="#fff"/>
<g clip-path="url(#a)">
<g transform="translate(561.02 870.01) rotate(90) scale(.08 -.08)">
<use xlink:href="#e"/>
<use x="44.083984" xlink:href="#l"/>
<use x="105.607422" xlink:href="#g"/>
<use x="144.970703" xlink:href="#i"/>
<use x="242.382812" xlink:href="#k"/>
<use x="270.166016" xlink:href="#h"/>
<use x="333.544922" xlink:href="#f"/>
<use x="394.824219" xlink:href="#j"/>
</g>
</g>
<path d="m605.45 870.01v33.808q0 2.4 2.4 2.4h7.7425q2.4 0 2.4-2.4v-33.808q0-2.4-2.4-2.4h-7.7425q-2.4 0-2.4 2.4z" clip-path="url(#a)" fill="#fff" stroke="#fff"/>
<g clip-path="url(#a)">
<g transform="translate(609.52 870.01) rotate(90) scale(.08 -.08)">
<use xlink:href="#e"/>
<use x="44.083984" xlink:href="#l"/>
<use x="105.607422" xlink:href="#g"/>
<use x="144.970703" xlink:href="#i"/>
<use x="242.382812" xlink:href="#k"/>
<use x="270.166016" xlink:href="#h"/>
<use x="333.544922" xlink:href="#f"/>
<use x="394.824219" xlink:href="#j"/>
</g>
</g>
<path d="m100.58 779.74 0.261-6.2921q0.099469-2.3979-2.2985-2.4974l-7.7358-0.32089q-2.3979-0.099469-2.4974 2.2985l-0.261 6.2921q-0.099468 2.3979 2.2985 2.4974l7.7358 0.32089q2.3979 0.099469 2.4974-2.2985z" clip-path="url(#a)" fill="#fff" stroke="#fff"/>
<g clip-path="url(#a)">
<g transform="translate(96.524 779.57) rotate(-87.625) scale(.08 -.08)">
<defs>
<path id="bc" d="m39.406 66.219q-10.75 0-17.078-8.0156-6.3125-8-6.3125-21.828 0-13.766 6.3125-21.781 6.3281-8 17.078-8 10.734 0 17.016 8 6.2812 8.0156 6.2812 21.781 0 13.828-6.2812 21.828-6.2812 8.0156-17.016 8.0156zm13.812-64.906 13-14.203h-11.922l-10.797 11.672q-1.6094-0.09375-2.4688-0.14062-0.84375-0.0625-1.625-0.0625-15.375 0-24.594 10.281-9.2031 10.281-9.2031 27.516 0 17.281 9.2031 27.562 9.2188 10.281 24.594 10.281 15.328 0 24.5-10.281 9.1875-10.281 9.1875-27.562 0-12.688-5.1094-21.734-5.0938-9.0312-14.766-13.328z"/>
</defs>
<use xlink:href="#bc"/>
</g>
</g>
<path d="m92.686 773.8 0.23152 5.5814q0.099469 2.3979 2.4974 2.2985l7.7358-0.32089q2.3979-0.099469 2.2985-2.4974l-0.23152-5.5815q-0.099468-2.3979-2.4974-2.2985l-7.7358 0.32089q-2.3979 0.099469-2.2985 2.4974z" clip-path="url(#a)" fill="#fff" stroke="#fff"/>
<g clip-path="url(#a)">
<g transform="translate(96.746 773.63) rotate(87.625) scale(.08 -.08)">
<use xlink:href="#ab"/>
</g>
</g>
<path d="m106.65 870.01v33.808q0 2.4 2.4 2.4h7.7425q2.4 0 2.4-2.4v-33.808q0-2.4-2.4-2.4h-7.7425q-2.4 0-2.4 2.4z" clip-path="url(#a)" fill="#fff" stroke="#fff"/>
<g clip-path="url(#a)">
<g transform="translate(110.72 870.01) rotate(90) scale(.08 -.08)">
<use xlink:href="#e"/>
<use x="44.083984" xlink:href="#l"/>
<use x="105.607422" xlink:href="#g"/>
<use x="144.970703" xlink:href="#i"/>
<use x="242.382812" xlink:href="#k"/>
<use x="270.166016" xlink:href="#h"/>
<use x="333.544922" xlink:href="#f"/>
<use x="394.824219" xlink:href="#j"/>
</g>
</g>
<path d="m158.28 780.1 0.93203-5.3925q0.40875-2.3649-1.9562-2.7737l-7.6294-1.3186q-2.3649-0.40875-2.7737 1.9562l-0.93203 5.3925q-0.40875 2.3649 1.9562 2.7737l7.6294 1.3186q2.3649 0.40875 2.7737-1.9562z" clip-path="url(#a)" fill="#fff" stroke="#fff"/>
<g clip-path="url(#a)">
<g transform="translate(154.28 779.41) rotate(-80.194) scale(.08 -.08)">
<use xlink:href="#t"/>
</g>
</g>
<path d="m168.06 778.79 0.033348-4.8236q0.016592-2.3999-2.3834-2.4165l-7.7423-0.053526q-2.3999-0.016592-2.4165 2.3834l-0.033348 4.8236q-0.016592 2.3999 2.3834 2.4165l7.7423 0.053526q2.3999 0.016592 2.4165-2.3834z" clip-path="url(#a)" fill="#fff" stroke="#fff"/>
<g clip-path="url(#a)">
<g transform="translate(163.99 778.76) rotate(-89.604) scale(.08 -.08)">
<use xlink:href="#aa"/>
</g>
</g>
<path d="m165.54 774.75 0.96817 5.3862q0.4246 2.3621 2.7867 1.9375l7.6204-1.3698q2.3621-0.4246 1.9375-2.7867l-0.96817-5.3862q-0.4246-2.3621-2.7867-1.9375l-7.6204 1.3698q-2.3621 0.4246-1.9375 2.7867z" clip-path="url(#a)" fill="#fff" stroke="#fff"/>
<g clip-path="url(#a)">
<g transform="translate(169.54 774.03) rotate(79.81) scale(.08 -.08)">
<use xlink:href="#t"/>
</g>
</g>
<path d="m120.51 870.01v33.808q0 2.4 2.4 2.4h7.7425q2.4 0 2.4-2.4v-33.808q0-2.4-2.4-2.4h-7.7425q-2.4 0-2.4 2.4z" clip-path="url(#a)" fill="#fff" stroke="#fff"/>
<g clip-path="url(#a)">
<g transform="translate(124.57 870.01) rotate(90) scale(.08 -.08)">
<use xlink:href="#e"/>
<use x="44.083984" xlink:href="#l"/>
<use x="105.607422" xlink:href="#g"/>
<use x="144.970703" xlink:href="#i"/>
<use x="242.382812" xlink:href="#k"/>
<use x="270.166016" xlink:href="#h"/>
<use x="333.544922" xlink:href="#f"/>
<use x="394.824219" xlink:href="#j"/>
</g>
</g>
<path d="m136.67 870.01v33.808q0 2.4 2.4 2.4h7.7425q2.4 0 2.4-2.4v-33.808q0-2.4-2.4-2.4h-7.7425q-2.4 0-2.4 2.4z" clip-path="url(#a)" fill="#fff" stroke="#fff"/>
<g clip-path="url(#a)">
<g transform="translate(140.74 870.01) rotate(90) scale(.08 -.08)">
<use xlink:href="#e"/>
<use x="44.083984" xlink:href="#l"/>
<use x="105.607422" xlink:href="#g"/>
<use x="144.970703" xlink:href="#i"/>
<use x="242.382812" xlink:href="#k"/>
<use x="270.166016" xlink:href="#h"/>
<use x="333.544922" xlink:href="#f"/>
<use x="394.824219" xlink:href="#j"/>
</g>
</g>
<path d="m155.15 870.01v33.808q0 2.4 2.4 2.4h7.7425q2.4 0 2.4-2.4v-33.808q0-2.4-2.4-2.4h-7.7425q-2.4 0-2.4 2.4z" clip-path="url(#a)" fill="#fff" stroke="#fff"/>
<g clip-path="url(#a)">
<g transform="translate(159.21 870.01) rotate(90) scale(.08 -.08)">
<use xlink:href="#e"/>
<use x="44.083984" xlink:href="#l"/>
<use x="105.607422" xlink:href="#g"/>
<use x="144.970703" xlink:href="#i"/>
<use x="242.382812" xlink:href="#k"/>
<use x="270.166016" xlink:href="#h"/>
<use x="333.544922" xlink:href="#f"/>
<use x="394.824219" xlink:href="#j"/>
</g>
</g>
<path d="m175.93 870.01v33.808q0 2.4 2.4 2.4h7.7425q2.4 0 2.4-2.4v-33.808q0-2.4-2.4-2.4h-7.7425q-2.4 0-2.4 2.4z" clip-path="url(#a)" fill="#fff" stroke="#fff"/>
<g clip-path="url(#a)">
<g transform="translate(179.99 870.01) rotate(90) scale(.08 -.08)">
<use xlink:href="#e"/>
<use x="44.083984" xlink:href="#l"/>
<use x="105.607422" xlink:href="#g"/>
<use x="144.970703" xlink:href="#i"/>
<use x="242.382812" xlink:href="#k"/>
<use x="270.166016" xlink:href="#h"/>
<use x="333.544922" xlink:href="#f"/>
<use x="394.824219" xlink:href="#j"/>
</g>
</g>
<path d="m85.869 870.01v33.808q0 2.4 2.4 2.4h7.7425q2.4 0 2.4-2.4v-33.808q0-2.4-2.4-2.4h-7.7425q-2.4 0-2.4 2.4z" clip-path="url(#a)" fill="#fff" stroke="#fff"/>
<g clip-path="url(#a)">
<g transform="translate(89.932 870.01) rotate(90) scale(.08 -.08)">
<use xlink:href="#e"/>
<use x="44.083984" xlink:href="#l"/>
<use x="105.607422" xlink:href="#g"/>
<use x="144.970703" xlink:href="#i"/>
<use x="242.382812" xlink:href="#k"/>
<use x="270.166016" xlink:href="#h"/>
<use x="333.544922" xlink:href="#f"/>
<use x="394.824219" xlink:href="#j"/>
</g>
</g>
<path d="m95.106 870.01v33.808q0 2.4 2.4 2.4h7.7425q2.4 0 2.4-2.4v-33.808q0-2.4-2.4-2.4h-7.7425q-2.4 0-2.4 2.4z" clip-path="url(#a)" fill="#fff" stroke="#fff"/>
<g clip-path="url(#a)">
<g transform="translate(99.17 870.01) rotate(90) scale(.08 -.08)">
<use xlink:href="#e"/>
<use x="44.083984" xlink:href="#l"/>
<use x="105.607422" xlink:href="#g"/>
<use x="144.970703" xlink:href="#i"/>
<use x="242.382812" xlink:href="#k"/>
<use x="270.166016" xlink:href="#h"/>
<use x="333.544922" xlink:href="#f"/>
<use x="394.824219" xlink:href="#j"/>
</g>
</g>
<path d="m199.02 870.01v33.808q0 2.4 2.4 2.4h7.7425q2.4 0 2.4-2.4v-33.808q0-2.4-2.4-2.4h-7.7425q-2.4 0-2.4 2.4z" clip-path="url(#a)" fill="#fff" stroke="#fff"/>
<g clip-path="url(#a)">
<g transform="translate(203.09 870.01) rotate(90) scale(.08 -.08)">
<use xlink:href="#e"/>
<use x="44.083984" xlink:href="#l"/>
<use x="105.607422" xlink:href="#g"/>
<use x="144.970703" xlink:href="#i"/>
<use x="242.382812" xlink:href="#k"/>
<use x="270.166016" xlink:href="#h"/>
<use x="333.544922" xlink:href="#f"/>
<use x="394.824219" xlink:href="#j"/>
</g>
</g>
<path d="m282.16 870.01v33.808q0 2.4 2.4 2.4h7.7425q2.4 0 2.4-2.4v-33.808q0-2.4-2.4-2.4h-7.7425q-2.4 0-2.4 2.4z" clip-path="url(#a)" fill="#fff" stroke="#fff"/>
<g clip-path="url(#a)">
<g transform="translate(286.22 870.01) rotate(90) scale(.08 -.08)">
<use xlink:href="#e"/>
<use x="44.083984" xlink:href="#l"/>
<use x="105.607422" xlink:href="#g"/>
<use x="144.970703" xlink:href="#i"/>
<use x="242.382812" xlink:href="#k"/>
<use x="270.166016" xlink:href="#h"/>
<use x="333.544922" xlink:href="#f"/>
<use x="394.824219" xlink:href="#j"/>
</g>
</g>
<path d="m425.33 870.01v33.808q0 2.4 2.4 2.4h7.7425q2.4 0 2.4-2.4v-33.808q0-2.4-2.4-2.4h-7.7425q-2.4 0-2.4 2.4z" clip-path="url(#a)" fill="#fff" stroke="#fff"/>
<g clip-path="url(#a)">
<g transform="translate(429.4 870.01) rotate(90) scale(.08 -.08)">
<use xlink:href="#e"/>
<use x="44.083984" xlink:href="#l"/>
<use x="105.607422" xlink:href="#g"/>
<use x="144.970703" xlink:href="#i"/>
<use x="242.382812" xlink:href="#k"/>
<use x="270.166016" xlink:href="#h"/>
<use x="333.544922" xlink:href="#f"/>
<use x="394.824219" xlink:href="#j"/>
</g>
</g>
<path d="m656.26 870.01v33.808q0 2.4 2.4 2.4h7.7425q2.4 0 2.4-2.4v-33.808q0-2.4-2.4-2.4h-7.7425q-2.4 0-2.4 2.4z" clip-path="url(#a)" fill="#fff" stroke="#fff"/>
<g clip-path="url(#a)">
<g transform="translate(660.32 870.01) rotate(90) scale(.08 -.08)">
<use xlink:href="#e"/>
<use x="44.083984" xlink:href="#l"/>
<use x="105.607422" xlink:href="#g"/>
<use x="144.970703" xlink:href="#i"/>
<use x="242.382812" xlink:href="#k"/>
<use x="270.166016" xlink:href="#h"/>
<use x="333.544922" xlink:href="#f"/>
<use x="394.824219" xlink:href="#j"/>
</g>
</g>
<path d="m822.53 870.01v33.808q0 2.4 2.4 2.4h7.7425q2.4 0 2.4-2.4v-33.808q0-2.4-2.4-2.4h-7.7425q-2.4 0-2.4 2.4z" clip-path="url(#a)" fill="#fff" stroke="#fff"/>
<g clip-path="url(#a)">
<g transform="translate(826.59 870.01) rotate(90) scale(.08 -.08)">
<use xlink:href="#e"/>
<use x="44.083984" xlink:href="#l"/>
<use x="105.607422" xlink:href="#g"/>
<use x="144.970703" xlink:href="#i"/>
<use x="242.382812" xlink:href="#k"/>
<use x="270.166016" xlink:href="#h"/>
<use x="333.544922" xlink:href="#f"/>
<use x="394.824219" xlink:href="#j"/>
</g>
</g>
<path d="m1695.4 870.01v33.808q0 2.4 2.4 2.4h7.7425q2.4 0 2.4-2.4v-33.808q0-2.4-2.4-2.4h-7.7425q-2.4 0-2.4 2.4z" clip-path="url(#a)" fill="#fff" stroke="#fff"/>
<g clip-path="url(#a)">
<g transform="translate(1699.5 870.01) rotate(90) scale(.08 -.08)">
<use xlink:href="#e"/>
<use x="44.083984" xlink:href="#l"/>
<use x="105.607422" xlink:href="#g"/>
<use x="144.970703" xlink:href="#i"/>
<use x="242.382812" xlink:href="#k"/>
<use x="270.166016" xlink:href="#h"/>
<use x="333.544922" xlink:href="#f"/>
<use x="394.824219" xlink:href="#j"/>
</g>
</g>
<path d="m1783.2 870.01v33.808q0 2.4 2.4 2.4h7.7425q2.4 0 2.4-2.4v-33.808q0-2.4-2.4-2.4h-7.7425q-2.4 0-2.4 2.4z" clip-path="url(#a)" fill="#fff" stroke="#fff"/>
<g clip-path="url(#a)">
<g transform="translate(1787.2 870.01) rotate(90) scale(.08 -.08)">
<use xlink:href="#e"/>
<use x="44.083984" xlink:href="#l"/>
<use x="105.607422" xlink:href="#g"/>
<use x="144.970703" xlink:href="#i"/>
<use x="242.382812" xlink:href="#k"/>
<use x="270.166016" xlink:href="#h"/>
<use x="333.544922" xlink:href="#f"/>
<use x="394.824219" xlink:href="#j"/>
</g>
</g>
<defs>
<path id="b" d="m0 8.6603c2.2967 0 4.4997-0.9125 6.1237-2.5365 1.624-1.624 2.5365-3.827 2.5365-6.1237s-0.9125-4.4997-2.5365-6.1237c-1.624-1.624-3.827-2.5365-6.1237-2.5365s-4.4997 0.9125-6.1237 2.5365c-1.624 1.624-2.5365 3.827-2.5365 6.1237s0.9125 4.4997 2.5365 6.1237c1.624 1.624 3.827 2.5365 6.1237 2.5365z"/>
</defs>
<g clip-path="url(#a)" fill="#ffffff" stroke="#ffffff">
<use x="85.212121" y="941.818182" xlink:href="#b"/>
<use x="92.139936" y="941.818182" xlink:href="#b"/>
<use x="101.377022" y="941.818182" xlink:href="#b"/>
<use x="112.92338" y="941.818182" xlink:href="#b"/>
<use x="126.77901" y="941.818182" xlink:href="#b"/>
<use x="142.943911" y="941.818182" xlink:href="#b"/>
<use x="161.418083" y="941.818182" xlink:href="#b"/>
<use x="182.201527" y="941.818182" xlink:href="#b"/>
<use x="205.294243" y="941.818182" xlink:href="#b"/>
<use x="230.696231" y="941.818182" xlink:href="#b"/>
<use x="258.40749" y="941.818182" xlink:href="#b"/>
<use x="288.42802" y="941.818182" xlink:href="#b"/>
<use x="320.757822" y="941.818182" xlink:href="#b"/>
<use x="355.396896" y="941.818182" xlink:href="#b"/>
<use x="392.345241" y="941.818182" xlink:href="#b"/>
<use x="431.602858" y="941.818182" xlink:href="#b"/>
<use x="473.169746" y="941.818182" xlink:href="#b"/>
<use x="517.045906" y="941.818182" xlink:href="#b"/>
<use x="563.231338" y="941.818182" xlink:href="#b"/>
<use x="611.726041" y="941.818182" xlink:href="#b"/>
<use x="662.530016" y="941.818182" xlink:href="#b"/>
<use x="715.643262" y="941.818182" xlink:href="#b"/>
<use x="771.06578" y="941.818182" xlink:href="#b"/>
<use x="828.797569" y="941.818182" xlink:href="#b"/>
<use x="888.83863" y="941.818182" xlink:href="#b"/>
<use x="951.188963" y="941.818182" xlink:href="#b"/>
<use x="1015.848567" y="941.818182" xlink:href="#b"/>
<use x="1082.817443" y="941.818182" xlink:href="#b"/>
<use x="1152.09559" y="941.818182" xlink:href="#b"/>
<use x="1223.683009" y="941.818182" xlink:href="#b"/>
<use x="1297.579699" y="941.818182" xlink:href="#b"/>
<use x="1373.785661" y="941.818182" xlink:href="#b"/>
<use x="1452.300895" y="941.818182" xlink:href="#b"/>
<use x="1533.1254" y="941.818182" xlink:href="#b"/>
<use x="1616.259177" y="941.818182" xlink:href="#b"/>
<use x="1701.702226" y="941.818182" xlink:href="#b"/>
<use x="1789.454545" y="941.818182" xlink:href="#b"/>
<use x="582.846916" y="44.848485" xlink:href="#b"/>
<use x="85.212121" y="832.004391" xlink:href="#b"/>
<use x="124.662177" y="608.737572" xlink:href="#b"/>
<use x="230.696231" y="832.004391" xlink:href="#b"/>
<use x="611.491506" y="158.017017" xlink:href="#b"/>
<use x="888.83863" y="832.004391" xlink:href="#b"/>
<use x="951.188963" y="832.004391" xlink:href="#b"/>
<use x="1319.440804" y="608.737572" xlink:href="#b"/>
<use x="1083.5872" y="720.662969" xlink:href="#b"/>
<use x="1223.683009" y="832.004391" xlink:href="#b"/>
<use x="1297.579699" y="832.004391" xlink:href="#b"/>
<use x="1373.785661" y="832.004391" xlink:href="#b"/>
<use x="1618.568449" y="720.662969" xlink:href="#b"/>
<use x="1452.300895" y="832.004391" xlink:href="#b"/>
<use x="1533.1254" y="832.004391" xlink:href="#b"/>
<use x="1616.259177" y="832.004391" xlink:href="#b"/>
<use x="1015.848567" y="832.004391" xlink:href="#b"/>
<use x="1082.817443" y="832.004391" xlink:href="#b"/>
<use x="1152.09559" y="832.004391" xlink:href="#b"/>
<use x="296.726965" y="271.023444" xlink:href="#b"/>
<use x="715.643262" y="832.004391" xlink:href="#b"/>
<use x="771.06578" y="832.004391" xlink:href="#b"/>
<use x="258.40749" y="832.004391" xlink:href="#b"/>
<use x="343.345385" y="383.840808" xlink:href="#b"/>
<use x="320.757822" y="832.004391" xlink:href="#b"/>
<use x="355.396896" y="832.004391" xlink:href="#b"/>
<use x="438.819332" y="496.431244" xlink:href="#b"/>
<use x="392.345241" y="832.004391" xlink:href="#b"/>
<use x="492.509896" y="608.737572" xlink:href="#b"/>
<use x="473.169746" y="832.004391" xlink:href="#b"/>
<use x="517.045906" y="832.004391" xlink:href="#b"/>
<use x="587.478689" y="720.662969" xlink:href="#b"/>
<use x="563.231338" y="832.004391" xlink:href="#b"/>
<use x="611.726041" y="832.004391" xlink:href="#b"/>
<use x="96.758479" y="720.662969" xlink:href="#b"/>
<use x="112.92338" y="832.004391" xlink:href="#b"/>
<use x="162.18784" y="720.662969" xlink:href="#b"/>
<use x="126.77901" y="832.004391" xlink:href="#b"/>
<use x="142.943911" y="832.004391" xlink:href="#b"/>
<use x="161.418083" y="832.004391" xlink:href="#b"/>
<use x="182.201527" y="832.004391" xlink:href="#b"/>
<use x="92.139936" y="832.004391" xlink:href="#b"/>
<use x="101.377022" y="832.004391" xlink:href="#b"/>
<use x="205.294243" y="832.004391" xlink:href="#b"/>
<use x="288.42802" y="832.004391" xlink:href="#b"/>
<use x="431.602858" y="832.004391" xlink:href="#b"/>
<use x="662.530016" y="832.004391" xlink:href="#b"/>
<use x="828.797569" y="832.004391" xlink:href="#b"/>
<use x="1701.702226" y="832.004391" xlink:href="#b"/>
<use x="1789.454545" y="832.004391" xlink:href="#b"/>
</g>
<g clip-path="url(#a)">
<g transform="translate(78.393 944.58) scale(.1 -.1)">
<defs>
<path id="bj" d="m9.8125 72.906h9.8594v-29.891h35.844v29.891h9.8594v-72.906h-9.8594v34.719h-35.844v-34.719h-9.8594z"/>
<path id="m" d="m30.609 48.391q-7.2188 0-11.422-5.6406t-4.2031-15.453 4.1719-15.453q4.1875-5.6406 11.453-5.6406 7.1875 0 11.375 5.6562 4.2031 5.6719 4.2031 15.438 0 9.7188-4.2031 15.406-4.1875 5.6875-11.375 5.6875zm0 7.6094q11.719 0 18.406-7.625 6.7031-7.6094 6.7031-21.078 0-13.422-6.7031-21.078-6.6875-7.6406-18.406-7.6406-11.766 0-18.438 7.6406-6.6562 7.6562-6.6562 21.078 0 13.469 6.6562 21.078 6.6719 7.625 18.438 7.625z"/>
</defs>
<use xlink:href="#bj"/>
<use x="75.195312" xlink:href="#m"/>
</g>
</g>
<g clip-path="url(#a)">
<g transform="translate(79.049 944.58) scale(.1 -.1)">
<defs>
<path id="aq" d="m9.0781 54.688h13.141l15.531-36.625 15.578 36.625h13.031v-54.688h-9.0312v46.094l-15.094-35.594h-8.9844l-15.141 35.594v-46.094h-9.0312z"/>
<path id="o" d="m34.281 27.484q-10.891 0-15.094-2.4844t-4.2031-8.5q0-4.7812 3.1562-7.5938 3.1562-2.7969 8.5625-2.7969 7.4844 0 12 5.2969t4.5156 14.078v2zm17.922 3.7188v-31.203h-8.9844v8.2969q-3.0781-4.9688-7.6719-7.3438t-11.234-2.375q-8.3906 0-13.359 4.7188-4.9531 4.7188-4.9531 12.625 0 9.2188 6.1719 13.906 6.1875 4.6875 18.438 4.6875h12.609v0.89062q0 6.2031-4.0781 9.5938t-11.453 3.3906q-4.6875 0-9.1406-1.125-4.4375-1.125-8.5312-3.375v8.3125q4.9219 1.9062 9.5625 2.8438 4.6406 0.95312 9.0312 0.95312 11.875 0 17.734-6.1562 5.8594-6.1406 5.8594-18.641z"/>
<path id="ba" d="m3.7188 0v7.4688q8.875 1.375 11.609 7.5156 3.3281 8.6562 3.3281 30.766v8.9375h36.953v-54.688h-8.9844v47.516h-18.984v-5.4219q0-21.094-4.2969-30.562-4.5938-10.109-19.625-11.531z"/>
</defs>
<use xlink:href="#aq"/>
<use x="75.439453" xlink:href="#o"/>
<use x="136.71875" xlink:href="#ba"/>
<use x="200.634766" xlink:href="#m"/>
</g>
</g>
<g clip-path="url(#a)">
<g transform="translate(92.385 944.58) scale(.1 -.1)">
<defs>
<path id="ah" d="m9.0781 54.688h8.9375v-25.688l25.344 25.688h11.031l-20.891-21.141 23.578-33.547h-10.062l-19.375 27.594-9.625-9.7656v-17.828h-8.9375z"/>
<path id="u" d="m2.9375 54.688h52.391v-7.1719h-21.781v-47.516h-8.8438v47.516h-21.766z"/>
</defs>
<use xlink:href="#ah"/>
<use x="60.400391" xlink:href="#u"/>
<use x="118.652344" xlink:href="#m"/>
</g>
</g>
<g clip-path="url(#a)">
<g transform="translate(97.943 944.58) scale(.1 -.1)">
<defs>
<path id="ar" d="m34.469 29.5q6.0625-1.1719 9.4219-4.75 3.375-3.5625 3.375-8.8281 0-8.4531-6.2969-12.906-6.2969-4.4375-17.922-4.4375-3.9062 0-8.0312 0.6875t-8.5156 2.0469v8.3594q3.4688-1.8125 7.6094-2.7188 4.1562-0.89062 8.6875-0.89062 7.375 0 11.5 2.7344t4.125 7.125q0 4.2969-3.6562 6.9062t-10.344 2.6094h-7.2344v7.4219h7.5625q5.6719 0 8.9688 2.1719t3.2969 5.5938q0 3.125-3.4062 5.375-3.3906 2.25-9.1875 2.25-3.4688 0-7.4062-0.64062-3.9219-0.64062-8.6719-2.0469v8.1562q4.7969 1.1719 8.9375 1.75 4.1562 0.59375 7.8594 0.59375 9.5781 0 15.109-3.8438 5.5469-3.8281 5.5469-10.719 0-4.5312-2.9375-7.6875-2.9219-3.1406-8.3906-4.3125z"/>
<path id="w" d="m9.0781 54.688h9.0312v-22.312h29.156v22.312h9.0312v-54.688h-9.0312v25.203h-29.156v-25.203h-9.0312z"/>
<path id="s" d="m56.203 29.594v-4.3906h-41.312q0.59375-9.2812 5.5938-14.141t13.938-4.8594q5.1719 0 10.031 1.2656t9.6562 3.8125v-8.5q-4.8438-2.0469-9.9219-3.125t-10.297-1.0781q-13.094 0-20.734 7.6094-7.6406 7.625-7.6406 20.625 0 13.422 7.25 21.297 7.25 7.8906 19.562 7.8906 11.031 0 17.453-7.1094 6.4219-7.0938 6.4219-19.297zm-8.9844 2.6406q-0.09375 7.3594-4.125 11.75-4.0312 4.4062-10.672 4.4062-7.5156 0-12.031-4.25t-5.2031-11.969z"/>
</defs>
<use xlink:href="#ar"/>
<use x="53.173828" xlink:href="#w"/>
<use x="118.554688" xlink:href="#o"/>
<use x="179.833984" xlink:href="#s"/>
<use x="241.357422" xlink:href="#u"/>
</g>
</g>
<g clip-path="url(#a)">
<g transform="translate(125.19 944.58) scale(.1 -.1)">
<defs>
<path id="af" d="m11.719 12.406h10.297v-8.4062l-8-15.625h-6.2969l4 15.625z"/>
</defs>
<use xlink:href="#af"/>
</g>
</g>
<g clip-path="url(#a)">
<g transform="translate(133.14 944.58) scale(.1 -.1)">
<defs>
<path id="ap" d="m41.016 0v23h-16.75q-7.4688 0-12.453 4.6406-4.4844 4.2031-4.4844 13.188v13.859h8.9844v-13.031q0-5.7188 2.5312-8.5938 2.5938-2.8906 7.6719-2.8906h14.5v24.516h8.9844v-54.688z"/>
</defs>
<use xlink:href="#ap"/>
<use x="59.082031" xlink:href="#s"/>
<use x="120.605469" xlink:href="#aq"/>
</g>
</g>
<g clip-path="url(#a)">
<g transform="translate(143.98 944.58) scale(.1 -.1)">
<defs>
<path id="bb" d="m9.0781 0v54.688h38.578v-7.1719h-29.547v-47.516z"/>
<path id="y" d="m18.109 8.2031v-29h-9.0312v75.484h9.0312v-8.2969q2.8438 4.875 7.1562 7.2344 4.3281 2.375 10.328 2.375 9.9688 0 16.188-7.9062 6.2344-7.9062 6.2344-20.797t-6.2344-20.812q-6.2188-7.9062-16.188-7.9062-6 0-10.328 2.375-4.3125 2.375-7.1562 7.25zm30.578 19.094q0 9.9062-4.0781 15.547t-11.203 5.6406q-7.1406 0-11.219-5.6406t-4.0781-15.547 4.0781-15.547 11.219-5.6406q7.125 0 11.203 5.6406t4.0781 15.547z"/>
<path id="an" d="m18.453 38.922q0-4.0625 3.125-6.3594 3.125-2.2812 8.9375-2.2812h12.109v17.234h-12.109q-5.8125 0-8.9375-2.25t-3.125-6.3438zm-12.781-38.922 16.688 23.969q-5.6562 1.2812-9.4219 4.625-3.75 3.3438-3.75 10.328 0 7.9062 5.2344 11.828 5.25 3.9375 15.859 3.9375h21.375v-54.688h-9.0312v23.094h-11.172l-16.125-23.094z"/>
</defs>
<use xlink:href="#bb"/>
<use x="52.539062" xlink:href="#y"/>
<use x="116.015625" xlink:href="#m"/>
<use x="177.197266" xlink:href="#ar"/>
<use x="230.371094" xlink:href="#an"/>
<use x="290.527344" xlink:href="#u"/>
</g>
</g>
<g clip-path="url(#a)">
<g transform="translate(159.82 944.58) scale(.1 -.1)">
<defs>
<path id="at" d="m31.109 56q11.719 0 18.406-7.625 6.6875-7.6094 6.6875-21.078 0-13.422-6.6875-21.078-6.6875-7.6406-18.406-7.6406-11.766 0-18.266 7.4219t-6.8438 21.297l-0.28125 11.188q-0.25 5.7969-0.25 7.8125 0 7.8125 2.8281 13.562 4.4531 9.0312 12.141 12.938t20.578 4.0156q5.9531 0.046875 8.5938 0.875l2.4844-7.125q-2.3906-0.98438-4.5781-1.0312l-12.219-0.82812q-6.1406-0.4375-9.8594-2.5938-9.7188-5.7031-10.641-13.172l-0.34375-2.7344q6.3438 5.7969 16.656 5.7969zm0-7.6094q-7.2344 0-11.438-5.6406-4.1875-5.6406-4.1875-15.453t4.1719-15.453 11.453-5.6406q7.1719 0 11.375 5.6562 4.2031 5.6719 4.2031 15.438 0 9.7188-4.2031 15.406t-11.375 5.6875z"/>
<path id="az" d="m61.047 54.688h8.9844v-54.688h-8.9844zm4.5 1.3125m-22.094-39.781q0 4.3906-3.2031 6.6875-3.1875 2.2969-9.3438 2.2969h-12.797v-18.031h12.797q6.1562 0 9.3438 2.3125 3.2031 2.3281 3.2031 6.7344zm-34.375 38.469h9.0312v-22.312h13.188q10.453 0 16.094-3.9844 5.6406-3.9688 5.6406-12.172t-5.6406-12.219q-5.6406-4-16.094-4h-22.219z"/>
</defs>
<use xlink:href="#at"/>
<use x="61.669922" xlink:href="#o"/>
<use x="122.949219" xlink:href="#m"/>
<use x="184.130859" xlink:href="#at"/>
<use x="245.800781" xlink:href="#o"/>
<use x="307.080078" xlink:href="#at"/>
<use x="368.75" xlink:href="#az"/>
</g>
</g>
<g clip-path="url(#a)">
<g transform="translate(203.71 944.58) scale(.1 -.1)">
<use xlink:href="#af"/>
</g>
</g>
<g clip-path="url(#a)">
<g transform="translate(227.63 944.58) scale(.1 -.1)">
<use xlink:href="#o"/>
</g>
</g>
<g clip-path="url(#a)">
<g transform="translate(231.33 944.58) scale(.1 -.1)">
<defs>
<path id="ag" d="m56.297 54.688v-54.688h-9.0312v47.516h-29.156v-47.516h-9.0312v54.688z"/>
<path id="v" d="m48.781 52.594v-8.4062q-3.8125 2.1094-7.6406 3.1562t-7.7344 1.0469q-8.75 0-13.594-5.5469-4.8281-5.5312-4.8281-15.547t4.8281-15.562q4.8438-5.5312 13.594-5.5312 3.9062 0 7.7344 1.0469t7.6406 3.1562v-8.3125q-3.7656-1.75-7.7969-2.625-4.0156-0.89062-8.5625-0.89062-12.359 0-19.641 7.7656-7.2656 7.7656-7.2656 20.953 0 13.375 7.3438 21.031 7.3594 7.6719 20.156 7.6719 4.1406 0 8.0938-0.85938 3.9531-0.84375 7.6719-2.5469z"/>
<path id="ao" d="m43.453 16.219q0 4.3906-3.2031 6.6875-3.1875 2.2969-9.3438 2.2969h-12.797v-18.031h12.797q6.1562 0 9.3438 2.3125 3.2031 2.3281 3.2031 6.7344zm-34.375 38.469h9.0312v-22.312h13.188q10.453 0 16.094-3.9844 5.6406-3.9688 5.6406-12.172t-5.6406-12.219q-5.6406-4-16.094-4h-22.219z"/>
</defs>
<use xlink:href="#m"/>
<use x="61.181641" xlink:href="#ag"/>
<use x="126.5625" xlink:href="#o"/>
<use x="187.841797" xlink:href="#v"/>
<use x="242.822266" xlink:href="#w"/>
<use x="308.203125" xlink:href="#m"/>
<use x="369.384766" xlink:href="#v"/>
<use x="424.365234" xlink:href="#u"/>
<use x="482.617188" xlink:href="#ao"/>
</g>
</g>
<g clip-path="url(#a)">
<g transform="translate(286.84 944.58) scale(.1 -.1)">
<use xlink:href="#af"/>
</g>
</g>
<g clip-path="url(#a)">
<g transform="translate(299.22 944.58) scale(.1 -.1)">
<defs>
<path id="ai" d="m55.906 54.688v-54.688h-8.9375v43.891l-26.359-43.891h-11.531v54.688h8.9375v-43.797l26.328 43.797zm-38.688 20.828h5.7656q0.53125-3.6562 2.8906-5.5 2.375-1.8281 6.625-1.8281 4.2031 0 6.5469 1.8125t2.9688 5.5156h5.7656q-0.48438-6.9844-4.3438-10.5t-10.938-3.5156-10.938 3.5156-4.3438 10.5z"/>
</defs>
<use xlink:href="#ah"/>
<use x="60.400391" xlink:href="#m"/>
<use x="121.582031" xlink:href="#u"/>
<use x="179.833984" xlink:href="#m"/>
<use x="241.015625" xlink:href="#y"/>
<use x="304.492188" xlink:href="#m"/>
<use x="365.673828" xlink:href="#ai"/>
</g>
</g>
<g clip-path="url(#a)">
<g transform="translate(318.98 944.58) scale(.1 -.1)">
<defs>
<path id="as" d="m21.625 7.1719h26.078v40.344h-18.891v-6.8438q0-20.109-5.7656-30.859zm-13.031 0q4.4375 1.9531 6.3906 6.1094 4.7969 10.297 4.7969 31.062v10.344h36.953v-47.516h7.1875v-20.984h-7.1875v13.812h-44.328v-13.812h-7.1875v20.984z"/>
<path id="aj" d="m18.062 25.203v-18.031h12.797q6.1562 0 9.375 2.3125 3.2188 2.3281 3.2188 6.7344 0 4.3906-3.2188 6.6875t-9.375 2.2969zm0 22.312v-15.141h11.828q5.0781 0 8.2969 2.0156 3.2188 2.0312 3.2188 5.6562 0 3.6094-3.2188 5.5312-3.2188 1.9375-8.2969 1.9375zm-8.9844 7.1719h21.391q9.625 0 14.797-3.5156t5.1719-10.016q0-5.0156-2.6406-7.9844-2.625-2.9531-7.8125-3.6719 6.2031-1.1719 9.625-4.8906 3.4219-3.7031 3.4219-9.2812 0-7.3125-5.6406-11.328-5.6406-4-16.094-4h-22.219z"/>
</defs>
<use xlink:href="#ag"/>
<use x="65.380859" xlink:href="#m"/>
<use x="126.5625" xlink:href="#as"/>
<use x="195.703125" xlink:href="#aj"/>
<use x="254.638672" xlink:href="#s"/>
<use x="316.162109" xlink:href="#y"/>
<use x="379.638672" xlink:href="#bb"/>
<use x="432.177734" xlink:href="#o"/>
<use x="493.457031" xlink:href="#s"/>
<use x="554.980469" xlink:href="#u"/>
<use x="613.232422" xlink:href="#v"/>
<use x="668.212891" xlink:href="#an"/>
</g>
</g>
<g clip-path="url(#a)">
<g transform="translate(374.12 944.58) scale(.1 -.1)">
<defs>
<path id="z" d="m55.906 54.688v-54.688h-8.9375v43.891l-26.359-43.891h-11.531v54.688h8.9375v-43.797l26.328 43.797z"/>
</defs>
<use xlink:href="#aj"/>
<use x="58.935547" xlink:href="#v"/>
<use x="113.916016" xlink:href="#an"/>
<use x="174.072266" xlink:href="#ah"/>
<use x="234.472656" xlink:href="#z"/>
<use x="299.462891" xlink:href="#ai"/>
</g>
</g>
<g clip-path="url(#a)">
<g transform="translate(430.01 944.58) scale(.1 -.1)">
<use xlink:href="#af"/>
</g>
</g>
<g clip-path="url(#a)">
<g transform="translate(464.18 944.58) scale(.1 -.1)">
<use xlink:href="#ah"/>
<use x="60.400391" xlink:href="#u"/>
<use x="118.652344" xlink:href="#m"/>
</g>
</g>
<g clip-path="url(#a)">
<g transform="translate(494.94 944.58) scale(.1 -.1)">
<use xlink:href="#ag"/>
<use x="65.380859" xlink:href="#m"/>
<use x="126.5625" xlink:href="#ag"/>
<use x="191.943359" xlink:href="#o"/>
<use x="253.222656" xlink:href="#as"/>
<use x="322.363281" xlink:href="#s"/>
<use x="383.886719" xlink:href="#u"/>
</g>
</g>
<g clip-path="url(#a)">
<g transform="translate(556.9 944.58) scale(.1 -.1)">
<use xlink:href="#w"/>
<use x="65.380859" xlink:href="#o"/>
</g>
</g>
<g clip-path="url(#a)">
<g transform="translate(586.98 944.58) scale(.1 -.1)">
<use xlink:href="#o"/>
<use x="61.279297" xlink:href="#v"/>
<use x="116.259766" xlink:href="#u"/>
<use x="174.511719" xlink:href="#s"/>
<use x="236.035156" xlink:href="#y"/>
<use x="299.511719" xlink:href="#m"/>
<use x="360.693359" xlink:href="#z"/>
<use x="425.683594" xlink:href="#as"/>
</g>
</g>
<g clip-path="url(#a)">
<g transform="translate(660.94 944.58) scale(.1 -.1)">
<use xlink:href="#af"/>
</g>
</g>
<g clip-path="url(#a)">
<g transform="translate(700.34 944.58) scale(.1 -.1)">
<use xlink:href="#m"/>
<use x="61.181641" xlink:href="#ap"/>
<use x="120.263672" xlink:href="#s"/>
<use x="181.787109" xlink:href="#w"/>
<use x="247.167969" xlink:href="#ao"/>
</g>
</g>
<g clip-path="url(#a)">
<g transform="translate(752.51 944.58) scale(.1 -.1)">
<use xlink:href="#aj"/>
<use x="58.935547" xlink:href="#s"/>
<use x="120.458984" xlink:href="#ba"/>
<use x="184.375" xlink:href="#z"/>
<use x="249.365234" xlink:href="#ah"/>
<use x="309.765625" xlink:href="#o"/>
</g>
</g>
<g clip-path="url(#a)">
<g transform="translate(827.11 944.58) scale(.1 -.1)">
<defs>
<path id="bd" d="m11.719 51.703h10.297v-12.391h-10.297zm0-39.297h10.297v-8.4062l-8-15.625h-6.2969l4 15.625z"/>
</defs>
<use xlink:href="#bd"/>
</g>
</g>
<g clip-path="url(#a)">
<g transform="translate(879.92 944.58) scale(.1 -.1)">
<use xlink:href="#aj"/>
<use x="58.935547" xlink:href="#m"/>
<use x="120.117188" xlink:href="#u"/>
</g>
</g>
<g clip-path="url(#a)">
<g transform="translate(932.1 944.58) scale(.1 -.1)">
<defs>
<path id="bh" d="m32.172-5.0781q-3.7969-9.7656-7.4219-12.734-3.6094-2.9844-9.6562-2.9844h-7.1875v7.5156h5.2812q3.7031 0 5.75 1.7656 2.0625 1.75 4.5469 8.2969l1.6094 4.0938-22.109 53.812h9.5156l17.094-42.766 17.094 42.766h9.5156z"/>
</defs>
<use xlink:href="#ag"/>
<use x="65.380859" xlink:href="#m"/>
<use x="126.5625" xlink:href="#ap"/>
<use x="185.644531" xlink:href="#s"/>
<use x="247.167969" xlink:href="#aq"/>
<use x="322.607422" xlink:href="#bh"/>
</g>
</g>
<g clip-path="url(#a)">
<g transform="translate(1009.5 944.58) scale(.1 -.1)">
<use xlink:href="#w"/>
<use x="65.380859" xlink:href="#o"/>
</g>
</g>
<g clip-path="url(#a)">
<g transform="translate(1073.7 944.58) scale(.1 -.1)">
<use xlink:href="#v"/>
<use x="54.980469" xlink:href="#s"/>
<use x="116.503906" xlink:href="#ai"/>
</g>
</g>
<g clip-path="url(#a)">
<g transform="translate(1143.2 944.58) scale(.1 -.1)">
<use xlink:href="#y"/>
<use x="63.476562" xlink:href="#o"/>
<use x="124.755859" xlink:href="#ar"/>
</g>
</g>
<g clip-path="url(#a)">
<g transform="translate(1220.7 944.58) scale(.1 -.1)">
<use xlink:href="#an"/>
</g>
</g>
<g clip-path="url(#a)">
<g transform="translate(1273.8 944.58) scale(.1 -.1)">
<defs>
<path id="bg" d="m50.25 7.1719h23.141v47.516h9.0312v-54.688h-73.344v54.688h9.0312v-47.516h23.109v47.516h9.0312z"/>
<path id="bf" d="m53.609 48.391q-7.2188 0-11.422-5.6406t-4.2031-15.453 4.1719-15.453q4.1875-5.6406 11.453-5.6406 7.1875 0 11.375 5.6562 4.2031 5.6719 4.2031 15.438 0 9.7188-4.2031 15.406-4.1875 5.6875-11.375 5.6875zm-24.797-15.531q0.92188 9.2812 7 16.203 6.0781 6.9375 17.797 6.9375t18.406-7.625q6.7031-7.6094 6.7031-21.078 0-13.422-6.7031-21.078-6.6875-7.6406-18.406-7.6406-11.766 0-18.188 7.375t-6.8594 19.484h-10.156v-25.438h-8.9844v54.688h8.9844v-21.828z"/>
</defs>
<use xlink:href="#y"/>
<use x="63.476562" xlink:href="#s"/>
<use x="125" xlink:href="#bg"/>
<use x="216.503906" xlink:href="#o"/>
<use x="277.783203" xlink:href="#bf"/>
<use x="361.962891" xlink:href="#v"/>
<use x="416.943359" xlink:href="#ao"/>
</g>
</g>
<g clip-path="url(#a)">
<g transform="translate(1348.7 944.58) scale(.1 -.1)">
<use xlink:href="#z"/>
<use x="64.990234" xlink:href="#ar"/>
<use x="118.164062" xlink:href="#aq"/>
<use x="193.603516" xlink:href="#s"/>
<use x="255.126953" xlink:href="#w"/>
<use x="320.507812" xlink:href="#z"/>
<use x="385.498047" xlink:href="#u"/>
<use x="443.75" xlink:href="#ao"/>
</g>
</g>
<g clip-path="url(#a)">
<g transform="translate(1437.2 944.58) scale(.1 -.1)">
<use xlink:href="#v"/>
<use x="54.980469" xlink:href="#aj"/>
<use x="113.916016" xlink:href="#m"/>
<use x="175.097656" xlink:href="#s"/>
<use x="236.621094" xlink:href="#ai"/>
</g>
</g>
<g clip-path="url(#a)">
<g transform="translate(1510.5 944.58) scale(.1 -.1)">
<use xlink:href="#m"/>
<use x="61.181641" xlink:href="#at"/>
<use x="122.851562" xlink:href="#az"/>
<use x="201.806641" xlink:href="#ap"/>
<use x="260.888672" xlink:href="#w"/>
<use x="326.269531" xlink:href="#m"/>
<use x="387.451172" xlink:href="#ai"/>
</g>
</g>
<g clip-path="url(#a)">
<g transform="translate(1577.7 944.58) scale(.1 -.1)">
<defs>
<path id="bi" d="m40.578 54.688h8.9375v-25.688l23.875 25.688h10.453l-19.641-21.047 22.469-33.641h-9.625l-18.406 27.641-9.125-9.8125v-17.828h-8.9375v17.828l-9.125 9.8125-18.422-27.641h-9.6094l22.453 33.641-19.625 21.047h10.453l23.875-25.688z"/>
</defs>
<use xlink:href="#v"/>
<use x="54.980469" xlink:href="#as"/>
<use x="124.121094" xlink:href="#s"/>
<use x="185.644531" xlink:href="#y"/>
<use x="249.121094" xlink:href="#bi"/>
<use x="339.208984" xlink:href="#o"/>
<use x="400.488281" xlink:href="#w"/>
<use x="465.869141" xlink:href="#w"/>
<use x="531.25" xlink:href="#m"/>
<use x="592.431641" xlink:href="#v"/>
<use x="647.412109" xlink:href="#u"/>
<use x="705.664062" xlink:href="#z"/>
</g>
</g>
<g clip-path="url(#a)">
<g transform="translate(1700.1 944.58) scale(.1 -.1)">
<defs>
<path id="d" d="m10.688 12.406h10.312v-12.406h-10.312z"/>
</defs>
<use xlink:href="#d"/>
</g>
</g>
<g clip-path="url(#a)">
<g transform="translate(1787.2 944.58) scale(.1 -.1)">
<defs>
<path id="be" d="m17.922 72.906v-27.109h-8.2969v27.109zm18.453 0v-27.109h-8.2969v27.109z"/>
</defs>
<use xlink:href="#be"/>
</g>
</g>
<g clip-path="url(#a)">
<g transform="translate(574.9 47.608) scale(.1 -.1)">
<defs>
<path id="c" d="m12.406 8.2969h16.109v55.625l-17.531-3.5156v8.9844l17.438 3.5156h9.8594v-64.609h16.109v-8.2969h-41.984z"/>
</defs>
<use xlink:href="#c"/>
<use x="63.623047" xlink:href="#d"/>
<use x="95.410156" xlink:href="#c"/>
</g>
</g>
<g clip-path="url(#a)">
<g transform="translate(77.261 834.76) scale(.1 -.1)">
<defs>
<path id="r" d="m19.188 8.2969h34.422v-8.2969h-46.281v8.2969q5.6094 5.8125 15.297 15.594 9.7031 9.7969 12.188 12.641 4.7344 5.3125 6.6094 9 1.8906 3.6875 1.8906 7.25 0 5.8125-4.0781 9.4688-4.0781 3.6719-10.625 3.6719-4.6406 0-9.7969-1.6094-5.1406-1.6094-11-4.8906v9.9688q5.9531 2.3906 11.125 3.6094 5.1875 1.2188 9.4844 1.2188 11.328 0 18.062-5.6719 6.7344-5.6562 6.7344-15.125 0-4.5-1.6875-8.5312-1.6719-4.0156-6.125-9.4844-1.2188-1.4219-7.7656-8.1875-6.5312-6.7656-18.453-18.922z"/>
</defs>
<use xlink:href="#c"/>
<use x="63.623047" xlink:href="#d"/>
<use x="95.410156" xlink:href="#r"/>
</g>
</g>
<g clip-path="url(#a)">
<g transform="translate(116.71 611.5) scale(.1 -.1)">
<defs>
<path id="q" d="m40.578 39.312q7.0781-1.5156 11.047-6.3125 3.9844-4.7812 3.9844-11.812 0-10.781-7.4219-16.703-7.4219-5.9062-21.094-5.9062-4.5781 0-9.4375 0.90625t-10.031 2.7188v9.5156q4.0938-2.3906 8.9688-3.6094 4.8906-1.2188 10.219-1.2188 9.2656 0 14.125 3.6562t4.8594 10.641q0 6.4531-4.5156 10.078-4.5156 3.6406-12.562 3.6406h-8.5v8.1094h8.8906q7.2656 0 11.125 2.9062t3.8594 8.375q0 5.6094-3.9844 8.6094-3.9688 3.0156-11.391 3.0156-4.0625 0-8.7031-0.89062-4.6406-0.875-10.203-2.7188v8.7812q5.625 1.5625 10.531 2.3438t9.25 0.78125q11.234 0 17.766-5.1094 6.5469-5.0938 6.5469-13.781 0-6.0625-3.4688-10.234t-9.8594-5.7812z"/>
</defs>
<use xlink:href="#c"/>
<use x="63.623047" xlink:href="#d"/>
<use x="95.410156" xlink:href="#q"/>
</g>
</g>
<g clip-path="url(#a)">
<g transform="translate(222.74 834.76) scale(.1 -.1)">
<defs>
<path id="n" d="m37.797 64.312-24.906-38.922h24.906zm-2.5938 8.5938h12.406v-47.516h10.406v-8.2031h-10.406v-17.188h-9.8125v17.188h-32.906v9.5156z"/>
</defs>
<use xlink:href="#c"/>
<use x="63.623047" xlink:href="#d"/>
<use x="95.410156" xlink:href="#n"/>
</g>
</g>
<g clip-path="url(#a)">
<g transform="translate(603.54 160.78) scale(.1 -.1)">
<defs>
<path id="p" d="m10.797 72.906h38.719v-8.3125h-29.688v-17.859q2.1406 0.73438 4.2812 1.0938 2.1562 0.35938 4.3125 0.35938 12.203 0 19.328-6.6875 7.1406-6.6875 7.1406-18.109 0-11.766-7.3281-18.297-7.3281-6.5156-20.656-6.5156-4.5938 0-9.3594 0.78125-4.75 0.78125-9.8281 2.3438v9.9219q4.3906-2.3906 9.0781-3.5625t9.9062-1.1719q8.4531 0 13.375 4.4375 4.9375 4.4375 4.9375 12.062 0 7.6094-4.9375 12.047-4.9219 4.4531-13.375 4.4531-3.9531 0-7.8906-0.875-3.9219-0.875-8.0156-2.7344z"/>
</defs>
<use xlink:href="#c"/>
<use x="63.623047" xlink:href="#d"/>
<use x="95.410156" xlink:href="#p"/>
</g>
</g>
<g clip-path="url(#a)">
<g transform="translate(880.89 834.76) scale(.1 -.1)">
<defs>
<path id="ae" d="m33.016 40.375q-6.6406 0-10.531-4.5469-3.875-4.5312-3.875-12.438 0-7.8594 3.875-12.438 3.8906-4.5625 10.531-4.5625t10.516 4.5625q3.875 4.5781 3.875 12.438 0 7.9062-3.875 12.438-3.875 4.5469-10.516 4.5469zm19.578 30.922v-8.9844q-3.7188 1.75-7.5 2.6719-3.7812 0.9375-7.5 0.9375-9.7656 0-14.922-6.5938-5.1406-6.5938-5.875-19.922 2.875 4.25 7.2188 6.5156 4.3594 2.2656 9.5781 2.2656 10.984 0 17.359-6.6719 6.375-6.6562 6.375-18.125 0-11.234-6.6406-18.031-6.6406-6.7812-17.672-6.7812-12.656 0-19.344 9.6875-6.6875 9.7031-6.6875 28.109 0 17.281 8.2031 27.562t22.016 10.281q3.7188 0 7.5-0.73438t7.8906-2.1875z"/>
</defs>
<use xlink:href="#c"/>
<use x="63.623047" xlink:href="#d"/>
<use x="95.410156" xlink:href="#ae"/>
</g>
</g>
<g clip-path="url(#a)">
<g transform="translate(943.24 834.76) scale(.1 -.1)">
<defs>
<path id="ad" d="m8.2031 72.906h46.875v-4.2031l-26.469-68.703h-10.297l24.906 64.594h-35.016z"/>
</defs>
<use xlink:href="#c"/>
<use x="63.623047" xlink:href="#d"/>
<use x="95.410156" xlink:href="#ad"/>
</g>
</g>
<g clip-path="url(#a)">
<g transform="translate(1311.5 611.5) scale(.1 -.1)">
<defs>
<path id="ac" d="m31.781 34.625q-7.0312 0-11.062-3.7656-4.0156-3.7656-4.0156-10.344 0-6.5938 4.0156-10.359 4.0312-3.7656 11.062-3.7656t11.078 3.7812q4.0625 3.7969 4.0625 10.344 0 6.5781-4.0312 10.344-4.0156 3.7656-11.109 3.7656zm-9.8594 4.1875q-6.3438 1.5625-9.8906 5.9062-3.5312 4.3594-3.5312 10.609 0 8.7344 6.2188 13.812 6.2344 5.0781 17.062 5.0781 10.891 0 17.094-5.0781t6.2031-13.812q0-6.25-3.5469-10.609-3.5312-4.3438-9.8281-5.9062 7.125-1.6562 11.094-6.5 3.9844-4.8281 3.9844-11.797 0-10.609-6.4688-16.281-6.4688-5.6562-18.531-5.6562-12.047 0-18.531 5.6562-6.4688 5.6719-6.4688 16.281 0 6.9688 4 11.797 4.0156 4.8438 11.141 6.5zm-3.6094 15.578q0-5.6562 3.5312-8.8281 3.5469-3.1719 9.9375-3.1719 6.3594 0 9.9375 3.1719 3.5938 3.1719 3.5938 8.8281 0 5.6719-3.5938 8.8438-3.5781 3.1719-9.9375 3.1719-6.3906 0-9.9375-3.1719-3.5312-3.1719-3.5312-8.8438z"/>
</defs>
<use xlink:href="#c"/>
<use x="63.623047" xlink:href="#d"/>
<use x="95.410156" xlink:href="#ac"/>
</g>
</g>
<g clip-path="url(#a)">
<g transform="translate(1072.5 723.42) scale(.1 -.1)">
<use xlink:href="#c"/>
<use x="63.623047" xlink:href="#d"/>
<use x="95.410156" xlink:href="#c"/>
<use x="159.033203" xlink:href="#q"/>
</g>
</g>
<g clip-path="url(#a)">
<g transform="translate(1212.6 834.76) scale(.1 -.1)">
<use xlink:href="#c"/>
<use x="63.623047" xlink:href="#d"/>
<use x="95.410156" xlink:href="#c"/>
<use x="159.033203" xlink:href="#n"/>
</g>
</g>
<g clip-path="url(#a)">
<g transform="translate(1286.4 834.76) scale(.1 -.1)">
<use xlink:href="#c"/>
<use x="63.623047" xlink:href="#d"/>
<use x="95.410156" xlink:href="#c"/>
<use x="159.033203" xlink:href="#p"/>
</g>
</g>
<g clip-path="url(#a)">
<g transform="translate(1362.7 834.76) scale(.1 -.1)">
<use xlink:href="#c"/>
<use x="63.623047" xlink:href="#d"/>
<use x="95.410156" xlink:href="#c"/>
<use x="159.033203" xlink:href="#ae"/>
</g>
</g>
<g clip-path="url(#a)">
<g transform="translate(1607.4 723.42) scale(.1 -.1)">
<use xlink:href="#c"/>
<use x="63.623047" xlink:href="#d"/>
<use x="95.410156" xlink:href="#c"/>
<use x="159.033203" xlink:href="#ad"/>
</g>
</g>
<g clip-path="url(#a)">
<g transform="translate(1441.2 834.76) scale(.1 -.1)">
<use xlink:href="#c"/>
<use x="63.623047" xlink:href="#d"/>
<use x="95.410156" xlink:href="#c"/>
<use x="159.033203" xlink:href="#ac"/>
</g>
</g>
<g clip-path="url(#a)">
<g transform="translate(1522 834.76) scale(.1 -.1)">
<defs>
<path id="am" d="m10.984 1.5156v8.9844q3.7188-1.7656 7.5156-2.6875 3.8125-0.92188 7.4844-0.92188 9.7656 0 14.906 6.5625 5.1562 6.5625 5.8906 19.953-2.8281-4.2031-7.1875-6.4531-4.3438-2.25-9.6094-2.25-10.938 0-17.312 6.6094-6.375 6.625-6.375 18.109 0 11.219 6.6406 18 6.6406 6.7969 17.672 6.7969 12.656 0 19.312-9.7031 6.6719-9.6875 6.6719-28.141 0-17.234-8.1875-27.516-8.1719-10.281-21.984-10.281-3.7188 0-7.5312 0.73438-3.7969 0.73438-7.9062 2.2031zm19.625 30.906q6.6406 0 10.516 4.5312 3.8906 4.5469 3.8906 12.469 0 7.8594-3.8906 12.422-3.875 4.5625-10.516 4.5625t-10.516-4.5625-3.875-12.422q0-7.9219 3.875-12.469 3.875-4.5312 10.516-4.5312z"/>
</defs>
<use xlink:href="#c"/>
<use x="63.623047" xlink:href="#d"/>
<use x="95.410156" xlink:href="#c"/>
<use x="159.033203" xlink:href="#am"/>
</g>
</g>
<g clip-path="url(#a)">
<g transform="translate(1605.1 834.76) scale(.1 -.1)">
<defs>
<path id="ax" d="m31.781 66.406q-7.6094 0-11.453-7.5-3.8281-7.4844-3.8281-22.531 0-14.984 3.8281-22.484 3.8438-7.5 11.453-7.5 7.6719 0 11.5 7.5 3.8438 7.5 3.8438 22.484 0 15.047-3.8438 22.531-3.8281 7.5-11.5 7.5zm0 7.8125q12.266 0 18.734-9.7031 6.4688-9.6875 6.4688-28.141 0-18.406-6.4688-28.109-6.4688-9.6875-18.734-9.6875-12.25 0-18.719 9.6875-6.4688 9.7031-6.4688 28.109 0 18.453 6.4688 28.141 6.4688 9.7031 18.719 9.7031z"/>
</defs>
<use xlink:href="#c"/>
<use x="63.623047" xlink:href="#d"/>
<use x="95.410156" xlink:href="#r"/>
<use x="159.033203" xlink:href="#ax"/>
</g>
</g>
<g clip-path="url(#a)">
<g transform="translate(1004.7 834.76) scale(.1 -.1)">
<use xlink:href="#c"/>
<use x="63.623047" xlink:href="#d"/>
<use x="95.410156" xlink:href="#r"/>
<use x="159.033203" xlink:href="#c"/>
</g>
</g>
<g clip-path="url(#a)">
<g transform="translate(1071.7 834.76) scale(.1 -.1)">
<use xlink:href="#c"/>
<use x="63.623047" xlink:href="#d"/>
<use x="95.410156" xlink:href="#r"/>
<use x="159.033203" xlink:href="#r"/>
</g>
</g>
<g clip-path="url(#a)">
<g transform="translate(1141 834.76) scale(.1 -.1)">
<use xlink:href="#c"/>
<use x="63.623047" xlink:href="#d"/>
<use x="95.410156" xlink:href="#r"/>
<use x="159.033203" xlink:href="#q"/>
</g>
</g>
<g clip-path="url(#a)">
<g transform="translate(285.59 273.78) scale(.1 -.1)">
<use xlink:href="#c"/>
<use x="63.623047" xlink:href="#d"/>
<use x="95.410156" xlink:href="#r"/>
<use x="159.033203" xlink:href="#n"/>
</g>
</g>
<g clip-path="url(#a)">
<g transform="translate(704.51 834.76) scale(.1 -.1)">
<use xlink:href="#c"/>
<use x="63.623047" xlink:href="#d"/>
<use x="95.410156" xlink:href="#r"/>
<use x="159.033203" xlink:href="#p"/>
</g>
</g>
<g clip-path="url(#a)">
<g transform="translate(759.93 834.76) scale(.1 -.1)">
<use xlink:href="#c"/>
<use x="63.623047" xlink:href="#d"/>
<use x="95.410156" xlink:href="#r"/>
<use x="159.033203" xlink:href="#ae"/>
</g>
</g>
<g clip-path="url(#a)">
<g transform="translate(247.27 834.76) scale(.1 -.1)">
<use xlink:href="#c"/>
<use x="63.623047" xlink:href="#d"/>
<use x="95.410156" xlink:href="#r"/>
<use x="159.033203" xlink:href="#ac"/>
</g>
</g>
<g clip-path="url(#a)">
<g transform="translate(332.21 386.6) scale(.1 -.1)">
<use xlink:href="#c"/>
<use x="63.623047" xlink:href="#d"/>
<use x="95.410156" xlink:href="#r"/>
<use x="159.033203" xlink:href="#am"/>
</g>
</g>
<g clip-path="url(#a)">
<g transform="translate(309.63 834.76) scale(.1 -.1)">
<use xlink:href="#c"/>
<use x="63.623047" xlink:href="#d"/>
<use x="95.410156" xlink:href="#q"/>
<use x="159.033203" xlink:href="#c"/>
</g>
</g>
<g clip-path="url(#a)">
<g transform="translate(344.26 834.76) scale(.1 -.1)">
<use xlink:href="#c"/>
<use x="63.623047" xlink:href="#d"/>
<use x="95.410156" xlink:href="#q"/>
<use x="159.033203" xlink:href="#r"/>
</g>
</g>
<g clip-path="url(#a)">
<g transform="translate(427.69 499.19) scale(.1 -.1)">
<use xlink:href="#c"/>
<use x="63.623047" xlink:href="#d"/>
<use x="95.410156" xlink:href="#q"/>
<use x="159.033203" xlink:href="#q"/>
</g>
</g>
<g clip-path="url(#a)">
<g transform="translate(381.21 834.76) scale(.1 -.1)">
<use xlink:href="#c"/>
<use x="63.623047" xlink:href="#d"/>
<use x="95.410156" xlink:href="#q"/>
<use x="159.033203" xlink:href="#n"/>
</g>
</g>
<g clip-path="url(#a)">
<g transform="translate(481.38 611.5) scale(.1 -.1)">
<use xlink:href="#c"/>
<use x="63.623047" xlink:href="#d"/>
<use x="95.410156" xlink:href="#q"/>
<use x="159.033203" xlink:href="#p"/>
</g>
</g>
<g clip-path="url(#a)">
<g transform="translate(462.04 834.76) scale(.1 -.1)">
<use xlink:href="#c"/>
<use x="63.623047" xlink:href="#d"/>
<use x="95.410156" xlink:href="#q"/>
<use x="159.033203" xlink:href="#ad"/>
</g>
</g>
<g clip-path="url(#a)">
<g transform="translate(505.91 834.76) scale(.1 -.1)">
<use xlink:href="#c"/>
<use x="63.623047" xlink:href="#d"/>
<use x="95.410156" xlink:href="#q"/>
<use x="159.033203" xlink:href="#ac"/>
</g>
</g>
<g clip-path="url(#a)">
<g transform="translate(576.35 723.42) scale(.1 -.1)">
<use xlink:href="#c"/>
<use x="63.623047" xlink:href="#d"/>
<use x="95.410156" xlink:href="#q"/>
<use x="159.033203" xlink:href="#am"/>
</g>
</g>
<g clip-path="url(#a)">
<g transform="translate(552.1 834.76) scale(.1 -.1)">
<use xlink:href="#c"/>
<use x="63.623047" xlink:href="#d"/>
<use x="95.410156" xlink:href="#n"/>
<use x="159.033203" xlink:href="#ax"/>
</g>
</g>
<g clip-path="url(#a)">
<g transform="translate(600.59 834.76) scale(.1 -.1)">
<use xlink:href="#c"/>
<use x="63.623047" xlink:href="#d"/>
<use x="95.410156" xlink:href="#n"/>
<use x="159.033203" xlink:href="#c"/>
</g>
</g>
<g clip-path="url(#a)">
<g transform="translate(85.626 723.42) scale(.1 -.1)">
<use xlink:href="#c"/>
<use x="63.623047" xlink:href="#d"/>
<use x="95.410156" xlink:href="#n"/>
<use x="159.033203" xlink:href="#r"/>
</g>
</g>
<g clip-path="url(#a)">
<g transform="translate(101.79 834.76) scale(.1 -.1)">
<use xlink:href="#c"/>
<use x="63.623047" xlink:href="#d"/>
<use x="95.410156" xlink:href="#n"/>
<use x="159.033203" xlink:href="#q"/>
</g>
</g>
<g clip-path="url(#a)">
<g transform="translate(151.06 723.42) scale(.1 -.1)">
<use xlink:href="#c"/>
<use x="63.623047" xlink:href="#d"/>
<use x="95.410156" xlink:href="#n"/>
<use x="159.033203" xlink:href="#n"/>
</g>
</g>
<g clip-path="url(#a)">
<g transform="translate(115.65 834.76) scale(.1 -.1)">
<use xlink:href="#c"/>
<use x="63.623047" xlink:href="#d"/>
<use x="95.410156" xlink:href="#n"/>
<use x="159.033203" xlink:href="#p"/>
</g>
</g>
<g clip-path="url(#a)">
<g transform="translate(131.81 834.76) scale(.1 -.1)">
<use xlink:href="#c"/>
<use x="63.623047" xlink:href="#d"/>
<use x="95.410156" xlink:href="#n"/>
<use x="159.033203" xlink:href="#ae"/>
</g>
</g>
<g clip-path="url(#a)">
<g transform="translate(150.29 834.76) scale(.1 -.1)">
<use xlink:href="#c"/>
<use x="63.623047" xlink:href="#d"/>
<use x="95.410156" xlink:href="#n"/>
<use x="159.033203" xlink:href="#ad"/>
</g>
</g>
<g clip-path="url(#a)">
<g transform="translate(171.07 834.76) scale(.1 -.1)">
<use xlink:href="#c"/>
<use x="63.623047" xlink:href="#d"/>
<use x="95.410156" xlink:href="#n"/>
<use x="159.033203" xlink:href="#ac"/>
</g>
</g>
<g clip-path="url(#a)">
<g transform="translate(81.007 834.76) scale(.1 -.1)">
<use xlink:href="#c"/>
<use x="63.623047" xlink:href="#d"/>
<use x="95.410156" xlink:href="#n"/>
<use x="159.033203" xlink:href="#am"/>
</g>
</g>
<g clip-path="url(#a)">
<g transform="translate(90.244 834.76) scale(.1 -.1)">
<use xlink:href="#c"/>
<use x="63.623047" xlink:href="#d"/>
<use x="95.410156" xlink:href="#p"/>
<use x="159.033203" xlink:href="#ax"/>
</g>
</g>
<g clip-path="url(#a)">
<g transform="translate(194.16 834.76) scale(.1 -.1)">
<use xlink:href="#c"/>
<use x="63.623047" xlink:href="#d"/>
<use x="95.410156" xlink:href="#p"/>
<use x="159.033203" xlink:href="#c"/>
</g>
</g>
<g clip-path="url(#a)">
<g transform="translate(277.3 834.76) scale(.1 -.1)">
<use xlink:href="#c"/>
<use x="63.623047" xlink:href="#d"/>
<use x="95.410156" xlink:href="#p"/>
<use x="159.033203" xlink:href="#r"/>
</g>
</g>
<g clip-path="url(#a)">
<g transform="translate(420.47 834.76) scale(.1 -.1)">
<use xlink:href="#c"/>
<use x="63.623047" xlink:href="#d"/>
<use x="95.410156" xlink:href="#p"/>
<use x="159.033203" xlink:href="#q"/>
</g>
</g>
<g clip-path="url(#a)">
<g transform="translate(651.4 834.76) scale(.1 -.1)">
<use xlink:href="#c"/>
<use x="63.623047" xlink:href="#d"/>
<use x="95.410156" xlink:href="#p"/>
<use x="159.033203" xlink:href="#n"/>
</g>
</g>
<g clip-path="url(#a)">
<g transform="translate(817.66 834.76) scale(.1 -.1)">
<use xlink:href="#c"/>
<use x="63.623047" xlink:href="#d"/>
<use x="95.410156" xlink:href="#p"/>
<use x="159.033203" xlink:href="#p"/>
</g>
</g>
<g clip-path="url(#a)">
<g transform="translate(1690.6 834.76) scale(.1 -.1)">
<use xlink:href="#c"/>
<use x="63.623047" xlink:href="#d"/>
<use x="95.410156" xlink:href="#p"/>
<use x="159.033203" xlink:href="#ae"/>
</g>
</g>
<g clip-path="url(#a)">
<g transform="translate(1778.3 834.76) scale(.1 -.1)">
<use xlink:href="#c"/>
<use x="63.623047" xlink:href="#d"/>
<use x="95.410156" xlink:href="#p"/>
<use x="159.033203" xlink:href="#ad"/>
</g>
</g>
<defs>
<clipPath id="a">
<rect width="1874.7" height="986.67"/>
</clipPath>
</defs>
</svg>
