<?xml version="1.0" encoding="UTF-8"?>
<!DOCTYPE svg  PUBLIC '-//W3C//DTD SVG 1.1//EN'  'http://www.w3.org/Graphics/SVG/1.1/DTD/svg11.dtd'>
<svg width="658.67pt" height="346.67pt" version="1.1" viewBox="0 0 658.67 346.67" xmlns="http://www.w3.org/2000/svg" xmlns:xlink="http://www.w3.org/1999/xlink">
<metadata>
<rdf:RDF xmlns:cc="http://creativecommons.org/ns#" xmlns:dc="http://purl.org/dc/elements/1.1/" xmlns:rdf="http://www.w3.org/1999/02/22-rdf-syntax-ns#">
<cc:Work>
<dc:type rdf:resource="http://purl.org/dc/dcmitype/StillImage"/>
<dc:date>2021-02-01T11:22:27.463640</dc:date>
<dc:format>image/svg+xml</dc:format>
<dc:creator>
<cc:Agent>
<dc:title>Matplotlib v3.3.3, https://matplotlib.org/</dc:title>
</cc:Agent>
</dc:creator>
</cc:Work>
</rdf:RDF>
</metadata>
<defs>
<style type="text/css">*{stroke-linecap:butt;stroke-linejoin:round;}</style>
</defs>
<path d="m0 346.67h658.67v-346.67h-658.67z" fill="#fff"/>
<g fill="none" stroke="#000">
<path d="m222.55 15.758v63.592" clip-path="url(#a)"/>
<path d="m222.55 79.35-183.8 126.65" clip-path="url(#a)"/>
<path d="m222.55 79.35-136.84 126.65" clip-path="url(#a)"/>
<path d="m222.55 79.35-86.939 189.54" clip-path="url(#a)"/>
<path d="m222.55 79.35-22.364 126.65" clip-path="url(#a)"/>
<path d="m222.55 79.35 53.952 189.54" clip-path="url(#a)"/>
<path d="m222.55 79.35 263.33 63.432" clip-path="url(#a)"/>
<path d="m222.55 79.35 112.66 189.54" clip-path="url(#a)"/>
<path d="m38.745 206-8.8057 62.887" clip-path="url(#a)"/>
<path d="m38.745 206 8.8057 62.887" clip-path="url(#a)"/>
<path d="m85.709 206-14.676 62.887" clip-path="url(#a)"/>
<path d="m85.709 206 14.676 62.887" clip-path="url(#a)"/>
<path d="m135.61 268.89v62.024" clip-path="url(#a)"/>
<path d="m200.18 206-23.482 62.887" clip-path="url(#a)"/>
<path d="m200.18 206 23.482 62.887" clip-path="url(#a)"/>
<path d="m276.5 268.89v62.024" clip-path="url(#a)"/>
<path d="m485.88 142.78-86.1 126.1" clip-path="url(#a)"/>
<path d="m485.88 142.78-15.655 126.1" clip-path="url(#a)"/>
<path d="m485.88 142.78 101.75 63.217" clip-path="url(#a)"/>
<path d="m399.78 268.89v62.024" clip-path="url(#a)"/>
<path d="m470.22 268.89v62.024" clip-path="url(#a)"/>
<path d="m587.63 206-41.093 62.887" clip-path="url(#a)"/>
<path d="m587.63 206 41.093 62.887" clip-path="url(#a)"/>
<path d="m546.54 268.89v62.024" clip-path="url(#a)"/>
<path d="m176.7 268.89v62.024" clip-path="url(#a)"/>
<path d="m223.66 268.89v62.024" clip-path="url(#a)"/>
<path d="m71.033 268.89v62.024" clip-path="url(#a)"/>
<path d="m100.39 268.89v62.024" clip-path="url(#a)"/>
<path d="m29.939 268.89v62.024" clip-path="url(#a)"/>
<path d="m47.551 268.89v62.024" clip-path="url(#a)"/>
<path d="m335.2 268.89v62.024" clip-path="url(#a)"/>
<path d="m628.73 268.89v62.024" clip-path="url(#a)"/>
</g>
<path d="m216.28 44.546v6.0162q0 2.4 2.4 2.4h7.7425q2.4 0 2.4-2.4v-6.0162q0-2.4-2.4-2.4h-7.7425q-2.4 0-2.4 2.4z" clip-path="url(#a)" fill="#fff" stroke="#fff"/>
<g clip-path="url(#a)">
<g transform="translate(220.34 44.546) rotate(90) scale(.08 -.08)">
<defs>
<path id="an" d="m9.8125 72.906h9.8594v-29.891h35.844v29.891h9.8594v-72.906h-9.8594v34.719h-35.844v-34.719h-9.8594z"/>
</defs>
<use xlink:href="#an"/>
</g>
</g>
<path d="m132.19 149.22 4.0236-2.7724q1.9763-1.3617 0.61452-3.338l-4.3931-6.3755q-1.3617-1.9763-3.338-0.61452l-4.0236 2.7724q-1.9763 1.3617-0.61452 3.338l4.3931 6.3755q1.3617 1.9763 3.338 0.61452z" clip-path="url(#a)" fill="#fff" stroke="#fff"/>
<g clip-path="url(#a)">
<g transform="translate(129.89 145.88) rotate(-34.569) scale(.08 -.08)">
<defs>
<path id="e" d="m-0.29688 72.906h61.672v-8.3125h-25.875v-64.594h-9.9062v64.594h-25.891z"/>
</defs>
<use xlink:href="#e"/>
</g>
</g>
<path d="m156.38 149.14 4.0163-3.7172q1.7614-1.6302 0.13116-3.3916l-5.2591-5.6822q-1.6302-1.7614-3.3916-0.13116l-4.0163 3.7172q-1.7614 1.6302-0.13116 3.3916l5.2591 5.6822q1.6302 1.7614 3.3916 0.13116z" clip-path="url(#a)" fill="#fff" stroke="#fff"/>
<g clip-path="url(#a)">
<g transform="translate(153.62 146.15) rotate(-42.785) scale(.08 -.08)">
<defs>
<path id="q" d="m34.188 63.188-13.391-36.281h26.812zm-5.5781 9.7188h11.188l27.781-72.906h-10.25l-6.6406 18.703h-32.859l-6.6406-18.703h-10.406z"/>
</defs>
<use xlink:href="#q"/>
</g>
</g>
<path d="m183.82 178.82 1.9184-4.1823q1.0006-2.1815-1.1808-3.1821l-7.0375-3.2281q-2.1815-1.0006-3.1821 1.1808l-1.9184 4.1823q-1.0006 2.1815 1.1808 3.1821l7.0375 3.2281q2.1815 1.0006 3.1821-1.1808z" clip-path="url(#a)" fill="#fff" stroke="#fff"/>
<g clip-path="url(#a)">
<g transform="translate(180.12 177.13) rotate(-65.359) scale(.08 -.08)">
<defs>
<path id="ao" d="m9.8125 72.906h41.891v-8.3125h-32.031v-21.484h28.906v-8.2969h-28.906v-34.812h-9.8594z"/>
</defs>
<use xlink:href="#ao"/>
</g>
</g>
<path d="m217 146.8 1.0712-6.0662q0.41734-2.3634-1.9461-2.7808l-7.6245-1.3463q-2.3634-0.41734-2.7808 1.9461l-1.0712 6.0662q-0.41734 2.3634 1.9461 2.7808l7.6245 1.3463q2.3634 0.41734 2.7808-1.9461z" clip-path="url(#a)" fill="#fff" stroke="#fff"/>
<g clip-path="url(#a)">
<g transform="translate(213 146.09) rotate(-79.986) scale(.08 -.08)">
<defs>
<path id="ap" d="m19.672 64.797v-56.688h11.922q15.094 0 22.094 6.8281 7 6.8438 7 21.594 0 14.641-7 21.453t-22.094 6.8125zm-9.8594 8.1094h20.266q21.188 0 31.094-8.8125 9.9219-8.8125 9.9219-27.562 0-18.859-9.9688-27.703-9.9531-8.8281-31.047-8.8281h-20.266z"/>
</defs>
<use xlink:href="#ap"/>
</g>
</g>
<path d="m242.83 173.51 1.3206 4.6394q0.65707 2.3083 2.9654 1.6512l7.4467-2.1197q2.3083-0.65707 1.6512-2.9654l-1.3206-4.6394q-0.65707-2.3083-2.9654-1.6512l-7.4467 2.1197q-2.3083 0.65707-1.6512 2.9654z" clip-path="url(#a)" fill="#fff" stroke="#fff"/>
<g clip-path="url(#a)">
<g transform="translate(246.74 172.4) rotate(74.111) scale(.08 -.08)">
<defs>
<path id="s" d="m19.672 64.797v-27.391h12.406q6.8906 0 10.641 3.5625 3.7656 3.5625 3.7656 10.156 0 6.5469-3.7656 10.109-3.75 3.5625-10.641 3.5625zm-9.8594 8.1094h22.266q12.266 0 18.531-5.5469 6.2812-5.5469 6.2812-16.234 0-10.797-6.2812-16.312-6.2656-5.5156-18.531-5.5156h-12.406v-29.297h-9.8594z"/>
</defs>
<use xlink:href="#s"/>
</g>
</g>
<path d="m350.08 116.52 5.3203 1.2816q2.3333 0.56204 2.8953-1.7712l1.8132-7.5272q0.56204-2.3333-1.7712-2.8953l-5.3203-1.2816q-2.3333-0.56204-2.8953 1.7712l-1.8132 7.5272q-0.56204 2.3333 1.7712 2.8953z" clip-path="url(#a)" fill="#fff" stroke="#fff"/>
<g clip-path="url(#a)">
<g transform="translate(351.04 112.57) rotate(13.543) scale(.08 -.08)">
<use xlink:href="#q"/>
</g>
</g>
<path d="m271.99 174.81 2.9916 5.033q1.2263 2.0631 3.2893 0.83681l6.6556-3.956q2.0631-1.2263 0.83681-3.2893l-2.9916-5.033q-1.2263-2.0631-3.2893-0.83681l-6.6556 3.956q-2.0631 1.2263-0.83681 3.2893z" clip-path="url(#a)" fill="#fff" stroke="#fff"/>
<g clip-path="url(#a)">
<g transform="translate(275.48 172.73) rotate(59.273) scale(.08 -.08)">
<defs>
<path id="y" d="m8.6875 72.906h9.9219v-44.297q0-11.719 4.2344-16.875 4.25-5.1406 13.781-5.1406 9.4688 0 13.719 5.1406 4.25 5.1562 4.25 16.875v44.297h9.9062v-45.516q0-14.25-7.0625-21.531-7.0469-7.2812-20.812-7.2812-13.828 0-20.891 7.2812-7.0469 7.2812-7.0469 21.531z"/>
</defs>
<use xlink:href="#y"/>
</g>
</g>
<path d="m40.202 240.81 0.70099-5.0062q0.33281-2.3768-2.044-2.7096l-7.6677-1.0737q-2.3768-0.33281-2.7096 2.044l-0.70099 5.0062q-0.33281 2.3768 2.044 2.7096l7.6677 1.0737q2.3768 0.33281 2.7096-2.044z" clip-path="url(#a)" fill="#fff" stroke="#fff"/>
<g clip-path="url(#a)">
<g transform="translate(36.178 240.25) rotate(-82.029) scale(.08 -.08)">
<defs>
<path id="z" d="m9.8125 72.906h46.094v-8.3125h-36.234v-21.578h34.719v-8.2969h-34.719v-26.422h37.109v-8.2969h-46.969z"/>
</defs>
<use xlink:href="#z"/>
</g>
</g>
<path d="m36.55 235.55 0.77466 5.5323q0.33281 2.3768 2.7096 2.044l7.6677-1.0737q2.3768-0.33281 2.044-2.7096l-0.77466-5.5323q-0.33281-2.3768-2.7096-2.044l-7.6677 1.0737q-2.3768 0.33281-2.044 2.7096z" clip-path="url(#a)" fill="#fff" stroke="#fff"/>
<g clip-path="url(#a)">
<g transform="translate(40.574 234.98) rotate(82.029) scale(.08 -.08)">
<defs>
<path id="t" d="m64.406 67.281v-10.391q-4.9844 4.6406-10.625 6.9219-5.6406 2.2969-11.984 2.2969-12.5 0-19.141-7.6406t-6.6406-22.094q0-14.406 6.6406-22.047t19.141-7.6406q6.3438 0 11.984 2.2969t10.625 6.9375v-10.312q-5.1719-3.5156-10.969-5.2812-5.7812-1.75-12.219-1.75-16.562 0-26.094 10.125-9.5156 10.141-9.5156 27.672 0 17.578 9.5156 27.703 9.5312 10.141 26.094 10.141 6.5312 0 12.312-1.7344 5.7969-1.7344 10.875-5.2031z"/>
</defs>
<use xlink:href="#t"/>
</g>
</g>
<path d="m83.846 241.57 1.2633-5.4133q0.54544-2.3372-1.7918-2.8826l-7.5399-1.7596q-2.3372-0.54544-2.8826 1.7918l-1.2633 5.4133q-0.54544 2.3372 1.7918 2.8826l7.5399 1.7596q2.3372 0.54544 2.8826-1.7918z" clip-path="url(#a)" fill="#fff" stroke="#fff"/>
<g clip-path="url(#a)">
<g transform="translate(79.889 240.65) rotate(-76.864) scale(.08 -.08)">
<defs>
<path id="am" d="m44.391 34.188q3.1719-1.0781 6.1719-4.5938t6.0312-9.6719l10.016-19.922h-10.609l-9.3125 18.703q-3.625 7.3281-7.0156 9.7188t-9.25 2.3906h-10.75v-30.812h-9.8594v72.906h22.266q12.5 0 18.656-5.2344 6.1562-5.2188 6.1562-15.766 0-6.8906-3.2031-11.438-3.2031-4.5312-9.2969-6.2812zm-24.719 30.609v-25.875h12.406q7.125 0 10.766 3.2969t3.6406 9.6875-3.6406 9.6406-10.766 3.25z"/>
</defs>
<use xlink:href="#am"/>
</g>
</g>
<path d="m86.305 236.15 1.2696 5.4401q0.54544 2.3372 2.8826 1.7918l7.5399-1.7596q2.3372-0.54544 1.7918-2.8826l-1.2696-5.4401q-0.54544-2.3372-2.8826-1.7918l-7.5399 1.7596q-2.3372 0.54544-1.7918 2.8826z" clip-path="url(#a)" fill="#fff" stroke="#fff"/>
<g clip-path="url(#a)">
<g transform="translate(90.262 235.22) rotate(76.864) scale(.08 -.08)">
<use xlink:href="#t"/>
</g>
</g>
<path d="m129.34 282.99v33.808q0 2.4 2.4 2.4h7.7425q2.4 0 2.4-2.4v-33.808q0-2.4-2.4-2.4h-7.7425q-2.4 0-2.4 2.4z" clip-path="url(#a)" fill="#fff" stroke="#fff"/>
<g clip-path="url(#a)">
<g transform="translate(133.4 282.99) rotate(90) scale(.08 -.08)">
<defs>
<path id="l" d="m56.203 29.594v-4.3906h-41.312q0.59375-9.2812 5.5938-14.141t13.938-4.8594q5.1719 0 10.031 1.2656t9.6562 3.8125v-8.5q-4.8438-2.0469-9.9219-3.125t-10.297-1.0781q-13.094 0-20.734 7.6094-7.6406 7.625-7.6406 20.625 0 13.422 7.25 21.297 7.25 7.8906 19.562 7.8906 11.031 0 17.453-7.1094 6.4219-7.0938 6.4219-19.297zm-8.9844 2.6406q-0.09375 7.3594-4.125 11.75-4.0312 4.4062-10.672 4.4062-7.5156 0-12.031-4.25t-5.2031-11.969z"/>
<path id="g" d="m41.109 46.297q-1.5156 0.875-3.2969 1.2812-1.7812 0.42188-3.9219 0.42188-7.625 0-11.703-4.9531t-4.0781-14.234v-28.812h-9.0312v54.688h9.0312v-8.5q2.8438 4.9844 7.375 7.3906 4.5469 2.4219 11.047 2.4219 0.92188 0 2.0469-0.125 1.125-0.10938 2.4844-0.35938z"/>
<path id="i" d="m52 44.188q3.375 6.0625 8.0625 8.9375t11.031 2.875q8.5469 0 13.188-5.9844 4.6406-5.9688 4.6406-17v-33.016h-9.0312v32.719q0 7.8594-2.7969 11.656-2.7812 3.8125-8.4844 3.8125-6.9844 0-11.047-4.6406-4.0469-4.625-4.0469-12.641v-30.906h-9.0312v32.719q0 7.9062-2.7812 11.688t-8.5938 3.7812q-6.8906 0-10.953-4.6562-4.0469-4.6562-4.0469-12.625v-30.906h-9.0312v54.688h9.0312v-8.5q3.0781 5.0312 7.375 7.4219t10.203 2.3906q5.9688 0 10.141-3.0312 4.1719-3.0156 6.1719-8.7812z"/>
<path id="k" d="m9.4219 54.688h8.9844v-54.688h-8.9844zm0 21.297h8.9844v-11.391h-8.9844z"/>
<path id="h" d="m54.891 33.016v-33.016h-8.9844v32.719q0 7.7656-3.0312 11.609-3.0312 3.8594-9.0781 3.8594-7.2812 0-11.484-4.6406-4.2031-4.625-4.2031-12.641v-30.906h-9.0312v54.688h9.0312v-8.5q3.2344 4.9375 7.5938 7.375 4.375 2.4375 10.094 2.4375 9.4219 0 14.25-5.8281 4.8438-5.8281 4.8438-17.156z"/>
<path id="f" d="m34.281 27.484q-10.891 0-15.094-2.4844t-4.2031-8.5q0-4.7812 3.1562-7.5938 3.1562-2.7969 8.5625-2.7969 7.4844 0 12 5.2969t4.5156 14.078v2zm17.922 3.7188v-31.203h-8.9844v8.2969q-3.0781-4.9688-7.6719-7.3438t-11.234-2.375q-8.3906 0-13.359 4.7188-4.9531 4.7188-4.9531 12.625 0 9.2188 6.1719 13.906 6.1875 4.6875 18.438 4.6875h12.609v0.89062q0 6.2031-4.0781 9.5938t-11.453 3.3906q-4.6875 0-9.1406-1.125-4.4375-1.125-8.5312-3.375v8.3125q4.9219 1.9062 9.5625 2.8438 4.6406 0.95312 9.0312 0.95312 11.875 0 17.734-6.1562 5.8594-6.1406 5.8594-18.641z"/>
<path id="j" d="m9.4219 75.984h8.9844v-75.984h-8.9844z"/>
</defs>
<use xlink:href="#e"/>
<use x="44.083984" xlink:href="#l"/>
<use x="105.607422" xlink:href="#g"/>
<use x="144.970703" xlink:href="#i"/>
<use x="242.382812" xlink:href="#k"/>
<use x="270.166016" xlink:href="#h"/>
<use x="333.544922" xlink:href="#f"/>
<use x="394.824219" xlink:href="#j"/>
</g>
</g>
<path d="m193.43 242 1.7683-4.7356q0.83954-2.2484-1.4088-3.0879l-7.2533-2.7084q-2.2484-0.83954-3.0879 1.4088l-1.7683 4.7356q-0.83954 2.2484 1.4088 3.0879l7.2533 2.7084q2.2484 0.83954 3.0879-1.4088z" clip-path="url(#a)" fill="#fff" stroke="#fff"/>
<g clip-path="url(#a)">
<g transform="translate(189.63 240.58) rotate(-69.524) scale(.08 -.08)">
<use xlink:href="#z"/>
</g>
</g>
<path d="m205.07 237.02 1.9541 5.2333q0.83954 2.2484 3.0879 1.4088l7.2533-2.7084q2.2484-0.83954 1.4088-3.0879l-1.9541-5.2333q-0.83954-2.2484-3.0879-1.4088l-7.2533 2.7084q-2.2484 0.83954-1.4088 3.0879z" clip-path="url(#a)" fill="#fff" stroke="#fff"/>
<g clip-path="url(#a)">
<g transform="translate(208.88 235.6) rotate(69.524) scale(.08 -.08)">
<use xlink:href="#t"/>
</g>
</g>
<path d="m270.23 282.99v33.808q0 2.4 2.4 2.4h7.7425q2.4 0 2.4-2.4v-33.808q0-2.4-2.4-2.4h-7.7425q-2.4 0-2.4 2.4z" clip-path="url(#a)" fill="#fff" stroke="#fff"/>
<g clip-path="url(#a)">
<g transform="translate(274.29 282.99) rotate(90) scale(.08 -.08)">
<use xlink:href="#e"/>
<use x="44.083984" xlink:href="#l"/>
<use x="105.607422" xlink:href="#g"/>
<use x="144.970703" xlink:href="#i"/>
<use x="242.382812" xlink:href="#k"/>
<use x="270.166016" xlink:href="#h"/>
<use x="333.544922" xlink:href="#f"/>
<use x="394.824219" xlink:href="#j"/>
</g>
</g>
<path d="m446.47 211.63 3.0858-4.5195q1.3533-1.9821-0.62876-3.3354l-6.3942-4.3658q-1.9821-1.3533-3.3354 0.62876l-3.0858 4.5195q-1.3533 1.9821 0.62876 3.3354l6.3942 4.3658q1.9821 1.3533 3.3354-0.62876z" clip-path="url(#a)" fill="#fff" stroke="#fff"/>
<g clip-path="url(#a)">
<g transform="translate(443.11 209.34) rotate(-55.676) scale(.08 -.08)">
<use xlink:href="#q"/>
</g>
</g>
<path d="m483.98 209 0.59426-4.787q0.29567-2.3817-2.086-2.6774l-7.6835-0.95384q-2.3817-0.29567-2.6774 2.086l-0.59426 4.787q-0.29567 2.3817 2.086 2.6774l7.6835 0.95384q2.3817 0.29567 2.6774-2.086z" clip-path="url(#a)" fill="#fff" stroke="#fff"/>
<g clip-path="url(#a)">
<g transform="translate(479.95 208.5) rotate(-82.923) scale(.08 -.08)">
<use xlink:href="#s"/>
</g>
</g>
<path d="m531.12 178.27 4.6485 2.8879q2.0386 1.2665 3.3051-0.7721l4.0858-6.5766q1.2665-2.0386-0.7721-3.3051l-4.6485-2.8879q-2.0386-1.2665-3.3051 0.77209l-4.0858 6.5766q-1.2665 2.0386 0.7721 3.3051z" clip-path="url(#a)" fill="#fff" stroke="#fff"/>
<g clip-path="url(#a)">
<g transform="translate(533.27 174.82) rotate(31.851) scale(.08 -.08)">
<use xlink:href="#q"/>
</g>
</g>
<path d="m393.51 282.99v33.808q0 2.4 2.4 2.4h7.7425q2.4 0 2.4-2.4v-33.808q0-2.4-2.4-2.4h-7.7425q-2.4 0-2.4 2.4z" clip-path="url(#a)" fill="#fff" stroke="#fff"/>
<g clip-path="url(#a)">
<g transform="translate(397.57 282.99) rotate(90) scale(.08 -.08)">
<use xlink:href="#e"/>
<use x="44.083984" xlink:href="#l"/>
<use x="105.607422" xlink:href="#g"/>
<use x="144.970703" xlink:href="#i"/>
<use x="242.382812" xlink:href="#k"/>
<use x="270.166016" xlink:href="#h"/>
<use x="333.544922" xlink:href="#f"/>
<use x="394.824219" xlink:href="#j"/>
</g>
</g>
<path d="m463.95 282.99v33.808q0 2.4 2.4 2.4h7.7425q2.4 0 2.4-2.4v-33.808q0-2.4-2.4-2.4h-7.7425q-2.4 0-2.4 2.4z" clip-path="url(#a)" fill="#fff" stroke="#fff"/>
<g clip-path="url(#a)">
<g transform="translate(468.02 282.99) rotate(90) scale(.08 -.08)">
<use xlink:href="#e"/>
<use x="44.083984" xlink:href="#l"/>
<use x="105.607422" xlink:href="#g"/>
<use x="144.970703" xlink:href="#i"/>
<use x="242.382812" xlink:href="#k"/>
<use x="270.166016" xlink:href="#h"/>
<use x="333.544922" xlink:href="#f"/>
<use x="394.824219" xlink:href="#j"/>
</g>
</g>
<path d="m571.02 242.89 2.6387-4.0381q1.3128-2.0091-0.69625-3.3219l-6.4814-4.2353q-2.0091-1.3128-3.3219 0.69626l-2.6387 4.0381q-1.3128 2.0091 0.69625 3.3219l6.4814 4.2353q2.0091 1.3128 3.3219-0.69625z" clip-path="url(#a)" fill="#fff" stroke="#fff"/>
<g clip-path="url(#a)">
<g transform="translate(567.62 240.67) rotate(-56.837) scale(.08 -.08)">
<use xlink:href="#s"/>
</g>
</g>
<path d="m601.33 238.42 3.2028 4.9014q1.3128 2.0091 3.3219 0.69625l6.4814-4.2353q2.0091-1.3128 0.69625-3.3219l-3.2028-4.9013q-1.3128-2.0091-3.3219-0.69626l-6.4814 4.2353q-2.0091 1.3128-0.69626 3.3219z" clip-path="url(#a)" fill="#fff" stroke="#fff"/>
<g clip-path="url(#a)">
<g transform="translate(604.73 236.2) rotate(56.837) scale(.08 -.08)">
<use xlink:href="#y"/>
</g>
</g>
<path d="m540.27 282.99v33.808q0 2.4 2.4 2.4h7.7425q2.4 0 2.4-2.4v-33.808q0-2.4-2.4-2.4h-7.7425q-2.4 0-2.4 2.4z" clip-path="url(#a)" fill="#fff" stroke="#fff"/>
<g clip-path="url(#a)">
<g transform="translate(544.33 282.99) rotate(90) scale(.08 -.08)">
<use xlink:href="#e"/>
<use x="44.083984" xlink:href="#l"/>
<use x="105.607422" xlink:href="#g"/>
<use x="144.970703" xlink:href="#i"/>
<use x="242.382812" xlink:href="#k"/>
<use x="270.166016" xlink:href="#h"/>
<use x="333.544922" xlink:href="#f"/>
<use x="394.824219" xlink:href="#j"/>
</g>
</g>
<path d="m170.43 282.99v33.808q0 2.4 2.4 2.4h7.7425q2.4 0 2.4-2.4v-33.808q0-2.4-2.4-2.4h-7.7425q-2.4 0-2.4 2.4z" clip-path="url(#a)" fill="#fff" stroke="#fff"/>
<g clip-path="url(#a)">
<g transform="translate(174.49 282.99) rotate(90) scale(.08 -.08)">
<use xlink:href="#e"/>
<use x="44.083984" xlink:href="#l"/>
<use x="105.607422" xlink:href="#g"/>
<use x="144.970703" xlink:href="#i"/>
<use x="242.382812" xlink:href="#k"/>
<use x="270.166016" xlink:href="#h"/>
<use x="333.544922" xlink:href="#f"/>
<use x="394.824219" xlink:href="#j"/>
</g>
</g>
<path d="m217.39 282.99v33.808q0 2.4 2.4 2.4h7.7425q2.4 0 2.4-2.4v-33.808q0-2.4-2.4-2.4h-7.7425q-2.4 0-2.4 2.4z" clip-path="url(#a)" fill="#fff" stroke="#fff"/>
<g clip-path="url(#a)">
<g transform="translate(221.46 282.99) rotate(90) scale(.08 -.08)">
<use xlink:href="#e"/>
<use x="44.083984" xlink:href="#l"/>
<use x="105.607422" xlink:href="#g"/>
<use x="144.970703" xlink:href="#i"/>
<use x="242.382812" xlink:href="#k"/>
<use x="270.166016" xlink:href="#h"/>
<use x="333.544922" xlink:href="#f"/>
<use x="394.824219" xlink:href="#j"/>
</g>
</g>
<path d="m64.761 282.99v33.808q0 2.4 2.4 2.4h7.7425q2.4 0 2.4-2.4v-33.808q0-2.4-2.4-2.4h-7.7425q-2.4 0-2.4 2.4z" clip-path="url(#a)" fill="#fff" stroke="#fff"/>
<g clip-path="url(#a)">
<g transform="translate(68.825 282.99) rotate(90) scale(.08 -.08)">
<use xlink:href="#e"/>
<use x="44.083984" xlink:href="#l"/>
<use x="105.607422" xlink:href="#g"/>
<use x="144.970703" xlink:href="#i"/>
<use x="242.382812" xlink:href="#k"/>
<use x="270.166016" xlink:href="#h"/>
<use x="333.544922" xlink:href="#f"/>
<use x="394.824219" xlink:href="#j"/>
</g>
</g>
<path d="m94.114 282.99v33.808q0 2.4 2.4 2.4h7.7425q2.4 0 2.4-2.4v-33.808q0-2.4-2.4-2.4h-7.7425q-2.4 0-2.4 2.4z" clip-path="url(#a)" fill="#fff" stroke="#fff"/>
<g clip-path="url(#a)">
<g transform="translate(98.178 282.99) rotate(90) scale(.08 -.08)">
<use xlink:href="#e"/>
<use x="44.083984" xlink:href="#l"/>
<use x="105.607422" xlink:href="#g"/>
<use x="144.970703" xlink:href="#i"/>
<use x="242.382812" xlink:href="#k"/>
<use x="270.166016" xlink:href="#h"/>
<use x="333.544922" xlink:href="#f"/>
<use x="394.824219" xlink:href="#j"/>
</g>
</g>
<path d="m23.668 282.99v33.808q0 2.4 2.4 2.4h7.7425q2.4 0 2.4-2.4v-33.808q0-2.4-2.4-2.4h-7.7425q-2.4 0-2.4 2.4z" clip-path="url(#a)" fill="#fff" stroke="#fff"/>
<g clip-path="url(#a)">
<g transform="translate(27.732 282.99) rotate(90) scale(.08 -.08)">
<use xlink:href="#e"/>
<use x="44.083984" xlink:href="#l"/>
<use x="105.607422" xlink:href="#g"/>
<use x="144.970703" xlink:href="#i"/>
<use x="242.382812" xlink:href="#k"/>
<use x="270.166016" xlink:href="#h"/>
<use x="333.544922" xlink:href="#f"/>
<use x="394.824219" xlink:href="#j"/>
</g>
</g>
<path d="m41.28 282.99v33.808q0 2.4 2.4 2.4h7.7425q2.4 0 2.4-2.4v-33.808q0-2.4-2.4-2.4h-7.7425q-2.4 0-2.4 2.4z" clip-path="url(#a)" fill="#fff" stroke="#fff"/>
<g clip-path="url(#a)">
<g transform="translate(45.343 282.99) rotate(90) scale(.08 -.08)">
<use xlink:href="#e"/>
<use x="44.083984" xlink:href="#l"/>
<use x="105.607422" xlink:href="#g"/>
<use x="144.970703" xlink:href="#i"/>
<use x="242.382812" xlink:href="#k"/>
<use x="270.166016" xlink:href="#h"/>
<use x="333.544922" xlink:href="#f"/>
<use x="394.824219" xlink:href="#j"/>
</g>
</g>
<path d="m328.93 282.99v33.808q0 2.4 2.4 2.4h7.7425q2.4 0 2.4-2.4v-33.808q0-2.4-2.4-2.4h-7.7425q-2.4 0-2.4 2.4z" clip-path="url(#a)" fill="#fff" stroke="#fff"/>
<g clip-path="url(#a)">
<g transform="translate(333 282.99) rotate(90) scale(.08 -.08)">
<use xlink:href="#e"/>
<use x="44.083984" xlink:href="#l"/>
<use x="105.607422" xlink:href="#g"/>
<use x="144.970703" xlink:href="#i"/>
<use x="242.382812" xlink:href="#k"/>
<use x="270.166016" xlink:href="#h"/>
<use x="333.544922" xlink:href="#f"/>
<use x="394.824219" xlink:href="#j"/>
</g>
</g>
<path d="m622.46 282.99v33.808q0 2.4 2.4 2.4h7.7425q2.4 0 2.4-2.4v-33.808q0-2.4-2.4-2.4h-7.7425q-2.4 0-2.4 2.4z" clip-path="url(#a)" fill="#fff" stroke="#fff"/>
<g clip-path="url(#a)">
<g transform="translate(626.52 282.99) rotate(90) scale(.08 -.08)">
<use xlink:href="#e"/>
<use x="44.083984" xlink:href="#l"/>
<use x="105.607422" xlink:href="#g"/>
<use x="144.970703" xlink:href="#i"/>
<use x="242.382812" xlink:href="#k"/>
<use x="270.166016" xlink:href="#h"/>
<use x="333.544922" xlink:href="#f"/>
<use x="394.824219" xlink:href="#j"/>
</g>
</g>
<defs>
<path id="b" d="m0 8.6603c2.2967 0 4.4997-0.9125 6.1237-2.5365 1.624-1.624 2.5365-3.827 2.5365-6.1237s-0.9125-4.4997-2.5365-6.1237c-1.624-1.624-3.827-2.5365-6.1237-2.5365s-4.4997 0.9125-6.1237 2.5365c-1.624 1.624-2.5365 3.827-2.5365 6.1237s0.9125 4.4997 2.5365 6.1237c1.624 1.624 3.827 2.5365 6.1237 2.5365z"/>
</defs>
<g clip-path="url(#a)" fill="#ffffff" stroke="#ffffff">
<use x="29.939394" y="330.909091" xlink:href="#b"/>
<use x="47.550802" y="330.909091" xlink:href="#b"/>
<use x="71.03268" y="330.909091" xlink:href="#b"/>
<use x="100.385027" y="330.909091" xlink:href="#b"/>
<use x="135.607843" y="330.909091" xlink:href="#b"/>
<use x="176.701129" y="330.909091" xlink:href="#b"/>
<use x="223.664884" y="330.909091" xlink:href="#b"/>
<use x="276.499109" y="330.909091" xlink:href="#b"/>
<use x="335.203803" y="330.909091" xlink:href="#b"/>
<use x="399.778966" y="330.909091" xlink:href="#b"/>
<use x="470.224599" y="330.909091" xlink:href="#b"/>
<use x="546.540701" y="330.909091" xlink:href="#b"/>
<use x="628.727273" y="330.909091" xlink:href="#b"/>
<use x="222.546699" y="15.757576" xlink:href="#b"/>
<use x="222.546699" y="79.349844" xlink:href="#b"/>
<use x="38.745098" y="205.998291" xlink:href="#b"/>
<use x="85.708853" y="205.998291" xlink:href="#b"/>
<use x="135.607843" y="268.885102" xlink:href="#b"/>
<use x="200.183007" y="205.998291" xlink:href="#b"/>
<use x="276.499109" y="268.885102" xlink:href="#b"/>
<use x="485.879184" y="142.781644" xlink:href="#b"/>
<use x="399.778966" y="268.885102" xlink:href="#b"/>
<use x="470.224599" y="268.885102" xlink:href="#b"/>
<use x="587.633987" y="205.998291" xlink:href="#b"/>
<use x="546.540701" y="268.885102" xlink:href="#b"/>
<use x="176.701129" y="268.885102" xlink:href="#b"/>
<use x="223.664884" y="268.885102" xlink:href="#b"/>
<use x="71.03268" y="268.885102" xlink:href="#b"/>
<use x="100.385027" y="268.885102" xlink:href="#b"/>
<use x="29.939394" y="268.885102" xlink:href="#b"/>
<use x="47.550802" y="268.885102" xlink:href="#b"/>
<use x="335.203803" y="268.885102" xlink:href="#b"/>
<use x="628.727273" y="268.885102" xlink:href="#b"/>
</g>
<g clip-path="url(#a)">
<g transform="translate(11.014 333.67) scale(.1 -.1)">
<defs>
<path id="bc" d="m22.797 8.2969h32.234v56.297h-23.688v-10.344q0-24.359-5.4688-40.531-1.125-3.3125-3.0781-5.4219zm-14.391 0q6.5312 3.0781 8.3906 8.9375 4.7344 15.047 4.7344 41.891v13.781h43.359v-64.609h8.2969v-23.969h-8.2969v15.672h-51.656v-15.672h-8.2969v23.969z"/>
<path id="m" d="m30.609 48.391q-7.2188 0-11.422-5.6406t-4.2031-15.453 4.1719-15.453q4.1875-5.6406 11.453-5.6406 7.1875 0 11.375 5.6562 4.2031 5.6719 4.2031 15.438 0 9.7188-4.2031 15.406-4.1875 5.6875-11.375 5.6875zm0 7.6094q11.719 0 18.406-7.625 6.7031-7.6094 6.7031-21.078 0-13.422-6.7031-21.078-6.6875-7.6406-18.406-7.6406-11.766 0-18.438 7.6406-6.6562 7.6562-6.6562 21.078 0 13.469 6.6562 21.078 6.6719 7.625 18.438 7.625z"/>
<path id="o" d="m3.7188 0v7.4688q8.875 1.375 11.609 7.5156 3.3281 8.6562 3.3281 30.766v8.9375h36.953v-54.688h-8.9844v47.516h-18.984v-5.4219q0-21.094-4.2969-30.562-4.5938-10.109-19.625-11.531z"/>
<path id="bb" d="m9.0781 0v54.688h38.578v-7.1719h-29.547v-47.516z"/>
<path id="p" d="m56.203 29.594v-4.3906h-41.312q0.59375-9.2812 5.5938-14.141t13.938-4.8594q5.1719 0 10.031 1.2656t9.6562 3.8125v-8.5q-4.8438-2.0469-9.9219-3.125t-10.297-1.0781q-13.094 0-20.734 7.6094-7.6406 7.625-7.6406 20.625 0 13.422 7.25 21.297 7.25 7.8906 19.562 7.8906 11.031 0 17.453-7.1094 6.4219-7.0938 6.4219-19.297zm-8.9844 2.6406q-0.09375 7.3594-4.125 11.75-4.0312 4.4062-10.672 4.4062-7.5156 0-12.031-4.25t-5.2031-11.969z"/>
</defs>
<use xlink:href="#bc"/>
<use x="78.125" xlink:href="#m"/>
<use x="139.306641" xlink:href="#o"/>
<use x="203.222656" xlink:href="#bb"/>
<use x="255.761719" xlink:href="#m"/>
<use x="316.943359" xlink:href="#p"/>
</g>
</g>
<g clip-path="url(#a)">
<g transform="translate(31.573 333.67) scale(.1 -.1)">
<defs>
<path id="w" d="m18.062 25.203v-18.031h12.797q6.1562 0 9.375 2.3125 3.2188 2.3281 3.2188 6.7344 0 4.3906-3.2188 6.6875t-9.375 2.2969zm0 22.312v-15.141h11.828q5.0781 0 8.2969 2.0156 3.2188 2.0312 3.2188 5.6562 0 3.6094-3.2188 5.5312-3.2188 1.9375-8.2969 1.9375zm-8.9844 7.1719h21.391q9.625 0 14.797-3.5156t5.1719-10.016q0-5.0156-2.6406-7.9844-2.625-2.9531-7.8125-3.6719 6.2031-1.1719 9.625-4.8906 3.4219-3.7031 3.4219-9.2812 0-7.3125-5.6406-11.328-5.6406-4-16.094-4h-22.219z"/>
<path id="ah" d="m18.109 8.2031v-29h-9.0312v75.484h9.0312v-8.2969q2.8438 4.875 7.1562 7.2344 4.3281 2.375 10.328 2.375 9.9688 0 16.188-7.9062 6.2344-7.9062 6.2344-20.797t-6.2344-20.812q-6.2188-7.9062-16.188-7.9062-6 0-10.328 2.375-4.3125 2.375-7.1562 7.25zm30.578 19.094q0 9.9062-4.0781 15.547t-11.203 5.6406q-7.1406 0-11.219-5.6406t-4.0781-15.547 4.0781-15.547 11.219-5.6406q7.125 0 11.203 5.6406t4.0781 15.547z"/>
<path id="aj" d="m9.0781 54.688h13.141l15.531-36.625 15.578 36.625h13.031v-54.688h-9.0312v46.094l-15.094-35.594h-8.9844l-15.141 35.594v-46.094h-9.0312z"/>
<path id="u" d="m18.453 38.922q0-4.0625 3.125-6.3594 3.125-2.2812 8.9375-2.2812h12.109v17.234h-12.109q-5.8125 0-8.9375-2.25t-3.125-6.3438zm-12.781-38.922 16.688 23.969q-5.6562 1.2812-9.4219 4.625-3.75 3.3438-3.75 10.328 0 7.9062 5.2344 11.828 5.25 3.9375 15.859 3.9375h21.375v-54.688h-9.0312v23.094h-11.172l-16.125-23.094z"/>
</defs>
<use xlink:href="#w"/>
<use x="58.935547" xlink:href="#ah"/>
<use x="122.412109" xlink:href="#p"/>
<use x="183.935547" xlink:href="#aj"/>
<use x="259.375" xlink:href="#u"/>
</g>
</g>
<g clip-path="url(#a)">
<g transform="translate(68.073 333.67) scale(.1 -.1)">
<defs>
<path id="ax" d="m32.172-5.0781q-3.7969-9.7656-7.4219-12.734-3.6094-2.9844-9.6562-2.9844h-7.1875v7.5156h5.2812q3.7031 0 5.75 1.7656 2.0625 1.75 4.5469 8.2969l1.6094 4.0938-22.109 53.812h9.5156l17.094-42.766 17.094 42.766h9.5156z"/>
</defs>
<use xlink:href="#ax"/>
</g>
</g>
<g clip-path="url(#a)">
<g transform="translate(88.305 333.67) scale(.1 -.1)">
<defs>
<path id="v" d="m2.9375 54.688h52.391v-7.1719h-21.781v-47.516h-8.8438v47.516h-21.766z"/>
<path id="x" d="m31.109 56q11.719 0 18.406-7.625 6.6875-7.6094 6.6875-21.078 0-13.422-6.6875-21.078-6.6875-7.6406-18.406-7.6406-11.766 0-18.266 7.4219t-6.8438 21.297l-0.28125 11.188q-0.25 5.7969-0.25 7.8125 0 7.8125 2.8281 13.562 4.4531 9.0312 12.141 12.938t20.578 4.0156q5.9531 0.046875 8.5938 0.875l2.4844-7.125q-2.3906-0.98438-4.5781-1.0312l-12.219-0.82812q-6.1406-0.4375-9.8594-2.5938-9.7188-5.7031-10.641-13.172l-0.34375-2.7344q6.3438 5.7969 16.656 5.7969zm0-7.6094q-7.2344 0-11.438-5.6406-4.1875-5.6406-4.1875-15.453t4.1719-15.453 11.453-5.6406q7.1719 0 11.375 5.6562 4.2031 5.6719 4.2031 15.438 0 9.7188-4.2031 15.406t-11.375 5.6875z"/>
</defs>
<use xlink:href="#v"/>
<use x="58.251953" xlink:href="#p"/>
<use x="119.775391" xlink:href="#x"/>
<use x="181.445312" xlink:href="#u"/>
</g>
</g>
<g clip-path="url(#a)">
<g transform="translate(122.32 333.67) scale(.1 -.1)">
<defs>
<path id="ag" d="m61.047 54.688h8.9844v-54.688h-8.9844zm4.5 1.3125m-22.094-39.781q0 4.3906-3.2031 6.6875-3.1875 2.2969-9.3438 2.2969h-12.797v-18.031h12.797q6.1562 0 9.3438 2.3125 3.2031 2.3281 3.2031 6.7344zm-34.375 38.469h9.0312v-22.312h13.188q10.453 0 16.094-3.9844 5.6406-3.9688 5.6406-12.172t-5.6406-12.219q-5.6406-4-16.094-4h-22.219z"/>
</defs>
<use xlink:href="#x"/>
<use x="61.669922" xlink:href="#ag"/>
<use x="140.625" xlink:href="#o"/>
<use x="204.541016" xlink:href="#m"/>
</g>
</g>
<g clip-path="url(#a)">
<g transform="translate(162.73 333.67) scale(.1 -.1)">
<defs>
<path id="ak" d="m55.906 54.688v-54.688h-8.9375v43.891l-26.359-43.891h-11.531v54.688h8.9375v-43.797l26.328 43.797z"/>
<path id="av" d="m50.25 7.1719h23.141v47.516h9.0312v-54.688h-73.344v54.688h9.0312v-47.516h23.109v47.516h9.0312z"/>
<path id="au" d="m43.453 16.219q0 4.3906-3.2031 6.6875-3.1875 2.2969-9.3438 2.2969h-12.797v-18.031h12.797q6.1562 0 9.3438 2.3125 3.2031 2.3281 3.2031 6.7344zm-34.375 38.469h9.0312v-22.312h13.188q10.453 0 16.094-3.9844 5.6406-3.9688 5.6406-12.172t-5.6406-12.219q-5.6406-4-16.094-4h-22.219z"/>
</defs>
<use xlink:href="#o"/>
<use x="63.916016" xlink:href="#ak"/>
<use x="128.90625" xlink:href="#av"/>
<use x="220.410156" xlink:href="#au"/>
</g>
</g>
<g clip-path="url(#a)">
<g transform="translate(210.82 333.67) scale(.1 -.1)">
<defs>
<path id="ba" d="m21.625 7.1719h26.078v40.344h-18.891v-6.8438q0-20.109-5.7656-30.859zm-13.031 0q4.4375 1.9531 6.3906 6.1094 4.7969 10.297 4.7969 31.062v10.344h36.953v-47.516h7.1875v-20.984h-7.1875v13.812h-44.328v-13.812h-7.1875v20.984z"/>
<path id="ai" d="m9.0781 54.688h9.0312v-22.312h29.156v22.312h9.0312v-54.688h-9.0312v25.203h-29.156v-25.203h-9.0312z"/>
</defs>
<use xlink:href="#m"/>
<use x="61.181641" xlink:href="#ba"/>
<use x="130.322266" xlink:href="#ai"/>
<use x="195.703125" xlink:href="#m"/>
</g>
</g>
<g clip-path="url(#a)">
<g transform="translate(242.76 333.67) scale(.1 -.1)">
<defs>
<path id="r" d="m34.281 27.484q-10.891 0-15.094-2.4844t-4.2031-8.5q0-4.7812 3.1562-7.5938 3.1562-2.7969 8.5625-2.7969 7.4844 0 12 5.2969t4.5156 14.078v2zm17.922 3.7188v-31.203h-8.9844v8.2969q-3.0781-4.9688-7.6719-7.3438t-11.234-2.375q-8.3906 0-13.359 4.7188-4.9531 4.7188-4.9531 12.625 0 9.2188 6.1719 13.906 6.1875 4.6875 18.438 4.6875h12.609v0.89062q0 6.2031-4.0781 9.5938t-11.453 3.3906q-4.6875 0-9.1406-1.125-4.4375-1.125-8.5312-3.375v8.3125q4.9219 1.9062 9.5625 2.8438 4.6406 0.95312 9.0312 0.95312 11.875 0 17.734-6.1562 5.8594-6.1406 5.8594-18.641z"/>
<path id="al" d="m34.469 29.5q6.0625-1.1719 9.4219-4.75 3.375-3.5625 3.375-8.8281 0-8.4531-6.2969-12.906-6.2969-4.4375-17.922-4.4375-3.9062 0-8.0312 0.6875t-8.5156 2.0469v8.3594q3.4688-1.8125 7.6094-2.7188 4.1562-0.89062 8.6875-0.89062 7.375 0 11.5 2.7344t4.125 7.125q0 4.2969-3.6562 6.9062t-10.344 2.6094h-7.2344v7.4219h7.5625q5.6719 0 8.9688 2.1719t3.2969 5.5938q0 3.125-3.4062 5.375-3.3906 2.25-9.1875 2.25-3.4688 0-7.4062-0.64062-3.9219-0.64062-8.6719-2.0469v8.1562q4.7969 1.1719 8.9375 1.75 4.1562 0.59375 7.8594 0.59375 9.5781 0 15.109-3.8438 5.5469-3.8281 5.5469-10.719 0-4.5312-2.9375-7.6875-2.9219-3.1406-8.3906-4.3125z"/>
<path id="aw" d="m41.016 0v23h-16.75q-7.4688 0-12.453 4.6406-4.4844 4.2031-4.4844 13.188v13.859h8.9844v-13.031q0-5.7188 2.5312-8.5938 2.5938-2.8906 7.6719-2.8906h14.5v24.516h8.9844v-54.688z"/>
</defs>
<use xlink:href="#ah"/>
<use x="63.476562" xlink:href="#r"/>
<use x="124.755859" xlink:href="#al"/>
<use x="177.929688" xlink:href="#w"/>
<use x="236.865234" xlink:href="#o"/>
<use x="300.78125" xlink:href="#p"/>
<use x="362.304688" xlink:href="#aw"/>
<use x="421.386719" xlink:href="#p"/>
<use x="482.910156" xlink:href="#ai"/>
<use x="548.291016" xlink:href="#ak"/>
<use x="613.28125" xlink:href="#p"/>
</g>
</g>
<g clip-path="url(#a)">
<g transform="translate(333.4 333.67) scale(.1 -.1)">
<defs>
<path id="as" d="m4.8906 31.391h26.312v-8h-26.312z"/>
</defs>
<use xlink:href="#as"/>
</g>
</g>
<g clip-path="url(#a)">
<g transform="translate(392.92 333.67) scale(.1 -.1)">
<use xlink:href="#v"/>
<use x="58.251953" xlink:href="#ag"/>
</g>
</g>
<g clip-path="url(#a)">
<g transform="translate(441.71 333.67) scale(.1 -.1)">
<defs>
<path id="at" d="m53.609 48.391q-7.2188 0-11.422-5.6406t-4.2031-15.453 4.1719-15.453q4.1875-5.6406 11.453-5.6406 7.1875 0 11.375 5.6562 4.2031 5.6719 4.2031 15.438 0 9.7188-4.2031 15.406-4.1875 5.6875-11.375 5.6875zm-24.797-15.531q0.92188 9.2812 7 16.203 6.0781 6.9375 17.797 6.9375t18.406-7.625q6.7031-7.6094 6.7031-21.078 0-13.422-6.7031-21.078-6.6875-7.6406-18.406-7.6406-11.766 0-18.188 7.375t-6.8594 19.484h-10.156v-25.438h-8.9844v54.688h8.9844v-21.828z"/>
<path id="ay" d="m48.781 52.594v-8.4062q-3.8125 2.1094-7.6406 3.1562t-7.7344 1.0469q-8.75 0-13.594-5.5469-4.8281-5.5312-4.8281-15.547t4.8281-15.562q4.8438-5.5312 13.594-5.5312 3.9062 0 7.7344 1.0469t7.6406 3.1562v-8.3125q-3.7656-1.75-7.7969-2.625-4.0156-0.89062-8.5625-0.89062-12.359 0-19.641 7.7656-7.2656 7.7656-7.2656 20.953 0 13.375 7.3438 21.031 7.3594 7.6719 20.156 7.6719 4.1406 0 8.0938-0.85938 3.9531-0.84375 7.6719-2.5469z"/>
</defs>
<use xlink:href="#o"/>
<use x="63.916016" xlink:href="#at"/>
<use x="148.095703" xlink:href="#x"/>
<use x="209.765625" xlink:href="#m"/>
<use x="270.947266" xlink:href="#w"/>
<use x="329.882812" xlink:href="#r"/>
<use x="391.162109" xlink:href="#o"/>
<use x="455.078125" xlink:href="#ay"/>
<use x="510.058594" xlink:href="#u"/>
</g>
</g>
<g clip-path="url(#a)">
<g transform="translate(524.99 333.67) scale(.1 -.1)">
<defs>
<path id="az" d="m9.0781 54.688h8.9375v-25.688l25.344 25.688h11.031l-20.891-21.141 23.578-33.547h-10.062l-19.375 27.594-9.625-9.7656v-17.828h-8.9375z"/>
</defs>
<use xlink:href="#al"/>
<use x="53.173828" xlink:href="#r"/>
<use x="114.453125" xlink:href="#az"/>
<use x="174.853516" xlink:href="#r"/>
<use x="236.132812" xlink:href="#v"/>
<use x="294.384766" xlink:href="#m"/>
<use x="355.566406" xlink:href="#aj"/>
</g>
</g>
<g clip-path="url(#a)">
<g transform="translate(627.14 333.67) scale(.1 -.1)">
<defs>
<path id="d" d="m10.688 12.406h10.312v-12.406h-10.312z"/>
</defs>
<use xlink:href="#d"/>
</g>
</g>
<g clip-path="url(#a)">
<g transform="translate(214.6 18.517) scale(.1 -.1)">
<defs>
<path id="c" d="m12.406 8.2969h16.109v55.625l-17.531-3.5156v8.9844l17.438 3.5156h9.8594v-64.609h16.109v-8.2969h-41.984z"/>
</defs>
<use xlink:href="#c"/>
<use x="63.623047" xlink:href="#d"/>
<use x="95.410156" xlink:href="#c"/>
</g>
</g>
<g clip-path="url(#a)">
<g transform="translate(214.6 82.109) scale(.1 -.1)">
<defs>
<path id="n" d="m19.188 8.2969h34.422v-8.2969h-46.281v8.2969q5.6094 5.8125 15.297 15.594 9.7031 9.7969 12.188 12.641 4.7344 5.3125 6.6094 9 1.8906 3.6875 1.8906 7.25 0 5.8125-4.0781 9.4688-4.0781 3.6719-10.625 3.6719-4.6406 0-9.7969-1.6094-5.1406-1.6094-11-4.8906v9.9688q5.9531 2.3906 11.125 3.6094 5.1875 1.2188 9.4844 1.2188 11.328 0 18.062-5.6719 6.7344-5.6562 6.7344-15.125 0-4.5-1.6875-8.5312-1.6719-4.0156-6.125-9.4844-1.2188-1.4219-7.7656-8.1875-6.5312-6.7656-18.453-18.922z"/>
</defs>
<use xlink:href="#c"/>
<use x="63.623047" xlink:href="#d"/>
<use x="95.410156" xlink:href="#n"/>
</g>
</g>
<g clip-path="url(#a)">
<g transform="translate(30.794 208.76) scale(.1 -.1)">
<defs>
<path id="af" d="m37.797 64.312-24.906-38.922h24.906zm-2.5938 8.5938h12.406v-47.516h10.406v-8.2031h-10.406v-17.188h-9.8125v17.188h-32.906v9.5156z"/>
</defs>
<use xlink:href="#c"/>
<use x="63.623047" xlink:href="#d"/>
<use x="95.410156" xlink:href="#af"/>
</g>
</g>
<g clip-path="url(#a)">
<g transform="translate(77.757 208.76) scale(.1 -.1)">
<defs>
<path id="ae" d="m10.797 72.906h38.719v-8.3125h-29.688v-17.859q2.1406 0.73438 4.2812 1.0938 2.1562 0.35938 4.3125 0.35938 12.203 0 19.328-6.6875 7.1406-6.6875 7.1406-18.109 0-11.766-7.3281-18.297-7.3281-6.5156-20.656-6.5156-4.5938 0-9.3594 0.78125-4.75 0.78125-9.8281 2.3438v9.9219q4.3906-2.3906 9.0781-3.5625t9.9062-1.1719q8.4531 0 13.375 4.4375 4.9375 4.4375 4.9375 12.062 0 7.6094-4.9375 12.047-4.9219 4.4531-13.375 4.4531-3.9531 0-7.8906-0.875-3.9219-0.875-8.0156-2.7344z"/>
</defs>
<use xlink:href="#c"/>
<use x="63.623047" xlink:href="#d"/>
<use x="95.410156" xlink:href="#ae"/>
</g>
</g>
<g clip-path="url(#a)">
<g transform="translate(127.66 271.64) scale(.1 -.1)">
<defs>
<path id="ad" d="m33.016 40.375q-6.6406 0-10.531-4.5469-3.875-4.5312-3.875-12.438 0-7.8594 3.875-12.438 3.8906-4.5625 10.531-4.5625t10.516 4.5625q3.875 4.5781 3.875 12.438 0 7.9062-3.875 12.438-3.875 4.5469-10.516 4.5469zm19.578 30.922v-8.9844q-3.7188 1.75-7.5 2.6719-3.7812 0.9375-7.5 0.9375-9.7656 0-14.922-6.5938-5.1406-6.5938-5.875-19.922 2.875 4.25 7.2188 6.5156 4.3594 2.2656 9.5781 2.2656 10.984 0 17.359-6.6719 6.375-6.6562 6.375-18.125 0-11.234-6.6406-18.031-6.6406-6.7812-17.672-6.7812-12.656 0-19.344 9.6875-6.6875 9.7031-6.6875 28.109 0 17.281 8.2031 27.562t22.016 10.281q3.7188 0 7.5-0.73438t7.8906-2.1875z"/>
</defs>
<use xlink:href="#c"/>
<use x="63.623047" xlink:href="#d"/>
<use x="95.410156" xlink:href="#ad"/>
</g>
</g>
<g clip-path="url(#a)">
<g transform="translate(192.23 208.76) scale(.1 -.1)">
<defs>
<path id="ac" d="m8.2031 72.906h46.875v-4.2031l-26.469-68.703h-10.297l24.906 64.594h-35.016z"/>
</defs>
<use xlink:href="#c"/>
<use x="63.623047" xlink:href="#d"/>
<use x="95.410156" xlink:href="#ac"/>
</g>
</g>
<g clip-path="url(#a)">
<g transform="translate(268.55 271.64) scale(.1 -.1)">
<defs>
<path id="ab" d="m31.781 34.625q-7.0312 0-11.062-3.7656-4.0156-3.7656-4.0156-10.344 0-6.5938 4.0156-10.359 4.0312-3.7656 11.062-3.7656t11.078 3.7812q4.0625 3.7969 4.0625 10.344 0 6.5781-4.0312 10.344-4.0156 3.7656-11.109 3.7656zm-9.8594 4.1875q-6.3438 1.5625-9.8906 5.9062-3.5312 4.3594-3.5312 10.609 0 8.7344 6.2188 13.812 6.2344 5.0781 17.062 5.0781 10.891 0 17.094-5.0781t6.2031-13.812q0-6.25-3.5469-10.609-3.5312-4.3438-9.8281-5.9062 7.125-1.6562 11.094-6.5 3.9844-4.8281 3.9844-11.797 0-10.609-6.4688-16.281-6.4688-5.6562-18.531-5.6562-12.047 0-18.531 5.6562-6.4688 5.6719-6.4688 16.281 0 6.9688 4 11.797 4.0156 4.8438 11.141 6.5zm-3.6094 15.578q0-5.6562 3.5312-8.8281 3.5469-3.1719 9.9375-3.1719 6.3594 0 9.9375 3.1719 3.5938 3.1719 3.5938 8.8281 0 5.6719-3.5938 8.8438-3.5781 3.1719-9.9375 3.1719-6.3906 0-9.9375-3.1719-3.5312-3.1719-3.5312-8.8438z"/>
</defs>
<use xlink:href="#c"/>
<use x="63.623047" xlink:href="#d"/>
<use x="95.410156" xlink:href="#ab"/>
</g>
</g>
<g clip-path="url(#a)">
<g transform="translate(477.93 145.54) scale(.1 -.1)">
<defs>
<path id="aa" d="m10.984 1.5156v8.9844q3.7188-1.7656 7.5156-2.6875 3.8125-0.92188 7.4844-0.92188 9.7656 0 14.906 6.5625 5.1562 6.5625 5.8906 19.953-2.8281-4.2031-7.1875-6.4531-4.3438-2.25-9.6094-2.25-10.938 0-17.312 6.6094-6.375 6.625-6.375 18.109 0 11.219 6.6406 18 6.6406 6.7969 17.672 6.7969 12.656 0 19.312-9.7031 6.6719-9.6875 6.6719-28.141 0-17.234-8.1875-27.516-8.1719-10.281-21.984-10.281-3.7188 0-7.5312 0.73438-3.7969 0.73438-7.9062 2.2031zm19.625 30.906q6.6406 0 10.516 4.5312 3.8906 4.5469 3.8906 12.469 0 7.8594-3.8906 12.422-3.875 4.5625-10.516 4.5625t-10.516-4.5625-3.875-12.422q0-7.9219 3.875-12.469 3.875-4.5312 10.516-4.5312z"/>
</defs>
<use xlink:href="#c"/>
<use x="63.623047" xlink:href="#d"/>
<use x="95.410156" xlink:href="#aa"/>
</g>
</g>
<g clip-path="url(#a)">
<g transform="translate(388.65 271.64) scale(.1 -.1)">
<use xlink:href="#c"/>
<use x="63.623047" xlink:href="#d"/>
<use x="95.410156" xlink:href="#c"/>
<use x="159.033203" xlink:href="#c"/>
</g>
</g>
<g clip-path="url(#a)">
<g transform="translate(459.09 271.64) scale(.1 -.1)">
<use xlink:href="#c"/>
<use x="63.623047" xlink:href="#d"/>
<use x="95.410156" xlink:href="#c"/>
<use x="159.033203" xlink:href="#n"/>
</g>
</g>
<g clip-path="url(#a)">
<g transform="translate(576.5 208.76) scale(.1 -.1)">
<defs>
<path id="aq" d="m40.578 39.312q7.0781-1.5156 11.047-6.3125 3.9844-4.7812 3.9844-11.812 0-10.781-7.4219-16.703-7.4219-5.9062-21.094-5.9062-4.5781 0-9.4375 0.90625t-10.031 2.7188v9.5156q4.0938-2.3906 8.9688-3.6094 4.8906-1.2188 10.219-1.2188 9.2656 0 14.125 3.6562t4.8594 10.641q0 6.4531-4.5156 10.078-4.5156 3.6406-12.562 3.6406h-8.5v8.1094h8.8906q7.2656 0 11.125 2.9062t3.8594 8.375q0 5.6094-3.9844 8.6094-3.9688 3.0156-11.391 3.0156-4.0625 0-8.7031-0.89062-4.6406-0.875-10.203-2.7188v8.7812q5.625 1.5625 10.531 2.3438t9.25 0.78125q11.234 0 17.766-5.1094 6.5469-5.0938 6.5469-13.781 0-6.0625-3.4688-10.234t-9.8594-5.7812z"/>
</defs>
<use xlink:href="#c"/>
<use x="63.623047" xlink:href="#d"/>
<use x="95.410156" xlink:href="#c"/>
<use x="159.033203" xlink:href="#aq"/>
</g>
</g>
<g clip-path="url(#a)">
<g transform="translate(535.41 271.64) scale(.1 -.1)">
<use xlink:href="#c"/>
<use x="63.623047" xlink:href="#d"/>
<use x="95.410156" xlink:href="#c"/>
<use x="159.033203" xlink:href="#af"/>
</g>
</g>
<g clip-path="url(#a)">
<g transform="translate(165.57 271.64) scale(.1 -.1)">
<use xlink:href="#c"/>
<use x="63.623047" xlink:href="#d"/>
<use x="95.410156" xlink:href="#c"/>
<use x="159.033203" xlink:href="#ae"/>
</g>
</g>
<g clip-path="url(#a)">
<g transform="translate(212.53 271.64) scale(.1 -.1)">
<use xlink:href="#c"/>
<use x="63.623047" xlink:href="#d"/>
<use x="95.410156" xlink:href="#c"/>
<use x="159.033203" xlink:href="#ad"/>
</g>
</g>
<g clip-path="url(#a)">
<g transform="translate(59.9 271.64) scale(.1 -.1)">
<use xlink:href="#c"/>
<use x="63.623047" xlink:href="#d"/>
<use x="95.410156" xlink:href="#c"/>
<use x="159.033203" xlink:href="#ac"/>
</g>
</g>
<g clip-path="url(#a)">
<g transform="translate(89.252 271.64) scale(.1 -.1)">
<use xlink:href="#c"/>
<use x="63.623047" xlink:href="#d"/>
<use x="95.410156" xlink:href="#c"/>
<use x="159.033203" xlink:href="#ab"/>
</g>
</g>
<g clip-path="url(#a)">
<g transform="translate(18.807 271.64) scale(.1 -.1)">
<use xlink:href="#c"/>
<use x="63.623047" xlink:href="#d"/>
<use x="95.410156" xlink:href="#c"/>
<use x="159.033203" xlink:href="#aa"/>
</g>
</g>
<g clip-path="url(#a)">
<g transform="translate(36.418 271.64) scale(.1 -.1)">
<defs>
<path id="ar" d="m31.781 66.406q-7.6094 0-11.453-7.5-3.8281-7.4844-3.8281-22.531 0-14.984 3.8281-22.484 3.8438-7.5 11.453-7.5 7.6719 0 11.5 7.5 3.8438 7.5 3.8438 22.484 0 15.047-3.8438 22.531-3.8281 7.5-11.5 7.5zm0 7.8125q12.266 0 18.734-9.7031 6.4688-9.6875 6.4688-28.141 0-18.406-6.4688-28.109-6.4688-9.6875-18.734-9.6875-12.25 0-18.719 9.6875-6.4688 9.7031-6.4688 28.109 0 18.453 6.4688 28.141 6.4688 9.7031 18.719 9.7031z"/>
</defs>
<use xlink:href="#c"/>
<use x="63.623047" xlink:href="#d"/>
<use x="95.410156" xlink:href="#n"/>
<use x="159.033203" xlink:href="#ar"/>
</g>
</g>
<g clip-path="url(#a)">
<g transform="translate(324.07 271.64) scale(.1 -.1)">
<use xlink:href="#c"/>
<use x="63.623047" xlink:href="#d"/>
<use x="95.410156" xlink:href="#n"/>
<use x="159.033203" xlink:href="#c"/>
</g>
</g>
<g clip-path="url(#a)">
<g transform="translate(617.59 271.64) scale(.1 -.1)">
<use xlink:href="#c"/>
<use x="63.623047" xlink:href="#d"/>
<use x="95.410156" xlink:href="#n"/>
<use x="159.033203" xlink:href="#n"/>
</g>
</g>
<defs>
<clipPath id="a">
<rect width="658.67" height="346.67"/>
</clipPath>
</defs>
</svg>
