<?xml version="1.0" encoding="UTF-8"?>
<!DOCTYPE svg  PUBLIC '-//W3C//DTD SVG 1.1//EN'  'http://www.w3.org/Graphics/SVG/1.1/DTD/svg11.dtd'>
<svg width="1368pt" height="720pt" version="1.1" viewBox="0 0 1368 720" xmlns="http://www.w3.org/2000/svg" xmlns:xlink="http://www.w3.org/1999/xlink">
<metadata>
<rdf:RDF xmlns:cc="http://creativecommons.org/ns#" xmlns:dc="http://purl.org/dc/elements/1.1/" xmlns:rdf="http://www.w3.org/1999/02/22-rdf-syntax-ns#">
<cc:Work>
<dc:type rdf:resource="http://purl.org/dc/dcmitype/StillImage"/>
<dc:date>2021-01-13T08:46:31.699727</dc:date>
<dc:format>image/svg+xml</dc:format>
<dc:creator>
<cc:Agent>
<dc:title>Matplotlib v3.3.3, https://matplotlib.org/</dc:title>
</cc:Agent>
</dc:creator>
</cc:Work>
</rdf:RDF>
</metadata>
<defs>
<style type="text/css">*{stroke-linecap:butt;stroke-linejoin:round;}</style>
</defs>
<path d="m0 720h1368v-720h-1368z" fill="#fff"/>
<g fill="none" stroke="#000">
<path d="m301.88 32.727-239.7 547.39" clip-path="url(#a)"/>
<path d="m301.88 32.727-176.4 329.53" clip-path="url(#a)"/>
<path d="m301.88 32.727 30.875 438.75" clip-path="url(#a)"/>
<path d="m301.88 32.727 133.32 110.08" clip-path="url(#a)"/>
<path d="m301.88 32.727-46.725 547.39" clip-path="url(#a)"/>
<path d="m301.88 32.727 124.81 547.39" clip-path="url(#a)"/>
<path d="m301.88 32.727 173.82 547.39" clip-path="url(#a)"/>
<path d="m62.182 580.12v107.15" clip-path="url(#a)"/>
<path d="m125.49 362.26-54.116 217.86" clip-path="url(#a)"/>
<path d="m125.49 362.26-25.526 109.21" clip-path="url(#a)"/>
<path d="m125.49 362.26 13.274 217.86" clip-path="url(#a)"/>
<path d="m125.49 362.26 66.368 109.21" clip-path="url(#a)"/>
<path d="m332.76 471.47 47.989 108.64" clip-path="url(#a)"/>
<path d="m332.76 471.47 47.989 108.64" clip-path="url(#a)"/>
<path d="m332.76 471.47-40.842 108.64" clip-path="url(#a)"/>
<path d="m332.76 471.47-1.021 108.64" clip-path="url(#a)"/>
<path d="m332.76 471.47 41.863 108.64" clip-path="url(#a)"/>
<path d="m435.2 142.81 870.61 109.86" clip-path="url(#a)"/>
<path d="m435.2 142.81 363.83 109.86" clip-path="url(#a)"/>
<path d="m435.2 142.81-363.83 437.31" clip-path="url(#a)" stroke-dasharray="3.7,1.6"/>
<path d="m799.04 252.67v109.59" clip-path="url(#a)"/>
<path d="m799.04 362.26-271.26 217.86" clip-path="url(#a)"/>
<path d="m799.04 362.26-216.12 217.86" clip-path="url(#a)"/>
<path d="m799.04 362.26-95.638 109.21" clip-path="url(#a)"/>
<path d="m799.04 362.26 35.056 217.86" clip-path="url(#a)"/>
<path d="m799.04 362.26 142.27 109.21" clip-path="url(#a)"/>
<path d="m799.04 362.26 405.7 109.21" clip-path="url(#a)"/>
<path d="m527.78 580.12v107.15" clip-path="url(#a)"/>
<path d="m582.92 580.12v107.15" clip-path="url(#a)"/>
<path d="m703.4 471.47-62.284 108.64" clip-path="url(#a)"/>
<path d="m703.4 471.47-1.021 108.64" clip-path="url(#a)"/>
<path d="m703.4 471.47 63.305 108.64" clip-path="url(#a)"/>
<path d="m834.09 580.12v107.15" clip-path="url(#a)"/>
<path d="m941.3 471.47-36.758 108.64" clip-path="url(#a)"/>
<path d="m941.3 471.47 36.758 108.64" clip-path="url(#a)"/>
<path d="m1204.7 471.47-110.27 108.64" clip-path="url(#a)"/>
<path d="m1204.7 471.47 12.253 108.64" clip-path="url(#a)"/>
<path d="m1204.7 471.47 98.021 108.64" clip-path="url(#a)"/>
<path d="m1094.5 580.12-39.821 107.15" clip-path="url(#a)"/>
<path d="m1094.5 580.12 39.821 107.15" clip-path="url(#a)"/>
<path d="m1217 580.12v107.15" clip-path="url(#a)"/>
<path d="m904.55 580.12v107.15" clip-path="url(#a)"/>
<path d="m978.06 580.12v107.15" clip-path="url(#a)"/>
<path d="m641.12 580.12v107.15" clip-path="url(#a)"/>
<path d="m702.38 580.12v107.15" clip-path="url(#a)"/>
<path d="m766.7 580.12v107.15" clip-path="url(#a)"/>
<path d="m291.92 580.12v107.15" clip-path="url(#a)"/>
<path d="m331.74 580.12v107.15" clip-path="url(#a)"/>
<path d="m374.62 580.12v107.15" clip-path="url(#a)"/>
<path d="m71.371 580.12v107.15" clip-path="url(#a)"/>
<path d="m99.961 471.47-16.337 108.64" clip-path="url(#a)"/>
<path d="m99.961 471.47-1.021 108.64" clip-path="url(#a)"/>
<path d="m99.961 471.47 17.358 108.64" clip-path="url(#a)"/>
<path d="m138.76 580.12v107.15" clip-path="url(#a)"/>
<path d="m191.85 471.47-28.589 108.64" clip-path="url(#a)"/>
<path d="m191.85 471.47-1.021 108.64" clip-path="url(#a)"/>
<path d="m191.85 471.47 29.61 108.64" clip-path="url(#a)"/>
<path d="m163.27 580.12v107.15" clip-path="url(#a)"/>
<path d="m190.83 580.12v107.15" clip-path="url(#a)"/>
<path d="m221.47 580.12v107.15" clip-path="url(#a)"/>
<path d="m83.624 580.12v107.15" clip-path="url(#a)"/>
<path d="m98.94 580.12v107.15" clip-path="url(#a)"/>
<path d="m117.32 580.12v107.15" clip-path="url(#a)"/>
<path d="m255.16 580.12v107.15" clip-path="url(#a)"/>
<path d="m426.7 580.12v107.15" clip-path="url(#a)"/>
<path d="m475.71 580.12v107.15" clip-path="url(#a)"/>
<path d="m1302.8 580.12v107.15" clip-path="url(#a)"/>
</g>
<path d="m186.88 310.98 1.788-4.0832q0.9627-2.1985-1.2358-3.1612l-7.0923-3.1057q-2.1985-0.9627-3.1612 1.2358l-1.788 4.0832q-0.9627 2.1985 1.2358 3.1612l7.0923 3.1057q2.1985 0.9627 3.1612-1.2358z" clip-path="url(#a)" fill="#fff" stroke="#fff"/>
<g clip-path="url(#a)">
<g transform="translate(183.16 309.35) rotate(-66.351) scale(.08 -.08)">
<defs>
<path id="af" d="m9.8125 72.906h9.8594v-64.609h35.5v-8.2969h-45.359z"/>
</defs>
<use xlink:href="#af"/>
</g>
</g>
<path d="m217.8 203.11 2.8393-5.3041q1.1326-2.1159-0.98327-3.2486l-6.826-3.654q-2.1159-1.1326-3.2486 0.98328l-2.8393 5.3041q-1.1326 2.1159 0.98328 3.2486l6.826 3.654q2.1159 1.1326 3.2486-0.98327z" clip-path="url(#a)" fill="#fff" stroke="#fff"/>
<g clip-path="url(#a)">
<g transform="translate(214.21 201.19) rotate(-61.84) scale(.08 -.08)">
<defs>
<path id="ag" d="m9.8125 72.906h9.8594v-29.891h35.844v29.891h9.8594v-72.906h-9.8594v34.719h-35.844v-34.719h-9.8594z"/>
</defs>
<use xlink:href="#ag"/>
</g>
</g>
<path d="m310.86 249.54 0.42232 6.0014q0.16847 2.3941 2.5626 2.2256l7.7234-0.54349q2.3941-0.16847 2.2256-2.5626l-0.42232-6.0014q-0.16847-2.3941-2.5626-2.2256l-7.7234 0.54349q-2.3941 0.16847-2.2256 2.5626z" clip-path="url(#a)" fill="#fff" stroke="#fff"/>
<g clip-path="url(#a)">
<g transform="translate(314.91 249.26) rotate(85.975) scale(.08 -.08)">
<use xlink:href="#ag"/>
</g>
</g>
<path d="m362.23 90.69 4.6391 3.8306q1.8506 1.5281 3.3788-0.32253l4.9297-5.9703q1.5281-1.8506-0.32253-3.3788l-4.6391-3.8306q-1.8506-1.5281-3.3788 0.32253l-4.9297 5.9703q-1.5281 1.8506 0.32253 3.3788z" clip-path="url(#a)" fill="#fff" stroke="#fff"/>
<g clip-path="url(#a)">
<g transform="translate(364.82 87.556) rotate(39.547) scale(.08 -.08)">
<use xlink:href="#ag"/>
</g>
</g>
<path d="m284.52 309.87 0.49797-5.8338q0.20412-2.3913-2.1872-2.5954l-7.7144-0.6585q-2.3913-0.20412-2.5954 2.1872l-0.49797 5.8338q-0.20412 2.3913 2.1872 2.5954l7.7144 0.6585q2.3913 0.20412 2.5954-2.1872z" clip-path="url(#a)" fill="#fff" stroke="#fff"/>
<g clip-path="url(#a)">
<g transform="translate(280.47 309.53) rotate(-85.121) scale(.08 -.08)">
<defs>
<path id="ae" d="m8.6875 72.906h9.9219v-44.297q0-11.719 4.2344-16.875 4.25-5.1406 13.781-5.1406 9.4688 0 13.719 5.1406 4.25 5.1562 4.25 16.875v44.297h9.9062v-45.516q0-14.25-7.0625-21.531-7.0469-7.2812-20.812-7.2812-13.828 0-20.891 7.2812-7.0469 7.2812-7.0469 21.531z"/>
</defs>
<use xlink:href="#ae"/>
</g>
</g>
<path d="m357.53 304.96 1.3016 5.7085q0.53353 2.3399 2.8735 1.8064l7.5488-1.7212q2.3399-0.53353 1.8064-2.8735l-1.3016-5.7085q-0.53353-2.3399-2.8735-1.8064l-7.5488 1.7212q-2.3399 0.53353-1.8064 2.8735z" clip-path="url(#a)" fill="#fff" stroke="#fff"/>
<g clip-path="url(#a)">
<g transform="translate(361.49 304.06) rotate(77.156) scale(.08 -.08)">
<use xlink:href="#ae"/>
</g>
</g>
<path d="m381.93 305.53 1.772 5.5804q0.72636 2.2874 3.0138 1.5611l7.3794-2.3433q2.2874-0.72636 1.5611-3.0138l-1.772-5.5804q-0.72636-2.2874-3.0138-1.5611l-7.3794 2.3433q-2.2874 0.72636-1.5611 3.0138z" clip-path="url(#a)" fill="#fff" stroke="#fff"/>
<g clip-path="url(#a)">
<g transform="translate(385.81 304.3) rotate(72.383) scale(.08 -.08)">
<use xlink:href="#ae"/>
</g>
</g>
<path d="m55.911 616.79v33.808q0 2.4 2.4 2.4h7.7425q2.4 0 2.4-2.4v-33.808q0-2.4-2.4-2.4h-7.7425q-2.4 0-2.4 2.4z" clip-path="url(#a)" fill="#fff" stroke="#fff"/>
<g clip-path="url(#a)">
<g transform="translate(59.974 616.79) rotate(90) scale(.08 -.08)">
<defs>
<path id="e" d="m-0.29688 72.906h61.672v-8.3125h-25.875v-64.594h-9.9062v64.594h-25.891z"/>
<path id="l" d="m56.203 29.594v-4.3906h-41.312q0.59375-9.2812 5.5938-14.141t13.938-4.8594q5.1719 0 10.031 1.2656t9.6562 3.8125v-8.5q-4.8438-2.0469-9.9219-3.125t-10.297-1.0781q-13.094 0-20.734 7.6094-7.6406 7.625-7.6406 20.625 0 13.422 7.25 21.297 7.25 7.8906 19.562 7.8906 11.031 0 17.453-7.1094 6.4219-7.0938 6.4219-19.297zm-8.9844 2.6406q-0.09375 7.3594-4.125 11.75-4.0312 4.4062-10.672 4.4062-7.5156 0-12.031-4.25t-5.2031-11.969z"/>
<path id="g" d="m41.109 46.297q-1.5156 0.875-3.2969 1.2812-1.7812 0.42188-3.9219 0.42188-7.625 0-11.703-4.9531t-4.0781-14.234v-28.812h-9.0312v54.688h9.0312v-8.5q2.8438 4.9844 7.375 7.3906 4.5469 2.4219 11.047 2.4219 0.92188 0 2.0469-0.125 1.125-0.10938 2.4844-0.35938z"/>
<path id="i" d="m52 44.188q3.375 6.0625 8.0625 8.9375t11.031 2.875q8.5469 0 13.188-5.9844 4.6406-5.9688 4.6406-17v-33.016h-9.0312v32.719q0 7.8594-2.7969 11.656-2.7812 3.8125-8.4844 3.8125-6.9844 0-11.047-4.6406-4.0469-4.625-4.0469-12.641v-30.906h-9.0312v32.719q0 7.9062-2.7812 11.688t-8.5938 3.7812q-6.8906 0-10.953-4.6562-4.0469-4.6562-4.0469-12.625v-30.906h-9.0312v54.688h9.0312v-8.5q3.0781 5.0312 7.375 7.4219t10.203 2.3906q5.9688 0 10.141-3.0312 4.1719-3.0156 6.1719-8.7812z"/>
<path id="k" d="m9.4219 54.688h8.9844v-54.688h-8.9844zm0 21.297h8.9844v-11.391h-8.9844z"/>
<path id="h" d="m54.891 33.016v-33.016h-8.9844v32.719q0 7.7656-3.0312 11.609-3.0312 3.8594-9.0781 3.8594-7.2812 0-11.484-4.6406-4.2031-4.625-4.2031-12.641v-30.906h-9.0312v54.688h9.0312v-8.5q3.2344 4.9375 7.5938 7.375 4.375 2.4375 10.094 2.4375 9.4219 0 14.25-5.8281 4.8438-5.8281 4.8438-17.156z"/>
<path id="f" d="m34.281 27.484q-10.891 0-15.094-2.4844t-4.2031-8.5q0-4.7812 3.1562-7.5938 3.1562-2.7969 8.5625-2.7969 7.4844 0 12 5.2969t4.5156 14.078v2zm17.922 3.7188v-31.203h-8.9844v8.2969q-3.0781-4.9688-7.6719-7.3438t-11.234-2.375q-8.3906 0-13.359 4.7188-4.9531 4.7188-4.9531 12.625 0 9.2188 6.1719 13.906 6.1875 4.6875 18.438 4.6875h12.609v0.89062q0 6.2031-4.0781 9.5938t-11.453 3.3906q-4.6875 0-9.1406-1.125-4.4375-1.125-8.5312-3.375v8.3125q4.9219 1.9062 9.5625 2.8438 4.6406 0.95312 9.0312 0.95312 11.875 0 17.734-6.1562 5.8594-6.1406 5.8594-18.641z"/>
<path id="j" d="m9.4219 75.984h8.9844v-75.984h-8.9844z"/>
</defs>
<use xlink:href="#e"/>
<use x="44.083984" xlink:href="#l"/>
<use x="105.607422" xlink:href="#g"/>
<use x="144.970703" xlink:href="#i"/>
<use x="242.382812" xlink:href="#k"/>
<use x="270.166016" xlink:href="#h"/>
<use x="333.544922" xlink:href="#f"/>
<use x="394.824219" xlink:href="#j"/>
</g>
</g>
<path d="m103.86 475.36 1.3193-5.3111q0.57857-2.3292-1.7506-2.9078l-7.5142-1.8665q-2.3292-0.57857-2.9078 1.7506l-1.3193 5.3111q-0.57857 2.3292 1.7506 2.9078l7.5142 1.8665q2.3292 0.57857 2.9078-1.7506z" clip-path="url(#a)" fill="#fff" stroke="#fff"/>
<g clip-path="url(#a)">
<g transform="translate(99.912 474.38) rotate(-76.05) scale(.08 -.08)">
<defs>
<path id="v" d="m34.188 63.188-13.391-36.281h26.812zm-5.5781 9.7188h11.188l27.781-72.906h-10.25l-6.6406 18.703h-32.859l-6.6406-18.703h-10.406z"/>
</defs>
<use xlink:href="#v"/>
</g>
</g>
<path d="m118.13 421.29 1.402-5.9983q0.54622-2.337-1.7908-2.8832l-7.5393-1.7621q-2.337-0.54622-2.8832 1.7908l-1.402 5.9983q-0.54622 2.337 1.7908 2.8832l7.5393 1.7621q2.337 0.54622 2.8832-1.7908z" clip-path="url(#a)" fill="#fff" stroke="#fff"/>
<g clip-path="url(#a)">
<g transform="translate(114.17 420.37) rotate(-76.845) scale(.08 -.08)">
<defs>
<path id="z" d="m19.672 64.797v-56.688h11.922q15.094 0 22.094 6.8281 7 6.8438 7 21.594 0 14.641-7 21.453t-22.094 6.8125zm-9.8594 8.1094h20.266q21.188 0 31.094-8.8125 9.9219-8.8125 9.9219-27.562 0-18.859-9.9688-27.703-9.9531-8.8281-31.047-8.8281h-20.266z"/>
</defs>
<use xlink:href="#z"/>
</g>
</g>
<path d="m125.72 469.16 0.29336 4.8148q0.14596 2.3956 2.5415 2.2496l7.7282-0.47086q2.3956-0.14596 2.2496-2.5415l-0.29336-4.8148q-0.14596-2.3956-2.5415-2.2496l-7.7282 0.47086q-2.3956 0.14596-2.2496 2.5415z" clip-path="url(#a)" fill="#fff" stroke="#fff"/>
<g clip-path="url(#a)">
<g transform="translate(129.77 468.92) rotate(86.513) scale(.08 -.08)">
<defs>
<path id="t" d="m19.672 64.797v-27.391h12.406q6.8906 0 10.641 3.5625 3.7656 3.5625 3.7656 10.156 0 6.5469-3.7656 10.109-3.75 3.5625-10.641 3.5625zm-9.8594 8.1094h22.266q12.266 0 18.531-5.5469 6.2812-5.5469 6.2812-16.234 0-10.797-6.2812-16.312-6.2656-5.5156-18.531-5.5156h-12.406v-29.297h-9.8594z"/>
</defs>
<use xlink:href="#t"/>
</g>
</g>
<path d="m151.89 417.79 2.842 4.6767q1.2464 2.051 3.2974 0.80463l6.6166-4.0208q2.051-1.2464 0.80463-3.2974l-2.842-4.6767q-1.2464-2.051-3.2974-0.80463l-6.6166 4.0208q-2.051 1.2464-0.80463 3.2974z" clip-path="url(#a)" fill="#fff" stroke="#fff"/>
<g clip-path="url(#a)">
<g transform="translate(155.36 415.68) rotate(58.713) scale(.08 -.08)">
<use xlink:href="#v"/>
</g>
</g>
<path d="m350.04 526.12 1.949 4.4125q0.96972 2.1954 3.1651 1.2257l7.0824-3.1283q2.1954-0.96972 1.2257-3.1651l-1.949-4.4125q-0.96972-2.1954-3.1651-1.2257l-7.0824 3.1283q-2.1954 0.96972-1.2257 3.1651z" clip-path="url(#a)" fill="#fff" stroke="#fff"/>
<g clip-path="url(#a)">
<g transform="translate(353.76 524.48) rotate(66.168) scale(.08 -.08)">
<use xlink:href="#t"/>
</g>
</g>
<path d="m349.91 525.83 2.2112 5.0059q0.96972 2.1954 3.1651 1.2257l7.0824-3.1283q2.1954-0.96972 1.2257-3.1651l-2.2112-5.0059q-0.96972-2.1954-3.1651-1.2257l-7.0824 3.1283q-2.1954 0.96972-1.2257 3.1651z" clip-path="url(#a)" fill="#fff" stroke="#fff"/>
<g clip-path="url(#a)">
<g transform="translate(353.63 524.19) rotate(66.168) scale(.08 -.08)">
<use xlink:href="#v"/>
</g>
</g>
<path d="m317.12 530.89 2.1676-5.766q0.84451-2.2465-1.402-3.091l-7.2473-2.7244q-2.2465-0.84452-3.091 1.402l-2.1676 5.766q-0.84451 2.2465 1.402 3.091l7.2473 2.7244q2.2465 0.84451 3.091-1.402z" clip-path="url(#a)" fill="#fff" stroke="#fff"/>
<g clip-path="url(#a)">
<g transform="translate(313.32 529.46) rotate(-69.398) scale(.08 -.08)">
<use xlink:href="#z"/>
</g>
</g>
<path d="m338.49 528.94 0.057889-6.1597q0.022555-2.3999-2.3773-2.4224l-7.7422-0.072762q-2.3999-0.022554-2.4224 2.3773l-0.057889 6.1597q-0.022555 2.3999 2.3773 2.4224l7.7422 0.072761q2.3999 0.022554 2.4224-2.3773z" clip-path="url(#a)" fill="#fff" stroke="#fff"/>
<g clip-path="url(#a)">
<g transform="translate(334.43 528.9) rotate(-89.462) scale(.08 -.08)">
<use xlink:href="#z"/>
</g>
</g>
<path d="m346.73 525.18 2.2148 5.748q0.86293 2.2395 3.1024 1.3766l7.2247-2.7838q2.2395-0.86293 1.3766-3.1024l-2.2148-5.748q-0.86293-2.2395-3.1024-1.3766l-7.2247 2.7838q-2.2395 0.86293-1.3766 3.1024z" clip-path="url(#a)" fill="#fff" stroke="#fff"/>
<g clip-path="url(#a)">
<g transform="translate(350.52 523.72) rotate(68.927) scale(.08 -.08)">
<use xlink:href="#z"/>
</g>
</g>
<path d="m867.33 203.66 4.7858 0.60392q2.3811 0.30047 2.6816-2.0806l0.96934-7.6816q0.30047-2.3811-2.0806-2.6816l-4.7858-0.60392q-2.3811-0.30047-2.6816 2.0806l-0.96934 7.6816q-0.30047 2.3811 2.0806 2.6816z" clip-path="url(#a)" fill="#fff" stroke="#fff"/>
<g clip-path="url(#a)">
<g transform="translate(867.84 199.63) rotate(7.1922) scale(.08 -.08)">
<use xlink:href="#t"/>
</g>
</g>
<path d="m612.69 202.96 5.2389 1.5819q2.2975 0.69376 2.9913-1.6038l2.2381-7.412q0.69376-2.2975-1.6038-2.9913l-5.2389-1.5819q-2.2975-0.69376-2.9913 1.6038l-2.2381 7.412q-0.69376 2.2975 1.6038 2.9913z" clip-path="url(#a)" fill="#fff" stroke="#fff"/>
<g clip-path="url(#a)">
<g transform="translate(613.86 199.07) rotate(16.802) scale(.08 -.08)">
<use xlink:href="#v"/>
</g>
</g>
<path d="m256.36 367.58 3.5001-4.2069q1.535-1.845-0.30998-3.3799l-5.9519-4.9519q-1.845-1.535-3.3799 0.30998l-3.5001 4.2069q-1.535 1.845 0.30998 3.3799l5.9519 4.9519q1.845 1.535 3.3799-0.30998z" clip-path="url(#a)" fill="#fff" stroke="#fff"/>
<g clip-path="url(#a)">
<g transform="translate(253.23 364.98) rotate(-50.24) scale(.08 -.08)">
<use xlink:href="#v"/>
</g>
</g>
<path d="m792.77 304.46v6.0162q0 2.4 2.4 2.4h7.7425q2.4 0 2.4-2.4v-6.0162q0-2.4-2.4-2.4h-7.7425q-2.4 0-2.4 2.4z" clip-path="url(#a)" fill="#fff" stroke="#fff"/>
<g clip-path="url(#a)">
<g transform="translate(796.83 304.46) rotate(90) scale(.08 -.08)">
<use xlink:href="#ag"/>
</g>
</g>
<path d="m665.43 477.61 3.8097-3.0597q1.8712-1.5028 0.36837-3.3741l-4.8482-6.0366q-1.5028-1.8712-3.3741-0.36837l-3.8097 3.0597q-1.8712 1.5028-0.36837 3.3741l4.8482 6.0366q1.5028 1.8712 3.3741 0.36837z" clip-path="url(#a)" fill="#fff" stroke="#fff"/>
<g clip-path="url(#a)">
<g transform="translate(662.89 474.44) rotate(-38.769) scale(.08 -.08)">
<use xlink:href="#e"/>
</g>
</g>
<path d="m693.5 477.55 3.8541-3.8851q1.6903-1.7038-0.013581-3.3941l-5.4966-5.4528q-1.7038-1.6903-3.3941 0.013582l-3.8541 3.8851q-1.6903 1.7038 0.013582 3.3941l5.4966 5.4528q1.7038 1.6903 3.3941-0.013581z" clip-path="url(#a)" fill="#fff" stroke="#fff"/>
<g clip-path="url(#a)">
<g transform="translate(690.62 474.69) rotate(-45.229) scale(.08 -.08)">
<use xlink:href="#v"/>
</g>
</g>
<path d="m754.33 422.84 3.2191-3.676q1.5811-1.8056-0.22444-3.3867l-5.8248-5.1008q-1.8056-1.5811-3.3867 0.22444l-3.2191 3.676q-1.5811 1.8056 0.22444 3.3867l5.8248 5.1008q1.8056 1.5811 3.3867-0.22444z" clip-path="url(#a)" fill="#fff" stroke="#fff"/>
<g clip-path="url(#a)">
<g transform="translate(751.27 420.16) rotate(-48.792) scale(.08 -.08)">
<use xlink:href="#e"/>
</g>
</g>
<path d="m809.99 469.8 0.76634 4.7625q0.38128 2.3695 2.7508 1.9882l7.6442-1.23q2.3695-0.38128 1.9882-2.7508l-0.76634-4.7625q-0.38128-2.3695-2.7508-1.9882l-7.6442 1.23q-2.3695 0.38128-1.9882 2.7508z" clip-path="url(#a)" fill="#fff" stroke="#fff"/>
<g clip-path="url(#a)">
<g transform="translate(814 469.16) rotate(80.859) scale(.08 -.08)">
<use xlink:href="#t"/>
</g>
</g>
<path d="m864.18 420.18 4.3409 3.3324q1.9037 1.4614 3.3652-0.44228l4.7147-6.1415q1.4614-1.9037-0.44228-3.3652l-4.3409-3.3324q-1.9037-1.4614-3.3652 0.44228l-4.7147 6.1415q-1.4614 1.9037 0.44228 3.3652z" clip-path="url(#a)" fill="#fff" stroke="#fff"/>
<g clip-path="url(#a)">
<g transform="translate(866.66 416.95) rotate(37.513) scale(.08 -.08)">
<use xlink:href="#v"/>
</g>
</g>
<path d="m997.28 422.12 5.9482 1.6013q2.3175 0.62387 2.9414-1.6936l2.0126-7.4763q0.62387-2.3175-1.6936-2.9414l-5.9482-1.6013q-2.3175-0.62387-2.9414 1.6936l-2.0126 7.4763q-0.62387 2.3175 1.6936 2.9414z" clip-path="url(#a)" fill="#fff" stroke="#fff"/>
<g clip-path="url(#a)">
<g transform="translate(998.34 418.2) rotate(15.067) scale(.08 -.08)">
<use xlink:href="#z"/>
</g>
</g>
<path d="m521.51 616.79v33.808q0 2.4 2.4 2.4h7.7425q2.4 0 2.4-2.4v-33.808q0-2.4-2.4-2.4h-7.7425q-2.4 0-2.4 2.4z" clip-path="url(#a)" fill="#fff" stroke="#fff"/>
<g clip-path="url(#a)">
<g transform="translate(525.57 616.79) rotate(90) scale(.08 -.08)">
<use xlink:href="#e"/>
<use x="44.083984" xlink:href="#l"/>
<use x="105.607422" xlink:href="#g"/>
<use x="144.970703" xlink:href="#i"/>
<use x="242.382812" xlink:href="#k"/>
<use x="270.166016" xlink:href="#h"/>
<use x="333.544922" xlink:href="#f"/>
<use x="394.824219" xlink:href="#j"/>
</g>
</g>
<path d="m576.65 616.79v33.808q0 2.4 2.4 2.4h7.7425q2.4 0 2.4-2.4v-33.808q0-2.4-2.4-2.4h-7.7425q-2.4 0-2.4 2.4z" clip-path="url(#a)" fill="#fff" stroke="#fff"/>
<g clip-path="url(#a)">
<g transform="translate(580.71 616.79) rotate(90) scale(.08 -.08)">
<use xlink:href="#e"/>
<use x="44.083984" xlink:href="#l"/>
<use x="105.607422" xlink:href="#g"/>
<use x="144.970703" xlink:href="#i"/>
<use x="242.382812" xlink:href="#k"/>
<use x="270.166016" xlink:href="#h"/>
<use x="333.544922" xlink:href="#f"/>
<use x="394.824219" xlink:href="#j"/>
</g>
</g>
<path d="m676.32 531.33 2.7647-4.8225q1.1936-2.0821-0.88848-3.2758l-6.717-3.8507q-2.0821-1.1936-3.2758 0.88848l-2.7647 4.8225q-1.1936 2.0821 0.88848 3.2758l6.717 3.8507q2.0821 1.1936 3.2758-0.88848z" clip-path="url(#a)" fill="#fff" stroke="#fff"/>
<g clip-path="url(#a)">
<g transform="translate(672.79 529.31) rotate(-60.175) scale(.08 -.08)">
<defs>
<path id="aq" d="m44.391 34.188q3.1719-1.0781 6.1719-4.5938t6.0312-9.6719l10.016-19.922h-10.609l-9.3125 18.703q-3.625 7.3281-7.0156 9.7188t-9.25 2.3906h-10.75v-30.812h-9.8594v72.906h22.266q12.5 0 18.656-5.2344 6.1562-5.2188 6.1562-15.766 0-6.8906-3.2031-11.438-3.2031-4.5312-9.2969-6.2812zm-24.719 30.609v-25.875h12.406q7.125 0 10.766 3.2969t3.6406 9.6875-3.6406 9.6406-10.766 3.25z"/>
</defs>
<use xlink:href="#aq"/>
</g>
</g>
<path d="m709.13 529 0.059181-6.2972q0.022555-2.3999-2.3773-2.4224l-7.7422-0.072761q-2.3999-0.022555-2.4224 2.3773l-0.059181 6.2972q-0.022555 2.3999 2.3773 2.4224l7.7422 0.072762q2.3999 0.022554 2.4224-2.3773z" clip-path="url(#a)" fill="#fff" stroke="#fff"/>
<g clip-path="url(#a)">
<g transform="translate(705.07 528.97) rotate(-89.462) scale(.08 -.08)">
<defs>
<path id="ar" d="m39.406 66.219q-10.75 0-17.078-8.0156-6.3125-8-6.3125-21.828 0-13.766 6.3125-21.781 6.3281-8 17.078-8 10.734 0 17.016 8 6.2812 8.0156 6.2812 21.781 0 13.828-6.2812 21.828-6.2812 8.0156-17.016 8.0156zm13.812-64.906 13-14.203h-11.922l-10.797 11.672q-1.6094-0.09375-2.4688-0.14062-0.84375-0.0625-1.625-0.0625-15.375 0-24.594 10.281-9.2031 10.281-9.2031 27.516 0 17.281 9.2031 27.562 9.2188 10.281 24.594 10.281 15.328 0 24.5-10.281 9.1875-10.281 9.1875-27.562 0-12.688-5.1094-21.734-5.0938-9.0312-14.766-13.328z"/>
</defs>
<use xlink:href="#ar"/>
</g>
</g>
<path d="m728.23 526.54 2.8124 4.8267q1.2083 2.0737 3.2819 0.86538l6.6897-3.898q2.0737-1.2083 0.86538-3.2819l-2.8124-4.8267q-1.2083-2.0737-3.2819-0.86538l-6.6897 3.898q-2.0737 1.2083-0.86538 3.2819z" clip-path="url(#a)" fill="#fff" stroke="#fff"/>
<g clip-path="url(#a)">
<g transform="translate(731.74 524.49) rotate(59.771) scale(.08 -.08)">
<defs>
<path id="u" d="m64.406 67.281v-10.391q-4.9844 4.6406-10.625 6.9219-5.6406 2.2969-11.984 2.2969-12.5 0-19.141-7.6406t-6.6406-22.094q0-14.406 6.6406-22.047t19.141-7.6406q6.3438 0 11.984 2.2969t10.625 6.9375v-10.312q-5.1719-3.5156-10.969-5.2812-5.7812-1.75-12.219-1.75-16.562 0-26.094 10.125-9.5156 10.141-9.5156 27.672 0 17.578 9.5156 27.703 9.5312 10.141 26.094 10.141 6.5312 0 12.312-1.7344 5.7969-1.7344 10.875-5.2031z"/>
</defs>
<use xlink:href="#u"/>
</g>
</g>
<path d="m827.82 616.79v33.808q0 2.4 2.4 2.4h7.7425q2.4 0 2.4-2.4v-33.808q0-2.4-2.4-2.4h-7.7425q-2.4 0-2.4 2.4z" clip-path="url(#a)" fill="#fff" stroke="#fff"/>
<g clip-path="url(#a)">
<g transform="translate(831.89 616.79) rotate(90) scale(.08 -.08)">
<use xlink:href="#e"/>
<use x="44.083984" xlink:href="#l"/>
<use x="105.607422" xlink:href="#g"/>
<use x="144.970703" xlink:href="#i"/>
<use x="242.382812" xlink:href="#k"/>
<use x="270.166016" xlink:href="#h"/>
<use x="333.544922" xlink:href="#f"/>
<use x="394.824219" xlink:href="#j"/>
</g>
</g>
<path d="m928.09 530.09 1.5459-4.5693q0.76916-2.2734-1.5042-3.0426l-7.3341-2.4814q-2.2734-0.76916-3.0426 1.5042l-1.5459 4.5693q-0.76916 2.2734 1.5042 3.0426l7.3341 2.4814q2.2734 0.76916 3.0426-1.5042z" clip-path="url(#a)" fill="#fff" stroke="#fff"/>
<g clip-path="url(#a)">
<g transform="translate(924.24 528.79) rotate(-71.308) scale(.08 -.08)">
<use xlink:href="#t"/>
</g>
</g>
<path d="m952.87 525.21 1.7539 5.1838q0.76916 2.2734 3.0426 1.5042l7.3341-2.4814q2.2734-0.76916 1.5042-3.0426l-1.7539-5.1838q-0.76916-2.2734-3.0426-1.5042l-7.3341 2.4814q-2.2734 0.76916-1.5042 3.0426z" clip-path="url(#a)" fill="#fff" stroke="#fff"/>
<g clip-path="url(#a)">
<g transform="translate(956.71 523.91) rotate(71.308) scale(.08 -.08)">
<use xlink:href="#v"/>
</g>
</g>
<path d="m1151.8 532.47 4.486-4.4198q1.7096-1.6844 0.025254-3.394l-5.4339-5.5154q-1.6844-1.7096-3.394-0.025253l-4.486 4.4197q-1.7096 1.6844-0.025254 3.394l5.4339 5.5154q1.6844 1.7096 3.394 0.025254z" clip-path="url(#a)" fill="#fff" stroke="#fff"/>
<g clip-path="url(#a)">
<g transform="translate(1148.9 529.58) rotate(-44.574) scale(.08 -.08)">
<use xlink:href="#ar"/>
</g>
</g>
<path d="m1204.3 523.72 0.62603 5.5511q0.26896 2.3849 2.6538 2.1159l7.6937-0.86768q2.3849-0.26896 2.1159-2.6538l-0.62603-5.5511q-0.26896-2.3849-2.6538-2.1159l-7.6937 0.86768q-2.3849 0.26896-2.1159 2.6538z" clip-path="url(#a)" fill="#fff" stroke="#fff"/>
<g clip-path="url(#a)">
<g transform="translate(1208.4 523.27) rotate(83.566) scale(.08 -.08)">
<use xlink:href="#u"/>
</g>
</g>
<path d="m1247.1 527.82 3.9221 4.3472q1.6077 1.7819 3.3896 0.17425l5.7486-5.1865q1.7819-1.6077 0.17424-3.3896l-3.9221-4.3472q-1.6077-1.7819-3.3896-0.17425l-5.7486 5.1865q-1.7819 1.6077-0.17424 3.3896z" clip-path="url(#a)" fill="#fff" stroke="#fff"/>
<g clip-path="url(#a)">
<g transform="translate(1250.1 525.1) rotate(47.943) scale(.08 -.08)">
<use xlink:href="#ae"/>
</g>
</g>
<path d="m1074.5 651.73 11.777-31.69q0.83603-2.2497-1.4136-3.0857l-7.2576-2.6971q-2.2497-0.83603-3.0857 1.4136l-11.777 31.69q-0.83603 2.2497 1.4136 3.0857l7.2576 2.6971q2.2497 0.83603 3.0857-1.4136z" clip-path="url(#a)" fill="#fff" stroke="#fff"/>
<g clip-path="url(#a)">
<g transform="translate(1070.7 650.31) rotate(-69.614) scale(.08 -.08)">
<use xlink:href="#e"/>
<use x="44.083984" xlink:href="#l"/>
<use x="105.607422" xlink:href="#g"/>
<use x="144.970703" xlink:href="#i"/>
<use x="242.382812" xlink:href="#k"/>
<use x="270.166016" xlink:href="#h"/>
<use x="333.544922" xlink:href="#f"/>
<use x="394.824219" xlink:href="#j"/>
</g>
</g>
<path d="m1102.6 620.04 11.777 31.69q0.83603 2.2497 3.0857 1.4136l7.2576-2.6971q2.2497-0.83603 1.4136-3.0857l-11.777-31.69q-0.83603-2.2497-3.0857-1.4136l-7.2576 2.6971q-2.2497 0.83603-1.4136 3.0857z" clip-path="url(#a)" fill="#fff" stroke="#fff"/>
<g clip-path="url(#a)">
<g transform="translate(1106.4 618.62) rotate(69.614) scale(.08 -.08)">
<use xlink:href="#e"/>
<use x="44.083984" xlink:href="#l"/>
<use x="105.607422" xlink:href="#g"/>
<use x="144.970703" xlink:href="#i"/>
<use x="242.382812" xlink:href="#k"/>
<use x="270.166016" xlink:href="#h"/>
<use x="333.544922" xlink:href="#f"/>
<use x="394.824219" xlink:href="#j"/>
</g>
</g>
<path d="m1210.7 616.79v33.808q0 2.4 2.4 2.4h7.7425q2.4 0 2.4-2.4v-33.808q0-2.4-2.4-2.4h-7.7425q-2.4 0-2.4 2.4z" clip-path="url(#a)" fill="#fff" stroke="#fff"/>
<g clip-path="url(#a)">
<g transform="translate(1214.8 616.79) rotate(90) scale(.08 -.08)">
<use xlink:href="#e"/>
<use x="44.083984" xlink:href="#l"/>
<use x="105.607422" xlink:href="#g"/>
<use x="144.970703" xlink:href="#i"/>
<use x="242.382812" xlink:href="#k"/>
<use x="270.166016" xlink:href="#h"/>
<use x="333.544922" xlink:href="#f"/>
<use x="394.824219" xlink:href="#j"/>
</g>
</g>
<path d="m898.28 616.79v33.808q0 2.4 2.4 2.4h7.7425q2.4 0 2.4-2.4v-33.808q0-2.4-2.4-2.4h-7.7425q-2.4 0-2.4 2.4z" clip-path="url(#a)" fill="#fff" stroke="#fff"/>
<g clip-path="url(#a)">
<g transform="translate(902.34 616.79) rotate(90) scale(.08 -.08)">
<use xlink:href="#e"/>
<use x="44.083984" xlink:href="#l"/>
<use x="105.607422" xlink:href="#g"/>
<use x="144.970703" xlink:href="#i"/>
<use x="242.382812" xlink:href="#k"/>
<use x="270.166016" xlink:href="#h"/>
<use x="333.544922" xlink:href="#f"/>
<use x="394.824219" xlink:href="#j"/>
</g>
</g>
<path d="m971.79 616.79v33.808q0 2.4 2.4 2.4h7.7425q2.4 0 2.4-2.4v-33.808q0-2.4-2.4-2.4h-7.7425q-2.4 0-2.4 2.4z" clip-path="url(#a)" fill="#fff" stroke="#fff"/>
<g clip-path="url(#a)">
<g transform="translate(975.85 616.79) rotate(90) scale(.08 -.08)">
<use xlink:href="#e"/>
<use x="44.083984" xlink:href="#l"/>
<use x="105.607422" xlink:href="#g"/>
<use x="144.970703" xlink:href="#i"/>
<use x="242.382812" xlink:href="#k"/>
<use x="270.166016" xlink:href="#h"/>
<use x="333.544922" xlink:href="#f"/>
<use x="394.824219" xlink:href="#j"/>
</g>
</g>
<path d="m634.84 616.79v33.808q0 2.4 2.4 2.4h7.7425q2.4 0 2.4-2.4v-33.808q0-2.4-2.4-2.4h-7.7425q-2.4 0-2.4 2.4z" clip-path="url(#a)" fill="#fff" stroke="#fff"/>
<g clip-path="url(#a)">
<g transform="translate(638.91 616.79) rotate(90) scale(.08 -.08)">
<use xlink:href="#e"/>
<use x="44.083984" xlink:href="#l"/>
<use x="105.607422" xlink:href="#g"/>
<use x="144.970703" xlink:href="#i"/>
<use x="242.382812" xlink:href="#k"/>
<use x="270.166016" xlink:href="#h"/>
<use x="333.544922" xlink:href="#f"/>
<use x="394.824219" xlink:href="#j"/>
</g>
</g>
<path d="m696.11 616.79v33.808q0 2.4 2.4 2.4h7.7425q2.4 0 2.4-2.4v-33.808q0-2.4-2.4-2.4h-7.7425q-2.4 0-2.4 2.4z" clip-path="url(#a)" fill="#fff" stroke="#fff"/>
<g clip-path="url(#a)">
<g transform="translate(700.17 616.79) rotate(90) scale(.08 -.08)">
<use xlink:href="#e"/>
<use x="44.083984" xlink:href="#l"/>
<use x="105.607422" xlink:href="#g"/>
<use x="144.970703" xlink:href="#i"/>
<use x="242.382812" xlink:href="#k"/>
<use x="270.166016" xlink:href="#h"/>
<use x="333.544922" xlink:href="#f"/>
<use x="394.824219" xlink:href="#j"/>
</g>
</g>
<path d="m760.43 616.79v33.808q0 2.4 2.4 2.4h7.7425q2.4 0 2.4-2.4v-33.808q0-2.4-2.4-2.4h-7.7425q-2.4 0-2.4 2.4z" clip-path="url(#a)" fill="#fff" stroke="#fff"/>
<g clip-path="url(#a)">
<g transform="translate(764.5 616.79) rotate(90) scale(.08 -.08)">
<use xlink:href="#e"/>
<use x="44.083984" xlink:href="#l"/>
<use x="105.607422" xlink:href="#g"/>
<use x="144.970703" xlink:href="#i"/>
<use x="242.382812" xlink:href="#k"/>
<use x="270.166016" xlink:href="#h"/>
<use x="333.544922" xlink:href="#f"/>
<use x="394.824219" xlink:href="#j"/>
</g>
</g>
<path d="m285.65 616.79v33.808q0 2.4 2.4 2.4h7.7425q2.4 0 2.4-2.4v-33.808q0-2.4-2.4-2.4h-7.7425q-2.4 0-2.4 2.4z" clip-path="url(#a)" fill="#fff" stroke="#fff"/>
<g clip-path="url(#a)">
<g transform="translate(289.71 616.79) rotate(90) scale(.08 -.08)">
<use xlink:href="#e"/>
<use x="44.083984" xlink:href="#l"/>
<use x="105.607422" xlink:href="#g"/>
<use x="144.970703" xlink:href="#i"/>
<use x="242.382812" xlink:href="#k"/>
<use x="270.166016" xlink:href="#h"/>
<use x="333.544922" xlink:href="#f"/>
<use x="394.824219" xlink:href="#j"/>
</g>
</g>
<path d="m325.47 616.79v33.808q0 2.4 2.4 2.4h7.7425q2.4 0 2.4-2.4v-33.808q0-2.4-2.4-2.4h-7.7425q-2.4 0-2.4 2.4z" clip-path="url(#a)" fill="#fff" stroke="#fff"/>
<g clip-path="url(#a)">
<g transform="translate(329.53 616.79) rotate(90) scale(.08 -.08)">
<use xlink:href="#e"/>
<use x="44.083984" xlink:href="#l"/>
<use x="105.607422" xlink:href="#g"/>
<use x="144.970703" xlink:href="#i"/>
<use x="242.382812" xlink:href="#k"/>
<use x="270.166016" xlink:href="#h"/>
<use x="333.544922" xlink:href="#f"/>
<use x="394.824219" xlink:href="#j"/>
</g>
</g>
<path d="m368.35 616.79v33.808q0 2.4 2.4 2.4h7.7425q2.4 0 2.4-2.4v-33.808q0-2.4-2.4-2.4h-7.7425q-2.4 0-2.4 2.4z" clip-path="url(#a)" fill="#fff" stroke="#fff"/>
<g clip-path="url(#a)">
<g transform="translate(372.41 616.79) rotate(90) scale(.08 -.08)">
<use xlink:href="#e"/>
<use x="44.083984" xlink:href="#l"/>
<use x="105.607422" xlink:href="#g"/>
<use x="144.970703" xlink:href="#i"/>
<use x="242.382812" xlink:href="#k"/>
<use x="270.166016" xlink:href="#h"/>
<use x="333.544922" xlink:href="#f"/>
<use x="394.824219" xlink:href="#j"/>
</g>
</g>
<path d="m65.1 616.79v33.808q0 2.4 2.4 2.4h7.7425q2.4 0 2.4-2.4v-33.808q0-2.4-2.4-2.4h-7.7425q-2.4 0-2.4 2.4z" clip-path="url(#a)" fill="#fff" stroke="#fff"/>
<g clip-path="url(#a)">
<g transform="translate(69.164 616.79) rotate(90) scale(.08 -.08)">
<use xlink:href="#e"/>
<use x="44.083984" xlink:href="#l"/>
<use x="105.607422" xlink:href="#g"/>
<use x="144.970703" xlink:href="#i"/>
<use x="242.382812" xlink:href="#k"/>
<use x="270.166016" xlink:href="#h"/>
<use x="333.544922" xlink:href="#f"/>
<use x="394.824219" xlink:href="#j"/>
</g>
</g>
<path d="m97.578 529.49 0.83066-5.5241q0.35687-2.3733-2.0164-2.7302l-7.6564-1.1513q-2.3733-0.35687-2.7302 2.0164l-0.83066 5.5241q-0.35687 2.3733 2.0164 2.7302l7.6564 1.1513q2.3733 0.35688 2.7302-2.0164z" clip-path="url(#a)" fill="#fff" stroke="#fff"/>
<g clip-path="url(#a)">
<g transform="translate(93.56 528.89) rotate(-81.449) scale(.08 -.08)">
<use xlink:href="#u"/>
</g>
</g>
<path d="m105.69 528.85 0.056245-5.9847q0.022554-2.3999-2.3773-2.4224l-7.7422-0.072761q-2.3999-0.022555-2.4224 2.3773l-0.056245 5.9847q-0.022555 2.3999 2.3773 2.4224l7.7422 0.072762q2.3999 0.022554 2.4224-2.3773z" clip-path="url(#a)" fill="#fff" stroke="#fff"/>
<g clip-path="url(#a)">
<g transform="translate(101.63 528.81) rotate(-89.462) scale(.08 -.08)">
<defs>
<path id="ax" d="m9.8125 72.906h13.281l32.328-60.984v60.984h9.5625v-72.906h-13.281l-32.312 60.984v-60.984h-9.5781z"/>
</defs>
<use xlink:href="#ax"/>
</g>
</g>
<path d="m102.01 524.03 0.88132 5.5163q0.37864 2.3699 2.7486 1.9913l7.6455-1.2215q2.3699-0.37864 1.9913-2.7486l-0.88132-5.5163q-0.37864-2.3699-2.7486-1.9913l-7.6455 1.2215q-2.3699 0.37864-1.9913 2.7486z" clip-path="url(#a)" fill="#fff" stroke="#fff"/>
<g clip-path="url(#a)">
<g transform="translate(106.02 523.39) rotate(80.923) scale(.08 -.08)">
<use xlink:href="#u"/>
</g>
</g>
<path d="m132.49 616.79v33.808q0 2.4 2.4 2.4h7.7425q2.4 0 2.4-2.4v-33.808q0-2.4-2.4-2.4h-7.7425q-2.4 0-2.4 2.4z" clip-path="url(#a)" fill="#fff" stroke="#fff"/>
<g clip-path="url(#a)">
<g transform="translate(136.55 616.79) rotate(90) scale(.08 -.08)">
<use xlink:href="#e"/>
<use x="44.083984" xlink:href="#l"/>
<use x="105.607422" xlink:href="#g"/>
<use x="144.970703" xlink:href="#i"/>
<use x="242.382812" xlink:href="#k"/>
<use x="270.166016" xlink:href="#h"/>
<use x="333.544922" xlink:href="#f"/>
<use x="394.824219" xlink:href="#j"/>
</g>
</g>
<path d="m182.92 530.08 1.4146-5.3757q0.61076-2.321-1.7102-2.9317l-7.4876-1.9703q-2.321-0.61076-2.9317 1.7102l-1.4146 5.3757q-0.61076 2.321 1.7102 2.9317l7.4876 1.9703q2.321 0.61076 2.9317-1.7102z" clip-path="url(#a)" fill="#fff" stroke="#fff"/>
<g clip-path="url(#a)">
<g transform="translate(178.99 529.05) rotate(-75.257) scale(.08 -.08)">
<use xlink:href="#aq"/>
</g>
</g>
<path d="m197.59 528.38 0.047505-5.0548q0.022555-2.3999-2.3773-2.4224l-7.7422-0.072762q-2.3999-0.022554-2.4224 2.3773l-0.047505 5.0548q-0.022554 2.3999 2.3773 2.4224l7.7422 0.072761q2.3999 0.022555 2.4224-2.3773z" clip-path="url(#a)" fill="#fff" stroke="#fff"/>
<g clip-path="url(#a)">
<g transform="translate(193.53 528.35) rotate(-89.462) scale(.08 -.08)">
<defs>
<path id="ay" d="m9.8125 72.906h46.094v-8.3125h-36.234v-21.578h34.719v-8.2969h-34.719v-26.422h37.109v-8.2969h-46.969z"/>
</defs>
<use xlink:href="#ay"/>
</g>
</g>
<path d="m199.88 524.75 1.4689 5.3897q0.63109 2.3155 2.9466 1.6845l7.47-2.0359q2.3155-0.63109 1.6845-2.9466l-1.4689-5.3897q-0.63109-2.3155-2.9466-1.6845l-7.47 2.0359q-2.3155 0.63109-1.6845 2.9466z" clip-path="url(#a)" fill="#fff" stroke="#fff"/>
<g clip-path="url(#a)">
<g transform="translate(203.8 523.68) rotate(74.755) scale(.08 -.08)">
<use xlink:href="#u"/>
</g>
</g>
<path d="m156.99 616.79v33.808q0 2.4 2.4 2.4h7.7425q2.4 0 2.4-2.4v-33.808q0-2.4-2.4-2.4h-7.7425q-2.4 0-2.4 2.4z" clip-path="url(#a)" fill="#fff" stroke="#fff"/>
<g clip-path="url(#a)">
<g transform="translate(161.06 616.79) rotate(90) scale(.08 -.08)">
<use xlink:href="#e"/>
<use x="44.083984" xlink:href="#l"/>
<use x="105.607422" xlink:href="#g"/>
<use x="144.970703" xlink:href="#i"/>
<use x="242.382812" xlink:href="#k"/>
<use x="270.166016" xlink:href="#h"/>
<use x="333.544922" xlink:href="#f"/>
<use x="394.824219" xlink:href="#j"/>
</g>
</g>
<path d="m184.56 616.79v33.808q0 2.4 2.4 2.4h7.7425q2.4 0 2.4-2.4v-33.808q0-2.4-2.4-2.4h-7.7425q-2.4 0-2.4 2.4z" clip-path="url(#a)" fill="#fff" stroke="#fff"/>
<g clip-path="url(#a)">
<g transform="translate(188.63 616.79) rotate(90) scale(.08 -.08)">
<use xlink:href="#e"/>
<use x="44.083984" xlink:href="#l"/>
<use x="105.607422" xlink:href="#g"/>
<use x="144.970703" xlink:href="#i"/>
<use x="242.382812" xlink:href="#k"/>
<use x="270.166016" xlink:href="#h"/>
<use x="333.544922" xlink:href="#f"/>
<use x="394.824219" xlink:href="#j"/>
</g>
</g>
<path d="m215.19 616.79v33.808q0 2.4 2.4 2.4h7.7425q2.4 0 2.4-2.4v-33.808q0-2.4-2.4-2.4h-7.7425q-2.4 0-2.4 2.4z" clip-path="url(#a)" fill="#fff" stroke="#fff"/>
<g clip-path="url(#a)">
<g transform="translate(219.26 616.79) rotate(90) scale(.08 -.08)">
<use xlink:href="#e"/>
<use x="44.083984" xlink:href="#l"/>
<use x="105.607422" xlink:href="#g"/>
<use x="144.970703" xlink:href="#i"/>
<use x="242.382812" xlink:href="#k"/>
<use x="270.166016" xlink:href="#h"/>
<use x="333.544922" xlink:href="#f"/>
<use x="394.824219" xlink:href="#j"/>
</g>
</g>
<path d="m77.353 616.79v33.808q0 2.4 2.4 2.4h7.7425q2.4 0 2.4-2.4v-33.808q0-2.4-2.4-2.4h-7.7425q-2.4 0-2.4 2.4z" clip-path="url(#a)" fill="#fff" stroke="#fff"/>
<g clip-path="url(#a)">
<g transform="translate(81.416 616.79) rotate(90) scale(.08 -.08)">
<use xlink:href="#e"/>
<use x="44.083984" xlink:href="#l"/>
<use x="105.607422" xlink:href="#g"/>
<use x="144.970703" xlink:href="#i"/>
<use x="242.382812" xlink:href="#k"/>
<use x="270.166016" xlink:href="#h"/>
<use x="333.544922" xlink:href="#f"/>
<use x="394.824219" xlink:href="#j"/>
</g>
</g>
<path d="m92.668 616.79v33.808q0 2.4 2.4 2.4h7.7425q2.4 0 2.4-2.4v-33.808q0-2.4-2.4-2.4h-7.7425q-2.4 0-2.4 2.4z" clip-path="url(#a)" fill="#fff" stroke="#fff"/>
<g clip-path="url(#a)">
<g transform="translate(96.732 616.79) rotate(90) scale(.08 -.08)">
<use xlink:href="#e"/>
<use x="44.083984" xlink:href="#l"/>
<use x="105.607422" xlink:href="#g"/>
<use x="144.970703" xlink:href="#i"/>
<use x="242.382812" xlink:href="#k"/>
<use x="270.166016" xlink:href="#h"/>
<use x="333.544922" xlink:href="#f"/>
<use x="394.824219" xlink:href="#j"/>
</g>
</g>
<path d="m111.05 616.79v33.808q0 2.4 2.4 2.4h7.7425q2.4 0 2.4-2.4v-33.808q0-2.4-2.4-2.4h-7.7425q-2.4 0-2.4 2.4z" clip-path="url(#a)" fill="#fff" stroke="#fff"/>
<g clip-path="url(#a)">
<g transform="translate(115.11 616.79) rotate(90) scale(.08 -.08)">
<use xlink:href="#e"/>
<use x="44.083984" xlink:href="#l"/>
<use x="105.607422" xlink:href="#g"/>
<use x="144.970703" xlink:href="#i"/>
<use x="242.382812" xlink:href="#k"/>
<use x="270.166016" xlink:href="#h"/>
<use x="333.544922" xlink:href="#f"/>
<use x="394.824219" xlink:href="#j"/>
</g>
</g>
<path d="m248.89 616.79v33.808q0 2.4 2.4 2.4h7.7425q2.4 0 2.4-2.4v-33.808q0-2.4-2.4-2.4h-7.7425q-2.4 0-2.4 2.4z" clip-path="url(#a)" fill="#fff" stroke="#fff"/>
<g clip-path="url(#a)">
<g transform="translate(252.95 616.79) rotate(90) scale(.08 -.08)">
<use xlink:href="#e"/>
<use x="44.083984" xlink:href="#l"/>
<use x="105.607422" xlink:href="#g"/>
<use x="144.970703" xlink:href="#i"/>
<use x="242.382812" xlink:href="#k"/>
<use x="270.166016" xlink:href="#h"/>
<use x="333.544922" xlink:href="#f"/>
<use x="394.824219" xlink:href="#j"/>
</g>
</g>
<path d="m420.42 616.79v33.808q0 2.4 2.4 2.4h7.7425q2.4 0 2.4-2.4v-33.808q0-2.4-2.4-2.4h-7.7425q-2.4 0-2.4 2.4z" clip-path="url(#a)" fill="#fff" stroke="#fff"/>
<g clip-path="url(#a)">
<g transform="translate(424.49 616.79) rotate(90) scale(.08 -.08)">
<use xlink:href="#e"/>
<use x="44.083984" xlink:href="#l"/>
<use x="105.607422" xlink:href="#g"/>
<use x="144.970703" xlink:href="#i"/>
<use x="242.382812" xlink:href="#k"/>
<use x="270.166016" xlink:href="#h"/>
<use x="333.544922" xlink:href="#f"/>
<use x="394.824219" xlink:href="#j"/>
</g>
</g>
<path d="m469.43 616.79v33.808q0 2.4 2.4 2.4h7.7425q2.4 0 2.4-2.4v-33.808q0-2.4-2.4-2.4h-7.7425q-2.4 0-2.4 2.4z" clip-path="url(#a)" fill="#fff" stroke="#fff"/>
<g clip-path="url(#a)">
<g transform="translate(473.5 616.79) rotate(90) scale(.08 -.08)">
<use xlink:href="#e"/>
<use x="44.083984" xlink:href="#l"/>
<use x="105.607422" xlink:href="#g"/>
<use x="144.970703" xlink:href="#i"/>
<use x="242.382812" xlink:href="#k"/>
<use x="270.166016" xlink:href="#h"/>
<use x="333.544922" xlink:href="#f"/>
<use x="394.824219" xlink:href="#j"/>
</g>
</g>
<path d="m1296.5 616.79v33.808q0 2.4 2.4 2.4h7.7425q2.4 0 2.4-2.4v-33.808q0-2.4-2.4-2.4h-7.7425q-2.4 0-2.4 2.4z" clip-path="url(#a)" fill="#fff" stroke="#fff"/>
<g clip-path="url(#a)">
<g transform="translate(1300.5 616.79) rotate(90) scale(.08 -.08)">
<use xlink:href="#e"/>
<use x="44.083984" xlink:href="#l"/>
<use x="105.607422" xlink:href="#g"/>
<use x="144.970703" xlink:href="#i"/>
<use x="242.382812" xlink:href="#k"/>
<use x="270.166016" xlink:href="#h"/>
<use x="333.544922" xlink:href="#f"/>
<use x="394.824219" xlink:href="#j"/>
</g>
</g>
<defs>
<path id="b" d="m0 8.6603c2.2967 0 4.4997-0.9125 6.1237-2.5365 1.624-1.624 2.5365-3.827 2.5365-6.1237s-0.9125-4.4997-2.5365-6.1237c-1.624-1.624-3.827-2.5365-6.1237-2.5365s-4.4997 0.9125-6.1237 2.5365c-1.624 1.624-2.5365 3.827-2.5365 6.1237s0.9125 4.4997 2.5365 6.1237c1.624 1.624 3.827 2.5365 6.1237 2.5365z"/>
</defs>
<g clip-path="url(#a)" fill="#ffffff" stroke="#ffffff">
<use x="62.181818" y="687.272727" xlink:href="#b"/>
<use x="71.371249" y="687.272727" xlink:href="#b"/>
<use x="83.623824" y="687.272727" xlink:href="#b"/>
<use x="98.939543" y="687.272727" xlink:href="#b"/>
<use x="117.318406" y="687.272727" xlink:href="#b"/>
<use x="138.760412" y="687.272727" xlink:href="#b"/>
<use x="163.265562" y="687.272727" xlink:href="#b"/>
<use x="190.833856" y="687.272727" xlink:href="#b"/>
<use x="221.465293" y="687.272727" xlink:href="#b"/>
<use x="255.159875" y="687.272727" xlink:href="#b"/>
<use x="291.9176" y="687.272727" xlink:href="#b"/>
<use x="331.738468" y="687.272727" xlink:href="#b"/>
<use x="374.622481" y="687.272727" xlink:href="#b"/>
<use x="426.695925" y="687.272727" xlink:href="#b"/>
<use x="475.706225" y="687.272727" xlink:href="#b"/>
<use x="527.779669" y="687.272727" xlink:href="#b"/>
<use x="582.916256" y="687.272727" xlink:href="#b"/>
<use x="641.115987" y="687.272727" xlink:href="#b"/>
<use x="702.378863" y="687.272727" xlink:href="#b"/>
<use x="766.704881" y="687.272727" xlink:href="#b"/>
<use x="834.094044" y="687.272727" xlink:href="#b"/>
<use x="904.54635" y="687.272727" xlink:href="#b"/>
<use x="978.0618" y="687.272727" xlink:href="#b"/>
<use x="1054.640394" y="687.272727" xlink:href="#b"/>
<use x="1134.282132" y="687.272727" xlink:href="#b"/>
<use x="1216.987013" y="687.272727" xlink:href="#b"/>
<use x="1302.755038" y="687.272727" xlink:href="#b"/>
<use x="1305.818182" y="252.674811" xlink:href="#b"/>
<use x="380.748768" y="580.119058" xlink:href="#b"/>
<use x="380.748768" y="580.119058" xlink:href="#b"/>
<use x="301.884972" y="32.727273" xlink:href="#b"/>
<use x="62.181818" y="580.119058" xlink:href="#b"/>
<use x="125.486789" y="362.260638" xlink:href="#b"/>
<use x="332.759516" y="471.474763" xlink:href="#b"/>
<use x="435.204657" y="142.811757" xlink:href="#b"/>
<use x="799.038065" y="252.674811" xlink:href="#b"/>
<use x="799.038065" y="362.260638" xlink:href="#b"/>
<use x="527.779669" y="580.119058" xlink:href="#b"/>
<use x="582.916256" y="580.119058" xlink:href="#b"/>
<use x="703.39991" y="471.474763" xlink:href="#b"/>
<use x="834.094044" y="580.119058" xlink:href="#b"/>
<use x="941.304075" y="471.474763" xlink:href="#b"/>
<use x="1204.734438" y="471.474763" xlink:href="#b"/>
<use x="1094.461263" y="580.119058" xlink:href="#b"/>
<use x="1216.987013" y="580.119058" xlink:href="#b"/>
<use x="904.54635" y="580.119058" xlink:href="#b"/>
<use x="978.0618" y="580.119058" xlink:href="#b"/>
<use x="641.115987" y="580.119058" xlink:href="#b"/>
<use x="702.378863" y="580.119058" xlink:href="#b"/>
<use x="766.704881" y="580.119058" xlink:href="#b"/>
<use x="291.9176" y="580.119058" xlink:href="#b"/>
<use x="331.738468" y="580.119058" xlink:href="#b"/>
<use x="374.622481" y="580.119058" xlink:href="#b"/>
<use x="71.371249" y="580.119058" xlink:href="#b"/>
<use x="99.960591" y="471.474763" xlink:href="#b"/>
<use x="138.760412" y="580.119058" xlink:href="#b"/>
<use x="191.854904" y="471.474763" xlink:href="#b"/>
<use x="163.265562" y="580.119058" xlink:href="#b"/>
<use x="190.833856" y="580.119058" xlink:href="#b"/>
<use x="221.465293" y="580.119058" xlink:href="#b"/>
<use x="83.623824" y="580.119058" xlink:href="#b"/>
<use x="98.939543" y="580.119058" xlink:href="#b"/>
<use x="117.318406" y="580.119058" xlink:href="#b"/>
<use x="255.159875" y="580.119058" xlink:href="#b"/>
<use x="426.695925" y="580.119058" xlink:href="#b"/>
<use x="475.706225" y="580.119058" xlink:href="#b"/>
<use x="1302.755038" y="580.119058" xlink:href="#b"/>
</g>
<g clip-path="url(#a)">
<g transform="translate(58.441 690.03) scale(.1 -.1)">
<defs>
<path id="bi" d="m64.984 72.906v-72.906h-9.5625v60.984l-32.328-60.984h-13.281v72.906h9.5781v-60.984l32.312 60.984z"/>
</defs>
<use xlink:href="#bi"/>
</g>
</g>
<g clip-path="url(#a)">
<g transform="translate(64.511 690.03) scale(.1 -.1)">
<defs>
<path id="q" d="m2.9375 54.688h52.391v-7.1719h-21.781v-47.516h-8.8438v47.516h-21.766z"/>
<path id="au" d="m61.047 54.688h8.9844v-54.688h-8.9844zm4.5 1.3125m-22.094-39.781q0 4.3906-3.2031 6.6875-3.1875 2.2969-9.3438 2.2969h-12.797v-18.031h12.797q6.1562 0 9.3438 2.3125 3.2031 2.3281 3.2031 6.7344zm-34.375 38.469h9.0312v-22.312h13.188q10.453 0 16.094-3.9844 5.6406-3.9688 5.6406-12.172t-5.6406-12.219q-5.6406-4-16.094-4h-22.219z"/>
</defs>
<use xlink:href="#q"/>
<use x="58.251953" xlink:href="#au"/>
</g>
</g>
<g clip-path="url(#a)">
<g transform="translate(68.429 690.03) scale(.1 -.1)">
<defs>
<path id="n" d="m30.609 48.391q-7.2188 0-11.422-5.6406t-4.2031-15.453 4.1719-15.453q4.1875-5.6406 11.453-5.6406 7.1875 0 11.375 5.6562 4.2031 5.6719 4.2031 15.438 0 9.7188-4.2031 15.406-4.1875 5.6875-11.375 5.6875zm0 7.6094q11.719 0 18.406-7.625 6.7031-7.6094 6.7031-21.078 0-13.422-6.7031-21.078-6.6875-7.6406-18.406-7.6406-11.766 0-18.438 7.6406-6.6562 7.6562-6.6562 21.078 0 13.469 6.6562 21.078 6.6719 7.625 18.438 7.625z"/>
<path id="aw" d="m56.297 54.688v-54.688h-9.0312v47.516h-29.156v-47.516h-9.0312v54.688z"/>
<path id="ao" d="m18.453 38.922q0-4.0625 3.125-6.3594 3.125-2.2812 8.9375-2.2812h12.109v17.234h-12.109q-5.8125 0-8.9375-2.25t-3.125-6.3438zm-12.781-38.922 16.688 23.969q-5.6562 1.2812-9.4219 4.625-3.75 3.3438-3.75 10.328 0 7.9062 5.2344 11.828 5.25 3.9375 15.859 3.9375h21.375v-54.688h-9.0312v23.094h-11.172l-16.125-23.094z"/>
<path id="aa" d="m43.453 16.219q0 4.3906-3.2031 6.6875-3.1875 2.2969-9.3438 2.2969h-12.797v-18.031h12.797q6.1562 0 9.3438 2.3125 3.2031 2.3281 3.2031 6.7344zm-34.375 38.469h9.0312v-22.312h13.188q10.453 0 16.094-3.9844 5.6406-3.9688 5.6406-12.172t-5.6406-12.219q-5.6406-4-16.094-4h-22.219z"/>
</defs>
<use xlink:href="#n"/>
<use x="61.181641" xlink:href="#aw"/>
<use x="126.5625" xlink:href="#ao"/>
<use x="186.71875" xlink:href="#q"/>
<use x="244.970703" xlink:href="#aa"/>
</g>
</g>
<g clip-path="url(#a)">
<g transform="translate(95.69 690.03) scale(.1 -.1)">
<defs>
<path id="ac" d="m55.906 54.688v-54.688h-8.9375v43.891l-26.359-43.891h-11.531v54.688h8.9375v-43.797l26.328 43.797z"/>
</defs>
<use xlink:href="#ac"/>
</g>
</g>
<g clip-path="url(#a)">
<g transform="translate(102.12 690.03) scale(.1 -.1)">
<use xlink:href="#n"/>
<use x="61.181641" xlink:href="#aw"/>
<use x="126.5625" xlink:href="#ao"/>
<use x="186.71875" xlink:href="#q"/>
<use x="244.970703" xlink:href="#aa"/>
</g>
</g>
<g clip-path="url(#a)">
<g transform="translate(116.82 690.03) scale(.1 -.1)">
<defs>
<path id="ai" d="m48.781 52.594v-8.4062q-3.8125 2.1094-7.6406 3.1562t-7.7344 1.0469q-8.75 0-13.594-5.5469-4.8281-5.5312-4.8281-15.547t4.8281-15.562q4.8438-5.5312 13.594-5.5312 3.9062 0 7.7344 1.0469t7.6406 3.1562v-8.3125q-3.7656-1.75-7.7969-2.625-4.0156-0.89062-8.5625-0.89062-12.359 0-19.641 7.7656-7.2656 7.7656-7.2656 20.953 0 13.375 7.3438 21.031 7.3594 7.6719 20.156 7.6719 4.1406 0 8.0938-0.85938 3.9531-0.84375 7.6719-2.5469z"/>
<path id="bd" d="m9.0781 54.688h13.141l15.531-36.625 15.578 36.625h13.031v-54.688h-9.0312v46.094l-15.094-35.594h-8.9844l-15.141 35.594v-46.094h-9.0312z"/>
<path id="aj" d="m18.109 8.2031v-29h-9.0312v75.484h9.0312v-8.2969q2.8438 4.875 7.1562 7.2344 4.3281 2.375 10.328 2.375 9.9688 0 16.188-7.9062 6.2344-7.9062 6.2344-20.797t-6.2344-20.812q-6.2188-7.9062-16.188-7.9062-6 0-10.328 2.375-4.3125 2.375-7.1562 7.25zm30.578 19.094q0 9.9062-4.0781 15.547t-11.203 5.6406q-7.1406 0-11.219-5.6406t-4.0781-15.547 4.0781-15.547 11.219-5.6406q7.125 0 11.203 5.6406t4.0781 15.547z"/>
<path id="x" d="m56.203 29.594v-4.3906h-41.312q0.59375-9.2812 5.5938-14.141t13.938-4.8594q5.1719 0 10.031 1.2656t9.6562 3.8125v-8.5q-4.8438-2.0469-9.9219-3.125t-10.297-1.0781q-13.094 0-20.734 7.6094-7.6406 7.625-7.6406 20.625 0 13.422 7.25 21.297 7.25 7.8906 19.562 7.8906 11.031 0 17.453-7.1094 6.4219-7.0938 6.4219-19.297zm-8.9844 2.6406q-0.09375 7.3594-4.125 11.75-4.0312 4.4062-10.672 4.4062-7.5156 0-12.031-4.25t-5.2031-11.969z"/>
<path id="ab" d="m3.7188 0v7.4688q8.875 1.375 11.609 7.5156 3.3281 8.6562 3.3281 30.766v8.9375h36.953v-54.688h-8.9844v47.516h-18.984v-5.4219q0-21.094-4.2969-30.562-4.5938-10.109-19.625-11.531z"/>
</defs>
<use xlink:href="#ai"/>
<use x="54.980469" xlink:href="#bd"/>
<use x="130.419922" xlink:href="#n"/>
<use x="191.601562" xlink:href="#q"/>
<use x="249.853516" xlink:href="#aj"/>
<use x="313.330078" xlink:href="#x"/>
<use x="374.853516" xlink:href="#ab"/>
</g>
</g>
<g clip-path="url(#a)">
<g transform="translate(156.93 690.03) scale(.1 -.1)">
<defs>
<path id="w" d="m9.0781 54.688h9.0312v-22.312h29.156v22.312h9.0312v-54.688h-9.0312v25.203h-29.156v-25.203h-9.0312z"/>
<path id="r" d="m34.281 27.484q-10.891 0-15.094-2.4844t-4.2031-8.5q0-4.7812 3.1562-7.5938 3.1562-2.7969 8.5625-2.7969 7.4844 0 12 5.2969t4.5156 14.078v2zm17.922 3.7188v-31.203h-8.9844v8.2969q-3.0781-4.9688-7.6719-7.3438t-11.234-2.375q-8.3906 0-13.359 4.7188-4.9531 4.7188-4.9531 12.625 0 9.2188 6.1719 13.906 6.1875 4.6875 18.438 4.6875h12.609v0.89062q0 6.2031-4.0781 9.5938t-11.453 3.3906q-4.6875 0-9.1406-1.125-4.4375-1.125-8.5312-3.375v8.3125q4.9219 1.9062 9.5625 2.8438 4.6406 0.95312 9.0312 0.95312 11.875 0 17.734-6.1562 5.8594-6.1406 5.8594-18.641z"/>
</defs>
<use xlink:href="#w"/>
<use x="65.380859" xlink:href="#r"/>
</g>
</g>
<g clip-path="url(#a)">
<g transform="translate(166.71 690.03) scale(.1 -.1)">
<defs>
<path id="ad" d="m34.469 29.5q6.0625-1.1719 9.4219-4.75 3.375-3.5625 3.375-8.8281 0-8.4531-6.2969-12.906-6.2969-4.4375-17.922-4.4375-3.9062 0-8.0312 0.6875t-8.5156 2.0469v8.3594q3.4688-1.8125 7.6094-2.7188 4.1562-0.89062 8.6875-0.89062 7.375 0 11.5 2.7344t4.125 7.125q0 4.2969-3.6562 6.9062t-10.344 2.6094h-7.2344v7.4219h7.5625q5.6719 0 8.9688 2.1719t3.2969 5.5938q0 3.125-3.4062 5.375-3.3906 2.25-9.1875 2.25-3.4688 0-7.4062-0.64062-3.9219-0.64062-8.6719-2.0469v8.1562q4.7969 1.1719 8.9375 1.75 4.1562 0.59375 7.8594 0.59375 9.5781 0 15.109-3.8438 5.5469-3.8281 5.5469-10.719 0-4.5312-2.9375-7.6875-2.9219-3.1406-8.3906-4.3125z"/>
<path id="ap" d="m9.0781 54.688h8.9375v-25.688l25.344 25.688h11.031l-20.891-21.141 23.578-33.547h-10.062l-19.375 27.594-9.625-9.7656v-17.828h-8.9375z"/>
</defs>
<use xlink:href="#ad"/>
<use x="53.173828" xlink:href="#r"/>
<use x="114.453125" xlink:href="#ap"/>
<use x="174.853516" xlink:href="#r"/>
<use x="236.132812" xlink:href="#q"/>
<use x="294.384766" xlink:href="#w"/>
<use x="359.765625" xlink:href="#n"/>
<use x="420.947266" xlink:href="#x"/>
</g>
</g>
<g clip-path="url(#a)">
<g transform="translate(208.98 690.03) scale(.1 -.1)">
<defs>
<path id="bg" d="m31.109 56q11.719 0 18.406-7.625 6.6875-7.6094 6.6875-21.078 0-13.422-6.6875-21.078-6.6875-7.6406-18.406-7.6406-11.766 0-18.266 7.4219t-6.8438 21.297l-0.28125 11.188q-0.25 5.7969-0.25 7.8125 0 7.8125 2.8281 13.562 4.4531 9.0312 12.141 12.938t20.578 4.0156q5.9531 0.046875 8.5938 0.875l2.4844-7.125q-2.3906-0.98438-4.5781-1.0312l-12.219-0.82812q-6.1406-0.4375-9.8594-2.5938-9.7188-5.7031-10.641-13.172l-0.34375-2.7344q6.3438 5.7969 16.656 5.7969zm0-7.6094q-7.2344 0-11.438-5.6406-4.1875-5.6406-4.1875-15.453t4.1719-15.453 11.453-5.6406q7.1719 0 11.375 5.6562 4.2031 5.6719 4.2031 15.438 0 9.7188-4.2031 15.406t-11.375 5.6875z"/>
</defs>
<use xlink:href="#w"/>
<use x="65.380859" xlink:href="#x"/>
<use x="126.904297" xlink:href="#bg"/>
<use x="188.574219" xlink:href="#n"/>
</g>
</g>
<g clip-path="url(#a)">
<g transform="translate(253.57 690.03) scale(.1 -.1)">
<defs>
<path id="ba" d="m11.719 12.406h10.297v-8.4062l-8-15.625h-6.2969l4 15.625z"/>
</defs>
<use xlink:href="#ba"/>
</g>
</g>
<g clip-path="url(#a)">
<g transform="translate(273.69 690.03) scale(.1 -.1)">
<use xlink:href="#ai"/>
<use x="54.980469" xlink:href="#q"/>
<use x="113.232422" xlink:href="#n"/>
<use x="174.414062" xlink:href="#ac"/>
<use x="239.404297" xlink:href="#ab"/>
<use x="303.320312" xlink:href="#n"/>
</g>
</g>
<g clip-path="url(#a)">
<g transform="translate(313.54 690.03) scale(.1 -.1)">
<use xlink:href="#q"/>
<use x="58.251953" xlink:href="#n"/>
<use x="119.433594" xlink:href="#ab"/>
<use x="183.349609" xlink:href="#aa"/>
<use x="242.285156" xlink:href="#ap"/>
<use x="302.685547" xlink:href="#n"/>
</g>
</g>
<g clip-path="url(#a)">
<g transform="translate(351.03 690.03) scale(.1 -.1)">
<defs>
<path id="av" d="m54.891 54.688-19.781-26.609 20.797-28.078h-10.594l-15.922 21.484-15.906-21.484h-10.609l21.25 28.609-19.438 26.078h10.594l14.5-19.484 14.5 19.484z"/>
</defs>
<use xlink:href="#ad"/>
<use x="53.173828" xlink:href="#r"/>
<use x="114.453125" xlink:href="#av"/>
<use x="173.632812" xlink:href="#n"/>
<use x="234.814453" xlink:href="#q"/>
<use x="293.066406" xlink:href="#x"/>
<use x="354.589844" xlink:href="#q"/>
<use x="412.841797" xlink:href="#aa"/>
</g>
</g>
<g clip-path="url(#a)">
<g transform="translate(421.93 690.03) scale(.1 -.1)">
<defs>
<path id="d" d="m10.688 12.406h10.312v-12.406h-10.312z"/>
</defs>
<use xlink:href="#d"/>
<use x="31.787109" xlink:href="#d"/>
<use x="63.574219" xlink:href="#d"/>
</g>
</g>
<g clip-path="url(#a)">
<g transform="translate(473.9 690.03) scale(.1 -.1)">
<defs>
<path id="az" d="m4.8906 31.391h26.312v-8h-26.312z"/>
</defs>
<use xlink:href="#az"/>
</g>
</g>
<g clip-path="url(#a)">
<g transform="translate(502.14 690.03) scale(.1 -.1)">
<defs>
<path id="bh" d="m39.406 66.219q-10.75 0-17.078-8.0156-6.3125-8-6.3125-21.828 0-13.766 6.3125-21.781 6.3281-8 17.078-8 10.734 0 17.016 8 6.2812 8.0156 6.2812 21.781 0 13.828-6.2812 21.828-6.2812 8.0156-17.016 8.0156zm0 8q15.328 0 24.5-10.281 9.1875-10.281 9.1875-27.562 0-17.234-9.1875-27.516-9.1719-10.281-24.5-10.281-15.375 0-24.594 10.25-9.2031 10.266-9.2031 27.547t9.2031 27.562q9.2188 10.281 24.594 10.281z"/>
<path id="y" d="m21.625 7.1719h26.078v40.344h-18.891v-6.8438q0-20.109-5.7656-30.859zm-13.031 0q4.4375 1.9531 6.3906 6.1094 4.7969 10.297 4.7969 31.062v10.344h36.953v-47.516h7.1875v-20.984h-7.1875v13.812h-44.328v-13.812h-7.1875v20.984z"/>
<path id="be" d="m40.578 54.688h8.9375v-25.688l23.875 25.688h10.453l-19.641-21.047 22.469-33.641h-9.625l-18.406 27.641-9.125-9.8125v-17.828h-8.9375v17.828l-9.125 9.8125-18.422-27.641h-9.6094l22.453 33.641-19.625 21.047h10.453l23.875-25.688z"/>
</defs>
<use xlink:href="#bh"/>
<use x="78.710938" xlink:href="#y"/>
<use x="147.851562" xlink:href="#w"/>
<use x="213.232422" xlink:href="#r"/>
<use x="274.511719" xlink:href="#be"/>
<use x="364.599609" xlink:href="#y"/>
<use x="433.740234" xlink:href="#au"/>
</g>
</g>
<g clip-path="url(#a)">
<g transform="translate(579.91 690.03) scale(.1 -.1)">
<use xlink:href="#ao"/>
</g>
</g>
<g clip-path="url(#a)">
<g transform="translate(635.39 690.03) scale(.1 -.1)">
<use xlink:href="#ad"/>
<use x="53.173828" xlink:href="#r"/>
</g>
</g>
<g clip-path="url(#a)">
<g transform="translate(689.34 690.03) scale(.1 -.1)">
<use xlink:href="#n"/>
<use x="61.181641" xlink:href="#y"/>
<use x="130.322266" xlink:href="#ac"/>
<use x="195.3125" xlink:href="#w"/>
</g>
</g>
<g clip-path="url(#a)">
<g transform="translate(753.96 690.03) scale(.1 -.1)">
<use xlink:href="#y"/>
<use x="69.140625" xlink:href="#x"/>
<use x="130.664062" xlink:href="#w"/>
<use x="196.044922" xlink:href="#aa"/>
</g>
</g>
<g clip-path="url(#a)">
<g transform="translate(818.17 690.03) scale(.1 -.1)">
<defs>
<path id="bf" d="m18.062 25.203v-18.031h12.797q6.1562 0 9.375 2.3125 3.2188 2.3281 3.2188 6.7344 0 4.3906-3.2188 6.6875t-9.375 2.2969zm0 22.312v-15.141h11.828q5.0781 0 8.2969 2.0156 3.2188 2.0312 3.2188 5.6562 0 3.6094-3.2188 5.5312-3.2188 1.9375-8.2969 1.9375zm-8.9844 7.1719h21.391q9.625 0 14.797-3.5156t5.1719-10.016q0-5.0156-2.6406-7.9844-2.625-2.9531-7.8125-3.6719 6.2031-1.1719 9.625-4.8906 3.4219-3.7031 3.4219-9.2812 0-7.3125-5.6406-11.328-5.6406-4-16.094-4h-22.219z"/>
</defs>
<use xlink:href="#bf"/>
<use x="58.935547" xlink:href="#ac"/>
<use x="123.925781" xlink:href="#y"/>
<use x="193.066406" xlink:href="#x"/>
<use x="254.589844" xlink:href="#ab"/>
</g>
</g>
<g clip-path="url(#a)">
<g transform="translate(889.35 690.03) scale(.1 -.1)">
<use xlink:href="#ad"/>
<use x="53.173828" xlink:href="#r"/>
<use x="114.453125" xlink:href="#av"/>
<use x="173.632812" xlink:href="#n"/>
<use x="234.814453" xlink:href="#y"/>
</g>
</g>
<g clip-path="url(#a)">
<g transform="translate(959.32 690.03) scale(.1 -.1)">
<defs>
<path id="bc" d="m56.297 0h-47.219v54.688h9.0312v-47.516h29.156v47.516h9.0312v-47.516h7.1875v-20.984h-7.1875z"/>
</defs>
<use xlink:href="#ai"/>
<use x="54.980469" xlink:href="#n"/>
<use x="116.162109" xlink:href="#ab"/>
<use x="180.078125" xlink:href="#w"/>
<use x="245.458984" xlink:href="#bc"/>
<use x="313.525391" xlink:href="#r"/>
</g>
</g>
<g clip-path="url(#a)">
<g transform="translate(1039.6 690.03) scale(.1 -.1)">
<use xlink:href="#ai"/>
<use x="54.980469" xlink:href="#n"/>
<use x="116.162109" xlink:href="#aj"/>
<use x="179.638672" xlink:href="#n"/>
<use x="240.820312" xlink:href="#ap"/>
</g>
</g>
<g clip-path="url(#a)">
<g transform="translate(1124.9 690.03) scale(.1 -.1)">
<use xlink:href="#q"/>
<use x="58.251953" xlink:href="#aj"/>
<use x="121.728516" xlink:href="#ac"/>
</g>
</g>
<g clip-path="url(#a)">
<g transform="translate(1205 690.03) scale(.1 -.1)">
<use xlink:href="#aj"/>
<use x="63.476562" xlink:href="#r"/>
<use x="124.755859" xlink:href="#ad"/>
<use x="177.929688" xlink:href="#r"/>
</g>
</g>
<g clip-path="url(#a)">
<g transform="translate(1300.8 690.03) scale(.1 -.1)">
<defs>
<path id="bb" d="m15.094 12.406h9.9062v-12.406h-9.9062zm0 60.5h9.9062v-31.984l-0.96875-17.438h-7.9219l-1.0156 17.438z"/>
</defs>
<use xlink:href="#bb"/>
</g>
</g>
<g clip-path="url(#a)">
<g transform="translate(1284.7 255.43) scale(.1 -.1)">
<defs>
<path id="s" d="m9.8125 72.906h9.8594v-72.906h-9.8594z"/>
<path id="ak" d="m9.8125 72.906h14.703l18.594-49.609 18.703 49.609h14.703v-72.906h-9.625v64.016l-18.797-50h-9.9062l-18.797 50v-64.016h-9.5781z"/>
</defs>
<use xlink:href="#s"/>
<use x="29.492188" xlink:href="#ak"/>
<use x="115.771484" xlink:href="#t"/>
<use x="176.074219" xlink:href="#af"/>
<use x="231.787109" xlink:href="#s"/>
<use x="261.279297" xlink:href="#u"/>
<use x="331.103516" xlink:href="#s"/>
<use x="360.595703" xlink:href="#e"/>
</g>
</g>
<g clip-path="url(#a)">
<g transform="translate(359.66 582.88) scale(.1 -.1)">
<use xlink:href="#s"/>
<use x="29.492188" xlink:href="#ak"/>
<use x="115.771484" xlink:href="#t"/>
<use x="176.074219" xlink:href="#af"/>
<use x="231.787109" xlink:href="#s"/>
<use x="261.279297" xlink:href="#u"/>
<use x="331.103516" xlink:href="#s"/>
<use x="360.595703" xlink:href="#e"/>
</g>
</g>
<g clip-path="url(#a)">
<g transform="translate(359.66 582.88) scale(.1 -.1)">
<use xlink:href="#s"/>
<use x="29.492188" xlink:href="#ak"/>
<use x="115.771484" xlink:href="#t"/>
<use x="176.074219" xlink:href="#af"/>
<use x="231.787109" xlink:href="#s"/>
<use x="261.279297" xlink:href="#u"/>
<use x="331.103516" xlink:href="#s"/>
<use x="360.595703" xlink:href="#e"/>
</g>
</g>
<g clip-path="url(#a)">
<g transform="translate(293.93 35.487) scale(.1 -.1)">
<defs>
<path id="c" d="m12.406 8.2969h16.109v55.625l-17.531-3.5156v8.9844l17.438 3.5156h9.8594v-64.609h16.109v-8.2969h-41.984z"/>
</defs>
<use xlink:href="#c"/>
<use x="63.623047" xlink:href="#d"/>
<use x="95.410156" xlink:href="#c"/>
</g>
</g>
<g clip-path="url(#a)">
<g transform="translate(54.23 582.88) scale(.1 -.1)">
<defs>
<path id="o" d="m19.188 8.2969h34.422v-8.2969h-46.281v8.2969q5.6094 5.8125 15.297 15.594 9.7031 9.7969 12.188 12.641 4.7344 5.3125 6.6094 9 1.8906 3.6875 1.8906 7.25 0 5.8125-4.0781 9.4688-4.0781 3.6719-10.625 3.6719-4.6406 0-9.7969-1.6094-5.1406-1.6094-11-4.8906v9.9688q5.9531 2.3906 11.125 3.6094 5.1875 1.2188 9.4844 1.2188 11.328 0 18.062-5.6719 6.7344-5.6562 6.7344-15.125 0-4.5-1.6875-8.5312-1.6719-4.0156-6.125-9.4844-1.2188-1.4219-7.7656-8.1875-6.5312-6.7656-18.453-18.922z"/>
</defs>
<use xlink:href="#c"/>
<use x="63.623047" xlink:href="#d"/>
<use x="95.410156" xlink:href="#o"/>
</g>
</g>
<g clip-path="url(#a)">
<g transform="translate(117.54 365.02) scale(.1 -.1)">
<defs>
<path id="m" d="m40.578 39.312q7.0781-1.5156 11.047-6.3125 3.9844-4.7812 3.9844-11.812 0-10.781-7.4219-16.703-7.4219-5.9062-21.094-5.9062-4.5781 0-9.4375 0.90625t-10.031 2.7188v9.5156q4.0938-2.3906 8.9688-3.6094 4.8906-1.2188 10.219-1.2188 9.2656 0 14.125 3.6562t4.8594 10.641q0 6.4531-4.5156 10.078-4.5156 3.6406-12.562 3.6406h-8.5v8.1094h8.8906q7.2656 0 11.125 2.9062t3.8594 8.375q0 5.6094-3.9844 8.6094-3.9688 3.0156-11.391 3.0156-4.0625 0-8.7031-0.89062-4.6406-0.875-10.203-2.7188v8.7812q5.625 1.5625 10.531 2.3438t9.25 0.78125q11.234 0 17.766-5.1094 6.5469-5.0938 6.5469-13.781 0-6.0625-3.4688-10.234t-9.8594-5.7812z"/>
</defs>
<use xlink:href="#c"/>
<use x="63.623047" xlink:href="#d"/>
<use x="95.410156" xlink:href="#m"/>
</g>
</g>
<g clip-path="url(#a)">
<g transform="translate(324.81 474.23) scale(.1 -.1)">
<defs>
<path id="p" d="m37.797 64.312-24.906-38.922h24.906zm-2.5938 8.5938h12.406v-47.516h10.406v-8.2031h-10.406v-17.188h-9.8125v17.188h-32.906v9.5156z"/>
</defs>
<use xlink:href="#c"/>
<use x="63.623047" xlink:href="#d"/>
<use x="95.410156" xlink:href="#p"/>
</g>
</g>
<g clip-path="url(#a)">
<g transform="translate(427.25 145.57) scale(.1 -.1)">
<defs>
<path id="ah" d="m10.797 72.906h38.719v-8.3125h-29.688v-17.859q2.1406 0.73438 4.2812 1.0938 2.1562 0.35938 4.3125 0.35938 12.203 0 19.328-6.6875 7.1406-6.6875 7.1406-18.109 0-11.766-7.3281-18.297-7.3281-6.5156-20.656-6.5156-4.5938 0-9.3594 0.78125-4.75 0.78125-9.8281 2.3438v9.9219q4.3906-2.3906 9.0781-3.5625t9.9062-1.1719q8.4531 0 13.375 4.4375 4.9375 4.4375 4.9375 12.062 0 7.6094-4.9375 12.047-4.9219 4.4531-13.375 4.4531-3.9531 0-7.8906-0.875-3.9219-0.875-8.0156-2.7344z"/>
</defs>
<use xlink:href="#c"/>
<use x="63.623047" xlink:href="#d"/>
<use x="95.410156" xlink:href="#ah"/>
</g>
</g>
<g clip-path="url(#a)">
<g transform="translate(787.91 255.43) scale(.1 -.1)">
<use xlink:href="#c"/>
<use x="63.623047" xlink:href="#d"/>
<use x="95.410156" xlink:href="#c"/>
<use x="159.033203" xlink:href="#c"/>
</g>
</g>
<g clip-path="url(#a)">
<g transform="translate(787.91 365.02) scale(.1 -.1)">
<use xlink:href="#c"/>
<use x="63.623047" xlink:href="#d"/>
<use x="95.410156" xlink:href="#c"/>
<use x="159.033203" xlink:href="#o"/>
</g>
</g>
<g clip-path="url(#a)">
<g transform="translate(516.65 582.88) scale(.1 -.1)">
<use xlink:href="#c"/>
<use x="63.623047" xlink:href="#d"/>
<use x="95.410156" xlink:href="#c"/>
<use x="159.033203" xlink:href="#m"/>
</g>
</g>
<g clip-path="url(#a)">
<g transform="translate(571.78 582.88) scale(.1 -.1)">
<use xlink:href="#c"/>
<use x="63.623047" xlink:href="#d"/>
<use x="95.410156" xlink:href="#c"/>
<use x="159.033203" xlink:href="#p"/>
</g>
</g>
<g clip-path="url(#a)">
<g transform="translate(692.27 474.23) scale(.1 -.1)">
<use xlink:href="#c"/>
<use x="63.623047" xlink:href="#d"/>
<use x="95.410156" xlink:href="#c"/>
<use x="159.033203" xlink:href="#ah"/>
</g>
</g>
<g clip-path="url(#a)">
<g transform="translate(822.96 582.88) scale(.1 -.1)">
<defs>
<path id="at" d="m33.016 40.375q-6.6406 0-10.531-4.5469-3.875-4.5312-3.875-12.438 0-7.8594 3.875-12.438 3.8906-4.5625 10.531-4.5625t10.516 4.5625q3.875 4.5781 3.875 12.438 0 7.9062-3.875 12.438-3.875 4.5469-10.516 4.5469zm19.578 30.922v-8.9844q-3.7188 1.75-7.5 2.6719-3.7812 0.9375-7.5 0.9375-9.7656 0-14.922-6.5938-5.1406-6.5938-5.875-19.922 2.875 4.25 7.2188 6.5156 4.3594 2.2656 9.5781 2.2656 10.984 0 17.359-6.6719 6.375-6.6562 6.375-18.125 0-11.234-6.6406-18.031-6.6406-6.7812-17.672-6.7812-12.656 0-19.344 9.6875-6.6875 9.7031-6.6875 28.109 0 17.281 8.2031 27.562t22.016 10.281q3.7188 0 7.5-0.73438t7.8906-2.1875z"/>
</defs>
<use xlink:href="#c"/>
<use x="63.623047" xlink:href="#d"/>
<use x="95.410156" xlink:href="#c"/>
<use x="159.033203" xlink:href="#at"/>
</g>
</g>
<g clip-path="url(#a)">
<g transform="translate(930.17 474.23) scale(.1 -.1)">
<defs>
<path id="as" d="m8.2031 72.906h46.875v-4.2031l-26.469-68.703h-10.297l24.906 64.594h-35.016z"/>
</defs>
<use xlink:href="#c"/>
<use x="63.623047" xlink:href="#d"/>
<use x="95.410156" xlink:href="#c"/>
<use x="159.033203" xlink:href="#as"/>
</g>
</g>
<g clip-path="url(#a)">
<g transform="translate(1193.6 474.23) scale(.1 -.1)">
<defs>
<path id="am" d="m31.781 34.625q-7.0312 0-11.062-3.7656-4.0156-3.7656-4.0156-10.344 0-6.5938 4.0156-10.359 4.0312-3.7656 11.062-3.7656t11.078 3.7812q4.0625 3.7969 4.0625 10.344 0 6.5781-4.0312 10.344-4.0156 3.7656-11.109 3.7656zm-9.8594 4.1875q-6.3438 1.5625-9.8906 5.9062-3.5312 4.3594-3.5312 10.609 0 8.7344 6.2188 13.812 6.2344 5.0781 17.062 5.0781 10.891 0 17.094-5.0781t6.2031-13.812q0-6.25-3.5469-10.609-3.5312-4.3438-9.8281-5.9062 7.125-1.6562 11.094-6.5 3.9844-4.8281 3.9844-11.797 0-10.609-6.4688-16.281-6.4688-5.6562-18.531-5.6562-12.047 0-18.531 5.6562-6.4688 5.6719-6.4688 16.281 0 6.9688 4 11.797 4.0156 4.8438 11.141 6.5zm-3.6094 15.578q0-5.6562 3.5312-8.8281 3.5469-3.1719 9.9375-3.1719 6.3594 0 9.9375 3.1719 3.5938 3.1719 3.5938 8.8281 0 5.6719-3.5938 8.8438-3.5781 3.1719-9.9375 3.1719-6.3906 0-9.9375-3.1719-3.5312-3.1719-3.5312-8.8438z"/>
</defs>
<use xlink:href="#c"/>
<use x="63.623047" xlink:href="#d"/>
<use x="95.410156" xlink:href="#c"/>
<use x="159.033203" xlink:href="#am"/>
</g>
</g>
<g clip-path="url(#a)">
<g transform="translate(1083.3 582.88) scale(.1 -.1)">
<defs>
<path id="al" d="m10.984 1.5156v8.9844q3.7188-1.7656 7.5156-2.6875 3.8125-0.92188 7.4844-0.92188 9.7656 0 14.906 6.5625 5.1562 6.5625 5.8906 19.953-2.8281-4.2031-7.1875-6.4531-4.3438-2.25-9.6094-2.25-10.938 0-17.312 6.6094-6.375 6.625-6.375 18.109 0 11.219 6.6406 18 6.6406 6.7969 17.672 6.7969 12.656 0 19.312-9.7031 6.6719-9.6875 6.6719-28.141 0-17.234-8.1875-27.516-8.1719-10.281-21.984-10.281-3.7188 0-7.5312 0.73438-3.7969 0.73438-7.9062 2.2031zm19.625 30.906q6.6406 0 10.516 4.5312 3.8906 4.5469 3.8906 12.469 0 7.8594-3.8906 12.422-3.875 4.5625-10.516 4.5625t-10.516-4.5625-3.875-12.422q0-7.9219 3.875-12.469 3.875-4.5312 10.516-4.5312z"/>
</defs>
<use xlink:href="#c"/>
<use x="63.623047" xlink:href="#d"/>
<use x="95.410156" xlink:href="#c"/>
<use x="159.033203" xlink:href="#al"/>
</g>
</g>
<g clip-path="url(#a)">
<g transform="translate(1205.9 582.88) scale(.1 -.1)">
<defs>
<path id="an" d="m31.781 66.406q-7.6094 0-11.453-7.5-3.8281-7.4844-3.8281-22.531 0-14.984 3.8281-22.484 3.8438-7.5 11.453-7.5 7.6719 0 11.5 7.5 3.8438 7.5 3.8438 22.484 0 15.047-3.8438 22.531-3.8281 7.5-11.5 7.5zm0 7.8125q12.266 0 18.734-9.7031 6.4688-9.6875 6.4688-28.141 0-18.406-6.4688-28.109-6.4688-9.6875-18.734-9.6875-12.25 0-18.719 9.6875-6.4688 9.7031-6.4688 28.109 0 18.453 6.4688 28.141 6.4688 9.7031 18.719 9.7031z"/>
</defs>
<use xlink:href="#c"/>
<use x="63.623047" xlink:href="#d"/>
<use x="95.410156" xlink:href="#o"/>
<use x="159.033203" xlink:href="#an"/>
</g>
</g>
<g clip-path="url(#a)">
<g transform="translate(893.41 582.88) scale(.1 -.1)">
<use xlink:href="#c"/>
<use x="63.623047" xlink:href="#d"/>
<use x="95.410156" xlink:href="#o"/>
<use x="159.033203" xlink:href="#c"/>
</g>
</g>
<g clip-path="url(#a)">
<g transform="translate(966.93 582.88) scale(.1 -.1)">
<use xlink:href="#c"/>
<use x="63.623047" xlink:href="#d"/>
<use x="95.410156" xlink:href="#o"/>
<use x="159.033203" xlink:href="#o"/>
</g>
</g>
<g clip-path="url(#a)">
<g transform="translate(629.98 582.88) scale(.1 -.1)">
<use xlink:href="#c"/>
<use x="63.623047" xlink:href="#d"/>
<use x="95.410156" xlink:href="#o"/>
<use x="159.033203" xlink:href="#m"/>
</g>
</g>
<g clip-path="url(#a)">
<g transform="translate(691.25 582.88) scale(.1 -.1)">
<use xlink:href="#c"/>
<use x="63.623047" xlink:href="#d"/>
<use x="95.410156" xlink:href="#o"/>
<use x="159.033203" xlink:href="#p"/>
</g>
</g>
<g clip-path="url(#a)">
<g transform="translate(755.57 582.88) scale(.1 -.1)">
<use xlink:href="#c"/>
<use x="63.623047" xlink:href="#d"/>
<use x="95.410156" xlink:href="#o"/>
<use x="159.033203" xlink:href="#ah"/>
</g>
</g>
<g clip-path="url(#a)">
<g transform="translate(280.78 582.88) scale(.1 -.1)">
<use xlink:href="#c"/>
<use x="63.623047" xlink:href="#d"/>
<use x="95.410156" xlink:href="#o"/>
<use x="159.033203" xlink:href="#am"/>
</g>
</g>
<g clip-path="url(#a)">
<g transform="translate(320.61 582.88) scale(.1 -.1)">
<use xlink:href="#c"/>
<use x="63.623047" xlink:href="#d"/>
<use x="95.410156" xlink:href="#o"/>
<use x="159.033203" xlink:href="#al"/>
</g>
</g>
<g clip-path="url(#a)">
<g transform="translate(363.49 582.88) scale(.1 -.1)">
<use xlink:href="#c"/>
<use x="63.623047" xlink:href="#d"/>
<use x="95.410156" xlink:href="#m"/>
<use x="159.033203" xlink:href="#an"/>
</g>
</g>
<g clip-path="url(#a)">
<g transform="translate(60.238 582.88) scale(.1 -.1)">
<use xlink:href="#c"/>
<use x="63.623047" xlink:href="#d"/>
<use x="95.410156" xlink:href="#m"/>
<use x="159.033203" xlink:href="#c"/>
</g>
</g>
<g clip-path="url(#a)">
<g transform="translate(88.828 474.23) scale(.1 -.1)">
<use xlink:href="#c"/>
<use x="63.623047" xlink:href="#d"/>
<use x="95.410156" xlink:href="#m"/>
<use x="159.033203" xlink:href="#o"/>
</g>
</g>
<g clip-path="url(#a)">
<g transform="translate(127.63 582.88) scale(.1 -.1)">
<use xlink:href="#c"/>
<use x="63.623047" xlink:href="#d"/>
<use x="95.410156" xlink:href="#m"/>
<use x="159.033203" xlink:href="#m"/>
</g>
</g>
<g clip-path="url(#a)">
<g transform="translate(180.72 474.23) scale(.1 -.1)">
<use xlink:href="#c"/>
<use x="63.623047" xlink:href="#d"/>
<use x="95.410156" xlink:href="#m"/>
<use x="159.033203" xlink:href="#p"/>
</g>
</g>
<g clip-path="url(#a)">
<g transform="translate(152.13 582.88) scale(.1 -.1)">
<use xlink:href="#c"/>
<use x="63.623047" xlink:href="#d"/>
<use x="95.410156" xlink:href="#m"/>
<use x="159.033203" xlink:href="#ah"/>
</g>
</g>
<g clip-path="url(#a)">
<g transform="translate(179.7 582.88) scale(.1 -.1)">
<use xlink:href="#c"/>
<use x="63.623047" xlink:href="#d"/>
<use x="95.410156" xlink:href="#m"/>
<use x="159.033203" xlink:href="#at"/>
</g>
</g>
<g clip-path="url(#a)">
<g transform="translate(210.33 582.88) scale(.1 -.1)">
<use xlink:href="#c"/>
<use x="63.623047" xlink:href="#d"/>
<use x="95.410156" xlink:href="#m"/>
<use x="159.033203" xlink:href="#as"/>
</g>
</g>
<g clip-path="url(#a)">
<g transform="translate(72.491 582.88) scale(.1 -.1)">
<use xlink:href="#c"/>
<use x="63.623047" xlink:href="#d"/>
<use x="95.410156" xlink:href="#m"/>
<use x="159.033203" xlink:href="#am"/>
</g>
</g>
<g clip-path="url(#a)">
<g transform="translate(87.807 582.88) scale(.1 -.1)">
<use xlink:href="#c"/>
<use x="63.623047" xlink:href="#d"/>
<use x="95.410156" xlink:href="#m"/>
<use x="159.033203" xlink:href="#al"/>
</g>
</g>
<g clip-path="url(#a)">
<g transform="translate(106.19 582.88) scale(.1 -.1)">
<use xlink:href="#c"/>
<use x="63.623047" xlink:href="#d"/>
<use x="95.410156" xlink:href="#p"/>
<use x="159.033203" xlink:href="#an"/>
</g>
</g>
<g clip-path="url(#a)">
<g transform="translate(244.03 582.88) scale(.1 -.1)">
<use xlink:href="#c"/>
<use x="63.623047" xlink:href="#d"/>
<use x="95.410156" xlink:href="#p"/>
<use x="159.033203" xlink:href="#c"/>
</g>
</g>
<g clip-path="url(#a)">
<g transform="translate(415.56 582.88) scale(.1 -.1)">
<use xlink:href="#c"/>
<use x="63.623047" xlink:href="#d"/>
<use x="95.410156" xlink:href="#p"/>
<use x="159.033203" xlink:href="#o"/>
</g>
</g>
<g clip-path="url(#a)">
<g transform="translate(464.57 582.88) scale(.1 -.1)">
<use xlink:href="#c"/>
<use x="63.623047" xlink:href="#d"/>
<use x="95.410156" xlink:href="#p"/>
<use x="159.033203" xlink:href="#m"/>
</g>
</g>
<g clip-path="url(#a)">
<g transform="translate(1291.6 582.88) scale(.1 -.1)">
<use xlink:href="#c"/>
<use x="63.623047" xlink:href="#d"/>
<use x="95.410156" xlink:href="#p"/>
<use x="159.033203" xlink:href="#p"/>
</g>
</g>
<defs>
<clipPath id="a">
<rect width="1368" height="720"/>
</clipPath>
</defs>
</svg>
