<?xml version="1.0" encoding="UTF-8"?>
<!DOCTYPE svg  PUBLIC '-//W3C//DTD SVG 1.1//EN'  'http://www.w3.org/Graphics/SVG/1.1/DTD/svg11.dtd'>
<svg width="810.67pt" height="426.67pt" version="1.1" viewBox="0 0 810.67 426.67" xmlns="http://www.w3.org/2000/svg" xmlns:xlink="http://www.w3.org/1999/xlink">
<metadata>
<rdf:RDF xmlns:cc="http://creativecommons.org/ns#" xmlns:dc="http://purl.org/dc/elements/1.1/" xmlns:rdf="http://www.w3.org/1999/02/22-rdf-syntax-ns#">
<cc:Work>
<dc:type rdf:resource="http://purl.org/dc/dcmitype/StillImage"/>
<dc:date>2021-01-21T01:16:31.620067</dc:date>
<dc:format>image/svg+xml</dc:format>
<dc:creator>
<cc:Agent>
<dc:title>Matplotlib v3.3.3, https://matplotlib.org/</dc:title>
</cc:Agent>
</dc:creator>
</cc:Work>
</rdf:RDF>
</metadata>
<defs>
<style type="text/css">*{stroke-linecap:butt;stroke-linejoin:round;}</style>
</defs>
<path d="m0 426.67h810.67v-426.67h-810.67z" fill="#fff"/>
<g fill="none" stroke="#000">
<path d="m238.04 19.394-201.19 292.24" clip-path="url(#a)"/>
<path d="m238.04 19.394-176.95 292.24" clip-path="url(#a)"/>
<path d="m238.04 19.394-42.268 97.805" clip-path="url(#a)"/>
<path d="m238.04 19.394 311.29 97.805" clip-path="url(#a)"/>
<path d="m238.04 19.394 109.11 292.24" clip-path="url(#a)"/>
<path d="m36.848 311.64v95.635" clip-path="url(#a)"/>
<path d="m61.091 311.64-9.697 95.635" clip-path="url(#a)"/>
<path d="m61.091 311.64 9.697 95.635" clip-path="url(#a)"/>
<path d="m195.77 117.2 98.047 97.474" clip-path="url(#a)"/>
<path d="m195.77 117.2-70.034 97.474" clip-path="url(#a)"/>
<path d="m195.77 117.2 1.0774 194.44" clip-path="url(#a)"/>
<path d="m195.77 117.2 68.956 97.474" clip-path="url(#a)"/>
<path d="m549.33 117.2 224.48 97.474" clip-path="url(#a)"/>
<path d="m549.33 117.2-144 194.44" clip-path="url(#a)"/>
<path d="m549.33 117.2-80.97 194.44" clip-path="url(#a)"/>
<path d="m549.33 117.2-13.091 194.44" clip-path="url(#a)"/>
<path d="m549.33 117.2 59.636 194.44" clip-path="url(#a)"/>
<path d="m549.33 117.2 178.42 97.474" clip-path="url(#a)"/>
<path d="m405.33 311.64v95.635" clip-path="url(#a)"/>
<path d="m468.36 311.64v95.635" clip-path="url(#a)"/>
<path d="m536.24 311.64v95.635" clip-path="url(#a)"/>
<path d="m608.97 311.64v95.635" clip-path="url(#a)"/>
<path d="m727.76 214.67-41.212 96.965" clip-path="url(#a)"/>
<path d="m727.76 214.67 41.212 96.965" clip-path="url(#a)"/>
<path d="m686.55 311.64v95.635" clip-path="url(#a)"/>
<path d="m125.74 214.67-30.707 96.965" clip-path="url(#a)"/>
<path d="m125.74 214.67-1.6162 96.965" clip-path="url(#a)"/>
<path d="m125.74 214.67 32.323 96.965" clip-path="url(#a)"/>
<path d="m196.85 311.64v95.635" clip-path="url(#a)"/>
<path d="m264.73 214.67-24.242 96.965" clip-path="url(#a)"/>
<path d="m264.73 214.67 24.242 96.965" clip-path="url(#a)"/>
<path d="m240.48 311.64v95.635" clip-path="url(#a)"/>
<path d="m288.97 311.64v95.635" clip-path="url(#a)"/>
<path d="m95.03 311.64v95.635" clip-path="url(#a)"/>
<path d="m124.12 311.64v95.635" clip-path="url(#a)"/>
<path d="m158.06 311.64v95.635" clip-path="url(#a)"/>
<path d="m347.15 311.64v95.635" clip-path="url(#a)"/>
<path d="m768.97 311.64v95.635" clip-path="url(#a)"/>
</g>
<path d="m141.35 170.91 2.5276-3.6716q1.3609-1.9768-0.61592-3.3378l-6.3774-4.3904q-1.9768-1.3609-3.3378 0.61592l-2.5276 3.6716q-1.3609 1.9768 0.61592 3.3378l6.3774 4.3904q1.9768 1.3609 3.3378-0.61592z" clip-path="url(#a)" fill="#fff" stroke="#fff"/>
<g clip-path="url(#a)">
<g transform="translate(138 168.6) rotate(-55.455) scale(.08 -.08)">
<defs>
<path id="s" d="m9.8125 72.906h9.8594v-64.609h35.5v-8.2969h-45.359z"/>
</defs>
<use xlink:href="#s"/>
</g>
</g>
<path d="m153.78 170.67 2.3087-3.813q1.2431-2.053-0.80995-3.2961l-6.6231-4.0101q-2.053-1.2431-3.2961 0.80995l-2.3087 3.813q-1.2431 2.053 0.80995 3.2961l6.6231 4.0101q2.053 1.2431 3.2961-0.80995z" clip-path="url(#a)" fill="#fff" stroke="#fff"/>
<g clip-path="url(#a)">
<g transform="translate(150.3 168.57) rotate(-58.806) scale(.08 -.08)">
<use xlink:href="#s"/>
</g>
</g>
<path d="m221.47 73.546 2.3867-5.5226q0.95209-2.2031-1.251-3.1552l-7.1072-3.0715q-2.2031-0.95209-3.1552 1.251l-2.3867 5.5226q-0.95209 2.2031 1.251 3.1552l7.1072 3.0715q2.2031 0.95209 3.1552-1.251z" clip-path="url(#a)" fill="#fff" stroke="#fff"/>
<g clip-path="url(#a)">
<g transform="translate(217.74 71.934) rotate(-66.628) scale(.08 -.08)">
<defs>
<path id="aj" d="m9.8125 72.906h9.8594v-29.891h35.844v29.891h9.8594v-72.906h-9.8594v34.719h-35.844v-34.719h-9.8594z"/>
</defs>
<use xlink:href="#aj"/>
</g>
</g>
<path d="m388.94 73.378 5.7396 1.8033q2.2896 0.71938 3.009-1.5703l2.3208-7.3865q0.71938-2.2896-1.5703-3.009l-5.7396-1.8033q-2.2896-0.71938-3.009 1.5703l-2.3208 7.3865q-0.71938 2.2896 1.5703 3.009z" clip-path="url(#a)" fill="#fff" stroke="#fff"/>
<g clip-path="url(#a)">
<g transform="translate(390.15 69.501) rotate(17.442) scale(.08 -.08)">
<use xlink:href="#aj"/>
</g>
</g>
<path d="m285.7 164.97 2.0479 5.4852q0.83946 2.2484 3.0879 1.4089l7.2534-2.7081q2.2484-0.83946 1.4089-3.0879l-2.0479-5.4852q-0.83946-2.2484-3.0879-1.4089l-7.2534 2.7081q-2.2484 0.83946-1.4089 3.0879z" clip-path="url(#a)" fill="#fff" stroke="#fff"/>
<g clip-path="url(#a)">
<g transform="translate(289.5 163.55) rotate(69.526) scale(.08 -.08)">
<defs>
<path id="ag" d="m8.6875 72.906h9.9219v-44.297q0-11.719 4.2344-16.875 4.25-5.1406 13.781-5.1406 9.4688 0 13.719 5.1406 4.25 5.1562 4.25 16.875v44.297h9.9062v-45.516q0-14.25-7.0625-21.531-7.0469-7.2812-20.812-7.2812-13.828 0-20.891 7.2812-7.0469 7.2812-7.0469 21.531z"/>
</defs>
<use xlink:href="#ag"/>
</g>
</g>
<path d="m30.577 342.55v33.808q0 2.4 2.4 2.4h7.7425q2.4 0 2.4-2.4v-33.808q0-2.4-2.4-2.4h-7.7425q-2.4 0-2.4 2.4z" clip-path="url(#a)" fill="#fff" stroke="#fff"/>
<g clip-path="url(#a)">
<g transform="translate(34.641 342.55) rotate(90) scale(.08 -.08)">
<defs>
<path id="e" d="m-0.29688 72.906h61.672v-8.3125h-25.875v-64.594h-9.9062v64.594h-25.891z"/>
<path id="l" d="m56.203 29.594v-4.3906h-41.312q0.59375-9.2812 5.5938-14.141t13.938-4.8594q5.1719 0 10.031 1.2656t9.6562 3.8125v-8.5q-4.8438-2.0469-9.9219-3.125t-10.297-1.0781q-13.094 0-20.734 7.6094-7.6406 7.625-7.6406 20.625 0 13.422 7.25 21.297 7.25 7.8906 19.562 7.8906 11.031 0 17.453-7.1094 6.4219-7.0938 6.4219-19.297zm-8.9844 2.6406q-0.09375 7.3594-4.125 11.75-4.0312 4.4062-10.672 4.4062-7.5156 0-12.031-4.25t-5.2031-11.969z"/>
<path id="g" d="m41.109 46.297q-1.5156 0.875-3.2969 1.2812-1.7812 0.42188-3.9219 0.42188-7.625 0-11.703-4.9531t-4.0781-14.234v-28.812h-9.0312v54.688h9.0312v-8.5q2.8438 4.9844 7.375 7.3906 4.5469 2.4219 11.047 2.4219 0.92188 0 2.0469-0.125 1.125-0.10938 2.4844-0.35938z"/>
<path id="i" d="m52 44.188q3.375 6.0625 8.0625 8.9375t11.031 2.875q8.5469 0 13.188-5.9844 4.6406-5.9688 4.6406-17v-33.016h-9.0312v32.719q0 7.8594-2.7969 11.656-2.7812 3.8125-8.4844 3.8125-6.9844 0-11.047-4.6406-4.0469-4.625-4.0469-12.641v-30.906h-9.0312v32.719q0 7.9062-2.7812 11.688t-8.5938 3.7812q-6.8906 0-10.953-4.6562-4.0469-4.6562-4.0469-12.625v-30.906h-9.0312v54.688h9.0312v-8.5q3.0781 5.0312 7.375 7.4219t10.203 2.3906q5.9688 0 10.141-3.0312 4.1719-3.0156 6.1719-8.7812z"/>
<path id="k" d="m9.4219 54.688h8.9844v-54.688h-8.9844zm0 21.297h8.9844v-11.391h-8.9844z"/>
<path id="h" d="m54.891 33.016v-33.016h-8.9844v32.719q0 7.7656-3.0312 11.609-3.0312 3.8594-9.0781 3.8594-7.2812 0-11.484-4.6406-4.2031-4.625-4.2031-12.641v-30.906h-9.0312v54.688h9.0312v-8.5q3.2344 4.9375 7.5938 7.375 4.375 2.4375 10.094 2.4375 9.4219 0 14.25-5.8281 4.8438-5.8281 4.8438-17.156z"/>
<path id="f" d="m34.281 27.484q-10.891 0-15.094-2.4844t-4.2031-8.5q0-4.7812 3.1562-7.5938 3.1562-2.7969 8.5625-2.7969 7.4844 0 12 5.2969t4.5156 14.078v2zm17.922 3.7188v-31.203h-8.9844v8.2969q-3.0781-4.9688-7.6719-7.3438t-11.234-2.375q-8.3906 0-13.359 4.7188-4.9531 4.7188-4.9531 12.625 0 9.2188 6.1719 13.906 6.1875 4.6875 18.438 4.6875h12.609v0.89062q0 6.2031-4.0781 9.5938t-11.453 3.3906q-4.6875 0-9.1406-1.125-4.4375-1.125-8.5312-3.375v8.3125q4.9219 1.9062 9.5625 2.8438 4.6406 0.95312 9.0312 0.95312 11.875 0 17.734-6.1562 5.8594-6.1406 5.8594-18.641z"/>
<path id="j" d="m9.4219 75.984h8.9844v-75.984h-8.9844z"/>
</defs>
<use xlink:href="#e"/>
<use x="44.083984" xlink:href="#l"/>
<use x="105.607422" xlink:href="#g"/>
<use x="144.970703" xlink:href="#i"/>
<use x="242.382812" xlink:href="#k"/>
<use x="270.166016" xlink:href="#h"/>
<use x="333.544922" xlink:href="#f"/>
<use x="394.824219" xlink:href="#j"/>
</g>
</g>
<path d="m60.776 376.91 3.4105-33.635q0.24211-2.3878-2.1456-2.6299l-7.703-0.78105q-2.3878-0.24211-2.6299 2.1456l-3.4105 33.635q-0.24211 2.3878 2.1456 2.6299l7.703 0.78105q2.3878 0.24211 2.6299-2.1456z" clip-path="url(#a)" fill="#fff" stroke="#fff"/>
<g clip-path="url(#a)">
<g transform="translate(56.733 376.5) rotate(-84.21) scale(.08 -.08)">
<use xlink:href="#e"/>
<use x="44.083984" xlink:href="#l"/>
<use x="105.607422" xlink:href="#g"/>
<use x="144.970703" xlink:href="#i"/>
<use x="242.382812" xlink:href="#k"/>
<use x="270.166016" xlink:href="#h"/>
<use x="333.544922" xlink:href="#f"/>
<use x="394.824219" xlink:href="#j"/>
</g>
</g>
<path d="m57.995 343.27 3.4105 33.635q0.24211 2.3878 2.6299 2.1456l7.703-0.78105q2.3878-0.24211 2.1456-2.6299l-3.4105-33.635q-0.24211-2.3878-2.6299-2.1456l-7.703 0.78105q-2.3878 0.24211-2.1456 2.6299z" clip-path="url(#a)" fill="#fff" stroke="#fff"/>
<g clip-path="url(#a)">
<g transform="translate(62.038 342.86) rotate(84.21) scale(.08 -.08)">
<use xlink:href="#e"/>
<use x="44.083984" xlink:href="#l"/>
<use x="105.607422" xlink:href="#g"/>
<use x="144.970703" xlink:href="#i"/>
<use x="242.382812" xlink:href="#k"/>
<use x="270.166016" xlink:href="#h"/>
<use x="333.544922" xlink:href="#f"/>
<use x="394.824219" xlink:href="#j"/>
</g>
</g>
<path d="m238.43 168.45 3.881 3.8583q1.702 1.6921 3.3941-0.009956l5.4587-5.4908q1.6921-1.702-0.009955-3.3941l-3.881-3.8583q-1.702-1.6921-3.3941 0.009956l-5.4587 5.4908q-1.6921 1.702 0.009956 3.3941z" clip-path="url(#a)" fill="#fff" stroke="#fff"/>
<g clip-path="url(#a)">
<g transform="translate(241.3 165.57) rotate(44.832) scale(.08 -.08)">
<defs>
<path id="u" d="m34.188 63.188-13.391-36.281h26.812zm-5.5781 9.7188h11.188l27.781-72.906h-10.25l-6.6406 18.703h-32.859l-6.6406-18.703h-10.406z"/>
</defs>
<use xlink:href="#u"/>
</g>
</g>
<path d="m164.42 171.58 2.8511-3.9682q1.4004-1.9491-0.54869-3.3495l-6.2878-4.5177q-1.9491-1.4004-3.3495 0.54869l-2.8511 3.9682q-1.4004 1.9491 0.54869 3.3495l6.2878 4.5177q1.9491 1.4004 3.3495-0.54869z" clip-path="url(#a)" fill="#fff" stroke="#fff"/>
<g clip-path="url(#a)">
<g transform="translate(161.12 169.21) rotate(-54.303) scale(.08 -.08)">
<use xlink:href="#e"/>
</g>
</g>
<path d="m190.03 212.04 0.026729 4.8237q0.013299 2.4 2.4133 2.3867l7.7424-0.042902q2.4-0.013299 2.3867-2.4133l-0.02673-4.8237q-0.013299-2.4-2.4133-2.3867l-7.7424 0.042903q-2.4 0.013299-2.3867 2.4133z" clip-path="url(#a)" fill="#fff" stroke="#fff"/>
<g clip-path="url(#a)">
<g transform="translate(194.09 212.02) rotate(89.683) scale(.08 -.08)">
<defs>
<path id="p" d="m19.672 64.797v-27.391h12.406q6.8906 0 10.641 3.5625 3.7656 3.5625 3.7656 10.156 0 6.5469-3.7656 10.109-3.75 3.5625-10.641 3.5625zm-9.8594 8.1094h22.266q12.266 0 18.531-5.5469 6.2812-5.5469 6.2812-16.234 0-10.797-6.2812-16.312-6.2656-5.5156-18.531-5.5156h-12.406v-29.297h-9.8594z"/>
</defs>
<use xlink:href="#p"/>
</g>
</g>
<path d="m223.55 167.32 3.1605 4.4676q1.3861 1.9593 3.3454 0.57322l6.3207-4.4715q1.9593-1.3861 0.57322-3.3454l-3.1605-4.4676q-1.3861-1.9593-3.3454-0.57322l-6.3207 4.4715q-1.9593 1.3861-0.57322 3.3454z" clip-path="url(#a)" fill="#fff" stroke="#fff"/>
<g clip-path="url(#a)">
<g transform="translate(226.87 164.98) rotate(54.723) scale(.08 -.08)">
<use xlink:href="#u"/>
</g>
</g>
<path d="m656.57 170.6 5.0197 2.1796q2.2014 0.95588 3.1573-1.2455l3.0837-7.1019q0.95588-2.2014-1.2455-3.1573l-5.0197-2.1796q-2.2014-0.95588-3.1573 1.2455l-3.0837 7.1019q-0.95588 2.2014 1.2455 3.1573z" clip-path="url(#a)" fill="#fff" stroke="#fff"/>
<g clip-path="url(#a)">
<g transform="translate(658.19 166.87) rotate(23.471) scale(.08 -.08)">
<use xlink:href="#u"/>
</g>
</g>
<path d="m480.54 220.63 3.6661-4.9503q1.4284-1.9287-0.50031-3.357l-6.222-4.608q-1.9287-1.4284-3.357 0.50031l-3.6661 4.9503q-1.4284 1.9287 0.50031 3.357l6.222 4.608q1.9287 1.4284 3.357-0.50031z" clip-path="url(#a)" fill="#fff" stroke="#fff"/>
<g clip-path="url(#a)">
<g transform="translate(477.27 218.21) rotate(-53.477) scale(.08 -.08)">
<defs>
<path id="av" d="m19.672 64.797v-56.688h11.922q15.094 0 22.094 6.8281 7 6.8438 7 21.594 0 14.641-7 21.453t-22.094 6.8125zm-9.8594 8.1094h20.266q21.188 0 31.094-8.8125 9.9219-8.8125 9.9219-27.562 0-18.859-9.9688-27.703-9.9531-8.8281-31.047-8.8281h-20.266z"/>
</defs>
<use xlink:href="#av"/>
</g>
</g>
<path d="m513.75 218.95 1.7688-4.2477q0.92263-2.2156-1.2929-3.1382l-7.1475-2.9764q-2.2156-0.92263-3.1382 1.2929l-1.7688 4.2477q-0.92263 2.2156 1.2929 3.1382l7.1475 2.9764q2.2156 0.92263 3.1382-1.2929z" clip-path="url(#a)" fill="#fff" stroke="#fff"/>
<g clip-path="url(#a)">
<g transform="translate(510 217.39) rotate(-67.392) scale(.08 -.08)">
<defs>
<path id="ak" d="m9.8125 72.906h41.891v-8.3125h-32.031v-21.484h28.906v-8.2969h-28.906v-34.812h-9.8594z"/>
</defs>
<use xlink:href="#ak"/>
</g>
</g>
<path d="m548.89 217.14 0.30909-4.5909q0.16122-2.3946-2.2334-2.5558l-7.725-0.5201q-2.3946-0.16122-2.5558 2.2334l-0.30909 4.5909q-0.16122 2.3946 2.2334 2.5558l7.725 0.5201q2.3946 0.16122 2.5558-2.2334z" clip-path="url(#a)" fill="#fff" stroke="#fff"/>
<g clip-path="url(#a)">
<g transform="translate(544.84 216.86) rotate(-86.148) scale(.08 -.08)">
<use xlink:href="#ak"/>
</g>
</g>
<path d="m572.45 213.95 1.4145 4.6117q0.70375 2.2945 2.9982 1.5908l7.4022-2.2703q2.2945-0.70375 1.5908-2.9982l-1.4145-4.6117q-0.70375-2.2945-2.9982-1.5908l-7.4022 2.2703q-2.2945 0.70375-1.5908 2.9982z" clip-path="url(#a)" fill="#fff" stroke="#fff"/>
<g clip-path="url(#a)">
<g transform="translate(576.33 212.76) rotate(72.949) scale(.08 -.08)">
<use xlink:href="#p"/>
</g>
</g>
<path d="m633.14 170.13 4.8026 2.6237q2.1062 1.1506 3.2568-0.95558l3.712-6.7947q1.1506-2.1062-0.95558-3.2568l-4.8026-2.6237q-2.1062-1.1506-3.2568 0.95558l-3.712 6.7947q-1.1506 2.1062 0.95558 3.2568z" clip-path="url(#a)" fill="#fff" stroke="#fff"/>
<g clip-path="url(#a)">
<g transform="translate(635.09 166.56) rotate(28.648) scale(.08 -.08)">
<use xlink:href="#u"/>
</g>
</g>
<path d="m399.06 342.55v33.808q0 2.4 2.4 2.4h7.7425q2.4 0 2.4-2.4v-33.808q0-2.4-2.4-2.4h-7.7425q-2.4 0-2.4 2.4z" clip-path="url(#a)" fill="#fff" stroke="#fff"/>
<g clip-path="url(#a)">
<g transform="translate(403.13 342.55) rotate(90) scale(.08 -.08)">
<use xlink:href="#e"/>
<use x="44.083984" xlink:href="#l"/>
<use x="105.607422" xlink:href="#g"/>
<use x="144.970703" xlink:href="#i"/>
<use x="242.382812" xlink:href="#k"/>
<use x="270.166016" xlink:href="#h"/>
<use x="333.544922" xlink:href="#f"/>
<use x="394.824219" xlink:href="#j"/>
</g>
</g>
<path d="m462.09 342.55v33.808q0 2.4 2.4 2.4h7.7425q2.4 0 2.4-2.4v-33.808q0-2.4-2.4-2.4h-7.7425q-2.4 0-2.4 2.4z" clip-path="url(#a)" fill="#fff" stroke="#fff"/>
<g clip-path="url(#a)">
<g transform="translate(466.16 342.55) rotate(90) scale(.08 -.08)">
<use xlink:href="#e"/>
<use x="44.083984" xlink:href="#l"/>
<use x="105.607422" xlink:href="#g"/>
<use x="144.970703" xlink:href="#i"/>
<use x="242.382812" xlink:href="#k"/>
<use x="270.166016" xlink:href="#h"/>
<use x="333.544922" xlink:href="#f"/>
<use x="394.824219" xlink:href="#j"/>
</g>
</g>
<path d="m529.97 342.55v33.808q0 2.4 2.4 2.4h7.7425q2.4 0 2.4-2.4v-33.808q0-2.4-2.4-2.4h-7.7425q-2.4 0-2.4 2.4z" clip-path="url(#a)" fill="#fff" stroke="#fff"/>
<g clip-path="url(#a)">
<g transform="translate(534.03 342.55) rotate(90) scale(.08 -.08)">
<use xlink:href="#e"/>
<use x="44.083984" xlink:href="#l"/>
<use x="105.607422" xlink:href="#g"/>
<use x="144.970703" xlink:href="#i"/>
<use x="242.382812" xlink:href="#k"/>
<use x="270.166016" xlink:href="#h"/>
<use x="333.544922" xlink:href="#f"/>
<use x="394.824219" xlink:href="#j"/>
</g>
</g>
<path d="m602.7 342.55v33.808q0 2.4 2.4 2.4h7.7425q2.4 0 2.4-2.4v-33.808q0-2.4-2.4-2.4h-7.7425q-2.4 0-2.4 2.4z" clip-path="url(#a)" fill="#fff" stroke="#fff"/>
<g clip-path="url(#a)">
<g transform="translate(606.76 342.55) rotate(90) scale(.08 -.08)">
<use xlink:href="#e"/>
<use x="44.083984" xlink:href="#l"/>
<use x="105.607422" xlink:href="#g"/>
<use x="144.970703" xlink:href="#i"/>
<use x="242.382812" xlink:href="#k"/>
<use x="270.166016" xlink:href="#h"/>
<use x="333.544922" xlink:href="#f"/>
<use x="394.824219" xlink:href="#j"/>
</g>
</g>
<path d="m711.98 267.83 1.8868-4.4394q0.93878-2.2088-1.27-3.1476l-7.1256-3.0285q-2.2088-0.93878-3.1476 1.27l-1.8868 4.4394q-0.93878 2.2088 1.27 3.1476l7.1256 3.0285q2.2088 0.93878 3.1476-1.27z" clip-path="url(#a)" fill="#fff" stroke="#fff"/>
<g clip-path="url(#a)">
<g transform="translate(708.24 266.24) rotate(-66.974) scale(.08 -.08)">
<use xlink:href="#p"/>
</g>
</g>
<path d="m741.45 262.91 2.2902 5.3885q0.93878 2.2088 3.1476 1.27l7.1256-3.0285q2.2088-0.93878 1.27-3.1476l-2.2902-5.3885q-0.93878-2.2088-3.1476-1.27l-7.1256 3.0285q-2.2088 0.93878-1.27 3.1476z" clip-path="url(#a)" fill="#fff" stroke="#fff"/>
<g clip-path="url(#a)">
<g transform="translate(745.19 261.32) rotate(66.974) scale(.08 -.08)">
<use xlink:href="#ag"/>
</g>
</g>
<path d="m680.27 342.55v33.808q0 2.4 2.4 2.4h7.7425q2.4 0 2.4-2.4v-33.808q0-2.4-2.4-2.4h-7.7425q-2.4 0-2.4 2.4z" clip-path="url(#a)" fill="#fff" stroke="#fff"/>
<g clip-path="url(#a)">
<g transform="translate(684.34 342.55) rotate(90) scale(.08 -.08)">
<use xlink:href="#e"/>
<use x="44.083984" xlink:href="#l"/>
<use x="105.607422" xlink:href="#g"/>
<use x="144.970703" xlink:href="#i"/>
<use x="242.382812" xlink:href="#k"/>
<use x="270.166016" xlink:href="#h"/>
<use x="333.544922" xlink:href="#f"/>
<use x="394.824219" xlink:href="#j"/>
</g>
</g>
<path d="m115.52 267.7 1.6782-5.2994q0.72457-2.288-1.5634-3.0126l-7.3812-2.3375q-2.288-0.72457-3.0126 1.5634l-1.6782 5.2994q-0.72457 2.288 1.5634 3.0126l7.3812 2.3375q2.288 0.72457 3.0126-1.5634z" clip-path="url(#a)" fill="#fff" stroke="#fff"/>
<g clip-path="url(#a)">
<g transform="translate(111.65 266.47) rotate(-72.428) scale(.08 -.08)">
<defs>
<path id="ah" d="m44.391 34.188q3.1719-1.0781 6.1719-4.5938t6.0312-9.6719l10.016-19.922h-10.609l-9.3125 18.703q-3.625 7.3281-7.0156 9.7188t-9.25 2.3906h-10.75v-30.812h-9.8594v72.906h22.266q12.5 0 18.656-5.2344 6.1562-5.2188 6.1562-15.766 0-6.8906-3.2031-11.438-3.2031-4.5312-9.2969-6.2812zm-24.719 30.609v-25.875h12.406q7.125 0 10.766 3.2969t3.6406 9.6875-3.6406 9.6406-10.766 3.25z"/>
</defs>
<use xlink:href="#ah"/>
</g>
</g>
<path d="m131.15 266.41 0.10495-6.2966q0.039997-2.3997-2.3597-2.4397l-7.7414-0.12903q-2.3997-0.039996-2.4397 2.3597l-0.10495 6.2966q-0.039996 2.3997 2.3597 2.4397l7.7414 0.12903q2.3997 0.039996 2.4397-2.3597z" clip-path="url(#a)" fill="#fff" stroke="#fff"/>
<g clip-path="url(#a)">
<g transform="translate(127.08 266.34) rotate(-89.045) scale(.08 -.08)">
<defs>
<path id="au" d="m39.406 66.219q-10.75 0-17.078-8.0156-6.3125-8-6.3125-21.828 0-13.766 6.3125-21.781 6.3281-8 17.078-8 10.734 0 17.016 8 6.2812 8.0156 6.2812 21.781 0 13.828-6.2812 21.828-6.2812 8.0156-17.016 8.0156zm13.812-64.906 13-14.203h-11.922l-10.797 11.672q-1.6094-0.09375-2.4688-0.14062-0.84375-0.0625-1.625-0.0625-15.375 0-24.594 10.281-9.2031 10.281-9.2031 27.516 0 17.281 9.2031 27.562 9.2188 10.281 24.594 10.281 15.328 0 24.5-10.281 9.1875-10.281 9.1875-27.562 0-12.688-5.1094-21.734-5.0938-9.0312-14.766-13.328z"/>
</defs>
<use xlink:href="#au"/>
</g>
</g>
<path d="m135.07 262.49 1.7666 5.2996q0.75898 2.2768 3.0358 1.5178l7.3451-2.4485q2.2768-0.75898 1.5178-3.0358l-1.7666-5.2996q-0.75898-2.2768-3.0358-1.5178l-7.3451 2.4485q-2.2768 0.75898-1.5178 3.0358z" clip-path="url(#a)" fill="#fff" stroke="#fff"/>
<g clip-path="url(#a)">
<g transform="translate(138.92 261.2) rotate(71.564) scale(.08 -.08)">
<defs>
<path id="t" d="m64.406 67.281v-10.391q-4.9844 4.6406-10.625 6.9219-5.6406 2.2969-11.984 2.2969-12.5 0-19.141-7.6406t-6.6406-22.094q0-14.406 6.6406-22.047t19.141-7.6406q6.3438 0 11.984 2.2969t10.625 6.9375v-10.312q-5.1719-3.5156-10.969-5.2812-5.7812-1.75-12.219-1.75-16.562 0-26.094 10.125-9.5156 10.141-9.5156 27.672 0 17.578 9.5156 27.703 9.5312 10.141 26.094 10.141 6.5312 0 12.312-1.7344 5.7969-1.7344 10.875-5.2031z"/>
</defs>
<use xlink:href="#t"/>
</g>
</g>
<path d="m190.58 342.55v33.808q0 2.4 2.4 2.4h7.7425q2.4 0 2.4-2.4v-33.808q0-2.4-2.4-2.4h-7.7425q-2.4 0-2.4 2.4z" clip-path="url(#a)" fill="#fff" stroke="#fff"/>
<g clip-path="url(#a)">
<g transform="translate(194.64 342.55) rotate(90) scale(.08 -.08)">
<use xlink:href="#e"/>
<use x="44.083984" xlink:href="#l"/>
<use x="105.607422" xlink:href="#g"/>
<use x="144.970703" xlink:href="#i"/>
<use x="242.382812" xlink:href="#k"/>
<use x="270.166016" xlink:href="#h"/>
<use x="333.544922" xlink:href="#f"/>
<use x="394.824219" xlink:href="#j"/>
</g>
</g>
<path d="m258.02 267.37 1.3483-5.3928q0.58211-2.3283-1.7462-2.9104l-7.5113-1.8779q-2.3283-0.58211-2.9104 1.7462l-1.3483 5.3928q-0.58211 2.3283 1.7462 2.9104l7.5113 1.8779q2.3283 0.58211 2.9104-1.7462z" clip-path="url(#a)" fill="#fff" stroke="#fff"/>
<g clip-path="url(#a)">
<g transform="translate(254.07 266.39) rotate(-75.963) scale(.08 -.08)">
<use xlink:href="#ah"/>
</g>
</g>
<path d="m270.09 261.97 1.3549 5.4194q0.58211 2.3283 2.9104 1.7462l7.5113-1.8779q2.3283-0.58211 1.7462-2.9104l-1.3549-5.4194q-0.58211-2.3283-2.9104-1.7462l-7.5113 1.8779q-2.3283 0.58211-1.7462 2.9104z" clip-path="url(#a)" fill="#fff" stroke="#fff"/>
<g clip-path="url(#a)">
<g transform="translate(274.03 260.98) rotate(75.963) scale(.08 -.08)">
<use xlink:href="#t"/>
</g>
</g>
<path d="m234.21 342.55v33.808q0 2.4 2.4 2.4h7.7425q2.4 0 2.4-2.4v-33.808q0-2.4-2.4-2.4h-7.7425q-2.4 0-2.4 2.4z" clip-path="url(#a)" fill="#fff" stroke="#fff"/>
<g clip-path="url(#a)">
<g transform="translate(238.28 342.55) rotate(90) scale(.08 -.08)">
<use xlink:href="#e"/>
<use x="44.083984" xlink:href="#l"/>
<use x="105.607422" xlink:href="#g"/>
<use x="144.970703" xlink:href="#i"/>
<use x="242.382812" xlink:href="#k"/>
<use x="270.166016" xlink:href="#h"/>
<use x="333.544922" xlink:href="#f"/>
<use x="394.824219" xlink:href="#j"/>
</g>
</g>
<path d="m282.7 342.55v33.808q0 2.4 2.4 2.4h7.7425q2.4 0 2.4-2.4v-33.808q0-2.4-2.4-2.4h-7.7425q-2.4 0-2.4 2.4z" clip-path="url(#a)" fill="#fff" stroke="#fff"/>
<g clip-path="url(#a)">
<g transform="translate(286.76 342.55) rotate(90) scale(.08 -.08)">
<use xlink:href="#e"/>
<use x="44.083984" xlink:href="#l"/>
<use x="105.607422" xlink:href="#g"/>
<use x="144.970703" xlink:href="#i"/>
<use x="242.382812" xlink:href="#k"/>
<use x="270.166016" xlink:href="#h"/>
<use x="333.544922" xlink:href="#f"/>
<use x="394.824219" xlink:href="#j"/>
</g>
</g>
<path d="m88.759 342.55v33.808q0 2.4 2.4 2.4h7.7425q2.4 0 2.4-2.4v-33.808q0-2.4-2.4-2.4h-7.7425q-2.4 0-2.4 2.4z" clip-path="url(#a)" fill="#fff" stroke="#fff"/>
<g clip-path="url(#a)">
<g transform="translate(92.823 342.55) rotate(90) scale(.08 -.08)">
<use xlink:href="#e"/>
<use x="44.083984" xlink:href="#l"/>
<use x="105.607422" xlink:href="#g"/>
<use x="144.970703" xlink:href="#i"/>
<use x="242.382812" xlink:href="#k"/>
<use x="270.166016" xlink:href="#h"/>
<use x="333.544922" xlink:href="#f"/>
<use x="394.824219" xlink:href="#j"/>
</g>
</g>
<path d="m117.85 342.55v33.808q0 2.4 2.4 2.4h7.7425q2.4 0 2.4-2.4v-33.808q0-2.4-2.4-2.4h-7.7425q-2.4 0-2.4 2.4z" clip-path="url(#a)" fill="#fff" stroke="#fff"/>
<g clip-path="url(#a)">
<g transform="translate(121.91 342.55) rotate(90) scale(.08 -.08)">
<use xlink:href="#e"/>
<use x="44.083984" xlink:href="#l"/>
<use x="105.607422" xlink:href="#g"/>
<use x="144.970703" xlink:href="#i"/>
<use x="242.382812" xlink:href="#k"/>
<use x="270.166016" xlink:href="#h"/>
<use x="333.544922" xlink:href="#f"/>
<use x="394.824219" xlink:href="#j"/>
</g>
</g>
<path d="m151.79 342.55v33.808q0 2.4 2.4 2.4h7.7425q2.4 0 2.4-2.4v-33.808q0-2.4-2.4-2.4h-7.7425q-2.4 0-2.4 2.4z" clip-path="url(#a)" fill="#fff" stroke="#fff"/>
<g clip-path="url(#a)">
<g transform="translate(155.85 342.55) rotate(90) scale(.08 -.08)">
<use xlink:href="#e"/>
<use x="44.083984" xlink:href="#l"/>
<use x="105.607422" xlink:href="#g"/>
<use x="144.970703" xlink:href="#i"/>
<use x="242.382812" xlink:href="#k"/>
<use x="270.166016" xlink:href="#h"/>
<use x="333.544922" xlink:href="#f"/>
<use x="394.824219" xlink:href="#j"/>
</g>
</g>
<path d="m340.88 342.55v33.808q0 2.4 2.4 2.4h7.7425q2.4 0 2.4-2.4v-33.808q0-2.4-2.4-2.4h-7.7425q-2.4 0-2.4 2.4z" clip-path="url(#a)" fill="#fff" stroke="#fff"/>
<g clip-path="url(#a)">
<g transform="translate(344.94 342.55) rotate(90) scale(.08 -.08)">
<use xlink:href="#e"/>
<use x="44.083984" xlink:href="#l"/>
<use x="105.607422" xlink:href="#g"/>
<use x="144.970703" xlink:href="#i"/>
<use x="242.382812" xlink:href="#k"/>
<use x="270.166016" xlink:href="#h"/>
<use x="333.544922" xlink:href="#f"/>
<use x="394.824219" xlink:href="#j"/>
</g>
</g>
<path d="m762.7 342.55v33.808q0 2.4 2.4 2.4h7.7425q2.4 0 2.4-2.4v-33.808q0-2.4-2.4-2.4h-7.7425q-2.4 0-2.4 2.4z" clip-path="url(#a)" fill="#fff" stroke="#fff"/>
<g clip-path="url(#a)">
<g transform="translate(766.76 342.55) rotate(90) scale(.08 -.08)">
<use xlink:href="#e"/>
<use x="44.083984" xlink:href="#l"/>
<use x="105.607422" xlink:href="#g"/>
<use x="144.970703" xlink:href="#i"/>
<use x="242.382812" xlink:href="#k"/>
<use x="270.166016" xlink:href="#h"/>
<use x="333.544922" xlink:href="#f"/>
<use x="394.824219" xlink:href="#j"/>
</g>
</g>
<defs>
<path id="b" d="m0 8.6603c2.2967 0 4.4997-0.9125 6.1237-2.5365 1.624-1.624 2.5365-3.827 2.5365-6.1237s-0.9125-4.4997-2.5365-6.1237c-1.624-1.624-3.827-2.5365-6.1237-2.5365s-4.4997 0.9125-6.1237 2.5365c-1.624 1.624-2.5365 3.827-2.5365 6.1237s0.9125 4.4997 2.5365 6.1237c1.624 1.624 3.827 2.5365 6.1237 2.5365z"/>
</defs>
<g clip-path="url(#a)" fill="#ffffff" stroke="#ffffff">
<use x="36.848485" y="407.272727" xlink:href="#b"/>
<use x="51.393939" y="407.272727" xlink:href="#b"/>
<use x="70.787879" y="407.272727" xlink:href="#b"/>
<use x="95.030303" y="407.272727" xlink:href="#b"/>
<use x="124.121212" y="407.272727" xlink:href="#b"/>
<use x="158.060606" y="407.272727" xlink:href="#b"/>
<use x="196.848485" y="407.272727" xlink:href="#b"/>
<use x="240.484848" y="407.272727" xlink:href="#b"/>
<use x="288.969697" y="407.272727" xlink:href="#b"/>
<use x="347.151515" y="407.272727" xlink:href="#b"/>
<use x="405.333333" y="407.272727" xlink:href="#b"/>
<use x="468.363636" y="407.272727" xlink:href="#b"/>
<use x="536.242424" y="407.272727" xlink:href="#b"/>
<use x="608.969697" y="407.272727" xlink:href="#b"/>
<use x="686.545455" y="407.272727" xlink:href="#b"/>
<use x="768.969697" y="407.272727" xlink:href="#b"/>
<use x="773.818182" y="214.672971" xlink:href="#b"/>
<use x="293.818182" y="214.672971" xlink:href="#b"/>
<use x="238.039057" y="19.393939" xlink:href="#b"/>
<use x="36.848485" y="311.638041" xlink:href="#b"/>
<use x="61.090909" y="311.638041" xlink:href="#b"/>
<use x="195.771044" y="117.199327" xlink:href="#b"/>
<use x="549.333333" y="117.199327" xlink:href="#b"/>
<use x="405.333333" y="311.638041" xlink:href="#b"/>
<use x="468.363636" y="311.638041" xlink:href="#b"/>
<use x="536.242424" y="311.638041" xlink:href="#b"/>
<use x="608.969697" y="311.638041" xlink:href="#b"/>
<use x="727.757576" y="214.672971" xlink:href="#b"/>
<use x="686.545455" y="311.638041" xlink:href="#b"/>
<use x="125.737374" y="214.672971" xlink:href="#b"/>
<use x="196.848485" y="311.638041" xlink:href="#b"/>
<use x="264.727273" y="214.672971" xlink:href="#b"/>
<use x="240.484848" y="311.638041" xlink:href="#b"/>
<use x="288.969697" y="311.638041" xlink:href="#b"/>
<use x="95.030303" y="311.638041" xlink:href="#b"/>
<use x="124.121212" y="311.638041" xlink:href="#b"/>
<use x="158.060606" y="311.638041" xlink:href="#b"/>
<use x="347.151515" y="311.638041" xlink:href="#b"/>
<use x="768.969697" y="311.638041" xlink:href="#b"/>
</g>
<g clip-path="url(#a)">
<g transform="translate(33.108 410.03) scale(.1 -.1)">
<defs>
<path id="bg" d="m64.984 72.906v-72.906h-9.5625v60.984l-32.328-60.984h-13.281v72.906h9.5781v-60.984l32.312 60.984z"/>
</defs>
<use xlink:href="#bg"/>
</g>
</g>
<g clip-path="url(#a)">
<g transform="translate(39.123 410.03) scale(.1 -.1)">
<defs>
<path id="y" d="m56.203 29.594v-4.3906h-41.312q0.59375-9.2812 5.5938-14.141t13.938-4.8594q5.1719 0 10.031 1.2656t9.6562 3.8125v-8.5q-4.8438-2.0469-9.9219-3.125t-10.297-1.0781q-13.094 0-20.734 7.6094-7.6406 7.625-7.6406 20.625 0 13.422 7.25 21.297 7.25 7.8906 19.562 7.8906 11.031 0 17.453-7.1094 6.4219-7.0938 6.4219-19.297zm-8.9844 2.6406q-0.09375 7.3594-4.125 11.75-4.0312 4.4062-10.672 4.4062-7.5156 0-12.031-4.25t-5.2031-11.969z"/>
<path id="w" d="m48.781 52.594v-8.4062q-3.8125 2.1094-7.6406 3.1562t-7.7344 1.0469q-8.75 0-13.594-5.5469-4.8281-5.5312-4.8281-15.547t4.8281-15.562q4.8438-5.5312 13.594-5.5312 3.9062 0 7.7344 1.0469t7.6406 3.1562v-8.3125q-3.7656-1.75-7.7969-2.625-4.0156-0.89062-8.5625-0.89062-12.359 0-19.641 7.7656-7.2656 7.7656-7.2656 20.953 0 13.375 7.3438 21.031 7.3594 7.6719 20.156 7.6719 4.1406 0 8.0938-0.85938 3.9531-0.84375 7.6719-2.5469z"/>
<path id="af" d="m3.7188 0v7.4688q8.875 1.375 11.609 7.5156 3.3281 8.6562 3.3281 30.766v8.9375h36.953v-54.688h-8.9844v47.516h-18.984v-5.4219q0-21.094-4.2969-30.562-4.5938-10.109-19.625-11.531z"/>
<path id="x" d="m55.906 54.688v-54.688h-8.9375v43.891l-26.359-43.891h-11.531v54.688h8.9375v-43.797l26.328 43.797z"/>
</defs>
<use xlink:href="#y"/>
<use x="61.523438" xlink:href="#w"/>
<use x="116.503906" xlink:href="#af"/>
<use x="180.419922" xlink:href="#x"/>
</g>
</g>
<g clip-path="url(#a)">
<g transform="translate(63.757 410.03) scale(.1 -.1)">
<defs>
<path id="z" d="m31.109 56q11.719 0 18.406-7.625 6.6875-7.6094 6.6875-21.078 0-13.422-6.6875-21.078-6.6875-7.6406-18.406-7.6406-11.766 0-18.266 7.4219t-6.8438 21.297l-0.28125 11.188q-0.25 5.7969-0.25 7.8125 0 7.8125 2.8281 13.562 4.4531 9.0312 12.141 12.938t20.578 4.0156q5.9531 0.046875 8.5938 0.875l2.4844-7.125q-2.3906-0.98438-4.5781-1.0312l-12.219-0.82812q-6.1406-0.4375-9.8594-2.5938-9.7188-5.7031-10.641-13.172l-0.34375-2.7344q6.3438 5.7969 16.656 5.7969zm0-7.6094q-7.2344 0-11.438-5.6406-4.1875-5.6406-4.1875-15.453t4.1719-15.453 11.453-5.6406q7.1719 0 11.375 5.6562 4.2031 5.6719 4.2031 15.438 0 9.7188-4.2031 15.406t-11.375 5.6875z"/>
<path id="ac" d="m61.047 54.688h8.9844v-54.688h-8.9844zm4.5 1.3125m-22.094-39.781q0 4.3906-3.2031 6.6875-3.1875 2.2969-9.3438 2.2969h-12.797v-18.031h12.797q6.1562 0 9.3438 2.3125 3.2031 2.3281 3.2031 6.7344zm-34.375 38.469h9.0312v-22.312h13.188q10.453 0 16.094-3.9844 5.6406-3.9688 5.6406-12.172t-5.6406-12.219q-5.6406-4-16.094-4h-22.219z"/>
</defs>
<use xlink:href="#z"/>
<use x="61.669922" xlink:href="#ac"/>
</g>
</g>
<g clip-path="url(#a)">
<g transform="translate(89.308 410.03) scale(.1 -.1)">
<defs>
<path id="as" d="m34.469 29.5q6.0625-1.1719 9.4219-4.75 3.375-3.5625 3.375-8.8281 0-8.4531-6.2969-12.906-6.2969-4.4375-17.922-4.4375-3.9062 0-8.0312 0.6875t-8.5156 2.0469v8.3594q3.4688-1.8125 7.6094-2.7188 4.1562-0.89062 8.6875-0.89062 7.375 0 11.5 2.7344t4.125 7.125q0 4.2969-3.6562 6.9062t-10.344 2.6094h-7.2344v7.4219h7.5625q5.6719 0 8.9688 2.1719t3.2969 5.5938q0 3.125-3.4062 5.375-3.3906 2.25-9.1875 2.25-3.4688 0-7.4062-0.64062-3.9219-0.64062-8.6719-2.0469v8.1562q4.7969 1.1719 8.9375 1.75 4.1562 0.59375 7.8594 0.59375 9.5781 0 15.109-3.8438 5.5469-3.8281 5.5469-10.719 0-4.5312-2.9375-7.6875-2.9219-3.1406-8.3906-4.3125z"/>
<path id="r" d="m34.281 27.484q-10.891 0-15.094-2.4844t-4.2031-8.5q0-4.7812 3.1562-7.5938 3.1562-2.7969 8.5625-2.7969 7.4844 0 12 5.2969t4.5156 14.078v2zm17.922 3.7188v-31.203h-8.9844v8.2969q-3.0781-4.9688-7.6719-7.3438t-11.234-2.375q-8.3906 0-13.359 4.7188-4.9531 4.7188-4.9531 12.625 0 9.2188 6.1719 13.906 6.1875 4.6875 18.438 4.6875h12.609v0.89062q0 6.2031-4.0781 9.5938t-11.453 3.3906q-4.6875 0-9.1406-1.125-4.4375-1.125-8.5312-3.375v8.3125q4.9219 1.9062 9.5625 2.8438 4.6406 0.95312 9.0312 0.95312 11.875 0 17.734-6.1562 5.8594-6.1406 5.8594-18.641z"/>
</defs>
<use xlink:href="#as"/>
<use x="53.173828" xlink:href="#r"/>
</g>
</g>
<g clip-path="url(#a)">
<g transform="translate(111.38 410.03) scale(.1 -.1)">
<defs>
<path id="n" d="m30.609 48.391q-7.2188 0-11.422-5.6406t-4.2031-15.453 4.1719-15.453q4.1875-5.6406 11.453-5.6406 7.1875 0 11.375 5.6562 4.2031 5.6719 4.2031 15.438 0 9.7188-4.2031 15.406-4.1875 5.6875-11.375 5.6875zm0 7.6094q11.719 0 18.406-7.625 6.7031-7.6094 6.7031-21.078 0-13.422-6.7031-21.078-6.6875-7.6406-18.406-7.6406-11.766 0-18.438 7.6406-6.6562 7.6562-6.6562 21.078 0 13.469 6.6562 21.078 6.6719 7.625 18.438 7.625z"/>
<path id="be" d="m21.625 7.1719h26.078v40.344h-18.891v-6.8438q0-20.109-5.7656-30.859zm-13.031 0q4.4375 1.9531 6.3906 6.1094 4.7969 10.297 4.7969 31.062v10.344h36.953v-47.516h7.1875v-20.984h-7.1875v13.812h-44.328v-13.812h-7.1875v20.984z"/>
<path id="q" d="m9.0781 54.688h9.0312v-22.312h29.156v22.312h9.0312v-54.688h-9.0312v25.203h-29.156v-25.203h-9.0312z"/>
<path id="ad" d="m32.172-5.0781q-3.7969-9.7656-7.4219-12.734-3.6094-2.9844-9.6562-2.9844h-7.1875v7.5156h5.2812q3.7031 0 5.75 1.7656 2.0625 1.75 4.5469 8.2969l1.6094 4.0938-22.109 53.812h9.5156l17.094-42.766 17.094 42.766h9.5156z"/>
</defs>
<use xlink:href="#n"/>
<use x="61.181641" xlink:href="#be"/>
<use x="130.322266" xlink:href="#q"/>
<use x="195.703125" xlink:href="#ad"/>
</g>
</g>
<g clip-path="url(#a)">
<g transform="translate(138.94 410.03) scale(.1 -.1)">
<defs>
<path id="ae" d="m9.0781 54.688h13.141l15.531-36.625 15.578 36.625h13.031v-54.688h-9.0312v46.094l-15.094-35.594h-8.9844l-15.141 35.594v-46.094h-9.0312z"/>
<path id="v" d="m2.9375 54.688h52.391v-7.1719h-21.781v-47.516h-8.8438v47.516h-21.766z"/>
</defs>
<use xlink:href="#ae"/>
<use x="75.439453" xlink:href="#x"/>
<use x="140.429688" xlink:href="#q"/>
<use x="205.810547" xlink:href="#ad"/>
<use x="264.990234" xlink:href="#v"/>
<use x="323.242188" xlink:href="#ad"/>
</g>
</g>
<g clip-path="url(#a)">
<g transform="translate(163.3 410.03) scale(.1 -.1)">
<defs>
<path id="ar" d="m56.297 54.688v-54.688h-9.0312v47.516h-29.156v-47.516h-9.0312v54.688z"/>
<path id="aq" d="m18.109 8.2031v-29h-9.0312v75.484h9.0312v-8.2969q2.8438 4.875 7.1562 7.2344 4.3281 2.375 10.328 2.375 9.9688 0 16.188-7.9062 6.2344-7.9062 6.2344-20.797t-6.2344-20.812q-6.2188-7.9062-16.188-7.9062-6 0-10.328 2.375-4.3125 2.375-7.1562 7.25zm30.578 19.094q0 9.9062-4.0781 15.547t-11.203 5.6406q-7.1406 0-11.219-5.6406t-4.0781-15.547 4.0781-15.547 11.219-5.6406q7.125 0 11.203 5.6406t4.0781 15.547z"/>
<path id="ap" d="m43.453 16.219q0 4.3906-3.2031 6.6875-3.1875 2.2969-9.3438 2.2969h-12.797v-18.031h12.797q6.1562 0 9.3438 2.3125 3.2031 2.3281 3.2031 6.7344zm-34.375 38.469h9.0312v-22.312h13.188q10.453 0 16.094-3.9844 5.6406-3.9688 5.6406-12.172t-5.6406-12.219q-5.6406-4-16.094-4h-22.219z"/>
</defs>
<use xlink:href="#ar"/>
<use x="65.380859" xlink:href="#y"/>
<use x="126.904297" xlink:href="#aq"/>
<use x="190.380859" xlink:href="#y"/>
<use x="251.904297" xlink:href="#q"/>
<use x="317.285156" xlink:href="#y"/>
<use x="378.808594" xlink:href="#w"/>
<use x="433.789062" xlink:href="#v"/>
<use x="492.041016" xlink:href="#x"/>
<use x="557.03125" xlink:href="#w"/>
<use x="612.011719" xlink:href="#ap"/>
</g>
</g>
<g clip-path="url(#a)">
<g transform="translate(234.48 410.03) scale(.1 -.1)">
<defs>
<path id="at" d="m18.062 25.203v-18.031h12.797q6.1562 0 9.375 2.3125 3.2188 2.3281 3.2188 6.7344 0 4.3906-3.2188 6.6875t-9.375 2.2969zm0 22.312v-15.141h11.828q5.0781 0 8.2969 2.0156 3.2188 2.0312 3.2188 5.6562 0 3.6094-3.2188 5.5312-3.2188 1.9375-8.2969 1.9375zm-8.9844 7.1719h21.391q9.625 0 14.797-3.5156t5.1719-10.016q0-5.0156-2.6406-7.9844-2.625-2.9531-7.8125-3.6719 6.2031-1.1719 9.625-4.8906 3.4219-3.7031 3.4219-9.2812 0-7.3125-5.6406-11.328-5.6406-4-16.094-4h-22.219z"/>
</defs>
<use xlink:href="#at"/>
<use x="58.935547" xlink:href="#n"/>
</g>
</g>
<g clip-path="url(#a)">
<g transform="translate(264.3 410.03) scale(.1 -.1)">
<defs>
<path id="bf" d="m38.141 57.906q-10.594-0.96875-16.219-5.9531-5.6094-4.9844-5.6094-14.594 0-9.625 5.6094-14.578 5.625-4.9531 16.219-5.9375zm9.9062-41.062q10.594 0.98438 16.156 5.9375 5.5781 4.9531 5.5781 14.578 0 9.6094-5.5781 14.594-5.5625 4.9844-16.156 5.9531zm-9.9062-8.1562q-15.484 1.125-23.859 8.4219-8.375 7.3125-8.375 20.25t8.375 20.281 23.859 8.4688v6.7969h9.9062v-6.7969q15.484-1.125 23.797-8.4219 8.3281-7.2969 8.3281-20.328 0-12.938-8.3281-20.25-8.3125-7.2969-23.797-8.4219v-8.6875h-9.9062z"/>
<path id="bb" d="m56.297 0h-47.219v54.688h9.0312v-47.516h29.156v47.516h9.0312v-47.516h7.1875v-20.984h-7.1875z"/>
<path id="ao" d="m53.609 48.391q-7.2188 0-11.422-5.6406t-4.2031-15.453 4.1719-15.453q4.1875-5.6406 11.453-5.6406 7.1875 0 11.375 5.6562 4.2031 5.6719 4.2031 15.438 0 9.7188-4.2031 15.406-4.1875 5.6875-11.375 5.6875zm-24.797-15.531q0.92188 9.2812 7 16.203 6.0781 6.9375 17.797 6.9375t18.406-7.625q6.7031-7.6094 6.7031-21.078 0-13.422-6.7031-21.078-6.6875-7.6406-18.406-7.6406-11.766 0-18.188 7.375t-6.8594 19.484h-10.156v-25.438h-8.9844v54.688h8.9844v-21.828z"/>
</defs>
<use xlink:href="#bf"/>
<use x="86.083984" xlink:href="#aq"/>
<use x="149.560547" xlink:href="#r"/>
<use x="210.839844" xlink:href="#q"/>
<use x="276.220703" xlink:href="#bb"/>
<use x="344.287109" xlink:href="#x"/>
<use x="409.277344" xlink:href="#ao"/>
</g>
</g>
<g clip-path="url(#a)">
<g transform="translate(345.56 410.03) scale(.1 -.1)">
<defs>
<path id="az" d="m11.719 12.406h10.297v-8.4062l-8-15.625h-6.2969l4 15.625z"/>
</defs>
<use xlink:href="#az"/>
</g>
</g>
<g clip-path="url(#a)">
<g transform="translate(387.67 410.03) scale(.1 -.1)">
<defs>
<path id="bd" d="m40.578 54.688h8.9375v-25.688l23.875 25.688h10.453l-19.641-21.047 22.469-33.641h-9.625l-18.406 27.641-9.125-9.8125v-17.828h-8.9375v17.828l-9.125 9.8125-18.422-27.641h-9.6094l22.453 33.641-19.625 21.047h10.453l23.875-25.688z"/>
</defs>
<use xlink:href="#ae"/>
<use x="75.439453" xlink:href="#n"/>
<use x="136.621094" xlink:href="#bd"/>
<use x="226.708984" xlink:href="#q"/>
<use x="292.089844" xlink:href="#n"/>
</g>
</g>
<g clip-path="url(#a)">
<g transform="translate(455.08 410.03) scale(.1 -.1)">
<use xlink:href="#z"/>
<use x="61.669922" xlink:href="#ac"/>
<use x="140.625" xlink:href="#af"/>
<use x="204.541016" xlink:href="#n"/>
</g>
</g>
<g clip-path="url(#a)">
<g transform="translate(529.21 410.03) scale(.1 -.1)">
<use xlink:href="#z"/>
<use x="61.669922" xlink:href="#ac"/>
</g>
</g>
<g clip-path="url(#a)">
<g transform="translate(571.47 410.03) scale(.1 -.1)">
<defs>
<path id="ba" d="m18.453 38.922q0-4.0625 3.125-6.3594 3.125-2.2812 8.9375-2.2812h12.109v17.234h-12.109q-5.8125 0-8.9375-2.25t-3.125-6.3438zm-12.781-38.922 16.688 23.969q-5.6562 1.2812-9.4219 4.625-3.75 3.3438-3.75 10.328 0 7.9062 5.2344 11.828 5.25 3.9375 15.859 3.9375h21.375v-54.688h-9.0312v23.094h-11.172l-16.125-23.094z"/>
</defs>
<use xlink:href="#ar"/>
<use x="65.380859" xlink:href="#n"/>
<use x="126.5625" xlink:href="#af"/>
<use x="190.478516" xlink:href="#ao"/>
<use x="274.658203" xlink:href="#z"/>
<use x="336.328125" xlink:href="#n"/>
<use x="397.509766" xlink:href="#at"/>
<use x="456.445312" xlink:href="#r"/>
<use x="517.724609" xlink:href="#v"/>
<use x="575.976562" xlink:href="#ap"/>
<use x="634.912109" xlink:href="#w"/>
<use x="689.892578" xlink:href="#ba"/>
</g>
</g>
<g clip-path="url(#a)">
<g transform="translate(664.99 410.03) scale(.1 -.1)">
<defs>
<path id="bc" d="m9.0781 54.688h8.9375v-25.688l25.344 25.688h11.031l-20.891-21.141 23.578-33.547h-10.062l-19.375 27.594-9.625-9.7656v-17.828h-8.9375z"/>
</defs>
<use xlink:href="#as"/>
<use x="53.173828" xlink:href="#r"/>
<use x="114.453125" xlink:href="#bc"/>
<use x="174.853516" xlink:href="#r"/>
<use x="236.132812" xlink:href="#v"/>
<use x="294.384766" xlink:href="#n"/>
<use x="355.566406" xlink:href="#ae"/>
</g>
</g>
<g clip-path="url(#a)">
<g transform="translate(767.38 410.03) scale(.1 -.1)">
<defs>
<path id="d" d="m10.688 12.406h10.312v-12.406h-10.312z"/>
</defs>
<use xlink:href="#d"/>
</g>
</g>
<g clip-path="url(#a)">
<g transform="translate(752.73 217.43) scale(.1 -.1)">
<defs>
<path id="o" d="m9.8125 72.906h9.8594v-72.906h-9.8594z"/>
<path id="ai" d="m9.8125 72.906h14.703l18.594-49.609 18.703 49.609h14.703v-72.906h-9.625v64.016l-18.797-50h-9.9062l-18.797 50v-64.016h-9.5781z"/>
</defs>
<use xlink:href="#o"/>
<use x="29.492188" xlink:href="#ai"/>
<use x="115.771484" xlink:href="#p"/>
<use x="176.074219" xlink:href="#s"/>
<use x="231.787109" xlink:href="#o"/>
<use x="261.279297" xlink:href="#t"/>
<use x="331.103516" xlink:href="#o"/>
<use x="360.595703" xlink:href="#e"/>
</g>
</g>
<g clip-path="url(#a)">
<g transform="translate(272.73 217.43) scale(.1 -.1)">
<use xlink:href="#o"/>
<use x="29.492188" xlink:href="#ai"/>
<use x="115.771484" xlink:href="#p"/>
<use x="176.074219" xlink:href="#s"/>
<use x="231.787109" xlink:href="#o"/>
<use x="261.279297" xlink:href="#t"/>
<use x="331.103516" xlink:href="#o"/>
<use x="360.595703" xlink:href="#e"/>
</g>
</g>
<g clip-path="url(#a)">
<g transform="translate(230.09 22.153) scale(.1 -.1)">
<defs>
<path id="c" d="m12.406 8.2969h16.109v55.625l-17.531-3.5156v8.9844l17.438 3.5156h9.8594v-64.609h16.109v-8.2969h-41.984z"/>
</defs>
<use xlink:href="#c"/>
<use x="63.623047" xlink:href="#d"/>
<use x="95.410156" xlink:href="#c"/>
</g>
</g>
<g clip-path="url(#a)">
<g transform="translate(28.897 314.4) scale(.1 -.1)">
<defs>
<path id="m" d="m19.188 8.2969h34.422v-8.2969h-46.281v8.2969q5.6094 5.8125 15.297 15.594 9.7031 9.7969 12.188 12.641 4.7344 5.3125 6.6094 9 1.8906 3.6875 1.8906 7.25 0 5.8125-4.0781 9.4688-4.0781 3.6719-10.625 3.6719-4.6406 0-9.7969-1.6094-5.1406-1.6094-11-4.8906v9.9688q5.9531 2.3906 11.125 3.6094 5.1875 1.2188 9.4844 1.2188 11.328 0 18.062-5.6719 6.7344-5.6562 6.7344-15.125 0-4.5-1.6875-8.5312-1.6719-4.0156-6.125-9.4844-1.2188-1.4219-7.7656-8.1875-6.5312-6.7656-18.453-18.922z"/>
</defs>
<use xlink:href="#c"/>
<use x="63.623047" xlink:href="#d"/>
<use x="95.410156" xlink:href="#m"/>
</g>
</g>
<g clip-path="url(#a)">
<g transform="translate(53.139 314.4) scale(.1 -.1)">
<defs>
<path id="ab" d="m40.578 39.312q7.0781-1.5156 11.047-6.3125 3.9844-4.7812 3.9844-11.812 0-10.781-7.4219-16.703-7.4219-5.9062-21.094-5.9062-4.5781 0-9.4375 0.90625t-10.031 2.7188v9.5156q4.0938-2.3906 8.9688-3.6094 4.8906-1.2188 10.219-1.2188 9.2656 0 14.125 3.6562t4.8594 10.641q0 6.4531-4.5156 10.078-4.5156 3.6406-12.562 3.6406h-8.5v8.1094h8.8906q7.2656 0 11.125 2.9062t3.8594 8.375q0 5.6094-3.9844 8.6094-3.9688 3.0156-11.391 3.0156-4.0625 0-8.7031-0.89062-4.6406-0.875-10.203-2.7188v8.7812q5.625 1.5625 10.531 2.3438t9.25 0.78125q11.234 0 17.766-5.1094 6.5469-5.0938 6.5469-13.781 0-6.0625-3.4688-10.234t-9.8594-5.7812z"/>
</defs>
<use xlink:href="#c"/>
<use x="63.623047" xlink:href="#d"/>
<use x="95.410156" xlink:href="#ab"/>
</g>
</g>
<g clip-path="url(#a)">
<g transform="translate(187.82 119.96) scale(.1 -.1)">
<defs>
<path id="aa" d="m37.797 64.312-24.906-38.922h24.906zm-2.5938 8.5938h12.406v-47.516h10.406v-8.2031h-10.406v-17.188h-9.8125v17.188h-32.906v9.5156z"/>
</defs>
<use xlink:href="#c"/>
<use x="63.623047" xlink:href="#d"/>
<use x="95.410156" xlink:href="#aa"/>
</g>
</g>
<g clip-path="url(#a)">
<g transform="translate(541.38 119.96) scale(.1 -.1)">
<defs>
<path id="am" d="m10.797 72.906h38.719v-8.3125h-29.688v-17.859q2.1406 0.73438 4.2812 1.0938 2.1562 0.35938 4.3125 0.35938 12.203 0 19.328-6.6875 7.1406-6.6875 7.1406-18.109 0-11.766-7.3281-18.297-7.3281-6.5156-20.656-6.5156-4.5938 0-9.3594 0.78125-4.75 0.78125-9.8281 2.3438v9.9219q4.3906-2.3906 9.0781-3.5625t9.9062-1.1719q8.4531 0 13.375 4.4375 4.9375 4.4375 4.9375 12.062 0 7.6094-4.9375 12.047-4.9219 4.4531-13.375 4.4531-3.9531 0-7.8906-0.875-3.9219-0.875-8.0156-2.7344z"/>
</defs>
<use xlink:href="#c"/>
<use x="63.623047" xlink:href="#d"/>
<use x="95.410156" xlink:href="#am"/>
</g>
</g>
<g clip-path="url(#a)">
<g transform="translate(397.38 314.4) scale(.1 -.1)">
<defs>
<path id="al" d="m10.984 1.5156v8.9844q3.7188-1.7656 7.5156-2.6875 3.8125-0.92188 7.4844-0.92188 9.7656 0 14.906 6.5625 5.1562 6.5625 5.8906 19.953-2.8281-4.2031-7.1875-6.4531-4.3438-2.25-9.6094-2.25-10.938 0-17.312 6.6094-6.375 6.625-6.375 18.109 0 11.219 6.6406 18 6.6406 6.7969 17.672 6.7969 12.656 0 19.312-9.7031 6.6719-9.6875 6.6719-28.141 0-17.234-8.1875-27.516-8.1719-10.281-21.984-10.281-3.7188 0-7.5312 0.73438-3.7969 0.73438-7.9062 2.2031zm19.625 30.906q6.6406 0 10.516 4.5312 3.8906 4.5469 3.8906 12.469 0 7.8594-3.8906 12.422-3.875 4.5625-10.516 4.5625t-10.516-4.5625-3.875-12.422q0-7.9219 3.875-12.469 3.875-4.5312 10.516-4.5312z"/>
</defs>
<use xlink:href="#c"/>
<use x="63.623047" xlink:href="#d"/>
<use x="95.410156" xlink:href="#al"/>
</g>
</g>
<g clip-path="url(#a)">
<g transform="translate(457.23 314.4) scale(.1 -.1)">
<defs>
<path id="an" d="m31.781 66.406q-7.6094 0-11.453-7.5-3.8281-7.4844-3.8281-22.531 0-14.984 3.8281-22.484 3.8438-7.5 11.453-7.5 7.6719 0 11.5 7.5 3.8438 7.5 3.8438 22.484 0 15.047-3.8438 22.531-3.8281 7.5-11.5 7.5zm0 7.8125q12.266 0 18.734-9.7031 6.4688-9.6875 6.4688-28.141 0-18.406-6.4688-28.109-6.4688-9.6875-18.734-9.6875-12.25 0-18.719 9.6875-6.4688 9.7031-6.4688 28.109 0 18.453 6.4688 28.141 6.4688 9.7031 18.719 9.7031z"/>
</defs>
<use xlink:href="#c"/>
<use x="63.623047" xlink:href="#d"/>
<use x="95.410156" xlink:href="#c"/>
<use x="159.033203" xlink:href="#an"/>
</g>
</g>
<g clip-path="url(#a)">
<g transform="translate(525.11 314.4) scale(.1 -.1)">
<use xlink:href="#c"/>
<use x="63.623047" xlink:href="#d"/>
<use x="95.410156" xlink:href="#c"/>
<use x="159.033203" xlink:href="#c"/>
</g>
</g>
<g clip-path="url(#a)">
<g transform="translate(597.84 314.4) scale(.1 -.1)">
<use xlink:href="#c"/>
<use x="63.623047" xlink:href="#d"/>
<use x="95.410156" xlink:href="#c"/>
<use x="159.033203" xlink:href="#m"/>
</g>
</g>
<g clip-path="url(#a)">
<g transform="translate(716.62 217.43) scale(.1 -.1)">
<use xlink:href="#c"/>
<use x="63.623047" xlink:href="#d"/>
<use x="95.410156" xlink:href="#c"/>
<use x="159.033203" xlink:href="#ab"/>
</g>
</g>
<g clip-path="url(#a)">
<g transform="translate(675.41 314.4) scale(.1 -.1)">
<use xlink:href="#c"/>
<use x="63.623047" xlink:href="#d"/>
<use x="95.410156" xlink:href="#c"/>
<use x="159.033203" xlink:href="#aa"/>
</g>
</g>
<g clip-path="url(#a)">
<g transform="translate(114.6 217.43) scale(.1 -.1)">
<defs>
<path id="ay" d="m33.016 40.375q-6.6406 0-10.531-4.5469-3.875-4.5312-3.875-12.438 0-7.8594 3.875-12.438 3.8906-4.5625 10.531-4.5625t10.516 4.5625q3.875 4.5781 3.875 12.438 0 7.9062-3.875 12.438-3.875 4.5469-10.516 4.5469zm19.578 30.922v-8.9844q-3.7188 1.75-7.5 2.6719-3.7812 0.9375-7.5 0.9375-9.7656 0-14.922-6.5938-5.1406-6.5938-5.875-19.922 2.875 4.25 7.2188 6.5156 4.3594 2.2656 9.5781 2.2656 10.984 0 17.359-6.6719 6.375-6.6562 6.375-18.125 0-11.234-6.6406-18.031-6.6406-6.7812-17.672-6.7812-12.656 0-19.344 9.6875-6.6875 9.7031-6.6875 28.109 0 17.281 8.2031 27.562t22.016 10.281q3.7188 0 7.5-0.73438t7.8906-2.1875z"/>
</defs>
<use xlink:href="#c"/>
<use x="63.623047" xlink:href="#d"/>
<use x="95.410156" xlink:href="#c"/>
<use x="159.033203" xlink:href="#ay"/>
</g>
</g>
<g clip-path="url(#a)">
<g transform="translate(185.72 314.4) scale(.1 -.1)">
<defs>
<path id="ax" d="m8.2031 72.906h46.875v-4.2031l-26.469-68.703h-10.297l24.906 64.594h-35.016z"/>
</defs>
<use xlink:href="#c"/>
<use x="63.623047" xlink:href="#d"/>
<use x="95.410156" xlink:href="#c"/>
<use x="159.033203" xlink:href="#ax"/>
</g>
</g>
<g clip-path="url(#a)">
<g transform="translate(253.59 217.43) scale(.1 -.1)">
<defs>
<path id="aw" d="m31.781 34.625q-7.0312 0-11.062-3.7656-4.0156-3.7656-4.0156-10.344 0-6.5938 4.0156-10.359 4.0312-3.7656 11.062-3.7656t11.078 3.7812q4.0625 3.7969 4.0625 10.344 0 6.5781-4.0312 10.344-4.0156 3.7656-11.109 3.7656zm-9.8594 4.1875q-6.3438 1.5625-9.8906 5.9062-3.5312 4.3594-3.5312 10.609 0 8.7344 6.2188 13.812 6.2344 5.0781 17.062 5.0781 10.891 0 17.094-5.0781t6.2031-13.812q0-6.25-3.5469-10.609-3.5312-4.3438-9.8281-5.9062 7.125-1.6562 11.094-6.5 3.9844-4.8281 3.9844-11.797 0-10.609-6.4688-16.281-6.4688-5.6562-18.531-5.6562-12.047 0-18.531 5.6562-6.4688 5.6719-6.4688 16.281 0 6.9688 4 11.797 4.0156 4.8438 11.141 6.5zm-3.6094 15.578q0-5.6562 3.5312-8.8281 3.5469-3.1719 9.9375-3.1719 6.3594 0 9.9375 3.1719 3.5938 3.1719 3.5938 8.8281 0 5.6719-3.5938 8.8438-3.5781 3.1719-9.9375 3.1719-6.3906 0-9.9375-3.1719-3.5312-3.1719-3.5312-8.8438z"/>
</defs>
<use xlink:href="#c"/>
<use x="63.623047" xlink:href="#d"/>
<use x="95.410156" xlink:href="#c"/>
<use x="159.033203" xlink:href="#aw"/>
</g>
</g>
<g clip-path="url(#a)">
<g transform="translate(229.35 314.4) scale(.1 -.1)">
<use xlink:href="#c"/>
<use x="63.623047" xlink:href="#d"/>
<use x="95.410156" xlink:href="#c"/>
<use x="159.033203" xlink:href="#al"/>
</g>
</g>
<g clip-path="url(#a)">
<g transform="translate(277.84 314.4) scale(.1 -.1)">
<use xlink:href="#c"/>
<use x="63.623047" xlink:href="#d"/>
<use x="95.410156" xlink:href="#m"/>
<use x="159.033203" xlink:href="#an"/>
</g>
</g>
<g clip-path="url(#a)">
<g transform="translate(83.897 314.4) scale(.1 -.1)">
<use xlink:href="#c"/>
<use x="63.623047" xlink:href="#d"/>
<use x="95.410156" xlink:href="#m"/>
<use x="159.033203" xlink:href="#c"/>
</g>
</g>
<g clip-path="url(#a)">
<g transform="translate(112.99 314.4) scale(.1 -.1)">
<use xlink:href="#c"/>
<use x="63.623047" xlink:href="#d"/>
<use x="95.410156" xlink:href="#m"/>
<use x="159.033203" xlink:href="#m"/>
</g>
</g>
<g clip-path="url(#a)">
<g transform="translate(146.93 314.4) scale(.1 -.1)">
<use xlink:href="#c"/>
<use x="63.623047" xlink:href="#d"/>
<use x="95.410156" xlink:href="#m"/>
<use x="159.033203" xlink:href="#ab"/>
</g>
</g>
<g clip-path="url(#a)">
<g transform="translate(336.02 314.4) scale(.1 -.1)">
<use xlink:href="#c"/>
<use x="63.623047" xlink:href="#d"/>
<use x="95.410156" xlink:href="#m"/>
<use x="159.033203" xlink:href="#aa"/>
</g>
</g>
<g clip-path="url(#a)">
<g transform="translate(757.84 314.4) scale(.1 -.1)">
<use xlink:href="#c"/>
<use x="63.623047" xlink:href="#d"/>
<use x="95.410156" xlink:href="#m"/>
<use x="159.033203" xlink:href="#am"/>
</g>
</g>
<defs>
<clipPath id="a">
<rect width="810.67" height="426.67"/>
</clipPath>
</defs>
</svg>
