<?xml version="1.0" encoding="UTF-8"?>
<!DOCTYPE svg  PUBLIC '-//W3C//DTD SVG 1.1//EN'  'http://www.w3.org/Graphics/SVG/1.1/DTD/svg11.dtd'>
<svg width="912pt" height="480pt" version="1.1" viewBox="0 0 912 480" xmlns="http://www.w3.org/2000/svg" xmlns:xlink="http://www.w3.org/1999/xlink">
<metadata>
<rdf:RDF xmlns:cc="http://creativecommons.org/ns#" xmlns:dc="http://purl.org/dc/elements/1.1/" xmlns:rdf="http://www.w3.org/1999/02/22-rdf-syntax-ns#">
<cc:Work>
<dc:type rdf:resource="http://purl.org/dc/dcmitype/StillImage"/>
<dc:date>2021-02-23T11:00:40.535698</dc:date>
<dc:format>image/svg+xml</dc:format>
<dc:creator>
<cc:Agent>
<dc:title>Matplotlib v3.3.3, https://matplotlib.org/</dc:title>
</cc:Agent>
</dc:creator>
</cc:Work>
</rdf:RDF>
</metadata>
<defs>
<style type="text/css">*{stroke-linecap:butt;stroke-linejoin:round;}</style>
</defs>
<path d="m0 480h912v-480h-912z" fill="#fff"/>
<g fill="none" stroke="#000">
<path d="m133.43 21.818-91.978 292.5" clip-path="url(#a)"/>
<path d="m133.43 21.818 91.978 73.39" clip-path="url(#a)"/>
<path d="m41.455 314.32 4.4101 72.43" clip-path="url(#a)"/>
<path d="m41.455 314.32v72.43" clip-path="url(#a)"/>
<path d="m225.41 95.208-166.32 291.54" clip-path="url(#a)"/>
<path d="m225.41 95.208-132.14 73.242" clip-path="url(#a)"/>
<path d="m225.41 95.208-69.295 291.54" clip-path="url(#a)"/>
<path d="m225.41 95.208-34.015 291.54" clip-path="url(#a)"/>
<path d="m225.41 95.208 5.6759 291.54" clip-path="url(#a)"/>
<path d="m225.41 95.208 49.776 291.54" clip-path="url(#a)"/>
<path d="m225.41 95.208 348.19 146.3" clip-path="url(#a)"/>
<path d="m225.41 95.208-100.17 291.54" clip-path="url(#a)"/>
<path d="m225.41 95.208 98.287 291.54" clip-path="url(#a)"/>
<path d="m59.095 386.75v71.436" clip-path="url(#a)"/>
<path d="m93.273 168.45-5.5126 73.057" clip-path="url(#a)"/>
<path d="m93.273 168.45 5.5126 145.87" clip-path="url(#a)"/>
<path d="m156.12 386.75v71.436" clip-path="url(#a)"/>
<path d="m191.4 386.75v71.436" clip-path="url(#a)"/>
<path d="m231.09 386.75v71.436" clip-path="url(#a)"/>
<path d="m275.19 386.75v71.436" clip-path="url(#a)"/>
<path d="m573.6 241.51-196.98 145.24" clip-path="url(#a)"/>
<path d="m573.6 241.51-76.441 72.809" clip-path="url(#a)"/>
<path d="m573.6 241.51 58.801 145.24" clip-path="url(#a)"/>
<path d="m573.6 241.51 214.62 72.809" clip-path="url(#a)"/>
<path d="m376.62 386.75v71.436" clip-path="url(#a)"/>
<path d="m497.16 314.32-63.211 72.43" clip-path="url(#a)"/>
<path d="m497.16 314.32-1.47 72.43" clip-path="url(#a)"/>
<path d="m497.16 314.32 64.681 72.43" clip-path="url(#a)"/>
<path d="m632.4 386.75v71.436" clip-path="url(#a)"/>
<path d="m788.22 314.32-80.851 72.43" clip-path="url(#a)"/>
<path d="m788.22 314.32-1.47 72.43" clip-path="url(#a)"/>
<path d="m788.22 314.32 82.321 72.43" clip-path="url(#a)"/>
<path d="m707.37 386.75v71.436" clip-path="url(#a)"/>
<path d="m786.75 386.75v71.436" clip-path="url(#a)"/>
<path d="m433.95 386.75v71.436" clip-path="url(#a)"/>
<path d="m495.69 386.75v71.436" clip-path="url(#a)"/>
<path d="m561.84 386.75v71.436" clip-path="url(#a)"/>
<path d="m87.76 241.51 11.025 72.809" clip-path="url(#a)" stroke-dasharray="3.7,1.6"/>
<path d="m87.76 241.51-11.025 145.24" clip-path="url(#a)"/>
<path d="m98.785 314.32v72.43" clip-path="url(#a)"/>
<path d="m98.785 386.75v71.436" clip-path="url(#a)"/>
<path d="m76.735 386.75v71.436" clip-path="url(#a)"/>
<path d="m41.455 386.75v71.436" clip-path="url(#a)"/>
<path d="m125.25 386.75v71.436" clip-path="url(#a)"/>
<path d="m323.7 386.75v71.436" clip-path="url(#a)"/>
<path d="m870.55 386.75v71.436" clip-path="url(#a)"/>
</g>
<path d="m92.524 172.82 1.8047-5.7392q0.71994-2.2895-1.5695-3.0094l-7.3859-2.3226q-2.2895-0.71994-3.0094 1.5695l-1.8047 5.7392q-0.71994 2.2895 1.5695 3.0094l7.3859 2.3226q2.2895 0.71994 3.0094-1.5695z" clip-path="url(#a)" fill="#fff" stroke="#fff"/>
<g clip-path="url(#a)">
<g transform="translate(88.647 171.6) rotate(-72.544) scale(.08 -.08)">
<defs>
<path id="aj" d="m9.8125 72.906h9.8594v-29.891h35.844v29.891h9.8594v-72.906h-9.8594v34.719h-35.844v-34.719h-9.8594z"/>
</defs>
<use xlink:href="#aj"/>
</g>
</g>
<path d="m173.16 61.539 4.7027 3.7523q1.876 1.4969 3.3729-0.37914l4.829-6.0521q1.4969-1.876-0.37914-3.3729l-4.7027-3.7523q-1.876-1.4969-3.3729 0.37914l-4.829 6.0521q-1.4969 1.876 0.37914 3.3729z" clip-path="url(#a)" fill="#fff" stroke="#fff"/>
<g clip-path="url(#a)">
<g transform="translate(175.69 58.362) rotate(38.586) scale(.08 -.08)">
<use xlink:href="#aj"/>
</g>
</g>
<path d="m37.23 348.12 0.3395 5.5759q0.14586 2.3956 2.5414 2.2497l7.7282-0.47055q2.3956-0.14586 2.2497-2.5414l-0.3395-5.5759q-0.14586-2.3956-2.5414-2.2497l-7.7282 0.47055q-2.3956 0.14586-2.2497 2.5414z" clip-path="url(#a)" fill="#fff" stroke="#fff"/>
<g clip-path="url(#a)">
<g transform="translate(41.286 347.88) rotate(86.516) scale(.08 -.08)">
<defs>
<path id="r" d="m64.406 67.281v-10.391q-4.9844 4.6406-10.625 6.9219-5.6406 2.2969-11.984 2.2969-12.5 0-19.141-7.6406t-6.6406-22.094q0-14.406 6.6406-22.047t19.141-7.6406q6.3438 0 11.984 2.2969t10.625 6.9375v-10.312q-5.1719-3.5156-10.969-5.2812-5.7812-1.75-12.219-1.75-16.562 0-26.094 10.125-9.5156 10.141-9.5156 27.672 0 17.578 9.5156 27.703 9.5312 10.141 26.094 10.141 6.5312 0 12.312-1.7344 5.7969-1.7344 10.875-5.2031z"/>
</defs>
<use xlink:href="#r"/>
</g>
</g>
<path d="m35.183 347.38v6.2975q0 2.4 2.4 2.4h7.7425q2.4 0 2.4-2.4v-6.2975q0-2.4-2.4-2.4h-7.7425q-2.4 0-2.4 2.4z" clip-path="url(#a)" fill="#fff" stroke="#fff"/>
<g clip-path="url(#a)">
<g transform="translate(39.247 347.38) rotate(90) scale(.08 -.08)">
<defs>
<path id="av" d="m39.406 66.219q-10.75 0-17.078-8.0156-6.3125-8-6.3125-21.828 0-13.766 6.3125-21.781 6.3281-8 17.078-8 10.734 0 17.016 8 6.2812 8.0156 6.2812 21.781 0 13.828-6.2812 21.828-6.2812 8.0156-17.016 8.0156zm13.812-64.906 13-14.203h-11.922l-10.797 11.672q-1.6094-0.09375-2.4688-0.14062-0.84375-0.0625-1.625-0.0625-15.375 0-24.594 10.281-9.2031 10.281-9.2031 27.516 0 17.281 9.2031 27.562 9.2188 10.281 24.594 10.281 15.328 0 24.5-10.281 9.1875-10.281 9.1875-27.562 0-12.688-5.1094-21.734-5.0938-9.0312-14.766-13.328z"/>
</defs>
<use xlink:href="#av"/>
</g>
</g>
<path d="m146.56 246.08 2.28-3.9966q1.1892-2.0846-0.8954-3.2739l-6.7251-3.8365q-2.0846-1.1892-3.2739 0.8954l-2.28 3.9966q-1.1892 2.0846 0.8954 3.2739l6.7251 3.8365q2.0846 1.1892 3.2739-0.8954z" clip-path="url(#a)" fill="#fff" stroke="#fff"/>
<g clip-path="url(#a)">
<g transform="translate(143.03 244.07) rotate(-60.296) scale(.08 -.08)">
<defs>
<path id="ak" d="m9.8125 72.906h41.891v-8.3125h-32.031v-21.484h28.906v-8.2969h-28.906v-34.812h-9.8594z"/>
</defs>
<use xlink:href="#ak"/>
</g>
</g>
<path d="m159.67 138.82 5.4216-3.0051q2.0991-1.1635 0.93561-3.2626l-3.7535-6.7718q-1.1635-2.0991-3.2626-0.93561l-5.4216 3.0051q-2.0991 1.1635-0.93561 3.2626l3.7535 6.7718q1.1635 2.0991 3.2626 0.93561z" clip-path="url(#a)" fill="#fff" stroke="#fff"/>
<g clip-path="url(#a)">
<g transform="translate(157.7 135.26) rotate(-28.999) scale(.08 -.08)">
<defs>
<path id="az" d="m59.516 10.406v19.578h-16.109v8.1094h25.875v-31.312q-5.7031-4.0469-12.594-6.125-6.875-2.0781-14.688-2.0781-17.094 0-26.75 9.9844-9.6406 10-9.6406 27.812 0 17.875 9.6406 27.859 9.6562 9.9844 26.75 9.9844 7.125 0 13.547-1.7656 6.4219-1.75 11.844-5.1719v-10.5q-5.4688 4.6406-11.625 6.9844t-12.938 2.3438q-13.391 0-20.109-7.4688-6.7031-7.4688-6.7031-22.266 0-14.75 6.7031-22.219 6.7188-7.4688 20.109-7.4688 5.2188 0 9.3125 0.90625 4.1094 0.90625 7.375 2.8125z"/>
</defs>
<use xlink:href="#az"/>
</g>
</g>
<path d="m196.15 245.42 1.4245-5.993q0.55499-2.3349-1.78-2.8899l-7.5326-1.7904q-2.3349-0.55499-2.8899 1.78l-1.4245 5.993q-0.55499 2.3349 1.78 2.8899l7.5326 1.7904q2.3349 0.55499 2.8899-1.78z" clip-path="url(#a)" fill="#fff" stroke="#fff"/>
<g clip-path="url(#a)">
<g transform="translate(192.2 244.48) rotate(-76.63) scale(.08 -.08)">
<defs>
<path id="al" d="m19.672 64.797v-56.688h11.922q15.094 0 22.094 6.8281 7 6.8438 7 21.594 0 14.641-7 21.453t-22.094 6.8125zm-9.8594 8.1094h20.266q21.188 0 31.094-8.8125 9.9219-8.8125 9.9219-27.562 0-18.859-9.9688-27.703-9.9531-8.8281-31.047-8.8281h-20.266z"/>
</defs>
<use xlink:href="#al"/>
</g>
</g>
<path d="m214.32 244.42 0.63419-5.4356q0.27813-2.3838-2.1057-2.662l-7.6903-0.89725q-2.3838-0.27813-2.662 2.1057l-0.63419 5.4356q-0.27813 2.3838 2.1057 2.662l7.6903 0.89725q2.3838 0.27813 2.662-2.1057z" clip-path="url(#a)" fill="#fff" stroke="#fff"/>
<g clip-path="url(#a)">
<g transform="translate(210.28 243.95) rotate(-83.345) scale(.08 -.08)">
<defs>
<path id="q" d="m34.188 63.188-13.391-36.281h26.812zm-5.5781 9.7188h11.188l27.781-72.906h-10.25l-6.6406 18.703h-32.859l-6.6406-18.703h-10.406z"/>
</defs>
<use xlink:href="#q"/>
</g>
</g>
<path d="m221.93 238.69 0.093895 4.8228q0.046717 2.3995 2.4463 2.3528l7.741-0.15071q2.3995-0.046716 2.3528-2.4463l-0.093895-4.8228q-0.046716-2.3995-2.4463-2.3528l-7.741 0.15071q-2.3995 0.046717-2.3528 2.4463z" clip-path="url(#a)" fill="#fff" stroke="#fff"/>
<g clip-path="url(#a)">
<g transform="translate(226 238.61) rotate(88.885) scale(.08 -.08)">
<defs>
<path id="aa" d="m19.672 64.797v-27.391h12.406q6.8906 0 10.641 3.5625 3.7656 3.5625 3.7656 10.156 0 6.5469-3.7656 10.109-3.75 3.5625-10.641 3.5625zm-9.8594 8.1094h22.266q12.266 0 18.531-5.5469 6.2812-5.5469 6.2812-16.234 0-10.797-6.2812-16.312-6.2656-5.5156-18.531-5.5156h-12.406v-29.297h-9.8594z"/>
</defs>
<use xlink:href="#aa"/>
</g>
</g>
<path d="m243.6 239 1.0367 6.0721q0.40392 2.3658 2.7697 1.9618l7.6321-1.3031q2.3658-0.40392 1.9618-2.7697l-1.0367-6.0721q-0.40392-2.3658-2.7697-1.9618l-7.6321 1.3031q-2.3658 0.40392-1.9618 2.7697z" clip-path="url(#a)" fill="#fff" stroke="#fff"/>
<g clip-path="url(#a)">
<g transform="translate(247.6 238.31) rotate(80.311) scale(.08 -.08)">
<use xlink:href="#al"/>
</g>
</g>
<path d="m394.55 173.08 5.0452 2.1199q2.2126 0.92968 3.1423-1.2829l2.9992-7.138q0.92968-2.2126-1.2829-3.1423l-5.0452-2.1199q-2.2126-0.92968-3.1423 1.2829l-2.9992 7.138q-0.92968 2.2126 1.2829 3.1423z" clip-path="url(#a)" fill="#fff" stroke="#fff"/>
<g clip-path="url(#a)">
<g transform="translate(396.13 169.33) rotate(22.791) scale(.08 -.08)">
<use xlink:href="#q"/>
</g>
</g>
<path d="m180.31 245.78 1.9025-5.5373q0.77984-2.2698-1.4899-3.0496l-7.3224-2.5158q-2.2698-0.77984-3.0496 1.4899l-1.9025 5.5373q-0.77984 2.2698 1.4899 3.0496l7.3224 2.5158q2.2698 0.77984 3.0496-1.4899z" clip-path="url(#a)" fill="#fff" stroke="#fff"/>
<g clip-path="url(#a)">
<g transform="translate(176.46 244.46) rotate(-71.039) scale(.08 -.08)">
<defs>
<path id="y" d="m8.6875 72.906h9.9219v-44.297q0-11.719 4.2344-16.875 4.25-5.1406 13.781-5.1406 9.4688 0 13.719 5.1406 4.25 5.1562 4.25 16.875v44.297h9.9062v-45.516q0-14.25-7.0625-21.531-7.0469-7.2812-20.812-7.2812-13.828 0-20.891 7.2812-7.0469 7.2812-7.0469 21.531z"/>
</defs>
<use xlink:href="#y"/>
</g>
</g>
<path d="m267.68 240.21 1.8705 5.5482q0.76672 2.2742 3.041 1.5075l7.3368-2.4735q2.2742-0.76672 1.5075-3.041l-1.8705-5.5482q-0.76672-2.2742-3.041-1.5075l-7.3368 2.4735q-2.2742 0.76672-1.5075 3.041z" clip-path="url(#a)" fill="#fff" stroke="#fff"/>
<g clip-path="url(#a)">
<g transform="translate(271.53 238.91) rotate(71.369) scale(.08 -.08)">
<use xlink:href="#y"/>
</g>
</g>
<path d="m52.824 405.56v33.808q0 2.4 2.4 2.4h7.7425q2.4 0 2.4-2.4v-33.808q0-2.4-2.4-2.4h-7.7425q-2.4 0-2.4 2.4z" clip-path="url(#a)" fill="#fff" stroke="#fff"/>
<g clip-path="url(#a)">
<g transform="translate(56.887 405.56) rotate(90) scale(.08 -.08)">
<defs>
<path id="e" d="m-0.29688 72.906h61.672v-8.3125h-25.875v-64.594h-9.9062v64.594h-25.891z"/>
<path id="l" d="m56.203 29.594v-4.3906h-41.312q0.59375-9.2812 5.5938-14.141t13.938-4.8594q5.1719 0 10.031 1.2656t9.6562 3.8125v-8.5q-4.8438-2.0469-9.9219-3.125t-10.297-1.0781q-13.094 0-20.734 7.6094-7.6406 7.625-7.6406 20.625 0 13.422 7.25 21.297 7.25 7.8906 19.562 7.8906 11.031 0 17.453-7.1094 6.4219-7.0938 6.4219-19.297zm-8.9844 2.6406q-0.09375 7.3594-4.125 11.75-4.0312 4.4062-10.672 4.4062-7.5156 0-12.031-4.25t-5.2031-11.969z"/>
<path id="g" d="m41.109 46.297q-1.5156 0.875-3.2969 1.2812-1.7812 0.42188-3.9219 0.42188-7.625 0-11.703-4.9531t-4.0781-14.234v-28.812h-9.0312v54.688h9.0312v-8.5q2.8438 4.9844 7.375 7.3906 4.5469 2.4219 11.047 2.4219 0.92188 0 2.0469-0.125 1.125-0.10938 2.4844-0.35938z"/>
<path id="i" d="m52 44.188q3.375 6.0625 8.0625 8.9375t11.031 2.875q8.5469 0 13.188-5.9844 4.6406-5.9688 4.6406-17v-33.016h-9.0312v32.719q0 7.8594-2.7969 11.656-2.7812 3.8125-8.4844 3.8125-6.9844 0-11.047-4.6406-4.0469-4.625-4.0469-12.641v-30.906h-9.0312v32.719q0 7.9062-2.7812 11.688t-8.5938 3.7812q-6.8906 0-10.953-4.6562-4.0469-4.6562-4.0469-12.625v-30.906h-9.0312v54.688h9.0312v-8.5q3.0781 5.0312 7.375 7.4219t10.203 2.3906q5.9688 0 10.141-3.0312 4.1719-3.0156 6.1719-8.7812z"/>
<path id="k" d="m9.4219 54.688h8.9844v-54.688h-8.9844zm0 21.297h8.9844v-11.391h-8.9844z"/>
<path id="h" d="m54.891 33.016v-33.016h-8.9844v32.719q0 7.7656-3.0312 11.609-3.0312 3.8594-9.0781 3.8594-7.2812 0-11.484-4.6406-4.2031-4.625-4.2031-12.641v-30.906h-9.0312v54.688h9.0312v-8.5q3.2344 4.9375 7.5938 7.375 4.375 2.4375 10.094 2.4375 9.4219 0 14.25-5.8281 4.8438-5.8281 4.8438-17.156z"/>
<path id="f" d="m34.281 27.484q-10.891 0-15.094-2.4844t-4.2031-8.5q0-4.7812 3.1562-7.5938 3.1562-2.7969 8.5625-2.7969 7.4844 0 12 5.2969t4.5156 14.078v2zm17.922 3.7188v-31.203h-8.9844v8.2969q-3.0781-4.9688-7.6719-7.3438t-11.234-2.375q-8.3906 0-13.359 4.7188-4.9531 4.7188-4.9531 12.625 0 9.2188 6.1719 13.906 6.1875 4.6875 18.438 4.6875h12.609v0.89062q0 6.2031-4.0781 9.5938t-11.453 3.3906q-4.6875 0-9.1406-1.125-4.4375-1.125-8.5312-3.375v8.3125q4.9219 1.9062 9.5625 2.8438 4.6406 0.95312 9.0312 0.95312 11.875 0 17.734-6.1562 5.8594-6.1406 5.8594-18.641z"/>
<path id="j" d="m9.4219 75.984h8.9844v-75.984h-8.9844z"/>
</defs>
<use xlink:href="#e"/>
<use x="44.083984" xlink:href="#l"/>
<use x="105.607422" xlink:href="#g"/>
<use x="144.970703" xlink:href="#i"/>
<use x="242.382812" xlink:href="#k"/>
<use x="270.166016" xlink:href="#h"/>
<use x="333.544922" xlink:href="#f"/>
<use x="394.824219" xlink:href="#j"/>
</g>
</g>
<path d="m96.58 207.97 0.38035-5.0407q0.18058-2.3932-2.2126-2.5738l-7.7206-0.58256q-2.3932-0.18058-2.5738 2.2126l-0.38035 5.0407q-0.18058 2.3932 2.2126 2.5738l7.7206 0.58256q2.3932 0.18058 2.5738-2.2126z" clip-path="url(#a)" fill="#fff" stroke="#fff"/>
<g clip-path="url(#a)">
<g transform="translate(92.528 207.66) rotate(-85.685) scale(.08 -.08)">
<defs>
<path id="ba" d="m9.8125 72.906h46.094v-8.3125h-36.234v-21.578h34.719v-8.2969h-34.719v-26.422h37.109v-8.2969h-46.969z"/>
</defs>
<use xlink:href="#ba"/>
</g>
</g>
<path d="m89.657 238.83 0.21096 5.5823q0.090636 2.3983 2.4889 2.3077l7.737-0.2924q2.3983-0.090635 2.3077-2.4889l-0.21096-5.5823q-0.090636-2.3983-2.4889-2.3077l-7.737 0.2924q-2.3983 0.090636-2.3077 2.4889z" clip-path="url(#a)" fill="#fff" stroke="#fff"/>
<g clip-path="url(#a)">
<g transform="translate(93.718 238.68) rotate(87.836) scale(.08 -.08)">
<use xlink:href="#r"/>
</g>
</g>
<path d="m149.84 405.56v33.808q0 2.4 2.4 2.4h7.7425q2.4 0 2.4-2.4v-33.808q0-2.4-2.4-2.4h-7.7425q-2.4 0-2.4 2.4z" clip-path="url(#a)" fill="#fff" stroke="#fff"/>
<g clip-path="url(#a)">
<g transform="translate(153.91 405.56) rotate(90) scale(.08 -.08)">
<use xlink:href="#e"/>
<use x="44.083984" xlink:href="#l"/>
<use x="105.607422" xlink:href="#g"/>
<use x="144.970703" xlink:href="#i"/>
<use x="242.382812" xlink:href="#k"/>
<use x="270.166016" xlink:href="#h"/>
<use x="333.544922" xlink:href="#f"/>
<use x="394.824219" xlink:href="#j"/>
</g>
</g>
<path d="m185.13 405.56v33.808q0 2.4 2.4 2.4h7.7425q2.4 0 2.4-2.4v-33.808q0-2.4-2.4-2.4h-7.7425q-2.4 0-2.4 2.4z" clip-path="url(#a)" fill="#fff" stroke="#fff"/>
<g clip-path="url(#a)">
<g transform="translate(189.19 405.56) rotate(90) scale(.08 -.08)">
<use xlink:href="#e"/>
<use x="44.083984" xlink:href="#l"/>
<use x="105.607422" xlink:href="#g"/>
<use x="144.970703" xlink:href="#i"/>
<use x="242.382812" xlink:href="#k"/>
<use x="270.166016" xlink:href="#h"/>
<use x="333.544922" xlink:href="#f"/>
<use x="394.824219" xlink:href="#j"/>
</g>
</g>
<path d="m224.82 405.56v33.808q0 2.4 2.4 2.4h7.7425q2.4 0 2.4-2.4v-33.808q0-2.4-2.4-2.4h-7.7425q-2.4 0-2.4 2.4z" clip-path="url(#a)" fill="#fff" stroke="#fff"/>
<g clip-path="url(#a)">
<g transform="translate(228.88 405.56) rotate(90) scale(.08 -.08)">
<use xlink:href="#e"/>
<use x="44.083984" xlink:href="#l"/>
<use x="105.607422" xlink:href="#g"/>
<use x="144.970703" xlink:href="#i"/>
<use x="242.382812" xlink:href="#k"/>
<use x="270.166016" xlink:href="#h"/>
<use x="333.544922" xlink:href="#f"/>
<use x="394.824219" xlink:href="#j"/>
</g>
</g>
<path d="m268.92 405.56v33.808q0 2.4 2.4 2.4h7.7425q2.4 0 2.4-2.4v-33.808q0-2.4-2.4-2.4h-7.7425q-2.4 0-2.4 2.4z" clip-path="url(#a)" fill="#fff" stroke="#fff"/>
<g clip-path="url(#a)">
<g transform="translate(272.98 405.56) rotate(90) scale(.08 -.08)">
<use xlink:href="#e"/>
<use x="44.083984" xlink:href="#l"/>
<use x="105.607422" xlink:href="#g"/>
<use x="144.970703" xlink:href="#i"/>
<use x="242.382812" xlink:href="#k"/>
<use x="270.166016" xlink:href="#h"/>
<use x="333.544922" xlink:href="#f"/>
<use x="394.824219" xlink:href="#j"/>
</g>
</g>
<path d="m476.59 320.82 4.4741-3.2988q1.9317-1.4243 0.50742-3.356l-4.5948-6.2317q-1.4243-1.9317-3.356-0.50742l-4.4741 3.2988q-1.9317 1.4243-0.50742 3.356l4.5948 6.2317q1.4243 1.9317 3.356 0.50742z" clip-path="url(#a)" fill="#fff" stroke="#fff"/>
<g clip-path="url(#a)">
<g transform="translate(474.18 317.55) rotate(-36.402) scale(.08 -.08)">
<defs>
<path id="au" d="m44.391 34.188q3.1719-1.0781 6.1719-4.5938t6.0312-9.6719l10.016-19.922h-10.609l-9.3125 18.703q-3.625 7.3281-7.0156 9.7188t-9.25 2.3906h-10.75v-30.812h-9.8594v72.906h22.266q12.5 0 18.656-5.2344 6.1562-5.2188 6.1562-15.766 0-6.8906-3.2031-11.438-3.2031-4.5312-9.2969-6.2812zm-24.719 30.609v-25.875h12.406q7.125 0 10.766 3.2969t3.6406 9.6875-3.6406 9.6406-10.766 3.25z"/>
</defs>
<use xlink:href="#au"/>
</g>
</g>
<path d="m537.87 284.2 3.6775-3.5028q1.7378-1.6553 0.082562-3.3931l-5.34-5.6063q-1.6553-1.7378-3.3931-0.082562l-3.6775 3.5028q-1.7378 1.6553-0.082562 3.3931l5.34 5.6063q1.6553 1.7378 3.3931 0.082562z" clip-path="url(#a)" fill="#fff" stroke="#fff"/>
<g clip-path="url(#a)">
<g transform="translate(535.06 281.26) rotate(-43.606) scale(.08 -.08)">
<defs>
<path id="z" d="m53.516 70.516v-9.625q-5.6094 2.6875-10.594 4-4.9844 1.3281-9.625 1.3281-8.0469 0-12.422-3.125t-4.375-8.8906q0-4.8438 2.9062-7.3125 2.9062-2.4531 11.016-3.9688l5.9531-1.2188q11.031-2.1094 16.281-7.4062t5.25-14.172q0-10.609-7.1094-16.078-7.0938-5.4688-20.812-5.4688-5.1719 0-11.016 1.1719-5.8281 1.1719-12.078 3.4688v10.156q6-3.3594 11.766-5.0781 5.7656-1.7031 11.328-1.7031 8.4375 0 13.031 3.3125 4.5938 3.3281 4.5938 9.4844 0 5.3594-3.2969 8.3906t-10.812 4.5469l-6.0156 1.1719q-11.031 2.1875-15.969 6.875-4.9219 4.6875-4.9219 13.047 0 9.6719 6.8125 15.234t18.766 5.5625q5.1406 0 10.453-0.9375 5.3281-0.92188 10.891-2.7656z"/>
</defs>
<use xlink:href="#z"/>
</g>
</g>
<path d="m596.33 314.35 1.7267 4.265q0.90064 2.2246 3.1252 1.324l7.1767-2.9055q2.2246-0.90064 1.324-3.1252l-1.7267-4.265q-0.90064-2.2246-3.1252-1.324l-7.1767 2.9055q-2.2246 0.90064-1.324 3.1252z" clip-path="url(#a)" fill="#fff" stroke="#fff"/>
<g clip-path="url(#a)">
<g transform="translate(600.09 312.82) rotate(67.959) scale(.08 -.08)">
<use xlink:href="#ak"/>
</g>
</g>
<path d="m676.31 282.97 5.1824 1.7581q2.2728 0.77102 3.0438-1.5018l2.4874-7.3321q0.77102-2.2728-1.5018-3.0438l-5.1824-1.7581q-2.2728-0.77103-3.0438 1.5018l-2.4874 7.3321q-0.77103 2.2728 1.5018 3.0438z" clip-path="url(#a)" fill="#fff" stroke="#fff"/>
<g clip-path="url(#a)">
<g transform="translate(677.61 279.12) rotate(18.739) scale(.08 -.08)">
<use xlink:href="#q"/>
</g>
</g>
<path d="m370.35 405.56v33.808q0 2.4 2.4 2.4h7.7425q2.4 0 2.4-2.4v-33.808q0-2.4-2.4-2.4h-7.7425q-2.4 0-2.4 2.4z" clip-path="url(#a)" fill="#fff" stroke="#fff"/>
<g clip-path="url(#a)">
<g transform="translate(374.41 405.56) rotate(90) scale(.08 -.08)">
<use xlink:href="#e"/>
<use x="44.083984" xlink:href="#l"/>
<use x="105.607422" xlink:href="#g"/>
<use x="144.970703" xlink:href="#i"/>
<use x="242.382812" xlink:href="#k"/>
<use x="270.166016" xlink:href="#h"/>
<use x="333.544922" xlink:href="#f"/>
<use x="394.824219" xlink:href="#j"/>
</g>
</g>
<path d="m468.44 356.76 3.6731-4.2088q1.5781-1.8082-0.23015-3.3863l-5.8334-5.0909q-1.8082-1.5781-3.3863 0.23015l-3.6731 4.2088q-1.5781 1.8082 0.23015 3.3863l5.8334 5.0909q1.8082 1.5781 3.3863-0.23015z" clip-path="url(#a)" fill="#fff" stroke="#fff"/>
<g clip-path="url(#a)">
<g transform="translate(465.38 354.09) rotate(-48.888) scale(.08 -.08)">
<use xlink:href="#r"/>
</g>
</g>
<path d="m502.63 353.65 0.12145-5.9838q0.0487-2.3995-2.3508-2.4482l-7.7409-0.15711q-2.3995-0.0487-2.4482 2.3508l-0.12145 5.9838q-0.0487 2.3995 2.3508 2.4482l7.7409 0.15711q2.3995 0.0487 2.4482-2.3508z" clip-path="url(#a)" fill="#fff" stroke="#fff"/>
<g clip-path="url(#a)">
<g transform="translate(498.57 353.57) rotate(-88.837) scale(.08 -.08)">
<defs>
<path id="aw" d="m9.8125 72.906h13.281l32.328-60.984v60.984h9.5625v-72.906h-13.281l-32.312 60.984v-60.984h-9.5781z"/>
</defs>
<use xlink:href="#aw"/>
</g>
</g>
<path d="m522.96 352.63 3.7209 4.1667q1.5986 1.7901 3.3887 0.19151l5.775-5.1571q1.7901-1.5986 0.19151-3.3887l-3.7209-4.1667q-1.5986-1.7901-3.3887-0.19151l-5.775 5.1571q-1.7901 1.5986-0.19151 3.3887z" clip-path="url(#a)" fill="#fff" stroke="#fff"/>
<g clip-path="url(#a)">
<g transform="translate(525.99 349.92) rotate(48.235) scale(.08 -.08)">
<use xlink:href="#r"/>
</g>
</g>
<path d="m626.13 405.56v33.808q0 2.4 2.4 2.4h7.7425q2.4 0 2.4-2.4v-33.808q0-2.4-2.4-2.4h-7.7425q-2.4 0-2.4 2.4z" clip-path="url(#a)" fill="#fff" stroke="#fff"/>
<g clip-path="url(#a)">
<g transform="translate(630.19 405.56) rotate(90) scale(.08 -.08)">
<use xlink:href="#e"/>
<use x="44.083984" xlink:href="#l"/>
<use x="105.607422" xlink:href="#g"/>
<use x="144.970703" xlink:href="#i"/>
<use x="242.382812" xlink:href="#k"/>
<use x="270.166016" xlink:href="#h"/>
<use x="333.544922" xlink:href="#f"/>
<use x="394.824219" xlink:href="#j"/>
</g>
</g>
<path d="m749.95 357.03 4.0761-3.6515q1.7876-1.6014 0.1862-3.389l-5.1662-5.7669q-1.6014-1.7876-3.389-0.1862l-4.0761 3.6515q-1.7876 1.6014-0.1862 3.389l5.1662 5.7669q1.6014 1.7876 3.389 0.1862z" clip-path="url(#a)" fill="#fff" stroke="#fff"/>
<g clip-path="url(#a)">
<g transform="translate(747.23 354) rotate(-41.855) scale(.08 -.08)">
<use xlink:href="#q"/>
</g>
</g>
<path d="m793.71 353.07 0.097882-4.8228q0.0487-2.3995-2.3508-2.4482l-7.7409-0.15711q-2.3995-0.0487-2.4482 2.3508l-0.097882 4.8228q-0.0487 2.3995 2.3508 2.4482l7.7409 0.15711q2.3995 0.0487 2.4482-2.3508z" clip-path="url(#a)" fill="#fff" stroke="#fff"/>
<g clip-path="url(#a)">
<g transform="translate(789.65 352.99) rotate(-88.837) scale(.08 -.08)">
<use xlink:href="#aa"/>
</g>
</g>
<path d="m823.04 353.31 4.3958 3.8676q1.8019 1.5853 3.3872-0.21651l5.1144-5.8129q1.5853-1.8019-0.21651-3.3872l-4.3958-3.8676q-1.8019-1.5853-3.3872 0.21651l-5.1144 5.8129q-1.5853 1.8019 0.21651 3.3872z" clip-path="url(#a)" fill="#fff" stroke="#fff"/>
<g clip-path="url(#a)">
<g transform="translate(825.73 350.25) rotate(41.343) scale(.08 -.08)">
<use xlink:href="#y"/>
</g>
</g>
<path d="m701.1 405.56v33.808q0 2.4 2.4 2.4h7.7425q2.4 0 2.4-2.4v-33.808q0-2.4-2.4-2.4h-7.7425q-2.4 0-2.4 2.4z" clip-path="url(#a)" fill="#fff" stroke="#fff"/>
<g clip-path="url(#a)">
<g transform="translate(705.17 405.56) rotate(90) scale(.08 -.08)">
<use xlink:href="#e"/>
<use x="44.083984" xlink:href="#l"/>
<use x="105.607422" xlink:href="#g"/>
<use x="144.970703" xlink:href="#i"/>
<use x="242.382812" xlink:href="#k"/>
<use x="270.166016" xlink:href="#h"/>
<use x="333.544922" xlink:href="#f"/>
<use x="394.824219" xlink:href="#j"/>
</g>
</g>
<path d="m780.48 405.56v33.808q0 2.4 2.4 2.4h7.7425q2.4 0 2.4-2.4v-33.808q0-2.4-2.4-2.4h-7.7425q-2.4 0-2.4 2.4z" clip-path="url(#a)" fill="#fff" stroke="#fff"/>
<g clip-path="url(#a)">
<g transform="translate(784.55 405.56) rotate(90) scale(.08 -.08)">
<use xlink:href="#e"/>
<use x="44.083984" xlink:href="#l"/>
<use x="105.607422" xlink:href="#g"/>
<use x="144.970703" xlink:href="#i"/>
<use x="242.382812" xlink:href="#k"/>
<use x="270.166016" xlink:href="#h"/>
<use x="333.544922" xlink:href="#f"/>
<use x="394.824219" xlink:href="#j"/>
</g>
</g>
<path d="m427.68 405.56v33.808q0 2.4 2.4 2.4h7.7425q2.4 0 2.4-2.4v-33.808q0-2.4-2.4-2.4h-7.7425q-2.4 0-2.4 2.4z" clip-path="url(#a)" fill="#fff" stroke="#fff"/>
<g clip-path="url(#a)">
<g transform="translate(431.74 405.56) rotate(90) scale(.08 -.08)">
<use xlink:href="#e"/>
<use x="44.083984" xlink:href="#l"/>
<use x="105.607422" xlink:href="#g"/>
<use x="144.970703" xlink:href="#i"/>
<use x="242.382812" xlink:href="#k"/>
<use x="270.166016" xlink:href="#h"/>
<use x="333.544922" xlink:href="#f"/>
<use x="394.824219" xlink:href="#j"/>
</g>
</g>
<path d="m489.42 405.56v33.808q0 2.4 2.4 2.4h7.7425q2.4 0 2.4-2.4v-33.808q0-2.4-2.4-2.4h-7.7425q-2.4 0-2.4 2.4z" clip-path="url(#a)" fill="#fff" stroke="#fff"/>
<g clip-path="url(#a)">
<g transform="translate(493.48 405.56) rotate(90) scale(.08 -.08)">
<use xlink:href="#e"/>
<use x="44.083984" xlink:href="#l"/>
<use x="105.607422" xlink:href="#g"/>
<use x="144.970703" xlink:href="#i"/>
<use x="242.382812" xlink:href="#k"/>
<use x="270.166016" xlink:href="#h"/>
<use x="333.544922" xlink:href="#f"/>
<use x="394.824219" xlink:href="#j"/>
</g>
</g>
<path d="m555.57 405.56v33.808q0 2.4 2.4 2.4h7.7425q2.4 0 2.4-2.4v-33.808q0-2.4-2.4-2.4h-7.7425q-2.4 0-2.4 2.4z" clip-path="url(#a)" fill="#fff" stroke="#fff"/>
<g clip-path="url(#a)">
<g transform="translate(559.63 405.56) rotate(90) scale(.08 -.08)">
<use xlink:href="#e"/>
<use x="44.083984" xlink:href="#l"/>
<use x="105.607422" xlink:href="#g"/>
<use x="144.970703" xlink:href="#i"/>
<use x="242.382812" xlink:href="#k"/>
<use x="270.166016" xlink:href="#h"/>
<use x="333.544922" xlink:href="#f"/>
<use x="394.824219" xlink:href="#j"/>
</g>
</g>
<path d="m86.662 276.15 0.81933 5.4108q0.35932 2.3729 2.7323 2.0136l7.6552-1.1592q2.3729-0.35932 2.0136-2.7323l-0.81933-5.4108q-0.35932-2.3729-2.7323-2.0136l-7.6552 1.1592q-2.3729 0.35932-2.0136 2.7323z" clip-path="url(#a)" fill="#fff" stroke="#fff"/>
<g clip-path="url(#a)">
<g transform="translate(90.68 275.54) rotate(81.389) scale(.08 -.08)">
<use xlink:href="#q"/>
</g>
</g>
<path d="m88.309 317.13 0.38442-5.0642q0.18166-2.3931-2.2115-2.5748l-7.7203-0.58605q-2.3931-0.18166-2.5748 2.2115l-0.38442 5.0642q-0.18166 2.3931 2.2115 2.5748l7.7203 0.58605q2.3931 0.18166 2.5748-2.2115z" clip-path="url(#a)" fill="#fff" stroke="#fff"/>
<g clip-path="url(#a)">
<g transform="translate(84.257 316.83) rotate(-85.659) scale(.08 -.08)">
<use xlink:href="#z"/>
</g>
</g>
<path d="m92.385 343.91v13.246q0 2.4 2.4 2.4h8q2.4 0 2.4-2.4v-13.246q0-2.4-2.4-2.4h-8q-2.4 0-2.4 2.4z" clip-path="url(#a)" fill="#fff" stroke="#fff"/>
<g clip-path="url(#a)">
<g transform="translate(96.672 343.91) rotate(90) scale(.08 -.08)">
<defs>
<path id="bd" d="m21 76.422v-100h-8.2969v100z"/>
</defs>
<use xlink:href="#q"/>
<use x="68.408203" xlink:href="#bd"/>
<use x="102.099609" xlink:href="#z"/>
</g>
</g>
<path d="m92.514 405.56v33.808q0 2.4 2.4 2.4h7.7425q2.4 0 2.4-2.4v-33.808q0-2.4-2.4-2.4h-7.7425q-2.4 0-2.4 2.4z" clip-path="url(#a)" fill="#fff" stroke="#fff"/>
<g clip-path="url(#a)">
<g transform="translate(96.578 405.56) rotate(90) scale(.08 -.08)">
<use xlink:href="#e"/>
<use x="44.083984" xlink:href="#l"/>
<use x="105.607422" xlink:href="#g"/>
<use x="144.970703" xlink:href="#i"/>
<use x="242.382812" xlink:href="#k"/>
<use x="270.166016" xlink:href="#h"/>
<use x="333.544922" xlink:href="#f"/>
<use x="394.824219" xlink:href="#j"/>
</g>
</g>
<path d="m70.464 405.56v33.808q0 2.4 2.4 2.4h7.7425q2.4 0 2.4-2.4v-33.808q0-2.4-2.4-2.4h-7.7425q-2.4 0-2.4 2.4z" clip-path="url(#a)" fill="#fff" stroke="#fff"/>
<g clip-path="url(#a)">
<g transform="translate(74.528 405.56) rotate(90) scale(.08 -.08)">
<use xlink:href="#e"/>
<use x="44.083984" xlink:href="#l"/>
<use x="105.607422" xlink:href="#g"/>
<use x="144.970703" xlink:href="#i"/>
<use x="242.382812" xlink:href="#k"/>
<use x="270.166016" xlink:href="#h"/>
<use x="333.544922" xlink:href="#f"/>
<use x="394.824219" xlink:href="#j"/>
</g>
</g>
<path d="m35.183 405.56v33.808q0 2.4 2.4 2.4h7.7425q2.4 0 2.4-2.4v-33.808q0-2.4-2.4-2.4h-7.7425q-2.4 0-2.4 2.4z" clip-path="url(#a)" fill="#fff" stroke="#fff"/>
<g clip-path="url(#a)">
<g transform="translate(39.247 405.56) rotate(90) scale(.08 -.08)">
<use xlink:href="#e"/>
<use x="44.083984" xlink:href="#l"/>
<use x="105.607422" xlink:href="#g"/>
<use x="144.970703" xlink:href="#i"/>
<use x="242.382812" xlink:href="#k"/>
<use x="270.166016" xlink:href="#h"/>
<use x="333.544922" xlink:href="#f"/>
<use x="394.824219" xlink:href="#j"/>
</g>
</g>
<path d="m118.97 405.56v33.808q0 2.4 2.4 2.4h7.7425q2.4 0 2.4-2.4v-33.808q0-2.4-2.4-2.4h-7.7425q-2.4 0-2.4 2.4z" clip-path="url(#a)" fill="#fff" stroke="#fff"/>
<g clip-path="url(#a)">
<g transform="translate(123.04 405.56) rotate(90) scale(.08 -.08)">
<use xlink:href="#e"/>
<use x="44.083984" xlink:href="#l"/>
<use x="105.607422" xlink:href="#g"/>
<use x="144.970703" xlink:href="#i"/>
<use x="242.382812" xlink:href="#k"/>
<use x="270.166016" xlink:href="#h"/>
<use x="333.544922" xlink:href="#f"/>
<use x="394.824219" xlink:href="#j"/>
</g>
</g>
<path d="m317.43 405.56v33.808q0 2.4 2.4 2.4h7.7425q2.4 0 2.4-2.4v-33.808q0-2.4-2.4-2.4h-7.7425q-2.4 0-2.4 2.4z" clip-path="url(#a)" fill="#fff" stroke="#fff"/>
<g clip-path="url(#a)">
<g transform="translate(321.49 405.56) rotate(90) scale(.08 -.08)">
<use xlink:href="#e"/>
<use x="44.083984" xlink:href="#l"/>
<use x="105.607422" xlink:href="#g"/>
<use x="144.970703" xlink:href="#i"/>
<use x="242.382812" xlink:href="#k"/>
<use x="270.166016" xlink:href="#h"/>
<use x="333.544922" xlink:href="#f"/>
<use x="394.824219" xlink:href="#j"/>
</g>
</g>
<path d="m864.27 405.56v33.808q0 2.4 2.4 2.4h7.7425q2.4 0 2.4-2.4v-33.808q0-2.4-2.4-2.4h-7.7425q-2.4 0-2.4 2.4z" clip-path="url(#a)" fill="#fff" stroke="#fff"/>
<g clip-path="url(#a)">
<g transform="translate(868.34 405.56) rotate(90) scale(.08 -.08)">
<use xlink:href="#e"/>
<use x="44.083984" xlink:href="#l"/>
<use x="105.607422" xlink:href="#g"/>
<use x="144.970703" xlink:href="#i"/>
<use x="242.382812" xlink:href="#k"/>
<use x="270.166016" xlink:href="#h"/>
<use x="333.544922" xlink:href="#f"/>
<use x="394.824219" xlink:href="#j"/>
</g>
</g>
<defs>
<path id="b" d="m0 8.6603c2.2967 0 4.4997-0.9125 6.1237-2.5365 1.624-1.624 2.5365-3.827 2.5365-6.1237s-0.9125-4.4997-2.5365-6.1237c-1.624-1.624-3.827-2.5365-6.1237-2.5365s-4.4997 0.9125-6.1237 2.5365c-1.624 1.624-2.5365 3.827-2.5365 6.1237s0.9125 4.4997 2.5365 6.1237c1.624 1.624 3.827 2.5365 6.1237 2.5365z"/>
</defs>
<g clip-path="url(#a)" fill="#ffffff" stroke="#ffffff">
<use x="41.454545" y="458.181818" xlink:href="#b"/>
<use x="59.094778" y="458.181818" xlink:href="#b"/>
<use x="76.73501" y="458.181818" xlink:href="#b"/>
<use x="98.7853" y="458.181818" xlink:href="#b"/>
<use x="125.245648" y="458.181818" xlink:href="#b"/>
<use x="156.116054" y="458.181818" xlink:href="#b"/>
<use x="191.396518" y="458.181818" xlink:href="#b"/>
<use x="231.087041" y="458.181818" xlink:href="#b"/>
<use x="275.187621" y="458.181818" xlink:href="#b"/>
<use x="323.698259" y="458.181818" xlink:href="#b"/>
<use x="376.618956" y="458.181818" xlink:href="#b"/>
<use x="433.94971" y="458.181818" xlink:href="#b"/>
<use x="495.690522" y="458.181818" xlink:href="#b"/>
<use x="561.841393" y="458.181818" xlink:href="#b"/>
<use x="632.402321" y="458.181818" xlink:href="#b"/>
<use x="707.373308" y="458.181818" xlink:href="#b"/>
<use x="786.754352" y="458.181818" xlink:href="#b"/>
<use x="870.545455" y="458.181818" xlink:href="#b"/>
<use x="45.864603" y="386.746038" xlink:href="#b"/>
<use x="133.432839" y="21.818182" xlink:href="#b"/>
<use x="41.454545" y="314.316508" xlink:href="#b"/>
<use x="225.411133" y="95.207838" xlink:href="#b"/>
<use x="59.094778" y="386.746038" xlink:href="#b"/>
<use x="93.272727" y="168.449874" xlink:href="#b"/>
<use x="156.116054" y="386.746038" xlink:href="#b"/>
<use x="191.396518" y="386.746038" xlink:href="#b"/>
<use x="231.087041" y="386.746038" xlink:href="#b"/>
<use x="275.187621" y="386.746038" xlink:href="#b"/>
<use x="573.601547" y="241.507092" xlink:href="#b"/>
<use x="376.618956" y="386.746038" xlink:href="#b"/>
<use x="497.160542" y="314.316508" xlink:href="#b"/>
<use x="632.402321" y="386.746038" xlink:href="#b"/>
<use x="788.224371" y="314.316508" xlink:href="#b"/>
<use x="707.373308" y="386.746038" xlink:href="#b"/>
<use x="786.754352" y="386.746038" xlink:href="#b"/>
<use x="433.94971" y="386.746038" xlink:href="#b"/>
<use x="495.690522" y="386.746038" xlink:href="#b"/>
<use x="561.841393" y="386.746038" xlink:href="#b"/>
<use x="87.760155" y="241.507092" xlink:href="#b"/>
<use x="98.7853" y="314.316508" xlink:href="#b"/>
<use x="98.7853" y="386.746038" xlink:href="#b"/>
<use x="76.73501" y="386.746038" xlink:href="#b"/>
<use x="41.454545" y="386.746038" xlink:href="#b"/>
<use x="125.245648" y="386.746038" xlink:href="#b"/>
<use x="323.698259" y="386.746038" xlink:href="#b"/>
<use x="870.545455" y="386.746038" xlink:href="#b"/>
</g>
<g clip-path="url(#a)">
<g transform="translate(36.559 460.94) scale(.1 -.1)">
<defs>
<path id="at" d="m28.609 0-27.828 72.906h10.297l23.109-61.375 23.141 61.375h10.25l-27.781-72.906z"/>
<path id="s" d="m9.8125 72.906h9.8594v-72.906h-9.8594z"/>
</defs>
<use xlink:href="#at"/>
<use x="68.408203" xlink:href="#s"/>
</g>
</g>
<g clip-path="url(#a)">
<g transform="translate(55.159 460.94) scale(.1 -.1)">
<defs>
<path id="bo" d="m39.406 66.219q-10.75 0-17.078-8.0156-6.3125-8-6.3125-21.828 0-13.766 6.3125-21.781 6.3281-8 17.078-8 10.734 0 17.016 8 6.2812 8.0156 6.2812 21.781 0 13.828-6.2812 21.828-6.2812 8.0156-17.016 8.0156zm0 8q15.328 0 24.5-10.281 9.1875-10.281 9.1875-27.562 0-17.234-9.1875-27.516-9.1719-10.281-24.5-10.281-15.375 0-24.594 10.25-9.2031 10.266-9.2031 27.547t9.2031 27.562q9.2188 10.281 24.594 10.281z"/>
</defs>
<use xlink:href="#bo"/>
</g>
</g>
<g clip-path="url(#a)">
<g transform="translate(47.35 460.94) scale(.1 -.1)">
<defs>
<path id="bp" d="m9.8125 72.906h14.703l18.594-49.609 18.703 49.609h14.703v-72.906h-9.625v64.016l-18.797-50h-9.9062l-18.797 50v-64.016h-9.5781z"/>
<path id="o" d="m34.281 27.484q-10.891 0-15.094-2.4844t-4.2031-8.5q0-4.7812 3.1562-7.5938 3.1562-2.7969 8.5625-2.7969 7.4844 0 12 5.2969t4.5156 14.078v2zm17.922 3.7188v-31.203h-8.9844v8.2969q-3.0781-4.9688-7.6719-7.3438t-11.234-2.375q-8.3906 0-13.359 4.7188-4.9531 4.7188-4.9531 12.625 0 9.2188 6.1719 13.906 6.1875 4.6875 18.438 4.6875h12.609v0.89062q0 6.2031-4.0781 9.5938t-11.453 3.3906q-4.6875 0-9.1406-1.125-4.4375-1.125-8.5312-3.375v8.3125q4.9219 1.9062 9.5625 2.8438 4.6406 0.95312 9.0312 0.95312 11.875 0 17.734-6.1562 5.8594-6.1406 5.8594-18.641z"/>
<path id="u" d="m3.7188 0v7.4688q8.875 1.375 11.609 7.5156 3.3281 8.6562 3.3281 30.766v8.9375h36.953v-54.688h-8.9844v47.516h-18.984v-5.4219q0-21.094-4.2969-30.562-4.5938-10.109-19.625-11.531z"/>
<path id="x" d="m56.203 29.594v-4.3906h-41.312q0.59375-9.2812 5.5938-14.141t13.938-4.8594q5.1719 0 10.031 1.2656t9.6562 3.8125v-8.5q-4.8438-2.0469-9.9219-3.125t-10.297-1.0781q-13.094 0-20.734 7.6094-7.6406 7.625-7.6406 20.625 0 13.422 7.25 21.297 7.25 7.8906 19.562 7.8906 11.031 0 17.453-7.1094 6.4219-7.0938 6.4219-19.297zm-8.9844 2.6406q-0.09375 7.3594-4.125 11.75-4.0312 4.4062-10.672 4.4062-7.5156 0-12.031-4.25t-5.2031-11.969z"/>
<path id="n" d="m9.0781 54.688h9.0312v-22.312h29.156v22.312h9.0312v-54.688h-9.0312v25.203h-29.156v-25.203h-9.0312z"/>
<path id="ah" d="m43.453 16.219q0 4.3906-3.2031 6.6875-3.1875 2.2969-9.3438 2.2969h-12.797v-18.031h12.797q6.1562 0 9.3438 2.3125 3.2031 2.3281 3.2031 6.7344zm-34.375 38.469h9.0312v-22.312h13.188q10.453 0 16.094-3.9844 5.6406-3.9688 5.6406-12.172t-5.6406-12.219q-5.6406-4-16.094-4h-22.219z"/>
<path id="v" d="m9.0781 54.688h8.9375v-25.688l25.344 25.688h11.031l-20.891-21.141 23.578-33.547h-10.062l-19.375 27.594-9.625-9.7656v-17.828h-8.9375z"/>
<path id="w" d="m55.906 54.688v-54.688h-8.9375v43.891l-26.359-43.891h-11.531v54.688h8.9375v-43.797l26.328 43.797z"/>
<path id="bj" d="m55.906 54.688v-54.688h-8.9375v43.891l-26.359-43.891h-11.531v54.688h8.9375v-43.797l26.328 43.797zm-38.688 20.828h5.7656q0.53125-3.6562 2.8906-5.5 2.375-1.8281 6.625-1.8281 4.2031 0 6.5469 1.8125t2.9688 5.5156h5.7656q-0.48438-6.9844-4.3438-10.5t-10.938-3.5156-10.938 3.5156-4.3438 10.5z"/>
</defs>
<use xlink:href="#bp"/>
<use x="86.279297" xlink:href="#o"/>
<use x="147.558594" xlink:href="#u"/>
<use x="211.474609" xlink:href="#x"/>
<use x="272.998047" xlink:href="#n"/>
<use x="338.378906" xlink:href="#ah"/>
<use x="397.314453" xlink:href="#v"/>
<use x="457.714844" xlink:href="#w"/>
<use x="522.705078" xlink:href="#bj"/>
</g>
</g>
<g clip-path="url(#a)">
<g transform="translate(82.421 460.94) scale(.1 -.1)">
<defs>
<path id="ai" d="m56.297 54.688v-54.688h-9.0312v47.516h-29.156v-47.516h-9.0312v54.688z"/>
<path id="ap" d="m18.109 8.2031v-29h-9.0312v75.484h9.0312v-8.2969q2.8438 4.875 7.1562 7.2344 4.3281 2.375 10.328 2.375 9.9688 0 16.188-7.9062 6.2344-7.9062 6.2344-20.797t-6.2344-20.812q-6.2188-7.9062-16.188-7.9062-6 0-10.328 2.375-4.3125 2.375-7.1562 7.25zm30.578 19.094q0 9.9062-4.0781 15.547t-11.203 5.6406q-7.1406 0-11.219-5.6406t-4.0781-15.547 4.0781-15.547 11.219-5.6406q7.125 0 11.203 5.6406t4.0781 15.547z"/>
<path id="bg" d="m56.297 0h-47.219v54.688h9.0312v-47.516h29.156v47.516h9.0312v-47.516h7.1875v-20.984h-7.1875z"/>
</defs>
<use xlink:href="#ai"/>
<use x="65.380859" xlink:href="#ap"/>
<use x="128.857422" xlink:href="#w"/>
<use x="193.847656" xlink:href="#n"/>
<use x="259.228516" xlink:href="#bg"/>
</g>
</g>
<g clip-path="url(#a)">
<g transform="translate(123.24 460.94) scale(.1 -.1)">
<defs>
<path id="bc" d="m15.094 12.406h9.9062v-12.406h-9.9062zm0 60.5h9.9062v-31.984l-0.96875-17.438h-7.9219l-1.0156 17.438z"/>
</defs>
<use xlink:href="#bc"/>
</g>
</g>
<g clip-path="url(#a)">
<g transform="translate(127.26 460.94) scale(.1 -.1)">
<defs>
<path id="bn" d="m65.375 72.906v-72.906h-9.8594v64.594h-35.844v-64.594h-9.8594v72.906z"/>
<path id="p" d="m30.609 48.391q-7.2188 0-11.422-5.6406t-4.2031-15.453 4.1719-15.453q4.1875-5.6406 11.453-5.6406 7.1875 0 11.375 5.6562 4.2031 5.6719 4.2031 15.438 0 9.7188-4.2031 15.406-4.1875 5.6875-11.375 5.6875zm0 7.6094q11.719 0 18.406-7.625 6.7031-7.6094 6.7031-21.078 0-13.422-6.7031-21.078-6.6875-7.6406-18.406-7.6406-11.766 0-18.438 7.6406-6.6562 7.6562-6.6562 21.078 0 13.469 6.6562 21.078 6.6719 7.625 18.438 7.625z"/>
<path id="bi" d="m9.0781 54.688h13.141l15.531-36.625 15.578 36.625h13.031v-54.688h-9.0312v46.094l-15.094-35.594h-8.9844l-15.141 35.594v-46.094h-9.0312z"/>
<path id="bl" d="m9.0781 0v54.688h38.578v-7.1719h-29.547v-47.516z"/>
<path id="bh" d="m32.172-5.0781q-3.7969-9.7656-7.4219-12.734-3.6094-2.9844-9.6562-2.9844h-7.1875v7.5156h5.2812q3.7031 0 5.75 1.7656 2.0625 1.75 4.5469 8.2969l1.6094 4.0938-22.109 53.812h9.5156l17.094-42.766 17.094 42.766h9.5156z"/>
</defs>
<use xlink:href="#bn"/>
<use x="75.195312" xlink:href="#p"/>
<use x="136.376953" xlink:href="#n"/>
<use x="201.757812" xlink:href="#x"/>
<use x="263.28125" xlink:href="#bi"/>
<use x="338.720703" xlink:href="#n"/>
<use x="404.101562" xlink:href="#p"/>
<use x="465.283203" xlink:href="#bl"/>
<use x="517.822266" xlink:href="#bh"/>
</g>
</g>
<g clip-path="url(#a)">
<g transform="translate(188.39 460.94) scale(.1 -.1)">
<defs>
<path id="ag" d="m18.453 38.922q0-4.0625 3.125-6.3594 3.125-2.2812 8.9375-2.2812h12.109v17.234h-12.109q-5.8125 0-8.9375-2.25t-3.125-6.3438zm-12.781-38.922 16.688 23.969q-5.6562 1.2812-9.4219 4.625-3.75 3.3438-3.75 10.328 0 7.9062 5.2344 11.828 5.25 3.9375 15.859 3.9375h21.375v-54.688h-9.0312v23.094h-11.172l-16.125-23.094z"/>
</defs>
<use xlink:href="#ag"/>
</g>
</g>
<g clip-path="url(#a)">
<g transform="translate(215.29 460.94) scale(.1 -.1)">
<use xlink:href="#ai"/>
<use x="65.380859" xlink:href="#p"/>
<use x="126.5625" xlink:href="#n"/>
<use x="191.943359" xlink:href="#ag"/>
<use x="252.099609" xlink:href="#u"/>
</g>
</g>
<g clip-path="url(#a)">
<g transform="translate(258.61 460.94) scale(.1 -.1)">
<defs>
<path id="ao" d="m2.9375 54.688h52.391v-7.1719h-21.781v-47.516h-8.8438v47.516h-21.766z"/>
<path id="ar" d="m40.578 54.688h8.9375v-25.688l23.875 25.688h10.453l-19.641-21.047 22.469-33.641h-9.625l-18.406 27.641-9.125-9.8125v-17.828h-8.9375v17.828l-9.125 9.8125-18.422-27.641h-9.6094l22.453 33.641-19.625 21.047h10.453l23.875-25.688z"/>
</defs>
<use xlink:href="#ao"/>
<use x="58.251953" xlink:href="#o"/>
<use x="119.53125" xlink:href="#v"/>
<use x="179.931641" xlink:href="#ar"/>
<use x="270.019531" xlink:href="#x"/>
</g>
</g>
<g clip-path="url(#a)">
<g transform="translate(322.11 460.94) scale(.1 -.1)">
<defs>
<path id="bb" d="m11.719 12.406h10.297v-8.4062l-8-15.625h-6.2969l4 15.625z"/>
</defs>
<use xlink:href="#bb"/>
</g>
</g>
<g clip-path="url(#a)">
<g transform="translate(367.51 460.94) scale(.1 -.1)">
<use xlink:href="#v"/>
<use x="60.400391" xlink:href="#o"/>
<use x="121.679688" xlink:href="#v"/>
</g>
</g>
<g clip-path="url(#a)">
<g transform="translate(409.11 460.94) scale(.1 -.1)">
<defs>
<path id="bf" d="m41.016 0v23h-16.75q-7.4688 0-12.453 4.6406-4.4844 4.2031-4.4844 13.188v13.859h8.9844v-13.031q0-5.7188 2.5312-8.5938 2.5938-2.8906 7.6719-2.8906h14.5v24.516h8.9844v-54.688z"/>
</defs>
<use xlink:href="#ai"/>
<use x="65.380859" xlink:href="#x"/>
<use x="126.904297" xlink:href="#bf"/>
<use x="185.986328" xlink:href="#o"/>
<use x="247.265625" xlink:href="#u"/>
<use x="311.181641" xlink:href="#ah"/>
<use x="370.117188" xlink:href="#n"/>
<use x="435.498047" xlink:href="#o"/>
</g>
</g>
<g clip-path="url(#a)">
<g transform="translate(492.44 460.94) scale(.1 -.1)">
<use xlink:href="#w"/>
</g>
</g>
<g clip-path="url(#a)">
<g transform="translate(527.62 461.03) scale(.1 -.1)">
<defs>
<path id="bk" d="m21.625 7.1719h26.078v40.344h-18.891v-6.8438q0-20.109-5.7656-30.859zm-13.031 0q4.4375 1.9531 6.3906 6.1094 4.7969 10.297 4.7969 31.062v10.344h36.953v-47.516h7.1875v-20.984h-7.1875v13.812h-44.328v-13.812h-7.1875v20.984z"/>
<path id="as" d="m31.109 56q11.719 0 18.406-7.625 6.6875-7.6094 6.6875-21.078 0-13.422-6.6875-21.078-6.6875-7.6406-18.406-7.6406-11.766 0-18.266 7.4219t-6.8438 21.297l-0.28125 11.188q-0.25 5.7969-0.25 7.8125 0 7.8125 2.8281 13.562 4.4531 9.0312 12.141 12.938t20.578 4.0156q5.9531 0.046875 8.5938 0.875l2.4844-7.125q-2.3906-0.98438-4.5781-1.0312l-12.219-0.82812q-6.1406-0.4375-9.8594-2.5938-9.7188-5.7031-10.641-13.172l-0.34375-2.7344q6.3438 5.7969 16.656 5.7969zm0-7.6094q-7.2344 0-11.438-5.6406-4.1875-5.6406-4.1875-15.453t4.1719-15.453 11.453-5.6406q7.1719 0 11.375 5.6562 4.2031 5.6719 4.2031 15.438 0 9.7188-4.2031 15.406t-11.375 5.6875z"/>
<path id="aq" d="m34.469 29.5q6.0625-1.1719 9.4219-4.75 3.375-3.5625 3.375-8.8281 0-8.4531-6.2969-12.906-6.2969-4.4375-17.922-4.4375-3.9062 0-8.0312 0.6875t-8.5156 2.0469v8.3594q3.4688-1.8125 7.6094-2.7188 4.1562-0.89062 8.6875-0.89062 7.375 0 11.5 2.7344t4.125 7.125q0 4.2969-3.6562 6.9062t-10.344 2.6094h-7.2344v7.4219h7.5625q5.6719 0 8.9688 2.1719t3.2969 5.5938q0 3.125-3.4062 5.375-3.3906 2.25-9.1875 2.25-3.4688 0-7.4062-0.64062-3.9219-0.64062-8.6719-2.0469v8.1562q4.7969 1.1719 8.9375 1.75 4.1562 0.59375 7.8594 0.59375 9.5781 0 15.109-3.8438 5.5469-3.8281 5.5469-10.719 0-4.5312-2.9375-7.6875-2.9219-3.1406-8.3906-4.3125z"/>
</defs>
<use xlink:href="#p"/>
<use x="61.181641" xlink:href="#bk"/>
<use x="130.322266" xlink:href="#n"/>
<use x="195.703125" xlink:href="#p"/>
<use x="256.884766" xlink:href="#p"/>
<use x="318.066406" xlink:href="#as"/>
<use x="379.736328" xlink:href="#ap"/>
<use x="443.212891" xlink:href="#o"/>
<use x="504.492188" xlink:href="#aq"/>
<use x="557.666016" xlink:href="#n"/>
<use x="623.046875" xlink:href="#o"/>
</g>
</g>
<g clip-path="url(#a)">
<g transform="translate(619.11 460.94) scale(.1 -.1)">
<defs>
<path id="be" d="m61.047 54.688h8.9844v-54.688h-8.9844zm4.5 1.3125m-22.094-39.781q0 4.3906-3.2031 6.6875-3.1875 2.2969-9.3438 2.2969h-12.797v-18.031h12.797q6.1562 0 9.3438 2.3125 3.2031 2.3281 3.2031 6.7344zm-34.375 38.469h9.0312v-22.312h13.188q10.453 0 16.094-3.9844 5.6406-3.9688 5.6406-12.172t-5.6406-12.219q-5.6406-4-16.094-4h-22.219z"/>
</defs>
<use xlink:href="#as"/>
<use x="61.669922" xlink:href="#be"/>
<use x="140.625" xlink:href="#u"/>
<use x="204.541016" xlink:href="#o"/>
</g>
</g>
<g clip-path="url(#a)">
<g transform="translate(695.45 460.94) scale(.1 -.1)">
<defs>
<path id="bm" d="m18.062 25.203v-18.031h12.797q6.1562 0 9.375 2.3125 3.2188 2.3281 3.2188 6.7344 0 4.3906-3.2188 6.6875t-9.375 2.2969zm0 22.312v-15.141h11.828q5.0781 0 8.2969 2.0156 3.2188 2.0312 3.2188 5.6562 0 3.6094-3.2188 5.5312-3.2188 1.9375-8.2969 1.9375zm-8.9844 7.1719h21.391q9.625 0 14.797-3.5156t5.1719-10.016q0-5.0156-2.6406-7.9844-2.625-2.9531-7.8125-3.6719 6.2031-1.1719 9.625-4.8906 3.4219-3.7031 3.4219-9.2812 0-7.3125-5.6406-11.328-5.6406-4-16.094-4h-22.219z"/>
</defs>
<use xlink:href="#ao"/>
<use x="58.251953" xlink:href="#bm"/>
<use x="117.1875" xlink:href="#p"/>
<use x="178.369141" xlink:href="#ag"/>
</g>
</g>
<g clip-path="url(#a)">
<g transform="translate(770.13 460.94) scale(.1 -.1)">
<use xlink:href="#ar"/>
<use x="90.087891" xlink:href="#w"/>
<use x="155.078125" xlink:href="#aq"/>
<use x="208.251953" xlink:href="#n"/>
<use x="273.632812" xlink:href="#ah"/>
</g>
</g>
<g clip-path="url(#a)">
<g transform="translate(868.96 460.94) scale(.1 -.1)">
<defs>
<path id="d" d="m10.688 12.406h10.312v-12.406h-10.312z"/>
</defs>
<use xlink:href="#d"/>
</g>
</g>
<g clip-path="url(#a)">
<g transform="translate(24.779 389.51) scale(.1 -.1)">
<defs>
<path id="ax" d="m9.8125 72.906h14.703l18.594-49.609 18.703 49.609h14.703v-72.906h-9.625v64.016l-18.797-50h-9.9062l-18.797 50v-64.016h-9.5781z"/>
<path id="ay" d="m9.8125 72.906h9.8594v-64.609h35.5v-8.2969h-45.359z"/>
</defs>
<use xlink:href="#s"/>
<use x="29.492188" xlink:href="#ax"/>
<use x="115.771484" xlink:href="#aa"/>
<use x="176.074219" xlink:href="#ay"/>
<use x="231.787109" xlink:href="#s"/>
<use x="261.279297" xlink:href="#r"/>
<use x="331.103516" xlink:href="#s"/>
<use x="360.595703" xlink:href="#e"/>
</g>
</g>
<g clip-path="url(#a)">
<g transform="translate(125.48 24.578) scale(.1 -.1)">
<defs>
<path id="c" d="m12.406 8.2969h16.109v55.625l-17.531-3.5156v8.9844l17.438 3.5156h9.8594v-64.609h16.109v-8.2969h-41.984z"/>
</defs>
<use xlink:href="#c"/>
<use x="63.623047" xlink:href="#d"/>
<use x="95.410156" xlink:href="#c"/>
</g>
</g>
<g clip-path="url(#a)">
<g transform="translate(33.503 317.08) scale(.1 -.1)">
<defs>
<path id="m" d="m19.188 8.2969h34.422v-8.2969h-46.281v8.2969q5.6094 5.8125 15.297 15.594 9.7031 9.7969 12.188 12.641 4.7344 5.3125 6.6094 9 1.8906 3.6875 1.8906 7.25 0 5.8125-4.0781 9.4688-4.0781 3.6719-10.625 3.6719-4.6406 0-9.7969-1.6094-5.1406-1.6094-11-4.8906v9.9688q5.9531 2.3906 11.125 3.6094 5.1875 1.2188 9.4844 1.2188 11.328 0 18.062-5.6719 6.7344-5.6562 6.7344-15.125 0-4.5-1.6875-8.5312-1.6719-4.0156-6.125-9.4844-1.2188-1.4219-7.7656-8.1875-6.5312-6.7656-18.453-18.922z"/>
</defs>
<use xlink:href="#c"/>
<use x="63.623047" xlink:href="#d"/>
<use x="95.410156" xlink:href="#m"/>
</g>
</g>
<g clip-path="url(#a)">
<g transform="translate(217.46 97.967) scale(.1 -.1)">
<defs>
<path id="t" d="m40.578 39.312q7.0781-1.5156 11.047-6.3125 3.9844-4.7812 3.9844-11.812 0-10.781-7.4219-16.703-7.4219-5.9062-21.094-5.9062-4.5781 0-9.4375 0.90625t-10.031 2.7188v9.5156q4.0938-2.3906 8.9688-3.6094 4.8906-1.2188 10.219-1.2188 9.2656 0 14.125 3.6562t4.8594 10.641q0 6.4531-4.5156 10.078-4.5156 3.6406-12.562 3.6406h-8.5v8.1094h8.8906q7.2656 0 11.125 2.9062t3.8594 8.375q0 5.6094-3.9844 8.6094-3.9688 3.0156-11.391 3.0156-4.0625 0-8.7031-0.89062-4.6406-0.875-10.203-2.7188v8.7812q5.625 1.5625 10.531 2.3438t9.25 0.78125q11.234 0 17.766-5.1094 6.5469-5.0938 6.5469-13.781 0-6.0625-3.4688-10.234t-9.8594-5.7812z"/>
</defs>
<use xlink:href="#c"/>
<use x="63.623047" xlink:href="#d"/>
<use x="95.410156" xlink:href="#t"/>
</g>
</g>
<g clip-path="url(#a)">
<g transform="translate(51.143 389.51) scale(.1 -.1)">
<defs>
<path id="ae" d="m10.797 72.906h38.719v-8.3125h-29.688v-17.859q2.1406 0.73438 4.2812 1.0938 2.1562 0.35938 4.3125 0.35938 12.203 0 19.328-6.6875 7.1406-6.6875 7.1406-18.109 0-11.766-7.3281-18.297-7.3281-6.5156-20.656-6.5156-4.5938 0-9.3594 0.78125-4.75 0.78125-9.8281 2.3438v9.9219q4.3906-2.3906 9.0781-3.5625t9.9062-1.1719q8.4531 0 13.375 4.4375 4.9375 4.4375 4.9375 12.062 0 7.6094-4.9375 12.047-4.9219 4.4531-13.375 4.4531-3.9531 0-7.8906-0.875-3.9219-0.875-8.0156-2.7344z"/>
</defs>
<use xlink:href="#c"/>
<use x="63.623047" xlink:href="#d"/>
<use x="95.410156" xlink:href="#ae"/>
</g>
</g>
<g clip-path="url(#a)">
<g transform="translate(85.321 171.21) scale(.1 -.1)">
<defs>
<path id="ad" d="m33.016 40.375q-6.6406 0-10.531-4.5469-3.875-4.5312-3.875-12.438 0-7.8594 3.875-12.438 3.8906-4.5625 10.531-4.5625t10.516 4.5625q3.875 4.5781 3.875 12.438 0 7.9062-3.875 12.438-3.875 4.5469-10.516 4.5469zm19.578 30.922v-8.9844q-3.7188 1.75-7.5 2.6719-3.7812 0.9375-7.5 0.9375-9.7656 0-14.922-6.5938-5.1406-6.5938-5.875-19.922 2.875 4.25 7.2188 6.5156 4.3594 2.2656 9.5781 2.2656 10.984 0 17.359-6.6719 6.375-6.6562 6.375-18.125 0-11.234-6.6406-18.031-6.6406-6.7812-17.672-6.7812-12.656 0-19.344 9.6875-6.6875 9.7031-6.6875 28.109 0 17.281 8.2031 27.562t22.016 10.281q3.7188 0 7.5-0.73438t7.8906-2.1875z"/>
</defs>
<use xlink:href="#c"/>
<use x="63.623047" xlink:href="#d"/>
<use x="95.410156" xlink:href="#ad"/>
</g>
</g>
<g clip-path="url(#a)">
<g transform="translate(148.16 389.51) scale(.1 -.1)">
<defs>
<path id="am" d="m8.2031 72.906h46.875v-4.2031l-26.469-68.703h-10.297l24.906 64.594h-35.016z"/>
</defs>
<use xlink:href="#c"/>
<use x="63.623047" xlink:href="#d"/>
<use x="95.410156" xlink:href="#am"/>
</g>
</g>
<g clip-path="url(#a)">
<g transform="translate(183.44 389.51) scale(.1 -.1)">
<defs>
<path id="ac" d="m31.781 34.625q-7.0312 0-11.062-3.7656-4.0156-3.7656-4.0156-10.344 0-6.5938 4.0156-10.359 4.0312-3.7656 11.062-3.7656t11.078 3.7812q4.0625 3.7969 4.0625 10.344 0 6.5781-4.0312 10.344-4.0156 3.7656-11.109 3.7656zm-9.8594 4.1875q-6.3438 1.5625-9.8906 5.9062-3.5312 4.3594-3.5312 10.609 0 8.7344 6.2188 13.812 6.2344 5.0781 17.062 5.0781 10.891 0 17.094-5.0781t6.2031-13.812q0-6.25-3.5469-10.609-3.5312-4.3438-9.8281-5.9062 7.125-1.6562 11.094-6.5 3.9844-4.8281 3.9844-11.797 0-10.609-6.4688-16.281-6.4688-5.6562-18.531-5.6562-12.047 0-18.531 5.6562-6.4688 5.6719-6.4688 16.281 0 6.9688 4 11.797 4.0156 4.8438 11.141 6.5zm-3.6094 15.578q0-5.6562 3.5312-8.8281 3.5469-3.1719 9.9375-3.1719 6.3594 0 9.9375 3.1719 3.5938 3.1719 3.5938 8.8281 0 5.6719-3.5938 8.8438-3.5781 3.1719-9.9375 3.1719-6.3906 0-9.9375-3.1719-3.5312-3.1719-3.5312-8.8438z"/>
</defs>
<use xlink:href="#c"/>
<use x="63.623047" xlink:href="#d"/>
<use x="95.410156" xlink:href="#ac"/>
</g>
</g>
<g clip-path="url(#a)">
<g transform="translate(223.14 389.51) scale(.1 -.1)">
<defs>
<path id="ab" d="m10.984 1.5156v8.9844q3.7188-1.7656 7.5156-2.6875 3.8125-0.92188 7.4844-0.92188 9.7656 0 14.906 6.5625 5.1562 6.5625 5.8906 19.953-2.8281-4.2031-7.1875-6.4531-4.3438-2.25-9.6094-2.25-10.938 0-17.312 6.6094-6.375 6.625-6.375 18.109 0 11.219 6.6406 18 6.6406 6.7969 17.672 6.7969 12.656 0 19.312-9.7031 6.6719-9.6875 6.6719-28.141 0-17.234-8.1875-27.516-8.1719-10.281-21.984-10.281-3.7188 0-7.5312 0.73438-3.7969 0.73438-7.9062 2.2031zm19.625 30.906q6.6406 0 10.516 4.5312 3.8906 4.5469 3.8906 12.469 0 7.8594-3.8906 12.422-3.875 4.5625-10.516 4.5625t-10.516-4.5625-3.875-12.422q0-7.9219 3.875-12.469 3.875-4.5312 10.516-4.5312z"/>
</defs>
<use xlink:href="#c"/>
<use x="63.623047" xlink:href="#d"/>
<use x="95.410156" xlink:href="#ab"/>
</g>
</g>
<g clip-path="url(#a)">
<g transform="translate(264.05 389.51) scale(.1 -.1)">
<defs>
<path id="af" d="m31.781 66.406q-7.6094 0-11.453-7.5-3.8281-7.4844-3.8281-22.531 0-14.984 3.8281-22.484 3.8438-7.5 11.453-7.5 7.6719 0 11.5 7.5 3.8438 7.5 3.8438 22.484 0 15.047-3.8438 22.531-3.8281 7.5-11.5 7.5zm0 7.8125q12.266 0 18.734-9.7031 6.4688-9.6875 6.4688-28.141 0-18.406-6.4688-28.109-6.4688-9.6875-18.734-9.6875-12.25 0-18.719 9.6875-6.4688 9.7031-6.4688 28.109 0 18.453 6.4688 28.141 6.4688 9.7031 18.719 9.7031z"/>
</defs>
<use xlink:href="#c"/>
<use x="63.623047" xlink:href="#d"/>
<use x="95.410156" xlink:href="#c"/>
<use x="159.033203" xlink:href="#af"/>
</g>
</g>
<g clip-path="url(#a)">
<g transform="translate(562.47 244.27) scale(.1 -.1)">
<use xlink:href="#c"/>
<use x="63.623047" xlink:href="#d"/>
<use x="95.410156" xlink:href="#c"/>
<use x="159.033203" xlink:href="#c"/>
</g>
</g>
<g clip-path="url(#a)">
<g transform="translate(365.49 389.51) scale(.1 -.1)">
<defs>
<path id="an" d="m37.797 64.312-24.906-38.922h24.906zm-2.5938 8.5938h12.406v-47.516h10.406v-8.2031h-10.406v-17.188h-9.8125v17.188h-32.906v9.5156z"/>
</defs>
<use xlink:href="#c"/>
<use x="63.623047" xlink:href="#d"/>
<use x="95.410156" xlink:href="#c"/>
<use x="159.033203" xlink:href="#an"/>
</g>
</g>
<g clip-path="url(#a)">
<g transform="translate(486.03 317.08) scale(.1 -.1)">
<use xlink:href="#c"/>
<use x="63.623047" xlink:href="#d"/>
<use x="95.410156" xlink:href="#c"/>
<use x="159.033203" xlink:href="#ae"/>
</g>
</g>
<g clip-path="url(#a)">
<g transform="translate(621.27 389.51) scale(.1 -.1)">
<use xlink:href="#c"/>
<use x="63.623047" xlink:href="#d"/>
<use x="95.410156" xlink:href="#c"/>
<use x="159.033203" xlink:href="#ad"/>
</g>
</g>
<g clip-path="url(#a)">
<g transform="translate(777.09 317.08) scale(.1 -.1)">
<use xlink:href="#c"/>
<use x="63.623047" xlink:href="#d"/>
<use x="95.410156" xlink:href="#c"/>
<use x="159.033203" xlink:href="#am"/>
</g>
</g>
<g clip-path="url(#a)">
<g transform="translate(696.24 389.51) scale(.1 -.1)">
<use xlink:href="#c"/>
<use x="63.623047" xlink:href="#d"/>
<use x="95.410156" xlink:href="#c"/>
<use x="159.033203" xlink:href="#ac"/>
</g>
</g>
<g clip-path="url(#a)">
<g transform="translate(775.62 389.51) scale(.1 -.1)">
<use xlink:href="#c"/>
<use x="63.623047" xlink:href="#d"/>
<use x="95.410156" xlink:href="#c"/>
<use x="159.033203" xlink:href="#ab"/>
</g>
</g>
<g clip-path="url(#a)">
<g transform="translate(422.82 389.51) scale(.1 -.1)">
<use xlink:href="#c"/>
<use x="63.623047" xlink:href="#d"/>
<use x="95.410156" xlink:href="#m"/>
<use x="159.033203" xlink:href="#af"/>
</g>
</g>
<g clip-path="url(#a)">
<g transform="translate(484.56 389.51) scale(.1 -.1)">
<use xlink:href="#c"/>
<use x="63.623047" xlink:href="#d"/>
<use x="95.410156" xlink:href="#m"/>
<use x="159.033203" xlink:href="#c"/>
</g>
</g>
<g clip-path="url(#a)">
<g transform="translate(550.71 389.51) scale(.1 -.1)">
<use xlink:href="#c"/>
<use x="63.623047" xlink:href="#d"/>
<use x="95.410156" xlink:href="#m"/>
<use x="159.033203" xlink:href="#m"/>
</g>
</g>
<g clip-path="url(#a)">
<g transform="translate(76.627 244.27) scale(.1 -.1)">
<use xlink:href="#c"/>
<use x="63.623047" xlink:href="#d"/>
<use x="95.410156" xlink:href="#m"/>
<use x="159.033203" xlink:href="#t"/>
</g>
</g>
<g clip-path="url(#a)">
<g transform="translate(87.652 317.08) scale(.1 -.1)">
<use xlink:href="#c"/>
<use x="63.623047" xlink:href="#d"/>
<use x="95.410156" xlink:href="#m"/>
<use x="159.033203" xlink:href="#an"/>
</g>
</g>
<g clip-path="url(#a)">
<g transform="translate(87.652 389.51) scale(.1 -.1)">
<use xlink:href="#c"/>
<use x="63.623047" xlink:href="#d"/>
<use x="95.410156" xlink:href="#m"/>
<use x="159.033203" xlink:href="#ae"/>
</g>
</g>
<g clip-path="url(#a)">
<g transform="translate(65.602 389.51) scale(.1 -.1)">
<use xlink:href="#c"/>
<use x="63.623047" xlink:href="#d"/>
<use x="95.410156" xlink:href="#m"/>
<use x="159.033203" xlink:href="#ad"/>
</g>
</g>
<g clip-path="url(#a)">
<g transform="translate(30.322 389.51) scale(.1 -.1)">
<use xlink:href="#c"/>
<use x="63.623047" xlink:href="#d"/>
<use x="95.410156" xlink:href="#m"/>
<use x="159.033203" xlink:href="#ac"/>
</g>
</g>
<g clip-path="url(#a)">
<g transform="translate(114.11 389.51) scale(.1 -.1)">
<use xlink:href="#c"/>
<use x="63.623047" xlink:href="#d"/>
<use x="95.410156" xlink:href="#m"/>
<use x="159.033203" xlink:href="#ab"/>
</g>
</g>
<g clip-path="url(#a)">
<g transform="translate(312.57 389.51) scale(.1 -.1)">
<use xlink:href="#c"/>
<use x="63.623047" xlink:href="#d"/>
<use x="95.410156" xlink:href="#t"/>
<use x="159.033203" xlink:href="#af"/>
</g>
</g>
<g clip-path="url(#a)">
<g transform="translate(859.41 389.51) scale(.1 -.1)">
<use xlink:href="#c"/>
<use x="63.623047" xlink:href="#d"/>
<use x="95.410156" xlink:href="#t"/>
<use x="159.033203" xlink:href="#c"/>
</g>
</g>
<defs>
<clipPath id="a">
<rect width="912" height="480"/>
</clipPath>
</defs>
</svg>
