<?xml version="1.0" encoding="UTF-8"?>
<!DOCTYPE svg  PUBLIC '-//W3C//DTD SVG 1.1//EN'  'http://www.w3.org/Graphics/SVG/1.1/DTD/svg11.dtd'>
<svg width="1216pt" height="640pt" version="1.1" viewBox="0 0 1216 640" xmlns="http://www.w3.org/2000/svg" xmlns:xlink="http://www.w3.org/1999/xlink">
<metadata>
<rdf:RDF xmlns:cc="http://creativecommons.org/ns#" xmlns:dc="http://purl.org/dc/elements/1.1/" xmlns:rdf="http://www.w3.org/1999/02/22-rdf-syntax-ns#">
<cc:Work>
<dc:type rdf:resource="http://purl.org/dc/dcmitype/StillImage"/>
<dc:date>2021-01-13T08:46:29.873927</dc:date>
<dc:format>image/svg+xml</dc:format>
<dc:creator>
<cc:Agent>
<dc:title>Matplotlib v3.3.3, https://matplotlib.org/</dc:title>
</cc:Agent>
</dc:creator>
</cc:Work>
</rdf:RDF>
</metadata>
<defs>
<style type="text/css">*{stroke-linecap:butt;stroke-linejoin:round;}</style>
</defs>
<path d="m0 640h1216v-640h-1216z" fill="#fff"/>
<g fill="none" stroke="#000">
<path d="m200.5 29.091-126.41 417.65" clip-path="url(#a)"/>
<path d="m200.5 29.091-59.67 500.3" clip-path="url(#a)"/>
<path d="m200.5 29.091-29.295 334.57" clip-path="url(#a)"/>
<path d="m200.5 29.091 111.45 500.3" clip-path="url(#a)"/>
<path d="m200.5 29.091 187.55 83.885" clip-path="url(#a)"/>
<path d="m200.5 29.091-83.627 500.3" clip-path="url(#a)"/>
<path d="m74.096 446.74-18.824 82.649" clip-path="url(#a)"/>
<path d="m74.096 446.74-8.5562 82.649" clip-path="url(#a)"/>
<path d="m74.096 446.74 5.1337 82.649" clip-path="url(#a)"/>
<path d="m74.096 446.74 22.246 82.649" clip-path="url(#a)"/>
<path d="m140.83 529.39v81.515" clip-path="url(#a)"/>
<path d="m171.21 363.66-2.9947 165.73" clip-path="url(#a)"/>
<path d="m171.21 363.66 27.807 165.73" clip-path="url(#a)"/>
<path d="m171.21 363.66 80.856 83.083" clip-path="url(#a)"/>
<path d="m171.21 363.66-105.67 165.73" clip-path="url(#a)" stroke-dasharray="3.7,1.6"/>
<path d="m311.96 529.39v81.515" clip-path="url(#a)"/>
<path d="m388.05 112.98-31.601 416.42" clip-path="url(#a)"/>
<path d="m388.05 112.98 270.15 83.745" clip-path="url(#a)"/>
<path d="m388.05 112.98-322.51 416.42" clip-path="url(#a)" stroke-dasharray="3.7,1.6"/>
<path d="m388.05 112.98 16.314 416.42" clip-path="url(#a)"/>
<path d="m388.05 112.98 67.651 416.42" clip-path="url(#a)"/>
<path d="m356.45 529.39v81.515" clip-path="url(#a)"/>
<path d="m658.2 196.72-147.74 332.67" clip-path="url(#a)"/>
<path d="m658.2 196.72-89.554 332.67" clip-path="url(#a)"/>
<path d="m658.2 196.72-27.95 332.67" clip-path="url(#a)"/>
<path d="m658.2 196.72 228.16 83.576" clip-path="url(#a)"/>
<path d="m658.2 196.72 37.077 332.67" clip-path="url(#a)"/>
<path d="m510.46 529.39v81.515" clip-path="url(#a)"/>
<path d="m568.64 529.39v81.515" clip-path="url(#a)"/>
<path d="m630.25 529.39v81.515" clip-path="url(#a)"/>
<path d="m886.36 280.3 274.37 83.365" clip-path="url(#a)"/>
<path d="m886.36 280.3-122.64 249.1" clip-path="url(#a)"/>
<path d="m886.36 280.3-50.766 249.1" clip-path="url(#a)"/>
<path d="m886.36 280.3 173.4 83.365" clip-path="url(#a)"/>
<path d="m763.72 529.39v81.515" clip-path="url(#a)"/>
<path d="m835.59 529.39v81.515" clip-path="url(#a)"/>
<path d="m1059.8 363.66-109.52 83.083" clip-path="url(#a)"/>
<path d="m1059.8 363.66 11.979 165.73" clip-path="url(#a)"/>
<path d="m1059.8 363.66 97.54 165.73" clip-path="url(#a)"/>
<path d="m950.25 446.74-39.358 82.649" clip-path="url(#a)"/>
<path d="m950.25 446.74 39.358 82.649" clip-path="url(#a)"/>
<path d="m1071.7 529.39v81.515" clip-path="url(#a)"/>
<path d="m910.89 529.39v81.515" clip-path="url(#a)"/>
<path d="m989.6 529.39v81.515" clip-path="url(#a)"/>
<path d="m168.21 529.39v81.515" clip-path="url(#a)"/>
<path d="m199.02 529.39v81.515" clip-path="url(#a)"/>
<path d="m252.06 446.74-18.824 82.649" clip-path="url(#a)"/>
<path d="m252.06 446.74 18.824 82.649" clip-path="url(#a)"/>
<path d="m233.24 529.39v81.515" clip-path="url(#a)"/>
<path d="m270.89 529.39v81.515" clip-path="url(#a)"/>
<path d="m55.273 529.39v81.515" clip-path="url(#a)"/>
<path d="m65.54 529.39v81.515" clip-path="url(#a)"/>
<path d="m79.23 529.39v81.515" clip-path="url(#a)"/>
<path d="m96.342 529.39v81.515" clip-path="url(#a)"/>
<path d="m116.88 529.39v81.515" clip-path="url(#a)"/>
<path d="m404.36 529.39v81.515" clip-path="url(#a)"/>
<path d="m455.7 529.39v81.515" clip-path="url(#a)"/>
<path d="m695.27 529.39v81.515" clip-path="url(#a)"/>
<path d="m1157.3 529.39v81.515" clip-path="url(#a)"/>
</g>
<path d="m142.43 242.61 1.7428-5.7583q0.69524-2.2971-1.6019-2.9923l-7.4105-2.2429q-2.2971-0.69524-2.9923 1.6019l-1.7428 5.7583q-0.69524 2.2971 1.6019 2.9923l7.4105 2.2429q2.2971 0.69524 2.9923-1.6019z" clip-path="url(#a)" fill="#fff" stroke="#fff"/>
<g clip-path="url(#a)">
<g transform="translate(138.54 241.44) rotate(-73.161) scale(.08 -.08)">
<defs>
<path id="ah" d="m9.8125 72.906h9.8594v-29.891h35.844v29.891h9.8594v-72.906h-9.8594v34.719h-35.844v-34.719h-9.8594z"/>
</defs>
<use xlink:href="#ah"/>
</g>
</g>
<path d="m176.63 282.2 0.52789-4.4261q0.28423-2.3831-2.0989-2.6673l-7.688-0.91693q-2.3831-0.28423-2.6673 2.0989l-0.52789 4.4261q-0.28423 2.3831 2.0989 2.6673l7.688 0.91693q2.3831 0.28423 2.6673-2.0989z" clip-path="url(#a)" fill="#fff" stroke="#fff"/>
<g clip-path="url(#a)">
<g transform="translate(172.6 281.72) rotate(-83.199) scale(.08 -.08)">
<defs>
<path id="af" d="m9.8125 72.906h9.8594v-64.609h35.5v-8.2969h-45.359z"/>
</defs>
<use xlink:href="#af"/>
</g>
</g>
<path d="m191.84 199.92 0.52478-5.9933q0.20934-2.3909-2.1815-2.6002l-7.713-0.67536q-2.3909-0.20934-2.6002 2.1815l-0.52478 5.9933q-0.20934 2.3909 2.1815 2.6002l7.713 0.67536q2.3909 0.20934 2.6002-2.1815z" clip-path="url(#a)" fill="#fff" stroke="#fff"/>
<g clip-path="url(#a)">
<g transform="translate(187.79 199.57) rotate(-84.996) scale(.08 -.08)">
<use xlink:href="#ah"/>
</g>
</g>
<path d="m249.62 278.43 0.96924 4.3508q0.52186 2.3426 2.8644 1.8207l7.5572-1.6835q2.3426-0.52186 1.8207-2.8644l-0.96924-4.3508q-0.52186-2.3426-2.8644-1.8207l-7.5572 1.6835q-2.3426 0.52186-1.8207 2.8644z" clip-path="url(#a)" fill="#fff" stroke="#fff"/>
<g clip-path="url(#a)">
<g transform="translate(253.59 277.55) rotate(77.441) scale(.08 -.08)">
<use xlink:href="#af"/>
</g>
</g>
<path d="m288.97 75.53 5.4919 2.4564q2.1908 0.97991 3.1708-1.2109l3.1612-7.0677q0.97991-2.1908-1.2109-3.1708l-5.4919-2.4564q-2.1908-0.97991-3.1708 1.2109l-3.1612 7.0677q-0.97991 2.1908 1.2109 3.1708z" clip-path="url(#a)" fill="#fff" stroke="#fff"/>
<g clip-path="url(#a)">
<g transform="translate(290.63 71.82) rotate(24.098) scale(.08 -.08)">
<use xlink:href="#ah"/>
</g>
</g>
<path d="m164.39 283.16 0.96528-5.7749q0.39568-2.3672-1.9715-2.7628l-7.6366-1.2765q-2.3672-0.39568-2.7628 1.9715l-0.96528 5.7749q-0.39568 2.3672 1.9715 2.7628l7.6366 1.2765q2.3672 0.39568 2.7628-1.9715z" clip-path="url(#a)" fill="#fff" stroke="#fff"/>
<g clip-path="url(#a)">
<g transform="translate(160.39 282.49) rotate(-80.511) scale(.08 -.08)">
<defs>
<path id="u" d="m8.6875 72.906h9.9219v-44.297q0-11.719 4.2344-16.875 4.25-5.1406 13.781-5.1406 9.4688 0 13.719 5.1406 4.25 5.1562 4.25 16.875v44.297h9.9062v-45.516q0-14.25-7.0625-21.531-7.0469-7.2812-20.812-7.2812-13.828 0-20.891 7.2812-7.0469 7.2812-7.0469 21.531z"/>
</defs>
<use xlink:href="#u"/>
</g>
</g>
<path d="m70.257 491.84 1.0851-4.7642q0.53296-2.3401-1.8071-2.873l-7.5492-1.7193q-2.3401-0.53296-2.873 1.8071l-1.0851 4.7642q-0.53296 2.3401 1.8071 2.873l7.5492 1.7193q2.3401 0.53296 2.873-1.8071z" clip-path="url(#a)" fill="#fff" stroke="#fff"/>
<g clip-path="url(#a)">
<g transform="translate(66.294 490.94) rotate(-77.17) scale(.08 -.08)">
<defs>
<path id="e" d="m-0.29688 72.906h61.672v-8.3125h-25.875v-64.594h-9.9062v64.594h-25.891z"/>
</defs>
<use xlink:href="#e"/>
</g>
</g>
<path d="m75.774 491.44 0.56352-5.4434q0.24714-2.3872-2.1401-2.6344l-7.7013-0.79727q-2.3872-0.24714-2.6344 2.1401l-0.56352 5.4434q-0.24714 2.3872 2.1401 2.6344l7.7013 0.79727q2.3872 0.24714 2.6344-2.1401z" clip-path="url(#a)" fill="#fff" stroke="#fff"/>
<g clip-path="url(#a)">
<g transform="translate(71.732 491.02) rotate(-84.09) scale(.08 -.08)">
<defs>
<path id="p" d="m34.188 63.188-13.391-36.281h26.812zm-5.5781 9.7188h11.188l27.781-72.906h-10.25l-6.6406 18.703h-32.859l-6.6406-18.703h-10.406z"/>
</defs>
<use xlink:href="#p"/>
</g>
</g>
<path d="m70.213 485.38 0.38189 6.1482q0.14879 2.3954 2.5442 2.2466l7.7276-0.48q2.3954-0.14879 2.2466-2.5442l-0.38189-6.1482q-0.14879-2.3954-2.5442-2.2466l-7.7276 0.48q-2.3954 0.14879-2.2466 2.5442z" clip-path="url(#a)" fill="#fff" stroke="#fff"/>
<g clip-path="url(#a)">
<g transform="translate(74.269 485.13) rotate(86.446) scale(.08 -.08)">
<defs>
<path id="ao" d="m19.672 64.797v-56.688h11.922q15.094 0 22.094 6.8281 7 6.8438 7 21.594 0 14.641-7 21.453t-22.094 6.8125zm-9.8594 8.1094h20.266q21.188 0 31.094-8.8125 9.9219-8.8125 9.9219-27.562 0-18.859-9.9688-27.703-9.9531-8.8281-31.047-8.8281h-20.266z"/>
</defs>
<use xlink:href="#ao"/>
</g>
</g>
<path d="m78.537 487.37 1.2537 4.658q0.62379 2.3175 2.9413 1.6937l7.4764-2.0124q2.3175-0.62379 1.6937-2.9413l-1.2537-4.658q-0.62379-2.3175-2.9413-1.6937l-7.4764 2.0124q-2.3175 0.62379-1.6937 2.9413z" clip-path="url(#a)" fill="#fff" stroke="#fff"/>
<g clip-path="url(#a)">
<g transform="translate(82.461 486.31) rotate(74.935) scale(.08 -.08)">
<defs>
<path id="v" d="m19.672 64.797v-27.391h12.406q6.8906 0 10.641 3.5625 3.7656 3.5625 3.7656 10.156 0 6.5469-3.7656 10.109-3.75 3.5625-10.641 3.5625zm-9.8594 8.1094h22.266q12.266 0 18.531-5.5469 6.2812-5.5469 6.2812-16.234 0-10.797-6.2812-16.312-6.2656-5.5156-18.531-5.5156h-12.406v-29.297h-9.8594z"/>
</defs>
<use xlink:href="#v"/>
</g>
</g>
<path d="m134.56 553.25v33.808q0 2.4 2.4 2.4h7.7425q2.4 0 2.4-2.4v-33.808q0-2.4-2.4-2.4h-7.7425q-2.4 0-2.4 2.4z" clip-path="url(#a)" fill="#fff" stroke="#fff"/>
<g clip-path="url(#a)">
<g transform="translate(138.63 553.25) rotate(90) scale(.08 -.08)">
<defs>
<path id="l" d="m56.203 29.594v-4.3906h-41.312q0.59375-9.2812 5.5938-14.141t13.938-4.8594q5.1719 0 10.031 1.2656t9.6562 3.8125v-8.5q-4.8438-2.0469-9.9219-3.125t-10.297-1.0781q-13.094 0-20.734 7.6094-7.6406 7.625-7.6406 20.625 0 13.422 7.25 21.297 7.25 7.8906 19.562 7.8906 11.031 0 17.453-7.1094 6.4219-7.0938 6.4219-19.297zm-8.9844 2.6406q-0.09375 7.3594-4.125 11.75-4.0312 4.4062-10.672 4.4062-7.5156 0-12.031-4.25t-5.2031-11.969z"/>
<path id="g" d="m41.109 46.297q-1.5156 0.875-3.2969 1.2812-1.7812 0.42188-3.9219 0.42188-7.625 0-11.703-4.9531t-4.0781-14.234v-28.812h-9.0312v54.688h9.0312v-8.5q2.8438 4.9844 7.375 7.3906 4.5469 2.4219 11.047 2.4219 0.92188 0 2.0469-0.125 1.125-0.10938 2.4844-0.35938z"/>
<path id="i" d="m52 44.188q3.375 6.0625 8.0625 8.9375t11.031 2.875q8.5469 0 13.188-5.9844 4.6406-5.9688 4.6406-17v-33.016h-9.0312v32.719q0 7.8594-2.7969 11.656-2.7812 3.8125-8.4844 3.8125-6.9844 0-11.047-4.6406-4.0469-4.625-4.0469-12.641v-30.906h-9.0312v32.719q0 7.9062-2.7812 11.688t-8.5938 3.7812q-6.8906 0-10.953-4.6562-4.0469-4.6562-4.0469-12.625v-30.906h-9.0312v54.688h9.0312v-8.5q3.0781 5.0312 7.375 7.4219t10.203 2.3906q5.9688 0 10.141-3.0312 4.1719-3.0156 6.1719-8.7812z"/>
<path id="k" d="m9.4219 54.688h8.9844v-54.688h-8.9844zm0 21.297h8.9844v-11.391h-8.9844z"/>
<path id="h" d="m54.891 33.016v-33.016h-8.9844v32.719q0 7.7656-3.0312 11.609-3.0312 3.8594-9.0781 3.8594-7.2812 0-11.484-4.6406-4.2031-4.625-4.2031-12.641v-30.906h-9.0312v54.688h9.0312v-8.5q3.2344 4.9375 7.5938 7.375 4.375 2.4375 10.094 2.4375 9.4219 0 14.25-5.8281 4.8438-5.8281 4.8438-17.156z"/>
<path id="f" d="m34.281 27.484q-10.891 0-15.094-2.4844t-4.2031-8.5q0-4.7812 3.1562-7.5938 3.1562-2.7969 8.5625-2.7969 7.4844 0 12 5.2969t4.5156 14.078v2zm17.922 3.7188v-31.203h-8.9844v8.2969q-3.0781-4.9688-7.6719-7.3438t-11.234-2.375q-8.3906 0-13.359 4.7188-4.9531 4.7188-4.9531 12.625 0 9.2188 6.1719 13.906 6.1875 4.6875 18.438 4.6875h12.609v0.89062q0 6.2031-4.0781 9.5938t-11.453 3.3906q-4.6875 0-9.1406-1.125-4.4375-1.125-8.5312-3.375v8.3125q4.9219 1.9062 9.5625 2.8438 4.6406 0.95312 9.0312 0.95312 11.875 0 17.734-6.1562 5.8594-6.1406 5.8594-18.641z"/>
<path id="j" d="m9.4219 75.984h8.9844v-75.984h-8.9844z"/>
</defs>
<use xlink:href="#e"/>
<use x="44.083984" xlink:href="#l"/>
<use x="105.607422" xlink:href="#g"/>
<use x="144.970703" xlink:href="#i"/>
<use x="242.382812" xlink:href="#k"/>
<use x="270.166016" xlink:href="#h"/>
<use x="333.544922" xlink:href="#f"/>
<use x="394.824219" xlink:href="#j"/>
</g>
</g>
<path d="m175.94 449.08 0.088277-4.8855q0.043359-2.3996-2.3562-2.443l-7.7412-0.13988q-2.3996-0.043359-2.443 2.3562l-0.088277 4.8855q-0.043359 2.3996 2.3562 2.443l7.7412 0.13988q2.3996 0.043359 2.443-2.3562z" clip-path="url(#a)" fill="#fff" stroke="#fff"/>
<g clip-path="url(#a)">
<g transform="translate(171.87 449.01) rotate(-88.965) scale(.08 -.08)">
<use xlink:href="#e"/>
</g>
</g>
<path d="m178.53 445.19 0.7982 4.7573q0.39714 2.3669 2.764 1.9698l7.6358-1.2812q2.3669-0.39714 1.9698-2.764l-0.7982-4.7573q-0.39714-2.3669-2.764-1.9698l-7.6358 1.2812q-2.3669 0.39714-1.9698 2.764z" clip-path="url(#a)" fill="#fff" stroke="#fff"/>
<g clip-path="url(#a)">
<g transform="translate(182.54 444.51) rotate(80.475) scale(.08 -.08)">
<use xlink:href="#v"/>
</g>
</g>
<path d="m205.23 407.62 3.8167 3.9218q1.6738 1.72 3.3938 0.046102l5.5486-5.3999q1.72-1.6738 0.046102-3.3938l-3.8167-3.9218q-1.6738-1.72-3.3938-0.046102l-5.5486 5.3999q-1.72 1.6738-0.046102 3.3938z" clip-path="url(#a)" fill="#fff" stroke="#fff"/>
<g clip-path="url(#a)">
<g transform="translate(208.15 404.78) rotate(45.778) scale(.08 -.08)">
<use xlink:href="#p"/>
</g>
</g>
<path d="m122.19 452.21 2.9421-4.6144q1.2903-2.0237-0.7334-3.3139l-6.5284-4.1624q-2.0237-1.2903-3.3139 0.7334l-2.9421 4.6144q-1.2903 2.0237 0.7334 3.3139l6.5284 4.1624q2.0237 1.2903 3.3139-0.7334z" clip-path="url(#a)" fill="#fff" stroke="#fff"/>
<g clip-path="url(#a)">
<g transform="translate(118.76 450.02) rotate(-57.479) scale(.08 -.08)">
<use xlink:href="#p"/>
</g>
</g>
<path d="m305.69 553.25v33.808q0 2.4 2.4 2.4h7.7425q2.4 0 2.4-2.4v-33.808q0-2.4-2.4-2.4h-7.7425q-2.4 0-2.4 2.4z" clip-path="url(#a)" fill="#fff" stroke="#fff"/>
<g clip-path="url(#a)">
<g transform="translate(309.75 553.25) rotate(90) scale(.08 -.08)">
<use xlink:href="#e"/>
<use x="44.083984" xlink:href="#l"/>
<use x="105.607422" xlink:href="#g"/>
<use x="144.970703" xlink:href="#i"/>
<use x="242.382812" xlink:href="#k"/>
<use x="270.166016" xlink:href="#h"/>
<use x="333.544922" xlink:href="#f"/>
<use x="394.824219" xlink:href="#j"/>
</g>
</g>
<path d="m378.32 324.06 0.36501-4.8099q0.18161-2.3931-2.2115-2.5747l-7.7203-0.58587q-2.3931-0.18161-2.5747 2.2115l-0.36501 4.8099q-0.18161 2.3931 2.2115 2.5747l7.7203 0.58587q2.3931 0.18161 2.5747-2.2115z" clip-path="url(#a)" fill="#fff" stroke="#fff"/>
<g clip-path="url(#a)">
<g transform="translate(374.27 323.76) rotate(-85.66) scale(.08 -.08)">
<use xlink:href="#v"/>
</g>
</g>
<path d="m518.65 160.03 5.2271 1.6204q2.2924 0.71063 3.003-1.5817l2.2925-7.3953q0.71063-2.2924-1.5817-3.003l-5.2271-1.6204q-2.2924-0.71063-3.003 1.5817l-2.2925 7.3953q-0.71063 2.2924 1.5817 3.003z" clip-path="url(#a)" fill="#fff" stroke="#fff"/>
<g clip-path="url(#a)">
<g transform="translate(519.86 156.15) rotate(17.223) scale(.08 -.08)">
<use xlink:href="#p"/>
</g>
</g>
<path d="m230.08 327.19 3.3509-4.3266q1.4696-1.8975-0.42791-3.367l-6.1213-4.7409q-1.8975-1.4696-3.367 0.42791l-3.3509 4.3266q-1.4696 1.8975 0.42791 3.367l6.1213 4.7409q1.8975 1.4696 3.367-0.42791z" clip-path="url(#a)" fill="#fff" stroke="#fff"/>
<g clip-path="url(#a)">
<g transform="translate(226.86 324.7) rotate(-52.243) scale(.08 -.08)">
<use xlink:href="#p"/>
</g>
</g>
<path d="m389.83 318.51 0.2292 5.8505q0.093951 2.3982 2.4921 2.3042l7.7366-0.30309q2.3982-0.093951 2.3042-2.4921l-0.2292-5.8505q-0.093951-2.3982-2.4921-2.3042l-7.7366 0.30309q-2.3982 0.093951-2.3042 2.4921z" clip-path="url(#a)" fill="#fff" stroke="#fff"/>
<g clip-path="url(#a)">
<g transform="translate(393.89 318.35) rotate(87.757) scale(.08 -.08)">
<use xlink:href="#u"/>
</g>
</g>
<path d="m415.22 319.3 0.93888 5.7792q0.38486 2.3689 2.7538 1.9841l7.6423-1.2416q2.3689-0.38486 1.9841-2.7538l-0.93889-5.7792q-0.38485-2.3689-2.7538-1.9841l-7.6423 1.2416q-2.3689 0.38485-1.9841 2.7538z" clip-path="url(#a)" fill="#fff" stroke="#fff"/>
<g clip-path="url(#a)">
<g transform="translate(419.23 318.65) rotate(80.772) scale(.08 -.08)">
<use xlink:href="#u"/>
</g>
</g>
<path d="m350.18 553.25v33.808q0 2.4 2.4 2.4h7.7425q2.4 0 2.4-2.4v-33.808q0-2.4-2.4-2.4h-7.7425q-2.4 0-2.4 2.4z" clip-path="url(#a)" fill="#fff" stroke="#fff"/>
<g clip-path="url(#a)">
<g transform="translate(354.24 553.25) rotate(90) scale(.08 -.08)">
<use xlink:href="#e"/>
<use x="44.083984" xlink:href="#l"/>
<use x="105.607422" xlink:href="#g"/>
<use x="144.970703" xlink:href="#i"/>
<use x="242.382812" xlink:href="#k"/>
<use x="270.166016" xlink:href="#h"/>
<use x="333.544922" xlink:href="#f"/>
<use x="394.824219" xlink:href="#j"/>
</g>
</g>
<path d="m588.95 368.1 2.2211-5.0015q0.97408-2.1934-1.2194-3.1675l-7.0761-3.1424q-2.1934-0.97408-3.1675 1.2194l-2.2211 5.0015q-0.97408 2.1934 1.2194 3.1675l7.0761 3.1424q2.1934 0.97408 3.1675-1.2194z" clip-path="url(#a)" fill="#fff" stroke="#fff"/>
<g clip-path="url(#a)">
<g transform="translate(585.23 366.45) rotate(-66.055) scale(.08 -.08)">
<use xlink:href="#p"/>
</g>
</g>
<path d="m618.67 367.66 1.6012-5.9482q0.62386-2.3175-1.6936-2.9414l-7.4763-2.0126q-2.3175-0.62386-2.9414 1.6936l-1.6012 5.9482q-0.62386 2.3175 1.6936 2.9414l7.4763 2.0126q2.3175 0.62386 2.9414-1.6936z" clip-path="url(#a)" fill="#fff" stroke="#fff"/>
<g clip-path="url(#a)">
<g transform="translate(614.75 366.61) rotate(-74.933) scale(.08 -.08)">
<use xlink:href="#ao"/>
</g>
</g>
<path d="m650.26 366.11 0.4252-5.0609q0.20093-2.3916-2.1906-2.5925l-7.7153-0.64822q-2.3916-0.20093-2.5925 2.1906l-0.4252 5.0609q-0.20093 2.3916 2.1906 2.5925l7.7153 0.64821q2.3916 0.20093 2.5925-2.1906z" clip-path="url(#a)" fill="#fff" stroke="#fff"/>
<g clip-path="url(#a)">
<g transform="translate(646.21 365.77) rotate(-85.197) scale(.08 -.08)">
<defs>
<path id="an" d="m53.516 70.516v-9.625q-5.6094 2.6875-10.594 4-4.9844 1.3281-9.625 1.3281-8.0469 0-12.422-3.125t-4.375-8.8906q0-4.8438 2.9062-7.3125 2.9062-2.4531 11.016-3.9688l5.9531-1.2188q11.031-2.1094 16.281-7.4062t5.25-14.172q0-10.609-7.1094-16.078-7.0938-5.4688-20.812-5.4688-5.1719 0-11.016 1.1719-5.8281 1.1719-12.078 3.4688v10.156q6-3.3594 11.766-5.0781 5.7656-1.7031 11.328-1.7031 8.4375 0 13.031 3.3125 4.5938 3.3281 4.5938 9.4844 0 5.3594-3.2969 8.3906t-10.812 4.5469l-6.0156 1.1719q-11.031 2.1875-15.969 6.875-4.9219 4.6875-4.9219 13.047 0 9.6719 6.8125 15.234t18.766 5.5625q5.1406 0 10.453-0.9375 5.3281-0.92188 10.891-2.7656z"/>
</defs>
<use xlink:href="#an"/>
</g>
</g>
<path d="m767.55 243.46 5.1386 1.8823q2.2536 0.82548 3.0791-1.4281l2.663-7.2701q0.82548-2.2536-1.4281-3.0791l-5.1386-1.8823q-2.2536-0.82548-3.0791 1.4281l-2.663 7.2701q-0.82548 2.2536 1.4281 3.0791z" clip-path="url(#a)" fill="#fff" stroke="#fff"/>
<g clip-path="url(#a)">
<g transform="translate(768.95 239.64) rotate(20.118) scale(.08 -.08)">
<use xlink:href="#p"/>
</g>
</g>
<path d="m670.18 360.84 0.64853 5.819q0.26584 2.3852 2.6511 2.1194l7.6949-0.8576q2.3852-0.26584 2.1194-2.6511l-0.64853-5.819q-0.26584-2.3852-2.6511-2.1194l-7.6949 0.8576q-2.3852 0.26584-2.1194 2.6511z" clip-path="url(#a)" fill="#fff" stroke="#fff"/>
<g clip-path="url(#a)">
<g transform="translate(674.22 360.39) rotate(83.641) scale(.08 -.08)">
<use xlink:href="#u"/>
</g>
</g>
<path d="m504.19 553.25v33.808q0 2.4 2.4 2.4h7.7425q2.4 0 2.4-2.4v-33.808q0-2.4-2.4-2.4h-7.7425q-2.4 0-2.4 2.4z" clip-path="url(#a)" fill="#fff" stroke="#fff"/>
<g clip-path="url(#a)">
<g transform="translate(508.25 553.25) rotate(90) scale(.08 -.08)">
<use xlink:href="#e"/>
<use x="44.083984" xlink:href="#l"/>
<use x="105.607422" xlink:href="#g"/>
<use x="144.970703" xlink:href="#i"/>
<use x="242.382812" xlink:href="#k"/>
<use x="270.166016" xlink:href="#h"/>
<use x="333.544922" xlink:href="#f"/>
<use x="394.824219" xlink:href="#j"/>
</g>
</g>
<path d="m562.37 553.25v33.808q0 2.4 2.4 2.4h7.7425q2.4 0 2.4-2.4v-33.808q0-2.4-2.4-2.4h-7.7425q-2.4 0-2.4 2.4z" clip-path="url(#a)" fill="#fff" stroke="#fff"/>
<g clip-path="url(#a)">
<g transform="translate(566.43 553.25) rotate(90) scale(.08 -.08)">
<use xlink:href="#e"/>
<use x="44.083984" xlink:href="#l"/>
<use x="105.607422" xlink:href="#g"/>
<use x="144.970703" xlink:href="#i"/>
<use x="242.382812" xlink:href="#k"/>
<use x="270.166016" xlink:href="#h"/>
<use x="333.544922" xlink:href="#f"/>
<use x="394.824219" xlink:href="#j"/>
</g>
</g>
<path d="m623.97 553.25v33.808q0 2.4 2.4 2.4h7.7425q2.4 0 2.4-2.4v-33.808q0-2.4-2.4-2.4h-7.7425q-2.4 0-2.4 2.4z" clip-path="url(#a)" fill="#fff" stroke="#fff"/>
<g clip-path="url(#a)">
<g transform="translate(628.04 553.25) rotate(90) scale(.08 -.08)">
<use xlink:href="#e"/>
<use x="44.083984" xlink:href="#l"/>
<use x="105.607422" xlink:href="#g"/>
<use x="144.970703" xlink:href="#i"/>
<use x="242.382812" xlink:href="#k"/>
<use x="270.166016" xlink:href="#h"/>
<use x="333.544922" xlink:href="#f"/>
<use x="394.824219" xlink:href="#j"/>
</g>
</g>
<path d="m1019.3 327.24 4.8594 1.4765q2.2963 0.69773 2.9941-1.5986l2.2509-7.4081q0.69773-2.2963-1.5986-2.9941l-4.8594-1.4765q-2.2963-0.69773-2.9941 1.5986l-2.2509 7.4081q-0.69773 2.2963 1.5986 2.9941z" clip-path="url(#a)" fill="#fff" stroke="#fff"/>
<g clip-path="url(#a)">
<g transform="translate(1020.5 323.35) rotate(16.901) scale(.08 -.08)">
<use xlink:href="#an"/>
</g>
</g>
<path d="m829.44 410.11 2.4553-4.9871q1.0601-2.1532-1.0931-3.2133l-6.9463-3.4199q-2.1532-1.0601-3.2133 1.0931l-2.4553 4.9871q-1.0601 2.1532 1.0931 3.2133l6.9463 3.4199q2.1532 1.0601 3.2133-1.0931z" clip-path="url(#a)" fill="#fff" stroke="#fff"/>
<g clip-path="url(#a)">
<g transform="translate(825.79 408.31) rotate(-63.788) scale(.08 -.08)">
<defs>
<path id="ae" d="m44.391 34.188q3.1719-1.0781 6.1719-4.5938t6.0312-9.6719l10.016-19.922h-10.609l-9.3125 18.703q-3.625 7.3281-7.0156 9.7188t-9.25 2.3906h-10.75v-30.812h-9.8594v72.906h22.266q12.5 0 18.656-5.2344 6.1562-5.2188 6.1562-15.766 0-6.8906-3.2031-11.438-3.2031-4.5312-9.2969-6.2812zm-24.719 30.609v-25.875h12.406q7.125 0 10.766 3.2969t3.6406 9.6875-3.6406 9.6406-10.766 3.25z"/>
</defs>
<use xlink:href="#ae"/>
</g>
</g>
<path d="m866.58 408.78 1.0928-5.3623q0.47927-2.3517-1.8724-2.8309l-7.5865-1.5462q-2.3517-0.47927-2.8309 1.8724l-1.0928 5.3623q-0.47927 2.3517 1.8724 2.8309l7.5865 1.5462q2.3517 0.47927 2.8309-1.8724z" clip-path="url(#a)" fill="#fff" stroke="#fff"/>
<g clip-path="url(#a)">
<g transform="translate(862.59 407.97) rotate(-78.481) scale(.08 -.08)">
<use xlink:href="#p"/>
</g>
</g>
<path d="m967.88 326.45 4.9321 2.3712q2.163 1.0399 3.2029-1.1231l3.3547-6.978q1.0399-2.163-1.1231-3.2029l-4.9321-2.3712q-2.163-1.0399-3.2029 1.1231l-3.3547 6.978q-1.0399 2.163 1.1231 3.2029z" clip-path="url(#a)" fill="#fff" stroke="#fff"/>
<g clip-path="url(#a)">
<g transform="translate(969.64 322.78) rotate(25.676) scale(.08 -.08)">
<use xlink:href="#p"/>
</g>
</g>
<path d="m757.45 553.25v33.808q0 2.4 2.4 2.4h7.7425q2.4 0 2.4-2.4v-33.808q0-2.4-2.4-2.4h-7.7425q-2.4 0-2.4 2.4z" clip-path="url(#a)" fill="#fff" stroke="#fff"/>
<g clip-path="url(#a)">
<g transform="translate(761.51 553.25) rotate(90) scale(.08 -.08)">
<use xlink:href="#e"/>
<use x="44.083984" xlink:href="#l"/>
<use x="105.607422" xlink:href="#g"/>
<use x="144.970703" xlink:href="#i"/>
<use x="242.382812" xlink:href="#k"/>
<use x="270.166016" xlink:href="#h"/>
<use x="333.544922" xlink:href="#f"/>
<use x="394.824219" xlink:href="#j"/>
</g>
</g>
<path d="m829.32 553.25v33.808q0 2.4 2.4 2.4h7.7425q2.4 0 2.4-2.4v-33.808q0-2.4-2.4-2.4h-7.7425q-2.4 0-2.4 2.4z" clip-path="url(#a)" fill="#fff" stroke="#fff"/>
<g clip-path="url(#a)">
<g transform="translate(833.39 553.25) rotate(90) scale(.08 -.08)">
<use xlink:href="#e"/>
<use x="44.083984" xlink:href="#l"/>
<use x="105.607422" xlink:href="#g"/>
<use x="144.970703" xlink:href="#i"/>
<use x="242.382812" xlink:href="#k"/>
<use x="270.166016" xlink:href="#h"/>
<use x="333.544922" xlink:href="#f"/>
<use x="394.824219" xlink:href="#j"/>
</g>
</g>
<path d="m1006.8 411.73 4.0273-3.0552q1.9121-1.4505 0.46154-3.3626l-4.6794-6.1684q-1.4505-1.9121-3.3626-0.46154l-4.0273 3.0552q-1.9121 1.4505-0.46154 3.3626l4.6794 6.1684q1.4505 1.9121 3.3626 0.46154z" clip-path="url(#a)" fill="#fff" stroke="#fff"/>
<g clip-path="url(#a)">
<g transform="translate(1004.3 408.49) rotate(-37.185) scale(.08 -.08)">
<defs>
<path id="ay" d="m9.8125 72.906h46.094v-8.3125h-36.234v-21.578h34.719v-8.2969h-34.719v-26.422h37.109v-8.2969h-46.969z"/>
</defs>
<use xlink:href="#ay"/>
</g>
</g>
<path d="m1059.3 444.19 0.40271 5.5717q0.17301 2.3938 2.5668 2.2207l7.7224-0.55815q2.3938-0.17301 2.2207-2.5668l-0.40271-5.5717q-0.17301-2.3938-2.5668-2.2207l-7.7224 0.55815q-2.3938 0.17301-2.2207 2.5668z" clip-path="url(#a)" fill="#fff" stroke="#fff"/>
<g clip-path="url(#a)">
<g transform="translate(1063.4 443.9) rotate(85.866) scale(.08 -.08)">
<defs>
<path id="w" d="m64.406 67.281v-10.391q-4.9844 4.6406-10.625 6.9219-5.6406 2.2969-11.984 2.2969-12.5 0-19.141-7.6406t-6.6406-22.094q0-14.406 6.6406-22.047t19.141-7.6406q6.3438 0 11.984 2.2969t10.625 6.9375v-10.312q-5.1719-3.5156-10.969-5.2812-5.7812-1.75-12.219-1.75-16.562 0-26.094 10.125-9.5156 10.141-9.5156 27.672 0 17.578 9.5156 27.703 9.5312 10.141 26.094 10.141 6.5312 0 12.312-1.7344 5.7969-1.7344 10.875-5.2031z"/>
</defs>
<use xlink:href="#w"/>
</g>
</g>
<path d="m1101.6 447.19 2.9698 5.0459q1.2173 2.0684 3.2857 0.85104l6.6726-3.9271q2.0684-1.2173 0.85104-3.2857l-2.9698-5.0459q-1.2173-2.0684-3.2857-0.85104l-6.6726 3.9271q-2.0684 1.2173-0.85104 3.2857z" clip-path="url(#a)" fill="#fff" stroke="#fff"/>
<g clip-path="url(#a)">
<g transform="translate(1105.1 445.12) rotate(59.521) scale(.08 -.08)">
<use xlink:href="#u"/>
</g>
</g>
<path d="m935.03 493.28 2.39-5.0187q1.0319-2.1668-1.135-3.1987l-6.9903-3.3289q-2.1668-1.0319-3.1987 1.135l-2.39 5.0187q-1.0319 2.1668 1.135 3.1987l6.9903 3.3289q2.1668 1.0319 3.1987-1.135z" clip-path="url(#a)" fill="#fff" stroke="#fff"/>
<g clip-path="url(#a)">
<g transform="translate(931.36 491.53) rotate(-64.536) scale(.08 -.08)">
<use xlink:href="#ae"/>
</g>
</g>
<path d="m963.06 488.24 2.4018 5.0436q1.0319 2.1668 3.1987 1.135l6.9903-3.3289q2.1668-1.0319 1.135-3.1987l-2.4018-5.0436q-1.0319-2.1668-3.1987-1.135l-6.9903 3.3289q-2.1668 1.0319-1.135 3.1987z" clip-path="url(#a)" fill="#fff" stroke="#fff"/>
<g clip-path="url(#a)">
<g transform="translate(966.73 486.5) rotate(64.536) scale(.08 -.08)">
<use xlink:href="#w"/>
</g>
</g>
<path d="m1065.5 553.25v33.808q0 2.4 2.4 2.4h7.7425q2.4 0 2.4-2.4v-33.808q0-2.4-2.4-2.4h-7.7425q-2.4 0-2.4 2.4z" clip-path="url(#a)" fill="#fff" stroke="#fff"/>
<g clip-path="url(#a)">
<g transform="translate(1069.5 553.25) rotate(90) scale(.08 -.08)">
<use xlink:href="#e"/>
<use x="44.083984" xlink:href="#l"/>
<use x="105.607422" xlink:href="#g"/>
<use x="144.970703" xlink:href="#i"/>
<use x="242.382812" xlink:href="#k"/>
<use x="270.166016" xlink:href="#h"/>
<use x="333.544922" xlink:href="#f"/>
<use x="394.824219" xlink:href="#j"/>
</g>
</g>
<path d="m904.62 553.25v33.808q0 2.4 2.4 2.4h7.7425q2.4 0 2.4-2.4v-33.808q0-2.4-2.4-2.4h-7.7425q-2.4 0-2.4 2.4z" clip-path="url(#a)" fill="#fff" stroke="#fff"/>
<g clip-path="url(#a)">
<g transform="translate(908.68 553.25) rotate(90) scale(.08 -.08)">
<use xlink:href="#e"/>
<use x="44.083984" xlink:href="#l"/>
<use x="105.607422" xlink:href="#g"/>
<use x="144.970703" xlink:href="#i"/>
<use x="242.382812" xlink:href="#k"/>
<use x="270.166016" xlink:href="#h"/>
<use x="333.544922" xlink:href="#f"/>
<use x="394.824219" xlink:href="#j"/>
</g>
</g>
<path d="m983.33 553.25v33.808q0 2.4 2.4 2.4h7.7425q2.4 0 2.4-2.4v-33.808q0-2.4-2.4-2.4h-7.7425q-2.4 0-2.4 2.4z" clip-path="url(#a)" fill="#fff" stroke="#fff"/>
<g clip-path="url(#a)">
<g transform="translate(987.4 553.25) rotate(90) scale(.08 -.08)">
<use xlink:href="#e"/>
<use x="44.083984" xlink:href="#l"/>
<use x="105.607422" xlink:href="#g"/>
<use x="144.970703" xlink:href="#i"/>
<use x="242.382812" xlink:href="#k"/>
<use x="270.166016" xlink:href="#h"/>
<use x="333.544922" xlink:href="#f"/>
<use x="394.824219" xlink:href="#j"/>
</g>
</g>
<path d="m161.94 553.25v33.808q0 2.4 2.4 2.4h7.7425q2.4 0 2.4-2.4v-33.808q0-2.4-2.4-2.4h-7.7425q-2.4 0-2.4 2.4z" clip-path="url(#a)" fill="#fff" stroke="#fff"/>
<g clip-path="url(#a)">
<g transform="translate(166.01 553.25) rotate(90) scale(.08 -.08)">
<use xlink:href="#e"/>
<use x="44.083984" xlink:href="#l"/>
<use x="105.607422" xlink:href="#g"/>
<use x="144.970703" xlink:href="#i"/>
<use x="242.382812" xlink:href="#k"/>
<use x="270.166016" xlink:href="#h"/>
<use x="333.544922" xlink:href="#f"/>
<use x="394.824219" xlink:href="#j"/>
</g>
</g>
<path d="m192.74 553.25v33.808q0 2.4 2.4 2.4h7.7425q2.4 0 2.4-2.4v-33.808q0-2.4-2.4-2.4h-7.7425q-2.4 0-2.4 2.4z" clip-path="url(#a)" fill="#fff" stroke="#fff"/>
<g clip-path="url(#a)">
<g transform="translate(196.81 553.25) rotate(90) scale(.08 -.08)">
<use xlink:href="#e"/>
<use x="44.083984" xlink:href="#l"/>
<use x="105.607422" xlink:href="#g"/>
<use x="144.970703" xlink:href="#i"/>
<use x="242.382812" xlink:href="#k"/>
<use x="270.166016" xlink:href="#h"/>
<use x="333.544922" xlink:href="#f"/>
<use x="394.824219" xlink:href="#j"/>
</g>
</g>
<path d="m248.15 492.17 1.2344-5.42q0.53296-2.3401-1.8071-2.873l-7.5492-1.7193q-2.3401-0.53296-2.873 1.8071l-1.2344 5.42q-0.53296 2.3401 1.8071 2.873l7.5492 1.7193q2.3401 0.53296 2.873-1.8071z" clip-path="url(#a)" fill="#fff" stroke="#fff"/>
<g clip-path="url(#a)">
<g transform="translate(244.19 491.27) rotate(-77.17) scale(.08 -.08)">
<use xlink:href="#ae"/>
</g>
</g>
<path d="m254.74 486.74 1.2405 5.4468q0.53296 2.3401 2.873 1.8071l7.5492-1.7193q2.3401-0.53296 1.8071-2.873l-1.2405-5.4468q-0.53296-2.3401-2.873-1.8071l-7.5492 1.7193q-2.3401 0.53296-1.8071 2.873z" clip-path="url(#a)" fill="#fff" stroke="#fff"/>
<g clip-path="url(#a)">
<g transform="translate(258.7 485.84) rotate(77.17) scale(.08 -.08)">
<use xlink:href="#w"/>
</g>
</g>
<path d="m226.97 553.25v33.808q0 2.4 2.4 2.4h7.7425q2.4 0 2.4-2.4v-33.808q0-2.4-2.4-2.4h-7.7425q-2.4 0-2.4 2.4z" clip-path="url(#a)" fill="#fff" stroke="#fff"/>
<g clip-path="url(#a)">
<g transform="translate(231.03 553.25) rotate(90) scale(.08 -.08)">
<use xlink:href="#e"/>
<use x="44.083984" xlink:href="#l"/>
<use x="105.607422" xlink:href="#g"/>
<use x="144.970703" xlink:href="#i"/>
<use x="242.382812" xlink:href="#k"/>
<use x="270.166016" xlink:href="#h"/>
<use x="333.544922" xlink:href="#f"/>
<use x="394.824219" xlink:href="#j"/>
</g>
</g>
<path d="m264.62 553.25v33.808q0 2.4 2.4 2.4h7.7425q2.4 0 2.4-2.4v-33.808q0-2.4-2.4-2.4h-7.7425q-2.4 0-2.4 2.4z" clip-path="url(#a)" fill="#fff" stroke="#fff"/>
<g clip-path="url(#a)">
<g transform="translate(268.68 553.25) rotate(90) scale(.08 -.08)">
<use xlink:href="#e"/>
<use x="44.083984" xlink:href="#l"/>
<use x="105.607422" xlink:href="#g"/>
<use x="144.970703" xlink:href="#i"/>
<use x="242.382812" xlink:href="#k"/>
<use x="270.166016" xlink:href="#h"/>
<use x="333.544922" xlink:href="#f"/>
<use x="394.824219" xlink:href="#j"/>
</g>
</g>
<path d="m49.001 553.25v33.808q0 2.4 2.4 2.4h7.7425q2.4 0 2.4-2.4v-33.808q0-2.4-2.4-2.4h-7.7425q-2.4 0-2.4 2.4z" clip-path="url(#a)" fill="#fff" stroke="#fff"/>
<g clip-path="url(#a)">
<g transform="translate(53.065 553.25) rotate(90) scale(.08 -.08)">
<use xlink:href="#e"/>
<use x="44.083984" xlink:href="#l"/>
<use x="105.607422" xlink:href="#g"/>
<use x="144.970703" xlink:href="#i"/>
<use x="242.382812" xlink:href="#k"/>
<use x="270.166016" xlink:href="#h"/>
<use x="333.544922" xlink:href="#f"/>
<use x="394.824219" xlink:href="#j"/>
</g>
</g>
<path d="m59.269 553.25v33.808q0 2.4 2.4 2.4h7.7425q2.4 0 2.4-2.4v-33.808q0-2.4-2.4-2.4h-7.7425q-2.4 0-2.4 2.4z" clip-path="url(#a)" fill="#fff" stroke="#fff"/>
<g clip-path="url(#a)">
<g transform="translate(63.333 553.25) rotate(90) scale(.08 -.08)">
<use xlink:href="#e"/>
<use x="44.083984" xlink:href="#l"/>
<use x="105.607422" xlink:href="#g"/>
<use x="144.970703" xlink:href="#i"/>
<use x="242.382812" xlink:href="#k"/>
<use x="270.166016" xlink:href="#h"/>
<use x="333.544922" xlink:href="#f"/>
<use x="394.824219" xlink:href="#j"/>
</g>
</g>
<path d="m72.959 553.25v33.808q0 2.4 2.4 2.4h7.7425q2.4 0 2.4-2.4v-33.808q0-2.4-2.4-2.4h-7.7425q-2.4 0-2.4 2.4z" clip-path="url(#a)" fill="#fff" stroke="#fff"/>
<g clip-path="url(#a)">
<g transform="translate(77.022 553.25) rotate(90) scale(.08 -.08)">
<use xlink:href="#e"/>
<use x="44.083984" xlink:href="#l"/>
<use x="105.607422" xlink:href="#g"/>
<use x="144.970703" xlink:href="#i"/>
<use x="242.382812" xlink:href="#k"/>
<use x="270.166016" xlink:href="#h"/>
<use x="333.544922" xlink:href="#f"/>
<use x="394.824219" xlink:href="#j"/>
</g>
</g>
<path d="m90.071 553.25v33.808q0 2.4 2.4 2.4h7.7425q2.4 0 2.4-2.4v-33.808q0-2.4-2.4-2.4h-7.7425q-2.4 0-2.4 2.4z" clip-path="url(#a)" fill="#fff" stroke="#fff"/>
<g clip-path="url(#a)">
<g transform="translate(94.135 553.25) rotate(90) scale(.08 -.08)">
<use xlink:href="#e"/>
<use x="44.083984" xlink:href="#l"/>
<use x="105.607422" xlink:href="#g"/>
<use x="144.970703" xlink:href="#i"/>
<use x="242.382812" xlink:href="#k"/>
<use x="270.166016" xlink:href="#h"/>
<use x="333.544922" xlink:href="#f"/>
<use x="394.824219" xlink:href="#j"/>
</g>
</g>
<path d="m110.61 553.25v33.808q0 2.4 2.4 2.4h7.7425q2.4 0 2.4-2.4v-33.808q0-2.4-2.4-2.4h-7.7425q-2.4 0-2.4 2.4z" clip-path="url(#a)" fill="#fff" stroke="#fff"/>
<g clip-path="url(#a)">
<g transform="translate(114.67 553.25) rotate(90) scale(.08 -.08)">
<use xlink:href="#e"/>
<use x="44.083984" xlink:href="#l"/>
<use x="105.607422" xlink:href="#g"/>
<use x="144.970703" xlink:href="#i"/>
<use x="242.382812" xlink:href="#k"/>
<use x="270.166016" xlink:href="#h"/>
<use x="333.544922" xlink:href="#f"/>
<use x="394.824219" xlink:href="#j"/>
</g>
</g>
<path d="m398.09 553.25v33.808q0 2.4 2.4 2.4h7.7425q2.4 0 2.4-2.4v-33.808q0-2.4-2.4-2.4h-7.7425q-2.4 0-2.4 2.4z" clip-path="url(#a)" fill="#fff" stroke="#fff"/>
<g clip-path="url(#a)">
<g transform="translate(402.16 553.25) rotate(90) scale(.08 -.08)">
<use xlink:href="#e"/>
<use x="44.083984" xlink:href="#l"/>
<use x="105.607422" xlink:href="#g"/>
<use x="144.970703" xlink:href="#i"/>
<use x="242.382812" xlink:href="#k"/>
<use x="270.166016" xlink:href="#h"/>
<use x="333.544922" xlink:href="#f"/>
<use x="394.824219" xlink:href="#j"/>
</g>
</g>
<path d="m449.43 553.25v33.808q0 2.4 2.4 2.4h7.7425q2.4 0 2.4-2.4v-33.808q0-2.4-2.4-2.4h-7.7425q-2.4 0-2.4 2.4z" clip-path="url(#a)" fill="#fff" stroke="#fff"/>
<g clip-path="url(#a)">
<g transform="translate(453.49 553.25) rotate(90) scale(.08 -.08)">
<use xlink:href="#e"/>
<use x="44.083984" xlink:href="#l"/>
<use x="105.607422" xlink:href="#g"/>
<use x="144.970703" xlink:href="#i"/>
<use x="242.382812" xlink:href="#k"/>
<use x="270.166016" xlink:href="#h"/>
<use x="333.544922" xlink:href="#f"/>
<use x="394.824219" xlink:href="#j"/>
</g>
</g>
<path d="m689 553.25v33.808q0 2.4 2.4 2.4h7.7425q2.4 0 2.4-2.4v-33.808q0-2.4-2.4-2.4h-7.7425q-2.4 0-2.4 2.4z" clip-path="url(#a)" fill="#fff" stroke="#fff"/>
<g clip-path="url(#a)">
<g transform="translate(693.07 553.25) rotate(90) scale(.08 -.08)">
<use xlink:href="#e"/>
<use x="44.083984" xlink:href="#l"/>
<use x="105.607422" xlink:href="#g"/>
<use x="144.970703" xlink:href="#i"/>
<use x="242.382812" xlink:href="#k"/>
<use x="270.166016" xlink:href="#h"/>
<use x="333.544922" xlink:href="#f"/>
<use x="394.824219" xlink:href="#j"/>
</g>
</g>
<path d="m1151 553.25v33.808q0 2.4 2.4 2.4h7.7425q2.4 0 2.4-2.4v-33.808q0-2.4-2.4-2.4h-7.7425q-2.4 0-2.4 2.4z" clip-path="url(#a)" fill="#fff" stroke="#fff"/>
<g clip-path="url(#a)">
<g transform="translate(1155.1 553.25) rotate(90) scale(.08 -.08)">
<use xlink:href="#e"/>
<use x="44.083984" xlink:href="#l"/>
<use x="105.607422" xlink:href="#g"/>
<use x="144.970703" xlink:href="#i"/>
<use x="242.382812" xlink:href="#k"/>
<use x="270.166016" xlink:href="#h"/>
<use x="333.544922" xlink:href="#f"/>
<use x="394.824219" xlink:href="#j"/>
</g>
</g>
<defs>
<path id="b" d="m0 8.6603c2.2967 0 4.4997-0.9125 6.1237-2.5365 1.624-1.624 2.5365-3.827 2.5365-6.1237s-0.9125-4.4997-2.5365-6.1237c-1.624-1.624-3.827-2.5365-6.1237-2.5365s-4.4997 0.9125-6.1237 2.5365c-1.624 1.624-2.5365 3.827-2.5365 6.1237s0.9125 4.4997 2.5365 6.1237c1.624 1.624 3.827 2.5365 6.1237 2.5365z"/>
</defs>
<g clip-path="url(#a)" fill="#ffffff" stroke="#ffffff">
<use x="55.272727" y="610.909091" xlink:href="#b"/>
<use x="65.540107" y="610.909091" xlink:href="#b"/>
<use x="79.229947" y="610.909091" xlink:href="#b"/>
<use x="96.342246" y="610.909091" xlink:href="#b"/>
<use x="116.877005" y="610.909091" xlink:href="#b"/>
<use x="140.834225" y="610.909091" xlink:href="#b"/>
<use x="168.213904" y="610.909091" xlink:href="#b"/>
<use x="199.016043" y="610.909091" xlink:href="#b"/>
<use x="233.240642" y="610.909091" xlink:href="#b"/>
<use x="270.887701" y="610.909091" xlink:href="#b"/>
<use x="311.957219" y="610.909091" xlink:href="#b"/>
<use x="356.449198" y="610.909091" xlink:href="#b"/>
<use x="404.363636" y="610.909091" xlink:href="#b"/>
<use x="455.700535" y="610.909091" xlink:href="#b"/>
<use x="510.459893" y="610.909091" xlink:href="#b"/>
<use x="568.641711" y="610.909091" xlink:href="#b"/>
<use x="630.245989" y="610.909091" xlink:href="#b"/>
<use x="695.272727" y="610.909091" xlink:href="#b"/>
<use x="763.721925" y="610.909091" xlink:href="#b"/>
<use x="835.593583" y="610.909091" xlink:href="#b"/>
<use x="910.887701" y="610.909091" xlink:href="#b"/>
<use x="989.604278" y="610.909091" xlink:href="#b"/>
<use x="1071.743316" y="610.909091" xlink:href="#b"/>
<use x="1157.304813" y="610.909091" xlink:href="#b"/>
<use x="1160.727273" y="363.662259" xlink:href="#b"/>
<use x="200.503862" y="29.090909" xlink:href="#b"/>
<use x="74.096257" y="446.74485" xlink:href="#b"/>
<use x="140.834225" y="529.393953" xlink:href="#b"/>
<use x="171.208556" y="363.662259" xlink:href="#b"/>
<use x="311.957219" y="529.393953" xlink:href="#b"/>
<use x="388.049911" y="112.975951" xlink:href="#b"/>
<use x="356.449198" y="529.393953" xlink:href="#b"/>
<use x="658.196078" y="196.720652" xlink:href="#b"/>
<use x="510.459893" y="529.393953" xlink:href="#b"/>
<use x="568.641711" y="529.393953" xlink:href="#b"/>
<use x="630.245989" y="529.393953" xlink:href="#b"/>
<use x="886.360071" y="280.296903" xlink:href="#b"/>
<use x="763.721925" y="529.393953" xlink:href="#b"/>
<use x="835.593583" y="529.393953" xlink:href="#b"/>
<use x="1059.764706" y="363.662259" xlink:href="#b"/>
<use x="950.245989" y="446.74485" xlink:href="#b"/>
<use x="1071.743316" y="529.393953" xlink:href="#b"/>
<use x="910.887701" y="529.393953" xlink:href="#b"/>
<use x="989.604278" y="529.393953" xlink:href="#b"/>
<use x="168.213904" y="529.393953" xlink:href="#b"/>
<use x="199.016043" y="529.393953" xlink:href="#b"/>
<use x="252.064171" y="446.74485" xlink:href="#b"/>
<use x="233.240642" y="529.393953" xlink:href="#b"/>
<use x="270.887701" y="529.393953" xlink:href="#b"/>
<use x="55.272727" y="529.393953" xlink:href="#b"/>
<use x="65.540107" y="529.393953" xlink:href="#b"/>
<use x="79.229947" y="529.393953" xlink:href="#b"/>
<use x="96.342246" y="529.393953" xlink:href="#b"/>
<use x="116.877005" y="529.393953" xlink:href="#b"/>
<use x="404.363636" y="529.393953" xlink:href="#b"/>
<use x="455.700535" y="529.393953" xlink:href="#b"/>
<use x="695.272727" y="529.393953" xlink:href="#b"/>
<use x="1157.304813" y="529.393953" xlink:href="#b"/>
</g>
<g clip-path="url(#a)">
<g transform="translate(33.17 613.67) scale(.1 -.1)">
<defs>
<path id="bh" d="m64.406 67.281v-10.391q-4.9844 4.6406-10.625 6.9219-5.6406 2.2969-11.984 2.2969-12.5 0-19.141-7.6406t-6.6406-22.094q0-14.406 6.6406-22.047t19.141-7.6406q6.3438 0 11.984 2.2969t10.625 6.9375v-10.312q-5.1719-3.5156-10.969-5.2812-5.7812-1.75-12.219-1.75-16.562 0-26.094 10.125-9.5156 10.141-9.5156 27.672 0 17.578 9.5156 27.703 9.5312 10.141 26.094 10.141 6.5312 0 12.312-1.7344 5.7969-1.7344 10.875-5.2031z"/>
<path id="ac" d="m9.0781 54.688h9.0312v-22.312h29.156v22.312h9.0312v-54.688h-9.0312v25.203h-29.156v-25.203h-9.0312z"/>
<path id="o" d="m34.281 27.484q-10.891 0-15.094-2.4844t-4.2031-8.5q0-4.7812 3.1562-7.5938 3.1562-2.7969 8.5625-2.7969 7.4844 0 12 5.2969t4.5156 14.078v2zm17.922 3.7188v-31.203h-8.9844v8.2969q-3.0781-4.9688-7.6719-7.3438t-11.234-2.375q-8.3906 0-13.359 4.7188-4.9531 4.7188-4.9531 12.625 0 9.2188 6.1719 13.906 6.1875 4.6875 18.438 4.6875h12.609v0.89062q0 6.2031-4.0781 9.5938t-11.453 3.3906q-4.6875 0-9.1406-1.125-4.4375-1.125-8.5312-3.375v8.3125q4.9219 1.9062 9.5625 2.8438 4.6406 0.95312 9.0312 0.95312 11.875 0 17.734-6.1562 5.8594-6.1406 5.8594-18.641z"/>
<path id="aj" d="m41.016 0v23h-16.75q-7.4688 0-12.453 4.6406-4.4844 4.2031-4.4844 13.188v13.859h8.9844v-13.031q0-5.7188 2.5312-8.5938 2.5938-2.8906 7.6719-2.8906h14.5v24.516h8.9844v-54.688z"/>
<path id="ad" d="m3.7188 0v7.4688q8.875 1.375 11.609 7.5156 3.3281 8.6562 3.3281 30.766v8.9375h36.953v-54.688h-8.9844v47.516h-18.984v-5.4219q0-21.094-4.2969-30.562-4.5938-10.109-19.625-11.531z"/>
</defs>
<use xlink:href="#bh"/>
<use x="69.824219" xlink:href="#ac"/>
<use x="135.205078" xlink:href="#o"/>
<use x="196.484375" xlink:href="#aj"/>
<use x="255.566406" xlink:href="#o"/>
<use x="316.845703" xlink:href="#ad"/>
<use x="380.761719" xlink:href="#o"/>
</g>
</g>
<g clip-path="url(#a)">
<g transform="translate(58.68 613.67) scale(.1 -.1)">
<defs>
<path id="ab" d="m2.9375 54.688h52.391v-7.1719h-21.781v-47.516h-8.8438v47.516h-21.766z"/>
<path id="be" d="m61.047 54.688h8.9844v-54.688h-8.9844zm4.5 1.3125m-22.094-39.781q0 4.3906-3.2031 6.6875-3.1875 2.2969-9.3438 2.2969h-12.797v-18.031h12.797q6.1562 0 9.3438 2.3125 3.2031 2.3281 3.2031 6.7344zm-34.375 38.469h9.0312v-22.312h13.188q10.453 0 16.094-3.9844 5.6406-3.9688 5.6406-12.172t-5.6406-12.219q-5.6406-4-16.094-4h-22.219z"/>
</defs>
<use xlink:href="#ab"/>
<use x="58.251953" xlink:href="#be"/>
</g>
</g>
<g clip-path="url(#a)">
<g transform="translate(63.924 613.67) scale(.1 -.1)">
<defs>
<path id="r" d="m30.609 48.391q-7.2188 0-11.422-5.6406t-4.2031-15.453 4.1719-15.453q4.1875-5.6406 11.453-5.6406 7.1875 0 11.375 5.6562 4.2031 5.6719 4.2031 15.438 0 9.7188-4.2031 15.406-4.1875 5.6875-11.375 5.6875zm0 7.6094q11.719 0 18.406-7.625 6.7031-7.6094 6.7031-21.078 0-13.422-6.7031-21.078-6.6875-7.6406-18.406-7.6406-11.766 0-18.438 7.6406-6.6562 7.6562-6.6562 21.078 0 13.469 6.6562 21.078 6.6719 7.625 18.438 7.625z"/>
<path id="t" d="m56.203 29.594v-4.3906h-41.312q0.59375-9.2812 5.5938-14.141t13.938-4.8594q5.1719 0 10.031 1.2656t9.6562 3.8125v-8.5q-4.8438-2.0469-9.9219-3.125t-10.297-1.0781q-13.094 0-20.734 7.6094-7.6406 7.625-7.6406 20.625 0 13.422 7.25 21.297 7.25 7.8906 19.562 7.8906 11.031 0 17.453-7.1094 6.4219-7.0938 6.4219-19.297zm-8.9844 2.6406q-0.09375 7.3594-4.125 11.75-4.0312 4.4062-10.672 4.4062-7.5156 0-12.031-4.25t-5.2031-11.969z"/>
<path id="bd" d="m43.453 16.219q0 4.3906-3.2031 6.6875-3.1875 2.2969-9.3438 2.2969h-12.797v-18.031h12.797q6.1562 0 9.3438 2.3125 3.2031 2.3281 3.2031 6.7344zm-34.375 38.469h9.0312v-22.312h13.188q10.453 0 16.094-3.9844 5.6406-3.9688 5.6406-12.172t-5.6406-12.219q-5.6406-4-16.094-4h-22.219z"/>
</defs>
<use xlink:href="#r"/>
<use x="61.181641" xlink:href="#aj"/>
<use x="120.263672" xlink:href="#t"/>
<use x="181.787109" xlink:href="#ac"/>
<use x="247.167969" xlink:href="#bd"/>
</g>
</g>
<g clip-path="url(#a)">
<g transform="translate(71.527 613.67) scale(.1 -.1)">
<defs>
<path id="as" d="m32.172-5.0781q-3.7969-9.7656-7.4219-12.734-3.6094-2.9844-9.6562-2.9844h-7.1875v7.5156h5.2812q3.7031 0 5.75 1.7656 2.0625 1.75 4.5469 8.2969l1.6094 4.0938-22.109 53.812h9.5156l17.094-42.766 17.094 42.766h9.5156z"/>
<path id="am" d="m21.625 7.1719h26.078v40.344h-18.891v-6.8438q0-20.109-5.7656-30.859zm-13.031 0q4.4375 1.9531 6.3906 6.1094 4.7969 10.297 4.7969 31.062v10.344h36.953v-47.516h7.1875v-20.984h-7.1875v13.812h-44.328v-13.812h-7.1875v20.984z"/>
<path id="al" d="m55.906 54.688v-54.688h-8.9375v43.891l-26.359-43.891h-11.531v54.688h8.9375v-43.797l26.328 43.797z"/>
<path id="av" d="m18.062 25.203v-18.031h12.797q6.1562 0 9.375 2.3125 3.2188 2.3281 3.2188 6.7344 0 4.3906-3.2188 6.6875t-9.375 2.2969zm0 22.312v-15.141h11.828q5.0781 0 8.2969 2.0156 3.2188 2.0312 3.2188 5.6562 0 3.6094-3.2188 5.5312-3.2188 1.9375-8.2969 1.9375zm-8.9844 7.1719h21.391q9.625 0 14.797-3.5156t5.1719-10.016q0-5.0156-2.6406-7.9844-2.625-2.9531-7.8125-3.6719 6.2031-1.1719 9.625-4.8906 3.4219-3.7031 3.4219-9.2812 0-7.3125-5.6406-11.328-5.6406-4-16.094-4h-22.219z"/>
<path id="q" d="m48.781 52.594v-8.4062q-3.8125 2.1094-7.6406 3.1562t-7.7344 1.0469q-8.75 0-13.594-5.5469-4.8281-5.5312-4.8281-15.547t4.8281-15.562q4.8438-5.5312 13.594-5.5312 3.9062 0 7.7344 1.0469t7.6406 3.1562v-8.3125q-3.7656-1.75-7.7969-2.625-4.0156-0.89062-8.5625-0.89062-12.359 0-19.641 7.7656-7.2656 7.7656-7.2656 20.953 0 13.375 7.3438 21.031 7.3594 7.6719 20.156 7.6719 4.1406 0 8.0938-0.85938 3.9531-0.84375 7.6719-2.5469z"/>
<path id="s" d="m18.453 38.922q0-4.0625 3.125-6.3594 3.125-2.2812 8.9375-2.2812h12.109v17.234h-12.109q-5.8125 0-8.9375-2.25t-3.125-6.3438zm-12.781-38.922 16.688 23.969q-5.6562 1.2812-9.4219 4.625-3.75 3.3438-3.75 10.328 0 7.9062 5.2344 11.828 5.25 3.9375 15.859 3.9375h21.375v-54.688h-9.0312v23.094h-11.172l-16.125-23.094z"/>
</defs>
<use xlink:href="#as"/>
<use x="59.179688" xlink:href="#am"/>
<use x="128.320312" xlink:href="#al"/>
<use x="193.310547" xlink:href="#av"/>
<use x="252.246094" xlink:href="#al"/>
<use x="317.236328" xlink:href="#ad"/>
<use x="381.152344" xlink:href="#q"/>
<use x="436.132812" xlink:href="#s"/>
</g>
</g>
<g clip-path="url(#a)">
<g transform="translate(115.29 613.67) scale(.1 -.1)">
<defs>
<path id="ar" d="m11.719 12.406h10.297v-8.4062l-8-15.625h-6.2969l4 15.625z"/>
</defs>
<use xlink:href="#ar"/>
</g>
</g>
<g clip-path="url(#a)">
<g transform="translate(137.77 613.67) scale(.1 -.1)">
<use xlink:href="#o"/>
</g>
</g>
<g clip-path="url(#a)">
<g transform="translate(152.14 613.67) scale(.1 -.1)">
<defs>
<path id="bf" d="m56.297 54.688v-54.688h-9.0312v47.516h-29.156v-47.516h-9.0312v54.688z"/>
<path id="ak" d="m9.0781 54.688h13.141l15.531-36.625 15.578 36.625h13.031v-54.688h-9.0312v46.094l-15.094-35.594h-8.9844l-15.141 35.594v-46.094h-9.0312z"/>
</defs>
<use xlink:href="#bf"/>
<use x="65.380859" xlink:href="#r"/>
<use x="126.5625" xlink:href="#ab"/>
<use x="184.814453" xlink:href="#r"/>
<use x="245.996094" xlink:href="#ak"/>
</g>
</g>
<g clip-path="url(#a)">
<g transform="translate(171.73 613.67) scale(.1 -.1)">
<defs>
<path id="au" d="m34.469 29.5q6.0625-1.1719 9.4219-4.75 3.375-3.5625 3.375-8.8281 0-8.4531-6.2969-12.906-6.2969-4.4375-17.922-4.4375-3.9062 0-8.0312 0.6875t-8.5156 2.0469v8.3594q3.4688-1.8125 7.6094-2.7188 4.1562-0.89062 8.6875-0.89062 7.375 0 11.5 2.7344t4.125 7.125q0 4.2969-3.6562 6.9062t-10.344 2.6094h-7.2344v7.4219h7.5625q5.6719 0 8.9688 2.1719t3.2969 5.5938q0 3.125-3.4062 5.375-3.3906 2.25-9.1875 2.25-3.4688 0-7.4062-0.64062-3.9219-0.64062-8.6719-2.0469v8.1562q4.7969 1.1719 8.9375 1.75 4.1562 0.59375 7.8594 0.59375 9.5781 0 15.109-3.8438 5.5469-3.8281 5.5469-10.719 0-4.5312-2.9375-7.6875-2.9219-3.1406-8.3906-4.3125z"/>
</defs>
<use xlink:href="#au"/>
<use x="53.173828" xlink:href="#o"/>
<use x="114.453125" xlink:href="#q"/>
<use x="169.433594" xlink:href="#ak"/>
<use x="244.873047" xlink:href="#t"/>
<use x="306.396484" xlink:href="#s"/>
<use x="366.552734" xlink:href="#ad"/>
<use x="430.46875" xlink:href="#q"/>
<use x="485.449219" xlink:href="#s"/>
</g>
</g>
<g clip-path="url(#a)">
<g transform="translate(223.45 613.67) scale(.1 -.1)">
<use xlink:href="#ac"/>
<use x="65.380859" xlink:href="#o"/>
<use x="126.660156" xlink:href="#am"/>
</g>
</g>
<g clip-path="url(#a)">
<g transform="translate(254.73 613.67) scale(.1 -.1)">
<defs>
<path id="aw" d="m31.109 56q11.719 0 18.406-7.625 6.6875-7.6094 6.6875-21.078 0-13.422-6.6875-21.078-6.6875-7.6406-18.406-7.6406-11.766 0-18.266 7.4219t-6.8438 21.297l-0.28125 11.188q-0.25 5.7969-0.25 7.8125 0 7.8125 2.8281 13.562 4.4531 9.0312 12.141 12.938t20.578 4.0156q5.9531 0.046875 8.5938 0.875l2.4844-7.125q-2.3906-0.98438-4.5781-1.0312l-12.219-0.82812q-6.1406-0.4375-9.8594-2.5938-9.7188-5.7031-10.641-13.172l-0.34375-2.7344q6.3438 5.7969 16.656 5.7969zm0-7.6094q-7.2344 0-11.438-5.6406-4.1875-5.6406-4.1875-15.453t4.1719-15.453 11.453-5.6406q7.1719 0 11.375 5.6562 4.2031 5.6719 4.2031 15.438 0 9.7188-4.2031 15.406t-11.375 5.6875z"/>
<path id="bc" d="m53.609 48.391q-7.2188 0-11.422-5.6406t-4.2031-15.453 4.1719-15.453q4.1875-5.6406 11.453-5.6406 7.1875 0 11.375 5.6562 4.2031 5.6719 4.2031 15.438 0 9.7188-4.2031 15.406-4.1875 5.6875-11.375 5.6875zm-24.797-15.531q0.92188 9.2812 7 16.203 6.0781 6.9375 17.797 6.9375t18.406-7.625q6.7031-7.6094 6.7031-21.078 0-13.422-6.7031-21.078-6.6875-7.6406-18.406-7.6406-11.766 0-18.188 7.375t-6.8594 19.484h-10.156v-25.438h-8.9844v54.688h8.9844v-21.828z"/>
</defs>
<use xlink:href="#q"/>
<use x="54.980469" xlink:href="#r"/>
<use x="116.162109" xlink:href="#aw"/>
<use x="177.832031" xlink:href="#r"/>
<use x="239.013672" xlink:href="#bc"/>
</g>
</g>
<g clip-path="url(#a)">
<g transform="translate(308.71 613.67) scale(.1 -.1)">
<use xlink:href="#al"/>
</g>
</g>
<g clip-path="url(#a)">
<g transform="translate(338.7 613.67) scale(.1 -.1)">
<defs>
<path id="at" d="m9.0781 54.688h8.9375v-25.688l25.344 25.688h11.031l-20.891-21.141 23.578-33.547h-10.062l-19.375 27.594-9.625-9.7656v-17.828h-8.9375z"/>
</defs>
<use xlink:href="#q"/>
<use x="54.980469" xlink:href="#at"/>
<use x="115.380859" xlink:href="#o"/>
<use x="176.660156" xlink:href="#au"/>
<use x="229.833984" xlink:href="#o"/>
<use x="291.113281" xlink:href="#ad"/>
</g>
</g>
<g clip-path="url(#a)">
<g transform="translate(402.68 613.67) scale(.1 -.1)">
<defs>
<path id="az" d="m11.719 12.406h10.297v-12.406h-10.297zm0 39.297h10.297v-12.391h-10.297z"/>
</defs>
<use xlink:href="#az"/>
</g>
</g>
<g clip-path="url(#a)">
<g transform="translate(453.9 613.67) scale(.1 -.1)">
<defs>
<path id="ba" d="m4.8906 31.391h26.312v-8h-26.312z"/>
</defs>
<use xlink:href="#ba"/>
</g>
</g>
<g clip-path="url(#a)">
<g transform="translate(499.8 613.67) scale(.1 -.1)">
<defs>
<path id="bi" d="m9.8125 72.906h14.703l18.594-49.609 18.703 49.609h14.703v-72.906h-9.625v64.016l-18.797-50h-9.9062l-18.797 50v-64.016h-9.5781z"/>
</defs>
<use xlink:href="#bi"/>
<use x="86.279297" xlink:href="#ac"/>
<use x="151.660156" xlink:href="#t"/>
</g>
</g>
<g clip-path="url(#a)">
<g transform="translate(559.87 613.67) scale(.1 -.1)">
<use xlink:href="#av"/>
<use x="58.935547" xlink:href="#q"/>
<use x="113.916016" xlink:href="#t"/>
</g>
</g>
<g clip-path="url(#a)">
<g transform="translate(607.91 613.67) scale(.1 -.1)">
<defs>
<path id="bg" d="m40.578 54.688h8.9375v-25.688l23.875 25.688h10.453l-19.641-21.047 22.469-33.641h-9.625l-18.406 27.641-9.125-9.8125v-17.828h-8.9375v17.828l-9.125 9.8125-18.422-27.641h-9.6094l22.453 33.641-19.625 21.047h10.453l23.875-25.688z"/>
</defs>
<use xlink:href="#at"/>
<use x="60.400391" xlink:href="#o"/>
<use x="121.679688" xlink:href="#bg"/>
<use x="211.767578" xlink:href="#t"/>
<use x="273.291016" xlink:href="#ab"/>
<use x="331.542969" xlink:href="#q"/>
<use x="386.523438" xlink:href="#s"/>
</g>
</g>
<g clip-path="url(#a)">
<g transform="translate(693.68 613.67) scale(.1 -.1)">
<use xlink:href="#ar"/>
</g>
</g>
<g clip-path="url(#a)">
<g transform="translate(754.8 613.67) scale(.1 -.1)">
<use xlink:href="#aj"/>
<use x="59.082031" xlink:href="#ab"/>
<use x="117.333984" xlink:href="#r"/>
</g>
</g>
<g clip-path="url(#a)">
<g transform="translate(832.59 613.67) scale(.1 -.1)">
<use xlink:href="#s"/>
</g>
</g>
<g clip-path="url(#a)">
<g transform="translate(907.93 613.67) scale(.1 -.1)">
<use xlink:href="#as"/>
</g>
</g>
<g clip-path="url(#a)">
<g transform="translate(977.69 613.67) scale(.1 -.1)">
<use xlink:href="#q"/>
<use x="54.980469" xlink:href="#t"/>
<use x="116.503906" xlink:href="#aw"/>
<use x="178.173828" xlink:href="#s"/>
</g>
</g>
<g clip-path="url(#a)">
<g transform="translate(1058.4 613.67) scale(.1 -.1)">
<use xlink:href="#am"/>
<use x="69.140625" xlink:href="#r"/>
<use x="130.322266" xlink:href="#ak"/>
<use x="205.761719" xlink:href="#o"/>
</g>
</g>
<g clip-path="url(#a)">
<g transform="translate(1155.3 613.67) scale(.1 -.1)">
<defs>
<path id="bb" d="m15.094 12.406h9.9062v-12.406h-9.9062zm0 60.5h9.9062v-31.984l-0.96875-17.438h-7.9219l-1.0156 17.438z"/>
</defs>
<use xlink:href="#bb"/>
</g>
</g>
<g clip-path="url(#a)">
<g transform="translate(1139.6 366.42) scale(.1 -.1)">
<defs>
<path id="ag" d="m9.8125 72.906h9.8594v-72.906h-9.8594z"/>
<path id="ax" d="m9.8125 72.906h14.703l18.594-49.609 18.703 49.609h14.703v-72.906h-9.625v64.016l-18.797-50h-9.9062l-18.797 50v-64.016h-9.5781z"/>
</defs>
<use xlink:href="#ag"/>
<use x="29.492188" xlink:href="#ax"/>
<use x="115.771484" xlink:href="#v"/>
<use x="176.074219" xlink:href="#af"/>
<use x="231.787109" xlink:href="#ag"/>
<use x="261.279297" xlink:href="#w"/>
<use x="331.103516" xlink:href="#ag"/>
<use x="360.595703" xlink:href="#e"/>
</g>
</g>
<g clip-path="url(#a)">
<g transform="translate(192.55 31.85) scale(.1 -.1)">
<defs>
<path id="c" d="m12.406 8.2969h16.109v55.625l-17.531-3.5156v8.9844l17.438 3.5156h9.8594v-64.609h16.109v-8.2969h-41.984z"/>
<path id="d" d="m10.688 12.406h10.312v-12.406h-10.312z"/>
</defs>
<use xlink:href="#c"/>
<use x="63.623047" xlink:href="#d"/>
<use x="95.410156" xlink:href="#c"/>
</g>
</g>
<g clip-path="url(#a)">
<g transform="translate(66.145 449.5) scale(.1 -.1)">
<defs>
<path id="n" d="m19.188 8.2969h34.422v-8.2969h-46.281v8.2969q5.6094 5.8125 15.297 15.594 9.7031 9.7969 12.188 12.641 4.7344 5.3125 6.6094 9 1.8906 3.6875 1.8906 7.25 0 5.8125-4.0781 9.4688-4.0781 3.6719-10.625 3.6719-4.6406 0-9.7969-1.6094-5.1406-1.6094-11-4.8906v9.9688q5.9531 2.3906 11.125 3.6094 5.1875 1.2188 9.4844 1.2188 11.328 0 18.062-5.6719 6.7344-5.6562 6.7344-15.125 0-4.5-1.6875-8.5312-1.6719-4.0156-6.125-9.4844-1.2188-1.4219-7.7656-8.1875-6.5312-6.7656-18.453-18.922z"/>
</defs>
<use xlink:href="#c"/>
<use x="63.623047" xlink:href="#d"/>
<use x="95.410156" xlink:href="#n"/>
</g>
</g>
<g clip-path="url(#a)">
<g transform="translate(132.88 532.15) scale(.1 -.1)">
<defs>
<path id="m" d="m40.578 39.312q7.0781-1.5156 11.047-6.3125 3.9844-4.7812 3.9844-11.812 0-10.781-7.4219-16.703-7.4219-5.9062-21.094-5.9062-4.5781 0-9.4375 0.90625t-10.031 2.7188v9.5156q4.0938-2.3906 8.9688-3.6094 4.8906-1.2188 10.219-1.2188 9.2656 0 14.125 3.6562t4.8594 10.641q0 6.4531-4.5156 10.078-4.5156 3.6406-12.562 3.6406h-8.5v8.1094h8.8906q7.2656 0 11.125 2.9062t3.8594 8.375q0 5.6094-3.9844 8.6094-3.9688 3.0156-11.391 3.0156-4.0625 0-8.7031-0.89062-4.6406-0.875-10.203-2.7188v8.7812q5.625 1.5625 10.531 2.3438t9.25 0.78125q11.234 0 17.766-5.1094 6.5469-5.0938 6.5469-13.781 0-6.0625-3.4688-10.234t-9.8594-5.7812z"/>
</defs>
<use xlink:href="#c"/>
<use x="63.623047" xlink:href="#d"/>
<use x="95.410156" xlink:href="#m"/>
</g>
</g>
<g clip-path="url(#a)">
<g transform="translate(163.26 366.42) scale(.1 -.1)">
<defs>
<path id="aa" d="m37.797 64.312-24.906-38.922h24.906zm-2.5938 8.5938h12.406v-47.516h10.406v-8.2031h-10.406v-17.188h-9.8125v17.188h-32.906v9.5156z"/>
</defs>
<use xlink:href="#c"/>
<use x="63.623047" xlink:href="#d"/>
<use x="95.410156" xlink:href="#aa"/>
</g>
</g>
<g clip-path="url(#a)">
<g transform="translate(304.01 532.15) scale(.1 -.1)">
<defs>
<path id="z" d="m10.797 72.906h38.719v-8.3125h-29.688v-17.859q2.1406 0.73438 4.2812 1.0938 2.1562 0.35938 4.3125 0.35938 12.203 0 19.328-6.6875 7.1406-6.6875 7.1406-18.109 0-11.766-7.3281-18.297-7.3281-6.5156-20.656-6.5156-4.5938 0-9.3594 0.78125-4.75 0.78125-9.8281 2.3438v9.9219q4.3906-2.3906 9.0781-3.5625t9.9062-1.1719q8.4531 0 13.375 4.4375 4.9375 4.4375 4.9375 12.062 0 7.6094-4.9375 12.047-4.9219 4.4531-13.375 4.4531-3.9531 0-7.8906-0.875-3.9219-0.875-8.0156-2.7344z"/>
</defs>
<use xlink:href="#c"/>
<use x="63.623047" xlink:href="#d"/>
<use x="95.410156" xlink:href="#z"/>
</g>
</g>
<g clip-path="url(#a)">
<g transform="translate(380.1 115.74) scale(.1 -.1)">
<defs>
<path id="y" d="m33.016 40.375q-6.6406 0-10.531-4.5469-3.875-4.5312-3.875-12.438 0-7.8594 3.875-12.438 3.8906-4.5625 10.531-4.5625t10.516 4.5625q3.875 4.5781 3.875 12.438 0 7.9062-3.875 12.438-3.875 4.5469-10.516 4.5469zm19.578 30.922v-8.9844q-3.7188 1.75-7.5 2.6719-3.7812 0.9375-7.5 0.9375-9.7656 0-14.922-6.5938-5.1406-6.5938-5.875-19.922 2.875 4.25 7.2188 6.5156 4.3594 2.2656 9.5781 2.2656 10.984 0 17.359-6.6719 6.375-6.6562 6.375-18.125 0-11.234-6.6406-18.031-6.6406-6.7812-17.672-6.7812-12.656 0-19.344 9.6875-6.6875 9.7031-6.6875 28.109 0 17.281 8.2031 27.562t22.016 10.281q3.7188 0 7.5-0.73438t7.8906-2.1875z"/>
</defs>
<use xlink:href="#c"/>
<use x="63.623047" xlink:href="#d"/>
<use x="95.410156" xlink:href="#y"/>
</g>
</g>
<g clip-path="url(#a)">
<g transform="translate(348.5 532.15) scale(.1 -.1)">
<defs>
<path id="x" d="m10.984 1.5156v8.9844q3.7188-1.7656 7.5156-2.6875 3.8125-0.92188 7.4844-0.92188 9.7656 0 14.906 6.5625 5.1562 6.5625 5.8906 19.953-2.8281-4.2031-7.1875-6.4531-4.3438-2.25-9.6094-2.25-10.938 0-17.312 6.6094-6.375 6.625-6.375 18.109 0 11.219 6.6406 18 6.6406 6.7969 17.672 6.7969 12.656 0 19.312-9.7031 6.6719-9.6875 6.6719-28.141 0-17.234-8.1875-27.516-8.1719-10.281-21.984-10.281-3.7188 0-7.5312 0.73438-3.7969 0.73438-7.9062 2.2031zm19.625 30.906q6.6406 0 10.516 4.5312 3.8906 4.5469 3.8906 12.469 0 7.8594-3.8906 12.422-3.875 4.5625-10.516 4.5625t-10.516-4.5625-3.875-12.422q0-7.9219 3.875-12.469 3.875-4.5312 10.516-4.5312z"/>
</defs>
<use xlink:href="#c"/>
<use x="63.623047" xlink:href="#d"/>
<use x="95.410156" xlink:href="#x"/>
</g>
</g>
<g clip-path="url(#a)">
<g transform="translate(647.06 199.48) scale(.1 -.1)">
<defs>
<path id="ai" d="m31.781 66.406q-7.6094 0-11.453-7.5-3.8281-7.4844-3.8281-22.531 0-14.984 3.8281-22.484 3.8438-7.5 11.453-7.5 7.6719 0 11.5 7.5 3.8438 7.5 3.8438 22.484 0 15.047-3.8438 22.531-3.8281 7.5-11.5 7.5zm0 7.8125q12.266 0 18.734-9.7031 6.4688-9.6875 6.4688-28.141 0-18.406-6.4688-28.109-6.4688-9.6875-18.734-9.6875-12.25 0-18.719 9.6875-6.4688 9.7031-6.4688 28.109 0 18.453 6.4688 28.141 6.4688 9.7031 18.719 9.7031z"/>
</defs>
<use xlink:href="#c"/>
<use x="63.623047" xlink:href="#d"/>
<use x="95.410156" xlink:href="#c"/>
<use x="159.033203" xlink:href="#ai"/>
</g>
</g>
<g clip-path="url(#a)">
<g transform="translate(499.33 532.15) scale(.1 -.1)">
<use xlink:href="#c"/>
<use x="63.623047" xlink:href="#d"/>
<use x="95.410156" xlink:href="#c"/>
<use x="159.033203" xlink:href="#m"/>
</g>
</g>
<g clip-path="url(#a)">
<g transform="translate(557.51 532.15) scale(.1 -.1)">
<use xlink:href="#c"/>
<use x="63.623047" xlink:href="#d"/>
<use x="95.410156" xlink:href="#c"/>
<use x="159.033203" xlink:href="#aa"/>
</g>
</g>
<g clip-path="url(#a)">
<g transform="translate(619.11 532.15) scale(.1 -.1)">
<use xlink:href="#c"/>
<use x="63.623047" xlink:href="#d"/>
<use x="95.410156" xlink:href="#c"/>
<use x="159.033203" xlink:href="#z"/>
</g>
</g>
<g clip-path="url(#a)">
<g transform="translate(875.23 283.06) scale(.1 -.1)">
<use xlink:href="#c"/>
<use x="63.623047" xlink:href="#d"/>
<use x="95.410156" xlink:href="#c"/>
<use x="159.033203" xlink:href="#y"/>
</g>
</g>
<g clip-path="url(#a)">
<g transform="translate(752.59 532.15) scale(.1 -.1)">
<use xlink:href="#c"/>
<use x="63.623047" xlink:href="#d"/>
<use x="95.410156" xlink:href="#c"/>
<use x="159.033203" xlink:href="#x"/>
</g>
</g>
<g clip-path="url(#a)">
<g transform="translate(824.46 532.15) scale(.1 -.1)">
<use xlink:href="#c"/>
<use x="63.623047" xlink:href="#d"/>
<use x="95.410156" xlink:href="#n"/>
<use x="159.033203" xlink:href="#ai"/>
</g>
</g>
<g clip-path="url(#a)">
<g transform="translate(1048.6 366.42) scale(.1 -.1)">
<use xlink:href="#c"/>
<use x="63.623047" xlink:href="#d"/>
<use x="95.410156" xlink:href="#n"/>
<use x="159.033203" xlink:href="#c"/>
</g>
</g>
<g clip-path="url(#a)">
<g transform="translate(939.11 449.5) scale(.1 -.1)">
<use xlink:href="#c"/>
<use x="63.623047" xlink:href="#d"/>
<use x="95.410156" xlink:href="#n"/>
<use x="159.033203" xlink:href="#n"/>
</g>
</g>
<g clip-path="url(#a)">
<g transform="translate(1060.6 532.15) scale(.1 -.1)">
<use xlink:href="#c"/>
<use x="63.623047" xlink:href="#d"/>
<use x="95.410156" xlink:href="#n"/>
<use x="159.033203" xlink:href="#m"/>
</g>
</g>
<g clip-path="url(#a)">
<g transform="translate(899.75 532.15) scale(.1 -.1)">
<use xlink:href="#c"/>
<use x="63.623047" xlink:href="#d"/>
<use x="95.410156" xlink:href="#n"/>
<use x="159.033203" xlink:href="#aa"/>
</g>
</g>
<g clip-path="url(#a)">
<g transform="translate(978.47 532.15) scale(.1 -.1)">
<use xlink:href="#c"/>
<use x="63.623047" xlink:href="#d"/>
<use x="95.410156" xlink:href="#n"/>
<use x="159.033203" xlink:href="#z"/>
</g>
</g>
<g clip-path="url(#a)">
<g transform="translate(157.08 532.15) scale(.1 -.1)">
<use xlink:href="#c"/>
<use x="63.623047" xlink:href="#d"/>
<use x="95.410156" xlink:href="#n"/>
<use x="159.033203" xlink:href="#y"/>
</g>
</g>
<g clip-path="url(#a)">
<g transform="translate(187.88 532.15) scale(.1 -.1)">
<defs>
<path id="aq" d="m8.2031 72.906h46.875v-4.2031l-26.469-68.703h-10.297l24.906 64.594h-35.016z"/>
</defs>
<use xlink:href="#c"/>
<use x="63.623047" xlink:href="#d"/>
<use x="95.410156" xlink:href="#n"/>
<use x="159.033203" xlink:href="#aq"/>
</g>
</g>
<g clip-path="url(#a)">
<g transform="translate(240.93 449.5) scale(.1 -.1)">
<defs>
<path id="ap" d="m31.781 34.625q-7.0312 0-11.062-3.7656-4.0156-3.7656-4.0156-10.344 0-6.5938 4.0156-10.359 4.0312-3.7656 11.062-3.7656t11.078 3.7812q4.0625 3.7969 4.0625 10.344 0 6.5781-4.0312 10.344-4.0156 3.7656-11.109 3.7656zm-9.8594 4.1875q-6.3438 1.5625-9.8906 5.9062-3.5312 4.3594-3.5312 10.609 0 8.7344 6.2188 13.812 6.2344 5.0781 17.062 5.0781 10.891 0 17.094-5.0781t6.2031-13.812q0-6.25-3.5469-10.609-3.5312-4.3438-9.8281-5.9062 7.125-1.6562 11.094-6.5 3.9844-4.8281 3.9844-11.797 0-10.609-6.4688-16.281-6.4688-5.6562-18.531-5.6562-12.047 0-18.531 5.6562-6.4688 5.6719-6.4688 16.281 0 6.9688 4 11.797 4.0156 4.8438 11.141 6.5zm-3.6094 15.578q0-5.6562 3.5312-8.8281 3.5469-3.1719 9.9375-3.1719 6.3594 0 9.9375 3.1719 3.5938 3.1719 3.5938 8.8281 0 5.6719-3.5938 8.8438-3.5781 3.1719-9.9375 3.1719-6.3906 0-9.9375-3.1719-3.5312-3.1719-3.5312-8.8438z"/>
</defs>
<use xlink:href="#c"/>
<use x="63.623047" xlink:href="#d"/>
<use x="95.410156" xlink:href="#n"/>
<use x="159.033203" xlink:href="#ap"/>
</g>
</g>
<g clip-path="url(#a)">
<g transform="translate(222.11 532.15) scale(.1 -.1)">
<use xlink:href="#c"/>
<use x="63.623047" xlink:href="#d"/>
<use x="95.410156" xlink:href="#n"/>
<use x="159.033203" xlink:href="#x"/>
</g>
</g>
<g clip-path="url(#a)">
<g transform="translate(259.75 532.15) scale(.1 -.1)">
<use xlink:href="#c"/>
<use x="63.623047" xlink:href="#d"/>
<use x="95.410156" xlink:href="#m"/>
<use x="159.033203" xlink:href="#ai"/>
</g>
</g>
<g clip-path="url(#a)">
<g transform="translate(44.14 532.15) scale(.1 -.1)">
<use xlink:href="#c"/>
<use x="63.623047" xlink:href="#d"/>
<use x="95.410156" xlink:href="#m"/>
<use x="159.033203" xlink:href="#c"/>
</g>
</g>
<g clip-path="url(#a)">
<g transform="translate(54.407 532.15) scale(.1 -.1)">
<use xlink:href="#c"/>
<use x="63.623047" xlink:href="#d"/>
<use x="95.410156" xlink:href="#m"/>
<use x="159.033203" xlink:href="#n"/>
</g>
</g>
<g clip-path="url(#a)">
<g transform="translate(68.097 532.15) scale(.1 -.1)">
<use xlink:href="#c"/>
<use x="63.623047" xlink:href="#d"/>
<use x="95.410156" xlink:href="#m"/>
<use x="159.033203" xlink:href="#m"/>
</g>
</g>
<g clip-path="url(#a)">
<g transform="translate(85.209 532.15) scale(.1 -.1)">
<use xlink:href="#c"/>
<use x="63.623047" xlink:href="#d"/>
<use x="95.410156" xlink:href="#m"/>
<use x="159.033203" xlink:href="#aa"/>
</g>
</g>
<g clip-path="url(#a)">
<g transform="translate(105.74 532.15) scale(.1 -.1)">
<use xlink:href="#c"/>
<use x="63.623047" xlink:href="#d"/>
<use x="95.410156" xlink:href="#m"/>
<use x="159.033203" xlink:href="#z"/>
</g>
</g>
<g clip-path="url(#a)">
<g transform="translate(393.23 532.15) scale(.1 -.1)">
<use xlink:href="#c"/>
<use x="63.623047" xlink:href="#d"/>
<use x="95.410156" xlink:href="#m"/>
<use x="159.033203" xlink:href="#y"/>
</g>
</g>
<g clip-path="url(#a)">
<g transform="translate(444.57 532.15) scale(.1 -.1)">
<use xlink:href="#c"/>
<use x="63.623047" xlink:href="#d"/>
<use x="95.410156" xlink:href="#m"/>
<use x="159.033203" xlink:href="#aq"/>
</g>
</g>
<g clip-path="url(#a)">
<g transform="translate(684.14 532.15) scale(.1 -.1)">
<use xlink:href="#c"/>
<use x="63.623047" xlink:href="#d"/>
<use x="95.410156" xlink:href="#m"/>
<use x="159.033203" xlink:href="#ap"/>
</g>
</g>
<g clip-path="url(#a)">
<g transform="translate(1146.2 532.15) scale(.1 -.1)">
<use xlink:href="#c"/>
<use x="63.623047" xlink:href="#d"/>
<use x="95.410156" xlink:href="#m"/>
<use x="159.033203" xlink:href="#x"/>
</g>
</g>
<defs>
<clipPath id="a">
<rect width="1216" height="640"/>
</clipPath>
</defs>
</svg>
