<?xml version="1.0" encoding="UTF-8"?>
<!DOCTYPE svg  PUBLIC '-//W3C//DTD SVG 1.1//EN'  'http://www.w3.org/Graphics/SVG/1.1/DTD/svg11.dtd'>
<svg width="202.67pt" height="106.67pt" version="1.1" viewBox="0 0 202.67 106.67" xmlns="http://www.w3.org/2000/svg" xmlns:xlink="http://www.w3.org/1999/xlink">
<metadata>
<rdf:RDF xmlns:cc="http://creativecommons.org/ns#" xmlns:dc="http://purl.org/dc/elements/1.1/" xmlns:rdf="http://www.w3.org/1999/02/22-rdf-syntax-ns#">
<cc:Work>
<dc:type rdf:resource="http://purl.org/dc/dcmitype/StillImage"/>
<dc:date>2021-02-23T11:00:48.428688</dc:date>
<dc:format>image/svg+xml</dc:format>
<dc:creator>
<cc:Agent>
<dc:title>Matplotlib v3.3.3, https://matplotlib.org/</dc:title>
</cc:Agent>
</dc:creator>
</cc:Work>
</rdf:RDF>
</metadata>
<defs>
<style type="text/css">*{stroke-linecap:butt;stroke-linejoin:round;}</style>
</defs>
<path d="m0 106.67h202.67v-106.67h-202.67z" fill="#fff"/>
<g fill="none" stroke="#000">
<path d="m51.434 4.8485v19.567" clip-path="url(#a)"/>
<path d="m51.434 24.415 142.02 19.517" clip-path="url(#a)"/>
<path d="m51.434 24.415 142.02 19.517" clip-path="url(#a)"/>
<path d="m51.434 24.415v19.517" clip-path="url(#a)"/>
<path d="m51.434 43.933-42.222 38.801" clip-path="url(#a)"/>
<path d="m51.434 43.933 42.222 19.451" clip-path="url(#a)"/>
<path d="m9.2121 82.734v19.084" clip-path="url(#a)"/>
<path d="m93.657 63.384 99.798 19.35" clip-path="url(#a)"/>
<path d="m93.657 63.384 99.798 19.35" clip-path="url(#a)"/>
<path d="m93.657 63.384-49.899 19.35" clip-path="url(#a)"/>
<path d="m93.657 63.384-3.8384 19.35" clip-path="url(#a)"/>
<path d="m93.657 63.384 53.737 19.35" clip-path="url(#a)"/>
<path d="m43.758 82.734v19.084" clip-path="url(#a)"/>
<path d="m89.818 82.734v19.084" clip-path="url(#a)"/>
<path d="m147.39 82.734v19.084" clip-path="url(#a)"/>
</g>
<path d="m45.163 11.624v6.0162q0 2.4 2.4 2.4h7.7425q2.4 0 2.4-2.4v-6.0162q0-2.4-2.4-2.4h-7.7425q-2.4 0-2.4 2.4z" clip-path="url(#a)" fill="#fff" stroke="#fff"/>
<g clip-path="url(#a)">
<g transform="translate(49.227 11.624) rotate(90) scale(.08 -.08)">
<defs>
<path id="s" d="m9.8125 72.906h9.8594v-29.891h35.844v29.891h9.8594v-72.906h-9.8594v34.719h-35.844v-34.719h-9.8594z"/>
</defs>
<use xlink:href="#s"/>
</g>
</g>
<path d="m118.88 40.014 5.4215 0.74507q2.3777 0.32676 2.7044-2.0509l1.0541-7.6704q0.32675-2.3777-2.0509-2.7044l-5.4215-0.74507q-2.3777-0.32676-2.7044 2.0509l-1.0541 7.6704q-0.32676 2.3777 2.0509 2.7044z" clip-path="url(#a)" fill="#fff" stroke="#fff"/>
<g clip-path="url(#a)">
<g transform="translate(119.43 35.988) rotate(7.825) scale(.08 -.08)">
<defs>
<path id="l" d="m34.188 63.188-13.391-36.281h26.812zm-5.5781 9.7188h11.188l27.781-72.906h-10.25l-6.6406 18.703h-32.859l-6.6406-18.703h-10.406z"/>
</defs>
<use xlink:href="#l"/>
</g>
</g>
<path d="m119.2 40.059 4.7788 0.65674q2.3777 0.32676 2.7044-2.0509l1.0541-7.6704q0.32676-2.3777-2.0509-2.7044l-4.7788-0.65674q-2.3777-0.32676-2.7044 2.0509l-1.0541 7.6704q-0.32676 2.3777 2.0509 2.7044z" clip-path="url(#a)" fill="#fff" stroke="#fff"/>
<g clip-path="url(#a)">
<g transform="translate(119.75 36.033) rotate(7.825) scale(.08 -.08)">
<defs>
<path id="g" d="m19.672 64.797v-27.391h12.406q6.8906 0 10.641 3.5625 3.7656 3.5625 3.7656 10.156 0 6.5469-3.7656 10.109-3.75 3.5625-10.641 3.5625zm-9.8594 8.1094h22.266q12.266 0 18.531-5.5469 6.2812-5.5469 6.2812-16.234 0-10.797-6.2812-16.312-6.2656-5.5156-18.531-5.5156h-12.406v-29.297h-9.8594z"/>
</defs>
<use xlink:href="#g"/>
</g>
</g>
<path d="m45.163 31.438v5.4725q0 2.4 2.4 2.4h7.7425q2.4 0 2.4-2.4v-5.4725q0-2.4-2.4-2.4h-7.7425q-2.4 0-2.4 2.4z" clip-path="url(#a)" fill="#fff" stroke="#fff"/>
<g clip-path="url(#a)">
<g transform="translate(49.227 31.438) rotate(90) scale(.08 -.08)">
<use xlink:href="#l"/>
</g>
</g>
<path d="m32.352 69.986 4.4298-4.0709q1.7671-1.624 0.14319-3.3911l-5.2389-5.7009q-1.624-1.7671-3.3911-0.14319l-4.4298 4.0709q-1.7671 1.624-0.14319 3.3911l5.2389 5.7009q1.624 1.7671 3.3911 0.14319z" clip-path="url(#a)" fill="#fff" stroke="#fff"/>
<g clip-path="url(#a)">
<g transform="translate(29.602 66.994) rotate(-42.582) scale(.08 -.08)">
<use xlink:href="#s"/>
</g>
</g>
<path d="m67.189 58.096 5.4643 2.5173q2.1798 1.0042 3.184-1.1756l3.2396-7.0321q1.0042-2.1798-1.1756-3.184l-5.4643-2.5173q-2.1798-1.0042-3.184 1.1756l-3.2396 7.0321q-1.0042 2.1798 1.1756 3.184z" clip-path="url(#a)" fill="#fff" stroke="#fff"/>
<g clip-path="url(#a)">
<g transform="translate(68.89 54.405) rotate(24.735) scale(.08 -.08)">
<use xlink:href="#s"/>
</g>
</g>
<path d="m2.9409 75.372v33.808q0 2.4 2.4 2.4h7.7425q2.4 0 2.4-2.4v-33.808q0-2.4-2.4-2.4h-7.7425q-2.4 0-2.4 2.4z" clip-path="url(#a)" fill="#fff" stroke="#fff"/>
<g clip-path="url(#a)">
<g transform="translate(7.0046 75.372) rotate(90) scale(.08 -.08)">
<defs>
<path id="e" d="m-0.29688 72.906h61.672v-8.3125h-25.875v-64.594h-9.9062v64.594h-25.891z"/>
<path id="r" d="m56.203 29.594v-4.3906h-41.312q0.59375-9.2812 5.5938-14.141t13.938-4.8594q5.1719 0 10.031 1.2656t9.6562 3.8125v-8.5q-4.8438-2.0469-9.9219-3.125t-10.297-1.0781q-13.094 0-20.734 7.6094-7.6406 7.625-7.6406 20.625 0 13.422 7.25 21.297 7.25 7.8906 19.562 7.8906 11.031 0 17.453-7.1094 6.4219-7.0938 6.4219-19.297zm-8.9844 2.6406q-0.09375 7.3594-4.125 11.75-4.0312 4.4062-10.672 4.4062-7.5156 0-12.031-4.25t-5.2031-11.969z"/>
<path id="m" d="m41.109 46.297q-1.5156 0.875-3.2969 1.2812-1.7812 0.42188-3.9219 0.42188-7.625 0-11.703-4.9531t-4.0781-14.234v-28.812h-9.0312v54.688h9.0312v-8.5q2.8438 4.9844 7.375 7.3906 4.5469 2.4219 11.047 2.4219 0.92188 0 2.0469-0.125 1.125-0.10938 2.4844-0.35938z"/>
<path id="o" d="m52 44.188q3.375 6.0625 8.0625 8.9375t11.031 2.875q8.5469 0 13.188-5.9844 4.6406-5.9688 4.6406-17v-33.016h-9.0312v32.719q0 7.8594-2.7969 11.656-2.7812 3.8125-8.4844 3.8125-6.9844 0-11.047-4.6406-4.0469-4.625-4.0469-12.641v-30.906h-9.0312v32.719q0 7.9062-2.7812 11.688t-8.5938 3.7812q-6.8906 0-10.953-4.6562-4.0469-4.6562-4.0469-12.625v-30.906h-9.0312v54.688h9.0312v-8.5q3.0781 5.0312 7.375 7.4219t10.203 2.3906q5.9688 0 10.141-3.0312 4.1719-3.0156 6.1719-8.7812z"/>
<path id="q" d="m9.4219 54.688h8.9844v-54.688h-8.9844zm0 21.297h8.9844v-11.391h-8.9844z"/>
<path id="n" d="m54.891 33.016v-33.016h-8.9844v32.719q0 7.7656-3.0312 11.609-3.0312 3.8594-9.0781 3.8594-7.2812 0-11.484-4.6406-4.2031-4.625-4.2031-12.641v-30.906h-9.0312v54.688h9.0312v-8.5q3.2344 4.9375 7.5938 7.375 4.375 2.4375 10.094 2.4375 9.4219 0 14.25-5.8281 4.8438-5.8281 4.8438-17.156z"/>
<path id="h" d="m34.281 27.484q-10.891 0-15.094-2.4844t-4.2031-8.5q0-4.7812 3.1562-7.5938 3.1562-2.7969 8.5625-2.7969 7.4844 0 12 5.2969t4.5156 14.078v2zm17.922 3.7188v-31.203h-8.9844v8.2969q-3.0781-4.9688-7.6719-7.3438t-11.234-2.375q-8.3906 0-13.359 4.7188-4.9531 4.7188-4.9531 12.625 0 9.2188 6.1719 13.906 6.1875 4.6875 18.438 4.6875h12.609v0.89062q0 6.2031-4.0781 9.5938t-11.453 3.3906q-4.6875 0-9.1406-1.125-4.4375-1.125-8.5312-3.375v8.3125q4.9219 1.9062 9.5625 2.8438 4.6406 0.95312 9.0312 0.95312 11.875 0 17.734-6.1562 5.8594-6.1406 5.8594-18.641z"/>
<path id="p" d="m9.4219 75.984h8.9844v-75.984h-8.9844z"/>
</defs>
<use xlink:href="#e"/>
<use x="44.083984" xlink:href="#r"/>
<use x="105.607422" xlink:href="#m"/>
<use x="144.970703" xlink:href="#o"/>
<use x="242.382812" xlink:href="#q"/>
<use x="270.166016" xlink:href="#n"/>
<use x="333.544922" xlink:href="#h"/>
<use x="394.824219" xlink:href="#p"/>
</g>
</g>
<path d="m139.68 78.695 5.3724 1.0417q2.3561 0.45683 2.8129-1.8993l1.4737-7.6009q0.45683-2.3561-1.8993-2.8129l-5.3724-1.0417q-2.3561-0.45683-2.8129 1.8993l-1.4737 7.6009q-0.45683 2.3561 1.8993 2.8129z" clip-path="url(#a)" fill="#fff" stroke="#fff"/>
<g clip-path="url(#a)">
<g transform="translate(140.45 74.705) rotate(10.973) scale(.08 -.08)">
<use xlink:href="#l"/>
</g>
</g>
<path d="m139.87 78.732 4.9859 0.96671q2.3561 0.45683 2.8129-1.8993l1.4737-7.6009q0.45683-2.3561-1.8993-2.8129l-4.9859-0.96671q-2.3561-0.45683-2.8129 1.8993l-1.4737 7.6009q-0.45683 2.3561 1.8993 2.8129z" clip-path="url(#a)" fill="#fff" stroke="#fff"/>
<g clip-path="url(#a)">
<g transform="translate(140.64 74.743) rotate(10.973) scale(.08 -.08)">
<defs>
<path id="x" d="m53.516 70.516v-9.625q-5.6094 2.6875-10.594 4-4.9844 1.3281-9.625 1.3281-8.0469 0-12.422-3.125t-4.375-8.8906q0-4.8438 2.9062-7.3125 2.9062-2.4531 11.016-3.9688l5.9531-1.2188q11.031-2.1094 16.281-7.4062t5.25-14.172q0-10.609-7.1094-16.078-7.0938-5.4688-20.812-5.4688-5.1719 0-11.016 1.1719-5.8281 1.1719-12.078 3.4688v10.156q6-3.3594 11.766-5.0781 5.7656-1.7031 11.328-1.7031 8.4375 0 13.031 3.3125 4.5938 3.3281 4.5938 9.4844 0 5.3594-3.2969 8.3906t-10.812 4.5469l-6.0156 1.1719q-11.031 2.1875-15.969 6.875-4.9219 4.6875-4.9219 13.047 0 9.6719 6.8125 15.234t18.766 5.5625q5.1406 0 10.453-0.9375 5.3281-0.92188 10.891-2.7656z"/>
</defs>
<use xlink:href="#x"/>
</g>
</g>
<path d="m68.103 80.02 5.7433-2.2271q2.2376-0.86771 1.3699-3.1054l-2.7993-7.2187q-0.86771-2.2376-3.1054-1.3699l-5.7433 2.2271q-2.2376 0.86771-1.3699 3.1054l2.7993 7.2187q0.86771 2.2376 3.1054 1.3699z" clip-path="url(#a)" fill="#fff" stroke="#fff"/>
<g clip-path="url(#a)">
<g transform="translate(66.634 76.231) rotate(-21.195) scale(.08 -.08)">
<defs>
<path id="y" d="m19.672 64.797v-56.688h11.922q15.094 0 22.094 6.8281 7 6.8438 7 21.594 0 14.641-7 21.453t-22.094 6.8125zm-9.8594 8.1094h20.266q21.188 0 31.094-8.8125 9.9219-8.8125 9.9219-27.562 0-18.859-9.9688-27.703-9.9531-8.8281-31.047-8.8281h-20.266z"/>
</defs>
<use xlink:href="#y"/>
</g>
</g>
<path d="m97.356 76.963 1.0648-5.3679q0.46698-2.3541-1.8871-2.8211l-7.5945-1.5065q-2.3541-0.46698-2.8211 1.8871l-1.0648 5.3679q-0.46698 2.3541 1.8871 2.8211l7.5945 1.5065q2.3541 0.46698 2.8211-1.8871z" clip-path="url(#a)" fill="#fff" stroke="#fff"/>
<g clip-path="url(#a)">
<g transform="translate(93.37 76.172) rotate(-78.78) scale(.08 -.08)">
<use xlink:href="#l"/>
</g>
</g>
<path d="m115.65 77.968 5.5088 1.9836q2.2581 0.81309 3.0712-1.445l2.6231-7.2846q0.81309-2.2581-1.445-3.0712l-5.5088-1.9836q-2.2581-0.81309-3.0712 1.445l-2.6231 7.2846q-0.81309 2.2581 1.445 3.0712z" clip-path="url(#a)" fill="#fff" stroke="#fff"/>
<g clip-path="url(#a)">
<g transform="translate(117.02 74.144) rotate(19.803) scale(.08 -.08)">
<defs>
<path id="w" d="m8.6875 72.906h9.9219v-44.297q0-11.719 4.2344-16.875 4.25-5.1406 13.781-5.1406 9.4688 0 13.719 5.1406 4.25 5.1562 4.25 16.875v44.297h9.9062v-45.516q0-14.25-7.0625-21.531-7.0469-7.2812-20.812-7.2812-13.828 0-20.891 7.2812-7.0469 7.2812-7.0469 21.531z"/>
</defs>
<use xlink:href="#w"/>
</g>
</g>
<path d="m37.486 75.372v33.808q0 2.4 2.4 2.4h7.7425q2.4 0 2.4-2.4v-33.808q0-2.4-2.4-2.4h-7.7425q-2.4 0-2.4 2.4z" clip-path="url(#a)" fill="#fff" stroke="#fff"/>
<g clip-path="url(#a)">
<g transform="translate(41.55 75.372) rotate(90) scale(.08 -.08)">
<use xlink:href="#e"/>
<use x="44.083984" xlink:href="#r"/>
<use x="105.607422" xlink:href="#m"/>
<use x="144.970703" xlink:href="#o"/>
<use x="242.382812" xlink:href="#q"/>
<use x="270.166016" xlink:href="#n"/>
<use x="333.544922" xlink:href="#h"/>
<use x="394.824219" xlink:href="#p"/>
</g>
</g>
<path d="m83.547 75.372v33.808q0 2.4 2.4 2.4h7.7425q2.4 0 2.4-2.4v-33.808q0-2.4-2.4-2.4h-7.7425q-2.4 0-2.4 2.4z" clip-path="url(#a)" fill="#fff" stroke="#fff"/>
<g clip-path="url(#a)">
<g transform="translate(87.611 75.372) rotate(90) scale(.08 -.08)">
<use xlink:href="#e"/>
<use x="44.083984" xlink:href="#r"/>
<use x="105.607422" xlink:href="#m"/>
<use x="144.970703" xlink:href="#o"/>
<use x="242.382812" xlink:href="#q"/>
<use x="270.166016" xlink:href="#n"/>
<use x="333.544922" xlink:href="#h"/>
<use x="394.824219" xlink:href="#p"/>
</g>
</g>
<path d="m141.12 75.372v33.808q0 2.4 2.4 2.4h7.7425q2.4 0 2.4-2.4v-33.808q0-2.4-2.4-2.4h-7.7425q-2.4 0-2.4 2.4z" clip-path="url(#a)" fill="#fff" stroke="#fff"/>
<g clip-path="url(#a)">
<g transform="translate(145.19 75.372) rotate(90) scale(.08 -.08)">
<use xlink:href="#e"/>
<use x="44.083984" xlink:href="#r"/>
<use x="105.607422" xlink:href="#m"/>
<use x="144.970703" xlink:href="#o"/>
<use x="242.382812" xlink:href="#q"/>
<use x="270.166016" xlink:href="#n"/>
<use x="333.544922" xlink:href="#h"/>
<use x="394.824219" xlink:href="#p"/>
</g>
</g>
<defs>
<path id="b" d="m0 8.6603c2.2967 0 4.4997-0.9125 6.1237-2.5365 1.624-1.624 2.5365-3.827 2.5365-6.1237s-0.9125-4.4997-2.5365-6.1237c-1.624-1.624-3.827-2.5365-6.1237-2.5365s-4.4997 0.9125-6.1237 2.5365c-1.624 1.624-2.5365 3.827-2.5365 6.1237s0.9125 4.4997 2.5365 6.1237c1.624 1.624 3.827 2.5365 6.1237 2.5365z"/>
</defs>
<g clip-path="url(#a)" fill="#ffffff" stroke="#ffffff">
<use x="9.212121" y="101.818182" xlink:href="#b"/>
<use x="43.757576" y="101.818182" xlink:href="#b"/>
<use x="89.818182" y="101.818182" xlink:href="#b"/>
<use x="147.393939" y="101.818182" xlink:href="#b"/>
<use x="193.454545" y="43.932813" xlink:href="#b"/>
<use x="193.454545" y="43.932813" xlink:href="#b"/>
<use x="193.454545" y="82.733877" xlink:href="#b"/>
<use x="193.454545" y="82.733877" xlink:href="#b"/>
<use x="51.434343" y="4.848485" xlink:href="#b"/>
<use x="51.434343" y="24.415337" xlink:href="#b"/>
<use x="51.434343" y="43.932813" xlink:href="#b"/>
<use x="9.212121" y="82.733877" xlink:href="#b"/>
<use x="93.656566" y="63.384089" xlink:href="#b"/>
<use x="43.757576" y="82.733877" xlink:href="#b"/>
<use x="89.818182" y="82.733877" xlink:href="#b"/>
<use x="147.393939" y="82.733877" xlink:href="#b"/>
</g>
<g clip-path="url(#a)">
<g transform="translate(-6.8598 104.58) scale(.1 -.1)">
<defs>
<path id="an" d="m28.562 74.219q12.016 0 19.625-5.1094 7.625-5.0938 7.625-13.781 0-6.0625-3.4688-10.234t-9.8594-5.7812q7.0781-1.5156 11.047-6.3125 3.9844-4.7812 3.9844-11.812 0-11.219-8.6719-16.922-8.6562-5.6875-20.281-5.6875-5.9531 0-12.891 1.6094-6.9375 1.625-9.0781 2.9844v10.156q7.4688-4.3438 11.594-5.3906t10.188-1.0469q9.1719 0 14.25 3.5156t5.0781 10.781q0 6.4531-4.5156 10.078-4.5156 3.6406-14.031 3.6406h-9.9688v8.1094h10.359q8.7344 0 12.594 2.9062t3.8594 8.375q0 5.6094-3.9844 8.6094-3.9844 3.0156-13.641 3.0156-6.5469 0-8.7969-0.59375-2.25-0.57812-12.25-4.3438v9.625q5.5156 1.9531 11.266 2.7812 5.7656 0.82812 9.9688 0.82812z"/>
<path id="am" d="m34.281 27.484q-10.891 0-15.094-2.4844t-4.2031-8.5q0-4.7812 3.1562-7.5938 3.1562-2.7969 8.5625-2.7969 7.4844 0 12 5.2969t4.5156 14.078v2zm17.922 3.7188v-31.203h-8.9844v8.2969q-3.0781-4.9688-7.6719-7.3438t-11.234-2.375q-8.3906 0-13.359 4.7188-4.9531 4.7188-4.9531 12.625 0 9.2188 6.1719 13.906 6.1875 4.6875 18.438 4.6875h12.609v0.89062q0 6.2031-4.0781 9.5938t-11.453 3.3906q-4.6875 0-9.1406-1.125-4.4375-1.125-8.5312-3.375v8.3125q4.9219 1.9062 9.5625 2.8438 4.6406 0.95312 9.0312 0.95312 11.875 0 17.734-6.1562 5.8594-6.1406 5.8594-18.641z"/>
<path id="af" d="m41.016 0v23h-16.75q-7.4688 0-12.453 4.6406-4.4844 4.2031-4.4844 13.188v13.859h8.9844v-13.031q0-5.7188 2.5312-8.5938 2.5938-2.8906 7.6719-2.8906h14.5v24.516h8.9844v-54.688z"/>
<path id="al" d="m56.203 29.594v-4.3906h-41.312q0.59375-9.2812 5.5938-14.141t13.938-4.8594q5.1719 0 10.031 1.2656t9.6562 3.8125v-8.5q-4.8438-2.0469-9.9219-3.125t-10.297-1.0781q-13.094 0-20.734 7.6094-7.6406 7.625-7.6406 20.625 0 13.422 7.25 21.297 7.25 7.8906 19.562 7.8906 11.031 0 17.453-7.1094 6.4219-7.0938 6.4219-19.297zm-8.9844 2.6406q-0.09375 7.3594-4.125 11.75-4.0312 4.4062-10.672 4.4062-7.5156 0-12.031-4.25t-5.2031-11.969z"/>
<path id="ai" d="m9.0781 54.688h13.141l15.531-36.625 15.578 36.625h13.031v-54.688h-9.0312v46.094l-15.094-35.594h-8.9844l-15.141 35.594v-46.094h-9.0312z"/>
</defs>
<use xlink:href="#an"/>
<use x="64.111328" xlink:href="#am"/>
<use x="125.390625" xlink:href="#af"/>
<use x="184.472656" xlink:href="#al"/>
<use x="245.996094" xlink:href="#ai"/>
</g>
</g>
<g clip-path="url(#a)">
<g transform="translate(25.808 104.58) scale(.1 -.1)">
<defs>
<path id="v" d="m9.0781 54.688h9.0312v-22.312h29.156v22.312h9.0312v-54.688h-9.0312v25.203h-29.156v-25.203h-9.0312z"/>
<path id="ag" d="m32.172-5.0781q-3.7969-9.7656-7.4219-12.734-3.6094-2.9844-9.6562-2.9844h-7.1875v7.5156h5.2812q3.7031 0 5.75 1.7656 2.0625 1.75 4.5469 8.2969l1.6094 4.0938-22.109 53.812h9.5156l17.094-42.766 17.094 42.766h9.5156z"/>
<path id="ak" d="m40.578 54.688h8.9375v-25.688l23.875 25.688h10.453l-19.641-21.047 22.469-33.641h-9.625l-18.406 27.641-9.125-9.8125v-17.828h-8.9375v17.828l-9.125 9.8125-18.422-27.641h-9.6094l22.453 33.641-19.625 21.047h10.453l23.875-25.688z"/>
<path id="u" d="m61.047 54.688h8.9844v-54.688h-8.9844zm4.5 1.3125m-22.094-39.781q0 4.3906-3.2031 6.6875-3.1875 2.2969-9.3438 2.2969h-12.797v-18.031h12.797q6.1562 0 9.3438 2.3125 3.2031 2.3281 3.2031 6.7344zm-34.375 38.469h9.0312v-22.312h13.188q10.453 0 16.094-3.9844 5.6406-3.9688 5.6406-12.172t-5.6406-12.219q-5.6406-4-16.094-4h-22.219z"/>
</defs>
<use xlink:href="#v"/>
<use x="65.380859" xlink:href="#ag"/>
<use x="124.560547" xlink:href="#ak"/>
<use x="214.648438" xlink:href="#v"/>
<use x="280.029297" xlink:href="#u"/>
</g>
</g>
<g clip-path="url(#a)">
<g transform="translate(74.778 104.58) scale(.1 -.1)">
<defs>
<path id="ae" d="m50.25 7.1719h23.141v47.516h9.0312v-54.688h-73.344v54.688h9.0312v-47.516h23.109v47.516h9.0312z"/>
<path id="aj" d="m55.906 54.688v-54.688h-8.9375v43.891l-26.359-43.891h-11.531v54.688h8.9375v-43.797l26.328 43.797z"/>
<path id="ah" d="m56.297 54.688v-54.688h-9.0312v47.516h-29.156v-47.516h-9.0312v54.688z"/>
</defs>
<use xlink:href="#ae"/>
<use x="91.503906" xlink:href="#aj"/>
<use x="156.494141" xlink:href="#ah"/>
<use x="221.875" xlink:href="#u"/>
</g>
</g>
<g clip-path="url(#a)">
<g transform="translate(144.74 104.58) scale(.1 -.1)">
<defs>
<path id="z" d="m19.094 12.406h9.9062v-12.406h-9.9062zm9.625 7.1719h-9.3281v7.5156q0 4.9375 1.3594 8.1094 1.375 3.1719 5.7656 7.375l4.3906 4.3438q2.7812 2.5938 4.0312 4.8906t1.25 4.6875q0 4.3438-3.2031 7.0312t-8.4688 2.6875q-3.8594 0-8.2344-1.7188-4.3594-1.7031-9.1094-4.9844v9.1875q4.5938 2.7812 9.2969 4.1406 4.7188 1.375 9.75 1.375 8.9844 0 14.422-4.7344 5.4531-4.7344 5.4531-12.5 0-3.7188-1.7656-7.0625-1.75-3.3438-6.1406-7.5312l-4.2969-4.2031q-2.2969-2.2969-3.25-3.5938t-1.3438-2.5156q-0.29688-1.0156-0.4375-2.4844t-0.14062-4z"/>
</defs>
<use xlink:href="#z"/>
</g>
</g>
<g clip-path="url(#a)">
<g transform="translate(172.37 46.692) scale(.1 -.1)">
<defs>
<path id="d" d="m9.8125 72.906h9.8594v-72.906h-9.8594z"/>
<path id="i" d="m9.8125 72.906h14.703l18.594-49.609 18.703 49.609h14.703v-72.906h-9.625v64.016l-18.797-50h-9.9062l-18.797 50v-64.016h-9.5781z"/>
<path id="j" d="m9.8125 72.906h9.8594v-64.609h35.5v-8.2969h-45.359z"/>
<path id="k" d="m64.406 67.281v-10.391q-4.9844 4.6406-10.625 6.9219-5.6406 2.2969-11.984 2.2969-12.5 0-19.141-7.6406t-6.6406-22.094q0-14.406 6.6406-22.047t19.141-7.6406q6.3438 0 11.984 2.2969t10.625 6.9375v-10.312q-5.1719-3.5156-10.969-5.2812-5.7812-1.75-12.219-1.75-16.562 0-26.094 10.125-9.5156 10.141-9.5156 27.672 0 17.578 9.5156 27.703 9.5312 10.141 26.094 10.141 6.5312 0 12.312-1.7344 5.7969-1.7344 10.875-5.2031z"/>
</defs>
<use xlink:href="#d"/>
<use x="29.492188" xlink:href="#i"/>
<use x="115.771484" xlink:href="#g"/>
<use x="176.074219" xlink:href="#j"/>
<use x="231.787109" xlink:href="#d"/>
<use x="261.279297" xlink:href="#k"/>
<use x="331.103516" xlink:href="#d"/>
<use x="360.595703" xlink:href="#e"/>
</g>
</g>
<g clip-path="url(#a)">
<g transform="translate(172.37 46.692) scale(.1 -.1)">
<use xlink:href="#d"/>
<use x="29.492188" xlink:href="#i"/>
<use x="115.771484" xlink:href="#g"/>
<use x="176.074219" xlink:href="#j"/>
<use x="231.787109" xlink:href="#d"/>
<use x="261.279297" xlink:href="#k"/>
<use x="331.103516" xlink:href="#d"/>
<use x="360.595703" xlink:href="#e"/>
</g>
</g>
<g clip-path="url(#a)">
<g transform="translate(172.37 85.493) scale(.1 -.1)">
<use xlink:href="#d"/>
<use x="29.492188" xlink:href="#i"/>
<use x="115.771484" xlink:href="#g"/>
<use x="176.074219" xlink:href="#j"/>
<use x="231.787109" xlink:href="#d"/>
<use x="261.279297" xlink:href="#k"/>
<use x="331.103516" xlink:href="#d"/>
<use x="360.595703" xlink:href="#e"/>
</g>
</g>
<g clip-path="url(#a)">
<g transform="translate(172.37 85.493) scale(.1 -.1)">
<use xlink:href="#d"/>
<use x="29.492188" xlink:href="#i"/>
<use x="115.771484" xlink:href="#g"/>
<use x="176.074219" xlink:href="#j"/>
<use x="231.787109" xlink:href="#d"/>
<use x="261.279297" xlink:href="#k"/>
<use x="331.103516" xlink:href="#d"/>
<use x="360.595703" xlink:href="#e"/>
</g>
</g>
<g clip-path="url(#a)">
<g transform="translate(43.483 7.6079) scale(.1 -.1)">
<defs>
<path id="c" d="m12.406 8.2969h16.109v55.625l-17.531-3.5156v8.9844l17.438 3.5156h9.8594v-64.609h16.109v-8.2969h-41.984z"/>
<path id="f" d="m10.688 12.406h10.312v-12.406h-10.312z"/>
</defs>
<use xlink:href="#c"/>
<use x="63.623047" xlink:href="#f"/>
<use x="95.410156" xlink:href="#c"/>
</g>
</g>
<g clip-path="url(#a)">
<g transform="translate(43.483 27.175) scale(.1 -.1)">
<defs>
<path id="t" d="m19.188 8.2969h34.422v-8.2969h-46.281v8.2969q5.6094 5.8125 15.297 15.594 9.7031 9.7969 12.188 12.641 4.7344 5.3125 6.6094 9 1.8906 3.6875 1.8906 7.25 0 5.8125-4.0781 9.4688-4.0781 3.6719-10.625 3.6719-4.6406 0-9.7969-1.6094-5.1406-1.6094-11-4.8906v9.9688q5.9531 2.3906 11.125 3.6094 5.1875 1.2188 9.4844 1.2188 11.328 0 18.062-5.6719 6.7344-5.6562 6.7344-15.125 0-4.5-1.6875-8.5312-1.6719-4.0156-6.125-9.4844-1.2188-1.4219-7.7656-8.1875-6.5312-6.7656-18.453-18.922z"/>
</defs>
<use xlink:href="#c"/>
<use x="63.623047" xlink:href="#f"/>
<use x="95.410156" xlink:href="#t"/>
</g>
</g>
<g clip-path="url(#a)">
<g transform="translate(43.483 46.692) scale(.1 -.1)">
<defs>
<path id="ac" d="m33.016 40.375q-6.6406 0-10.531-4.5469-3.875-4.5312-3.875-12.438 0-7.8594 3.875-12.438 3.8906-4.5625 10.531-4.5625t10.516 4.5625q3.875 4.5781 3.875 12.438 0 7.9062-3.875 12.438-3.875 4.5469-10.516 4.5469zm19.578 30.922v-8.9844q-3.7188 1.75-7.5 2.6719-3.7812 0.9375-7.5 0.9375-9.7656 0-14.922-6.5938-5.1406-6.5938-5.875-19.922 2.875 4.25 7.2188 6.5156 4.3594 2.2656 9.5781 2.2656 10.984 0 17.359-6.6719 6.375-6.6562 6.375-18.125 0-11.234-6.6406-18.031-6.6406-6.7812-17.672-6.7812-12.656 0-19.344 9.6875-6.6875 9.7031-6.6875 28.109 0 17.281 8.2031 27.562t22.016 10.281q3.7188 0 7.5-0.73438t7.8906-2.1875z"/>
</defs>
<use xlink:href="#c"/>
<use x="63.623047" xlink:href="#f"/>
<use x="95.410156" xlink:href="#ac"/>
</g>
</g>
<g clip-path="url(#a)">
<g transform="translate(1.2606 85.493) scale(.1 -.1)">
<defs>
<path id="ab" d="m8.2031 72.906h46.875v-4.2031l-26.469-68.703h-10.297l24.906 64.594h-35.016z"/>
</defs>
<use xlink:href="#c"/>
<use x="63.623047" xlink:href="#f"/>
<use x="95.410156" xlink:href="#ab"/>
</g>
</g>
<g clip-path="url(#a)">
<g transform="translate(85.705 66.143) scale(.1 -.1)">
<defs>
<path id="aa" d="m31.781 34.625q-7.0312 0-11.062-3.7656-4.0156-3.7656-4.0156-10.344 0-6.5938 4.0156-10.359 4.0312-3.7656 11.062-3.7656t11.078 3.7812q4.0625 3.7969 4.0625 10.344 0 6.5781-4.0312 10.344-4.0156 3.7656-11.109 3.7656zm-9.8594 4.1875q-6.3438 1.5625-9.8906 5.9062-3.5312 4.3594-3.5312 10.609 0 8.7344 6.2188 13.812 6.2344 5.0781 17.062 5.0781 10.891 0 17.094-5.0781t6.2031-13.812q0-6.25-3.5469-10.609-3.5312-4.3438-9.8281-5.9062 7.125-1.6562 11.094-6.5 3.9844-4.8281 3.9844-11.797 0-10.609-6.4688-16.281-6.4688-5.6562-18.531-5.6562-12.047 0-18.531 5.6562-6.4688 5.6719-6.4688 16.281 0 6.9688 4 11.797 4.0156 4.8438 11.141 6.5zm-3.6094 15.578q0-5.6562 3.5312-8.8281 3.5469-3.1719 9.9375-3.1719 6.3594 0 9.9375 3.1719 3.5938 3.1719 3.5938 8.8281 0 5.6719-3.5938 8.8438-3.5781 3.1719-9.9375 3.1719-6.3906 0-9.9375-3.1719-3.5312-3.1719-3.5312-8.8438z"/>
</defs>
<use xlink:href="#c"/>
<use x="63.623047" xlink:href="#f"/>
<use x="95.410156" xlink:href="#aa"/>
</g>
</g>
<g clip-path="url(#a)">
<g transform="translate(32.625 85.493) scale(.1 -.1)">
<use xlink:href="#c"/>
<use x="63.623047" xlink:href="#f"/>
<use x="95.410156" xlink:href="#c"/>
<use x="159.033203" xlink:href="#c"/>
</g>
</g>
<g clip-path="url(#a)">
<g transform="translate(78.685 85.493) scale(.1 -.1)">
<use xlink:href="#c"/>
<use x="63.623047" xlink:href="#f"/>
<use x="95.410156" xlink:href="#c"/>
<use x="159.033203" xlink:href="#t"/>
</g>
</g>
<g clip-path="url(#a)">
<g transform="translate(136.26 85.493) scale(.1 -.1)">
<defs>
<path id="ad" d="m40.578 39.312q7.0781-1.5156 11.047-6.3125 3.9844-4.7812 3.9844-11.812 0-10.781-7.4219-16.703-7.4219-5.9062-21.094-5.9062-4.5781 0-9.4375 0.90625t-10.031 2.7188v9.5156q4.0938-2.3906 8.9688-3.6094 4.8906-1.2188 10.219-1.2188 9.2656 0 14.125 3.6562t4.8594 10.641q0 6.4531-4.5156 10.078-4.5156 3.6406-12.562 3.6406h-8.5v8.1094h8.8906q7.2656 0 11.125 2.9062t3.8594 8.375q0 5.6094-3.9844 8.6094-3.9688 3.0156-11.391 3.0156-4.0625 0-8.7031-0.89062-4.6406-0.875-10.203-2.7188v8.7812q5.625 1.5625 10.531 2.3438t9.25 0.78125q11.234 0 17.766-5.1094 6.5469-5.0938 6.5469-13.781 0-6.0625-3.4688-10.234t-9.8594-5.7812z"/>
</defs>
<use xlink:href="#c"/>
<use x="63.623047" xlink:href="#f"/>
<use x="95.410156" xlink:href="#c"/>
<use x="159.033203" xlink:href="#ad"/>
</g>
</g>
<defs>
<clipPath id="a">
<rect width="202.67" height="106.67"/>
</clipPath>
</defs>
</svg>
