<?xml version="1.0" encoding="UTF-8"?>
<!DOCTYPE svg  PUBLIC '-//W3C//DTD SVG 1.1//EN'  'http://www.w3.org/Graphics/SVG/1.1/DTD/svg11.dtd'>
<svg width="506.67pt" height="266.67pt" version="1.1" viewBox="0 0 506.67 266.67" xmlns="http://www.w3.org/2000/svg" xmlns:xlink="http://www.w3.org/1999/xlink">
<metadata>
<rdf:RDF xmlns:cc="http://creativecommons.org/ns#" xmlns:dc="http://purl.org/dc/elements/1.1/" xmlns:rdf="http://www.w3.org/1999/02/22-rdf-syntax-ns#">
<cc:Work>
<dc:type rdf:resource="http://purl.org/dc/dcmitype/StillImage"/>
<dc:date>2021-02-01T11:22:39.496913</dc:date>
<dc:format>image/svg+xml</dc:format>
<dc:creator>
<cc:Agent>
<dc:title>Matplotlib v3.3.3, https://matplotlib.org/</dc:title>
</cc:Agent>
</dc:creator>
</cc:Work>
</rdf:RDF>
</metadata>
<defs>
<style type="text/css">*{stroke-linecap:butt;stroke-linejoin:round;}</style>
</defs>
<path d="m0 266.67h506.67v-266.67h-506.67z" fill="#fff"/>
<g fill="none" stroke="#000">
<path d="m290.22 12.121v48.917" clip-path="url(#a)"/>
<path d="m290.22 61.038 193.42 48.794" clip-path="url(#a)"/>
<path d="m290.22 61.038-211.41 48.794" clip-path="url(#a)"/>
<path d="m290.22 61.038 35.085 145.8" clip-path="url(#a)"/>
<path d="m290.22 61.038 107.05 145.8" clip-path="url(#a)"/>
<path d="m290.22 61.038-87.263 145.8" clip-path="url(#a)"/>
<path d="m290.22 61.038-29.688 145.8" clip-path="url(#a)"/>
<path d="m290.22 61.038 186.22 145.8" clip-path="url(#a)"/>
<path d="m78.807 109.83-44.981 48.628" clip-path="url(#a)"/>
<path d="m78.807 109.83 30.587 97.003" clip-path="url(#a)"/>
<path d="m78.807 109.83 19.792 48.628" clip-path="url(#a)"/>
<path d="m78.807 109.83-5.3977 97.003" clip-path="url(#a)"/>
<path d="m325.3 206.83v47.711" clip-path="url(#a)"/>
<path d="m397.27 206.83v47.711" clip-path="url(#a)"/>
<path d="m33.826 158.46-10.795 48.374" clip-path="url(#a)"/>
<path d="m33.826 158.46 10.795 48.374" clip-path="url(#a)"/>
<path d="m109.39 206.83v47.711" clip-path="url(#a)"/>
<path d="m98.598 158.46 53.977 48.374" clip-path="url(#a)"/>
<path d="m98.598 158.46-53.977 48.374" clip-path="url(#a)" stroke-dasharray="3.7,1.6"/>
<path d="m73.409 206.83v47.711" clip-path="url(#a)"/>
<path d="m152.58 206.83v47.711" clip-path="url(#a)"/>
<path d="m23.03 206.83v47.711" clip-path="url(#a)"/>
<path d="m44.621 206.83v47.711" clip-path="url(#a)"/>
<path d="m202.95 206.83v47.711" clip-path="url(#a)"/>
<path d="m260.53 206.83v47.711" clip-path="url(#a)"/>
<path d="m476.44 206.83v47.711" clip-path="url(#a)"/>
</g>
<path d="m283.95 33.572v6.0162q0 2.4 2.4 2.4h7.7425q2.4 0 2.4-2.4v-6.0162q0-2.4-2.4-2.4h-7.7425q-2.4 0-2.4 2.4z" clip-path="url(#a)" fill="#fff" stroke="#fff"/>
<g clip-path="url(#a)">
<g transform="translate(288.01 33.572) rotate(90) scale(.08 -.08)">
<defs>
<path id="r" d="m9.8125 72.906h9.8594v-29.891h35.844v29.891h9.8594v-72.906h-9.8594v34.719h-35.844v-34.719h-9.8594z"/>
</defs>
<use xlink:href="#r"/>
</g>
</g>
<path d="m382.74 90.847 5.3063 1.3386q2.3271 0.58706 2.9142-1.74l1.8939-7.5073q0.58706-2.3271-1.74-2.9141l-5.3063-1.3386q-2.3271-0.58706-2.9141 1.74l-1.8939 7.5073q-0.58706 2.3271 1.74 2.9141z" clip-path="url(#a)" fill="#fff" stroke="#fff"/>
<g clip-path="url(#a)">
<g transform="translate(383.73 86.906) rotate(14.159) scale(.08 -.08)">
<defs>
<path id="m" d="m34.188 63.188-13.391-36.281h26.812zm-5.5781 9.7188h11.188l27.781-72.906h-10.25l-6.6406 18.703h-32.859l-6.6406-18.703h-10.406z"/>
</defs>
<use xlink:href="#m"/>
</g>
</g>
<path d="m183.26 92.161 5.3323-1.2307q2.3385-0.53973 1.7988-2.8783l-1.7412-7.5442q-0.53973-2.3385-2.8783-1.7988l-5.3323 1.2307q-2.3385 0.53973-1.7988 2.8783l1.7412 7.5442q0.53973 2.3385 2.8783 1.7988z" clip-path="url(#a)" fill="#fff" stroke="#fff"/>
<g clip-path="url(#a)">
<g transform="translate(182.34 88.201) rotate(-12.996) scale(.08 -.08)">
<use xlink:href="#m"/>
</g>
</g>
<path d="m301.1 133.06 1.1286 4.6899q0.56152 2.3334 2.8949 1.7719l7.5276-1.8115q2.3334-0.56152 1.7719-2.8949l-1.1286-4.6899q-0.56152-2.3334-2.8949-1.7719l-7.5276 1.8115q-2.3334 0.56152-1.7719 2.8949z" clip-path="url(#a)" fill="#fff" stroke="#fff"/>
<g clip-path="url(#a)">
<g transform="translate(305.05 132.11) rotate(76.469) scale(.08 -.08)">
<defs>
<path id="o" d="m19.672 64.797v-27.391h12.406q6.8906 0 10.641 3.5625 3.7656 3.5625 3.7656 10.156 0 6.5469-3.7656 10.109-3.75 3.5625-10.641 3.5625zm-9.8594 8.1094h22.266q12.266 0 18.531-5.5469 6.2812-5.5469 6.2812-16.234 0-10.797-6.2812-16.312-6.2656-5.5156-18.531-5.5156h-12.406v-29.297h-9.8594z"/>
</defs>
<use xlink:href="#o"/>
</g>
</g>
<path d="m337.07 135.44 3.2389 4.4111q1.4205 1.9345 3.355 0.51404l6.2408-4.5825q1.9345-1.4205 0.51404-3.355l-3.2389-4.4111q-1.4205-1.9345-3.355-0.51404l-6.2408 4.5825q-1.9345 1.4205-0.51404 3.355z" clip-path="url(#a)" fill="#fff" stroke="#fff"/>
<g clip-path="url(#a)">
<g transform="translate(340.35 133.04) rotate(53.711) scale(.08 -.08)">
<use xlink:href="#m"/>
</g>
</g>
<path d="m250.46 139.67 3.0069-5.0239q1.2326-2.0593-0.82676-3.2919l-6.6434-3.9763q-2.0593-1.2326-3.2919 0.82676l-3.0069 5.0239q-1.2326 2.0593 0.82676 3.2919l6.6434 3.9763q2.0593 1.2326 3.2919-0.82676z" clip-path="url(#a)" fill="#fff" stroke="#fff"/>
<g clip-path="url(#a)">
<g transform="translate(246.98 137.58) rotate(-59.098) scale(.08 -.08)">
<defs>
<path id="n" d="m8.6875 72.906h9.9219v-44.297q0-11.719 4.2344-16.875 4.25-5.1406 13.781-5.1406 9.4688 0 13.719 5.1406 4.25 5.1562 4.25 16.875v44.297h9.9062v-45.516q0-14.25-7.0625-21.531-7.0469-7.2812-20.812-7.2812-13.828 0-20.891 7.2812-7.0469 7.2812-7.0469 21.531z"/>
</defs>
<use xlink:href="#n"/>
</g>
</g>
<path d="m280.94 138.06 1.1682-5.7373q0.47887-2.3517-1.8729-2.8306l-7.5868-1.5448q-2.3517-0.47887-2.8306 1.8729l-1.1682 5.7373q-0.47887 2.3517 1.8729 2.8306l7.5868 1.5448q2.3517 0.47887 2.8306-1.8729z" clip-path="url(#a)" fill="#fff" stroke="#fff"/>
<g clip-path="url(#a)">
<g transform="translate(276.95 137.25) rotate(-78.491) scale(.08 -.08)">
<use xlink:href="#n"/>
</g>
</g>
<path d="m377.16 137.07 4.6101 3.6094q1.8897 1.4795 3.3692-0.41022l4.7729-6.0963q1.4795-1.8897-0.41022-3.3692l-4.6101-3.6094q-1.8897-1.4795-3.3692 0.41022l-4.7729 6.0963q-1.4795 1.8897 0.41022 3.3692z" clip-path="url(#a)" fill="#fff" stroke="#fff"/>
<g clip-path="url(#a)">
<g transform="translate(379.66 133.87) rotate(38.058) scale(.08 -.08)">
<use xlink:href="#n"/>
</g>
</g>
<path d="m58.877 140.61 4.0853-4.4165q1.6297-1.7618-0.13214-3.3915l-5.6838-5.2575q-1.7618-1.6297-3.3915 0.13214l-4.0853 4.4165q-1.6297 1.7618 0.13214 3.3915l5.6838 5.2575q1.7618 1.6297 3.3915-0.13214z" clip-path="url(#a)" fill="#fff" stroke="#fff"/>
<g clip-path="url(#a)">
<g transform="translate(55.894 137.85) rotate(-47.231) scale(.08 -.08)">
<use xlink:href="#r"/>
</g>
</g>
<path d="m87.449 158.09 1.3405 4.2512q0.72174 2.2889 3.0106 1.5672l7.3841-2.3284q2.2889-0.72174 1.5672-3.0106l-1.3405-4.2512q-0.72174-2.2889-3.0106-1.5672l-7.3841 2.3284q-2.2889 0.72174-1.5672 3.0106z" clip-path="url(#a)" fill="#fff" stroke="#fff"/>
<g clip-path="url(#a)">
<g transform="translate(91.325 156.87) rotate(72.499) scale(.08 -.08)">
<defs>
<path id="u" d="m9.8125 72.906h9.8594v-64.609h35.5v-8.2969h-45.359z"/>
</defs>
<use xlink:href="#u"/>
</g>
</g>
<path d="m81.76 133.72 2.268 5.5724q0.90474 2.2229 3.1277 1.3182l7.1713-2.9187q2.2229-0.90474 1.3182-3.1277l-2.268-5.5724q-0.90474-2.2229-3.1277-1.3182l-7.1713 2.9187q-2.2229 0.90474-1.3182 3.1277z" clip-path="url(#a)" fill="#fff" stroke="#fff"/>
<g clip-path="url(#a)">
<g transform="translate(85.524 132.19) rotate(67.854) scale(.08 -.08)">
<use xlink:href="#r"/>
</g>
</g>
<path d="m82.207 161.6 0.3253-5.846q0.13334-2.3963-2.263-2.5296l-7.7305-0.43017q-2.3963-0.13334-2.5296 2.263l-0.3253 5.846q-0.13334 2.3963 2.263 2.5296l7.7305 0.43017q2.3963 0.13334 2.5296-2.263z" clip-path="url(#a)" fill="#fff" stroke="#fff"/>
<g clip-path="url(#a)">
<g transform="translate(78.149 161.38) rotate(-86.815) scale(.08 -.08)">
<use xlink:href="#n"/>
</g>
</g>
<path d="m319.03 213.79v33.808q0 2.4 2.4 2.4h7.7425q2.4 0 2.4-2.4v-33.808q0-2.4-2.4-2.4h-7.7425q-2.4 0-2.4 2.4z" clip-path="url(#a)" fill="#fff" stroke="#fff"/>
<g clip-path="url(#a)">
<g transform="translate(323.1 213.79) rotate(90) scale(.08 -.08)">
<defs>
<path id="e" d="m-0.29688 72.906h61.672v-8.3125h-25.875v-64.594h-9.9062v64.594h-25.891z"/>
<path id="l" d="m56.203 29.594v-4.3906h-41.312q0.59375-9.2812 5.5938-14.141t13.938-4.8594q5.1719 0 10.031 1.2656t9.6562 3.8125v-8.5q-4.8438-2.0469-9.9219-3.125t-10.297-1.0781q-13.094 0-20.734 7.6094-7.6406 7.625-7.6406 20.625 0 13.422 7.25 21.297 7.25 7.8906 19.562 7.8906 11.031 0 17.453-7.1094 6.4219-7.0938 6.4219-19.297zm-8.9844 2.6406q-0.09375 7.3594-4.125 11.75-4.0312 4.4062-10.672 4.4062-7.5156 0-12.031-4.25t-5.2031-11.969z"/>
<path id="g" d="m41.109 46.297q-1.5156 0.875-3.2969 1.2812-1.7812 0.42188-3.9219 0.42188-7.625 0-11.703-4.9531t-4.0781-14.234v-28.812h-9.0312v54.688h9.0312v-8.5q2.8438 4.9844 7.375 7.3906 4.5469 2.4219 11.047 2.4219 0.92188 0 2.0469-0.125 1.125-0.10938 2.4844-0.35938z"/>
<path id="i" d="m52 44.188q3.375 6.0625 8.0625 8.9375t11.031 2.875q8.5469 0 13.188-5.9844 4.6406-5.9688 4.6406-17v-33.016h-9.0312v32.719q0 7.8594-2.7969 11.656-2.7812 3.8125-8.4844 3.8125-6.9844 0-11.047-4.6406-4.0469-4.625-4.0469-12.641v-30.906h-9.0312v32.719q0 7.9062-2.7812 11.688t-8.5938 3.7812q-6.8906 0-10.953-4.6562-4.0469-4.6562-4.0469-12.625v-30.906h-9.0312v54.688h9.0312v-8.5q3.0781 5.0312 7.375 7.4219t10.203 2.3906q5.9688 0 10.141-3.0312 4.1719-3.0156 6.1719-8.7812z"/>
<path id="k" d="m9.4219 54.688h8.9844v-54.688h-8.9844zm0 21.297h8.9844v-11.391h-8.9844z"/>
<path id="h" d="m54.891 33.016v-33.016h-8.9844v32.719q0 7.7656-3.0312 11.609-3.0312 3.8594-9.0781 3.8594-7.2812 0-11.484-4.6406-4.2031-4.625-4.2031-12.641v-30.906h-9.0312v54.688h9.0312v-8.5q3.2344 4.9375 7.5938 7.375 4.375 2.4375 10.094 2.4375 9.4219 0 14.25-5.8281 4.8438-5.8281 4.8438-17.156z"/>
<path id="f" d="m34.281 27.484q-10.891 0-15.094-2.4844t-4.2031-8.5q0-4.7812 3.1562-7.5938 3.1562-2.7969 8.5625-2.7969 7.4844 0 12 5.2969t4.5156 14.078v2zm17.922 3.7188v-31.203h-8.9844v8.2969q-3.0781-4.9688-7.6719-7.3438t-11.234-2.375q-8.3906 0-13.359 4.7188-4.9531 4.7188-4.9531 12.625 0 9.2188 6.1719 13.906 6.1875 4.6875 18.438 4.6875h12.609v0.89062q0 6.2031-4.0781 9.5938t-11.453 3.3906q-4.6875 0-9.1406-1.125-4.4375-1.125-8.5312-3.375v8.3125q4.9219 1.9062 9.5625 2.8438 4.6406 0.95312 9.0312 0.95312 11.875 0 17.734-6.1562 5.8594-6.1406 5.8594-18.641z"/>
<path id="j" d="m9.4219 75.984h8.9844v-75.984h-8.9844z"/>
</defs>
<use xlink:href="#e"/>
<use x="44.083984" xlink:href="#l"/>
<use x="105.607422" xlink:href="#g"/>
<use x="144.970703" xlink:href="#i"/>
<use x="242.382812" xlink:href="#k"/>
<use x="270.166016" xlink:href="#h"/>
<use x="333.544922" xlink:href="#f"/>
<use x="394.824219" xlink:href="#j"/>
</g>
</g>
<path d="m391 213.79v33.808q0 2.4 2.4 2.4h7.7425q2.4 0 2.4-2.4v-33.808q0-2.4-2.4-2.4h-7.7425q-2.4 0-2.4 2.4z" clip-path="url(#a)" fill="#fff" stroke="#fff"/>
<g clip-path="url(#a)">
<g transform="translate(395.07 213.79) rotate(90) scale(.08 -.08)">
<use xlink:href="#e"/>
<use x="44.083984" xlink:href="#l"/>
<use x="105.607422" xlink:href="#g"/>
<use x="144.970703" xlink:href="#i"/>
<use x="242.382812" xlink:href="#k"/>
<use x="270.166016" xlink:href="#h"/>
<use x="333.544922" xlink:href="#f"/>
<use x="394.824219" xlink:href="#j"/>
</g>
</g>
<path d="m33.953 186.68 1.1919-5.3411q0.52274-2.3424-1.8196-2.8651l-7.5566-1.6864q-2.3424-0.52274-2.8651 1.8196l-1.1919 5.3411q-0.52274 2.3424 1.8196 2.8651l7.5566 1.6864q2.3424 0.52274 2.8651-1.8196z" clip-path="url(#a)" fill="#fff" stroke="#fff"/>
<g clip-path="url(#a)">
<g transform="translate(29.987 185.8) rotate(-77.42) scale(.08 -.08)">
<use xlink:href="#m"/>
</g>
</g>
<path d="m32.577 181.66 1.0506 4.7079q0.52274 2.3424 2.8651 1.8196l7.5566-1.6864q2.3424-0.52274 1.8196-2.8651l-1.0506-4.7079q-0.52274-2.3424-2.8651-1.8196l-7.5566 1.6864q-2.3424 0.52274-1.8196 2.8651z" clip-path="url(#a)" fill="#fff" stroke="#fff"/>
<g clip-path="url(#a)">
<g transform="translate(36.544 180.77) rotate(77.42) scale(.08 -.08)">
<use xlink:href="#o"/>
</g>
</g>
<path d="m103.12 213.79v33.808q0 2.4 2.4 2.4h7.7425q2.4 0 2.4-2.4v-33.808q0-2.4-2.4-2.4h-7.7425q-2.4 0-2.4 2.4z" clip-path="url(#a)" fill="#fff" stroke="#fff"/>
<g clip-path="url(#a)">
<g transform="translate(107.19 213.79) rotate(90) scale(.08 -.08)">
<use xlink:href="#e"/>
<use x="44.083984" xlink:href="#l"/>
<use x="105.607422" xlink:href="#g"/>
<use x="144.970703" xlink:href="#i"/>
<use x="242.382812" xlink:href="#k"/>
<use x="270.166016" xlink:href="#h"/>
<use x="333.544922" xlink:href="#f"/>
<use x="394.824219" xlink:href="#j"/>
</g>
</g>
<path d="m119.36 185.49 4.0754 3.6523q1.7873 1.6018 3.389-0.18552l5.1673-5.7658q1.6018-1.7873-0.18552-3.389l-4.0754-3.6523q-1.7873-1.6018-3.389 0.18552l-5.1673 5.7658q-1.6018 1.7873 0.18552 3.389z" clip-path="url(#a)" fill="#fff" stroke="#fff"/>
<g clip-path="url(#a)">
<g transform="translate(122.08 182.47) rotate(41.867) scale(.08 -.08)">
<use xlink:href="#m"/>
</g>
</g>
<path d="m73.999 188.93 3.5922-3.2194q1.7873-1.6018 0.18552-3.389l-5.1673-5.7658q-1.6018-1.7873-3.389-0.18552l-3.5922 3.2194q-1.7873 1.6018-0.18552 3.389l5.1673 5.7658q1.6018 1.7873 3.389 0.18552z" clip-path="url(#a)" fill="#fff" stroke="#fff"/>
<g clip-path="url(#a)">
<g transform="translate(71.287 185.9) rotate(-41.867) scale(.08 -.08)">
<use xlink:href="#o"/>
</g>
</g>
<path d="m67.138 213.79v33.808q0 2.4 2.4 2.4h7.7425q2.4 0 2.4-2.4v-33.808q0-2.4-2.4-2.4h-7.7425q-2.4 0-2.4 2.4z" clip-path="url(#a)" fill="#fff" stroke="#fff"/>
<g clip-path="url(#a)">
<g transform="translate(71.202 213.79) rotate(90) scale(.08 -.08)">
<use xlink:href="#e"/>
<use x="44.083984" xlink:href="#l"/>
<use x="105.607422" xlink:href="#g"/>
<use x="144.970703" xlink:href="#i"/>
<use x="242.382812" xlink:href="#k"/>
<use x="270.166016" xlink:href="#h"/>
<use x="333.544922" xlink:href="#f"/>
<use x="394.824219" xlink:href="#j"/>
</g>
</g>
<path d="m146.3 213.79v33.808q0 2.4 2.4 2.4h7.7425q2.4 0 2.4-2.4v-33.808q0-2.4-2.4-2.4h-7.7425q-2.4 0-2.4 2.4z" clip-path="url(#a)" fill="#fff" stroke="#fff"/>
<g clip-path="url(#a)">
<g transform="translate(150.37 213.79) rotate(90) scale(.08 -.08)">
<use xlink:href="#e"/>
<use x="44.083984" xlink:href="#l"/>
<use x="105.607422" xlink:href="#g"/>
<use x="144.970703" xlink:href="#i"/>
<use x="242.382812" xlink:href="#k"/>
<use x="270.166016" xlink:href="#h"/>
<use x="333.544922" xlink:href="#f"/>
<use x="394.824219" xlink:href="#j"/>
</g>
</g>
<path d="m16.759 213.79v33.808q0 2.4 2.4 2.4h7.7425q2.4 0 2.4-2.4v-33.808q0-2.4-2.4-2.4h-7.7425q-2.4 0-2.4 2.4z" clip-path="url(#a)" fill="#fff" stroke="#fff"/>
<g clip-path="url(#a)">
<g transform="translate(20.823 213.79) rotate(90) scale(.08 -.08)">
<use xlink:href="#e"/>
<use x="44.083984" xlink:href="#l"/>
<use x="105.607422" xlink:href="#g"/>
<use x="144.970703" xlink:href="#i"/>
<use x="242.382812" xlink:href="#k"/>
<use x="270.166016" xlink:href="#h"/>
<use x="333.544922" xlink:href="#f"/>
<use x="394.824219" xlink:href="#j"/>
</g>
</g>
<path d="m38.35 213.79v33.808q0 2.4 2.4 2.4h7.7425q2.4 0 2.4-2.4v-33.808q0-2.4-2.4-2.4h-7.7425q-2.4 0-2.4 2.4z" clip-path="url(#a)" fill="#fff" stroke="#fff"/>
<g clip-path="url(#a)">
<g transform="translate(42.414 213.79) rotate(90) scale(.08 -.08)">
<use xlink:href="#e"/>
<use x="44.083984" xlink:href="#l"/>
<use x="105.607422" xlink:href="#g"/>
<use x="144.970703" xlink:href="#i"/>
<use x="242.382812" xlink:href="#k"/>
<use x="270.166016" xlink:href="#h"/>
<use x="333.544922" xlink:href="#f"/>
<use x="394.824219" xlink:href="#j"/>
</g>
</g>
<path d="m196.68 213.79v33.808q0 2.4 2.4 2.4h7.7425q2.4 0 2.4-2.4v-33.808q0-2.4-2.4-2.4h-7.7425q-2.4 0-2.4 2.4z" clip-path="url(#a)" fill="#fff" stroke="#fff"/>
<g clip-path="url(#a)">
<g transform="translate(200.75 213.79) rotate(90) scale(.08 -.08)">
<use xlink:href="#e"/>
<use x="44.083984" xlink:href="#l"/>
<use x="105.607422" xlink:href="#g"/>
<use x="144.970703" xlink:href="#i"/>
<use x="242.382812" xlink:href="#k"/>
<use x="270.166016" xlink:href="#h"/>
<use x="333.544922" xlink:href="#f"/>
<use x="394.824219" xlink:href="#j"/>
</g>
</g>
<path d="m254.26 213.79v33.808q0 2.4 2.4 2.4h7.7425q2.4 0 2.4-2.4v-33.808q0-2.4-2.4-2.4h-7.7425q-2.4 0-2.4 2.4z" clip-path="url(#a)" fill="#fff" stroke="#fff"/>
<g clip-path="url(#a)">
<g transform="translate(258.32 213.79) rotate(90) scale(.08 -.08)">
<use xlink:href="#e"/>
<use x="44.083984" xlink:href="#l"/>
<use x="105.607422" xlink:href="#g"/>
<use x="144.970703" xlink:href="#i"/>
<use x="242.382812" xlink:href="#k"/>
<use x="270.166016" xlink:href="#h"/>
<use x="333.544922" xlink:href="#f"/>
<use x="394.824219" xlink:href="#j"/>
</g>
</g>
<path d="m470.17 213.79v33.808q0 2.4 2.4 2.4h7.7425q2.4 0 2.4-2.4v-33.808q0-2.4-2.4-2.4h-7.7425q-2.4 0-2.4 2.4z" clip-path="url(#a)" fill="#fff" stroke="#fff"/>
<g clip-path="url(#a)">
<g transform="translate(474.23 213.79) rotate(90) scale(.08 -.08)">
<use xlink:href="#e"/>
<use x="44.083984" xlink:href="#l"/>
<use x="105.607422" xlink:href="#g"/>
<use x="144.970703" xlink:href="#i"/>
<use x="242.382812" xlink:href="#k"/>
<use x="270.166016" xlink:href="#h"/>
<use x="333.544922" xlink:href="#f"/>
<use x="394.824219" xlink:href="#j"/>
</g>
</g>
<defs>
<path id="c" d="m0 8.6603c2.2967 0 4.4997-0.9125 6.1237-2.5365 1.624-1.624 2.5365-3.827 2.5365-6.1237s-0.9125-4.4997-2.5365-6.1237c-1.624-1.624-3.827-2.5365-6.1237-2.5365s-4.4997 0.9125-6.1237 2.5365c-1.624 1.624-2.5365 3.827-2.5365 6.1237s0.9125 4.4997 2.5365 6.1237c1.624 1.624 3.827 2.5365 6.1237 2.5365z"/>
</defs>
<g clip-path="url(#a)" fill="#ffffff" stroke="#ffffff">
<use x="23.030303" y="254.545455" xlink:href="#c"/>
<use x="44.621212" y="254.545455" xlink:href="#c"/>
<use x="73.409091" y="254.545455" xlink:href="#c"/>
<use x="109.393939" y="254.545455" xlink:href="#c"/>
<use x="152.575758" y="254.545455" xlink:href="#c"/>
<use x="202.954545" y="254.545455" xlink:href="#c"/>
<use x="260.530303" y="254.545455" xlink:href="#c"/>
<use x="325.30303" y="254.545455" xlink:href="#c"/>
<use x="397.272727" y="254.545455" xlink:href="#c"/>
<use x="476.439394" y="254.545455" xlink:href="#c"/>
<use x="483.636364" y="109.832034" xlink:href="#c"/>
<use x="290.217803" y="12.121212" xlink:href="#c"/>
<use x="290.217803" y="61.038341" xlink:href="#c"/>
<use x="78.806818" y="109.832034" xlink:href="#c"/>
<use x="325.30303" y="206.834694" xlink:href="#c"/>
<use x="397.272727" y="206.834694" xlink:href="#c"/>
<use x="33.825758" y="158.460224" xlink:href="#c"/>
<use x="109.393939" y="206.834694" xlink:href="#c"/>
<use x="98.598485" y="158.460224" xlink:href="#c"/>
<use x="73.409091" y="206.834694" xlink:href="#c"/>
<use x="152.575758" y="206.834694" xlink:href="#c"/>
<use x="23.030303" y="206.834694" xlink:href="#c"/>
<use x="44.621212" y="206.834694" xlink:href="#c"/>
<use x="202.954545" y="206.834694" xlink:href="#c"/>
<use x="260.530303" y="206.834694" xlink:href="#c"/>
<use x="476.439394" y="206.834694" xlink:href="#c"/>
</g>
<g clip-path="url(#a)">
<g transform="translate(16.029 257.3) scale(.1 -.1)">
<defs>
<path id="av" d="m-0.29688 72.906h61.672v-8.3125h-25.875v-64.594h-9.9062v64.594h-25.891z"/>
<path id="z" d="m61.047 54.688h8.9844v-54.688h-8.9844zm4.5 1.3125m-22.094-39.781q0 4.3906-3.2031 6.6875-3.1875 2.2969-9.3438 2.2969h-12.797v-18.031h12.797q6.1562 0 9.3438 2.3125 3.2031 2.3281 3.2031 6.7344zm-34.375 38.469h9.0312v-22.312h13.188q10.453 0 16.094-3.9844 5.6406-3.9688 5.6406-12.172t-5.6406-12.219q-5.6406-4-16.094-4h-22.219z"/>
</defs>
<use xlink:href="#av"/>
<use x="61.083984" xlink:href="#z"/>
</g>
</g>
<g clip-path="url(#a)">
<g transform="translate(18.983 257.3) scale(.1 -.1)">
<defs>
<path id="au" d="m9.0781 0v54.688h38.578v-7.1719h-29.547v-47.516z"/>
<path id="p" d="m30.609 48.391q-7.2188 0-11.422-5.6406t-4.2031-15.453 4.1719-15.453q4.1875-5.6406 11.453-5.6406 7.1875 0 11.375 5.6562 4.2031 5.6719 4.2031 15.438 0 9.7188-4.2031 15.406-4.1875 5.6875-11.375 5.6875zm0 7.6094q11.719 0 18.406-7.625 6.7031-7.6094 6.7031-21.078 0-13.422-6.7031-21.078-6.6875-7.6406-18.406-7.6406-11.766 0-18.438 7.6406-6.6562 7.6562-6.6562 21.078 0 13.469 6.6562 21.078 6.6719 7.625 18.438 7.625z"/>
<path id="ae" d="m18.062 25.203v-18.031h12.797q6.1562 0 9.375 2.3125 3.2188 2.3281 3.2188 6.7344 0 4.3906-3.2188 6.6875t-9.375 2.2969zm0 22.312v-15.141h11.828q5.0781 0 8.2969 2.0156 3.2188 2.0312 3.2188 5.6562 0 3.6094-3.2188 5.5312-3.2188 1.9375-8.2969 1.9375zm-8.9844 7.1719h21.391q9.625 0 14.797-3.5156t5.1719-10.016q0-5.0156-2.6406-7.9844-2.625-2.9531-7.8125-3.6719 6.2031-1.1719 9.625-4.8906 3.4219-3.7031 3.4219-9.2812 0-7.3125-5.6406-11.328-5.6406-4-16.094-4h-22.219z"/>
<path id="ab" d="m18.109 8.2031v-29h-9.0312v75.484h9.0312v-8.2969q2.8438 4.875 7.1562 7.2344 4.3281 2.375 10.328 2.375 9.9688 0 16.188-7.9062 6.2344-7.9062 6.2344-20.797t-6.2344-20.812q-6.2188-7.9062-16.188-7.9062-6 0-10.328 2.375-4.3125 2.375-7.1562 7.25zm30.578 19.094q0 9.9062-4.0781 15.547t-11.203 5.6406q-7.1406 0-11.219-5.6406t-4.0781-15.547 4.0781-15.547 11.219-5.6406q7.125 0 11.203 5.6406t4.0781 15.547z"/>
<path id="as" d="m55.906 54.688v-54.688h-8.9375v43.891l-26.359-43.891h-11.531v54.688h8.9375v-43.797l26.328 43.797z"/>
<path id="aq" d="m50.25 7.1719h23.141v47.516h9.0312v-54.688h-73.344v54.688h9.0312v-47.516h23.109v47.516h9.0312z"/>
<path id="ap" d="m43.453 16.219q0 4.3906-3.2031 6.6875-3.1875 2.2969-9.3438 2.2969h-12.797v-18.031h12.797q6.1562 0 9.3438 2.3125 3.2031 2.3281 3.2031 6.7344zm-34.375 38.469h9.0312v-22.312h13.188q10.453 0 16.094-3.9844 5.6406-3.9688 5.6406-12.172t-5.6406-12.219q-5.6406-4-16.094-4h-22.219z"/>
</defs>
<use xlink:href="#au"/>
<use x="52.539062" xlink:href="#p"/>
<use x="113.720703" xlink:href="#ae"/>
<use x="172.65625" xlink:href="#p"/>
<use x="233.837891" xlink:href="#ab"/>
<use x="297.314453" xlink:href="#as"/>
<use x="362.304688" xlink:href="#aq"/>
<use x="453.808594" xlink:href="#ap"/>
</g>
</g>
<g clip-path="url(#a)">
<g transform="translate(71.82 257.3) scale(.1 -.1)">
<defs>
<path id="an" d="m11.719 12.406h10.297v-8.4062l-8-15.625h-6.2969l4 15.625z"/>
</defs>
<use xlink:href="#an"/>
</g>
</g>
<g clip-path="url(#a)">
<g transform="translate(100.29 257.3) scale(.1 -.1)">
<defs>
<path id="s" d="m9.0781 54.688h8.9375v-25.688l25.344 25.688h11.031l-20.891-21.141 23.578-33.547h-10.062l-19.375 27.594-9.625-9.7656v-17.828h-8.9375z"/>
<path id="t" d="m34.281 27.484q-10.891 0-15.094-2.4844t-4.2031-8.5q0-4.7812 3.1562-7.5938 3.1562-2.7969 8.5625-2.7969 7.4844 0 12 5.2969t4.5156 14.078v2zm17.922 3.7188v-31.203h-8.9844v8.2969q-3.0781-4.9688-7.6719-7.3438t-11.234-2.375q-8.3906 0-13.359 4.7188-4.9531 4.7188-4.9531 12.625 0 9.2188 6.1719 13.906 6.1875 4.6875 18.438 4.6875h12.609v0.89062q0 6.2031-4.0781 9.5938t-11.453 3.3906q-4.6875 0-9.1406-1.125-4.4375-1.125-8.5312-3.375v8.3125q4.9219 1.9062 9.5625 2.8438 4.6406 0.95312 9.0312 0.95312 11.875 0 17.734-6.1562 5.8594-6.1406 5.8594-18.641z"/>
</defs>
<use xlink:href="#s"/>
<use x="60.400391" xlink:href="#t"/>
<use x="121.679688" xlink:href="#s"/>
</g>
</g>
<g clip-path="url(#a)">
<g transform="translate(127.77 257.3) scale(.1 -.1)">
<defs>
<path id="ad" d="m34.469 29.5q6.0625-1.1719 9.4219-4.75 3.375-3.5625 3.375-8.8281 0-8.4531-6.2969-12.906-6.2969-4.4375-17.922-4.4375-3.9062 0-8.0312 0.6875t-8.5156 2.0469v8.3594q3.4688-1.8125 7.6094-2.7188 4.1562-0.89062 8.6875-0.89062 7.375 0 11.5 2.7344t4.125 7.125q0 4.2969-3.6562 6.9062t-10.344 2.6094h-7.2344v7.4219h7.5625q5.6719 0 8.9688 2.1719t3.2969 5.5938q0 3.125-3.4062 5.375-3.3906 2.25-9.1875 2.25-3.4688 0-7.4062-0.64062-3.9219-0.64062-8.6719-2.0469v8.1562q4.7969 1.1719 8.9375 1.75 4.1562 0.59375 7.8594 0.59375 9.5781 0 15.109-3.8438 5.5469-3.8281 5.5469-10.719 0-4.5312-2.9375-7.6875-2.9219-3.1406-8.3906-4.3125z"/>
<path id="aa" d="m48.781 52.594v-8.4062q-3.8125 2.1094-7.6406 3.1562t-7.7344 1.0469q-8.75 0-13.594-5.5469-4.8281-5.5312-4.8281-15.547t4.8281-15.562q4.8438-5.5312 13.594-5.5312 3.9062 0 7.7344 1.0469t7.6406 3.1562v-8.3125q-3.7656-1.75-7.7969-2.625-4.0156-0.89062-8.5625-0.89062-12.359 0-19.641 7.7656-7.2656 7.7656-7.2656 20.953 0 13.375 7.3438 21.031 7.3594 7.6719 20.156 7.6719 4.1406 0 8.0938-0.85938 3.9531-0.84375 7.6719-2.5469z"/>
<path id="ac" d="m3.7188 0v7.4688q8.875 1.375 11.609 7.5156 3.3281 8.6562 3.3281 30.766v8.9375h36.953v-54.688h-8.9844v47.516h-18.984v-5.4219q0-21.094-4.2969-30.562-4.5938-10.109-19.625-11.531z"/>
<path id="at" d="m56.203 29.594v-4.3906h-41.312q0.59375-9.2812 5.5938-14.141t13.938-4.8594q5.1719 0 10.031 1.2656t9.6562 3.8125v-8.5q-4.8438-2.0469-9.9219-3.125t-10.297-1.0781q-13.094 0-20.734 7.6094-7.6406 7.625-7.6406 20.625 0 13.422 7.25 21.297 7.25 7.8906 19.562 7.8906 11.031 0 17.453-7.1094 6.4219-7.0938 6.4219-19.297zm-8.9844 2.6406q-0.09375 7.3594-4.125 11.75-4.0312 4.4062-10.672 4.4062-7.5156 0-12.031-4.25t-5.2031-11.969z"/>
</defs>
<use xlink:href="#ae"/>
<use x="58.935547" xlink:href="#ad"/>
<use x="112.109375" xlink:href="#ab"/>
<use x="175.585938" xlink:href="#p"/>
<use x="236.767578" xlink:href="#aa"/>
<use x="291.748047" xlink:href="#ac"/>
<use x="355.664062" xlink:href="#z"/>
<use x="434.619141" xlink:href="#at"/>
</g>
</g>
<g clip-path="url(#a)">
<g transform="translate(200.95 257.3) scale(.1 -.1)">
<defs>
<path id="ao" d="m15.094 12.406h9.9062v-12.406h-9.9062zm0 60.5h9.9062v-31.984l-0.96875-17.438h-7.9219l-1.0156 17.438z"/>
</defs>
<use xlink:href="#ao"/>
</g>
</g>
<g clip-path="url(#a)">
<g transform="translate(258.73 257.3) scale(.1 -.1)">
<defs>
<path id="am" d="m4.8906 31.391h26.312v-8h-26.312z"/>
</defs>
<use xlink:href="#am"/>
</g>
</g>
<g clip-path="url(#a)">
<g transform="translate(307.55 257.3) scale(.1 -.1)">
<use xlink:href="#aa"/>
<use x="54.980469" xlink:href="#s"/>
<use x="115.380859" xlink:href="#t"/>
<use x="176.660156" xlink:href="#ad"/>
<use x="229.833984" xlink:href="#t"/>
<use x="291.113281" xlink:href="#ac"/>
</g>
</g>
<g clip-path="url(#a)">
<g transform="translate(390.94 257.3) scale(.1 -.1)">
<defs>
<path id="ar" d="m9.0781 54.688h9.0312v-22.312h29.156v22.312h9.0312v-54.688h-9.0312v25.203h-29.156v-25.203h-9.0312z"/>
</defs>
<use xlink:href="#p"/>
<use x="61.181641" xlink:href="#ar"/>
</g>
</g>
<g clip-path="url(#a)">
<g transform="translate(474.85 257.3) scale(.1 -.1)">
<defs>
<path id="d" d="m10.688 12.406h10.312v-12.406h-10.312z"/>
</defs>
<use xlink:href="#d"/>
</g>
</g>
<g clip-path="url(#a)">
<g transform="translate(462.55 112.59) scale(.1 -.1)">
<defs>
<path id="q" d="m9.8125 72.906h9.8594v-72.906h-9.8594z"/>
<path id="af" d="m9.8125 72.906h14.703l18.594-49.609 18.703 49.609h14.703v-72.906h-9.625v64.016l-18.797-50h-9.9062l-18.797 50v-64.016h-9.5781z"/>
<path id="ag" d="m64.406 67.281v-10.391q-4.9844 4.6406-10.625 6.9219-5.6406 2.2969-11.984 2.2969-12.5 0-19.141-7.6406t-6.6406-22.094q0-14.406 6.6406-22.047t19.141-7.6406q6.3438 0 11.984 2.2969t10.625 6.9375v-10.312q-5.1719-3.5156-10.969-5.2812-5.7812-1.75-12.219-1.75-16.562 0-26.094 10.125-9.5156 10.141-9.5156 27.672 0 17.578 9.5156 27.703 9.5312 10.141 26.094 10.141 6.5312 0 12.312-1.7344 5.7969-1.7344 10.875-5.2031z"/>
</defs>
<use xlink:href="#q"/>
<use x="29.492188" xlink:href="#af"/>
<use x="115.771484" xlink:href="#o"/>
<use x="176.074219" xlink:href="#u"/>
<use x="231.787109" xlink:href="#q"/>
<use x="261.279297" xlink:href="#ag"/>
<use x="331.103516" xlink:href="#q"/>
<use x="360.595703" xlink:href="#e"/>
</g>
</g>
<g clip-path="url(#a)">
<g transform="translate(282.27 14.881) scale(.1 -.1)">
<defs>
<path id="b" d="m12.406 8.2969h16.109v55.625l-17.531-3.5156v8.9844l17.438 3.5156h9.8594v-64.609h16.109v-8.2969h-41.984z"/>
</defs>
<use xlink:href="#b"/>
<use x="63.623047" xlink:href="#d"/>
<use x="95.410156" xlink:href="#b"/>
</g>
</g>
<g clip-path="url(#a)">
<g transform="translate(282.27 63.798) scale(.1 -.1)">
<defs>
<path id="y" d="m19.188 8.2969h34.422v-8.2969h-46.281v8.2969q5.6094 5.8125 15.297 15.594 9.7031 9.7969 12.188 12.641 4.7344 5.3125 6.6094 9 1.8906 3.6875 1.8906 7.25 0 5.8125-4.0781 9.4688-4.0781 3.6719-10.625 3.6719-4.6406 0-9.7969-1.6094-5.1406-1.6094-11-4.8906v9.9688q5.9531 2.3906 11.125 3.6094 5.1875 1.2188 9.4844 1.2188 11.328 0 18.062-5.6719 6.7344-5.6562 6.7344-15.125 0-4.5-1.6875-8.5312-1.6719-4.0156-6.125-9.4844-1.2188-1.4219-7.7656-8.1875-6.5312-6.7656-18.453-18.922z"/>
</defs>
<use xlink:href="#b"/>
<use x="63.623047" xlink:href="#d"/>
<use x="95.410156" xlink:href="#y"/>
</g>
</g>
<g clip-path="url(#a)">
<g transform="translate(70.855 112.59) scale(.1 -.1)">
<defs>
<path id="x" d="m10.797 72.906h38.719v-8.3125h-29.688v-17.859q2.1406 0.73438 4.2812 1.0938 2.1562 0.35938 4.3125 0.35938 12.203 0 19.328-6.6875 7.1406-6.6875 7.1406-18.109 0-11.766-7.3281-18.297-7.3281-6.5156-20.656-6.5156-4.5938 0-9.3594 0.78125-4.75 0.78125-9.8281 2.3438v9.9219q4.3906-2.3906 9.0781-3.5625t9.9062-1.1719q8.4531 0 13.375 4.4375 4.9375 4.4375 4.9375 12.062 0 7.6094-4.9375 12.047-4.9219 4.4531-13.375 4.4531-3.9531 0-7.8906-0.875-3.9219-0.875-8.0156-2.7344z"/>
</defs>
<use xlink:href="#b"/>
<use x="63.623047" xlink:href="#d"/>
<use x="95.410156" xlink:href="#x"/>
</g>
</g>
<g clip-path="url(#a)">
<g transform="translate(317.35 209.59) scale(.1 -.1)">
<defs>
<path id="w" d="m33.016 40.375q-6.6406 0-10.531-4.5469-3.875-4.5312-3.875-12.438 0-7.8594 3.875-12.438 3.8906-4.5625 10.531-4.5625t10.516 4.5625q3.875 4.5781 3.875 12.438 0 7.9062-3.875 12.438-3.875 4.5469-10.516 4.5469zm19.578 30.922v-8.9844q-3.7188 1.75-7.5 2.6719-3.7812 0.9375-7.5 0.9375-9.7656 0-14.922-6.5938-5.1406-6.5938-5.875-19.922 2.875 4.25 7.2188 6.5156 4.3594 2.2656 9.5781 2.2656 10.984 0 17.359-6.6719 6.375-6.6562 6.375-18.125 0-11.234-6.6406-18.031-6.6406-6.7812-17.672-6.7812-12.656 0-19.344 9.6875-6.6875 9.7031-6.6875 28.109 0 17.281 8.2031 27.562t22.016 10.281q3.7188 0 7.5-0.73438t7.8906-2.1875z"/>
</defs>
<use xlink:href="#b"/>
<use x="63.623047" xlink:href="#d"/>
<use x="95.410156" xlink:href="#w"/>
</g>
</g>
<g clip-path="url(#a)">
<g transform="translate(389.32 209.59) scale(.1 -.1)">
<defs>
<path id="v" d="m8.2031 72.906h46.875v-4.2031l-26.469-68.703h-10.297l24.906 64.594h-35.016z"/>
</defs>
<use xlink:href="#b"/>
<use x="63.623047" xlink:href="#d"/>
<use x="95.410156" xlink:href="#v"/>
</g>
</g>
<g clip-path="url(#a)">
<g transform="translate(22.693 161.22) scale(.1 -.1)">
<defs>
<path id="al" d="m31.781 66.406q-7.6094 0-11.453-7.5-3.8281-7.4844-3.8281-22.531 0-14.984 3.8281-22.484 3.8438-7.5 11.453-7.5 7.6719 0 11.5 7.5 3.8438 7.5 3.8438 22.484 0 15.047-3.8438 22.531-3.8281 7.5-11.5 7.5zm0 7.8125q12.266 0 18.734-9.7031 6.4688-9.6875 6.4688-28.141 0-18.406-6.4688-28.109-6.4688-9.6875-18.734-9.6875-12.25 0-18.719 9.6875-6.4688 9.7031-6.4688 28.109 0 18.453 6.4688 28.141 6.4688 9.7031 18.719 9.7031z"/>
</defs>
<use xlink:href="#b"/>
<use x="63.623047" xlink:href="#d"/>
<use x="95.410156" xlink:href="#b"/>
<use x="159.033203" xlink:href="#al"/>
</g>
</g>
<g clip-path="url(#a)">
<g transform="translate(98.261 209.59) scale(.1 -.1)">
<use xlink:href="#b"/>
<use x="63.623047" xlink:href="#d"/>
<use x="95.410156" xlink:href="#b"/>
<use x="159.033203" xlink:href="#b"/>
</g>
</g>
<g clip-path="url(#a)">
<g transform="translate(87.466 161.22) scale(.1 -.1)">
<use xlink:href="#b"/>
<use x="63.623047" xlink:href="#d"/>
<use x="95.410156" xlink:href="#b"/>
<use x="159.033203" xlink:href="#y"/>
</g>
</g>
<g clip-path="url(#a)">
<g transform="translate(62.276 209.59) scale(.1 -.1)">
<defs>
<path id="ak" d="m40.578 39.312q7.0781-1.5156 11.047-6.3125 3.9844-4.7812 3.9844-11.812 0-10.781-7.4219-16.703-7.4219-5.9062-21.094-5.9062-4.5781 0-9.4375 0.90625t-10.031 2.7188v9.5156q4.0938-2.3906 8.9688-3.6094 4.8906-1.2188 10.219-1.2188 9.2656 0 14.125 3.6562t4.8594 10.641q0 6.4531-4.5156 10.078-4.5156 3.6406-12.562 3.6406h-8.5v8.1094h8.8906q7.2656 0 11.125 2.9062t3.8594 8.375q0 5.6094-3.9844 8.6094-3.9688 3.0156-11.391 3.0156-4.0625 0-8.7031-0.89062-4.6406-0.875-10.203-2.7188v8.7812q5.625 1.5625 10.531 2.3438t9.25 0.78125q11.234 0 17.766-5.1094 6.5469-5.0938 6.5469-13.781 0-6.0625-3.4688-10.234t-9.8594-5.7812z"/>
</defs>
<use xlink:href="#b"/>
<use x="63.623047" xlink:href="#d"/>
<use x="95.410156" xlink:href="#b"/>
<use x="159.033203" xlink:href="#ak"/>
</g>
</g>
<g clip-path="url(#a)">
<g transform="translate(141.44 209.59) scale(.1 -.1)">
<defs>
<path id="aj" d="m37.797 64.312-24.906-38.922h24.906zm-2.5938 8.5938h12.406v-47.516h10.406v-8.2031h-10.406v-17.188h-9.8125v17.188h-32.906v9.5156z"/>
</defs>
<use xlink:href="#b"/>
<use x="63.623047" xlink:href="#d"/>
<use x="95.410156" xlink:href="#b"/>
<use x="159.033203" xlink:href="#aj"/>
</g>
</g>
<g clip-path="url(#a)">
<g transform="translate(11.897 209.59) scale(.1 -.1)">
<use xlink:href="#b"/>
<use x="63.623047" xlink:href="#d"/>
<use x="95.410156" xlink:href="#b"/>
<use x="159.033203" xlink:href="#x"/>
</g>
</g>
<g clip-path="url(#a)">
<g transform="translate(33.488 209.59) scale(.1 -.1)">
<use xlink:href="#b"/>
<use x="63.623047" xlink:href="#d"/>
<use x="95.410156" xlink:href="#b"/>
<use x="159.033203" xlink:href="#w"/>
</g>
</g>
<g clip-path="url(#a)">
<g transform="translate(191.82 209.59) scale(.1 -.1)">
<use xlink:href="#b"/>
<use x="63.623047" xlink:href="#d"/>
<use x="95.410156" xlink:href="#b"/>
<use x="159.033203" xlink:href="#v"/>
</g>
</g>
<g clip-path="url(#a)">
<g transform="translate(249.4 209.59) scale(.1 -.1)">
<defs>
<path id="ai" d="m31.781 34.625q-7.0312 0-11.062-3.7656-4.0156-3.7656-4.0156-10.344 0-6.5938 4.0156-10.359 4.0312-3.7656 11.062-3.7656t11.078 3.7812q4.0625 3.7969 4.0625 10.344 0 6.5781-4.0312 10.344-4.0156 3.7656-11.109 3.7656zm-9.8594 4.1875q-6.3438 1.5625-9.8906 5.9062-3.5312 4.3594-3.5312 10.609 0 8.7344 6.2188 13.812 6.2344 5.0781 17.062 5.0781 10.891 0 17.094-5.0781t6.2031-13.812q0-6.25-3.5469-10.609-3.5312-4.3438-9.8281-5.9062 7.125-1.6562 11.094-6.5 3.9844-4.8281 3.9844-11.797 0-10.609-6.4688-16.281-6.4688-5.6562-18.531-5.6562-12.047 0-18.531 5.6562-6.4688 5.6719-6.4688 16.281 0 6.9688 4 11.797 4.0156 4.8438 11.141 6.5zm-3.6094 15.578q0-5.6562 3.5312-8.8281 3.5469-3.1719 9.9375-3.1719 6.3594 0 9.9375 3.1719 3.5938 3.1719 3.5938 8.8281 0 5.6719-3.5938 8.8438-3.5781 3.1719-9.9375 3.1719-6.3906 0-9.9375-3.1719-3.5312-3.1719-3.5312-8.8438z"/>
</defs>
<use xlink:href="#b"/>
<use x="63.623047" xlink:href="#d"/>
<use x="95.410156" xlink:href="#b"/>
<use x="159.033203" xlink:href="#ai"/>
</g>
</g>
<g clip-path="url(#a)">
<g transform="translate(465.31 209.59) scale(.1 -.1)">
<defs>
<path id="ah" d="m10.984 1.5156v8.9844q3.7188-1.7656 7.5156-2.6875 3.8125-0.92188 7.4844-0.92188 9.7656 0 14.906 6.5625 5.1562 6.5625 5.8906 19.953-2.8281-4.2031-7.1875-6.4531-4.3438-2.25-9.6094-2.25-10.938 0-17.312 6.6094-6.375 6.625-6.375 18.109 0 11.219 6.6406 18 6.6406 6.7969 17.672 6.7969 12.656 0 19.312-9.7031 6.6719-9.6875 6.6719-28.141 0-17.234-8.1875-27.516-8.1719-10.281-21.984-10.281-3.7188 0-7.5312 0.73438-3.7969 0.73438-7.9062 2.2031zm19.625 30.906q6.6406 0 10.516 4.5312 3.8906 4.5469 3.8906 12.469 0 7.8594-3.8906 12.422-3.875 4.5625-10.516 4.5625t-10.516-4.5625-3.875-12.422q0-7.9219 3.875-12.469 3.875-4.5312 10.516-4.5312z"/>
</defs>
<use xlink:href="#b"/>
<use x="63.623047" xlink:href="#d"/>
<use x="95.410156" xlink:href="#b"/>
<use x="159.033203" xlink:href="#ah"/>
</g>
</g>
<defs>
<clipPath id="a">
<rect width="506.67" height="266.67"/>
</clipPath>
</defs>
</svg>
