<?xml version="1.0" encoding="UTF-8"?>
<!DOCTYPE svg  PUBLIC '-//W3C//DTD SVG 1.1//EN'  'http://www.w3.org/Graphics/SVG/1.1/DTD/svg11.dtd'>
<svg width="1570.7pt" height="826.67pt" version="1.1" viewBox="0 0 1570.7 826.67" xmlns="http://www.w3.org/2000/svg" xmlns:xlink="http://www.w3.org/1999/xlink">
<metadata>
<rdf:RDF xmlns:cc="http://creativecommons.org/ns#" xmlns:dc="http://purl.org/dc/elements/1.1/" xmlns:rdf="http://www.w3.org/1999/02/22-rdf-syntax-ns#">
<cc:Work>
<dc:type rdf:resource="http://purl.org/dc/dcmitype/StillImage"/>
<dc:date>2021-01-13T08:46:40.014507</dc:date>
<dc:format>image/svg+xml</dc:format>
<dc:creator>
<cc:Agent>
<dc:title>Matplotlib v3.3.3, https://matplotlib.org/</dc:title>
</cc:Agent>
</dc:creator>
</cc:Work>
</rdf:RDF>
</metadata>
<defs>
<style type="text/css">*{stroke-linecap:butt;stroke-linejoin:round;}</style>
</defs>
<path d="m0 826.67h1570.7v-826.67h-1570.7z" fill="#fff"/>
<g fill="none" stroke="#000">
<path d="m321.29 37.576-245.86 252.53" clip-path="url(#a)"/>
<path d="m321.29 37.576-176.82 378.35" clip-path="url(#a)"/>
<path d="m321.29 37.576 81.029 252.53" clip-path="url(#a)"/>
<path d="m321.29 37.576 196.25 378.35" clip-path="url(#a)"/>
<path d="m321.29 37.576 426.32 126.39" clip-path="url(#a)"/>
<path d="m321.29 37.576-220.26 628.49" clip-path="url(#a)"/>
<path d="m321.29 37.576-99.027 628.49" clip-path="url(#a)"/>
<path d="m321.29 37.576 38.372 628.49" clip-path="url(#a)"/>
<path d="m75.435 290.11 14.818 125.82" clip-path="url(#a)"/>
<path d="m75.435 290.11 14.818 125.82" clip-path="url(#a)"/>
<path d="m75.435 290.11v125.82" clip-path="url(#a)"/>
<path d="m144.47 415.93-29.972 250.13" clip-path="url(#a)"/>
<path d="m144.47 415.93-13.807 250.13" clip-path="url(#a)"/>
<path d="m144.47 415.93 5.0515 250.13" clip-path="url(#a)"/>
<path d="m144.47 415.93 38.728 125.39" clip-path="url(#a)"/>
<path d="m402.32 290.11 240.22 375.95" clip-path="url(#a)" stroke-dasharray="3.7,1.6"/>
<path d="m402.32 290.11-150.42 375.95" clip-path="url(#a)"/>
<path d="m402.32 290.11-89.804 125.82" clip-path="url(#a)"/>
<path d="m517.54 415.93 125.01 250.13" clip-path="url(#a)" stroke-dasharray="3.7,1.6"/>
<path d="m517.54 415.93-117.46 250.13" clip-path="url(#a)"/>
<path d="m517.54 415.93-74.357 250.13" clip-path="url(#a)"/>
<path d="m517.54 415.93-4.3106 125.39" clip-path="url(#a)"/>
<path d="m517.54 415.93 71.125 250.13" clip-path="url(#a)"/>
<path d="m747.61 163.97-105.06 502.09" clip-path="url(#a)"/>
<path d="m747.61 163.97-48.487 502.09" clip-path="url(#a)"/>
<path d="m747.61 163.97 153.55 126.14" clip-path="url(#a)"/>
<path d="m642.55 666.06v123.03" clip-path="url(#a)"/>
<path d="m699.12 666.06v123.03" clip-path="url(#a)"/>
<path d="m901.16 290.11-142.77 375.95" clip-path="url(#a)"/>
<path d="m901.16 290.11-80.802 375.95" clip-path="url(#a)"/>
<path d="m901.16 290.11-16.143 375.95" clip-path="url(#a)"/>
<path d="m901.16 290.11 188.5 125.82" clip-path="url(#a)"/>
<path d="m901.16 290.11 51.21 375.95" clip-path="url(#a)"/>
<path d="m758.39 666.06v123.03" clip-path="url(#a)"/>
<path d="m820.36 666.06v123.03" clip-path="url(#a)"/>
<path d="m885.02 666.06v123.03" clip-path="url(#a)"/>
<path d="m1089.7 415.93-204.64 250.13" clip-path="url(#a)" stroke-dasharray="3.7,1.6"/>
<path d="m1089.7 415.93-67.245 250.13" clip-path="url(#a)"/>
<path d="m1089.7 415.93 5.496 250.13" clip-path="url(#a)"/>
<path d="m1089.7 415.93 80.931 250.13" clip-path="url(#a)"/>
<path d="m1089.7 415.93 185.46 125.39" clip-path="url(#a)"/>
<path d="m1022.4 666.06v123.03" clip-path="url(#a)"/>
<path d="m1095.2 666.06v123.03" clip-path="url(#a)"/>
<path d="m1170.6 666.06v123.03" clip-path="url(#a)"/>
<path d="m1275.1 541.32-390.11 124.74" clip-path="url(#a)" stroke-dasharray="3.7,1.6"/>
<path d="m1275.1 541.32-26.402 124.74" clip-path="url(#a)"/>
<path d="m1275.1 541.32 54.421 124.74" clip-path="url(#a)"/>
<path d="m1275.1 541.32 137.94 124.74" clip-path="url(#a)"/>
<path d="m1275.1 541.32 224.15 124.74" clip-path="url(#a)"/>
<path d="m1248.7 666.06v123.03" clip-path="url(#a)"/>
<path d="m1329.5 666.06v123.03" clip-path="url(#a)"/>
<path d="m400.08 666.06v123.03" clip-path="url(#a)"/>
<path d="m443.18 666.06v123.03" clip-path="url(#a)"/>
<path d="m513.23 541.32-24.247 124.74" clip-path="url(#a)"/>
<path d="m513.23 541.32 24.247 124.74" clip-path="url(#a)"/>
<path d="m488.98 666.06v123.03" clip-path="url(#a)"/>
<path d="m537.48 666.06v123.03" clip-path="url(#a)"/>
<path d="m251.9 666.06v123.03" clip-path="url(#a)"/>
<path d="m312.52 415.93-9.4294 125.39" clip-path="url(#a)"/>
<path d="m312.52 415.93 9.4294 250.13" clip-path="url(#a)"/>
<path d="m303.09 541.32 18.859 124.74" clip-path="url(#a)" stroke-dasharray="3.7,1.6"/>
<path d="m303.09 541.32-16.165 124.74" clip-path="url(#a)"/>
<path d="m303.09 541.32-18.859 124.74" clip-path="url(#a)"/>
<path d="m321.95 666.06v123.03" clip-path="url(#a)"/>
<path d="m284.23 666.06v123.03" clip-path="url(#a)"/>
<path d="m114.5 666.06v123.03" clip-path="url(#a)"/>
<path d="m130.66 666.06v123.03" clip-path="url(#a)"/>
<path d="m149.52 666.06v123.03" clip-path="url(#a)"/>
<path d="m183.2 541.32-12.124 124.74" clip-path="url(#a)"/>
<path d="m183.2 541.32 12.123 124.74" clip-path="url(#a)"/>
<path d="m171.08 666.06v123.03" clip-path="url(#a)"/>
<path d="m195.32 666.06v123.03" clip-path="url(#a)"/>
<path d="m75.435 415.93 14.818 125.39" clip-path="url(#a)"/>
<path d="m75.435 415.93v125.39" clip-path="url(#a)"/>
<path d="m75.435 415.93 14.818 125.39" clip-path="url(#a)"/>
<path d="m75.435 541.32-4.0412 124.74" clip-path="url(#a)"/>
<path d="m75.435 541.32 4.0412 124.74" clip-path="url(#a)"/>
<path d="m71.394 666.06v123.03" clip-path="url(#a)"/>
<path d="m79.476 666.06v123.03" clip-path="url(#a)"/>
<path d="m101.03 666.06v123.03" clip-path="url(#a)"/>
<path d="m222.26 666.06v123.03" clip-path="url(#a)"/>
<path d="m359.66 666.06v123.03" clip-path="url(#a)"/>
<path d="m588.66 666.06v123.03" clip-path="url(#a)"/>
<path d="m952.37 666.06v123.03" clip-path="url(#a)"/>
<path d="m1413.1 666.06v123.03" clip-path="url(#a)"/>
<path d="m1499.3 666.06v123.03" clip-path="url(#a)"/>
</g>
<path d="m200.76 170.37 4.1968-4.3107q1.6742-1.7196-0.04546-3.3938l-5.5476-5.401q-1.7196-1.6742-3.3938 0.04546l-4.1968 4.3107q-1.6742 1.7196 0.045461 3.3938l5.5476 5.401q1.7196 1.6742 3.3938-0.04546z" clip-path="url(#a)" fill="#fff" stroke="#fff"/>
<g clip-path="url(#a)">
<g transform="translate(197.85 167.54) rotate(-45.767) scale(.08 -.08)">
<defs>
<path id="ai" d="m9.8125 72.906h9.8594v-29.891h35.844v29.891h9.8594v-72.906h-9.8594v34.719h-35.844v-34.719h-9.8594z"/>
</defs>
<use xlink:href="#ai"/>
</g>
</g>
<path d="m237.29 232.13 2.5472-5.4504q1.0161-2.1743-1.1581-3.1904l-7.0143-3.2781q-2.1743-1.0161-3.1904 1.1582l-2.5472 5.4504q-1.0161 2.1743 1.1581 3.1904l7.0143 3.2781q2.1743 1.0161 3.1904-1.1582z" clip-path="url(#a)" fill="#fff" stroke="#fff"/>
<g clip-path="url(#a)">
<g transform="translate(233.61 230.41) rotate(-64.951) scale(.08 -.08)">
<use xlink:href="#ai"/>
</g>
</g>
<path d="m354.92 162.89 1.8381 5.7286q0.73326 2.2852 3.0185 1.552l7.3723-2.3655q2.2852-0.73326 1.552-3.0185l-1.8381-5.7286q-0.73326-2.2852-3.0185-1.552l-7.3723 2.3655q-2.2852 0.73326-1.552 3.0185z" clip-path="url(#a)" fill="#fff" stroke="#fff"/>
<g clip-path="url(#a)">
<g transform="translate(358.79 161.65) rotate(72.21) scale(.08 -.08)">
<use xlink:href="#ai"/>
</g>
</g>
<path d="m412.46 226.97 2.7701 5.3406q1.105 2.1305 3.2355 1.0254l6.873-3.5649q2.1305-1.105 1.0254-3.2355l-2.7701-5.3406q-1.105-2.1305-3.2355-1.0254l-6.873 3.5649q-2.1305 1.105-1.0254 3.2355z" clip-path="url(#a)" fill="#fff" stroke="#fff"/>
<g clip-path="url(#a)">
<g transform="translate(416.07 225.1) rotate(62.585) scale(.08 -.08)">
<use xlink:href="#ai"/>
</g>
</g>
<path d="m529.78 105.93 5.7681 1.7101q2.301 0.6822 2.9832-1.6188l2.2008-7.4231q0.68219-2.301-1.6188-2.9832l-5.7681-1.7101q-2.301-0.6822-2.9832 1.6188l-2.2008 7.4231q-0.68219 2.301 1.6188 2.9832z" clip-path="url(#a)" fill="#fff" stroke="#fff"/>
<g clip-path="url(#a)">
<g transform="translate(530.94 102.03) rotate(16.514) scale(.08 -.08)">
<use xlink:href="#ai"/>
</g>
</g>
<path d="m216.11 356.66 1.9365-5.5255q0.79378-2.2649-1.4712-3.0587l-7.3068-2.5608q-2.2649-0.79378-3.0587 1.4712l-1.9365 5.5255q-0.79378 2.2649 1.4712 3.0587l7.3068 2.5608q2.2649 0.79378 3.0587-1.4712z" clip-path="url(#a)" fill="#fff" stroke="#fff"/>
<g clip-path="url(#a)">
<g transform="translate(212.28 355.31) rotate(-70.686) scale(.08 -.08)">
<defs>
<path id="aa" d="m8.6875 72.906h9.9219v-44.297q0-11.719 4.2344-16.875 4.25-5.1406 13.781-5.1406 9.4688 0 13.719 5.1406 4.25 5.1562 4.25 16.875v44.297h9.9062v-45.516q0-14.25-7.0625-21.531-7.0469-7.2812-20.812-7.2812-13.828 0-20.891 7.2812-7.0469 7.2812-7.0469 21.531z"/>
</defs>
<use xlink:href="#aa"/>
</g>
</g>
<path d="m277.52 355.69 0.9113-5.7836q0.37355-2.3708-1.9972-2.7443l-7.6481-1.2051q-2.3708-0.37355-2.7443 1.9972l-0.9113 5.7836q-0.37355 2.3708 1.9972 2.7443l7.6481 1.2051q2.3708 0.37355 2.7443-1.9972z" clip-path="url(#a)" fill="#fff" stroke="#fff"/>
<g clip-path="url(#a)">
<g transform="translate(273.5 355.05) rotate(-81.046) scale(.08 -.08)">
<use xlink:href="#aa"/>
</g>
</g>
<path d="m334.04 349.28 0.35681 5.8441q0.14626 2.3955 2.5418 2.2493l7.7281-0.47184q2.3955-0.14626 2.2493-2.5418l-0.35681-5.8441q-0.14626-2.3955-2.5418-2.2493l-7.7281 0.47184q-2.3955 0.14626-2.2493 2.5418z" clip-path="url(#a)" fill="#fff" stroke="#fff"/>
<g clip-path="url(#a)">
<g transform="translate(338.1 349.03) rotate(86.506) scale(.08 -.08)">
<use xlink:href="#aa"/>
</g>
</g>
<path d="m76.296 351.03 0.64006 5.4349q0.2807 2.3835 2.6642 2.1028l7.6894-0.90556q2.3835-0.2807 2.1028-2.6642l-0.64006-5.4349q-0.2807-2.3835-2.6642-2.1028l-7.6894 0.90556q-2.3835 0.2807-2.1028 2.6642z" clip-path="url(#a)" fill="#fff" stroke="#fff"/>
<g clip-path="url(#a)">
<g transform="translate(80.332 350.56) rotate(83.283) scale(.08 -.08)">
<defs>
<path id="m" d="m34.188 63.188-13.391-36.281h26.812zm-5.5781 9.7188h11.188l27.781-72.906h-10.25l-6.6406 18.703h-32.859l-6.6406-18.703h-10.406z"/>
</defs>
<use xlink:href="#m"/>
</g>
</g>
<path d="m76.334 351.36 0.56418 4.7906q0.2807 2.3835 2.6642 2.1028l7.6894-0.90556q2.3835-0.2807 2.1028-2.6642l-0.56418-4.7906q-0.2807-2.3835-2.6642-2.1028l-7.6894 0.90556q-2.3835 0.2807-2.1028 2.6642z" clip-path="url(#a)" fill="#fff" stroke="#fff"/>
<g clip-path="url(#a)">
<g transform="translate(80.369 350.88) rotate(83.283) scale(.08 -.08)">
<defs>
<path id="v" d="m19.672 64.797v-27.391h12.406q6.8906 0 10.641 3.5625 3.7656 3.5625 3.7656 10.156 0 6.5469-3.7656 10.109-3.75 3.5625-10.641 3.5625zm-9.8594 8.1094h22.266q12.266 0 18.531-5.5469 6.2812-5.5469 6.2812-16.234 0-10.797-6.2812-16.312-6.2656-5.5156-18.531-5.5156h-12.406v-29.297h-9.8594z"/>
</defs>
<use xlink:href="#v"/>
</g>
</g>
<path d="m69.164 350.28v5.4725q0 2.4 2.4 2.4h7.7425q2.4 0 2.4-2.4v-5.4725q0-2.4-2.4-2.4h-7.7425q-2.4 0-2.4 2.4z" clip-path="url(#a)" fill="#fff" stroke="#fff"/>
<g clip-path="url(#a)">
<g transform="translate(73.228 350.28) rotate(90) scale(.08 -.08)">
<use xlink:href="#m"/>
</g>
</g>
<path d="m135.39 544.46 0.65108-5.4336q0.28554-2.383-2.0974-2.6685l-7.6875-0.92115q-2.383-0.28554-2.6685 2.0974l-0.65108 5.4336q-0.28553 2.383 2.0974 2.6685l7.6875 0.92115q2.383 0.28554 2.6685-2.0974z" clip-path="url(#a)" fill="#fff" stroke="#fff"/>
<g clip-path="url(#a)">
<g transform="translate(131.35 543.98) rotate(-83.167) scale(.08 -.08)">
<use xlink:href="#m"/>
</g>
</g>
<path d="m143.66 544.42 0.33951-6.1506q0.13228-2.3964-2.2641-2.5286l-7.7307-0.42673q-2.3964-0.13228-2.5286 2.2641l-0.33951 6.1506q-0.13228 2.3964 2.2641 2.5286l7.7307 0.42674q2.3964 0.13228 2.5286-2.2641z" clip-path="url(#a)" fill="#fff" stroke="#fff"/>
<g clip-path="url(#a)">
<g transform="translate(139.6 544.19) rotate(-86.84) scale(.08 -.08)">
<defs>
<path id="ay" d="m19.672 64.797v-56.688h11.922q15.094 0 22.094 6.8281 7 6.8438 7 21.594 0 14.641-7 21.453t-22.094 6.8125zm-9.8594 8.1094h20.266q21.188 0 31.094-8.8125 9.9219-8.8125 9.9219-27.562 0-18.859-9.9688-27.703-9.9531-8.8281-31.047-8.8281h-20.266z"/>
</defs>
<use xlink:href="#ay"/>
</g>
</g>
<path d="m140.68 538.71 0.097395 4.8228q0.048459 2.3995 2.448 2.3511l7.7409-0.15633q2.3995-0.048458 2.3511-2.448l-0.097396-4.8228q-0.048458-2.3995-2.448-2.3511l-7.7409 0.15633q-2.3995 0.048458-2.3511 2.448z" clip-path="url(#a)" fill="#fff" stroke="#fff"/>
<g clip-path="url(#a)">
<g transform="translate(144.74 538.63) rotate(88.843) scale(.08 -.08)">
<use xlink:href="#v"/>
</g>
</g>
<path d="m157.04 477.86 1.6149 5.2288q0.70823 2.2931 3.0014 1.5849l7.3977-2.2848q2.2931-0.70823 1.5849-3.0014l-1.6149-5.2288q-0.70823-2.2931-3.0014-1.5849l-7.3977 2.2848q-2.2931 0.70823-1.5849 3.0014z" clip-path="url(#a)" fill="#fff" stroke="#fff"/>
<g clip-path="url(#a)">
<g transform="translate(160.92 476.66) rotate(72.837) scale(.08 -.08)">
<use xlink:href="#m"/>
</g>
</g>
<path d="m515.68 479.16 2.9466 4.6115q1.2923 2.0224 3.3146 0.73014l6.5243-4.1689q2.0224-1.2923 0.73014-3.3146l-2.9466-4.6115q-1.2923-2.0224-3.3146-0.73014l-6.5243 4.1689q-2.0224 1.2923-0.73014 3.3146z" clip-path="url(#a)" fill="#fff" stroke="#fff"/>
<g clip-path="url(#a)">
<g transform="translate(519.1 476.97) rotate(57.423) scale(.08 -.08)">
<use xlink:href="#m"/>
</g>
</g>
<path d="m332.04 482.65 1.7919-4.4786q0.89154-2.2283-1.3367-3.1198l-7.1885-2.8761q-2.2283-0.89154-3.1198 1.3367l-1.7919 4.4786q-0.89154 2.2283 1.3367 3.1198l7.1885 2.8761q2.2283 0.89154 3.1198-1.3367z" clip-path="url(#a)" fill="#fff" stroke="#fff"/>
<g clip-path="url(#a)">
<g transform="translate(328.26 481.14) rotate(-68.193) scale(.08 -.08)">
<use xlink:href="#v"/>
</g>
</g>
<path d="m360.93 358.89 3.1792-4.4543q1.3943-1.9535-0.55919-3.3477l-6.3019-4.498q-1.9535-1.3943-3.3477 0.55919l-3.1792 4.4543q-1.3943 1.9535 0.55919 3.3477l6.3019 4.498q1.9535 1.3943 3.3477-0.55919z" clip-path="url(#a)" fill="#fff" stroke="#fff"/>
<g clip-path="url(#a)">
<g transform="translate(357.63 356.53) rotate(-54.483) scale(.08 -.08)">
<use xlink:href="#m"/>
</g>
</g>
<path d="m573.21 541.35 2.4464 4.8952q1.0729 2.1468 3.2197 1.0739l6.9258-3.4612q2.1468-1.0729 1.0739-3.2197l-2.4464-4.8952q-1.0729-2.1468-3.2197-1.0739l-6.9258 3.4612q-2.1468 1.0729-1.0739 3.2197z" clip-path="url(#a)" fill="#fff" stroke="#fff"/>
<g clip-path="url(#a)">
<g transform="translate(576.84 539.53) rotate(63.446) scale(.08 -.08)">
<use xlink:href="#m"/>
</g>
</g>
<path d="m463.4 545.96 2.1588-4.5971q1.0202-2.1724-1.1522-3.1925l-7.0082-3.2911q-2.1724-1.0202-3.1925 1.1522l-2.1588 4.5971q-1.0202 2.1724 1.1522 3.1925l7.0082 3.2911q2.1724 1.0202 3.1925-1.1522z" clip-path="url(#a)" fill="#fff" stroke="#fff"/>
<g clip-path="url(#a)">
<g transform="translate(459.73 544.23) rotate(-64.845) scale(.08 -.08)">
<defs>
<path id="as" d="m53.516 70.516v-9.625q-5.6094 2.6875-10.594 4-4.9844 1.3281-9.625 1.3281-8.0469 0-12.422-3.125t-4.375-8.8906q0-4.8438 2.9062-7.3125 2.9062-2.4531 11.016-3.9688l5.9531-1.2188q11.031-2.1094 16.281-7.4062t5.25-14.172q0-10.609-7.1094-16.078-7.0938-5.4688-20.812-5.4688-5.1719 0-11.016 1.1719-5.8281 1.1719-12.078 3.4688v10.156q6-3.3594 11.766-5.0781 5.7656-1.7031 11.328-1.7031 8.4375 0 13.031 3.3125 4.5938 3.3281 4.5938 9.4844 0 5.3594-3.2969 8.3906t-10.812 4.5469l-6.0156 1.1719q-11.031 2.1875-15.969 6.875-4.9219 4.6875-4.9219 13.047 0 9.6719 6.8125 15.234t18.766 5.5625q5.1406 0 10.453-0.9375 5.3281-0.92188 10.891-2.7656z"/>
</defs>
<use xlink:href="#as"/>
</g>
</g>
<path d="m485.59 545.41 1.5594-5.2456q0.68387-2.3005-1.6166-2.9844l-7.4215-2.2062q-2.3005-0.68387-2.9844 1.6166l-1.5594 5.2456q-0.68387 2.3005 1.6166 2.9844l7.4215 2.2062q2.3005 0.68387 2.9844-1.6166z" clip-path="url(#a)" fill="#fff" stroke="#fff"/>
<g clip-path="url(#a)">
<g transform="translate(481.7 544.25) rotate(-73.444) scale(.08 -.08)">
<use xlink:href="#m"/>
</g>
</g>
<path d="m521.56 481.58 0.18801-5.4693q0.082455-2.3986-2.3161-2.481l-7.7379-0.266q-2.3986-0.082455-2.481 2.3161l-0.18801 5.4693q-0.082455 2.3986 2.3161 2.481l7.7379 0.266q2.3986 0.082454 2.481-2.3161z" clip-path="url(#a)" fill="#fff" stroke="#fff"/>
<g clip-path="url(#a)">
<g transform="translate(517.5 481.44) rotate(-88.031) scale(.08 -.08)">
<use xlink:href="#m"/>
</g>
</g>
<path d="m546.27 539.9 1.6014 5.6318q0.65641 2.3085 2.9649 1.6521l7.4473-2.1176q2.3085-0.65641 1.6521-2.9649l-1.6014-5.6318q-0.65641-2.3085-2.9649-1.6521l-7.4473 2.1176q-2.3085 0.65641-1.6521 2.9649z" clip-path="url(#a)" fill="#fff" stroke="#fff"/>
<g clip-path="url(#a)">
<g transform="translate(550.18 538.78) rotate(74.127) scale(.08 -.08)">
<use xlink:href="#aa"/>
</g>
</g>
<path d="m700.65 418.98 1.1208-5.3565q0.49155-2.3491-1.8576-2.8407l-7.5784-1.5858q-2.3491-0.49155-2.8407 1.8576l-1.1208 5.3565q-0.49156 2.3491 1.8576 2.8407l7.5784 1.5858q2.3491 0.49155 2.8407-1.8576z" clip-path="url(#a)" fill="#fff" stroke="#fff"/>
<g clip-path="url(#a)">
<g transform="translate(696.68 418.15) rotate(-78.181) scale(.08 -.08)">
<use xlink:href="#m"/>
</g>
</g>
<path d="m729.38 418.02 0.46367-4.8014q0.23069-2.3889-2.1582-2.6196l-7.7066-0.74423q-2.3889-0.23069-2.6196 2.1582l-0.46367 4.8014q-0.23069 2.3889 2.1582 2.6196l7.7066 0.74423q2.3889 0.23069 2.6196-2.1582z" clip-path="url(#a)" fill="#fff" stroke="#fff"/>
<g clip-path="url(#a)">
<g transform="translate(725.33 417.63) rotate(-84.484) scale(.08 -.08)">
<use xlink:href="#v"/>
</g>
</g>
<path d="m818.29 230.15 4.2286 3.4738q1.8545 1.5234 3.3779-0.33105l4.9147-5.9827q1.5234-1.8545-0.33105-3.3779l-4.2286-3.4738q-1.8545-1.5234-3.3779 0.33105l-4.9147 5.9827q-1.5234 1.8545 0.33105 3.3779z" clip-path="url(#a)" fill="#fff" stroke="#fff"/>
<g clip-path="url(#a)">
<g transform="translate(820.87 227.01) rotate(39.403) scale(.08 -.08)">
<use xlink:href="#m"/>
</g>
</g>
<path d="m636.27 710.67v33.808q0 2.4 2.4 2.4h7.7425q2.4 0 2.4-2.4v-33.808q0-2.4-2.4-2.4h-7.7425q-2.4 0-2.4 2.4z" clip-path="url(#a)" fill="#fff" stroke="#fff"/>
<g clip-path="url(#a)">
<g transform="translate(640.34 710.67) rotate(90) scale(.08 -.08)">
<defs>
<path id="e" d="m-0.29688 72.906h61.672v-8.3125h-25.875v-64.594h-9.9062v64.594h-25.891z"/>
<path id="l" d="m56.203 29.594v-4.3906h-41.312q0.59375-9.2812 5.5938-14.141t13.938-4.8594q5.1719 0 10.031 1.2656t9.6562 3.8125v-8.5q-4.8438-2.0469-9.9219-3.125t-10.297-1.0781q-13.094 0-20.734 7.6094-7.6406 7.625-7.6406 20.625 0 13.422 7.25 21.297 7.25 7.8906 19.562 7.8906 11.031 0 17.453-7.1094 6.4219-7.0938 6.4219-19.297zm-8.9844 2.6406q-0.09375 7.3594-4.125 11.75-4.0312 4.4062-10.672 4.4062-7.5156 0-12.031-4.25t-5.2031-11.969z"/>
<path id="g" d="m41.109 46.297q-1.5156 0.875-3.2969 1.2812-1.7812 0.42188-3.9219 0.42188-7.625 0-11.703-4.9531t-4.0781-14.234v-28.812h-9.0312v54.688h9.0312v-8.5q2.8438 4.9844 7.375 7.3906 4.5469 2.4219 11.047 2.4219 0.92188 0 2.0469-0.125 1.125-0.10938 2.4844-0.35938z"/>
<path id="i" d="m52 44.188q3.375 6.0625 8.0625 8.9375t11.031 2.875q8.5469 0 13.188-5.9844 4.6406-5.9688 4.6406-17v-33.016h-9.0312v32.719q0 7.8594-2.7969 11.656-2.7812 3.8125-8.4844 3.8125-6.9844 0-11.047-4.6406-4.0469-4.625-4.0469-12.641v-30.906h-9.0312v32.719q0 7.9062-2.7812 11.688t-8.5938 3.7812q-6.8906 0-10.953-4.6562-4.0469-4.6562-4.0469-12.625v-30.906h-9.0312v54.688h9.0312v-8.5q3.0781 5.0312 7.375 7.4219t10.203 2.3906q5.9688 0 10.141-3.0312 4.1719-3.0156 6.1719-8.7812z"/>
<path id="k" d="m9.4219 54.688h8.9844v-54.688h-8.9844zm0 21.297h8.9844v-11.391h-8.9844z"/>
<path id="h" d="m54.891 33.016v-33.016h-8.9844v32.719q0 7.7656-3.0312 11.609-3.0312 3.8594-9.0781 3.8594-7.2812 0-11.484-4.6406-4.2031-4.625-4.2031-12.641v-30.906h-9.0312v54.688h9.0312v-8.5q3.2344 4.9375 7.5938 7.375 4.375 2.4375 10.094 2.4375 9.4219 0 14.25-5.8281 4.8438-5.8281 4.8438-17.156z"/>
<path id="f" d="m34.281 27.484q-10.891 0-15.094-2.4844t-4.2031-8.5q0-4.7812 3.1562-7.5938 3.1562-2.7969 8.5625-2.7969 7.4844 0 12 5.2969t4.5156 14.078v2zm17.922 3.7188v-31.203h-8.9844v8.2969q-3.0781-4.9688-7.6719-7.3438t-11.234-2.375q-8.3906 0-13.359 4.7188-4.9531 4.7188-4.9531 12.625 0 9.2188 6.1719 13.906 6.1875 4.6875 18.438 4.6875h12.609v0.89062q0 6.2031-4.0781 9.5938t-11.453 3.3906q-4.6875 0-9.1406-1.125-4.4375-1.125-8.5312-3.375v8.3125q4.9219 1.9062 9.5625 2.8438 4.6406 0.95312 9.0312 0.95312 11.875 0 17.734-6.1562 5.8594-6.1406 5.8594-18.641z"/>
<path id="j" d="m9.4219 75.984h8.9844v-75.984h-8.9844z"/>
</defs>
<use xlink:href="#e"/>
<use x="44.083984" xlink:href="#l"/>
<use x="105.607422" xlink:href="#g"/>
<use x="144.970703" xlink:href="#i"/>
<use x="242.382812" xlink:href="#k"/>
<use x="270.166016" xlink:href="#h"/>
<use x="333.544922" xlink:href="#f"/>
<use x="394.824219" xlink:href="#j"/>
</g>
</g>
<path d="m692.85 710.67v33.808q0 2.4 2.4 2.4h7.7425q2.4 0 2.4-2.4v-33.808q0-2.4-2.4-2.4h-7.7425q-2.4 0-2.4 2.4z" clip-path="url(#a)" fill="#fff" stroke="#fff"/>
<g clip-path="url(#a)">
<g transform="translate(696.91 710.67) rotate(90) scale(.08 -.08)">
<use xlink:href="#e"/>
<use x="44.083984" xlink:href="#l"/>
<use x="105.607422" xlink:href="#g"/>
<use x="144.970703" xlink:href="#i"/>
<use x="242.382812" xlink:href="#k"/>
<use x="270.166016" xlink:href="#h"/>
<use x="333.544922" xlink:href="#f"/>
<use x="394.824219" xlink:href="#j"/>
</g>
</g>
<path d="m834.65 482.91 1.9734-5.1967q0.85202-2.2437-1.3917-3.0957l-7.2382-2.7487q-2.2437-0.85202-3.0957 1.3917l-1.9734 5.1967q-0.85202 2.2437 1.3917 3.0957l7.2382 2.7487q2.2437 0.85202 3.0957-1.3917z" clip-path="url(#a)" fill="#fff" stroke="#fff"/>
<g clip-path="url(#a)">
<g transform="translate(830.85 481.47) rotate(-69.206) scale(.08 -.08)">
<defs>
<path id="am" d="m44.391 34.188q3.1719-1.0781 6.1719-4.5938t6.0312-9.6719l10.016-19.922h-10.609l-9.3125 18.703q-3.625 7.3281-7.0156 9.7188t-9.25 2.3906h-10.75v-30.812h-9.8594v72.906h22.266q12.5 0 18.656-5.2344 6.1562-5.2188 6.1562-15.766 0-6.8906-3.2031-11.438-3.2031-4.5312-9.2969-6.2812zm-24.719 30.609v-25.875h12.406q7.125 0 10.766 3.2969t3.6406 9.6875-3.6406 9.6406-10.766 3.25z"/>
</defs>
<use xlink:href="#am"/>
</g>
</g>
<path d="m866.36 481.87 1.0622-4.9421q0.5043-2.3464-1.8421-2.8507l-7.5696-1.6269q-2.3464-0.5043-2.8507 1.8421l-1.0622 4.9421q-0.5043 2.3464 1.8421 2.8507l7.5696 1.6269q2.3464 0.5043 2.8507-1.8421z" clip-path="url(#a)" fill="#fff" stroke="#fff"/>
<g clip-path="url(#a)">
<g transform="translate(862.38 481.02) rotate(-77.87) scale(.08 -.08)">
<defs>
<path id="an" d="m9.8125 72.906h46.094v-8.3125h-36.234v-21.578h34.719v-8.2969h-34.719v-26.422h37.109v-8.2969h-46.969z"/>
</defs>
<use xlink:href="#an"/>
</g>
</g>
<path d="m899.23 481.14 0.23965-5.5811q0.10296-2.3978-2.2948-2.5007l-7.7354-0.33215q-2.3978-0.10296-2.5007 2.2948l-0.23965 5.5811q-0.10296 2.3978 2.2948 2.5008l7.7354 0.33215q2.3978 0.10296 2.5008-2.2948z" clip-path="url(#a)" fill="#fff" stroke="#fff"/>
<g clip-path="url(#a)">
<g transform="translate(895.17 480.97) rotate(-87.541) scale(.08 -.08)">
<defs>
<path id="y" d="m64.406 67.281v-10.391q-4.9844 4.6406-10.625 6.9219-5.6406 2.2969-11.984 2.2969-12.5 0-19.141-7.6406t-6.6406-22.094q0-14.406 6.6406-22.047t19.141-7.6406q6.3438 0 11.984 2.2969t10.625 6.9375v-10.312q-5.1719-3.5156-10.969-5.2812-5.7812-1.75-12.219-1.75-16.562 0-26.094 10.125-9.5156 10.141-9.5156 27.672 0 17.578 9.5156 27.703 9.5312 10.141 26.094 10.141 6.5312 0 12.312-1.7344 5.7969-1.7344 10.875-5.2031z"/>
</defs>
<use xlink:href="#y"/>
</g>
</g>
<path d="m989.83 356.83 4.2044 2.8064q1.9962 1.3324 3.3286-0.66377l4.2984-6.4397q1.3324-1.9962-0.66377-3.3286l-4.2044-2.8064q-1.9962-1.3324-3.3286 0.66377l-4.2984 6.4397q-1.3324 1.9962 0.66377 3.3286z" clip-path="url(#a)" fill="#fff" stroke="#fff"/>
<g clip-path="url(#a)">
<g transform="translate(992.08 353.45) rotate(33.722) scale(.08 -.08)">
<use xlink:href="#an"/>
</g>
</g>
<path d="m920.15 476.03 0.79023 5.8014q0.32392 2.378 2.702 2.0541l7.6717-1.045q2.378-0.32392 2.0541-2.702l-0.79023-5.8014q-0.32392-2.378-2.702-2.0541l-7.6717 1.045q-2.378 0.32392-2.0541 2.702z" clip-path="url(#a)" fill="#fff" stroke="#fff"/>
<g clip-path="url(#a)">
<g transform="translate(924.18 475.48) rotate(82.243) scale(.08 -.08)">
<use xlink:href="#aa"/>
</g>
</g>
<path d="m752.12 710.67v33.808q0 2.4 2.4 2.4h7.7425q2.4 0 2.4-2.4v-33.808q0-2.4-2.4-2.4h-7.7425q-2.4 0-2.4 2.4z" clip-path="url(#a)" fill="#fff" stroke="#fff"/>
<g clip-path="url(#a)">
<g transform="translate(756.18 710.67) rotate(90) scale(.08 -.08)">
<use xlink:href="#e"/>
<use x="44.083984" xlink:href="#l"/>
<use x="105.607422" xlink:href="#g"/>
<use x="144.970703" xlink:href="#i"/>
<use x="242.382812" xlink:href="#k"/>
<use x="270.166016" xlink:href="#h"/>
<use x="333.544922" xlink:href="#f"/>
<use x="394.824219" xlink:href="#j"/>
</g>
</g>
<path d="m814.09 710.67v33.808q0 2.4 2.4 2.4h7.7425q2.4 0 2.4-2.4v-33.808q0-2.4-2.4-2.4h-7.7425q-2.4 0-2.4 2.4z" clip-path="url(#a)" fill="#fff" stroke="#fff"/>
<g clip-path="url(#a)">
<g transform="translate(818.15 710.67) rotate(90) scale(.08 -.08)">
<use xlink:href="#e"/>
<use x="44.083984" xlink:href="#l"/>
<use x="105.607422" xlink:href="#g"/>
<use x="144.970703" xlink:href="#i"/>
<use x="242.382812" xlink:href="#k"/>
<use x="270.166016" xlink:href="#h"/>
<use x="333.544922" xlink:href="#f"/>
<use x="394.824219" xlink:href="#j"/>
</g>
</g>
<path d="m878.74 710.67v33.808q0 2.4 2.4 2.4h7.7425q2.4 0 2.4-2.4v-33.808q0-2.4-2.4-2.4h-7.7425q-2.4 0-2.4 2.4z" clip-path="url(#a)" fill="#fff" stroke="#fff"/>
<g clip-path="url(#a)">
<g transform="translate(882.81 710.67) rotate(90) scale(.08 -.08)">
<use xlink:href="#e"/>
<use x="44.083984" xlink:href="#l"/>
<use x="105.607422" xlink:href="#g"/>
<use x="144.970703" xlink:href="#i"/>
<use x="242.382812" xlink:href="#k"/>
<use x="270.166016" xlink:href="#h"/>
<use x="333.544922" xlink:href="#f"/>
<use x="394.824219" xlink:href="#j"/>
</g>
</g>
<path d="m990.46 547.08 3.4653-4.2356q1.5197-1.8575-0.33781-3.3773l-5.9925-4.9027q-1.8575-1.5197-3.3773 0.33781l-3.4653 4.2356q-1.5197 1.8575 0.33781 3.3773l5.9925 4.9027q1.8575 1.5197 3.3773-0.33781z" clip-path="url(#a)" fill="#fff" stroke="#fff"/>
<g clip-path="url(#a)">
<g transform="translate(987.31 544.51) rotate(-50.712) scale(.08 -.08)">
<use xlink:href="#m"/>
</g>
</g>
<path d="m1061.4 545.31 1.4432-5.3681q0.62308-2.3177-1.6946-2.9408l-7.477-2.0101q-2.3177-0.62308-2.9408 1.6946l-1.4432 5.3681q-0.62308 2.3177 1.6946 2.9408l7.477 2.0101q2.3177 0.62308 2.9408-1.6946z" clip-path="url(#a)" fill="#fff" stroke="#fff"/>
<g clip-path="url(#a)">
<g transform="translate(1057.4 544.25) rotate(-74.953) scale(.08 -.08)">
<use xlink:href="#am"/>
</g>
</g>
<path d="m1086.1 538.72 0.10596 4.8226q0.05272 2.3994 2.4521 2.3467l7.7406-0.17008q2.3994-0.052721 2.3467-2.4521l-0.10596-4.8226q-0.05272-2.3994-2.4521-2.3467l-7.7406 0.17008q-2.3994 0.05272-2.3467 2.4521z" clip-path="url(#a)" fill="#fff" stroke="#fff"/>
<g clip-path="url(#a)">
<g transform="translate(1090.1 538.63) rotate(88.741) scale(.08 -.08)">
<use xlink:href="#v"/>
</g>
</g>
<path d="m1123.3 540.32 1.6846 5.2067q0.73881 2.2835 3.0223 1.5446l7.3665-2.3834q2.2835-0.73881 1.5446-3.0223l-1.6846-5.2067q-0.73881-2.2835-3.0223-1.5446l-7.3665 2.3834q-2.2835 0.73881-1.5446 3.0223z" clip-path="url(#a)" fill="#fff" stroke="#fff"/>
<g clip-path="url(#a)">
<g transform="translate(1127.2 539.07) rotate(72.071) scale(.08 -.08)">
<use xlink:href="#m"/>
</g>
</g>
<path d="m1176.6 482.29 4.5335 3.0652q1.9882 1.3443 3.3325-0.64395l4.3366-6.414q1.3443-1.9882-0.64395-3.3325l-4.5335-3.0652q-1.9882-1.3443-3.3325 0.64395l-4.3366 6.414q-1.3443 1.9882 0.64395 3.3325z" clip-path="url(#a)" fill="#fff" stroke="#fff"/>
<g clip-path="url(#a)">
<g transform="translate(1178.9 478.92) rotate(34.063) scale(.08 -.08)">
<use xlink:href="#m"/>
</g>
</g>
<path d="m1016.1 710.67v33.808q0 2.4 2.4 2.4h7.7425q2.4 0 2.4-2.4v-33.808q0-2.4-2.4-2.4h-7.7425q-2.4 0-2.4 2.4z" clip-path="url(#a)" fill="#fff" stroke="#fff"/>
<g clip-path="url(#a)">
<g transform="translate(1020.2 710.67) rotate(90) scale(.08 -.08)">
<use xlink:href="#e"/>
<use x="44.083984" xlink:href="#l"/>
<use x="105.607422" xlink:href="#g"/>
<use x="144.970703" xlink:href="#i"/>
<use x="242.382812" xlink:href="#k"/>
<use x="270.166016" xlink:href="#h"/>
<use x="333.544922" xlink:href="#f"/>
<use x="394.824219" xlink:href="#j"/>
</g>
</g>
<path d="m1088.9 710.67v33.808q0 2.4 2.4 2.4h7.7425q2.4 0 2.4-2.4v-33.808q0-2.4-2.4-2.4h-7.7425q-2.4 0-2.4 2.4z" clip-path="url(#a)" fill="#fff" stroke="#fff"/>
<g clip-path="url(#a)">
<g transform="translate(1092.9 710.67) rotate(90) scale(.08 -.08)">
<use xlink:href="#e"/>
<use x="44.083984" xlink:href="#l"/>
<use x="105.607422" xlink:href="#g"/>
<use x="144.970703" xlink:href="#i"/>
<use x="242.382812" xlink:href="#k"/>
<use x="270.166016" xlink:href="#h"/>
<use x="333.544922" xlink:href="#f"/>
<use x="394.824219" xlink:href="#j"/>
</g>
</g>
<path d="m1164.3 710.67v33.808q0 2.4 2.4 2.4h7.7425q2.4 0 2.4-2.4v-33.808q0-2.4-2.4-2.4h-7.7425q-2.4 0-2.4 2.4z" clip-path="url(#a)" fill="#fff" stroke="#fff"/>
<g clip-path="url(#a)">
<g transform="translate(1168.4 710.67) rotate(90) scale(.08 -.08)">
<use xlink:href="#e"/>
<use x="44.083984" xlink:href="#l"/>
<use x="105.607422" xlink:href="#g"/>
<use x="144.970703" xlink:href="#i"/>
<use x="242.382812" xlink:href="#k"/>
<use x="270.166016" xlink:href="#h"/>
<use x="333.544922" xlink:href="#f"/>
<use x="394.824219" xlink:href="#j"/>
</g>
</g>
<path d="m1079.4 610.5 5.2125-1.6667q2.286-0.73096 1.555-3.0169l-2.3581-7.3747q-0.73096-2.286-3.0169-1.555l-5.2125 1.6667q-2.286 0.73096-1.555 3.0169l2.3581 7.3747q0.73096 2.286 3.0169 1.555z" clip-path="url(#a)" fill="#fff" stroke="#fff"/>
<g clip-path="url(#a)">
<g transform="translate(1078.1 606.63) rotate(-17.732) scale(.08 -.08)">
<use xlink:href="#m"/>
</g>
</g>
<path d="m1267.4 608 1.2756-6.0265q0.49697-2.348-1.851-2.845l-7.5747-1.6033q-2.348-0.49697-2.845 1.851l-1.2756 6.0265q-0.49697 2.348 1.851 2.845l7.5747 1.6033q2.348 0.49697 2.845-1.851z" clip-path="url(#a)" fill="#fff" stroke="#fff"/>
<g clip-path="url(#a)">
<g transform="translate(1263.4 607.16) rotate(-78.049) scale(.08 -.08)">
<use xlink:href="#ay"/>
</g>
</g>
<path d="m1295.6 603.87 2.0309 4.655q0.95971 2.1998 3.1595 1.2401l7.0965-3.0961q2.1998-0.95971 1.2401-3.1595l-2.0309-4.655q-0.95971-2.1998-3.1595-1.2401l-7.0965 3.0961q-2.1998 0.9597-1.2401 3.1595z" clip-path="url(#a)" fill="#fff" stroke="#fff"/>
<g clip-path="url(#a)">
<g transform="translate(1299.3 602.25) rotate(66.429) scale(.08 -.08)">
<use xlink:href="#as"/>
</g>
</g>
<path d="m1337.7 606.38 4.3427 3.9271q1.7801 1.6098 3.3898-0.17033l5.1931-5.7426q1.6098-1.7801-0.17033-3.3898l-4.3427-3.9271q-1.7801-1.6098-3.3898 0.17033l-5.1931 5.7426q-1.6098 1.7801 0.17033 3.3898z" clip-path="url(#a)" fill="#fff" stroke="#fff"/>
<g clip-path="url(#a)">
<g transform="translate(1340.4 603.37) rotate(42.123) scale(.08 -.08)">
<use xlink:href="#aa"/>
</g>
</g>
<path d="m1381.6 607.75 5.1161 2.8471q2.0971 1.1671 3.2642-0.93008l3.765-6.7654q1.1671-2.0971-0.93008-3.2642l-5.1161-2.8471q-2.0971-1.1671-3.2642 0.93008l-3.765 6.7654q-1.1671 2.0971 0.93008 3.2642z" clip-path="url(#a)" fill="#fff" stroke="#fff"/>
<g clip-path="url(#a)">
<g transform="translate(1383.6 604.2) rotate(29.096) scale(.08 -.08)">
<use xlink:href="#aa"/>
</g>
</g>
<path d="m1242.4 710.67v33.808q0 2.4 2.4 2.4h7.7425q2.4 0 2.4-2.4v-33.808q0-2.4-2.4-2.4h-7.7425q-2.4 0-2.4 2.4z" clip-path="url(#a)" fill="#fff" stroke="#fff"/>
<g clip-path="url(#a)">
<g transform="translate(1246.5 710.67) rotate(90) scale(.08 -.08)">
<use xlink:href="#e"/>
<use x="44.083984" xlink:href="#l"/>
<use x="105.607422" xlink:href="#g"/>
<use x="144.970703" xlink:href="#i"/>
<use x="242.382812" xlink:href="#k"/>
<use x="270.166016" xlink:href="#h"/>
<use x="333.544922" xlink:href="#f"/>
<use x="394.824219" xlink:href="#j"/>
</g>
</g>
<path d="m1323.3 710.67v33.808q0 2.4 2.4 2.4h7.7425q2.4 0 2.4-2.4v-33.808q0-2.4-2.4-2.4h-7.7425q-2.4 0-2.4 2.4z" clip-path="url(#a)" fill="#fff" stroke="#fff"/>
<g clip-path="url(#a)">
<g transform="translate(1327.3 710.67) rotate(90) scale(.08 -.08)">
<use xlink:href="#e"/>
<use x="44.083984" xlink:href="#l"/>
<use x="105.607422" xlink:href="#g"/>
<use x="144.970703" xlink:href="#i"/>
<use x="242.382812" xlink:href="#k"/>
<use x="270.166016" xlink:href="#h"/>
<use x="333.544922" xlink:href="#f"/>
<use x="394.824219" xlink:href="#j"/>
</g>
</g>
<path d="m393.8 710.67v33.808q0 2.4 2.4 2.4h7.7425q2.4 0 2.4-2.4v-33.808q0-2.4-2.4-2.4h-7.7425q-2.4 0-2.4 2.4z" clip-path="url(#a)" fill="#fff" stroke="#fff"/>
<g clip-path="url(#a)">
<g transform="translate(397.87 710.67) rotate(90) scale(.08 -.08)">
<use xlink:href="#e"/>
<use x="44.083984" xlink:href="#l"/>
<use x="105.607422" xlink:href="#g"/>
<use x="144.970703" xlink:href="#i"/>
<use x="242.382812" xlink:href="#k"/>
<use x="270.166016" xlink:href="#h"/>
<use x="333.544922" xlink:href="#f"/>
<use x="394.824219" xlink:href="#j"/>
</g>
</g>
<path d="m436.91 710.67v33.808q0 2.4 2.4 2.4h7.7425q2.4 0 2.4-2.4v-33.808q0-2.4-2.4-2.4h-7.7425q-2.4 0-2.4 2.4z" clip-path="url(#a)" fill="#fff" stroke="#fff"/>
<g clip-path="url(#a)">
<g transform="translate(440.97 710.67) rotate(90) scale(.08 -.08)">
<use xlink:href="#e"/>
<use x="44.083984" xlink:href="#l"/>
<use x="105.607422" xlink:href="#g"/>
<use x="144.970703" xlink:href="#i"/>
<use x="242.382812" xlink:href="#k"/>
<use x="270.166016" xlink:href="#h"/>
<use x="333.544922" xlink:href="#f"/>
<use x="394.824219" xlink:href="#j"/>
</g>
</g>
<path d="m506.73 607.62 1.0607-5.4566q0.45794-2.3559-1.898-2.8138l-7.6002-1.4773q-2.3559-0.45794-2.8138 1.898l-1.0607 5.4566q-0.45794 2.3559 1.898 2.8138l7.6002 1.4773q2.3559 0.45794 2.8138-1.898z" clip-path="url(#a)" fill="#fff" stroke="#fff"/>
<g clip-path="url(#a)">
<g transform="translate(502.74 606.84) rotate(-79) scale(.08 -.08)">
<use xlink:href="#am"/>
</g>
</g>
<path d="m518.66 602.15 1.0659 5.4836q0.45794 2.3559 2.8138 1.898l7.6002-1.4773q2.3559-0.45794 1.898-2.8138l-1.0659-5.4836q-0.45794-2.3559-2.8138-1.898l-7.6002 1.4773q-2.3559 0.45794-1.898 2.8138z" clip-path="url(#a)" fill="#fff" stroke="#fff"/>
<g clip-path="url(#a)">
<g transform="translate(522.65 601.37) rotate(79) scale(.08 -.08)">
<use xlink:href="#y"/>
</g>
</g>
<path d="m482.71 710.67v33.808q0 2.4 2.4 2.4h7.7425q2.4 0 2.4-2.4v-33.808q0-2.4-2.4-2.4h-7.7425q-2.4 0-2.4 2.4z" clip-path="url(#a)" fill="#fff" stroke="#fff"/>
<g clip-path="url(#a)">
<g transform="translate(486.77 710.67) rotate(90) scale(.08 -.08)">
<use xlink:href="#e"/>
<use x="44.083984" xlink:href="#l"/>
<use x="105.607422" xlink:href="#g"/>
<use x="144.970703" xlink:href="#i"/>
<use x="242.382812" xlink:href="#k"/>
<use x="270.166016" xlink:href="#h"/>
<use x="333.544922" xlink:href="#f"/>
<use x="394.824219" xlink:href="#j"/>
</g>
</g>
<path d="m531.2 710.67v33.808q0 2.4 2.4 2.4h7.7425q2.4 0 2.4-2.4v-33.808q0-2.4-2.4-2.4h-7.7425q-2.4 0-2.4 2.4z" clip-path="url(#a)" fill="#fff" stroke="#fff"/>
<g clip-path="url(#a)">
<g transform="translate(535.27 710.67) rotate(90) scale(.08 -.08)">
<use xlink:href="#e"/>
<use x="44.083984" xlink:href="#l"/>
<use x="105.607422" xlink:href="#g"/>
<use x="144.970703" xlink:href="#i"/>
<use x="242.382812" xlink:href="#k"/>
<use x="270.166016" xlink:href="#h"/>
<use x="333.544922" xlink:href="#f"/>
<use x="394.824219" xlink:href="#j"/>
</g>
</g>
<path d="m245.63 710.67v33.808q0 2.4 2.4 2.4h7.7425q2.4 0 2.4-2.4v-33.808q0-2.4-2.4-2.4h-7.7425q-2.4 0-2.4 2.4z" clip-path="url(#a)" fill="#fff" stroke="#fff"/>
<g clip-path="url(#a)">
<g transform="translate(249.69 710.67) rotate(90) scale(.08 -.08)">
<use xlink:href="#e"/>
<use x="44.083984" xlink:href="#l"/>
<use x="105.607422" xlink:href="#g"/>
<use x="144.970703" xlink:href="#i"/>
<use x="242.382812" xlink:href="#k"/>
<use x="270.166016" xlink:href="#h"/>
<use x="333.544922" xlink:href="#f"/>
<use x="394.824219" xlink:href="#j"/>
</g>
</g>
<path d="m313.87 481.62 0.37906-5.0408q0.17997-2.3932-2.2133-2.5732l-7.7207-0.58058q-2.3932-0.17997-2.5732 2.2133l-0.37906 5.0408q-0.17997 2.3932 2.2133 2.5732l7.7207 0.58058q2.3932 0.17997 2.5732-2.2133z" clip-path="url(#a)" fill="#fff" stroke="#fff"/>
<g clip-path="url(#a)">
<g transform="translate(309.81 481.31) rotate(-85.7) scale(.08 -.08)">
<use xlink:href="#an"/>
</g>
</g>
<path d="m310.86 538.44 0.21044 5.5823q0.090409 2.3983 2.4887 2.3079l7.737-0.29166q2.3983-0.09041 2.3079-2.4887l-0.21044-5.5823q-0.09041-2.3983-2.4887-2.3079l-7.737 0.29166q-2.3983 0.090409-2.3079 2.4887z" clip-path="url(#a)" fill="#fff" stroke="#fff"/>
<g clip-path="url(#a)">
<g transform="translate(314.92 538.29) rotate(87.841) scale(.08 -.08)">
<use xlink:href="#y"/>
</g>
</g>
<path d="m305.91 601.92 0.81806 5.411q0.35877 2.373 2.7318 2.0143l7.6555-1.1574q2.373-0.35877 2.0143-2.7318l-0.81806-5.411q-0.35877-2.373-2.7318-2.0143l-7.6555 1.1574q-2.373 0.35877-2.0143 2.7318z" clip-path="url(#a)" fill="#fff" stroke="#fff"/>
<g clip-path="url(#a)">
<g transform="translate(309.93 601.32) rotate(81.403) scale(.08 -.08)">
<use xlink:href="#m"/>
</g>
</g>
<path d="m300.87 607.21 0.70328-5.4271q0.30843-2.3801-2.0717-2.6885l-7.6783-0.99501q-2.3801-0.30843-2.6885 2.0717l-0.70328 5.4271q-0.30843 2.3801 2.0717 2.6885l7.6783 0.99501q2.3801 0.30843 2.6885-2.0717z" clip-path="url(#a)" fill="#fff" stroke="#fff"/>
<g clip-path="url(#a)">
<g transform="translate(296.84 606.69) rotate(-82.616) scale(.08 -.08)">
<use xlink:href="#m"/>
</g>
</g>
<path d="m299.5 607.01 0.72108-4.7695q0.35877-2.373-2.0143-2.7318l-7.6555-1.1574q-2.373-0.35877-2.7318 2.0143l-0.72108 4.7696q-0.35877 2.373 2.0143 2.7318l7.6555 1.1574q2.373 0.35877 2.7318-2.0143z" clip-path="url(#a)" fill="#fff" stroke="#fff"/>
<g clip-path="url(#a)">
<g transform="translate(295.48 606.41) rotate(-81.403) scale(.08 -.08)">
<use xlink:href="#v"/>
</g>
</g>
<path d="m315.68 710.67v33.808q0 2.4 2.4 2.4h7.7425q2.4 0 2.4-2.4v-33.808q0-2.4-2.4-2.4h-7.7425q-2.4 0-2.4 2.4z" clip-path="url(#a)" fill="#fff" stroke="#fff"/>
<g clip-path="url(#a)">
<g transform="translate(319.74 710.67) rotate(90) scale(.08 -.08)">
<use xlink:href="#e"/>
<use x="44.083984" xlink:href="#l"/>
<use x="105.607422" xlink:href="#g"/>
<use x="144.970703" xlink:href="#i"/>
<use x="242.382812" xlink:href="#k"/>
<use x="270.166016" xlink:href="#h"/>
<use x="333.544922" xlink:href="#f"/>
<use x="394.824219" xlink:href="#j"/>
</g>
</g>
<path d="m277.96 710.67v33.808q0 2.4 2.4 2.4h7.7425q2.4 0 2.4-2.4v-33.808q0-2.4-2.4-2.4h-7.7425q-2.4 0-2.4 2.4z" clip-path="url(#a)" fill="#fff" stroke="#fff"/>
<g clip-path="url(#a)">
<g transform="translate(282.02 710.67) rotate(90) scale(.08 -.08)">
<use xlink:href="#e"/>
<use x="44.083984" xlink:href="#l"/>
<use x="105.607422" xlink:href="#g"/>
<use x="144.970703" xlink:href="#i"/>
<use x="242.382812" xlink:href="#k"/>
<use x="270.166016" xlink:href="#h"/>
<use x="333.544922" xlink:href="#f"/>
<use x="394.824219" xlink:href="#j"/>
</g>
</g>
<path d="m108.23 710.67v33.808q0 2.4 2.4 2.4h7.7425q2.4 0 2.4-2.4v-33.808q0-2.4-2.4-2.4h-7.7425q-2.4 0-2.4 2.4z" clip-path="url(#a)" fill="#fff" stroke="#fff"/>
<g clip-path="url(#a)">
<g transform="translate(112.29 710.67) rotate(90) scale(.08 -.08)">
<use xlink:href="#e"/>
<use x="44.083984" xlink:href="#l"/>
<use x="105.607422" xlink:href="#g"/>
<use x="144.970703" xlink:href="#i"/>
<use x="242.382812" xlink:href="#k"/>
<use x="270.166016" xlink:href="#h"/>
<use x="333.544922" xlink:href="#f"/>
<use x="394.824219" xlink:href="#j"/>
</g>
</g>
<path d="m124.39 710.67v33.808q0 2.4 2.4 2.4h7.7425q2.4 0 2.4-2.4v-33.808q0-2.4-2.4-2.4h-7.7425q-2.4 0-2.4 2.4z" clip-path="url(#a)" fill="#fff" stroke="#fff"/>
<g clip-path="url(#a)">
<g transform="translate(128.46 710.67) rotate(90) scale(.08 -.08)">
<use xlink:href="#e"/>
<use x="44.083984" xlink:href="#l"/>
<use x="105.607422" xlink:href="#g"/>
<use x="144.970703" xlink:href="#i"/>
<use x="242.382812" xlink:href="#k"/>
<use x="270.166016" xlink:href="#h"/>
<use x="333.544922" xlink:href="#f"/>
<use x="394.824219" xlink:href="#j"/>
</g>
</g>
<path d="m143.25 710.67v33.808q0 2.4 2.4 2.4h7.7425q2.4 0 2.4-2.4v-33.808q0-2.4-2.4-2.4h-7.7425q-2.4 0-2.4 2.4z" clip-path="url(#a)" fill="#fff" stroke="#fff"/>
<g clip-path="url(#a)">
<g transform="translate(147.32 710.67) rotate(90) scale(.08 -.08)">
<use xlink:href="#e"/>
<use x="44.083984" xlink:href="#l"/>
<use x="105.607422" xlink:href="#g"/>
<use x="144.970703" xlink:href="#i"/>
<use x="242.382812" xlink:href="#k"/>
<use x="270.166016" xlink:href="#h"/>
<use x="333.544922" xlink:href="#f"/>
<use x="394.824219" xlink:href="#j"/>
</g>
</g>
<path d="m183.11 607.07 0.53772-5.5327q0.23216-2.3887-2.1566-2.6209l-7.7062-0.74897q-2.3887-0.23216-2.6209 2.1566l-0.53772 5.5327q-0.23216 2.3887 2.1566 2.6209l7.7062 0.74897q2.3887 0.23216 2.6209-2.1566z" clip-path="url(#a)" fill="#fff" stroke="#fff"/>
<g clip-path="url(#a)">
<g transform="translate(179.07 606.67) rotate(-84.449) scale(.08 -.08)">
<use xlink:href="#am"/>
</g>
</g>
<path d="m182.75 601.52 0.54038 5.5601q0.23216 2.3887 2.6209 2.1566l7.7062-0.74897q2.3887-0.23216 2.1566-2.6209l-0.54038-5.5601q-0.23216-2.3887-2.6209-2.1566l-7.7062 0.74897q-2.3887 0.23216-2.1566 2.6209z" clip-path="url(#a)" fill="#fff" stroke="#fff"/>
<g clip-path="url(#a)">
<g transform="translate(186.79 601.13) rotate(84.449) scale(.08 -.08)">
<use xlink:href="#y"/>
</g>
</g>
<path d="m164.8 710.67v33.808q0 2.4 2.4 2.4h7.7425q2.4 0 2.4-2.4v-33.808q0-2.4-2.4-2.4h-7.7425q-2.4 0-2.4 2.4z" clip-path="url(#a)" fill="#fff" stroke="#fff"/>
<g clip-path="url(#a)">
<g transform="translate(168.87 710.67) rotate(90) scale(.08 -.08)">
<use xlink:href="#e"/>
<use x="44.083984" xlink:href="#l"/>
<use x="105.607422" xlink:href="#g"/>
<use x="144.970703" xlink:href="#i"/>
<use x="242.382812" xlink:href="#k"/>
<use x="270.166016" xlink:href="#h"/>
<use x="333.544922" xlink:href="#f"/>
<use x="394.824219" xlink:href="#j"/>
</g>
</g>
<path d="m189.05 710.67v33.808q0 2.4 2.4 2.4h7.7425q2.4 0 2.4-2.4v-33.808q0-2.4-2.4-2.4h-7.7425q-2.4 0-2.4 2.4z" clip-path="url(#a)" fill="#fff" stroke="#fff"/>
<g clip-path="url(#a)">
<g transform="translate(193.12 710.67) rotate(90) scale(.08 -.08)">
<use xlink:href="#e"/>
<use x="44.083984" xlink:href="#l"/>
<use x="105.607422" xlink:href="#g"/>
<use x="144.970703" xlink:href="#i"/>
<use x="242.382812" xlink:href="#k"/>
<use x="270.166016" xlink:href="#h"/>
<use x="333.544922" xlink:href="#f"/>
<use x="394.824219" xlink:href="#j"/>
</g>
</g>
<path d="m76.318 476.84 0.596 5.0437q0.28164 2.3834 2.6651 2.1018l7.689-0.9086q2.3834-0.28164 2.1018-2.6651l-0.596-5.0437q-0.28164-2.3834-2.6651-2.1018l-7.689 0.9086q-2.3834 0.28164-2.1018 2.6651z" clip-path="url(#a)" fill="#fff" stroke="#fff"/>
<g clip-path="url(#a)">
<g transform="translate(80.354 476.36) rotate(83.261) scale(.08 -.08)">
<use xlink:href="#as"/>
</g>
</g>
<path d="m69.164 475.89v5.4725q0 2.4 2.4 2.4h7.7425q2.4 0 2.4-2.4v-5.4725q0-2.4-2.4-2.4h-7.7425q-2.4 0-2.4 2.4z" clip-path="url(#a)" fill="#fff" stroke="#fff"/>
<g clip-path="url(#a)">
<g transform="translate(73.228 475.89) rotate(90) scale(.08 -.08)">
<use xlink:href="#m"/>
</g>
</g>
<path d="m76.295 476.64 0.64221 5.4347q0.28164 2.3834 2.6651 2.1018l7.689-0.9086q2.3834-0.28164 2.1018-2.6651l-0.64221-5.4347q-0.28164-2.3834-2.6651-2.1018l-7.689 0.9086q-2.3834 0.28164-2.1018 2.6651z" clip-path="url(#a)" fill="#fff" stroke="#fff"/>
<g clip-path="url(#a)">
<g transform="translate(80.331 476.17) rotate(83.261) scale(.08 -.08)">
<use xlink:href="#m"/>
</g>
</g>
<path d="m79.601 606.42 0.16368-5.0523q0.077712-2.3987-2.321-2.4765l-7.7384-0.2507q-2.3987-0.077711-2.4765 2.321l-0.16368 5.0524q-0.077711 2.3987 2.321 2.4765l7.7384 0.2507q2.3987 0.077712 2.4765-2.321z" clip-path="url(#a)" fill="#fff" stroke="#fff"/>
<g clip-path="url(#a)">
<g transform="translate(75.539 606.29) rotate(-88.144) scale(.08 -.08)">
<use xlink:href="#an"/>
</g>
</g>
<path d="m71.097 601.1 0.18088 5.5833q0.077712 2.3987 2.4765 2.321l7.7384-0.2507q2.3987-0.077711 2.321-2.4765l-0.18088-5.5833q-0.077712-2.3987-2.4765-2.321l-7.7384 0.2507q-2.3987 0.077712-2.321 2.4765z" clip-path="url(#a)" fill="#fff" stroke="#fff"/>
<g clip-path="url(#a)">
<g transform="translate(75.159 600.97) rotate(88.144) scale(.08 -.08)">
<use xlink:href="#y"/>
</g>
</g>
<path d="m65.123 710.67v33.808q0 2.4 2.4 2.4h7.7425q2.4 0 2.4-2.4v-33.808q0-2.4-2.4-2.4h-7.7425q-2.4 0-2.4 2.4z" clip-path="url(#a)" fill="#fff" stroke="#fff"/>
<g clip-path="url(#a)">
<g transform="translate(69.186 710.67) rotate(90) scale(.08 -.08)">
<use xlink:href="#e"/>
<use x="44.083984" xlink:href="#l"/>
<use x="105.607422" xlink:href="#g"/>
<use x="144.970703" xlink:href="#i"/>
<use x="242.382812" xlink:href="#k"/>
<use x="270.166016" xlink:href="#h"/>
<use x="333.544922" xlink:href="#f"/>
<use x="394.824219" xlink:href="#j"/>
</g>
</g>
<path d="m73.205 710.67v33.808q0 2.4 2.4 2.4h7.7425q2.4 0 2.4-2.4v-33.808q0-2.4-2.4-2.4h-7.7425q-2.4 0-2.4 2.4z" clip-path="url(#a)" fill="#fff" stroke="#fff"/>
<g clip-path="url(#a)">
<g transform="translate(77.269 710.67) rotate(90) scale(.08 -.08)">
<use xlink:href="#e"/>
<use x="44.083984" xlink:href="#l"/>
<use x="105.607422" xlink:href="#g"/>
<use x="144.970703" xlink:href="#i"/>
<use x="242.382812" xlink:href="#k"/>
<use x="270.166016" xlink:href="#h"/>
<use x="333.544922" xlink:href="#f"/>
<use x="394.824219" xlink:href="#j"/>
</g>
</g>
<path d="m94.758 710.67v33.808q0 2.4 2.4 2.4h7.7425q2.4 0 2.4-2.4v-33.808q0-2.4-2.4-2.4h-7.7425q-2.4 0-2.4 2.4z" clip-path="url(#a)" fill="#fff" stroke="#fff"/>
<g clip-path="url(#a)">
<g transform="translate(98.822 710.67) rotate(90) scale(.08 -.08)">
<use xlink:href="#e"/>
<use x="44.083984" xlink:href="#l"/>
<use x="105.607422" xlink:href="#g"/>
<use x="144.970703" xlink:href="#i"/>
<use x="242.382812" xlink:href="#k"/>
<use x="270.166016" xlink:href="#h"/>
<use x="333.544922" xlink:href="#f"/>
<use x="394.824219" xlink:href="#j"/>
</g>
</g>
<path d="m215.99 710.67v33.808q0 2.4 2.4 2.4h7.7425q2.4 0 2.4-2.4v-33.808q0-2.4-2.4-2.4h-7.7425q-2.4 0-2.4 2.4z" clip-path="url(#a)" fill="#fff" stroke="#fff"/>
<g clip-path="url(#a)">
<g transform="translate(220.06 710.67) rotate(90) scale(.08 -.08)">
<use xlink:href="#e"/>
<use x="44.083984" xlink:href="#l"/>
<use x="105.607422" xlink:href="#g"/>
<use x="144.970703" xlink:href="#i"/>
<use x="242.382812" xlink:href="#k"/>
<use x="270.166016" xlink:href="#h"/>
<use x="333.544922" xlink:href="#f"/>
<use x="394.824219" xlink:href="#j"/>
</g>
</g>
<path d="m353.39 710.67v33.808q0 2.4 2.4 2.4h7.7425q2.4 0 2.4-2.4v-33.808q0-2.4-2.4-2.4h-7.7425q-2.4 0-2.4 2.4z" clip-path="url(#a)" fill="#fff" stroke="#fff"/>
<g clip-path="url(#a)">
<g transform="translate(357.46 710.67) rotate(90) scale(.08 -.08)">
<use xlink:href="#e"/>
<use x="44.083984" xlink:href="#l"/>
<use x="105.607422" xlink:href="#g"/>
<use x="144.970703" xlink:href="#i"/>
<use x="242.382812" xlink:href="#k"/>
<use x="270.166016" xlink:href="#h"/>
<use x="333.544922" xlink:href="#f"/>
<use x="394.824219" xlink:href="#j"/>
</g>
</g>
<path d="m582.39 710.67v33.808q0 2.4 2.4 2.4h7.7425q2.4 0 2.4-2.4v-33.808q0-2.4-2.4-2.4h-7.7425q-2.4 0-2.4 2.4z" clip-path="url(#a)" fill="#fff" stroke="#fff"/>
<g clip-path="url(#a)">
<g transform="translate(586.46 710.67) rotate(90) scale(.08 -.08)">
<use xlink:href="#e"/>
<use x="44.083984" xlink:href="#l"/>
<use x="105.607422" xlink:href="#g"/>
<use x="144.970703" xlink:href="#i"/>
<use x="242.382812" xlink:href="#k"/>
<use x="270.166016" xlink:href="#h"/>
<use x="333.544922" xlink:href="#f"/>
<use x="394.824219" xlink:href="#j"/>
</g>
</g>
<path d="m946.1 710.67v33.808q0 2.4 2.4 2.4h7.7425q2.4 0 2.4-2.4v-33.808q0-2.4-2.4-2.4h-7.7425q-2.4 0-2.4 2.4z" clip-path="url(#a)" fill="#fff" stroke="#fff"/>
<g clip-path="url(#a)">
<g transform="translate(950.16 710.67) rotate(90) scale(.08 -.08)">
<use xlink:href="#e"/>
<use x="44.083984" xlink:href="#l"/>
<use x="105.607422" xlink:href="#g"/>
<use x="144.970703" xlink:href="#i"/>
<use x="242.382812" xlink:href="#k"/>
<use x="270.166016" xlink:href="#h"/>
<use x="333.544922" xlink:href="#f"/>
<use x="394.824219" xlink:href="#j"/>
</g>
</g>
<path d="m1406.8 710.67v33.808q0 2.4 2.4 2.4h7.7425q2.4 0 2.4-2.4v-33.808q0-2.4-2.4-2.4h-7.7425q-2.4 0-2.4 2.4z" clip-path="url(#a)" fill="#fff" stroke="#fff"/>
<g clip-path="url(#a)">
<g transform="translate(1410.9 710.67) rotate(90) scale(.08 -.08)">
<use xlink:href="#e"/>
<use x="44.083984" xlink:href="#l"/>
<use x="105.607422" xlink:href="#g"/>
<use x="144.970703" xlink:href="#i"/>
<use x="242.382812" xlink:href="#k"/>
<use x="270.166016" xlink:href="#h"/>
<use x="333.544922" xlink:href="#f"/>
<use x="394.824219" xlink:href="#j"/>
</g>
</g>
<path d="m1493 710.67v33.808q0 2.4 2.4 2.4h7.7425q2.4 0 2.4-2.4v-33.808q0-2.4-2.4-2.4h-7.7425q-2.4 0-2.4 2.4z" clip-path="url(#a)" fill="#fff" stroke="#fff"/>
<g clip-path="url(#a)">
<g transform="translate(1497.1 710.67) rotate(90) scale(.08 -.08)">
<use xlink:href="#e"/>
<use x="44.083984" xlink:href="#l"/>
<use x="105.607422" xlink:href="#g"/>
<use x="144.970703" xlink:href="#i"/>
<use x="242.382812" xlink:href="#k"/>
<use x="270.166016" xlink:href="#h"/>
<use x="333.544922" xlink:href="#f"/>
<use x="394.824219" xlink:href="#j"/>
</g>
</g>
<defs>
<path id="b" d="m0 8.6603c2.2967 0 4.4997-0.9125 6.1237-2.5365 1.624-1.624 2.5365-3.827 2.5365-6.1237s-0.9125-4.4997-2.5365-6.1237c-1.624-1.624-3.827-2.5365-6.1237-2.5365s-4.4997 0.9125-6.1237 2.5365c-1.624 1.624-2.5365 3.827-2.5365 6.1237s0.9125 4.4997 2.5365 6.1237c1.624 1.624 3.827 2.5365 6.1237 2.5365z"/>
</defs>
<g clip-path="url(#a)" fill="#ffffff" stroke="#ffffff">
<use x="71.393939" y="789.090909" xlink:href="#b"/>
<use x="79.476272" y="789.090909" xlink:href="#b"/>
<use x="101.02916" y="789.090909" xlink:href="#b"/>
<use x="114.499714" y="789.090909" xlink:href="#b"/>
<use x="130.66438" y="789.090909" xlink:href="#b"/>
<use x="149.523156" y="789.090909" xlink:href="#b"/>
<use x="171.076043" y="789.090909" xlink:href="#b"/>
<use x="195.323042" y="789.090909" xlink:href="#b"/>
<use x="222.264151" y="789.090909" xlink:href="#b"/>
<use x="251.899371" y="789.090909" xlink:href="#b"/>
<use x="284.228702" y="789.090909" xlink:href="#b"/>
<use x="321.946255" y="789.090909" xlink:href="#b"/>
<use x="359.663808" y="789.090909" xlink:href="#b"/>
<use x="400.075472" y="789.090909" xlink:href="#b"/>
<use x="443.181246" y="789.090909" xlink:href="#b"/>
<use x="488.981132" y="789.090909" xlink:href="#b"/>
<use x="537.475129" y="789.090909" xlink:href="#b"/>
<use x="588.663236" y="789.090909" xlink:href="#b"/>
<use x="642.545455" y="789.090909" xlink:href="#b"/>
<use x="699.121784" y="789.090909" xlink:href="#b"/>
<use x="758.392224" y="789.090909" xlink:href="#b"/>
<use x="820.356775" y="789.090909" xlink:href="#b"/>
<use x="885.015437" y="789.090909" xlink:href="#b"/>
<use x="952.36821" y="789.090909" xlink:href="#b"/>
<use x="1022.415094" y="789.090909" xlink:href="#b"/>
<use x="1095.156089" y="789.090909" xlink:href="#b"/>
<use x="1170.591195" y="789.090909" xlink:href="#b"/>
<use x="1248.720412" y="789.090909" xlink:href="#b"/>
<use x="1329.543739" y="789.090909" xlink:href="#b"/>
<use x="1413.061178" y="789.090909" xlink:href="#b"/>
<use x="1499.272727" y="789.090909" xlink:href="#b"/>
<use x="286.922813" y="666.062622" xlink:href="#b"/>
<use x="90.252716" y="415.928881" xlink:href="#b"/>
<use x="90.252716" y="415.928881" xlink:href="#b"/>
<use x="90.252716" y="541.322876" xlink:href="#b"/>
<use x="90.252716" y="541.322876" xlink:href="#b"/>
<use x="321.291474" y="37.575758" xlink:href="#b"/>
<use x="75.435106" y="290.108116" xlink:href="#b"/>
<use x="144.471698" y="415.928881" xlink:href="#b"/>
<use x="402.320564" y="290.108116" xlink:href="#b"/>
<use x="517.538708" y="415.928881" xlink:href="#b"/>
<use x="747.608596" y="163.969054" xlink:href="#b"/>
<use x="642.545455" y="666.062622" xlink:href="#b"/>
<use x="699.121784" y="666.062622" xlink:href="#b"/>
<use x="901.15855" y="290.108116" xlink:href="#b"/>
<use x="758.392224" y="666.062622" xlink:href="#b"/>
<use x="820.356775" y="666.062622" xlink:href="#b"/>
<use x="885.015437" y="666.062622" xlink:href="#b"/>
<use x="1089.660103" y="415.928881" xlink:href="#b"/>
<use x="1022.415094" y="666.062622" xlink:href="#b"/>
<use x="1095.156089" y="666.062622" xlink:href="#b"/>
<use x="1170.591195" y="666.062622" xlink:href="#b"/>
<use x="1275.122699" y="541.322876" xlink:href="#b"/>
<use x="1248.720412" y="666.062622" xlink:href="#b"/>
<use x="1329.543739" y="666.062622" xlink:href="#b"/>
<use x="400.075472" y="666.062622" xlink:href="#b"/>
<use x="443.181246" y="666.062622" xlink:href="#b"/>
<use x="513.22813" y="541.322876" xlink:href="#b"/>
<use x="488.981132" y="666.062622" xlink:href="#b"/>
<use x="537.475129" y="666.062622" xlink:href="#b"/>
<use x="251.899371" y="666.062622" xlink:href="#b"/>
<use x="312.516867" y="415.928881" xlink:href="#b"/>
<use x="303.087479" y="541.322876" xlink:href="#b"/>
<use x="321.946255" y="666.062622" xlink:href="#b"/>
<use x="284.228702" y="666.062622" xlink:href="#b"/>
<use x="114.499714" y="666.062622" xlink:href="#b"/>
<use x="130.66438" y="666.062622" xlink:href="#b"/>
<use x="149.523156" y="666.062622" xlink:href="#b"/>
<use x="183.199543" y="541.322876" xlink:href="#b"/>
<use x="171.076043" y="666.062622" xlink:href="#b"/>
<use x="195.323042" y="666.062622" xlink:href="#b"/>
<use x="75.435106" y="415.928881" xlink:href="#b"/>
<use x="75.435106" y="541.322876" xlink:href="#b"/>
<use x="71.393939" y="666.062622" xlink:href="#b"/>
<use x="79.476272" y="666.062622" xlink:href="#b"/>
<use x="101.02916" y="666.062622" xlink:href="#b"/>
<use x="222.264151" y="666.062622" xlink:href="#b"/>
<use x="359.663808" y="666.062622" xlink:href="#b"/>
<use x="588.663236" y="666.062622" xlink:href="#b"/>
<use x="952.36821" y="666.062622" xlink:href="#b"/>
<use x="1413.061178" y="666.062622" xlink:href="#b"/>
<use x="1499.272727" y="666.062622" xlink:href="#b"/>
</g>
<g clip-path="url(#a)">
<g transform="translate(41.981 791.85) scale(.1 -.1)">
<defs>
<path id="bi" d="m64.406 67.281v-10.391q-4.9844 4.6406-10.625 6.9219-5.6406 2.2969-11.984 2.2969-12.5 0-19.141-7.6406t-6.6406-22.094q0-14.406 6.6406-22.047t19.141-7.6406q6.3438 0 11.984 2.2969t10.625 6.9375v-10.312q-5.1719-3.5156-10.969-5.2812-5.7812-1.75-12.219-1.75-16.562 0-26.094 10.125-9.5156 10.141-9.5156 27.672 0 17.578 9.5156 27.703 9.5312 10.141 26.094 10.141 6.5312 0 12.312-1.7344 5.7969-1.7344 10.875-5.2031z"/>
<path id="u" d="m56.203 29.594v-4.3906h-41.312q0.59375-9.2812 5.5938-14.141t13.938-4.8594q5.1719 0 10.031 1.2656t9.6562 3.8125v-8.5q-4.8438-2.0469-9.9219-3.125t-10.297-1.0781q-13.094 0-20.734 7.6094-7.6406 7.625-7.6406 20.625 0 13.422 7.25 21.297 7.25 7.8906 19.562 7.8906 11.031 0 17.453-7.1094 6.4219-7.0938 6.4219-19.297zm-8.9844 2.6406q-0.09375 7.3594-4.125 11.75-4.0312 4.4062-10.672 4.4062-7.5156 0-12.031-4.25t-5.2031-11.969z"/>
<path id="ac" d="m18.109 8.2031v-29h-9.0312v75.484h9.0312v-8.2969q2.8438 4.875 7.1562 7.2344 4.3281 2.375 10.328 2.375 9.9688 0 16.188-7.9062 6.2344-7.9062 6.2344-20.797t-6.2344-20.812q-6.2188-7.9062-16.188-7.9062-6 0-10.328 2.375-4.3125 2.375-7.1562 7.25zm30.578 19.094q0 9.9062-4.0781 15.547t-11.203 5.6406q-7.1406 0-11.219-5.6406t-4.0781-15.547 4.0781-15.547 11.219-5.6406q7.125 0 11.203 5.6406t4.0781 15.547z"/>
<path id="bg" d="m43.453 16.219q0 4.3906-3.2031 6.6875-3.1875 2.2969-9.3438 2.2969h-12.797v-18.031h12.797q6.1562 0 9.3438 2.3125 3.2031 2.3281 3.2031 6.7344zm-34.375 38.469h9.0312v-22.312h13.188q10.453 0 16.094-3.9844 5.6406-3.9688 5.6406-12.172t-5.6406-12.219q-5.6406-4-16.094-4h-22.219z"/>
<path id="aw" d="m34.469 29.5q6.0625-1.1719 9.4219-4.75 3.375-3.5625 3.375-8.8281 0-8.4531-6.2969-12.906-6.2969-4.4375-17.922-4.4375-3.9062 0-8.0312 0.6875t-8.5156 2.0469v8.3594q3.4688-1.8125 7.6094-2.7188 4.1562-0.89062 8.6875-0.89062 7.375 0 11.5 2.7344t4.125 7.125q0 4.2969-3.6562 6.9062t-10.344 2.6094h-7.2344v7.4219h7.5625q5.6719 0 8.9688 2.1719t3.2969 5.5938q0 3.125-3.4062 5.375-3.3906 2.25-9.1875 2.25-3.4688 0-7.4062-0.64062-3.9219-0.64062-8.6719-2.0469v8.1562q4.7969 1.1719 8.9375 1.75 4.1562 0.59375 7.8594 0.59375 9.5781 0 15.109-3.8438 5.5469-3.8281 5.5469-10.719 0-4.5312-2.9375-7.6875-2.9219-3.1406-8.3906-4.3125z"/>
<path id="t" d="m9.0781 54.688h9.0312v-22.312h29.156v22.312h9.0312v-54.688h-9.0312v25.203h-29.156v-25.203h-9.0312z"/>
<path id="ae" d="m61.047 54.688h8.9844v-54.688h-8.9844zm4.5 1.3125m-22.094-39.781q0 4.3906-3.2031 6.6875-3.1875 2.2969-9.3438 2.2969h-12.797v-18.031h12.797q6.1562 0 9.3438 2.3125 3.2031 2.3281 3.2031 6.7344zm-34.375 38.469h9.0312v-22.312h13.188q10.453 0 16.094-3.9844 5.6406-3.9688 5.6406-12.172t-5.6406-12.219q-5.6406-4-16.094-4h-22.219z"/>
<path id="n" d="m9.0781 54.688h13.141l15.531-36.625 15.578 36.625h13.031v-54.688h-9.0312v46.094l-15.094-35.594h-8.9844l-15.141 35.594v-46.094h-9.0312z"/>
</defs>
<use xlink:href="#bi"/>
<use x="69.824219" xlink:href="#u"/>
<use x="131.347656" xlink:href="#ac"/>
<use x="194.824219" xlink:href="#bg"/>
<use x="253.759766" xlink:href="#u"/>
<use x="315.283203" xlink:href="#aw"/>
<use x="368.457031" xlink:href="#t"/>
<use x="433.837891" xlink:href="#ae"/>
<use x="512.792969" xlink:href="#n"/>
</g>
</g>
<g clip-path="url(#a)">
<g transform="translate(62.915 791.85) scale(.1 -.1)">
<defs>
<path id="ar" d="m21.625 7.1719h26.078v40.344h-18.891v-6.8438q0-20.109-5.7656-30.859zm-13.031 0q4.4375 1.9531 6.3906 6.1094 4.7969 10.297 4.7969 31.062v10.344h36.953v-47.516h7.1875v-20.984h-7.1875v13.812h-44.328v-13.812h-7.1875v20.984z"/>
<path id="z" d="m3.7188 0v7.4688q8.875 1.375 11.609 7.5156 3.3281 8.6562 3.3281 30.766v8.9375h36.953v-54.688h-8.9844v47.516h-18.984v-5.4219q0-21.094-4.2969-30.562-4.5938-10.109-19.625-11.531z"/>
<path id="s" d="m30.609 48.391q-7.2188 0-11.422-5.6406t-4.2031-15.453 4.1719-15.453q4.1875-5.6406 11.453-5.6406 7.1875 0 11.375 5.6562 4.2031 5.6719 4.2031 15.438 0 9.7188-4.2031 15.406-4.1875 5.6875-11.375 5.6875zm0 7.6094q11.719 0 18.406-7.625 6.7031-7.6094 6.7031-21.078 0-13.422-6.7031-21.078-6.6875-7.6406-18.406-7.6406-11.766 0-18.438 7.6406-6.6562 7.6562-6.6562 21.078 0 13.469 6.6562 21.078 6.6719 7.625 18.438 7.625z"/>
</defs>
<use xlink:href="#ar"/>
<use x="69.140625" xlink:href="#u"/>
<use x="130.664062" xlink:href="#z"/>
<use x="194.580078" xlink:href="#s"/>
<use x="255.761719" xlink:href="#n"/>
</g>
</g>
<g clip-path="url(#a)">
<g transform="translate(96.371 791.85) scale(.1 -.1)">
<defs>
<path id="bb" d="m19.094 12.406h9.9062v-12.406h-9.9062zm9.625 7.1719h-9.3281v7.5156q0 4.9375 1.3594 8.1094 1.375 3.1719 5.7656 7.375l4.3906 4.3438q2.7812 2.5938 4.0312 4.8906t1.25 4.6875q0 4.3438-3.2031 7.0312t-8.4688 2.6875q-3.8594 0-8.2344-1.7188-4.3594-1.7031-9.1094-4.9844v9.1875q4.5938 2.7812 9.2969 4.1406 4.7188 1.375 9.75 1.375 8.9844 0 14.422-4.7344 5.4531-4.7344 5.4531-12.5 0-3.7188-1.7656-7.0625-1.75-3.3438-6.1406-7.5312l-4.2969-4.2031q-2.2969-2.2969-3.25-3.5938t-1.3438-2.5156q-0.29688-1.0156-0.4375-2.4844t-0.14062-4z"/>
<path id="bf" d="m15.094 12.406h9.9062v-12.406h-9.9062zm0 60.5h9.9062v-31.984l-0.96875-17.438h-7.9219l-1.0156 17.438z"/>
</defs>
<use xlink:href="#bb"/>
<use x="53.076172" xlink:href="#bf"/>
</g>
</g>
<g clip-path="url(#a)">
<g transform="translate(107.3 791.85) scale(.1 -.1)">
<defs>
<path id="bj" d="m39.406 66.219q-10.75 0-17.078-8.0156-6.3125-8-6.3125-21.828 0-13.766 6.3125-21.781 6.3281-8 17.078-8 10.734 0 17.016 8 6.2812 8.0156 6.2812 21.781 0 13.828-6.2812 21.828-6.2812 8.0156-17.016 8.0156zm0 8q15.328 0 24.5-10.281 9.1875-10.281 9.1875-27.562 0-17.234-9.1875-27.516-9.1719-10.281-24.5-10.281-15.375 0-24.594 10.25-9.2031 10.266-9.2031 27.547t9.2031 27.562q9.2188 10.281 24.594 10.281z"/>
</defs>
<use xlink:href="#bj"/>
<use x="78.710938" xlink:href="#t"/>
</g>
</g>
<g clip-path="url(#a)">
<g transform="translate(121.89 791.85) scale(.1 -.1)">
<defs>
<path id="ax" d="m18.062 25.203v-18.031h12.797q6.1562 0 9.375 2.3125 3.2188 2.3281 3.2188 6.7344 0 4.3906-3.2188 6.6875t-9.375 2.2969zm0 22.312v-15.141h11.828q5.0781 0 8.2969 2.0156 3.2188 2.0312 3.2188 5.6562 0 3.6094-3.2188 5.5312-3.2188 1.9375-8.2969 1.9375zm-8.9844 7.1719h21.391q9.625 0 14.797-3.5156t5.1719-10.016q0-5.0156-2.6406-7.9844-2.625-2.9531-7.8125-3.6719 6.2031-1.1719 9.625-4.8906 3.4219-3.7031 3.4219-9.2812 0-7.3125-5.6406-11.328-5.6406-4-16.094-4h-22.219z"/>
<path id="ab" d="m48.781 52.594v-8.4062q-3.8125 2.1094-7.6406 3.1562t-7.7344 1.0469q-8.75 0-13.594-5.5469-4.8281-5.5312-4.8281-15.547t4.8281-15.562q4.8438-5.5312 13.594-5.5312 3.9062 0 7.7344 1.0469t7.6406 3.1562v-8.3125q-3.7656-1.75-7.7969-2.625-4.0156-0.89062-8.5625-0.89062-12.359 0-19.641 7.7656-7.2656 7.7656-7.2656 20.953 0 13.375 7.3438 21.031 7.3594 7.6719 20.156 7.6719 4.1406 0 8.0938-0.85938 3.9531-0.84375 7.6719-2.5469z"/>
</defs>
<use xlink:href="#ax"/>
<use x="58.935547" xlink:href="#ab"/>
<use x="113.916016" xlink:href="#u"/>
</g>
</g>
<g clip-path="url(#a)">
<g transform="translate(127.58 791.85) scale(.1 -.1)">
<defs>
<path id="af" d="m2.9375 54.688h52.391v-7.1719h-21.781v-47.516h-8.8438v47.516h-21.766z"/>
</defs>
<use xlink:href="#ab"/>
<use x="54.980469" xlink:href="#n"/>
<use x="130.419922" xlink:href="#s"/>
<use x="191.601562" xlink:href="#af"/>
<use x="249.853516" xlink:href="#ac"/>
<use x="313.330078" xlink:href="#u"/>
<use x="374.853516" xlink:href="#z"/>
</g>
</g>
<g clip-path="url(#a)">
<g transform="translate(164.74 791.85) scale(.1 -.1)">
<defs>
<path id="x" d="m34.281 27.484q-10.891 0-15.094-2.4844t-4.2031-8.5q0-4.7812 3.1562-7.5938 3.1562-2.7969 8.5625-2.7969 7.4844 0 12 5.2969t4.5156 14.078v2zm17.922 3.7188v-31.203h-8.9844v8.2969q-3.0781-4.9688-7.6719-7.3438t-11.234-2.375q-8.3906 0-13.359 4.7188-4.9531 4.7188-4.9531 12.625 0 9.2188 6.1719 13.906 6.1875 4.6875 18.438 4.6875h12.609v0.89062q0 6.2031-4.0781 9.5938t-11.453 3.3906q-4.6875 0-9.1406-1.125-4.4375-1.125-8.5312-3.375v8.3125q4.9219 1.9062 9.5625 2.8438 4.6406 0.95312 9.0312 0.95312 11.875 0 17.734-6.1562 5.8594-6.1406 5.8594-18.641z"/>
</defs>
<use xlink:href="#t"/>
<use x="65.380859" xlink:href="#x"/>
</g>
</g>
<g clip-path="url(#a)">
<g transform="translate(182.2 791.85) scale(.1 -.1)">
<defs>
<path id="al" d="m18.453 38.922q0-4.0625 3.125-6.3594 3.125-2.2812 8.9375-2.2812h12.109v17.234h-12.109q-5.8125 0-8.9375-2.25t-3.125-6.3438zm-12.781-38.922 16.688 23.969q-5.6562 1.2812-9.4219 4.625-3.75 3.3438-3.75 10.328 0 7.9062 5.2344 11.828 5.25 3.9375 15.859 3.9375h21.375v-54.688h-9.0312v23.094h-11.172l-16.125-23.094z"/>
</defs>
<use xlink:href="#n"/>
<use x="75.439453" xlink:href="#u"/>
<use x="136.962891" xlink:href="#t"/>
<use x="202.34375" xlink:href="#al"/>
</g>
</g>
<g clip-path="url(#a)">
<g transform="translate(220.58 791.85) scale(.1 -.1)">
<defs>
<path id="bc" d="m11.719 12.406h10.297v-12.406h-10.297zm0 39.297h10.297v-12.391h-10.297z"/>
</defs>
<use xlink:href="#bc"/>
</g>
</g>
<g clip-path="url(#a)">
<g transform="translate(210.2 791.85) scale(.1 -.1)">
<defs>
<path id="aq" d="m56.297 54.688v-54.688h-9.0312v47.516h-29.156v-47.516h-9.0312v54.688z"/>
<path id="az" d="m41.016 0v23h-16.75q-7.4688 0-12.453 4.6406-4.4844 4.2031-4.4844 13.188v13.859h8.9844v-13.031q0-5.7188 2.5312-8.5938 2.5938-2.8906 7.6719-2.8906h14.5v24.516h8.9844v-54.688z"/>
<path id="ad" d="m9.0781 54.688h8.9375v-25.688l25.344 25.688h11.031l-20.891-21.141 23.578-33.547h-10.062l-19.375 27.594-9.625-9.7656v-17.828h-8.9375z"/>
<path id="ba" d="m55.906 54.688v-54.688h-8.9375v43.891l-26.359-43.891h-11.531v54.688h8.9375v-43.797l26.328 43.797zm-38.688 20.828h5.7656q0.53125-3.6562 2.8906-5.5 2.375-1.8281 6.625-1.8281 4.2031 0 6.5469 1.8125t2.9688 5.5156h5.7656q-0.48438-6.9844-4.3438-10.5t-10.938-3.5156-10.938 3.5156-4.3438 10.5z"/>
</defs>
<use xlink:href="#aq"/>
<use x="65.380859" xlink:href="#u"/>
<use x="126.904297" xlink:href="#ac"/>
<use x="190.380859" xlink:href="#u"/>
<use x="251.904297" xlink:href="#aq"/>
<use x="317.285156" xlink:href="#x"/>
<use x="378.564453" xlink:href="#az"/>
<use x="437.646484" xlink:href="#ad"/>
<use x="498.046875" xlink:href="#x"/>
<use x="559.326172" xlink:href="#t"/>
<use x="624.707031" xlink:href="#t"/>
<use x="690.087891" xlink:href="#ae"/>
<use x="769.042969" xlink:href="#ba"/>
</g>
</g>
<g clip-path="url(#a)">
<g transform="translate(254.98 791.85) scale(.1 -.1)">
<use xlink:href="#ab"/>
<use x="54.980469" xlink:href="#n"/>
<use x="130.419922" xlink:href="#x"/>
<use x="191.699219" xlink:href="#aw"/>
<use x="244.873047" xlink:href="#s"/>
<use x="306.054688" xlink:href="#az"/>
<use x="365.136719" xlink:href="#t"/>
<use x="430.517578" xlink:href="#ae"/>
<use x="509.472656" xlink:href="#n"/>
</g>
</g>
<g clip-path="url(#a)">
<g transform="translate(302.33 791.85) scale(.1 -.1)">
<use xlink:href="#n"/>
<use x="75.439453" xlink:href="#x"/>
<use x="136.71875" xlink:href="#ab"/>
<use x="191.699219" xlink:href="#z"/>
<use x="255.615234" xlink:href="#s"/>
<use x="316.796875" xlink:href="#n"/>
</g>
</g>
<g clip-path="url(#a)">
<g transform="translate(358.07 791.85) scale(.1 -.1)">
<defs>
<path id="at" d="m11.719 12.406h10.297v-8.4062l-8-15.625h-6.2969l4 15.625z"/>
</defs>
<use xlink:href="#at"/>
</g>
</g>
<g clip-path="url(#a)">
<g transform="translate(397.33 791.85) scale(.1 -.1)">
<use xlink:href="#ab"/>
</g>
</g>
<g clip-path="url(#a)">
<g transform="translate(417.33 791.85) scale(.1 -.1)">
<use xlink:href="#n"/>
<use x="75.439453" xlink:href="#s"/>
<use x="136.621094" xlink:href="#z"/>
<use x="200.537109" xlink:href="#s"/>
<use x="261.71875" xlink:href="#af"/>
<use x="319.970703" xlink:href="#ad"/>
<use x="380.371094" xlink:href="#s"/>
<use x="441.552734" xlink:href="#n"/>
</g>
</g>
<g clip-path="url(#a)">
<g transform="translate(486.03 791.85) scale(.1 -.1)">
<use xlink:href="#ax"/>
</g>
</g>
<g clip-path="url(#a)">
<g transform="translate(522.3 791.85) scale(.1 -.1)">
<defs>
<path id="au" d="m32.172-5.0781q-3.7969-9.7656-7.4219-12.734-3.6094-2.9844-9.6562-2.9844h-7.1875v7.5156h5.2812q3.7031 0 5.75 1.7656 2.0625 1.75 4.5469 8.2969l1.6094 4.0938-22.109 53.812h9.5156l17.094-42.766 17.094 42.766h9.5156z"/>
<path id="bh" d="m54.891 54.688-19.781-26.609 20.797-28.078h-10.594l-15.922 21.484-15.906-21.484h-10.609l21.25 28.609-19.438 26.078h10.594l14.5-19.484 14.5 19.484z"/>
</defs>
<use xlink:href="#ac"/>
<use x="63.476562" xlink:href="#au"/>
<use x="122.65625" xlink:href="#ad"/>
<use x="183.056641" xlink:href="#x"/>
<use x="244.335938" xlink:href="#bh"/>
</g>
</g>
<g clip-path="url(#a)">
<g transform="translate(587.07 791.85) scale(.1 -.1)">
<use xlink:href="#at"/>
</g>
</g>
<g clip-path="url(#a)">
<g transform="translate(639.54 791.85) scale(.1 -.1)">
<use xlink:href="#al"/>
</g>
</g>
<g clip-path="url(#a)">
<g transform="translate(668.04 791.85) scale(.1 -.1)">
<defs>
<path id="av" d="m55.906 54.688v-54.688h-8.9375v43.891l-26.359-43.891h-11.531v54.688h8.9375v-43.797l26.328 43.797z"/>
</defs>
<use xlink:href="#t"/>
<use x="65.380859" xlink:href="#x"/>
<use x="126.660156" xlink:href="#ad"/>
<use x="187.060547" xlink:href="#z"/>
<use x="250.976562" xlink:href="#s"/>
<use x="312.158203" xlink:href="#t"/>
<use x="377.539062" xlink:href="#av"/>
<use x="442.529297" xlink:href="#z"/>
<use x="506.445312" xlink:href="#ab"/>
<use x="561.425781" xlink:href="#al"/>
</g>
</g>
<g clip-path="url(#a)">
<g transform="translate(748.6 791.85) scale(.1 -.1)">
<use xlink:href="#t"/>
<use x="65.380859" xlink:href="#x"/>
<use x="126.660156" xlink:href="#ar"/>
</g>
</g>
<g clip-path="url(#a)">
<g transform="translate(787.51 791.85) scale(.1 -.1)">
<use xlink:href="#t"/>
<use x="65.380859" xlink:href="#u"/>
<use x="126.904297" xlink:href="#aq"/>
<use x="192.285156" xlink:href="#s"/>
<use x="253.466797" xlink:href="#t"/>
<use x="318.847656" xlink:href="#al"/>
<use x="379.003906" xlink:href="#af"/>
<use x="437.255859" xlink:href="#t"/>
<use x="502.636719" xlink:href="#ae"/>
<use x="581.591797" xlink:href="#n"/>
</g>
</g>
<g clip-path="url(#a)">
<g transform="translate(855.45 791.85) scale(.1 -.1)">
<use xlink:href="#aq"/>
<use x="65.380859" xlink:href="#ac"/>
<use x="128.857422" xlink:href="#u"/>
<use x="190.380859" xlink:href="#ar"/>
<use x="259.521484" xlink:href="#n"/>
<use x="334.960938" xlink:href="#u"/>
<use x="396.484375" xlink:href="#af"/>
<use x="454.736328" xlink:href="#s"/>
<use x="515.917969" xlink:href="#n"/>
</g>
</g>
<g clip-path="url(#a)">
<g transform="translate(950.78 791.85) scale(.1 -.1)">
<use xlink:href="#at"/>
</g>
</g>
<g clip-path="url(#a)">
<g transform="translate(999.99 791.85) scale(.1 -.1)">
<use xlink:href="#ad"/>
<use x="60.400391" xlink:href="#s"/>
<use x="121.582031" xlink:href="#af"/>
<use x="179.833984" xlink:href="#s"/>
<use x="241.015625" xlink:href="#ac"/>
<use x="304.492188" xlink:href="#ae"/>
<use x="383.447266" xlink:href="#ba"/>
</g>
</g>
<g clip-path="url(#a)">
<g transform="translate(1074.4 791.85) scale(.1 -.1)">
<use xlink:href="#ad"/>
<use x="60.400391" xlink:href="#x"/>
<use x="121.679688" xlink:href="#aw"/>
<use x="174.853516" xlink:href="#x"/>
<use x="236.132812" xlink:href="#z"/>
<use x="300.048828" xlink:href="#ab"/>
<use x="355.029297" xlink:href="#al"/>
</g>
</g>
<g clip-path="url(#a)">
<g transform="translate(1160.8 791.85) scale(.1 -.1)">
<use xlink:href="#u"/>
<use x="61.523438" xlink:href="#n"/>
<use x="136.962891" xlink:href="#au"/>
</g>
</g>
<g clip-path="url(#a)">
<g transform="translate(1232.7 791.85) scale(.1 -.1)">
<use xlink:href="#af"/>
<use x="58.251953" xlink:href="#x"/>
<use x="119.53125" xlink:href="#ad"/>
<use x="179.931641" xlink:href="#av"/>
<use x="244.921875" xlink:href="#n"/>
</g>
</g>
<g clip-path="url(#a)">
<g transform="translate(1299.8 791.85) scale(.1 -.1)">
<use xlink:href="#au"/>
<use x="59.179688" xlink:href="#ac"/>
<use x="122.65625" xlink:href="#s"/>
<use x="183.837891" xlink:href="#ar"/>
<use x="252.978516" xlink:href="#z"/>
<use x="316.894531" xlink:href="#av"/>
<use x="381.884766" xlink:href="#ax"/>
<use x="440.820312" xlink:href="#ae"/>
<use x="519.775391" xlink:href="#n"/>
</g>
</g>
<g clip-path="url(#a)">
<g transform="translate(1411.5 791.85) scale(.1 -.1)">
<defs>
<path id="d" d="m10.688 12.406h10.312v-12.406h-10.312z"/>
</defs>
<use xlink:href="#d"/>
</g>
</g>
<g clip-path="url(#a)">
<g transform="translate(1497.5 791.85) scale(.1 -.1)">
<defs>
<path id="be" d="m4.8906 31.391h26.312v-8h-26.312z"/>
</defs>
<use xlink:href="#be"/>
</g>
</g>
<g clip-path="url(#a)">
<g transform="translate(265.84 668.82) scale(.1 -.1)">
<defs>
<path id="o" d="m9.8125 72.906h9.8594v-72.906h-9.8594z"/>
<path id="ag" d="m9.8125 72.906h14.703l18.594-49.609 18.703 49.609h14.703v-72.906h-9.625v64.016l-18.797-50h-9.9062l-18.797 50v-64.016h-9.5781z"/>
<path id="ah" d="m9.8125 72.906h9.8594v-64.609h35.5v-8.2969h-45.359z"/>
</defs>
<use xlink:href="#o"/>
<use x="29.492188" xlink:href="#ag"/>
<use x="115.771484" xlink:href="#v"/>
<use x="176.074219" xlink:href="#ah"/>
<use x="231.787109" xlink:href="#o"/>
<use x="261.279297" xlink:href="#y"/>
<use x="331.103516" xlink:href="#o"/>
<use x="360.595703" xlink:href="#e"/>
</g>
</g>
<g clip-path="url(#a)">
<g transform="translate(69.168 418.69) scale(.1 -.1)">
<use xlink:href="#o"/>
<use x="29.492188" xlink:href="#ag"/>
<use x="115.771484" xlink:href="#v"/>
<use x="176.074219" xlink:href="#ah"/>
<use x="231.787109" xlink:href="#o"/>
<use x="261.279297" xlink:href="#y"/>
<use x="331.103516" xlink:href="#o"/>
<use x="360.595703" xlink:href="#e"/>
</g>
</g>
<g clip-path="url(#a)">
<g transform="translate(69.168 418.69) scale(.1 -.1)">
<use xlink:href="#o"/>
<use x="29.492188" xlink:href="#ag"/>
<use x="115.771484" xlink:href="#v"/>
<use x="176.074219" xlink:href="#ah"/>
<use x="231.787109" xlink:href="#o"/>
<use x="261.279297" xlink:href="#y"/>
<use x="331.103516" xlink:href="#o"/>
<use x="360.595703" xlink:href="#e"/>
</g>
</g>
<g clip-path="url(#a)">
<g transform="translate(69.168 544.08) scale(.1 -.1)">
<use xlink:href="#o"/>
<use x="29.492188" xlink:href="#ag"/>
<use x="115.771484" xlink:href="#v"/>
<use x="176.074219" xlink:href="#ah"/>
<use x="231.787109" xlink:href="#o"/>
<use x="261.279297" xlink:href="#y"/>
<use x="331.103516" xlink:href="#o"/>
<use x="360.595703" xlink:href="#e"/>
</g>
</g>
<g clip-path="url(#a)">
<g transform="translate(69.168 544.08) scale(.1 -.1)">
<use xlink:href="#o"/>
<use x="29.492188" xlink:href="#ag"/>
<use x="115.771484" xlink:href="#v"/>
<use x="176.074219" xlink:href="#ah"/>
<use x="231.787109" xlink:href="#o"/>
<use x="261.279297" xlink:href="#y"/>
<use x="331.103516" xlink:href="#o"/>
<use x="360.595703" xlink:href="#e"/>
</g>
</g>
<g clip-path="url(#a)">
<g transform="translate(313.34 40.335) scale(.1 -.1)">
<defs>
<path id="c" d="m12.406 8.2969h16.109v55.625l-17.531-3.5156v8.9844l17.438 3.5156h9.8594v-64.609h16.109v-8.2969h-41.984z"/>
</defs>
<use xlink:href="#c"/>
<use x="63.623047" xlink:href="#d"/>
<use x="95.410156" xlink:href="#c"/>
</g>
</g>
<g clip-path="url(#a)">
<g transform="translate(67.484 292.87) scale(.1 -.1)">
<defs>
<path id="q" d="m19.188 8.2969h34.422v-8.2969h-46.281v8.2969q5.6094 5.8125 15.297 15.594 9.7031 9.7969 12.188 12.641 4.7344 5.3125 6.6094 9 1.8906 3.6875 1.8906 7.25 0 5.8125-4.0781 9.4688-4.0781 3.6719-10.625 3.6719-4.6406 0-9.7969-1.6094-5.1406-1.6094-11-4.8906v9.9688q5.9531 2.3906 11.125 3.6094 5.1875 1.2188 9.4844 1.2188 11.328 0 18.062-5.6719 6.7344-5.6562 6.7344-15.125 0-4.5-1.6875-8.5312-1.6719-4.0156-6.125-9.4844-1.2188-1.4219-7.7656-8.1875-6.5312-6.7656-18.453-18.922z"/>
</defs>
<use xlink:href="#c"/>
<use x="63.623047" xlink:href="#d"/>
<use x="95.410156" xlink:href="#q"/>
</g>
</g>
<g clip-path="url(#a)">
<g transform="translate(136.52 418.69) scale(.1 -.1)">
<defs>
<path id="p" d="m40.578 39.312q7.0781-1.5156 11.047-6.3125 3.9844-4.7812 3.9844-11.812 0-10.781-7.4219-16.703-7.4219-5.9062-21.094-5.9062-4.5781 0-9.4375 0.90625t-10.031 2.7188v9.5156q4.0938-2.3906 8.9688-3.6094 4.8906-1.2188 10.219-1.2188 9.2656 0 14.125 3.6562t4.8594 10.641q0 6.4531-4.5156 10.078-4.5156 3.6406-12.562 3.6406h-8.5v8.1094h8.8906q7.2656 0 11.125 2.9062t3.8594 8.375q0 5.6094-3.9844 8.6094-3.9688 3.0156-11.391 3.0156-4.0625 0-8.7031-0.89062-4.6406-0.875-10.203-2.7188v8.7812q5.625 1.5625 10.531 2.3438t9.25 0.78125q11.234 0 17.766-5.1094 6.5469-5.0938 6.5469-13.781 0-6.0625-3.4688-10.234t-9.8594-5.7812z"/>
</defs>
<use xlink:href="#c"/>
<use x="63.623047" xlink:href="#d"/>
<use x="95.410156" xlink:href="#p"/>
</g>
</g>
<g clip-path="url(#a)">
<g transform="translate(394.37 292.87) scale(.1 -.1)">
<defs>
<path id="w" d="m37.797 64.312-24.906-38.922h24.906zm-2.5938 8.5938h12.406v-47.516h10.406v-8.2031h-10.406v-17.188h-9.8125v17.188h-32.906v9.5156z"/>
</defs>
<use xlink:href="#c"/>
<use x="63.623047" xlink:href="#d"/>
<use x="95.410156" xlink:href="#w"/>
</g>
</g>
<g clip-path="url(#a)">
<g transform="translate(509.59 418.69) scale(.1 -.1)">
<defs>
<path id="r" d="m10.797 72.906h38.719v-8.3125h-29.688v-17.859q2.1406 0.73438 4.2812 1.0938 2.1562 0.35938 4.3125 0.35938 12.203 0 19.328-6.6875 7.1406-6.6875 7.1406-18.109 0-11.766-7.3281-18.297-7.3281-6.5156-20.656-6.5156-4.5938 0-9.3594 0.78125-4.75 0.78125-9.8281 2.3438v9.9219q4.3906-2.3906 9.0781-3.5625t9.9062-1.1719q8.4531 0 13.375 4.4375 4.9375 4.4375 4.9375 12.062 0 7.6094-4.9375 12.047-4.9219 4.4531-13.375 4.4531-3.9531 0-7.8906-0.875-3.9219-0.875-8.0156-2.7344z"/>
</defs>
<use xlink:href="#c"/>
<use x="63.623047" xlink:href="#d"/>
<use x="95.410156" xlink:href="#r"/>
</g>
</g>
<g clip-path="url(#a)">
<g transform="translate(739.66 166.73) scale(.1 -.1)">
<defs>
<path id="ak" d="m33.016 40.375q-6.6406 0-10.531-4.5469-3.875-4.5312-3.875-12.438 0-7.8594 3.875-12.438 3.8906-4.5625 10.531-4.5625t10.516 4.5625q3.875 4.5781 3.875 12.438 0 7.9062-3.875 12.438-3.875 4.5469-10.516 4.5469zm19.578 30.922v-8.9844q-3.7188 1.75-7.5 2.6719-3.7812 0.9375-7.5 0.9375-9.7656 0-14.922-6.5938-5.1406-6.5938-5.875-19.922 2.875 4.25 7.2188 6.5156 4.3594 2.2656 9.5781 2.2656 10.984 0 17.359-6.6719 6.375-6.6562 6.375-18.125 0-11.234-6.6406-18.031-6.6406-6.7812-17.672-6.7812-12.656 0-19.344 9.6875-6.6875 9.7031-6.6875 28.109 0 17.281 8.2031 27.562t22.016 10.281q3.7188 0 7.5-0.73438t7.8906-2.1875z"/>
</defs>
<use xlink:href="#c"/>
<use x="63.623047" xlink:href="#d"/>
<use x="95.410156" xlink:href="#ak"/>
</g>
</g>
<g clip-path="url(#a)">
<g transform="translate(631.41 668.82) scale(.1 -.1)">
<use xlink:href="#c"/>
<use x="63.623047" xlink:href="#d"/>
<use x="95.410156" xlink:href="#c"/>
<use x="159.033203" xlink:href="#q"/>
</g>
</g>
<g clip-path="url(#a)">
<g transform="translate(687.99 668.82) scale(.1 -.1)">
<use xlink:href="#c"/>
<use x="63.623047" xlink:href="#d"/>
<use x="95.410156" xlink:href="#c"/>
<use x="159.033203" xlink:href="#p"/>
</g>
</g>
<g clip-path="url(#a)">
<g transform="translate(890.03 292.87) scale(.1 -.1)">
<use xlink:href="#c"/>
<use x="63.623047" xlink:href="#d"/>
<use x="95.410156" xlink:href="#c"/>
<use x="159.033203" xlink:href="#w"/>
</g>
</g>
<g clip-path="url(#a)">
<g transform="translate(747.26 668.82) scale(.1 -.1)">
<use xlink:href="#c"/>
<use x="63.623047" xlink:href="#d"/>
<use x="95.410156" xlink:href="#c"/>
<use x="159.033203" xlink:href="#r"/>
</g>
</g>
<g clip-path="url(#a)">
<g transform="translate(809.22 668.82) scale(.1 -.1)">
<use xlink:href="#c"/>
<use x="63.623047" xlink:href="#d"/>
<use x="95.410156" xlink:href="#c"/>
<use x="159.033203" xlink:href="#ak"/>
</g>
</g>
<g clip-path="url(#a)">
<g transform="translate(873.88 668.82) scale(.1 -.1)">
<defs>
<path id="ao" d="m8.2031 72.906h46.875v-4.2031l-26.469-68.703h-10.297l24.906 64.594h-35.016z"/>
</defs>
<use xlink:href="#c"/>
<use x="63.623047" xlink:href="#d"/>
<use x="95.410156" xlink:href="#c"/>
<use x="159.033203" xlink:href="#ao"/>
</g>
</g>
<g clip-path="url(#a)">
<g transform="translate(1078.5 418.69) scale(.1 -.1)">
<defs>
<path id="aj" d="m31.781 34.625q-7.0312 0-11.062-3.7656-4.0156-3.7656-4.0156-10.344 0-6.5938 4.0156-10.359 4.0312-3.7656 11.062-3.7656t11.078 3.7812q4.0625 3.7969 4.0625 10.344 0 6.5781-4.0312 10.344-4.0156 3.7656-11.109 3.7656zm-9.8594 4.1875q-6.3438 1.5625-9.8906 5.9062-3.5312 4.3594-3.5312 10.609 0 8.7344 6.2188 13.812 6.2344 5.0781 17.062 5.0781 10.891 0 17.094-5.0781t6.2031-13.812q0-6.25-3.5469-10.609-3.5312-4.3438-9.8281-5.9062 7.125-1.6562 11.094-6.5 3.9844-4.8281 3.9844-11.797 0-10.609-6.4688-16.281-6.4688-5.6562-18.531-5.6562-12.047 0-18.531 5.6562-6.4688 5.6719-6.4688 16.281 0 6.9688 4 11.797 4.0156 4.8438 11.141 6.5zm-3.6094 15.578q0-5.6562 3.5312-8.8281 3.5469-3.1719 9.9375-3.1719 6.3594 0 9.9375 3.1719 3.5938 3.1719 3.5938 8.8281 0 5.6719-3.5938 8.8438-3.5781 3.1719-9.9375 3.1719-6.3906 0-9.9375-3.1719-3.5312-3.1719-3.5312-8.8438z"/>
</defs>
<use xlink:href="#c"/>
<use x="63.623047" xlink:href="#d"/>
<use x="95.410156" xlink:href="#c"/>
<use x="159.033203" xlink:href="#aj"/>
</g>
</g>
<g clip-path="url(#a)">
<g transform="translate(1011.3 668.82) scale(.1 -.1)">
<defs>
<path id="ap" d="m31.781 66.406q-7.6094 0-11.453-7.5-3.8281-7.4844-3.8281-22.531 0-14.984 3.8281-22.484 3.8438-7.5 11.453-7.5 7.6719 0 11.5 7.5 3.8438 7.5 3.8438 22.484 0 15.047-3.8438 22.531-3.8281 7.5-11.5 7.5zm0 7.8125q12.266 0 18.734-9.7031 6.4688-9.6875 6.4688-28.141 0-18.406-6.4688-28.109-6.4688-9.6875-18.734-9.6875-12.25 0-18.719 9.6875-6.4688 9.7031-6.4688 28.109 0 18.453 6.4688 28.141 6.4688 9.7031 18.719 9.7031z"/>
</defs>
<use xlink:href="#c"/>
<use x="63.623047" xlink:href="#d"/>
<use x="95.410156" xlink:href="#q"/>
<use x="159.033203" xlink:href="#ap"/>
</g>
</g>
<g clip-path="url(#a)">
<g transform="translate(1084 668.82) scale(.1 -.1)">
<use xlink:href="#c"/>
<use x="63.623047" xlink:href="#d"/>
<use x="95.410156" xlink:href="#q"/>
<use x="159.033203" xlink:href="#c"/>
</g>
</g>
<g clip-path="url(#a)">
<g transform="translate(1159.5 668.82) scale(.1 -.1)">
<use xlink:href="#c"/>
<use x="63.623047" xlink:href="#d"/>
<use x="95.410156" xlink:href="#q"/>
<use x="159.033203" xlink:href="#q"/>
</g>
</g>
<g clip-path="url(#a)">
<g transform="translate(1264 544.08) scale(.1 -.1)">
<use xlink:href="#c"/>
<use x="63.623047" xlink:href="#d"/>
<use x="95.410156" xlink:href="#q"/>
<use x="159.033203" xlink:href="#p"/>
</g>
</g>
<g clip-path="url(#a)">
<g transform="translate(1237.6 668.82) scale(.1 -.1)">
<use xlink:href="#c"/>
<use x="63.623047" xlink:href="#d"/>
<use x="95.410156" xlink:href="#q"/>
<use x="159.033203" xlink:href="#w"/>
</g>
</g>
<g clip-path="url(#a)">
<g transform="translate(1318.4 668.82) scale(.1 -.1)">
<use xlink:href="#c"/>
<use x="63.623047" xlink:href="#d"/>
<use x="95.410156" xlink:href="#q"/>
<use x="159.033203" xlink:href="#r"/>
</g>
</g>
<g clip-path="url(#a)">
<g transform="translate(388.94 668.82) scale(.1 -.1)">
<use xlink:href="#c"/>
<use x="63.623047" xlink:href="#d"/>
<use x="95.410156" xlink:href="#q"/>
<use x="159.033203" xlink:href="#ak"/>
</g>
</g>
<g clip-path="url(#a)">
<g transform="translate(432.05 668.82) scale(.1 -.1)">
<use xlink:href="#c"/>
<use x="63.623047" xlink:href="#d"/>
<use x="95.410156" xlink:href="#q"/>
<use x="159.033203" xlink:href="#ao"/>
</g>
</g>
<g clip-path="url(#a)">
<g transform="translate(502.1 544.08) scale(.1 -.1)">
<use xlink:href="#c"/>
<use x="63.623047" xlink:href="#d"/>
<use x="95.410156" xlink:href="#q"/>
<use x="159.033203" xlink:href="#aj"/>
</g>
</g>
<g clip-path="url(#a)">
<g transform="translate(477.85 668.82) scale(.1 -.1)">
<use xlink:href="#c"/>
<use x="63.623047" xlink:href="#d"/>
<use x="95.410156" xlink:href="#p"/>
<use x="159.033203" xlink:href="#ap"/>
</g>
</g>
<g clip-path="url(#a)">
<g transform="translate(526.34 668.82) scale(.1 -.1)">
<use xlink:href="#c"/>
<use x="63.623047" xlink:href="#d"/>
<use x="95.410156" xlink:href="#p"/>
<use x="159.033203" xlink:href="#c"/>
</g>
</g>
<g clip-path="url(#a)">
<g transform="translate(240.77 668.82) scale(.1 -.1)">
<use xlink:href="#c"/>
<use x="63.623047" xlink:href="#d"/>
<use x="95.410156" xlink:href="#p"/>
<use x="159.033203" xlink:href="#q"/>
</g>
</g>
<g clip-path="url(#a)">
<g transform="translate(301.38 418.69) scale(.1 -.1)">
<use xlink:href="#c"/>
<use x="63.623047" xlink:href="#d"/>
<use x="95.410156" xlink:href="#p"/>
<use x="159.033203" xlink:href="#p"/>
</g>
</g>
<g clip-path="url(#a)">
<g transform="translate(291.95 544.08) scale(.1 -.1)">
<use xlink:href="#c"/>
<use x="63.623047" xlink:href="#d"/>
<use x="95.410156" xlink:href="#p"/>
<use x="159.033203" xlink:href="#w"/>
</g>
</g>
<g clip-path="url(#a)">
<g transform="translate(310.81 668.82) scale(.1 -.1)">
<use xlink:href="#c"/>
<use x="63.623047" xlink:href="#d"/>
<use x="95.410156" xlink:href="#p"/>
<use x="159.033203" xlink:href="#r"/>
</g>
</g>
<g clip-path="url(#a)">
<g transform="translate(273.1 668.82) scale(.1 -.1)">
<use xlink:href="#c"/>
<use x="63.623047" xlink:href="#d"/>
<use x="95.410156" xlink:href="#p"/>
<use x="159.033203" xlink:href="#ao"/>
</g>
</g>
<g clip-path="url(#a)">
<g transform="translate(103.37 668.82) scale(.1 -.1)">
<use xlink:href="#c"/>
<use x="63.623047" xlink:href="#d"/>
<use x="95.410156" xlink:href="#p"/>
<use x="159.033203" xlink:href="#aj"/>
</g>
</g>
<g clip-path="url(#a)">
<g transform="translate(119.53 668.82) scale(.1 -.1)">
<defs>
<path id="bd" d="m10.984 1.5156v8.9844q3.7188-1.7656 7.5156-2.6875 3.8125-0.92188 7.4844-0.92188 9.7656 0 14.906 6.5625 5.1562 6.5625 5.8906 19.953-2.8281-4.2031-7.1875-6.4531-4.3438-2.25-9.6094-2.25-10.938 0-17.312 6.6094-6.375 6.625-6.375 18.109 0 11.219 6.6406 18 6.6406 6.7969 17.672 6.7969 12.656 0 19.312-9.7031 6.6719-9.6875 6.6719-28.141 0-17.234-8.1875-27.516-8.1719-10.281-21.984-10.281-3.7188 0-7.5312 0.73438-3.7969 0.73438-7.9062 2.2031zm19.625 30.906q6.6406 0 10.516 4.5312 3.8906 4.5469 3.8906 12.469 0 7.8594-3.8906 12.422-3.875 4.5625-10.516 4.5625t-10.516-4.5625-3.875-12.422q0-7.9219 3.875-12.469 3.875-4.5312 10.516-4.5312z"/>
</defs>
<use xlink:href="#c"/>
<use x="63.623047" xlink:href="#d"/>
<use x="95.410156" xlink:href="#p"/>
<use x="159.033203" xlink:href="#bd"/>
</g>
</g>
<g clip-path="url(#a)">
<g transform="translate(138.39 668.82) scale(.1 -.1)">
<use xlink:href="#c"/>
<use x="63.623047" xlink:href="#d"/>
<use x="95.410156" xlink:href="#w"/>
<use x="159.033203" xlink:href="#ap"/>
</g>
</g>
<g clip-path="url(#a)">
<g transform="translate(172.07 544.08) scale(.1 -.1)">
<use xlink:href="#c"/>
<use x="63.623047" xlink:href="#d"/>
<use x="95.410156" xlink:href="#w"/>
<use x="159.033203" xlink:href="#c"/>
</g>
</g>
<g clip-path="url(#a)">
<g transform="translate(159.94 668.82) scale(.1 -.1)">
<use xlink:href="#c"/>
<use x="63.623047" xlink:href="#d"/>
<use x="95.410156" xlink:href="#w"/>
<use x="159.033203" xlink:href="#q"/>
</g>
</g>
<g clip-path="url(#a)">
<g transform="translate(184.19 668.82) scale(.1 -.1)">
<use xlink:href="#c"/>
<use x="63.623047" xlink:href="#d"/>
<use x="95.410156" xlink:href="#w"/>
<use x="159.033203" xlink:href="#p"/>
</g>
</g>
<g clip-path="url(#a)">
<g transform="translate(64.302 418.69) scale(.1 -.1)">
<use xlink:href="#c"/>
<use x="63.623047" xlink:href="#d"/>
<use x="95.410156" xlink:href="#w"/>
<use x="159.033203" xlink:href="#ak"/>
</g>
</g>
<g clip-path="url(#a)">
<g transform="translate(64.302 544.08) scale(.1 -.1)">
<use xlink:href="#c"/>
<use x="63.623047" xlink:href="#d"/>
<use x="95.410156" xlink:href="#w"/>
<use x="159.033203" xlink:href="#aj"/>
</g>
</g>
<g clip-path="url(#a)">
<g transform="translate(60.261 668.82) scale(.1 -.1)">
<use xlink:href="#c"/>
<use x="63.623047" xlink:href="#d"/>
<use x="95.410156" xlink:href="#r"/>
<use x="159.033203" xlink:href="#ap"/>
</g>
</g>
<g clip-path="url(#a)">
<g transform="translate(68.343 668.82) scale(.1 -.1)">
<use xlink:href="#c"/>
<use x="63.623047" xlink:href="#d"/>
<use x="95.410156" xlink:href="#r"/>
<use x="159.033203" xlink:href="#c"/>
</g>
</g>
<g clip-path="url(#a)">
<g transform="translate(89.896 668.82) scale(.1 -.1)">
<use xlink:href="#c"/>
<use x="63.623047" xlink:href="#d"/>
<use x="95.410156" xlink:href="#r"/>
<use x="159.033203" xlink:href="#q"/>
</g>
</g>
<g clip-path="url(#a)">
<g transform="translate(211.13 668.82) scale(.1 -.1)">
<use xlink:href="#c"/>
<use x="63.623047" xlink:href="#d"/>
<use x="95.410156" xlink:href="#r"/>
<use x="159.033203" xlink:href="#p"/>
</g>
</g>
<g clip-path="url(#a)">
<g transform="translate(348.53 668.82) scale(.1 -.1)">
<use xlink:href="#c"/>
<use x="63.623047" xlink:href="#d"/>
<use x="95.410156" xlink:href="#r"/>
<use x="159.033203" xlink:href="#w"/>
</g>
</g>
<g clip-path="url(#a)">
<g transform="translate(577.53 668.82) scale(.1 -.1)">
<use xlink:href="#c"/>
<use x="63.623047" xlink:href="#d"/>
<use x="95.410156" xlink:href="#r"/>
<use x="159.033203" xlink:href="#r"/>
</g>
</g>
<g clip-path="url(#a)">
<g transform="translate(941.24 668.82) scale(.1 -.1)">
<use xlink:href="#c"/>
<use x="63.623047" xlink:href="#d"/>
<use x="95.410156" xlink:href="#r"/>
<use x="159.033203" xlink:href="#ak"/>
</g>
</g>
<g clip-path="url(#a)">
<g transform="translate(1401.9 668.82) scale(.1 -.1)">
<use xlink:href="#c"/>
<use x="63.623047" xlink:href="#d"/>
<use x="95.410156" xlink:href="#r"/>
<use x="159.033203" xlink:href="#ao"/>
</g>
</g>
<g clip-path="url(#a)">
<g transform="translate(1488.1 668.82) scale(.1 -.1)">
<use xlink:href="#c"/>
<use x="63.623047" xlink:href="#d"/>
<use x="95.410156" xlink:href="#r"/>
<use x="159.033203" xlink:href="#aj"/>
</g>
</g>
<defs>
<clipPath id="a">
<rect width="1570.7" height="826.67"/>
</clipPath>
</defs>
</svg>
