<?xml version="1.0" encoding="UTF-8"?>
<!DOCTYPE svg  PUBLIC '-//W3C//DTD SVG 1.1//EN'  'http://www.w3.org/Graphics/SVG/1.1/DTD/svg11.dtd'>
<svg width="1368pt" height="720pt" version="1.1" viewBox="0 0 1368 720" xmlns="http://www.w3.org/2000/svg" xmlns:xlink="http://www.w3.org/1999/xlink">
<metadata>
<rdf:RDF xmlns:cc="http://creativecommons.org/ns#" xmlns:dc="http://purl.org/dc/elements/1.1/" xmlns:rdf="http://www.w3.org/1999/02/22-rdf-syntax-ns#">
<cc:Work>
<dc:type rdf:resource="http://purl.org/dc/dcmitype/StillImage"/>
<dc:date>2021-02-01T11:22:51.065848</dc:date>
<dc:format>image/svg+xml</dc:format>
<dc:creator>
<cc:Agent>
<dc:title>Matplotlib v3.3.3, https://matplotlib.org/</dc:title>
</cc:Agent>
</dc:creator>
</cc:Work>
</rdf:RDF>
</metadata>
<defs>
<style type="text/css">*{stroke-linecap:butt;stroke-linejoin:round;}</style>
</defs>
<path d="m0 720h1368v-720h-1368z" fill="#fff"/>
<g fill="none" stroke="#000">
<path d="m602.91 32.727-463.42 94.371" clip-path="url(#a)"/>
<path d="m602.91 32.727-177.1 376.39" clip-path="url(#a)"/>
<path d="m602.91 32.727 127.9 282.61" clip-path="url(#a)"/>
<path d="m602.91 32.727 375.8 562.84" clip-path="url(#a)"/>
<path d="m602.91 32.727 468.38 469.86" clip-path="url(#a)"/>
<path d="m602.91 32.727-309.28 562.84" clip-path="url(#a)"/>
<path d="m602.91 32.727-22.286 562.84" clip-path="url(#a)"/>
<path d="m139.49 127.1-63.165 94.213" clip-path="url(#a)"/>
<path d="m139.49 127.1-21.762 468.47" clip-path="url(#a)"/>
<path d="m139.49 127.1-0.16073 468.47" clip-path="url(#a)"/>
<path d="m139.49 127.1 85.089 282.02" clip-path="url(#a)"/>
<path d="m425.81 409.12-70.462 93.468" clip-path="url(#a)"/>
<path d="m425.81 409.12-2.5716 186.45" clip-path="url(#a)"/>
<path d="m425.81 409.12 73.034 93.468" clip-path="url(#a)"/>
<path d="m730.8 315.33-91.55 280.23" clip-path="url(#a)"/>
<path d="m730.8 315.33-29.831 280.23" clip-path="url(#a)"/>
<path d="m730.8 315.33 121.38 93.786" clip-path="url(#a)"/>
<path d="m978.71 595.57v91.705" clip-path="url(#a)"/>
<path d="m1071.3 502.59-15.43 92.98" clip-path="url(#a)"/>
<path d="m1071.3 502.59 64.805 92.98" clip-path="url(#a)"/>
<path d="m1071.3 502.59 148.13 92.98" clip-path="url(#a)"/>
<path d="m1071.3 502.59-432.03 92.98" clip-path="url(#a)" stroke-dasharray="3.7,1.6"/>
<path d="m1071.3 502.59 234.53 92.98" clip-path="url(#a)"/>
<path d="m1055.9 595.57v91.705" clip-path="url(#a)"/>
<path d="m1136.1 595.57v91.705" clip-path="url(#a)"/>
<path d="m1219.4 595.57v91.705" clip-path="url(#a)"/>
<path d="m639.25 595.57v91.705" clip-path="url(#a)"/>
<path d="m700.97 595.57v91.705" clip-path="url(#a)"/>
<path d="m852.18 409.12-52.461 93.468" clip-path="url(#a)"/>
<path d="m852.18 409.12 52.461 186.45" clip-path="url(#a)"/>
<path d="m799.72 502.59-33.945 92.98" clip-path="url(#a)"/>
<path d="m799.72 502.59 33.945 92.98" clip-path="url(#a)"/>
<path d="m904.65 595.57v91.705" clip-path="url(#a)"/>
<path d="m765.78 595.57v91.705" clip-path="url(#a)"/>
<path d="m833.67 595.57v91.705" clip-path="url(#a)"/>
<path d="m355.35 502.59-21.602 92.98" clip-path="url(#a)"/>
<path d="m355.35 502.59 21.602 92.98" clip-path="url(#a)"/>
<path d="m423.24 595.57v91.705" clip-path="url(#a)"/>
<path d="m498.84 502.59-26.231 92.98" clip-path="url(#a)"/>
<path d="m498.84 502.59 26.231 92.98" clip-path="url(#a)"/>
<path d="m472.61 595.57v91.705" clip-path="url(#a)"/>
<path d="m525.07 595.57v91.705" clip-path="url(#a)"/>
<path d="m333.75 595.57v91.705" clip-path="url(#a)"/>
<path d="m376.95 595.57v91.705" clip-path="url(#a)"/>
<path d="m76.326 221.31-14.144 374.26" clip-path="url(#a)"/>
<path d="m76.326 221.31-4.8861 374.26" clip-path="url(#a)"/>
<path d="m76.326 221.31 19.03 94.023" clip-path="url(#a)"/>
<path d="m117.73 595.57v91.705" clip-path="url(#a)"/>
<path d="m139.33 595.57v91.705" clip-path="url(#a)"/>
<path d="m224.58 409.12-14.273 93.468" clip-path="url(#a)"/>
<path d="m224.58 409.12 15.044 93.468" clip-path="url(#a)"/>
<path d="m224.58 409.12 32.017 186.45" clip-path="url(#a)"/>
<path d="m224.58 409.12-32.788 186.45" clip-path="url(#a)"/>
<path d="m210.31 502.59 46.289 92.98" clip-path="url(#a)" stroke-dasharray="3.7,1.6"/>
<path d="m210.31 502.59-46.289 92.98" clip-path="url(#a)"/>
<path d="m239.62 502.59 16.973 92.98" clip-path="url(#a)" stroke-dasharray="3.7,1.6"/>
<path d="m239.62 502.59-16.973 92.98" clip-path="url(#a)"/>
<path d="m256.6 595.57v91.705" clip-path="url(#a)"/>
<path d="m222.65 595.57v91.705" clip-path="url(#a)"/>
<path d="m164.02 595.57v91.705" clip-path="url(#a)"/>
<path d="m62.182 595.57v91.705" clip-path="url(#a)"/>
<path d="m71.44 595.57v91.705" clip-path="url(#a)"/>
<path d="m95.356 315.33-3.8574 93.786" clip-path="url(#a)"/>
<path d="m95.356 315.33 3.8574 187.25" clip-path="url(#a)"/>
<path d="m91.498 409.12 7.7149 93.468" clip-path="url(#a)" stroke-dasharray="3.7,1.6"/>
<path d="m91.498 409.12-7.7149 186.45" clip-path="url(#a)"/>
<path d="m99.213 502.59v92.98" clip-path="url(#a)"/>
<path d="m99.213 595.57v91.705" clip-path="url(#a)"/>
<path d="m83.783 595.57v91.705" clip-path="url(#a)"/>
<path d="m191.79 595.57v91.705" clip-path="url(#a)"/>
<path d="m293.63 595.57v91.705" clip-path="url(#a)"/>
<path d="m580.62 595.57v91.705" clip-path="url(#a)"/>
<path d="m1305.8 595.57v91.705" clip-path="url(#a)"/>
</g>
<path d="m369.5 86.658 5.8953-1.2005q2.3517-0.47891 1.8728-2.8306l-1.545-7.5868q-0.47891-2.3517-2.8306-1.8728l-5.8953 1.2005q-2.3517 0.47891-1.8728 2.8306l1.545 7.5868q0.47891 2.3517 2.8306 1.8728z" clip-path="url(#a)" fill="#fff" stroke="#fff"/>
<g clip-path="url(#a)">
<g transform="translate(368.69 82.676) rotate(-11.51) scale(.08 -.08)">
<defs>
<path id="ah" d="m9.8125 72.906h9.8594v-29.891h35.844v29.891h9.8594v-72.906h-9.8594v34.719h-35.844v-34.719h-9.8594z"/>
</defs>
<use xlink:href="#ah"/>
</g>
</g>
<path d="m518.75 226.32 2.5614-5.4438q1.0218-2.1716-1.1498-3.1934l-7.0058-3.2963q-2.1716-1.0218-3.1934 1.1498l-2.5614 5.4438q-1.0218 2.1716 1.1498 3.1934l7.0058 3.2963q2.1716 1.0218 3.1934-1.1498z" clip-path="url(#a)" fill="#fff" stroke="#fff"/>
<g clip-path="url(#a)">
<g transform="translate(515.07 224.59) rotate(-64.802) scale(.08 -.08)">
<use xlink:href="#ah"/>
</g>
</g>
<path d="m659.9 173.88 2.4805 5.4811q0.98953 2.1865 3.176 1.197l7.0538-3.1923q2.1865-0.98953 1.197-3.176l-2.4805-5.4811q-0.98953-2.1865-3.176-1.197l-7.0538 3.1923q-2.1865 0.98953-1.197 3.176z" clip-path="url(#a)" fill="#fff" stroke="#fff"/>
<g clip-path="url(#a)">
<g transform="translate(663.6 172.2) rotate(65.65) scale(.08 -.08)">
<use xlink:href="#ah"/>
</g>
</g>
<path d="m784.35 315.78 2.4752 3.7071q1.3327 1.996 3.3287 0.66329l6.4391-4.2993q1.996-1.3327 0.66329-3.3287l-2.4752-3.7071q-1.3327-1.996-3.3287-0.66329l-6.4391 4.2993q-1.996 1.3327-0.66329 3.3287z" clip-path="url(#a)" fill="#fff" stroke="#fff"/>
<g clip-path="url(#a)">
<g transform="translate(787.73 313.52) rotate(56.27) scale(.08 -.08)">
<defs>
<path id="ax" d="m9.8125 72.906h9.8594v-64.609h35.5v-8.2969h-45.359z"/>
</defs>
<use xlink:href="#ax"/>
</g>
</g>
<path d="m830.53 269.95 4.2474 4.2608q1.6944 1.6997 3.3941 0.005358l5.4834-5.4661q1.6997-1.6944 0.005358-3.3941l-4.2474-4.2608q-1.6944-1.6997-3.3941-0.005358l-5.4834 5.4661q-1.6997 1.6944-0.005358 3.3941z" clip-path="url(#a)" fill="#fff" stroke="#fff"/>
<g clip-path="url(#a)">
<g transform="translate(833.41 267.09) rotate(45.09) scale(.08 -.08)">
<use xlink:href="#ah"/>
</g>
</g>
<path d="m452.35 319.73 2.8196-5.1313q1.1558-2.1034-0.94757-3.2592l-6.7855-3.7286q-2.1034-1.1558-3.2592 0.94758l-2.8196 5.1313q-1.1558 2.1034 0.94758 3.2592l6.7855 3.7286q2.1034 1.1558 3.2592-0.94757z" clip-path="url(#a)" fill="#fff" stroke="#fff"/>
<g clip-path="url(#a)">
<g transform="translate(448.79 317.78) rotate(-61.211) scale(.08 -.08)">
<defs>
<path id="ag" d="m8.6875 72.906h9.9219v-44.297q0-11.719 4.2344-16.875 4.25-5.1406 13.781-5.1406 9.4688 0 13.719 5.1406 4.25 5.1562 4.25 16.875v44.297h9.9062v-45.516q0-14.25-7.0625-21.531-7.0469-7.2812-20.812-7.2812-13.828 0-20.891 7.2812-7.0469 7.2812-7.0469 21.531z"/>
</defs>
<use xlink:href="#ag"/>
</g>
</g>
<path d="m597.91 317.32 0.23165-5.8504q0.094955-2.3981-2.3032-2.4931l-7.7364-0.30633q-2.3981-0.094955-2.4931 2.3032l-0.23165 5.8504q-0.094954 2.3981 2.3032 2.4931l7.7364 0.30633q2.3981 0.094954 2.4931-2.3032z" clip-path="url(#a)" fill="#fff" stroke="#fff"/>
<g clip-path="url(#a)">
<g transform="translate(593.85 317.16) rotate(-87.733) scale(.08 -.08)">
<use xlink:href="#ag"/>
</g>
</g>
<path d="m111.59 179.97 3.0475-4.5454q1.3365-1.9934-0.65692-3.3299l-6.4309-4.3116q-1.9934-1.3365-3.3299 0.65692l-3.0475 4.5454q-1.3365 1.9934 0.65692 3.3299l6.4309 4.3116q1.9934 1.3365 3.3299-0.65692z" clip-path="url(#a)" fill="#fff" stroke="#fff"/>
<g clip-path="url(#a)">
<g transform="translate(108.22 177.71) rotate(-56.16) scale(.08 -.08)">
<defs>
<path id="q" d="m34.188 63.188-13.391-36.281h26.812zm-5.5781 9.7188h11.188l27.781-72.906h-10.25l-6.6406 18.703h-32.859l-6.6406-18.703h-10.406z"/>
</defs>
<use xlink:href="#q"/>
</g>
</g>
<path d="m134.73 364.7 0.28585-6.1534q0.11137-2.3974-2.286-2.5088l-7.7342-0.35928q-2.3974-0.11137-2.5088 2.286l-0.28585 6.1534q-0.11137 2.3974 2.286 2.5088l7.7342 0.35928q2.3974 0.11137 2.5088-2.286z" clip-path="url(#a)" fill="#fff" stroke="#fff"/>
<g clip-path="url(#a)">
<g transform="translate(130.67 364.51) rotate(-87.34) scale(.08 -.08)">
<defs>
<path id="at" d="m19.672 64.797v-56.688h11.922q15.094 0 22.094 6.8281 7 6.8438 7 21.594 0 14.641-7 21.453t-22.094 6.8125zm-9.8594 8.1094h20.266q21.188 0 31.094-8.8125 9.9219-8.8125 9.9219-27.562 0-18.859-9.9688-27.703-9.9531-8.8281-31.047-8.8281h-20.266z"/>
</defs>
<use xlink:href="#at"/>
</g>
</g>
<path d="m145.68 363.75 0.001655-4.8238q8.24e-4 -2.4-2.3992-2.4008l-7.7425-0.002657q-2.4-8.23e-4 -2.4008 2.3992l-0.001655 4.8237q-8.23e-4 2.4 2.3992 2.4008l7.7425 0.002656q2.4 8.23e-4 2.4008-2.3992z" clip-path="url(#a)" fill="#fff" stroke="#fff"/>
<g clip-path="url(#a)">
<g transform="translate(141.62 363.75) rotate(-89.98) scale(.08 -.08)">
<defs>
<path id="as" d="m19.672 64.797v-27.391h12.406q6.8906 0 10.641 3.5625 3.7656 3.5625 3.7656 10.156 0 6.5469-3.7656 10.109-3.75 3.5625-10.641 3.5625zm-9.8594 8.1094h22.266q12.266 0 18.531-5.5469 6.2812-5.5469 6.2812-16.234 0-10.797-6.2812-16.312-6.2656-5.5156-18.531-5.5156h-12.406v-29.297h-9.8594z"/>
</defs>
<use xlink:href="#as"/>
</g>
</g>
<path d="m175.24 267.3 1.5807 5.2392q0.69324 2.2977 2.9909 1.6045l7.4125-2.2364q2.2977-0.69324 1.6045-2.9909l-1.5807-5.2392q-0.69324-2.2977-2.9909-1.6045l-7.4125 2.2364q-2.2977 0.69324-1.6045 2.9909z" clip-path="url(#a)" fill="#fff" stroke="#fff"/>
<g clip-path="url(#a)">
<g transform="translate(179.13 266.13) rotate(73.211) scale(.08 -.08)">
<use xlink:href="#q"/>
</g>
</g>
<path d="m393.94 461.81 3.2943-4.3699q1.4447-1.9164-0.4717-3.3612l-6.1825-4.6608q-1.9164-1.4447-3.3612 0.4717l-3.2943 4.3699q-1.4447 1.9164 0.4717 3.3612l6.1825 4.6608q1.9164 1.4447 3.3612-0.4717z" clip-path="url(#a)" fill="#fff" stroke="#fff"/>
<g clip-path="url(#a)">
<g transform="translate(390.69 459.37) rotate(-52.989) scale(.08 -.08)">
<use xlink:href="#q"/>
</g>
</g>
<path d="m430.76 504.97 0.070043-5.0783q0.033099-2.3998-2.3667-2.4329l-7.7418-0.10678q-2.3998-0.033099-2.4329 2.3667l-0.070043 5.0783q-0.0331 2.3998 2.3667 2.4329l7.7418 0.10678q2.3998 0.0331 2.4329-2.3667z" clip-path="url(#a)" fill="#fff" stroke="#fff"/>
<g clip-path="url(#a)">
<g transform="translate(426.7 504.91) rotate(-89.21) scale(.08 -.08)">
<defs>
<path id="y" d="m53.516 70.516v-9.625q-5.6094 2.6875-10.594 4-4.9844 1.3281-9.625 1.3281-8.0469 0-12.422-3.125t-4.375-8.8906q0-4.8438 2.9062-7.3125 2.9062-2.4531 11.016-3.9688l5.9531-1.2188q11.031-2.1094 16.281-7.4062t5.25-14.172q0-10.609-7.1094-16.078-7.0938-5.4688-20.812-5.4688-5.1719 0-11.016 1.1719-5.8281 1.1719-12.078 3.4688v10.156q6-3.3594 11.766-5.0781 5.7656-1.7031 11.328-1.7031 8.4375 0 13.031 3.3125 4.5938 3.3281 4.5938 9.4844 0 5.3594-3.2969 8.3906t-10.812 4.5469l-6.0156 1.1719q-11.031 2.1875-15.969 6.875-4.9219 4.6875-4.9219 13.047 0 9.6719 6.8125 15.234t18.766 5.5625q5.1406 0 10.453-0.9375 5.3281-0.92188 10.891-2.7656z"/>
</defs>
<use xlink:href="#y"/>
</g>
</g>
<path d="m455.7 457.56 3.3695 4.3122q1.4777 1.8911 3.3688 0.41344l6.1009-4.7671q1.8911-1.4777 0.41344-3.3688l-3.3695-4.3122q-1.4777-1.8911-3.3688-0.41344l-6.1009 4.7671q-1.8911 1.4777-0.41344 3.3688z" clip-path="url(#a)" fill="#fff" stroke="#fff"/>
<g clip-path="url(#a)">
<g transform="translate(458.9 455.06) rotate(51.997) scale(.08 -.08)">
<use xlink:href="#q"/>
</g>
</g>
<path d="m690.14 460 1.6994-5.2019q0.74529-2.2813-1.5361-3.0266l-7.3597-2.4043q-2.2813-0.74529-3.0266 1.5361l-1.6994 5.2019q-0.74529 2.2813 1.5361 3.0266l7.3597 2.4043q2.2813 0.74529 3.0266-1.5361z" clip-path="url(#a)" fill="#fff" stroke="#fff"/>
<g clip-path="url(#a)">
<g transform="translate(686.28 458.74) rotate(-71.908) scale(.08 -.08)">
<use xlink:href="#q"/>
</g>
</g>
<path d="m721.86 458.64 0.53759-5.0502q0.25404-2.3865-2.1325-2.6406l-7.699-0.81956q-2.3865-0.25404-2.6406 2.1325l-0.53759 5.0502q-0.25404 2.3865 2.1325 2.6406l7.699 0.81956q2.3865 0.25404 2.6406-2.1325z" clip-path="url(#a)" fill="#fff" stroke="#fff"/>
<g clip-path="url(#a)">
<g transform="translate(717.81 458.21) rotate(-83.924) scale(.08 -.08)">
<use xlink:href="#y"/>
</g>
</g>
<path d="m785.49 365.52 4.3304 3.346q1.8991 1.4674 3.3665-0.43175l4.7339-6.1267q1.4674-1.8991-0.43175-3.3665l-4.3304-3.346q-1.8991-1.4674-3.3665 0.43175l-4.7339 6.1267q-1.4674 1.8991 0.43175 3.3665z" clip-path="url(#a)" fill="#fff" stroke="#fff"/>
<g clip-path="url(#a)">
<g transform="translate(787.98 362.3) rotate(37.692) scale(.08 -.08)">
<use xlink:href="#q"/>
</g>
</g>
<path d="m972.44 624.52v33.808q0 2.4 2.4 2.4h7.7425q2.4 0 2.4-2.4v-33.808q0-2.4-2.4-2.4h-7.7425q-2.4 0-2.4 2.4z" clip-path="url(#a)" fill="#fff" stroke="#fff"/>
<g clip-path="url(#a)">
<g transform="translate(976.5 624.52) rotate(90) scale(.08 -.08)">
<defs>
<path id="f" d="m-0.29688 72.906h61.672v-8.3125h-25.875v-64.594h-9.9062v64.594h-25.891z"/>
<path id="l" d="m56.203 29.594v-4.3906h-41.312q0.59375-9.2812 5.5938-14.141t13.938-4.8594q5.1719 0 10.031 1.2656t9.6562 3.8125v-8.5q-4.8438-2.0469-9.9219-3.125t-10.297-1.0781q-13.094 0-20.734 7.6094-7.6406 7.625-7.6406 20.625 0 13.422 7.25 21.297 7.25 7.8906 19.562 7.8906 11.031 0 17.453-7.1094 6.4219-7.0938 6.4219-19.297zm-8.9844 2.6406q-0.09375 7.3594-4.125 11.75-4.0312 4.4062-10.672 4.4062-7.5156 0-12.031-4.25t-5.2031-11.969z"/>
<path id="g" d="m41.109 46.297q-1.5156 0.875-3.2969 1.2812-1.7812 0.42188-3.9219 0.42188-7.625 0-11.703-4.9531t-4.0781-14.234v-28.812h-9.0312v54.688h9.0312v-8.5q2.8438 4.9844 7.375 7.3906 4.5469 2.4219 11.047 2.4219 0.92188 0 2.0469-0.125 1.125-0.10938 2.4844-0.35938z"/>
<path id="i" d="m52 44.188q3.375 6.0625 8.0625 8.9375t11.031 2.875q8.5469 0 13.188-5.9844 4.6406-5.9688 4.6406-17v-33.016h-9.0312v32.719q0 7.8594-2.7969 11.656-2.7812 3.8125-8.4844 3.8125-6.9844 0-11.047-4.6406-4.0469-4.625-4.0469-12.641v-30.906h-9.0312v32.719q0 7.9062-2.7812 11.688t-8.5938 3.7812q-6.8906 0-10.953-4.6562-4.0469-4.6562-4.0469-12.625v-30.906h-9.0312v54.688h9.0312v-8.5q3.0781 5.0312 7.375 7.4219t10.203 2.3906q5.9688 0 10.141-3.0312 4.1719-3.0156 6.1719-8.7812z"/>
<path id="k" d="m9.4219 54.688h8.9844v-54.688h-8.9844zm0 21.297h8.9844v-11.391h-8.9844z"/>
<path id="h" d="m54.891 33.016v-33.016h-8.9844v32.719q0 7.7656-3.0312 11.609-3.0312 3.8594-9.0781 3.8594-7.2812 0-11.484-4.6406-4.2031-4.625-4.2031-12.641v-30.906h-9.0312v54.688h9.0312v-8.5q3.2344 4.9375 7.5938 7.375 4.375 2.4375 10.094 2.4375 9.4219 0 14.25-5.8281 4.8438-5.8281 4.8438-17.156z"/>
<path id="e" d="m34.281 27.484q-10.891 0-15.094-2.4844t-4.2031-8.5q0-4.7812 3.1562-7.5938 3.1562-2.7969 8.5625-2.7969 7.4844 0 12 5.2969t4.5156 14.078v2zm17.922 3.7188v-31.203h-8.9844v8.2969q-3.0781-4.9688-7.6719-7.3438t-11.234-2.375q-8.3906 0-13.359 4.7188-4.9531 4.7188-4.9531 12.625 0 9.2188 6.1719 13.906 6.1875 4.6875 18.438 4.6875h12.609v0.89062q0 6.2031-4.0781 9.5938t-11.453 3.3906q-4.6875 0-9.1406-1.125-4.4375-1.125-8.5312-3.375v8.3125q4.9219 1.9062 9.5625 2.8438 4.6406 0.95312 9.0312 0.95312 11.875 0 17.734-6.1562 5.8594-6.1406 5.8594-18.641z"/>
<path id="j" d="m9.4219 75.984h8.9844v-75.984h-8.9844z"/>
</defs>
<use xlink:href="#f"/>
<use x="44.083984" xlink:href="#l"/>
<use x="105.607422" xlink:href="#g"/>
<use x="144.970703" xlink:href="#i"/>
<use x="242.382812" xlink:href="#k"/>
<use x="270.166016" xlink:href="#h"/>
<use x="333.544922" xlink:href="#e"/>
<use x="394.824219" xlink:href="#j"/>
</g>
</g>
<path d="m1069.3 552.8 0.89589-5.3987q0.3929-2.3676-1.9747-2.7605l-7.638-1.2675q-2.3676-0.3929-2.7605 1.9747l-0.89589 5.3987q-0.3929 2.3676 1.9747 2.7605l7.638 1.2675q2.3676 0.3929 2.7605-1.9747z" clip-path="url(#a)" fill="#fff" stroke="#fff"/>
<g clip-path="url(#a)">
<g transform="translate(1065.3 552.14) rotate(-80.578) scale(.08 -.08)">
<use xlink:href="#q"/>
</g>
</g>
<path d="m1096.8 550.14 3.5223 5.0536q1.3723 1.969 3.3413 0.59664l6.3519-4.4271q1.969-1.3723 0.59664-3.3413l-3.5223-5.0536q-1.3723-1.969-3.3413-0.59664l-6.3519 4.4271q-1.969 1.3723-0.59664 3.3413z" clip-path="url(#a)" fill="#fff" stroke="#fff"/>
<g clip-path="url(#a)">
<g transform="translate(1100.1 547.81) rotate(55.124) scale(.08 -.08)">
<use xlink:href="#at"/>
</g>
</g>
<path d="m1140 553.11 4.0855 2.5645q2.0327 1.276 3.3087-0.75675l4.1163-6.5576q1.276-2.0327-0.75675-3.3087l-4.0855-2.5645q-2.0327-1.276-3.3087 0.75675l-4.1163 6.5576q-1.276 2.0327 0.75675 3.3087z" clip-path="url(#a)" fill="#fff" stroke="#fff"/>
<g clip-path="url(#a)">
<g transform="translate(1142.1 549.67) rotate(32.117) scale(.08 -.08)">
<use xlink:href="#as"/>
</g>
</g>
<path d="m853.91 555.78 5.35-1.1514q2.3463-0.50496 1.8413-2.8512l-1.629-7.5692q-0.50496-2.3463-2.8512-1.8413l-5.35 1.1514q-2.3463 0.50496-1.8413 2.8512l1.629 7.5692q0.50496 2.3463 2.8512 1.8413z" clip-path="url(#a)" fill="#fff" stroke="#fff"/>
<g clip-path="url(#a)">
<g transform="translate(853.06 551.81) rotate(-12.146) scale(.08 -.08)">
<use xlink:href="#q"/>
</g>
</g>
<path d="m1183.5 553.83 5.4429 2.1578q2.2311 0.88451 3.1156-1.3466l2.8535-7.1975q0.88451-2.2311-1.3466-3.1156l-5.4429-2.1578q-2.2311-0.88451-3.1156 1.3466l-2.8535 7.1975q-0.88451 2.2311 1.3466 3.1156z" clip-path="url(#a)" fill="#fff" stroke="#fff"/>
<g clip-path="url(#a)">
<g transform="translate(1185 550.05) rotate(21.626) scale(.08 -.08)">
<use xlink:href="#ag"/>
</g>
</g>
<path d="m1049.6 624.52v33.808q0 2.4 2.4 2.4h7.7425q2.4 0 2.4-2.4v-33.808q0-2.4-2.4-2.4h-7.7425q-2.4 0-2.4 2.4z" clip-path="url(#a)" fill="#fff" stroke="#fff"/>
<g clip-path="url(#a)">
<g transform="translate(1053.6 624.52) rotate(90) scale(.08 -.08)">
<use xlink:href="#f"/>
<use x="44.083984" xlink:href="#l"/>
<use x="105.607422" xlink:href="#g"/>
<use x="144.970703" xlink:href="#i"/>
<use x="242.382812" xlink:href="#k"/>
<use x="270.166016" xlink:href="#h"/>
<use x="333.544922" xlink:href="#e"/>
<use x="394.824219" xlink:href="#j"/>
</g>
</g>
<path d="m1129.8 624.52v33.808q0 2.4 2.4 2.4h7.7425q2.4 0 2.4-2.4v-33.808q0-2.4-2.4-2.4h-7.7425q-2.4 0-2.4 2.4z" clip-path="url(#a)" fill="#fff" stroke="#fff"/>
<g clip-path="url(#a)">
<g transform="translate(1133.9 624.52) rotate(90) scale(.08 -.08)">
<use xlink:href="#f"/>
<use x="44.083984" xlink:href="#l"/>
<use x="105.607422" xlink:href="#g"/>
<use x="144.970703" xlink:href="#i"/>
<use x="242.382812" xlink:href="#k"/>
<use x="270.166016" xlink:href="#h"/>
<use x="333.544922" xlink:href="#e"/>
<use x="394.824219" xlink:href="#j"/>
</g>
</g>
<path d="m1213.1 624.52v33.808q0 2.4 2.4 2.4h7.7425q2.4 0 2.4-2.4v-33.808q0-2.4-2.4-2.4h-7.7425q-2.4 0-2.4 2.4z" clip-path="url(#a)" fill="#fff" stroke="#fff"/>
<g clip-path="url(#a)">
<g transform="translate(1217.2 624.52) rotate(90) scale(.08 -.08)">
<use xlink:href="#f"/>
<use x="44.083984" xlink:href="#l"/>
<use x="105.607422" xlink:href="#g"/>
<use x="144.970703" xlink:href="#i"/>
<use x="242.382812" xlink:href="#k"/>
<use x="270.166016" xlink:href="#h"/>
<use x="333.544922" xlink:href="#e"/>
<use x="394.824219" xlink:href="#j"/>
</g>
</g>
<path d="m632.98 624.52v33.808q0 2.4 2.4 2.4h7.7425q2.4 0 2.4-2.4v-33.808q0-2.4-2.4-2.4h-7.7425q-2.4 0-2.4 2.4z" clip-path="url(#a)" fill="#fff" stroke="#fff"/>
<g clip-path="url(#a)">
<g transform="translate(637.05 624.52) rotate(90) scale(.08 -.08)">
<use xlink:href="#f"/>
<use x="44.083984" xlink:href="#l"/>
<use x="105.607422" xlink:href="#g"/>
<use x="144.970703" xlink:href="#i"/>
<use x="242.382812" xlink:href="#k"/>
<use x="270.166016" xlink:href="#h"/>
<use x="333.544922" xlink:href="#e"/>
<use x="394.824219" xlink:href="#j"/>
</g>
</g>
<path d="m694.7 624.52v33.808q0 2.4 2.4 2.4h7.7425q2.4 0 2.4-2.4v-33.808q0-2.4-2.4-2.4h-7.7425q-2.4 0-2.4 2.4z" clip-path="url(#a)" fill="#fff" stroke="#fff"/>
<g clip-path="url(#a)">
<g transform="translate(698.77 624.52) rotate(90) scale(.08 -.08)">
<use xlink:href="#f"/>
<use x="44.083984" xlink:href="#l"/>
<use x="105.607422" xlink:href="#g"/>
<use x="144.970703" xlink:href="#i"/>
<use x="242.382812" xlink:href="#k"/>
<use x="270.166016" xlink:href="#h"/>
<use x="333.544922" xlink:href="#e"/>
<use x="394.824219" xlink:href="#j"/>
</g>
</g>
<path d="m829.88 461.67 3.0823-5.4916q1.1747-2.0929-0.9182-3.2676l-6.7517-3.7896q-2.0929-1.1747-3.2676 0.9182l-3.0823 5.4916q-1.1747 2.0929 0.9182 3.2676l6.7517 3.7896q2.0929 1.1747 3.2676-0.9182z" clip-path="url(#a)" fill="#fff" stroke="#fff"/>
<g clip-path="url(#a)">
<g transform="translate(826.34 459.68) rotate(-60.696) scale(.08 -.08)">
<defs>
<path id="ar" d="m39.406 66.219q-10.75 0-17.078-8.0156-6.3125-8-6.3125-21.828 0-13.766 6.3125-21.781 6.3281-8 17.078-8 10.734 0 17.016 8 6.2812 8.0156 6.2812 21.781 0 13.828-6.2812 21.828-6.2812 8.0156-17.016 8.0156zm13.812-64.906 13-14.203h-11.922l-10.797 11.672q-1.6094-0.09375-2.4688-0.14062-0.84375-0.0625-1.625-0.0625-15.375 0-24.594 10.281-9.2031 10.281-9.2031 27.516 0 17.281 9.2031 27.562 9.2188 10.281 24.594 10.281 15.328 0 24.5-10.281 9.1875-10.281 9.1875-27.562 0-12.688-5.1094-21.734-5.0938-9.0312-14.766-13.328z"/>
</defs>
<use xlink:href="#ar"/>
</g>
</g>
<path d="m871.62 501.35 1.5131 5.3774q0.65005 2.3103 2.9603 1.6602l7.4531-2.0971q2.3103-0.65005 1.6602-2.9603l-1.5131-5.3774q-0.65005-2.3103-2.9603-1.6602l-7.4531 2.0971q-2.3103 0.65005-1.6602 2.9603z" clip-path="url(#a)" fill="#fff" stroke="#fff"/>
<g clip-path="url(#a)">
<g transform="translate(875.53 500.25) rotate(74.285) scale(.08 -.08)">
<defs>
<path id="x" d="m64.406 67.281v-10.391q-4.9844 4.6406-10.625 6.9219-5.6406 2.2969-11.984 2.2969-12.5 0-19.141-7.6406t-6.6406-22.094q0-14.406 6.6406-22.047t19.141-7.6406q6.3438 0 11.984 2.2969t10.625 6.9375v-10.312q-5.1719-3.5156-10.969-5.2812-5.7812-1.75-12.219-1.75-16.562 0-26.094 10.125-9.5156 10.141-9.5156 27.672 0 17.578 9.5156 27.703 9.5312 10.141 26.094 10.141 6.5312 0 12.312-1.7344 5.7969-1.7344 10.875-5.2031z"/>
</defs>
<use xlink:href="#x"/>
</g>
</g>
<path d="m787.77 553.6 1.7336-4.7484q0.82306-2.2545-1.4314-3.0775l-7.273-2.6552q-2.2545-0.82306-3.0775 1.4314l-1.7336 4.7484q-0.82306 2.2545 1.4314 3.0775l7.273 2.6552q2.2545 0.82306 3.0775-1.4314z" clip-path="url(#a)" fill="#fff" stroke="#fff"/>
<g clip-path="url(#a)">
<g transform="translate(783.96 552.21) rotate(-69.944) scale(.08 -.08)">
<defs>
<path id="aa" d="m9.8125 72.906h46.094v-8.3125h-36.234v-21.578h34.719v-8.2969h-34.719v-26.422h37.109v-8.2969h-46.969z"/>
</defs>
<use xlink:href="#aa"/>
</g>
</g>
<path d="m809.85 548.61 1.9158 5.2475q0.82306 2.2545 3.0775 1.4314l7.273-2.6552q2.2545-0.82306 1.4314-3.0775l-1.9158-5.2475q-0.82306-2.2545-3.0775-1.4314l-7.273 2.6552q-2.2545 0.82306-1.4314 3.0775z" clip-path="url(#a)" fill="#fff" stroke="#fff"/>
<g clip-path="url(#a)">
<g transform="translate(813.66 547.21) rotate(69.944) scale(.08 -.08)">
<use xlink:href="#x"/>
</g>
</g>
<path d="m898.37 624.52v33.808q0 2.4 2.4 2.4h7.7425q2.4 0 2.4-2.4v-33.808q0-2.4-2.4-2.4h-7.7425q-2.4 0-2.4 2.4z" clip-path="url(#a)" fill="#fff" stroke="#fff"/>
<g clip-path="url(#a)">
<g transform="translate(902.44 624.52) rotate(90) scale(.08 -.08)">
<use xlink:href="#f"/>
<use x="44.083984" xlink:href="#l"/>
<use x="105.607422" xlink:href="#g"/>
<use x="144.970703" xlink:href="#i"/>
<use x="242.382812" xlink:href="#k"/>
<use x="270.166016" xlink:href="#h"/>
<use x="333.544922" xlink:href="#e"/>
<use x="394.824219" xlink:href="#j"/>
</g>
</g>
<path d="m759.51 624.52v33.808q0 2.4 2.4 2.4h7.7425q2.4 0 2.4-2.4v-33.808q0-2.4-2.4-2.4h-7.7425q-2.4 0-2.4 2.4z" clip-path="url(#a)" fill="#fff" stroke="#fff"/>
<g clip-path="url(#a)">
<g transform="translate(763.57 624.52) rotate(90) scale(.08 -.08)">
<use xlink:href="#f"/>
<use x="44.083984" xlink:href="#l"/>
<use x="105.607422" xlink:href="#g"/>
<use x="144.970703" xlink:href="#i"/>
<use x="242.382812" xlink:href="#k"/>
<use x="270.166016" xlink:href="#h"/>
<use x="333.544922" xlink:href="#e"/>
<use x="394.824219" xlink:href="#j"/>
</g>
</g>
<path d="m827.4 624.52v33.808q0 2.4 2.4 2.4h7.7425q2.4 0 2.4-2.4v-33.808q0-2.4-2.4-2.4h-7.7425q-2.4 0-2.4 2.4z" clip-path="url(#a)" fill="#fff" stroke="#fff"/>
<g clip-path="url(#a)">
<g transform="translate(831.46 624.52) rotate(90) scale(.08 -.08)">
<use xlink:href="#f"/>
<use x="44.083984" xlink:href="#l"/>
<use x="105.607422" xlink:href="#g"/>
<use x="144.970703" xlink:href="#i"/>
<use x="242.382812" xlink:href="#k"/>
<use x="270.166016" xlink:href="#h"/>
<use x="333.544922" xlink:href="#e"/>
<use x="394.824219" xlink:href="#j"/>
</g>
</g>
<path d="m350.03 553.2 1.2579-5.4145q0.54312-2.3377-1.7946-2.8809l-7.5416-1.7521q-2.3377-0.54312-2.8809 1.7946l-1.2579 5.4145q-0.54312 2.3377 1.7946 2.8809l7.5416 1.7521q2.3377 0.54312 2.8809-1.7946z" clip-path="url(#a)" fill="#fff" stroke="#fff"/>
<g clip-path="url(#a)">
<g transform="translate(346.07 552.28) rotate(-76.921) scale(.08 -.08)">
<defs>
<path id="aq" d="m44.391 34.188q3.1719-1.0781 6.1719-4.5938t6.0312-9.6719l10.016-19.922h-10.609l-9.3125 18.703q-3.625 7.3281-7.0156 9.7188t-9.25 2.3906h-10.75v-30.812h-9.8594v72.906h22.266q12.5 0 18.656-5.2344 6.1562-5.2188 6.1562-15.766 0-6.8906-3.2031-11.438-3.2031-4.5312-9.2969-6.2812zm-24.719 30.609v-25.875h12.406q7.125 0 10.766 3.2969t3.6406 9.6875-3.6406 9.6406-10.766 3.25z"/>
</defs>
<use xlink:href="#aq"/>
</g>
</g>
<path d="m359.41 547.78 1.2642 5.4413q0.54312 2.3377 2.8809 1.7946l7.5416-1.7521q2.3377-0.54312 1.7946-2.8809l-1.2642-5.4413q-0.54312-2.3377-2.8809-1.7946l-7.5416 1.7521q-2.3377 0.54312-1.7946 2.8809z" clip-path="url(#a)" fill="#fff" stroke="#fff"/>
<g clip-path="url(#a)">
<g transform="translate(363.37 546.86) rotate(76.921) scale(.08 -.08)">
<use xlink:href="#x"/>
</g>
</g>
<path d="m416.97 624.52v33.808q0 2.4 2.4 2.4h7.7425q2.4 0 2.4-2.4v-33.808q0-2.4-2.4-2.4h-7.7425q-2.4 0-2.4 2.4z" clip-path="url(#a)" fill="#fff" stroke="#fff"/>
<g clip-path="url(#a)">
<g transform="translate(421.03 624.52) rotate(90) scale(.08 -.08)">
<use xlink:href="#f"/>
<use x="44.083984" xlink:href="#l"/>
<use x="105.607422" xlink:href="#g"/>
<use x="144.970703" xlink:href="#i"/>
<use x="242.382812" xlink:href="#k"/>
<use x="270.166016" xlink:href="#h"/>
<use x="333.544922" xlink:href="#e"/>
<use x="394.824219" xlink:href="#j"/>
</g>
</g>
<path d="m490.91 553.81 1.7098-6.0609q0.65163-2.3098-1.6582-2.9615l-7.4517-2.1022q-2.3098-0.65163-2.9615 1.6582l-1.7098 6.0609q-0.65163 2.3098 1.6582 2.9615l7.4517 2.1022q2.3098 0.65163 2.9615-1.6582z" clip-path="url(#a)" fill="#fff" stroke="#fff"/>
<g clip-path="url(#a)">
<g transform="translate(487 552.71) rotate(-74.246) scale(.08 -.08)">
<use xlink:href="#ar"/>
</g>
</g>
<path d="m505.16 548.09 1.5167 5.3764q0.65163 2.3098 2.9615 1.6582l7.4517-2.1022q2.3098-0.65163 1.6582-2.9615l-1.5167-5.3764q-0.65163-2.3098-2.9615-1.6582l-7.4517 2.1022q-2.3098 0.65163-1.6582 2.9615z" clip-path="url(#a)" fill="#fff" stroke="#fff"/>
<g clip-path="url(#a)">
<g transform="translate(509.08 546.99) rotate(74.246) scale(.08 -.08)">
<use xlink:href="#x"/>
</g>
</g>
<path d="m466.34 624.52v33.808q0 2.4 2.4 2.4h7.7425q2.4 0 2.4-2.4v-33.808q0-2.4-2.4-2.4h-7.7425q-2.4 0-2.4 2.4z" clip-path="url(#a)" fill="#fff" stroke="#fff"/>
<g clip-path="url(#a)">
<g transform="translate(470.41 624.52) rotate(90) scale(.08 -.08)">
<use xlink:href="#f"/>
<use x="44.083984" xlink:href="#l"/>
<use x="105.607422" xlink:href="#g"/>
<use x="144.970703" xlink:href="#i"/>
<use x="242.382812" xlink:href="#k"/>
<use x="270.166016" xlink:href="#h"/>
<use x="333.544922" xlink:href="#e"/>
<use x="394.824219" xlink:href="#j"/>
</g>
</g>
<path d="m518.8 624.52v33.808q0 2.4 2.4 2.4h7.7425q2.4 0 2.4-2.4v-33.808q0-2.4-2.4-2.4h-7.7425q-2.4 0-2.4 2.4z" clip-path="url(#a)" fill="#fff" stroke="#fff"/>
<g clip-path="url(#a)">
<g transform="translate(522.87 624.52) rotate(90) scale(.08 -.08)">
<use xlink:href="#f"/>
<use x="44.083984" xlink:href="#l"/>
<use x="105.607422" xlink:href="#g"/>
<use x="144.970703" xlink:href="#i"/>
<use x="242.382812" xlink:href="#k"/>
<use x="270.166016" xlink:href="#h"/>
<use x="333.544922" xlink:href="#e"/>
<use x="394.824219" xlink:href="#j"/>
</g>
</g>
<path d="m327.47 624.52v33.808q0 2.4 2.4 2.4h7.7425q2.4 0 2.4-2.4v-33.808q0-2.4-2.4-2.4h-7.7425q-2.4 0-2.4 2.4z" clip-path="url(#a)" fill="#fff" stroke="#fff"/>
<g clip-path="url(#a)">
<g transform="translate(331.54 624.52) rotate(90) scale(.08 -.08)">
<use xlink:href="#f"/>
<use x="44.083984" xlink:href="#l"/>
<use x="105.607422" xlink:href="#g"/>
<use x="144.970703" xlink:href="#i"/>
<use x="242.382812" xlink:href="#k"/>
<use x="270.166016" xlink:href="#h"/>
<use x="333.544922" xlink:href="#e"/>
<use x="394.824219" xlink:href="#j"/>
</g>
</g>
<path d="m370.68 624.52v33.808q0 2.4 2.4 2.4h7.7425q2.4 0 2.4-2.4v-33.808q0-2.4-2.4-2.4h-7.7425q-2.4 0-2.4 2.4z" clip-path="url(#a)" fill="#fff" stroke="#fff"/>
<g clip-path="url(#a)">
<g transform="translate(374.74 624.52) rotate(90) scale(.08 -.08)">
<use xlink:href="#f"/>
<use x="44.083984" xlink:href="#l"/>
<use x="105.607422" xlink:href="#g"/>
<use x="144.970703" xlink:href="#i"/>
<use x="242.382812" xlink:href="#k"/>
<use x="270.166016" xlink:href="#h"/>
<use x="333.544922" xlink:href="#e"/>
<use x="394.824219" xlink:href="#j"/>
</g>
</g>
<path d="m75.416 411.45 0.20993-5.5548q0.090636-2.3983-2.3077-2.4889l-7.737-0.2924q-2.3983-0.090636-2.4889 2.3077l-0.20993 5.5548q-0.090636 2.3983 2.3077 2.4889l7.737 0.2924q2.3983 0.090636 2.4889-2.3077z" clip-path="url(#a)" fill="#fff" stroke="#fff"/>
<g clip-path="url(#a)">
<g transform="translate(71.355 411.3) rotate(-87.836) scale(.08 -.08)">
<use xlink:href="#aq"/>
</g>
</g>
<path d="m80.117 411.31 0.072925-5.5858q0.03133-2.3998-2.3685-2.4311l-7.7418-0.10107q-2.3998-0.03133-2.4311 2.3685l-0.072925 5.5858q-0.03133 2.3998 2.3685 2.4311l7.7418 0.10107q2.3998 0.03133 2.4311-2.3685z" clip-path="url(#a)" fill="#fff" stroke="#fff"/>
<g clip-path="url(#a)">
<g transform="translate(76.054 411.26) rotate(-89.252) scale(.08 -.08)">
<use xlink:href="#x"/>
</g>
</g>
<path d="m79.193 267.09 1.0028 4.9545q0.4761 2.3523 2.8284 1.8762l7.5886-1.5359q2.3523-0.4761 1.8762-2.8284l-1.0028-4.9545q-0.4761-2.3523-2.8284-1.8762l-7.5886 1.5359q-2.3523 0.4761-1.8762 2.8284z" clip-path="url(#a)" fill="#fff" stroke="#fff"/>
<g clip-path="url(#a)">
<g transform="translate(83.176 266.28) rotate(78.558) scale(.08 -.08)">
<use xlink:href="#aa"/>
</g>
</g>
<path d="m111.46 624.52v33.808q0 2.4 2.4 2.4h7.7425q2.4 0 2.4-2.4v-33.808q0-2.4-2.4-2.4h-7.7425q-2.4 0-2.4 2.4z" clip-path="url(#a)" fill="#fff" stroke="#fff"/>
<g clip-path="url(#a)">
<g transform="translate(115.52 624.52) rotate(90) scale(.08 -.08)">
<use xlink:href="#f"/>
<use x="44.083984" xlink:href="#l"/>
<use x="105.607422" xlink:href="#g"/>
<use x="144.970703" xlink:href="#i"/>
<use x="242.382812" xlink:href="#k"/>
<use x="270.166016" xlink:href="#h"/>
<use x="333.544922" xlink:href="#e"/>
<use x="394.824219" xlink:href="#j"/>
</g>
</g>
<path d="m133.06 624.52v33.808q0 2.4 2.4 2.4h7.7425q2.4 0 2.4-2.4v-33.808q0-2.4-2.4-2.4h-7.7425q-2.4 0-2.4 2.4z" clip-path="url(#a)" fill="#fff" stroke="#fff"/>
<g clip-path="url(#a)">
<g transform="translate(137.12 624.52) rotate(90) scale(.08 -.08)">
<use xlink:href="#f"/>
<use x="44.083984" xlink:href="#l"/>
<use x="105.607422" xlink:href="#g"/>
<use x="144.970703" xlink:href="#i"/>
<use x="242.382812" xlink:href="#k"/>
<use x="270.166016" xlink:href="#h"/>
<use x="333.544922" xlink:href="#e"/>
<use x="394.824219" xlink:href="#j"/>
</g>
</g>
<path d="m223.26 459.3 0.76305-4.9971q0.36228-2.3725-2.0102-2.7348l-7.6538-1.1687q-2.3725-0.36228-2.7348 2.0102l-0.76305 4.9971q-0.36228 2.3725 2.0102 2.7348l7.6538 1.1687q2.3725 0.36228 2.7348-2.0102z" clip-path="url(#a)" fill="#fff" stroke="#fff"/>
<g clip-path="url(#a)">
<g transform="translate(219.24 458.69) rotate(-81.318) scale(.08 -.08)">
<use xlink:href="#aa"/>
</g>
</g>
<path d="m225.51 454.36 0.80328 4.9908q0.38138 2.3695 2.7509 1.9881l7.6441-1.2303q2.3695-0.38138 1.9881-2.7509l-0.80328-4.9908q-0.38138-2.3695-2.7509-1.9881l-7.6441 1.2303q-2.3695 0.38138-1.9881 2.7509z" clip-path="url(#a)" fill="#fff" stroke="#fff"/>
<g clip-path="url(#a)">
<g transform="translate(229.52 453.71) rotate(80.856) scale(.08 -.08)">
<use xlink:href="#aa"/>
</g>
</g>
<path d="m233.93 500.65 0.94543 5.5057q0.40618 2.3654 2.7716 1.9592l7.6308-1.3104q2.3654-0.40618 1.9592-2.7716l-0.94543-5.5057q-0.40618-2.3654-2.7716-1.9592l-7.6308 1.3104q-2.3654 0.40618-1.9592 2.7716z" clip-path="url(#a)" fill="#fff" stroke="#fff"/>
<g clip-path="url(#a)">
<g transform="translate(237.94 499.96) rotate(80.256) scale(.08 -.08)">
<use xlink:href="#x"/>
</g>
</g>
<path d="m213.86 506.31 1.0141-5.7665q0.41568-2.3637-1.9481-2.7794l-7.6255-1.341q-2.3637-0.41568-2.7794 1.948l-1.0141 5.7665q-0.41568 2.3637 1.9481 2.7794l7.6255 1.341q2.3637 0.41568 2.7794-1.9481z" clip-path="url(#a)" fill="#fff" stroke="#fff"/>
<g clip-path="url(#a)">
<g transform="translate(209.85 505.61) rotate(-80.026) scale(.08 -.08)">
<use xlink:href="#ag"/>
</g>
</g>
<path d="m226.62 549.42 2.4389 4.899q1.0696 2.1485 3.2181 1.0789l6.9311-3.4506q2.1485-1.0696 1.0789-3.2181l-2.4389-4.899q-1.0696-2.1485-3.2181-1.0789l-6.9311 3.4506q-2.1485 1.0696-1.0789 3.2181z" clip-path="url(#a)" fill="#fff" stroke="#fff"/>
<g clip-path="url(#a)">
<g transform="translate(230.26 547.61) rotate(63.534) scale(.08 -.08)">
<use xlink:href="#q"/>
</g>
</g>
<path d="m191.64 554.15 2.2634-4.5465q1.0696-2.1485-1.0789-3.2181l-6.9311-3.4506q-2.1485-1.0696-3.2181 1.0789l-2.2634 4.5465q-1.0696 2.1485 1.0789 3.2181l6.9311 3.4506q2.1485 1.0696 3.2181-1.0789z" clip-path="url(#a)" fill="#fff" stroke="#fff"/>
<g clip-path="url(#a)">
<g transform="translate(188.01 552.34) rotate(-63.534) scale(.08 -.08)">
<use xlink:href="#y"/>
</g>
</g>
<path d="m241.45 547.51 0.98272 5.3835q0.43098 2.361 2.792 1.93l7.6166-1.3903q2.361-0.43098 1.93-2.792l-0.98272-5.3835q-0.43098-2.361-2.792-1.93l-7.6166 1.3903q-2.361 0.43098-1.93 2.792z" clip-path="url(#a)" fill="#fff" stroke="#fff"/>
<g clip-path="url(#a)">
<g transform="translate(245.45 546.78) rotate(79.655) scale(.08 -.08)">
<use xlink:href="#q"/>
</g>
</g>
<path d="m236.85 552.7 0.91201-4.9962q0.43098-2.361-1.93-2.792l-7.6166-1.3903q-2.361-0.43098-2.792 1.93l-0.91201 4.9962q-0.43098 2.361 1.93 2.792l7.6166 1.3903q2.361 0.43098 2.792-1.93z" clip-path="url(#a)" fill="#fff" stroke="#fff"/>
<g clip-path="url(#a)">
<g transform="translate(232.85 551.97) rotate(-79.655) scale(.08 -.08)">
<use xlink:href="#y"/>
</g>
</g>
<path d="m250.33 624.52v33.808q0 2.4 2.4 2.4h7.7425q2.4 0 2.4-2.4v-33.808q0-2.4-2.4-2.4h-7.7425q-2.4 0-2.4 2.4z" clip-path="url(#a)" fill="#fff" stroke="#fff"/>
<g clip-path="url(#a)">
<g transform="translate(254.39 624.52) rotate(90) scale(.08 -.08)">
<use xlink:href="#f"/>
<use x="44.083984" xlink:href="#l"/>
<use x="105.607422" xlink:href="#g"/>
<use x="144.970703" xlink:href="#i"/>
<use x="242.382812" xlink:href="#k"/>
<use x="270.166016" xlink:href="#h"/>
<use x="333.544922" xlink:href="#e"/>
<use x="394.824219" xlink:href="#j"/>
</g>
</g>
<path d="m216.38 624.52v33.808q0 2.4 2.4 2.4h7.7425q2.4 0 2.4-2.4v-33.808q0-2.4-2.4-2.4h-7.7425q-2.4 0-2.4 2.4z" clip-path="url(#a)" fill="#fff" stroke="#fff"/>
<g clip-path="url(#a)">
<g transform="translate(220.44 624.52) rotate(90) scale(.08 -.08)">
<use xlink:href="#f"/>
<use x="44.083984" xlink:href="#l"/>
<use x="105.607422" xlink:href="#g"/>
<use x="144.970703" xlink:href="#i"/>
<use x="242.382812" xlink:href="#k"/>
<use x="270.166016" xlink:href="#h"/>
<use x="333.544922" xlink:href="#e"/>
<use x="394.824219" xlink:href="#j"/>
</g>
</g>
<path d="m157.75 624.52v33.808q0 2.4 2.4 2.4h7.7425q2.4 0 2.4-2.4v-33.808q0-2.4-2.4-2.4h-7.7425q-2.4 0-2.4 2.4z" clip-path="url(#a)" fill="#fff" stroke="#fff"/>
<g clip-path="url(#a)">
<g transform="translate(161.81 624.52) rotate(90) scale(.08 -.08)">
<use xlink:href="#f"/>
<use x="44.083984" xlink:href="#l"/>
<use x="105.607422" xlink:href="#g"/>
<use x="144.970703" xlink:href="#i"/>
<use x="242.382812" xlink:href="#k"/>
<use x="270.166016" xlink:href="#h"/>
<use x="333.544922" xlink:href="#e"/>
<use x="394.824219" xlink:href="#j"/>
</g>
</g>
<path d="m55.911 624.52v33.808q0 2.4 2.4 2.4h7.7425q2.4 0 2.4-2.4v-33.808q0-2.4-2.4-2.4h-7.7425q-2.4 0-2.4 2.4z" clip-path="url(#a)" fill="#fff" stroke="#fff"/>
<g clip-path="url(#a)">
<g transform="translate(59.974 624.52) rotate(90) scale(.08 -.08)">
<use xlink:href="#f"/>
<use x="44.083984" xlink:href="#l"/>
<use x="105.607422" xlink:href="#g"/>
<use x="144.970703" xlink:href="#i"/>
<use x="242.382812" xlink:href="#k"/>
<use x="270.166016" xlink:href="#h"/>
<use x="333.544922" xlink:href="#e"/>
<use x="394.824219" xlink:href="#j"/>
</g>
</g>
<path d="m65.168 624.52v33.808q0 2.4 2.4 2.4h7.7425q2.4 0 2.4-2.4v-33.808q0-2.4-2.4-2.4h-7.7425q-2.4 0-2.4 2.4z" clip-path="url(#a)" fill="#fff" stroke="#fff"/>
<g clip-path="url(#a)">
<g transform="translate(69.232 624.52) rotate(90) scale(.08 -.08)">
<use xlink:href="#f"/>
<use x="44.083984" xlink:href="#l"/>
<use x="105.607422" xlink:href="#g"/>
<use x="144.970703" xlink:href="#i"/>
<use x="242.382812" xlink:href="#k"/>
<use x="270.166016" xlink:href="#h"/>
<use x="333.544922" xlink:href="#e"/>
<use x="394.824219" xlink:href="#j"/>
</g>
</g>
<path d="m99.589 365.01 0.20774-5.0507q0.098629-2.398-2.2993-2.4966l-7.736-0.31818q-2.398-0.098629-2.4966 2.2993l-0.20774 5.0507q-0.098629 2.398 2.2993 2.4966l7.736 0.31818q2.398 0.098628 2.4966-2.2993z" clip-path="url(#a)" fill="#fff" stroke="#fff"/>
<g clip-path="url(#a)">
<g transform="translate(95.529 364.84) rotate(-87.645) scale(.08 -.08)">
<use xlink:href="#aa"/>
</g>
</g>
<path d="m90.957 406.3 0.11505 5.5851q0.049429 2.3995 2.4489 2.3501l7.7409-0.15946q2.3995-0.049429 2.3501-2.4489l-0.11505-5.5851q-0.049429-2.3995-2.4489-2.3501l-7.7409 0.15946q-2.3995 0.04943-2.3501 2.4489z" clip-path="url(#a)" fill="#fff" stroke="#fff"/>
<g clip-path="url(#a)">
<g transform="translate(95.02 406.21) rotate(88.82) scale(.08 -.08)">
<use xlink:href="#x"/>
</g>
</g>
<path d="m88.881 453.64 0.45017 5.454q0.19742 2.3919 2.5893 2.1944l7.7163-0.6369q2.3919-0.19742 2.1944-2.5893l-0.45017-5.454q-0.19743-2.3919-2.5893-2.1944l-7.7163 0.6369q-2.3919 0.19742-2.1944 2.5893z" clip-path="url(#a)" fill="#fff" stroke="#fff"/>
<g clip-path="url(#a)">
<g transform="translate(92.931 453.31) rotate(85.281) scale(.08 -.08)">
<use xlink:href="#q"/>
</g>
</g>
<path d="m93.802 505.14 0.20997-5.0744q0.099223-2.3979-2.2987-2.4972l-7.7359-0.3201q-2.3979-0.099222-2.4972 2.2987l-0.20997 5.0744q-0.099222 2.3979 2.2987 2.4972l7.7359 0.3201q2.3979 0.099222 2.4972-2.2987z" clip-path="url(#a)" fill="#fff" stroke="#fff"/>
<g clip-path="url(#a)">
<g transform="translate(89.742 504.97) rotate(-87.631) scale(.08 -.08)">
<use xlink:href="#y"/>
</g>
</g>
<path d="m92.813 542.45v13.246q0 2.4 2.4 2.4h8q2.4 0 2.4-2.4v-13.246q0-2.4-2.4-2.4h-8q-2.4 0-2.4 2.4z" clip-path="url(#a)" fill="#fff" stroke="#fff"/>
<g clip-path="url(#a)">
<g transform="translate(97.099 542.45) rotate(90) scale(.08 -.08)">
<defs>
<path id="az" d="m21 76.422v-100h-8.2969v100z"/>
</defs>
<use xlink:href="#q"/>
<use x="68.408203" xlink:href="#az"/>
<use x="102.099609" xlink:href="#y"/>
</g>
</g>
<path d="m92.942 624.52v33.808q0 2.4 2.4 2.4h7.7425q2.4 0 2.4-2.4v-33.808q0-2.4-2.4-2.4h-7.7425q-2.4 0-2.4 2.4z" clip-path="url(#a)" fill="#fff" stroke="#fff"/>
<g clip-path="url(#a)">
<g transform="translate(97.006 624.52) rotate(90) scale(.08 -.08)">
<use xlink:href="#f"/>
<use x="44.083984" xlink:href="#l"/>
<use x="105.607422" xlink:href="#g"/>
<use x="144.970703" xlink:href="#i"/>
<use x="242.382812" xlink:href="#k"/>
<use x="270.166016" xlink:href="#h"/>
<use x="333.544922" xlink:href="#e"/>
<use x="394.824219" xlink:href="#j"/>
</g>
</g>
<path d="m77.512 624.52v33.808q0 2.4 2.4 2.4h7.7425q2.4 0 2.4-2.4v-33.808q0-2.4-2.4-2.4h-7.7425q-2.4 0-2.4 2.4z" clip-path="url(#a)" fill="#fff" stroke="#fff"/>
<g clip-path="url(#a)">
<g transform="translate(81.576 624.52) rotate(90) scale(.08 -.08)">
<use xlink:href="#f"/>
<use x="44.083984" xlink:href="#l"/>
<use x="105.607422" xlink:href="#g"/>
<use x="144.970703" xlink:href="#i"/>
<use x="242.382812" xlink:href="#k"/>
<use x="270.166016" xlink:href="#h"/>
<use x="333.544922" xlink:href="#e"/>
<use x="394.824219" xlink:href="#j"/>
</g>
</g>
<path d="m185.52 624.52v33.808q0 2.4 2.4 2.4h7.7425q2.4 0 2.4-2.4v-33.808q0-2.4-2.4-2.4h-7.7425q-2.4 0-2.4 2.4z" clip-path="url(#a)" fill="#fff" stroke="#fff"/>
<g clip-path="url(#a)">
<g transform="translate(189.58 624.52) rotate(90) scale(.08 -.08)">
<use xlink:href="#f"/>
<use x="44.083984" xlink:href="#l"/>
<use x="105.607422" xlink:href="#g"/>
<use x="144.970703" xlink:href="#i"/>
<use x="242.382812" xlink:href="#k"/>
<use x="270.166016" xlink:href="#h"/>
<use x="333.544922" xlink:href="#e"/>
<use x="394.824219" xlink:href="#j"/>
</g>
</g>
<path d="m287.36 624.52v33.808q0 2.4 2.4 2.4h7.7425q2.4 0 2.4-2.4v-33.808q0-2.4-2.4-2.4h-7.7425q-2.4 0-2.4 2.4z" clip-path="url(#a)" fill="#fff" stroke="#fff"/>
<g clip-path="url(#a)">
<g transform="translate(291.42 624.52) rotate(90) scale(.08 -.08)">
<use xlink:href="#f"/>
<use x="44.083984" xlink:href="#l"/>
<use x="105.607422" xlink:href="#g"/>
<use x="144.970703" xlink:href="#i"/>
<use x="242.382812" xlink:href="#k"/>
<use x="270.166016" xlink:href="#h"/>
<use x="333.544922" xlink:href="#e"/>
<use x="394.824219" xlink:href="#j"/>
</g>
</g>
<path d="m574.35 624.52v33.808q0 2.4 2.4 2.4h7.7425q2.4 0 2.4-2.4v-33.808q0-2.4-2.4-2.4h-7.7425q-2.4 0-2.4 2.4z" clip-path="url(#a)" fill="#fff" stroke="#fff"/>
<g clip-path="url(#a)">
<g transform="translate(578.41 624.52) rotate(90) scale(.08 -.08)">
<use xlink:href="#f"/>
<use x="44.083984" xlink:href="#l"/>
<use x="105.607422" xlink:href="#g"/>
<use x="144.970703" xlink:href="#i"/>
<use x="242.382812" xlink:href="#k"/>
<use x="270.166016" xlink:href="#h"/>
<use x="333.544922" xlink:href="#e"/>
<use x="394.824219" xlink:href="#j"/>
</g>
</g>
<path d="m1299.5 624.52v33.808q0 2.4 2.4 2.4h7.7425q2.4 0 2.4-2.4v-33.808q0-2.4-2.4-2.4h-7.7425q-2.4 0-2.4 2.4z" clip-path="url(#a)" fill="#fff" stroke="#fff"/>
<g clip-path="url(#a)">
<g transform="translate(1303.6 624.52) rotate(90) scale(.08 -.08)">
<use xlink:href="#f"/>
<use x="44.083984" xlink:href="#l"/>
<use x="105.607422" xlink:href="#g"/>
<use x="144.970703" xlink:href="#i"/>
<use x="242.382812" xlink:href="#k"/>
<use x="270.166016" xlink:href="#h"/>
<use x="333.544922" xlink:href="#e"/>
<use x="394.824219" xlink:href="#j"/>
</g>
</g>
<defs>
<path id="b" d="m0 8.6603c2.2967 0 4.4997-0.9125 6.1237-2.5365 1.624-1.624 2.5365-3.827 2.5365-6.1237s-0.9125-4.4997-2.5365-6.1237c-1.624-1.624-3.827-2.5365-6.1237-2.5365s-4.4997 0.9125-6.1237 2.5365c-1.624 1.624-2.5365 3.827-2.5365 6.1237s0.9125 4.4997 2.5365 6.1237c1.624 1.624 3.827 2.5365 6.1237 2.5365z"/>
</defs>
<g clip-path="url(#a)" fill="#ffffff" stroke="#ffffff">
<use x="62.181818" y="687.272727" xlink:href="#b"/>
<use x="71.439657" y="687.272727" xlink:href="#b"/>
<use x="83.783442" y="687.272727" xlink:href="#b"/>
<use x="99.213174" y="687.272727" xlink:href="#b"/>
<use x="117.728852" y="687.272727" xlink:href="#b"/>
<use x="139.330476" y="687.272727" xlink:href="#b"/>
<use x="164.018046" y="687.272727" xlink:href="#b"/>
<use x="191.791563" y="687.272727" xlink:href="#b"/>
<use x="222.651026" y="687.272727" xlink:href="#b"/>
<use x="256.596436" y="687.272727" xlink:href="#b"/>
<use x="293.627792" y="687.272727" xlink:href="#b"/>
<use x="333.745094" y="687.272727" xlink:href="#b"/>
<use x="376.948342" y="687.272727" xlink:href="#b"/>
<use x="423.237537" y="687.272727" xlink:href="#b"/>
<use x="472.612678" y="687.272727" xlink:href="#b"/>
<use x="525.073765" y="687.272727" xlink:href="#b"/>
<use x="580.620799" y="687.272727" xlink:href="#b"/>
<use x="639.253778" y="687.272727" xlink:href="#b"/>
<use x="700.972705" y="687.272727" xlink:href="#b"/>
<use x="765.777577" y="687.272727" xlink:href="#b"/>
<use x="833.668396" y="687.272727" xlink:href="#b"/>
<use x="904.645161" y="687.272727" xlink:href="#b"/>
<use x="978.707873" y="687.272727" xlink:href="#b"/>
<use x="1055.856531" y="687.272727" xlink:href="#b"/>
<use x="1136.091135" y="687.272727" xlink:href="#b"/>
<use x="1219.411685" y="687.272727" xlink:href="#b"/>
<use x="1305.818182" y="687.272727" xlink:href="#b"/>
<use x="602.906658" y="32.727273" xlink:href="#b"/>
<use x="139.491202" y="127.097945" xlink:href="#b"/>
<use x="425.809159" y="409.120041" xlink:href="#b"/>
<use x="730.803519" y="315.334016" xlink:href="#b"/>
<use x="978.707873" y="595.568197" xlink:href="#b"/>
<use x="1071.286262" y="502.587956" xlink:href="#b"/>
<use x="1055.856531" y="595.568197" xlink:href="#b"/>
<use x="1136.091135" y="595.568197" xlink:href="#b"/>
<use x="1219.411685" y="595.568197" xlink:href="#b"/>
<use x="639.253778" y="595.568197" xlink:href="#b"/>
<use x="700.972705" y="595.568197" xlink:href="#b"/>
<use x="852.184074" y="409.120041" xlink:href="#b"/>
<use x="799.722987" y="502.587956" xlink:href="#b"/>
<use x="904.645161" y="595.568197" xlink:href="#b"/>
<use x="765.777577" y="595.568197" xlink:href="#b"/>
<use x="833.668396" y="595.568197" xlink:href="#b"/>
<use x="355.346718" y="502.587956" xlink:href="#b"/>
<use x="423.237537" y="595.568197" xlink:href="#b"/>
<use x="498.843221" y="502.587956" xlink:href="#b"/>
<use x="472.612678" y="595.568197" xlink:href="#b"/>
<use x="525.073765" y="595.568197" xlink:href="#b"/>
<use x="333.745094" y="595.568197" xlink:href="#b"/>
<use x="376.948342" y="595.568197" xlink:href="#b"/>
<use x="76.325739" y="221.310733" xlink:href="#b"/>
<use x="117.728852" y="595.568197" xlink:href="#b"/>
<use x="139.330476" y="595.568197" xlink:href="#b"/>
<use x="224.579743" y="409.120041" xlink:href="#b"/>
<use x="210.307241" y="502.587956" xlink:href="#b"/>
<use x="239.623731" y="502.587956" xlink:href="#b"/>
<use x="256.596436" y="595.568197" xlink:href="#b"/>
<use x="222.651026" y="595.568197" xlink:href="#b"/>
<use x="164.018046" y="595.568197" xlink:href="#b"/>
<use x="62.181818" y="595.568197" xlink:href="#b"/>
<use x="71.439657" y="595.568197" xlink:href="#b"/>
<use x="95.355741" y="315.334016" xlink:href="#b"/>
<use x="91.498308" y="409.120041" xlink:href="#b"/>
<use x="99.213174" y="502.587956" xlink:href="#b"/>
<use x="99.213174" y="595.568197" xlink:href="#b"/>
<use x="83.783442" y="595.568197" xlink:href="#b"/>
<use x="191.791563" y="595.568197" xlink:href="#b"/>
<use x="293.627792" y="595.568197" xlink:href="#b"/>
<use x="580.620799" y="595.568197" xlink:href="#b"/>
<use x="1305.818182" y="595.568197" xlink:href="#b"/>
</g>
<g clip-path="url(#a)">
<g transform="translate(55.358 690.03) scale(.1 -.1)">
<defs>
<path id="bf" d="m9.8125 72.906h9.8594v-29.891h35.844v29.891h9.8594v-72.906h-9.8594v34.719h-35.844v-34.719h-9.8594z"/>
<path id="t" d="m34.281 27.484q-10.891 0-15.094-2.4844t-4.2031-8.5q0-4.7812 3.1562-7.5938 3.1562-2.7969 8.5625-2.7969 7.4844 0 12 5.2969t4.5156 14.078v2zm17.922 3.7188v-31.203h-8.9844v8.2969q-3.0781-4.9688-7.6719-7.3438t-11.234-2.375q-8.3906 0-13.359 4.7188-4.9531 4.7188-4.9531 12.625 0 9.2188 6.1719 13.906 6.1875 4.6875 18.438 4.6875h12.609v0.89062q0 6.2031-4.0781 9.5938t-11.453 3.3906q-4.6875 0-9.1406-1.125-4.4375-1.125-8.5312-3.375v8.3125q4.9219 1.9062 9.5625 2.8438 4.6406 0.95312 9.0312 0.95312 11.875 0 17.734-6.1562 5.8594-6.1406 5.8594-18.641z"/>
</defs>
<use xlink:href="#bf"/>
<use x="75.195312" xlink:href="#t"/>
</g>
</g>
<g clip-path="url(#a)">
<g transform="translate(49.576 690.03) scale(.1 -.1)">
<defs>
<path id="ae" d="m56.297 54.688v-54.688h-9.0312v47.516h-29.156v-47.516h-9.0312v54.688z"/>
<path id="w" d="m3.7188 0v7.4688q8.875 1.375 11.609 7.5156 3.3281 8.6562 3.3281 30.766v8.9375h36.953v-54.688h-8.9844v47.516h-18.984v-5.4219q0-21.094-4.2969-30.562-4.5938-10.109-19.625-11.531z"/>
<path id="v" d="m9.0781 54.688h9.0312v-22.312h29.156v22.312h9.0312v-54.688h-9.0312v25.203h-29.156v-25.203h-9.0312z"/>
<path id="p" d="m56.203 29.594v-4.3906h-41.312q0.59375-9.2812 5.5938-14.141t13.938-4.8594q5.1719 0 10.031 1.2656t9.6562 3.8125v-8.5q-4.8438-2.0469-9.9219-3.125t-10.297-1.0781q-13.094 0-20.734 7.6094-7.6406 7.625-7.6406 20.625 0 13.422 7.25 21.297 7.25 7.8906 19.562 7.8906 11.031 0 17.453-7.1094 6.4219-7.0938 6.4219-19.297zm-8.9844 2.6406q-0.09375 7.3594-4.125 11.75-4.0312 4.4062-10.672 4.4062-7.5156 0-12.031-4.25t-5.2031-11.969z"/>
<path id="ad" d="m2.9375 54.688h52.391v-7.1719h-21.781v-47.516h-8.8438v47.516h-21.766z"/>
</defs>
<use xlink:href="#ae"/>
<use x="65.380859" xlink:href="#w"/>
<use x="129.296875" xlink:href="#t"/>
<use x="190.576172" xlink:href="#v"/>
<use x="255.957031" xlink:href="#p"/>
<use x="317.480469" xlink:href="#ad"/>
<use x="375.732422" xlink:href="#p"/>
</g>
</g>
<g clip-path="url(#a)">
<g transform="translate(52.151 690.03) scale(.1 -.1)">
<defs>
<path id="bg" d="m9.8125 72.906h14.703l18.594-49.609 18.703 49.609h14.703v-72.906h-9.625v64.016l-18.797-50h-9.9062l-18.797 50v-64.016h-9.5781z"/>
<path id="ba" d="m43.453 16.219q0 4.3906-3.2031 6.6875-3.1875 2.2969-9.3438 2.2969h-12.797v-18.031h12.797q6.1562 0 9.3438 2.3125 3.2031 2.3281 3.2031 6.7344zm-34.375 38.469h9.0312v-22.312h13.188q10.453 0 16.094-3.9844 5.6406-3.9688 5.6406-12.172t-5.6406-12.219q-5.6406-4-16.094-4h-22.219z"/>
<path id="af" d="m9.0781 54.688h8.9375v-25.688l25.344 25.688h11.031l-20.891-21.141 23.578-33.547h-10.062l-19.375 27.594-9.625-9.7656v-17.828h-8.9375z"/>
<path id="n" d="m30.609 48.391q-7.2188 0-11.422-5.6406t-4.2031-15.453 4.1719-15.453q4.1875-5.6406 11.453-5.6406 7.1875 0 11.375 5.6562 4.2031 5.6719 4.2031 15.438 0 9.7188-4.2031 15.406-4.1875 5.6875-11.375 5.6875zm0 7.6094q11.719 0 18.406-7.625 6.7031-7.6094 6.7031-21.078 0-13.422-6.7031-21.078-6.6875-7.6406-18.406-7.6406-11.766 0-18.438 7.6406-6.6562 7.6562-6.6562 21.078 0 13.469 6.6562 21.078 6.6719 7.625 18.438 7.625z"/>
<path id="ap" d="m9.0781 0v54.688h38.578v-7.1719h-29.547v-47.516z"/>
</defs>
<use xlink:href="#bg"/>
<use x="86.279297" xlink:href="#t"/>
<use x="147.558594" xlink:href="#w"/>
<use x="211.474609" xlink:href="#p"/>
<use x="272.998047" xlink:href="#v"/>
<use x="338.378906" xlink:href="#ba"/>
<use x="397.314453" xlink:href="#af"/>
<use x="457.714844" xlink:href="#n"/>
<use x="518.896484" xlink:href="#ap"/>
<use x="571.435547" xlink:href="#n"/>
</g>
</g>
<g clip-path="url(#a)">
<g transform="translate(79.785 690.03) scale(.1 -.1)">
<defs>
<path id="al" d="m18.109 8.2031v-29h-9.0312v75.484h9.0312v-8.2969q2.8438 4.875 7.1562 7.2344 4.3281 2.375 10.328 2.375 9.9688 0 16.188-7.9062 6.2344-7.9062 6.2344-20.797t-6.2344-20.812q-6.2188-7.9062-16.188-7.9062-6 0-10.328 2.375-4.3125 2.375-7.1562 7.25zm30.578 19.094q0 9.9062-4.0781 15.547t-11.203 5.6406q-7.1406 0-11.219-5.6406t-4.0781-15.547 4.0781-15.547 11.219-5.6406q7.125 0 11.203 5.6406t4.0781 15.547z"/>
<path id="s" d="m55.906 54.688v-54.688h-8.9375v43.891l-26.359-43.891h-11.531v54.688h8.9375v-43.797l26.328 43.797z"/>
<path id="av" d="m56.297 0h-47.219v54.688h9.0312v-47.516h29.156v47.516h9.0312v-47.516h7.1875v-20.984h-7.1875z"/>
</defs>
<use xlink:href="#ae"/>
<use x="65.380859" xlink:href="#al"/>
<use x="128.857422" xlink:href="#s"/>
<use x="193.847656" xlink:href="#v"/>
<use x="259.228516" xlink:href="#av"/>
<use x="327.294922" xlink:href="#t"/>
</g>
</g>
<g clip-path="url(#a)">
<g transform="translate(99.808 690.03) scale(.1 -.1)">
<defs>
<path id="am" d="m18.062 25.203v-18.031h12.797q6.1562 0 9.375 2.3125 3.2188 2.3281 3.2188 6.7344 0 4.3906-3.2188 6.6875t-9.375 2.2969zm0 22.312v-15.141h11.828q5.0781 0 8.2969 2.0156 3.2188 2.0312 3.2188 5.6562 0 3.6094-3.2188 5.5312-3.2188 1.9375-8.2969 1.9375zm-8.9844 7.1719h21.391q9.625 0 14.797-3.5156t5.1719-10.016q0-5.0156-2.6406-7.9844-2.625-2.9531-7.8125-3.6719 6.2031-1.1719 9.625-4.8906 3.4219-3.7031 3.4219-9.2812 0-7.3125-5.6406-11.328-5.6406-4-16.094-4h-22.219z"/>
<path id="u" d="m48.781 52.594v-8.4062q-3.8125 2.1094-7.6406 3.1562t-7.7344 1.0469q-8.75 0-13.594-5.5469-4.8281-5.5312-4.8281-15.547t4.8281-15.562q4.8438-5.5312 13.594-5.5312 3.9062 0 7.7344 1.0469t7.6406 3.1562v-8.3125q-3.7656-1.75-7.7969-2.625-4.0156-0.89062-8.5625-0.89062-12.359 0-19.641 7.7656-7.2656 7.7656-7.2656 20.953 0 13.375 7.3438 21.031 7.3594 7.6719 20.156 7.6719 4.1406 0 8.0938-0.85938 3.9531-0.84375 7.6719-2.5469z"/>
<path id="be" d="m21.625 7.1719h26.078v40.344h-18.891v-6.8438q0-20.109-5.7656-30.859zm-13.031 0q4.4375 1.9531 6.3906 6.1094 4.7969 10.297 4.7969 31.062v10.344h36.953v-47.516h7.1875v-20.984h-7.1875v13.812h-44.328v-13.812h-7.1875v20.984z"/>
</defs>
<use xlink:href="#am"/>
<use x="58.935547" xlink:href="#u"/>
<use x="113.916016" xlink:href="#p"/>
<use x="175.439453" xlink:href="#ap"/>
<use x="227.978516" xlink:href="#be"/>
<use x="297.119141" xlink:href="#t"/>
</g>
</g>
<g clip-path="url(#a)">
<g transform="translate(123.9 690.03) scale(.1 -.1)">
<use xlink:href="#al"/>
<use x="63.476562" xlink:href="#n"/>
<use x="124.658203" xlink:href="#u"/>
<use x="179.638672" xlink:href="#w"/>
<use x="243.554688" xlink:href="#s"/>
</g>
</g>
<g clip-path="url(#a)">
<g transform="translate(141.83 690.03) scale(.1 -.1)">
<defs>
<path id="ak" d="m61.047 54.688h8.9844v-54.688h-8.9844zm4.5 1.3125m-22.094-39.781q0 4.3906-3.2031 6.6875-3.1875 2.2969-9.3438 2.2969h-12.797v-18.031h12.797q6.1562 0 9.3438 2.3125 3.2031 2.3281 3.2031 6.7344zm-34.375 38.469h9.0312v-22.312h13.188q10.453 0 16.094-3.9844 5.6406-3.9688 5.6406-12.172t-5.6406-12.219q-5.6406-4-16.094-4h-22.219z"/>
</defs>
<use xlink:href="#ae"/>
<use x="65.380859" xlink:href="#al"/>
<use x="128.857422" xlink:href="#n"/>
<use x="190.039062" xlink:href="#u"/>
<use x="245.019531" xlink:href="#ad"/>
<use x="303.271484" xlink:href="#ak"/>
<use x="382.226562" xlink:href="#p"/>
</g>
</g>
<g clip-path="url(#a)">
<g transform="translate(190.2 690.03) scale(.1 -.1)">
<defs>
<path id="au" d="m11.719 12.406h10.297v-8.4062l-8-15.625h-6.2969l4 15.625z"/>
</defs>
<use xlink:href="#au"/>
</g>
</g>
<g clip-path="url(#a)">
<g transform="translate(196.58 690.03) scale(.1 -.1)">
<defs>
<path id="z" d="m9.0781 54.688h13.141l15.531-36.625 15.578 36.625h13.031v-54.688h-9.0312v46.094l-15.094-35.594h-8.9844l-15.141 35.594v-46.094h-9.0312z"/>
</defs>
<use xlink:href="#u"/>
<use x="54.980469" xlink:href="#af"/>
<use x="115.380859" xlink:href="#al"/>
<use x="178.857422" xlink:href="#n"/>
<use x="240.039062" xlink:href="#z"/>
<use x="315.478516" xlink:href="#v"/>
<use x="380.859375" xlink:href="#ak"/>
<use x="459.814453" xlink:href="#p"/>
</g>
</g>
<g clip-path="url(#a)">
<g transform="translate(240.31 690.03) scale(.1 -.1)">
<use xlink:href="#av"/>
<use x="68.066406" xlink:href="#am"/>
<use x="127.001953" xlink:href="#p"/>
<use x="188.525391" xlink:href="#ad"/>
<use x="246.777344" xlink:href="#ak"/>
</g>
</g>
<g clip-path="url(#a)">
<g transform="translate(291.82 690.03) scale(.1 -.1)">
<defs>
<path id="ay" d="m4.8906 31.391h26.312v-8h-26.312z"/>
</defs>
<use xlink:href="#ay"/>
</g>
</g>
<g clip-path="url(#a)">
<g transform="translate(330.79 690.03) scale(.1 -.1)">
<defs>
<path id="bc" d="m32.172-5.0781q-3.7969-9.7656-7.4219-12.734-3.6094-2.9844-9.6562-2.9844h-7.1875v7.5156h5.2812q3.7031 0 5.75 1.7656 2.0625 1.75 4.5469 8.2969l1.6094 4.0938-22.109 53.812h9.5156l17.094-42.766 17.094 42.766h9.5156z"/>
</defs>
<use xlink:href="#bc"/>
</g>
</g>
<g clip-path="url(#a)">
<g transform="translate(367.47 690.03) scale(.1 -.1)">
<defs>
<path id="bb" d="m54.891 54.688-19.781-26.609 20.797-28.078h-10.594l-15.922 21.484-15.906-21.484h-10.609l21.25 28.609-19.438 26.078h10.594l14.5-19.484 14.5 19.484z"/>
</defs>
<use xlink:href="#v"/>
<use x="65.380859" xlink:href="#s"/>
<use x="130.371094" xlink:href="#bb"/>
</g>
</g>
<g clip-path="url(#a)">
<g transform="translate(409.95 690.03) scale(.1 -.1)">
<defs>
<path id="aw" d="m31.109 56q11.719 0 18.406-7.625 6.6875-7.6094 6.6875-21.078 0-13.422-6.6875-21.078-6.6875-7.6406-18.406-7.6406-11.766 0-18.266 7.4219t-6.8438 21.297l-0.28125 11.188q-0.25 5.7969-0.25 7.8125 0 7.8125 2.8281 13.562 4.4531 9.0312 12.141 12.938t20.578 4.0156q5.9531 0.046875 8.5938 0.875l2.4844-7.125q-2.3906-0.98438-4.5781-1.0312l-12.219-0.82812q-6.1406-0.4375-9.8594-2.5938-9.7188-5.7031-10.641-13.172l-0.34375-2.7344q6.3438 5.7969 16.656 5.7969zm0-7.6094q-7.2344 0-11.438-5.6406-4.1875-5.6406-4.1875-15.453t4.1719-15.453 11.453-5.6406q7.1719 0 11.375 5.6562 4.2031 5.6719 4.2031 15.438 0 9.7188-4.2031 15.406t-11.375 5.6875z"/>
</defs>
<use xlink:href="#aw"/>
<use x="61.669922" xlink:href="#ak"/>
<use x="140.625" xlink:href="#w"/>
<use x="204.541016" xlink:href="#n"/>
</g>
</g>
<g clip-path="url(#a)">
<g transform="translate(459.52 690.03) scale(.1 -.1)">
<use xlink:href="#z"/>
<use x="75.439453" xlink:href="#t"/>
<use x="136.71875" xlink:href="#w"/>
<use x="200.634766" xlink:href="#n"/>
</g>
</g>
<g clip-path="url(#a)">
<g transform="translate(497.77 690.03) scale(.1 -.1)">
<use xlink:href="#w"/>
<use x="63.916016" xlink:href="#p"/>
<use x="125.439453" xlink:href="#ae"/>
<use x="190.820312" xlink:href="#p"/>
<use x="252.34375" xlink:href="#u"/>
<use x="307.324219" xlink:href="#ad"/>
<use x="365.576172" xlink:href="#af"/>
<use x="425.976562" xlink:href="#n"/>
<use x="487.158203" xlink:href="#am"/>
</g>
</g>
<g clip-path="url(#a)">
<g transform="translate(579.03 690.03) scale(.1 -.1)">
<use xlink:href="#au"/>
</g>
</g>
<g clip-path="url(#a)">
<g transform="translate(629.68 690.03) scale(.1 -.1)">
<use xlink:href="#n"/>
<use x="61.181641" xlink:href="#v"/>
<use x="126.5625" xlink:href="#s"/>
</g>
</g>
<g clip-path="url(#a)">
<g transform="translate(675.45 690.03) scale(.1 -.1)">
<defs>
<path id="bd" d="m34.469 29.5q6.0625-1.1719 9.4219-4.75 3.375-3.5625 3.375-8.8281 0-8.4531-6.2969-12.906-6.2969-4.4375-17.922-4.4375-3.9062 0-8.0312 0.6875t-8.5156 2.0469v8.3594q3.4688-1.8125 7.6094-2.7188 4.1562-0.89062 8.6875-0.89062 7.375 0 11.5 2.7344t4.125 7.125q0 4.2969-3.6562 6.9062t-10.344 2.6094h-7.2344v7.4219h7.5625q5.6719 0 8.9688 2.1719t3.2969 5.5938q0 3.125-3.4062 5.375-3.3906 2.25-9.1875 2.25-3.4688 0-7.4062-0.64062-3.9219-0.64062-8.6719-2.0469v8.1562q4.7969 1.1719 8.9375 1.75 4.1562 0.59375 7.8594 0.59375 9.5781 0 15.109-3.8438 5.5469-3.8281 5.5469-10.719 0-4.5312-2.9375-7.6875-2.9219-3.1406-8.3906-4.3125z"/>
</defs>
<use xlink:href="#bd"/>
<use x="53.173828" xlink:href="#t"/>
<use x="114.453125" xlink:href="#v"/>
<use x="179.833984" xlink:href="#s"/>
<use x="244.824219" xlink:href="#z"/>
<use x="320.263672" xlink:href="#t"/>
<use x="381.542969" xlink:href="#w"/>
<use x="445.458984" xlink:href="#s"/>
</g>
</g>
<g clip-path="url(#a)">
<g transform="translate(747.42 690.03) scale(.1 -.1)">
<use xlink:href="#u"/>
<use x="54.980469" xlink:href="#n"/>
<use x="116.162109" xlink:href="#am"/>
<use x="175.097656" xlink:href="#u"/>
<use x="230.078125" xlink:href="#p"/>
<use x="291.601562" xlink:href="#z"/>
</g>
</g>
<g clip-path="url(#a)">
<g transform="translate(820.58 690.03) scale(.1 -.1)">
<use xlink:href="#z"/>
<use x="75.439453" xlink:href="#t"/>
<use x="136.71875" xlink:href="#w"/>
<use x="200.634766" xlink:href="#n"/>
</g>
</g>
<g clip-path="url(#a)">
<g transform="translate(889.07 690.03) scale(.1 -.1)">
<use xlink:href="#z"/>
<use x="75.439453" xlink:href="#p"/>
<use x="136.962891" xlink:href="#u"/>
<use x="191.943359" xlink:href="#ad"/>
<use x="250.195312" xlink:href="#t"/>
</g>
</g>
<g clip-path="url(#a)">
<g transform="translate(975.46 690.03) scale(.1 -.1)">
<use xlink:href="#s"/>
</g>
</g>
<g clip-path="url(#a)">
<g transform="translate(1037.6 690.03) scale(.1 -.1)">
<use xlink:href="#v"/>
<use x="65.380859" xlink:href="#s"/>
<use x="130.371094" xlink:href="#af"/>
<use x="190.771484" xlink:href="#n"/>
<use x="251.953125" xlink:href="#ap"/>
<use x="304.492188" xlink:href="#n"/>
</g>
</g>
<g clip-path="url(#a)">
<g transform="translate(1129.7 690.03) scale(.1 -.1)">
<use xlink:href="#v"/>
<use x="65.380859" xlink:href="#p"/>
</g>
</g>
<g clip-path="url(#a)">
<g transform="translate(1188.4 690.03) scale(.1 -.1)">
<use xlink:href="#aw"/>
<use x="61.669922" xlink:href="#p"/>
<use x="123.193359" xlink:href="#u"/>
<use x="178.173828" xlink:href="#ae"/>
<use x="243.554688" xlink:href="#n"/>
<use x="304.736328" xlink:href="#af"/>
<use x="365.136719" xlink:href="#n"/>
<use x="426.318359" xlink:href="#s"/>
<use x="491.308594" xlink:href="#w"/>
<use x="555.224609" xlink:href="#s"/>
</g>
</g>
<g clip-path="url(#a)">
<g transform="translate(1304.2 690.03) scale(.1 -.1)">
<defs>
<path id="d" d="m10.688 12.406h10.312v-12.406h-10.312z"/>
</defs>
<use xlink:href="#d"/>
</g>
</g>
<g clip-path="url(#a)">
<g transform="translate(594.96 35.487) scale(.1 -.1)">
<defs>
<path id="c" d="m12.406 8.2969h16.109v55.625l-17.531-3.5156v8.9844l17.438 3.5156h9.8594v-64.609h16.109v-8.2969h-41.984z"/>
</defs>
<use xlink:href="#c"/>
<use x="63.623047" xlink:href="#d"/>
<use x="95.410156" xlink:href="#c"/>
</g>
</g>
<g clip-path="url(#a)">
<g transform="translate(131.54 129.86) scale(.1 -.1)">
<defs>
<path id="m" d="m19.188 8.2969h34.422v-8.2969h-46.281v8.2969q5.6094 5.8125 15.297 15.594 9.7031 9.7969 12.188 12.641 4.7344 5.3125 6.6094 9 1.8906 3.6875 1.8906 7.25 0 5.8125-4.0781 9.4688-4.0781 3.6719-10.625 3.6719-4.6406 0-9.7969-1.6094-5.1406-1.6094-11-4.8906v9.9688q5.9531 2.3906 11.125 3.6094 5.1875 1.2188 9.4844 1.2188 11.328 0 18.062-5.6719 6.7344-5.6562 6.7344-15.125 0-4.5-1.6875-8.5312-1.6719-4.0156-6.125-9.4844-1.2188-1.4219-7.7656-8.1875-6.5312-6.7656-18.453-18.922z"/>
</defs>
<use xlink:href="#c"/>
<use x="63.623047" xlink:href="#d"/>
<use x="95.410156" xlink:href="#m"/>
</g>
</g>
<g clip-path="url(#a)">
<g transform="translate(417.86 411.88) scale(.1 -.1)">
<defs>
<path id="o" d="m40.578 39.312q7.0781-1.5156 11.047-6.3125 3.9844-4.7812 3.9844-11.812 0-10.781-7.4219-16.703-7.4219-5.9062-21.094-5.9062-4.5781 0-9.4375 0.90625t-10.031 2.7188v9.5156q4.0938-2.3906 8.9688-3.6094 4.8906-1.2188 10.219-1.2188 9.2656 0 14.125 3.6562t4.8594 10.641q0 6.4531-4.5156 10.078-4.5156 3.6406-12.562 3.6406h-8.5v8.1094h8.8906q7.2656 0 11.125 2.9062t3.8594 8.375q0 5.6094-3.9844 8.6094-3.9688 3.0156-11.391 3.0156-4.0625 0-8.7031-0.89062-4.6406-0.875-10.203-2.7188v8.7812q5.625 1.5625 10.531 2.3438t9.25 0.78125q11.234 0 17.766-5.1094 6.5469-5.0938 6.5469-13.781 0-6.0625-3.4688-10.234t-9.8594-5.7812z"/>
</defs>
<use xlink:href="#c"/>
<use x="63.623047" xlink:href="#d"/>
<use x="95.410156" xlink:href="#o"/>
</g>
</g>
<g clip-path="url(#a)">
<g transform="translate(722.85 318.09) scale(.1 -.1)">
<defs>
<path id="r" d="m37.797 64.312-24.906-38.922h24.906zm-2.5938 8.5938h12.406v-47.516h10.406v-8.2031h-10.406v-17.188h-9.8125v17.188h-32.906v9.5156z"/>
</defs>
<use xlink:href="#c"/>
<use x="63.623047" xlink:href="#d"/>
<use x="95.410156" xlink:href="#r"/>
</g>
</g>
<g clip-path="url(#a)">
<g transform="translate(970.76 598.33) scale(.1 -.1)">
<defs>
<path id="ac" d="m10.797 72.906h38.719v-8.3125h-29.688v-17.859q2.1406 0.73438 4.2812 1.0938 2.1562 0.35938 4.3125 0.35938 12.203 0 19.328-6.6875 7.1406-6.6875 7.1406-18.109 0-11.766-7.3281-18.297-7.3281-6.5156-20.656-6.5156-4.5938 0-9.3594 0.78125-4.75 0.78125-9.8281 2.3438v9.9219q4.3906-2.3906 9.0781-3.5625t9.9062-1.1719q8.4531 0 13.375 4.4375 4.9375 4.4375 4.9375 12.062 0 7.6094-4.9375 12.047-4.9219 4.4531-13.375 4.4531-3.9531 0-7.8906-0.875-3.9219-0.875-8.0156-2.7344z"/>
</defs>
<use xlink:href="#c"/>
<use x="63.623047" xlink:href="#d"/>
<use x="95.410156" xlink:href="#ac"/>
</g>
</g>
<g clip-path="url(#a)">
<g transform="translate(1063.3 505.35) scale(.1 -.1)">
<defs>
<path id="ab" d="m33.016 40.375q-6.6406 0-10.531-4.5469-3.875-4.5312-3.875-12.438 0-7.8594 3.875-12.438 3.8906-4.5625 10.531-4.5625t10.516 4.5625q3.875 4.5781 3.875 12.438 0 7.9062-3.875 12.438-3.875 4.5469-10.516 4.5469zm19.578 30.922v-8.9844q-3.7188 1.75-7.5 2.6719-3.7812 0.9375-7.5 0.9375-9.7656 0-14.922-6.5938-5.1406-6.5938-5.875-19.922 2.875 4.25 7.2188 6.5156 4.3594 2.2656 9.5781 2.2656 10.984 0 17.359-6.6719 6.375-6.6562 6.375-18.125 0-11.234-6.6406-18.031-6.6406-6.7812-17.672-6.7812-12.656 0-19.344 9.6875-6.6875 9.7031-6.6875 28.109 0 17.281 8.2031 27.562t22.016 10.281q3.7188 0 7.5-0.73438t7.8906-2.1875z"/>
</defs>
<use xlink:href="#c"/>
<use x="63.623047" xlink:href="#d"/>
<use x="95.410156" xlink:href="#ab"/>
</g>
</g>
<g clip-path="url(#a)">
<g transform="translate(1044.7 598.33) scale(.1 -.1)">
<defs>
<path id="aj" d="m31.781 66.406q-7.6094 0-11.453-7.5-3.8281-7.4844-3.8281-22.531 0-14.984 3.8281-22.484 3.8438-7.5 11.453-7.5 7.6719 0 11.5 7.5 3.8438 7.5 3.8438 22.484 0 15.047-3.8438 22.531-3.8281 7.5-11.5 7.5zm0 7.8125q12.266 0 18.734-9.7031 6.4688-9.6875 6.4688-28.141 0-18.406-6.4688-28.109-6.4688-9.6875-18.734-9.6875-12.25 0-18.719 9.6875-6.4688 9.7031-6.4688 28.109 0 18.453 6.4688 28.141 6.4688 9.7031 18.719 9.7031z"/>
</defs>
<use xlink:href="#c"/>
<use x="63.623047" xlink:href="#d"/>
<use x="95.410156" xlink:href="#c"/>
<use x="159.033203" xlink:href="#aj"/>
</g>
</g>
<g clip-path="url(#a)">
<g transform="translate(1125 598.33) scale(.1 -.1)">
<use xlink:href="#c"/>
<use x="63.623047" xlink:href="#d"/>
<use x="95.410156" xlink:href="#c"/>
<use x="159.033203" xlink:href="#c"/>
</g>
</g>
<g clip-path="url(#a)">
<g transform="translate(1208.3 598.33) scale(.1 -.1)">
<use xlink:href="#c"/>
<use x="63.623047" xlink:href="#d"/>
<use x="95.410156" xlink:href="#c"/>
<use x="159.033203" xlink:href="#m"/>
</g>
</g>
<g clip-path="url(#a)">
<g transform="translate(628.12 598.33) scale(.1 -.1)">
<use xlink:href="#c"/>
<use x="63.623047" xlink:href="#d"/>
<use x="95.410156" xlink:href="#c"/>
<use x="159.033203" xlink:href="#o"/>
</g>
</g>
<g clip-path="url(#a)">
<g transform="translate(689.84 598.33) scale(.1 -.1)">
<use xlink:href="#c"/>
<use x="63.623047" xlink:href="#d"/>
<use x="95.410156" xlink:href="#c"/>
<use x="159.033203" xlink:href="#r"/>
</g>
</g>
<g clip-path="url(#a)">
<g transform="translate(841.05 411.88) scale(.1 -.1)">
<use xlink:href="#c"/>
<use x="63.623047" xlink:href="#d"/>
<use x="95.410156" xlink:href="#c"/>
<use x="159.033203" xlink:href="#ac"/>
</g>
</g>
<g clip-path="url(#a)">
<g transform="translate(788.59 505.35) scale(.1 -.1)">
<use xlink:href="#c"/>
<use x="63.623047" xlink:href="#d"/>
<use x="95.410156" xlink:href="#c"/>
<use x="159.033203" xlink:href="#ab"/>
</g>
</g>
<g clip-path="url(#a)">
<g transform="translate(893.51 598.33) scale(.1 -.1)">
<defs>
<path id="ai" d="m8.2031 72.906h46.875v-4.2031l-26.469-68.703h-10.297l24.906 64.594h-35.016z"/>
</defs>
<use xlink:href="#c"/>
<use x="63.623047" xlink:href="#d"/>
<use x="95.410156" xlink:href="#c"/>
<use x="159.033203" xlink:href="#ai"/>
</g>
</g>
<g clip-path="url(#a)">
<g transform="translate(754.64 598.33) scale(.1 -.1)">
<defs>
<path id="ao" d="m31.781 34.625q-7.0312 0-11.062-3.7656-4.0156-3.7656-4.0156-10.344 0-6.5938 4.0156-10.359 4.0312-3.7656 11.062-3.7656t11.078 3.7812q4.0625 3.7969 4.0625 10.344 0 6.5781-4.0312 10.344-4.0156 3.7656-11.109 3.7656zm-9.8594 4.1875q-6.3438 1.5625-9.8906 5.9062-3.5312 4.3594-3.5312 10.609 0 8.7344 6.2188 13.812 6.2344 5.0781 17.062 5.0781 10.891 0 17.094-5.0781t6.2031-13.812q0-6.25-3.5469-10.609-3.5312-4.3438-9.8281-5.9062 7.125-1.6562 11.094-6.5 3.9844-4.8281 3.9844-11.797 0-10.609-6.4688-16.281-6.4688-5.6562-18.531-5.6562-12.047 0-18.531 5.6562-6.4688 5.6719-6.4688 16.281 0 6.9688 4 11.797 4.0156 4.8438 11.141 6.5zm-3.6094 15.578q0-5.6562 3.5312-8.8281 3.5469-3.1719 9.9375-3.1719 6.3594 0 9.9375 3.1719 3.5938 3.1719 3.5938 8.8281 0 5.6719-3.5938 8.8438-3.5781 3.1719-9.9375 3.1719-6.3906 0-9.9375-3.1719-3.5312-3.1719-3.5312-8.8438z"/>
</defs>
<use xlink:href="#c"/>
<use x="63.623047" xlink:href="#d"/>
<use x="95.410156" xlink:href="#c"/>
<use x="159.033203" xlink:href="#ao"/>
</g>
</g>
<g clip-path="url(#a)">
<g transform="translate(822.54 598.33) scale(.1 -.1)">
<defs>
<path id="an" d="m10.984 1.5156v8.9844q3.7188-1.7656 7.5156-2.6875 3.8125-0.92188 7.4844-0.92188 9.7656 0 14.906 6.5625 5.1562 6.5625 5.8906 19.953-2.8281-4.2031-7.1875-6.4531-4.3438-2.25-9.6094-2.25-10.938 0-17.312 6.6094-6.375 6.625-6.375 18.109 0 11.219 6.6406 18 6.6406 6.7969 17.672 6.7969 12.656 0 19.312-9.7031 6.6719-9.6875 6.6719-28.141 0-17.234-8.1875-27.516-8.1719-10.281-21.984-10.281-3.7188 0-7.5312 0.73438-3.7969 0.73438-7.9062 2.2031zm19.625 30.906q6.6406 0 10.516 4.5312 3.8906 4.5469 3.8906 12.469 0 7.8594-3.8906 12.422-3.875 4.5625-10.516 4.5625t-10.516-4.5625-3.875-12.422q0-7.9219 3.875-12.469 3.875-4.5312 10.516-4.5312z"/>
</defs>
<use xlink:href="#c"/>
<use x="63.623047" xlink:href="#d"/>
<use x="95.410156" xlink:href="#c"/>
<use x="159.033203" xlink:href="#an"/>
</g>
</g>
<g clip-path="url(#a)">
<g transform="translate(344.21 505.35) scale(.1 -.1)">
<use xlink:href="#c"/>
<use x="63.623047" xlink:href="#d"/>
<use x="95.410156" xlink:href="#m"/>
<use x="159.033203" xlink:href="#aj"/>
</g>
</g>
<g clip-path="url(#a)">
<g transform="translate(412.1 598.33) scale(.1 -.1)">
<use xlink:href="#c"/>
<use x="63.623047" xlink:href="#d"/>
<use x="95.410156" xlink:href="#m"/>
<use x="159.033203" xlink:href="#c"/>
</g>
</g>
<g clip-path="url(#a)">
<g transform="translate(487.71 505.35) scale(.1 -.1)">
<use xlink:href="#c"/>
<use x="63.623047" xlink:href="#d"/>
<use x="95.410156" xlink:href="#m"/>
<use x="159.033203" xlink:href="#m"/>
</g>
</g>
<g clip-path="url(#a)">
<g transform="translate(461.48 598.33) scale(.1 -.1)">
<use xlink:href="#c"/>
<use x="63.623047" xlink:href="#d"/>
<use x="95.410156" xlink:href="#m"/>
<use x="159.033203" xlink:href="#o"/>
</g>
</g>
<g clip-path="url(#a)">
<g transform="translate(513.94 598.33) scale(.1 -.1)">
<use xlink:href="#c"/>
<use x="63.623047" xlink:href="#d"/>
<use x="95.410156" xlink:href="#m"/>
<use x="159.033203" xlink:href="#r"/>
</g>
</g>
<g clip-path="url(#a)">
<g transform="translate(322.61 598.33) scale(.1 -.1)">
<use xlink:href="#c"/>
<use x="63.623047" xlink:href="#d"/>
<use x="95.410156" xlink:href="#m"/>
<use x="159.033203" xlink:href="#ac"/>
</g>
</g>
<g clip-path="url(#a)">
<g transform="translate(365.82 598.33) scale(.1 -.1)">
<use xlink:href="#c"/>
<use x="63.623047" xlink:href="#d"/>
<use x="95.410156" xlink:href="#m"/>
<use x="159.033203" xlink:href="#ab"/>
</g>
</g>
<g clip-path="url(#a)">
<g transform="translate(65.193 224.07) scale(.1 -.1)">
<use xlink:href="#c"/>
<use x="63.623047" xlink:href="#d"/>
<use x="95.410156" xlink:href="#m"/>
<use x="159.033203" xlink:href="#ai"/>
</g>
</g>
<g clip-path="url(#a)">
<g transform="translate(106.6 598.33) scale(.1 -.1)">
<use xlink:href="#c"/>
<use x="63.623047" xlink:href="#d"/>
<use x="95.410156" xlink:href="#m"/>
<use x="159.033203" xlink:href="#ao"/>
</g>
</g>
<g clip-path="url(#a)">
<g transform="translate(128.2 598.33) scale(.1 -.1)">
<use xlink:href="#c"/>
<use x="63.623047" xlink:href="#d"/>
<use x="95.410156" xlink:href="#m"/>
<use x="159.033203" xlink:href="#an"/>
</g>
</g>
<g clip-path="url(#a)">
<g transform="translate(213.45 411.88) scale(.1 -.1)">
<use xlink:href="#c"/>
<use x="63.623047" xlink:href="#d"/>
<use x="95.410156" xlink:href="#o"/>
<use x="159.033203" xlink:href="#aj"/>
</g>
</g>
<g clip-path="url(#a)">
<g transform="translate(199.17 505.35) scale(.1 -.1)">
<use xlink:href="#c"/>
<use x="63.623047" xlink:href="#d"/>
<use x="95.410156" xlink:href="#o"/>
<use x="159.033203" xlink:href="#c"/>
</g>
</g>
<g clip-path="url(#a)">
<g transform="translate(228.49 505.35) scale(.1 -.1)">
<use xlink:href="#c"/>
<use x="63.623047" xlink:href="#d"/>
<use x="95.410156" xlink:href="#o"/>
<use x="159.033203" xlink:href="#m"/>
</g>
</g>
<g clip-path="url(#a)">
<g transform="translate(245.46 598.33) scale(.1 -.1)">
<use xlink:href="#c"/>
<use x="63.623047" xlink:href="#d"/>
<use x="95.410156" xlink:href="#o"/>
<use x="159.033203" xlink:href="#o"/>
</g>
</g>
<g clip-path="url(#a)">
<g transform="translate(211.52 598.33) scale(.1 -.1)">
<use xlink:href="#c"/>
<use x="63.623047" xlink:href="#d"/>
<use x="95.410156" xlink:href="#o"/>
<use x="159.033203" xlink:href="#ac"/>
</g>
</g>
<g clip-path="url(#a)">
<g transform="translate(152.89 598.33) scale(.1 -.1)">
<use xlink:href="#c"/>
<use x="63.623047" xlink:href="#d"/>
<use x="95.410156" xlink:href="#o"/>
<use x="159.033203" xlink:href="#ab"/>
</g>
</g>
<g clip-path="url(#a)">
<g transform="translate(51.049 598.33) scale(.1 -.1)">
<use xlink:href="#c"/>
<use x="63.623047" xlink:href="#d"/>
<use x="95.410156" xlink:href="#o"/>
<use x="159.033203" xlink:href="#ai"/>
</g>
</g>
<g clip-path="url(#a)">
<g transform="translate(60.307 598.33) scale(.1 -.1)">
<use xlink:href="#c"/>
<use x="63.623047" xlink:href="#d"/>
<use x="95.410156" xlink:href="#o"/>
<use x="159.033203" xlink:href="#ao"/>
</g>
</g>
<g clip-path="url(#a)">
<g transform="translate(84.223 318.09) scale(.1 -.1)">
<use xlink:href="#c"/>
<use x="63.623047" xlink:href="#d"/>
<use x="95.410156" xlink:href="#o"/>
<use x="159.033203" xlink:href="#an"/>
</g>
</g>
<g clip-path="url(#a)">
<g transform="translate(80.365 411.88) scale(.1 -.1)">
<use xlink:href="#c"/>
<use x="63.623047" xlink:href="#d"/>
<use x="95.410156" xlink:href="#r"/>
<use x="159.033203" xlink:href="#aj"/>
</g>
</g>
<g clip-path="url(#a)">
<g transform="translate(88.08 505.35) scale(.1 -.1)">
<use xlink:href="#c"/>
<use x="63.623047" xlink:href="#d"/>
<use x="95.410156" xlink:href="#r"/>
<use x="159.033203" xlink:href="#c"/>
</g>
</g>
<g clip-path="url(#a)">
<g transform="translate(88.08 598.33) scale(.1 -.1)">
<use xlink:href="#c"/>
<use x="63.623047" xlink:href="#d"/>
<use x="95.410156" xlink:href="#r"/>
<use x="159.033203" xlink:href="#m"/>
</g>
</g>
<g clip-path="url(#a)">
<g transform="translate(72.651 598.33) scale(.1 -.1)">
<use xlink:href="#c"/>
<use x="63.623047" xlink:href="#d"/>
<use x="95.410156" xlink:href="#r"/>
<use x="159.033203" xlink:href="#o"/>
</g>
</g>
<g clip-path="url(#a)">
<g transform="translate(180.66 598.33) scale(.1 -.1)">
<use xlink:href="#c"/>
<use x="63.623047" xlink:href="#d"/>
<use x="95.410156" xlink:href="#r"/>
<use x="159.033203" xlink:href="#r"/>
</g>
</g>
<g clip-path="url(#a)">
<g transform="translate(282.49 598.33) scale(.1 -.1)">
<use xlink:href="#c"/>
<use x="63.623047" xlink:href="#d"/>
<use x="95.410156" xlink:href="#r"/>
<use x="159.033203" xlink:href="#ac"/>
</g>
</g>
<g clip-path="url(#a)">
<g transform="translate(569.49 598.33) scale(.1 -.1)">
<use xlink:href="#c"/>
<use x="63.623047" xlink:href="#d"/>
<use x="95.410156" xlink:href="#r"/>
<use x="159.033203" xlink:href="#ab"/>
</g>
</g>
<g clip-path="url(#a)">
<g transform="translate(1294.7 598.33) scale(.1 -.1)">
<use xlink:href="#c"/>
<use x="63.623047" xlink:href="#d"/>
<use x="95.410156" xlink:href="#r"/>
<use x="159.033203" xlink:href="#ai"/>
</g>
</g>
<defs>
<clipPath id="a">
<rect width="1368" height="720"/>
</clipPath>
</defs>
</svg>
