<?xml version="1.0" encoding="UTF-8"?>
<!DOCTYPE svg  PUBLIC '-//W3C//DTD SVG 1.1//EN'  'http://www.w3.org/Graphics/SVG/1.1/DTD/svg11.dtd'>
<svg width="1266.7pt" height="666.67pt" version="1.1" viewBox="0 0 1266.7 666.67" xmlns="http://www.w3.org/2000/svg" xmlns:xlink="http://www.w3.org/1999/xlink">
<metadata>
<rdf:RDF xmlns:cc="http://creativecommons.org/ns#" xmlns:dc="http://purl.org/dc/elements/1.1/" xmlns:rdf="http://www.w3.org/1999/02/22-rdf-syntax-ns#">
<cc:Work>
<dc:type rdf:resource="http://purl.org/dc/dcmitype/StillImage"/>
<dc:date>2021-01-21T01:16:58.704460</dc:date>
<dc:format>image/svg+xml</dc:format>
<dc:creator>
<cc:Agent>
<dc:title>Matplotlib v3.3.3, https://matplotlib.org/</dc:title>
</cc:Agent>
</dc:creator>
</cc:Work>
</rdf:RDF>
</metadata>
<defs>
<style type="text/css">*{stroke-linecap:butt;stroke-linejoin:round;}</style>
</defs>
<path d="m0 666.67h1266.7v-666.67h-1266.7z" fill="#fff"/>
<g fill="none" stroke="#000">
<path d="m701.59 30.303-560.14 87.38" clip-path="url(#a)"/>
<path d="m701.59 30.303-149.1 521.15" clip-path="url(#a)"/>
<path d="m701.59 30.303-2.8208 435.06" clip-path="url(#a)"/>
<path d="m701.59 30.303 38.973 521.15" clip-path="url(#a)"/>
<path d="m701.59 30.303 256.74 521.15" clip-path="url(#a)"/>
<path d="m701.59 30.303 440.68 435.06" clip-path="url(#a)"/>
<path d="m701.59 30.303-205.19 521.15" clip-path="url(#a)"/>
<path d="m701.59 30.303 180.85 521.15" clip-path="url(#a)"/>
<path d="m141.46 117.68-76.457 261.13" clip-path="url(#a)"/>
<path d="m141.46 117.68-44.288 433.77" clip-path="url(#a)"/>
<path d="m141.46 117.68-1.3944 433.77" clip-path="url(#a)"/>
<path d="m141.46 117.68 182.41 87.234" clip-path="url(#a)"/>
<path d="m141.46 117.68-60.785 433.77" clip-path="url(#a)"/>
<path d="m141.46 117.68-24.491 433.77" clip-path="url(#a)"/>
<path d="m141.46 117.68 25.001 433.77" clip-path="url(#a)"/>
<path d="m552.5 551.45v84.912" clip-path="url(#a)"/>
<path d="m698.77 465.36-86.886 86.093" clip-path="url(#a)"/>
<path d="m698.77 465.36-24.196 86.093" clip-path="url(#a)"/>
<path d="m698.77 465.36 111.08 86.093" clip-path="url(#a)"/>
<path d="m740.57 551.45v84.912" clip-path="url(#a)"/>
<path d="m958.33 551.45v84.912" clip-path="url(#a)"/>
<path d="m1142.3 465.36 66.814 86.093" clip-path="url(#a)"/>
<path d="m1142.3 465.36-63.515 86.093" clip-path="url(#a)"/>
<path d="m1142.3 465.36 63.515 86.093" clip-path="url(#a)"/>
<path d="m1078.8 551.45-41.243 84.912" clip-path="url(#a)"/>
<path d="m1078.8 551.45 41.243 84.912" clip-path="url(#a)"/>
<path d="m611.89 551.45v84.912" clip-path="url(#a)"/>
<path d="m674.58 551.45v84.912" clip-path="url(#a)"/>
<path d="m809.85 551.45v84.912" clip-path="url(#a)"/>
<path d="m65 378.81-2.4746 86.544" clip-path="url(#a)"/>
<path d="m65 378.81 2.4746 86.544" clip-path="url(#a)"/>
<path d="m97.169 551.45v84.912" clip-path="url(#a)"/>
<path d="m140.06 551.45v84.912" clip-path="url(#a)"/>
<path d="m323.87 204.92-127.72 346.53" clip-path="url(#a)"/>
<path d="m323.87 204.92-67.502 87.059" clip-path="url(#a)"/>
<path d="m323.87 204.92-18.834 346.53" clip-path="url(#a)"/>
<path d="m323.87 204.92 24.059 346.53" clip-path="url(#a)"/>
<path d="m323.87 204.92 70.251 346.53" clip-path="url(#a)"/>
<path d="m323.87 204.92 119.74 346.53" clip-path="url(#a)"/>
<path d="m196.15 551.45v84.912" clip-path="url(#a)"/>
<path d="m256.37 291.98-9.0735 86.839" clip-path="url(#a)"/>
<path d="m256.37 291.98 9.0735 173.38" clip-path="url(#a)"/>
<path d="m305.04 551.45v84.912" clip-path="url(#a)"/>
<path d="m347.93 551.45v84.912" clip-path="url(#a)"/>
<path d="m394.12 551.45v84.912" clip-path="url(#a)"/>
<path d="m443.61 551.45v84.912" clip-path="url(#a)"/>
<path d="m247.3 378.81 18.147 86.544" clip-path="url(#a)" stroke-dasharray="3.7,1.6"/>
<path d="m247.3 378.81-18.147 172.64" clip-path="url(#a)"/>
<path d="m265.44 465.36v86.093" clip-path="url(#a)"/>
<path d="m265.44 551.45v84.912" clip-path="url(#a)"/>
<path d="m229.15 551.45v84.912" clip-path="url(#a)"/>
<path d="m62.525 465.36 4.9492 86.093" clip-path="url(#a)" stroke-dasharray="3.7,1.6"/>
<path d="m62.525 465.36-4.9492 86.093" clip-path="url(#a)"/>
<path d="m67.474 465.36v86.093" clip-path="url(#a)"/>
<path d="m67.474 551.45v84.912" clip-path="url(#a)"/>
<path d="m57.576 551.45v84.912" clip-path="url(#a)"/>
<path d="m80.672 551.45v84.912" clip-path="url(#a)"/>
<path d="m116.97 551.45v84.912" clip-path="url(#a)"/>
<path d="m166.46 551.45v84.912" clip-path="url(#a)"/>
<path d="m496.41 551.45v84.912" clip-path="url(#a)"/>
<path d="m882.44 551.45v84.912" clip-path="url(#a)"/>
<path d="m1205.8 551.45v84.912" clip-path="url(#a)"/>
</g>
<path d="m419.52 80.653 5.9444-0.92731q2.3713-0.36992 2.0014-2.7412l-1.1934-7.65q-0.36992-2.3713-2.7412-2.0014l-5.9444 0.92731q-2.3713 0.36992-2.0014 2.7412l1.1934 7.65q0.36992 2.3713 2.7412 2.0014z" clip-path="url(#a)" fill="#fff" stroke="#fff"/>
<g clip-path="url(#a)">
<g transform="translate(418.89 76.638) rotate(-8.8666) scale(.08 -.08)">
<defs>
<path id="ak" d="m9.8125 72.906h9.8594v-29.891h35.844v29.891h9.8594v-72.906h-9.8594v34.719h-35.844v-34.719h-9.8594z"/>
</defs>
<use xlink:href="#ak"/>
</g>
</g>
<path d="m632.46 294.75 1.2261-4.2856q0.66014-2.3074-1.6473-2.9676l-7.4439-2.1296q-2.3074-0.66014-2.9676 1.6473l-1.2261 4.2856q-0.66014 2.3074 1.6473 2.9676l7.4439 2.1296q2.3074 0.66014 2.9676-1.6473z" clip-path="url(#a)" fill="#fff" stroke="#fff"/>
<g clip-path="url(#a)">
<g transform="translate(628.55 293.63) rotate(-74.035) scale(.08 -.08)">
<defs>
<path id="af" d="m9.8125 72.906h9.8594v-64.609h35.5v-8.2969h-45.359z"/>
</defs>
<use xlink:href="#af"/>
</g>
</g>
<path d="m706.43 250.88 0.039006-6.0161q0.015561-2.3999-2.3844-2.4155l-7.7423-0.050198q-2.4-0.015561-2.4155 2.3844l-0.039007 6.0161q-0.01556 2.4 2.3844 2.4155l7.7423 0.050199q2.3999 0.01556 2.4155-2.3844z" clip-path="url(#a)" fill="#fff" stroke="#fff"/>
<g clip-path="url(#a)">
<g transform="translate(702.37 250.85) rotate(-89.629) scale(.08 -.08)">
<use xlink:href="#ak"/>
</g>
</g>
<path d="m714.66 289.12 0.33241 4.4451q0.17898 2.3933 2.5723 2.2143l7.7209-0.57739q2.3933-0.17898 2.2143-2.5723l-0.33241-4.4451q-0.17898-2.3933-2.5723-2.2143l-7.7209 0.57739q-2.3933 0.17898-2.2143 2.5723z" clip-path="url(#a)" fill="#fff" stroke="#fff"/>
<g clip-path="url(#a)">
<g transform="translate(718.71 288.82) rotate(85.723) scale(.08 -.08)">
<use xlink:href="#af"/>
</g>
</g>
<path d="m823.35 291.65 1.9699 3.9986q1.0606 2.1529 3.2135 1.0923l6.9454-3.4216q2.1529-1.0606 1.0923-3.2135l-1.9699-3.9986q-1.0606-2.1529-3.2135-1.0923l-6.9454 3.4216q-2.1529 1.0606-1.0923 3.2135z" clip-path="url(#a)" fill="#fff" stroke="#fff"/>
<g clip-path="url(#a)">
<g transform="translate(827 289.85) rotate(63.773) scale(.08 -.08)">
<use xlink:href="#af"/>
</g>
</g>
<path d="m915.39 250.18 4.2814 4.2267q1.7079 1.6861 3.394-0.021808l5.4395-5.5098q1.6861-1.7079-0.021808-3.394l-4.2814-4.2267q-1.7079-1.6861-3.394 0.021807l-5.4395 5.5098q-1.6861 1.7079 0.021808 3.394z" clip-path="url(#a)" fill="#fff" stroke="#fff"/>
<g clip-path="url(#a)">
<g transform="translate(918.24 247.29) rotate(44.632) scale(.08 -.08)">
<use xlink:href="#ak"/>
</g>
</g>
<path d="m603.76 295.9 2.145-5.4479q0.87924-2.2331-1.3539-3.1124l-7.2042-2.8365q-2.2331-0.87924-3.1124 1.3539l-2.145 5.4479q-0.87924 2.2331 1.3539 3.1124l7.2042 2.8365q2.2331 0.87924 3.1124-1.3539z" clip-path="url(#a)" fill="#fff" stroke="#fff"/>
<g clip-path="url(#a)">
<g transform="translate(599.98 294.41) rotate(-68.509) scale(.08 -.08)">
<defs>
<path id="u" d="m8.6875 72.906h9.9219v-44.297q0-11.719 4.2344-16.875 4.25-5.1406 13.781-5.1406 9.4688 0 13.719 5.1406 4.25 5.1562 4.25 16.875v44.297h9.9062v-45.516q0-14.25-7.0625-21.531-7.0469-7.2812-20.812-7.2812-13.828 0-20.891 7.2812-7.0469 7.2812-7.0469 21.531z"/>
</defs>
<use xlink:href="#u"/>
</g>
</g>
<path d="m785.13 290.17 1.9195 5.5314q0.78682 2.2674 3.0542 1.4805l7.3146-2.5383q2.2674-0.78682 1.4805-3.0542l-1.9195-5.5314q-0.78682-2.2674-3.0542-1.4805l-7.3146 2.5383q-2.2674 0.78682-1.4805 3.0542z" clip-path="url(#a)" fill="#fff" stroke="#fff"/>
<g clip-path="url(#a)">
<g transform="translate(788.97 288.84) rotate(70.862) scale(.08 -.08)">
<use xlink:href="#u"/>
</g>
</g>
<path d="m108.48 252.64 1.5377-5.252q0.67439-2.3033-1.6289-2.9777l-7.4305-2.1756q-2.3033-0.67439-2.9777 1.6289l-1.5377 5.252q-0.67439 2.3033 1.6289 2.9777l7.4305 2.1756q2.3033 0.67439 2.9777-1.6289z" clip-path="url(#a)" fill="#fff" stroke="#fff"/>
<g clip-path="url(#a)">
<g transform="translate(104.58 251.5) rotate(-73.68) scale(.08 -.08)">
<defs>
<path id="r" d="m34.188 63.188-13.391-36.281h26.812zm-5.5781 9.7188h11.188l27.781-72.906h-10.25l-6.6406 18.703h-32.859l-6.6406-18.703h-10.406z"/>
</defs>
<use xlink:href="#r"/>
</g>
</g>
<path d="m125.24 338.29 0.62962-6.1667q0.24377-2.3876-2.1438-2.6314l-7.7025-0.78642q-2.3876-0.24377-2.6314 2.1438l-0.62962 6.1667q-0.24377 2.3876 2.1438 2.6314l7.7025 0.78642q2.3876 0.24377 2.6314-2.1438z" clip-path="url(#a)" fill="#fff" stroke="#fff"/>
<g clip-path="url(#a)">
<g transform="translate(121.19 337.88) rotate(-84.17) scale(.08 -.08)">
<defs>
<path id="bg" d="m59.516 10.406v19.578h-16.109v8.1094h25.875v-31.312q-5.7031-4.0469-12.594-6.125-6.875-2.0781-14.688-2.0781-17.094 0-26.75 9.9844-9.6406 10-9.6406 27.812 0 17.875 9.6406 27.859 9.6562 9.9844 26.75 9.9844 7.125 0 13.547-1.7656 6.4219-1.75 11.844-5.1719v-10.5q-5.4688 4.6406-11.625 6.9844t-12.938 2.3438q-13.391 0-20.109-7.4688-6.7031-7.4688-6.7031-22.266 0-14.75 6.7031-22.219 6.7188-7.4688 20.109-7.4688 5.2188 0 9.3125 0.90625 4.1094 0.90625 7.375 2.8125z"/>
</defs>
<use xlink:href="#bg"/>
</g>
</g>
<path d="m147.02 337 0.015507-4.8237q0.007715-2.4-2.3923-2.4077l-7.7425-0.024889q-2.4-0.007715-2.4077 2.3923l-0.015507 4.8237q-0.007715 2.4 2.3923 2.4077l7.7425 0.024889q2.4 0.007715 2.4077-2.3923z" clip-path="url(#a)" fill="#fff" stroke="#fff"/>
<g clip-path="url(#a)">
<g transform="translate(142.96 336.99) rotate(-89.816) scale(.08 -.08)">
<defs>
<path id="ae" d="m19.672 64.797v-27.391h12.406q6.8906 0 10.641 3.5625 3.7656 3.5625 3.7656 10.156 0 6.5469-3.7656 10.109-3.75 3.5625-10.641 3.5625zm-9.8594 8.1094h22.266q12.266 0 18.531-5.5469 6.2812-5.5469 6.2812-16.234 0-10.797-6.2812-16.312-6.2656-5.5156-18.531-5.5156h-12.406v-29.297h-9.8594z"/>
</defs>
<use xlink:href="#ae"/>
</g>
</g>
<path d="m227.49 165.78 4.937 2.361q2.1652 1.0354 3.2006-1.1297l3.3403-6.9849q1.0354-2.1652-1.1297-3.2006l-4.937-2.361q-2.1652-1.0354-3.2006 1.1297l-3.3403 6.9849q-1.0354 2.1652 1.1297 3.2006z" clip-path="url(#a)" fill="#fff" stroke="#fff"/>
<g clip-path="url(#a)">
<g transform="translate(229.24 162.11) rotate(25.558) scale(.08 -.08)">
<use xlink:href="#r"/>
</g>
</g>
<path d="m116.87 338.34 0.81253-5.7983q0.33306-2.3768-2.0437-2.7098l-7.6676-1.0745q-2.3768-0.33306-2.7098 2.0437l-0.81253 5.7983q-0.33306 2.3768 2.0437 2.7098l7.6676 1.0745q2.3768 0.33306 2.7098-2.0437z" clip-path="url(#a)" fill="#fff" stroke="#fff"/>
<g clip-path="url(#a)">
<g transform="translate(112.84 337.77) rotate(-82.023) scale(.08 -.08)">
<use xlink:href="#u"/>
</g>
</g>
<path d="m135.31 337.84 0.33005-5.8457q0.13529-2.3962-2.2609-2.5315l-7.7302-0.43645q-2.3962-0.13529-2.5315 2.2609l-0.33005 5.8457q-0.13529 2.3962 2.2609 2.5315l7.7302 0.43645q2.3962 0.13529 2.5315-2.2609z" clip-path="url(#a)" fill="#fff" stroke="#fff"/>
<g clip-path="url(#a)">
<g transform="translate(131.25 337.61) rotate(-86.768) scale(.08 -.08)">
<use xlink:href="#u"/>
</g>
</g>
<path d="m147.53 332.01 0.33691 5.8453q0.1381 2.396 2.5341 2.2579l7.7297-0.44552q2.396-0.1381 2.2579-2.5341l-0.33691-5.8453q-0.1381-2.396-2.5341-2.2579l-7.7297 0.44552q-2.396 0.1381-2.2579 2.5341z" clip-path="url(#a)" fill="#fff" stroke="#fff"/>
<g clip-path="url(#a)">
<g transform="translate(151.59 331.77) rotate(86.701) scale(.08 -.08)">
<use xlink:href="#u"/>
</g>
</g>
<path d="m546.23 577v33.808q0 2.4 2.4 2.4h7.7425q2.4 0 2.4-2.4v-33.808q0-2.4-2.4-2.4h-7.7425q-2.4 0-2.4 2.4z" clip-path="url(#a)" fill="#fff" stroke="#fff"/>
<g clip-path="url(#a)">
<g transform="translate(550.29 577) rotate(90) scale(.08 -.08)">
<defs>
<path id="e" d="m-0.29688 72.906h61.672v-8.3125h-25.875v-64.594h-9.9062v64.594h-25.891z"/>
<path id="l" d="m56.203 29.594v-4.3906h-41.312q0.59375-9.2812 5.5938-14.141t13.938-4.8594q5.1719 0 10.031 1.2656t9.6562 3.8125v-8.5q-4.8438-2.0469-9.9219-3.125t-10.297-1.0781q-13.094 0-20.734 7.6094-7.6406 7.625-7.6406 20.625 0 13.422 7.25 21.297 7.25 7.8906 19.562 7.8906 11.031 0 17.453-7.1094 6.4219-7.0938 6.4219-19.297zm-8.9844 2.6406q-0.09375 7.3594-4.125 11.75-4.0312 4.4062-10.672 4.4062-7.5156 0-12.031-4.25t-5.2031-11.969z"/>
<path id="g" d="m41.109 46.297q-1.5156 0.875-3.2969 1.2812-1.7812 0.42188-3.9219 0.42188-7.625 0-11.703-4.9531t-4.0781-14.234v-28.812h-9.0312v54.688h9.0312v-8.5q2.8438 4.9844 7.375 7.3906 4.5469 2.4219 11.047 2.4219 0.92188 0 2.0469-0.125 1.125-0.10938 2.4844-0.35938z"/>
<path id="i" d="m52 44.188q3.375 6.0625 8.0625 8.9375t11.031 2.875q8.5469 0 13.188-5.9844 4.6406-5.9688 4.6406-17v-33.016h-9.0312v32.719q0 7.8594-2.7969 11.656-2.7812 3.8125-8.4844 3.8125-6.9844 0-11.047-4.6406-4.0469-4.625-4.0469-12.641v-30.906h-9.0312v32.719q0 7.9062-2.7812 11.688t-8.5938 3.7812q-6.8906 0-10.953-4.6562-4.0469-4.6562-4.0469-12.625v-30.906h-9.0312v54.688h9.0312v-8.5q3.0781 5.0312 7.375 7.4219t10.203 2.3906q5.9688 0 10.141-3.0312 4.1719-3.0156 6.1719-8.7812z"/>
<path id="k" d="m9.4219 54.688h8.9844v-54.688h-8.9844zm0 21.297h8.9844v-11.391h-8.9844z"/>
<path id="h" d="m54.891 33.016v-33.016h-8.9844v32.719q0 7.7656-3.0312 11.609-3.0312 3.8594-9.0781 3.8594-7.2812 0-11.484-4.6406-4.2031-4.625-4.2031-12.641v-30.906h-9.0312v54.688h9.0312v-8.5q3.2344 4.9375 7.5938 7.375 4.375 2.4375 10.094 2.4375 9.4219 0 14.25-5.8281 4.8438-5.8281 4.8438-17.156z"/>
<path id="f" d="m34.281 27.484q-10.891 0-15.094-2.4844t-4.2031-8.5q0-4.7812 3.1562-7.5938 3.1562-2.7969 8.5625-2.7969 7.4844 0 12 5.2969t4.5156 14.078v2zm17.922 3.7188v-31.203h-8.9844v8.2969q-3.0781-4.9688-7.6719-7.3438t-11.234-2.375q-8.3906 0-13.359 4.7188-4.9531 4.7188-4.9531 12.625 0 9.2188 6.1719 13.906 6.1875 4.6875 18.438 4.6875h12.609v0.89062q0 6.2031-4.0781 9.5938t-11.453 3.3906q-4.6875 0-9.1406-1.125-4.4375-1.125-8.5312-3.375v8.3125q4.9219 1.9062 9.5625 2.8438 4.6406 0.95312 9.0312 0.95312 11.875 0 17.734-6.1562 5.8594-6.1406 5.8594-18.641z"/>
<path id="j" d="m9.4219 75.984h8.9844v-75.984h-8.9844z"/>
</defs>
<use xlink:href="#e"/>
<use x="44.083984" xlink:href="#l"/>
<use x="105.607422" xlink:href="#g"/>
<use x="144.970703" xlink:href="#i"/>
<use x="242.382812" xlink:href="#k"/>
<use x="270.166016" xlink:href="#h"/>
<use x="333.544922" xlink:href="#f"/>
<use x="394.824219" xlink:href="#j"/>
</g>
</g>
<path d="m657.8 514.79 3.8873-3.8519q1.7048-1.6893 0.015565-3.3941l-5.4496-5.4998q-1.6893-1.7048-3.3941-0.015565l-3.8873 3.8519q-1.7048 1.6893-0.015564 3.3941l5.4496 5.4998q1.6893 1.7048 3.3941 0.015564z" clip-path="url(#a)" fill="#fff" stroke="#fff"/>
<g clip-path="url(#a)">
<g transform="translate(654.94 511.9) rotate(-44.737) scale(.08 -.08)">
<use xlink:href="#r"/>
</g>
</g>
<path d="m692.09 512.32 1.2449-4.4296q0.64935-2.3105-1.6611-2.9598l-7.4537-2.0948q-2.3105-0.64935-2.9598 1.6611l-1.2449 4.4296q-0.64935 2.3105 1.6611 2.9598l7.4537 2.0948q2.3105 0.64936 2.9598-1.6611z" clip-path="url(#a)" fill="#fff" stroke="#fff"/>
<g clip-path="url(#a)">
<g transform="translate(688.18 511.22) rotate(-74.302) scale(.08 -.08)">
<defs>
<path id="bh" d="m9.8125 72.906h41.891v-8.3125h-32.031v-21.484h28.906v-8.2969h-28.906v-34.812h-9.8594z"/>
</defs>
<use xlink:href="#bh"/>
</g>
</g>
<path d="m748.47 511.81 4.0142 3.1112q1.897 1.4702 3.3672-0.42675l4.743-6.1197q1.4702-1.897-0.42675-3.3672l-4.0142-3.1112q-1.897-1.4702-3.3672 0.42675l-4.743 6.1197q-1.4702 1.897 0.42674 3.3672z" clip-path="url(#a)" fill="#fff" stroke="#fff"/>
<g clip-path="url(#a)">
<g transform="translate(750.95 508.59) rotate(37.777) scale(.08 -.08)">
<defs>
<path id="z" d="m53.516 70.516v-9.625q-5.6094 2.6875-10.594 4-4.9844 1.3281-9.625 1.3281-8.0469 0-12.422-3.125t-4.375-8.8906q0-4.8438 2.9062-7.3125 2.9062-2.4531 11.016-3.9688l5.9531-1.2188q11.031-2.1094 16.281-7.4062t5.25-14.172q0-10.609-7.1094-16.078-7.0938-5.4688-20.812-5.4688-5.1719 0-11.016 1.1719-5.8281 1.1719-12.078 3.4688v10.156q6-3.3594 11.766-5.0781 5.7656-1.7031 11.328-1.7031 8.4375 0 13.031 3.3125 4.5938 3.3281 4.5938 9.4844 0 5.3594-3.2969 8.3906t-10.812 4.5469l-6.0156 1.1719q-11.031 2.1875-15.969 6.875-4.9219 4.6875-4.9219 13.047 0 9.6719 6.8125 15.234t18.766 5.5625q5.1406 0 10.453-0.9375 5.3281-0.92188 10.891-2.7656z"/>
</defs>
<use xlink:href="#z"/>
</g>
</g>
<path d="m734.29 577v33.808q0 2.4 2.4 2.4h7.7425q2.4 0 2.4-2.4v-33.808q0-2.4-2.4-2.4h-7.7425q-2.4 0-2.4 2.4z" clip-path="url(#a)" fill="#fff" stroke="#fff"/>
<g clip-path="url(#a)">
<g transform="translate(738.36 577) rotate(90) scale(.08 -.08)">
<use xlink:href="#e"/>
<use x="44.083984" xlink:href="#l"/>
<use x="105.607422" xlink:href="#g"/>
<use x="144.970703" xlink:href="#i"/>
<use x="242.382812" xlink:href="#k"/>
<use x="270.166016" xlink:href="#h"/>
<use x="333.544922" xlink:href="#f"/>
<use x="394.824219" xlink:href="#j"/>
</g>
</g>
<path d="m952.06 577v33.808q0 2.4 2.4 2.4h7.7425q2.4 0 2.4-2.4v-33.808q0-2.4-2.4-2.4h-7.7425q-2.4 0-2.4 2.4z" clip-path="url(#a)" fill="#fff" stroke="#fff"/>
<g clip-path="url(#a)">
<g transform="translate(956.12 577) rotate(90) scale(.08 -.08)">
<use xlink:href="#e"/>
<use x="44.083984" xlink:href="#l"/>
<use x="105.607422" xlink:href="#g"/>
<use x="144.970703" xlink:href="#i"/>
<use x="242.382812" xlink:href="#k"/>
<use x="270.166016" xlink:href="#h"/>
<use x="333.544922" xlink:href="#f"/>
<use x="394.824219" xlink:href="#j"/>
</g>
</g>
<path d="m1169.1 510.09 3.3552 4.3233q1.4714 1.896 3.3675 0.42457l6.1166-4.7469q1.896-1.4714 0.42457-3.3675l-3.3552-4.3233q-1.4714-1.896-3.3675-0.42457l-6.1166 4.7469q-1.896 1.4714-0.42457 3.3675z" clip-path="url(#a)" fill="#fff" stroke="#fff"/>
<g clip-path="url(#a)">
<g transform="translate(1172.3 507.6) rotate(52.186) scale(.08 -.08)">
<use xlink:href="#r"/>
</g>
</g>
<path d="m1114.1 514.07 2.8637-3.8817q1.4248-1.9313-0.50649-3.3561l-6.2304-4.5965q-1.9313-1.4248-3.3561 0.50649l-2.8637 3.8817q-1.4248 1.9313 0.50649 3.3561l6.2304 4.5965q1.9313 1.4248 3.3561-0.50649z" clip-path="url(#a)" fill="#fff" stroke="#fff"/>
<g clip-path="url(#a)">
<g transform="translate(1110.9 511.66) rotate(-53.582) scale(.08 -.08)">
<use xlink:href="#ae"/>
</g>
</g>
<path d="m1167.2 509.77 3.4759 4.7116q1.4248 1.9313 3.3561 0.50649l6.2304-4.5965q1.9313-1.4248 0.50649-3.3561l-3.4759-4.7116q-1.4248-1.9313-3.3561-0.50649l-6.2304 4.5965q-1.9313 1.4248-0.50649 3.3561z" clip-path="url(#a)" fill="#fff" stroke="#fff"/>
<g clip-path="url(#a)">
<g transform="translate(1170.5 507.36) rotate(53.582) scale(.08 -.08)">
<use xlink:href="#u"/>
</g>
</g>
<path d="m1056.4 611.85 14.771-30.41q1.0486-2.1588-1.1102-3.2074l-6.9644-3.3828q-2.1588-1.0486-3.2074 1.1102l-14.771 30.41q-1.0486 2.1588 1.1102 3.2074l6.9644 3.3828q2.1588 1.0486 3.2074-1.1102z" clip-path="url(#a)" fill="#fff" stroke="#fff"/>
<g clip-path="url(#a)">
<g transform="translate(1052.7 610.08) rotate(-64.093) scale(.08 -.08)">
<use xlink:href="#e"/>
<use x="44.083984" xlink:href="#l"/>
<use x="105.607422" xlink:href="#g"/>
<use x="144.970703" xlink:href="#i"/>
<use x="242.382812" xlink:href="#k"/>
<use x="270.166016" xlink:href="#h"/>
<use x="333.544922" xlink:href="#f"/>
<use x="394.824219" xlink:href="#j"/>
</g>
</g>
<path d="m1086.4 581.44 14.771 30.41q1.0486 2.1588 3.2074 1.1102l6.9644-3.3828q2.1588-1.0486 1.1102-3.2074l-14.771-30.41q-1.0486-2.1588-3.2074-1.1102l-6.9644 3.3828q-2.1588 1.0486-1.1102 3.2074z" clip-path="url(#a)" fill="#fff" stroke="#fff"/>
<g clip-path="url(#a)">
<g transform="translate(1090 579.67) rotate(64.093) scale(.08 -.08)">
<use xlink:href="#e"/>
<use x="44.083984" xlink:href="#l"/>
<use x="105.607422" xlink:href="#g"/>
<use x="144.970703" xlink:href="#i"/>
<use x="242.382812" xlink:href="#k"/>
<use x="270.166016" xlink:href="#h"/>
<use x="333.544922" xlink:href="#f"/>
<use x="394.824219" xlink:href="#j"/>
</g>
</g>
<path d="m605.62 577v33.808q0 2.4 2.4 2.4h7.7425q2.4 0 2.4-2.4v-33.808q0-2.4-2.4-2.4h-7.7425q-2.4 0-2.4 2.4z" clip-path="url(#a)" fill="#fff" stroke="#fff"/>
<g clip-path="url(#a)">
<g transform="translate(609.68 577) rotate(90) scale(.08 -.08)">
<use xlink:href="#e"/>
<use x="44.083984" xlink:href="#l"/>
<use x="105.607422" xlink:href="#g"/>
<use x="144.970703" xlink:href="#i"/>
<use x="242.382812" xlink:href="#k"/>
<use x="270.166016" xlink:href="#h"/>
<use x="333.544922" xlink:href="#f"/>
<use x="394.824219" xlink:href="#j"/>
</g>
</g>
<path d="m668.31 577v33.808q0 2.4 2.4 2.4h7.7425q2.4 0 2.4-2.4v-33.808q0-2.4-2.4-2.4h-7.7425q-2.4 0-2.4 2.4z" clip-path="url(#a)" fill="#fff" stroke="#fff"/>
<g clip-path="url(#a)">
<g transform="translate(672.37 577) rotate(90) scale(.08 -.08)">
<use xlink:href="#e"/>
<use x="44.083984" xlink:href="#l"/>
<use x="105.607422" xlink:href="#g"/>
<use x="144.970703" xlink:href="#i"/>
<use x="242.382812" xlink:href="#k"/>
<use x="270.166016" xlink:href="#h"/>
<use x="333.544922" xlink:href="#f"/>
<use x="394.824219" xlink:href="#j"/>
</g>
</g>
<path d="m803.58 577v33.808q0 2.4 2.4 2.4h7.7425q2.4 0 2.4-2.4v-33.808q0-2.4-2.4-2.4h-7.7425q-2.4 0-2.4 2.4z" clip-path="url(#a)" fill="#fff" stroke="#fff"/>
<g clip-path="url(#a)">
<g transform="translate(807.65 577) rotate(90) scale(.08 -.08)">
<use xlink:href="#e"/>
<use x="44.083984" xlink:href="#l"/>
<use x="105.607422" xlink:href="#g"/>
<use x="144.970703" xlink:href="#i"/>
<use x="242.382812" xlink:href="#k"/>
<use x="270.166016" xlink:href="#h"/>
<use x="333.544922" xlink:href="#f"/>
<use x="394.824219" xlink:href="#j"/>
</g>
</g>
<path d="m69.959 424.79 0.14448-5.0529q0.068596-2.399-2.3304-2.4676l-7.7393-0.22129q-2.399-0.068597-2.4676 2.3304l-0.14448 5.0529q-0.068596 2.399 2.3304 2.4676l7.7393 0.2213q2.399 0.068596 2.4676-2.3304z" clip-path="url(#a)" fill="#fff" stroke="#fff"/>
<g clip-path="url(#a)">
<g transform="translate(65.897 424.68) rotate(-88.362) scale(.08 -.08)">
<defs>
<path id="av" d="m9.8125 72.906h46.094v-8.3125h-36.234v-21.578h34.719v-8.2969h-34.719v-26.422h37.109v-8.2969h-46.969z"/>
</defs>
<use xlink:href="#av"/>
</g>
</g>
<path d="m59.888 419.47 0.15966 5.584q0.068596 2.399 2.4676 2.3304l7.7393-0.22129q2.399-0.068596 2.3304-2.4676l-0.15966-5.584q-0.068597-2.399-2.4676-2.3304l-7.7393 0.22129q-2.399 0.068597-2.3304 2.4676z" clip-path="url(#a)" fill="#fff" stroke="#fff"/>
<g clip-path="url(#a)">
<g transform="translate(63.95 419.36) rotate(88.362) scale(.08 -.08)">
<defs>
<path id="am" d="m64.406 67.281v-10.391q-4.9844 4.6406-10.625 6.9219-5.6406 2.2969-11.984 2.2969-12.5 0-19.141-7.6406t-6.6406-22.094q0-14.406 6.6406-22.047t19.141-7.6406q6.3438 0 11.984 2.2969t10.625 6.9375v-10.312q-5.1719-3.5156-10.969-5.2812-5.7812-1.75-12.219-1.75-16.562 0-26.094 10.125-9.5156 10.141-9.5156 27.672 0 17.578 9.5156 27.703 9.5312 10.141 26.094 10.141 6.5312 0 12.312-1.7344 5.7969-1.7344 10.875-5.2031z"/>
</defs>
<use xlink:href="#am"/>
</g>
</g>
<path d="m90.898 577v33.808q0 2.4 2.4 2.4h7.7425q2.4 0 2.4-2.4v-33.808q0-2.4-2.4-2.4h-7.7425q-2.4 0-2.4 2.4z" clip-path="url(#a)" fill="#fff" stroke="#fff"/>
<g clip-path="url(#a)">
<g transform="translate(94.962 577) rotate(90) scale(.08 -.08)">
<use xlink:href="#e"/>
<use x="44.083984" xlink:href="#l"/>
<use x="105.607422" xlink:href="#g"/>
<use x="144.970703" xlink:href="#i"/>
<use x="242.382812" xlink:href="#k"/>
<use x="270.166016" xlink:href="#h"/>
<use x="333.544922" xlink:href="#f"/>
<use x="394.824219" xlink:href="#j"/>
</g>
</g>
<path d="m133.79 577v33.808q0 2.4 2.4 2.4h7.7425q2.4 0 2.4-2.4v-33.808q0-2.4-2.4-2.4h-7.7425q-2.4 0-2.4 2.4z" clip-path="url(#a)" fill="#fff" stroke="#fff"/>
<g clip-path="url(#a)">
<g transform="translate(137.86 577) rotate(90) scale(.08 -.08)">
<use xlink:href="#e"/>
<use x="44.083984" xlink:href="#l"/>
<use x="105.607422" xlink:href="#g"/>
<use x="144.970703" xlink:href="#i"/>
<use x="242.382812" xlink:href="#k"/>
<use x="270.166016" xlink:href="#h"/>
<use x="333.544922" xlink:href="#f"/>
<use x="394.824219" xlink:href="#j"/>
</g>
</g>
<path d="m264.94 382.96 1.9223-5.2158q0.82996-2.2519-1.422-3.0819l-7.2648-2.6775q-2.2519-0.82996-3.0819 1.422l-1.9223 5.2158q-0.82996 2.2519 1.422 3.0819l7.2648 2.6775q2.2519 0.82996 3.0819-1.422z" clip-path="url(#a)" fill="#fff" stroke="#fff"/>
<g clip-path="url(#a)">
<g transform="translate(261.12 381.56) rotate(-69.768) scale(.08 -.08)">
<defs>
<path id="be" d="m44.391 34.188q3.1719-1.0781 6.1719-4.5938t6.0312-9.6719l10.016-19.922h-10.609l-9.3125 18.703q-3.625 7.3281-7.0156 9.7188t-9.25 2.3906h-10.75v-30.812h-9.8594v72.906h22.266q12.5 0 18.656-5.2344 6.1562-5.2188 6.1562-15.766 0-6.8906-3.2031-11.438-3.2031-4.5312-9.2969-6.2812zm-24.719 30.609v-25.875h12.406q7.125 0 10.766 3.2969t3.6406 9.6875-3.6406 9.6406-10.766 3.25z"/>
</defs>
<use xlink:href="#be"/>
</g>
</g>
<path d="m293.4 254.45 3.3533-4.3248q1.4706-1.8967-0.42607-3.3673l-6.1187-4.7442q-1.8967-1.4706-3.3673 0.42607l-3.3533 4.3248q-1.4706 1.8967 0.42607 3.3673l6.1187 4.7442q1.8967 1.4706 3.3673-0.42607z" clip-path="url(#a)" fill="#fff" stroke="#fff"/>
<g clip-path="url(#a)">
<g transform="translate(290.19 251.96) rotate(-52.211) scale(.08 -.08)">
<use xlink:href="#r"/>
</g>
</g>
<path d="m320.55 381.6 0.33431-6.1509q0.13025-2.3965-2.2662-2.5267l-7.7311-0.42019q-2.3965-0.13025-2.5267 2.2662l-0.33431 6.1509q-0.13025 2.3965 2.2662 2.5267l7.7311 0.42019q2.3965 0.13025 2.5267-2.2662z" clip-path="url(#a)" fill="#fff" stroke="#fff"/>
<g clip-path="url(#a)">
<g transform="translate(316.49 381.38) rotate(-86.889) scale(.08 -.08)">
<defs>
<path id="al" d="m19.672 64.797v-56.688h11.922q15.094 0 22.094 6.8281 7 6.8438 7 21.594 0 14.641-7 21.453t-22.094 6.8125zm-9.8594 8.1094h20.266q21.188 0 31.094-8.8125 9.9219-8.8125 9.9219-27.562 0-18.859-9.9688-27.703-9.9531-8.8281-31.047-8.8281h-20.266z"/>
</defs>
<use xlink:href="#al"/>
</g>
</g>
<path d="m329.43 375.55 0.42664 6.1452q0.16622 2.3942 2.5605 2.228l7.7239-0.53624q2.3942-0.16622 2.228-2.5605l-0.42664-6.1452q-0.16622-2.3942-2.5605-2.228l-7.7239 0.53624q-2.3942 0.16622-2.228 2.5605z" clip-path="url(#a)" fill="#fff" stroke="#fff"/>
<g clip-path="url(#a)">
<g transform="translate(333.48 375.26) rotate(86.029) scale(.08 -.08)">
<use xlink:href="#al"/>
</g>
</g>
<path d="m352.24 376.41 1.2239 6.0372q0.47684 2.3522 2.829 1.8753l7.5881-1.5383q2.3522-0.47684 1.8753-2.829l-1.2239-6.0372q-0.47684-2.3522-2.829-1.8753l-7.5881 1.5383q-2.3522 0.47684-1.8753 2.829z" clip-path="url(#a)" fill="#fff" stroke="#fff"/>
<g clip-path="url(#a)">
<g transform="translate(356.22 375.6) rotate(78.54) scale(.08 -.08)">
<use xlink:href="#al"/>
</g>
</g>
<path d="m376.99 377.83 1.6587 4.8003q0.78383 2.2684 3.0522 1.4846l7.3179-2.5287q2.2684-0.78383 1.4846-3.0522l-1.6587-4.8003q-0.78383-2.2684-3.0522-1.4846l-7.3179 2.5287q-2.2684 0.78383-1.4846 3.0522z" clip-path="url(#a)" fill="#fff" stroke="#fff"/>
<g clip-path="url(#a)">
<g transform="translate(380.83 376.51) rotate(70.938) scale(.08 -.08)">
<use xlink:href="#z"/>
</g>
</g>
<path d="m189.88 577v33.808q0 2.4 2.4 2.4h7.7425q2.4 0 2.4-2.4v-33.808q0-2.4-2.4-2.4h-7.7425q-2.4 0-2.4 2.4z" clip-path="url(#a)" fill="#fff" stroke="#fff"/>
<g clip-path="url(#a)">
<g transform="translate(193.95 577) rotate(90) scale(.08 -.08)">
<use xlink:href="#e"/>
<use x="44.083984" xlink:href="#l"/>
<use x="105.607422" xlink:href="#g"/>
<use x="144.970703" xlink:href="#i"/>
<use x="242.382812" xlink:href="#k"/>
<use x="270.166016" xlink:href="#h"/>
<use x="333.544922" xlink:href="#f"/>
<use x="394.824219" xlink:href="#j"/>
</g>
</g>
<path d="m257.81 338.56 0.52532-5.0276q0.24941-2.387-2.1376-2.6364l-7.7006-0.80461q-2.387-0.24941-2.6364 2.1376l-0.52532 5.0276q-0.24941 2.387 2.1376 2.6364l7.7006 0.80461q2.387 0.24941 2.6364-2.1376z" clip-path="url(#a)" fill="#fff" stroke="#fff"/>
<g clip-path="url(#a)">
<g transform="translate(253.76 338.14) rotate(-84.035) scale(.08 -.08)">
<use xlink:href="#av"/>
</g>
</g>
<path d="m254.5 376.21 0.29194 5.5786q0.12543 2.3967 2.5221 2.2713l7.7319-0.40463q2.3967-0.12542 2.2713-2.5221l-0.29194-5.5786q-0.12543-2.3967-2.5221-2.2713l-7.7319 0.40463q-2.3967 0.12542-2.2713 2.5221z" clip-path="url(#a)" fill="#fff" stroke="#fff"/>
<g clip-path="url(#a)">
<g transform="translate(258.56 375.99) rotate(87.004) scale(.08 -.08)">
<use xlink:href="#am"/>
</g>
</g>
<path d="m298.76 577v33.808q0 2.4 2.4 2.4h7.7425q2.4 0 2.4-2.4v-33.808q0-2.4-2.4-2.4h-7.7425q-2.4 0-2.4 2.4z" clip-path="url(#a)" fill="#fff" stroke="#fff"/>
<g clip-path="url(#a)">
<g transform="translate(302.83 577) rotate(90) scale(.08 -.08)">
<use xlink:href="#e"/>
<use x="44.083984" xlink:href="#l"/>
<use x="105.607422" xlink:href="#g"/>
<use x="144.970703" xlink:href="#i"/>
<use x="242.382812" xlink:href="#k"/>
<use x="270.166016" xlink:href="#h"/>
<use x="333.544922" xlink:href="#f"/>
<use x="394.824219" xlink:href="#j"/>
</g>
</g>
<path d="m341.66 577v33.808q0 2.4 2.4 2.4h7.7425q2.4 0 2.4-2.4v-33.808q0-2.4-2.4-2.4h-7.7425q-2.4 0-2.4 2.4z" clip-path="url(#a)" fill="#fff" stroke="#fff"/>
<g clip-path="url(#a)">
<g transform="translate(345.72 577) rotate(90) scale(.08 -.08)">
<use xlink:href="#e"/>
<use x="44.083984" xlink:href="#l"/>
<use x="105.607422" xlink:href="#g"/>
<use x="144.970703" xlink:href="#i"/>
<use x="242.382812" xlink:href="#k"/>
<use x="270.166016" xlink:href="#h"/>
<use x="333.544922" xlink:href="#f"/>
<use x="394.824219" xlink:href="#j"/>
</g>
</g>
<path d="m387.85 577v33.808q0 2.4 2.4 2.4h7.7425q2.4 0 2.4-2.4v-33.808q0-2.4-2.4-2.4h-7.7425q-2.4 0-2.4 2.4z" clip-path="url(#a)" fill="#fff" stroke="#fff"/>
<g clip-path="url(#a)">
<g transform="translate(391.91 577) rotate(90) scale(.08 -.08)">
<use xlink:href="#e"/>
<use x="44.083984" xlink:href="#l"/>
<use x="105.607422" xlink:href="#g"/>
<use x="144.970703" xlink:href="#i"/>
<use x="242.382812" xlink:href="#k"/>
<use x="270.166016" xlink:href="#h"/>
<use x="333.544922" xlink:href="#f"/>
<use x="394.824219" xlink:href="#j"/>
</g>
</g>
<path d="m437.34 577v33.808q0 2.4 2.4 2.4h7.7425q2.4 0 2.4-2.4v-33.808q0-2.4-2.4-2.4h-7.7425q-2.4 0-2.4 2.4z" clip-path="url(#a)" fill="#fff" stroke="#fff"/>
<g clip-path="url(#a)">
<g transform="translate(441.41 577) rotate(90) scale(.08 -.08)">
<use xlink:href="#e"/>
<use x="44.083984" xlink:href="#l"/>
<use x="105.607422" xlink:href="#g"/>
<use x="144.970703" xlink:href="#i"/>
<use x="242.382812" xlink:href="#k"/>
<use x="270.166016" xlink:href="#h"/>
<use x="333.544922" xlink:href="#f"/>
<use x="394.824219" xlink:href="#j"/>
</g>
</g>
<path d="m249.67 420.7 1.1231 5.356q0.49253 2.3489 2.8414 1.8564l7.5777-1.5889q2.3489-0.49253 1.8564-2.8415l-1.1231-5.356q-0.49253-2.3489-2.8414-1.8564l-7.5777 1.5889q-2.3489 0.49253-1.8564 2.8414z" clip-path="url(#a)" fill="#fff" stroke="#fff"/>
<g clip-path="url(#a)">
<g transform="translate(253.65 419.86) rotate(78.157) scale(.08 -.08)">
<use xlink:href="#r"/>
</g>
</g>
<path d="m244.19 468.31 0.53094-5.0509q0.2509-2.3868-2.136-2.6377l-7.7001-0.80941q-2.3868-0.2509-2.6377 2.136l-0.53094 5.0509q-0.2509 2.3868 2.136 2.6377l7.7001 0.80941q2.3868 0.2509 2.6377-2.136z" clip-path="url(#a)" fill="#fff" stroke="#fff"/>
<g clip-path="url(#a)">
<g transform="translate(240.15 467.89) rotate(-83.999) scale(.08 -.08)">
<use xlink:href="#z"/>
</g>
</g>
<path d="m259.04 501.91v12.991q0 2.4 2.4 2.4h8q2.4 0 2.4-2.4v-12.991q0-2.4-2.4-2.4h-8q-2.4 0-2.4 2.4z" clip-path="url(#a)" fill="#fff" stroke="#fff"/>
<g clip-path="url(#a)">
<g transform="translate(263.33 501.91) rotate(90) scale(.08 -.08)">
<defs>
<path id="ax" d="m21 76.422v-100h-8.2969v100z"/>
</defs>
<use xlink:href="#r"/>
<use x="68.408203" xlink:href="#ax"/>
<use x="102.099609" xlink:href="#ae"/>
</g>
</g>
<path d="m259.17 577v33.808q0 2.4 2.4 2.4h7.7425q2.4 0 2.4-2.4v-33.808q0-2.4-2.4-2.4h-7.7425q-2.4 0-2.4 2.4z" clip-path="url(#a)" fill="#fff" stroke="#fff"/>
<g clip-path="url(#a)">
<g transform="translate(263.23 577) rotate(90) scale(.08 -.08)">
<use xlink:href="#e"/>
<use x="44.083984" xlink:href="#l"/>
<use x="105.607422" xlink:href="#g"/>
<use x="144.970703" xlink:href="#i"/>
<use x="242.382812" xlink:href="#k"/>
<use x="270.166016" xlink:href="#h"/>
<use x="333.544922" xlink:href="#f"/>
<use x="394.824219" xlink:href="#j"/>
</g>
</g>
<path d="m222.88 577v33.808q0 2.4 2.4 2.4h7.7425q2.4 0 2.4-2.4v-33.808q0-2.4-2.4-2.4h-7.7425q-2.4 0-2.4 2.4z" clip-path="url(#a)" fill="#fff" stroke="#fff"/>
<g clip-path="url(#a)">
<g transform="translate(226.94 577) rotate(90) scale(.08 -.08)">
<use xlink:href="#e"/>
<use x="44.083984" xlink:href="#l"/>
<use x="105.607422" xlink:href="#g"/>
<use x="144.970703" xlink:href="#i"/>
<use x="242.382812" xlink:href="#k"/>
<use x="270.166016" xlink:href="#h"/>
<use x="333.544922" xlink:href="#f"/>
<use x="394.824219" xlink:href="#j"/>
</g>
</g>
<path d="m58.582 506.03 0.31408 5.4635q0.13774 2.396 2.5338 2.2583l7.7297-0.44436q2.396-0.13774 2.2583-2.5338l-0.31408-5.4635q-0.13774-2.396-2.5338-2.2583l-7.7297 0.44436q-2.396 0.13774-2.2583 2.5338z" clip-path="url(#a)" fill="#fff" stroke="#fff"/>
<g clip-path="url(#a)">
<g transform="translate(62.639 505.8) rotate(86.71) scale(.08 -.08)">
<use xlink:href="#r"/>
</g>
</g>
<path d="m66.166 511.3 0.29148-5.0704q0.13774-2.396-2.2583-2.5338l-7.7297-0.44436q-2.396-0.13774-2.5338 2.2583l-0.29148 5.0704q-0.13774 2.396 2.2583 2.5338l7.7297 0.44436q2.396 0.13774 2.5338-2.2583z" clip-path="url(#a)" fill="#fff" stroke="#fff"/>
<g clip-path="url(#a)">
<g transform="translate(62.108 511.07) rotate(-86.71) scale(.08 -.08)">
<use xlink:href="#z"/>
</g>
</g>
<path d="m61.074 501.78v13.246q0 2.4 2.4 2.4h8q2.4 0 2.4-2.4v-13.246q0-2.4-2.4-2.4h-8q-2.4 0-2.4 2.4z" clip-path="url(#a)" fill="#fff" stroke="#fff"/>
<g clip-path="url(#a)">
<g transform="translate(65.36 501.78) rotate(90) scale(.08 -.08)">
<use xlink:href="#r"/>
<use x="68.408203" xlink:href="#ax"/>
<use x="102.099609" xlink:href="#z"/>
</g>
</g>
<path d="m61.203 577v33.808q0 2.4 2.4 2.4h7.7425q2.4 0 2.4-2.4v-33.808q0-2.4-2.4-2.4h-7.7425q-2.4 0-2.4 2.4z" clip-path="url(#a)" fill="#fff" stroke="#fff"/>
<g clip-path="url(#a)">
<g transform="translate(65.267 577) rotate(90) scale(.08 -.08)">
<use xlink:href="#e"/>
<use x="44.083984" xlink:href="#l"/>
<use x="105.607422" xlink:href="#g"/>
<use x="144.970703" xlink:href="#i"/>
<use x="242.382812" xlink:href="#k"/>
<use x="270.166016" xlink:href="#h"/>
<use x="333.544922" xlink:href="#f"/>
<use x="394.824219" xlink:href="#j"/>
</g>
</g>
<path d="m51.305 577v33.808q0 2.4 2.4 2.4h7.7425q2.4 0 2.4-2.4v-33.808q0-2.4-2.4-2.4h-7.7425q-2.4 0-2.4 2.4z" clip-path="url(#a)" fill="#fff" stroke="#fff"/>
<g clip-path="url(#a)">
<g transform="translate(55.368 577) rotate(90) scale(.08 -.08)">
<use xlink:href="#e"/>
<use x="44.083984" xlink:href="#l"/>
<use x="105.607422" xlink:href="#g"/>
<use x="144.970703" xlink:href="#i"/>
<use x="242.382812" xlink:href="#k"/>
<use x="270.166016" xlink:href="#h"/>
<use x="333.544922" xlink:href="#f"/>
<use x="394.824219" xlink:href="#j"/>
</g>
</g>
<path d="m74.401 577v33.808q0 2.4 2.4 2.4h7.7425q2.4 0 2.4-2.4v-33.808q0-2.4-2.4-2.4h-7.7425q-2.4 0-2.4 2.4z" clip-path="url(#a)" fill="#fff" stroke="#fff"/>
<g clip-path="url(#a)">
<g transform="translate(78.465 577) rotate(90) scale(.08 -.08)">
<use xlink:href="#e"/>
<use x="44.083984" xlink:href="#l"/>
<use x="105.607422" xlink:href="#g"/>
<use x="144.970703" xlink:href="#i"/>
<use x="242.382812" xlink:href="#k"/>
<use x="270.166016" xlink:href="#h"/>
<use x="333.544922" xlink:href="#f"/>
<use x="394.824219" xlink:href="#j"/>
</g>
</g>
<path d="m110.69 577v33.808q0 2.4 2.4 2.4h7.7425q2.4 0 2.4-2.4v-33.808q0-2.4-2.4-2.4h-7.7425q-2.4 0-2.4 2.4z" clip-path="url(#a)" fill="#fff" stroke="#fff"/>
<g clip-path="url(#a)">
<g transform="translate(114.76 577) rotate(90) scale(.08 -.08)">
<use xlink:href="#e"/>
<use x="44.083984" xlink:href="#l"/>
<use x="105.607422" xlink:href="#g"/>
<use x="144.970703" xlink:href="#i"/>
<use x="242.382812" xlink:href="#k"/>
<use x="270.166016" xlink:href="#h"/>
<use x="333.544922" xlink:href="#f"/>
<use x="394.824219" xlink:href="#j"/>
</g>
</g>
<path d="m160.19 577v33.808q0 2.4 2.4 2.4h7.7425q2.4 0 2.4-2.4v-33.808q0-2.4-2.4-2.4h-7.7425q-2.4 0-2.4 2.4z" clip-path="url(#a)" fill="#fff" stroke="#fff"/>
<g clip-path="url(#a)">
<g transform="translate(164.25 577) rotate(90) scale(.08 -.08)">
<use xlink:href="#e"/>
<use x="44.083984" xlink:href="#l"/>
<use x="105.607422" xlink:href="#g"/>
<use x="144.970703" xlink:href="#i"/>
<use x="242.382812" xlink:href="#k"/>
<use x="270.166016" xlink:href="#h"/>
<use x="333.544922" xlink:href="#f"/>
<use x="394.824219" xlink:href="#j"/>
</g>
</g>
<path d="m490.13 577v33.808q0 2.4 2.4 2.4h7.7425q2.4 0 2.4-2.4v-33.808q0-2.4-2.4-2.4h-7.7425q-2.4 0-2.4 2.4z" clip-path="url(#a)" fill="#fff" stroke="#fff"/>
<g clip-path="url(#a)">
<g transform="translate(494.2 577) rotate(90) scale(.08 -.08)">
<use xlink:href="#e"/>
<use x="44.083984" xlink:href="#l"/>
<use x="105.607422" xlink:href="#g"/>
<use x="144.970703" xlink:href="#i"/>
<use x="242.382812" xlink:href="#k"/>
<use x="270.166016" xlink:href="#h"/>
<use x="333.544922" xlink:href="#f"/>
<use x="394.824219" xlink:href="#j"/>
</g>
</g>
<path d="m876.17 577v33.808q0 2.4 2.4 2.4h7.7425q2.4 0 2.4-2.4v-33.808q0-2.4-2.4-2.4h-7.7425q-2.4 0-2.4 2.4z" clip-path="url(#a)" fill="#fff" stroke="#fff"/>
<g clip-path="url(#a)">
<g transform="translate(880.24 577) rotate(90) scale(.08 -.08)">
<use xlink:href="#e"/>
<use x="44.083984" xlink:href="#l"/>
<use x="105.607422" xlink:href="#g"/>
<use x="144.970703" xlink:href="#i"/>
<use x="242.382812" xlink:href="#k"/>
<use x="270.166016" xlink:href="#h"/>
<use x="333.544922" xlink:href="#f"/>
<use x="394.824219" xlink:href="#j"/>
</g>
</g>
<path d="m1199.5 577v33.808q0 2.4 2.4 2.4h7.7425q2.4 0 2.4-2.4v-33.808q0-2.4-2.4-2.4h-7.7425q-2.4 0-2.4 2.4z" clip-path="url(#a)" fill="#fff" stroke="#fff"/>
<g clip-path="url(#a)">
<g transform="translate(1203.6 577) rotate(90) scale(.08 -.08)">
<use xlink:href="#e"/>
<use x="44.083984" xlink:href="#l"/>
<use x="105.607422" xlink:href="#g"/>
<use x="144.970703" xlink:href="#i"/>
<use x="242.382812" xlink:href="#k"/>
<use x="270.166016" xlink:href="#h"/>
<use x="333.544922" xlink:href="#f"/>
<use x="394.824219" xlink:href="#j"/>
</g>
</g>
<defs>
<path id="b" d="m0 8.6603c2.2967 0 4.4997-0.9125 6.1237-2.5365 1.624-1.624 2.5365-3.827 2.5365-6.1237s-0.9125-4.4997-2.5365-6.1237c-1.624-1.624-3.827-2.5365-6.1237-2.5365s-4.4997 0.9125-6.1237 2.5365c-1.624 1.624-2.5365 3.827-2.5365 6.1237s0.9125 4.4997 2.5365 6.1237c1.624 1.624 3.827 2.5365 6.1237 2.5365z"/>
</defs>
<g clip-path="url(#a)" fill="#ffffff" stroke="#ffffff">
<use x="57.575758" y="636.363636" xlink:href="#b"/>
<use x="67.474169" y="636.363636" xlink:href="#b"/>
<use x="80.67205" y="636.363636" xlink:href="#b"/>
<use x="97.169402" y="636.363636" xlink:href="#b"/>
<use x="116.966224" y="636.363636" xlink:href="#b"/>
<use x="140.062516" y="636.363636" xlink:href="#b"/>
<use x="166.458279" y="636.363636" xlink:href="#b"/>
<use x="196.153512" y="636.363636" xlink:href="#b"/>
<use x="229.148216" y="636.363636" xlink:href="#b"/>
<use x="265.44239" y="636.363636" xlink:href="#b"/>
<use x="305.036034" y="636.363636" xlink:href="#b"/>
<use x="347.929148" y="636.363636" xlink:href="#b"/>
<use x="394.121733" y="636.363636" xlink:href="#b"/>
<use x="443.613788" y="636.363636" xlink:href="#b"/>
<use x="496.405314" y="636.363636" xlink:href="#b"/>
<use x="552.49631" y="636.363636" xlink:href="#b"/>
<use x="611.886776" y="636.363636" xlink:href="#b"/>
<use x="674.576713" y="636.363636" xlink:href="#b"/>
<use x="740.56612" y="636.363636" xlink:href="#b"/>
<use x="809.854997" y="636.363636" xlink:href="#b"/>
<use x="882.443345" y="636.363636" xlink:href="#b"/>
<use x="958.331163" y="636.363636" xlink:href="#b"/>
<use x="1037.518451" y="636.363636" xlink:href="#b"/>
<use x="1120.00521" y="636.363636" xlink:href="#b"/>
<use x="1205.791439" y="636.363636" xlink:href="#b"/>
<use x="1209.090909" y="551.452034" xlink:href="#b"/>
<use x="701.593581" y="30.30303" xlink:href="#b"/>
<use x="141.456935" y="117.683283" xlink:href="#b"/>
<use x="552.49631" y="551.452034" xlink:href="#b"/>
<use x="698.772829" y="465.359218" xlink:href="#b"/>
<use x="740.56612" y="551.452034" xlink:href="#b"/>
<use x="958.331163" y="551.452034" xlink:href="#b"/>
<use x="1142.276635" y="465.359218" xlink:href="#b"/>
<use x="1078.76183" y="551.452034" xlink:href="#b"/>
<use x="611.886776" y="551.452034" xlink:href="#b"/>
<use x="674.576713" y="551.452034" xlink:href="#b"/>
<use x="809.854997" y="551.452034" xlink:href="#b"/>
<use x="64.999566" y="378.814853" xlink:href="#b"/>
<use x="97.169402" y="551.452034" xlink:href="#b"/>
<use x="140.062516" y="551.452034" xlink:href="#b"/>
<use x="323.87051" y="204.917345" xlink:href="#b"/>
<use x="196.153512" y="551.452034" xlink:href="#b"/>
<use x="256.368846" y="291.975941" xlink:href="#b"/>
<use x="305.036034" y="551.452034" xlink:href="#b"/>
<use x="347.929148" y="551.452034" xlink:href="#b"/>
<use x="394.121733" y="551.452034" xlink:href="#b"/>
<use x="443.613788" y="551.452034" xlink:href="#b"/>
<use x="247.295303" y="378.814853" xlink:href="#b"/>
<use x="265.44239" y="465.359218" xlink:href="#b"/>
<use x="265.44239" y="551.452034" xlink:href="#b"/>
<use x="229.148216" y="551.452034" xlink:href="#b"/>
<use x="62.524963" y="465.359218" xlink:href="#b"/>
<use x="67.474169" y="465.359218" xlink:href="#b"/>
<use x="67.474169" y="551.452034" xlink:href="#b"/>
<use x="57.575758" y="551.452034" xlink:href="#b"/>
<use x="80.67205" y="551.452034" xlink:href="#b"/>
<use x="116.966224" y="551.452034" xlink:href="#b"/>
<use x="166.458279" y="551.452034" xlink:href="#b"/>
<use x="496.405314" y="551.452034" xlink:href="#b"/>
<use x="882.443345" y="551.452034" xlink:href="#b"/>
<use x="1205.791439" y="551.452034" xlink:href="#b"/>
</g>
<g clip-path="url(#a)">
<g transform="translate(28.191 639.12) scale(.1 -.1)">
<defs>
<path id="bl" d="m9.8125 72.906h14.703l18.594-49.609 18.703 49.609h14.703v-72.906h-9.625v64.016l-18.797-50h-9.9062l-18.797 50v-64.016h-9.5781z"/>
<path id="m" d="m34.281 27.484q-10.891 0-15.094-2.4844t-4.2031-8.5q0-4.7812 3.1562-7.5938 3.1562-2.7969 8.5625-2.7969 7.4844 0 12 5.2969t4.5156 14.078v2zm17.922 3.7188v-31.203h-8.9844v8.2969q-3.0781-4.9688-7.6719-7.3438t-11.234-2.375q-8.3906 0-13.359 4.7188-4.9531 4.7188-4.9531 12.625 0 9.2188 6.1719 13.906 6.1875 4.6875 18.438 4.6875h12.609v0.89062q0 6.2031-4.0781 9.5938t-11.453 3.3906q-4.6875 0-9.1406-1.125-4.4375-1.125-8.5312-3.375v8.3125q4.9219 1.9062 9.5625 2.8438 4.6406 0.95312 9.0312 0.95312 11.875 0 17.734-6.1562 5.8594-6.1406 5.8594-18.641z"/>
<path id="ac" d="m3.7188 0v7.4688q8.875 1.375 11.609 7.5156 3.3281 8.6562 3.3281 30.766v8.9375h36.953v-54.688h-8.9844v47.516h-18.984v-5.4219q0-21.094-4.2969-30.562-4.5938-10.109-19.625-11.531z"/>
<path id="y" d="m56.203 29.594v-4.3906h-41.312q0.59375-9.2812 5.5938-14.141t13.938-4.8594q5.1719 0 10.031 1.2656t9.6562 3.8125v-8.5q-4.8438-2.0469-9.9219-3.125t-10.297-1.0781q-13.094 0-20.734 7.6094-7.6406 7.625-7.6406 20.625 0 13.422 7.25 21.297 7.25 7.8906 19.562 7.8906 11.031 0 17.453-7.1094 6.4219-7.0938 6.4219-19.297zm-8.9844 2.6406q-0.09375 7.3594-4.125 11.75-4.0312 4.4062-10.672 4.4062-7.5156 0-12.031-4.25t-5.2031-11.969z"/>
<path id="s" d="m9.0781 54.688h9.0312v-22.312h29.156v22.312h9.0312v-54.688h-9.0312v25.203h-29.156v-25.203h-9.0312z"/>
<path id="aq" d="m43.453 16.219q0 4.3906-3.2031 6.6875-3.1875 2.2969-9.3438 2.2969h-12.797v-18.031h12.797q6.1562 0 9.3438 2.3125 3.2031 2.3281 3.2031 6.7344zm-34.375 38.469h9.0312v-22.312h13.188q10.453 0 16.094-3.9844 5.6406-3.9688 5.6406-12.172t-5.6406-12.219q-5.6406-4-16.094-4h-22.219z"/>
<path id="w" d="m9.0781 54.688h8.9375v-25.688l25.344 25.688h11.031l-20.891-21.141 23.578-33.547h-10.062l-19.375 27.594-9.625-9.7656v-17.828h-8.9375z"/>
<path id="x" d="m55.906 54.688v-54.688h-8.9375v43.891l-26.359-43.891h-11.531v54.688h8.9375v-43.797l26.328 43.797z"/>
<path id="bk" d="m55.906 54.688v-54.688h-8.9375v43.891l-26.359-43.891h-11.531v54.688h8.9375v-43.797l26.328 43.797zm-38.688 20.828h5.7656q0.53125-3.6562 2.8906-5.5 2.375-1.8281 6.625-1.8281 4.2031 0 6.5469 1.8125t2.9688 5.5156h5.7656q-0.48438-6.9844-4.3438-10.5t-10.938-3.5156-10.938 3.5156-4.3438 10.5z"/>
</defs>
<use xlink:href="#bl"/>
<use x="86.279297" xlink:href="#m"/>
<use x="147.558594" xlink:href="#ac"/>
<use x="211.474609" xlink:href="#y"/>
<use x="272.998047" xlink:href="#s"/>
<use x="338.378906" xlink:href="#aq"/>
<use x="397.314453" xlink:href="#w"/>
<use x="457.714844" xlink:href="#x"/>
<use x="522.705078" xlink:href="#bk"/>
</g>
</g>
<g clip-path="url(#a)">
<g transform="translate(51.11 639.12) scale(.1 -.1)">
<defs>
<path id="ba" d="m56.297 54.688v-54.688h-9.0312v47.516h-29.156v-47.516h-9.0312v54.688z"/>
<path id="ab" d="m18.109 8.2031v-29h-9.0312v75.484h9.0312v-8.2969q2.8438 4.875 7.1562 7.2344 4.3281 2.375 10.328 2.375 9.9688 0 16.188-7.9062 6.2344-7.9062 6.2344-20.797t-6.2344-20.812q-6.2188-7.9062-16.188-7.9062-6 0-10.328 2.375-4.3125 2.375-7.1562 7.25zm30.578 19.094q0 9.9062-4.0781 15.547t-11.203 5.6406q-7.1406 0-11.219-5.6406t-4.0781-15.547 4.0781-15.547 11.219-5.6406q7.125 0 11.203 5.6406t4.0781 15.547z"/>
<path id="bj" d="m56.297 0h-47.219v54.688h9.0312v-47.516h29.156v47.516h9.0312v-47.516h7.1875v-20.984h-7.1875z"/>
</defs>
<use xlink:href="#ba"/>
<use x="65.380859" xlink:href="#ab"/>
<use x="128.857422" xlink:href="#x"/>
<use x="193.847656" xlink:href="#s"/>
<use x="259.228516" xlink:href="#bj"/>
</g>
</g>
<g clip-path="url(#a)">
<g transform="translate(79.083 639.12) scale(.1 -.1)">
<defs>
<path id="aa" d="m11.719 12.406h10.297v-8.4062l-8-15.625h-6.2969l4 15.625z"/>
</defs>
<use xlink:href="#aa"/>
</g>
</g>
<g clip-path="url(#a)">
<g transform="translate(75.462 639.12) scale(.1 -.1)">
<defs>
<path id="o" d="m30.609 48.391q-7.2188 0-11.422-5.6406t-4.2031-15.453 4.1719-15.453q4.1875-5.6406 11.453-5.6406 7.1875 0 11.375 5.6562 4.2031 5.6719 4.2031 15.438 0 9.7188-4.2031 15.406-4.1875 5.6875-11.375 5.6875zm0 7.6094q11.719 0 18.406-7.625 6.7031-7.6094 6.7031-21.078 0-13.422-6.7031-21.078-6.6875-7.6406-18.406-7.6406-11.766 0-18.438 7.6406-6.6562 7.6562-6.6562 21.078 0 13.469 6.6562 21.078 6.6719 7.625 18.438 7.625z"/>
<path id="as" d="m41.016 0v23h-16.75q-7.4688 0-12.453 4.6406-4.4844 4.2031-4.4844 13.188v13.859h8.9844v-13.031q0-5.7188 2.5312-8.5938 2.5938-2.8906 7.6719-2.8906h14.5v24.516h8.9844v-54.688z"/>
</defs>
<use xlink:href="#w"/>
<use x="60.400391" xlink:href="#o"/>
<use x="121.582031" xlink:href="#s"/>
<use x="186.962891" xlink:href="#y"/>
<use x="248.486328" xlink:href="#as"/>
<use x="307.568359" xlink:href="#s"/>
<use x="372.949219" xlink:href="#o"/>
</g>
</g>
<g clip-path="url(#a)">
<g transform="translate(115.38 639.12) scale(.1 -.1)">
<use xlink:href="#aa"/>
</g>
</g>
<g clip-path="url(#a)">
<g transform="translate(112.38 639.12) scale(.1 -.1)">
<defs>
<path id="ad" d="m21.625 7.1719h26.078v40.344h-18.891v-6.8438q0-20.109-5.7656-30.859zm-13.031 0q4.4375 1.9531 6.3906 6.1094 4.7969 10.297 4.7969 31.062v10.344h36.953v-47.516h7.1875v-20.984h-7.1875v13.812h-44.328v-13.812h-7.1875v20.984z"/>
<path id="bc" d="m9.0781 0v54.688h38.578v-7.1719h-29.547v-47.516z"/>
<path id="v" d="m48.781 52.594v-8.4062q-3.8125 2.1094-7.6406 3.1562t-7.7344 1.0469q-8.75 0-13.594-5.5469-4.8281-5.5312-4.8281-15.547t4.8281-15.562q4.8438-5.5312 13.594-5.5312 3.9062 0 7.7344 1.0469t7.6406 3.1562v-8.3125q-3.7656-1.75-7.7969-2.625-4.0156-0.89062-8.5625-0.89062-12.359 0-19.641 7.7656-7.2656 7.7656-7.2656 20.953 0 13.375 7.3438 21.031 7.3594 7.6719 20.156 7.6719 4.1406 0 8.0938-0.85938 3.9531-0.84375 7.6719-2.5469z"/>
<path id="ap" d="m18.453 38.922q0-4.0625 3.125-6.3594 3.125-2.2812 8.9375-2.2812h12.109v17.234h-12.109q-5.8125 0-8.9375-2.25t-3.125-6.3438zm-12.781-38.922 16.688 23.969q-5.6562 1.2812-9.4219 4.625-3.75 3.3438-3.75 10.328 0 7.9062 5.2344 11.828 5.25 3.9375 15.859 3.9375h21.375v-54.688h-9.0312v23.094h-11.172l-16.125-23.094z"/>
</defs>
<use xlink:href="#ad"/>
<use x="69.140625" xlink:href="#o"/>
<use x="130.322266" xlink:href="#bc"/>
<use x="182.861328" xlink:href="#m"/>
<use x="244.140625" xlink:href="#ad"/>
<use x="313.28125" xlink:href="#m"/>
<use x="374.560547" xlink:href="#ac"/>
<use x="438.476562" xlink:href="#v"/>
<use x="493.457031" xlink:href="#ap"/>
</g>
</g>
<g clip-path="url(#a)">
<g transform="translate(164.87 639.12) scale(.1 -.1)">
<use xlink:href="#aa"/>
</g>
</g>
<g clip-path="url(#a)">
<g transform="translate(187.23 639.12) scale(.1 -.1)">
<defs>
<path id="q" d="m2.9375 54.688h52.391v-7.1719h-21.781v-47.516h-8.8438v47.516h-21.766z"/>
</defs>
<use xlink:href="#as"/>
<use x="59.082031" xlink:href="#q"/>
<use x="117.333984" xlink:href="#o"/>
</g>
</g>
<g clip-path="url(#a)">
<g transform="translate(191.81 639.12) scale(.1 -.1)">
<defs>
<path id="az" d="m32.172-5.0781q-3.7969-9.7656-7.4219-12.734-3.6094-2.9844-9.6562-2.9844h-7.1875v7.5156h5.2812q3.7031 0 5.75 1.7656 2.0625 1.75 4.5469 8.2969l1.6094 4.0938-22.109 53.812h9.5156l17.094-42.766 17.094 42.766h9.5156z"/>
<path id="au" d="m18.062 25.203v-18.031h12.797q6.1562 0 9.375 2.3125 3.2188 2.3281 3.2188 6.7344 0 4.3906-3.2188 6.6875t-9.375 2.2969zm0 22.312v-15.141h11.828q5.0781 0 8.2969 2.0156 3.2188 2.0312 3.2188 5.6562 0 3.6094-3.2188 5.5312-3.2188 1.9375-8.2969 1.9375zm-8.9844 7.1719h21.391q9.625 0 14.797-3.5156t5.1719-10.016q0-5.0156-2.6406-7.9844-2.625-2.9531-7.8125-3.6719 6.2031-1.1719 9.625-4.8906 3.4219-3.7031 3.4219-9.2812 0-7.3125-5.6406-11.328-5.6406-4-16.094-4h-22.219z"/>
</defs>
<use xlink:href="#az"/>
<use x="59.179688" xlink:href="#ad"/>
<use x="128.320312" xlink:href="#x"/>
<use x="193.310547" xlink:href="#au"/>
<use x="252.246094" xlink:href="#x"/>
<use x="317.236328" xlink:href="#q"/>
<use x="375.488281" xlink:href="#y"/>
<use x="437.011719" xlink:href="#ac"/>
<use x="500.927734" xlink:href="#aq"/>
<use x="559.863281" xlink:href="#s"/>
<use x="625.244141" xlink:href="#m"/>
<use x="686.523438" xlink:href="#ap"/>
</g>
</g>
<g clip-path="url(#a)">
<g transform="translate(248.14 639.12) scale(.1 -.1)">
<use xlink:href="#bc"/>
<use x="52.539062" xlink:href="#o"/>
<use x="113.720703" xlink:href="#v"/>
<use x="168.701172" xlink:href="#q"/>
<use x="226.953125" xlink:href="#aq"/>
<use x="285.888672" xlink:href="#ap"/>
</g>
</g>
<g clip-path="url(#a)">
<g transform="translate(298.69 639.12) scale(.1 -.1)">
<use xlink:href="#s"/>
<use x="65.380859" xlink:href="#y"/>
</g>
</g>
<g clip-path="url(#a)">
<g transform="translate(323.52 639.12) scale(.1 -.1)">
<use xlink:href="#v"/>
<use x="54.980469" xlink:href="#q"/>
<use x="113.232422" xlink:href="#ab"/>
<use x="176.708984" xlink:href="#m"/>
<use x="237.988281" xlink:href="#ad"/>
<use x="307.128906" xlink:href="#m"/>
<use x="368.408203" xlink:href="#y"/>
<use x="429.931641" xlink:href="#q"/>
</g>
</g>
<g clip-path="url(#a)">
<g transform="translate(368.42 639.12) scale(.1 -.1)">
<defs>
<path id="at" d="m34.469 29.5q6.0625-1.1719 9.4219-4.75 3.375-3.5625 3.375-8.8281 0-8.4531-6.2969-12.906-6.2969-4.4375-17.922-4.4375-3.9062 0-8.0312 0.6875t-8.5156 2.0469v8.3594q3.4688-1.8125 7.6094-2.7188 4.1562-0.89062 8.6875-0.89062 7.375 0 11.5 2.7344t4.125 7.125q0 4.2969-3.6562 6.9062t-10.344 2.6094h-7.2344v7.4219h7.5625q5.6719 0 8.9688 2.1719t3.2969 5.5938q0 3.125-3.4062 5.375-3.3906 2.25-9.1875 2.25-3.4688 0-7.4062-0.64062-3.9219-0.64062-8.6719-2.0469v8.1562q4.7969 1.1719 8.9375 1.75 4.1562 0.59375 7.8594 0.59375 9.5781 0 15.109-3.8438 5.5469-3.8281 5.5469-10.719 0-4.5312-2.9375-7.6875-2.9219-3.1406-8.3906-4.3125z"/>
<path id="bd" d="m31.109 56q11.719 0 18.406-7.625 6.6875-7.6094 6.6875-21.078 0-13.422-6.6875-21.078-6.6875-7.6406-18.406-7.6406-11.766 0-18.266 7.4219t-6.8438 21.297l-0.28125 11.188q-0.25 5.7969-0.25 7.8125 0 7.8125 2.8281 13.562 4.4531 9.0312 12.141 12.938t20.578 4.0156q5.9531 0.046875 8.5938 0.875l2.4844-7.125q-2.3906-0.98438-4.5781-1.0312l-12.219-0.82812q-6.1406-0.4375-9.8594-2.5938-9.7188-5.7031-10.641-13.172l-0.34375-2.7344q6.3438 5.7969 16.656 5.7969zm0-7.6094q-7.2344 0-11.438-5.6406-4.1875-5.6406-4.1875-15.453t4.1719-15.453 11.453-5.6406q7.1719 0 11.375 5.6562 4.2031 5.6719 4.2031 15.438 0 9.7188-4.2031 15.406t-11.375 5.6875z"/>
<path id="ar" d="m61.047 54.688h8.9844v-54.688h-8.9844zm4.5 1.3125m-22.094-39.781q0 4.3906-3.2031 6.6875-3.1875 2.2969-9.3438 2.2969h-12.797v-18.031h12.797q6.1562 0 9.3438 2.3125 3.2031 2.3281 3.2031 6.7344zm-34.375 38.469h9.0312v-22.312h13.188q10.453 0 16.094-3.9844 5.6406-3.9688 5.6406-12.172t-5.6406-12.219q-5.6406-4-16.094-4h-22.219z"/>
<path id="bb" d="m9.0781 54.688h13.141l15.531-36.625 15.578 36.625h13.031v-54.688h-9.0312v46.094l-15.094-35.594h-8.9844l-15.141 35.594v-46.094h-9.0312z"/>
</defs>
<use xlink:href="#x"/>
<use x="64.990234" xlink:href="#at"/>
<use x="118.164062" xlink:href="#bd"/>
<use x="179.833984" xlink:href="#ar"/>
<use x="258.789062" xlink:href="#q"/>
<use x="317.041016" xlink:href="#w"/>
<use x="377.441406" xlink:href="#o"/>
<use x="438.623047" xlink:href="#bb"/>
</g>
</g>
<g clip-path="url(#a)">
<g transform="translate(412.6 639.12) scale(.1 -.1)">
<use xlink:href="#v"/>
<use x="54.980469" xlink:href="#w"/>
<use x="115.380859" xlink:href="#ab"/>
<use x="178.857422" xlink:href="#o"/>
<use x="240.039062" xlink:href="#bb"/>
<use x="315.478516" xlink:href="#s"/>
<use x="380.859375" xlink:href="#o"/>
<use x="442.041016" xlink:href="#v"/>
<use x="497.021484" xlink:href="#q"/>
<use x="555.273438" xlink:href="#x"/>
</g>
</g>
<g clip-path="url(#a)">
<g transform="translate(494.82 639.12) scale(.1 -.1)">
<use xlink:href="#aa"/>
</g>
</g>
<g clip-path="url(#a)">
<g transform="translate(540.8 639.12) scale(.1 -.1)">
<use xlink:href="#at"/>
<use x="53.173828" xlink:href="#m"/>
<use x="114.453125" xlink:href="#q"/>
<use x="172.705078" xlink:href="#o"/>
</g>
</g>
<g clip-path="url(#a)">
<g transform="translate(602.49 639.12) scale(.1 -.1)">
<use xlink:href="#o"/>
<use x="61.181641" xlink:href="#s"/>
<use x="126.5625" xlink:href="#m"/>
</g>
</g>
<g clip-path="url(#a)">
<g transform="translate(661.29 639.12) scale(.1 -.1)">
<use xlink:href="#bd"/>
<use x="61.669922" xlink:href="#ar"/>
<use x="140.625" xlink:href="#ac"/>
<use x="204.541016" xlink:href="#m"/>
</g>
</g>
<g clip-path="url(#a)">
<g transform="translate(731.57 639.12) scale(.1 -.1)">
<use xlink:href="#q"/>
<use x="58.251953" xlink:href="#m"/>
<use x="119.53125" xlink:href="#w"/>
</g>
</g>
<g clip-path="url(#a)">
<g transform="translate(781.99 639.12) scale(.1 -.1)">
<use xlink:href="#ba"/>
<use x="65.380859" xlink:href="#ab"/>
<use x="128.857422" xlink:href="#y"/>
<use x="190.380859" xlink:href="#w"/>
<use x="250.78125" xlink:href="#ab"/>
<use x="314.257812" xlink:href="#m"/>
<use x="375.537109" xlink:href="#v"/>
<use x="430.517578" xlink:href="#s"/>
<use x="495.898438" xlink:href="#m"/>
</g>
</g>
<g clip-path="url(#a)">
<g transform="translate(880.85 639.12) scale(.1 -.1)">
<use xlink:href="#aa"/>
</g>
</g>
<g clip-path="url(#a)">
<g transform="translate(949.41 639.12) scale(.1 -.1)">
<use xlink:href="#as"/>
<use x="59.082031" xlink:href="#q"/>
<use x="117.333984" xlink:href="#o"/>
</g>
</g>
<g clip-path="url(#a)">
<g transform="translate(1028.1 639.12) scale(.1 -.1)">
<defs>
<path id="ay" d="m54.891 54.688-19.781-26.609 20.797-28.078h-10.594l-15.922 21.484-15.906-21.484h-10.609l21.25 28.609-19.438 26.078h10.594l14.5-19.484 14.5 19.484z"/>
</defs>
<use xlink:href="#ad"/>
<use x="69.140625" xlink:href="#az"/>
<use x="128.320312" xlink:href="#ay"/>
</g>
</g>
<g clip-path="url(#a)">
<g transform="translate(1086.2 639.12) scale(.1 -.1)">
<use xlink:href="#at"/>
<use x="53.173828" xlink:href="#m"/>
<use x="114.453125" xlink:href="#ay"/>
<use x="173.632812" xlink:href="#au"/>
<use x="232.568359" xlink:href="#m"/>
<use x="293.847656" xlink:href="#q"/>
<use x="352.099609" xlink:href="#ar"/>
<use x="431.054688" xlink:href="#au"/>
<use x="489.990234" xlink:href="#m"/>
<use x="551.269531" xlink:href="#ac"/>
<use x="615.185547" xlink:href="#o"/>
</g>
</g>
<g clip-path="url(#a)">
<g transform="translate(1203.8 639.12) scale(.1 -.1)">
<defs>
<path id="bi" d="m15.094 12.406h9.9062v-12.406h-9.9062zm0 60.5h9.9062v-31.984l-0.96875-17.438h-7.9219l-1.0156 17.438z"/>
</defs>
<use xlink:href="#bi"/>
</g>
</g>
<g clip-path="url(#a)">
<g transform="translate(1188 554.21) scale(.1 -.1)">
<defs>
<path id="aj" d="m9.8125 72.906h9.8594v-72.906h-9.8594z"/>
<path id="bf" d="m9.8125 72.906h14.703l18.594-49.609 18.703 49.609h14.703v-72.906h-9.625v64.016l-18.797-50h-9.9062l-18.797 50v-64.016h-9.5781z"/>
</defs>
<use xlink:href="#aj"/>
<use x="29.492188" xlink:href="#bf"/>
<use x="115.771484" xlink:href="#ae"/>
<use x="176.074219" xlink:href="#af"/>
<use x="231.787109" xlink:href="#aj"/>
<use x="261.279297" xlink:href="#am"/>
<use x="331.103516" xlink:href="#aj"/>
<use x="360.595703" xlink:href="#e"/>
</g>
</g>
<g clip-path="url(#a)">
<g transform="translate(693.64 33.062) scale(.1 -.1)">
<defs>
<path id="c" d="m12.406 8.2969h16.109v55.625l-17.531-3.5156v8.9844l17.438 3.5156h9.8594v-64.609h16.109v-8.2969h-41.984z"/>
<path id="d" d="m10.688 12.406h10.312v-12.406h-10.312z"/>
</defs>
<use xlink:href="#c"/>
<use x="63.623047" xlink:href="#d"/>
<use x="95.410156" xlink:href="#c"/>
</g>
</g>
<g clip-path="url(#a)">
<g transform="translate(133.51 120.44) scale(.1 -.1)">
<defs>
<path id="p" d="m19.188 8.2969h34.422v-8.2969h-46.281v8.2969q5.6094 5.8125 15.297 15.594 9.7031 9.7969 12.188 12.641 4.7344 5.3125 6.6094 9 1.8906 3.6875 1.8906 7.25 0 5.8125-4.0781 9.4688-4.0781 3.6719-10.625 3.6719-4.6406 0-9.7969-1.6094-5.1406-1.6094-11-4.8906v9.9688q5.9531 2.3906 11.125 3.6094 5.1875 1.2188 9.4844 1.2188 11.328 0 18.062-5.6719 6.7344-5.6562 6.7344-15.125 0-4.5-1.6875-8.5312-1.6719-4.0156-6.125-9.4844-1.2188-1.4219-7.7656-8.1875-6.5312-6.7656-18.453-18.922z"/>
</defs>
<use xlink:href="#c"/>
<use x="63.623047" xlink:href="#d"/>
<use x="95.410156" xlink:href="#p"/>
</g>
</g>
<g clip-path="url(#a)">
<g transform="translate(544.54 554.21) scale(.1 -.1)">
<defs>
<path id="n" d="m40.578 39.312q7.0781-1.5156 11.047-6.3125 3.9844-4.7812 3.9844-11.812 0-10.781-7.4219-16.703-7.4219-5.9062-21.094-5.9062-4.5781 0-9.4375 0.90625t-10.031 2.7188v9.5156q4.0938-2.3906 8.9688-3.6094 4.8906-1.2188 10.219-1.2188 9.2656 0 14.125 3.6562t4.8594 10.641q0 6.4531-4.5156 10.078-4.5156 3.6406-12.562 3.6406h-8.5v8.1094h8.8906q7.2656 0 11.125 2.9062t3.8594 8.375q0 5.6094-3.9844 8.6094-3.9688 3.0156-11.391 3.0156-4.0625 0-8.7031-0.89062-4.6406-0.875-10.203-2.7188v8.7812q5.625 1.5625 10.531 2.3438t9.25 0.78125q11.234 0 17.766-5.1094 6.5469-5.0938 6.5469-13.781 0-6.0625-3.4688-10.234t-9.8594-5.7812z"/>
</defs>
<use xlink:href="#c"/>
<use x="63.623047" xlink:href="#d"/>
<use x="95.410156" xlink:href="#n"/>
</g>
</g>
<g clip-path="url(#a)">
<g transform="translate(690.82 468.12) scale(.1 -.1)">
<defs>
<path id="t" d="m37.797 64.312-24.906-38.922h24.906zm-2.5938 8.5938h12.406v-47.516h10.406v-8.2031h-10.406v-17.188h-9.8125v17.188h-32.906v9.5156z"/>
</defs>
<use xlink:href="#c"/>
<use x="63.623047" xlink:href="#d"/>
<use x="95.410156" xlink:href="#t"/>
</g>
</g>
<g clip-path="url(#a)">
<g transform="translate(732.61 554.21) scale(.1 -.1)">
<defs>
<path id="ai" d="m10.797 72.906h38.719v-8.3125h-29.688v-17.859q2.1406 0.73438 4.2812 1.0938 2.1562 0.35938 4.3125 0.35938 12.203 0 19.328-6.6875 7.1406-6.6875 7.1406-18.109 0-11.766-7.3281-18.297-7.3281-6.5156-20.656-6.5156-4.5938 0-9.3594 0.78125-4.75 0.78125-9.8281 2.3438v9.9219q4.3906-2.3906 9.0781-3.5625t9.9062-1.1719q8.4531 0 13.375 4.4375 4.9375 4.4375 4.9375 12.062 0 7.6094-4.9375 12.047-4.9219 4.4531-13.375 4.4531-3.9531 0-7.8906-0.875-3.9219-0.875-8.0156-2.7344z"/>
</defs>
<use xlink:href="#c"/>
<use x="63.623047" xlink:href="#d"/>
<use x="95.410156" xlink:href="#ai"/>
</g>
</g>
<g clip-path="url(#a)">
<g transform="translate(950.38 554.21) scale(.1 -.1)">
<defs>
<path id="ah" d="m33.016 40.375q-6.6406 0-10.531-4.5469-3.875-4.5312-3.875-12.438 0-7.8594 3.875-12.438 3.8906-4.5625 10.531-4.5625t10.516 4.5625q3.875 4.5781 3.875 12.438 0 7.9062-3.875 12.438-3.875 4.5469-10.516 4.5469zm19.578 30.922v-8.9844q-3.7188 1.75-7.5 2.6719-3.7812 0.9375-7.5 0.9375-9.7656 0-14.922-6.5938-5.1406-6.5938-5.875-19.922 2.875 4.25 7.2188 6.5156 4.3594 2.2656 9.5781 2.2656 10.984 0 17.359-6.6719 6.375-6.6562 6.375-18.125 0-11.234-6.6406-18.031-6.6406-6.7812-17.672-6.7812-12.656 0-19.344 9.6875-6.6875 9.7031-6.6875 28.109 0 17.281 8.2031 27.562t22.016 10.281q3.7188 0 7.5-0.73438t7.8906-2.1875z"/>
</defs>
<use xlink:href="#c"/>
<use x="63.623047" xlink:href="#d"/>
<use x="95.410156" xlink:href="#ah"/>
</g>
</g>
<g clip-path="url(#a)">
<g transform="translate(1134.3 468.12) scale(.1 -.1)">
<defs>
<path id="ag" d="m8.2031 72.906h46.875v-4.2031l-26.469-68.703h-10.297l24.906 64.594h-35.016z"/>
</defs>
<use xlink:href="#c"/>
<use x="63.623047" xlink:href="#d"/>
<use x="95.410156" xlink:href="#ag"/>
</g>
</g>
<g clip-path="url(#a)">
<g transform="translate(1067.6 554.21) scale(.1 -.1)">
<use xlink:href="#c"/>
<use x="63.623047" xlink:href="#d"/>
<use x="95.410156" xlink:href="#c"/>
<use x="159.033203" xlink:href="#p"/>
</g>
</g>
<g clip-path="url(#a)">
<g transform="translate(600.75 554.21) scale(.1 -.1)">
<use xlink:href="#c"/>
<use x="63.623047" xlink:href="#d"/>
<use x="95.410156" xlink:href="#c"/>
<use x="159.033203" xlink:href="#n"/>
</g>
</g>
<g clip-path="url(#a)">
<g transform="translate(663.44 554.21) scale(.1 -.1)">
<use xlink:href="#c"/>
<use x="63.623047" xlink:href="#d"/>
<use x="95.410156" xlink:href="#c"/>
<use x="159.033203" xlink:href="#t"/>
</g>
</g>
<g clip-path="url(#a)">
<g transform="translate(798.72 554.21) scale(.1 -.1)">
<use xlink:href="#c"/>
<use x="63.623047" xlink:href="#d"/>
<use x="95.410156" xlink:href="#c"/>
<use x="159.033203" xlink:href="#ai"/>
</g>
</g>
<g clip-path="url(#a)">
<g transform="translate(53.867 381.57) scale(.1 -.1)">
<use xlink:href="#c"/>
<use x="63.623047" xlink:href="#d"/>
<use x="95.410156" xlink:href="#c"/>
<use x="159.033203" xlink:href="#ah"/>
</g>
</g>
<g clip-path="url(#a)">
<g transform="translate(86.037 554.21) scale(.1 -.1)">
<use xlink:href="#c"/>
<use x="63.623047" xlink:href="#d"/>
<use x="95.410156" xlink:href="#c"/>
<use x="159.033203" xlink:href="#ag"/>
</g>
</g>
<g clip-path="url(#a)">
<g transform="translate(128.93 554.21) scale(.1 -.1)">
<defs>
<path id="ao" d="m31.781 34.625q-7.0312 0-11.062-3.7656-4.0156-3.7656-4.0156-10.344 0-6.5938 4.0156-10.359 4.0312-3.7656 11.062-3.7656t11.078 3.7812q4.0625 3.7969 4.0625 10.344 0 6.5781-4.0312 10.344-4.0156 3.7656-11.109 3.7656zm-9.8594 4.1875q-6.3438 1.5625-9.8906 5.9062-3.5312 4.3594-3.5312 10.609 0 8.7344 6.2188 13.812 6.2344 5.0781 17.062 5.0781 10.891 0 17.094-5.0781t6.2031-13.812q0-6.25-3.5469-10.609-3.5312-4.3438-9.8281-5.9062 7.125-1.6562 11.094-6.5 3.9844-4.8281 3.9844-11.797 0-10.609-6.4688-16.281-6.4688-5.6562-18.531-5.6562-12.047 0-18.531 5.6562-6.4688 5.6719-6.4688 16.281 0 6.9688 4 11.797 4.0156 4.8438 11.141 6.5zm-3.6094 15.578q0-5.6562 3.5312-8.8281 3.5469-3.1719 9.9375-3.1719 6.3594 0 9.9375 3.1719 3.5938 3.1719 3.5938 8.8281 0 5.6719-3.5938 8.8438-3.5781 3.1719-9.9375 3.1719-6.3906 0-9.9375-3.1719-3.5312-3.1719-3.5312-8.8438z"/>
</defs>
<use xlink:href="#c"/>
<use x="63.623047" xlink:href="#d"/>
<use x="95.410156" xlink:href="#c"/>
<use x="159.033203" xlink:href="#ao"/>
</g>
</g>
<g clip-path="url(#a)">
<g transform="translate(312.74 207.68) scale(.1 -.1)">
<defs>
<path id="an" d="m10.984 1.5156v8.9844q3.7188-1.7656 7.5156-2.6875 3.8125-0.92188 7.4844-0.92188 9.7656 0 14.906 6.5625 5.1562 6.5625 5.8906 19.953-2.8281-4.2031-7.1875-6.4531-4.3438-2.25-9.6094-2.25-10.938 0-17.312 6.6094-6.375 6.625-6.375 18.109 0 11.219 6.6406 18 6.6406 6.7969 17.672 6.7969 12.656 0 19.312-9.7031 6.6719-9.6875 6.6719-28.141 0-17.234-8.1875-27.516-8.1719-10.281-21.984-10.281-3.7188 0-7.5312 0.73438-3.7969 0.73438-7.9062 2.2031zm19.625 30.906q6.6406 0 10.516 4.5312 3.8906 4.5469 3.8906 12.469 0 7.8594-3.8906 12.422-3.875 4.5625-10.516 4.5625t-10.516-4.5625-3.875-12.422q0-7.9219 3.875-12.469 3.875-4.5312 10.516-4.5312z"/>
</defs>
<use xlink:href="#c"/>
<use x="63.623047" xlink:href="#d"/>
<use x="95.410156" xlink:href="#c"/>
<use x="159.033203" xlink:href="#an"/>
</g>
</g>
<g clip-path="url(#a)">
<g transform="translate(185.02 554.21) scale(.1 -.1)">
<use xlink:href="#c"/>
<use x="63.623047" xlink:href="#d"/>
<use x="95.410156" xlink:href="#p"/>
<use x="159.033203" xlink:href="#n"/>
</g>
</g>
<g clip-path="url(#a)">
<g transform="translate(245.24 294.74) scale(.1 -.1)">
<use xlink:href="#c"/>
<use x="63.623047" xlink:href="#d"/>
<use x="95.410156" xlink:href="#p"/>
<use x="159.033203" xlink:href="#t"/>
</g>
</g>
<g clip-path="url(#a)">
<g transform="translate(293.9 554.21) scale(.1 -.1)">
<use xlink:href="#c"/>
<use x="63.623047" xlink:href="#d"/>
<use x="95.410156" xlink:href="#p"/>
<use x="159.033203" xlink:href="#ai"/>
</g>
</g>
<g clip-path="url(#a)">
<g transform="translate(336.8 554.21) scale(.1 -.1)">
<use xlink:href="#c"/>
<use x="63.623047" xlink:href="#d"/>
<use x="95.410156" xlink:href="#p"/>
<use x="159.033203" xlink:href="#ah"/>
</g>
</g>
<g clip-path="url(#a)">
<g transform="translate(382.99 554.21) scale(.1 -.1)">
<use xlink:href="#c"/>
<use x="63.623047" xlink:href="#d"/>
<use x="95.410156" xlink:href="#p"/>
<use x="159.033203" xlink:href="#ag"/>
</g>
</g>
<g clip-path="url(#a)">
<g transform="translate(432.48 554.21) scale(.1 -.1)">
<use xlink:href="#c"/>
<use x="63.623047" xlink:href="#d"/>
<use x="95.410156" xlink:href="#p"/>
<use x="159.033203" xlink:href="#ao"/>
</g>
</g>
<g clip-path="url(#a)">
<g transform="translate(236.16 381.57) scale(.1 -.1)">
<use xlink:href="#c"/>
<use x="63.623047" xlink:href="#d"/>
<use x="95.410156" xlink:href="#p"/>
<use x="159.033203" xlink:href="#an"/>
</g>
</g>
<g clip-path="url(#a)">
<g transform="translate(254.31 468.12) scale(.1 -.1)">
<defs>
<path id="aw" d="m31.781 66.406q-7.6094 0-11.453-7.5-3.8281-7.4844-3.8281-22.531 0-14.984 3.8281-22.484 3.8438-7.5 11.453-7.5 7.6719 0 11.5 7.5 3.8438 7.5 3.8438 22.484 0 15.047-3.8438 22.531-3.8281 7.5-11.5 7.5zm0 7.8125q12.266 0 18.734-9.7031 6.4688-9.6875 6.4688-28.141 0-18.406-6.4688-28.109-6.4688-9.6875-18.734-9.6875-12.25 0-18.719 9.6875-6.4688 9.7031-6.4688 28.109 0 18.453 6.4688 28.141 6.4688 9.7031 18.719 9.7031z"/>
</defs>
<use xlink:href="#c"/>
<use x="63.623047" xlink:href="#d"/>
<use x="95.410156" xlink:href="#n"/>
<use x="159.033203" xlink:href="#aw"/>
</g>
</g>
<g clip-path="url(#a)">
<g transform="translate(254.31 554.21) scale(.1 -.1)">
<use xlink:href="#c"/>
<use x="63.623047" xlink:href="#d"/>
<use x="95.410156" xlink:href="#n"/>
<use x="159.033203" xlink:href="#c"/>
</g>
</g>
<g clip-path="url(#a)">
<g transform="translate(218.02 554.21) scale(.1 -.1)">
<use xlink:href="#c"/>
<use x="63.623047" xlink:href="#d"/>
<use x="95.410156" xlink:href="#n"/>
<use x="159.033203" xlink:href="#p"/>
</g>
</g>
<g clip-path="url(#a)">
<g transform="translate(51.392 468.12) scale(.1 -.1)">
<use xlink:href="#c"/>
<use x="63.623047" xlink:href="#d"/>
<use x="95.410156" xlink:href="#n"/>
<use x="159.033203" xlink:href="#n"/>
</g>
</g>
<g clip-path="url(#a)">
<g transform="translate(56.341 468.12) scale(.1 -.1)">
<use xlink:href="#c"/>
<use x="63.623047" xlink:href="#d"/>
<use x="95.410156" xlink:href="#n"/>
<use x="159.033203" xlink:href="#t"/>
</g>
</g>
<g clip-path="url(#a)">
<g transform="translate(56.341 554.21) scale(.1 -.1)">
<use xlink:href="#c"/>
<use x="63.623047" xlink:href="#d"/>
<use x="95.410156" xlink:href="#n"/>
<use x="159.033203" xlink:href="#ai"/>
</g>
</g>
<g clip-path="url(#a)">
<g transform="translate(46.443 554.21) scale(.1 -.1)">
<use xlink:href="#c"/>
<use x="63.623047" xlink:href="#d"/>
<use x="95.410156" xlink:href="#n"/>
<use x="159.033203" xlink:href="#ah"/>
</g>
</g>
<g clip-path="url(#a)">
<g transform="translate(69.539 554.21) scale(.1 -.1)">
<use xlink:href="#c"/>
<use x="63.623047" xlink:href="#d"/>
<use x="95.410156" xlink:href="#n"/>
<use x="159.033203" xlink:href="#ag"/>
</g>
</g>
<g clip-path="url(#a)">
<g transform="translate(105.83 554.21) scale(.1 -.1)">
<use xlink:href="#c"/>
<use x="63.623047" xlink:href="#d"/>
<use x="95.410156" xlink:href="#n"/>
<use x="159.033203" xlink:href="#ao"/>
</g>
</g>
<g clip-path="url(#a)">
<g transform="translate(155.33 554.21) scale(.1 -.1)">
<use xlink:href="#c"/>
<use x="63.623047" xlink:href="#d"/>
<use x="95.410156" xlink:href="#n"/>
<use x="159.033203" xlink:href="#an"/>
</g>
</g>
<g clip-path="url(#a)">
<g transform="translate(485.27 554.21) scale(.1 -.1)">
<use xlink:href="#c"/>
<use x="63.623047" xlink:href="#d"/>
<use x="95.410156" xlink:href="#t"/>
<use x="159.033203" xlink:href="#aw"/>
</g>
</g>
<g clip-path="url(#a)">
<g transform="translate(871.31 554.21) scale(.1 -.1)">
<use xlink:href="#c"/>
<use x="63.623047" xlink:href="#d"/>
<use x="95.410156" xlink:href="#t"/>
<use x="159.033203" xlink:href="#c"/>
</g>
</g>
<g clip-path="url(#a)">
<g transform="translate(1194.7 554.21) scale(.1 -.1)">
<use xlink:href="#c"/>
<use x="63.623047" xlink:href="#d"/>
<use x="95.410156" xlink:href="#t"/>
<use x="159.033203" xlink:href="#p"/>
</g>
</g>
<defs>
<clipPath id="a">
<rect width="1266.7" height="666.67"/>
</clipPath>
</defs>
</svg>
