<?xml version="1.0" encoding="UTF-8"?>
<!DOCTYPE svg  PUBLIC '-//W3C//DTD SVG 1.1//EN'  'http://www.w3.org/Graphics/SVG/1.1/DTD/svg11.dtd'>
<svg width="1672pt" height="880pt" version="1.1" viewBox="0 0 1672 880" xmlns="http://www.w3.org/2000/svg" xmlns:xlink="http://www.w3.org/1999/xlink">
<metadata>
<rdf:RDF xmlns:cc="http://creativecommons.org/ns#" xmlns:dc="http://purl.org/dc/elements/1.1/" xmlns:rdf="http://www.w3.org/1999/02/22-rdf-syntax-ns#">
<cc:Work>
<dc:type rdf:resource="http://purl.org/dc/dcmitype/StillImage"/>
<dc:date>2021-01-13T08:47:00.257772</dc:date>
<dc:format>image/svg+xml</dc:format>
<dc:creator>
<cc:Agent>
<dc:title>Matplotlib v3.3.3, https://matplotlib.org/</dc:title>
</cc:Agent>
</dc:creator>
</cc:Work>
</rdf:RDF>
</metadata>
<defs>
<style type="text/css">*{stroke-linecap:butt;stroke-linejoin:round;}</style>
</defs>
<path d="m0 880h1672v-880h-1672z" fill="#fff"/>
<g fill="none" stroke="#000">
<path d="m328.82 40-196.05 402.76" clip-path="url(#a)"/>
<path d="m328.82 40-89.327 402.76" clip-path="url(#a)"/>
<path d="m328.82 40 221.34 134.55" clip-path="url(#a)"/>
<path d="m328.82 40 12.858 669.03" clip-path="url(#a)"/>
<path d="m328.82 40 51.178 669.03" clip-path="url(#a)"/>
<path d="m132.77 442.76-26.114 266.27" clip-path="url(#a)"/>
<path d="m132.77 442.76-10.786 266.27" clip-path="url(#a)"/>
<path d="m132.77 442.76-48.254 133.48" clip-path="url(#a)"/>
<path d="m132.77 442.76 7.0962 266.27" clip-path="url(#a)"/>
<path d="m132.77 442.76 27.533 266.27" clip-path="url(#a)"/>
<path d="m132.77 442.76 50.525 266.27" clip-path="url(#a)"/>
<path d="m239.5 442.76 66.42 133.48" clip-path="url(#a)"/>
<path d="m239.5 442.76 66.42 133.48" clip-path="url(#a)"/>
<path d="m239.5 442.76v133.48" clip-path="url(#a)"/>
<path d="m550.17 174.55 1045.8 134.28" clip-path="url(#a)"/>
<path d="m550.17 174.55 366.87 134.28" clip-path="url(#a)"/>
<path d="m550.17 174.55-366.87 534.49" clip-path="url(#a)" stroke-dasharray="3.7,1.6"/>
<path d="m917.04 308.82-379.08 267.42" clip-path="url(#a)"/>
<path d="m917.04 308.82-138.52 400.21" clip-path="url(#a)"/>
<path d="m917.04 308.82 21.147 267.42" clip-path="url(#a)"/>
<path d="m917.04 308.82 500.14 133.94" clip-path="url(#a)"/>
<path d="m917.04 308.82-197.27 400.21" clip-path="url(#a)"/>
<path d="m917.04 308.82 193.58 400.21" clip-path="url(#a)"/>
<path d="m537.96 576.25-117.09 132.79" clip-path="url(#a)"/>
<path d="m537.96 576.25-27.675 132.79" clip-path="url(#a)"/>
<path d="m537.96 576.25 20.863 132.79" clip-path="url(#a)"/>
<path d="m537.96 576.25 71.955 132.79" clip-path="url(#a)"/>
<path d="m537.96 576.25 125.6 132.79" clip-path="url(#a)"/>
<path d="m537.96 576.25-73.658 132.79" clip-path="url(#a)"/>
<path d="m778.52 709.03v130.97" clip-path="url(#a)"/>
<path d="m938.18 576.25-98.353 132.79" clip-path="url(#a)"/>
<path d="m938.18 576.25-34.487 132.79" clip-path="url(#a)"/>
<path d="m938.18 576.25 31.933 132.79" clip-path="url(#a)"/>
<path d="m938.18 576.25 100.91 132.79" clip-path="url(#a)"/>
<path d="m1417.2 442.76-194.15 133.48" clip-path="url(#a)"/>
<path d="m1417.2 442.76-76.639 266.27" clip-path="url(#a)"/>
<path d="m1417.2 442.76 5.1092 266.27" clip-path="url(#a)"/>
<path d="m1417.2 442.76 89.412 266.27" clip-path="url(#a)"/>
<path d="m1417.2 442.76 176.27 266.27" clip-path="url(#a)"/>
<path d="m1223 576.25-38.319 132.79" clip-path="url(#a)"/>
<path d="m1223 576.25 38.319 132.79" clip-path="url(#a)"/>
<path d="m1340.5 709.03v130.97" clip-path="url(#a)"/>
<path d="m1422.3 709.03v130.97" clip-path="url(#a)"/>
<path d="m1184.7 709.03v130.97" clip-path="url(#a)"/>
<path d="m1261.3 709.03v130.97" clip-path="url(#a)"/>
<path d="m839.83 709.03v130.97" clip-path="url(#a)"/>
<path d="m903.7 709.03v130.97" clip-path="url(#a)"/>
<path d="m970.12 709.03v130.97" clip-path="url(#a)"/>
<path d="m1039.1 709.03v130.97" clip-path="url(#a)"/>
<path d="m420.87 709.03v130.97" clip-path="url(#a)"/>
<path d="m510.29 709.03v130.97" clip-path="url(#a)"/>
<path d="m558.82 709.03v130.97" clip-path="url(#a)"/>
<path d="m609.92 709.03v130.97" clip-path="url(#a)"/>
<path d="m663.56 709.03v130.97" clip-path="url(#a)"/>
<path d="m239.5 576.25 28.101 132.79" clip-path="url(#a)"/>
<path d="m239.5 576.25 61.311 132.79" clip-path="url(#a)"/>
<path d="m239.5 576.25-56.202 132.79" clip-path="url(#a)" stroke-dasharray="3.7,1.6"/>
<path d="m239.5 576.25-30.655 132.79" clip-path="url(#a)"/>
<path d="m239.5 576.25-2.5546 132.79" clip-path="url(#a)"/>
<path d="m267.6 709.03v130.97" clip-path="url(#a)"/>
<path d="m300.81 709.03v130.97" clip-path="url(#a)"/>
<path d="m106.66 709.03v130.97" clip-path="url(#a)"/>
<path d="m121.98 709.03v130.97" clip-path="url(#a)"/>
<path d="m84.515 576.25-8.5154 132.79" clip-path="url(#a)"/>
<path d="m84.515 576.25-0.85154 132.79" clip-path="url(#a)"/>
<path d="m84.515 576.25 9.3669 132.79" clip-path="url(#a)"/>
<path d="m139.87 709.03v130.97" clip-path="url(#a)"/>
<path d="m160.3 709.03v130.97" clip-path="url(#a)"/>
<path d="m183.29 709.03v130.97" clip-path="url(#a)"/>
<path d="m208.84 709.03v130.97" clip-path="url(#a)"/>
<path d="m236.94 709.03v130.97" clip-path="url(#a)"/>
<path d="m76 709.03v130.97" clip-path="url(#a)"/>
<path d="m83.664 709.03v130.97" clip-path="url(#a)"/>
<path d="m93.882 709.03v130.97" clip-path="url(#a)"/>
<path d="m341.68 709.03v130.97" clip-path="url(#a)"/>
<path d="m380 709.03v130.97" clip-path="url(#a)"/>
<path d="m464.3 709.03v130.97" clip-path="url(#a)"/>
<path d="m719.76 709.03v130.97" clip-path="url(#a)"/>
<path d="m1110.6 709.03v130.97" clip-path="url(#a)"/>
<path d="m1506.6 709.03v130.97" clip-path="url(#a)"/>
<path d="m1593.4 709.03v130.97" clip-path="url(#a)"/>
</g>
<path d="m235.12 246.83 2.6331-5.4094q1.0504-2.1579-1.1075-3.2083l-6.9616-3.3887q-2.1579-1.0504-3.2083 1.1075l-2.6331 5.4094q-1.0504 2.1579 1.1075 3.2083l6.9616 3.3887q2.1579 1.0504 3.2083-1.1075z" clip-path="url(#a)" fill="#fff" stroke="#fff"/>
<g clip-path="url(#a)">
<g transform="translate(231.46 245.05) rotate(-64.045) scale(.08 -.08)">
<defs>
<path id="y" d="m9.8125 72.906h9.8594v-29.891h35.844v29.891h9.8594v-72.906h-9.8594v34.719h-35.844v-34.719h-9.8594z"/>
</defs>
<use xlink:href="#y"/>
</g>
</g>
<path d="m289.63 245.68 1.3027-5.8735q0.51966-2.3431-1.8234-2.8627l-7.5588-1.6764q-2.3431-0.51966-2.8627 1.8234l-1.3027 5.8735q-0.51966 2.3431 1.8234 2.8627l7.5588 1.6764q2.3431 0.51966 2.8627-1.8234z" clip-path="url(#a)" fill="#fff" stroke="#fff"/>
<g clip-path="url(#a)">
<g transform="translate(285.66 244.8) rotate(-77.495) scale(.08 -.08)">
<use xlink:href="#y"/>
</g>
</g>
<path d="m433.67 111.07 5.141 3.125q2.0508 1.2466 3.2975-0.8042l4.0217-6.6161q1.2466-2.0508-0.8042-3.2975l-5.141-3.125q-2.0508-1.2466-3.2975 0.8042l-4.0217 6.6161q-1.2466 2.0508 0.8042 3.2975z" clip-path="url(#a)" fill="#fff" stroke="#fff"/>
<g clip-path="url(#a)">
<g transform="translate(435.78 107.6) rotate(31.294) scale(.08 -.08)">
<use xlink:href="#y"/>
</g>
</g>
<path d="m328.93 371.71 0.11251 5.8539q0.046118 2.3996 2.4457 2.3534l7.7411-0.14878q2.3996-0.046117 2.3534-2.4457l-0.11251-5.8539q-0.046117-2.3996-2.4457-2.3534l-7.7411 0.14878q-2.3996 0.046117-2.3534 2.4457z" clip-path="url(#a)" fill="#fff" stroke="#fff"/>
<g clip-path="url(#a)">
<g transform="translate(332.99 371.63) rotate(88.899) scale(.08 -.08)">
<defs>
<path id="q" d="m8.6875 72.906h9.9219v-44.297q0-11.719 4.2344-16.875 4.25-5.1406 13.781-5.1406 9.4688 0 13.719 5.1406 4.25 5.1562 4.25 16.875v44.297h9.9062v-45.516q0-14.25-7.0625-21.531-7.0469-7.2812-20.812-7.2812-13.828 0-20.891 7.2812-7.0469 7.2812-7.0469 21.531z"/>
</defs>
<use xlink:href="#q"/>
</g>
</g>
<path d="m347.93 372.08 0.44657 5.8379q0.18305 2.393 2.5761 2.21l7.7199-0.59054q2.393-0.18305 2.21-2.5761l-0.44657-5.8379q-0.18305-2.393-2.5761-2.21l-7.7199 0.59054q-2.393 0.18305-2.21 2.5761z" clip-path="url(#a)" fill="#fff" stroke="#fff"/>
<g clip-path="url(#a)">
<g transform="translate(351.99 371.77) rotate(85.626) scale(.08 -.08)">
<use xlink:href="#q"/>
</g>
</g>
<path d="m125.67 579.42 0.57147-5.827q0.23425-2.3885-2.1543-2.6228l-7.7055-0.7557q-2.3885-0.23425-2.6228 2.1543l-0.57147 5.827q-0.23425 2.3885 2.1543 2.6228l7.7055 0.7557q2.3885 0.23425 2.6228-2.1543z" clip-path="url(#a)" fill="#fff" stroke="#fff"/>
<g clip-path="url(#a)">
<g transform="translate(121.62 579.03) rotate(-84.399) scale(.08 -.08)">
<use xlink:href="#q"/>
</g>
</g>
<path d="m133.52 579.08 0.23698-5.8502q0.09714-2.398-2.3009-2.4952l-7.7362-0.31338q-2.398-0.097141-2.4952 2.3009l-0.23698 5.8502q-0.09714 2.398 2.3009 2.4952l7.7362 0.31338q2.398 0.09714 2.4952-2.3009z" clip-path="url(#a)" fill="#fff" stroke="#fff"/>
<g clip-path="url(#a)">
<g transform="translate(129.46 578.91) rotate(-87.68) scale(.08 -.08)">
<use xlink:href="#q"/>
</g>
</g>
<path d="m113.61 514.21 1.8605-5.1465q0.81592-2.2571-1.4411-3.073l-7.2813-2.6322q-2.2571-0.81592-3.073 1.4411l-1.8605 5.1465q-0.81592 2.2571 1.4411 3.073l7.2813 2.6322q2.2571 0.81592 3.073-1.4411z" clip-path="url(#a)" fill="#fff" stroke="#fff"/>
<g clip-path="url(#a)">
<g transform="translate(109.79 512.83) rotate(-70.125) scale(.08 -.08)">
<defs>
<path id="m" d="m34.188 63.188-13.391-36.281h26.812zm-5.5781 9.7188h11.188l27.781-72.906h-10.25l-6.6406 18.703h-32.859l-6.6406-18.703h-10.406z"/>
</defs>
<use xlink:href="#m"/>
</g>
</g>
<path d="m129.97 572.99 0.16411 6.1578q0.063938 2.3991 2.4631 2.3352l7.7398-0.20627q2.3991-0.063938 2.3352-2.4631l-0.16411-6.1578q-0.063937-2.3991-2.4631-2.3352l-7.7398 0.20627q-2.3991 0.063937-2.3352 2.4631z" clip-path="url(#a)" fill="#fff" stroke="#fff"/>
<g clip-path="url(#a)">
<g transform="translate(134.03 572.88) rotate(88.473) scale(.08 -.08)">
<defs>
<path id="ab" d="m19.672 64.797v-56.688h11.922q15.094 0 22.094 6.8281 7 6.8438 7 21.594 0 14.641-7 21.453t-22.094 6.8125zm-9.8594 8.1094h20.266q21.188 0 31.094-8.8125 9.9219-8.8125 9.9219-27.562 0-18.859-9.9688-27.703-9.9531-8.8281-31.047-8.8281h-20.266z"/>
</defs>
<use xlink:href="#ab"/>
</g>
</g>
<path d="m140.05 574.14 0.49614 4.7982q0.24685 2.3873 2.6341 2.1404l7.7014-0.79635q2.3873-0.24685 2.1404-2.6341l-0.49614-4.7982q-0.24685-2.3873-2.6341-2.1404l-7.7014 0.79635q-2.3873 0.24685-2.1404 2.6341z" clip-path="url(#a)" fill="#fff" stroke="#fff"/>
<g clip-path="url(#a)">
<g transform="translate(144.09 573.73) rotate(84.096) scale(.08 -.08)">
<defs>
<path id="x" d="m19.672 64.797v-27.391h12.406q6.8906 0 10.641 3.5625 3.7656 3.5625 3.7656 10.156 0 6.5469-3.7656 10.109-3.75 3.5625-10.641 3.5625zm-9.8594 8.1094h22.266q12.266 0 18.531-5.5469 6.2812-5.5469 6.2812-16.234 0-10.797-6.2812-16.312-6.2656-5.5156-18.531-5.5156h-12.406v-29.297h-9.8594z"/>
</defs>
<use xlink:href="#x"/>
</g>
</g>
<path d="m151.36 574.38 1.0202 5.3766q0.44742 2.3579 2.8053 1.9105l7.6068-1.4434q2.3579-0.44742 1.9105-2.8053l-1.0202-5.3766q-0.44742-2.3579-2.8053-1.9105l-7.6068 1.4434q-2.3579 0.44741-1.9105 2.8053z" clip-path="url(#a)" fill="#fff" stroke="#fff"/>
<g clip-path="url(#a)">
<g transform="translate(155.35 573.62) rotate(79.256) scale(.08 -.08)">
<use xlink:href="#m"/>
</g>
</g>
<path d="m265.87 509.85 2.4379 4.8995q1.0692 2.1487 3.2179 1.0795l6.9318-3.4492q2.1487-1.0692 1.0795-3.2179l-2.4379-4.8995q-1.0692-2.1487-3.2179-1.0795l-6.9318 3.4492q-2.1487 1.0692-1.0795 3.2179z" clip-path="url(#a)" fill="#fff" stroke="#fff"/>
<g clip-path="url(#a)">
<g transform="translate(269.51 508.04) rotate(63.546) scale(.08 -.08)">
<use xlink:href="#m"/>
</g>
</g>
<path d="m266.02 510.14 2.1489 4.3186q1.0692 2.1487 3.2179 1.0795l6.9318-3.4492q2.1487-1.0692 1.0795-3.2179l-2.1489-4.3186q-1.0692-2.1487-3.2179-1.0795l-6.9318 3.4492q-2.1487 1.0692-1.0795 3.2179z" clip-path="url(#a)" fill="#fff" stroke="#fff"/>
<g clip-path="url(#a)">
<g transform="translate(269.66 508.33) rotate(63.546) scale(.08 -.08)">
<use xlink:href="#x"/>
</g>
</g>
<path d="m233.22 506.77v5.4725q0 2.4 2.4 2.4h7.7425q2.4 0 2.4-2.4v-5.4725q0-2.4-2.4-2.4h-7.7425q-2.4 0-2.4 2.4z" clip-path="url(#a)" fill="#fff" stroke="#fff"/>
<g clip-path="url(#a)">
<g transform="translate(237.29 506.77) rotate(90) scale(.08 -.08)">
<use xlink:href="#m"/>
</g>
</g>
<path d="m1069.9 247.6 4.7845 0.61429q2.3805 0.30563 2.6861-2.0748l0.98598-7.6795q0.30563-2.3805-2.0748-2.6861l-4.7845-0.61429q-2.3805-0.30563-2.6861 2.0748l-0.98598 7.6795q-0.30563 2.3805 2.0748 2.6861z" clip-path="url(#a)" fill="#fff" stroke="#fff"/>
<g clip-path="url(#a)">
<g transform="translate(1070.4 243.57) rotate(7.3163) scale(.08 -.08)">
<use xlink:href="#x"/>
</g>
</g>
<path d="m728.88 246.63 5.1391 1.8809q2.2538 0.8249 3.0787-1.4289l2.6612-7.2708q0.8249-2.2538-1.4289-3.0787l-5.1391-1.8809q-2.2538-0.8249-3.0787 1.4289l-2.6612 7.2708q-0.8249 2.2538 1.4289 3.0787z" clip-path="url(#a)" fill="#fff" stroke="#fff"/>
<g clip-path="url(#a)">
<g transform="translate(730.27 242.82) rotate(20.103) scale(.08 -.08)">
<use xlink:href="#m"/>
</g>
</g>
<path d="m370.35 447.6 3.097-4.5119q1.3582-1.9787-0.62052-3.3369l-6.3834-4.3816q-1.9787-1.3582-3.3369 0.62052l-3.097 4.5119q-1.3582 1.9787 0.62052 3.3369l6.3834 4.3816q1.9787 1.3582 3.3369-0.62052z" clip-path="url(#a)" fill="#fff" stroke="#fff"/>
<g clip-path="url(#a)">
<g transform="translate(367 445.3) rotate(-55.534) scale(.08 -.08)">
<use xlink:href="#m"/>
</g>
</g>
<path d="m728.66 449.39 4.9161-3.4681q1.9611-1.3835 0.57764-3.3446l-4.4632-6.3266q-1.3835-1.9611-3.3446-0.57764l-4.9161 3.4681q-1.9611 1.3835-0.57764 3.3446l4.4632 6.3266q1.3835 1.9611 3.3446 0.57764z" clip-path="url(#a)" fill="#fff" stroke="#fff"/>
<g clip-path="url(#a)">
<g transform="translate(726.31 446.07) rotate(-35.201) scale(.08 -.08)">
<use xlink:href="#y"/>
</g>
</g>
<path d="m852.98 513.09 1.4579-4.2123q0.78498-2.268-1.483-3.053l-7.3166-2.5324q-2.268-0.78498-3.053 1.483l-1.4579 4.2123q-0.78498 2.268 1.483 3.053l7.3166 2.5324q2.268 0.78498 3.053-1.483z" clip-path="url(#a)" fill="#fff" stroke="#fff"/>
<g clip-path="url(#a)">
<g transform="translate(849.14 511.76) rotate(-70.909) scale(.08 -.08)">
<defs>
<path id="ah" d="m9.8125 72.906h9.8594v-64.609h35.5v-8.2969h-45.359z"/>
</defs>
<use xlink:href="#ah"/>
</g>
</g>
<path d="m921.12 440.03 0.47426 5.9975q0.18919 2.3925 2.5817 2.2033l7.7184-0.61034q2.3925-0.18919 2.2033-2.5817l-0.47426-5.9975q-0.18919-2.3925-2.5817-2.2033l-7.7184 0.61034q-2.3925 0.18919-2.2033 2.5817z" clip-path="url(#a)" fill="#fff" stroke="#fff"/>
<g clip-path="url(#a)">
<g transform="translate(925.17 439.71) rotate(85.479) scale(.08 -.08)">
<use xlink:href="#y"/>
</g>
</g>
<path d="m1162.6 381.07 5.8115 1.5563q2.3183 0.62085 2.9392-1.6975l2.0029-7.479q0.62085-2.3183-1.6975-2.9392l-5.8115-1.5563q-2.3183-0.62085-2.9392 1.6975l-2.0029 7.479q-0.62085 2.3183 1.6975 2.9392z" clip-path="url(#a)" fill="#fff" stroke="#fff"/>
<g clip-path="url(#a)">
<g transform="translate(1163.6 377.15) rotate(14.992) scale(.08 -.08)">
<use xlink:href="#y"/>
</g>
</g>
<path d="m822.73 514.33 2.5887-5.2516q1.0611-2.1527-1.0916-3.2138l-6.9446-3.4232q-2.1527-1.0611-3.2138 1.0916l-2.5887 5.2516q-1.0611 2.1527 1.0916 3.2138l6.9446 3.4232q2.1527 1.0611 3.2138-1.0916z" clip-path="url(#a)" fill="#fff" stroke="#fff"/>
<g clip-path="url(#a)">
<g transform="translate(819.09 512.53) rotate(-63.76) scale(.08 -.08)">
<use xlink:href="#q"/>
</g>
</g>
<path d="m1006.9 509.02 2.5495 5.2708q1.0451 2.1605 3.2056 1.1155l6.9699-3.3714q2.1605-1.0451 1.1155-3.2056l-2.5495-5.2708q-1.0451-2.1605-3.2056-1.1155l-6.9699 3.3714q-2.1605 1.0451-1.1155 3.2056z" clip-path="url(#a)" fill="#fff" stroke="#fff"/>
<g clip-path="url(#a)">
<g transform="translate(1010.6 507.26) rotate(64.187) scale(.08 -.08)">
<use xlink:href="#q"/>
</g>
</g>
<path d="m482.07 649.11 4.0997-4.6494q1.5873-1.8001-0.21285-3.3874l-5.8073-5.1207q-1.8001-1.5873-3.3874 0.21285l-4.0997 4.6494q-1.5873 1.8001 0.21285 3.3874l5.8073 5.1207q1.8001 1.5873 3.3874-0.21285z" clip-path="url(#a)" fill="#fff" stroke="#fff"/>
<g clip-path="url(#a)">
<g transform="translate(479.02 646.43) rotate(-48.595) scale(.08 -.08)">
<defs>
<path id="ay" d="m59.516 10.406v19.578h-16.109v8.1094h25.875v-31.312q-5.7031-4.0469-12.594-6.125-6.875-2.0781-14.688-2.0781-17.094 0-26.75 9.9844-9.6406 10-9.6406 27.812 0 17.875 9.6406 27.859 9.6562 9.9844 26.75 9.9844 7.125 0 13.547-1.7656 6.4219-1.75 11.844-5.1719v-10.5q-5.4688 4.6406-11.625 6.9844t-12.938 2.3438q-13.391 0-20.109-7.4688-6.7031-7.4688-6.7031-22.266 0-14.75 6.7031-22.219 6.7188-7.4688 20.109-7.4688 5.2188 0 9.3125 0.90625 4.1094 0.90625 7.375 2.8125z"/>
</defs>
<use xlink:href="#ay"/>
</g>
</g>
<path d="m529.7 646.6 1.1166-5.3574q0.48968-2.3495-1.8598-2.8392l-7.5796-1.5797q-2.3495-0.48968-2.8392 1.8598l-1.1166 5.3574q-0.48968 2.3495 1.8598 2.8392l7.5796 1.5797q2.3495 0.48968 2.8392-1.8598z" clip-path="url(#a)" fill="#fff" stroke="#fff"/>
<g clip-path="url(#a)">
<g transform="translate(525.73 645.77) rotate(-78.227) scale(.08 -.08)">
<use xlink:href="#m"/>
</g>
</g>
<path d="m541.77 640.91 0.84939 5.4062q0.3725 2.3709 2.7434 1.9984l7.6487-1.2017q2.3709-0.3725 1.9984-2.7434l-0.84939-5.4062q-0.3725-2.3709-2.7434-1.9984l-7.6487 1.2017q-2.3709 0.3725-1.9984 2.7434z" clip-path="url(#a)" fill="#fff" stroke="#fff"/>
<g clip-path="url(#a)">
<g transform="translate(545.79 640.28) rotate(81.071) scale(.08 -.08)">
<use xlink:href="#m"/>
</g>
</g>
<path d="m566.96 642.92 2.9348 5.416q1.1434 2.1101 3.2535 0.96668l6.8073-3.6888q2.1101-1.1434 0.96668-3.2535l-2.9348-5.416q-1.1434-2.1101-3.2535-0.96668l-6.8073 3.6888q-2.1101 1.1434-0.96668 3.2535z" clip-path="url(#a)" fill="#fff" stroke="#fff"/>
<g clip-path="url(#a)">
<g transform="translate(570.53 640.98) rotate(61.548) scale(.08 -.08)">
<use xlink:href="#ab"/>
</g>
</g>
<path d="m594.46 645.11 3.49 3.6897q1.6492 1.7436 3.3928 0.094346l5.6248-5.3205q1.7436-1.6492 0.094346-3.3928l-3.49-3.6897q-1.6492-1.7436-3.3928-0.094346l-5.6248 5.3205q-1.7436 1.6492-0.094346 3.3928z" clip-path="url(#a)" fill="#fff" stroke="#fff"/>
<g clip-path="url(#a)">
<g transform="translate(597.41 642.31) rotate(46.593) scale(.08 -.08)">
<defs>
<path id="ag" d="m53.516 70.516v-9.625q-5.6094 2.6875-10.594 4-4.9844 1.3281-9.625 1.3281-8.0469 0-12.422-3.125t-4.375-8.8906q0-4.8438 2.9062-7.3125 2.9062-2.4531 11.016-3.9688l5.9531-1.2188q11.031-2.1094 16.281-7.4062t5.25-14.172q0-10.609-7.1094-16.078-7.0938-5.4688-20.812-5.4688-5.1719 0-11.016 1.1719-5.8281 1.1719-12.078 3.4688v10.156q6-3.3594 11.766-5.0781 5.7656-1.7031 11.328-1.7031 8.4375 0 13.031 3.3125 4.5938 3.3281 4.5938 9.4844 0 5.3594-3.2969 8.3906t-10.812 4.5469l-6.0156 1.1719q-11.031 2.1875-15.969 6.875-4.9219 4.6875-4.9219 13.047 0 9.6719 6.8125 15.234t18.766 5.5625q5.1406 0 10.453-0.9375 5.3281-0.92188 10.891-2.7656z"/>
</defs>
<use xlink:href="#ag"/>
</g>
</g>
<path d="m505.2 648.24 2.8401-5.12q1.1642-2.0987-0.93455-3.2629l-6.7706-3.7557q-2.0987-1.1642-3.2629 0.93455l-2.8401 5.12q-1.1642 2.0987 0.93455 3.2629l6.7706 3.7557q2.0987 1.1642 3.2629-0.93455z" clip-path="url(#a)" fill="#fff" stroke="#fff"/>
<g clip-path="url(#a)">
<g transform="translate(501.64 646.27) rotate(-60.983) scale(.08 -.08)">
<use xlink:href="#q"/>
</g>
</g>
<path d="m772.25 757.61v33.808q0 2.4 2.4 2.4h7.7425q2.4 0 2.4-2.4v-33.808q0-2.4-2.4-2.4h-7.7425q-2.4 0-2.4 2.4z" clip-path="url(#a)" fill="#fff" stroke="#fff"/>
<g clip-path="url(#a)">
<g transform="translate(776.31 757.61) rotate(90) scale(.08 -.08)">
<defs>
<path id="e" d="m-0.29688 72.906h61.672v-8.3125h-25.875v-64.594h-9.9062v64.594h-25.891z"/>
<path id="l" d="m56.203 29.594v-4.3906h-41.312q0.59375-9.2812 5.5938-14.141t13.938-4.8594q5.1719 0 10.031 1.2656t9.6562 3.8125v-8.5q-4.8438-2.0469-9.9219-3.125t-10.297-1.0781q-13.094 0-20.734 7.6094-7.6406 7.625-7.6406 20.625 0 13.422 7.25 21.297 7.25 7.8906 19.562 7.8906 11.031 0 17.453-7.1094 6.4219-7.0938 6.4219-19.297zm-8.9844 2.6406q-0.09375 7.3594-4.125 11.75-4.0312 4.4062-10.672 4.4062-7.5156 0-12.031-4.25t-5.2031-11.969z"/>
<path id="g" d="m41.109 46.297q-1.5156 0.875-3.2969 1.2812-1.7812 0.42188-3.9219 0.42188-7.625 0-11.703-4.9531t-4.0781-14.234v-28.812h-9.0312v54.688h9.0312v-8.5q2.8438 4.9844 7.375 7.3906 4.5469 2.4219 11.047 2.4219 0.92188 0 2.0469-0.125 1.125-0.10938 2.4844-0.35938z"/>
<path id="i" d="m52 44.188q3.375 6.0625 8.0625 8.9375t11.031 2.875q8.5469 0 13.188-5.9844 4.6406-5.9688 4.6406-17v-33.016h-9.0312v32.719q0 7.8594-2.7969 11.656-2.7812 3.8125-8.4844 3.8125-6.9844 0-11.047-4.6406-4.0469-4.625-4.0469-12.641v-30.906h-9.0312v32.719q0 7.9062-2.7812 11.688t-8.5938 3.7812q-6.8906 0-10.953-4.6562-4.0469-4.6562-4.0469-12.625v-30.906h-9.0312v54.688h9.0312v-8.5q3.0781 5.0312 7.375 7.4219t10.203 2.3906q5.9688 0 10.141-3.0312 4.1719-3.0156 6.1719-8.7812z"/>
<path id="k" d="m9.4219 54.688h8.9844v-54.688h-8.9844zm0 21.297h8.9844v-11.391h-8.9844z"/>
<path id="h" d="m54.891 33.016v-33.016h-8.9844v32.719q0 7.7656-3.0312 11.609-3.0312 3.8594-9.0781 3.8594-7.2812 0-11.484-4.6406-4.2031-4.625-4.2031-12.641v-30.906h-9.0312v54.688h9.0312v-8.5q3.2344 4.9375 7.5938 7.375 4.375 2.4375 10.094 2.4375 9.4219 0 14.25-5.8281 4.8438-5.8281 4.8438-17.156z"/>
<path id="f" d="m34.281 27.484q-10.891 0-15.094-2.4844t-4.2031-8.5q0-4.7812 3.1562-7.5938 3.1562-2.7969 8.5625-2.7969 7.4844 0 12 5.2969t4.5156 14.078v2zm17.922 3.7188v-31.203h-8.9844v8.2969q-3.0781-4.9688-7.6719-7.3438t-11.234-2.375q-8.3906 0-13.359 4.7188-4.9531 4.7188-4.9531 12.625 0 9.2188 6.1719 13.906 6.1875 4.6875 18.438 4.6875h12.609v0.89062q0 6.2031-4.0781 9.5938t-11.453 3.3906q-4.6875 0-9.1406-1.125-4.4375-1.125-8.5312-3.375v8.3125q4.9219 1.9062 9.5625 2.8438 4.6406 0.95312 9.0312 0.95312 11.875 0 17.734-6.1562 5.8594-6.1406 5.8594-18.641z"/>
<path id="j" d="m9.4219 75.984h8.9844v-75.984h-8.9844z"/>
</defs>
<use xlink:href="#e"/>
<use x="44.083984" xlink:href="#l"/>
<use x="105.607422" xlink:href="#g"/>
<use x="144.970703" xlink:href="#i"/>
<use x="242.382812" xlink:href="#k"/>
<use x="270.166016" xlink:href="#h"/>
<use x="333.544922" xlink:href="#f"/>
<use x="394.824219" xlink:href="#j"/>
</g>
</g>
<path d="m892.42 648.57 3.2572-4.3976q1.4285-1.9286-0.50012-3.3571l-6.2217-4.6083q-1.9286-1.4285-3.3571 0.50012l-3.2572 4.3976q-1.4285 1.9286 0.50012 3.3571l6.2217 4.6083q1.9286 1.4285 3.3571-0.50012z" clip-path="url(#a)" fill="#fff" stroke="#fff"/>
<g clip-path="url(#a)">
<g transform="translate(889.15 646.15) rotate(-53.473) scale(.08 -.08)">
<use xlink:href="#m"/>
</g>
</g>
<path d="m926.24 647.2 1.5485-5.9622q0.60331-2.3229-1.7196-2.9262l-7.4939-1.9463q-2.3229-0.60331-2.9262 1.7196l-1.5485 5.9622q-0.60331 2.3229 1.7196 2.9262l7.4939 1.9463q2.3229 0.60331 2.9262-1.7196z" clip-path="url(#a)" fill="#fff" stroke="#fff"/>
<g clip-path="url(#a)">
<g transform="translate(922.3 646.18) rotate(-75.441) scale(.08 -.08)">
<use xlink:href="#ab"/>
</g>
</g>
<path d="m947.46 641.64 1.1875 4.938q0.56115 2.3335 2.8946 1.7723l7.5279-1.8103q2.3335-0.56116 1.7723-2.8946l-1.1875-4.938q-0.56115-2.3335-2.8946-1.7723l-7.5279 1.8103q-2.3335 0.56116-1.7723 2.8946z" clip-path="url(#a)" fill="#fff" stroke="#fff"/>
<g clip-path="url(#a)">
<g transform="translate(951.41 640.69) rotate(76.478) scale(.08 -.08)">
<use xlink:href="#ag"/>
</g>
</g>
<path d="m981.99 644.26 3.3111 4.3572q1.4521 1.9109 3.363 0.45876l6.1645-4.6845q1.9109-1.4521 0.45876-3.363l-3.3111-4.3572q-1.4521-1.9109-3.363-0.45876l-6.1645 4.6845q-1.9109 1.4521-0.45876 3.363z" clip-path="url(#a)" fill="#fff" stroke="#fff"/>
<g clip-path="url(#a)">
<g transform="translate(985.23 641.8) rotate(52.768) scale(.08 -.08)">
<use xlink:href="#m"/>
</g>
</g>
<path d="m1321.4 516.22 4.5095-3.1004q1.9777-1.3597 0.61797-3.3374l-4.3865-6.3801q-1.3597-1.9777-3.3374-0.61797l-4.5095 3.1004q-1.9777 1.3597-0.61797 3.3374l4.3865 6.3801q1.3597 1.9777 3.3374 0.61797z" clip-path="url(#a)" fill="#fff" stroke="#fff"/>
<g clip-path="url(#a)">
<g transform="translate(1319.1 512.87) rotate(-34.51) scale(.08 -.08)">
<use xlink:href="#m"/>
</g>
</g>
<path d="m1383.1 584.36 3.854-13.39q0.66382-2.3064-1.6425-2.9702l-7.6879-2.2127q-2.3064-0.66382-2.9702 1.6425l-3.854 13.39q-0.66382 2.3064 1.6425 2.9702l7.6879 2.2127q2.3064 0.66382 2.9702-1.6425z" clip-path="url(#a)" fill="#fff" stroke="#fff"/>
<g clip-path="url(#a)">
<g transform="translate(1379 583.18) rotate(-73.943) scale(.08 -.08)">
<defs>
<path id="au" d="m21 76.422v-100h-8.2969v100z"/>
</defs>
<use xlink:href="#ab"/>
<use x="77.001953" xlink:href="#au"/>
<use x="110.693359" xlink:href="#ag"/>
</g>
</g>
<path d="m1413.4 573.28 0.10499 5.4715q0.046043 2.3996 2.4456 2.3535l7.7411-0.14854q2.3996-0.046043 2.3535-2.4456l-0.10499-5.4715q-0.046042-2.3996-2.4456-2.3535l-7.7411 0.14854q-2.3996 0.046043-2.3535 2.4456z" clip-path="url(#a)" fill="#fff" stroke="#fff"/>
<g clip-path="url(#a)">
<g transform="translate(1417.5 573.21) rotate(88.901) scale(.08 -.08)">
<use xlink:href="#m"/>
</g>
</g>
<path d="m1455 575.12 1.8638 5.5504q0.76398 2.2752 3.0391 1.5112l7.3398-2.4646q2.2752-0.76398 1.5112-3.0391l-1.8638-5.5504q-0.76398-2.2752-3.0391-1.5112l-7.3397 2.4646q-2.2752 0.76398-1.5112 3.0391z" clip-path="url(#a)" fill="#fff" stroke="#fff"/>
<g clip-path="url(#a)">
<g transform="translate(1458.9 573.83) rotate(71.438) scale(.08 -.08)">
<use xlink:href="#q"/>
</g>
</g>
<path d="m1498.5 576.92 3.2319 4.8822q1.3248 2.0012 3.326 0.67644l6.4561-4.2738q2.0012-1.3248 0.67644-3.326l-3.2319-4.8822q-1.3248-2.0012-3.326-0.67644l-6.4561 4.2738q-2.0012 1.3248-0.67644 3.326z" clip-path="url(#a)" fill="#fff" stroke="#fff"/>
<g clip-path="url(#a)">
<g transform="translate(1501.9 574.68) rotate(56.496) scale(.08 -.08)">
<use xlink:href="#q"/>
</g>
</g>
<path d="m1209.1 647.05 1.5412-5.3408q0.66543-2.3059-1.6405-2.9713l-7.4389-2.1467q-2.3059-0.66543-2.9713 1.6405l-1.5412 5.3408q-0.66543 2.3059 1.6405 2.9713l7.4389 2.1467q2.3059 0.66543 2.9713-1.6405z" clip-path="url(#a)" fill="#fff" stroke="#fff"/>
<g clip-path="url(#a)">
<g transform="translate(1205.2 645.92) rotate(-73.903) scale(.08 -.08)">
<defs>
<path id="ax" d="m44.391 34.188q3.1719-1.0781 6.1719-4.5938t6.0312-9.6719l10.016-19.922h-10.609l-9.3125 18.703q-3.625 7.3281-7.0156 9.7188t-9.25 2.3906h-10.75v-30.812h-9.8594v72.906h22.266q12.5 0 18.656-5.2344 6.1562-5.2188 6.1562-15.766 0-6.8906-3.2031-11.438-3.2031-4.5312-9.2969-6.2812zm-24.719 30.609v-25.875h12.406q7.125 0 10.766 3.2969t3.6406 9.6875-3.6406 9.6406-10.766 3.25z"/>
</defs>
<use xlink:href="#ax"/>
</g>
</g>
<path d="m1235.4 641.7 1.5489 5.3672q0.66543 2.3059 2.9713 1.6405l7.4389-2.1467q2.3059-0.66543 1.6405-2.9713l-1.5489-5.3672q-0.66543-2.3059-2.9713-1.6405l-7.4389 2.1467q-2.3059 0.66543-1.6405 2.9713z" clip-path="url(#a)" fill="#fff" stroke="#fff"/>
<g clip-path="url(#a)">
<g transform="translate(1239.3 640.57) rotate(73.903) scale(.08 -.08)">
<defs>
<path id="ai" d="m64.406 67.281v-10.391q-4.9844 4.6406-10.625 6.9219-5.6406 2.2969-11.984 2.2969-12.5 0-19.141-7.6406t-6.6406-22.094q0-14.406 6.6406-22.047t19.141-7.6406q6.3438 0 11.984 2.2969t10.625 6.9375v-10.312q-5.1719-3.5156-10.969-5.2812-5.7812-1.75-12.219-1.75-16.562 0-26.094 10.125-9.5156 10.141-9.5156 27.672 0 17.578 9.5156 27.703 9.5312 10.141 26.094 10.141 6.5312 0 12.312-1.7344 5.7969-1.7344 10.875-5.2031z"/>
</defs>
<use xlink:href="#ai"/>
</g>
</g>
<path d="m1334.3 757.61v33.808q0 2.4 2.4 2.4h7.7425q2.4 0 2.4-2.4v-33.808q0-2.4-2.4-2.4h-7.7425q-2.4 0-2.4 2.4z" clip-path="url(#a)" fill="#fff" stroke="#fff"/>
<g clip-path="url(#a)">
<g transform="translate(1338.3 757.61) rotate(90) scale(.08 -.08)">
<use xlink:href="#e"/>
<use x="44.083984" xlink:href="#l"/>
<use x="105.607422" xlink:href="#g"/>
<use x="144.970703" xlink:href="#i"/>
<use x="242.382812" xlink:href="#k"/>
<use x="270.166016" xlink:href="#h"/>
<use x="333.544922" xlink:href="#f"/>
<use x="394.824219" xlink:href="#j"/>
</g>
</g>
<path d="m1416 757.61v33.808q0 2.4 2.4 2.4h7.7425q2.4 0 2.4-2.4v-33.808q0-2.4-2.4-2.4h-7.7425q-2.4 0-2.4 2.4z" clip-path="url(#a)" fill="#fff" stroke="#fff"/>
<g clip-path="url(#a)">
<g transform="translate(1420.1 757.61) rotate(90) scale(.08 -.08)">
<use xlink:href="#e"/>
<use x="44.083984" xlink:href="#l"/>
<use x="105.607422" xlink:href="#g"/>
<use x="144.970703" xlink:href="#i"/>
<use x="242.382812" xlink:href="#k"/>
<use x="270.166016" xlink:href="#h"/>
<use x="333.544922" xlink:href="#f"/>
<use x="394.824219" xlink:href="#j"/>
</g>
</g>
<path d="m1178.4 757.61v33.808q0 2.4 2.4 2.4h7.7425q2.4 0 2.4-2.4v-33.808q0-2.4-2.4-2.4h-7.7425q-2.4 0-2.4 2.4z" clip-path="url(#a)" fill="#fff" stroke="#fff"/>
<g clip-path="url(#a)">
<g transform="translate(1182.5 757.61) rotate(90) scale(.08 -.08)">
<use xlink:href="#e"/>
<use x="44.083984" xlink:href="#l"/>
<use x="105.607422" xlink:href="#g"/>
<use x="144.970703" xlink:href="#i"/>
<use x="242.382812" xlink:href="#k"/>
<use x="270.166016" xlink:href="#h"/>
<use x="333.544922" xlink:href="#f"/>
<use x="394.824219" xlink:href="#j"/>
</g>
</g>
<path d="m1255.1 757.61v33.808q0 2.4 2.4 2.4h7.7425q2.4 0 2.4-2.4v-33.808q0-2.4-2.4-2.4h-7.7425q-2.4 0-2.4 2.4z" clip-path="url(#a)" fill="#fff" stroke="#fff"/>
<g clip-path="url(#a)">
<g transform="translate(1259.1 757.61) rotate(90) scale(.08 -.08)">
<use xlink:href="#e"/>
<use x="44.083984" xlink:href="#l"/>
<use x="105.607422" xlink:href="#g"/>
<use x="144.970703" xlink:href="#i"/>
<use x="242.382812" xlink:href="#k"/>
<use x="270.166016" xlink:href="#h"/>
<use x="333.544922" xlink:href="#f"/>
<use x="394.824219" xlink:href="#j"/>
</g>
</g>
<path d="m833.56 757.61v33.808q0 2.4 2.4 2.4h7.7425q2.4 0 2.4-2.4v-33.808q0-2.4-2.4-2.4h-7.7425q-2.4 0-2.4 2.4z" clip-path="url(#a)" fill="#fff" stroke="#fff"/>
<g clip-path="url(#a)">
<g transform="translate(837.62 757.61) rotate(90) scale(.08 -.08)">
<use xlink:href="#e"/>
<use x="44.083984" xlink:href="#l"/>
<use x="105.607422" xlink:href="#g"/>
<use x="144.970703" xlink:href="#i"/>
<use x="242.382812" xlink:href="#k"/>
<use x="270.166016" xlink:href="#h"/>
<use x="333.544922" xlink:href="#f"/>
<use x="394.824219" xlink:href="#j"/>
</g>
</g>
<path d="m897.43 757.61v33.808q0 2.4 2.4 2.4h7.7425q2.4 0 2.4-2.4v-33.808q0-2.4-2.4-2.4h-7.7425q-2.4 0-2.4 2.4z" clip-path="url(#a)" fill="#fff" stroke="#fff"/>
<g clip-path="url(#a)">
<g transform="translate(901.49 757.61) rotate(90) scale(.08 -.08)">
<use xlink:href="#e"/>
<use x="44.083984" xlink:href="#l"/>
<use x="105.607422" xlink:href="#g"/>
<use x="144.970703" xlink:href="#i"/>
<use x="242.382812" xlink:href="#k"/>
<use x="270.166016" xlink:href="#h"/>
<use x="333.544922" xlink:href="#f"/>
<use x="394.824219" xlink:href="#j"/>
</g>
</g>
<path d="m963.85 757.61v33.808q0 2.4 2.4 2.4h7.7425q2.4 0 2.4-2.4v-33.808q0-2.4-2.4-2.4h-7.7425q-2.4 0-2.4 2.4z" clip-path="url(#a)" fill="#fff" stroke="#fff"/>
<g clip-path="url(#a)">
<g transform="translate(967.91 757.61) rotate(90) scale(.08 -.08)">
<use xlink:href="#e"/>
<use x="44.083984" xlink:href="#l"/>
<use x="105.607422" xlink:href="#g"/>
<use x="144.970703" xlink:href="#i"/>
<use x="242.382812" xlink:href="#k"/>
<use x="270.166016" xlink:href="#h"/>
<use x="333.544922" xlink:href="#f"/>
<use x="394.824219" xlink:href="#j"/>
</g>
</g>
<path d="m1032.8 757.61v33.808q0 2.4 2.4 2.4h7.7425q2.4 0 2.4-2.4v-33.808q0-2.4-2.4-2.4h-7.7425q-2.4 0-2.4 2.4z" clip-path="url(#a)" fill="#fff" stroke="#fff"/>
<g clip-path="url(#a)">
<g transform="translate(1036.9 757.61) rotate(90) scale(.08 -.08)">
<use xlink:href="#e"/>
<use x="44.083984" xlink:href="#l"/>
<use x="105.607422" xlink:href="#g"/>
<use x="144.970703" xlink:href="#i"/>
<use x="242.382812" xlink:href="#k"/>
<use x="270.166016" xlink:href="#h"/>
<use x="333.544922" xlink:href="#f"/>
<use x="394.824219" xlink:href="#j"/>
</g>
</g>
<path d="m414.6 757.61v33.808q0 2.4 2.4 2.4h7.7425q2.4 0 2.4-2.4v-33.808q0-2.4-2.4-2.4h-7.7425q-2.4 0-2.4 2.4z" clip-path="url(#a)" fill="#fff" stroke="#fff"/>
<g clip-path="url(#a)">
<g transform="translate(418.67 757.61) rotate(90) scale(.08 -.08)">
<use xlink:href="#e"/>
<use x="44.083984" xlink:href="#l"/>
<use x="105.607422" xlink:href="#g"/>
<use x="144.970703" xlink:href="#i"/>
<use x="242.382812" xlink:href="#k"/>
<use x="270.166016" xlink:href="#h"/>
<use x="333.544922" xlink:href="#f"/>
<use x="394.824219" xlink:href="#j"/>
</g>
</g>
<path d="m504.01 757.61v33.808q0 2.4 2.4 2.4h7.7425q2.4 0 2.4-2.4v-33.808q0-2.4-2.4-2.4h-7.7425q-2.4 0-2.4 2.4z" clip-path="url(#a)" fill="#fff" stroke="#fff"/>
<g clip-path="url(#a)">
<g transform="translate(508.08 757.61) rotate(90) scale(.08 -.08)">
<use xlink:href="#e"/>
<use x="44.083984" xlink:href="#l"/>
<use x="105.607422" xlink:href="#g"/>
<use x="144.970703" xlink:href="#i"/>
<use x="242.382812" xlink:href="#k"/>
<use x="270.166016" xlink:href="#h"/>
<use x="333.544922" xlink:href="#f"/>
<use x="394.824219" xlink:href="#j"/>
</g>
</g>
<path d="m552.55 757.61v33.808q0 2.4 2.4 2.4h7.7425q2.4 0 2.4-2.4v-33.808q0-2.4-2.4-2.4h-7.7425q-2.4 0-2.4 2.4z" clip-path="url(#a)" fill="#fff" stroke="#fff"/>
<g clip-path="url(#a)">
<g transform="translate(556.62 757.61) rotate(90) scale(.08 -.08)">
<use xlink:href="#e"/>
<use x="44.083984" xlink:href="#l"/>
<use x="105.607422" xlink:href="#g"/>
<use x="144.970703" xlink:href="#i"/>
<use x="242.382812" xlink:href="#k"/>
<use x="270.166016" xlink:href="#h"/>
<use x="333.544922" xlink:href="#f"/>
<use x="394.824219" xlink:href="#j"/>
</g>
</g>
<path d="m603.64 757.61v33.808q0 2.4 2.4 2.4h7.7425q2.4 0 2.4-2.4v-33.808q0-2.4-2.4-2.4h-7.7425q-2.4 0-2.4 2.4z" clip-path="url(#a)" fill="#fff" stroke="#fff"/>
<g clip-path="url(#a)">
<g transform="translate(607.71 757.61) rotate(90) scale(.08 -.08)">
<use xlink:href="#e"/>
<use x="44.083984" xlink:href="#l"/>
<use x="105.607422" xlink:href="#g"/>
<use x="144.970703" xlink:href="#i"/>
<use x="242.382812" xlink:href="#k"/>
<use x="270.166016" xlink:href="#h"/>
<use x="333.544922" xlink:href="#f"/>
<use x="394.824219" xlink:href="#j"/>
</g>
</g>
<path d="m657.29 757.61v33.808q0 2.4 2.4 2.4h7.7425q2.4 0 2.4-2.4v-33.808q0-2.4-2.4-2.4h-7.7425q-2.4 0-2.4 2.4z" clip-path="url(#a)" fill="#fff" stroke="#fff"/>
<g clip-path="url(#a)">
<g transform="translate(661.36 757.61) rotate(90) scale(.08 -.08)">
<use xlink:href="#e"/>
<use x="44.083984" xlink:href="#l"/>
<use x="105.607422" xlink:href="#g"/>
<use x="144.970703" xlink:href="#i"/>
<use x="242.382812" xlink:href="#k"/>
<use x="270.166016" xlink:href="#h"/>
<use x="333.544922" xlink:href="#f"/>
<use x="394.824219" xlink:href="#j"/>
</g>
</g>
<path d="m246.91 641.58 0.9987 4.7192q0.49689 2.348 2.8449 1.8511l7.5747-1.603q2.348-0.49689 1.8511-2.8449l-0.9987-4.7192q-0.49689-2.348-2.8449-1.8511l-7.5747 1.603q-2.348 0.49689-1.8511 2.8449z" clip-path="url(#a)" fill="#fff" stroke="#fff"/>
<g clip-path="url(#a)">
<g transform="translate(250.89 640.74) rotate(78.051) scale(.08 -.08)">
<use xlink:href="#x"/>
</g>
</g>
<path d="m263.31 642.79 2.294 4.9685q1.0061 2.179 3.185 1.1729l7.0294-3.2456q2.179-1.0061 1.1729-3.185l-2.294-4.9685q-1.0061-2.179-3.185-1.1729l-7.0294 3.2456q-2.179 1.0061-1.1729 3.185z" clip-path="url(#a)" fill="#fff" stroke="#fff"/>
<g clip-path="url(#a)">
<g transform="translate(267 641.08) rotate(65.216) scale(.08 -.08)">
<use xlink:href="#m"/>
</g>
</g>
<path d="m216.1 647.6 2.133-5.0397q0.93545-2.2102-1.2747-3.1456l-7.1302-3.0178q-2.2102-0.93545-3.1456 1.2747l-2.133 5.0397q-0.93545 2.2102 1.2747 3.1456l7.1302 3.0178q2.2102 0.93545 3.1456-1.2747z" clip-path="url(#a)" fill="#fff" stroke="#fff"/>
<g clip-path="url(#a)">
<g transform="translate(212.36 646.02) rotate(-67.06) scale(.08 -.08)">
<use xlink:href="#m"/>
</g>
</g>
<path d="m229.62 646.9 1.317-5.7049q0.53987-2.3385-1.7986-2.8784l-7.5441-1.7416q-2.3385-0.53987-2.8784 1.7986l-1.317 5.7049q-0.53987 2.3385 1.7986 2.8784l7.5441 1.7416q2.3385 0.53987 2.8784-1.7986z" clip-path="url(#a)" fill="#fff" stroke="#fff"/>
<g clip-path="url(#a)">
<g transform="translate(225.66 645.99) rotate(-77) scale(.08 -.08)">
<use xlink:href="#q"/>
</g>
</g>
<path d="m244.43 645.69 0.11262-5.8539q0.046164-2.3996-2.3534-2.4457l-7.7411-0.14893q-2.3996-0.046164-2.4457 2.3534l-0.11262 5.8539q-0.046164 2.3996 2.3534 2.4457l7.7411 0.14893q2.3996 0.046164 2.4457-2.3534z" clip-path="url(#a)" fill="#fff" stroke="#fff"/>
<g clip-path="url(#a)">
<g transform="translate(240.37 645.61) rotate(-88.898) scale(.08 -.08)">
<use xlink:href="#q"/>
</g>
</g>
<path d="m261.33 757.61v33.808q0 2.4 2.4 2.4h7.7425q2.4 0 2.4-2.4v-33.808q0-2.4-2.4-2.4h-7.7425q-2.4 0-2.4 2.4z" clip-path="url(#a)" fill="#fff" stroke="#fff"/>
<g clip-path="url(#a)">
<g transform="translate(265.39 757.61) rotate(90) scale(.08 -.08)">
<use xlink:href="#e"/>
<use x="44.083984" xlink:href="#l"/>
<use x="105.607422" xlink:href="#g"/>
<use x="144.970703" xlink:href="#i"/>
<use x="242.382812" xlink:href="#k"/>
<use x="270.166016" xlink:href="#h"/>
<use x="333.544922" xlink:href="#f"/>
<use x="394.824219" xlink:href="#j"/>
</g>
</g>
<path d="m294.54 757.61v33.808q0 2.4 2.4 2.4h7.7425q2.4 0 2.4-2.4v-33.808q0-2.4-2.4-2.4h-7.7425q-2.4 0-2.4 2.4z" clip-path="url(#a)" fill="#fff" stroke="#fff"/>
<g clip-path="url(#a)">
<g transform="translate(298.6 757.61) rotate(90) scale(.08 -.08)">
<use xlink:href="#e"/>
<use x="44.083984" xlink:href="#l"/>
<use x="105.607422" xlink:href="#g"/>
<use x="144.970703" xlink:href="#i"/>
<use x="242.382812" xlink:href="#k"/>
<use x="270.166016" xlink:href="#h"/>
<use x="333.544922" xlink:href="#f"/>
<use x="394.824219" xlink:href="#j"/>
</g>
</g>
<path d="m100.38 757.61v33.808q0 2.4 2.4 2.4h7.7425q2.4 0 2.4-2.4v-33.808q0-2.4-2.4-2.4h-7.7425q-2.4 0-2.4 2.4z" clip-path="url(#a)" fill="#fff" stroke="#fff"/>
<g clip-path="url(#a)">
<g transform="translate(104.45 757.61) rotate(90) scale(.08 -.08)">
<use xlink:href="#e"/>
<use x="44.083984" xlink:href="#l"/>
<use x="105.607422" xlink:href="#g"/>
<use x="144.970703" xlink:href="#i"/>
<use x="242.382812" xlink:href="#k"/>
<use x="270.166016" xlink:href="#h"/>
<use x="333.544922" xlink:href="#f"/>
<use x="394.824219" xlink:href="#j"/>
</g>
</g>
<path d="m115.71 757.61v33.808q0 2.4 2.4 2.4h7.7425q2.4 0 2.4-2.4v-33.808q0-2.4-2.4-2.4h-7.7425q-2.4 0-2.4 2.4z" clip-path="url(#a)" fill="#fff" stroke="#fff"/>
<g clip-path="url(#a)">
<g transform="translate(119.78 757.61) rotate(90) scale(.08 -.08)">
<use xlink:href="#e"/>
<use x="44.083984" xlink:href="#l"/>
<use x="105.607422" xlink:href="#g"/>
<use x="144.970703" xlink:href="#i"/>
<use x="242.382812" xlink:href="#k"/>
<use x="270.166016" xlink:href="#h"/>
<use x="333.544922" xlink:href="#f"/>
<use x="394.824219" xlink:href="#j"/>
</g>
</g>
<path d="m86.341 645.77 0.35022-5.4613q0.15359-2.3951-2.2415-2.5487l-7.7266-0.49549q-2.3951-0.15359-2.5487 2.2415l-0.35022 5.4613q-0.15359 2.3951 2.2415 2.5487l7.7266 0.49549q2.3951 0.15359 2.5487-2.2415z" clip-path="url(#a)" fill="#fff" stroke="#fff"/>
<g clip-path="url(#a)">
<g transform="translate(82.286 645.51) rotate(-86.331) scale(.08 -.08)">
<use xlink:href="#m"/>
</g>
</g>
<path d="m90.445 649.65 0.089353-13.933q0.01539-2.4-2.3846-2.4153l-7.9998-0.051301q-2.4-0.01539-2.4153 2.3846l-0.089353 13.933q-0.01539 2.4 2.3846 2.4153l7.9998 0.051301q2.4 0.015391 2.4153-2.3846z" clip-path="url(#a)" fill="#fff" stroke="#fff"/>
<g clip-path="url(#a)">
<g transform="translate(86.159 649.62) rotate(-89.633) scale(.08 -.08)">
<use xlink:href="#ab"/>
<use x="77.001953" xlink:href="#au"/>
<use x="110.693359" xlink:href="#ag"/>
</g>
</g>
<path d="m82.751 640.35 0.38508 5.4589q0.16888 2.3941 2.5629 2.2252l7.7233-0.54481q2.3941-0.16888 2.2252-2.5629l-0.38508-5.4589q-0.16888-2.3941-2.5629-2.2252l-7.7233 0.54481q-2.3941 0.16888-2.2252 2.5629z" clip-path="url(#a)" fill="#fff" stroke="#fff"/>
<g clip-path="url(#a)">
<g transform="translate(86.804 640.07) rotate(85.965) scale(.08 -.08)">
<use xlink:href="#m"/>
</g>
</g>
<path d="m133.59 757.61v33.808q0 2.4 2.4 2.4h7.7425q2.4 0 2.4-2.4v-33.808q0-2.4-2.4-2.4h-7.7425q-2.4 0-2.4 2.4z" clip-path="url(#a)" fill="#fff" stroke="#fff"/>
<g clip-path="url(#a)">
<g transform="translate(137.66 757.61) rotate(90) scale(.08 -.08)">
<use xlink:href="#e"/>
<use x="44.083984" xlink:href="#l"/>
<use x="105.607422" xlink:href="#g"/>
<use x="144.970703" xlink:href="#i"/>
<use x="242.382812" xlink:href="#k"/>
<use x="270.166016" xlink:href="#h"/>
<use x="333.544922" xlink:href="#f"/>
<use x="394.824219" xlink:href="#j"/>
</g>
</g>
<path d="m154.03 757.61v33.808q0 2.4 2.4 2.4h7.7425q2.4 0 2.4-2.4v-33.808q0-2.4-2.4-2.4h-7.7425q-2.4 0-2.4 2.4z" clip-path="url(#a)" fill="#fff" stroke="#fff"/>
<g clip-path="url(#a)">
<g transform="translate(158.1 757.61) rotate(90) scale(.08 -.08)">
<use xlink:href="#e"/>
<use x="44.083984" xlink:href="#l"/>
<use x="105.607422" xlink:href="#g"/>
<use x="144.970703" xlink:href="#i"/>
<use x="242.382812" xlink:href="#k"/>
<use x="270.166016" xlink:href="#h"/>
<use x="333.544922" xlink:href="#f"/>
<use x="394.824219" xlink:href="#j"/>
</g>
</g>
<path d="m177.02 757.61v33.808q0 2.4 2.4 2.4h7.7425q2.4 0 2.4-2.4v-33.808q0-2.4-2.4-2.4h-7.7425q-2.4 0-2.4 2.4z" clip-path="url(#a)" fill="#fff" stroke="#fff"/>
<g clip-path="url(#a)">
<g transform="translate(181.09 757.61) rotate(90) scale(.08 -.08)">
<use xlink:href="#e"/>
<use x="44.083984" xlink:href="#l"/>
<use x="105.607422" xlink:href="#g"/>
<use x="144.970703" xlink:href="#i"/>
<use x="242.382812" xlink:href="#k"/>
<use x="270.166016" xlink:href="#h"/>
<use x="333.544922" xlink:href="#f"/>
<use x="394.824219" xlink:href="#j"/>
</g>
</g>
<path d="m202.57 757.61v33.808q0 2.4 2.4 2.4h7.7425q2.4 0 2.4-2.4v-33.808q0-2.4-2.4-2.4h-7.7425q-2.4 0-2.4 2.4z" clip-path="url(#a)" fill="#fff" stroke="#fff"/>
<g clip-path="url(#a)">
<g transform="translate(206.63 757.61) rotate(90) scale(.08 -.08)">
<use xlink:href="#e"/>
<use x="44.083984" xlink:href="#l"/>
<use x="105.607422" xlink:href="#g"/>
<use x="144.970703" xlink:href="#i"/>
<use x="242.382812" xlink:href="#k"/>
<use x="270.166016" xlink:href="#h"/>
<use x="333.544922" xlink:href="#f"/>
<use x="394.824219" xlink:href="#j"/>
</g>
</g>
<path d="m230.67 757.61v33.808q0 2.4 2.4 2.4h7.7425q2.4 0 2.4-2.4v-33.808q0-2.4-2.4-2.4h-7.7425q-2.4 0-2.4 2.4z" clip-path="url(#a)" fill="#fff" stroke="#fff"/>
<g clip-path="url(#a)">
<g transform="translate(234.73 757.61) rotate(90) scale(.08 -.08)">
<use xlink:href="#e"/>
<use x="44.083984" xlink:href="#l"/>
<use x="105.607422" xlink:href="#g"/>
<use x="144.970703" xlink:href="#i"/>
<use x="242.382812" xlink:href="#k"/>
<use x="270.166016" xlink:href="#h"/>
<use x="333.544922" xlink:href="#f"/>
<use x="394.824219" xlink:href="#j"/>
</g>
</g>
<path d="m69.729 757.61v33.808q0 2.4 2.4 2.4h7.7425q2.4 0 2.4-2.4v-33.808q0-2.4-2.4-2.4h-7.7425q-2.4 0-2.4 2.4z" clip-path="url(#a)" fill="#fff" stroke="#fff"/>
<g clip-path="url(#a)">
<g transform="translate(73.792 757.61) rotate(90) scale(.08 -.08)">
<use xlink:href="#e"/>
<use x="44.083984" xlink:href="#l"/>
<use x="105.607422" xlink:href="#g"/>
<use x="144.970703" xlink:href="#i"/>
<use x="242.382812" xlink:href="#k"/>
<use x="270.166016" xlink:href="#h"/>
<use x="333.544922" xlink:href="#f"/>
<use x="394.824219" xlink:href="#j"/>
</g>
</g>
<path d="m77.393 757.61v33.808q0 2.4 2.4 2.4h7.7425q2.4 0 2.4-2.4v-33.808q0-2.4-2.4-2.4h-7.7425q-2.4 0-2.4 2.4z" clip-path="url(#a)" fill="#fff" stroke="#fff"/>
<g clip-path="url(#a)">
<g transform="translate(81.456 757.61) rotate(90) scale(.08 -.08)">
<use xlink:href="#e"/>
<use x="44.083984" xlink:href="#l"/>
<use x="105.607422" xlink:href="#g"/>
<use x="144.970703" xlink:href="#i"/>
<use x="242.382812" xlink:href="#k"/>
<use x="270.166016" xlink:href="#h"/>
<use x="333.544922" xlink:href="#f"/>
<use x="394.824219" xlink:href="#j"/>
</g>
</g>
<path d="m87.611 757.61v33.808q0 2.4 2.4 2.4h7.7425q2.4 0 2.4-2.4v-33.808q0-2.4-2.4-2.4h-7.7425q-2.4 0-2.4 2.4z" clip-path="url(#a)" fill="#fff" stroke="#fff"/>
<g clip-path="url(#a)">
<g transform="translate(91.675 757.61) rotate(90) scale(.08 -.08)">
<use xlink:href="#e"/>
<use x="44.083984" xlink:href="#l"/>
<use x="105.607422" xlink:href="#g"/>
<use x="144.970703" xlink:href="#i"/>
<use x="242.382812" xlink:href="#k"/>
<use x="270.166016" xlink:href="#h"/>
<use x="333.544922" xlink:href="#f"/>
<use x="394.824219" xlink:href="#j"/>
</g>
</g>
<path d="m335.41 757.61v33.808q0 2.4 2.4 2.4h7.7425q2.4 0 2.4-2.4v-33.808q0-2.4-2.4-2.4h-7.7425q-2.4 0-2.4 2.4z" clip-path="url(#a)" fill="#fff" stroke="#fff"/>
<g clip-path="url(#a)">
<g transform="translate(339.47 757.61) rotate(90) scale(.08 -.08)">
<use xlink:href="#e"/>
<use x="44.083984" xlink:href="#l"/>
<use x="105.607422" xlink:href="#g"/>
<use x="144.970703" xlink:href="#i"/>
<use x="242.382812" xlink:href="#k"/>
<use x="270.166016" xlink:href="#h"/>
<use x="333.544922" xlink:href="#f"/>
<use x="394.824219" xlink:href="#j"/>
</g>
</g>
<path d="m373.73 757.61v33.808q0 2.4 2.4 2.4h7.7425q2.4 0 2.4-2.4v-33.808q0-2.4-2.4-2.4h-7.7425q-2.4 0-2.4 2.4z" clip-path="url(#a)" fill="#fff" stroke="#fff"/>
<g clip-path="url(#a)">
<g transform="translate(377.79 757.61) rotate(90) scale(.08 -.08)">
<use xlink:href="#e"/>
<use x="44.083984" xlink:href="#l"/>
<use x="105.607422" xlink:href="#g"/>
<use x="144.970703" xlink:href="#i"/>
<use x="242.382812" xlink:href="#k"/>
<use x="270.166016" xlink:href="#h"/>
<use x="333.544922" xlink:href="#f"/>
<use x="394.824219" xlink:href="#j"/>
</g>
</g>
<path d="m458.03 757.61v33.808q0 2.4 2.4 2.4h7.7425q2.4 0 2.4-2.4v-33.808q0-2.4-2.4-2.4h-7.7425q-2.4 0-2.4 2.4z" clip-path="url(#a)" fill="#fff" stroke="#fff"/>
<g clip-path="url(#a)">
<g transform="translate(462.1 757.61) rotate(90) scale(.08 -.08)">
<use xlink:href="#e"/>
<use x="44.083984" xlink:href="#l"/>
<use x="105.607422" xlink:href="#g"/>
<use x="144.970703" xlink:href="#i"/>
<use x="242.382812" xlink:href="#k"/>
<use x="270.166016" xlink:href="#h"/>
<use x="333.544922" xlink:href="#f"/>
<use x="394.824219" xlink:href="#j"/>
</g>
</g>
<path d="m713.49 757.61v33.808q0 2.4 2.4 2.4h7.7425q2.4 0 2.4-2.4v-33.808q0-2.4-2.4-2.4h-7.7425q-2.4 0-2.4 2.4z" clip-path="url(#a)" fill="#fff" stroke="#fff"/>
<g clip-path="url(#a)">
<g transform="translate(717.56 757.61) rotate(90) scale(.08 -.08)">
<use xlink:href="#e"/>
<use x="44.083984" xlink:href="#l"/>
<use x="105.607422" xlink:href="#g"/>
<use x="144.970703" xlink:href="#i"/>
<use x="242.382812" xlink:href="#k"/>
<use x="270.166016" xlink:href="#h"/>
<use x="333.544922" xlink:href="#f"/>
<use x="394.824219" xlink:href="#j"/>
</g>
</g>
<path d="m1104.4 757.61v33.808q0 2.4 2.4 2.4h7.7425q2.4 0 2.4-2.4v-33.808q0-2.4-2.4-2.4h-7.7425q-2.4 0-2.4 2.4z" clip-path="url(#a)" fill="#fff" stroke="#fff"/>
<g clip-path="url(#a)">
<g transform="translate(1108.4 757.61) rotate(90) scale(.08 -.08)">
<use xlink:href="#e"/>
<use x="44.083984" xlink:href="#l"/>
<use x="105.607422" xlink:href="#g"/>
<use x="144.970703" xlink:href="#i"/>
<use x="242.382812" xlink:href="#k"/>
<use x="270.166016" xlink:href="#h"/>
<use x="333.544922" xlink:href="#f"/>
<use x="394.824219" xlink:href="#j"/>
</g>
</g>
<path d="m1500.3 757.61v33.808q0 2.4 2.4 2.4h7.7425q2.4 0 2.4-2.4v-33.808q0-2.4-2.4-2.4h-7.7425q-2.4 0-2.4 2.4z" clip-path="url(#a)" fill="#fff" stroke="#fff"/>
<g clip-path="url(#a)">
<g transform="translate(1504.4 757.61) rotate(90) scale(.08 -.08)">
<use xlink:href="#e"/>
<use x="44.083984" xlink:href="#l"/>
<use x="105.607422" xlink:href="#g"/>
<use x="144.970703" xlink:href="#i"/>
<use x="242.382812" xlink:href="#k"/>
<use x="270.166016" xlink:href="#h"/>
<use x="333.544922" xlink:href="#f"/>
<use x="394.824219" xlink:href="#j"/>
</g>
</g>
<path d="m1587.2 757.61v33.808q0 2.4 2.4 2.4h7.7425q2.4 0 2.4-2.4v-33.808q0-2.4-2.4-2.4h-7.7425q-2.4 0-2.4 2.4z" clip-path="url(#a)" fill="#fff" stroke="#fff"/>
<g clip-path="url(#a)">
<g transform="translate(1591.2 757.61) rotate(90) scale(.08 -.08)">
<use xlink:href="#e"/>
<use x="44.083984" xlink:href="#l"/>
<use x="105.607422" xlink:href="#g"/>
<use x="144.970703" xlink:href="#i"/>
<use x="242.382812" xlink:href="#k"/>
<use x="270.166016" xlink:href="#h"/>
<use x="333.544922" xlink:href="#f"/>
<use x="394.824219" xlink:href="#j"/>
</g>
</g>
<defs>
<path id="b" d="m0 8.6603c2.2967 0 4.4997-0.9125 6.1237-2.5365 1.624-1.624 2.5365-3.827 2.5365-6.1237s-0.9125-4.4997-2.5365-6.1237c-1.624-1.624-3.827-2.5365-6.1237-2.5365s-4.4997 0.9125-6.1237 2.5365c-1.624 1.624-2.5365 3.827-2.5365 6.1237s0.9125 4.4997 2.5365 6.1237c1.624 1.624 3.827 2.5365 6.1237 2.5365z"/>
</defs>
<g clip-path="url(#a)" fill="#ffffff" stroke="#ffffff">
<use x="76" y="840" xlink:href="#b"/>
<use x="83.663866" y="840" xlink:href="#b"/>
<use x="93.882353" y="840" xlink:href="#b"/>
<use x="106.655462" y="840" xlink:href="#b"/>
<use x="121.983193" y="840" xlink:href="#b"/>
<use x="139.865546" y="840" xlink:href="#b"/>
<use x="160.302521" y="840" xlink:href="#b"/>
<use x="183.294118" y="840" xlink:href="#b"/>
<use x="208.840336" y="840" xlink:href="#b"/>
<use x="236.941176" y="840" xlink:href="#b"/>
<use x="267.596639" y="840" xlink:href="#b"/>
<use x="300.806723" y="840" xlink:href="#b"/>
<use x="341.680672" y="840" xlink:href="#b"/>
<use x="380" y="840" xlink:href="#b"/>
<use x="420.87395" y="840" xlink:href="#b"/>
<use x="464.302521" y="840" xlink:href="#b"/>
<use x="510.285714" y="840" xlink:href="#b"/>
<use x="558.823529" y="840" xlink:href="#b"/>
<use x="609.915966" y="840" xlink:href="#b"/>
<use x="663.563025" y="840" xlink:href="#b"/>
<use x="719.764706" y="840" xlink:href="#b"/>
<use x="778.521008" y="840" xlink:href="#b"/>
<use x="839.831933" y="840" xlink:href="#b"/>
<use x="903.697479" y="840" xlink:href="#b"/>
<use x="970.117647" y="840" xlink:href="#b"/>
<use x="1039.092437" y="840" xlink:href="#b"/>
<use x="1110.621849" y="840" xlink:href="#b"/>
<use x="1184.705882" y="840" xlink:href="#b"/>
<use x="1261.344538" y="840" xlink:href="#b"/>
<use x="1340.537815" y="840" xlink:href="#b"/>
<use x="1422.285714" y="840" xlink:href="#b"/>
<use x="1506.588235" y="840" xlink:href="#b"/>
<use x="1593.445378" y="840" xlink:href="#b"/>
<use x="1596" y="308.824769" xlink:href="#b"/>
<use x="305.915966" y="576.246932" xlink:href="#b"/>
<use x="305.915966" y="576.246932" xlink:href="#b"/>
<use x="328.822409" y="40" xlink:href="#b"/>
<use x="132.769374" y="442.763002" xlink:href="#b"/>
<use x="239.495798" y="442.763002" xlink:href="#b"/>
<use x="550.1662" y="174.547703" xlink:href="#b"/>
<use x="917.038282" y="308.824769" xlink:href="#b"/>
<use x="537.960784" y="576.246932" xlink:href="#b"/>
<use x="778.521008" y="709.034404" xlink:href="#b"/>
<use x="938.184874" y="576.246932" xlink:href="#b"/>
<use x="1417.176471" y="442.763002" xlink:href="#b"/>
<use x="1223.02521" y="576.246932" xlink:href="#b"/>
<use x="1340.537815" y="709.034404" xlink:href="#b"/>
<use x="1422.285714" y="709.034404" xlink:href="#b"/>
<use x="1184.705882" y="709.034404" xlink:href="#b"/>
<use x="1261.344538" y="709.034404" xlink:href="#b"/>
<use x="839.831933" y="709.034404" xlink:href="#b"/>
<use x="903.697479" y="709.034404" xlink:href="#b"/>
<use x="970.117647" y="709.034404" xlink:href="#b"/>
<use x="1039.092437" y="709.034404" xlink:href="#b"/>
<use x="420.87395" y="709.034404" xlink:href="#b"/>
<use x="510.285714" y="709.034404" xlink:href="#b"/>
<use x="558.823529" y="709.034404" xlink:href="#b"/>
<use x="609.915966" y="709.034404" xlink:href="#b"/>
<use x="663.563025" y="709.034404" xlink:href="#b"/>
<use x="239.495798" y="576.246932" xlink:href="#b"/>
<use x="267.596639" y="709.034404" xlink:href="#b"/>
<use x="300.806723" y="709.034404" xlink:href="#b"/>
<use x="106.655462" y="709.034404" xlink:href="#b"/>
<use x="121.983193" y="709.034404" xlink:href="#b"/>
<use x="84.515406" y="576.246932" xlink:href="#b"/>
<use x="139.865546" y="709.034404" xlink:href="#b"/>
<use x="160.302521" y="709.034404" xlink:href="#b"/>
<use x="183.294118" y="709.034404" xlink:href="#b"/>
<use x="208.840336" y="709.034404" xlink:href="#b"/>
<use x="236.941176" y="709.034404" xlink:href="#b"/>
<use x="76" y="709.034404" xlink:href="#b"/>
<use x="83.663866" y="709.034404" xlink:href="#b"/>
<use x="93.882353" y="709.034404" xlink:href="#b"/>
<use x="341.680672" y="709.034404" xlink:href="#b"/>
<use x="380" y="709.034404" xlink:href="#b"/>
<use x="464.302521" y="709.034404" xlink:href="#b"/>
<use x="719.764706" y="709.034404" xlink:href="#b"/>
<use x="1110.621849" y="709.034404" xlink:href="#b"/>
<use x="1506.588235" y="709.034404" xlink:href="#b"/>
<use x="1593.445378" y="709.034404" xlink:href="#b"/>
</g>
<g clip-path="url(#a)">
<g transform="translate(72.526 842.76) scale(.1 -.1)">
<defs>
<path id="bk" d="m20.062 51.906q0-6.3906 3.6406-9.6875t10.766-3.2969h15.344v25.875h-15.344q-7.125 0-10.766-3.25t-3.6406-9.6406zm-13.422-51.906 19.922 31.891q-4.875 1.2656-11.125 5.3906t-6.25 14.625q0 10.062 6.3438 15.531t18.938 5.4688h25.203v-72.906h-9.8594v30.812h-13.188l-19.234-30.812z"/>
</defs>
<use xlink:href="#bk"/>
</g>
</g>
<g clip-path="url(#a)">
<g transform="translate(77.319 842.76) scale(.1 -.1)">
<defs>
<path id="t" d="m9.0781 54.688h9.0312v-22.312h29.156v22.312h9.0312v-54.688h-9.0312v25.203h-29.156v-25.203h-9.0312z"/>
<path id="u" d="m56.203 29.594v-4.3906h-41.312q0.59375-9.2812 5.5938-14.141t13.938-4.8594q5.1719 0 10.031 1.2656t9.6562 3.8125v-8.5q-4.8438-2.0469-9.9219-3.125t-10.297-1.0781q-13.094 0-20.734 7.6094-7.6406 7.625-7.6406 20.625 0 13.422 7.25 21.297 7.25 7.8906 19.562 7.8906 11.031 0 17.453-7.1094 6.4219-7.0938 6.4219-19.297zm-8.9844 2.6406q-0.09375 7.3594-4.125 11.75-4.0312 4.4062-10.672 4.4062-7.5156 0-12.031-4.25t-5.2031-11.969z"/>
</defs>
<use xlink:href="#t"/>
<use x="65.380859" xlink:href="#u"/>
</g>
</g>
<g clip-path="url(#a)">
<g transform="translate(78.721 842.76) scale(.1 -.1)">
<defs>
<path id="r" d="m2.9375 54.688h52.391v-7.1719h-21.781v-47.516h-8.8438v47.516h-21.766z"/>
<path id="ad" d="m18.109 8.2031v-29h-9.0312v75.484h9.0312v-8.2969q2.8438 4.875 7.1562 7.2344 4.3281 2.375 10.328 2.375 9.9688 0 16.188-7.9062 6.2344-7.9062 6.2344-20.797t-6.2344-20.812q-6.2188-7.9062-16.188-7.9062-6 0-10.328 2.375-4.3125 2.375-7.1562 7.25zm30.578 19.094q0 9.9062-4.0781 15.547t-11.203 5.6406q-7.1406 0-11.219-5.6406t-4.0781-15.547 4.0781-15.547 11.219-5.6406q7.125 0 11.203 5.6406t4.0781 15.547z"/>
<path id="aa" d="m34.281 27.484q-10.891 0-15.094-2.4844t-4.2031-8.5q0-4.7812 3.1562-7.5938 3.1562-2.7969 8.5625-2.7969 7.4844 0 12 5.2969t4.5156 14.078v2zm17.922 3.7188v-31.203h-8.9844v8.2969q-3.0781-4.9688-7.6719-7.3438t-11.234-2.375q-8.3906 0-13.359 4.7188-4.9531 4.7188-4.9531 12.625 0 9.2188 6.1719 13.906 6.1875 4.6875 18.438 4.6875h12.609v0.89062q0 6.2031-4.0781 9.5938t-11.453 3.3906q-4.6875 0-9.1406-1.125-4.4375-1.125-8.5312-3.375v8.3125q4.9219 1.9062 9.5625 2.8438 4.6406 0.95312 9.0312 0.95312 11.875 0 17.734-6.1562 5.8594-6.1406 5.8594-18.641z"/>
<path id="af" d="m18.062 25.203v-18.031h12.797q6.1562 0 9.375 2.3125 3.2188 2.3281 3.2188 6.7344 0 4.3906-3.2188 6.6875t-9.375 2.2969zm0 22.312v-15.141h11.828q5.0781 0 8.2969 2.0156 3.2188 2.0312 3.2188 5.6562 0 3.6094-3.2188 5.5312-3.2188 1.9375-8.2969 1.9375zm-8.9844 7.1719h21.391q9.625 0 14.797-3.5156t5.1719-10.016q0-5.0156-2.6406-7.9844-2.625-2.9531-7.8125-3.6719 6.2031-1.1719 9.625-4.8906 3.4219-3.7031 3.4219-9.2812 0-7.3125-5.6406-11.328-5.6406-4-16.094-4h-22.219z"/>
</defs>
<use xlink:href="#r"/>
<use x="58.251953" xlink:href="#ad"/>
<use x="121.728516" xlink:href="#aa"/>
<use x="183.007812" xlink:href="#af"/>
<use x="241.943359" xlink:href="#aa"/>
</g>
</g>
<g clip-path="url(#a)">
<g transform="translate(105.07 842.76) scale(.1 -.1)">
<defs>
<path id="aq" d="m11.719 12.406h10.297v-8.4062l-8-15.625h-6.2969l4 15.625z"/>
</defs>
<use xlink:href="#aq"/>
</g>
</g>
<g clip-path="url(#a)">
<g transform="translate(120.18 842.76) scale(.1 -.1)">
<defs>
<path id="ap" d="m4.8906 31.391h26.312v-8h-26.312z"/>
</defs>
<use xlink:href="#ap"/>
</g>
</g>
<g clip-path="url(#a)">
<g transform="translate(127.69 842.76) scale(.1 -.1)">
<defs>
<path id="ae" d="m55.906 54.688v-54.688h-8.9375v43.891l-26.359-43.891h-11.531v54.688h8.9375v-43.797l26.328 43.797z"/>
<path id="be" d="m54.891 54.688-19.781-26.609 20.797-28.078h-10.594l-15.922 21.484-15.906-21.484h-10.609l21.25 28.609-19.438 26.078h10.594l14.5-19.484 14.5 19.484z"/>
<path id="w" d="m30.609 48.391q-7.2188 0-11.422-5.6406t-4.2031-15.453 4.1719-15.453q4.1875-5.6406 11.453-5.6406 7.1875 0 11.375 5.6562 4.2031 5.6719 4.2031 15.438 0 9.7188-4.2031 15.406-4.1875 5.6875-11.375 5.6875zm0 7.6094q11.719 0 18.406-7.625 6.7031-7.6094 6.7031-21.078 0-13.422-6.7031-21.078-6.6875-7.6406-18.406-7.6406-11.766 0-18.438 7.6406-6.6562 7.6562-6.6562 21.078 0 13.469 6.6562 21.078 6.6719 7.625 18.438 7.625z"/>
</defs>
<use xlink:href="#r"/>
<use x="58.251953" xlink:href="#ae"/>
<use x="123.242188" xlink:href="#be"/>
<use x="182.421875" xlink:href="#w"/>
</g>
</g>
<g clip-path="url(#a)">
<g transform="translate(138.37 842.76) scale(.1 -.1)">
<defs>
<path id="aw" d="m34.469 29.5q6.0625-1.1719 9.4219-4.75 3.375-3.5625 3.375-8.8281 0-8.4531-6.2969-12.906-6.2969-4.4375-17.922-4.4375-3.9062 0-8.0312 0.6875t-8.5156 2.0469v8.3594q3.4688-1.8125 7.6094-2.7188 4.1562-0.89062 8.6875-0.89062 7.375 0 11.5 2.7344t4.125 7.125q0 4.2969-3.6562 6.9062t-10.344 2.6094h-7.2344v7.4219h7.5625q5.6719 0 8.9688 2.1719t3.2969 5.5938q0 3.125-3.4062 5.375-3.3906 2.25-9.1875 2.25-3.4688 0-7.4062-0.64062-3.9219-0.64062-8.6719-2.0469v8.1562q4.7969 1.1719 8.9375 1.75 4.1562 0.59375 7.8594 0.59375 9.5781 0 15.109-3.8438 5.5469-3.8281 5.5469-10.719 0-4.5312-2.9375-7.6875-2.9219-3.1406-8.3906-4.3125z"/>
<path id="am" d="m9.0781 54.688h13.141l15.531-36.625 15.578 36.625h13.031v-54.688h-9.0312v46.094l-15.094-35.594h-8.9844l-15.141 35.594v-46.094h-9.0312z"/>
<path id="bg" d="m3.7188 0v7.4688q8.875 1.375 11.609 7.5156 3.3281 8.6562 3.3281 30.766v8.9375h36.953v-54.688h-8.9844v47.516h-18.984v-5.4219q0-21.094-4.2969-30.562-4.5938-10.109-19.625-11.531z"/>
</defs>
<use xlink:href="#aw"/>
<use x="53.173828" xlink:href="#aa"/>
<use x="114.453125" xlink:href="#am"/>
<use x="189.892578" xlink:href="#u"/>
<use x="251.416016" xlink:href="#r"/>
<use x="309.667969" xlink:href="#ae"/>
<use x="374.658203" xlink:href="#bg"/>
</g>
</g>
<g clip-path="url(#a)">
<g transform="translate(164.88 842.76) scale(.1 -.1)">
<defs>
<path id="bd" d="m56.297 0h-47.219v54.688h9.0312v-47.516h29.156v47.516h9.0312v-47.516h7.1875v-20.984h-7.1875z"/>
<path id="at" d="m9.0781 54.688h8.9375v-25.688l25.344 25.688h11.031l-20.891-21.141 23.578-33.547h-10.062l-19.375 27.594-9.625-9.7656v-17.828h-8.9375z"/>
</defs>
<use xlink:href="#bd"/>
<use x="68.066406" xlink:href="#af"/>
<use x="127.001953" xlink:href="#u"/>
<use x="188.525391" xlink:href="#r"/>
<use x="246.777344" xlink:href="#w"/>
<use x="307.958984" xlink:href="#at"/>
</g>
</g>
<g clip-path="url(#a)">
<g transform="translate(207.25 842.76) scale(.1 -.1)">
<defs>
<path id="d" d="m10.688 12.406h10.312v-12.406h-10.312z"/>
</defs>
<use xlink:href="#d"/>
</g>
</g>
<g clip-path="url(#a)">
<g transform="translate(235.14 842.76) scale(.1 -.1)">
<use xlink:href="#ap"/>
</g>
</g>
<g clip-path="url(#a)">
<g transform="translate(242.7 842.76) scale(.1 -.1)">
<defs>
<path id="bm" d="m65.375 72.906v-72.906h-9.8594v64.594h-35.844v-64.594h-9.8594v72.906z"/>
<path id="z" d="m48.781 52.594v-8.4062q-3.8125 2.1094-7.6406 3.1562t-7.7344 1.0469q-8.75 0-13.594-5.5469-4.8281-5.5312-4.8281-15.547t4.8281-15.562q4.8438-5.5312 13.594-5.5312 3.9062 0 7.7344 1.0469t7.6406 3.1562v-8.3125q-3.7656-1.75-7.7969-2.625-4.0156-0.89062-8.5625-0.89062-12.359 0-19.641 7.7656-7.2656 7.7656-7.2656 20.953 0 13.375 7.3438 21.031 7.3594 7.6719 20.156 7.6719 4.1406 0 8.0938-0.85938 3.9531-0.84375 7.6719-2.5469z"/>
</defs>
<use xlink:href="#bm"/>
<use x="75.195312" xlink:href="#ad"/>
<use x="138.671875" xlink:href="#w"/>
<use x="199.853516" xlink:href="#z"/>
<use x="254.833984" xlink:href="#r"/>
<use x="313.085938" xlink:href="#ae"/>
<use x="378.076172" xlink:href="#r"/>
<use x="436.328125" xlink:href="#u"/>
</g>
</g>
<g clip-path="url(#a)">
<g transform="translate(287.68 842.76) scale(.1 -.1)">
<defs>
<path id="ar" d="m18.453 38.922q0-4.0625 3.125-6.3594 3.125-2.2812 8.9375-2.2812h12.109v17.234h-12.109q-5.8125 0-8.9375-2.25t-3.125-6.3438zm-12.781-38.922 16.688 23.969q-5.6562 1.2812-9.4219 4.625-3.75 3.3438-3.75 10.328 0 7.9062 5.2344 11.828 5.25 3.9375 15.859 3.9375h21.375v-54.688h-9.0312v23.094h-11.172l-16.125-23.094z"/>
</defs>
<use xlink:href="#am"/>
<use x="75.439453" xlink:href="#u"/>
<use x="136.962891" xlink:href="#t"/>
<use x="202.34375" xlink:href="#ar"/>
</g>
</g>
<g clip-path="url(#a)">
<g transform="translate(336.91 842.76) scale(.1 -.1)">
<use xlink:href="#d"/>
<use x="31.787109" xlink:href="#d"/>
<use x="63.574219" xlink:href="#d"/>
</g>
</g>
<g clip-path="url(#a)">
<g transform="translate(378.2 842.76) scale(.1 -.1)">
<use xlink:href="#ap"/>
</g>
</g>
<g clip-path="url(#a)">
<g transform="translate(411.12 842.76) scale(.1 -.1)">
<defs>
<path id="bn" d="m9.8125 72.906h9.8594v-29.891h35.844v29.891h9.8594v-72.906h-9.8594v34.719h-35.844v-34.719h-9.8594z"/>
</defs>
<use xlink:href="#bn"/>
<use x="75.195312" xlink:href="#u"/>
<use x="136.71875" xlink:href="#r"/>
</g>
</g>
<g clip-path="url(#a)">
<g transform="translate(462.71 842.76) scale(.1 -.1)">
<use xlink:href="#aq"/>
</g>
</g>
<g clip-path="url(#a)">
<g transform="translate(494.37 842.76) scale(.1 -.1)">
<defs>
<path id="bi" d="m9.0781 0v54.688h38.578v-7.1719h-29.547v-47.516z"/>
<path id="as" d="m61.047 54.688h8.9844v-54.688h-8.9844zm4.5 1.3125m-22.094-39.781q0 4.3906-3.2031 6.6875-3.1875 2.2969-9.3438 2.2969h-12.797v-18.031h12.797q6.1562 0 9.3438 2.3125 3.2031 2.3281 3.2031 6.7344zm-34.375 38.469h9.0312v-22.312h13.188q10.453 0 16.094-3.9844 5.6406-3.9688 5.6406-12.172t-5.6406-12.219q-5.6406-4-16.094-4h-22.219z"/>
</defs>
<use xlink:href="#r"/>
<use x="58.251953" xlink:href="#ae"/>
<use x="123.242188" xlink:href="#bi"/>
<use x="175.78125" xlink:href="#ad"/>
<use x="239.257812" xlink:href="#as"/>
</g>
</g>
<g clip-path="url(#a)">
<g transform="translate(548.71 842.76) scale(.1 -.1)">
<use xlink:href="#am"/>
<use x="75.439453" xlink:href="#t"/>
<use x="140.820312" xlink:href="#u"/>
</g>
</g>
<g clip-path="url(#a)">
<g transform="translate(603.57 842.76) scale(.1 -.1)">
<use xlink:href="#t"/>
<use x="65.380859" xlink:href="#u"/>
</g>
</g>
<g clip-path="url(#a)">
<g transform="translate(639.87 842.76) scale(.1 -.1)">
<defs>
<path id="av" d="m50.25 7.1719h23.141v47.516h9.0312v-54.688h-73.344v54.688h9.0312v-47.516h23.109v47.516h9.0312z"/>
</defs>
<use xlink:href="#z"/>
<use x="54.980469" xlink:href="#r"/>
<use x="113.232422" xlink:href="#ad"/>
<use x="176.708984" xlink:href="#aa"/>
<use x="237.988281" xlink:href="#av"/>
<use x="329.492188" xlink:href="#t"/>
<use x="394.873047" xlink:href="#as"/>
</g>
</g>
<g clip-path="url(#a)">
<g transform="translate(718.18 842.76) scale(.1 -.1)">
<use xlink:href="#aq"/>
</g>
</g>
<g clip-path="url(#a)">
<g transform="translate(772.19 842.76) scale(.1 -.1)">
<use xlink:href="#t"/>
<use x="65.380859" xlink:href="#w"/>
</g>
</g>
<g clip-path="url(#a)">
<g transform="translate(836.82 842.76) scale(.1 -.1)">
<use xlink:href="#ar"/>
</g>
</g>
<g clip-path="url(#a)">
<g transform="translate(884.09 842.76) scale(.1 -.1)">
<defs>
<path id="bf" d="m32.172-5.0781q-3.7969-9.7656-7.4219-12.734-3.6094-2.9844-9.6562-2.9844h-7.1875v7.5156h5.2812q3.7031 0 5.75 1.7656 2.0625 1.75 4.5469 8.2969l1.6094 4.0938-22.109 53.812h9.5156l17.094-42.766 17.094 42.766h9.5156z"/>
<path id="bh" d="m40.578 54.688h8.9375v-25.688l23.875 25.688h10.453l-19.641-21.047 22.469-33.641h-9.625l-18.406 27.641-9.125-9.8125v-17.828h-8.9375v17.828l-9.125 9.8125-18.422-27.641h-9.6094l22.453 33.641-19.625 21.047h10.453l23.875-25.688z"/>
</defs>
<use xlink:href="#bf"/>
<use x="59.179688" xlink:href="#bh"/>
<use x="149.267578" xlink:href="#aa"/>
<use x="210.546875" xlink:href="#z"/>
<use x="265.527344" xlink:href="#t"/>
<use x="330.908203" xlink:href="#w"/>
</g>
</g>
<g clip-path="url(#a)">
<g transform="translate(954.07 842.76) scale(.1 -.1)">
<defs>
<path id="bj" d="m31.109 56q11.719 0 18.406-7.625 6.6875-7.6094 6.6875-21.078 0-13.422-6.6875-21.078-6.6875-7.6406-18.406-7.6406-11.766 0-18.266 7.4219t-6.8438 21.297l-0.28125 11.188q-0.25 5.7969-0.25 7.8125 0 7.8125 2.8281 13.562 4.4531 9.0312 12.141 12.938t20.578 4.0156q5.9531 0.046875 8.5938 0.875l2.4844-7.125q-2.3906-0.98438-4.5781-1.0312l-12.219-0.82812q-6.1406-0.4375-9.8594-2.5938-9.7188-5.7031-10.641-13.172l-0.34375-2.7344q6.3438 5.7969 16.656 5.7969zm0-7.6094q-7.2344 0-11.438-5.6406-4.1875-5.6406-4.1875-15.453t4.1719-15.453 11.453-5.6406q7.1719 0 11.375 5.6562 4.2031 5.6719 4.2031 15.438 0 9.7188-4.2031 15.406t-11.375 5.6875z"/>
<path id="bb" d="m53.609 48.391q-7.2188 0-11.422-5.6406t-4.2031-15.453 4.1719-15.453q4.1875-5.6406 11.453-5.6406 7.1875 0 11.375 5.6562 4.2031 5.6719 4.2031 15.438 0 9.7188-4.2031 15.406-4.1875 5.6875-11.375 5.6875zm-24.797-15.531q0.92188 9.2812 7 16.203 6.0781 6.9375 17.797 6.9375t18.406-7.625q6.7031-7.6094 6.7031-21.078 0-13.422-6.7031-21.078-6.6875-7.6406-18.406-7.6406-11.766 0-18.188 7.375t-6.8594 19.484h-10.156v-25.438h-8.9844v54.688h8.9844v-21.828z"/>
<path id="bc" d="m43.453 16.219q0 4.3906-3.2031 6.6875-3.1875 2.2969-9.3438 2.2969h-12.797v-18.031h12.797q6.1562 0 9.3438 2.3125 3.2031 2.3281 3.2031 6.7344zm-34.375 38.469h9.0312v-22.312h13.188q10.453 0 16.094-3.9844 5.6406-3.9688 5.6406-12.172t-5.6406-12.219q-5.6406-4-16.094-4h-22.219z"/>
</defs>
<use xlink:href="#bj"/>
<use x="61.669922" xlink:href="#w"/>
<use x="122.851562" xlink:href="#bb"/>
<use x="207.03125" xlink:href="#z"/>
<use x="262.011719" xlink:href="#bc"/>
</g>
</g>
<g clip-path="url(#a)">
<g transform="translate(1009.4 842.76) scale(.1 -.1)">
<use xlink:href="#z"/>
<use x="54.980469" xlink:href="#at"/>
<use x="115.380859" xlink:href="#af"/>
<use x="174.316406" xlink:href="#w"/>
<use x="235.498047" xlink:href="#aw"/>
<use x="288.671875" xlink:href="#t"/>
<use x="354.052734" xlink:href="#ar"/>
<use x="414.208984" xlink:href="#at"/>
<use x="474.609375" xlink:href="#w"/>
<use x="535.791016" xlink:href="#af"/>
</g>
</g>
<g clip-path="url(#a)">
<g transform="translate(1109 842.76) scale(.1 -.1)">
<use xlink:href="#d"/>
</g>
</g>
<g clip-path="url(#a)">
<g transform="translate(1181.7 842.76) scale(.1 -.1)">
<defs>
<path id="bl" d="m31.984 8.8438q-1.0312-2.4531-2.5938-4.2969-3.8594-4.5469-16.109-4.5469h-3.7656v8.2969h3.0781q5.8125 0 8.0625 1.3281 1.3594 0.82812 2.25 2.875l2.1875 5.1719-23.391 55.234h10.609l18.109-42.781 18.219 42.781h10.594z"/>
</defs>
<use xlink:href="#bl"/>
</g>
</g>
<g clip-path="url(#a)">
<g transform="translate(1252.6 842.76) scale(.1 -.1)">
<use xlink:href="#af"/>
<use x="58.935547" xlink:href="#aa"/>
<use x="120.214844" xlink:href="#z"/>
</g>
</g>
<g clip-path="url(#a)">
<g transform="translate(1331.3 842.76) scale(.1 -.1)">
<use xlink:href="#t"/>
<use x="65.380859" xlink:href="#u"/>
<use x="126.904297" xlink:href="#r"/>
</g>
</g>
<g clip-path="url(#a)">
<g transform="translate(1403.6 842.76) scale(.1 -.1)">
<use xlink:href="#av"/>
<use x="91.503906" xlink:href="#ae"/>
<use x="156.494141" xlink:href="#ad"/>
<use x="219.970703" xlink:href="#am"/>
<use x="295.410156" xlink:href="#as"/>
</g>
</g>
<g clip-path="url(#a)">
<g transform="translate(1503.9 842.76) scale(.1 -.1)">
<defs>
<path id="az" d="m19.094 12.406h9.9062v-12.406h-9.9062zm9.625 7.1719h-9.3281v7.5156q0 4.9375 1.3594 8.1094 1.375 3.1719 5.7656 7.375l4.3906 4.3438q2.7812 2.5938 4.0312 4.8906t1.25 4.6875q0 4.3438-3.2031 7.0312t-8.4688 2.6875q-3.8594 0-8.2344-1.7188-4.3594-1.7031-9.1094-4.9844v9.1875q4.5938 2.7812 9.2969 4.1406 4.7188 1.375 9.75 1.375 8.9844 0 14.422-4.7344 5.4531-4.7344 5.4531-12.5 0-3.7188-1.7656-7.0625-1.75-3.3438-6.1406-7.5312l-4.2969-4.2031q-2.2969-2.2969-3.25-3.5938t-1.3438-2.5156q-0.29688-1.0156-0.4375-2.4844t-0.14062-4z"/>
</defs>
<use xlink:href="#az"/>
</g>
</g>
<g clip-path="url(#a)">
<g transform="translate(1591.1 842.76) scale(.1 -.1)">
<defs>
<path id="ba" d="m17.922 72.906v-27.109h-8.2969v27.109zm18.453 0v-27.109h-8.2969v27.109z"/>
</defs>
<use xlink:href="#ba"/>
</g>
</g>
<g clip-path="url(#a)">
<g transform="translate(1574.9 311.58) scale(.1 -.1)">
<defs>
<path id="s" d="m9.8125 72.906h9.8594v-72.906h-9.8594z"/>
<path id="an" d="m9.8125 72.906h14.703l18.594-49.609 18.703 49.609h14.703v-72.906h-9.625v64.016l-18.797-50h-9.9062l-18.797 50v-64.016h-9.5781z"/>
</defs>
<use xlink:href="#s"/>
<use x="29.492188" xlink:href="#an"/>
<use x="115.771484" xlink:href="#x"/>
<use x="176.074219" xlink:href="#ah"/>
<use x="231.787109" xlink:href="#s"/>
<use x="261.279297" xlink:href="#ai"/>
<use x="331.103516" xlink:href="#s"/>
<use x="360.595703" xlink:href="#e"/>
</g>
</g>
<g clip-path="url(#a)">
<g transform="translate(284.83 579.01) scale(.1 -.1)">
<use xlink:href="#s"/>
<use x="29.492188" xlink:href="#an"/>
<use x="115.771484" xlink:href="#x"/>
<use x="176.074219" xlink:href="#ah"/>
<use x="231.787109" xlink:href="#s"/>
<use x="261.279297" xlink:href="#ai"/>
<use x="331.103516" xlink:href="#s"/>
<use x="360.595703" xlink:href="#e"/>
</g>
</g>
<g clip-path="url(#a)">
<g transform="translate(284.83 579.01) scale(.1 -.1)">
<use xlink:href="#s"/>
<use x="29.492188" xlink:href="#an"/>
<use x="115.771484" xlink:href="#x"/>
<use x="176.074219" xlink:href="#ah"/>
<use x="231.787109" xlink:href="#s"/>
<use x="261.279297" xlink:href="#ai"/>
<use x="331.103516" xlink:href="#s"/>
<use x="360.595703" xlink:href="#e"/>
</g>
</g>
<g clip-path="url(#a)">
<g transform="translate(320.87 42.759) scale(.1 -.1)">
<defs>
<path id="c" d="m12.406 8.2969h16.109v55.625l-17.531-3.5156v8.9844l17.438 3.5156h9.8594v-64.609h16.109v-8.2969h-41.984z"/>
</defs>
<use xlink:href="#c"/>
<use x="63.623047" xlink:href="#d"/>
<use x="95.410156" xlink:href="#c"/>
</g>
</g>
<g clip-path="url(#a)">
<g transform="translate(124.82 445.52) scale(.1 -.1)">
<defs>
<path id="o" d="m19.188 8.2969h34.422v-8.2969h-46.281v8.2969q5.6094 5.8125 15.297 15.594 9.7031 9.7969 12.188 12.641 4.7344 5.3125 6.6094 9 1.8906 3.6875 1.8906 7.25 0 5.8125-4.0781 9.4688-4.0781 3.6719-10.625 3.6719-4.6406 0-9.7969-1.6094-5.1406-1.6094-11-4.8906v9.9688q5.9531 2.3906 11.125 3.6094 5.1875 1.2188 9.4844 1.2188 11.328 0 18.062-5.6719 6.7344-5.6562 6.7344-15.125 0-4.5-1.6875-8.5312-1.6719-4.0156-6.125-9.4844-1.2188-1.4219-7.7656-8.1875-6.5312-6.7656-18.453-18.922z"/>
</defs>
<use xlink:href="#c"/>
<use x="63.623047" xlink:href="#d"/>
<use x="95.410156" xlink:href="#o"/>
</g>
</g>
<g clip-path="url(#a)">
<g transform="translate(231.54 445.52) scale(.1 -.1)">
<defs>
<path id="p" d="m40.578 39.312q7.0781-1.5156 11.047-6.3125 3.9844-4.7812 3.9844-11.812 0-10.781-7.4219-16.703-7.4219-5.9062-21.094-5.9062-4.5781 0-9.4375 0.90625t-10.031 2.7188v9.5156q4.0938-2.3906 8.9688-3.6094 4.8906-1.2188 10.219-1.2188 9.2656 0 14.125 3.6562t4.8594 10.641q0 6.4531-4.5156 10.078-4.5156 3.6406-12.562 3.6406h-8.5v8.1094h8.8906q7.2656 0 11.125 2.9062t3.8594 8.375q0 5.6094-3.9844 8.6094-3.9688 3.0156-11.391 3.0156-4.0625 0-8.7031-0.89062-4.6406-0.875-10.203-2.7188v8.7812q5.625 1.5625 10.531 2.3438t9.25 0.78125q11.234 0 17.766-5.1094 6.5469-5.0938 6.5469-13.781 0-6.0625-3.4688-10.234t-9.8594-5.7812z"/>
</defs>
<use xlink:href="#c"/>
<use x="63.623047" xlink:href="#d"/>
<use x="95.410156" xlink:href="#p"/>
</g>
</g>
<g clip-path="url(#a)">
<g transform="translate(542.21 177.31) scale(.1 -.1)">
<defs>
<path id="n" d="m37.797 64.312-24.906-38.922h24.906zm-2.5938 8.5938h12.406v-47.516h10.406v-8.2031h-10.406v-17.188h-9.8125v17.188h-32.906v9.5156z"/>
</defs>
<use xlink:href="#c"/>
<use x="63.623047" xlink:href="#d"/>
<use x="95.410156" xlink:href="#n"/>
</g>
</g>
<g clip-path="url(#a)">
<g transform="translate(905.91 311.58) scale(.1 -.1)">
<defs>
<path id="ac" d="m31.781 66.406q-7.6094 0-11.453-7.5-3.8281-7.4844-3.8281-22.531 0-14.984 3.8281-22.484 3.8438-7.5 11.453-7.5 7.6719 0 11.5 7.5 3.8438 7.5 3.8438 22.484 0 15.047-3.8438 22.531-3.8281 7.5-11.5 7.5zm0 7.8125q12.266 0 18.734-9.7031 6.4688-9.6875 6.4688-28.141 0-18.406-6.4688-28.109-6.4688-9.6875-18.734-9.6875-12.25 0-18.719 9.6875-6.4688 9.7031-6.4688 28.109 0 18.453 6.4688 28.141 6.4688 9.7031 18.719 9.7031z"/>
</defs>
<use xlink:href="#c"/>
<use x="63.623047" xlink:href="#d"/>
<use x="95.410156" xlink:href="#c"/>
<use x="159.033203" xlink:href="#ac"/>
</g>
</g>
<g clip-path="url(#a)">
<g transform="translate(526.83 579.01) scale(.1 -.1)">
<use xlink:href="#c"/>
<use x="63.623047" xlink:href="#d"/>
<use x="95.410156" xlink:href="#c"/>
<use x="159.033203" xlink:href="#c"/>
</g>
</g>
<g clip-path="url(#a)">
<g transform="translate(767.39 711.79) scale(.1 -.1)">
<use xlink:href="#c"/>
<use x="63.623047" xlink:href="#d"/>
<use x="95.410156" xlink:href="#c"/>
<use x="159.033203" xlink:href="#o"/>
</g>
</g>
<g clip-path="url(#a)">
<g transform="translate(927.05 579.01) scale(.1 -.1)">
<use xlink:href="#c"/>
<use x="63.623047" xlink:href="#d"/>
<use x="95.410156" xlink:href="#c"/>
<use x="159.033203" xlink:href="#p"/>
</g>
</g>
<g clip-path="url(#a)">
<g transform="translate(1406 445.52) scale(.1 -.1)">
<use xlink:href="#c"/>
<use x="63.623047" xlink:href="#d"/>
<use x="95.410156" xlink:href="#c"/>
<use x="159.033203" xlink:href="#n"/>
</g>
</g>
<g clip-path="url(#a)">
<g transform="translate(1211.9 579.01) scale(.1 -.1)">
<defs>
<path id="al" d="m8.2031 72.906h46.875v-4.2031l-26.469-68.703h-10.297l24.906 64.594h-35.016z"/>
</defs>
<use xlink:href="#c"/>
<use x="63.623047" xlink:href="#d"/>
<use x="95.410156" xlink:href="#c"/>
<use x="159.033203" xlink:href="#al"/>
</g>
</g>
<g clip-path="url(#a)">
<g transform="translate(1329.4 711.79) scale(.1 -.1)">
<defs>
<path id="ak" d="m31.781 34.625q-7.0312 0-11.062-3.7656-4.0156-3.7656-4.0156-10.344 0-6.5938 4.0156-10.359 4.0312-3.7656 11.062-3.7656t11.078 3.7812q4.0625 3.7969 4.0625 10.344 0 6.5781-4.0312 10.344-4.0156 3.7656-11.109 3.7656zm-9.8594 4.1875q-6.3438 1.5625-9.8906 5.9062-3.5312 4.3594-3.5312 10.609 0 8.7344 6.2188 13.812 6.2344 5.0781 17.062 5.0781 10.891 0 17.094-5.0781t6.2031-13.812q0-6.25-3.5469-10.609-3.5312-4.3438-9.8281-5.9062 7.125-1.6562 11.094-6.5 3.9844-4.8281 3.9844-11.797 0-10.609-6.4688-16.281-6.4688-5.6562-18.531-5.6562-12.047 0-18.531 5.6562-6.4688 5.6719-6.4688 16.281 0 6.9688 4 11.797 4.0156 4.8438 11.141 6.5zm-3.6094 15.578q0-5.6562 3.5312-8.8281 3.5469-3.1719 9.9375-3.1719 6.3594 0 9.9375 3.1719 3.5938 3.1719 3.5938 8.8281 0 5.6719-3.5938 8.8438-3.5781 3.1719-9.9375 3.1719-6.3906 0-9.9375-3.1719-3.5312-3.1719-3.5312-8.8438z"/>
</defs>
<use xlink:href="#c"/>
<use x="63.623047" xlink:href="#d"/>
<use x="95.410156" xlink:href="#c"/>
<use x="159.033203" xlink:href="#ak"/>
</g>
</g>
<g clip-path="url(#a)">
<g transform="translate(1411.2 711.79) scale(.1 -.1)">
<defs>
<path id="aj" d="m10.984 1.5156v8.9844q3.7188-1.7656 7.5156-2.6875 3.8125-0.92188 7.4844-0.92188 9.7656 0 14.906 6.5625 5.1562 6.5625 5.8906 19.953-2.8281-4.2031-7.1875-6.4531-4.3438-2.25-9.6094-2.25-10.938 0-17.312 6.6094-6.375 6.625-6.375 18.109 0 11.219 6.6406 18 6.6406 6.7969 17.672 6.7969 12.656 0 19.312-9.7031 6.6719-9.6875 6.6719-28.141 0-17.234-8.1875-27.516-8.1719-10.281-21.984-10.281-3.7188 0-7.5312 0.73438-3.7969 0.73438-7.9062 2.2031zm19.625 30.906q6.6406 0 10.516 4.5312 3.8906 4.5469 3.8906 12.469 0 7.8594-3.8906 12.422-3.875 4.5625-10.516 4.5625t-10.516-4.5625-3.875-12.422q0-7.9219 3.875-12.469 3.875-4.5312 10.516-4.5312z"/>
</defs>
<use xlink:href="#c"/>
<use x="63.623047" xlink:href="#d"/>
<use x="95.410156" xlink:href="#c"/>
<use x="159.033203" xlink:href="#aj"/>
</g>
</g>
<g clip-path="url(#a)">
<g transform="translate(1173.6 711.79) scale(.1 -.1)">
<use xlink:href="#c"/>
<use x="63.623047" xlink:href="#d"/>
<use x="95.410156" xlink:href="#o"/>
<use x="159.033203" xlink:href="#ac"/>
</g>
</g>
<g clip-path="url(#a)">
<g transform="translate(1250.2 711.79) scale(.1 -.1)">
<use xlink:href="#c"/>
<use x="63.623047" xlink:href="#d"/>
<use x="95.410156" xlink:href="#o"/>
<use x="159.033203" xlink:href="#c"/>
</g>
</g>
<g clip-path="url(#a)">
<g transform="translate(828.7 711.79) scale(.1 -.1)">
<use xlink:href="#c"/>
<use x="63.623047" xlink:href="#d"/>
<use x="95.410156" xlink:href="#o"/>
<use x="159.033203" xlink:href="#o"/>
</g>
</g>
<g clip-path="url(#a)">
<g transform="translate(892.56 711.79) scale(.1 -.1)">
<use xlink:href="#c"/>
<use x="63.623047" xlink:href="#d"/>
<use x="95.410156" xlink:href="#o"/>
<use x="159.033203" xlink:href="#p"/>
</g>
</g>
<g clip-path="url(#a)">
<g transform="translate(958.98 711.79) scale(.1 -.1)">
<use xlink:href="#c"/>
<use x="63.623047" xlink:href="#d"/>
<use x="95.410156" xlink:href="#o"/>
<use x="159.033203" xlink:href="#n"/>
</g>
</g>
<g clip-path="url(#a)">
<g transform="translate(1028 711.79) scale(.1 -.1)">
<defs>
<path id="v" d="m10.797 72.906h38.719v-8.3125h-29.688v-17.859q2.1406 0.73438 4.2812 1.0938 2.1562 0.35938 4.3125 0.35938 12.203 0 19.328-6.6875 7.1406-6.6875 7.1406-18.109 0-11.766-7.3281-18.297-7.3281-6.5156-20.656-6.5156-4.5938 0-9.3594 0.78125-4.75 0.78125-9.8281 2.3438v9.9219q4.3906-2.3906 9.0781-3.5625t9.9062-1.1719q8.4531 0 13.375 4.4375 4.9375 4.4375 4.9375 12.062 0 7.6094-4.9375 12.047-4.9219 4.4531-13.375 4.4531-3.9531 0-7.8906-0.875-3.9219-0.875-8.0156-2.7344z"/>
</defs>
<use xlink:href="#c"/>
<use x="63.623047" xlink:href="#d"/>
<use x="95.410156" xlink:href="#o"/>
<use x="159.033203" xlink:href="#v"/>
</g>
</g>
<g clip-path="url(#a)">
<g transform="translate(409.74 711.79) scale(.1 -.1)">
<defs>
<path id="ao" d="m33.016 40.375q-6.6406 0-10.531-4.5469-3.875-4.5312-3.875-12.438 0-7.8594 3.875-12.438 3.8906-4.5625 10.531-4.5625t10.516 4.5625q3.875 4.5781 3.875 12.438 0 7.9062-3.875 12.438-3.875 4.5469-10.516 4.5469zm19.578 30.922v-8.9844q-3.7188 1.75-7.5 2.6719-3.7812 0.9375-7.5 0.9375-9.7656 0-14.922-6.5938-5.1406-6.5938-5.875-19.922 2.875 4.25 7.2188 6.5156 4.3594 2.2656 9.5781 2.2656 10.984 0 17.359-6.6719 6.375-6.6562 6.375-18.125 0-11.234-6.6406-18.031-6.6406-6.7812-17.672-6.7812-12.656 0-19.344 9.6875-6.6875 9.7031-6.6875 28.109 0 17.281 8.2031 27.562t22.016 10.281q3.7188 0 7.5-0.73438t7.8906-2.1875z"/>
</defs>
<use xlink:href="#c"/>
<use x="63.623047" xlink:href="#d"/>
<use x="95.410156" xlink:href="#o"/>
<use x="159.033203" xlink:href="#ao"/>
</g>
</g>
<g clip-path="url(#a)">
<g transform="translate(499.15 711.79) scale(.1 -.1)">
<use xlink:href="#c"/>
<use x="63.623047" xlink:href="#d"/>
<use x="95.410156" xlink:href="#o"/>
<use x="159.033203" xlink:href="#al"/>
</g>
</g>
<g clip-path="url(#a)">
<g transform="translate(547.69 711.79) scale(.1 -.1)">
<use xlink:href="#c"/>
<use x="63.623047" xlink:href="#d"/>
<use x="95.410156" xlink:href="#o"/>
<use x="159.033203" xlink:href="#ak"/>
</g>
</g>
<g clip-path="url(#a)">
<g transform="translate(598.78 711.79) scale(.1 -.1)">
<use xlink:href="#c"/>
<use x="63.623047" xlink:href="#d"/>
<use x="95.410156" xlink:href="#o"/>
<use x="159.033203" xlink:href="#aj"/>
</g>
</g>
<g clip-path="url(#a)">
<g transform="translate(652.43 711.79) scale(.1 -.1)">
<use xlink:href="#c"/>
<use x="63.623047" xlink:href="#d"/>
<use x="95.410156" xlink:href="#p"/>
<use x="159.033203" xlink:href="#ac"/>
</g>
</g>
<g clip-path="url(#a)">
<g transform="translate(228.36 579.01) scale(.1 -.1)">
<use xlink:href="#c"/>
<use x="63.623047" xlink:href="#d"/>
<use x="95.410156" xlink:href="#p"/>
<use x="159.033203" xlink:href="#n"/>
</g>
</g>
<g clip-path="url(#a)">
<g transform="translate(256.46 711.79) scale(.1 -.1)">
<use xlink:href="#c"/>
<use x="63.623047" xlink:href="#d"/>
<use x="95.410156" xlink:href="#p"/>
<use x="159.033203" xlink:href="#v"/>
</g>
</g>
<g clip-path="url(#a)">
<g transform="translate(289.67 711.79) scale(.1 -.1)">
<use xlink:href="#c"/>
<use x="63.623047" xlink:href="#d"/>
<use x="95.410156" xlink:href="#p"/>
<use x="159.033203" xlink:href="#ao"/>
</g>
</g>
<g clip-path="url(#a)">
<g transform="translate(95.523 711.79) scale(.1 -.1)">
<use xlink:href="#c"/>
<use x="63.623047" xlink:href="#d"/>
<use x="95.410156" xlink:href="#p"/>
<use x="159.033203" xlink:href="#al"/>
</g>
</g>
<g clip-path="url(#a)">
<g transform="translate(110.85 711.79) scale(.1 -.1)">
<use xlink:href="#c"/>
<use x="63.623047" xlink:href="#d"/>
<use x="95.410156" xlink:href="#p"/>
<use x="159.033203" xlink:href="#ak"/>
</g>
</g>
<g clip-path="url(#a)">
<g transform="translate(73.383 579.01) scale(.1 -.1)">
<use xlink:href="#c"/>
<use x="63.623047" xlink:href="#d"/>
<use x="95.410156" xlink:href="#p"/>
<use x="159.033203" xlink:href="#aj"/>
</g>
</g>
<g clip-path="url(#a)">
<g transform="translate(128.73 711.79) scale(.1 -.1)">
<use xlink:href="#c"/>
<use x="63.623047" xlink:href="#d"/>
<use x="95.410156" xlink:href="#n"/>
<use x="159.033203" xlink:href="#ac"/>
</g>
</g>
<g clip-path="url(#a)">
<g transform="translate(149.17 711.79) scale(.1 -.1)">
<use xlink:href="#c"/>
<use x="63.623047" xlink:href="#d"/>
<use x="95.410156" xlink:href="#n"/>
<use x="159.033203" xlink:href="#c"/>
</g>
</g>
<g clip-path="url(#a)">
<g transform="translate(172.16 711.79) scale(.1 -.1)">
<use xlink:href="#c"/>
<use x="63.623047" xlink:href="#d"/>
<use x="95.410156" xlink:href="#n"/>
<use x="159.033203" xlink:href="#o"/>
</g>
</g>
<g clip-path="url(#a)">
<g transform="translate(197.71 711.79) scale(.1 -.1)">
<use xlink:href="#c"/>
<use x="63.623047" xlink:href="#d"/>
<use x="95.410156" xlink:href="#n"/>
<use x="159.033203" xlink:href="#p"/>
</g>
</g>
<g clip-path="url(#a)">
<g transform="translate(225.81 711.79) scale(.1 -.1)">
<use xlink:href="#c"/>
<use x="63.623047" xlink:href="#d"/>
<use x="95.410156" xlink:href="#n"/>
<use x="159.033203" xlink:href="#n"/>
</g>
</g>
<g clip-path="url(#a)">
<g transform="translate(64.867 711.79) scale(.1 -.1)">
<use xlink:href="#c"/>
<use x="63.623047" xlink:href="#d"/>
<use x="95.410156" xlink:href="#n"/>
<use x="159.033203" xlink:href="#v"/>
</g>
</g>
<g clip-path="url(#a)">
<g transform="translate(72.531 711.79) scale(.1 -.1)">
<use xlink:href="#c"/>
<use x="63.623047" xlink:href="#d"/>
<use x="95.410156" xlink:href="#n"/>
<use x="159.033203" xlink:href="#ao"/>
</g>
</g>
<g clip-path="url(#a)">
<g transform="translate(82.75 711.79) scale(.1 -.1)">
<use xlink:href="#c"/>
<use x="63.623047" xlink:href="#d"/>
<use x="95.410156" xlink:href="#n"/>
<use x="159.033203" xlink:href="#al"/>
</g>
</g>
<g clip-path="url(#a)">
<g transform="translate(330.55 711.79) scale(.1 -.1)">
<use xlink:href="#c"/>
<use x="63.623047" xlink:href="#d"/>
<use x="95.410156" xlink:href="#n"/>
<use x="159.033203" xlink:href="#ak"/>
</g>
</g>
<g clip-path="url(#a)">
<g transform="translate(368.87 711.79) scale(.1 -.1)">
<use xlink:href="#c"/>
<use x="63.623047" xlink:href="#d"/>
<use x="95.410156" xlink:href="#n"/>
<use x="159.033203" xlink:href="#aj"/>
</g>
</g>
<g clip-path="url(#a)">
<g transform="translate(453.17 711.79) scale(.1 -.1)">
<use xlink:href="#c"/>
<use x="63.623047" xlink:href="#d"/>
<use x="95.410156" xlink:href="#v"/>
<use x="159.033203" xlink:href="#ac"/>
</g>
</g>
<g clip-path="url(#a)">
<g transform="translate(708.63 711.79) scale(.1 -.1)">
<use xlink:href="#c"/>
<use x="63.623047" xlink:href="#d"/>
<use x="95.410156" xlink:href="#v"/>
<use x="159.033203" xlink:href="#c"/>
</g>
</g>
<g clip-path="url(#a)">
<g transform="translate(1099.5 711.79) scale(.1 -.1)">
<use xlink:href="#c"/>
<use x="63.623047" xlink:href="#d"/>
<use x="95.410156" xlink:href="#v"/>
<use x="159.033203" xlink:href="#o"/>
</g>
</g>
<g clip-path="url(#a)">
<g transform="translate(1495.5 711.79) scale(.1 -.1)">
<use xlink:href="#c"/>
<use x="63.623047" xlink:href="#d"/>
<use x="95.410156" xlink:href="#v"/>
<use x="159.033203" xlink:href="#p"/>
</g>
</g>
<g clip-path="url(#a)">
<g transform="translate(1582.3 711.79) scale(.1 -.1)">
<use xlink:href="#c"/>
<use x="63.623047" xlink:href="#d"/>
<use x="95.410156" xlink:href="#v"/>
<use x="159.033203" xlink:href="#n"/>
</g>
</g>
<defs>
<clipPath id="a">
<rect width="1672" height="880"/>
</clipPath>
</defs>
</svg>
