<?xml version="1.0" encoding="UTF-8"?>
<!DOCTYPE svg  PUBLIC '-//W3C//DTD SVG 1.1//EN'  'http://www.w3.org/Graphics/SVG/1.1/DTD/svg11.dtd'>
<svg width="1317.3pt" height="693.33pt" version="1.1" viewBox="0 0 1317.3 693.33" xmlns="http://www.w3.org/2000/svg" xmlns:xlink="http://www.w3.org/1999/xlink">
<metadata>
<rdf:RDF xmlns:cc="http://creativecommons.org/ns#" xmlns:dc="http://purl.org/dc/elements/1.1/" xmlns:rdf="http://www.w3.org/1999/02/22-rdf-syntax-ns#">
<cc:Work>
<dc:type rdf:resource="http://purl.org/dc/dcmitype/StillImage"/>
<dc:date>2021-01-21T01:17:03.761212</dc:date>
<dc:format>image/svg+xml</dc:format>
<dc:creator>
<cc:Agent>
<dc:title>Matplotlib v3.3.3, https://matplotlib.org/</dc:title>
</cc:Agent>
</dc:creator>
</cc:Work>
</rdf:RDF>
</metadata>
<defs>
<style type="text/css">*{stroke-linecap:butt;stroke-linejoin:round;}</style>
</defs>
<path d="m0 693.33h1317.3v-693.33h-1317.3z" fill="#fff"/>
<g fill="none" stroke="#000">
<path d="m349.64 31.515-284.99 422.5" clip-path="url(#a)"/>
<path d="m349.64 31.515-251.54 527.12" clip-path="url(#a)"/>
<path d="m349.64 31.515-235.27 317.33" clip-path="url(#a)"/>
<path d="m349.64 31.515-89.107 527.12" clip-path="url(#a)"/>
<path d="m349.64 31.515 84.975 106.01" clip-path="url(#a)"/>
<path d="m349.64 31.515 224.62 317.33" clip-path="url(#a)"/>
<path d="m349.64 31.515-267.47 527.12" clip-path="url(#a)"/>
<path d="m349.64 31.515-124.14 527.12" clip-path="url(#a)"/>
<path d="m349.64 31.515 436.42 527.12" clip-path="url(#a)"/>
<path d="m349.64 31.515 506.5 527.12" clip-path="url(#a)"/>
<path d="m64.656 454.01-4.7776 104.62" clip-path="url(#a)"/>
<path d="m64.656 454.01 4.7776 104.62" clip-path="url(#a)"/>
<path d="m98.099 558.63v103.19" clip-path="url(#a)"/>
<path d="m114.38 348.84 2.8311 209.79" clip-path="url(#a)"/>
<path d="m114.38 348.84 51.668 105.17" clip-path="url(#a)"/>
<path d="m114.38 348.84-54.5 209.79" clip-path="url(#a)" stroke-dasharray="3.7,1.6"/>
<path d="m260.54 558.63v103.19" clip-path="url(#a)"/>
<path d="m434.62 137.52-104.81 105.79" clip-path="url(#a)"/>
<path d="m434.62 137.52-49.866 421.11" clip-path="url(#a)"/>
<path d="m434.62 137.52 156.76 211.32" clip-path="url(#a)"/>
<path d="m434.62 137.52-2.0902 421.11" clip-path="url(#a)"/>
<path d="m574.26 348.84 683.19 105.17" clip-path="url(#a)"/>
<path d="m574.26 348.84 514.38 105.17" clip-path="url(#a)"/>
<path d="m574.26 348.84-514.38 209.79" clip-path="url(#a)" stroke-dasharray="3.7,1.6"/>
<path d="m1088.6 454.01-159.25 104.62" clip-path="url(#a)"/>
<path d="m1088.6 454.01-82.811 104.62" clip-path="url(#a)"/>
<path d="m1088.6 454.01-3.185 104.62" clip-path="url(#a)"/>
<path d="m1088.6 454.01 79.626 104.62" clip-path="url(#a)"/>
<path d="m1088.6 454.01 165.62 104.62" clip-path="url(#a)"/>
<path d="m929.4 558.63v103.19" clip-path="url(#a)"/>
<path d="m1005.8 558.63v103.19" clip-path="url(#a)"/>
<path d="m1085.5 558.63v103.19" clip-path="url(#a)"/>
<path d="m329.81 243.32-10.351 105.53" clip-path="url(#a)"/>
<path d="m329.81 243.32 10.351 210.7" clip-path="url(#a)"/>
<path d="m384.75 558.63v103.19" clip-path="url(#a)"/>
<path d="m591.38 348.84-107.89 209.79" clip-path="url(#a)"/>
<path d="m591.38 348.84-53.748 209.79" clip-path="url(#a)"/>
<path d="m591.38 348.84 33.841 105.17" clip-path="url(#a)"/>
<path d="m591.38 348.84 127.8 209.79" clip-path="url(#a)"/>
<path d="m483.49 558.63v103.19" clip-path="url(#a)"/>
<path d="m537.64 558.63v103.19" clip-path="url(#a)"/>
<path d="m625.22 454.01-30.258 104.62" clip-path="url(#a)"/>
<path d="m625.22 454.01 30.258 104.62" clip-path="url(#a)"/>
<path d="m719.18 558.63v103.19" clip-path="url(#a)"/>
<path d="m594.97 558.63v103.19" clip-path="url(#a)"/>
<path d="m655.48 558.63v103.19" clip-path="url(#a)"/>
<path d="m319.46 348.84 20.703 105.17" clip-path="url(#a)" stroke-dasharray="3.7,1.6"/>
<path d="m319.46 348.84-20.703 209.79" clip-path="url(#a)"/>
<path d="m340.16 454.01v104.62" clip-path="url(#a)"/>
<path d="m340.16 558.63v103.19" clip-path="url(#a)"/>
<path d="m298.76 558.63v103.19" clip-path="url(#a)"/>
<path d="m117.21 558.63v103.19" clip-path="url(#a)"/>
<path d="m166.05 454.01-26.542 104.62" clip-path="url(#a)"/>
<path d="m166.05 454.01 27.604 104.62" clip-path="url(#a)"/>
<path d="m166.05 454.01-1.0617 104.62" clip-path="url(#a)"/>
<path d="m139.5 558.63v103.19" clip-path="url(#a)"/>
<path d="m193.65 558.63v103.19" clip-path="url(#a)"/>
<path d="m82.174 558.63v103.19" clip-path="url(#a)"/>
<path d="m59.879 558.63v103.19" clip-path="url(#a)"/>
<path d="m69.434 558.63v103.19" clip-path="url(#a)"/>
<path d="m164.99 558.63v103.19" clip-path="url(#a)"/>
<path d="m225.5 558.63v103.19" clip-path="url(#a)"/>
<path d="m432.53 558.63v103.19" clip-path="url(#a)"/>
<path d="m786.07 558.63v103.19" clip-path="url(#a)"/>
<path d="m856.14 558.63v103.19" clip-path="url(#a)"/>
<path d="m1168.3 558.63v103.19" clip-path="url(#a)"/>
<path d="m1254.3 558.63v103.19" clip-path="url(#a)"/>
</g>
<path d="m210.67 248.76 3.3643-4.9876q1.3421-1.9897-0.64758-3.3318l-6.4188-4.3296q-1.9897-1.3421-3.3318 0.64758l-3.3643 4.9876q-1.3421 1.9897 0.64758 3.3318l6.4188 4.3296q1.9897 1.3421 3.3318-0.64758z" clip-path="url(#a)" fill="#fff" stroke="#fff"/>
<g clip-path="url(#a)">
<g transform="translate(207.3 246.49) rotate(-55.999) scale(.08 -.08)">
<defs>
<path id="ae" d="m9.8125 72.906h9.8594v-29.891h35.844v29.891h9.8594v-72.906h-9.8594v34.719h-35.844v-34.719h-9.8594z"/>
</defs>
<use xlink:href="#ae"/>
</g>
</g>
<path d="m228.57 299.79 1.9198-4.0229q1.0336-2.166-1.1324-3.1996l-6.9876-3.3345q-2.166-1.0336-3.1996 1.1324l-1.9198 4.0229q-1.0336 2.166 1.1324 3.1996l6.9876 3.3345q2.166 1.0336 3.1996-1.1324z" clip-path="url(#a)" fill="#fff" stroke="#fff"/>
<g clip-path="url(#a)">
<g transform="translate(224.9 298.04) rotate(-64.489) scale(.08 -.08)">
<defs>
<path id="al" d="m9.8125 72.906h9.8594v-64.609h35.5v-8.2969h-45.359z"/>
</defs>
<use xlink:href="#al"/>
</g>
</g>
<path d="m235.26 196.33 3.5831-4.8329q1.4294-1.9279-0.49858-3.3573l-6.2196-4.6112q-1.9279-1.4294-3.3573 0.49858l-3.5831 4.8329q-1.4294 1.9279 0.49858 3.3573l6.2196 4.6112q1.9279 1.4294 3.3573-0.49858z" clip-path="url(#a)" fill="#fff" stroke="#fff"/>
<g clip-path="url(#a)">
<g transform="translate(231.99 193.91) rotate(-53.447) scale(.08 -.08)">
<use xlink:href="#ae"/>
</g>
</g>
<path d="m310.9 298.32 0.74298-4.3951q0.40003-2.3664-1.9664-2.7665l-7.6342-1.2905q-2.3664-0.40004-2.7665 1.9664l-0.74298 4.3951q-0.40004 2.3664 1.9664 2.7665l7.6342 1.2905q2.3664 0.40003 2.7665-1.9664z" clip-path="url(#a)" fill="#fff" stroke="#fff"/>
<g clip-path="url(#a)">
<g transform="translate(306.9 297.64) rotate(-80.405) scale(.08 -.08)">
<use xlink:href="#al"/>
</g>
</g>
<path d="m385.36 86.094 3.7629 4.6942q1.5011 1.8726 3.3737 0.37153l6.0412-4.8426q1.8726-1.5011 0.37153-3.3737l-3.7629-4.6942q-1.5011-1.8726-3.3737-0.37153l-6.0412 4.8426q-1.8726 1.5011-0.37153 3.3737z" clip-path="url(#a)" fill="#fff" stroke="#fff"/>
<g clip-path="url(#a)">
<g transform="translate(388.53 83.552) rotate(51.284) scale(.08 -.08)">
<use xlink:href="#ae"/>
</g>
</g>
<path d="m455.1 191.35 3.4759 4.9105q1.3866 1.9589 3.3455 0.5723l6.3195-4.4732q1.9589-1.3866 0.5723-3.3455l-3.4759-4.9105q-1.3866-1.9589-3.3455-0.5723l-6.3195 4.4732q-1.9589 1.3866-0.5723 3.3455z" clip-path="url(#a)" fill="#fff" stroke="#fff"/>
<g clip-path="url(#a)">
<g transform="translate(458.41 189) rotate(54.707) scale(.08 -.08)">
<use xlink:href="#ae"/>
</g>
</g>
<path d="m220.18 300.52 2.6494-5.2213q1.086-2.1402-1.0542-3.2262l-6.9045-3.5035q-2.1402-1.086-3.2262 1.0542l-2.6494 5.2213q-1.086 2.1402 1.0542 3.2262l6.9045 3.5035q2.1402 1.086 3.2262-1.0542z" clip-path="url(#a)" fill="#fff" stroke="#fff"/>
<g clip-path="url(#a)">
<g transform="translate(216.55 298.68) rotate(-63.096) scale(.08 -.08)">
<defs>
<path id="r" d="m8.6875 72.906h9.9219v-44.297q0-11.719 4.2344-16.875 4.25-5.1406 13.781-5.1406 9.4688 0 13.719 5.1406 4.25 5.1562 4.25 16.875v44.297h9.9062v-45.516q0-14.25-7.0625-21.531-7.0469-7.2812-20.812-7.2812-13.828 0-20.891 7.2812-7.0469 7.2812-7.0469 21.531z"/>
</defs>
<use xlink:href="#r"/>
</g>
</g>
<path d="m293.01 299.36 1.3422-5.6991q0.55018-2.3361-1.7859-2.8863l-7.5363-1.7749q-2.3361-0.55018-2.8863 1.7859l-1.3422 5.6991q-0.55018 2.3361 1.7859 2.8863l7.5363 1.7749q2.3361 0.55018 2.8863-1.7859z" clip-path="url(#a)" fill="#fff" stroke="#fff"/>
<g clip-path="url(#a)">
<g transform="translate(289.05 298.43) rotate(-76.748) scale(.08 -.08)">
<use xlink:href="#r"/>
</g>
</g>
<path d="m561.16 296.82 3.7339 4.5099q1.5306 1.8486 3.3792 0.31806l5.9637-4.9376q1.8486-1.5306 0.31806-3.3792l-3.7339-4.5099q-1.5306-1.8486-3.3792-0.31806l-5.9637 4.9376q-1.8486 1.5306-0.31806 3.3792z" clip-path="url(#a)" fill="#fff" stroke="#fff"/>
<g clip-path="url(#a)">
<g transform="translate(564.29 294.23) rotate(50.377) scale(.08 -.08)">
<use xlink:href="#r"/>
</g>
</g>
<path d="m596.34 297.31 4.0567 4.2219q1.6629 1.7306 3.3934 0.067705l5.5829-5.3645q1.7306-1.6629 0.067704-3.3934l-4.0567-4.2219q-1.6629-1.7306-3.3934-0.067705l-5.5829 5.3645q-1.7306 1.6629-0.067704 3.3934z" clip-path="url(#a)" fill="#fff" stroke="#fff"/>
<g clip-path="url(#a)">
<g transform="translate(599.27 294.49) rotate(46.143) scale(.08 -.08)">
<use xlink:href="#r"/>
</g>
</g>
<path d="m68.407 509.34 0.24964-5.4668q0.10948-2.3975-2.288-2.507l-7.7344-0.3532q-2.3975-0.10948-2.507 2.288l-0.24965 5.4668q-0.10948 2.3975 2.288 2.507l7.7344 0.3532q2.3975 0.10948 2.507-2.288z" clip-path="url(#a)" fill="#fff" stroke="#fff"/>
<g clip-path="url(#a)">
<g transform="translate(64.348 509.16) rotate(-87.385) scale(.08 -.08)">
<defs>
<path id="n" d="m34.188 63.188-13.391-36.281h26.812zm-5.5781 9.7188h11.188l27.781-72.906h-10.25l-6.6406 18.703h-32.859l-6.6406-18.703h-10.406z"/>
</defs>
<use xlink:href="#n"/>
</g>
</g>
<path d="m60.67 504.2 0.22005 4.8187q0.10948 2.3975 2.507 2.288l7.7344-0.3532q2.3975-0.10948 2.288-2.507l-0.22005-4.8187q-0.10948-2.3975-2.507-2.288l-7.7344 0.3532q-2.3975 0.10948-2.288 2.507z" clip-path="url(#a)" fill="#fff" stroke="#fff"/>
<g clip-path="url(#a)">
<g transform="translate(64.73 504.01) rotate(87.385) scale(.08 -.08)">
<defs>
<path id="y" d="m19.672 64.797v-27.391h12.406q6.8906 0 10.641 3.5625 3.7656 3.5625 3.7656 10.156 0 6.5469-3.7656 10.109-3.75 3.5625-10.641 3.5625zm-9.8594 8.1094h22.266q12.266 0 18.531-5.5469 6.2812-5.5469 6.2812-16.234 0-10.797-6.2812-16.312-6.2656-5.5156-18.531-5.5156h-12.406v-29.297h-9.8594z"/>
</defs>
<use xlink:href="#y"/>
</g>
</g>
<path d="m91.828 593.32v33.808q0 2.4 2.4 2.4h7.7425q2.4 0 2.4-2.4v-33.808q0-2.4-2.4-2.4h-7.7425q-2.4 0-2.4 2.4z" clip-path="url(#a)" fill="#fff" stroke="#fff"/>
<g clip-path="url(#a)">
<g transform="translate(95.892 593.32) rotate(90) scale(.08 -.08)">
<defs>
<path id="e" d="m-0.29688 72.906h61.672v-8.3125h-25.875v-64.594h-9.9062v64.594h-25.891z"/>
<path id="l" d="m56.203 29.594v-4.3906h-41.312q0.59375-9.2812 5.5938-14.141t13.938-4.8594q5.1719 0 10.031 1.2656t9.6562 3.8125v-8.5q-4.8438-2.0469-9.9219-3.125t-10.297-1.0781q-13.094 0-20.734 7.6094-7.6406 7.625-7.6406 20.625 0 13.422 7.25 21.297 7.25 7.8906 19.562 7.8906 11.031 0 17.453-7.1094 6.4219-7.0938 6.4219-19.297zm-8.9844 2.6406q-0.09375 7.3594-4.125 11.75-4.0312 4.4062-10.672 4.4062-7.5156 0-12.031-4.25t-5.2031-11.969z"/>
<path id="g" d="m41.109 46.297q-1.5156 0.875-3.2969 1.2812-1.7812 0.42188-3.9219 0.42188-7.625 0-11.703-4.9531t-4.0781-14.234v-28.812h-9.0312v54.688h9.0312v-8.5q2.8438 4.9844 7.375 7.3906 4.5469 2.4219 11.047 2.4219 0.92188 0 2.0469-0.125 1.125-0.10938 2.4844-0.35938z"/>
<path id="i" d="m52 44.188q3.375 6.0625 8.0625 8.9375t11.031 2.875q8.5469 0 13.188-5.9844 4.6406-5.9688 4.6406-17v-33.016h-9.0312v32.719q0 7.8594-2.7969 11.656-2.7812 3.8125-8.4844 3.8125-6.9844 0-11.047-4.6406-4.0469-4.625-4.0469-12.641v-30.906h-9.0312v32.719q0 7.9062-2.7812 11.688t-8.5938 3.7812q-6.8906 0-10.953-4.6562-4.0469-4.6562-4.0469-12.625v-30.906h-9.0312v54.688h9.0312v-8.5q3.0781 5.0312 7.375 7.4219t10.203 2.3906q5.9688 0 10.141-3.0312 4.1719-3.0156 6.1719-8.7812z"/>
<path id="k" d="m9.4219 54.688h8.9844v-54.688h-8.9844zm0 21.297h8.9844v-11.391h-8.9844z"/>
<path id="h" d="m54.891 33.016v-33.016h-8.9844v32.719q0 7.7656-3.0312 11.609-3.0312 3.8594-9.0781 3.8594-7.2812 0-11.484-4.6406-4.2031-4.625-4.2031-12.641v-30.906h-9.0312v54.688h9.0312v-8.5q3.2344 4.9375 7.5938 7.375 4.375 2.4375 10.094 2.4375 9.4219 0 14.25-5.8281 4.8438-5.8281 4.8438-17.156z"/>
<path id="f" d="m34.281 27.484q-10.891 0-15.094-2.4844t-4.2031-8.5q0-4.7812 3.1562-7.5938 3.1562-2.7969 8.5625-2.7969 7.4844 0 12 5.2969t4.5156 14.078v2zm17.922 3.7188v-31.203h-8.9844v8.2969q-3.0781-4.9688-7.6719-7.3438t-11.234-2.375q-8.3906 0-13.359 4.7188-4.9531 4.7188-4.9531 12.625 0 9.2188 6.1719 13.906 6.1875 4.6875 18.438 4.6875h12.609v0.89062q0 6.2031-4.0781 9.5938t-11.453 3.3906q-4.6875 0-9.1406-1.125-4.4375-1.125-8.5312-3.375v8.3125q4.9219 1.9062 9.5625 2.8438 4.6406 0.95312 9.0312 0.95312 11.875 0 17.734-6.1562 5.8594-6.1406 5.8594-18.641z"/>
<path id="j" d="m9.4219 75.984h8.9844v-75.984h-8.9844z"/>
</defs>
<use xlink:href="#e"/>
<use x="44.083984" xlink:href="#l"/>
<use x="105.607422" xlink:href="#g"/>
<use x="144.970703" xlink:href="#i"/>
<use x="242.382812" xlink:href="#k"/>
<use x="270.166016" xlink:href="#h"/>
<use x="333.544922" xlink:href="#f"/>
<use x="394.824219" xlink:href="#j"/>
</g>
</g>
<path d="m109.49 451.41 0.065092 4.8233q0.032385 2.3998 2.4322 2.3674l7.7418-0.10448q2.3998-0.032385 2.3674-2.4322l-0.065092-4.8233q-0.032385-2.3998-2.4322-2.3674l-7.7418 0.10448q-2.3998 0.032385-2.3674 2.4322z" clip-path="url(#a)" fill="#fff" stroke="#fff"/>
<g clip-path="url(#a)">
<g transform="translate(113.55 451.36) rotate(89.227) scale(.08 -.08)">
<use xlink:href="#y"/>
</g>
</g>
<path d="m133.38 401.74 2.4131 4.9117q1.0583 2.1541 3.2124 1.0958l6.9491-3.414q2.1541-1.0583 1.0958-3.2124l-2.4131-4.9117q-1.0583-2.1541-3.2124-1.0958l-6.9491 3.414q-2.1541 1.0583-1.0958 3.2124z" clip-path="url(#a)" fill="#fff" stroke="#fff"/>
<g clip-path="url(#a)">
<g transform="translate(137.02 399.95) rotate(63.836) scale(.08 -.08)">
<use xlink:href="#n"/>
</g>
</g>
<path d="m92.51 457.96 1.376-5.2967q0.60345-2.3229-1.7194-2.9263l-7.4938-1.9467q-2.3229-0.60345-2.9263 1.7194l-1.376 5.2967q-0.60345 2.3229 1.7194 2.9263l7.4938 1.9467q2.3229 0.60345 2.9263-1.7194z" clip-path="url(#a)" fill="#fff" stroke="#fff"/>
<g clip-path="url(#a)">
<g transform="translate(88.577 456.94) rotate(-75.437) scale(.08 -.08)">
<use xlink:href="#n"/>
</g>
</g>
<path d="m254.27 593.32v33.808q0 2.4 2.4 2.4h7.7425q2.4 0 2.4-2.4v-33.808q0-2.4-2.4-2.4h-7.7425q-2.4 0-2.4 2.4z" clip-path="url(#a)" fill="#fff" stroke="#fff"/>
<g clip-path="url(#a)">
<g transform="translate(258.33 593.32) rotate(90) scale(.08 -.08)">
<use xlink:href="#e"/>
<use x="44.083984" xlink:href="#l"/>
<use x="105.607422" xlink:href="#g"/>
<use x="144.970703" xlink:href="#i"/>
<use x="242.382812" xlink:href="#k"/>
<use x="270.166016" xlink:href="#h"/>
<use x="333.544922" xlink:href="#f"/>
<use x="394.824219" xlink:href="#j"/>
</g>
</g>
<path d="m384.74 196.78 3.8515-3.8877q1.6891-1.705-0.015895-3.3941l-5.5004-5.4491q-1.705-1.6891-3.3941 0.015895l-3.8515 3.8877q-1.6891 1.705 0.015895 3.3941l5.5004 5.4491q1.705 1.6891 3.3941-0.015895z" clip-path="url(#a)" fill="#fff" stroke="#fff"/>
<g clip-path="url(#a)">
<g transform="translate(381.86 193.92) rotate(-45.268) scale(.08 -.08)">
<use xlink:href="#n"/>
</g>
</g>
<path d="m415.63 351.21 0.56724-4.7903q0.28222-2.3833-2.1011-2.6656l-7.6888-0.91047q-2.3833-0.28222-2.6656 2.1011l-0.56724 4.7903q-0.28222 2.3833 2.1011 2.6656l7.6888 0.91047q2.3833 0.28222 2.6656-2.1011z" clip-path="url(#a)" fill="#fff" stroke="#fff"/>
<g clip-path="url(#a)">
<g transform="translate(411.59 350.73) rotate(-83.247) scale(.08 -.08)">
<use xlink:href="#y"/>
</g>
</g>
<path d="m506.33 244.72 3.2605 4.3952q1.4299 1.9275 3.3574 0.49764l6.2183-4.6129q1.9275-1.4299 0.49764-3.3574l-3.2605-4.3952q-1.4299-1.9275-3.3574-0.49764l-6.2183 4.6129q-1.9275 1.4299-0.49764 3.3574z" clip-path="url(#a)" fill="#fff" stroke="#fff"/>
<g clip-path="url(#a)">
<g transform="translate(509.6 242.3) rotate(53.431) scale(.08 -.08)">
<use xlink:href="#n"/>
</g>
</g>
<path d="m439.83 351.04 0.029061-5.8549q0.011913-2.4-2.3881-2.4119l-7.7424-0.038429q-2.4-0.011913-2.4119 2.3881l-0.029061 5.8549q-0.011912 2.4 2.3881 2.4119l7.7424 0.03843q2.4 0.011912 2.4119-2.3881z" clip-path="url(#a)" fill="#fff" stroke="#fff"/>
<g clip-path="url(#a)">
<g transform="translate(435.77 351.02) rotate(-89.716) scale(.08 -.08)">
<use xlink:href="#r"/>
</g>
</g>
<path d="m912.52 407.26 4.7676 0.73391q2.3721 0.36515 2.7372-2.0069l1.178-7.6524q0.36515-2.3721-2.0069-2.7372l-4.7676-0.73391q-2.3721-0.36515-2.7372 2.0069l-1.178 7.6524q-0.36515 2.3721 2.0069 2.7372z" clip-path="url(#a)" fill="#fff" stroke="#fff"/>
<g clip-path="url(#a)">
<g transform="translate(913.14 403.24) rotate(8.7513) scale(.08 -.08)">
<use xlink:href="#y"/>
</g>
</g>
<path d="m827.52 407.02 5.3616 1.0962q2.3514 0.48075 2.8321-1.8706l1.5509-7.5856q0.48075-2.3514-1.8706-2.8321l-5.3616-1.0962q-2.3514-0.48075-2.8321 1.8706l-1.5509 7.5856q-0.48075 2.3514 1.8706 2.8321z" clip-path="url(#a)" fill="#fff" stroke="#fff"/>
<g clip-path="url(#a)">
<g transform="translate(828.33 403.04) rotate(11.555) scale(.08 -.08)">
<use xlink:href="#n"/>
</g>
</g>
<path d="m316.91 460.58 5.0673-2.0667q2.2223-0.90635 1.3159-3.1286l-2.9239-7.1692q-0.90635-2.2223-3.1286-1.3159l-5.0673 2.0667q-2.2223 0.90635-1.3159 3.1286l2.9239 7.1692q0.90635 2.2223 3.1286 1.3159z" clip-path="url(#a)" fill="#fff" stroke="#fff"/>
<g clip-path="url(#a)">
<g transform="translate(315.37 456.82) rotate(-22.188) scale(.08 -.08)">
<use xlink:href="#n"/>
</g>
</g>
<path d="m1010.3 512.96 4.2447-2.7886q2.0059-1.3178 0.68812-3.3236l-4.2511-6.471q-1.3178-2.0059-3.3236-0.68812l-4.2447 2.7886q-2.0059 1.3178-0.68812 3.3236l4.2511 6.471q1.3178 2.0059 3.3236 0.68812z" clip-path="url(#a)" fill="#fff" stroke="#fff"/>
<g clip-path="url(#a)">
<g transform="translate(1008.1 509.56) rotate(-33.303) scale(.08 -.08)">
<defs>
<path id="ad" d="m53.516 70.516v-9.625q-5.6094 2.6875-10.594 4-4.9844 1.3281-9.625 1.3281-8.0469 0-12.422-3.125t-4.375-8.8906q0-4.8438 2.9062-7.3125 2.9062-2.4531 11.016-3.9688l5.9531-1.2188q11.031-2.1094 16.281-7.4062t5.25-14.172q0-10.609-7.1094-16.078-7.0938-5.4688-20.812-5.4688-5.1719 0-11.016 1.1719-5.8281 1.1719-12.078 3.4688v10.156q6-3.3594 11.766-5.0781 5.7656-1.7031 11.328-1.7031 8.4375 0 13.031 3.3125 4.5938 3.3281 4.5938 9.4844 0 5.3594-3.2969 8.3906t-10.812 4.5469l-6.0156 1.1719q-11.031 2.1875-15.969 6.875-4.9219 4.6875-4.9219 13.047 0 9.6719 6.8125 15.234t18.766 5.5625q5.1406 0 10.453-0.9375 5.3281-0.92188 10.891-2.7656z"/>
</defs>
<use xlink:href="#ad"/>
</g>
</g>
<path d="m1050.7 512.02 2.8557-3.6078q1.4895-1.8818-0.39229-3.3714l-6.0709-4.8053q-1.8818-1.4895-3.3714 0.39229l-2.8557 3.6078q-1.4895 1.8818 0.39229 3.3714l6.0709 4.8053q1.8818 1.4895 3.3714-0.39229z" clip-path="url(#a)" fill="#fff" stroke="#fff"/>
<g clip-path="url(#a)">
<g transform="translate(1047.5 509.5) rotate(-51.637) scale(.08 -.08)">
<defs>
<path id="bc" d="m9.8125 72.906h41.891v-8.3125h-32.031v-21.484h28.906v-8.2969h-28.906v-34.812h-9.8594z"/>
</defs>
<use xlink:href="#bc"/>
</g>
</g>
<path d="m1093.2 509.25 0.16653-5.47q0.073032-2.3989-2.3259-2.4719l-7.7389-0.2356q-2.3989-0.073031-2.4719 2.3259l-0.16653 5.47q-0.073031 2.3989 2.3259 2.4719l7.7389 0.2356q2.3989 0.073031 2.4719-2.3259z" clip-path="url(#a)" fill="#fff" stroke="#fff"/>
<g clip-path="url(#a)">
<g transform="translate(1089.2 509.13) rotate(-88.256) scale(.08 -.08)">
<use xlink:href="#n"/>
</g>
</g>
<path d="m1121.7 507.79 3.546 4.6591q1.4535 1.9098 3.3633 0.45626l6.161-4.6891q1.9098-1.4535 0.45626-3.3633l-3.546-4.6591q-1.4535-1.9098-3.3633-0.45626l-6.161 4.6891q-1.9098 1.4535-0.45626 3.3633z" clip-path="url(#a)" fill="#fff" stroke="#fff"/>
<g clip-path="url(#a)">
<g transform="translate(1124.9 505.33) rotate(52.725) scale(.08 -.08)">
<use xlink:href="#r"/>
</g>
</g>
<path d="m1165.6 510.06 4.9501 3.1269q2.0291 1.2817 3.3108-0.74735l4.1349-6.5459q1.2817-2.0291-0.74735-3.3108l-4.9501-3.1269q-2.0291-1.2817-3.3108 0.74735l-4.1349 6.5459q-1.2817 2.0291 0.74735 3.3108z" clip-path="url(#a)" fill="#fff" stroke="#fff"/>
<g clip-path="url(#a)">
<g transform="translate(1167.8 506.63) rotate(32.28) scale(.08 -.08)">
<use xlink:href="#r"/>
</g>
</g>
<path d="m923.12 593.32v33.808q0 2.4 2.4 2.4h7.7425q2.4 0 2.4-2.4v-33.808q0-2.4-2.4-2.4h-7.7425q-2.4 0-2.4 2.4z" clip-path="url(#a)" fill="#fff" stroke="#fff"/>
<g clip-path="url(#a)">
<g transform="translate(927.19 593.32) rotate(90) scale(.08 -.08)">
<use xlink:href="#e"/>
<use x="44.083984" xlink:href="#l"/>
<use x="105.607422" xlink:href="#g"/>
<use x="144.970703" xlink:href="#i"/>
<use x="242.382812" xlink:href="#k"/>
<use x="270.166016" xlink:href="#h"/>
<use x="333.544922" xlink:href="#f"/>
<use x="394.824219" xlink:href="#j"/>
</g>
</g>
<path d="m999.56 593.32v33.808q0 2.4 2.4 2.4h7.7425q2.4 0 2.4-2.4v-33.808q0-2.4-2.4-2.4h-7.7425q-2.4 0-2.4 2.4z" clip-path="url(#a)" fill="#fff" stroke="#fff"/>
<g clip-path="url(#a)">
<g transform="translate(1003.6 593.32) rotate(90) scale(.08 -.08)">
<use xlink:href="#e"/>
<use x="44.083984" xlink:href="#l"/>
<use x="105.607422" xlink:href="#g"/>
<use x="144.970703" xlink:href="#i"/>
<use x="242.382812" xlink:href="#k"/>
<use x="270.166016" xlink:href="#h"/>
<use x="333.544922" xlink:href="#f"/>
<use x="394.824219" xlink:href="#j"/>
</g>
</g>
<path d="m1079.2 593.32v33.808q0 2.4 2.4 2.4h7.7425q2.4 0 2.4-2.4v-33.808q0-2.4-2.4-2.4h-7.7425q-2.4 0-2.4 2.4z" clip-path="url(#a)" fill="#fff" stroke="#fff"/>
<g clip-path="url(#a)">
<g transform="translate(1083.3 593.32) rotate(90) scale(.08 -.08)">
<use xlink:href="#e"/>
<use x="44.083984" xlink:href="#l"/>
<use x="105.607422" xlink:href="#g"/>
<use x="144.970703" xlink:href="#i"/>
<use x="242.382812" xlink:href="#k"/>
<use x="270.166016" xlink:href="#h"/>
<use x="333.544922" xlink:href="#f"/>
<use x="394.824219" xlink:href="#j"/>
</g>
</g>
<path d="m330.63 299.21 0.49349-5.0309q0.2343-2.3885-2.1542-2.6228l-7.7055-0.75585q-2.3885-0.2343-2.6228 2.1542l-0.49349 5.0309q-0.2343 2.3885 2.1542 2.6228l7.7055 0.75585q2.3885 0.2343 2.6228-2.1542z" clip-path="url(#a)" fill="#fff" stroke="#fff"/>
<g clip-path="url(#a)">
<g transform="translate(326.59 298.81) rotate(-84.398) scale(.08 -.08)">
<defs>
<path id="av" d="m9.8125 72.906h46.094v-8.3125h-36.234v-21.578h34.719v-8.2969h-34.719v-26.422h37.109v-8.2969h-46.969z"/>
</defs>
<use xlink:href="#av"/>
</g>
</g>
<path d="m328.59 346.18 0.27412 5.5795q0.11777 2.3971 2.5149 2.2793l7.7332-0.37993q2.3971-0.11777 2.2793-2.5149l-0.27412-5.5795q-0.11777-2.3971-2.5149-2.2793l-7.7332 0.37993q-2.3971 0.11777-2.2793 2.5149z" clip-path="url(#a)" fill="#fff" stroke="#fff"/>
<g clip-path="url(#a)">
<g transform="translate(332.64 345.98) rotate(87.187) scale(.08 -.08)">
<defs>
<path id="af" d="m64.406 67.281v-10.391q-4.9844 4.6406-10.625 6.9219-5.6406 2.2969-11.984 2.2969-12.5 0-19.141-7.6406t-6.6406-22.094q0-14.406 6.6406-22.047t19.141-7.6406q6.3438 0 11.984 2.2969t10.625 6.9375v-10.312q-5.1719-3.5156-10.969-5.2812-5.7812-1.75-12.219-1.75-16.562 0-26.094 10.125-9.5156 10.141-9.5156 27.672 0 17.578 9.5156 27.703 9.5312 10.141 26.094 10.141 6.5312 0 12.312-1.7344 5.7969-1.7344 10.875-5.2031z"/>
</defs>
<use xlink:href="#af"/>
</g>
</g>
<path d="m378.48 593.32v33.808q0 2.4 2.4 2.4h7.7425q2.4 0 2.4-2.4v-33.808q0-2.4-2.4-2.4h-7.7425q-2.4 0-2.4 2.4z" clip-path="url(#a)" fill="#fff" stroke="#fff"/>
<g clip-path="url(#a)">
<g transform="translate(382.55 593.32) rotate(90) scale(.08 -.08)">
<use xlink:href="#e"/>
<use x="44.083984" xlink:href="#l"/>
<use x="105.607422" xlink:href="#g"/>
<use x="144.970703" xlink:href="#i"/>
<use x="242.382812" xlink:href="#k"/>
<use x="270.166016" xlink:href="#h"/>
<use x="333.544922" xlink:href="#f"/>
<use x="394.824219" xlink:href="#j"/>
</g>
</g>
<path d="m541.74 459.08 2.5423-4.9433q1.0976-2.1343-1.0366-3.2319l-6.8853-3.5411q-2.1343-1.0976-3.2319 1.0366l-2.5423 4.9433q-1.0976 2.1343 1.0366 3.2319l6.8853 3.5411q2.1343 1.0976 3.2319-1.0366z" clip-path="url(#a)" fill="#fff" stroke="#fff"/>
<g clip-path="url(#a)">
<g transform="translate(538.13 457.22) rotate(-62.784) scale(.08 -.08)">
<defs>
<path id="au" d="m44.391 34.188q3.1719-1.0781 6.1719-4.5938t6.0312-9.6719l10.016-19.922h-10.609l-9.3125 18.703q-3.625 7.3281-7.0156 9.7188t-9.25 2.3906h-10.75v-30.812h-9.8594v72.906h22.266q12.5 0 18.656-5.2344 6.1562-5.2188 6.1562-15.766 0-6.8906-3.2031-11.438-3.2031-4.5312-9.2969-6.2812zm-24.719 30.609v-25.875h12.406q7.125 0 10.766 3.2969t3.6406 9.6875-3.6406 9.6406-10.766 3.25z"/>
</defs>
<use xlink:href="#au"/>
</g>
</g>
<path d="m569.9 457.95 1.3582-5.3013q0.59564-2.3249-1.7293-2.9205l-7.5003-1.9215q-2.3249-0.59564-2.9205 1.7293l-1.3582 5.3013q-0.59564 2.3249 1.7293 2.9205l7.5003 1.9215q2.3249 0.59564 2.9205-1.7293z" clip-path="url(#a)" fill="#fff" stroke="#fff"/>
<g clip-path="url(#a)">
<g transform="translate(565.97 456.94) rotate(-75.63) scale(.08 -.08)">
<use xlink:href="#n"/>
</g>
</g>
<path d="m601.5 400.74 1.6763 5.2094q0.73514 2.2846 3.0198 1.5495l7.3703-2.3716q2.2846-0.73514 1.5495-3.0198l-1.6763-5.2094q-0.73514-2.2846-3.0198-1.5495l-7.3703 2.3716q-2.2846 0.73514-1.5495 3.0198z" clip-path="url(#a)" fill="#fff" stroke="#fff"/>
<g clip-path="url(#a)">
<g transform="translate(605.36 399.5) rotate(72.163) scale(.08 -.08)">
<use xlink:href="#n"/>
</g>
</g>
<path d="m648.61 454.83 2.6422 4.3373q1.2486 2.0496 3.2982 0.80104l6.6122-4.028q2.0496-1.2486 0.80104-3.2982l-2.6422-4.3373q-1.2486-2.0496-3.2982-0.80104l-6.6122 4.028q-2.0496 1.2486-0.80104 3.2982z" clip-path="url(#a)" fill="#fff" stroke="#fff"/>
<g clip-path="url(#a)">
<g transform="translate(652.08 452.72) rotate(58.651) scale(.08 -.08)">
<use xlink:href="#ad"/>
</g>
</g>
<path d="m477.22 593.32v33.808q0 2.4 2.4 2.4h7.7425q2.4 0 2.4-2.4v-33.808q0-2.4-2.4-2.4h-7.7425q-2.4 0-2.4 2.4z" clip-path="url(#a)" fill="#fff" stroke="#fff"/>
<g clip-path="url(#a)">
<g transform="translate(481.28 593.32) rotate(90) scale(.08 -.08)">
<use xlink:href="#e"/>
<use x="44.083984" xlink:href="#l"/>
<use x="105.607422" xlink:href="#g"/>
<use x="144.970703" xlink:href="#i"/>
<use x="242.382812" xlink:href="#k"/>
<use x="270.166016" xlink:href="#h"/>
<use x="333.544922" xlink:href="#f"/>
<use x="394.824219" xlink:href="#j"/>
</g>
</g>
<path d="m531.36 593.32v33.808q0 2.4 2.4 2.4h7.7425q2.4 0 2.4-2.4v-33.808q0-2.4-2.4-2.4h-7.7425q-2.4 0-2.4 2.4z" clip-path="url(#a)" fill="#fff" stroke="#fff"/>
<g clip-path="url(#a)">
<g transform="translate(535.43 593.32) rotate(90) scale(.08 -.08)">
<use xlink:href="#e"/>
<use x="44.083984" xlink:href="#l"/>
<use x="105.607422" xlink:href="#g"/>
<use x="144.970703" xlink:href="#i"/>
<use x="242.382812" xlink:href="#k"/>
<use x="270.166016" xlink:href="#h"/>
<use x="333.544922" xlink:href="#f"/>
<use x="394.824219" xlink:href="#j"/>
</g>
</g>
<path d="m615.35 510.74 1.5444-5.3399q0.66679-2.3055-1.6387-2.9723l-7.4377-2.1511q-2.3055-0.66679-2.9723 1.6387l-1.5444 5.3399q-0.66679 2.3055 1.6387 2.9723l7.4377 2.1511q2.3055 0.66679 2.9723-1.6387z" clip-path="url(#a)" fill="#fff" stroke="#fff"/>
<g clip-path="url(#a)">
<g transform="translate(611.44 509.61) rotate(-73.869) scale(.08 -.08)">
<use xlink:href="#au"/>
</g>
</g>
<path d="m633.55 505.38 1.552 5.3663q0.66679 2.3055 2.9723 1.6387l7.4377-2.1511q2.3055-0.66679 1.6387-2.9723l-1.552-5.3663q-0.66679-2.3055-2.9723-1.6387l-7.4377 2.1511q-2.3055 0.66679-1.6387 2.9723z" clip-path="url(#a)" fill="#fff" stroke="#fff"/>
<g clip-path="url(#a)">
<g transform="translate(637.46 504.25) rotate(73.869) scale(.08 -.08)">
<use xlink:href="#af"/>
</g>
</g>
<path d="m712.91 593.32v33.808q0 2.4 2.4 2.4h7.7425q2.4 0 2.4-2.4v-33.808q0-2.4-2.4-2.4h-7.7425q-2.4 0-2.4 2.4z" clip-path="url(#a)" fill="#fff" stroke="#fff"/>
<g clip-path="url(#a)">
<g transform="translate(716.97 593.32) rotate(90) scale(.08 -.08)">
<use xlink:href="#e"/>
<use x="44.083984" xlink:href="#l"/>
<use x="105.607422" xlink:href="#g"/>
<use x="144.970703" xlink:href="#i"/>
<use x="242.382812" xlink:href="#k"/>
<use x="270.166016" xlink:href="#h"/>
<use x="333.544922" xlink:href="#f"/>
<use x="394.824219" xlink:href="#j"/>
</g>
</g>
<path d="m588.69 593.32v33.808q0 2.4 2.4 2.4h7.7425q2.4 0 2.4-2.4v-33.808q0-2.4-2.4-2.4h-7.7425q-2.4 0-2.4 2.4z" clip-path="url(#a)" fill="#fff" stroke="#fff"/>
<g clip-path="url(#a)">
<g transform="translate(592.76 593.32) rotate(90) scale(.08 -.08)">
<use xlink:href="#e"/>
<use x="44.083984" xlink:href="#l"/>
<use x="105.607422" xlink:href="#g"/>
<use x="144.970703" xlink:href="#i"/>
<use x="242.382812" xlink:href="#k"/>
<use x="270.166016" xlink:href="#h"/>
<use x="333.544922" xlink:href="#f"/>
<use x="394.824219" xlink:href="#j"/>
</g>
</g>
<path d="m649.21 593.32v33.808q0 2.4 2.4 2.4h7.7425q2.4 0 2.4-2.4v-33.808q0-2.4-2.4-2.4h-7.7425q-2.4 0-2.4 2.4z" clip-path="url(#a)" fill="#fff" stroke="#fff"/>
<g clip-path="url(#a)">
<g transform="translate(653.27 593.32) rotate(90) scale(.08 -.08)">
<use xlink:href="#e"/>
<use x="44.083984" xlink:href="#l"/>
<use x="105.607422" xlink:href="#g"/>
<use x="144.970703" xlink:href="#i"/>
<use x="242.382812" xlink:href="#k"/>
<use x="270.166016" xlink:href="#h"/>
<use x="333.544922" xlink:href="#f"/>
<use x="394.824219" xlink:href="#j"/>
</g>
</g>
<path d="m323.13 399.95 1.057 5.3695q0.46355 2.3548 2.8184 1.8913l7.5967-1.4954q2.3548-0.46355 1.8913-2.8184l-1.057-5.3695q-0.46355-2.3548-2.8184-1.8913l-7.5967 1.4954q-2.3548 0.46355-1.8913 2.8184z" clip-path="url(#a)" fill="#fff" stroke="#fff"/>
<g clip-path="url(#a)">
<g transform="translate(327.12 399.17) rotate(78.864) scale(.08 -.08)">
<use xlink:href="#n"/>
</g>
</g>
<path d="m315.1 456.88 0.49877-5.0542q0.2357-2.3884-2.1527-2.6241l-7.7051-0.76036q-2.3884-0.2357-2.6241 2.1527l-0.49877 5.0542q-0.2357 2.3884 2.1527 2.6241l7.7051 0.76036q2.3884 0.2357 2.6241-2.1527z" clip-path="url(#a)" fill="#fff" stroke="#fff"/>
<g clip-path="url(#a)">
<g transform="translate(311.06 456.48) rotate(-84.364) scale(.08 -.08)">
<use xlink:href="#ad"/>
</g>
</g>
<path d="m333.76 499.7v13.246q0 2.4 2.4 2.4h8q2.4 0 2.4-2.4v-13.246q0-2.4-2.4-2.4h-8q-2.4 0-2.4 2.4z" clip-path="url(#a)" fill="#fff" stroke="#fff"/>
<g clip-path="url(#a)">
<g transform="translate(338.05 499.7) rotate(90) scale(.08 -.08)">
<defs>
<path id="bf" d="m21 76.422v-100h-8.2969v100z"/>
</defs>
<use xlink:href="#n"/>
<use x="68.408203" xlink:href="#bf"/>
<use x="102.099609" xlink:href="#ad"/>
</g>
</g>
<path d="m333.89 593.32v33.808q0 2.4 2.4 2.4h7.7425q2.4 0 2.4-2.4v-33.808q0-2.4-2.4-2.4h-7.7425q-2.4 0-2.4 2.4z" clip-path="url(#a)" fill="#fff" stroke="#fff"/>
<g clip-path="url(#a)">
<g transform="translate(337.95 593.32) rotate(90) scale(.08 -.08)">
<use xlink:href="#e"/>
<use x="44.083984" xlink:href="#l"/>
<use x="105.607422" xlink:href="#g"/>
<use x="144.970703" xlink:href="#i"/>
<use x="242.382812" xlink:href="#k"/>
<use x="270.166016" xlink:href="#h"/>
<use x="333.544922" xlink:href="#f"/>
<use x="394.824219" xlink:href="#j"/>
</g>
</g>
<path d="m292.49 593.32v33.808q0 2.4 2.4 2.4h7.7425q2.4 0 2.4-2.4v-33.808q0-2.4-2.4-2.4h-7.7425q-2.4 0-2.4 2.4z" clip-path="url(#a)" fill="#fff" stroke="#fff"/>
<g clip-path="url(#a)">
<g transform="translate(296.55 593.32) rotate(90) scale(.08 -.08)">
<use xlink:href="#e"/>
<use x="44.083984" xlink:href="#l"/>
<use x="105.607422" xlink:href="#g"/>
<use x="144.970703" xlink:href="#i"/>
<use x="242.382812" xlink:href="#k"/>
<use x="270.166016" xlink:href="#h"/>
<use x="333.544922" xlink:href="#f"/>
<use x="394.824219" xlink:href="#j"/>
</g>
</g>
<path d="m110.94 593.32v33.808q0 2.4 2.4 2.4h7.7425q2.4 0 2.4-2.4v-33.808q0-2.4-2.4-2.4h-7.7425q-2.4 0-2.4 2.4z" clip-path="url(#a)" fill="#fff" stroke="#fff"/>
<g clip-path="url(#a)">
<g transform="translate(115 593.32) rotate(90) scale(.08 -.08)">
<use xlink:href="#e"/>
<use x="44.083984" xlink:href="#l"/>
<use x="105.607422" xlink:href="#g"/>
<use x="144.970703" xlink:href="#i"/>
<use x="242.382812" xlink:href="#k"/>
<use x="270.166016" xlink:href="#h"/>
<use x="333.544922" xlink:href="#f"/>
<use x="394.824219" xlink:href="#j"/>
</g>
</g>
<path d="m158.17 510.57 1.3737-5.4147q0.59018-2.3263-1.7361-2.9165l-7.5048-1.9039q-2.3263-0.59018-2.9165 1.7361l-1.3737 5.4147q-0.59018 2.3263 1.7361 2.9165l7.5048 1.9039q2.3263 0.59018 2.9165-1.7361z" clip-path="url(#a)" fill="#fff" stroke="#fff"/>
<g clip-path="url(#a)">
<g transform="translate(154.23 509.57) rotate(-75.765) scale(.08 -.08)">
<use xlink:href="#af"/>
</g>
</g>
<path d="m173.14 505.48 1.2896 4.8877q0.61228 2.3206 2.9329 1.7083l7.4863-1.9752q2.3206-0.61228 1.7083-2.9329l-1.2896-4.8877q-0.61228-2.3206-2.9329-1.7083l-7.4863 1.9752q-2.3206 0.61228-1.7083 2.9329z" clip-path="url(#a)" fill="#fff" stroke="#fff"/>
<g clip-path="url(#a)">
<g transform="translate(177.07 504.44) rotate(75.22) scale(.08 -.08)">
<use xlink:href="#av"/>
</g>
</g>
<path d="m171.76 509.31 0.059413-5.8547q0.024354-2.3999-2.3755-2.4242l-7.7421-0.078566q-2.3999-0.024354-2.4242 2.3755l-0.059413 5.8547q-0.024354 2.3999 2.3755 2.4242l7.7421 0.078566q2.3999 0.024354 2.4242-2.3755z" clip-path="url(#a)" fill="#fff" stroke="#fff"/>
<g clip-path="url(#a)">
<g transform="translate(167.69 509.27) rotate(-89.419) scale(.08 -.08)">
<use xlink:href="#r"/>
</g>
</g>
<path d="m133.23 593.32v33.808q0 2.4 2.4 2.4h7.7425q2.4 0 2.4-2.4v-33.808q0-2.4-2.4-2.4h-7.7425q-2.4 0-2.4 2.4z" clip-path="url(#a)" fill="#fff" stroke="#fff"/>
<g clip-path="url(#a)">
<g transform="translate(137.3 593.32) rotate(90) scale(.08 -.08)">
<use xlink:href="#e"/>
<use x="44.083984" xlink:href="#l"/>
<use x="105.607422" xlink:href="#g"/>
<use x="144.970703" xlink:href="#i"/>
<use x="242.382812" xlink:href="#k"/>
<use x="270.166016" xlink:href="#h"/>
<use x="333.544922" xlink:href="#f"/>
<use x="394.824219" xlink:href="#j"/>
</g>
</g>
<path d="m187.38 593.32v33.808q0 2.4 2.4 2.4h7.7425q2.4 0 2.4-2.4v-33.808q0-2.4-2.4-2.4h-7.7425q-2.4 0-2.4 2.4z" clip-path="url(#a)" fill="#fff" stroke="#fff"/>
<g clip-path="url(#a)">
<g transform="translate(191.44 593.32) rotate(90) scale(.08 -.08)">
<use xlink:href="#e"/>
<use x="44.083984" xlink:href="#l"/>
<use x="105.607422" xlink:href="#g"/>
<use x="144.970703" xlink:href="#i"/>
<use x="242.382812" xlink:href="#k"/>
<use x="270.166016" xlink:href="#h"/>
<use x="333.544922" xlink:href="#f"/>
<use x="394.824219" xlink:href="#j"/>
</g>
</g>
<path d="m75.903 593.32v33.808q0 2.4 2.4 2.4h7.7425q2.4 0 2.4-2.4v-33.808q0-2.4-2.4-2.4h-7.7425q-2.4 0-2.4 2.4z" clip-path="url(#a)" fill="#fff" stroke="#fff"/>
<g clip-path="url(#a)">
<g transform="translate(79.967 593.32) rotate(90) scale(.08 -.08)">
<use xlink:href="#e"/>
<use x="44.083984" xlink:href="#l"/>
<use x="105.607422" xlink:href="#g"/>
<use x="144.970703" xlink:href="#i"/>
<use x="242.382812" xlink:href="#k"/>
<use x="270.166016" xlink:href="#h"/>
<use x="333.544922" xlink:href="#f"/>
<use x="394.824219" xlink:href="#j"/>
</g>
</g>
<path d="m53.608 593.32v33.808q0 2.4 2.4 2.4h7.7425q2.4 0 2.4-2.4v-33.808q0-2.4-2.4-2.4h-7.7425q-2.4 0-2.4 2.4z" clip-path="url(#a)" fill="#fff" stroke="#fff"/>
<g clip-path="url(#a)">
<g transform="translate(57.671 593.32) rotate(90) scale(.08 -.08)">
<use xlink:href="#e"/>
<use x="44.083984" xlink:href="#l"/>
<use x="105.607422" xlink:href="#g"/>
<use x="144.970703" xlink:href="#i"/>
<use x="242.382812" xlink:href="#k"/>
<use x="270.166016" xlink:href="#h"/>
<use x="333.544922" xlink:href="#f"/>
<use x="394.824219" xlink:href="#j"/>
</g>
</g>
<path d="m63.163 593.32v33.808q0 2.4 2.4 2.4h7.7425q2.4 0 2.4-2.4v-33.808q0-2.4-2.4-2.4h-7.7425q-2.4 0-2.4 2.4z" clip-path="url(#a)" fill="#fff" stroke="#fff"/>
<g clip-path="url(#a)">
<g transform="translate(67.226 593.32) rotate(90) scale(.08 -.08)">
<use xlink:href="#e"/>
<use x="44.083984" xlink:href="#l"/>
<use x="105.607422" xlink:href="#g"/>
<use x="144.970703" xlink:href="#i"/>
<use x="242.382812" xlink:href="#k"/>
<use x="270.166016" xlink:href="#h"/>
<use x="333.544922" xlink:href="#f"/>
<use x="394.824219" xlink:href="#j"/>
</g>
</g>
<path d="m158.71 593.32v33.808q0 2.4 2.4 2.4h7.7425q2.4 0 2.4-2.4v-33.808q0-2.4-2.4-2.4h-7.7425q-2.4 0-2.4 2.4z" clip-path="url(#a)" fill="#fff" stroke="#fff"/>
<g clip-path="url(#a)">
<g transform="translate(162.78 593.32) rotate(90) scale(.08 -.08)">
<use xlink:href="#e"/>
<use x="44.083984" xlink:href="#l"/>
<use x="105.607422" xlink:href="#g"/>
<use x="144.970703" xlink:href="#i"/>
<use x="242.382812" xlink:href="#k"/>
<use x="270.166016" xlink:href="#h"/>
<use x="333.544922" xlink:href="#f"/>
<use x="394.824219" xlink:href="#j"/>
</g>
</g>
<path d="m219.23 593.32v33.808q0 2.4 2.4 2.4h7.7425q2.4 0 2.4-2.4v-33.808q0-2.4-2.4-2.4h-7.7425q-2.4 0-2.4 2.4z" clip-path="url(#a)" fill="#fff" stroke="#fff"/>
<g clip-path="url(#a)">
<g transform="translate(223.29 593.32) rotate(90) scale(.08 -.08)">
<use xlink:href="#e"/>
<use x="44.083984" xlink:href="#l"/>
<use x="105.607422" xlink:href="#g"/>
<use x="144.970703" xlink:href="#i"/>
<use x="242.382812" xlink:href="#k"/>
<use x="270.166016" xlink:href="#h"/>
<use x="333.544922" xlink:href="#f"/>
<use x="394.824219" xlink:href="#j"/>
</g>
</g>
<path d="m426.26 593.32v33.808q0 2.4 2.4 2.4h7.7425q2.4 0 2.4-2.4v-33.808q0-2.4-2.4-2.4h-7.7425q-2.4 0-2.4 2.4z" clip-path="url(#a)" fill="#fff" stroke="#fff"/>
<g clip-path="url(#a)">
<g transform="translate(430.32 593.32) rotate(90) scale(.08 -.08)">
<use xlink:href="#e"/>
<use x="44.083984" xlink:href="#l"/>
<use x="105.607422" xlink:href="#g"/>
<use x="144.970703" xlink:href="#i"/>
<use x="242.382812" xlink:href="#k"/>
<use x="270.166016" xlink:href="#h"/>
<use x="333.544922" xlink:href="#f"/>
<use x="394.824219" xlink:href="#j"/>
</g>
</g>
<path d="m779.8 593.32v33.808q0 2.4 2.4 2.4h7.7425q2.4 0 2.4-2.4v-33.808q0-2.4-2.4-2.4h-7.7425q-2.4 0-2.4 2.4z" clip-path="url(#a)" fill="#fff" stroke="#fff"/>
<g clip-path="url(#a)">
<g transform="translate(783.86 593.32) rotate(90) scale(.08 -.08)">
<use xlink:href="#e"/>
<use x="44.083984" xlink:href="#l"/>
<use x="105.607422" xlink:href="#g"/>
<use x="144.970703" xlink:href="#i"/>
<use x="242.382812" xlink:href="#k"/>
<use x="270.166016" xlink:href="#h"/>
<use x="333.544922" xlink:href="#f"/>
<use x="394.824219" xlink:href="#j"/>
</g>
</g>
<path d="m849.87 593.32v33.808q0 2.4 2.4 2.4h7.7425q2.4 0 2.4-2.4v-33.808q0-2.4-2.4-2.4h-7.7425q-2.4 0-2.4 2.4z" clip-path="url(#a)" fill="#fff" stroke="#fff"/>
<g clip-path="url(#a)">
<g transform="translate(853.93 593.32) rotate(90) scale(.08 -.08)">
<use xlink:href="#e"/>
<use x="44.083984" xlink:href="#l"/>
<use x="105.607422" xlink:href="#g"/>
<use x="144.970703" xlink:href="#i"/>
<use x="242.382812" xlink:href="#k"/>
<use x="270.166016" xlink:href="#h"/>
<use x="333.544922" xlink:href="#f"/>
<use x="394.824219" xlink:href="#j"/>
</g>
</g>
<path d="m1162 593.32v33.808q0 2.4 2.4 2.4h7.7425q2.4 0 2.4-2.4v-33.808q0-2.4-2.4-2.4h-7.7425q-2.4 0-2.4 2.4z" clip-path="url(#a)" fill="#fff" stroke="#fff"/>
<g clip-path="url(#a)">
<g transform="translate(1166.1 593.32) rotate(90) scale(.08 -.08)">
<use xlink:href="#e"/>
<use x="44.083984" xlink:href="#l"/>
<use x="105.607422" xlink:href="#g"/>
<use x="144.970703" xlink:href="#i"/>
<use x="242.382812" xlink:href="#k"/>
<use x="270.166016" xlink:href="#h"/>
<use x="333.544922" xlink:href="#f"/>
<use x="394.824219" xlink:href="#j"/>
</g>
</g>
<path d="m1248 593.32v33.808q0 2.4 2.4 2.4h7.7425q2.4 0 2.4-2.4v-33.808q0-2.4-2.4-2.4h-7.7425q-2.4 0-2.4 2.4z" clip-path="url(#a)" fill="#fff" stroke="#fff"/>
<g clip-path="url(#a)">
<g transform="translate(1252.1 593.32) rotate(90) scale(.08 -.08)">
<use xlink:href="#e"/>
<use x="44.083984" xlink:href="#l"/>
<use x="105.607422" xlink:href="#g"/>
<use x="144.970703" xlink:href="#i"/>
<use x="242.382812" xlink:href="#k"/>
<use x="270.166016" xlink:href="#h"/>
<use x="333.544922" xlink:href="#f"/>
<use x="394.824219" xlink:href="#j"/>
</g>
</g>
<defs>
<path id="b" d="m0 8.6603c2.2967 0 4.4997-0.9125 6.1237-2.5365 1.624-1.624 2.5365-3.827 2.5365-6.1237s-0.9125-4.4997-2.5365-6.1237c-1.624-1.624-3.827-2.5365-6.1237-2.5365s-4.4997 0.9125-6.1237 2.5365c-1.624 1.624-2.5365 3.827-2.5365 6.1237s0.9125 4.4997 2.5365 6.1237c1.624 1.624 3.827 2.5365 6.1237 2.5365z"/>
</defs>
<g clip-path="url(#a)" fill="#ffffff" stroke="#ffffff">
<use x="59.878788" y="661.818182" xlink:href="#b"/>
<use x="69.433914" y="661.818182" xlink:href="#b"/>
<use x="82.174081" y="661.818182" xlink:href="#b"/>
<use x="98.099291" y="661.818182" xlink:href="#b"/>
<use x="117.209542" y="661.818182" xlink:href="#b"/>
<use x="139.504836" y="661.818182" xlink:href="#b"/>
<use x="164.985171" y="661.818182" xlink:href="#b"/>
<use x="193.650548" y="661.818182" xlink:href="#b"/>
<use x="225.500967" y="661.818182" xlink:href="#b"/>
<use x="260.536428" y="661.818182" xlink:href="#b"/>
<use x="298.756931" y="661.818182" xlink:href="#b"/>
<use x="340.162476" y="661.818182" xlink:href="#b"/>
<use x="384.753063" y="661.818182" xlink:href="#b"/>
<use x="432.528691" y="661.818182" xlink:href="#b"/>
<use x="483.489362" y="661.818182" xlink:href="#b"/>
<use x="537.635074" y="661.818182" xlink:href="#b"/>
<use x="594.965828" y="661.818182" xlink:href="#b"/>
<use x="655.481625" y="661.818182" xlink:href="#b"/>
<use x="719.182463" y="661.818182" xlink:href="#b"/>
<use x="786.068343" y="661.818182" xlink:href="#b"/>
<use x="856.139265" y="661.818182" xlink:href="#b"/>
<use x="929.395229" y="661.818182" xlink:href="#b"/>
<use x="1005.836235" y="661.818182" xlink:href="#b"/>
<use x="1085.462282" y="661.818182" xlink:href="#b"/>
<use x="1168.273372" y="661.818182" xlink:href="#b"/>
<use x="1254.269504" y="661.818182" xlink:href="#b"/>
<use x="1257.454545" y="454.012734" xlink:href="#b"/>
<use x="349.643505" y="31.515152" xlink:href="#b"/>
<use x="64.656351" y="454.012734" xlink:href="#b"/>
<use x="98.099291" y="558.633167" xlink:href="#b"/>
<use x="114.378394" y="348.843577" xlink:href="#b"/>
<use x="260.536428" y="558.633167" xlink:href="#b"/>
<use x="434.618875" y="137.522433" xlink:href="#b"/>
<use x="574.263056" y="348.843577" xlink:href="#b"/>
<use x="1088.647324" y="454.012734" xlink:href="#b"/>
<use x="929.395229" y="558.633167" xlink:href="#b"/>
<use x="1005.836235" y="558.633167" xlink:href="#b"/>
<use x="1085.462282" y="558.633167" xlink:href="#b"/>
<use x="329.81109" y="243.316485" xlink:href="#b"/>
<use x="384.753063" y="558.633167" xlink:href="#b"/>
<use x="591.382656" y="348.843577" xlink:href="#b"/>
<use x="483.489362" y="558.633167" xlink:href="#b"/>
<use x="537.635074" y="558.633167" xlink:href="#b"/>
<use x="625.223727" y="454.012734" xlink:href="#b"/>
<use x="719.182463" y="558.633167" xlink:href="#b"/>
<use x="594.965828" y="558.633167" xlink:href="#b"/>
<use x="655.481625" y="558.633167" xlink:href="#b"/>
<use x="319.459703" y="348.843577" xlink:href="#b"/>
<use x="340.162476" y="454.012734" xlink:href="#b"/>
<use x="340.162476" y="558.633167" xlink:href="#b"/>
<use x="298.756931" y="558.633167" xlink:href="#b"/>
<use x="117.209542" y="558.633167" xlink:href="#b"/>
<use x="166.046851" y="454.012734" xlink:href="#b"/>
<use x="139.504836" y="558.633167" xlink:href="#b"/>
<use x="193.650548" y="558.633167" xlink:href="#b"/>
<use x="82.174081" y="558.633167" xlink:href="#b"/>
<use x="59.878788" y="558.633167" xlink:href="#b"/>
<use x="69.433914" y="558.633167" xlink:href="#b"/>
<use x="164.985171" y="558.633167" xlink:href="#b"/>
<use x="225.500967" y="558.633167" xlink:href="#b"/>
<use x="432.528691" y="558.633167" xlink:href="#b"/>
<use x="786.068343" y="558.633167" xlink:href="#b"/>
<use x="856.139265" y="558.633167" xlink:href="#b"/>
<use x="1168.273372" y="558.633167" xlink:href="#b"/>
<use x="1254.269504" y="558.633167" xlink:href="#b"/>
</g>
<g clip-path="url(#a)">
<g transform="translate(31.614 664.58) scale(.1 -.1)">
<defs>
<path id="bo" d="m9.8125 72.906h9.8594v-36.047l35.266 36.047h12.641l-28.172-28.812 29.641-44.094h-10.75l-25.281 37.547-13.344-13.625v-23.922h-9.8594z"/>
<path id="t" d="m18.109 8.2031v-29h-9.0312v75.484h9.0312v-8.2969q2.8438 4.875 7.1562 7.2344 4.3281 2.375 10.328 2.375 9.9688 0 16.188-7.9062 6.2344-7.9062 6.2344-20.797t-6.2344-20.812q-6.2188-7.9062-16.188-7.9062-6 0-10.328 2.375-4.3125 2.375-7.1562 7.25zm30.578 19.094q0 9.9062-4.0781 15.547t-11.203 5.6406q-7.1406 0-11.219-5.6406t-4.0781-15.547 4.0781-15.547 11.219-5.6406q7.125 0 11.203 5.6406t4.0781 15.547z"/>
<path id="p" d="m34.281 27.484q-10.891 0-15.094-2.4844t-4.2031-8.5q0-4.7812 3.1562-7.5938 3.1562-2.7969 8.5625-2.7969 7.4844 0 12 5.2969t4.5156 14.078v2zm17.922 3.7188v-31.203h-8.9844v8.2969q-3.0781-4.9688-7.6719-7.3438t-11.234-2.375q-8.3906 0-13.359 4.7188-4.9531 4.7188-4.9531 12.625 0 9.2188 6.1719 13.906 6.1875 4.6875 18.438 4.6875h12.609v0.89062q0 6.2031-4.0781 9.5938t-11.453 3.3906q-4.6875 0-9.1406-1.125-4.4375-1.125-8.5312-3.375v8.3125q4.9219 1.9062 9.5625 2.8438 4.6406 0.95312 9.0312 0.95312 11.875 0 17.734-6.1562 5.8594-6.1406 5.8594-18.641z"/>
<path id="ai" d="m48.781 52.594v-8.4062q-3.8125 2.1094-7.6406 3.1562t-7.7344 1.0469q-8.75 0-13.594-5.5469-4.8281-5.5312-4.8281-15.547t4.8281-15.562q4.8438-5.5312 13.594-5.5312 3.9062 0 7.7344 1.0469t7.6406 3.1562v-8.3125q-3.7656-1.75-7.7969-2.625-4.0156-0.89062-8.5625-0.89062-12.359 0-19.641 7.7656-7.2656 7.7656-7.2656 20.953 0 13.375 7.3438 21.031 7.3594 7.6719 20.156 7.6719 4.1406 0 8.0938-0.85938 3.9531-0.84375 7.6719-2.5469z"/>
<path id="x" d="m18.062 25.203v-18.031h12.797q6.1562 0 9.375 2.3125 3.2188 2.3281 3.2188 6.7344 0 4.3906-3.2188 6.6875t-9.375 2.2969zm0 22.312v-15.141h11.828q5.0781 0 8.2969 2.0156 3.2188 2.0312 3.2188 5.6562 0 3.6094-3.2188 5.5312-3.2188 1.9375-8.2969 1.9375zm-8.9844 7.1719h21.391q9.625 0 14.797-3.5156t5.1719-10.016q0-5.0156-2.6406-7.9844-2.625-2.9531-7.8125-3.6719 6.2031-1.1719 9.625-4.8906 3.4219-3.7031 3.4219-9.2812 0-7.3125-5.6406-11.328-5.6406-4-16.094-4h-22.219z"/>
<path id="v" d="m55.906 54.688v-54.688h-8.9375v43.891l-26.359-43.891h-11.531v54.688h8.9375v-43.797l26.328 43.797z"/>
<path id="az" d="m56.297 0h-47.219v54.688h9.0312v-47.516h29.156v47.516h9.0312v-47.516h7.1875v-20.984h-7.1875z"/>
</defs>
<use xlink:href="#bo"/>
<use x="70.996094" xlink:href="#t"/>
<use x="134.472656" xlink:href="#p"/>
<use x="195.751953" xlink:href="#ai"/>
<use x="250.732422" xlink:href="#p"/>
<use x="312.011719" xlink:href="#x"/>
<use x="370.947266" xlink:href="#v"/>
<use x="435.9375" xlink:href="#az"/>
<use x="504.003906" xlink:href="#p"/>
</g>
</g>
<g clip-path="url(#a)">
<g transform="translate(41.835 664.58) scale(.1 -.1)">
<defs>
<path id="as" d="m9.0781 54.688h13.141l15.531-36.625 15.578 36.625h13.031v-54.688h-9.0312v46.094l-15.094-35.594h-8.9844l-15.141 35.594v-46.094h-9.0312z"/>
<path id="ah" d="m32.172-5.0781q-3.7969-9.7656-7.4219-12.734-3.6094-2.9844-9.6562-2.9844h-7.1875v7.5156h5.2812q3.7031 0 5.75 1.7656 2.0625 1.75 4.5469 8.2969l1.6094 4.0938-22.109 53.812h9.5156l17.094-42.766 17.094 42.766h9.5156z"/>
<path id="ab" d="m2.9375 54.688h52.391v-7.1719h-21.781v-47.516h-8.8438v47.516h-21.766z"/>
<path id="ac" d="m3.7188 0v7.4688q8.875 1.375 11.609 7.5156 3.3281 8.6562 3.3281 30.766v8.9375h36.953v-54.688h-8.9844v47.516h-18.984v-5.4219q0-21.094-4.2969-30.562-4.5938-10.109-19.625-11.531z"/>
<path id="aw" d="m43.453 16.219q0 4.3906-3.2031 6.6875-3.1875 2.2969-9.3438 2.2969h-12.797v-18.031h12.797q6.1562 0 9.3438 2.3125 3.2031 2.3281 3.2031 6.7344zm-34.375 38.469h9.0312v-22.312h13.188q10.453 0 16.094-3.9844 5.6406-3.9688 5.6406-12.172t-5.6406-12.219q-5.6406-4-16.094-4h-22.219z"/>
</defs>
<use xlink:href="#ai"/>
<use x="54.980469" xlink:href="#as"/>
<use x="130.419922" xlink:href="#ah"/>
<use x="189.599609" xlink:href="#ab"/>
<use x="247.851562" xlink:href="#v"/>
<use x="312.841797" xlink:href="#ac"/>
<use x="376.757812" xlink:href="#p"/>
<use x="438.037109" xlink:href="#ai"/>
<use x="493.017578" xlink:href="#aw"/>
</g>
</g>
<g clip-path="url(#a)">
<g transform="translate(80.585 664.58) scale(.1 -.1)">
<defs>
<path id="ar" d="m11.719 12.406h10.297v-8.4062l-8-15.625h-6.2969l4 15.625z"/>
</defs>
<use xlink:href="#ar"/>
</g>
</g>
<g clip-path="url(#a)">
<g transform="translate(82.027 664.58) scale(.1 -.1)">
<defs>
<path id="aj" d="m56.297 54.688v-54.688h-9.0312v47.516h-29.156v-47.516h-9.0312v54.688z"/>
<path id="s" d="m30.609 48.391q-7.2188 0-11.422-5.6406t-4.2031-15.453 4.1719-15.453q4.1875-5.6406 11.453-5.6406 7.1875 0 11.375 5.6562 4.2031 5.6719 4.2031 15.438 0 9.7188-4.2031 15.406-4.1875 5.6875-11.375 5.6875zm0 7.6094q11.719 0 18.406-7.625 6.7031-7.6094 6.7031-21.078 0-13.422-6.7031-21.078-6.6875-7.6406-18.406-7.6406-11.766 0-18.438 7.6406-6.6562 7.6562-6.6562 21.078 0 13.469 6.6562 21.078 6.6719 7.625 18.438 7.625z"/>
</defs>
<use xlink:href="#aj"/>
<use x="65.380859" xlink:href="#s"/>
<use x="126.5625" xlink:href="#ab"/>
<use x="184.814453" xlink:href="#s"/>
<use x="245.996094" xlink:href="#as"/>
</g>
</g>
<g clip-path="url(#a)">
<g transform="translate(87.858 664.58) scale(.1 -.1)">
<defs>
<path id="ak" d="m9.0781 54.688h8.9375v-25.688l25.344 25.688h11.031l-20.891-21.141 23.578-33.547h-10.062l-19.375 27.594-9.625-9.7656v-17.828h-8.9375z"/>
<path id="ax" d="m50.25 7.1719h23.141v47.516h9.0312v-54.688h-73.344v54.688h9.0312v-47.516h23.109v47.516h9.0312z"/>
<path id="bg" d="m18.453 38.922q0-4.0625 3.125-6.3594 3.125-2.2812 8.9375-2.2812h12.109v17.234h-12.109q-5.8125 0-8.9375-2.25t-3.125-6.3438zm-12.781-38.922 16.688 23.969q-5.6562 1.2812-9.4219 4.625-3.75 3.3438-3.75 10.328 0 7.9062 5.2344 11.828 5.25 3.9375 15.859 3.9375h21.375v-54.688h-9.0312v23.094h-11.172l-16.125-23.094z"/>
<path id="u" d="m9.0781 54.688h9.0312v-22.312h29.156v22.312h9.0312v-54.688h-9.0312v25.203h-29.156v-25.203h-9.0312z"/>
</defs>
<use xlink:href="#ak"/>
<use x="60.400391" xlink:href="#p"/>
<use x="121.679688" xlink:href="#ax"/>
<use x="213.183594" xlink:href="#ac"/>
<use x="277.099609" xlink:href="#bg"/>
<use x="337.255859" xlink:href="#u"/>
<use x="402.636719" xlink:href="#ah"/>
<use x="461.816406" xlink:href="#ac"/>
<use x="525.732422" xlink:href="#p"/>
</g>
</g>
<g clip-path="url(#a)">
<g transform="translate(130.61 664.58) scale(.1 -.1)">
<defs>
<path id="bj" d="m34.469 29.5q6.0625-1.1719 9.4219-4.75 3.375-3.5625 3.375-8.8281 0-8.4531-6.2969-12.906-6.2969-4.4375-17.922-4.4375-3.9062 0-8.0312 0.6875t-8.5156 2.0469v8.3594q3.4688-1.8125 7.6094-2.7188 4.1562-0.89062 8.6875-0.89062 7.375 0 11.5 2.7344t4.125 7.125q0 4.2969-3.6562 6.9062t-10.344 2.6094h-7.2344v7.4219h7.5625q5.6719 0 8.9688 2.1719t3.2969 5.5938q0 3.125-3.4062 5.375-3.3906 2.25-9.1875 2.25-3.4688 0-7.4062-0.64062-3.9219-0.64062-8.6719-2.0469v8.1562q4.7969 1.1719 8.9375 1.75 4.1562 0.59375 7.8594 0.59375 9.5781 0 15.109-3.8438 5.5469-3.8281 5.5469-10.719 0-4.5312-2.9375-7.6875-2.9219-3.1406-8.3906-4.3125z"/>
</defs>
<use xlink:href="#t"/>
<use x="63.476562" xlink:href="#p"/>
<use x="124.755859" xlink:href="#bj"/>
</g>
</g>
<g clip-path="url(#a)">
<g transform="translate(163.18 664.58) scale(.1 -.1)">
<defs>
<path id="aq" d="m4.8906 31.391h26.312v-8h-26.312z"/>
</defs>
<use xlink:href="#aq"/>
</g>
</g>
<g clip-path="url(#a)">
<g transform="translate(175.12 664.58) scale(.1 -.1)">
<defs>
<path id="at" d="m21.625 7.1719h26.078v40.344h-18.891v-6.8438q0-20.109-5.7656-30.859zm-13.031 0q4.4375 1.9531 6.3906 6.1094 4.7969 10.297 4.7969 31.062v10.344h36.953v-47.516h7.1875v-20.984h-7.1875v13.812h-44.328v-13.812h-7.1875v20.984z"/>
<path id="bl" d="m9.0781 0v54.688h38.578v-7.1719h-29.547v-47.516z"/>
<path id="ba" d="m55.906 54.688v-54.688h-8.9375v43.891l-26.359-43.891h-11.531v54.688h8.9375v-43.797l26.328 43.797zm-38.688 20.828h5.7656q0.53125-3.6562 2.8906-5.5 2.375-1.8281 6.625-1.8281 4.2031 0 6.5469 1.8125t2.9688 5.5156h5.7656q-0.48438-6.9844-4.3438-10.5t-10.938-3.5156-10.938 3.5156-4.3438 10.5z"/>
</defs>
<use xlink:href="#at"/>
<use x="69.140625" xlink:href="#t"/>
<use x="132.617188" xlink:href="#ah"/>
<use x="191.796875" xlink:href="#bl"/>
<use x="244.335938" xlink:href="#s"/>
<use x="305.517578" xlink:href="#ba"/>
</g>
</g>
<g clip-path="url(#a)">
<g transform="translate(223.91 664.58) scale(.1 -.1)">
<use xlink:href="#ar"/>
</g>
</g>
<g clip-path="url(#a)">
<g transform="translate(244.58 664.58) scale(.1 -.1)">
<defs>
<path id="ay" d="m41.016 0v23h-16.75q-7.4688 0-12.453 4.6406-4.4844 4.2031-4.4844 13.188v13.859h8.9844v-13.031q0-5.7188 2.5312-8.5938 2.5938-2.8906 7.6719-2.8906h14.5v24.516h8.9844v-54.688z"/>
<path id="bm" d="m31.109 56q11.719 0 18.406-7.625 6.6875-7.6094 6.6875-21.078 0-13.422-6.6875-21.078-6.6875-7.6406-18.406-7.6406-11.766 0-18.266 7.4219t-6.8438 21.297l-0.28125 11.188q-0.25 5.7969-0.25 7.8125 0 7.8125 2.8281 13.562 4.4531 9.0312 12.141 12.938t20.578 4.0156q5.9531 0.046875 8.5938 0.875l2.4844-7.125q-2.3906-0.98438-4.5781-1.0312l-12.219-0.82812q-6.1406-0.4375-9.8594-2.5938-9.7188-5.7031-10.641-13.172l-0.34375-2.7344q6.3438 5.7969 16.656 5.7969zm0-7.6094q-7.2344 0-11.438-5.6406-4.1875-5.6406-4.1875-15.453t4.1719-15.453 11.453-5.6406q7.1719 0 11.375 5.6562 4.2031 5.6719 4.2031 15.438 0 9.7188-4.2031 15.406t-11.375 5.6875z"/>
<path id="bi" d="m61.047 54.688h8.9844v-54.688h-8.9844zm4.5 1.3125m-22.094-39.781q0 4.3906-3.2031 6.6875-3.1875 2.2969-9.3438 2.2969h-12.797v-18.031h12.797q6.1562 0 9.3438 2.3125 3.2031 2.3281 3.2031 6.7344zm-34.375 38.469h9.0312v-22.312h13.188q10.453 0 16.094-3.9844 5.6406-3.9688 5.6406-12.172t-5.6406-12.219q-5.6406-4-16.094-4h-22.219z"/>
</defs>
<use xlink:href="#ay"/>
<use x="59.082031" xlink:href="#ab"/>
<use x="117.333984" xlink:href="#s"/>
<use x="178.515625" xlink:href="#bm"/>
<use x="240.185547" xlink:href="#bi"/>
</g>
</g>
<g clip-path="url(#a)">
<g transform="translate(269.37 664.58) scale(.1 -.1)">
<defs>
<path id="bn" d="m9.8125 72.906h14.703l18.594-49.609 18.703 49.609h14.703v-72.906h-9.625v64.016l-18.797-50h-9.9062l-18.797 50v-64.016h-9.5781z"/>
<path id="w" d="m56.203 29.594v-4.3906h-41.312q0.59375-9.2812 5.5938-14.141t13.938-4.8594q5.1719 0 10.031 1.2656t9.6562 3.8125v-8.5q-4.8438-2.0469-9.9219-3.125t-10.297-1.0781q-13.094 0-20.734 7.6094-7.6406 7.625-7.6406 20.625 0 13.422 7.25 21.297 7.25 7.8906 19.562 7.8906 11.031 0 17.453-7.1094 6.4219-7.0938 6.4219-19.297zm-8.9844 2.6406q-0.09375 7.3594-4.125 11.75-4.0312 4.4062-10.672 4.4062-7.5156 0-12.031-4.25t-5.2031-11.969z"/>
</defs>
<use xlink:href="#bn"/>
<use x="86.279297" xlink:href="#p"/>
<use x="147.558594" xlink:href="#ac"/>
<use x="211.474609" xlink:href="#w"/>
<use x="272.998047" xlink:href="#u"/>
<use x="338.378906" xlink:href="#aw"/>
<use x="397.314453" xlink:href="#ak"/>
<use x="457.714844" xlink:href="#v"/>
<use x="522.705078" xlink:href="#ba"/>
</g>
</g>
<g clip-path="url(#a)">
<g transform="translate(323.8 664.58) scale(.1 -.1)">
<use xlink:href="#aj"/>
<use x="65.380859" xlink:href="#t"/>
<use x="128.857422" xlink:href="#v"/>
<use x="193.847656" xlink:href="#u"/>
<use x="259.228516" xlink:href="#az"/>
</g>
</g>
<g clip-path="url(#a)">
<g transform="translate(348.69 664.58) scale(.1 -.1)">
<use xlink:href="#aj"/>
<use x="65.380859" xlink:href="#s"/>
<use x="126.5625" xlink:href="#ay"/>
<use x="185.644531" xlink:href="#ah"/>
<use x="244.824219" xlink:href="#x"/>
<use x="303.759766" xlink:href="#ai"/>
<use x="358.740234" xlink:href="#ab"/>
<use x="416.992188" xlink:href="#x"/>
<use x="475.927734" xlink:href="#s"/>
<use x="537.109375" xlink:href="#x"/>
<use x="596.044922" xlink:href="#p"/>
<use x="657.324219" xlink:href="#ac"/>
</g>
</g>
<g clip-path="url(#a)">
<g transform="translate(430.94 664.58) scale(.1 -.1)">
<use xlink:href="#ar"/>
</g>
</g>
<g clip-path="url(#a)">
<g transform="translate(474.38 664.58) scale(.1 -.1)">
<use xlink:href="#ak"/>
<use x="60.400391" xlink:href="#p"/>
<use x="121.679688" xlink:href="#ak"/>
</g>
</g>
<g clip-path="url(#a)">
<g transform="translate(531.31 664.58) scale(.1 -.1)">
<use xlink:href="#s"/>
<use x="61.181641" xlink:href="#u"/>
</g>
</g>
<g clip-path="url(#a)">
<g transform="translate(578.91 664.58) scale(.1 -.1)">
<use xlink:href="#aj"/>
<use x="65.380859" xlink:href="#w"/>
<use x="126.904297" xlink:href="#t"/>
<use x="190.380859" xlink:href="#w"/>
<use x="251.904297" xlink:href="#at"/>
</g>
</g>
<g clip-path="url(#a)">
<g transform="translate(644.93 664.58) scale(.1 -.1)">
<defs>
<path id="bh" d="m53.609 48.391q-7.2188 0-11.422-5.6406t-4.2031-15.453 4.1719-15.453q4.1875-5.6406 11.453-5.6406 7.1875 0 11.375 5.6562 4.2031 5.6719 4.2031 15.438 0 9.7188-4.2031 15.406-4.1875 5.6875-11.375 5.6875zm-24.797-15.531q0.92188 9.2812 7 16.203 6.0781 6.9375 17.797 6.9375t18.406-7.625q6.7031-7.6094 6.7031-21.078 0-13.422-6.7031-21.078-6.6875-7.6406-18.406-7.6406-11.766 0-18.188 7.375t-6.8594 19.484h-10.156v-25.438h-8.9844v54.688h8.9844v-21.828z"/>
</defs>
<use xlink:href="#u"/>
<use x="65.380859" xlink:href="#w"/>
<use x="126.904297" xlink:href="#bh"/>
</g>
</g>
<g clip-path="url(#a)">
<g transform="translate(697.73 664.58) scale(.1 -.1)">
<use xlink:href="#x"/>
<use x="58.935547" xlink:href="#v"/>
<use x="123.925781" xlink:href="#u"/>
<use x="189.306641" xlink:href="#s"/>
<use x="250.488281" xlink:href="#x"/>
<use x="309.423828" xlink:href="#p"/>
<use x="370.703125" xlink:href="#ab"/>
</g>
</g>
<g clip-path="url(#a)">
<g transform="translate(784.38 664.58) scale(.1 -.1)">
<defs>
<path id="be" d="m11.719 12.406h10.297v-12.406h-10.297zm0 39.297h10.297v-12.391h-10.297z"/>
</defs>
<use xlink:href="#be"/>
</g>
</g>
<g clip-path="url(#a)">
<g transform="translate(854.34 664.58) scale(.1 -.1)">
<use xlink:href="#aq"/>
</g>
</g>
<g clip-path="url(#a)">
<g transform="translate(919.81 664.58) scale(.1 -.1)">
<defs>
<path id="bp" d="m9.8125 0v72.906h45.359v-8.3125h-35.5v-64.594z"/>
</defs>
<use xlink:href="#bp"/>
<use x="60.986328" xlink:href="#at"/>
<use x="130.126953" xlink:href="#w"/>
</g>
</g>
<g clip-path="url(#a)">
<g transform="translate(998.25 664.58) scale(.1 -.1)">
<defs>
<path id="bk" d="m40.578 54.688h8.9375v-25.688l23.875 25.688h10.453l-19.641-21.047 22.469-33.641h-9.625l-18.406 27.641-9.125-9.8125v-17.828h-8.9375v17.828l-9.125 9.8125-18.422-27.641h-9.6094l22.453 33.641-19.625 21.047h10.453l23.875-25.688z"/>
</defs>
<use xlink:href="#bk"/>
<use x="90.087891" xlink:href="#w"/>
</g>
</g>
<g clip-path="url(#a)">
<g transform="translate(1067.6 664.58) scale(.1 -.1)">
<use xlink:href="#ax"/>
<use x="91.503906" xlink:href="#v"/>
<use x="156.494141" xlink:href="#t"/>
<use x="219.970703" xlink:href="#as"/>
<use x="295.410156" xlink:href="#p"/>
</g>
</g>
<g clip-path="url(#a)">
<g transform="translate(1165.6 664.58) scale(.1 -.1)">
<defs>
<path id="bd" d="m19.094 12.406h9.9062v-12.406h-9.9062zm9.625 7.1719h-9.3281v7.5156q0 4.9375 1.3594 8.1094 1.375 3.1719 5.7656 7.375l4.3906 4.3438q2.7812 2.5938 4.0312 4.8906t1.25 4.6875q0 4.3438-3.2031 7.0312t-8.4688 2.6875q-3.8594 0-8.2344-1.7188-4.3594-1.7031-9.1094-4.9844v9.1875q4.5938 2.7812 9.2969 4.1406 4.7188 1.375 9.75 1.375 8.9844 0 14.422-4.7344 5.4531-4.7344 5.4531-12.5 0-3.7188-1.7656-7.0625-1.75-3.3438-6.1406-7.5312l-4.2969-4.2031q-2.2969-2.2969-3.25-3.5938t-1.3438-2.5156q-0.29688-1.0156-0.4375-2.4844t-0.14062-4z"/>
</defs>
<use xlink:href="#bd"/>
</g>
</g>
<g clip-path="url(#a)">
<g transform="translate(1252.5 664.58) scale(.1 -.1)">
<use xlink:href="#aq"/>
</g>
</g>
<g clip-path="url(#a)">
<g transform="translate(1236.4 456.77) scale(.1 -.1)">
<defs>
<path id="am" d="m9.8125 72.906h9.8594v-72.906h-9.8594z"/>
<path id="bb" d="m9.8125 72.906h14.703l18.594-49.609 18.703 49.609h14.703v-72.906h-9.625v64.016l-18.797-50h-9.9062l-18.797 50v-64.016h-9.5781z"/>
</defs>
<use xlink:href="#am"/>
<use x="29.492188" xlink:href="#bb"/>
<use x="115.771484" xlink:href="#y"/>
<use x="176.074219" xlink:href="#al"/>
<use x="231.787109" xlink:href="#am"/>
<use x="261.279297" xlink:href="#af"/>
<use x="331.103516" xlink:href="#am"/>
<use x="360.595703" xlink:href="#e"/>
</g>
</g>
<g clip-path="url(#a)">
<g transform="translate(341.69 34.275) scale(.1 -.1)">
<defs>
<path id="c" d="m12.406 8.2969h16.109v55.625l-17.531-3.5156v8.9844l17.438 3.5156h9.8594v-64.609h16.109v-8.2969h-41.984z"/>
<path id="d" d="m10.688 12.406h10.312v-12.406h-10.312z"/>
</defs>
<use xlink:href="#c"/>
<use x="63.623047" xlink:href="#d"/>
<use x="95.410156" xlink:href="#c"/>
</g>
</g>
<g clip-path="url(#a)">
<g transform="translate(56.705 456.77) scale(.1 -.1)">
<defs>
<path id="o" d="m19.188 8.2969h34.422v-8.2969h-46.281v8.2969q5.6094 5.8125 15.297 15.594 9.7031 9.7969 12.188 12.641 4.7344 5.3125 6.6094 9 1.8906 3.6875 1.8906 7.25 0 5.8125-4.0781 9.4688-4.0781 3.6719-10.625 3.6719-4.6406 0-9.7969-1.6094-5.1406-1.6094-11-4.8906v9.9688q5.9531 2.3906 11.125 3.6094 5.1875 1.2188 9.4844 1.2188 11.328 0 18.062-5.6719 6.7344-5.6562 6.7344-15.125 0-4.5-1.6875-8.5312-1.6719-4.0156-6.125-9.4844-1.2188-1.4219-7.7656-8.1875-6.5312-6.7656-18.453-18.922z"/>
</defs>
<use xlink:href="#c"/>
<use x="63.623047" xlink:href="#d"/>
<use x="95.410156" xlink:href="#o"/>
</g>
</g>
<g clip-path="url(#a)">
<g transform="translate(90.148 561.39) scale(.1 -.1)">
<defs>
<path id="m" d="m40.578 39.312q7.0781-1.5156 11.047-6.3125 3.9844-4.7812 3.9844-11.812 0-10.781-7.4219-16.703-7.4219-5.9062-21.094-5.9062-4.5781 0-9.4375 0.90625t-10.031 2.7188v9.5156q4.0938-2.3906 8.9688-3.6094 4.8906-1.2188 10.219-1.2188 9.2656 0 14.125 3.6562t4.8594 10.641q0 6.4531-4.5156 10.078-4.5156 3.6406-12.562 3.6406h-8.5v8.1094h8.8906q7.2656 0 11.125 2.9062t3.8594 8.375q0 5.6094-3.9844 8.6094-3.9688 3.0156-11.391 3.0156-4.0625 0-8.7031-0.89062-4.6406-0.875-10.203-2.7188v8.7812q5.625 1.5625 10.531 2.3438t9.25 0.78125q11.234 0 17.766-5.1094 6.5469-5.0938 6.5469-13.781 0-6.0625-3.4688-10.234t-9.8594-5.7812z"/>
</defs>
<use xlink:href="#c"/>
<use x="63.623047" xlink:href="#d"/>
<use x="95.410156" xlink:href="#m"/>
</g>
</g>
<g clip-path="url(#a)">
<g transform="translate(106.43 351.6) scale(.1 -.1)">
<defs>
<path id="q" d="m37.797 64.312-24.906-38.922h24.906zm-2.5938 8.5938h12.406v-47.516h10.406v-8.2031h-10.406v-17.188h-9.8125v17.188h-32.906v9.5156z"/>
</defs>
<use xlink:href="#c"/>
<use x="63.623047" xlink:href="#d"/>
<use x="95.410156" xlink:href="#q"/>
</g>
</g>
<g clip-path="url(#a)">
<g transform="translate(252.58 561.39) scale(.1 -.1)">
<defs>
<path id="aa" d="m10.797 72.906h38.719v-8.3125h-29.688v-17.859q2.1406 0.73438 4.2812 1.0938 2.1562 0.35938 4.3125 0.35938 12.203 0 19.328-6.6875 7.1406-6.6875 7.1406-18.109 0-11.766-7.3281-18.297-7.3281-6.5156-20.656-6.5156-4.5938 0-9.3594 0.78125-4.75 0.78125-9.8281 2.3438v9.9219q4.3906-2.3906 9.0781-3.5625t9.9062-1.1719q8.4531 0 13.375 4.4375 4.9375 4.4375 4.9375 12.062 0 7.6094-4.9375 12.047-4.9219 4.4531-13.375 4.4531-3.9531 0-7.8906-0.875-3.9219-0.875-8.0156-2.7344z"/>
</defs>
<use xlink:href="#c"/>
<use x="63.623047" xlink:href="#d"/>
<use x="95.410156" xlink:href="#aa"/>
</g>
</g>
<g clip-path="url(#a)">
<g transform="translate(426.67 140.28) scale(.1 -.1)">
<defs>
<path id="z" d="m33.016 40.375q-6.6406 0-10.531-4.5469-3.875-4.5312-3.875-12.438 0-7.8594 3.875-12.438 3.8906-4.5625 10.531-4.5625t10.516 4.5625q3.875 4.5781 3.875 12.438 0 7.9062-3.875 12.438-3.875 4.5469-10.516 4.5469zm19.578 30.922v-8.9844q-3.7188 1.75-7.5 2.6719-3.7812 0.9375-7.5 0.9375-9.7656 0-14.922-6.5938-5.1406-6.5938-5.875-19.922 2.875 4.25 7.2188 6.5156 4.3594 2.2656 9.5781 2.2656 10.984 0 17.359-6.6719 6.375-6.6562 6.375-18.125 0-11.234-6.6406-18.031-6.6406-6.7812-17.672-6.7812-12.656 0-19.344 9.6875-6.6875 9.7031-6.6875 28.109 0 17.281 8.2031 27.562t22.016 10.281q3.7188 0 7.5-0.73438t7.8906-2.1875z"/>
</defs>
<use xlink:href="#c"/>
<use x="63.623047" xlink:href="#d"/>
<use x="95.410156" xlink:href="#z"/>
</g>
</g>
<g clip-path="url(#a)">
<g transform="translate(566.31 351.6) scale(.1 -.1)">
<defs>
<path id="ag" d="m8.2031 72.906h46.875v-4.2031l-26.469-68.703h-10.297l24.906 64.594h-35.016z"/>
</defs>
<use xlink:href="#c"/>
<use x="63.623047" xlink:href="#d"/>
<use x="95.410156" xlink:href="#ag"/>
</g>
</g>
<g clip-path="url(#a)">
<g transform="translate(1077.5 456.77) scale(.1 -.1)">
<use xlink:href="#c"/>
<use x="63.623047" xlink:href="#d"/>
<use x="95.410156" xlink:href="#c"/>
<use x="159.033203" xlink:href="#aa"/>
</g>
</g>
<g clip-path="url(#a)">
<g transform="translate(918.26 561.39) scale(.1 -.1)">
<use xlink:href="#c"/>
<use x="63.623047" xlink:href="#d"/>
<use x="95.410156" xlink:href="#c"/>
<use x="159.033203" xlink:href="#z"/>
</g>
</g>
<g clip-path="url(#a)">
<g transform="translate(994.7 561.39) scale(.1 -.1)">
<use xlink:href="#c"/>
<use x="63.623047" xlink:href="#d"/>
<use x="95.410156" xlink:href="#c"/>
<use x="159.033203" xlink:href="#ag"/>
</g>
</g>
<g clip-path="url(#a)">
<g transform="translate(1074.3 561.39) scale(.1 -.1)">
<defs>
<path id="ao" d="m31.781 34.625q-7.0312 0-11.062-3.7656-4.0156-3.7656-4.0156-10.344 0-6.5938 4.0156-10.359 4.0312-3.7656 11.062-3.7656t11.078 3.7812q4.0625 3.7969 4.0625 10.344 0 6.5781-4.0312 10.344-4.0156 3.7656-11.109 3.7656zm-9.8594 4.1875q-6.3438 1.5625-9.8906 5.9062-3.5312 4.3594-3.5312 10.609 0 8.7344 6.2188 13.812 6.2344 5.0781 17.062 5.0781 10.891 0 17.094-5.0781t6.2031-13.812q0-6.25-3.5469-10.609-3.5312-4.3438-9.8281-5.9062 7.125-1.6562 11.094-6.5 3.9844-4.8281 3.9844-11.797 0-10.609-6.4688-16.281-6.4688-5.6562-18.531-5.6562-12.047 0-18.531 5.6562-6.4688 5.6719-6.4688 16.281 0 6.9688 4 11.797 4.0156 4.8438 11.141 6.5zm-3.6094 15.578q0-5.6562 3.5312-8.8281 3.5469-3.1719 9.9375-3.1719 6.3594 0 9.9375 3.1719 3.5938 3.1719 3.5938 8.8281 0 5.6719-3.5938 8.8438-3.5781 3.1719-9.9375 3.1719-6.3906 0-9.9375-3.1719-3.5312-3.1719-3.5312-8.8438z"/>
</defs>
<use xlink:href="#c"/>
<use x="63.623047" xlink:href="#d"/>
<use x="95.410156" xlink:href="#c"/>
<use x="159.033203" xlink:href="#ao"/>
</g>
</g>
<g clip-path="url(#a)">
<g transform="translate(318.68 246.08) scale(.1 -.1)">
<defs>
<path id="an" d="m10.984 1.5156v8.9844q3.7188-1.7656 7.5156-2.6875 3.8125-0.92188 7.4844-0.92188 9.7656 0 14.906 6.5625 5.1562 6.5625 5.8906 19.953-2.8281-4.2031-7.1875-6.4531-4.3438-2.25-9.6094-2.25-10.938 0-17.312 6.6094-6.375 6.625-6.375 18.109 0 11.219 6.6406 18 6.6406 6.7969 17.672 6.7969 12.656 0 19.312-9.7031 6.6719-9.6875 6.6719-28.141 0-17.234-8.1875-27.516-8.1719-10.281-21.984-10.281-3.7188 0-7.5312 0.73438-3.7969 0.73438-7.9062 2.2031zm19.625 30.906q6.6406 0 10.516 4.5312 3.8906 4.5469 3.8906 12.469 0 7.8594-3.8906 12.422-3.875 4.5625-10.516 4.5625t-10.516-4.5625-3.875-12.422q0-7.9219 3.875-12.469 3.875-4.5312 10.516-4.5312z"/>
</defs>
<use xlink:href="#c"/>
<use x="63.623047" xlink:href="#d"/>
<use x="95.410156" xlink:href="#c"/>
<use x="159.033203" xlink:href="#an"/>
</g>
</g>
<g clip-path="url(#a)">
<g transform="translate(373.62 561.39) scale(.1 -.1)">
<defs>
<path id="ap" d="m31.781 66.406q-7.6094 0-11.453-7.5-3.8281-7.4844-3.8281-22.531 0-14.984 3.8281-22.484 3.8438-7.5 11.453-7.5 7.6719 0 11.5 7.5 3.8438 7.5 3.8438 22.484 0 15.047-3.8438 22.531-3.8281 7.5-11.5 7.5zm0 7.8125q12.266 0 18.734-9.7031 6.4688-9.6875 6.4688-28.141 0-18.406-6.4688-28.109-6.4688-9.6875-18.734-9.6875-12.25 0-18.719 9.6875-6.4688 9.7031-6.4688 28.109 0 18.453 6.4688 28.141 6.4688 9.7031 18.719 9.7031z"/>
</defs>
<use xlink:href="#c"/>
<use x="63.623047" xlink:href="#d"/>
<use x="95.410156" xlink:href="#o"/>
<use x="159.033203" xlink:href="#ap"/>
</g>
</g>
<g clip-path="url(#a)">
<g transform="translate(580.25 351.6) scale(.1 -.1)">
<use xlink:href="#c"/>
<use x="63.623047" xlink:href="#d"/>
<use x="95.410156" xlink:href="#o"/>
<use x="159.033203" xlink:href="#c"/>
</g>
</g>
<g clip-path="url(#a)">
<g transform="translate(472.36 561.39) scale(.1 -.1)">
<use xlink:href="#c"/>
<use x="63.623047" xlink:href="#d"/>
<use x="95.410156" xlink:href="#o"/>
<use x="159.033203" xlink:href="#m"/>
</g>
</g>
<g clip-path="url(#a)">
<g transform="translate(526.5 561.39) scale(.1 -.1)">
<use xlink:href="#c"/>
<use x="63.623047" xlink:href="#d"/>
<use x="95.410156" xlink:href="#o"/>
<use x="159.033203" xlink:href="#q"/>
</g>
</g>
<g clip-path="url(#a)">
<g transform="translate(614.09 456.77) scale(.1 -.1)">
<use xlink:href="#c"/>
<use x="63.623047" xlink:href="#d"/>
<use x="95.410156" xlink:href="#o"/>
<use x="159.033203" xlink:href="#aa"/>
</g>
</g>
<g clip-path="url(#a)">
<g transform="translate(708.05 561.39) scale(.1 -.1)">
<use xlink:href="#c"/>
<use x="63.623047" xlink:href="#d"/>
<use x="95.410156" xlink:href="#o"/>
<use x="159.033203" xlink:href="#z"/>
</g>
</g>
<g clip-path="url(#a)">
<g transform="translate(583.83 561.39) scale(.1 -.1)">
<use xlink:href="#c"/>
<use x="63.623047" xlink:href="#d"/>
<use x="95.410156" xlink:href="#o"/>
<use x="159.033203" xlink:href="#ag"/>
</g>
</g>
<g clip-path="url(#a)">
<g transform="translate(644.35 561.39) scale(.1 -.1)">
<use xlink:href="#c"/>
<use x="63.623047" xlink:href="#d"/>
<use x="95.410156" xlink:href="#o"/>
<use x="159.033203" xlink:href="#ao"/>
</g>
</g>
<g clip-path="url(#a)">
<g transform="translate(308.33 351.6) scale(.1 -.1)">
<use xlink:href="#c"/>
<use x="63.623047" xlink:href="#d"/>
<use x="95.410156" xlink:href="#o"/>
<use x="159.033203" xlink:href="#an"/>
</g>
</g>
<g clip-path="url(#a)">
<g transform="translate(329.03 456.77) scale(.1 -.1)">
<use xlink:href="#c"/>
<use x="63.623047" xlink:href="#d"/>
<use x="95.410156" xlink:href="#m"/>
<use x="159.033203" xlink:href="#ap"/>
</g>
</g>
<g clip-path="url(#a)">
<g transform="translate(329.03 561.39) scale(.1 -.1)">
<use xlink:href="#c"/>
<use x="63.623047" xlink:href="#d"/>
<use x="95.410156" xlink:href="#m"/>
<use x="159.033203" xlink:href="#c"/>
</g>
</g>
<g clip-path="url(#a)">
<g transform="translate(287.62 561.39) scale(.1 -.1)">
<use xlink:href="#c"/>
<use x="63.623047" xlink:href="#d"/>
<use x="95.410156" xlink:href="#m"/>
<use x="159.033203" xlink:href="#o"/>
</g>
</g>
<g clip-path="url(#a)">
<g transform="translate(106.08 561.39) scale(.1 -.1)">
<use xlink:href="#c"/>
<use x="63.623047" xlink:href="#d"/>
<use x="95.410156" xlink:href="#m"/>
<use x="159.033203" xlink:href="#m"/>
</g>
</g>
<g clip-path="url(#a)">
<g transform="translate(154.91 456.77) scale(.1 -.1)">
<use xlink:href="#c"/>
<use x="63.623047" xlink:href="#d"/>
<use x="95.410156" xlink:href="#m"/>
<use x="159.033203" xlink:href="#q"/>
</g>
</g>
<g clip-path="url(#a)">
<g transform="translate(128.37 561.39) scale(.1 -.1)">
<use xlink:href="#c"/>
<use x="63.623047" xlink:href="#d"/>
<use x="95.410156" xlink:href="#m"/>
<use x="159.033203" xlink:href="#aa"/>
</g>
</g>
<g clip-path="url(#a)">
<g transform="translate(182.52 561.39) scale(.1 -.1)">
<use xlink:href="#c"/>
<use x="63.623047" xlink:href="#d"/>
<use x="95.410156" xlink:href="#m"/>
<use x="159.033203" xlink:href="#z"/>
</g>
</g>
<g clip-path="url(#a)">
<g transform="translate(71.041 561.39) scale(.1 -.1)">
<use xlink:href="#c"/>
<use x="63.623047" xlink:href="#d"/>
<use x="95.410156" xlink:href="#m"/>
<use x="159.033203" xlink:href="#ag"/>
</g>
</g>
<g clip-path="url(#a)">
<g transform="translate(48.746 561.39) scale(.1 -.1)">
<use xlink:href="#c"/>
<use x="63.623047" xlink:href="#d"/>
<use x="95.410156" xlink:href="#m"/>
<use x="159.033203" xlink:href="#ao"/>
</g>
</g>
<g clip-path="url(#a)">
<g transform="translate(58.301 561.39) scale(.1 -.1)">
<use xlink:href="#c"/>
<use x="63.623047" xlink:href="#d"/>
<use x="95.410156" xlink:href="#m"/>
<use x="159.033203" xlink:href="#an"/>
</g>
</g>
<g clip-path="url(#a)">
<g transform="translate(153.85 561.39) scale(.1 -.1)">
<use xlink:href="#c"/>
<use x="63.623047" xlink:href="#d"/>
<use x="95.410156" xlink:href="#q"/>
<use x="159.033203" xlink:href="#ap"/>
</g>
</g>
<g clip-path="url(#a)">
<g transform="translate(214.37 561.39) scale(.1 -.1)">
<use xlink:href="#c"/>
<use x="63.623047" xlink:href="#d"/>
<use x="95.410156" xlink:href="#q"/>
<use x="159.033203" xlink:href="#c"/>
</g>
</g>
<g clip-path="url(#a)">
<g transform="translate(421.4 561.39) scale(.1 -.1)">
<use xlink:href="#c"/>
<use x="63.623047" xlink:href="#d"/>
<use x="95.410156" xlink:href="#q"/>
<use x="159.033203" xlink:href="#o"/>
</g>
</g>
<g clip-path="url(#a)">
<g transform="translate(774.94 561.39) scale(.1 -.1)">
<use xlink:href="#c"/>
<use x="63.623047" xlink:href="#d"/>
<use x="95.410156" xlink:href="#q"/>
<use x="159.033203" xlink:href="#m"/>
</g>
</g>
<g clip-path="url(#a)">
<g transform="translate(845.01 561.39) scale(.1 -.1)">
<use xlink:href="#c"/>
<use x="63.623047" xlink:href="#d"/>
<use x="95.410156" xlink:href="#q"/>
<use x="159.033203" xlink:href="#q"/>
</g>
</g>
<g clip-path="url(#a)">
<g transform="translate(1157.1 561.39) scale(.1 -.1)">
<use xlink:href="#c"/>
<use x="63.623047" xlink:href="#d"/>
<use x="95.410156" xlink:href="#q"/>
<use x="159.033203" xlink:href="#aa"/>
</g>
</g>
<g clip-path="url(#a)">
<g transform="translate(1243.1 561.39) scale(.1 -.1)">
<use xlink:href="#c"/>
<use x="63.623047" xlink:href="#d"/>
<use x="95.410156" xlink:href="#q"/>
<use x="159.033203" xlink:href="#z"/>
</g>
</g>
<defs>
<clipPath id="a">
<rect width="1317.3" height="693.33"/>
</clipPath>
</defs>
</svg>
