<?xml version="1.0" encoding="UTF-8"?>
<!DOCTYPE svg  PUBLIC '-//W3C//DTD SVG 1.1//EN'  'http://www.w3.org/Graphics/SVG/1.1/DTD/svg11.dtd'>
<svg width="1976pt" height="1040pt" version="1.1" viewBox="0 0 1976 1040" xmlns="http://www.w3.org/2000/svg" xmlns:xlink="http://www.w3.org/1999/xlink">
<metadata>
<rdf:RDF xmlns:cc="http://creativecommons.org/ns#" xmlns:dc="http://purl.org/dc/elements/1.1/" xmlns:rdf="http://www.w3.org/1999/02/22-rdf-syntax-ns#">
<cc:Work>
<dc:type rdf:resource="http://purl.org/dc/dcmitype/StillImage"/>
<dc:date>2021-01-21T01:17:30.284686</dc:date>
<dc:format>image/svg+xml</dc:format>
<dc:creator>
<cc:Agent>
<dc:title>Matplotlib v3.3.3, https://matplotlib.org/</dc:title>
</cc:Agent>
</dc:creator>
</cc:Work>
</rdf:RDF>
</metadata>
<defs>
<style type="text/css">*{stroke-linecap:butt;stroke-linejoin:round;}</style>
</defs>
<path d="m0 1040h1976v-1040h-1976z" fill="#fff"/>
<g fill="none" stroke="#000">
<path d="m539.72 47.273-409.29 190.78" clip-path="url(#a)"/>
<path d="m539.72 47.273-434.52 759.38" clip-path="url(#a)"/>
<path d="m539.72 47.273-225.64 759.38" clip-path="url(#a)"/>
<path d="m539.72 47.273-388.34 190.78" clip-path="url(#a)"/>
<path d="m539.72 47.273-80.519 759.38" clip-path="url(#a)"/>
<path d="m539.72 47.273-38.743 759.38" clip-path="url(#a)"/>
<path d="m539.72 47.273 5.2312 759.38" clip-path="url(#a)"/>
<path d="m539.72 47.273-369.47 190.78" clip-path="url(#a)"/>
<path d="m539.72 47.273 150.35 759.38" clip-path="url(#a)"/>
<path d="m539.72 47.273-307.36 190.78" clip-path="url(#a)"/>
<path d="m539.72 47.273 374.62 759.38" clip-path="url(#a)"/>
<path d="m539.72 47.273 468.06 759.38" clip-path="url(#a)"/>
<path d="m539.72 47.273 565.91 759.38" clip-path="url(#a)"/>
<path d="m539.72 47.273 651.19 190.78" clip-path="url(#a)"/>
<path d="m539.72 47.273-256.42 759.38" clip-path="url(#a)"/>
<path d="m539.72 47.273-120.1 759.38" clip-path="url(#a)"/>
<path d="m539.72 47.273 99.777 759.38" clip-path="url(#a)"/>
<path d="m539.72 47.273 315.25 759.38" clip-path="url(#a)"/>
<path d="m130.43 238.05-40.615 568.61" clip-path="url(#a)"/>
<path d="m130.43 238.05-34.019 568.61" clip-path="url(#a)"/>
<path d="m130.43 238.05-14.231 568.61" clip-path="url(#a)"/>
<path d="m130.43 238.05-1.0383 568.61" clip-path="url(#a)"/>
<path d="m130.43 238.05 14.353 568.61" clip-path="url(#a)"/>
<path d="m130.43 238.05 75.551 190.3" clip-path="url(#a)"/>
<path d="m105.21 806.66v186.07" clip-path="url(#a)"/>
<path d="m314.09 806.66v186.07" clip-path="url(#a)"/>
<path d="m151.38 238.05 118.73 190.3" clip-path="url(#a)"/>
<path d="m151.38 238.05-61.564 568.61" clip-path="url(#a)" stroke-dasharray="3.7,1.6"/>
<path d="m151.38 238.05-35.18 568.61" clip-path="url(#a)" stroke-dasharray="3.7,1.6"/>
<path d="m151.38 238.05-21.987 568.61" clip-path="url(#a)" stroke-dasharray="3.7,1.6"/>
<path d="m459.21 806.66v186.07" clip-path="url(#a)"/>
<path d="m500.98 806.66v186.07" clip-path="url(#a)"/>
<path d="m544.96 806.66v186.07" clip-path="url(#a)"/>
<path d="m170.26 238.05 175.35 190.3" clip-path="url(#a)"/>
<path d="m170.26 238.05-80.437 568.61" clip-path="url(#a)" stroke-dasharray="3.7,1.6"/>
<path d="m170.26 238.05-54.052 568.61" clip-path="url(#a)" stroke-dasharray="3.7,1.6"/>
<path d="m170.26 238.05-40.86 568.61" clip-path="url(#a)" stroke-dasharray="3.7,1.6"/>
<path d="m690.07 806.66v186.07" clip-path="url(#a)"/>
<path d="m232.37 238.05 361.69 190.3" clip-path="url(#a)"/>
<path d="m232.37 238.05-142.55 568.61" clip-path="url(#a)" stroke-dasharray="3.7,1.6"/>
<path d="m232.37 238.05-116.17 568.61" clip-path="url(#a)" stroke-dasharray="3.7,1.6"/>
<path d="m232.37 238.05-102.97 568.61" clip-path="url(#a)" stroke-dasharray="3.7,1.6"/>
<path d="m914.34 806.66v186.07" clip-path="url(#a)"/>
<path d="m1007.8 806.66-31.882 186.07" clip-path="url(#a)"/>
<path d="m1007.8 806.66 31.882 186.07" clip-path="url(#a)"/>
<path d="m1105.6 806.66v186.07" clip-path="url(#a)"/>
<path d="m1190.9 238.05-17.119 568.61" clip-path="url(#a)"/>
<path d="m1190.9 238.05 53.241 568.61" clip-path="url(#a)"/>
<path d="m1190.9 238.05 125.8 568.61" clip-path="url(#a)"/>
<path d="m1190.9 238.05 200.56 568.61" clip-path="url(#a)"/>
<path d="m1190.9 238.05 277.51 568.61" clip-path="url(#a)"/>
<path d="m1190.9 238.05 461.11 190.3" clip-path="url(#a)"/>
<path d="m1190.9 238.05-1101.1 568.61" clip-path="url(#a)" stroke-dasharray="3.7,1.6"/>
<path d="m1173.8 806.66v186.07" clip-path="url(#a)"/>
<path d="m1244.2 806.66v186.07" clip-path="url(#a)"/>
<path d="m1316.7 806.66v186.07" clip-path="url(#a)"/>
<path d="m1391.5 806.66v186.07" clip-path="url(#a)"/>
<path d="m1468.4 806.66v186.07" clip-path="url(#a)"/>
<path d="m1652 428.34-104.44 378.31" clip-path="url(#a)"/>
<path d="m1652 428.34 104.44 189.65" clip-path="url(#a)"/>
<path d="m1547.6 806.66v186.07" clip-path="url(#a)"/>
<path d="m1756.5 617.99-127.53 188.66" clip-path="url(#a)"/>
<path d="m1756.5 617.99-43.975 188.66" clip-path="url(#a)"/>
<path d="m1756.5 617.99 41.776 188.66" clip-path="url(#a)"/>
<path d="m1756.5 617.99 129.73 188.66" clip-path="url(#a)"/>
<path d="m1628.9 806.66v186.07" clip-path="url(#a)"/>
<path d="m1712.5 806.66v186.07" clip-path="url(#a)"/>
<path d="m1798.2 806.66v186.07" clip-path="url(#a)"/>
<path d="m594.06 428.34 148.78 378.31" clip-path="url(#a)"/>
<path d="m594.06 428.34 203.75 378.31" clip-path="url(#a)"/>
<path d="m594.06 428.34-352.53 189.65" clip-path="url(#a)" stroke-dasharray="3.7,1.6"/>
<path d="m742.84 806.66v186.07" clip-path="url(#a)"/>
<path d="m797.81 806.66v186.07" clip-path="url(#a)"/>
<path d="m345.6 428.34 245.53 378.31" clip-path="url(#a)"/>
<path d="m345.6 428.34-141.45 378.31" clip-path="url(#a)" stroke-dasharray="3.7,1.6"/>
<path d="m345.6 428.34-104.07 189.65" clip-path="url(#a)" stroke-dasharray="3.7,1.6"/>
<path d="m591.13 806.66v186.07" clip-path="url(#a)"/>
<path d="m270.11 428.34 94.545 378.31" clip-path="url(#a)"/>
<path d="m270.11 428.34-65.962 378.31" clip-path="url(#a)" stroke-dasharray="3.7,1.6"/>
<path d="m270.11 428.34-28.584 189.65" clip-path="url(#a)" stroke-dasharray="3.7,1.6"/>
<path d="m364.66 806.66-17.59 186.07" clip-path="url(#a)"/>
<path d="m364.66 806.66 17.59 186.07" clip-path="url(#a)"/>
<path d="m89.818 806.66v186.07" clip-path="url(#a)"/>
<path d="m96.414 806.66v186.07" clip-path="url(#a)"/>
<path d="m116.2 806.66v186.07" clip-path="url(#a)"/>
<path d="m129.4 806.66v186.07" clip-path="url(#a)"/>
<path d="m144.79 806.66v186.07" clip-path="url(#a)"/>
<path d="m205.98 428.34-33.714 378.31" clip-path="url(#a)"/>
<path d="m205.98 428.34-1.8323 378.31" clip-path="url(#a)"/>
<path d="m205.98 428.34 35.546 189.65" clip-path="url(#a)"/>
<path d="m172.27 806.66-9.8943 186.07" clip-path="url(#a)"/>
<path d="m172.27 806.66 9.8943 186.07" clip-path="url(#a)"/>
<path d="m204.15 806.66v186.07" clip-path="url(#a)"/>
<path d="m241.53 617.99-13.192 188.66" clip-path="url(#a)"/>
<path d="m241.53 617.99 13.192 188.66" clip-path="url(#a)"/>
<path d="m228.34 806.66v186.07" clip-path="url(#a)"/>
<path d="m254.72 806.66v186.07" clip-path="url(#a)"/>
<path d="m283.31 806.66v186.07" clip-path="url(#a)"/>
<path d="m419.63 806.66v186.07" clip-path="url(#a)"/>
<path d="m639.5 806.66v186.07" clip-path="url(#a)"/>
<path d="m854.98 806.66v186.07" clip-path="url(#a)"/>
<path d="m1886.2 806.66v186.07" clip-path="url(#a)"/>
</g>
<path d="m335 149.62 5.453-2.5417q2.1753-1.0139 1.1614-3.1892l-3.271-7.0176q-1.0139-2.1753-3.1892-1.1614l-5.453 2.5417q-2.1753 1.0139-1.1614 3.1892l3.271 7.0176q1.0139 2.1753 3.1892 1.1614z" clip-path="url(#a)" fill="#fff" stroke="#fff"/>
<g clip-path="url(#a)">
<g transform="translate(333.29 145.93) rotate(-24.991) scale(.08 -.08)">
<defs>
<path id="ad" d="m9.8125 72.906h9.8594v-29.891h35.844v29.891h9.8594v-72.906h-9.8594v34.719h-35.844v-34.719h-9.8594z"/>
</defs>
<use xlink:href="#ad"/>
</g>
</g>
<path d="m326.8 432.01 2.2138-3.8689q1.1919-2.0831-0.89116-3.275l-6.7202-3.8452q-2.0831-1.1919-3.275 0.89116l-2.2138 3.8689q-1.1919 2.0831 0.89116 3.275l6.7202 3.8452q2.0831 1.1919 3.275-0.89116z" clip-path="url(#a)" fill="#fff" stroke="#fff"/>
<g clip-path="url(#a)">
<g transform="translate(323.28 429.99) rotate(-60.222) scale(.08 -.08)">
<defs>
<path id="w" d="m9.8125 72.906h9.8594v-64.609h35.5v-8.2969h-45.359z"/>
</defs>
<use xlink:href="#w"/>
</g>
</g>
<path d="m432.28 430.89 1.2696-4.2729q0.68358-2.3006-1.617-2.9842l-7.4218-2.2052q-2.3006-0.68358-2.9842 1.617l-1.2696 4.2729q-0.68358 2.3006 1.617 2.9842l7.4218 2.2052q2.3006 0.68358 2.9842-1.617z" clip-path="url(#a)" fill="#fff" stroke="#fff"/>
<g clip-path="url(#a)">
<g transform="translate(428.39 429.73) rotate(-73.452) scale(.08 -.08)">
<use xlink:href="#w"/>
</g>
</g>
<path d="m345.62 149.62 5.3998-2.6527q2.1541-1.0582 1.0959-3.2123l-3.4139-6.9492q-1.0582-2.1541-3.2123-1.0959l-5.3998 2.6527q-2.1541 1.0582-1.0959 3.2123l3.4139 6.9492q1.0582 2.1541 3.2123 1.0959z" clip-path="url(#a)" fill="#fff" stroke="#fff"/>
<g clip-path="url(#a)">
<g transform="translate(343.83 145.97) rotate(-26.163) scale(.08 -.08)">
<use xlink:href="#ad"/>
</g>
</g>
<path d="m505.47 429.84 0.47-4.4327q0.25306-2.3866-2.1336-2.6397l-7.6993-0.81638q-2.3866-0.25306-2.6397 2.1336l-0.47001 4.4327q-0.25306 2.3866 2.1336 2.6397l7.6993 0.81638q2.3866 0.25306 2.6397-2.1336z" clip-path="url(#a)" fill="#fff" stroke="#fff"/>
<g clip-path="url(#a)">
<g transform="translate(501.42 429.41) rotate(-83.947) scale(.08 -.08)">
<use xlink:href="#w"/>
</g>
</g>
<path d="m526.5 429.51 0.22712-4.4517q0.12229-2.3969-2.2746-2.5192l-7.7324-0.39451q-2.3969-0.12229-2.5192 2.2746l-0.22712 4.4517q-0.12229 2.3969 2.2746 2.5192l7.7324 0.39451q2.3969 0.12229 2.5192-2.2746z" clip-path="url(#a)" fill="#fff" stroke="#fff"/>
<g clip-path="url(#a)">
<g transform="translate(522.44 429.3) rotate(-87.079) scale(.08 -.08)">
<use xlink:href="#w"/>
</g>
</g>
<path d="m536.05 424.78 0.030706 4.4574q0.016532 2.3999 2.4165 2.3834l7.7423-0.053335q2.3999-0.016533 2.3834-2.4165l-0.030706-4.4574q-0.016532-2.3999-2.4165-2.3834l-7.7423 0.053335q-2.3999 0.016532-2.3834 2.4165z" clip-path="url(#a)" fill="#fff" stroke="#fff"/>
<g clip-path="url(#a)">
<g transform="translate(540.12 424.75) rotate(89.605) scale(.08 -.08)">
<use xlink:href="#w"/>
</g>
</g>
<path d="m355.19 149.61 5.3457-2.7603q2.1325-1.1011 1.0314-3.2336l-3.5523-6.8795q-1.1011-2.1325-3.2336-1.0314l-5.3457 2.7603q-2.1325 1.1011-1.0314 3.2336l3.5523 6.8795q1.1011 2.1325 3.2336 1.0314z" clip-path="url(#a)" fill="#fff" stroke="#fff"/>
<g clip-path="url(#a)">
<g transform="translate(353.33 146) rotate(-27.31) scale(.08 -.08)">
<use xlink:href="#ad"/>
</g>
</g>
<path d="m608.31 426 0.86572 4.3726q0.46612 2.3543 2.8204 1.8882l7.5951-1.5037q2.3543-0.46612 1.8882-2.8204l-0.86572-4.3726q-0.46612-2.3543-2.8204-1.8882l-7.5951 1.5037q-2.3543 0.46612-1.8882 2.8204z" clip-path="url(#a)" fill="#fff" stroke="#fff"/>
<g clip-path="url(#a)">
<g transform="translate(612.3 425.21) rotate(78.801) scale(.08 -.08)">
<use xlink:href="#w"/>
</g>
</g>
<path d="m386.8 149.58 5.1116-3.1728q2.0391-1.2657 0.77343-3.3048l-4.0832-6.5783q-1.2657-2.0391-3.3048-0.77343l-5.1116 3.1728q-2.0391 1.2657-0.77343 3.3048l4.0832 6.5783q1.2657 2.0391 3.3048 0.77343z" clip-path="url(#a)" fill="#fff" stroke="#fff"/>
<g clip-path="url(#a)">
<g transform="translate(384.66 146.12) rotate(-31.828) scale(.08 -.08)">
<use xlink:href="#ad"/>
</g>
</g>
<path d="m720.42 427.74 1.9721 3.9975q1.0618 2.1523 3.2141 1.0906l6.9436-3.4254q2.1523-1.0618 1.0906-3.2141l-1.9721-3.9975q-1.0618-2.1523-3.2141-1.0906l-6.9436 3.4254q-2.1523 1.0618-1.0906 3.2141z" clip-path="url(#a)" fill="#fff" stroke="#fff"/>
<g clip-path="url(#a)">
<g transform="translate(724.07 425.94) rotate(63.742) scale(.08 -.08)">
<use xlink:href="#w"/>
</g>
</g>
<path d="m767.25 428.36 2.3389 3.7946q1.2593 2.0431 3.3024 0.78378l6.591-4.0626q2.0431-1.2593 0.78378-3.3024l-2.3389-3.7946q-1.2593-2.0431-3.3024-0.78378l-6.5911 4.0626q-2.0431 1.2593-0.78378 3.3024z" clip-path="url(#a)" fill="#fff" stroke="#fff"/>
<g clip-path="url(#a)">
<g transform="translate(770.71 426.23) rotate(58.351) scale(.08 -.08)">
<use xlink:href="#w"/>
</g>
</g>
<path d="m816.32 428.92 2.6636 3.5742q1.4341 1.9244 3.3585 0.4903l6.2082-4.6265q1.9244-1.4341 0.4903-3.3585l-2.6636-3.5742q-1.4341-1.9244-3.3585-0.4903l-6.2082 4.6265q-1.9244 1.4341-0.4903 3.3585z" clip-path="url(#a)" fill="#fff" stroke="#fff"/>
<g clip-path="url(#a)">
<g transform="translate(819.58 426.5) rotate(53.306) scale(.08 -.08)">
<use xlink:href="#w"/>
</g>
</g>
<path d="m860.67 147.83 5.7736 1.6915q2.3032 0.67476 2.978-1.6284l2.1768-7.4302q0.67476-2.3032-1.6284-2.978l-5.7736-1.6915q-2.3032-0.67476-2.978 1.6284l-2.1768 7.4302q-0.67476 2.3032 1.6284 2.978z" clip-path="url(#a)" fill="#fff" stroke="#fff"/>
<g clip-path="url(#a)">
<g transform="translate(861.81 143.93) rotate(16.329) scale(.08 -.08)">
<use xlink:href="#ad"/>
</g>
</g>
<path d="m416.52 431.74 1.8731-5.5473q0.76781-2.2739-1.5061-3.0417l-7.3356-2.477q-2.2739-0.76781-3.0417 1.5061l-1.8731 5.5473q-0.76781 2.2739 1.5061 3.0417l7.3356 2.477q2.2739 0.76781 3.0417-1.5061z" clip-path="url(#a)" fill="#fff" stroke="#fff"/>
<g clip-path="url(#a)">
<g transform="translate(412.67 430.44) rotate(-71.342) scale(.08 -.08)">
<defs>
<path id="ab" d="m8.6875 72.906h9.9219v-44.297q0-11.719 4.2344-16.875 4.25-5.1406 13.781-5.1406 9.4688 0 13.719 5.1406 4.25 5.1562 4.25 16.875v44.297h9.9062v-45.516q0-14.25-7.0625-21.531-7.0469-7.2812-20.812-7.2812-13.828 0-20.891 7.2812-7.0469 7.2812-7.0469 21.531z"/>
</defs>
<use xlink:href="#ab"/>
</g>
</g>
<path d="m485.41 430.84 0.9146-5.7831q0.3749-2.3705-1.9956-2.7454l-7.6475-1.2094q-2.3705-0.3749-2.7454 1.9956l-0.9146 5.7831q-0.3749 2.3705 1.9956 2.7454l7.6475 1.2094q2.3705 0.3749 2.7454-1.9956z" clip-path="url(#a)" fill="#fff" stroke="#fff"/>
<g clip-path="url(#a)">
<g transform="translate(481.4 430.2) rotate(-81.013) scale(.08 -.08)">
<use xlink:href="#ab"/>
</g>
</g>
<path d="m583.01 424.88 0.76274 5.8051q0.31265 2.3795 2.6922 2.0669l7.6765-1.0086q2.3795-0.31265 2.0669-2.6922l-0.76274-5.8051q-0.31265-2.3795-2.6922-2.0669l-7.6765 1.0086q-2.3795 0.31265-2.0669 2.6922z" clip-path="url(#a)" fill="#fff" stroke="#fff"/>
<g clip-path="url(#a)">
<g transform="translate(587.04 424.35) rotate(82.515) scale(.08 -.08)">
<use xlink:href="#ab"/>
</g>
</g>
<path d="m690.44 426.66 2.2449 5.4075q0.9202 2.2166 3.1368 1.2964l7.1508-2.9686q2.2166-0.9202 1.2964-3.1368l-2.2449-5.4075q-0.9202-2.2166-3.1368-1.2964l-7.1508 2.9686q-2.2166 0.9202-1.2964 3.1368z" clip-path="url(#a)" fill="#fff" stroke="#fff"/>
<g clip-path="url(#a)">
<g transform="translate(694.19 425.11) rotate(67.455) scale(.08 -.08)">
<use xlink:href="#ab"/>
</g>
</g>
<path d="m116.19 525.53 0.38991-5.4586q0.171-2.3939-2.2229-2.5649l-7.7228-0.55164q-2.3939-0.171-2.5649 2.2229l-0.38991 5.4586q-0.171 2.3939 2.2229 2.5649l7.7228 0.55164q2.3939 0.171 2.5649-2.2229z" clip-path="url(#a)" fill="#fff" stroke="#fff"/>
<g clip-path="url(#a)">
<g transform="translate(112.13 525.24) rotate(-85.914) scale(.08 -.08)">
<defs>
<path id="s" d="m34.188 63.188-13.391-36.281h26.812zm-5.5781 9.7188h11.188l27.781-72.906h-10.25l-6.6406 18.703h-32.859l-6.6406-18.703h-10.406z"/>
</defs>
<use xlink:href="#s"/>
</g>
</g>
<path d="m119.55 525.02 0.2748-4.593q0.14333-2.3957-2.2524-2.539l-7.7287-0.4624q-2.3957-0.14333-2.539 2.2524l-0.2748 4.593q-0.14333 2.3957 2.2524 2.539l7.7287 0.4624q2.3957 0.14333 2.539-2.2524z" clip-path="url(#a)" fill="#fff" stroke="#fff"/>
<g clip-path="url(#a)">
<g transform="translate(115.49 524.78) rotate(-86.576) scale(.08 -.08)">
<defs>
<path id="ax" d="m9.8125 72.906h41.891v-8.3125h-32.031v-21.484h28.906v-8.2969h-28.906v-34.812h-9.8594z"/>
</defs>
<use xlink:href="#ax"/>
</g>
</g>
<path d="m129.53 524.92 0.12069-4.8222q0.060047-2.3992-2.3392-2.4593l-7.7401-0.19371q-2.3992-0.060047-2.4593 2.3392l-0.12069 4.8222q-0.060047 2.3992 2.3392 2.4593l7.7401 0.19371q2.3992 0.060046 2.4593-2.3392z" clip-path="url(#a)" fill="#fff" stroke="#fff"/>
<g clip-path="url(#a)">
<g transform="translate(125.46 524.82) rotate(-88.566) scale(.08 -.08)">
<defs>
<path id="ac" d="m19.672 64.797v-27.391h12.406q6.8906 0 10.641 3.5625 3.7656 3.5625 3.7656 10.156 0 6.5469-3.7656 10.109-3.75 3.5625-10.641 3.5625zm-9.8594 8.1094h22.266q12.266 0 18.531-5.5469 6.2812-5.5469 6.2812-16.234 0-10.797-6.2812-16.312-6.2656-5.5156-18.531-5.5156h-12.406v-29.297h-9.8594z"/>
</defs>
<use xlink:href="#ac"/>
</g>
</g>
<path d="m136.18 525.1 0.009993-5.4725q0.004382-2.4-2.3956-2.4044l-7.7425-0.014138q-2.4-0.004383-2.4044 2.3956l-0.009993 5.4725q-0.004383 2.4 2.3956 2.4044l7.7425 0.014138q2.4 0.004382 2.4044-2.3956z" clip-path="url(#a)" fill="#fff" stroke="#fff"/>
<g clip-path="url(#a)">
<g transform="translate(132.12 525.09) rotate(-89.895) scale(.08 -.08)">
<use xlink:href="#s"/>
</g>
</g>
<path d="m131.26 519.43 0.15544 6.158q0.060562 2.3992 2.4598 2.3387l7.74-0.19538q2.3992-0.060562 2.3387-2.4598l-0.15544-6.158q-0.060562-2.3992-2.4598-2.3387l-7.74 0.19538q-2.3992 0.060562-2.3387 2.4598z" clip-path="url(#a)" fill="#fff" stroke="#fff"/>
<g clip-path="url(#a)">
<g transform="translate(135.33 519.33) rotate(88.554) scale(.08 -.08)">
<defs>
<path id="ar" d="m19.672 64.797v-56.688h11.922q15.094 0 22.094 6.8281 7 6.8438 7 21.594 0 14.641-7 21.453t-22.094 6.8125zm-9.8594 8.1094h20.266q21.188 0 31.094-8.8125 9.9219-8.8125 9.9219-27.562 0-18.859-9.9688-27.703-9.9531-8.8281-31.047-8.8281h-20.266z"/>
</defs>
<use xlink:href="#ar"/>
</g>
</g>
<path d="m161.48 333.24 1.803 4.5414q0.8856 2.2306 3.1162 1.345l7.1961-2.857q2.2306-0.8856 1.345-3.1162l-1.803-4.5414q-0.8856-2.2306-3.1162-1.345l-7.1961 2.857q-2.2306 0.8856-1.345 3.1162z" clip-path="url(#a)" fill="#fff" stroke="#fff"/>
<g clip-path="url(#a)">
<g transform="translate(165.26 331.74) rotate(68.346) scale(.08 -.08)">
<defs>
<path id="e" d="m-0.29688 72.906h61.672v-8.3125h-25.875v-64.594h-9.9062v64.594h-25.891z"/>
</defs>
<use xlink:href="#e"/>
</g>
</g>
<path d="m98.938 882.79v33.808q0 2.4 2.4 2.4h7.7425q2.4 0 2.4-2.4v-33.808q0-2.4-2.4-2.4h-7.7425q-2.4 0-2.4 2.4z" clip-path="url(#a)" fill="#fff" stroke="#fff"/>
<g clip-path="url(#a)">
<g transform="translate(103 882.79) rotate(90) scale(.08 -.08)">
<defs>
<path id="l" d="m56.203 29.594v-4.3906h-41.312q0.59375-9.2812 5.5938-14.141t13.938-4.8594q5.1719 0 10.031 1.2656t9.6562 3.8125v-8.5q-4.8438-2.0469-9.9219-3.125t-10.297-1.0781q-13.094 0-20.734 7.6094-7.6406 7.625-7.6406 20.625 0 13.422 7.25 21.297 7.25 7.8906 19.562 7.8906 11.031 0 17.453-7.1094 6.4219-7.0938 6.4219-19.297zm-8.9844 2.6406q-0.09375 7.3594-4.125 11.75-4.0312 4.4062-10.672 4.4062-7.5156 0-12.031-4.25t-5.2031-11.969z"/>
<path id="g" d="m41.109 46.297q-1.5156 0.875-3.2969 1.2812-1.7812 0.42188-3.9219 0.42188-7.625 0-11.703-4.9531t-4.0781-14.234v-28.812h-9.0312v54.688h9.0312v-8.5q2.8438 4.9844 7.375 7.3906 4.5469 2.4219 11.047 2.4219 0.92188 0 2.0469-0.125 1.125-0.10938 2.4844-0.35938z"/>
<path id="i" d="m52 44.188q3.375 6.0625 8.0625 8.9375t11.031 2.875q8.5469 0 13.188-5.9844 4.6406-5.9688 4.6406-17v-33.016h-9.0312v32.719q0 7.8594-2.7969 11.656-2.7812 3.8125-8.4844 3.8125-6.9844 0-11.047-4.6406-4.0469-4.625-4.0469-12.641v-30.906h-9.0312v32.719q0 7.9062-2.7812 11.688t-8.5938 3.7812q-6.8906 0-10.953-4.6562-4.0469-4.6562-4.0469-12.625v-30.906h-9.0312v54.688h9.0312v-8.5q3.0781 5.0312 7.375 7.4219t10.203 2.3906q5.9688 0 10.141-3.0312 4.1719-3.0156 6.1719-8.7812z"/>
<path id="k" d="m9.4219 54.688h8.9844v-54.688h-8.9844zm0 21.297h8.9844v-11.391h-8.9844z"/>
<path id="h" d="m54.891 33.016v-33.016h-8.9844v32.719q0 7.7656-3.0312 11.609-3.0312 3.8594-9.0781 3.8594-7.2812 0-11.484-4.6406-4.2031-4.625-4.2031-12.641v-30.906h-9.0312v54.688h9.0312v-8.5q3.2344 4.9375 7.5938 7.375 4.375 2.4375 10.094 2.4375 9.4219 0 14.25-5.8281 4.8438-5.8281 4.8438-17.156z"/>
<path id="f" d="m34.281 27.484q-10.891 0-15.094-2.4844t-4.2031-8.5q0-4.7812 3.1562-7.5938 3.1562-2.7969 8.5625-2.7969 7.4844 0 12 5.2969t4.5156 14.078v2zm17.922 3.7188v-31.203h-8.9844v8.2969q-3.0781-4.9688-7.6719-7.3438t-11.234-2.375q-8.3906 0-13.359 4.7188-4.9531 4.7188-4.9531 12.625 0 9.2188 6.1719 13.906 6.1875 4.6875 18.438 4.6875h12.609v0.89062q0 6.2031-4.0781 9.5938t-11.453 3.3906q-4.6875 0-9.1406-1.125-4.4375-1.125-8.5312-3.375v8.3125q4.9219 1.9062 9.5625 2.8438 4.6406 0.95312 9.0312 0.95312 11.875 0 17.734-6.1562 5.8594-6.1406 5.8594-18.641z"/>
<path id="j" d="m9.4219 75.984h8.9844v-75.984h-8.9844z"/>
</defs>
<use xlink:href="#e"/>
<use x="44.083984" xlink:href="#l"/>
<use x="105.607422" xlink:href="#g"/>
<use x="144.970703" xlink:href="#i"/>
<use x="242.382812" xlink:href="#k"/>
<use x="270.166016" xlink:href="#h"/>
<use x="333.544922" xlink:href="#f"/>
<use x="394.824219" xlink:href="#j"/>
</g>
</g>
<path d="m307.82 882.79v33.808q0 2.4 2.4 2.4h7.7425q2.4 0 2.4-2.4v-33.808q0-2.4-2.4-2.4h-7.7425q-2.4 0-2.4 2.4z" clip-path="url(#a)" fill="#fff" stroke="#fff"/>
<g clip-path="url(#a)">
<g transform="translate(311.88 882.79) rotate(90) scale(.08 -.08)">
<use xlink:href="#e"/>
<use x="44.083984" xlink:href="#l"/>
<use x="105.607422" xlink:href="#g"/>
<use x="144.970703" xlink:href="#i"/>
<use x="242.382812" xlink:href="#k"/>
<use x="270.166016" xlink:href="#h"/>
<use x="333.544922" xlink:href="#f"/>
<use x="394.824219" xlink:href="#j"/>
</g>
</g>
<path d="m204.13 334.44 2.5865 4.1455q1.2704 2.0362 3.3066 0.76574l6.5688-4.0985q2.0362-1.2704 0.76574-3.3066l-2.5865-4.1455q-1.2704-2.0362-3.3066-0.76574l-6.5688 4.0985q-2.0362 1.2704-0.76574 3.3066z" clip-path="url(#a)" fill="#fff" stroke="#fff"/>
<g clip-path="url(#a)">
<g transform="translate(207.58 332.29) rotate(58.039) scale(.08 -.08)">
<use xlink:href="#e"/>
</g>
</g>
<path d="m126.54 525.75 0.58908-5.4407q0.25834-2.3861-2.1277-2.6444l-7.6975-0.83343q-2.3861-0.25834-2.6444 2.1277l-0.58908 5.4407q-0.25834 2.3861 2.1277 2.6444l7.6975 0.83343q2.3861 0.25834 2.6444-2.1277z" clip-path="url(#a)" fill="#fff" stroke="#fff"/>
<g clip-path="url(#a)">
<g transform="translate(122.5 525.31) rotate(-83.821) scale(.08 -.08)">
<use xlink:href="#s"/>
</g>
</g>
<path d="m139.9 525.15 0.29788-4.8145q0.1482-2.3954-2.2472-2.5436l-7.7277-0.47812q-2.3954-0.1482-2.5436 2.2472l-0.29788 4.8145q-0.1482 2.3954 2.2472 2.5436l7.7277 0.47812q2.3954 0.1482 2.5436-2.2472z" clip-path="url(#a)" fill="#fff" stroke="#fff"/>
<g clip-path="url(#a)">
<g transform="translate(135.85 524.9) rotate(-86.46) scale(.08 -.08)">
<use xlink:href="#ac"/>
</g>
</g>
<path d="m146.55 525.33 0.21146-5.4684q0.092735-2.3982-2.3055-2.4909l-7.7367-0.29917q-2.3982-0.092736-2.4909 2.3055l-0.21146 5.4684q-0.092736 2.3982 2.3055 2.4909l7.7367 0.29917q2.3982 0.092736 2.4909-2.3055z" clip-path="url(#a)" fill="#fff" stroke="#fff"/>
<g clip-path="url(#a)">
<g transform="translate(142.49 525.17) rotate(-87.786) scale(.08 -.08)">
<use xlink:href="#s"/>
</g>
</g>
<path d="m452.93 882.79v33.808q0 2.4 2.4 2.4h7.7425q2.4 0 2.4-2.4v-33.808q0-2.4-2.4-2.4h-7.7425q-2.4 0-2.4 2.4z" clip-path="url(#a)" fill="#fff" stroke="#fff"/>
<g clip-path="url(#a)">
<g transform="translate(457 882.79) rotate(90) scale(.08 -.08)">
<use xlink:href="#e"/>
<use x="44.083984" xlink:href="#l"/>
<use x="105.607422" xlink:href="#g"/>
<use x="144.970703" xlink:href="#i"/>
<use x="242.382812" xlink:href="#k"/>
<use x="270.166016" xlink:href="#h"/>
<use x="333.544922" xlink:href="#f"/>
<use x="394.824219" xlink:href="#j"/>
</g>
</g>
<path d="m494.71 882.79v33.808q0 2.4 2.4 2.4h7.7425q2.4 0 2.4-2.4v-33.808q0-2.4-2.4-2.4h-7.7425q-2.4 0-2.4 2.4z" clip-path="url(#a)" fill="#fff" stroke="#fff"/>
<g clip-path="url(#a)">
<g transform="translate(498.77 882.79) rotate(90) scale(.08 -.08)">
<use xlink:href="#e"/>
<use x="44.083984" xlink:href="#l"/>
<use x="105.607422" xlink:href="#g"/>
<use x="144.970703" xlink:href="#i"/>
<use x="242.382812" xlink:href="#k"/>
<use x="270.166016" xlink:href="#h"/>
<use x="333.544922" xlink:href="#f"/>
<use x="394.824219" xlink:href="#j"/>
</g>
</g>
<path d="m538.68 882.79v33.808q0 2.4 2.4 2.4h7.7425q2.4 0 2.4-2.4v-33.808q0-2.4-2.4-2.4h-7.7425q-2.4 0-2.4 2.4z" clip-path="url(#a)" fill="#fff" stroke="#fff"/>
<g clip-path="url(#a)">
<g transform="translate(542.75 882.79) rotate(90) scale(.08 -.08)">
<use xlink:href="#e"/>
<use x="44.083984" xlink:href="#l"/>
<use x="105.607422" xlink:href="#g"/>
<use x="144.970703" xlink:href="#i"/>
<use x="242.382812" xlink:href="#k"/>
<use x="270.166016" xlink:href="#h"/>
<use x="333.544922" xlink:href="#f"/>
<use x="394.824219" xlink:href="#j"/>
</g>
</g>
<path d="m251.66 335.65 3.3111 3.5933q1.6263 1.765 3.3913 0.13863l5.6938-5.2466q1.765-1.6263 0.13863-3.3913l-3.3111-3.5933q-1.6263-1.765-3.3913-0.13863l-5.6938 5.2466q-1.765 1.6263-0.13863 3.3913z" clip-path="url(#a)" fill="#fff" stroke="#fff"/>
<g clip-path="url(#a)">
<g transform="translate(254.65 332.9) rotate(47.341) scale(.08 -.08)">
<use xlink:href="#e"/>
</g>
</g>
<path d="m135.86 525.94 0.76653-5.4186q0.33617-2.3763-2.0402-2.7125l-7.6662-1.0845q-2.3763-0.33616-2.7125 2.0402l-0.76653 5.4186q-0.33617 2.3763 2.0402 2.7125l7.6662 1.0845q2.3763 0.33616 2.7125-2.0402z" clip-path="url(#a)" fill="#fff" stroke="#fff"/>
<g clip-path="url(#a)">
<g transform="translate(131.84 525.37) rotate(-81.948) scale(.08 -.08)">
<use xlink:href="#s"/>
</g>
</g>
<path d="m149.24 525.35 0.45649-4.8021q0.22712-2.3892-2.1621-2.6164l-7.7078-0.7327q-2.3892-0.22712-2.6164 2.1621l-0.45649 4.8021q-0.22712 2.3892 2.1621 2.6164l7.7078 0.73271q2.3892 0.22712 2.6164-2.1621z" clip-path="url(#a)" fill="#fff" stroke="#fff"/>
<g clip-path="url(#a)">
<g transform="translate(145.2 524.96) rotate(-84.57) scale(.08 -.08)">
<use xlink:href="#ac"/>
</g>
</g>
<path d="m155.88 525.53 0.39224-5.4584q0.17202-2.3938-2.2218-2.5658l-7.7226-0.55494q-2.3938-0.17202-2.5658 2.2218l-0.39224 5.4584q-0.17202 2.3938 2.2218 2.5658l7.7226 0.55494q2.3938 0.17202 2.5658-2.2218z" clip-path="url(#a)" fill="#fff" stroke="#fff"/>
<g clip-path="url(#a)">
<g transform="translate(151.83 525.24) rotate(-85.89) scale(.08 -.08)">
<use xlink:href="#s"/>
</g>
</g>
<path d="m683.8 882.79v33.808q0 2.4 2.4 2.4h7.7425q2.4 0 2.4-2.4v-33.808q0-2.4-2.4-2.4h-7.7425q-2.4 0-2.4 2.4z" clip-path="url(#a)" fill="#fff" stroke="#fff"/>
<g clip-path="url(#a)">
<g transform="translate(687.86 882.79) rotate(90) scale(.08 -.08)">
<use xlink:href="#e"/>
<use x="44.083984" xlink:href="#l"/>
<use x="105.607422" xlink:href="#g"/>
<use x="144.970703" xlink:href="#i"/>
<use x="242.382812" xlink:href="#k"/>
<use x="270.166016" xlink:href="#h"/>
<use x="333.544922" xlink:href="#f"/>
<use x="394.824219" xlink:href="#j"/>
</g>
</g>
<path d="m408.13 337.61 4.3243 2.2751q2.124 1.1175 3.2414-1.0065l3.605-6.852q1.1175-2.124-1.0065-3.2414l-4.3243-2.2751q-2.124-1.1175-3.2414 1.0065l-3.605 6.852q-1.1175 2.124 1.0065 3.2414z" clip-path="url(#a)" fill="#fff" stroke="#fff"/>
<g clip-path="url(#a)">
<g transform="translate(410.02 334.01) rotate(27.75) scale(.08 -.08)">
<use xlink:href="#e"/>
</g>
</g>
<path d="m166.51 526.53 1.3308-5.3082q0.58363-2.328-1.7443-2.9116l-7.5101-1.8828q-2.328-0.58362-2.9116 1.7443l-1.3308 5.3082q-0.58362 2.328 1.7443 2.9116l7.5101 1.8828q2.328 0.58362 2.9116-1.7443z" clip-path="url(#a)" fill="#fff" stroke="#fff"/>
<g clip-path="url(#a)">
<g transform="translate(162.57 525.54) rotate(-75.926) scale(.08 -.08)">
<use xlink:href="#s"/>
</g>
</g>
<path d="m179.95 525.97 0.96555-4.7261q0.4804-2.3514-1.871-2.8318l-7.5858-1.5498q-2.3514-0.4804-2.8318 1.871l-0.96555 4.7261q-0.4804 2.3514 1.871 2.8318l7.5858 1.5498q2.3514 0.4804 2.8318-1.871z" clip-path="url(#a)" fill="#fff" stroke="#fff"/>
<g clip-path="url(#a)">
<g transform="translate(175.97 525.16) rotate(-78.453) scale(.08 -.08)">
<use xlink:href="#ac"/>
</g>
</g>
<path d="m186.57 526.16 0.9752-5.3849q0.42768-2.3616-1.9339-2.7893l-7.6186-1.3797q-2.3616-0.42768-2.7893 1.9339l-0.9752 5.3849q-0.42768 2.3616 1.9339 2.7893l7.6186 1.3797q2.3616 0.42768 2.7893-1.9339z" clip-path="url(#a)" fill="#fff" stroke="#fff"/>
<g clip-path="url(#a)">
<g transform="translate(182.57 525.44) rotate(-79.735) scale(.08 -.08)">
<use xlink:href="#s"/>
</g>
</g>
<path d="m908.07 882.79v33.808q0 2.4 2.4 2.4h7.7425q2.4 0 2.4-2.4v-33.808q0-2.4-2.4-2.4h-7.7425q-2.4 0-2.4 2.4z" clip-path="url(#a)" fill="#fff" stroke="#fff"/>
<g clip-path="url(#a)">
<g transform="translate(912.13 882.79) rotate(90) scale(.08 -.08)">
<use xlink:href="#e"/>
<use x="44.083984" xlink:href="#l"/>
<use x="105.607422" xlink:href="#g"/>
<use x="144.970703" xlink:href="#i"/>
<use x="242.382812" xlink:href="#k"/>
<use x="270.166016" xlink:href="#h"/>
<use x="333.544922" xlink:href="#f"/>
<use x="394.824219" xlink:href="#j"/>
</g>
</g>
<path d="m995.17 917.41 5.7094-33.322q0.40531-2.3655-1.9602-2.7708l-7.6313-1.3075q-2.3655-0.40531-2.7708 1.9602l-5.7094 33.322q-0.40531 2.3655 1.9602 2.7708l7.6313 1.3075q2.3655 0.40531 2.7708-1.9602z" clip-path="url(#a)" fill="#fff" stroke="#fff"/>
<g clip-path="url(#a)">
<g transform="translate(991.17 916.73) rotate(-80.277) scale(.08 -.08)">
<use xlink:href="#e"/>
<use x="44.083984" xlink:href="#l"/>
<use x="105.607422" xlink:href="#g"/>
<use x="144.970703" xlink:href="#i"/>
<use x="242.382812" xlink:href="#k"/>
<use x="270.166016" xlink:href="#h"/>
<use x="333.544922" xlink:href="#f"/>
<use x="394.824219" xlink:href="#j"/>
</g>
</g>
<path d="m1014.7 884.09 5.7094 33.322q0.40531 2.3655 2.7708 1.9602l7.6313-1.3075q2.3655-0.40531 1.9602-2.7708l-5.7094-33.322q-0.40531-2.3655-2.7708-1.9602l-7.6313 1.3075q-2.3655 0.40531-1.9602 2.7708z" clip-path="url(#a)" fill="#fff" stroke="#fff"/>
<g clip-path="url(#a)">
<g transform="translate(1018.7 883.4) rotate(80.277) scale(.08 -.08)">
<use xlink:href="#e"/>
<use x="44.083984" xlink:href="#l"/>
<use x="105.607422" xlink:href="#g"/>
<use x="144.970703" xlink:href="#i"/>
<use x="242.382812" xlink:href="#k"/>
<use x="270.166016" xlink:href="#h"/>
<use x="333.544922" xlink:href="#f"/>
<use x="394.824219" xlink:href="#j"/>
</g>
</g>
<path d="m1099.4 882.79v33.808q0 2.4 2.4 2.4h7.7425q2.4 0 2.4-2.4v-33.808q0-2.4-2.4-2.4h-7.7425q-2.4 0-2.4 2.4z" clip-path="url(#a)" fill="#fff" stroke="#fff"/>
<g clip-path="url(#a)">
<g transform="translate(1103.4 882.79) rotate(90) scale(.08 -.08)">
<use xlink:href="#e"/>
<use x="44.083984" xlink:href="#l"/>
<use x="105.607422" xlink:href="#g"/>
<use x="144.970703" xlink:href="#i"/>
<use x="242.382812" xlink:href="#k"/>
<use x="270.166016" xlink:href="#h"/>
<use x="333.544922" xlink:href="#f"/>
<use x="394.824219" xlink:href="#j"/>
</g>
</g>
<path d="m1188.5 525.62 0.18537-6.1572q0.072223-2.3989-2.3267-2.4711l-7.739-0.23299q-2.3989-0.072222-2.4711 2.3267l-0.18537 6.1572q-0.072223 2.3989 2.3267 2.4711l7.739 0.23299q2.3989 0.072223 2.4711-2.3267z" clip-path="url(#a)" fill="#fff" stroke="#fff"/>
<g clip-path="url(#a)">
<g transform="translate(1184.5 525.5) rotate(-88.276) scale(.08 -.08)">
<use xlink:href="#ar"/>
</g>
</g>
<path d="m1211 519.87 0.57427 6.1332q0.22374 2.3895 2.6133 2.1658l7.7088-0.7218q2.3895-0.22374 2.1658-2.6133l-0.57427-6.1332q-0.22374-2.3895-2.6133-2.1658l-7.7088 0.7218q-2.3895 0.22374-2.1658 2.6133z" clip-path="url(#a)" fill="#fff" stroke="#fff"/>
<g clip-path="url(#a)">
<g transform="translate(1215 519.49) rotate(84.651) scale(.08 -.08)">
<use xlink:href="#ar"/>
</g>
</g>
<path d="m1247.2 521.46 0.99395 4.4926q0.51844 2.3433 2.8618 1.8249l7.5597-1.6725q2.3433-0.51844 1.8249-2.8618l-0.99395-4.4926q-0.51844-2.3433-2.8618-1.8249l-7.5597 1.6725q-2.3433 0.51844-1.8249 2.8618z" clip-path="url(#a)" fill="#fff" stroke="#fff"/>
<g clip-path="url(#a)">
<g transform="translate(1251.2 520.58) rotate(77.525) scale(.08 -.08)">
<use xlink:href="#ax"/>
</g>
</g>
<path d="m1284.5 522.16 1.6045 4.5491q0.79831 2.2633 3.0616 1.465l7.3016-2.5754q2.2633-0.79831 1.465-3.0616l-1.6045-4.5491q-0.79831-2.2633-3.0616-1.465l-7.3016 2.5754q-2.2633 0.79831-1.465 3.0616z" clip-path="url(#a)" fill="#fff" stroke="#fff"/>
<g clip-path="url(#a)">
<g transform="translate(1288.3 520.81) rotate(70.571) scale(.08 -.08)">
<use xlink:href="#ac"/>
</g>
</g>
<path d="m1322.8 522.64 2.4003 4.918q1.0527 2.1568 3.2095 1.1042l6.958-3.3959q2.1568-1.0527 1.1042-3.2095l-2.4003-4.918q-1.0527-2.1568-3.2095-1.1042l-6.958 3.3959q-2.1568 1.0527-1.1042 3.2095z" clip-path="url(#a)" fill="#fff" stroke="#fff"/>
<g clip-path="url(#a)">
<g transform="translate(1326.5 520.86) rotate(63.985) scale(.08 -.08)">
<use xlink:href="#s"/>
</g>
</g>
<path d="m1416.5 337.95 5.0586 2.0877q2.2185 0.91556 3.1341-1.3029l2.9536-7.157q0.91556-2.2185-1.3029-3.1341l-5.0586-2.0877q-2.2185-0.91556-3.1341 1.3029l-2.9536 7.157q-0.91556 2.2185 1.3029 3.1341z" clip-path="url(#a)" fill="#fff" stroke="#fff"/>
<g clip-path="url(#a)">
<g transform="translate(1418.1 334.19) rotate(22.426) scale(.08 -.08)">
<use xlink:href="#s"/>
</g>
</g>
<path d="m640.81 529.18 4.8624-2.511q2.1325-1.1012 1.0313-3.2337l-3.5525-6.8794q-1.1012-2.1325-3.2337-1.0313l-4.8624 2.511q-2.1325 1.1012-1.0313 3.2337l3.5525 6.8794q1.1012 2.1325 3.2337 1.0313z" clip-path="url(#a)" fill="#fff" stroke="#fff"/>
<g clip-path="url(#a)">
<g transform="translate(638.95 525.57) rotate(-27.312) scale(.08 -.08)">
<use xlink:href="#s"/>
</g>
</g>
<path d="m1167.5 882.79v33.808q0 2.4 2.4 2.4h7.7425q2.4 0 2.4-2.4v-33.808q0-2.4-2.4-2.4h-7.7425q-2.4 0-2.4 2.4z" clip-path="url(#a)" fill="#fff" stroke="#fff"/>
<g clip-path="url(#a)">
<g transform="translate(1171.6 882.79) rotate(90) scale(.08 -.08)">
<use xlink:href="#e"/>
<use x="44.083984" xlink:href="#l"/>
<use x="105.607422" xlink:href="#g"/>
<use x="144.970703" xlink:href="#i"/>
<use x="242.382812" xlink:href="#k"/>
<use x="270.166016" xlink:href="#h"/>
<use x="333.544922" xlink:href="#f"/>
<use x="394.824219" xlink:href="#j"/>
</g>
</g>
<path d="m1237.9 882.79v33.808q0 2.4 2.4 2.4h7.7425q2.4 0 2.4-2.4v-33.808q0-2.4-2.4-2.4h-7.7425q-2.4 0-2.4 2.4z" clip-path="url(#a)" fill="#fff" stroke="#fff"/>
<g clip-path="url(#a)">
<g transform="translate(1241.9 882.79) rotate(90) scale(.08 -.08)">
<use xlink:href="#e"/>
<use x="44.083984" xlink:href="#l"/>
<use x="105.607422" xlink:href="#g"/>
<use x="144.970703" xlink:href="#i"/>
<use x="242.382812" xlink:href="#k"/>
<use x="270.166016" xlink:href="#h"/>
<use x="333.544922" xlink:href="#f"/>
<use x="394.824219" xlink:href="#j"/>
</g>
</g>
<path d="m1310.4 882.79v33.808q0 2.4 2.4 2.4h7.7425q2.4 0 2.4-2.4v-33.808q0-2.4-2.4-2.4h-7.7425q-2.4 0-2.4 2.4z" clip-path="url(#a)" fill="#fff" stroke="#fff"/>
<g clip-path="url(#a)">
<g transform="translate(1314.5 882.79) rotate(90) scale(.08 -.08)">
<use xlink:href="#e"/>
<use x="44.083984" xlink:href="#l"/>
<use x="105.607422" xlink:href="#g"/>
<use x="144.970703" xlink:href="#i"/>
<use x="242.382812" xlink:href="#k"/>
<use x="270.166016" xlink:href="#h"/>
<use x="333.544922" xlink:href="#f"/>
<use x="394.824219" xlink:href="#j"/>
</g>
</g>
<path d="m1385.2 882.79v33.808q0 2.4 2.4 2.4h7.7425q2.4 0 2.4-2.4v-33.808q0-2.4-2.4-2.4h-7.7425q-2.4 0-2.4 2.4z" clip-path="url(#a)" fill="#fff" stroke="#fff"/>
<g clip-path="url(#a)">
<g transform="translate(1389.3 882.79) rotate(90) scale(.08 -.08)">
<use xlink:href="#e"/>
<use x="44.083984" xlink:href="#l"/>
<use x="105.607422" xlink:href="#g"/>
<use x="144.970703" xlink:href="#i"/>
<use x="242.382812" xlink:href="#k"/>
<use x="270.166016" xlink:href="#h"/>
<use x="333.544922" xlink:href="#f"/>
<use x="394.824219" xlink:href="#j"/>
</g>
</g>
<path d="m1462.2 882.79v33.808q0 2.4 2.4 2.4h7.7425q2.4 0 2.4-2.4v-33.808q0-2.4-2.4-2.4h-7.7425q-2.4 0-2.4 2.4z" clip-path="url(#a)" fill="#fff" stroke="#fff"/>
<g clip-path="url(#a)">
<g transform="translate(1466.2 882.79) rotate(90) scale(.08 -.08)">
<use xlink:href="#e"/>
<use x="44.083984" xlink:href="#l"/>
<use x="105.607422" xlink:href="#g"/>
<use x="144.970703" xlink:href="#i"/>
<use x="242.382812" xlink:href="#k"/>
<use x="270.166016" xlink:href="#h"/>
<use x="333.544922" xlink:href="#f"/>
<use x="394.824219" xlink:href="#j"/>
</g>
</g>
<path d="m1605.1 621.85 1.4793-5.3583q0.63867-2.3135-1.6748-2.9521l-7.4633-2.0604q-2.3135-0.63868-2.9521 1.6748l-1.4793 5.3583q-0.63868 2.3135 1.6748 2.9521l7.4633 2.0604q2.3135 0.63867 2.9521-1.6748z" clip-path="url(#a)" fill="#fff" stroke="#fff"/>
<g clip-path="url(#a)">
<g transform="translate(1601.2 620.77) rotate(-74.567) scale(.08 -.08)">
<defs>
<path id="aw" d="m44.391 34.188q3.1719-1.0781 6.1719-4.5938t6.0312-9.6719l10.016-19.922h-10.609l-9.3125 18.703q-3.625 7.3281-7.0156 9.7188t-9.25 2.3906h-10.75v-30.812h-9.8594v72.906h22.266q12.5 0 18.656-5.2344 6.1562-5.2188 6.1562-15.766 0-6.8906-3.2031-11.438-3.2031-4.5312-9.2969-6.2812zm-24.719 30.609v-25.875h12.406q7.125 0 10.766 3.2969t3.6406 9.6875-3.6406 9.6406-10.766 3.25z"/>
</defs>
<use xlink:href="#aw"/>
</g>
</g>
<path d="m1697.4 523.75 2.6947 4.8933q1.1577 2.1023 3.26 0.94457l6.7821-3.7349q2.1023-1.1577 0.94457-3.26l-2.6947-4.8933q-1.1577-2.1023-3.26-0.94457l-6.7821 3.7349q-2.1023 1.1577-0.94457 3.26z" clip-path="url(#a)" fill="#fff" stroke="#fff"/>
<g clip-path="url(#a)">
<g transform="translate(1701 521.79) rotate(61.159) scale(.08 -.08)">
<defs>
<path id="x" d="m64.406 67.281v-10.391q-4.9844 4.6406-10.625 6.9219-5.6406 2.2969-11.984 2.2969-12.5 0-19.141-7.6406t-6.6406-22.094q0-14.406 6.6406-22.047t19.141-7.6406q6.3438 0 11.984 2.2969t10.625 6.9375v-10.312q-5.1719-3.5156-10.969-5.2812-5.7812-1.75-12.219-1.75-16.562 0-26.094 10.125-9.5156 10.141-9.5156 27.672 0 17.578 9.5156 27.703 9.5312 10.141 26.094 10.141 6.5312 0 12.312-1.7344 5.7969-1.7344 10.875-5.2031z"/>
</defs>
<use xlink:href="#x"/>
</g>
</g>
<path d="m1541.3 882.79v33.808q0 2.4 2.4 2.4h7.7425q2.4 0 2.4-2.4v-33.808q0-2.4-2.4-2.4h-7.7425q-2.4 0-2.4 2.4z" clip-path="url(#a)" fill="#fff" stroke="#fff"/>
<g clip-path="url(#a)">
<g transform="translate(1545.4 882.79) rotate(90) scale(.08 -.08)">
<use xlink:href="#e"/>
<use x="44.083984" xlink:href="#l"/>
<use x="105.607422" xlink:href="#g"/>
<use x="144.970703" xlink:href="#i"/>
<use x="242.382812" xlink:href="#k"/>
<use x="270.166016" xlink:href="#h"/>
<use x="333.544922" xlink:href="#f"/>
<use x="394.824219" xlink:href="#j"/>
</g>
</g>
<path d="m1696.3 718.15 3.1284-4.6281q1.344-1.9884-0.64431-3.3324l-6.4145-4.3359q-1.9884-1.344-3.3324 0.64431l-3.1284 4.6281q-1.344 1.9884 0.64431 3.3324l6.4145 4.3359q1.9884 1.344 3.3324-0.64431z" clip-path="url(#a)" fill="#fff" stroke="#fff"/>
<g clip-path="url(#a)">
<g transform="translate(1693 715.88) rotate(-55.943) scale(.08 -.08)">
<use xlink:href="#x"/>
</g>
</g>
<path d="m1739.9 716.66 1.3586-5.8288q0.54481-2.3373-1.7925-2.8822l-7.5404-1.7576q-2.3373-0.54481-2.8822 1.7925l-1.3586 5.8288q-0.54481 2.3373 1.7925 2.8822l7.5404 1.7576q2.3373 0.54481 2.8822-1.7925z" clip-path="url(#a)" fill="#fff" stroke="#fff"/>
<g clip-path="url(#a)">
<g transform="translate(1735.9 715.74) rotate(-76.879) scale(.08 -.08)">
<defs>
<path id="bb" d="m9.8125 72.906h13.281l32.328-60.984v60.984h9.5625v-72.906h-13.281l-32.312 60.984v-60.984h-9.5781z"/>
</defs>
<use xlink:href="#bb"/>
</g>
</g>
<path d="m1770.6 710.95 1.2077 5.4541q0.51887 2.3432 2.8621 1.8244l7.5594-1.6739q2.3432-0.51887 1.8244-2.8621l-1.2077-5.4541q-0.51887-2.3432-2.8621-1.8244l-7.5594 1.6739q-2.3432 0.51887-1.8244 2.8621z" clip-path="url(#a)" fill="#fff" stroke="#fff"/>
<g clip-path="url(#a)">
<g transform="translate(1774.6 710.08) rotate(77.514) scale(.08 -.08)">
<use xlink:href="#x"/>
</g>
</g>
<path d="m1814.5 713.47 3.3174 4.8245q1.3598 1.9776 3.3374 0.61778l6.3798-4.3868q1.9776-1.3598 0.61778-3.3374l-3.3174-4.8245q-1.3598-1.9776-3.3374-0.61778l-6.3798 4.3868q-1.9776 1.3598-0.61778 3.3374z" clip-path="url(#a)" fill="#fff" stroke="#fff"/>
<g clip-path="url(#a)">
<g transform="translate(1817.8 711.16) rotate(55.487) scale(.08 -.08)">
<use xlink:href="#ab"/>
</g>
</g>
<path d="m1622.7 882.79v33.808q0 2.4 2.4 2.4h7.7425q2.4 0 2.4-2.4v-33.808q0-2.4-2.4-2.4h-7.7425q-2.4 0-2.4 2.4z" clip-path="url(#a)" fill="#fff" stroke="#fff"/>
<g clip-path="url(#a)">
<g transform="translate(1626.7 882.79) rotate(90) scale(.08 -.08)">
<use xlink:href="#e"/>
<use x="44.083984" xlink:href="#l"/>
<use x="105.607422" xlink:href="#g"/>
<use x="144.970703" xlink:href="#i"/>
<use x="242.382812" xlink:href="#k"/>
<use x="270.166016" xlink:href="#h"/>
<use x="333.544922" xlink:href="#f"/>
<use x="394.824219" xlink:href="#j"/>
</g>
</g>
<path d="m1706.2 882.79v33.808q0 2.4 2.4 2.4h7.7425q2.4 0 2.4-2.4v-33.808q0-2.4-2.4-2.4h-7.7425q-2.4 0-2.4 2.4z" clip-path="url(#a)" fill="#fff" stroke="#fff"/>
<g clip-path="url(#a)">
<g transform="translate(1710.3 882.79) rotate(90) scale(.08 -.08)">
<use xlink:href="#e"/>
<use x="44.083984" xlink:href="#l"/>
<use x="105.607422" xlink:href="#g"/>
<use x="144.970703" xlink:href="#i"/>
<use x="242.382812" xlink:href="#k"/>
<use x="270.166016" xlink:href="#h"/>
<use x="333.544922" xlink:href="#f"/>
<use x="394.824219" xlink:href="#j"/>
</g>
</g>
<path d="m1792 882.79v33.808q0 2.4 2.4 2.4h7.7425q2.4 0 2.4-2.4v-33.808q0-2.4-2.4-2.4h-7.7425q-2.4 0-2.4 2.4z" clip-path="url(#a)" fill="#fff" stroke="#fff"/>
<g clip-path="url(#a)">
<g transform="translate(1796 882.79) rotate(90) scale(.08 -.08)">
<use xlink:href="#e"/>
<use x="44.083984" xlink:href="#l"/>
<use x="105.607422" xlink:href="#g"/>
<use x="144.970703" xlink:href="#i"/>
<use x="242.382812" xlink:href="#k"/>
<use x="270.166016" xlink:href="#h"/>
<use x="333.544922" xlink:href="#f"/>
<use x="394.824219" xlink:href="#j"/>
</g>
</g>
<path d="m661.46 616.87 2.3048 5.8606q0.87838 2.2335 3.1119 1.3551l7.2053-2.8337q2.2335-0.87838 1.3551-3.1119l-2.3048-5.8606q-0.87838-2.2335-3.1119-1.3551l-7.2053 2.8337q-2.2335 0.87838-1.3551 3.1119z" clip-path="url(#a)" fill="#fff" stroke="#fff"/>
<g clip-path="url(#a)">
<g transform="translate(665.24 615.38) rotate(68.531) scale(.08 -.08)">
<defs>
<path id="ah" d="m39.406 66.219q-10.75 0-17.078-8.0156-6.3125-8-6.3125-21.828 0-13.766 6.3125-21.781 6.3281-8 17.078-8 10.734 0 17.016 8 6.2812 8.0156 6.2812 21.781 0 13.828-6.2812 21.828-6.2812 8.0156-17.016 8.0156zm13.812-64.906 13-14.203h-11.922l-10.797 11.672q-1.6094-0.09375-2.4688-0.14062-0.84375-0.0625-1.625-0.0625-15.375 0-24.594 10.281-9.2031 10.281-9.2031 27.516 0 17.281 9.2031 27.562 9.2188 10.281 24.594 10.281 15.328 0 24.5-10.281 9.1875-10.281 9.1875-27.562 0-12.688-5.1094-21.734-5.0938-9.0312-14.766-13.328z"/>
</defs>
<use xlink:href="#ah"/>
</g>
</g>
<path d="m689.09 618.01 2.6489 4.9183q1.138 2.113 3.2511 0.975l6.8167-3.6713q2.113-1.138 0.975-3.2511l-2.6489-4.9183q-1.138-2.113-3.2511-0.975l-6.8167 3.6713q-2.113 1.138-0.975 3.2511z" clip-path="url(#a)" fill="#fff" stroke="#fff"/>
<g clip-path="url(#a)">
<g transform="translate(692.67 616.09) rotate(61.694) scale(.08 -.08)">
<use xlink:href="#x"/>
</g>
</g>
<path d="m418.54 529.89 4.4517-2.3949q2.1136-1.137 0.97653-3.2506l-3.6681-6.8185q-1.137-2.1136-3.2506-0.97654l-4.4517 2.3949q-2.1136 1.137-0.97653 3.2506l3.6681 6.8184q1.137 2.1136 3.2506 0.97654z" clip-path="url(#a)" fill="#fff" stroke="#fff"/>
<g clip-path="url(#a)">
<g transform="translate(416.62 526.31) rotate(-28.279) scale(.08 -.08)">
<defs>
<path id="ai" d="m9.8125 72.906h46.094v-8.3125h-36.234v-21.578h34.719v-8.2969h-34.719v-26.422h37.109v-8.2969h-46.969z"/>
</defs>
<use xlink:href="#ai"/>
</g>
</g>
<path d="m736.57 882.79v33.808q0 2.4 2.4 2.4h7.7425q2.4 0 2.4-2.4v-33.808q0-2.4-2.4-2.4h-7.7425q-2.4 0-2.4 2.4z" clip-path="url(#a)" fill="#fff" stroke="#fff"/>
<g clip-path="url(#a)">
<g transform="translate(740.63 882.79) rotate(90) scale(.08 -.08)">
<use xlink:href="#e"/>
<use x="44.083984" xlink:href="#l"/>
<use x="105.607422" xlink:href="#g"/>
<use x="144.970703" xlink:href="#i"/>
<use x="242.382812" xlink:href="#k"/>
<use x="270.166016" xlink:href="#h"/>
<use x="333.544922" xlink:href="#f"/>
<use x="394.824219" xlink:href="#j"/>
</g>
</g>
<path d="m791.54 882.79v33.808q0 2.4 2.4 2.4h7.7425q2.4 0 2.4-2.4v-33.808q0-2.4-2.4-2.4h-7.7425q-2.4 0-2.4 2.4z" clip-path="url(#a)" fill="#fff" stroke="#fff"/>
<g clip-path="url(#a)">
<g transform="translate(795.6 882.79) rotate(90) scale(.08 -.08)">
<use xlink:href="#e"/>
<use x="44.083984" xlink:href="#l"/>
<use x="105.607422" xlink:href="#g"/>
<use x="144.970703" xlink:href="#i"/>
<use x="242.382812" xlink:href="#k"/>
<use x="270.166016" xlink:href="#h"/>
<use x="333.544922" xlink:href="#f"/>
<use x="394.824219" xlink:href="#j"/>
</g>
</g>
<path d="m461.39 618.27 3.4284 5.2825q1.3066 2.0132 3.3197 0.70662l6.4946-4.215q2.0132-1.3066 0.70662-3.3197l-3.4284-5.2825q-1.3066-2.0132-3.3197-0.70662l-6.4946 4.215q-2.0132 1.3066-0.70662 3.3197z" clip-path="url(#a)" fill="#fff" stroke="#fff"/>
<g clip-path="url(#a)">
<g transform="translate(464.8 616.06) rotate(57.016) scale(.08 -.08)">
<use xlink:href="#ah"/>
</g>
</g>
<path d="m279.77 622.31 1.9564-5.2325q0.84054-2.248-1.4075-3.0885l-7.2521-2.7116q-2.248-0.84054-3.0885 1.4075l-1.9564 5.2325q-0.84054 2.248 1.4075 3.0885l7.2521 2.7116q2.248 0.84054 3.0885-1.4075z" clip-path="url(#a)" fill="#fff" stroke="#fff"/>
<g clip-path="url(#a)">
<g transform="translate(275.97 620.89) rotate(-69.499) scale(.08 -.08)">
<use xlink:href="#x"/>
</g>
</g>
<path d="m297.85 528.4 2.4319-4.4316q1.1546-2.104-0.9494-3.2586l-6.7876-3.7248q-2.104-1.1546-3.2586 0.9494l-2.4319 4.4316q-1.1546 2.104 0.9494 3.2586l6.7876 3.7248q2.104 1.1546 3.2586-0.9494z" clip-path="url(#a)" fill="#fff" stroke="#fff"/>
<g clip-path="url(#a)">
<g transform="translate(294.29 526.45) rotate(-61.244) scale(.08 -.08)">
<use xlink:href="#ai"/>
</g>
</g>
<path d="m584.86 882.79v33.808q0 2.4 2.4 2.4h7.7425q2.4 0 2.4-2.4v-33.808q0-2.4-2.4-2.4h-7.7425q-2.4 0-2.4 2.4z" clip-path="url(#a)" fill="#fff" stroke="#fff"/>
<g clip-path="url(#a)">
<g transform="translate(588.92 882.79) rotate(90) scale(.08 -.08)">
<use xlink:href="#e"/>
<use x="44.083984" xlink:href="#l"/>
<use x="105.607422" xlink:href="#g"/>
<use x="144.970703" xlink:href="#i"/>
<use x="242.382812" xlink:href="#k"/>
<use x="270.166016" xlink:href="#h"/>
<use x="333.544922" xlink:href="#f"/>
<use x="394.824219" xlink:href="#j"/>
</g>
</g>
<path d="m310.54 615.97 1.5269 6.1096q0.5819 2.3284 2.9103 1.7465l7.5115-1.8772q2.3284-0.5819 1.7465-2.9103l-1.5269-6.1096q-0.5819-2.3284-2.9103-1.7465l-7.5115 1.8772q-2.3284 0.5819-1.7465 2.9103z" clip-path="url(#a)" fill="#fff" stroke="#fff"/>
<g clip-path="url(#a)">
<g transform="translate(314.48 614.98) rotate(75.968) scale(.08 -.08)">
<use xlink:href="#ah"/>
</g>
</g>
<path d="m242.83 621.33 0.95954-5.5032q0.41224-2.3643-1.9521-2.7766l-7.6274-1.3299q-2.3643-0.41224-2.7766 1.9521l-0.95954 5.5032q-0.41224 2.3643 1.9521 2.7766l7.6274 1.3299q2.3643 0.41224 2.7766-1.9521z" clip-path="url(#a)" fill="#fff" stroke="#fff"/>
<g clip-path="url(#a)">
<g transform="translate(238.83 620.63) rotate(-80.109) scale(.08 -.08)">
<use xlink:href="#x"/>
</g>
</g>
<path d="m261.65 526.6 0.75337-4.9985q0.35768-2.3732-2.0155-2.7309l-7.656-1.1539q-2.3732-0.35768-2.7309 2.0155l-0.75337 4.9985q-0.35768 2.3732 2.0155 2.7309l7.656 1.1539q2.3732 0.35768 2.7309-2.0155z" clip-path="url(#a)" fill="#fff" stroke="#fff"/>
<g clip-path="url(#a)">
<g transform="translate(257.63 526) rotate(-81.429) scale(.08 -.08)">
<use xlink:href="#ai"/>
</g>
</g>
<path d="m360.52 917.11 3.1817-33.657q0.22587-2.3893-2.1635-2.6152l-7.7081-0.72867q-2.3893-0.22587-2.6152 2.1635l-3.1817 33.657q-0.22587 2.3893 2.1635 2.6152l7.7081 0.72867q2.3893 0.22587 2.6152-2.1635z" clip-path="url(#a)" fill="#fff" stroke="#fff"/>
<g clip-path="url(#a)">
<g transform="translate(356.47 916.73) rotate(-84.6) scale(.08 -.08)">
<use xlink:href="#e"/>
<use x="44.083984" xlink:href="#l"/>
<use x="105.607422" xlink:href="#g"/>
<use x="144.970703" xlink:href="#i"/>
<use x="242.382812" xlink:href="#k"/>
<use x="270.166016" xlink:href="#h"/>
<use x="333.544922" xlink:href="#f"/>
<use x="394.824219" xlink:href="#j"/>
</g>
</g>
<path d="m365.62 883.45 3.1817 33.657q0.22587 2.3893 2.6152 2.1635l7.7081-0.72867q2.3893-0.22587 2.1635-2.6152l-3.1817-33.657q-0.22587-2.3893-2.6152-2.1635l-7.7081 0.72867q-2.3893 0.22587-2.1635 2.6152z" clip-path="url(#a)" fill="#fff" stroke="#fff"/>
<g clip-path="url(#a)">
<g transform="translate(369.67 883.07) rotate(84.6) scale(.08 -.08)">
<use xlink:href="#e"/>
<use x="44.083984" xlink:href="#l"/>
<use x="105.607422" xlink:href="#g"/>
<use x="144.970703" xlink:href="#i"/>
<use x="242.382812" xlink:href="#k"/>
<use x="270.166016" xlink:href="#h"/>
<use x="333.544922" xlink:href="#f"/>
<use x="394.824219" xlink:href="#j"/>
</g>
</g>
<path d="m83.547 882.79v33.808q0 2.4 2.4 2.4h7.7425q2.4 0 2.4-2.4v-33.808q0-2.4-2.4-2.4h-7.7425q-2.4 0-2.4 2.4z" clip-path="url(#a)" fill="#fff" stroke="#fff"/>
<g clip-path="url(#a)">
<g transform="translate(87.611 882.79) rotate(90) scale(.08 -.08)">
<use xlink:href="#e"/>
<use x="44.083984" xlink:href="#l"/>
<use x="105.607422" xlink:href="#g"/>
<use x="144.970703" xlink:href="#i"/>
<use x="242.382812" xlink:href="#k"/>
<use x="270.166016" xlink:href="#h"/>
<use x="333.544922" xlink:href="#f"/>
<use x="394.824219" xlink:href="#j"/>
</g>
</g>
<path d="m90.143 882.79v33.808q0 2.4 2.4 2.4h7.7425q2.4 0 2.4-2.4v-33.808q0-2.4-2.4-2.4h-7.7425q-2.4 0-2.4 2.4z" clip-path="url(#a)" fill="#fff" stroke="#fff"/>
<g clip-path="url(#a)">
<g transform="translate(94.207 882.79) rotate(90) scale(.08 -.08)">
<use xlink:href="#e"/>
<use x="44.083984" xlink:href="#l"/>
<use x="105.607422" xlink:href="#g"/>
<use x="144.970703" xlink:href="#i"/>
<use x="242.382812" xlink:href="#k"/>
<use x="270.166016" xlink:href="#h"/>
<use x="333.544922" xlink:href="#f"/>
<use x="394.824219" xlink:href="#j"/>
</g>
</g>
<path d="m109.93 882.79v33.808q0 2.4 2.4 2.4h7.7425q2.4 0 2.4-2.4v-33.808q0-2.4-2.4-2.4h-7.7425q-2.4 0-2.4 2.4z" clip-path="url(#a)" fill="#fff" stroke="#fff"/>
<g clip-path="url(#a)">
<g transform="translate(114 882.79) rotate(90) scale(.08 -.08)">
<use xlink:href="#e"/>
<use x="44.083984" xlink:href="#l"/>
<use x="105.607422" xlink:href="#g"/>
<use x="144.970703" xlink:href="#i"/>
<use x="242.382812" xlink:href="#k"/>
<use x="270.166016" xlink:href="#h"/>
<use x="333.544922" xlink:href="#f"/>
<use x="394.824219" xlink:href="#j"/>
</g>
</g>
<path d="m123.12 882.79v33.808q0 2.4 2.4 2.4h7.7425q2.4 0 2.4-2.4v-33.808q0-2.4-2.4-2.4h-7.7425q-2.4 0-2.4 2.4z" clip-path="url(#a)" fill="#fff" stroke="#fff"/>
<g clip-path="url(#a)">
<g transform="translate(127.19 882.79) rotate(90) scale(.08 -.08)">
<use xlink:href="#e"/>
<use x="44.083984" xlink:href="#l"/>
<use x="105.607422" xlink:href="#g"/>
<use x="144.970703" xlink:href="#i"/>
<use x="242.382812" xlink:href="#k"/>
<use x="270.166016" xlink:href="#h"/>
<use x="333.544922" xlink:href="#f"/>
<use x="394.824219" xlink:href="#j"/>
</g>
</g>
<path d="m138.52 882.79v33.808q0 2.4 2.4 2.4h7.7425q2.4 0 2.4-2.4v-33.808q0-2.4-2.4-2.4h-7.7425q-2.4 0-2.4 2.4z" clip-path="url(#a)" fill="#fff" stroke="#fff"/>
<g clip-path="url(#a)">
<g transform="translate(142.58 882.79) rotate(90) scale(.08 -.08)">
<use xlink:href="#e"/>
<use x="44.083984" xlink:href="#l"/>
<use x="105.607422" xlink:href="#g"/>
<use x="144.970703" xlink:href="#i"/>
<use x="242.382812" xlink:href="#k"/>
<use x="270.166016" xlink:href="#h"/>
<use x="333.544922" xlink:href="#f"/>
<use x="394.824219" xlink:href="#j"/>
</g>
</g>
<path d="m195.09 621.19 0.559-6.2726q0.21304-2.3905-2.1775-2.6036l-7.7119-0.68726q-2.3905-0.21304-2.6036 2.1775l-0.559 6.2726q-0.21304 2.3905 2.1775 2.6036l7.7119 0.68726q2.3905 0.21304 2.6036-2.1775z" clip-path="url(#a)" fill="#fff" stroke="#fff"/>
<g clip-path="url(#a)">
<g transform="translate(191.05 620.83) rotate(-84.907) scale(.08 -.08)">
<use xlink:href="#ah"/>
</g>
</g>
<path d="m211.33 620.32 0.027055-5.5862q0.011624-2.4-2.3883-2.4116l-7.7424-0.037499q-2.4-0.011624-2.4116 2.3883l-0.027055 5.5862q-0.011624 2.4 2.3883 2.4116l7.7424 0.037499q2.4 0.011624 2.4116-2.3883z" clip-path="url(#a)" fill="#fff" stroke="#fff"/>
<g clip-path="url(#a)">
<g transform="translate(207.26 620.3) rotate(-89.723) scale(.08 -.08)">
<use xlink:href="#x"/>
</g>
</g>
<path d="m217.13 521.84 0.93124 4.9685q0.44213 2.3589 2.8011 1.9168l7.61-1.4263q2.3589-0.44213 1.9168-2.8011l-0.93124-4.9685q-0.44213-2.3589-2.8011-1.9168l-7.61 1.4263q-2.3589 0.44213-1.9168 2.8011z" clip-path="url(#a)" fill="#fff" stroke="#fff"/>
<g clip-path="url(#a)">
<g transform="translate(221.12 521.09) rotate(79.384) scale(.08 -.08)">
<use xlink:href="#ai"/>
</g>
</g>
<path d="m172.69 916.9 1.7952-33.76q0.12744-2.3966-2.2692-2.5241l-7.7316-0.41112q-2.3966-0.12744-2.5241 2.2692l-1.7952 33.76q-0.12744 2.3966 2.2692 2.5241l7.7316 0.41112q2.3966 0.12744 2.5241-2.2692z" clip-path="url(#a)" fill="#fff" stroke="#fff"/>
<g clip-path="url(#a)">
<g transform="translate(168.63 916.69) rotate(-86.956) scale(.08 -.08)">
<use xlink:href="#e"/>
<use x="44.083984" xlink:href="#l"/>
<use x="105.607422" xlink:href="#g"/>
<use x="144.970703" xlink:href="#i"/>
<use x="242.382812" xlink:href="#k"/>
<use x="270.166016" xlink:href="#h"/>
<use x="333.544922" xlink:href="#f"/>
<use x="394.824219" xlink:href="#j"/>
</g>
</g>
<path d="m170.06 883.14 1.7952 33.76q0.12744 2.3966 2.5241 2.2692l7.7316-0.41112q2.3966-0.12744 2.2692-2.5241l-1.7952-33.76q-0.12744-2.3966-2.5241-2.2692l-7.7316 0.41112q-2.3966 0.12744-2.2692 2.5241z" clip-path="url(#a)" fill="#fff" stroke="#fff"/>
<g clip-path="url(#a)">
<g transform="translate(174.12 882.93) rotate(86.956) scale(.08 -.08)">
<use xlink:href="#e"/>
<use x="44.083984" xlink:href="#l"/>
<use x="105.607422" xlink:href="#g"/>
<use x="144.970703" xlink:href="#i"/>
<use x="242.382812" xlink:href="#k"/>
<use x="270.166016" xlink:href="#h"/>
<use x="333.544922" xlink:href="#f"/>
<use x="394.824219" xlink:href="#j"/>
</g>
</g>
<path d="m197.88 882.79v33.808q0 2.4 2.4 2.4h7.7425q2.4 0 2.4-2.4v-33.808q0-2.4-2.4-2.4h-7.7425q-2.4 0-2.4 2.4z" clip-path="url(#a)" fill="#fff" stroke="#fff"/>
<g clip-path="url(#a)">
<g transform="translate(201.94 882.79) rotate(90) scale(.08 -.08)">
<use xlink:href="#e"/>
<use x="44.083984" xlink:href="#l"/>
<use x="105.607422" xlink:href="#g"/>
<use x="144.970703" xlink:href="#i"/>
<use x="242.382812" xlink:href="#k"/>
<use x="270.166016" xlink:href="#h"/>
<use x="333.544922" xlink:href="#f"/>
<use x="394.824219" xlink:href="#j"/>
</g>
</g>
<path d="m241 715.54 0.38776-5.5452q0.16742-2.3942-2.2267-2.5616l-7.7236-0.54009q-2.3942-0.16742-2.5616 2.2267l-0.38776 5.5452q-0.16742 2.3942 2.2267 2.5616l7.7236 0.54009q2.3942 0.16742 2.5616-2.2267z" clip-path="url(#a)" fill="#fff" stroke="#fff"/>
<g clip-path="url(#a)">
<g transform="translate(236.94 715.25) rotate(-86) scale(.08 -.08)">
<use xlink:href="#aw"/>
</g>
</g>
<path d="m241.68 709.98 0.38968 5.5726q0.16742 2.3942 2.5616 2.2267l7.7236-0.54009q2.3942-0.16742 2.2267-2.5616l-0.38968-5.5726q-0.16742-2.3942-2.5616-2.2267l-7.7236 0.54009q-2.3942 0.16742-2.2267 2.5616z" clip-path="url(#a)" fill="#fff" stroke="#fff"/>
<g clip-path="url(#a)">
<g transform="translate(245.73 709.69) rotate(86) scale(.08 -.08)">
<use xlink:href="#x"/>
</g>
</g>
<path d="m222.07 882.79v33.808q0 2.4 2.4 2.4h7.7425q2.4 0 2.4-2.4v-33.808q0-2.4-2.4-2.4h-7.7425q-2.4 0-2.4 2.4z" clip-path="url(#a)" fill="#fff" stroke="#fff"/>
<g clip-path="url(#a)">
<g transform="translate(226.13 882.79) rotate(90) scale(.08 -.08)">
<use xlink:href="#e"/>
<use x="44.083984" xlink:href="#l"/>
<use x="105.607422" xlink:href="#g"/>
<use x="144.970703" xlink:href="#i"/>
<use x="242.382812" xlink:href="#k"/>
<use x="270.166016" xlink:href="#h"/>
<use x="333.544922" xlink:href="#f"/>
<use x="394.824219" xlink:href="#j"/>
</g>
</g>
<path d="m248.45 882.79v33.808q0 2.4 2.4 2.4h7.7425q2.4 0 2.4-2.4v-33.808q0-2.4-2.4-2.4h-7.7425q-2.4 0-2.4 2.4z" clip-path="url(#a)" fill="#fff" stroke="#fff"/>
<g clip-path="url(#a)">
<g transform="translate(252.52 882.79) rotate(90) scale(.08 -.08)">
<use xlink:href="#e"/>
<use x="44.083984" xlink:href="#l"/>
<use x="105.607422" xlink:href="#g"/>
<use x="144.970703" xlink:href="#i"/>
<use x="242.382812" xlink:href="#k"/>
<use x="270.166016" xlink:href="#h"/>
<use x="333.544922" xlink:href="#f"/>
<use x="394.824219" xlink:href="#j"/>
</g>
</g>
<path d="m277.04 882.79v33.808q0 2.4 2.4 2.4h7.7425q2.4 0 2.4-2.4v-33.808q0-2.4-2.4-2.4h-7.7425q-2.4 0-2.4 2.4z" clip-path="url(#a)" fill="#fff" stroke="#fff"/>
<g clip-path="url(#a)">
<g transform="translate(281.1 882.79) rotate(90) scale(.08 -.08)">
<use xlink:href="#e"/>
<use x="44.083984" xlink:href="#l"/>
<use x="105.607422" xlink:href="#g"/>
<use x="144.970703" xlink:href="#i"/>
<use x="242.382812" xlink:href="#k"/>
<use x="270.166016" xlink:href="#h"/>
<use x="333.544922" xlink:href="#f"/>
<use x="394.824219" xlink:href="#j"/>
</g>
</g>
<path d="m413.36 882.79v33.808q0 2.4 2.4 2.4h7.7425q2.4 0 2.4-2.4v-33.808q0-2.4-2.4-2.4h-7.7425q-2.4 0-2.4 2.4z" clip-path="url(#a)" fill="#fff" stroke="#fff"/>
<g clip-path="url(#a)">
<g transform="translate(417.42 882.79) rotate(90) scale(.08 -.08)">
<use xlink:href="#e"/>
<use x="44.083984" xlink:href="#l"/>
<use x="105.607422" xlink:href="#g"/>
<use x="144.970703" xlink:href="#i"/>
<use x="242.382812" xlink:href="#k"/>
<use x="270.166016" xlink:href="#h"/>
<use x="333.544922" xlink:href="#f"/>
<use x="394.824219" xlink:href="#j"/>
</g>
</g>
<path d="m633.23 882.79v33.808q0 2.4 2.4 2.4h7.7425q2.4 0 2.4-2.4v-33.808q0-2.4-2.4-2.4h-7.7425q-2.4 0-2.4 2.4z" clip-path="url(#a)" fill="#fff" stroke="#fff"/>
<g clip-path="url(#a)">
<g transform="translate(637.29 882.79) rotate(90) scale(.08 -.08)">
<use xlink:href="#e"/>
<use x="44.083984" xlink:href="#l"/>
<use x="105.607422" xlink:href="#g"/>
<use x="144.970703" xlink:href="#i"/>
<use x="242.382812" xlink:href="#k"/>
<use x="270.166016" xlink:href="#h"/>
<use x="333.544922" xlink:href="#f"/>
<use x="394.824219" xlink:href="#j"/>
</g>
</g>
<path d="m848.71 882.79v33.808q0 2.4 2.4 2.4h7.7425q2.4 0 2.4-2.4v-33.808q0-2.4-2.4-2.4h-7.7425q-2.4 0-2.4 2.4z" clip-path="url(#a)" fill="#fff" stroke="#fff"/>
<g clip-path="url(#a)">
<g transform="translate(852.77 882.79) rotate(90) scale(.08 -.08)">
<use xlink:href="#e"/>
<use x="44.083984" xlink:href="#l"/>
<use x="105.607422" xlink:href="#g"/>
<use x="144.970703" xlink:href="#i"/>
<use x="242.382812" xlink:href="#k"/>
<use x="270.166016" xlink:href="#h"/>
<use x="333.544922" xlink:href="#f"/>
<use x="394.824219" xlink:href="#j"/>
</g>
</g>
<path d="m1879.9 882.79v33.808q0 2.4 2.4 2.4h7.7425q2.4 0 2.4-2.4v-33.808q0-2.4-2.4-2.4h-7.7425q-2.4 0-2.4 2.4z" clip-path="url(#a)" fill="#fff" stroke="#fff"/>
<g clip-path="url(#a)">
<g transform="translate(1884 882.79) rotate(90) scale(.08 -.08)">
<use xlink:href="#e"/>
<use x="44.083984" xlink:href="#l"/>
<use x="105.607422" xlink:href="#g"/>
<use x="144.970703" xlink:href="#i"/>
<use x="242.382812" xlink:href="#k"/>
<use x="270.166016" xlink:href="#h"/>
<use x="333.544922" xlink:href="#f"/>
<use x="394.824219" xlink:href="#j"/>
</g>
</g>
<defs>
<path id="b" d="m0 8.6603c2.2967 0 4.4997-0.9125 6.1237-2.5365 1.624-1.624 2.5365-3.827 2.5365-6.1237s-0.9125-4.4997-2.5365-6.1237c-1.624-1.624-3.827-2.5365-6.1237-2.5365s-4.4997 0.9125-6.1237 2.5365c-1.624 1.624-2.5365 3.827-2.5365 6.1237s0.9125 4.4997 2.5365 6.1237c1.624 1.624 3.827 2.5365 6.1237 2.5365z"/>
</defs>
<g clip-path="url(#a)" fill="#ffffff" stroke="#ffffff">
<use x="89.818182" y="992.727273" xlink:href="#b"/>
<use x="96.414376" y="992.727273" xlink:href="#b"/>
<use x="105.209302" y="992.727273" xlink:href="#b"/>
<use x="116.20296" y="992.727273" xlink:href="#b"/>
<use x="129.395349" y="992.727273" xlink:href="#b"/>
<use x="144.786469" y="992.727273" xlink:href="#b"/>
<use x="162.376321" y="992.727273" xlink:href="#b"/>
<use x="182.164905" y="992.727273" xlink:href="#b"/>
<use x="204.15222" y="992.727273" xlink:href="#b"/>
<use x="228.338266" y="992.727273" xlink:href="#b"/>
<use x="254.723044" y="992.727273" xlink:href="#b"/>
<use x="283.306554" y="992.727273" xlink:href="#b"/>
<use x="314.088795" y="992.727273" xlink:href="#b"/>
<use x="347.069767" y="992.727273" xlink:href="#b"/>
<use x="382.249471" y="992.727273" xlink:href="#b"/>
<use x="419.627907" y="992.727273" xlink:href="#b"/>
<use x="459.205074" y="992.727273" xlink:href="#b"/>
<use x="500.980973" y="992.727273" xlink:href="#b"/>
<use x="544.955603" y="992.727273" xlink:href="#b"/>
<use x="591.128964" y="992.727273" xlink:href="#b"/>
<use x="639.501057" y="992.727273" xlink:href="#b"/>
<use x="690.071882" y="992.727273" xlink:href="#b"/>
<use x="742.841438" y="992.727273" xlink:href="#b"/>
<use x="797.809725" y="992.727273" xlink:href="#b"/>
<use x="854.976744" y="992.727273" xlink:href="#b"/>
<use x="914.342495" y="992.727273" xlink:href="#b"/>
<use x="975.906977" y="992.727273" xlink:href="#b"/>
<use x="1039.67019" y="992.727273" xlink:href="#b"/>
<use x="1105.632135" y="992.727273" xlink:href="#b"/>
<use x="1173.792812" y="992.727273" xlink:href="#b"/>
<use x="1244.15222" y="992.727273" xlink:href="#b"/>
<use x="1316.710359" y="992.727273" xlink:href="#b"/>
<use x="1391.46723" y="992.727273" xlink:href="#b"/>
<use x="1468.422833" y="992.727273" xlink:href="#b"/>
<use x="1547.577167" y="992.727273" xlink:href="#b"/>
<use x="1628.930233" y="992.727273" xlink:href="#b"/>
<use x="1712.48203" y="992.727273" xlink:href="#b"/>
<use x="1798.232558" y="992.727273" xlink:href="#b"/>
<use x="1886.181818" y="992.727273" xlink:href="#b"/>
<use x="539.724405" y="47.272727" xlink:href="#b"/>
<use x="130.433639" y="238.049531" xlink:href="#b"/>
<use x="105.209302" y="806.655305" xlink:href="#b"/>
<use x="314.088795" y="806.655305" xlink:href="#b"/>
<use x="151.382664" y="238.049531" xlink:href="#b"/>
<use x="459.205074" y="806.655305" xlink:href="#b"/>
<use x="500.980973" y="806.655305" xlink:href="#b"/>
<use x="544.955603" y="806.655305" xlink:href="#b"/>
<use x="170.255109" y="238.049531" xlink:href="#b"/>
<use x="690.071882" y="806.655305" xlink:href="#b"/>
<use x="232.369274" y="238.049531" xlink:href="#b"/>
<use x="914.342495" y="806.655305" xlink:href="#b"/>
<use x="1007.788584" y="806.655305" xlink:href="#b"/>
<use x="1105.632135" y="806.655305" xlink:href="#b"/>
<use x="1190.911507" y="238.049531" xlink:href="#b"/>
<use x="1173.792812" y="806.655305" xlink:href="#b"/>
<use x="1244.15222" y="806.655305" xlink:href="#b"/>
<use x="1316.710359" y="806.655305" xlink:href="#b"/>
<use x="1391.46723" y="806.655305" xlink:href="#b"/>
<use x="1468.422833" y="806.655305" xlink:href="#b"/>
<use x="1652.016913" y="428.344931" xlink:href="#b"/>
<use x="1547.577167" y="806.655305" xlink:href="#b"/>
<use x="1756.45666" y="617.994872" xlink:href="#b"/>
<use x="1628.930233" y="806.655305" xlink:href="#b"/>
<use x="1712.48203" y="806.655305" xlink:href="#b"/>
<use x="1798.232558" y="806.655305" xlink:href="#b"/>
<use x="594.060606" y="428.344931" xlink:href="#b"/>
<use x="742.841438" y="806.655305" xlink:href="#b"/>
<use x="797.809725" y="806.655305" xlink:href="#b"/>
<use x="345.603946" y="428.344931" xlink:href="#b"/>
<use x="591.128964" y="806.655305" xlink:href="#b"/>
<use x="270.114165" y="428.344931" xlink:href="#b"/>
<use x="364.659619" y="806.655305" xlink:href="#b"/>
<use x="89.818182" y="806.655305" xlink:href="#b"/>
<use x="96.414376" y="806.655305" xlink:href="#b"/>
<use x="116.20296" y="806.655305" xlink:href="#b"/>
<use x="129.395349" y="806.655305" xlink:href="#b"/>
<use x="144.786469" y="806.655305" xlink:href="#b"/>
<use x="205.984496" y="428.344931" xlink:href="#b"/>
<use x="172.270613" y="806.655305" xlink:href="#b"/>
<use x="204.15222" y="806.655305" xlink:href="#b"/>
<use x="241.530655" y="617.994872" xlink:href="#b"/>
<use x="228.338266" y="806.655305" xlink:href="#b"/>
<use x="254.723044" y="806.655305" xlink:href="#b"/>
<use x="283.306554" y="806.655305" xlink:href="#b"/>
<use x="419.627907" y="806.655305" xlink:href="#b"/>
<use x="639.501057" y="806.655305" xlink:href="#b"/>
<use x="854.976744" y="806.655305" xlink:href="#b"/>
<use x="1886.181818" y="806.655305" xlink:href="#b"/>
</g>
<g clip-path="url(#a)">
<g transform="translate(82.613 995.49) scale(.1 -.1)">
<defs>
<path id="bj" d="m39.406 66.219q-10.75 0-17.078-8.0156-6.3125-8-6.3125-21.828 0-13.766 6.3125-21.781 6.3281-8 17.078-8 10.734 0 17.016 8 6.2812 8.0156 6.2812 21.781 0 13.828-6.2812 21.828-6.2812 8.0156-17.016 8.0156zm0 8q15.328 0 24.5-10.281 9.1875-10.281 9.1875-27.562 0-17.234-9.1875-27.516-9.1719-10.281-24.5-10.281-15.375 0-24.594 10.25-9.2031 10.266-9.2031 27.547t9.2031 27.562q9.2188 10.281 24.594 10.281z"/>
<path id="ae" d="m9.0781 54.688h9.0312v-22.312h29.156v22.312h9.0312v-54.688h-9.0312v25.203h-29.156v-25.203h-9.0312z"/>
</defs>
<use xlink:href="#bj"/>
<use x="78.710938" xlink:href="#ae"/>
</g>
</g>
<g clip-path="url(#a)">
<g transform="translate(89.383 995.49) scale(.1 -.1)">
<defs>
<path id="av" d="m31.109 56q11.719 0 18.406-7.625 6.6875-7.6094 6.6875-21.078 0-13.422-6.6875-21.078-6.6875-7.6406-18.406-7.6406-11.766 0-18.266 7.4219t-6.8438 21.297l-0.28125 11.188q-0.25 5.7969-0.25 7.8125 0 7.8125 2.8281 13.562 4.4531 9.0312 12.141 12.938t20.578 4.0156q5.9531 0.046875 8.5938 0.875l2.4844-7.125q-2.3906-0.98438-4.5781-1.0312l-12.219-0.82812q-6.1406-0.4375-9.8594-2.5938-9.7188-5.7031-10.641-13.172l-0.34375-2.7344q6.3438 5.7969 16.656 5.7969zm0-7.6094q-7.2344 0-11.438-5.6406-4.1875-5.6406-4.1875-15.453t4.1719-15.453 11.453-5.6406q7.1719 0 11.375 5.6562 4.2031 5.6719 4.2031 15.438 0 9.7188-4.2031 15.406t-11.375 5.6875z"/>
<path id="as" d="m61.047 54.688h8.9844v-54.688h-8.9844zm4.5 1.3125m-22.094-39.781q0 4.3906-3.2031 6.6875-3.1875 2.2969-9.3438 2.2969h-12.797v-18.031h12.797q6.1562 0 9.3438 2.3125 3.2031 2.3281 3.2031 6.7344zm-34.375 38.469h9.0312v-22.312h13.188q10.453 0 16.094-3.9844 5.6406-3.9688 5.6406-12.172t-5.6406-12.219q-5.6406-4-16.094-4h-22.219z"/>
</defs>
<use xlink:href="#av"/>
<use x="61.669922" xlink:href="#as"/>
</g>
</g>
<g clip-path="url(#a)">
<g transform="translate(90.089 995.49) scale(.1 -.1)">
<defs>
<path id="r" d="m2.9375 54.688h52.391v-7.1719h-21.781v-47.516h-8.8438v47.516h-21.766z"/>
<path id="u" d="m30.609 48.391q-7.2188 0-11.422-5.6406t-4.2031-15.453 4.1719-15.453q4.1875-5.6406 11.453-5.6406 7.1875 0 11.375 5.6562 4.2031 5.6719 4.2031 15.438 0 9.7188-4.2031 15.406-4.1875 5.6875-11.375 5.6875zm0 7.6094q11.719 0 18.406-7.625 6.7031-7.6094 6.7031-21.078 0-13.422-6.7031-21.078-6.6875-7.6406-18.406-7.6406-11.766 0-18.438 7.6406-6.6562 7.6562-6.6562 21.078 0 13.469 6.6562 21.078 6.6719 7.625 18.438 7.625z"/>
<path id="ba" d="m9.0781 0v54.688h38.578v-7.1719h-29.547v-47.516z"/>
<path id="z" d="m21.625 7.1719h26.078v40.344h-18.891v-6.8438q0-20.109-5.7656-30.859zm-13.031 0q4.4375 1.9531 6.3906 6.1094 4.7969 10.297 4.7969 31.062v10.344h36.953v-47.516h7.1875v-20.984h-7.1875v13.812h-44.328v-13.812h-7.1875v20.984z"/>
<path id="p" d="m34.281 27.484q-10.891 0-15.094-2.4844t-4.2031-8.5q0-4.7812 3.1562-7.5938 3.1562-2.7969 8.5625-2.7969 7.4844 0 12 5.2969t4.5156 14.078v2zm17.922 3.7188v-31.203h-8.9844v8.2969q-3.0781-4.9688-7.6719-7.3438t-11.234-2.375q-8.3906 0-13.359 4.7188-4.9531 4.7188-4.9531 12.625 0 9.2188 6.1719 13.906 6.1875 4.6875 18.438 4.6875h12.609v0.89062q0 6.2031-4.0781 9.5938t-11.453 3.3906q-4.6875 0-9.1406-1.125-4.4375-1.125-8.5312-3.375v8.3125q4.9219 1.9062 9.5625 2.8438 4.6406 0.95312 9.0312 0.95312 11.875 0 17.734-6.1562 5.8594-6.1406 5.8594-18.641z"/>
</defs>
<use xlink:href="#r"/>
<use x="58.251953" xlink:href="#u"/>
<use x="119.433594" xlink:href="#ba"/>
<use x="171.972656" xlink:href="#z"/>
<use x="241.113281" xlink:href="#p"/>
</g>
</g>
<g clip-path="url(#a)">
<g transform="translate(87.69 995.49) scale(.1 -.1)">
<defs>
<path id="aq" d="m3.7188 0v7.4688q8.875 1.375 11.609 7.5156 3.3281 8.6562 3.3281 30.766v8.9375h36.953v-54.688h-8.9844v47.516h-18.984v-5.4219q0-21.094-4.2969-30.562-4.5938-10.109-19.625-11.531z"/>
<path id="bd" d="m53.609 48.391q-7.2188 0-11.422-5.6406t-4.2031-15.453 4.1719-15.453q4.1875-5.6406 11.453-5.6406 7.1875 0 11.375 5.6562 4.2031 5.6719 4.2031 15.438 0 9.7188-4.2031 15.406-4.1875 5.6875-11.375 5.6875zm-24.797-15.531q0.92188 9.2812 7 16.203 6.0781 6.9375 17.797 6.9375t18.406-7.625q6.7031-7.6094 6.7031-21.078 0-13.422-6.7031-21.078-6.6875-7.6406-18.406-7.6406-11.766 0-18.188 7.375t-6.8594 19.484h-10.156v-25.438h-8.9844v54.688h8.9844v-21.828z"/>
<path id="ag" d="m18.062 25.203v-18.031h12.797q6.1562 0 9.375 2.3125 3.2188 2.3281 3.2188 6.7344 0 4.3906-3.2188 6.6875t-9.375 2.2969zm0 22.312v-15.141h11.828q5.0781 0 8.2969 2.0156 3.2188 2.0312 3.2188 5.6562 0 3.6094-3.2188 5.5312-3.2188 1.9375-8.2969 1.9375zm-8.9844 7.1719h21.391q9.625 0 14.797-3.5156t5.1719-10.016q0-5.0156-2.6406-7.9844-2.625-2.9531-7.8125-3.6719 6.2031-1.1719 9.625-4.8906 3.4219-3.7031 3.4219-9.2812 0-7.3125-5.6406-11.328-5.6406-4-16.094-4h-22.219z"/>
<path id="t" d="m48.781 52.594v-8.4062q-3.8125 2.1094-7.6406 3.1562t-7.7344 1.0469q-8.75 0-13.594-5.5469-4.8281-5.5312-4.8281-15.547t4.8281-15.562q4.8438-5.5312 13.594-5.5312 3.9062 0 7.7344 1.0469t7.6406 3.1562v-8.3125q-3.7656-1.75-7.7969-2.625-4.0156-0.89062-8.5625-0.89062-12.359 0-19.641 7.7656-7.2656 7.7656-7.2656 20.953 0 13.375 7.3438 21.031 7.3594 7.6719 20.156 7.6719 4.1406 0 8.0938-0.85938 3.9531-0.84375 7.6719-2.5469z"/>
<path id="ay" d="m18.453 38.922q0-4.0625 3.125-6.3594 3.125-2.2812 8.9375-2.2812h12.109v17.234h-12.109q-5.8125 0-8.9375-2.25t-3.125-6.3438zm-12.781-38.922 16.688 23.969q-5.6562 1.2812-9.4219 4.625-3.75 3.3438-3.75 10.328 0 7.9062 5.2344 11.828 5.25 3.9375 15.859 3.9375h21.375v-54.688h-9.0312v23.094h-11.172l-16.125-23.094z"/>
</defs>
<use xlink:href="#aq"/>
<use x="63.916016" xlink:href="#bd"/>
<use x="148.095703" xlink:href="#av"/>
<use x="209.765625" xlink:href="#u"/>
<use x="270.947266" xlink:href="#ag"/>
<use x="329.882812" xlink:href="#p"/>
<use x="391.162109" xlink:href="#aq"/>
<use x="455.078125" xlink:href="#t"/>
<use x="510.058594" xlink:href="#ay"/>
</g>
</g>
<g clip-path="url(#a)">
<g transform="translate(107.84 995.49) scale(.1 -.1)">
<defs>
<path id="au" d="m34.469 29.5q6.0625-1.1719 9.4219-4.75 3.375-3.5625 3.375-8.8281 0-8.4531-6.2969-12.906-6.2969-4.4375-17.922-4.4375-3.9062 0-8.0312 0.6875t-8.5156 2.0469v8.3594q3.4688-1.8125 7.6094-2.7188 4.1562-0.89062 8.6875-0.89062 7.375 0 11.5 2.7344t4.125 7.125q0 4.2969-3.6562 6.9062t-10.344 2.6094h-7.2344v7.4219h7.5625q5.6719 0 8.9688 2.1719t3.2969 5.5938q0 3.125-3.4062 5.375-3.3906 2.25-9.1875 2.25-3.4688 0-7.4062-0.64062-3.9219-0.64062-8.6719-2.0469v8.1562q4.7969 1.1719 8.9375 1.75 4.1562 0.59375 7.8594 0.59375 9.5781 0 15.109-3.8438 5.5469-3.8281 5.5469-10.719 0-4.5312-2.9375-7.6875-2.9219-3.1406-8.3906-4.3125z"/>
<path id="az" d="m9.0781 54.688h8.9375v-25.688l25.344 25.688h11.031l-20.891-21.141 23.578-33.547h-10.062l-19.375 27.594-9.625-9.7656v-17.828h-8.9375z"/>
<path id="af" d="m9.0781 54.688h13.141l15.531-36.625 15.578 36.625h13.031v-54.688h-9.0312v46.094l-15.094-35.594h-8.9844l-15.141 35.594v-46.094h-9.0312z"/>
</defs>
<use xlink:href="#au"/>
<use x="53.173828" xlink:href="#p"/>
<use x="114.453125" xlink:href="#az"/>
<use x="174.853516" xlink:href="#p"/>
<use x="236.132812" xlink:href="#r"/>
<use x="294.384766" xlink:href="#u"/>
<use x="355.566406" xlink:href="#af"/>
</g>
</g>
<g clip-path="url(#a)">
<g transform="translate(138.44 995.49) scale(.1 -.1)">
<defs>
<path id="q" d="m56.203 29.594v-4.3906h-41.312q0.59375-9.2812 5.5938-14.141t13.938-4.8594q5.1719 0 10.031 1.2656t9.6562 3.8125v-8.5q-4.8438-2.0469-9.9219-3.125t-10.297-1.0781q-13.094 0-20.734 7.6094-7.6406 7.625-7.6406 20.625 0 13.422 7.25 21.297 7.25 7.8906 19.562 7.8906 11.031 0 17.453-7.1094 6.4219-7.0938 6.4219-19.297zm-8.9844 2.6406q-0.09375 7.3594-4.125 11.75-4.0312 4.4062-10.672 4.4062-7.5156 0-12.031-4.25t-5.2031-11.969z"/>
</defs>
<use xlink:href="#ae"/>
<use x="65.380859" xlink:href="#q"/>
</g>
</g>
<g clip-path="url(#a)">
<g transform="translate(147.31 995.49) scale(.1 -.1)">
<defs>
<path id="aa" d="m18.109 8.2031v-29h-9.0312v75.484h9.0312v-8.2969q2.8438 4.875 7.1562 7.2344 4.3281 2.375 10.328 2.375 9.9688 0 16.188-7.9062 6.2344-7.9062 6.2344-20.797t-6.2344-20.812q-6.2188-7.9062-16.188-7.9062-6 0-10.328 2.375-4.3125 2.375-7.1562 7.25zm30.578 19.094q0 9.9062-4.0781 15.547t-11.203 5.6406q-7.1406 0-11.219-5.6406t-4.0781-15.547 4.0781-15.547 11.219-5.6406q7.125 0 11.203 5.6406t4.0781 15.547z"/>
</defs>
<use xlink:href="#t"/>
<use x="54.980469" xlink:href="#u"/>
<use x="116.162109" xlink:href="#aa"/>
<use x="179.638672" xlink:href="#u"/>
<use x="240.820312" xlink:href="#az"/>
</g>
</g>
<g clip-path="url(#a)">
<g transform="translate(163.02 995.49) scale(.1 -.1)">
<defs>
<path id="bf" d="m41.016 0v23h-16.75q-7.4688 0-12.453 4.6406-4.4844 4.2031-4.4844 13.188v13.859h8.9844v-13.031q0-5.7188 2.5312-8.5938 2.5938-2.8906 7.6719-2.8906h14.5v24.516h8.9844v-54.688z"/>
</defs>
<use xlink:href="#bf"/>
<use x="59.082031" xlink:href="#q"/>
<use x="120.605469" xlink:href="#r"/>
<use x="178.857422" xlink:href="#as"/>
<use x="257.8125" xlink:href="#aa"/>
<use x="321.289062" xlink:href="#q"/>
</g>
</g>
<g clip-path="url(#a)">
<g transform="translate(192.19 995.49) scale(.1 -.1)">
<use xlink:href="#aa"/>
<use x="63.476562" xlink:href="#p"/>
<use x="124.755859" xlink:href="#au"/>
<use x="177.929688" xlink:href="#p"/>
</g>
</g>
<g clip-path="url(#a)">
<g transform="translate(225.39 995.49) scale(.1 -.1)">
<use xlink:href="#ag"/>
</g>
</g>
<g clip-path="url(#a)">
<g transform="translate(241.97 995.49) scale(.1 -.1)">
<defs>
<path id="ap" d="m43.453 16.219q0 4.3906-3.2031 6.6875-3.1875 2.2969-9.3438 2.2969h-12.797v-18.031h12.797q6.1562 0 9.3438 2.3125 3.2031 2.3281 3.2031 6.7344zm-34.375 38.469h9.0312v-22.312h13.188q10.453 0 16.094-3.9844 5.6406-3.9688 5.6406-12.172t-5.6406-12.219q-5.6406-4-16.094-4h-22.219z"/>
</defs>
<use xlink:href="#z"/>
<use x="69.140625" xlink:href="#q"/>
<use x="130.664062" xlink:href="#ae"/>
<use x="196.044922" xlink:href="#ap"/>
</g>
</g>
<g clip-path="url(#a)">
<g transform="translate(281.72 995.49) scale(.1 -.1)">
<defs>
<path id="ao" d="m11.719 12.406h10.297v-8.4062l-8-15.625h-6.2969l4 15.625z"/>
</defs>
<use xlink:href="#ao"/>
</g>
</g>
<g clip-path="url(#a)">
<g transform="translate(311.02 995.49) scale(.1 -.1)">
<use xlink:href="#p"/>
</g>
</g>
<g clip-path="url(#a)">
<g transform="translate(319.32 995.49) scale(.1 -.1)">
<use xlink:href="#t"/>
<use x="54.980469" xlink:href="#q"/>
<use x="116.503906" xlink:href="#af"/>
<use x="191.943359" xlink:href="#ap"/>
<use x="250.878906" xlink:href="#z"/>
<use x="320.019531" xlink:href="#q"/>
<use x="381.542969" xlink:href="#t"/>
<use x="436.523438" xlink:href="#ay"/>
<use x="496.679688" xlink:href="#r"/>
</g>
</g>
<g clip-path="url(#a)">
<g transform="translate(372.78 995.49) scale(.1 -.1)">
<use xlink:href="#z"/>
<use x="69.140625" xlink:href="#ag"/>
<use x="128.076172" xlink:href="#p"/>
</g>
</g>
<g clip-path="url(#a)">
<g transform="translate(418.04 995.49) scale(.1 -.1)">
<use xlink:href="#ao"/>
</g>
</g>
<g clip-path="url(#a)">
<g transform="translate(456.14 995.49) scale(.1 -.1)">
<use xlink:href="#p"/>
</g>
</g>
<g clip-path="url(#a)">
<g transform="translate(495.01 995.49) scale(.1 -.1)">
<use xlink:href="#r"/>
<use x="58.251953" xlink:href="#u"/>
</g>
</g>
<g clip-path="url(#a)">
<g transform="translate(541.71 995.49) scale(.1 -.1)">
<defs>
<path id="y" d="m55.906 54.688v-54.688h-8.9375v43.891l-26.359-43.891h-11.531v54.688h8.9375v-43.797l26.328 43.797z"/>
</defs>
<use xlink:href="#y"/>
</g>
</g>
<g clip-path="url(#a)">
<g transform="translate(582.41 995.49) scale(.1 -.1)">
<use xlink:href="#t"/>
<use x="54.980469" xlink:href="#r"/>
<use x="113.232422" xlink:href="#u"/>
</g>
</g>
<g clip-path="url(#a)">
<g transform="translate(637.91 995.49) scale(.1 -.1)">
<use xlink:href="#ao"/>
</g>
</g>
<g clip-path="url(#a)">
<g transform="translate(686.82 995.49) scale(.1 -.1)">
<use xlink:href="#y"/>
</g>
</g>
<g clip-path="url(#a)">
<g transform="translate(724.45 995.49) scale(.1 -.1)">
<use xlink:href="#z"/>
<use x="69.140625" xlink:href="#ag"/>
<use x="128.076172" xlink:href="#q"/>
<use x="189.599609" xlink:href="#t"/>
<use x="244.580078" xlink:href="#r"/>
<use x="302.832031" xlink:href="#y"/>
</g>
</g>
<g clip-path="url(#a)">
<g transform="translate(788.91 995.49) scale(.1 -.1)">
<use xlink:href="#aa"/>
<use x="63.476562" xlink:href="#p"/>
<use x="124.755859" xlink:href="#au"/>
</g>
</g>
<g clip-path="url(#a)">
<g transform="translate(853.39 995.49) scale(.1 -.1)">
<use xlink:href="#ao"/>
</g>
</g>
<g clip-path="url(#a)">
<g transform="translate(911.09 995.49) scale(.1 -.1)">
<use xlink:href="#y"/>
</g>
</g>
<g clip-path="url(#a)">
<g transform="translate(966.21 995.49) scale(.1 -.1)">
<defs>
<path id="at" d="m56.297 54.688v-54.688h-9.0312v47.516h-29.156v-47.516h-9.0312v54.688z"/>
</defs>
<use xlink:href="#at"/>
<use x="65.380859" xlink:href="#aa"/>
<use x="128.857422" xlink:href="#y"/>
</g>
</g>
<g clip-path="url(#a)">
<g transform="translate(1027.2 995.49) scale(.1 -.1)">
<defs>
<path id="be" d="m5.5156 10.406q7.7188-4.2031 15.391-4.2031 7.1719 0 12.297 4.1719t6.0625 14.828h-27.734v7.1719h27.438q-0.59375 5.125-4.4844 10.562-3.875 5.4531-13.578 5.4531-7.5312 0-15.391-4.2031v8.4062q7.6719 3.4062 15.781 3.4062 12.781 0 20.125-7.7344 7.3594-7.7344 7.3594-20.969 0-13.188-7.1562-20.953t-19.703-7.7656q-9.2188 0-16.406 3.5156z"/>
</defs>
<use xlink:href="#be"/>
<use x="54.882812" xlink:href="#r"/>
<use x="113.134766" xlink:href="#u"/>
<use x="174.316406" xlink:href="#af"/>
</g>
</g>
<g clip-path="url(#a)">
<g transform="translate(1091.5 995.49) scale(.1 -.1)">
<defs>
<path id="bi" d="m40.578 54.688h8.9375v-25.688l23.875 25.688h10.453l-19.641-21.047 22.469-33.641h-9.625l-18.406 27.641-9.125-9.8125v-17.828h-8.9375v17.828l-9.125 9.8125-18.422-27.641h-9.6094l22.453 33.641-19.625 21.047h10.453l23.875-25.688z"/>
</defs>
<use xlink:href="#z"/>
<use x="69.140625" xlink:href="#p"/>
<use x="130.419922" xlink:href="#bi"/>
<use x="220.507812" xlink:href="#q"/>
</g>
</g>
<g clip-path="url(#a)">
<g transform="translate(1167.4 995.49) scale(.1 -.1)">
<use xlink:href="#ae"/>
<use x="65.380859" xlink:href="#q"/>
</g>
</g>
<g clip-path="url(#a)">
<g transform="translate(1209.8 995.49) scale(.1 -.1)">
<defs>
<path id="bg" d="m54.891 54.688-19.781-26.609 20.797-28.078h-10.594l-15.922 21.484-15.906-21.484h-10.609l21.25 28.609-19.438 26.078h10.594l14.5-19.484 14.5 19.484z"/>
</defs>
<use xlink:href="#at"/>
<use x="65.380859" xlink:href="#aa"/>
<use x="128.857422" xlink:href="#y"/>
<use x="193.847656" xlink:href="#bg"/>
<use x="253.027344" xlink:href="#u"/>
<use x="314.208984" xlink:href="#z"/>
<use x="383.349609" xlink:href="#y"/>
<use x="448.339844" xlink:href="#aq"/>
<use x="512.255859" xlink:href="#u"/>
<use x="573.4375" xlink:href="#t"/>
<use x="628.417969" xlink:href="#ap"/>
</g>
</g>
<g clip-path="url(#a)">
<g transform="translate(1309.7 995.49) scale(.1 -.1)">
<use xlink:href="#av"/>
<use x="61.669922" xlink:href="#as"/>
</g>
</g>
<g clip-path="url(#a)">
<g transform="translate(1357.7 995.49) scale(.1 -.1)">
<use xlink:href="#at"/>
<use x="65.380859" xlink:href="#q"/>
<use x="126.904297" xlink:href="#aa"/>
<use x="190.380859" xlink:href="#q"/>
<use x="251.904297" xlink:href="#z"/>
<use x="321.044922" xlink:href="#ag"/>
<use x="379.980469" xlink:href="#y"/>
<use x="444.970703" xlink:href="#ba"/>
<use x="497.509766" xlink:href="#p"/>
<use x="558.789062" xlink:href="#r"/>
<use x="617.041016" xlink:href="#ap"/>
</g>
</g>
<g clip-path="url(#a)">
<g transform="translate(1456.6 995.49) scale(.1 -.1)">
<defs>
<path id="bh" d="m32.172-5.0781q-3.7969-9.7656-7.4219-12.734-3.6094-2.9844-9.6562-2.9844h-7.1875v7.5156h5.2812q3.7031 0 5.75 1.7656 2.0625 1.75 4.5469 8.2969l1.6094 4.0938-22.109 53.812h9.5156l17.094-42.766 17.094 42.766h9.5156z"/>
</defs>
<use xlink:href="#t"/>
<use x="54.980469" xlink:href="#r"/>
<use x="113.232422" xlink:href="#bh"/>
<use x="172.412109" xlink:href="#aq"/>
</g>
</g>
<g clip-path="url(#a)">
<g transform="translate(1544.8 995.49) scale(.1 -.1)">
<use xlink:href="#t"/>
</g>
</g>
<g clip-path="url(#a)">
<g transform="translate(1613.4 995.49) scale(.1 -.1)">
<use xlink:href="#af"/>
<use x="75.439453" xlink:href="#q"/>
<use x="136.962891" xlink:href="#t"/>
<use x="191.943359" xlink:href="#r"/>
<use x="250.195312" xlink:href="#p"/>
</g>
</g>
<g clip-path="url(#a)">
<g transform="translate(1706.1 995.49) scale(.1 -.1)">
<use xlink:href="#ae"/>
<use x="65.380859" xlink:href="#p"/>
</g>
</g>
<g clip-path="url(#a)">
<g transform="translate(1782.7 995.49) scale(.1 -.1)">
<use xlink:href="#af"/>
<use x="75.439453" xlink:href="#q"/>
<use x="136.962891" xlink:href="#t"/>
<use x="191.943359" xlink:href="#r"/>
<use x="250.195312" xlink:href="#u"/>
</g>
</g>
<g clip-path="url(#a)">
<g transform="translate(1884.2 995.49) scale(.1 -.1)">
<defs>
<path id="bc" d="m15.094 12.406h9.9062v-12.406h-9.9062zm0 60.5h9.9062v-31.984l-0.96875-17.438h-7.9219l-1.0156 17.438z"/>
</defs>
<use xlink:href="#bc"/>
</g>
</g>
<g clip-path="url(#a)">
<g transform="translate(531.77 50.032) scale(.1 -.1)">
<defs>
<path id="c" d="m12.406 8.2969h16.109v55.625l-17.531-3.5156v8.9844l17.438 3.5156h9.8594v-64.609h16.109v-8.2969h-41.984z"/>
<path id="d" d="m10.688 12.406h10.312v-12.406h-10.312z"/>
</defs>
<use xlink:href="#c"/>
<use x="63.623047" xlink:href="#d"/>
<use x="95.410156" xlink:href="#c"/>
</g>
</g>
<g clip-path="url(#a)">
<g transform="translate(122.48 240.81) scale(.1 -.1)">
<defs>
<path id="o" d="m19.188 8.2969h34.422v-8.2969h-46.281v8.2969q5.6094 5.8125 15.297 15.594 9.7031 9.7969 12.188 12.641 4.7344 5.3125 6.6094 9 1.8906 3.6875 1.8906 7.25 0 5.8125-4.0781 9.4688-4.0781 3.6719-10.625 3.6719-4.6406 0-9.7969-1.6094-5.1406-1.6094-11-4.8906v9.9688q5.9531 2.3906 11.125 3.6094 5.1875 1.2188 9.4844 1.2188 11.328 0 18.062-5.6719 6.7344-5.6562 6.7344-15.125 0-4.5-1.6875-8.5312-1.6719-4.0156-6.125-9.4844-1.2188-1.4219-7.7656-8.1875-6.5312-6.7656-18.453-18.922z"/>
</defs>
<use xlink:href="#c"/>
<use x="63.623047" xlink:href="#d"/>
<use x="95.410156" xlink:href="#o"/>
</g>
</g>
<g clip-path="url(#a)">
<g transform="translate(97.258 809.41) scale(.1 -.1)">
<defs>
<path id="n" d="m40.578 39.312q7.0781-1.5156 11.047-6.3125 3.9844-4.7812 3.9844-11.812 0-10.781-7.4219-16.703-7.4219-5.9062-21.094-5.9062-4.5781 0-9.4375 0.90625t-10.031 2.7188v9.5156q4.0938-2.3906 8.9688-3.6094 4.8906-1.2188 10.219-1.2188 9.2656 0 14.125 3.6562t4.8594 10.641q0 6.4531-4.5156 10.078-4.5156 3.6406-12.562 3.6406h-8.5v8.1094h8.8906q7.2656 0 11.125 2.9062t3.8594 8.375q0 5.6094-3.9844 8.6094-3.9688 3.0156-11.391 3.0156-4.0625 0-8.7031-0.89062-4.6406-0.875-10.203-2.7188v8.7812q5.625 1.5625 10.531 2.3438t9.25 0.78125q11.234 0 17.766-5.1094 6.5469-5.0938 6.5469-13.781 0-6.0625-3.4688-10.234t-9.8594-5.7812z"/>
</defs>
<use xlink:href="#c"/>
<use x="63.623047" xlink:href="#d"/>
<use x="95.410156" xlink:href="#n"/>
</g>
</g>
<g clip-path="url(#a)">
<g transform="translate(306.14 809.41) scale(.1 -.1)">
<defs>
<path id="m" d="m37.797 64.312-24.906-38.922h24.906zm-2.5938 8.5938h12.406v-47.516h10.406v-8.2031h-10.406v-17.188h-9.8125v17.188h-32.906v9.5156z"/>
</defs>
<use xlink:href="#c"/>
<use x="63.623047" xlink:href="#d"/>
<use x="95.410156" xlink:href="#m"/>
</g>
</g>
<g clip-path="url(#a)">
<g transform="translate(143.43 240.81) scale(.1 -.1)">
<defs>
<path id="v" d="m10.797 72.906h38.719v-8.3125h-29.688v-17.859q2.1406 0.73438 4.2812 1.0938 2.1562 0.35938 4.3125 0.35938 12.203 0 19.328-6.6875 7.1406-6.6875 7.1406-18.109 0-11.766-7.3281-18.297-7.3281-6.5156-20.656-6.5156-4.5938 0-9.3594 0.78125-4.75 0.78125-9.8281 2.3438v9.9219q4.3906-2.3906 9.0781-3.5625t9.9062-1.1719q8.4531 0 13.375 4.4375 4.9375 4.4375 4.9375 12.062 0 7.6094-4.9375 12.047-4.9219 4.4531-13.375 4.4531-3.9531 0-7.8906-0.875-3.9219-0.875-8.0156-2.7344z"/>
</defs>
<use xlink:href="#c"/>
<use x="63.623047" xlink:href="#d"/>
<use x="95.410156" xlink:href="#v"/>
</g>
</g>
<g clip-path="url(#a)">
<g transform="translate(451.25 809.41) scale(.1 -.1)">
<defs>
<path id="am" d="m33.016 40.375q-6.6406 0-10.531-4.5469-3.875-4.5312-3.875-12.438 0-7.8594 3.875-12.438 3.8906-4.5625 10.531-4.5625t10.516 4.5625q3.875 4.5781 3.875 12.438 0 7.9062-3.875 12.438-3.875 4.5469-10.516 4.5469zm19.578 30.922v-8.9844q-3.7188 1.75-7.5 2.6719-3.7812 0.9375-7.5 0.9375-9.7656 0-14.922-6.5938-5.1406-6.5938-5.875-19.922 2.875 4.25 7.2188 6.5156 4.3594 2.2656 9.5781 2.2656 10.984 0 17.359-6.6719 6.375-6.6562 6.375-18.125 0-11.234-6.6406-18.031-6.6406-6.7812-17.672-6.7812-12.656 0-19.344 9.6875-6.6875 9.7031-6.6875 28.109 0 17.281 8.2031 27.562t22.016 10.281q3.7188 0 7.5-0.73438t7.8906-2.1875z"/>
</defs>
<use xlink:href="#c"/>
<use x="63.623047" xlink:href="#d"/>
<use x="95.410156" xlink:href="#am"/>
</g>
</g>
<g clip-path="url(#a)">
<g transform="translate(493.03 809.41) scale(.1 -.1)">
<defs>
<path id="al" d="m8.2031 72.906h46.875v-4.2031l-26.469-68.703h-10.297l24.906 64.594h-35.016z"/>
</defs>
<use xlink:href="#c"/>
<use x="63.623047" xlink:href="#d"/>
<use x="95.410156" xlink:href="#al"/>
</g>
</g>
<g clip-path="url(#a)">
<g transform="translate(537 809.41) scale(.1 -.1)">
<defs>
<path id="ak" d="m31.781 34.625q-7.0312 0-11.062-3.7656-4.0156-3.7656-4.0156-10.344 0-6.5938 4.0156-10.359 4.0312-3.7656 11.062-3.7656t11.078 3.7812q4.0625 3.7969 4.0625 10.344 0 6.5781-4.0312 10.344-4.0156 3.7656-11.109 3.7656zm-9.8594 4.1875q-6.3438 1.5625-9.8906 5.9062-3.5312 4.3594-3.5312 10.609 0 8.7344 6.2188 13.812 6.2344 5.0781 17.062 5.0781 10.891 0 17.094-5.0781t6.2031-13.812q0-6.25-3.5469-10.609-3.5312-4.3438-9.8281-5.9062 7.125-1.6562 11.094-6.5 3.9844-4.8281 3.9844-11.797 0-10.609-6.4688-16.281-6.4688-5.6562-18.531-5.6562-12.047 0-18.531 5.6562-6.4688 5.6719-6.4688 16.281 0 6.9688 4 11.797 4.0156 4.8438 11.141 6.5zm-3.6094 15.578q0-5.6562 3.5312-8.8281 3.5469-3.1719 9.9375-3.1719 6.3594 0 9.9375 3.1719 3.5938 3.1719 3.5938 8.8281 0 5.6719-3.5938 8.8438-3.5781 3.1719-9.9375 3.1719-6.3906 0-9.9375-3.1719-3.5312-3.1719-3.5312-8.8438z"/>
</defs>
<use xlink:href="#c"/>
<use x="63.623047" xlink:href="#d"/>
<use x="95.410156" xlink:href="#ak"/>
</g>
</g>
<g clip-path="url(#a)">
<g transform="translate(162.3 240.81) scale(.1 -.1)">
<defs>
<path id="aj" d="m10.984 1.5156v8.9844q3.7188-1.7656 7.5156-2.6875 3.8125-0.92188 7.4844-0.92188 9.7656 0 14.906 6.5625 5.1562 6.5625 5.8906 19.953-2.8281-4.2031-7.1875-6.4531-4.3438-2.25-9.6094-2.25-10.938 0-17.312 6.6094-6.375 6.625-6.375 18.109 0 11.219 6.6406 18 6.6406 6.7969 17.672 6.7969 12.656 0 19.312-9.7031 6.6719-9.6875 6.6719-28.141 0-17.234-8.1875-27.516-8.1719-10.281-21.984-10.281-3.7188 0-7.5312 0.73438-3.7969 0.73438-7.9062 2.2031zm19.625 30.906q6.6406 0 10.516 4.5312 3.8906 4.5469 3.8906 12.469 0 7.8594-3.8906 12.422-3.875 4.5625-10.516 4.5625t-10.516-4.5625-3.875-12.422q0-7.9219 3.875-12.469 3.875-4.5312 10.516-4.5312z"/>
</defs>
<use xlink:href="#c"/>
<use x="63.623047" xlink:href="#d"/>
<use x="95.410156" xlink:href="#aj"/>
</g>
</g>
<g clip-path="url(#a)">
<g transform="translate(678.94 809.41) scale(.1 -.1)">
<defs>
<path id="an" d="m31.781 66.406q-7.6094 0-11.453-7.5-3.8281-7.4844-3.8281-22.531 0-14.984 3.8281-22.484 3.8438-7.5 11.453-7.5 7.6719 0 11.5 7.5 3.8438 7.5 3.8438 22.484 0 15.047-3.8438 22.531-3.8281 7.5-11.5 7.5zm0 7.8125q12.266 0 18.734-9.7031 6.4688-9.6875 6.4688-28.141 0-18.406-6.4688-28.109-6.4688-9.6875-18.734-9.6875-12.25 0-18.719 9.6875-6.4688 9.7031-6.4688 28.109 0 18.453 6.4688 28.141 6.4688 9.7031 18.719 9.7031z"/>
</defs>
<use xlink:href="#c"/>
<use x="63.623047" xlink:href="#d"/>
<use x="95.410156" xlink:href="#c"/>
<use x="159.033203" xlink:href="#an"/>
</g>
</g>
<g clip-path="url(#a)">
<g transform="translate(221.24 240.81) scale(.1 -.1)">
<use xlink:href="#c"/>
<use x="63.623047" xlink:href="#d"/>
<use x="95.410156" xlink:href="#c"/>
<use x="159.033203" xlink:href="#c"/>
</g>
</g>
<g clip-path="url(#a)">
<g transform="translate(903.21 809.41) scale(.1 -.1)">
<use xlink:href="#c"/>
<use x="63.623047" xlink:href="#d"/>
<use x="95.410156" xlink:href="#c"/>
<use x="159.033203" xlink:href="#o"/>
</g>
</g>
<g clip-path="url(#a)">
<g transform="translate(996.66 809.41) scale(.1 -.1)">
<use xlink:href="#c"/>
<use x="63.623047" xlink:href="#d"/>
<use x="95.410156" xlink:href="#c"/>
<use x="159.033203" xlink:href="#n"/>
</g>
</g>
<g clip-path="url(#a)">
<g transform="translate(1094.5 809.41) scale(.1 -.1)">
<use xlink:href="#c"/>
<use x="63.623047" xlink:href="#d"/>
<use x="95.410156" xlink:href="#c"/>
<use x="159.033203" xlink:href="#m"/>
</g>
</g>
<g clip-path="url(#a)">
<g transform="translate(1179.8 240.81) scale(.1 -.1)">
<use xlink:href="#c"/>
<use x="63.623047" xlink:href="#d"/>
<use x="95.410156" xlink:href="#c"/>
<use x="159.033203" xlink:href="#v"/>
</g>
</g>
<g clip-path="url(#a)">
<g transform="translate(1162.7 809.41) scale(.1 -.1)">
<use xlink:href="#c"/>
<use x="63.623047" xlink:href="#d"/>
<use x="95.410156" xlink:href="#o"/>
<use x="159.033203" xlink:href="#c"/>
</g>
</g>
<g clip-path="url(#a)">
<g transform="translate(1233 809.41) scale(.1 -.1)">
<use xlink:href="#c"/>
<use x="63.623047" xlink:href="#d"/>
<use x="95.410156" xlink:href="#o"/>
<use x="159.033203" xlink:href="#o"/>
</g>
</g>
<g clip-path="url(#a)">
<g transform="translate(1305.6 809.41) scale(.1 -.1)">
<use xlink:href="#c"/>
<use x="63.623047" xlink:href="#d"/>
<use x="95.410156" xlink:href="#o"/>
<use x="159.033203" xlink:href="#n"/>
</g>
</g>
<g clip-path="url(#a)">
<g transform="translate(1380.3 809.41) scale(.1 -.1)">
<use xlink:href="#c"/>
<use x="63.623047" xlink:href="#d"/>
<use x="95.410156" xlink:href="#o"/>
<use x="159.033203" xlink:href="#m"/>
</g>
</g>
<g clip-path="url(#a)">
<g transform="translate(1457.3 809.41) scale(.1 -.1)">
<use xlink:href="#c"/>
<use x="63.623047" xlink:href="#d"/>
<use x="95.410156" xlink:href="#o"/>
<use x="159.033203" xlink:href="#v"/>
</g>
</g>
<g clip-path="url(#a)">
<g transform="translate(1640.9 431.1) scale(.1 -.1)">
<use xlink:href="#c"/>
<use x="63.623047" xlink:href="#d"/>
<use x="95.410156" xlink:href="#o"/>
<use x="159.033203" xlink:href="#am"/>
</g>
</g>
<g clip-path="url(#a)">
<g transform="translate(1536.4 809.41) scale(.1 -.1)">
<use xlink:href="#c"/>
<use x="63.623047" xlink:href="#d"/>
<use x="95.410156" xlink:href="#o"/>
<use x="159.033203" xlink:href="#al"/>
</g>
</g>
<g clip-path="url(#a)">
<g transform="translate(1745.3 620.75) scale(.1 -.1)">
<use xlink:href="#c"/>
<use x="63.623047" xlink:href="#d"/>
<use x="95.410156" xlink:href="#o"/>
<use x="159.033203" xlink:href="#ak"/>
</g>
</g>
<g clip-path="url(#a)">
<g transform="translate(1617.8 809.41) scale(.1 -.1)">
<use xlink:href="#c"/>
<use x="63.623047" xlink:href="#d"/>
<use x="95.410156" xlink:href="#o"/>
<use x="159.033203" xlink:href="#aj"/>
</g>
</g>
<g clip-path="url(#a)">
<g transform="translate(1701.3 809.41) scale(.1 -.1)">
<use xlink:href="#c"/>
<use x="63.623047" xlink:href="#d"/>
<use x="95.410156" xlink:href="#n"/>
<use x="159.033203" xlink:href="#an"/>
</g>
</g>
<g clip-path="url(#a)">
<g transform="translate(1787.1 809.41) scale(.1 -.1)">
<use xlink:href="#c"/>
<use x="63.623047" xlink:href="#d"/>
<use x="95.410156" xlink:href="#n"/>
<use x="159.033203" xlink:href="#c"/>
</g>
</g>
<g clip-path="url(#a)">
<g transform="translate(582.93 431.1) scale(.1 -.1)">
<use xlink:href="#c"/>
<use x="63.623047" xlink:href="#d"/>
<use x="95.410156" xlink:href="#n"/>
<use x="159.033203" xlink:href="#o"/>
</g>
</g>
<g clip-path="url(#a)">
<g transform="translate(731.71 809.41) scale(.1 -.1)">
<use xlink:href="#c"/>
<use x="63.623047" xlink:href="#d"/>
<use x="95.410156" xlink:href="#n"/>
<use x="159.033203" xlink:href="#n"/>
</g>
</g>
<g clip-path="url(#a)">
<g transform="translate(786.68 809.41) scale(.1 -.1)">
<use xlink:href="#c"/>
<use x="63.623047" xlink:href="#d"/>
<use x="95.410156" xlink:href="#n"/>
<use x="159.033203" xlink:href="#m"/>
</g>
</g>
<g clip-path="url(#a)">
<g transform="translate(334.47 431.1) scale(.1 -.1)">
<use xlink:href="#c"/>
<use x="63.623047" xlink:href="#d"/>
<use x="95.410156" xlink:href="#n"/>
<use x="159.033203" xlink:href="#v"/>
</g>
</g>
<g clip-path="url(#a)">
<g transform="translate(580 809.41) scale(.1 -.1)">
<use xlink:href="#c"/>
<use x="63.623047" xlink:href="#d"/>
<use x="95.410156" xlink:href="#n"/>
<use x="159.033203" xlink:href="#am"/>
</g>
</g>
<g clip-path="url(#a)">
<g transform="translate(258.98 431.1) scale(.1 -.1)">
<use xlink:href="#c"/>
<use x="63.623047" xlink:href="#d"/>
<use x="95.410156" xlink:href="#n"/>
<use x="159.033203" xlink:href="#al"/>
</g>
</g>
<g clip-path="url(#a)">
<g transform="translate(353.53 809.41) scale(.1 -.1)">
<use xlink:href="#c"/>
<use x="63.623047" xlink:href="#d"/>
<use x="95.410156" xlink:href="#n"/>
<use x="159.033203" xlink:href="#ak"/>
</g>
</g>
<g clip-path="url(#a)">
<g transform="translate(78.685 809.41) scale(.1 -.1)">
<use xlink:href="#c"/>
<use x="63.623047" xlink:href="#d"/>
<use x="95.410156" xlink:href="#n"/>
<use x="159.033203" xlink:href="#aj"/>
</g>
</g>
<g clip-path="url(#a)">
<g transform="translate(85.282 809.41) scale(.1 -.1)">
<use xlink:href="#c"/>
<use x="63.623047" xlink:href="#d"/>
<use x="95.410156" xlink:href="#m"/>
<use x="159.033203" xlink:href="#an"/>
</g>
</g>
<g clip-path="url(#a)">
<g transform="translate(105.07 809.41) scale(.1 -.1)">
<use xlink:href="#c"/>
<use x="63.623047" xlink:href="#d"/>
<use x="95.410156" xlink:href="#m"/>
<use x="159.033203" xlink:href="#c"/>
</g>
</g>
<g clip-path="url(#a)">
<g transform="translate(118.26 809.41) scale(.1 -.1)">
<use xlink:href="#c"/>
<use x="63.623047" xlink:href="#d"/>
<use x="95.410156" xlink:href="#m"/>
<use x="159.033203" xlink:href="#o"/>
</g>
</g>
<g clip-path="url(#a)">
<g transform="translate(133.65 809.41) scale(.1 -.1)">
<use xlink:href="#c"/>
<use x="63.623047" xlink:href="#d"/>
<use x="95.410156" xlink:href="#m"/>
<use x="159.033203" xlink:href="#n"/>
</g>
</g>
<g clip-path="url(#a)">
<g transform="translate(194.85 431.1) scale(.1 -.1)">
<use xlink:href="#c"/>
<use x="63.623047" xlink:href="#d"/>
<use x="95.410156" xlink:href="#m"/>
<use x="159.033203" xlink:href="#m"/>
</g>
</g>
<g clip-path="url(#a)">
<g transform="translate(161.14 809.41) scale(.1 -.1)">
<use xlink:href="#c"/>
<use x="63.623047" xlink:href="#d"/>
<use x="95.410156" xlink:href="#m"/>
<use x="159.033203" xlink:href="#v"/>
</g>
</g>
<g clip-path="url(#a)">
<g transform="translate(193.02 809.41) scale(.1 -.1)">
<use xlink:href="#c"/>
<use x="63.623047" xlink:href="#d"/>
<use x="95.410156" xlink:href="#m"/>
<use x="159.033203" xlink:href="#am"/>
</g>
</g>
<g clip-path="url(#a)">
<g transform="translate(230.4 620.75) scale(.1 -.1)">
<use xlink:href="#c"/>
<use x="63.623047" xlink:href="#d"/>
<use x="95.410156" xlink:href="#m"/>
<use x="159.033203" xlink:href="#al"/>
</g>
</g>
<g clip-path="url(#a)">
<g transform="translate(217.21 809.41) scale(.1 -.1)">
<use xlink:href="#c"/>
<use x="63.623047" xlink:href="#d"/>
<use x="95.410156" xlink:href="#m"/>
<use x="159.033203" xlink:href="#ak"/>
</g>
</g>
<g clip-path="url(#a)">
<g transform="translate(243.59 809.41) scale(.1 -.1)">
<use xlink:href="#c"/>
<use x="63.623047" xlink:href="#d"/>
<use x="95.410156" xlink:href="#m"/>
<use x="159.033203" xlink:href="#aj"/>
</g>
</g>
<g clip-path="url(#a)">
<g transform="translate(272.17 809.41) scale(.1 -.1)">
<use xlink:href="#c"/>
<use x="63.623047" xlink:href="#d"/>
<use x="95.410156" xlink:href="#v"/>
<use x="159.033203" xlink:href="#an"/>
</g>
</g>
<g clip-path="url(#a)">
<g transform="translate(408.5 809.41) scale(.1 -.1)">
<use xlink:href="#c"/>
<use x="63.623047" xlink:href="#d"/>
<use x="95.410156" xlink:href="#v"/>
<use x="159.033203" xlink:href="#c"/>
</g>
</g>
<g clip-path="url(#a)">
<g transform="translate(628.37 809.41) scale(.1 -.1)">
<use xlink:href="#c"/>
<use x="63.623047" xlink:href="#d"/>
<use x="95.410156" xlink:href="#v"/>
<use x="159.033203" xlink:href="#o"/>
</g>
</g>
<g clip-path="url(#a)">
<g transform="translate(843.84 809.41) scale(.1 -.1)">
<use xlink:href="#c"/>
<use x="63.623047" xlink:href="#d"/>
<use x="95.410156" xlink:href="#v"/>
<use x="159.033203" xlink:href="#n"/>
</g>
</g>
<g clip-path="url(#a)">
<g transform="translate(1875 809.41) scale(.1 -.1)">
<use xlink:href="#c"/>
<use x="63.623047" xlink:href="#d"/>
<use x="95.410156" xlink:href="#v"/>
<use x="159.033203" xlink:href="#m"/>
</g>
</g>
<defs>
<clipPath id="a">
<rect width="1976" height="1040"/>
</clipPath>
</defs>
</svg>
