<?xml version="1.0" encoding="UTF-8"?>
<!DOCTYPE svg  PUBLIC '-//W3C//DTD SVG 1.1//EN'  'http://www.w3.org/Graphics/SVG/1.1/DTD/svg11.dtd'>
<svg width="253.33pt" height="133.33pt" version="1.1" viewBox="0 0 253.33 133.33" xmlns="http://www.w3.org/2000/svg" xmlns:xlink="http://www.w3.org/1999/xlink">
<metadata>
<rdf:RDF xmlns:cc="http://creativecommons.org/ns#" xmlns:dc="http://purl.org/dc/elements/1.1/" xmlns:rdf="http://www.w3.org/1999/02/22-rdf-syntax-ns#">
<cc:Work>
<dc:type rdf:resource="http://purl.org/dc/dcmitype/StillImage"/>
<dc:date>2021-02-23T11:01:49.000313</dc:date>
<dc:format>image/svg+xml</dc:format>
<dc:creator>
<cc:Agent>
<dc:title>Matplotlib v3.3.3, https://matplotlib.org/</dc:title>
</cc:Agent>
</dc:creator>
</cc:Work>
</rdf:RDF>
</metadata>
<defs>
<style type="text/css">*{stroke-linecap:butt;stroke-linejoin:round;}</style>
</defs>
<path d="m0 133.33h253.33v-133.33h-253.33z" fill="#fff"/>
<g fill="none" stroke="#000">
<path d="m60.561 6.0606v24.459" clip-path="url(#a)"/>
<path d="m60.561 30.519 181.26 24.397" clip-path="url(#a)"/>
<path d="m60.561 30.519 181.26 24.397" clip-path="url(#a)"/>
<path d="m60.561 30.519v24.397" clip-path="url(#a)"/>
<path d="m60.561 54.916 181.26 24.314" clip-path="url(#a)"/>
<path d="m60.561 54.916 181.26 24.314" clip-path="url(#a)"/>
<path d="m60.561 54.916 181.26 24.314" clip-path="url(#a)"/>
<path d="m60.561 54.916-49.046 48.501" clip-path="url(#a)"/>
<path d="m60.561 54.916 69.304 24.314" clip-path="url(#a)"/>
<path d="m60.561 54.916-20.258 48.501" clip-path="url(#a)"/>
<path d="m11.515 103.42v23.855" clip-path="url(#a)"/>
<path d="m129.87 79.23 111.95 24.187" clip-path="url(#a)"/>
<path d="m129.87 79.23-51.178 24.187" clip-path="url(#a)"/>
<path d="m129.87 79.23-3.1987 24.187" clip-path="url(#a)"/>
<path d="m129.87 79.23 54.377 24.187" clip-path="url(#a)"/>
<path d="m40.303 103.42v23.855" clip-path="url(#a)"/>
<path d="m78.687 103.42v23.855" clip-path="url(#a)"/>
<path d="m126.67 103.42v23.855" clip-path="url(#a)"/>
<path d="m184.24 103.42v23.855" clip-path="url(#a)"/>
</g>
<path d="m54.29 15.282v6.0162q0 2.4 2.4 2.4h7.7425q2.4 0 2.4-2.4v-6.0162q0-2.4-2.4-2.4h-7.7425q-2.4 0-2.4 2.4z" clip-path="url(#a)" fill="#fff" stroke="#fff"/>
<g clip-path="url(#a)">
<g transform="translate(58.354 15.282) rotate(90) scale(.08 -.08)">
<defs>
<path id="x" d="m9.8125 72.906h9.8594v-29.891h35.844v29.891h9.8594v-72.906h-9.8594v34.719h-35.844v-34.719h-9.8594z"/>
</defs>
<use xlink:href="#x"/>
</g>
</g>
<path d="m147.64 48.568 5.4236 0.73q2.3786 0.32015 2.6987-2.0584l1.0328-7.6733q0.32015-2.3786-2.0584-2.6987l-5.4236-0.73q-2.3786-0.32015-2.6987 2.0584l-1.0328 7.6733q-0.32015 2.3786 2.0584 2.6987z" clip-path="url(#a)" fill="#fff" stroke="#fff"/>
<g clip-path="url(#a)">
<g transform="translate(148.18 44.54) rotate(7.6658) scale(.08 -.08)">
<defs>
<path id="h" d="m34.188 63.188-13.391-36.281h26.812zm-5.5781 9.7188h11.188l27.781-72.906h-10.25l-6.6406 18.703h-32.859l-6.6406-18.703h-10.406z"/>
</defs>
<use xlink:href="#h"/>
</g>
</g>
<path d="m147.96 48.611 4.7806 0.64346q2.3786 0.32015 2.6987-2.0584l1.0328-7.6733q0.32015-2.3786-2.0584-2.6987l-4.7806-0.64346q-2.3786-0.32015-2.6987 2.0584l-1.0328 7.6733q-0.32015 2.3786 2.0584 2.6987z" clip-path="url(#a)" fill="#fff" stroke="#fff"/>
<g clip-path="url(#a)">
<g transform="translate(148.5 44.584) rotate(7.6658) scale(.08 -.08)">
<defs>
<path id="g" d="m19.672 64.797v-27.391h12.406q6.8906 0 10.641 3.5625 3.7656 3.5625 3.7656 10.156 0 6.5469-3.7656 10.109-3.75 3.5625-10.641 3.5625zm-9.8594 8.1094h22.266q12.266 0 18.531-5.5469 6.2812-5.5469 6.2812-16.234 0-10.797-6.2812-16.312-6.2656-5.5156-18.531-5.5156h-12.406v-29.297h-9.8594z"/>
</defs>
<use xlink:href="#g"/>
</g>
</g>
<path d="m54.29 39.981v5.4725q0 2.4 2.4 2.4h7.7425q2.4 0 2.4-2.4v-5.4725q0-2.4-2.4-2.4h-7.7425q-2.4 0-2.4 2.4z" clip-path="url(#a)" fill="#fff" stroke="#fff"/>
<g clip-path="url(#a)">
<g transform="translate(58.354 39.981) rotate(90) scale(.08 -.08)">
<use xlink:href="#h"/>
</g>
</g>
<path d="m147.64 72.925 5.4239 0.72757q2.3787 0.31908 2.6978-2.0596l1.0294-7.6738q0.31908-2.3787-2.0596-2.6978l-5.4239-0.72757q-2.3787-0.31908-2.6978 2.0596l-1.0294 7.6738q-0.31908 2.3787 2.0596 2.6978z" clip-path="url(#a)" fill="#fff" stroke="#fff"/>
<g clip-path="url(#a)">
<g transform="translate(148.18 68.897) rotate(7.6401) scale(.08 -.08)">
<use xlink:href="#h"/>
</g>
</g>
<path d="m147.97 72.968 4.7809 0.64132q2.3787 0.31908 2.6978-2.0596l1.0294-7.6738q0.31908-2.3787-2.0596-2.6978l-4.7809-0.64132q-2.3787-0.31908-2.6978 2.0596l-1.0294 7.6738q-0.31908 2.3787 2.0596 2.6978z" clip-path="url(#a)" fill="#fff" stroke="#fff"/>
<g clip-path="url(#a)">
<g transform="translate(148.51 68.94) rotate(7.6401) scale(.08 -.08)">
<use xlink:href="#g"/>
</g>
</g>
<path d="m147.64 72.925 5.4239 0.72757q2.3787 0.31908 2.6978-2.0596l1.0294-7.6738q0.31908-2.3787-2.0596-2.6978l-5.4239-0.72757q-2.3787-0.31908-2.6978 2.0596l-1.0294 7.6738q-0.31908 2.3787 2.0596 2.6978z" clip-path="url(#a)" fill="#fff" stroke="#fff"/>
<g clip-path="url(#a)">
<g transform="translate(148.18 68.897) rotate(7.6401) scale(.08 -.08)">
<use xlink:href="#h"/>
</g>
</g>
<path d="m38.244 85.805 4.4076-4.3586q1.7065-1.6876 0.018952-3.3941l-5.4441-5.5053q-1.6876-1.7065-3.3941-0.018952l-4.4076 4.3586q-1.7065 1.6876-0.018952 3.3941l5.4441 5.5053q1.6876 1.7065 3.3941 0.018951z" clip-path="url(#a)" fill="#fff" stroke="#fff"/>
<g clip-path="url(#a)">
<g transform="translate(35.387 82.916) rotate(-44.68) scale(.08 -.08)">
<defs>
<path id="y" d="m59.516 10.406v19.578h-16.109v8.1094h25.875v-31.312q-5.7031-4.0469-12.594-6.125-6.875-2.0781-14.688-2.0781-17.094 0-26.75 9.9844-9.6406 10-9.6406 27.812 0 17.875 9.6406 27.859 9.6562 9.9844 26.75 9.9844 7.125 0 13.547-1.7656 6.4219-1.75 11.844-5.1719v-10.5q-5.4688 4.6406-11.625 6.9844t-12.938 2.3438q-13.391 0-20.109-7.4688-6.7031-7.4688-6.7031-22.266 0-14.75 6.7031-22.219 6.7188-7.4688 20.109-7.4688 5.2188 0 9.3125 0.90625 4.1094 0.90625 7.375 2.8125z"/>
</defs>
<use xlink:href="#y"/>
</g>
</g>
<path d="m90.555 72.085 5.1639 1.8117q2.2647 0.79452 3.0592-1.4702l2.5632-7.3059q0.79452-2.2647-1.4702-3.0592l-5.1639-1.8117q-2.2647-0.79452-3.0592 1.4702l-2.5632 7.3059q-0.79452 2.2647 1.4702 3.0592z" clip-path="url(#a)" fill="#fff" stroke="#fff"/>
<g clip-path="url(#a)">
<g transform="translate(91.9 68.25) rotate(19.332) scale(.08 -.08)">
<use xlink:href="#h"/>
</g>
</g>
<path d="m55.091 84.285 2.2566-5.4027q0.92499-2.2146-1.2896-3.1396l-7.1443-2.9841q-2.2146-0.92499-3.1396 1.2896l-2.2566 5.4027q-0.92499 2.2146 1.2896 3.1396l7.1443 2.9841q2.2146 0.92499 3.1396-1.2896z" clip-path="url(#a)" fill="#fff" stroke="#fff"/>
<g clip-path="url(#a)">
<g transform="translate(51.341 82.719) rotate(-67.331) scale(.08 -.08)">
<defs>
<path id="s" d="m8.6875 72.906h9.9219v-44.297q0-11.719 4.2344-16.875 4.25-5.1406 13.781-5.1406 9.4688 0 13.719 5.1406 4.25 5.1562 4.25 16.875v44.297h9.9062v-45.516q0-14.25-7.0625-21.531-7.0469-7.2812-20.812-7.2812-13.828 0-20.891 7.2812-7.0469 7.2812-7.0469 21.531z"/>
</defs>
<use xlink:href="#s"/>
</g>
</g>
<path d="m5.2439 98.441v33.808q0 2.4 2.4 2.4h7.7425q2.4 0 2.4-2.4v-33.808q0-2.4-2.4-2.4h-7.7425q-2.4 0-2.4 2.4z" clip-path="url(#a)" fill="#fff" stroke="#fff"/>
<g clip-path="url(#a)">
<g transform="translate(9.3077 98.441) rotate(90) scale(.08 -.08)">
<defs>
<path id="f" d="m-0.29688 72.906h61.672v-8.3125h-25.875v-64.594h-9.9062v64.594h-25.891z"/>
<path id="r" d="m56.203 29.594v-4.3906h-41.312q0.59375-9.2812 5.5938-14.141t13.938-4.8594q5.1719 0 10.031 1.2656t9.6562 3.8125v-8.5q-4.8438-2.0469-9.9219-3.125t-10.297-1.0781q-13.094 0-20.734 7.6094-7.6406 7.625-7.6406 20.625 0 13.422 7.25 21.297 7.25 7.8906 19.562 7.8906 11.031 0 17.453-7.1094 6.4219-7.0938 6.4219-19.297zm-8.9844 2.6406q-0.09375 7.3594-4.125 11.75-4.0312 4.4062-10.672 4.4062-7.5156 0-12.031-4.25t-5.2031-11.969z"/>
<path id="m" d="m41.109 46.297q-1.5156 0.875-3.2969 1.2812-1.7812 0.42188-3.9219 0.42188-7.625 0-11.703-4.9531t-4.0781-14.234v-28.812h-9.0312v54.688h9.0312v-8.5q2.8438 4.9844 7.375 7.3906 4.5469 2.4219 11.047 2.4219 0.92188 0 2.0469-0.125 1.125-0.10938 2.4844-0.35938z"/>
<path id="o" d="m52 44.188q3.375 6.0625 8.0625 8.9375t11.031 2.875q8.5469 0 13.188-5.9844 4.6406-5.9688 4.6406-17v-33.016h-9.0312v32.719q0 7.8594-2.7969 11.656-2.7812 3.8125-8.4844 3.8125-6.9844 0-11.047-4.6406-4.0469-4.625-4.0469-12.641v-30.906h-9.0312v32.719q0 7.9062-2.7812 11.688t-8.5938 3.7812q-6.8906 0-10.953-4.6562-4.0469-4.6562-4.0469-12.625v-30.906h-9.0312v54.688h9.0312v-8.5q3.0781 5.0312 7.375 7.4219t10.203 2.3906q5.9688 0 10.141-3.0312 4.1719-3.0156 6.1719-8.7812z"/>
<path id="q" d="m9.4219 54.688h8.9844v-54.688h-8.9844zm0 21.297h8.9844v-11.391h-8.9844z"/>
<path id="n" d="m54.891 33.016v-33.016h-8.9844v32.719q0 7.7656-3.0312 11.609-3.0312 3.8594-9.0781 3.8594-7.2812 0-11.484-4.6406-4.2031-4.625-4.2031-12.641v-30.906h-9.0312v54.688h9.0312v-8.5q3.2344 4.9375 7.5938 7.375 4.375 2.4375 10.094 2.4375 9.4219 0 14.25-5.8281 4.8438-5.8281 4.8438-17.156z"/>
<path id="l" d="m34.281 27.484q-10.891 0-15.094-2.4844t-4.2031-8.5q0-4.7812 3.1562-7.5938 3.1562-2.7969 8.5625-2.7969 7.4844 0 12 5.2969t4.5156 14.078v2zm17.922 3.7188v-31.203h-8.9844v8.2969q-3.0781-4.9688-7.6719-7.3438t-11.234-2.375q-8.3906 0-13.359 4.7188-4.9531 4.7188-4.9531 12.625 0 9.2188 6.1719 13.906 6.1875 4.6875 18.438 4.6875h12.609v0.89062q0 6.2031-4.0781 9.5938t-11.453 3.3906q-4.6875 0-9.1406-1.125-4.4375-1.125-8.5312-3.375v8.3125q4.9219 1.9062 9.5625 2.8438 4.6406 0.95312 9.0312 0.95312 11.875 0 17.734-6.1562 5.8594-6.1406 5.8594-18.641z"/>
<path id="p" d="m9.4219 75.984h8.9844v-75.984h-8.9844z"/>
</defs>
<use xlink:href="#f"/>
<use x="44.083984" xlink:href="#r"/>
<use x="105.607422" xlink:href="#m"/>
<use x="144.970703" xlink:href="#o"/>
<use x="242.382812" xlink:href="#q"/>
<use x="270.166016" xlink:href="#n"/>
<use x="333.544922" xlink:href="#l"/>
<use x="394.824219" xlink:href="#p"/>
</g>
</g>
<path d="m178.02 96.181 12.948 2.7973q2.3459 0.50682 2.8527-1.8391l1.6894-7.8196q0.50682-2.3459-1.8391-2.8527l-12.948-2.7973q-2.3459-0.50682-2.8527 1.8391l-1.6894 7.8196q-0.50682 2.3459 1.8391 2.8527z" clip-path="url(#a)" fill="#fff" stroke="#fff"/>
<g clip-path="url(#a)">
<g transform="translate(178.92 91.991) rotate(12.191) scale(.08 -.08)">
<defs>
<path id="ad" d="m21 76.422v-100h-8.2969v100z"/>
<path id="w" d="m53.516 70.516v-9.625q-5.6094 2.6875-10.594 4-4.9844 1.3281-9.625 1.3281-8.0469 0-12.422-3.125t-4.375-8.8906q0-4.8438 2.9062-7.3125 2.9062-2.4531 11.016-3.9688l5.9531-1.2188q11.031-2.1094 16.281-7.4062t5.25-14.172q0-10.609-7.1094-16.078-7.0938-5.4688-20.812-5.4688-5.1719 0-11.016 1.1719-5.8281 1.1719-12.078 3.4688v10.156q6-3.3594 11.766-5.0781 5.7656-1.7031 11.328-1.7031 8.4375 0 13.031 3.3125 4.5938 3.3281 4.5938 9.4844 0 5.3594-3.2969 8.3906t-10.812 4.5469l-6.0156 1.1719q-11.031 2.1875-15.969 6.875-4.9219 4.6875-4.9219 13.047 0 9.6719 6.8125 15.234t18.766 5.5625q5.1406 0 10.453-0.9375 5.3281-0.92188 10.891-2.7656z"/>
</defs>
<use xlink:href="#h"/>
<use x="68.408203" xlink:href="#ad"/>
<use x="102.099609" xlink:href="#w"/>
</g>
</g>
<path d="m104.48 98.163 4.9478-2.3383q2.1699-1.0255 1.1444-3.1954l-3.3083-7.0001q-1.0255-2.1699-3.1954-1.1444l-4.9478 2.3383q-2.1699 1.0255-1.1444 3.1954l3.3083 7.0001q1.0255 2.1699 3.1954 1.1444z" clip-path="url(#a)" fill="#fff" stroke="#fff"/>
<g clip-path="url(#a)">
<g transform="translate(102.75 94.489) rotate(-25.296) scale(.08 -.08)">
<use xlink:href="#h"/>
</g>
</g>
<path d="m134.1 95.048 0.76761-5.8045q0.31465-2.3793-2.0646-2.6939l-7.6757-1.0151q-2.3793-0.31465-2.6939 2.0646l-0.76761 5.8045q-0.31465 2.3793 2.0646 2.6939l7.6757 1.0151q2.3793 0.31465 2.6939-2.0646z" clip-path="url(#a)" fill="#fff" stroke="#fff"/>
<g clip-path="url(#a)">
<g transform="translate(130.07 94.515) rotate(-82.467) scale(.08 -.08)">
<use xlink:href="#s"/>
</g>
</g>
<path d="m151.83 95.864 5.3496 2.3796q2.1929 0.97539 3.1682-1.2175l3.1467-7.0742q0.97539-2.1929-1.2175-3.1682l-5.3496-2.3796q-2.1929-0.97539-3.1682 1.2175l-3.1467 7.0742q-0.97539 2.1929 1.2175 3.1682z" clip-path="url(#a)" fill="#fff" stroke="#fff"/>
<g clip-path="url(#a)">
<g transform="translate(153.48 92.151) rotate(23.98) scale(.08 -.08)">
<use xlink:href="#s"/>
</g>
</g>
<path d="m34.032 98.441v33.808q0 2.4 2.4 2.4h7.7425q2.4 0 2.4-2.4v-33.808q0-2.4-2.4-2.4h-7.7425q-2.4 0-2.4 2.4z" clip-path="url(#a)" fill="#fff" stroke="#fff"/>
<g clip-path="url(#a)">
<g transform="translate(38.096 98.441) rotate(90) scale(.08 -.08)">
<use xlink:href="#f"/>
<use x="44.083984" xlink:href="#r"/>
<use x="105.607422" xlink:href="#m"/>
<use x="144.970703" xlink:href="#o"/>
<use x="242.382812" xlink:href="#q"/>
<use x="270.166016" xlink:href="#n"/>
<use x="333.544922" xlink:href="#l"/>
<use x="394.824219" xlink:href="#p"/>
</g>
</g>
<path d="m72.416 98.441v33.808q0 2.4 2.4 2.4h7.7425q2.4 0 2.4-2.4v-33.808q0-2.4-2.4-2.4h-7.7425q-2.4 0-2.4 2.4z" clip-path="url(#a)" fill="#fff" stroke="#fff"/>
<g clip-path="url(#a)">
<g transform="translate(76.479 98.441) rotate(90) scale(.08 -.08)">
<use xlink:href="#f"/>
<use x="44.083984" xlink:href="#r"/>
<use x="105.607422" xlink:href="#m"/>
<use x="144.970703" xlink:href="#o"/>
<use x="242.382812" xlink:href="#q"/>
<use x="270.166016" xlink:href="#n"/>
<use x="333.544922" xlink:href="#l"/>
<use x="394.824219" xlink:href="#p"/>
</g>
</g>
<path d="m120.4 98.441v33.808q0 2.4 2.4 2.4h7.7425q2.4 0 2.4-2.4v-33.808q0-2.4-2.4-2.4h-7.7425q-2.4 0-2.4 2.4z" clip-path="url(#a)" fill="#fff" stroke="#fff"/>
<g clip-path="url(#a)">
<g transform="translate(124.46 98.441) rotate(90) scale(.08 -.08)">
<use xlink:href="#f"/>
<use x="44.083984" xlink:href="#r"/>
<use x="105.607422" xlink:href="#m"/>
<use x="144.970703" xlink:href="#o"/>
<use x="242.382812" xlink:href="#q"/>
<use x="270.166016" xlink:href="#n"/>
<use x="333.544922" xlink:href="#l"/>
<use x="394.824219" xlink:href="#p"/>
</g>
</g>
<path d="m177.97 98.441v33.808q0 2.4 2.4 2.4h7.7425q2.4 0 2.4-2.4v-33.808q0-2.4-2.4-2.4h-7.7425q-2.4 0-2.4 2.4z" clip-path="url(#a)" fill="#fff" stroke="#fff"/>
<g clip-path="url(#a)">
<g transform="translate(182.03 98.441) rotate(90) scale(.08 -.08)">
<use xlink:href="#f"/>
<use x="44.083984" xlink:href="#r"/>
<use x="105.607422" xlink:href="#m"/>
<use x="144.970703" xlink:href="#o"/>
<use x="242.382812" xlink:href="#q"/>
<use x="270.166016" xlink:href="#n"/>
<use x="333.544922" xlink:href="#l"/>
<use x="394.824219" xlink:href="#p"/>
</g>
</g>
<defs>
<path id="b" d="m0 8.6603c2.2967 0 4.4997-0.9125 6.1237-2.5365 1.624-1.624 2.5365-3.827 2.5365-6.1237s-0.9125-4.4997-2.5365-6.1237c-1.624-1.624-3.827-2.5365-6.1237-2.5365s-4.4997 0.9125-6.1237 2.5365c-1.624 1.624-2.5365 3.827-2.5365 6.1237s0.9125 4.4997 2.5365 6.1237c1.624 1.624 3.827 2.5365 6.1237 2.5365z"/>
</defs>
<g clip-path="url(#a)" fill="#ffffff" stroke="#ffffff">
<use x="11.515152" y="127.272727" xlink:href="#b"/>
<use x="40.30303" y="127.272727" xlink:href="#b"/>
<use x="78.686869" y="127.272727" xlink:href="#b"/>
<use x="126.666667" y="127.272727" xlink:href="#b"/>
<use x="184.242424" y="127.272727" xlink:href="#b"/>
<use x="241.818182" y="54.916017" xlink:href="#b"/>
<use x="241.818182" y="54.916017" xlink:href="#b"/>
<use x="241.818182" y="79.230112" xlink:href="#b"/>
<use x="241.818182" y="79.230112" xlink:href="#b"/>
<use x="241.818182" y="79.230112" xlink:href="#b"/>
<use x="241.818182" y="103.417347" xlink:href="#b"/>
<use x="60.561167" y="6.060606" xlink:href="#b"/>
<use x="60.561167" y="30.519171" xlink:href="#b"/>
<use x="60.561167" y="54.916017" xlink:href="#b"/>
<use x="11.515152" y="103.417347" xlink:href="#b"/>
<use x="129.86532" y="79.230112" xlink:href="#b"/>
<use x="40.30303" y="103.417347" xlink:href="#b"/>
<use x="78.686869" y="103.417347" xlink:href="#b"/>
<use x="126.666667" y="103.417347" xlink:href="#b"/>
<use x="184.242424" y="103.417347" xlink:href="#b"/>
</g>
<g clip-path="url(#a)">
<g transform="translate(4.7956 130.03) scale(.1 -.1)">
<defs>
<path id="an" d="m9.8125 72.906h9.8594v-29.891h35.844v29.891h9.8594v-72.906h-9.8594v34.719h-35.844v-34.719h-9.8594z"/>
<path id="v" d="m32.172-5.0781q-3.7969-9.7656-7.4219-12.734-3.6094-2.9844-9.6562-2.9844h-7.1875v7.5156h5.2812q3.7031 0 5.75 1.7656 2.0625 1.75 4.5469 8.2969l1.6094 4.0938-22.109 53.812h9.5156l17.094-42.766 17.094 42.766h9.5156z"/>
</defs>
<use xlink:href="#an"/>
<use x="75.195312" xlink:href="#v"/>
</g>
</g>
<g clip-path="url(#a)">
<g transform="translate(35.536 130.03) scale(.1 -.1)">
<defs>
<path id="e" d="m10.688 12.406h10.312v-12.406h-10.312z"/>
</defs>
<use xlink:href="#e"/>
<use x="31.787109" xlink:href="#e"/>
<use x="63.574219" xlink:href="#e"/>
</g>
</g>
<g clip-path="url(#a)">
<g transform="translate(47.751 130.03) scale(.1 -.1)">
<defs>
<path id="ah" d="m56.297 54.688v-54.688h-9.0312v47.516h-29.156v-47.516h-9.0312v54.688z"/>
<path id="ag" d="m18.109 8.2031v-29h-9.0312v75.484h9.0312v-8.2969q2.8438 4.875 7.1562 7.2344 4.3281 2.375 10.328 2.375 9.9688 0 16.188-7.9062 6.2344-7.9062 6.2344-20.797t-6.2344-20.812q-6.2188-7.9062-16.188-7.9062-6 0-10.328 2.375-4.3125 2.375-7.1562 7.25zm30.578 19.094q0 9.9062-4.0781 15.547t-11.203 5.6406q-7.1406 0-11.219-5.6406t-4.0781-15.547 4.0781-15.547 11.219-5.6406q7.125 0 11.203 5.6406t4.0781 15.547z"/>
<path id="am" d="m34.281 27.484q-10.891 0-15.094-2.4844t-4.2031-8.5q0-4.7812 3.1562-7.5938 3.1562-2.7969 8.5625-2.7969 7.4844 0 12 5.2969t4.5156 14.078v2zm17.922 3.7188v-31.203h-8.9844v8.2969q-3.0781-4.9688-7.6719-7.3438t-11.234-2.375q-8.3906 0-13.359 4.7188-4.9531 4.7188-4.9531 12.625 0 9.2188 6.1719 13.906 6.1875 4.6875 18.438 4.6875h12.609v0.89062q0 6.2031-4.0781 9.5938t-11.453 3.3906q-4.6875 0-9.1406-1.125-4.4375-1.125-8.5312-3.375v8.3125q4.9219 1.9062 9.5625 2.8438 4.6406 0.95312 9.0312 0.95312 11.875 0 17.734-6.1562 5.8594-6.1406 5.8594-18.641z"/>
<path id="al" d="m18.062 25.203v-18.031h12.797q6.1562 0 9.375 2.3125 3.2188 2.3281 3.2188 6.7344 0 4.3906-3.2188 6.6875t-9.375 2.2969zm0 22.312v-15.141h11.828q5.0781 0 8.2969 2.0156 3.2188 2.0312 3.2188 5.6562 0 3.6094-3.2188 5.5312-3.2188 1.9375-8.2969 1.9375zm-8.9844 7.1719h21.391q9.625 0 14.797-3.5156t5.1719-10.016q0-5.0156-2.6406-7.9844-2.625-2.9531-7.8125-3.6719 6.2031-1.1719 9.625-4.8906 3.4219-3.7031 3.4219-9.2812 0-7.3125-5.6406-11.328-5.6406-4-16.094-4h-22.219z"/>
<path id="ai" d="m30.609 48.391q-7.2188 0-11.422-5.6406t-4.2031-15.453 4.1719-15.453q4.1875-5.6406 11.453-5.6406 7.1875 0 11.375 5.6562 4.2031 5.6719 4.2031 15.438 0 9.7188-4.2031 15.406-4.1875 5.6875-11.375 5.6875zm0 7.6094q11.719 0 18.406-7.625 6.7031-7.6094 6.7031-21.078 0-13.422-6.7031-21.078-6.6875-7.6406-18.406-7.6406-11.766 0-18.438 7.6406-6.6562 7.6562-6.6562 21.078 0 13.469 6.6562 21.078 6.6719 7.625 18.438 7.625z"/>
<path id="af" d="m48.781 52.594v-8.4062q-3.8125 2.1094-7.6406 3.1562t-7.7344 1.0469q-8.75 0-13.594-5.5469-4.8281-5.5312-4.8281-15.547t4.8281-15.562q4.8438-5.5312 13.594-5.5312 3.9062 0 7.7344 1.0469t7.6406 3.1562v-8.3125q-3.7656-1.75-7.7969-2.625-4.0156-0.89062-8.5625-0.89062-12.359 0-19.641 7.7656-7.2656 7.7656-7.2656 20.953 0 13.375 7.3438 21.031 7.3594 7.6719 20.156 7.6719 4.1406 0 8.0938-0.85938 3.9531-0.84375 7.6719-2.5469z"/>
<path id="ak" d="m21.625 7.1719h26.078v40.344h-18.891v-6.8438q0-20.109-5.7656-30.859zm-13.031 0q4.4375 1.9531 6.3906 6.1094 4.7969 10.297 4.7969 31.062v10.344h36.953v-47.516h7.1875v-20.984h-7.1875v13.812h-44.328v-13.812h-7.1875v20.984z"/>
<path id="aj" d="m55.906 54.688v-54.688h-8.9375v43.891l-26.359-43.891h-11.531v54.688h8.9375v-43.797l26.328 43.797z"/>
<path id="ae" d="m18.453 38.922q0-4.0625 3.125-6.3594 3.125-2.2812 8.9375-2.2812h12.109v17.234h-12.109q-5.8125 0-8.9375-2.25t-3.125-6.3438zm-12.781-38.922 16.688 23.969q-5.6562 1.2812-9.4219 4.625-3.75 3.3438-3.75 10.328 0 7.9062 5.2344 11.828 5.25 3.9375 15.859 3.9375h21.375v-54.688h-9.0312v23.094h-11.172l-16.125-23.094z"/>
</defs>
<use xlink:href="#ah"/>
<use x="65.380859" xlink:href="#ag"/>
<use x="128.857422" xlink:href="#am"/>
<use x="190.136719" xlink:href="#al"/>
<use x="249.072266" xlink:href="#ai"/>
<use x="310.253906" xlink:href="#af"/>
<use x="365.234375" xlink:href="#v"/>
<use x="424.414062" xlink:href="#ak"/>
<use x="493.554688" xlink:href="#aj"/>
<use x="558.544922" xlink:href="#ae"/>
</g>
</g>
<g clip-path="url(#a)">
<g transform="translate(125.08 130.03) scale(.1 -.1)">
<use xlink:href="#e"/>
</g>
</g>
<g clip-path="url(#a)">
<g transform="translate(182.44 130.03) scale(.1 -.1)">
<defs>
<path id="ac" d="m4.8906 31.391h26.312v-8h-26.312z"/>
</defs>
<use xlink:href="#ac"/>
</g>
</g>
<g clip-path="url(#a)">
<g transform="translate(220.73 57.675) scale(.1 -.1)">
<defs>
<path id="c" d="m9.8125 72.906h9.8594v-72.906h-9.8594z"/>
<path id="i" d="m9.8125 72.906h14.703l18.594-49.609 18.703 49.609h14.703v-72.906h-9.625v64.016l-18.797-50h-9.9062l-18.797 50v-64.016h-9.5781z"/>
<path id="j" d="m9.8125 72.906h9.8594v-64.609h35.5v-8.2969h-45.359z"/>
<path id="k" d="m64.406 67.281v-10.391q-4.9844 4.6406-10.625 6.9219-5.6406 2.2969-11.984 2.2969-12.5 0-19.141-7.6406t-6.6406-22.094q0-14.406 6.6406-22.047t19.141-7.6406q6.3438 0 11.984 2.2969t10.625 6.9375v-10.312q-5.1719-3.5156-10.969-5.2812-5.7812-1.75-12.219-1.75-16.562 0-26.094 10.125-9.5156 10.141-9.5156 27.672 0 17.578 9.5156 27.703 9.5312 10.141 26.094 10.141 6.5312 0 12.312-1.7344 5.7969-1.7344 10.875-5.2031z"/>
</defs>
<use xlink:href="#c"/>
<use x="29.492188" xlink:href="#i"/>
<use x="115.771484" xlink:href="#g"/>
<use x="176.074219" xlink:href="#j"/>
<use x="231.787109" xlink:href="#c"/>
<use x="261.279297" xlink:href="#k"/>
<use x="331.103516" xlink:href="#c"/>
<use x="360.595703" xlink:href="#f"/>
</g>
</g>
<g clip-path="url(#a)">
<g transform="translate(220.73 57.675) scale(.1 -.1)">
<use xlink:href="#c"/>
<use x="29.492188" xlink:href="#i"/>
<use x="115.771484" xlink:href="#g"/>
<use x="176.074219" xlink:href="#j"/>
<use x="231.787109" xlink:href="#c"/>
<use x="261.279297" xlink:href="#k"/>
<use x="331.103516" xlink:href="#c"/>
<use x="360.595703" xlink:href="#f"/>
</g>
</g>
<g clip-path="url(#a)">
<g transform="translate(220.73 81.989) scale(.1 -.1)">
<use xlink:href="#c"/>
<use x="29.492188" xlink:href="#i"/>
<use x="115.771484" xlink:href="#g"/>
<use x="176.074219" xlink:href="#j"/>
<use x="231.787109" xlink:href="#c"/>
<use x="261.279297" xlink:href="#k"/>
<use x="331.103516" xlink:href="#c"/>
<use x="360.595703" xlink:href="#f"/>
</g>
</g>
<g clip-path="url(#a)">
<g transform="translate(220.73 81.989) scale(.1 -.1)">
<use xlink:href="#c"/>
<use x="29.492188" xlink:href="#i"/>
<use x="115.771484" xlink:href="#g"/>
<use x="176.074219" xlink:href="#j"/>
<use x="231.787109" xlink:href="#c"/>
<use x="261.279297" xlink:href="#k"/>
<use x="331.103516" xlink:href="#c"/>
<use x="360.595703" xlink:href="#f"/>
</g>
</g>
<g clip-path="url(#a)">
<g transform="translate(220.73 81.989) scale(.1 -.1)">
<use xlink:href="#c"/>
<use x="29.492188" xlink:href="#i"/>
<use x="115.771484" xlink:href="#g"/>
<use x="176.074219" xlink:href="#j"/>
<use x="231.787109" xlink:href="#c"/>
<use x="261.279297" xlink:href="#k"/>
<use x="331.103516" xlink:href="#c"/>
<use x="360.595703" xlink:href="#f"/>
</g>
</g>
<g clip-path="url(#a)">
<g transform="translate(220.73 106.18) scale(.1 -.1)">
<use xlink:href="#c"/>
<use x="29.492188" xlink:href="#i"/>
<use x="115.771484" xlink:href="#g"/>
<use x="176.074219" xlink:href="#j"/>
<use x="231.787109" xlink:href="#c"/>
<use x="261.279297" xlink:href="#k"/>
<use x="331.103516" xlink:href="#c"/>
<use x="360.595703" xlink:href="#f"/>
</g>
</g>
<g clip-path="url(#a)">
<g transform="translate(52.61 8.82) scale(.1 -.1)">
<defs>
<path id="d" d="m12.406 8.2969h16.109v55.625l-17.531-3.5156v8.9844l17.438 3.5156h9.8594v-64.609h16.109v-8.2969h-41.984z"/>
</defs>
<use xlink:href="#d"/>
<use x="63.623047" xlink:href="#e"/>
<use x="95.410156" xlink:href="#d"/>
</g>
</g>
<g clip-path="url(#a)">
<g transform="translate(52.61 33.279) scale(.1 -.1)">
<defs>
<path id="u" d="m19.188 8.2969h34.422v-8.2969h-46.281v8.2969q5.6094 5.8125 15.297 15.594 9.7031 9.7969 12.188 12.641 4.7344 5.3125 6.6094 9 1.8906 3.6875 1.8906 7.25 0 5.8125-4.0781 9.4688-4.0781 3.6719-10.625 3.6719-4.6406 0-9.7969-1.6094-5.1406-1.6094-11-4.8906v9.9688q5.9531 2.3906 11.125 3.6094 5.1875 1.2188 9.4844 1.2188 11.328 0 18.062-5.6719 6.7344-5.6562 6.7344-15.125 0-4.5-1.6875-8.5312-1.6719-4.0156-6.125-9.4844-1.2188-1.4219-7.7656-8.1875-6.5312-6.7656-18.453-18.922z"/>
</defs>
<use xlink:href="#d"/>
<use x="63.623047" xlink:href="#e"/>
<use x="95.410156" xlink:href="#u"/>
</g>
</g>
<g clip-path="url(#a)">
<g transform="translate(52.61 57.675) scale(.1 -.1)">
<defs>
<path id="t" d="m8.2031 72.906h46.875v-4.2031l-26.469-68.703h-10.297l24.906 64.594h-35.016z"/>
</defs>
<use xlink:href="#d"/>
<use x="63.623047" xlink:href="#e"/>
<use x="95.410156" xlink:href="#t"/>
</g>
</g>
<g clip-path="url(#a)">
<g transform="translate(.38234 106.18) scale(.1 -.1)">
<use xlink:href="#d"/>
<use x="63.623047" xlink:href="#e"/>
<use x="95.410156" xlink:href="#d"/>
<use x="159.033203" xlink:href="#d"/>
</g>
</g>
<g clip-path="url(#a)">
<g transform="translate(118.73 81.989) scale(.1 -.1)">
<use xlink:href="#d"/>
<use x="63.623047" xlink:href="#e"/>
<use x="95.410156" xlink:href="#d"/>
<use x="159.033203" xlink:href="#u"/>
</g>
</g>
<g clip-path="url(#a)">
<g transform="translate(29.17 106.18) scale(.1 -.1)">
<defs>
<path id="ab" d="m40.578 39.312q7.0781-1.5156 11.047-6.3125 3.9844-4.7812 3.9844-11.812 0-10.781-7.4219-16.703-7.4219-5.9062-21.094-5.9062-4.5781 0-9.4375 0.90625t-10.031 2.7188v9.5156q4.0938-2.3906 8.9688-3.6094 4.8906-1.2188 10.219-1.2188 9.2656 0 14.125 3.6562t4.8594 10.641q0 6.4531-4.5156 10.078-4.5156 3.6406-12.562 3.6406h-8.5v8.1094h8.8906q7.2656 0 11.125 2.9062t3.8594 8.375q0 5.6094-3.9844 8.6094-3.9688 3.0156-11.391 3.0156-4.0625 0-8.7031-0.89062-4.6406-0.875-10.203-2.7188v8.7812q5.625 1.5625 10.531 2.3438t9.25 0.78125q11.234 0 17.766-5.1094 6.5469-5.0938 6.5469-13.781 0-6.0625-3.4688-10.234t-9.8594-5.7812z"/>
</defs>
<use xlink:href="#d"/>
<use x="63.623047" xlink:href="#e"/>
<use x="95.410156" xlink:href="#d"/>
<use x="159.033203" xlink:href="#ab"/>
</g>
</g>
<g clip-path="url(#a)">
<g transform="translate(67.554 106.18) scale(.1 -.1)">
<defs>
<path id="aa" d="m10.797 72.906h38.719v-8.3125h-29.688v-17.859q2.1406 0.73438 4.2812 1.0938 2.1562 0.35938 4.3125 0.35938 12.203 0 19.328-6.6875 7.1406-6.6875 7.1406-18.109 0-11.766-7.3281-18.297-7.3281-6.5156-20.656-6.5156-4.5938 0-9.3594 0.78125-4.75 0.78125-9.8281 2.3438v9.9219q4.3906-2.3906 9.0781-3.5625t9.9062-1.1719q8.4531 0 13.375 4.4375 4.9375 4.4375 4.9375 12.062 0 7.6094-4.9375 12.047-4.9219 4.4531-13.375 4.4531-3.9531 0-7.8906-0.875-3.9219-0.875-8.0156-2.7344z"/>
</defs>
<use xlink:href="#d"/>
<use x="63.623047" xlink:href="#e"/>
<use x="95.410156" xlink:href="#d"/>
<use x="159.033203" xlink:href="#aa"/>
</g>
</g>
<g clip-path="url(#a)">
<g transform="translate(115.53 106.18) scale(.1 -.1)">
<defs>
<path id="z" d="m33.016 40.375q-6.6406 0-10.531-4.5469-3.875-4.5312-3.875-12.438 0-7.8594 3.875-12.438 3.8906-4.5625 10.531-4.5625t10.516 4.5625q3.875 4.5781 3.875 12.438 0 7.9062-3.875 12.438-3.875 4.5469-10.516 4.5469zm19.578 30.922v-8.9844q-3.7188 1.75-7.5 2.6719-3.7812 0.9375-7.5 0.9375-9.7656 0-14.922-6.5938-5.1406-6.5938-5.875-19.922 2.875 4.25 7.2188 6.5156 4.3594 2.2656 9.5781 2.2656 10.984 0 17.359-6.6719 6.375-6.6562 6.375-18.125 0-11.234-6.6406-18.031-6.6406-6.7812-17.672-6.7812-12.656 0-19.344 9.6875-6.6875 9.7031-6.6875 28.109 0 17.281 8.2031 27.562t22.016 10.281q3.7188 0 7.5-0.73438t7.8906-2.1875z"/>
</defs>
<use xlink:href="#d"/>
<use x="63.623047" xlink:href="#e"/>
<use x="95.410156" xlink:href="#d"/>
<use x="159.033203" xlink:href="#z"/>
</g>
</g>
<g clip-path="url(#a)">
<g transform="translate(173.11 106.18) scale(.1 -.1)">
<use xlink:href="#d"/>
<use x="63.623047" xlink:href="#e"/>
<use x="95.410156" xlink:href="#d"/>
<use x="159.033203" xlink:href="#t"/>
</g>
</g>
<defs>
<clipPath id="a">
<rect width="253.33" height="133.33"/>
</clipPath>
</defs>
</svg>
