<?xml version="1.0" encoding="UTF-8"?>
<!DOCTYPE svg  PUBLIC '-//W3C//DTD SVG 1.1//EN'  'http://www.w3.org/Graphics/SVG/1.1/DTD/svg11.dtd'>
<svg width="1824pt" height="960pt" version="1.1" viewBox="0 0 1824 960" xmlns="http://www.w3.org/2000/svg" xmlns:xlink="http://www.w3.org/1999/xlink">
<metadata>
<rdf:RDF xmlns:cc="http://creativecommons.org/ns#" xmlns:dc="http://purl.org/dc/elements/1.1/" xmlns:rdf="http://www.w3.org/1999/02/22-rdf-syntax-ns#">
<cc:Work>
<dc:type rdf:resource="http://purl.org/dc/dcmitype/StillImage"/>
<dc:date>2021-02-23T11:01:50.693013</dc:date>
<dc:format>image/svg+xml</dc:format>
<dc:creator>
<cc:Agent>
<dc:title>Matplotlib v3.3.3, https://matplotlib.org/</dc:title>
</cc:Agent>
</dc:creator>
</cc:Work>
</rdf:RDF>
</metadata>
<defs>
<style type="text/css">*{stroke-linecap:butt;stroke-linejoin:round;}</style>
</defs>
<path d="m0 960h1824v-960h-1824z" fill="#fff"/>
<g fill="none" stroke="#000">
<path d="m255.69 43.636v146.78" clip-path="url(#a)"/>
<path d="m255.69 190.42 472.12 146.48" clip-path="url(#a)"/>
<path d="m255.69 190.42-92.465 583.08" clip-path="url(#a)"/>
<path d="m255.69 190.42-71.206 438.22" clip-path="url(#a)"/>
<path d="m255.69 190.42-127.9 583.08" clip-path="url(#a)"/>
<path d="m255.69 190.42-111.36 583.08" clip-path="url(#a)"/>
<path d="m255.69 190.42-47.586 583.08" clip-path="url(#a)"/>
<path d="m255.69 190.42-21.603 583.08" clip-path="url(#a)"/>
<path d="m727.8 336.9-644.89 436.59" clip-path="url(#a)"/>
<path d="m727.8 336.9-627.57 291.73" clip-path="url(#a)"/>
<path d="m727.8 336.9-433.88 291.73" clip-path="url(#a)"/>
<path d="m727.8 336.9-251.61 146.11" clip-path="url(#a)"/>
<path d="m727.8 336.9-103.98 436.59" clip-path="url(#a)"/>
<path d="m727.8 336.9-126.42 146.11" clip-path="url(#a)"/>
<path d="m727.8 336.9 61.368 436.59" clip-path="url(#a)"/>
<path d="m727.8 336.9 223.47 291.73" clip-path="url(#a)"/>
<path d="m727.8 336.9 524.34 436.59" clip-path="url(#a)"/>
<path d="m727.8 336.9 843.22 291.73" clip-path="url(#a)"/>
<path d="m727.8 336.9-366.17 436.59" clip-path="url(#a)"/>
<path d="m727.8 336.9-153.58 436.59" clip-path="url(#a)"/>
<path d="m727.8 336.9 4.6782 436.59" clip-path="url(#a)"/>
<path d="m727.8 336.9 451.11 436.59" clip-path="url(#a)"/>
<path d="m727.8 336.9 599.92 436.59" clip-path="url(#a)"/>
<path d="m163.22 773.49v142.87" clip-path="url(#a)"/>
<path d="m184.48 628.63v144.86" clip-path="url(#a)"/>
<path d="m184.48 773.49v142.87" clip-path="url(#a)"/>
<path d="m82.909 773.49v142.87" clip-path="url(#a)"/>
<path d="m100.23 628.63 13.385 144.86" clip-path="url(#a)"/>
<path d="m100.23 628.63v144.86" clip-path="url(#a)"/>
<path d="m293.92 628.63-31.494 144.86" clip-path="url(#a)"/>
<path d="m293.92 628.63-0.78736 144.86" clip-path="url(#a)"/>
<path d="m293.92 628.63 32.282 144.86" clip-path="url(#a)"/>
<path d="m476.2 483.01-56.69 145.62" clip-path="url(#a)"/>
<path d="m476.2 483.01 5.9052 290.48" clip-path="url(#a)"/>
<path d="m476.2 483.01 50.785 290.48" clip-path="url(#a)"/>
<path d="m623.83 773.49v142.87" clip-path="url(#a)"/>
<path d="m601.39 483.01 74.406 145.62" clip-path="url(#a)"/>
<path d="m601.39 483.01-74.406 290.48" clip-path="url(#a)" stroke-dasharray="3.7,1.6"/>
<path d="m789.17 773.49v142.87" clip-path="url(#a)"/>
<path d="m951.27 628.63-103.05 144.86" clip-path="url(#a)"/>
<path d="m951.27 628.63-41.632 144.86" clip-path="url(#a)"/>
<path d="m951.27 628.63 22.145 144.86" clip-path="url(#a)"/>
<path d="m951.27 628.63 122.53 144.86" clip-path="url(#a)"/>
<path d="m1252.1 773.49v142.87" clip-path="url(#a)"/>
<path d="m1571 628.63-165.35 144.86" clip-path="url(#a)"/>
<path d="m1571 628.63-85.035 144.86" clip-path="url(#a)"/>
<path d="m1571 628.63-2.3621 144.86" clip-path="url(#a)"/>
<path d="m1571 628.63 82.673 144.86" clip-path="url(#a)"/>
<path d="m1571 628.63 170.07 144.86" clip-path="url(#a)"/>
<path d="m1405.7 773.49v142.87" clip-path="url(#a)"/>
<path d="m1486 773.49v142.87" clip-path="url(#a)"/>
<path d="m1568.7 773.49v142.87" clip-path="url(#a)"/>
<path d="m848.22 773.49v142.87" clip-path="url(#a)"/>
<path d="m909.64 773.49v142.87" clip-path="url(#a)"/>
<path d="m973.41 773.49v142.87" clip-path="url(#a)"/>
<path d="m1073.8 773.49-34.25 142.87" clip-path="url(#a)"/>
<path d="m1073.8 773.49 34.25 142.87" clip-path="url(#a)"/>
<path d="m675.79 628.63 2.3621 144.86" clip-path="url(#a)"/>
<path d="m675.79 628.63v144.86" clip-path="url(#a)"/>
<path d="m675.79 773.49v142.87" clip-path="url(#a)"/>
<path d="m419.51 628.63v144.86" clip-path="url(#a)"/>
<path d="m482.1 773.49v142.87" clip-path="url(#a)"/>
<path d="m526.98 773.49v142.87" clip-path="url(#a)"/>
<path d="m419.51 773.49-20.078 142.87" clip-path="url(#a)"/>
<path d="m419.51 773.49 20.078 142.87" clip-path="url(#a)"/>
<path d="m262.43 773.49v142.87" clip-path="url(#a)"/>
<path d="m293.13 773.49v142.87" clip-path="url(#a)"/>
<path d="m326.2 773.49v142.87" clip-path="url(#a)"/>
<path d="m100.23 773.49-10.236 142.87" clip-path="url(#a)"/>
<path d="m100.23 773.49-0.78736 142.87" clip-path="url(#a)"/>
<path d="m100.23 773.49 11.023 142.87" clip-path="url(#a)"/>
<path d="m127.79 773.49v142.87" clip-path="url(#a)"/>
<path d="m144.32 773.49v142.87" clip-path="url(#a)"/>
<path d="m208.1 773.49v142.87" clip-path="url(#a)"/>
<path d="m234.08 773.49v142.87" clip-path="url(#a)"/>
<path d="m361.63 773.49v142.87" clip-path="url(#a)"/>
<path d="m574.22 773.49v142.87" clip-path="url(#a)"/>
<path d="m732.48 773.49v142.87" clip-path="url(#a)"/>
<path d="m1178.9 773.49v142.87" clip-path="url(#a)"/>
<path d="m1327.7 773.49v142.87" clip-path="url(#a)"/>
<path d="m1653.7 773.49v142.87" clip-path="url(#a)"/>
<path d="m1741.1 773.49v142.87" clip-path="url(#a)"/>
</g>
<path d="m249.41 114.02v6.0162q0 2.4 2.4 2.4h7.7425q2.4 0 2.4-2.4v-6.0162q0-2.4-2.4-2.4h-7.7425q-2.4 0-2.4 2.4z" clip-path="url(#a)" fill="#fff" stroke="#fff"/>
<g clip-path="url(#a)">
<g transform="translate(253.48 114.02) rotate(90) scale(.08 -.08)">
<defs>
<path id="ab" d="m9.8125 72.906h9.8594v-29.891h35.844v29.891h9.8594v-72.906h-9.8594v34.719h-35.844v-34.719h-9.8594z"/>
</defs>
<use xlink:href="#ab"/>
</g>
</g>
<path d="m487.27 268.84 5.2267 1.6217q2.2922 0.7112 3.0034-1.581l2.2944-7.3947q0.7112-2.2922-1.581-3.0034l-5.2267-1.6217q-2.2922-0.7112-3.0034 1.581l-2.2944 7.3947q-0.7112 2.2922 1.581 3.0034z" clip-path="url(#a)" fill="#fff" stroke="#fff"/>
<g clip-path="url(#a)">
<g transform="translate(488.48 264.96) rotate(17.238) scale(.08 -.08)">
<defs>
<path id="t" d="m34.188 63.188-13.391-36.281h26.812zm-5.5781 9.7188h11.188l27.781-72.906h-10.25l-6.6406 18.703h-32.859l-6.6406-18.703h-10.406z"/>
</defs>
<use xlink:href="#t"/>
</g>
</g>
<path d="m215.27 485.32 0.75552-4.7642q0.3759-2.3704-1.9945-2.7463l-7.6469-1.2127q-2.3704-0.3759-2.7463 1.9945l-0.75552 4.7642q-0.3759 2.3704 1.9945 2.7463l7.6469 1.2127q2.3704 0.3759 2.7463-1.9945z" clip-path="url(#a)" fill="#fff" stroke="#fff"/>
<g clip-path="url(#a)">
<g transform="translate(211.25 484.68) rotate(-80.989) scale(.08 -.08)">
<defs>
<path id="aa" d="m19.672 64.797v-27.391h12.406q6.8906 0 10.641 3.5625 3.7656 3.5625 3.7656 10.156 0 6.5469-3.7656 10.109-3.75 3.5625-10.641 3.5625zm-9.8594 8.1094h22.266q12.266 0 18.531-5.5469 6.2812-5.5469 6.2812-16.234 0-10.797-6.2812-16.312-6.2656-5.5156-18.531-5.5156h-12.406v-29.297h-9.8594z"/>
</defs>
<use xlink:href="#aa"/>
</g>
</g>
<path d="m225.83 413.23 0.87772-5.4017q0.38493-2.3689-1.984-2.7539l-7.6423-1.2418q-2.3689-0.38493-2.7539 1.984l-0.87772 5.4017q-0.38493 2.3689 1.984 2.7539l7.6423 1.2418q2.3689 0.38493 2.7539-1.984z" clip-path="url(#a)" fill="#fff" stroke="#fff"/>
<g clip-path="url(#a)">
<g transform="translate(221.82 412.58) rotate(-80.771) scale(.08 -.08)">
<use xlink:href="#t"/>
</g>
</g>
<path d="m197.24 486.16 1.2545-5.719q0.51421-2.3443-1.8301-2.8585l-7.5627-1.6589q-2.3443-0.51421-2.8585 1.8301l-1.2545 5.719q-0.51421 2.3443 1.8301 2.8585l7.5627 1.6589q2.3443 0.51421 2.8585-1.8301z" clip-path="url(#a)" fill="#fff" stroke="#fff"/>
<g clip-path="url(#a)">
<g transform="translate(193.27 485.29) rotate(-77.628) scale(.08 -.08)">
<defs>
<path id="p" d="m8.6875 72.906h9.9219v-44.297q0-11.719 4.2344-16.875 4.25-5.1406 13.781-5.1406 9.4688 0 13.719 5.1406 4.25 5.1562 4.25 16.875v44.297h9.9062v-45.516q0-14.25-7.0625-21.531-7.0469-7.2812-20.812-7.2812-13.828 0-20.891 7.2812-7.0469 7.2812-7.0469 21.531z"/>
</defs>
<use xlink:href="#p"/>
</g>
</g>
<path d="m205.61 486.01 1.0984-5.751q0.45024-2.3574-1.9072-2.8076l-7.605-1.4525q-2.3574-0.45024-2.8076 1.9072l-1.0984 5.751q-0.45024 2.3574 1.9072 2.8076l7.605 1.4525q2.3574 0.45024 2.8076-1.9072z" clip-path="url(#a)" fill="#fff" stroke="#fff"/>
<g clip-path="url(#a)">
<g transform="translate(201.62 485.24) rotate(-79.187) scale(.08 -.08)">
<use xlink:href="#p"/>
</g>
</g>
<path d="m237.9 485.38 0.47625-5.8356q0.19522-2.392-2.1968-2.5873l-7.7168-0.62978q-2.392-0.19522-2.5873 2.1968l-0.47625 5.8356q-0.19522 2.392 2.1968 2.5873l7.7168 0.62978q2.392 0.19522 2.5873-2.1968z" clip-path="url(#a)" fill="#fff" stroke="#fff"/>
<g clip-path="url(#a)">
<g transform="translate(233.85 485.05) rotate(-85.334) scale(.08 -.08)">
<use xlink:href="#p"/>
</g>
</g>
<path d="m251.04 485.11 0.21678-5.851q0.088858-2.3984-2.3095-2.4872l-7.7372-0.28666q-2.3984-0.088858-2.4872 2.3095l-0.21678 5.851q-0.088858 2.3984 2.3095 2.4872l7.7372 0.28666q2.3984 0.088858 2.4872-2.3095z" clip-path="url(#a)" fill="#fff" stroke="#fff"/>
<g clip-path="url(#a)">
<g transform="translate(246.98 484.96) rotate(-87.878) scale(.08 -.08)">
<use xlink:href="#p"/>
</g>
</g>
<path d="m407.03 561.64 3.6912-2.4989q1.9874-1.3455 0.64193-3.3329l-4.3405-6.4114q-1.3455-1.9874-3.3329-0.64193l-3.6912 2.4989q-1.9874 1.3455-0.64193 3.3329l4.3405 6.4114q1.3455 1.9874 3.3329 0.64193z" clip-path="url(#a)" fill="#fff" stroke="#fff"/>
<g clip-path="url(#a)">
<g transform="translate(404.75 558.27) rotate(-34.098) scale(.08 -.08)">
<defs>
<path id="ac" d="m9.8125 72.906h9.8594v-64.609h35.5v-8.2969h-45.359z"/>
</defs>
<use xlink:href="#ac"/>
</g>
</g>
<path d="m413.93 489.72 5.4556-2.5361q2.1763-1.0117 1.1646-3.188l-3.2638-7.021q-1.0117-2.1763-3.188-1.1646l-5.4556 2.5361q-2.1763 1.0117-1.1646 3.188l3.2638 7.021q1.0117 2.1763 3.188 1.1646z" clip-path="url(#a)" fill="#fff" stroke="#fff"/>
<g clip-path="url(#a)">
<g transform="translate(412.22 486.04) rotate(-24.932) scale(.08 -.08)">
<use xlink:href="#ab"/>
</g>
</g>
<path d="m511.87 489.65 4.9926-3.3569q1.9917-1.3391 0.65251-3.3308l-4.3201-6.4252q-1.3391-1.9917-3.3308-0.65251l-4.9926 3.3569q-1.9917 1.3391-0.65251 3.3308l4.3201 6.4252q1.3391 1.9917 3.3308 0.65251z" clip-path="url(#a)" fill="#fff" stroke="#fff"/>
<g clip-path="url(#a)">
<g transform="translate(509.6 486.28) rotate(-33.916) scale(.08 -.08)">
<use xlink:href="#ab"/>
</g>
</g>
<path d="m602.55 416.89 5.2026-3.0213q2.0754-1.2052 0.87018-3.2807l-3.8882-6.6954q-1.2052-2.0754-3.2807-0.87018l-5.2026 3.0213q-2.0754 1.2052-0.87018 3.2807l3.8882 6.6954q1.2052 2.0754 3.2807 0.87018z" clip-path="url(#a)" fill="#fff" stroke="#fff"/>
<g clip-path="url(#a)">
<g transform="translate(600.51 413.38) rotate(-30.145) scale(.08 -.08)">
<use xlink:href="#ab"/>
</g>
</g>
<path d="m681.4 558.82 1.0327-4.3362q0.55602-2.3347-1.7787-2.8907l-7.5318-1.7938q-2.3347-0.55603-2.8907 1.7787l-1.0327 4.3362q-0.55603 2.3347 1.7787 2.8907l7.5318 1.7938q2.3347 0.55603 2.8907-1.7787z" clip-path="url(#a)" fill="#fff" stroke="#fff"/>
<g clip-path="url(#a)">
<g transform="translate(677.45 557.88) rotate(-76.604) scale(.08 -.08)">
<use xlink:href="#ac"/>
</g>
</g>
<path d="m667.37 416.34 3.9364-4.5497q1.5703-1.815-0.24467-3.3853l-5.8552-5.0659q-1.815-1.5703-3.3853 0.24467l-3.9364 4.5497q-1.5703 1.815 0.24467 3.3853l5.8552 5.0659q1.815 1.5703 3.3853-0.24467z" clip-path="url(#a)" fill="#fff" stroke="#fff"/>
<g clip-path="url(#a)">
<g transform="translate(664.3 413.68) rotate(-49.134) scale(.08 -.08)">
<use xlink:href="#ab"/>
</g>
</g>
<path d="m751.97 553.86 0.62046 4.4141q0.33406 2.3766 2.7107 2.0426l7.6671-1.0777q2.3766-0.33406 2.0426-2.7107l-0.62046-4.4141q-0.33406-2.3766-2.7107-2.0426l-7.6671 1.0777q-2.3766 0.33406-2.0426 2.7107z" clip-path="url(#a)" fill="#fff" stroke="#fff"/>
<g clip-path="url(#a)">
<g transform="translate(755.99 553.3) rotate(81.999) scale(.08 -.08)">
<use xlink:href="#ac"/>
</g>
</g>
<path d="m832.73 484.19 3.6585 4.7761q1.4594 1.9053 3.3647 0.44584l6.1465-4.7082q1.9053-1.4594 0.44584-3.3647l-3.6585-4.7761q-1.4594-1.9053-3.3647-0.44584l-6.1465 4.7082q-1.9053 1.4594-0.44584 3.3647z" clip-path="url(#a)" fill="#fff" stroke="#fff"/>
<g clip-path="url(#a)">
<g transform="translate(835.95 481.72) rotate(52.548) scale(.08 -.08)">
<use xlink:href="#ab"/>
</g>
</g>
<path d="m984.25 558.59 3.4255 2.8523q1.8443 1.5357 3.3801-0.30864l4.9543-5.9499q1.5357-1.8443-0.30864-3.3801l-3.4255-2.8523q-1.8443-1.5357-3.38 0.30864l-4.9543 5.9499q-1.5357 1.8443 0.30864 3.3801z" clip-path="url(#a)" fill="#fff" stroke="#fff"/>
<g clip-path="url(#a)">
<g transform="translate(986.85 555.47) rotate(39.783) scale(.08 -.08)">
<use xlink:href="#ac"/>
</g>
</g>
<path d="m1144.5 487.71 5.6856 1.9671q2.2681 0.78471 3.0528-1.4834l2.5315-7.317q0.78471-2.2681-1.4834-3.0528l-5.6856-1.9671q-2.2681-0.78471-3.0528 1.4834l-2.5315 7.317q-0.78471 2.2681 1.4834 3.0528z" clip-path="url(#a)" fill="#fff" stroke="#fff"/>
<g clip-path="url(#a)">
<g transform="translate(1145.8 483.87) rotate(19.084) scale(.08 -.08)">
<use xlink:href="#ab"/>
</g>
</g>
<path d="m547.64 561.47 3.7625-4.4861q1.5423-1.8389-0.29662-3.3811l-5.9323-4.9754q-1.8389-1.5423-3.3811 0.29662l-3.7625 4.4861q-1.5423 1.8389 0.29662 3.3811l5.9323 4.9754q1.8389 1.5423 3.3811-0.29662z" clip-path="url(#a)" fill="#fff" stroke="#fff"/>
<g clip-path="url(#a)">
<g transform="translate(544.53 558.86) rotate(-50.014) scale(.08 -.08)">
<use xlink:href="#p"/>
</g>
</g>
<path d="m655.96 560.04 1.9429-5.5232q0.79642-2.264-1.4676-3.0604l-7.3038-2.5693q-2.264-0.79642-3.0604 1.4676l-1.9429 5.5232q-0.79642 2.264 1.4676 3.0604l7.3038 2.5693q2.264 0.79642 3.0604-1.4676z" clip-path="url(#a)" fill="#fff" stroke="#fff"/>
<g clip-path="url(#a)">
<g transform="translate(652.12 558.69) rotate(-70.62) scale(.08 -.08)">
<use xlink:href="#p"/>
</g>
</g>
<path d="m723.84 552.34 0.062735 5.8547q0.025716 2.3999 2.4256 2.3741l7.7421-0.082959q2.3999-0.025715 2.3741-2.4256l-0.062735-5.8547q-0.025715-2.3999-2.4256-2.3741l-7.7421 0.082959q-2.3999 0.025715-2.3741 2.4256z" clip-path="url(#a)" fill="#fff" stroke="#fff"/>
<g clip-path="url(#a)">
<g transform="translate(727.9 552.29) rotate(89.386) scale(.08 -.08)">
<use xlink:href="#p"/>
</g>
</g>
<path d="m946.89 557.67 4.2073 4.0718q1.7246 1.6691 3.3937-0.055507l5.3845-5.5636q1.6691-1.7246-0.055508-3.3937l-4.2073-4.0718q-1.7246-1.6691-3.3937 0.055507l-5.3845 5.5636q-1.6691 1.7246 0.055508 3.3937z" clip-path="url(#a)" fill="#fff" stroke="#fff"/>
<g clip-path="url(#a)">
<g transform="translate(949.72 554.75) rotate(44.063) scale(.08 -.08)">
<use xlink:href="#p"/>
</g>
</g>
<path d="m1021.7 558.54 4.7341 3.4452q1.9405 1.4122 3.3527-0.52831l4.5559-6.2602q1.4122-1.9405-0.52831-3.3527l-4.7341-3.4452q-1.9405-1.4122-3.3527 0.52831l-4.5559 6.2602q-1.4122 1.9405 0.52832 3.3527z" clip-path="url(#a)" fill="#fff" stroke="#fff"/>
<g clip-path="url(#a)">
<g transform="translate(1024.1 555.26) rotate(36.045) scale(.08 -.08)">
<use xlink:href="#p"/>
</g>
</g>
<path d="m156.95 828.02v33.808q0 2.4 2.4 2.4h7.7425q2.4 0 2.4-2.4v-33.808q0-2.4-2.4-2.4h-7.7425q-2.4 0-2.4 2.4z" clip-path="url(#a)" fill="#fff" stroke="#fff"/>
<g clip-path="url(#a)">
<g transform="translate(161.01 828.02) rotate(90) scale(.08 -.08)">
<defs>
<path id="e" d="m-0.29688 72.906h61.672v-8.3125h-25.875v-64.594h-9.9062v64.594h-25.891z"/>
<path id="l" d="m56.203 29.594v-4.3906h-41.312q0.59375-9.2812 5.5938-14.141t13.938-4.8594q5.1719 0 10.031 1.2656t9.6562 3.8125v-8.5q-4.8438-2.0469-9.9219-3.125t-10.297-1.0781q-13.094 0-20.734 7.6094-7.6406 7.625-7.6406 20.625 0 13.422 7.25 21.297 7.25 7.8906 19.562 7.8906 11.031 0 17.453-7.1094 6.4219-7.0938 6.4219-19.297zm-8.9844 2.6406q-0.09375 7.3594-4.125 11.75-4.0312 4.4062-10.672 4.4062-7.5156 0-12.031-4.25t-5.2031-11.969z"/>
<path id="g" d="m41.109 46.297q-1.5156 0.875-3.2969 1.2812-1.7812 0.42188-3.9219 0.42188-7.625 0-11.703-4.9531t-4.0781-14.234v-28.812h-9.0312v54.688h9.0312v-8.5q2.8438 4.9844 7.375 7.3906 4.5469 2.4219 11.047 2.4219 0.92188 0 2.0469-0.125 1.125-0.10938 2.4844-0.35938z"/>
<path id="i" d="m52 44.188q3.375 6.0625 8.0625 8.9375t11.031 2.875q8.5469 0 13.188-5.9844 4.6406-5.9688 4.6406-17v-33.016h-9.0312v32.719q0 7.8594-2.7969 11.656-2.7812 3.8125-8.4844 3.8125-6.9844 0-11.047-4.6406-4.0469-4.625-4.0469-12.641v-30.906h-9.0312v32.719q0 7.9062-2.7812 11.688t-8.5938 3.7812q-6.8906 0-10.953-4.6562-4.0469-4.6562-4.0469-12.625v-30.906h-9.0312v54.688h9.0312v-8.5q3.0781 5.0312 7.375 7.4219t10.203 2.3906q5.9688 0 10.141-3.0312 4.1719-3.0156 6.1719-8.7812z"/>
<path id="k" d="m9.4219 54.688h8.9844v-54.688h-8.9844zm0 21.297h8.9844v-11.391h-8.9844z"/>
<path id="h" d="m54.891 33.016v-33.016h-8.9844v32.719q0 7.7656-3.0312 11.609-3.0312 3.8594-9.0781 3.8594-7.2812 0-11.484-4.6406-4.2031-4.625-4.2031-12.641v-30.906h-9.0312v54.688h9.0312v-8.5q3.2344 4.9375 7.5938 7.375 4.375 2.4375 10.094 2.4375 9.4219 0 14.25-5.8281 4.8438-5.8281 4.8438-17.156z"/>
<path id="f" d="m34.281 27.484q-10.891 0-15.094-2.4844t-4.2031-8.5q0-4.7812 3.1562-7.5938 3.1562-2.7969 8.5625-2.7969 7.4844 0 12 5.2969t4.5156 14.078v2zm17.922 3.7188v-31.203h-8.9844v8.2969q-3.0781-4.9688-7.6719-7.3438t-11.234-2.375q-8.3906 0-13.359 4.7188-4.9531 4.7188-4.9531 12.625 0 9.2188 6.1719 13.906 6.1875 4.6875 18.438 4.6875h12.609v0.89062q0 6.2031-4.0781 9.5938t-11.453 3.3906q-4.6875 0-9.1406-1.125-4.4375-1.125-8.5312-3.375v8.3125q4.9219 1.9062 9.5625 2.8438 4.6406 0.95312 9.0312 0.95312 11.875 0 17.734-6.1562 5.8594-6.1406 5.8594-18.641z"/>
<path id="j" d="m9.4219 75.984h8.9844v-75.984h-8.9844z"/>
</defs>
<use xlink:href="#e"/>
<use x="44.083984" xlink:href="#l"/>
<use x="105.607422" xlink:href="#g"/>
<use x="144.970703" xlink:href="#i"/>
<use x="242.382812" xlink:href="#k"/>
<use x="270.166016" xlink:href="#h"/>
<use x="333.544922" xlink:href="#f"/>
<use x="394.824219" xlink:href="#j"/>
</g>
</g>
<path d="m178.08 694.44v13.246q0 2.4 2.4 2.4h8q2.4 0 2.4-2.4v-13.246q0-2.4-2.4-2.4h-8q-2.4 0-2.4 2.4z" clip-path="url(#a)" fill="#fff" stroke="#fff"/>
<g clip-path="url(#a)">
<g transform="translate(182.36 694.44) rotate(90) scale(.08 -.08)">
<defs>
<path id="bc" d="m21 76.422v-100h-8.2969v100z"/>
<path id="af" d="m53.516 70.516v-9.625q-5.6094 2.6875-10.594 4-4.9844 1.3281-9.625 1.3281-8.0469 0-12.422-3.125t-4.375-8.8906q0-4.8438 2.9062-7.3125 2.9062-2.4531 11.016-3.9688l5.9531-1.2188q11.031-2.1094 16.281-7.4062t5.25-14.172q0-10.609-7.1094-16.078-7.0938-5.4688-20.812-5.4688-5.1719 0-11.016 1.1719-5.8281 1.1719-12.078 3.4688v10.156q6-3.3594 11.766-5.0781 5.7656-1.7031 11.328-1.7031 8.4375 0 13.031 3.3125 4.5938 3.3281 4.5938 9.4844 0 5.3594-3.2969 8.3906t-10.812 4.5469l-6.0156 1.1719q-11.031 2.1875-15.969 6.875-4.9219 4.6875-4.9219 13.047 0 9.6719 6.8125 15.234t18.766 5.5625q5.1406 0 10.453-0.9375 5.3281-0.92188 10.891-2.7656z"/>
</defs>
<use xlink:href="#t"/>
<use x="68.408203" xlink:href="#bc"/>
<use x="102.099609" xlink:href="#af"/>
</g>
</g>
<path d="m178.21 828.02v33.808q0 2.4 2.4 2.4h7.7425q2.4 0 2.4-2.4v-33.808q0-2.4-2.4-2.4h-7.7425q-2.4 0-2.4 2.4z" clip-path="url(#a)" fill="#fff" stroke="#fff"/>
<g clip-path="url(#a)">
<g transform="translate(182.27 828.02) rotate(90) scale(.08 -.08)">
<use xlink:href="#e"/>
<use x="44.083984" xlink:href="#l"/>
<use x="105.607422" xlink:href="#g"/>
<use x="144.970703" xlink:href="#i"/>
<use x="242.382812" xlink:href="#k"/>
<use x="270.166016" xlink:href="#h"/>
<use x="333.544922" xlink:href="#f"/>
<use x="394.824219" xlink:href="#j"/>
</g>
</g>
<path d="m76.638 828.02v33.808q0 2.4 2.4 2.4h7.7425q2.4 0 2.4-2.4v-33.808q0-2.4-2.4-2.4h-7.7425q-2.4 0-2.4 2.4z" clip-path="url(#a)" fill="#fff" stroke="#fff"/>
<g clip-path="url(#a)">
<g transform="translate(80.702 828.02) rotate(90) scale(.08 -.08)">
<use xlink:href="#e"/>
<use x="44.083984" xlink:href="#l"/>
<use x="105.607422" xlink:href="#g"/>
<use x="144.970703" xlink:href="#i"/>
<use x="242.382812" xlink:href="#k"/>
<use x="270.166016" xlink:href="#h"/>
<use x="333.544922" xlink:href="#f"/>
<use x="394.824219" xlink:href="#j"/>
</g>
</g>
<path d="m100.43 698.91 0.50352 5.4493q0.22082 2.3898 2.6106 2.169l7.7097-0.71238q2.3898-0.22082 2.169-2.6106l-0.50352-5.4493q-0.22082-2.3898-2.6106-2.169l-7.7097 0.71238q-2.3898 0.22082-2.169 2.6106z" clip-path="url(#a)" fill="#fff" stroke="#fff"/>
<g clip-path="url(#a)">
<g transform="translate(104.47 698.54) rotate(84.721) scale(.08 -.08)">
<use xlink:href="#t"/>
</g>
</g>
<path d="m93.96 698.65v4.8238q0 2.4 2.4 2.4h7.7425q2.4 0 2.4-2.4v-4.8238q0-2.4-2.4-2.4h-7.7425q-2.4 0-2.4 2.4z" clip-path="url(#a)" fill="#fff" stroke="#fff"/>
<g clip-path="url(#a)">
<g transform="translate(98.024 698.65) rotate(90) scale(.08 -.08)">
<use xlink:href="#aa"/>
</g>
</g>
<path d="m283.72 705.07 1.1626-5.3476q0.50988-2.3452-1.8353-2.8551l-7.5658-1.6449q-2.3452-0.50988-2.8551 1.8353l-1.1626 5.3476q-0.50988 2.3452 1.8353 2.8551l7.5658 1.6449q2.3452 0.50988 2.8551-1.8353z" clip-path="url(#a)" fill="#fff" stroke="#fff"/>
<g clip-path="url(#a)">
<g transform="translate(279.75 704.21) rotate(-77.734) scale(.08 -.08)">
<use xlink:href="#t"/>
</g>
</g>
<path d="m299.78 704.18 0.033482-6.1599q0.013044-2.4-2.3869-2.413l-7.7424-0.042082q-2.4-0.013045-2.413 2.3869l-0.033481 6.1599q-0.013045 2.4 2.3869 2.413l7.7424 0.042082q2.4 0.013045 2.413-2.3869z" clip-path="url(#a)" fill="#fff" stroke="#fff"/>
<g clip-path="url(#a)">
<g transform="translate(295.72 704.15) rotate(-89.689) scale(.08 -.08)">
<defs>
<path id="ag" d="m19.672 64.797v-56.688h11.922q15.094 0 22.094 6.8281 7 6.8438 7 21.594 0 14.641-7 21.453t-22.094 6.8125zm-9.8594 8.1094h20.266q21.188 0 31.094-8.8125 9.9219-8.8125 9.9219-27.562 0-18.859-9.9688-27.703-9.9531-8.8281-31.047-8.8281h-20.266z"/>
</defs>
<use xlink:href="#ag"/>
</g>
</g>
<path d="m303.39 699.95 1.1047 4.9572q0.52203 2.3425 2.8646 1.8205l7.5571-1.6841q2.3425-0.52203 1.8205-2.8646l-1.1047-4.9572q-0.52203-2.3425-2.8646-1.8205l-7.5571 1.6841q-2.3425 0.52203-1.8205 2.8646z" clip-path="url(#a)" fill="#fff" stroke="#fff"/>
<g clip-path="url(#a)">
<g transform="translate(307.36 699.06) rotate(77.437) scale(.08 -.08)">
<use xlink:href="#af"/>
</g>
</g>
<path d="m452.7 560.65 1.9853-5.0997q0.87068-2.2365-1.3658-3.1072l-7.215-2.8088q-2.2365-0.87068-3.1072 1.3658l-1.9853 5.0997q-0.87068 2.2365 1.3658 3.1072l7.215 2.8088q2.2365 0.87068 3.1072-1.3658z" clip-path="url(#a)" fill="#fff" stroke="#fff"/>
<g clip-path="url(#a)">
<g transform="translate(448.92 559.17) rotate(-68.729) scale(.08 -.08)">
<use xlink:href="#t"/>
</g>
</g>
<path d="m472.82 625.3 0.1252 6.1587q0.04878 2.3995 2.4483 2.3507l7.7409-0.15737q2.3995-0.04878 2.3507-2.4483l-0.1252-6.1587q-0.04878-2.3995-2.4483-2.3507l-7.7409 0.15737q-2.3995 0.04878-2.3507 2.4483z" clip-path="url(#a)" fill="#fff" stroke="#fff"/>
<g clip-path="url(#a)">
<g transform="translate(476.88 625.22) rotate(88.835) scale(.08 -.08)">
<use xlink:href="#ag"/>
</g>
</g>
<path d="m494.97 626.83 0.87466 5.0029q0.41333 2.3641 2.7775 1.9508l7.6268-1.3334q2.3641-0.41333 1.9508-2.7775l-0.87466-5.0029q-0.41333-2.3641-2.7775-1.9508l-7.6268 1.3334q-2.3641 0.41333-1.9508 2.7775z" clip-path="url(#a)" fill="#fff" stroke="#fff"/>
<g clip-path="url(#a)">
<g transform="translate(498.98 626.13) rotate(80.083) scale(.08 -.08)">
<use xlink:href="#af"/>
</g>
</g>
<path d="m617.55 828.02v33.808q0 2.4 2.4 2.4h7.7425q2.4 0 2.4-2.4v-33.808q0-2.4-2.4-2.4h-7.7425q-2.4 0-2.4 2.4z" clip-path="url(#a)" fill="#fff" stroke="#fff"/>
<g clip-path="url(#a)">
<g transform="translate(621.62 828.02) rotate(90) scale(.08 -.08)">
<use xlink:href="#e"/>
<use x="44.083984" xlink:href="#l"/>
<use x="105.607422" xlink:href="#g"/>
<use x="144.970703" xlink:href="#i"/>
<use x="242.382812" xlink:href="#k"/>
<use x="270.166016" xlink:href="#h"/>
<use x="333.544922" xlink:href="#f"/>
<use x="394.824219" xlink:href="#j"/>
</g>
</g>
<path d="m631.76 556.24 2.49 4.8732q1.092 2.1372 3.2292 1.0452l6.8946-3.5229q2.1372-1.092 1.0452-3.2292l-2.49-4.8732q-1.092-2.1372-3.2292-1.0452l-6.8946 3.5229q-2.1372 1.092-1.0452 3.2292z" clip-path="url(#a)" fill="#fff" stroke="#fff"/>
<g clip-path="url(#a)">
<g transform="translate(635.38 554.39) rotate(62.935) scale(.08 -.08)">
<use xlink:href="#t"/>
</g>
</g>
<path d="m569.63 632.27 1.2602-4.9199q0.59553-2.3249-1.7294-2.9205l-7.5004-1.9212q-2.3249-0.59553-2.9205 1.7294l-1.2602 4.9199q-0.59553 2.3249 1.7294 2.9205l7.5004 1.9212q2.3249 0.59553 2.9205-1.7294z" clip-path="url(#a)" fill="#fff" stroke="#fff"/>
<g clip-path="url(#a)">
<g transform="translate(565.69 631.26) rotate(-75.633) scale(.08 -.08)">
<use xlink:href="#af"/>
</g>
</g>
<path d="m782.9 828.02v33.808q0 2.4 2.4 2.4h7.7425q2.4 0 2.4-2.4v-33.808q0-2.4-2.4-2.4h-7.7425q-2.4 0-2.4 2.4z" clip-path="url(#a)" fill="#fff" stroke="#fff"/>
<g clip-path="url(#a)">
<g transform="translate(786.96 828.02) rotate(90) scale(.08 -.08)">
<use xlink:href="#e"/>
<use x="44.083984" xlink:href="#l"/>
<use x="105.607422" xlink:href="#g"/>
<use x="144.970703" xlink:href="#i"/>
<use x="242.382812" xlink:href="#k"/>
<use x="270.166016" xlink:href="#h"/>
<use x="333.544922" xlink:href="#f"/>
<use x="394.824219" xlink:href="#j"/>
</g>
</g>
<path d="m903.27 706.93 3.1722-4.4593q1.3912-1.9557-0.5645-3.3468l-6.3091-4.488q-1.9557-1.3912-3.3468 0.5645l-3.1722 4.4593q-1.3912 1.9557 0.5645 3.3468l6.3091 4.488q1.9557 1.3912 3.3468-0.5645z" clip-path="url(#a)" fill="#fff" stroke="#fff"/>
<g clip-path="url(#a)">
<g transform="translate(899.96 704.57) rotate(-54.574) scale(.08 -.08)">
<use xlink:href="#t"/>
</g>
</g>
<path d="m935.63 705.75 1.7015-5.9204q0.66291-2.3066-1.6437-2.9695l-7.4413-2.1386q-2.3066-0.66291-2.9695 1.6437l-1.7015 5.9204q-0.66291 2.3066 1.6437 2.9695l7.4413 2.1386q2.3066 0.66291 2.9695-1.6437z" clip-path="url(#a)" fill="#fff" stroke="#fff"/>
<g clip-path="url(#a)">
<g transform="translate(931.72 704.63) rotate(-73.966) scale(.08 -.08)">
<use xlink:href="#ag"/>
</g>
</g>
<path d="m955.68 698.97 0.93086 6.0893q0.36267 2.3724 2.7351 2.0098l7.6536-1.17q2.3724-0.36267 2.0098-2.7351l-0.93086-6.0893q-0.36267-2.3724-2.7351-2.0098l-7.6536 1.17q-2.3724 0.36267-2.0098 2.7351z" clip-path="url(#a)" fill="#fff" stroke="#fff"/>
<g clip-path="url(#a)">
<g transform="translate(959.69 698.35) rotate(81.309) scale(.08 -.08)">
<use xlink:href="#ag"/>
</g>
</g>
<path d="m1006.2 703.27 3.1153 3.6829q1.55 1.8324 3.3823 0.28241l5.9113-5.0003q1.8324-1.55 0.28241-3.3823l-3.1153-3.6829q-1.55-1.8324-3.3823-0.28241l-5.9113 5.0003q-1.8324 1.55-0.28241 3.3823z" clip-path="url(#a)" fill="#fff" stroke="#fff"/>
<g clip-path="url(#a)">
<g transform="translate(1009.3 700.65) rotate(49.773) scale(.08 -.08)">
<use xlink:href="#aa"/>
</g>
</g>
<path d="m1245.9 828.02v33.808q0 2.4 2.4 2.4h7.7425q2.4 0 2.4-2.4v-33.808q0-2.4-2.4-2.4h-7.7425q-2.4 0-2.4 2.4z" clip-path="url(#a)" fill="#fff" stroke="#fff"/>
<g clip-path="url(#a)">
<g transform="translate(1249.9 828.02) rotate(90) scale(.08 -.08)">
<use xlink:href="#e"/>
<use x="44.083984" xlink:href="#l"/>
<use x="105.607422" xlink:href="#g"/>
<use x="144.970703" xlink:href="#i"/>
<use x="242.382812" xlink:href="#k"/>
<use x="270.166016" xlink:href="#h"/>
<use x="333.544922" xlink:href="#f"/>
<use x="394.824219" xlink:href="#j"/>
</g>
</g>
<path d="m1490.4 707.58 4.1162-3.6062q1.8052-1.5815 0.22367-3.3867l-5.1021-5.8237q-1.5815-1.8052-3.3867-0.22367l-4.1162 3.6062q-1.8052 1.5815-0.22367 3.3867l5.1021 5.8237q1.5815 1.8052 3.3867 0.22367z" clip-path="url(#a)" fill="#fff" stroke="#fff"/>
<g clip-path="url(#a)">
<g transform="translate(1487.7 704.53) rotate(-41.222) scale(.08 -.08)">
<use xlink:href="#t"/>
</g>
</g>
<path d="m1532.4 706.89 3.1184-5.3123q1.215-2.0697-0.85476-3.2847l-6.6771-3.9196q-2.0697-1.215-3.2847 0.85476l-3.1184 5.3123q-1.215 2.0697 0.85476 3.2847l6.6771 3.9196q2.0697 1.215 3.2847-0.85476z" clip-path="url(#a)" fill="#fff" stroke="#fff"/>
<g clip-path="url(#a)">
<g transform="translate(1528.8 704.84) rotate(-59.586) scale(.08 -.08)">
<use xlink:href="#ag"/>
</g>
</g>
<path d="m1576.1 703.7 0.082803-5.0781q0.039129-2.3997-2.3606-2.4388l-7.7415-0.12623q-2.3997-0.039129-2.4388 2.3606l-0.082803 5.0781q-0.03913 2.3997 2.3606 2.4388l7.7415 0.12623q2.3997 0.039129 2.4388-2.3606z" clip-path="url(#a)" fill="#fff" stroke="#fff"/>
<g clip-path="url(#a)">
<g transform="translate(1572 703.64) rotate(-89.066) scale(.08 -.08)">
<use xlink:href="#af"/>
</g>
</g>
<path d="m1605.5 701.63 2.9021 5.0851q1.1896 2.0844 3.274 0.89482l6.7244-3.8377q2.0844-1.1896 0.89482-3.274l-2.9021-5.0851q-1.1896-2.0844-3.274-0.89482l-6.7244 3.8377q-2.0844 1.1896-0.89482 3.274z" clip-path="url(#a)" fill="#fff" stroke="#fff"/>
<g clip-path="url(#a)">
<g transform="translate(1609 699.61) rotate(60.286) scale(.08 -.08)">
<use xlink:href="#p"/>
</g>
</g>
<path d="m1649.8 703.94 4.4573 3.7965q1.8271 1.5562 3.3833-0.27084l5.0204-5.8942q1.5562-1.8271-0.27084-3.3833l-4.4573-3.7965q-1.8271-1.5562-3.3833 0.27084l-5.0204 5.8942q-1.5562 1.8271 0.27084 3.3833z" clip-path="url(#a)" fill="#fff" stroke="#fff"/>
<g clip-path="url(#a)">
<g transform="translate(1652.4 700.84) rotate(40.423) scale(.08 -.08)">
<use xlink:href="#p"/>
</g>
</g>
<path d="m1399.4 828.02v33.808q0 2.4 2.4 2.4h7.7425q2.4 0 2.4-2.4v-33.808q0-2.4-2.4-2.4h-7.7425q-2.4 0-2.4 2.4z" clip-path="url(#a)" fill="#fff" stroke="#fff"/>
<g clip-path="url(#a)">
<g transform="translate(1403.5 828.02) rotate(90) scale(.08 -.08)">
<use xlink:href="#e"/>
<use x="44.083984" xlink:href="#l"/>
<use x="105.607422" xlink:href="#g"/>
<use x="144.970703" xlink:href="#i"/>
<use x="242.382812" xlink:href="#k"/>
<use x="270.166016" xlink:href="#h"/>
<use x="333.544922" xlink:href="#f"/>
<use x="394.824219" xlink:href="#j"/>
</g>
</g>
<path d="m1479.7 828.02v33.808q0 2.4 2.4 2.4h7.7425q2.4 0 2.4-2.4v-33.808q0-2.4-2.4-2.4h-7.7425q-2.4 0-2.4 2.4z" clip-path="url(#a)" fill="#fff" stroke="#fff"/>
<g clip-path="url(#a)">
<g transform="translate(1483.8 828.02) rotate(90) scale(.08 -.08)">
<use xlink:href="#e"/>
<use x="44.083984" xlink:href="#l"/>
<use x="105.607422" xlink:href="#g"/>
<use x="144.970703" xlink:href="#i"/>
<use x="242.382812" xlink:href="#k"/>
<use x="270.166016" xlink:href="#h"/>
<use x="333.544922" xlink:href="#f"/>
<use x="394.824219" xlink:href="#j"/>
</g>
</g>
<path d="m1562.4 828.02v33.808q0 2.4 2.4 2.4h7.7425q2.4 0 2.4-2.4v-33.808q0-2.4-2.4-2.4h-7.7425q-2.4 0-2.4 2.4z" clip-path="url(#a)" fill="#fff" stroke="#fff"/>
<g clip-path="url(#a)">
<g transform="translate(1566.5 828.02) rotate(90) scale(.08 -.08)">
<use xlink:href="#e"/>
<use x="44.083984" xlink:href="#l"/>
<use x="105.607422" xlink:href="#g"/>
<use x="144.970703" xlink:href="#i"/>
<use x="242.382812" xlink:href="#k"/>
<use x="270.166016" xlink:href="#h"/>
<use x="333.544922" xlink:href="#f"/>
<use x="394.824219" xlink:href="#j"/>
</g>
</g>
<path d="m841.95 828.02v33.808q0 2.4 2.4 2.4h7.7425q2.4 0 2.4-2.4v-33.808q0-2.4-2.4-2.4h-7.7425q-2.4 0-2.4 2.4z" clip-path="url(#a)" fill="#fff" stroke="#fff"/>
<g clip-path="url(#a)">
<g transform="translate(846.02 828.02) rotate(90) scale(.08 -.08)">
<use xlink:href="#e"/>
<use x="44.083984" xlink:href="#l"/>
<use x="105.607422" xlink:href="#g"/>
<use x="144.970703" xlink:href="#i"/>
<use x="242.382812" xlink:href="#k"/>
<use x="270.166016" xlink:href="#h"/>
<use x="333.544922" xlink:href="#f"/>
<use x="394.824219" xlink:href="#j"/>
</g>
</g>
<path d="m903.37 828.02v33.808q0 2.4 2.4 2.4h7.7425q2.4 0 2.4-2.4v-33.808q0-2.4-2.4-2.4h-7.7425q-2.4 0-2.4 2.4z" clip-path="url(#a)" fill="#fff" stroke="#fff"/>
<g clip-path="url(#a)">
<g transform="translate(907.43 828.02) rotate(90) scale(.08 -.08)">
<use xlink:href="#e"/>
<use x="44.083984" xlink:href="#l"/>
<use x="105.607422" xlink:href="#g"/>
<use x="144.970703" xlink:href="#i"/>
<use x="242.382812" xlink:href="#k"/>
<use x="270.166016" xlink:href="#h"/>
<use x="333.544922" xlink:href="#f"/>
<use x="394.824219" xlink:href="#j"/>
</g>
</g>
<path d="m967.14 828.02v33.808q0 2.4 2.4 2.4h7.7425q2.4 0 2.4-2.4v-33.808q0-2.4-2.4-2.4h-7.7425q-2.4 0-2.4 2.4z" clip-path="url(#a)" fill="#fff" stroke="#fff"/>
<g clip-path="url(#a)">
<g transform="translate(971.21 828.02) rotate(90) scale(.08 -.08)">
<use xlink:href="#e"/>
<use x="44.083984" xlink:href="#l"/>
<use x="105.607422" xlink:href="#g"/>
<use x="144.970703" xlink:href="#i"/>
<use x="242.382812" xlink:href="#k"/>
<use x="270.166016" xlink:href="#h"/>
<use x="333.544922" xlink:href="#f"/>
<use x="394.824219" xlink:href="#j"/>
</g>
</g>
<path d="m1058.8 862.83 7.8813-32.876q0.55949-2.3339-1.7744-2.8934l-7.5292-1.8049q-2.3339-0.55949-2.8934 1.7744l-7.8813 32.876q-0.55949 2.3339 1.7744 2.8934l7.5292 1.8049q2.3339 0.55949 2.8934-1.7744z" clip-path="url(#a)" fill="#fff" stroke="#fff"/>
<g clip-path="url(#a)">
<g transform="translate(1054.9 861.88) rotate(-76.519) scale(.08 -.08)">
<use xlink:href="#e"/>
<use x="44.083984" xlink:href="#l"/>
<use x="105.607422" xlink:href="#g"/>
<use x="144.970703" xlink:href="#i"/>
<use x="242.382812" xlink:href="#k"/>
<use x="270.166016" xlink:href="#h"/>
<use x="333.544922" xlink:href="#f"/>
<use x="394.824219" xlink:href="#j"/>
</g>
</g>
<path d="m1080.9 829.95 7.8813 32.876q0.55949 2.3339 2.8934 1.7744l7.5292-1.8049q2.3339-0.55949 1.7744-2.8934l-7.8813-32.876q-0.55949-2.3339-2.8934-1.7744l-7.5292 1.8049q-2.3339 0.55949-1.7744 2.8934z" clip-path="url(#a)" fill="#fff" stroke="#fff"/>
<g clip-path="url(#a)">
<g transform="translate(1084.8 829) rotate(76.519) scale(.08 -.08)">
<use xlink:href="#e"/>
<use x="44.083984" xlink:href="#l"/>
<use x="105.607422" xlink:href="#g"/>
<use x="144.970703" xlink:href="#i"/>
<use x="242.382812" xlink:href="#k"/>
<use x="270.166016" xlink:href="#h"/>
<use x="333.544922" xlink:href="#f"/>
<use x="394.824219" xlink:href="#j"/>
</g>
</g>
<path d="m670.66 698.75 0.078646 4.8231q0.039129 2.3997 2.4388 2.3606l7.7415-0.12623q2.3997-0.039129 2.3606-2.4388l-0.078646-4.8231q-0.039129-2.3997-2.4388-2.3606l-7.7415 0.12623q-2.3997 0.039129-2.3606 2.4388z" clip-path="url(#a)" fill="#fff" stroke="#fff"/>
<g clip-path="url(#a)">
<g transform="translate(674.73 698.69) rotate(89.066) scale(.08 -.08)">
<use xlink:href="#aa"/>
</g>
</g>
<path d="m669.52 698.33v5.4725q0 2.4 2.4 2.4h7.7425q2.4 0 2.4-2.4v-5.4725q0-2.4-2.4-2.4h-7.7425q-2.4 0-2.4 2.4z" clip-path="url(#a)" fill="#fff" stroke="#fff"/>
<g clip-path="url(#a)">
<g transform="translate(673.58 698.33) rotate(90) scale(.08 -.08)">
<use xlink:href="#t"/>
</g>
</g>
<path d="m669.52 828.02v33.808q0 2.4 2.4 2.4h7.7425q2.4 0 2.4-2.4v-33.808q0-2.4-2.4-2.4h-7.7425q-2.4 0-2.4 2.4z" clip-path="url(#a)" fill="#fff" stroke="#fff"/>
<g clip-path="url(#a)">
<g transform="translate(673.58 828.02) rotate(90) scale(.08 -.08)">
<use xlink:href="#e"/>
<use x="44.083984" xlink:href="#l"/>
<use x="105.607422" xlink:href="#g"/>
<use x="144.970703" xlink:href="#i"/>
<use x="242.382812" xlink:href="#k"/>
<use x="270.166016" xlink:href="#h"/>
<use x="333.544922" xlink:href="#f"/>
<use x="394.824219" xlink:href="#j"/>
</g>
</g>
<path d="m413.23 698.65v4.8238q0 2.4 2.4 2.4h7.7425q2.4 0 2.4-2.4v-4.8238q0-2.4-2.4-2.4h-7.7425q-2.4 0-2.4 2.4z" clip-path="url(#a)" fill="#fff" stroke="#fff"/>
<g clip-path="url(#a)">
<g transform="translate(417.3 698.65) rotate(90) scale(.08 -.08)">
<use xlink:href="#aa"/>
</g>
</g>
<path d="m475.83 828.02v33.808q0 2.4 2.4 2.4h7.7425q2.4 0 2.4-2.4v-33.808q0-2.4-2.4-2.4h-7.7425q-2.4 0-2.4 2.4z" clip-path="url(#a)" fill="#fff" stroke="#fff"/>
<g clip-path="url(#a)">
<g transform="translate(479.89 828.02) rotate(90) scale(.08 -.08)">
<use xlink:href="#e"/>
<use x="44.083984" xlink:href="#l"/>
<use x="105.607422" xlink:href="#g"/>
<use x="144.970703" xlink:href="#i"/>
<use x="242.382812" xlink:href="#k"/>
<use x="270.166016" xlink:href="#h"/>
<use x="333.544922" xlink:href="#f"/>
<use x="394.824219" xlink:href="#j"/>
</g>
</g>
<path d="m520.71 828.02v33.808q0 2.4 2.4 2.4h7.7425q2.4 0 2.4-2.4v-33.808q0-2.4-2.4-2.4h-7.7425q-2.4 0-2.4 2.4z" clip-path="url(#a)" fill="#fff" stroke="#fff"/>
<g clip-path="url(#a)">
<g transform="translate(524.77 828.02) rotate(90) scale(.08 -.08)">
<use xlink:href="#e"/>
<use x="44.083984" xlink:href="#l"/>
<use x="105.607422" xlink:href="#g"/>
<use x="144.970703" xlink:href="#i"/>
<use x="242.382812" xlink:href="#k"/>
<use x="270.166016" xlink:href="#h"/>
<use x="333.544922" xlink:href="#f"/>
<use x="394.824219" xlink:href="#j"/>
</g>
</g>
<path d="m413.32 862.54 4.7047-33.479q0.33399-2.3766-2.0427-2.7106l-7.6672-1.0775q-2.3766-0.33399-2.7106 2.0427l-4.7047 33.479q-0.33399 2.3766 2.0427 2.7106l7.6672 1.0775q2.3766 0.33399 2.7106-2.0427z" clip-path="url(#a)" fill="#fff" stroke="#fff"/>
<g clip-path="url(#a)">
<g transform="translate(409.3 861.97) rotate(-82.001) scale(.08 -.08)">
<use xlink:href="#e"/>
<use x="44.083984" xlink:href="#l"/>
<use x="105.607422" xlink:href="#g"/>
<use x="144.970703" xlink:href="#i"/>
<use x="242.382812" xlink:href="#k"/>
<use x="270.166016" xlink:href="#h"/>
<use x="333.544922" xlink:href="#f"/>
<use x="394.824219" xlink:href="#j"/>
</g>
</g>
<path d="m420.98 829.06 4.7047 33.479q0.33399 2.3766 2.7106 2.0427l7.6672-1.0775q2.3766-0.33399 2.0427-2.7106l-4.7047-33.479q-0.33399-2.3766-2.7106-2.0427l-7.6672 1.0775q-2.3766 0.33399-2.0427 2.7106z" clip-path="url(#a)" fill="#fff" stroke="#fff"/>
<g clip-path="url(#a)">
<g transform="translate(425.01 828.5) rotate(82.001) scale(.08 -.08)">
<use xlink:href="#e"/>
<use x="44.083984" xlink:href="#l"/>
<use x="105.607422" xlink:href="#g"/>
<use x="144.970703" xlink:href="#i"/>
<use x="242.382812" xlink:href="#k"/>
<use x="270.166016" xlink:href="#h"/>
<use x="333.544922" xlink:href="#f"/>
<use x="394.824219" xlink:href="#j"/>
</g>
</g>
<path d="m256.16 828.02v33.808q0 2.4 2.4 2.4h7.7425q2.4 0 2.4-2.4v-33.808q0-2.4-2.4-2.4h-7.7425q-2.4 0-2.4 2.4z" clip-path="url(#a)" fill="#fff" stroke="#fff"/>
<g clip-path="url(#a)">
<g transform="translate(260.22 828.02) rotate(90) scale(.08 -.08)">
<use xlink:href="#e"/>
<use x="44.083984" xlink:href="#l"/>
<use x="105.607422" xlink:href="#g"/>
<use x="144.970703" xlink:href="#i"/>
<use x="242.382812" xlink:href="#k"/>
<use x="270.166016" xlink:href="#h"/>
<use x="333.544922" xlink:href="#f"/>
<use x="394.824219" xlink:href="#j"/>
</g>
</g>
<path d="m286.86 828.02v33.808q0 2.4 2.4 2.4h7.7425q2.4 0 2.4-2.4v-33.808q0-2.4-2.4-2.4h-7.7425q-2.4 0-2.4 2.4z" clip-path="url(#a)" fill="#fff" stroke="#fff"/>
<g clip-path="url(#a)">
<g transform="translate(290.93 828.02) rotate(90) scale(.08 -.08)">
<use xlink:href="#e"/>
<use x="44.083984" xlink:href="#l"/>
<use x="105.607422" xlink:href="#g"/>
<use x="144.970703" xlink:href="#i"/>
<use x="242.382812" xlink:href="#k"/>
<use x="270.166016" xlink:href="#h"/>
<use x="333.544922" xlink:href="#f"/>
<use x="394.824219" xlink:href="#j"/>
</g>
</g>
<path d="m319.93 828.02v33.808q0 2.4 2.4 2.4h7.7425q2.4 0 2.4-2.4v-33.808q0-2.4-2.4-2.4h-7.7425q-2.4 0-2.4 2.4z" clip-path="url(#a)" fill="#fff" stroke="#fff"/>
<g clip-path="url(#a)">
<g transform="translate(324 828.02) rotate(90) scale(.08 -.08)">
<use xlink:href="#e"/>
<use x="44.083984" xlink:href="#l"/>
<use x="105.607422" xlink:href="#g"/>
<use x="144.970703" xlink:href="#i"/>
<use x="242.382812" xlink:href="#k"/>
<use x="270.166016" xlink:href="#h"/>
<use x="333.544922" xlink:href="#f"/>
<use x="394.824219" xlink:href="#j"/>
</g>
</g>
<path d="m100.16 862.24 2.4159-33.721q0.1715-2.3939-2.2224-2.5654l-7.7227-0.55328q-2.3939-0.1715-2.5654 2.2224l-2.4159 33.721q-0.1715 2.3939 2.2224 2.5654l7.7227 0.55328q2.3939 0.1715 2.5654-2.2224z" clip-path="url(#a)" fill="#fff" stroke="#fff"/>
<g clip-path="url(#a)">
<g transform="translate(96.107 861.95) rotate(-85.902) scale(.08 -.08)">
<use xlink:href="#e"/>
<use x="44.083984" xlink:href="#l"/>
<use x="105.607422" xlink:href="#g"/>
<use x="144.970703" xlink:href="#i"/>
<use x="242.382812" xlink:href="#k"/>
<use x="270.166016" xlink:href="#h"/>
<use x="333.544922" xlink:href="#f"/>
<use x="394.824219" xlink:href="#j"/>
</g>
</g>
<path d="m106.02 861.87 0.18631-33.807q0.013226-2.4-2.3867-2.4132l-7.7424-0.042668q-2.4-0.013226-2.4132 2.3867l-0.18631 33.807q-0.013226 2.4 2.3867 2.4132l7.7424 0.042668q2.4 0.013226 2.4132-2.3867z" clip-path="url(#a)" fill="#fff" stroke="#fff"/>
<g clip-path="url(#a)">
<g transform="translate(101.95 861.84) rotate(-89.684) scale(.08 -.08)">
<use xlink:href="#e"/>
<use x="44.083984" xlink:href="#l"/>
<use x="105.607422" xlink:href="#g"/>
<use x="144.970703" xlink:href="#i"/>
<use x="242.382812" xlink:href="#k"/>
<use x="270.166016" xlink:href="#h"/>
<use x="333.544922" xlink:href="#f"/>
<use x="394.824219" xlink:href="#j"/>
</g>
</g>
<path d="m98.19 828.56 2.6006 33.707q0.18462 2.3929 2.5775 2.2083l7.7196-0.59559q2.3929-0.18462 2.2083-2.5775l-2.6006-33.707q-0.18462-2.3929-2.5775-2.2083l-7.7196 0.59559q-2.3929 0.18462-2.2083 2.5775z" clip-path="url(#a)" fill="#fff" stroke="#fff"/>
<g clip-path="url(#a)">
<g transform="translate(102.24 828.24) rotate(85.588) scale(.08 -.08)">
<use xlink:href="#e"/>
<use x="44.083984" xlink:href="#l"/>
<use x="105.607422" xlink:href="#g"/>
<use x="144.970703" xlink:href="#i"/>
<use x="242.382812" xlink:href="#k"/>
<use x="270.166016" xlink:href="#h"/>
<use x="333.544922" xlink:href="#f"/>
<use x="394.824219" xlink:href="#j"/>
</g>
</g>
<path d="m121.52 828.02v33.808q0 2.4 2.4 2.4h7.7425q2.4 0 2.4-2.4v-33.808q0-2.4-2.4-2.4h-7.7425q-2.4 0-2.4 2.4z" clip-path="url(#a)" fill="#fff" stroke="#fff"/>
<g clip-path="url(#a)">
<g transform="translate(125.58 828.02) rotate(90) scale(.08 -.08)">
<use xlink:href="#e"/>
<use x="44.083984" xlink:href="#l"/>
<use x="105.607422" xlink:href="#g"/>
<use x="144.970703" xlink:href="#i"/>
<use x="242.382812" xlink:href="#k"/>
<use x="270.166016" xlink:href="#h"/>
<use x="333.544922" xlink:href="#f"/>
<use x="394.824219" xlink:href="#j"/>
</g>
</g>
<path d="m138.05 828.02v33.808q0 2.4 2.4 2.4h7.7425q2.4 0 2.4-2.4v-33.808q0-2.4-2.4-2.4h-7.7425q-2.4 0-2.4 2.4z" clip-path="url(#a)" fill="#fff" stroke="#fff"/>
<g clip-path="url(#a)">
<g transform="translate(142.12 828.02) rotate(90) scale(.08 -.08)">
<use xlink:href="#e"/>
<use x="44.083984" xlink:href="#l"/>
<use x="105.607422" xlink:href="#g"/>
<use x="144.970703" xlink:href="#i"/>
<use x="242.382812" xlink:href="#k"/>
<use x="270.166016" xlink:href="#h"/>
<use x="333.544922" xlink:href="#f"/>
<use x="394.824219" xlink:href="#j"/>
</g>
</g>
<path d="m201.83 828.02v33.808q0 2.4 2.4 2.4h7.7425q2.4 0 2.4-2.4v-33.808q0-2.4-2.4-2.4h-7.7425q-2.4 0-2.4 2.4z" clip-path="url(#a)" fill="#fff" stroke="#fff"/>
<g clip-path="url(#a)">
<g transform="translate(205.89 828.02) rotate(90) scale(.08 -.08)">
<use xlink:href="#e"/>
<use x="44.083984" xlink:href="#l"/>
<use x="105.607422" xlink:href="#g"/>
<use x="144.970703" xlink:href="#i"/>
<use x="242.382812" xlink:href="#k"/>
<use x="270.166016" xlink:href="#h"/>
<use x="333.544922" xlink:href="#f"/>
<use x="394.824219" xlink:href="#j"/>
</g>
</g>
<path d="m227.81 828.02v33.808q0 2.4 2.4 2.4h7.7425q2.4 0 2.4-2.4v-33.808q0-2.4-2.4-2.4h-7.7425q-2.4 0-2.4 2.4z" clip-path="url(#a)" fill="#fff" stroke="#fff"/>
<g clip-path="url(#a)">
<g transform="translate(231.87 828.02) rotate(90) scale(.08 -.08)">
<use xlink:href="#e"/>
<use x="44.083984" xlink:href="#l"/>
<use x="105.607422" xlink:href="#g"/>
<use x="144.970703" xlink:href="#i"/>
<use x="242.382812" xlink:href="#k"/>
<use x="270.166016" xlink:href="#h"/>
<use x="333.544922" xlink:href="#f"/>
<use x="394.824219" xlink:href="#j"/>
</g>
</g>
<path d="m355.36 828.02v33.808q0 2.4 2.4 2.4h7.7425q2.4 0 2.4-2.4v-33.808q0-2.4-2.4-2.4h-7.7425q-2.4 0-2.4 2.4z" clip-path="url(#a)" fill="#fff" stroke="#fff"/>
<g clip-path="url(#a)">
<g transform="translate(359.43 828.02) rotate(90) scale(.08 -.08)">
<use xlink:href="#e"/>
<use x="44.083984" xlink:href="#l"/>
<use x="105.607422" xlink:href="#g"/>
<use x="144.970703" xlink:href="#i"/>
<use x="242.382812" xlink:href="#k"/>
<use x="270.166016" xlink:href="#h"/>
<use x="333.544922" xlink:href="#f"/>
<use x="394.824219" xlink:href="#j"/>
</g>
</g>
<path d="m567.95 828.02v33.808q0 2.4 2.4 2.4h7.7425q2.4 0 2.4-2.4v-33.808q0-2.4-2.4-2.4h-7.7425q-2.4 0-2.4 2.4z" clip-path="url(#a)" fill="#fff" stroke="#fff"/>
<g clip-path="url(#a)">
<g transform="translate(572.01 828.02) rotate(90) scale(.08 -.08)">
<use xlink:href="#e"/>
<use x="44.083984" xlink:href="#l"/>
<use x="105.607422" xlink:href="#g"/>
<use x="144.970703" xlink:href="#i"/>
<use x="242.382812" xlink:href="#k"/>
<use x="270.166016" xlink:href="#h"/>
<use x="333.544922" xlink:href="#f"/>
<use x="394.824219" xlink:href="#j"/>
</g>
</g>
<path d="m726.21 828.02v33.808q0 2.4 2.4 2.4h7.7425q2.4 0 2.4-2.4v-33.808q0-2.4-2.4-2.4h-7.7425q-2.4 0-2.4 2.4z" clip-path="url(#a)" fill="#fff" stroke="#fff"/>
<g clip-path="url(#a)">
<g transform="translate(730.27 828.02) rotate(90) scale(.08 -.08)">
<use xlink:href="#e"/>
<use x="44.083984" xlink:href="#l"/>
<use x="105.607422" xlink:href="#g"/>
<use x="144.970703" xlink:href="#i"/>
<use x="242.382812" xlink:href="#k"/>
<use x="270.166016" xlink:href="#h"/>
<use x="333.544922" xlink:href="#f"/>
<use x="394.824219" xlink:href="#j"/>
</g>
</g>
<path d="m1172.6 828.02v33.808q0 2.4 2.4 2.4h7.7425q2.4 0 2.4-2.4v-33.808q0-2.4-2.4-2.4h-7.7425q-2.4 0-2.4 2.4z" clip-path="url(#a)" fill="#fff" stroke="#fff"/>
<g clip-path="url(#a)">
<g transform="translate(1176.7 828.02) rotate(90) scale(.08 -.08)">
<use xlink:href="#e"/>
<use x="44.083984" xlink:href="#l"/>
<use x="105.607422" xlink:href="#g"/>
<use x="144.970703" xlink:href="#i"/>
<use x="242.382812" xlink:href="#k"/>
<use x="270.166016" xlink:href="#h"/>
<use x="333.544922" xlink:href="#f"/>
<use x="394.824219" xlink:href="#j"/>
</g>
</g>
<path d="m1321.5 828.02v33.808q0 2.4 2.4 2.4h7.7425q2.4 0 2.4-2.4v-33.808q0-2.4-2.4-2.4h-7.7425q-2.4 0-2.4 2.4z" clip-path="url(#a)" fill="#fff" stroke="#fff"/>
<g clip-path="url(#a)">
<g transform="translate(1325.5 828.02) rotate(90) scale(.08 -.08)">
<use xlink:href="#e"/>
<use x="44.083984" xlink:href="#l"/>
<use x="105.607422" xlink:href="#g"/>
<use x="144.970703" xlink:href="#i"/>
<use x="242.382812" xlink:href="#k"/>
<use x="270.166016" xlink:href="#h"/>
<use x="333.544922" xlink:href="#f"/>
<use x="394.824219" xlink:href="#j"/>
</g>
</g>
<path d="m1647.4 828.02v33.808q0 2.4 2.4 2.4h7.7425q2.4 0 2.4-2.4v-33.808q0-2.4-2.4-2.4h-7.7425q-2.4 0-2.4 2.4z" clip-path="url(#a)" fill="#fff" stroke="#fff"/>
<g clip-path="url(#a)">
<g transform="translate(1651.5 828.02) rotate(90) scale(.08 -.08)">
<use xlink:href="#e"/>
<use x="44.083984" xlink:href="#l"/>
<use x="105.607422" xlink:href="#g"/>
<use x="144.970703" xlink:href="#i"/>
<use x="242.382812" xlink:href="#k"/>
<use x="270.166016" xlink:href="#h"/>
<use x="333.544922" xlink:href="#f"/>
<use x="394.824219" xlink:href="#j"/>
</g>
</g>
<path d="m1734.8 828.02v33.808q0 2.4 2.4 2.4h7.7425q2.4 0 2.4-2.4v-33.808q0-2.4-2.4-2.4h-7.7425q-2.4 0-2.4 2.4z" clip-path="url(#a)" fill="#fff" stroke="#fff"/>
<g clip-path="url(#a)">
<g transform="translate(1738.9 828.02) rotate(90) scale(.08 -.08)">
<use xlink:href="#e"/>
<use x="44.083984" xlink:href="#l"/>
<use x="105.607422" xlink:href="#g"/>
<use x="144.970703" xlink:href="#i"/>
<use x="242.382812" xlink:href="#k"/>
<use x="270.166016" xlink:href="#h"/>
<use x="333.544922" xlink:href="#f"/>
<use x="394.824219" xlink:href="#j"/>
</g>
</g>
<defs>
<path id="b" d="m0 8.6603c2.2967 0 4.4997-0.9125 6.1237-2.5365 1.624-1.624 2.5365-3.827 2.5365-6.1237s-0.9125-4.4997-2.5365-6.1237c-1.624-1.624-3.827-2.5365-6.1237-2.5365s-4.4997 0.9125-6.1237 2.5365c-1.624 1.624-2.5365 3.827-2.5365 6.1237s0.9125 4.4997 2.5365 6.1237c1.624 1.624 3.827 2.5365 6.1237 2.5365z"/>
</defs>
<g clip-path="url(#a)" fill="#ffffff" stroke="#ffffff">
<use x="82.909091" y="916.363636" xlink:href="#b"/>
<use x="89.995338" y="916.363636" xlink:href="#b"/>
<use x="99.443667" y="916.363636" xlink:href="#b"/>
<use x="111.254079" y="916.363636" xlink:href="#b"/>
<use x="127.788656" y="916.363636" xlink:href="#b"/>
<use x="144.323232" y="916.363636" xlink:href="#b"/>
<use x="163.219891" y="916.363636" xlink:href="#b"/>
<use x="184.478632" y="916.363636" xlink:href="#b"/>
<use x="208.099456" y="916.363636" xlink:href="#b"/>
<use x="234.082362" y="916.363636" xlink:href="#b"/>
<use x="262.42735" y="916.363636" xlink:href="#b"/>
<use x="293.134421" y="916.363636" xlink:href="#b"/>
<use x="326.203574" y="916.363636" xlink:href="#b"/>
<use x="361.63481" y="916.363636" xlink:href="#b"/>
<use x="399.428127" y="916.363636" xlink:href="#b"/>
<use x="439.583528" y="916.363636" xlink:href="#b"/>
<use x="482.10101" y="916.363636" xlink:href="#b"/>
<use x="526.980575" y="916.363636" xlink:href="#b"/>
<use x="574.222222" y="916.363636" xlink:href="#b"/>
<use x="623.825952" y="916.363636" xlink:href="#b"/>
<use x="675.791764" y="916.363636" xlink:href="#b"/>
<use x="732.48174" y="916.363636" xlink:href="#b"/>
<use x="789.171717" y="916.363636" xlink:href="#b"/>
<use x="848.223776" y="916.363636" xlink:href="#b"/>
<use x="909.637918" y="916.363636" xlink:href="#b"/>
<use x="973.414141" y="916.363636" xlink:href="#b"/>
<use x="1039.552448" y="916.363636" xlink:href="#b"/>
<use x="1108.052836" y="916.363636" xlink:href="#b"/>
<use x="1178.915307" y="916.363636" xlink:href="#b"/>
<use x="1252.13986" y="916.363636" xlink:href="#b"/>
<use x="1327.726496" y="916.363636" xlink:href="#b"/>
<use x="1405.675214" y="916.363636" xlink:href="#b"/>
<use x="1485.986014" y="916.363636" xlink:href="#b"/>
<use x="1568.658897" y="916.363636" xlink:href="#b"/>
<use x="1653.693862" y="916.363636" xlink:href="#b"/>
<use x="1741.090909" y="916.363636" xlink:href="#b"/>
<use x="678.153846" y="773.492077" xlink:href="#b"/>
<use x="113.616162" y="773.492077" xlink:href="#b"/>
<use x="255.685105" y="43.636364" xlink:href="#b"/>
<use x="255.685105" y="190.415676" xlink:href="#b"/>
<use x="727.803505" y="336.899748" xlink:href="#b"/>
<use x="163.219891" y="773.492077" xlink:href="#b"/>
<use x="184.478632" y="628.633017" xlink:href="#b"/>
<use x="184.478632" y="773.492077" xlink:href="#b"/>
<use x="82.909091" y="773.492077" xlink:href="#b"/>
<use x="100.231028" y="628.633017" xlink:href="#b"/>
<use x="293.921782" y="628.633017" xlink:href="#b"/>
<use x="476.195804" y="483.014184" xlink:href="#b"/>
<use x="623.825952" y="773.492077" xlink:href="#b"/>
<use x="601.386169" y="483.014184" xlink:href="#b"/>
<use x="789.171717" y="773.492077" xlink:href="#b"/>
<use x="951.269619" y="628.633017" xlink:href="#b"/>
<use x="1252.13986" y="773.492077" xlink:href="#b"/>
<use x="1571.020979" y="628.633017" xlink:href="#b"/>
<use x="1405.675214" y="773.492077" xlink:href="#b"/>
<use x="1485.986014" y="773.492077" xlink:href="#b"/>
<use x="1568.658897" y="773.492077" xlink:href="#b"/>
<use x="848.223776" y="773.492077" xlink:href="#b"/>
<use x="909.637918" y="773.492077" xlink:href="#b"/>
<use x="973.414141" y="773.492077" xlink:href="#b"/>
<use x="1073.802642" y="773.492077" xlink:href="#b"/>
<use x="675.791764" y="628.633017" xlink:href="#b"/>
<use x="675.791764" y="773.492077" xlink:href="#b"/>
<use x="419.505828" y="628.633017" xlink:href="#b"/>
<use x="482.10101" y="773.492077" xlink:href="#b"/>
<use x="526.980575" y="773.492077" xlink:href="#b"/>
<use x="419.505828" y="773.492077" xlink:href="#b"/>
<use x="262.42735" y="773.492077" xlink:href="#b"/>
<use x="293.134421" y="773.492077" xlink:href="#b"/>
<use x="326.203574" y="773.492077" xlink:href="#b"/>
<use x="100.231028" y="773.492077" xlink:href="#b"/>
<use x="127.788656" y="773.492077" xlink:href="#b"/>
<use x="144.323232" y="773.492077" xlink:href="#b"/>
<use x="208.099456" y="773.492077" xlink:href="#b"/>
<use x="234.082362" y="773.492077" xlink:href="#b"/>
<use x="361.63481" y="773.492077" xlink:href="#b"/>
<use x="574.222222" y="773.492077" xlink:href="#b"/>
<use x="732.48174" y="773.492077" xlink:href="#b"/>
<use x="1178.915307" y="773.492077" xlink:href="#b"/>
<use x="1327.726496" y="773.492077" xlink:href="#b"/>
<use x="1653.693862" y="773.492077" xlink:href="#b"/>
<use x="1741.090909" y="773.492077" xlink:href="#b"/>
</g>
<g clip-path="url(#a)">
<g transform="translate(67.647 919.12) scale(.1 -.1)">
<defs>
<path id="bh" d="m-0.29688 72.906h61.672v-8.3125h-25.875v-64.594h-9.9062v64.594h-25.891z"/>
<path id="y" d="m30.609 48.391q-7.2188 0-11.422-5.6406t-4.2031-15.453 4.1719-15.453q4.1875-5.6406 11.453-5.6406 7.1875 0 11.375 5.6562 4.2031 5.6719 4.2031 15.438 0 9.7188-4.2031 15.406-4.1875 5.6875-11.375 5.6875zm0 7.6094q11.719 0 18.406-7.625 6.7031-7.6094 6.7031-21.078 0-13.422-6.7031-21.078-6.6875-7.6406-18.406-7.6406-11.766 0-18.438 7.6406-6.6562 7.6562-6.6562 21.078 0 13.469 6.6562 21.078 6.6719 7.625 18.438 7.625z"/>
<path id="bb" d="m9.0781 0v54.688h38.578v-7.1719h-29.547v-47.516z"/>
<path id="x" d="m21.625 7.1719h26.078v40.344h-18.891v-6.8438q0-20.109-5.7656-30.859zm-13.031 0q4.4375 1.9531 6.3906 6.1094 4.7969 10.297 4.7969 31.062v10.344h36.953v-47.516h7.1875v-20.984h-7.1875v13.812h-44.328v-13.812h-7.1875v20.984z"/>
<path id="z" d="m34.281 27.484q-10.891 0-15.094-2.4844t-4.2031-8.5q0-4.7812 3.1562-7.5938 3.1562-2.7969 8.5625-2.7969 7.4844 0 12 5.2969t4.5156 14.078v2zm17.922 3.7188v-31.203h-8.9844v8.2969q-3.0781-4.9688-7.6719-7.3438t-11.234-2.375q-8.3906 0-13.359 4.7188-4.9531 4.7188-4.9531 12.625 0 9.2188 6.1719 13.906 6.1875 4.6875 18.438 4.6875h12.609v0.89062q0 6.2031-4.0781 9.5938t-11.453 3.3906q-4.6875 0-9.1406-1.125-4.4375-1.125-8.5312-3.375v8.3125q4.9219 1.9062 9.5625 2.8438 4.6406 0.95312 9.0312 0.95312 11.875 0 17.734-6.1562 5.8594-6.1406 5.8594-18.641z"/>
</defs>
<use xlink:href="#bh"/>
<use x="61.083984" xlink:href="#y"/>
<use x="122.265625" xlink:href="#bb"/>
<use x="174.804688" xlink:href="#x"/>
<use x="243.945312" xlink:href="#z"/>
</g>
</g>
<g clip-path="url(#a)">
<g transform="translate(77.58 919.12) scale(.1 -.1)">
<defs>
<path id="r" d="m48.781 52.594v-8.4062q-3.8125 2.1094-7.6406 3.1562t-7.7344 1.0469q-8.75 0-13.594-5.5469-4.8281-5.5312-4.8281-15.547t4.8281-15.562q4.8438-5.5312 13.594-5.5312 3.9062 0 7.7344 1.0469t7.6406 3.1562v-8.3125q-3.7656-1.75-7.7969-2.625-4.0156-0.89062-8.5625-0.89062-12.359 0-19.641 7.7656-7.2656 7.7656-7.2656 20.953 0 13.375 7.3438 21.031 7.3594 7.6719 20.156 7.6719 4.1406 0 8.0938-0.85938 3.9531-0.84375 7.6719-2.5469z"/>
<path id="u" d="m32.172-5.0781q-3.7969-9.7656-7.4219-12.734-3.6094-2.9844-9.6562-2.9844h-7.1875v7.5156h5.2812q3.7031 0 5.75 1.7656 2.0625 1.75 4.5469 8.2969l1.6094 4.0938-22.109 53.812h9.5156l17.094-42.766 17.094 42.766h9.5156z"/>
<path id="w" d="m55.906 54.688v-54.688h-8.9375v43.891l-26.359-43.891h-11.531v54.688h8.9375v-43.797l26.328 43.797z"/>
</defs>
<use xlink:href="#r"/>
<use x="54.980469" xlink:href="#u"/>
<use x="114.160156" xlink:href="#x"/>
<use x="183.300781" xlink:href="#w"/>
</g>
</g>
<g clip-path="url(#a)">
<g transform="translate(89.859 919.12) scale(.1 -.1)">
<defs>
<path id="ak" d="m9.0781 54.688h13.141l15.531-36.625 15.578 36.625h13.031v-54.688h-9.0312v46.094l-15.094-35.594h-8.9844l-15.141 35.594v-46.094h-9.0312z"/>
</defs>
<use xlink:href="#r"/>
<use x="54.980469" xlink:href="#z"/>
<use x="116.259766" xlink:href="#ak"/>
</g>
</g>
<g clip-path="url(#a)">
<g transform="translate(99.337 919.12) scale(.1 -.1)">
<defs>
<path id="s" d="m56.203 29.594v-4.3906h-41.312q0.59375-9.2812 5.5938-14.141t13.938-4.8594q5.1719 0 10.031 1.2656t9.6562 3.8125v-8.5q-4.8438-2.0469-9.9219-3.125t-10.297-1.0781q-13.094 0-20.734 7.6094-7.6406 7.625-7.6406 20.625 0 13.422 7.25 21.297 7.25 7.8906 19.562 7.8906 11.031 0 17.453-7.1094 6.4219-7.0938 6.4219-19.297zm-8.9844 2.6406q-0.09375 7.3594-4.125 11.75-4.0312 4.4062-10.672 4.4062-7.5156 0-12.031-4.25t-5.2031-11.969z"/>
<path id="au" d="m31.109 56q11.719 0 18.406-7.625 6.6875-7.6094 6.6875-21.078 0-13.422-6.6875-21.078-6.6875-7.6406-18.406-7.6406-11.766 0-18.266 7.4219t-6.8438 21.297l-0.28125 11.188q-0.25 5.7969-0.25 7.8125 0 7.8125 2.8281 13.562 4.4531 9.0312 12.141 12.938t20.578 4.0156q5.9531 0.046875 8.5938 0.875l2.4844-7.125q-2.3906-0.98438-4.5781-1.0312l-12.219-0.82812q-6.1406-0.4375-9.8594-2.5938-9.7188-5.7031-10.641-13.172l-0.34375-2.7344q6.3438 5.7969 16.656 5.7969zm0-7.6094q-7.2344 0-11.438-5.6406-4.1875-5.6406-4.1875-15.453t4.1719-15.453 11.453-5.6406q7.1719 0 11.375 5.6562 4.2031 5.6719 4.2031 15.438 0 9.7188-4.2031 15.406t-11.375 5.6875z"/>
<path id="as" d="m18.453 38.922q0-4.0625 3.125-6.3594 3.125-2.2812 8.9375-2.2812h12.109v17.234h-12.109q-5.8125 0-8.9375-2.25t-3.125-6.3438zm-12.781-38.922 16.688 23.969q-5.6562 1.2812-9.4219 4.625-3.75 3.3438-3.75 10.328 0 7.9062 5.2344 11.828 5.25 3.9375 15.859 3.9375h21.375v-54.688h-9.0312v23.094h-11.172l-16.125-23.094z"/>
</defs>
<use xlink:href="#r"/>
<use x="54.980469" xlink:href="#s"/>
<use x="116.503906" xlink:href="#au"/>
<use x="178.173828" xlink:href="#as"/>
</g>
</g>
<g clip-path="url(#a)">
<g transform="translate(126.2 919.12) scale(.1 -.1)">
<defs>
<path id="ap" d="m11.719 12.406h10.297v-8.4062l-8-15.625h-6.2969l4 15.625z"/>
</defs>
<use xlink:href="#ap"/>
</g>
</g>
<g clip-path="url(#a)">
<g transform="translate(142.52 919.12) scale(.1 -.1)">
<defs>
<path id="ar" d="m4.8906 31.391h26.312v-8h-26.312z"/>
</defs>
<use xlink:href="#ar"/>
</g>
</g>
<g clip-path="url(#a)">
<g transform="translate(145.47 919.12) scale(.1 -.1)">
<defs>
<path id="at" d="m9.0781 54.688h8.9375v-25.688l25.344 25.688h11.031l-20.891-21.141 23.578-33.547h-10.062l-19.375 27.594-9.625-9.7656v-17.828h-8.9375z"/>
<path id="ba" d="m34.469 29.5q6.0625-1.1719 9.4219-4.75 3.375-3.5625 3.375-8.8281 0-8.4531-6.2969-12.906-6.2969-4.4375-17.922-4.4375-3.9062 0-8.0312 0.6875t-8.5156 2.0469v8.3594q3.4688-1.8125 7.6094-2.7188 4.1562-0.89062 8.6875-0.89062 7.375 0 11.5 2.7344t4.125 7.125q0 4.2969-3.6562 6.9062t-10.344 2.6094h-7.2344v7.4219h7.5625q5.6719 0 8.9688 2.1719t3.2969 5.5938q0 3.125-3.4062 5.375-3.3906 2.25-9.1875 2.25-3.4688 0-7.4062-0.64062-3.9219-0.64062-8.6719-2.0469v8.1562q4.7969 1.1719 8.9375 1.75 4.1562 0.59375 7.8594 0.59375 9.5781 0 15.109-3.8438 5.5469-3.8281 5.5469-10.719 0-4.5312-2.9375-7.6875-2.9219-3.1406-8.3906-4.3125z"/>
<path id="aq" d="m3.7188 0v7.4688q8.875 1.375 11.609 7.5156 3.3281 8.6562 3.3281 30.766v8.9375h36.953v-54.688h-8.9844v47.516h-18.984v-5.4219q0-21.094-4.2969-30.562-4.5938-10.109-19.625-11.531z"/>
</defs>
<use xlink:href="#r"/>
<use x="54.980469" xlink:href="#at"/>
<use x="115.380859" xlink:href="#z"/>
<use x="176.660156" xlink:href="#ba"/>
<use x="229.833984" xlink:href="#z"/>
<use x="291.113281" xlink:href="#aq"/>
</g>
</g>
<g clip-path="url(#a)">
<g transform="translate(166.02 919.12) scale(.1 -.1)">
<defs>
<path id="ae" d="m18.109 8.2031v-29h-9.0312v75.484h9.0312v-8.2969q2.8438 4.875 7.1562 7.2344 4.3281 2.375 10.328 2.375 9.9688 0 16.188-7.9062 6.2344-7.9062 6.2344-20.797t-6.2344-20.812q-6.2188-7.9062-16.188-7.9062-6 0-10.328 2.375-4.3125 2.375-7.1562 7.25zm30.578 19.094q0 9.9062-4.0781 15.547t-11.203 5.6406q-7.1406 0-11.219-5.6406t-4.0781-15.547 4.0781-15.547 11.219-5.6406q7.125 0 11.203 5.6406t4.0781 15.547z"/>
<path id="ai" d="m43.453 16.219q0 4.3906-3.2031 6.6875-3.1875 2.2969-9.3438 2.2969h-12.797v-18.031h12.797q6.1562 0 9.3438 2.3125 3.2031 2.3281 3.2031 6.7344zm-34.375 38.469h9.0312v-22.312h13.188q10.453 0 16.094-3.9844 5.6406-3.9688 5.6406-12.172t-5.6406-12.219q-5.6406-4-16.094-4h-22.219z"/>
</defs>
<use xlink:href="#at"/>
<use x="60.400391" xlink:href="#y"/>
<use x="121.582031" xlink:href="#ae"/>
<use x="185.058594" xlink:href="#y"/>
<use x="246.240234" xlink:href="#aq"/>
<use x="310.15625" xlink:href="#ai"/>
</g>
</g>
<g clip-path="url(#a)">
<g transform="translate(206.51 919.12) scale(.1 -.1)">
<defs>
<path id="d" d="m10.688 12.406h10.312v-12.406h-10.312z"/>
</defs>
<use xlink:href="#d"/>
</g>
</g>
<g clip-path="url(#a)">
<g transform="translate(232.28 919.12) scale(.1 -.1)">
<use xlink:href="#ar"/>
</g>
</g>
<g clip-path="url(#a)">
<g transform="translate(252.96 919.12) scale(.1 -.1)">
<defs>
<path id="bg" d="m5.4219 15.922q10.297-9.2344 22.797-9.2344 12.891 0 18.703 6.9375t6.8906 18.609h-38.969v8.2969h38.969q-1.0781 11.672-6.8906 18.625t-18.703 6.9531q-12.5 0-22.797-9.2188v10.391q10.156 6.9375 23.391 6.9375 16.359 0 25.875-10.141 9.5156-10.125 9.5156-27.656 0-17.578-9.5156-27.719-9.5156-10.125-25.875-10.125-13.047 0-23.391 7.0312z"/>
<path id="v" d="m2.9375 54.688h52.391v-7.1719h-21.781v-47.516h-8.8438v47.516h-21.766z"/>
</defs>
<use xlink:href="#bg"/>
<use x="69.824219" xlink:href="#v"/>
<use x="128.076172" xlink:href="#y"/>
</g>
</g>
<g clip-path="url(#a)">
<g transform="translate(277.41 919.12) scale(.1 -.1)">
<use xlink:href="#r"/>
<use x="54.980469" xlink:href="#z"/>
<use x="116.259766" xlink:href="#ak"/>
<use x="191.699219" xlink:href="#y"/>
<use x="252.880859" xlink:href="#s"/>
</g>
</g>
<g clip-path="url(#a)">
<g transform="translate(304.3 919.12) scale(.1 -.1)">
<defs>
<path id="aj" d="m9.0781 54.688h9.0312v-22.312h29.156v22.312h9.0312v-54.688h-9.0312v25.203h-29.156v-25.203h-9.0312z"/>
</defs>
<use xlink:href="#v"/>
<use x="58.251953" xlink:href="#ae"/>
<use x="121.728516" xlink:href="#u"/>
<use x="180.908203" xlink:href="#x"/>
<use x="250.048828" xlink:href="#aj"/>
<use x="315.429688" xlink:href="#y"/>
<use x="376.611328" xlink:href="#s"/>
</g>
</g>
<g clip-path="url(#a)">
<g transform="translate(360.05 919.12) scale(.1 -.1)">
<use xlink:href="#d"/>
</g>
</g>
<g clip-path="url(#a)">
<g transform="translate(386.77 919.12) scale(.1 -.1)">
<defs>
<path id="bi" d="m64.406 67.281v-10.391q-4.9844 4.6406-10.625 6.9219-5.6406 2.2969-11.984 2.2969-12.5 0-19.141-7.6406t-6.6406-22.094q0-14.406 6.6406-22.047t19.141-7.6406q6.3438 0 11.984 2.2969t10.625 6.9375v-10.312q-5.1719-3.5156-10.969-5.2812-5.7812-1.75-12.219-1.75-16.562 0-26.094 10.125-9.5156 10.141-9.5156 27.672 0 17.578 9.5156 27.703 9.5312 10.141 26.094 10.141 6.5312 0 12.312-1.7344 5.7969-1.7344 10.875-5.2031z"/>
</defs>
<use xlink:href="#bi"/>
<use x="69.824219" xlink:href="#s"/>
<use x="131.347656" xlink:href="#au"/>
<use x="193.017578" xlink:href="#as"/>
</g>
</g>
<g clip-path="url(#a)">
<g transform="translate(421.31 919.12) scale(.1 -.1)">
<use xlink:href="#r"/>
<use x="54.980469" xlink:href="#u"/>
<use x="114.160156" xlink:href="#x"/>
<use x="183.300781" xlink:href="#w"/>
<use x="248.291016" xlink:href="#v"/>
<use x="306.542969" xlink:href="#ai"/>
</g>
</g>
<g clip-path="url(#a)">
<g transform="translate(469.6 919.12) scale(.1 -.1)">
<use xlink:href="#at"/>
<use x="60.400391" xlink:href="#u"/>
<use x="119.580078" xlink:href="#x"/>
<use x="188.720703" xlink:href="#z"/>
</g>
</g>
<g clip-path="url(#a)">
<g transform="translate(505.06 919.12) scale(.1 -.1)">
<use xlink:href="#v"/>
<use x="58.251953" xlink:href="#ae"/>
<use x="121.728516" xlink:href="#u"/>
<use x="180.908203" xlink:href="#x"/>
<use x="250.048828" xlink:href="#aj"/>
<use x="315.429688" xlink:href="#s"/>
<use x="376.953125" xlink:href="#s"/>
</g>
</g>
<g clip-path="url(#a)">
<g transform="translate(572.63 919.12) scale(.1 -.1)">
<use xlink:href="#ap"/>
</g>
</g>
<g clip-path="url(#a)">
<g transform="translate(614.02 919.12) scale(.1 -.1)">
<defs>
<path id="ay" d="m41.016 0v23h-16.75q-7.4688 0-12.453 4.6406-4.4844 4.2031-4.4844 13.188v13.859h8.9844v-13.031q0-5.7188 2.5312-8.5938 2.5938-2.8906 7.6719-2.8906h14.5v24.516h8.9844v-54.688z"/>
</defs>
<use xlink:href="#ay"/>
<use x="59.082031" xlink:href="#s"/>
<use x="120.605469" xlink:href="#ak"/>
</g>
</g>
<g clip-path="url(#a)">
<g transform="translate(657.37 919.12) scale(.1 -.1)">
<defs>
<path id="be" d="m54.891 54.688-19.781-26.609 20.797-28.078h-10.594l-15.922 21.484-15.906-21.484h-10.609l21.25 28.609-19.438 26.078h10.594l14.5-19.484 14.5 19.484z"/>
</defs>
<use xlink:href="#x"/>
<use x="69.140625" xlink:href="#ae"/>
<use x="132.617188" xlink:href="#u"/>
<use x="191.796875" xlink:href="#bb"/>
<use x="244.335938" xlink:href="#w"/>
<use x="309.326172" xlink:href="#be"/>
</g>
</g>
<g clip-path="url(#a)">
<g transform="translate(730.89 919.12) scale(.1 -.1)">
<use xlink:href="#d"/>
</g>
</g>
<g clip-path="url(#a)">
<g transform="translate(776.82 919.12) scale(.1 -.1)">
<defs>
<path id="bj" d="m9.8125 72.906h46.094v-8.3125h-36.234v-21.578h34.719v-8.2969h-34.719v-26.422h37.109v-8.2969h-46.969z"/>
</defs>
<use xlink:href="#bj"/>
<use x="63.183594" xlink:href="#r"/>
<use x="118.164062" xlink:href="#aq"/>
<use x="182.080078" xlink:href="#w"/>
</g>
</g>
<g clip-path="url(#a)">
<g transform="translate(841.36 919.12) scale(.1 -.1)">
<defs>
<path id="ax" d="m61.047 54.688h8.9844v-54.688h-8.9844zm4.5 1.3125m-22.094-39.781q0 4.3906-3.2031 6.6875-3.1875 2.2969-9.3438 2.2969h-12.797v-18.031h12.797q6.1562 0 9.3438 2.3125 3.2031 2.3281 3.2031 6.7344zm-34.375 38.469h9.0312v-22.312h13.188q10.453 0 16.094-3.9844 5.6406-3.9688 5.6406-12.172t-5.6406-12.219q-5.6406-4-16.094-4h-22.219z"/>
</defs>
<use xlink:href="#v"/>
<use x="58.251953" xlink:href="#ax"/>
</g>
</g>
<g clip-path="url(#a)">
<g transform="translate(886.48 919.12) scale(.1 -.1)">
<defs>
<path id="bd" d="m50.25 7.1719h23.141v47.516h9.0312v-54.688h-73.344v54.688h9.0312v-47.516h23.109v47.516h9.0312z"/>
</defs>
<use xlink:href="#r"/>
<use x="54.980469" xlink:href="#u"/>
<use x="114.160156" xlink:href="#ak"/>
<use x="189.599609" xlink:href="#s"/>
<use x="251.123047" xlink:href="#s"/>
<use x="312.646484" xlink:href="#bd"/>
<use x="404.150391" xlink:href="#ai"/>
</g>
</g>
<g clip-path="url(#a)">
<g transform="translate(945.24 919.12) scale(.1 -.1)">
<defs>
<path id="az" d="m56.297 54.688v-54.688h-9.0312v47.516h-29.156v-47.516h-9.0312v54.688z"/>
<path id="bf" d="m18.062 25.203v-18.031h12.797q6.1562 0 9.375 2.3125 3.2188 2.3281 3.2188 6.7344 0 4.3906-3.2188 6.6875t-9.375 2.2969zm0 22.312v-15.141h11.828q5.0781 0 8.2969 2.0156 3.2188 2.0312 3.2188 5.6562 0 3.6094-3.2188 5.5312-3.2188 1.9375-8.2969 1.9375zm-8.9844 7.1719h21.391q9.625 0 14.797-3.5156t5.1719-10.016q0-5.0156-2.6406-7.9844-2.625-2.9531-7.8125-3.6719 6.2031-1.1719 9.625-4.8906 3.4219-3.7031 3.4219-9.2812 0-7.3125-5.6406-11.328-5.6406-4-16.094-4h-22.219z"/>
</defs>
<use xlink:href="#az"/>
<use x="65.380859" xlink:href="#ae"/>
<use x="128.857422" xlink:href="#z"/>
<use x="190.136719" xlink:href="#bf"/>
<use x="249.072266" xlink:href="#w"/>
<use x="314.0625" xlink:href="#aq"/>
<use x="377.978516" xlink:href="#ai"/>
<use x="436.914062" xlink:href="#aj"/>
<use x="502.294922" xlink:href="#y"/>
</g>
</g>
<g clip-path="url(#a)">
<g transform="translate(1021.3 919.12) scale(.1 -.1)">
<use xlink:href="#r"/>
<use x="54.980469" xlink:href="#u"/>
<use x="114.160156" xlink:href="#x"/>
<use x="183.300781" xlink:href="#w"/>
<use x="248.291016" xlink:href="#v"/>
<use x="306.542969" xlink:href="#ai"/>
</g>
</g>
<g clip-path="url(#a)">
<g transform="translate(1096.1 919.12) scale(.1 -.1)">
<use xlink:href="#r"/>
<use x="54.980469" xlink:href="#s"/>
<use x="116.503906" xlink:href="#au"/>
<use x="178.173828" xlink:href="#as"/>
</g>
</g>
<g clip-path="url(#a)">
<g transform="translate(1177.3 919.12) scale(.1 -.1)">
<use xlink:href="#ap"/>
</g>
</g>
<g clip-path="url(#a)">
<g transform="translate(1234 919.12) scale(.1 -.1)">
<use xlink:href="#ba"/>
<use x="53.173828" xlink:href="#aj"/>
<use x="118.554688" xlink:href="#z"/>
<use x="179.833984" xlink:href="#ay"/>
<use x="238.916016" xlink:href="#w"/>
<use x="303.90625" xlink:href="#v"/>
</g>
</g>
<g clip-path="url(#a)">
<g transform="translate(1326.1 919.12) scale(.1 -.1)">
<use xlink:href="#ap"/>
</g>
</g>
<g clip-path="url(#a)">
<g transform="translate(1398.8 919.12) scale(.1 -.1)">
<use xlink:href="#v"/>
<use x="58.251953" xlink:href="#ax"/>
</g>
</g>
<g clip-path="url(#a)">
<g transform="translate(1461.2 919.12) scale(.1 -.1)">
<use xlink:href="#az"/>
<use x="65.380859" xlink:href="#y"/>
<use x="126.5625" xlink:href="#w"/>
<use x="191.552734" xlink:href="#r"/>
<use x="246.533203" xlink:href="#v"/>
<use x="304.785156" xlink:href="#w"/>
<use x="369.775391" xlink:href="#aj"/>
<use x="435.15625" xlink:href="#s"/>
</g>
</g>
<g clip-path="url(#a)">
<g transform="translate(1555.3 919.12) scale(.1 -.1)">
<use xlink:href="#ak"/>
<use x="75.439453" xlink:href="#u"/>
<use x="134.619141" xlink:href="#x"/>
<use x="203.759766" xlink:href="#ae"/>
</g>
</g>
<g clip-path="url(#a)">
<g transform="translate(1652.1 919.12) scale(.1 -.1)">
<use xlink:href="#d"/>
</g>
</g>
<g clip-path="url(#a)">
<g transform="translate(1739.3 919.12) scale(.1 -.1)">
<use xlink:href="#ar"/>
</g>
</g>
<g clip-path="url(#a)">
<g transform="translate(657.07 776.25) scale(.1 -.1)">
<defs>
<path id="ad" d="m9.8125 72.906h9.8594v-72.906h-9.8594z"/>
<path id="av" d="m9.8125 72.906h14.703l18.594-49.609 18.703 49.609h14.703v-72.906h-9.625v64.016l-18.797-50h-9.9062l-18.797 50v-64.016h-9.5781z"/>
<path id="aw" d="m64.406 67.281v-10.391q-4.9844 4.6406-10.625 6.9219-5.6406 2.2969-11.984 2.2969-12.5 0-19.141-7.6406t-6.6406-22.094q0-14.406 6.6406-22.047t19.141-7.6406q6.3438 0 11.984 2.2969t10.625 6.9375v-10.312q-5.1719-3.5156-10.969-5.2812-5.7812-1.75-12.219-1.75-16.562 0-26.094 10.125-9.5156 10.141-9.5156 27.672 0 17.578 9.5156 27.703 9.5312 10.141 26.094 10.141 6.5312 0 12.312-1.7344 5.7969-1.7344 10.875-5.2031z"/>
</defs>
<use xlink:href="#ad"/>
<use x="29.492188" xlink:href="#av"/>
<use x="115.771484" xlink:href="#aa"/>
<use x="176.074219" xlink:href="#ac"/>
<use x="231.787109" xlink:href="#ad"/>
<use x="261.279297" xlink:href="#aw"/>
<use x="331.103516" xlink:href="#ad"/>
<use x="360.595703" xlink:href="#e"/>
</g>
</g>
<g clip-path="url(#a)">
<g transform="translate(92.531 776.25) scale(.1 -.1)">
<use xlink:href="#ad"/>
<use x="29.492188" xlink:href="#av"/>
<use x="115.771484" xlink:href="#aa"/>
<use x="176.074219" xlink:href="#ac"/>
<use x="231.787109" xlink:href="#ad"/>
<use x="261.279297" xlink:href="#aw"/>
<use x="331.103516" xlink:href="#ad"/>
<use x="360.595703" xlink:href="#e"/>
</g>
</g>
<g clip-path="url(#a)">
<g transform="translate(247.73 46.396) scale(.1 -.1)">
<defs>
<path id="c" d="m12.406 8.2969h16.109v55.625l-17.531-3.5156v8.9844l17.438 3.5156h9.8594v-64.609h16.109v-8.2969h-41.984z"/>
</defs>
<use xlink:href="#c"/>
<use x="63.623047" xlink:href="#d"/>
<use x="95.410156" xlink:href="#c"/>
</g>
</g>
<g clip-path="url(#a)">
<g transform="translate(247.73 193.18) scale(.1 -.1)">
<defs>
<path id="q" d="m19.188 8.2969h34.422v-8.2969h-46.281v8.2969q5.6094 5.8125 15.297 15.594 9.7031 9.7969 12.188 12.641 4.7344 5.3125 6.6094 9 1.8906 3.6875 1.8906 7.25 0 5.8125-4.0781 9.4688-4.0781 3.6719-10.625 3.6719-4.6406 0-9.7969-1.6094-5.1406-1.6094-11-4.8906v9.9688q5.9531 2.3906 11.125 3.6094 5.1875 1.2188 9.4844 1.2188 11.328 0 18.062-5.6719 6.7344-5.6562 6.7344-15.125 0-4.5-1.6875-8.5312-1.6719-4.0156-6.125-9.4844-1.2188-1.4219-7.7656-8.1875-6.5312-6.7656-18.453-18.922z"/>
</defs>
<use xlink:href="#c"/>
<use x="63.623047" xlink:href="#d"/>
<use x="95.410156" xlink:href="#q"/>
</g>
</g>
<g clip-path="url(#a)">
<g transform="translate(719.85 339.66) scale(.1 -.1)">
<defs>
<path id="o" d="m10.797 72.906h38.719v-8.3125h-29.688v-17.859q2.1406 0.73438 4.2812 1.0938 2.1562 0.35938 4.3125 0.35938 12.203 0 19.328-6.6875 7.1406-6.6875 7.1406-18.109 0-11.766-7.3281-18.297-7.3281-6.5156-20.656-6.5156-4.5938 0-9.3594 0.78125-4.75 0.78125-9.8281 2.3438v9.9219q4.3906-2.3906 9.0781-3.5625t9.9062-1.1719q8.4531 0 13.375 4.4375 4.9375 4.4375 4.9375 12.062 0 7.6094-4.9375 12.047-4.9219 4.4531-13.375 4.4531-3.9531 0-7.8906-0.875-3.9219-0.875-8.0156-2.7344z"/>
</defs>
<use xlink:href="#c"/>
<use x="63.623047" xlink:href="#d"/>
<use x="95.410156" xlink:href="#o"/>
</g>
</g>
<g clip-path="url(#a)">
<g transform="translate(155.27 776.25) scale(.1 -.1)">
<defs>
<path id="an" d="m33.016 40.375q-6.6406 0-10.531-4.5469-3.875-4.5312-3.875-12.438 0-7.8594 3.875-12.438 3.8906-4.5625 10.531-4.5625t10.516 4.5625q3.875 4.5781 3.875 12.438 0 7.9062-3.875 12.438-3.875 4.5469-10.516 4.5469zm19.578 30.922v-8.9844q-3.7188 1.75-7.5 2.6719-3.7812 0.9375-7.5 0.9375-9.7656 0-14.922-6.5938-5.1406-6.5938-5.875-19.922 2.875 4.25 7.2188 6.5156 4.3594 2.2656 9.5781 2.2656 10.984 0 17.359-6.6719 6.375-6.6562 6.375-18.125 0-11.234-6.6406-18.031-6.6406-6.7812-17.672-6.7812-12.656 0-19.344 9.6875-6.6875 9.7031-6.6875 28.109 0 17.281 8.2031 27.562t22.016 10.281q3.7188 0 7.5-0.73438t7.8906-2.1875z"/>
</defs>
<use xlink:href="#c"/>
<use x="63.623047" xlink:href="#d"/>
<use x="95.410156" xlink:href="#an"/>
</g>
</g>
<g clip-path="url(#a)">
<g transform="translate(176.53 631.39) scale(.1 -.1)">
<defs>
<path id="ah" d="m8.2031 72.906h46.875v-4.2031l-26.469-68.703h-10.297l24.906 64.594h-35.016z"/>
</defs>
<use xlink:href="#c"/>
<use x="63.623047" xlink:href="#d"/>
<use x="95.410156" xlink:href="#ah"/>
</g>
</g>
<g clip-path="url(#a)">
<g transform="translate(173.35 776.25) scale(.1 -.1)">
<use xlink:href="#c"/>
<use x="63.623047" xlink:href="#d"/>
<use x="95.410156" xlink:href="#c"/>
<use x="159.033203" xlink:href="#q"/>
</g>
</g>
<g clip-path="url(#a)">
<g transform="translate(71.776 776.25) scale(.1 -.1)">
<defs>
<path id="n" d="m40.578 39.312q7.0781-1.5156 11.047-6.3125 3.9844-4.7812 3.9844-11.812 0-10.781-7.4219-16.703-7.4219-5.9062-21.094-5.9062-4.5781 0-9.4375 0.90625t-10.031 2.7188v9.5156q4.0938-2.3906 8.9688-3.6094 4.8906-1.2188 10.219-1.2188 9.2656 0 14.125 3.6562t4.8594 10.641q0 6.4531-4.5156 10.078-4.5156 3.6406-12.562 3.6406h-8.5v8.1094h8.8906q7.2656 0 11.125 2.9062t3.8594 8.375q0 5.6094-3.9844 8.6094-3.9688 3.0156-11.391 3.0156-4.0625 0-8.7031-0.89062-4.6406-0.875-10.203-2.7188v8.7812q5.625 1.5625 10.531 2.3438t9.25 0.78125q11.234 0 17.766-5.1094 6.5469-5.0938 6.5469-13.781 0-6.0625-3.4688-10.234t-9.8594-5.7812z"/>
</defs>
<use xlink:href="#c"/>
<use x="63.623047" xlink:href="#d"/>
<use x="95.410156" xlink:href="#c"/>
<use x="159.033203" xlink:href="#n"/>
</g>
</g>
<g clip-path="url(#a)">
<g transform="translate(89.098 631.39) scale(.1 -.1)">
<defs>
<path id="m" d="m37.797 64.312-24.906-38.922h24.906zm-2.5938 8.5938h12.406v-47.516h10.406v-8.2031h-10.406v-17.188h-9.8125v17.188h-32.906v9.5156z"/>
</defs>
<use xlink:href="#c"/>
<use x="63.623047" xlink:href="#d"/>
<use x="95.410156" xlink:href="#c"/>
<use x="159.033203" xlink:href="#m"/>
</g>
</g>
<g clip-path="url(#a)">
<g transform="translate(282.79 631.39) scale(.1 -.1)">
<use xlink:href="#c"/>
<use x="63.623047" xlink:href="#d"/>
<use x="95.410156" xlink:href="#c"/>
<use x="159.033203" xlink:href="#o"/>
</g>
</g>
<g clip-path="url(#a)">
<g transform="translate(465.06 485.77) scale(.1 -.1)">
<use xlink:href="#c"/>
<use x="63.623047" xlink:href="#d"/>
<use x="95.410156" xlink:href="#c"/>
<use x="159.033203" xlink:href="#an"/>
</g>
</g>
<g clip-path="url(#a)">
<g transform="translate(612.69 776.25) scale(.1 -.1)">
<use xlink:href="#c"/>
<use x="63.623047" xlink:href="#d"/>
<use x="95.410156" xlink:href="#c"/>
<use x="159.033203" xlink:href="#ah"/>
</g>
</g>
<g clip-path="url(#a)">
<g transform="translate(590.25 485.77) scale(.1 -.1)">
<defs>
<path id="am" d="m31.781 34.625q-7.0312 0-11.062-3.7656-4.0156-3.7656-4.0156-10.344 0-6.5938 4.0156-10.359 4.0312-3.7656 11.062-3.7656t11.078 3.7812q4.0625 3.7969 4.0625 10.344 0 6.5781-4.0312 10.344-4.0156 3.7656-11.109 3.7656zm-9.8594 4.1875q-6.3438 1.5625-9.8906 5.9062-3.5312 4.3594-3.5312 10.609 0 8.7344 6.2188 13.812 6.2344 5.0781 17.062 5.0781 10.891 0 17.094-5.0781t6.2031-13.812q0-6.25-3.5469-10.609-3.5312-4.3438-9.8281-5.9062 7.125-1.6562 11.094-6.5 3.9844-4.8281 3.9844-11.797 0-10.609-6.4688-16.281-6.4688-5.6562-18.531-5.6562-12.047 0-18.531 5.6562-6.4688 5.6719-6.4688 16.281 0 6.9688 4 11.797 4.0156 4.8438 11.141 6.5zm-3.6094 15.578q0-5.6562 3.5312-8.8281 3.5469-3.1719 9.9375-3.1719 6.3594 0 9.9375 3.1719 3.5938 3.1719 3.5938 8.8281 0 5.6719-3.5938 8.8438-3.5781 3.1719-9.9375 3.1719-6.3906 0-9.9375-3.1719-3.5312-3.1719-3.5312-8.8438z"/>
</defs>
<use xlink:href="#c"/>
<use x="63.623047" xlink:href="#d"/>
<use x="95.410156" xlink:href="#c"/>
<use x="159.033203" xlink:href="#am"/>
</g>
</g>
<g clip-path="url(#a)">
<g transform="translate(778.04 776.25) scale(.1 -.1)">
<defs>
<path id="al" d="m10.984 1.5156v8.9844q3.7188-1.7656 7.5156-2.6875 3.8125-0.92188 7.4844-0.92188 9.7656 0 14.906 6.5625 5.1562 6.5625 5.8906 19.953-2.8281-4.2031-7.1875-6.4531-4.3438-2.25-9.6094-2.25-10.938 0-17.312 6.6094-6.375 6.625-6.375 18.109 0 11.219 6.6406 18 6.6406 6.7969 17.672 6.7969 12.656 0 19.312-9.7031 6.6719-9.6875 6.6719-28.141 0-17.234-8.1875-27.516-8.1719-10.281-21.984-10.281-3.7188 0-7.5312 0.73438-3.7969 0.73438-7.9062 2.2031zm19.625 30.906q6.6406 0 10.516 4.5312 3.8906 4.5469 3.8906 12.469 0 7.8594-3.8906 12.422-3.875 4.5625-10.516 4.5625t-10.516-4.5625-3.875-12.422q0-7.9219 3.875-12.469 3.875-4.5312 10.516-4.5312z"/>
</defs>
<use xlink:href="#c"/>
<use x="63.623047" xlink:href="#d"/>
<use x="95.410156" xlink:href="#c"/>
<use x="159.033203" xlink:href="#al"/>
</g>
</g>
<g clip-path="url(#a)">
<g transform="translate(940.14 631.39) scale(.1 -.1)">
<defs>
<path id="ao" d="m31.781 66.406q-7.6094 0-11.453-7.5-3.8281-7.4844-3.8281-22.531 0-14.984 3.8281-22.484 3.8438-7.5 11.453-7.5 7.6719 0 11.5 7.5 3.8438 7.5 3.8438 22.484 0 15.047-3.8438 22.531-3.8281 7.5-11.5 7.5zm0 7.8125q12.266 0 18.734-9.7031 6.4688-9.6875 6.4688-28.141 0-18.406-6.4688-28.109-6.4688-9.6875-18.734-9.6875-12.25 0-18.719 9.6875-6.4688 9.7031-6.4688 28.109 0 18.453 6.4688 28.141 6.4688 9.7031 18.719 9.7031z"/>
</defs>
<use xlink:href="#c"/>
<use x="63.623047" xlink:href="#d"/>
<use x="95.410156" xlink:href="#q"/>
<use x="159.033203" xlink:href="#ao"/>
</g>
</g>
<g clip-path="url(#a)">
<g transform="translate(1241 776.25) scale(.1 -.1)">
<use xlink:href="#c"/>
<use x="63.623047" xlink:href="#d"/>
<use x="95.410156" xlink:href="#q"/>
<use x="159.033203" xlink:href="#c"/>
</g>
</g>
<g clip-path="url(#a)">
<g transform="translate(1559.9 631.39) scale(.1 -.1)">
<use xlink:href="#c"/>
<use x="63.623047" xlink:href="#d"/>
<use x="95.410156" xlink:href="#q"/>
<use x="159.033203" xlink:href="#q"/>
</g>
</g>
<g clip-path="url(#a)">
<g transform="translate(1394.5 776.25) scale(.1 -.1)">
<use xlink:href="#c"/>
<use x="63.623047" xlink:href="#d"/>
<use x="95.410156" xlink:href="#q"/>
<use x="159.033203" xlink:href="#am"/>
</g>
</g>
<g clip-path="url(#a)">
<g transform="translate(1474.9 776.25) scale(.1 -.1)">
<use xlink:href="#c"/>
<use x="63.623047" xlink:href="#d"/>
<use x="95.410156" xlink:href="#q"/>
<use x="159.033203" xlink:href="#al"/>
</g>
</g>
<g clip-path="url(#a)">
<g transform="translate(1557.5 776.25) scale(.1 -.1)">
<use xlink:href="#c"/>
<use x="63.623047" xlink:href="#d"/>
<use x="95.410156" xlink:href="#n"/>
<use x="159.033203" xlink:href="#ao"/>
</g>
</g>
<g clip-path="url(#a)">
<g transform="translate(837.09 776.25) scale(.1 -.1)">
<use xlink:href="#c"/>
<use x="63.623047" xlink:href="#d"/>
<use x="95.410156" xlink:href="#n"/>
<use x="159.033203" xlink:href="#c"/>
</g>
</g>
<g clip-path="url(#a)">
<g transform="translate(898.51 776.25) scale(.1 -.1)">
<use xlink:href="#c"/>
<use x="63.623047" xlink:href="#d"/>
<use x="95.410156" xlink:href="#n"/>
<use x="159.033203" xlink:href="#q"/>
</g>
</g>
<g clip-path="url(#a)">
<g transform="translate(962.28 776.25) scale(.1 -.1)">
<use xlink:href="#c"/>
<use x="63.623047" xlink:href="#d"/>
<use x="95.410156" xlink:href="#n"/>
<use x="159.033203" xlink:href="#n"/>
</g>
</g>
<g clip-path="url(#a)">
<g transform="translate(1062.7 776.25) scale(.1 -.1)">
<use xlink:href="#c"/>
<use x="63.623047" xlink:href="#d"/>
<use x="95.410156" xlink:href="#n"/>
<use x="159.033203" xlink:href="#m"/>
</g>
</g>
<g clip-path="url(#a)">
<g transform="translate(664.66 631.39) scale(.1 -.1)">
<use xlink:href="#c"/>
<use x="63.623047" xlink:href="#d"/>
<use x="95.410156" xlink:href="#n"/>
<use x="159.033203" xlink:href="#o"/>
</g>
</g>
<g clip-path="url(#a)">
<g transform="translate(664.66 776.25) scale(.1 -.1)">
<use xlink:href="#c"/>
<use x="63.623047" xlink:href="#d"/>
<use x="95.410156" xlink:href="#n"/>
<use x="159.033203" xlink:href="#ah"/>
</g>
</g>
<g clip-path="url(#a)">
<g transform="translate(408.37 631.39) scale(.1 -.1)">
<use xlink:href="#c"/>
<use x="63.623047" xlink:href="#d"/>
<use x="95.410156" xlink:href="#n"/>
<use x="159.033203" xlink:href="#am"/>
</g>
</g>
<g clip-path="url(#a)">
<g transform="translate(470.97 776.25) scale(.1 -.1)">
<use xlink:href="#c"/>
<use x="63.623047" xlink:href="#d"/>
<use x="95.410156" xlink:href="#n"/>
<use x="159.033203" xlink:href="#al"/>
</g>
</g>
<g clip-path="url(#a)">
<g transform="translate(515.85 776.25) scale(.1 -.1)">
<use xlink:href="#c"/>
<use x="63.623047" xlink:href="#d"/>
<use x="95.410156" xlink:href="#m"/>
<use x="159.033203" xlink:href="#ao"/>
</g>
</g>
<g clip-path="url(#a)">
<g transform="translate(408.37 776.25) scale(.1 -.1)">
<use xlink:href="#c"/>
<use x="63.623047" xlink:href="#d"/>
<use x="95.410156" xlink:href="#m"/>
<use x="159.033203" xlink:href="#c"/>
</g>
</g>
<g clip-path="url(#a)">
<g transform="translate(251.29 776.25) scale(.1 -.1)">
<use xlink:href="#c"/>
<use x="63.623047" xlink:href="#d"/>
<use x="95.410156" xlink:href="#m"/>
<use x="159.033203" xlink:href="#q"/>
</g>
</g>
<g clip-path="url(#a)">
<g transform="translate(282 776.25) scale(.1 -.1)">
<use xlink:href="#c"/>
<use x="63.623047" xlink:href="#d"/>
<use x="95.410156" xlink:href="#m"/>
<use x="159.033203" xlink:href="#n"/>
</g>
</g>
<g clip-path="url(#a)">
<g transform="translate(315.07 776.25) scale(.1 -.1)">
<use xlink:href="#c"/>
<use x="63.623047" xlink:href="#d"/>
<use x="95.410156" xlink:href="#m"/>
<use x="159.033203" xlink:href="#m"/>
</g>
</g>
<g clip-path="url(#a)">
<g transform="translate(89.098 776.25) scale(.1 -.1)">
<use xlink:href="#c"/>
<use x="63.623047" xlink:href="#d"/>
<use x="95.410156" xlink:href="#m"/>
<use x="159.033203" xlink:href="#an"/>
</g>
</g>
<g clip-path="url(#a)">
<g transform="translate(116.66 776.25) scale(.1 -.1)">
<use xlink:href="#c"/>
<use x="63.623047" xlink:href="#d"/>
<use x="95.410156" xlink:href="#m"/>
<use x="159.033203" xlink:href="#ah"/>
</g>
</g>
<g clip-path="url(#a)">
<g transform="translate(133.19 776.25) scale(.1 -.1)">
<use xlink:href="#c"/>
<use x="63.623047" xlink:href="#d"/>
<use x="95.410156" xlink:href="#m"/>
<use x="159.033203" xlink:href="#am"/>
</g>
</g>
<g clip-path="url(#a)">
<g transform="translate(196.97 776.25) scale(.1 -.1)">
<use xlink:href="#c"/>
<use x="63.623047" xlink:href="#d"/>
<use x="95.410156" xlink:href="#m"/>
<use x="159.033203" xlink:href="#al"/>
</g>
</g>
<g clip-path="url(#a)">
<g transform="translate(222.95 776.25) scale(.1 -.1)">
<use xlink:href="#c"/>
<use x="63.623047" xlink:href="#d"/>
<use x="95.410156" xlink:href="#o"/>
<use x="159.033203" xlink:href="#ao"/>
</g>
</g>
<g clip-path="url(#a)">
<g transform="translate(350.5 776.25) scale(.1 -.1)">
<use xlink:href="#c"/>
<use x="63.623047" xlink:href="#d"/>
<use x="95.410156" xlink:href="#o"/>
<use x="159.033203" xlink:href="#c"/>
</g>
</g>
<g clip-path="url(#a)">
<g transform="translate(563.09 776.25) scale(.1 -.1)">
<use xlink:href="#c"/>
<use x="63.623047" xlink:href="#d"/>
<use x="95.410156" xlink:href="#o"/>
<use x="159.033203" xlink:href="#q"/>
</g>
</g>
<g clip-path="url(#a)">
<g transform="translate(721.35 776.25) scale(.1 -.1)">
<use xlink:href="#c"/>
<use x="63.623047" xlink:href="#d"/>
<use x="95.410156" xlink:href="#o"/>
<use x="159.033203" xlink:href="#n"/>
</g>
</g>
<g clip-path="url(#a)">
<g transform="translate(1167.8 776.25) scale(.1 -.1)">
<use xlink:href="#c"/>
<use x="63.623047" xlink:href="#d"/>
<use x="95.410156" xlink:href="#o"/>
<use x="159.033203" xlink:href="#m"/>
</g>
</g>
<g clip-path="url(#a)">
<g transform="translate(1316.6 776.25) scale(.1 -.1)">
<use xlink:href="#c"/>
<use x="63.623047" xlink:href="#d"/>
<use x="95.410156" xlink:href="#o"/>
<use x="159.033203" xlink:href="#o"/>
</g>
</g>
<g clip-path="url(#a)">
<g transform="translate(1642.6 776.25) scale(.1 -.1)">
<use xlink:href="#c"/>
<use x="63.623047" xlink:href="#d"/>
<use x="95.410156" xlink:href="#o"/>
<use x="159.033203" xlink:href="#an"/>
</g>
</g>
<g clip-path="url(#a)">
<g transform="translate(1730 776.25) scale(.1 -.1)">
<use xlink:href="#c"/>
<use x="63.623047" xlink:href="#d"/>
<use x="95.410156" xlink:href="#o"/>
<use x="159.033203" xlink:href="#ah"/>
</g>
</g>
<defs>
<clipPath id="a">
<rect width="1824" height="960"/>
</clipPath>
</defs>
</svg>
