<?xml version="1.0" encoding="UTF-8"?>
<!DOCTYPE svg  PUBLIC '-//W3C//DTD SVG 1.1//EN'  'http://www.w3.org/Graphics/SVG/1.1/DTD/svg11.dtd'>
<svg width="709.33pt" height="373.33pt" version="1.1" viewBox="0 0 709.33 373.33" xmlns="http://www.w3.org/2000/svg" xmlns:xlink="http://www.w3.org/1999/xlink">
<metadata>
<rdf:RDF xmlns:cc="http://creativecommons.org/ns#" xmlns:dc="http://purl.org/dc/elements/1.1/" xmlns:rdf="http://www.w3.org/1999/02/22-rdf-syntax-ns#">
<cc:Work>
<dc:type rdf:resource="http://purl.org/dc/dcmitype/StillImage"/>
<dc:date>2021-02-23T11:01:56.016564</dc:date>
<dc:format>image/svg+xml</dc:format>
<dc:creator>
<cc:Agent>
<dc:title>Matplotlib v3.3.3, https://matplotlib.org/</dc:title>
</cc:Agent>
</dc:creator>
</cc:Work>
</rdf:RDF>
</metadata>
<defs>
<style type="text/css">*{stroke-linecap:butt;stroke-linejoin:round;}</style>
</defs>
<path d="m0 373.33h709.33v-373.33h-709.33z" fill="#fff"/>
<g fill="none" stroke="#000">
<path d="m364.29 16.97-159.79 57.081" clip-path="url(#a)"/>
<path d="m364.29 16.97 159.79 227.5" clip-path="url(#a)"/>
<path d="m204.5 74.051-140.15 56.966" clip-path="url(#a)"/>
<path d="m204.5 74.051 13.548 226.75" clip-path="url(#a)"/>
<path d="m204.5 74.051 62.732 226.75" clip-path="url(#a)"/>
<path d="m204.5 74.051 162.46 56.966" clip-path="url(#a)"/>
<path d="m204.5 74.051-68.424 226.75" clip-path="url(#a)"/>
<path d="m204.5 74.051-30.17 226.75" clip-path="url(#a)"/>
<path d="m524.08 244.47-5.4648 56.334" clip-path="url(#a)"/>
<path d="m524.08 244.47 71.043 56.334" clip-path="url(#a)"/>
<path d="m524.08 244.47-142.09 56.334" clip-path="url(#a)" stroke-dasharray="3.7,1.6"/>
<path d="m524.08 244.47-76.507 56.334" clip-path="url(#a)"/>
<path d="m524.08 244.47 153.01 56.334" clip-path="url(#a)"/>
<path d="m518.61 300.8v55.561" clip-path="url(#a)"/>
<path d="m595.12 300.8v55.561" clip-path="url(#a)"/>
<path d="m64.348 131.02 38.937 56.822" clip-path="url(#a)"/>
<path d="m64.348 131.02-19.81 56.822" clip-path="url(#a)"/>
<path d="m64.348 131.02 19.81 113.45" clip-path="url(#a)"/>
<path d="m218.05 300.8v55.561" clip-path="url(#a)"/>
<path d="m267.23 300.8v55.561" clip-path="url(#a)"/>
<path d="m366.96 131.02-15.028 56.822" clip-path="url(#a)"/>
<path d="m366.96 131.02 15.028 113.45" clip-path="url(#a)"/>
<path d="m351.93 187.84 30.056 56.63" clip-path="url(#a)" stroke-dasharray="3.7,1.6"/>
<path d="m351.93 187.84-30.056 112.96" clip-path="url(#a)"/>
<path d="m381.99 244.47v56.334" clip-path="url(#a)"/>
<path d="m381.99 300.8v55.561" clip-path="url(#a)"/>
<path d="m321.88 300.8v55.561" clip-path="url(#a)"/>
<path d="m44.538 187.84-4.0986 56.63" clip-path="url(#a)"/>
<path d="m44.538 187.84 4.0986 112.96" clip-path="url(#a)"/>
<path d="m84.158 244.47-13.662 56.334" clip-path="url(#a)"/>
<path d="m84.158 244.47 13.662 56.334" clip-path="url(#a)"/>
<path d="m70.496 300.8v55.561" clip-path="url(#a)"/>
<path d="m97.82 300.8v55.561" clip-path="url(#a)"/>
<path d="m40.44 244.47 8.1972 56.334" clip-path="url(#a)" stroke-dasharray="3.7,1.6"/>
<path d="m40.44 244.47-8.1972 56.334" clip-path="url(#a)"/>
<path d="m48.637 300.8v55.561" clip-path="url(#a)"/>
<path d="m32.242 300.8v55.561" clip-path="url(#a)"/>
<path d="m136.07 300.8v55.561" clip-path="url(#a)"/>
<path d="m174.33 300.8v55.561" clip-path="url(#a)"/>
<path d="m447.57 300.8v55.561" clip-path="url(#a)"/>
<path d="m677.09 300.8v55.561" clip-path="url(#a)"/>
</g>
<path d="m283.67 52.428 5.6656-2.0239q2.2601-0.80738 1.4527-3.0675l-2.6046-7.2912q-0.80738-2.2601-3.0675-1.4527l-5.6656 2.0239q-2.2601 0.80738-1.4527 3.0675l2.6046 7.2912q0.80738 2.2601 3.0675 1.4527z" clip-path="url(#a)" fill="#fff" stroke="#fff"/>
<g clip-path="url(#a)">
<g transform="translate(282.3 48.601) rotate(-19.658) scale(.08 -.08)">
<defs>
<path id="ah" d="m9.8125 72.906h9.8594v-29.891h35.844v29.891h9.8594v-72.906h-9.8594v34.719h-35.844v-34.719h-9.8594z"/>
</defs>
<use xlink:href="#ah"/>
</g>
</g>
<path d="m437.32 131.86 3.4579 4.9232q1.3794 1.964 3.3434 0.58453l6.3358-4.4501q1.964-1.3794 0.58453-3.3434l-3.4579-4.9232q-1.3794-1.964-3.3434-0.58453l-6.3358 4.4501q-1.964 1.3794-0.58453 3.3434z" clip-path="url(#a)" fill="#fff" stroke="#fff"/>
<g clip-path="url(#a)">
<g transform="translate(440.65 129.53) rotate(54.917) scale(.08 -.08)">
<use xlink:href="#ah"/>
</g>
</g>
<path d="m134.25 109.37 5.0697-2.0607q2.2234-0.90372 1.3196-3.1271l-2.9154-7.1726q-0.90372-2.2234-3.1271-1.3196l-5.0697 2.0607q-2.2234 0.90372-1.3196 3.1271l2.9154 7.1726q0.90372 2.2234 3.1271 1.3196z" clip-path="url(#a)" fill="#fff" stroke="#fff"/>
<g clip-path="url(#a)">
<g transform="translate(132.72 105.61) rotate(-22.12) scale(.08 -.08)">
<defs>
<path id="n" d="m34.188 63.188-13.391-36.281h26.812zm-5.5781 9.7188h11.188l27.781-72.906h-10.25l-6.6406 18.703h-32.859l-6.6406-18.703h-10.406z"/>
</defs>
<use xlink:href="#n"/>
</g>
</g>
<path d="m204.87 185.39 0.2877 4.8152q0.14314 2.3957 2.5389 2.2526l7.7287-0.46178q2.3957-0.14314 2.2526-2.5389l-0.2877-4.8152q-0.14314-2.3957-2.5389-2.2526l-7.7287 0.46178q-2.3957 0.14314-2.2526 2.5389z" clip-path="url(#a)" fill="#fff" stroke="#fff"/>
<g clip-path="url(#a)">
<g transform="translate(208.92 185.15) rotate(86.581) scale(.08 -.08)">
<defs>
<path id="x" d="m19.672 64.797v-27.391h12.406q6.8906 0 10.641 3.5625 3.7656 3.5625 3.7656 10.156 0 6.5469-3.7656 10.109-3.75 3.5625-10.641 3.5625zm-9.8594 8.1094h22.266q12.266 0 18.531-5.5469 6.2812-5.5469 6.2812-16.234 0-10.797-6.2812-16.312-6.2656-5.5156-18.531-5.5156h-12.406v-29.297h-9.8594z"/>
</defs>
<use xlink:href="#x"/>
</g>
</g>
<path d="m229.09 186.46 1.4592 5.2744q0.63993 2.3131 2.953 1.6732l7.4622-2.0644q2.3131-0.63993 1.6732-2.953l-1.4592-5.2744q-0.63993-2.3131-2.953-1.6732l-7.4622 2.0644q-2.3131 0.63993-1.6732 2.953z" clip-path="url(#a)" fill="#fff" stroke="#fff"/>
<g clip-path="url(#a)">
<g transform="translate(233.01 185.38) rotate(74.536) scale(.08 -.08)">
<use xlink:href="#n"/>
</g>
</g>
<path d="m281.07 107.55 5.1642 1.8108q2.2648 0.79413 3.0589-1.4707l2.5619-7.3064q0.79413-2.2648-1.4707-3.0589l-5.1642-1.8108q-2.2648-0.79413-3.0589 1.4707l-2.5619 7.3064q-0.79413 2.2648 1.4707 3.0589z" clip-path="url(#a)" fill="#fff" stroke="#fff"/>
<g clip-path="url(#a)">
<g transform="translate(282.42 103.71) rotate(19.323) scale(.08 -.08)">
<use xlink:href="#n"/>
</g>
</g>
<path d="m175.44 192.04 1.6915-5.6054q0.69334-2.2977-1.6043-2.991l-7.4124-2.2367q-2.2977-0.69334-2.991 1.6043l-1.6915 5.6054q-0.69334 2.2977 1.6043 2.991l7.4124 2.2367q2.2977 0.69334 2.991-1.6043z" clip-path="url(#a)" fill="#fff" stroke="#fff"/>
<g clip-path="url(#a)">
<g transform="translate(171.55 190.87) rotate(-73.208) scale(.08 -.08)">
<defs>
<path id="r" d="m8.6875 72.906h9.9219v-44.297q0-11.719 4.2344-16.875 4.25-5.1406 13.781-5.1406 9.4688 0 13.719 5.1406 4.25 5.1562 4.25 16.875v44.297h9.9062v-45.516q0-14.25-7.0625-21.531-7.0469-7.2812-20.812-7.2812-13.828 0-20.891 7.2812-7.0469 7.2812-7.0469 21.531z"/>
</defs>
<use xlink:href="#r"/>
</g>
</g>
<path d="m195.24 191.16 0.77223-5.8039q0.31654-2.379-2.0625-2.6956l-7.6749-1.0212q-2.379-0.31654-2.6956 2.0625l-0.77223 5.8039q-0.31654 2.379 2.0625 2.6956l7.6749 1.0212q2.379 0.31654 2.6956-2.0625z" clip-path="url(#a)" fill="#fff" stroke="#fff"/>
<g clip-path="url(#a)">
<g transform="translate(191.21 190.62) rotate(-82.421) scale(.08 -.08)">
<use xlink:href="#r"/>
</g>
</g>
<path d="m527.29 276.31 0.59477-6.1312q0.23173-2.3888-2.1571-2.6205l-7.7063-0.74757q-2.3888-0.23173-2.6205 2.1571l-0.59477 6.1312q-0.23173 2.3888 2.1571 2.6205l7.7063 0.74757q2.3888 0.23173 2.6205-2.1571z" clip-path="url(#a)" fill="#fff" stroke="#fff"/>
<g clip-path="url(#a)">
<g transform="translate(523.24 275.91) rotate(-84.459) scale(.08 -.08)">
<defs>
<path id="aw" d="m19.672 64.797v-56.688h11.922q15.094 0 22.094 6.8281 7 6.8438 7 21.594 0 14.641-7 21.453t-22.094 6.8125zm-9.8594 8.1094h20.266q21.188 0 31.094-8.8125 9.9219-8.8125 9.9219-27.562 0-18.859-9.9688-27.703-9.9531-8.8281-31.047-8.8281h-20.266z"/>
</defs>
<use xlink:href="#aw"/>
</g>
</g>
<path d="m553.81 276.05 3.7797 2.9971q1.8805 1.4912 3.3717-0.38934l4.8106-6.0666q1.4912-1.8805-0.38934-3.3717l-3.7797-2.9971q-1.8805-1.4912-3.3717 0.38934l-4.8106 6.0666q-1.4912 1.8805 0.38934 3.3717z" clip-path="url(#a)" fill="#fff" stroke="#fff"/>
<g clip-path="url(#a)">
<g transform="translate(556.34 272.87) rotate(38.413) scale(.08 -.08)">
<use xlink:href="#x"/>
</g>
</g>
<path d="m452.8 279.47 5.0872-2.017q2.231-0.88456 1.3465-3.1156l-2.8536-7.1974q-0.88456-2.231-3.1156-1.3465l-5.0872 2.017q-2.231 0.88456-1.3465 3.1156l2.8536 7.1974q0.88456 2.231 3.1156 1.3465z" clip-path="url(#a)" fill="#fff" stroke="#fff"/>
<g clip-path="url(#a)">
<g transform="translate(451.3 275.7) rotate(-21.627) scale(.08 -.08)">
<use xlink:href="#n"/>
</g>
</g>
<path d="m487.18 279.42 4.7148-3.4716q1.9326-1.423 0.50959-3.3556l-4.5907-6.2347q-1.423-1.9326-3.3556-0.50959l-4.7148 3.4716q-1.9326 1.423-0.50959 3.3556l4.5907 6.2347q1.423 1.9326 3.3556 0.50959z" clip-path="url(#a)" fill="#fff" stroke="#fff"/>
<g clip-path="url(#a)">
<g transform="translate(484.77 276.15) rotate(-36.365) scale(.08 -.08)">
<use xlink:href="#r"/>
</g>
</g>
<path d="m595.67 277.51 5.4945 2.0228q2.2522 0.82918 3.0814-1.423l2.675-7.2657q0.82918-2.2522-1.423-3.0814l-5.4945-2.0228q-2.2522-0.82918-3.0814 1.423l-2.675 7.2657q-0.82918 2.2522 1.423 3.0814z" clip-path="url(#a)" fill="#fff" stroke="#fff"/>
<g clip-path="url(#a)">
<g transform="translate(597.07 273.7) rotate(20.212) scale(.08 -.08)">
<use xlink:href="#r"/>
</g>
</g>
<path d="m512.34 311.68v33.808q0 2.4 2.4 2.4h7.7425q2.4 0 2.4-2.4v-33.808q0-2.4-2.4-2.4h-7.7425q-2.4 0-2.4 2.4z" clip-path="url(#a)" fill="#fff" stroke="#fff"/>
<g clip-path="url(#a)">
<g transform="translate(516.4 311.68) rotate(90) scale(.08 -.08)">
<defs>
<path id="e" d="m-0.29688 72.906h61.672v-8.3125h-25.875v-64.594h-9.9062v64.594h-25.891z"/>
<path id="l" d="m56.203 29.594v-4.3906h-41.312q0.59375-9.2812 5.5938-14.141t13.938-4.8594q5.1719 0 10.031 1.2656t9.6562 3.8125v-8.5q-4.8438-2.0469-9.9219-3.125t-10.297-1.0781q-13.094 0-20.734 7.6094-7.6406 7.625-7.6406 20.625 0 13.422 7.25 21.297 7.25 7.8906 19.562 7.8906 11.031 0 17.453-7.1094 6.4219-7.0938 6.4219-19.297zm-8.9844 2.6406q-0.09375 7.3594-4.125 11.75-4.0312 4.4062-10.672 4.4062-7.5156 0-12.031-4.25t-5.2031-11.969z"/>
<path id="g" d="m41.109 46.297q-1.5156 0.875-3.2969 1.2812-1.7812 0.42188-3.9219 0.42188-7.625 0-11.703-4.9531t-4.0781-14.234v-28.812h-9.0312v54.688h9.0312v-8.5q2.8438 4.9844 7.375 7.3906 4.5469 2.4219 11.047 2.4219 0.92188 0 2.0469-0.125 1.125-0.10938 2.4844-0.35938z"/>
<path id="i" d="m52 44.188q3.375 6.0625 8.0625 8.9375t11.031 2.875q8.5469 0 13.188-5.9844 4.6406-5.9688 4.6406-17v-33.016h-9.0312v32.719q0 7.8594-2.7969 11.656-2.7812 3.8125-8.4844 3.8125-6.9844 0-11.047-4.6406-4.0469-4.625-4.0469-12.641v-30.906h-9.0312v32.719q0 7.9062-2.7812 11.688t-8.5938 3.7812q-6.8906 0-10.953-4.6562-4.0469-4.6562-4.0469-12.625v-30.906h-9.0312v54.688h9.0312v-8.5q3.0781 5.0312 7.375 7.4219t10.203 2.3906q5.9688 0 10.141-3.0312 4.1719-3.0156 6.1719-8.7812z"/>
<path id="k" d="m9.4219 54.688h8.9844v-54.688h-8.9844zm0 21.297h8.9844v-11.391h-8.9844z"/>
<path id="h" d="m54.891 33.016v-33.016h-8.9844v32.719q0 7.7656-3.0312 11.609-3.0312 3.8594-9.0781 3.8594-7.2812 0-11.484-4.6406-4.2031-4.625-4.2031-12.641v-30.906h-9.0312v54.688h9.0312v-8.5q3.2344 4.9375 7.5938 7.375 4.375 2.4375 10.094 2.4375 9.4219 0 14.25-5.8281 4.8438-5.8281 4.8438-17.156z"/>
<path id="f" d="m34.281 27.484q-10.891 0-15.094-2.4844t-4.2031-8.5q0-4.7812 3.1562-7.5938 3.1562-2.7969 8.5625-2.7969 7.4844 0 12 5.2969t4.5156 14.078v2zm17.922 3.7188v-31.203h-8.9844v8.2969q-3.0781-4.9688-7.6719-7.3438t-11.234-2.375q-8.3906 0-13.359 4.7188-4.9531 4.7188-4.9531 12.625 0 9.2188 6.1719 13.906 6.1875 4.6875 18.438 4.6875h12.609v0.89062q0 6.2031-4.0781 9.5938t-11.453 3.3906q-4.6875 0-9.1406-1.125-4.4375-1.125-8.5312-3.375v8.3125q4.9219 1.9062 9.5625 2.8438 4.6406 0.95312 9.0312 0.95312 11.875 0 17.734-6.1562 5.8594-6.1406 5.8594-18.641z"/>
<path id="j" d="m9.4219 75.984h8.9844v-75.984h-8.9844z"/>
</defs>
<use xlink:href="#e"/>
<use x="44.083984" xlink:href="#l"/>
<use x="105.607422" xlink:href="#g"/>
<use x="144.970703" xlink:href="#i"/>
<use x="242.382812" xlink:href="#k"/>
<use x="270.166016" xlink:href="#h"/>
<use x="333.544922" xlink:href="#f"/>
<use x="394.824219" xlink:href="#j"/>
</g>
</g>
<path d="m588.85 311.68v33.808q0 2.4 2.4 2.4h7.7425q2.4 0 2.4-2.4v-33.808q0-2.4-2.4-2.4h-7.7425q-2.4 0-2.4 2.4z" clip-path="url(#a)" fill="#fff" stroke="#fff"/>
<g clip-path="url(#a)">
<g transform="translate(592.91 311.68) rotate(90) scale(.08 -.08)">
<use xlink:href="#e"/>
<use x="44.083984" xlink:href="#l"/>
<use x="105.607422" xlink:href="#g"/>
<use x="144.970703" xlink:href="#i"/>
<use x="242.382812" xlink:href="#k"/>
<use x="270.166016" xlink:href="#h"/>
<use x="333.544922" xlink:href="#f"/>
<use x="394.824219" xlink:href="#j"/>
</g>
</g>
<path d="m77.208 160.88 2.8708 4.1895q1.3566 1.9798 3.3364 0.62316l6.3869-4.3765q1.9798-1.3566 0.62316-3.3364l-2.8708-4.1895q-1.3566-1.9798-3.3364-0.62316l-6.3869 4.3765q-1.9798 1.3566-0.62316 3.3364z" clip-path="url(#a)" fill="#fff" stroke="#fff"/>
<g clip-path="url(#a)">
<g transform="translate(80.56 158.58) rotate(55.58) scale(.08 -.08)">
<defs>
<path id="s" d="m53.516 70.516v-9.625q-5.6094 2.6875-10.594 4-4.9844 1.3281-9.625 1.3281-8.0469 0-12.422-3.125t-4.375-8.8906q0-4.8438 2.9062-7.3125 2.9062-2.4531 11.016-3.9688l5.9531-1.2188q11.031-2.1094 16.281-7.4062t5.25-14.172q0-10.609-7.1094-16.078-7.0938-5.4688-20.812-5.4688-5.1719 0-11.016 1.1719-5.8281 1.1719-12.078 3.4688v10.156q6-3.3594 11.766-5.0781 5.7656-1.7031 11.328-1.7031 8.4375 0 13.031 3.3125 4.5938 3.3281 4.5938 9.4844 0 5.3594-3.2969 8.3906t-10.812 4.5469l-6.0156 1.1719q-11.031 2.1875-15.969 6.875-4.9219 4.6875-4.9219 13.047 0 9.6719 6.8125 15.234t18.766 5.5625q5.1406 0 10.453-0.9375 5.3281-0.92188 10.891-2.7656z"/>
</defs>
<use xlink:href="#s"/>
</g>
</g>
<path d="m59.464 164.08 1.8015-5.1675q0.79008-2.2662-1.4762-3.0563l-7.3109-2.5488q-2.2662-0.79008-3.0563 1.4762l-1.8015 5.1675q-0.79008 2.2662 1.4762 3.0563l7.3109 2.5488q2.2662 0.79008 3.0563-1.4762z" clip-path="url(#a)" fill="#fff" stroke="#fff"/>
<g clip-path="url(#a)">
<g transform="translate(55.627 162.74) rotate(-70.78) scale(.08 -.08)">
<use xlink:href="#n"/>
</g>
</g>
<path d="m67.605 186.13 0.94132 5.3909q0.41282 2.3642 2.777 1.9514l7.6271-1.3318q2.3642-0.41282 1.9514-2.777l-0.94132-5.3909q-0.41282-2.3642-2.777-1.9514l-7.6271 1.3318q-2.3642 0.41282-1.9514 2.777z" clip-path="url(#a)" fill="#fff" stroke="#fff"/>
<g clip-path="url(#a)">
<g transform="translate(71.608 185.43) rotate(80.095) scale(.08 -.08)">
<use xlink:href="#n"/>
</g>
</g>
<path d="m211.77 311.68v33.808q0 2.4 2.4 2.4h7.7425q2.4 0 2.4-2.4v-33.808q0-2.4-2.4-2.4h-7.7425q-2.4 0-2.4 2.4z" clip-path="url(#a)" fill="#fff" stroke="#fff"/>
<g clip-path="url(#a)">
<g transform="translate(215.84 311.68) rotate(90) scale(.08 -.08)">
<use xlink:href="#e"/>
<use x="44.083984" xlink:href="#l"/>
<use x="105.607422" xlink:href="#g"/>
<use x="144.970703" xlink:href="#i"/>
<use x="242.382812" xlink:href="#k"/>
<use x="270.166016" xlink:href="#h"/>
<use x="333.544922" xlink:href="#f"/>
<use x="394.824219" xlink:href="#j"/>
</g>
</g>
<path d="m260.96 311.68v33.808q0 2.4 2.4 2.4h7.7425q2.4 0 2.4-2.4v-33.808q0-2.4-2.4-2.4h-7.7425q-2.4 0-2.4 2.4z" clip-path="url(#a)" fill="#fff" stroke="#fff"/>
<g clip-path="url(#a)">
<g transform="translate(265.02 311.68) rotate(90) scale(.08 -.08)">
<use xlink:href="#e"/>
<use x="44.083984" xlink:href="#l"/>
<use x="105.607422" xlink:href="#g"/>
<use x="144.970703" xlink:href="#i"/>
<use x="242.382812" xlink:href="#k"/>
<use x="270.166016" xlink:href="#h"/>
<use x="333.544922" xlink:href="#f"/>
<use x="394.824219" xlink:href="#j"/>
</g>
</g>
<path d="m364.86 163.47 1.2925-4.887q0.61365-2.3202-1.7066-2.9339l-7.4851-1.9797q-2.3202-0.61365-2.9339 1.7066l-1.2925 4.887q-0.61365 2.3202 1.7066 2.9339l7.4851 1.9797q2.3202 0.61365 2.9339-1.7066z" clip-path="url(#a)" fill="#fff" stroke="#fff"/>
<g clip-path="url(#a)">
<g transform="translate(360.94 162.44) rotate(-75.186) scale(.08 -.08)">
<defs>
<path id="z" d="m9.8125 72.906h46.094v-8.3125h-36.234v-21.578h34.719v-8.2969h-34.719v-26.422h37.109v-8.2969h-46.969z"/>
</defs>
<use xlink:href="#z"/>
</g>
</g>
<path d="m367.89 185.8 0.73357 5.5379q0.31516 2.3792 2.6944 2.0641l7.6755-1.0167q2.3792-0.31516 2.0641-2.6944l-0.73357-5.5379q-0.31516-2.3792-2.6944-2.0641l-7.6755 1.0167q-2.3792 0.31516-2.0641 2.6944z" clip-path="url(#a)" fill="#fff" stroke="#fff"/>
<g clip-path="url(#a)">
<g transform="translate(371.92 185.26) rotate(82.454) scale(.08 -.08)">
<defs>
<path id="t" d="m64.406 67.281v-10.391q-4.9844 4.6406-10.625 6.9219-5.6406 2.2969-11.984 2.2969-12.5 0-19.141-7.6406t-6.6406-22.094q0-14.406 6.6406-22.047t19.141-7.6406q6.3438 0 11.984 2.2969t10.625 6.9375v-10.312q-5.1719-3.5156-10.969-5.2812-5.7812-1.75-12.219-1.75-16.562 0-26.094 10.125-9.5156 10.141-9.5156 27.672 0 17.578 9.5156 27.703 9.5312 10.141 26.094 10.141 6.5312 0 12.312-1.7344 5.7969-1.7344 10.875-5.2031z"/>
</defs>
<use xlink:href="#t"/>
</g>
</g>
<path d="m360.14 216.68 2.5656 4.8338q1.1252 2.1199 3.2451 0.99476l6.8389-3.6298q2.1199-1.1252 0.99476-3.2451l-2.5656-4.8338q-1.1252-2.1199-3.2451-0.99476l-6.8389 3.6298q-2.1199 1.1252-0.99476 3.2451z" clip-path="url(#a)" fill="#fff" stroke="#fff"/>
<g clip-path="url(#a)">
<g transform="translate(363.73 214.77) rotate(62.043) scale(.08 -.08)">
<use xlink:href="#n"/>
</g>
</g>
<path d="m342.31 248.39 1.3059-4.908q0.6171-2.3193-1.7022-2.9364l-7.4822-1.9908q-2.3193-0.6171-2.9364 1.7022l-1.3059 4.908q-0.6171 2.3193 1.7022 2.9364l7.4822 1.9908q2.3193 0.6171 2.9364-1.7022z" clip-path="url(#a)" fill="#fff" stroke="#fff"/>
<g clip-path="url(#a)">
<g transform="translate(338.39 247.34) rotate(-75.1) scale(.08 -.08)">
<use xlink:href="#s"/>
</g>
</g>
<path d="m375.59 266.01v13.246q0 2.4 2.4 2.4h8q2.4 0 2.4-2.4v-13.246q0-2.4-2.4-2.4h-8q-2.4 0-2.4 2.4z" clip-path="url(#a)" fill="#fff" stroke="#fff"/>
<g clip-path="url(#a)">
<g transform="translate(379.88 266.01) rotate(90) scale(.08 -.08)">
<defs>
<path id="az" d="m21 76.422v-100h-8.2969v100z"/>
</defs>
<use xlink:href="#n"/>
<use x="68.408203" xlink:href="#az"/>
<use x="102.099609" xlink:href="#s"/>
</g>
</g>
<path d="m375.72 311.68v33.808q0 2.4 2.4 2.4h7.7425q2.4 0 2.4-2.4v-33.808q0-2.4-2.4-2.4h-7.7425q-2.4 0-2.4 2.4z" clip-path="url(#a)" fill="#fff" stroke="#fff"/>
<g clip-path="url(#a)">
<g transform="translate(379.78 311.68) rotate(90) scale(.08 -.08)">
<use xlink:href="#e"/>
<use x="44.083984" xlink:href="#l"/>
<use x="105.607422" xlink:href="#g"/>
<use x="144.970703" xlink:href="#i"/>
<use x="242.382812" xlink:href="#k"/>
<use x="270.166016" xlink:href="#h"/>
<use x="333.544922" xlink:href="#f"/>
<use x="394.824219" xlink:href="#j"/>
</g>
</g>
<path d="m315.61 311.68v33.808q0 2.4 2.4 2.4h7.7425q2.4 0 2.4-2.4v-33.808q0-2.4-2.4-2.4h-7.7425q-2.4 0-2.4 2.4z" clip-path="url(#a)" fill="#fff" stroke="#fff"/>
<g clip-path="url(#a)">
<g transform="translate(319.67 311.68) rotate(90) scale(.08 -.08)">
<use xlink:href="#e"/>
<use x="44.083984" xlink:href="#l"/>
<use x="105.607422" xlink:href="#g"/>
<use x="144.970703" xlink:href="#i"/>
<use x="242.382812" xlink:href="#k"/>
<use x="270.166016" xlink:href="#h"/>
<use x="333.544922" xlink:href="#f"/>
<use x="394.824219" xlink:href="#j"/>
</g>
</g>
<path d="m48.561 219.13 0.3649-5.0418q0.17325-2.3937-2.2205-2.567l-7.7223-0.55891q-2.3937-0.17325-2.567 2.2205l-0.3649 5.0418q-0.17325 2.3937 2.2205 2.567l7.7223 0.55891q2.3937 0.17325 2.567-2.2205z" clip-path="url(#a)" fill="#fff" stroke="#fff"/>
<g clip-path="url(#a)">
<g transform="translate(44.508 218.83) rotate(-85.86) scale(.08 -.08)">
<use xlink:href="#z"/>
</g>
</g>
<path d="m40.219 241.76 0.20255 5.5826q0.087021 2.3984 2.4854 2.3114l7.7374-0.28073q2.3984-0.087021 2.3114-2.4854l-0.20255-5.5826q-0.087021-2.3984-2.4854-2.3114l-7.7374 0.28073q-2.3984 0.087021-2.3114 2.4854z" clip-path="url(#a)" fill="#fff" stroke="#fff"/>
<g clip-path="url(#a)">
<g transform="translate(44.28 241.61) rotate(87.922) scale(.08 -.08)">
<use xlink:href="#t"/>
</g>
</g>
<path d="m82.826 276.57 1.1914-4.9126q0.56565-2.3324-1.7667-2.898l-7.5244-1.8248q-2.3324-0.56565-2.898 1.7667l-1.1914 4.9126q-0.56565 2.3324 1.7667 2.898l7.5244 1.8248q2.3324 0.56565 2.898-1.7667z" clip-path="url(#a)" fill="#fff" stroke="#fff"/>
<g clip-path="url(#a)">
<g transform="translate(78.877 275.61) rotate(-76.368) scale(.08 -.08)">
<use xlink:href="#z"/>
</g>
</g>
<path d="m84.236 271.4 1.3166 5.4289q0.56565 2.3324 2.898 1.7667l7.5244-1.8248q2.3324-0.56565 1.7667-2.898l-1.3166-5.4289q-0.56565-2.3324-2.898-1.7667l-7.5244 1.8248q-2.3324 0.56565-1.7667 2.898z" clip-path="url(#a)" fill="#fff" stroke="#fff"/>
<g clip-path="url(#a)">
<g transform="translate(88.186 270.44) rotate(76.368) scale(.08 -.08)">
<use xlink:href="#t"/>
</g>
</g>
<path d="m64.225 311.68v33.808q0 2.4 2.4 2.4h7.7425q2.4 0 2.4-2.4v-33.808q0-2.4-2.4-2.4h-7.7425q-2.4 0-2.4 2.4z" clip-path="url(#a)" fill="#fff" stroke="#fff"/>
<g clip-path="url(#a)">
<g transform="translate(68.289 311.68) rotate(90) scale(.08 -.08)">
<use xlink:href="#e"/>
<use x="44.083984" xlink:href="#l"/>
<use x="105.607422" xlink:href="#g"/>
<use x="144.970703" xlink:href="#i"/>
<use x="242.382812" xlink:href="#k"/>
<use x="270.166016" xlink:href="#h"/>
<use x="333.544922" xlink:href="#f"/>
<use x="394.824219" xlink:href="#j"/>
</g>
</g>
<path d="m91.549 311.68v33.808q0 2.4 2.4 2.4h7.7425q2.4 0 2.4-2.4v-33.808q0-2.4-2.4-2.4h-7.7425q-2.4 0-2.4 2.4z" clip-path="url(#a)" fill="#fff" stroke="#fff"/>
<g clip-path="url(#a)">
<g transform="translate(95.613 311.68) rotate(90) scale(.08 -.08)">
<use xlink:href="#e"/>
<use x="44.083984" xlink:href="#l"/>
<use x="105.607422" xlink:href="#g"/>
<use x="144.970703" xlink:href="#i"/>
<use x="242.382812" xlink:href="#k"/>
<use x="270.166016" xlink:href="#h"/>
<use x="333.544922" xlink:href="#f"/>
<use x="394.824219" xlink:href="#j"/>
</g>
</g>
<path d="m37.938 270.83 0.78801 5.4155q0.34559 2.375 2.7206 2.0294l7.6618-1.1149q2.375-0.34559 2.0294-2.7206l-0.78801-5.4155q-0.34559-2.375-2.7206-2.0294l-7.6618 1.1149q-2.375 0.34559-2.0294 2.7206z" clip-path="url(#a)" fill="#fff" stroke="#fff"/>
<g clip-path="url(#a)">
<g transform="translate(41.96 270.25) rotate(81.721) scale(.08 -.08)">
<use xlink:href="#n"/>
</g>
</g>
<path d="m42.181 276.05 0.73131-5.0258q0.34559-2.375-2.0294-2.7206l-7.6618-1.1149q-2.375-0.34559-2.7206 2.0294l-0.73131 5.0258q-0.34559 2.375 2.0294 2.7206l7.6618 1.1149q2.375 0.34559 2.7206-2.0294z" clip-path="url(#a)" fill="#fff" stroke="#fff"/>
<g clip-path="url(#a)">
<g transform="translate(38.16 275.47) rotate(-81.721) scale(.08 -.08)">
<use xlink:href="#s"/>
</g>
</g>
<path d="m42.366 311.68v33.808q0 2.4 2.4 2.4h7.7425q2.4 0 2.4-2.4v-33.808q0-2.4-2.4-2.4h-7.7425q-2.4 0-2.4 2.4z" clip-path="url(#a)" fill="#fff" stroke="#fff"/>
<g clip-path="url(#a)">
<g transform="translate(46.429 311.68) rotate(90) scale(.08 -.08)">
<use xlink:href="#e"/>
<use x="44.083984" xlink:href="#l"/>
<use x="105.607422" xlink:href="#g"/>
<use x="144.970703" xlink:href="#i"/>
<use x="242.382812" xlink:href="#k"/>
<use x="270.166016" xlink:href="#h"/>
<use x="333.544922" xlink:href="#f"/>
<use x="394.824219" xlink:href="#j"/>
</g>
</g>
<path d="m25.971 311.68v33.808q0 2.4 2.4 2.4h7.7425q2.4 0 2.4-2.4v-33.808q0-2.4-2.4-2.4h-7.7425q-2.4 0-2.4 2.4z" clip-path="url(#a)" fill="#fff" stroke="#fff"/>
<g clip-path="url(#a)">
<g transform="translate(30.035 311.68) rotate(90) scale(.08 -.08)">
<use xlink:href="#e"/>
<use x="44.083984" xlink:href="#l"/>
<use x="105.607422" xlink:href="#g"/>
<use x="144.970703" xlink:href="#i"/>
<use x="242.382812" xlink:href="#k"/>
<use x="270.166016" xlink:href="#h"/>
<use x="333.544922" xlink:href="#f"/>
<use x="394.824219" xlink:href="#j"/>
</g>
</g>
<path d="m129.8 311.68v33.808q0 2.4 2.4 2.4h7.7425q2.4 0 2.4-2.4v-33.808q0-2.4-2.4-2.4h-7.7425q-2.4 0-2.4 2.4z" clip-path="url(#a)" fill="#fff" stroke="#fff"/>
<g clip-path="url(#a)">
<g transform="translate(133.87 311.68) rotate(90) scale(.08 -.08)">
<use xlink:href="#e"/>
<use x="44.083984" xlink:href="#l"/>
<use x="105.607422" xlink:href="#g"/>
<use x="144.970703" xlink:href="#i"/>
<use x="242.382812" xlink:href="#k"/>
<use x="270.166016" xlink:href="#h"/>
<use x="333.544922" xlink:href="#f"/>
<use x="394.824219" xlink:href="#j"/>
</g>
</g>
<path d="m168.06 311.68v33.808q0 2.4 2.4 2.4h7.7425q2.4 0 2.4-2.4v-33.808q0-2.4-2.4-2.4h-7.7425q-2.4 0-2.4 2.4z" clip-path="url(#a)" fill="#fff" stroke="#fff"/>
<g clip-path="url(#a)">
<g transform="translate(172.12 311.68) rotate(90) scale(.08 -.08)">
<use xlink:href="#e"/>
<use x="44.083984" xlink:href="#l"/>
<use x="105.607422" xlink:href="#g"/>
<use x="144.970703" xlink:href="#i"/>
<use x="242.382812" xlink:href="#k"/>
<use x="270.166016" xlink:href="#h"/>
<use x="333.544922" xlink:href="#f"/>
<use x="394.824219" xlink:href="#j"/>
</g>
</g>
<path d="m441.3 311.68v33.808q0 2.4 2.4 2.4h7.7425q2.4 0 2.4-2.4v-33.808q0-2.4-2.4-2.4h-7.7425q-2.4 0-2.4 2.4z" clip-path="url(#a)" fill="#fff" stroke="#fff"/>
<g clip-path="url(#a)">
<g transform="translate(445.36 311.68) rotate(90) scale(.08 -.08)">
<use xlink:href="#e"/>
<use x="44.083984" xlink:href="#l"/>
<use x="105.607422" xlink:href="#g"/>
<use x="144.970703" xlink:href="#i"/>
<use x="242.382812" xlink:href="#k"/>
<use x="270.166016" xlink:href="#h"/>
<use x="333.544922" xlink:href="#f"/>
<use x="394.824219" xlink:href="#j"/>
</g>
</g>
<path d="m670.82 311.68v33.808q0 2.4 2.4 2.4h7.7425q2.4 0 2.4-2.4v-33.808q0-2.4-2.4-2.4h-7.7425q-2.4 0-2.4 2.4z" clip-path="url(#a)" fill="#fff" stroke="#fff"/>
<g clip-path="url(#a)">
<g transform="translate(674.88 311.68) rotate(90) scale(.08 -.08)">
<use xlink:href="#e"/>
<use x="44.083984" xlink:href="#l"/>
<use x="105.607422" xlink:href="#g"/>
<use x="144.970703" xlink:href="#i"/>
<use x="242.382812" xlink:href="#k"/>
<use x="270.166016" xlink:href="#h"/>
<use x="333.544922" xlink:href="#f"/>
<use x="394.824219" xlink:href="#j"/>
</g>
</g>
<defs>
<path id="b" d="m0 8.6603c2.2967 0 4.4997-0.9125 6.1237-2.5365 1.624-1.624 2.5365-3.827 2.5365-6.1237s-0.9125-4.4997-2.5365-6.1237c-1.624-1.624-3.827-2.5365-6.1237-2.5365s-4.4997 0.9125-6.1237 2.5365c-1.624 1.624-2.5365 3.827-2.5365 6.1237s0.9125 4.4997 2.5365 6.1237c1.624 1.624 3.827 2.5365 6.1237 2.5365z"/>
</defs>
<g clip-path="url(#a)" fill="#ffffff" stroke="#ffffff">
<use x="32.242424" y="356.363636" xlink:href="#b"/>
<use x="48.636877" y="356.363636" xlink:href="#b"/>
<use x="70.496148" y="356.363636" xlink:href="#b"/>
<use x="97.820236" y="356.363636" xlink:href="#b"/>
<use x="136.07396" y="356.363636" xlink:href="#b"/>
<use x="174.327684" y="356.363636" xlink:href="#b"/>
<use x="218.046225" y="356.363636" xlink:href="#b"/>
<use x="267.229584" y="356.363636" xlink:href="#b"/>
<use x="321.877761" y="356.363636" xlink:href="#b"/>
<use x="381.990755" y="356.363636" xlink:href="#b"/>
<use x="447.568567" y="356.363636" xlink:href="#b"/>
<use x="518.611197" y="356.363636" xlink:href="#b"/>
<use x="595.118644" y="356.363636" xlink:href="#b"/>
<use x="677.090909" y="356.363636" xlink:href="#b"/>
<use x="103.285054" y="187.838849" xlink:href="#b"/>
<use x="364.287023" y="16.969697" xlink:href="#b"/>
<use x="204.498031" y="74.050541" xlink:href="#b"/>
<use x="524.076014" y="244.468395" xlink:href="#b"/>
<use x="518.611197" y="300.802474" xlink:href="#b"/>
<use x="595.118644" y="300.802474" xlink:href="#b"/>
<use x="64.348228" y="131.016569" xlink:href="#b"/>
<use x="218.046225" y="300.802474" xlink:href="#b"/>
<use x="267.229584" y="300.802474" xlink:href="#b"/>
<use x="366.962506" y="131.016569" xlink:href="#b"/>
<use x="351.934258" y="187.838849" xlink:href="#b"/>
<use x="381.990755" y="244.468395" xlink:href="#b"/>
<use x="381.990755" y="300.802474" xlink:href="#b"/>
<use x="321.877761" y="300.802474" xlink:href="#b"/>
<use x="44.538264" y="187.838849" xlink:href="#b"/>
<use x="84.158192" y="244.468395" xlink:href="#b"/>
<use x="70.496148" y="300.802474" xlink:href="#b"/>
<use x="97.820236" y="300.802474" xlink:href="#b"/>
<use x="40.439651" y="244.468395" xlink:href="#b"/>
<use x="48.636877" y="300.802474" xlink:href="#b"/>
<use x="32.242424" y="300.802474" xlink:href="#b"/>
<use x="136.07396" y="300.802474" xlink:href="#b"/>
<use x="174.327684" y="300.802474" xlink:href="#b"/>
<use x="447.568567" y="300.802474" xlink:href="#b"/>
<use x="677.090909" y="300.802474" xlink:href="#b"/>
</g>
<g clip-path="url(#a)">
<g transform="translate(5.8659 359.12) scale(.1 -.1)">
<defs>
<path id="bh" d="m64.406 67.281v-10.391q-4.9844 4.6406-10.625 6.9219-5.6406 2.2969-11.984 2.2969-12.5 0-19.141-7.6406t-6.6406-22.094q0-14.406 6.6406-22.047t19.141-7.6406q6.3438 0 11.984 2.2969t10.625 6.9375v-10.312q-5.1719-3.5156-10.969-5.2812-5.7812-1.75-12.219-1.75-16.562 0-26.094 10.125-9.5156 10.141-9.5156 27.672 0 17.578 9.5156 27.703 9.5312 10.141 26.094 10.141 6.5312 0 12.312-1.7344 5.7969-1.7344 10.875-5.2031z"/>
<path id="ad" d="m2.9375 54.688h52.391v-7.1719h-21.781v-47.516h-8.8438v47.516h-21.766z"/>
<path id="p" d="m18.109 8.2031v-29h-9.0312v75.484h9.0312v-8.2969q2.8438 4.875 7.1562 7.2344 4.3281 2.375 10.328 2.375 9.9688 0 16.188-7.9062 6.2344-7.9062 6.2344-20.797t-6.2344-20.812q-6.2188-7.9062-16.188-7.9062-6 0-10.328 2.375-4.3125 2.375-7.1562 7.25zm30.578 19.094q0 9.9062-4.0781 15.547t-11.203 5.6406q-7.1406 0-11.219-5.6406t-4.0781-15.547 4.0781-15.547 11.219-5.6406q7.125 0 11.203 5.6406t4.0781 15.547z"/>
<path id="o" d="m34.281 27.484q-10.891 0-15.094-2.4844t-4.2031-8.5q0-4.7812 3.1562-7.5938 3.1562-2.7969 8.5625-2.7969 7.4844 0 12 5.2969t4.5156 14.078v2zm17.922 3.7188v-31.203h-8.9844v8.2969q-3.0781-4.9688-7.6719-7.3438t-11.234-2.375q-8.3906 0-13.359 4.7188-4.9531 4.7188-4.9531 12.625 0 9.2188 6.1719 13.906 6.1875 4.6875 18.438 4.6875h12.609v0.89062q0 6.2031-4.0781 9.5938t-11.453 3.3906q-4.6875 0-9.1406-1.125-4.4375-1.125-8.5312-3.375v8.3125q4.9219 1.9062 9.5625 2.8438 4.6406 0.95312 9.0312 0.95312 11.875 0 17.734-6.1562 5.8594-6.1406 5.8594-18.641z"/>
<path id="q" d="m9.0781 54.688h9.0312v-22.312h29.156v22.312h9.0312v-54.688h-9.0312v25.203h-29.156v-25.203h-9.0312z"/>
<path id="ap" d="m61.047 54.688h8.9844v-54.688h-8.9844zm4.5 1.3125m-22.094-39.781q0 4.3906-3.2031 6.6875-3.1875 2.2969-9.3438 2.2969h-12.797v-18.031h12.797q6.1562 0 9.3438 2.3125 3.2031 2.3281 3.2031 6.7344zm-34.375 38.469h9.0312v-22.312h13.188q10.453 0 16.094-3.9844 5.6406-3.9688 5.6406-12.172t-5.6406-12.219q-5.6406-4-16.094-4h-22.219z"/>
<path id="ar" d="m55.906 54.688v-54.688h-8.9375v43.891l-26.359-43.891h-11.531v54.688h8.9375v-43.797l26.328 43.797zm-38.688 20.828h5.7656q0.53125-3.6562 2.8906-5.5 2.375-1.8281 6.625-1.8281 4.2031 0 6.5469 1.8125t2.9688 5.5156h5.7656q-0.48438-6.9844-4.3438-10.5t-10.938-3.5156-10.938 3.5156-4.3438 10.5z"/>
</defs>
<use xlink:href="#bh"/>
<use x="69.824219" xlink:href="#ad"/>
<use x="128.076172" xlink:href="#p"/>
<use x="191.552734" xlink:href="#o"/>
<use x="252.832031" xlink:href="#q"/>
<use x="318.212891" xlink:href="#q"/>
<use x="383.59375" xlink:href="#ap"/>
<use x="462.548828" xlink:href="#ar"/>
</g>
</g>
<g clip-path="url(#a)">
<g transform="translate(32.613 359.12) scale(.1 -.1)">
<defs>
<path id="u" d="m30.609 48.391q-7.2188 0-11.422-5.6406t-4.2031-15.453 4.1719-15.453q4.1875-5.6406 11.453-5.6406 7.1875 0 11.375 5.6562 4.2031 5.6719 4.2031 15.438 0 9.7188-4.2031 15.406-4.1875 5.6875-11.375 5.6875zm0 7.6094q11.719 0 18.406-7.625 6.7031-7.6094 6.7031-21.078 0-13.422-6.7031-21.078-6.6875-7.6406-18.406-7.6406-11.766 0-18.438 7.6406-6.6562 7.6562-6.6562 21.078 0 13.469 6.6562 21.078 6.6719 7.625 18.438 7.625z"/>
<path id="at" d="m21.625 7.1719h26.078v40.344h-18.891v-6.8438q0-20.109-5.7656-30.859zm-13.031 0q4.4375 1.9531 6.3906 6.1094 4.7969 10.297 4.7969 31.062v10.344h36.953v-47.516h7.1875v-20.984h-7.1875v13.812h-44.328v-13.812h-7.1875v20.984z"/>
</defs>
<use xlink:href="#q"/>
<use x="65.380859" xlink:href="#o"/>
<use x="126.660156" xlink:href="#p"/>
<use x="190.136719" xlink:href="#u"/>
<use x="251.318359" xlink:href="#at"/>
</g>
</g>
<g clip-path="url(#a)">
<g transform="translate(61.59 359.12) scale(.1 -.1)">
<defs>
<path id="bb" d="m5.5156 10.406q7.7188-4.2031 15.391-4.2031 7.1719 0 12.297 4.1719t6.0625 14.828h-27.734v7.1719h27.438q-0.59375 5.125-4.4844 10.562-3.875 5.4531-13.578 5.4531-7.5312 0-15.391-4.2031v8.4062q7.6719 3.4062 15.781 3.4062 12.781 0 20.125-7.7344 7.3594-7.7344 7.3594-20.969 0-13.188-7.1562-20.953t-19.703-7.7656q-9.2188 0-16.406 3.5156z"/>
<path id="ag" d="m55.906 54.688v-54.688h-8.9375v43.891l-26.359-43.891h-11.531v54.688h8.9375v-43.797l26.328 43.797z"/>
</defs>
<use xlink:href="#bb"/>
<use x="54.882812" xlink:href="#ad"/>
<use x="113.134766" xlink:href="#ag"/>
</g>
</g>
<g clip-path="url(#a)">
<g transform="translate(73.012 359.12) scale(.1 -.1)">
<defs>
<path id="bf" d="m18.062 25.203v-18.031h12.797q6.1562 0 9.375 2.3125 3.2188 2.3281 3.2188 6.7344 0 4.3906-3.2188 6.6875t-9.375 2.2969zm0 22.312v-15.141h11.828q5.0781 0 8.2969 2.0156 3.2188 2.0312 3.2188 5.6562 0 3.6094-3.2188 5.5312-3.2188 1.9375-8.2969 1.9375zm-8.9844 7.1719h21.391q9.625 0 14.797-3.5156t5.1719-10.016q0-5.0156-2.6406-7.9844-2.625-2.9531-7.8125-3.6719 6.2031-1.1719 9.625-4.8906 3.4219-3.7031 3.4219-9.2812 0-7.3125-5.6406-11.328-5.6406-4-16.094-4h-22.219z"/>
<path id="as" d="m34.469 29.5q6.0625-1.1719 9.4219-4.75 3.375-3.5625 3.375-8.8281 0-8.4531-6.2969-12.906-6.2969-4.4375-17.922-4.4375-3.9062 0-8.0312 0.6875t-8.5156 2.0469v8.3594q3.4688-1.8125 7.6094-2.7188 4.1562-0.89062 8.6875-0.89062 7.375 0 11.5 2.7344t4.125 7.125q0 4.2969-3.6562 6.9062t-10.344 2.6094h-7.2344v7.4219h7.5625q5.6719 0 8.9688 2.1719t3.2969 5.5938q0 3.125-3.4062 5.375-3.3906 2.25-9.1875 2.25-3.4688 0-7.4062-0.64062-3.9219-0.64062-8.6719-2.0469v8.1562q4.7969 1.1719 8.9375 1.75 4.1562 0.59375 7.8594 0.59375 9.5781 0 15.109-3.8438 5.5469-3.8281 5.5469-10.719 0-4.5312-2.9375-7.6875-2.9219-3.1406-8.3906-4.3125z"/>
<path id="ae" d="m48.781 52.594v-8.4062q-3.8125 2.1094-7.6406 3.1562t-7.7344 1.0469q-8.75 0-13.594-5.5469-4.8281-5.5312-4.8281-15.547t4.8281-15.562q4.8438-5.5312 13.594-5.5312 3.9062 0 7.7344 1.0469t7.6406 3.1562v-8.3125q-3.7656-1.75-7.7969-2.625-4.0156-0.89062-8.5625-0.89062-12.359 0-19.641 7.7656-7.2656 7.7656-7.2656 20.953 0 13.375 7.3438 21.031 7.3594 7.6719 20.156 7.6719 4.1406 0 8.0938-0.85938 3.9531-0.84375 7.6719-2.5469z"/>
<path id="v" d="m3.7188 0v7.4688q8.875 1.375 11.609 7.5156 3.3281 8.6562 3.3281 30.766v8.9375h36.953v-54.688h-8.9844v47.516h-18.984v-5.4219q0-21.094-4.2969-30.562-4.5938-10.109-19.625-11.531z"/>
<path id="w" d="m56.203 29.594v-4.3906h-41.312q0.59375-9.2812 5.5938-14.141t13.938-4.8594q5.1719 0 10.031 1.2656t9.6562 3.8125v-8.5q-4.8438-2.0469-9.9219-3.125t-10.297-1.0781q-13.094 0-20.734 7.6094-7.6406 7.625-7.6406 20.625 0 13.422 7.25 21.297 7.25 7.8906 19.562 7.8906 11.031 0 17.453-7.1094 6.4219-7.0938 6.4219-19.297zm-8.9844 2.6406q-0.09375 7.3594-4.125 11.75-4.0312 4.4062-10.672 4.4062-7.5156 0-12.031-4.25t-5.2031-11.969z"/>
</defs>
<use xlink:href="#bf"/>
<use x="58.935547" xlink:href="#as"/>
<use x="112.109375" xlink:href="#p"/>
<use x="175.585938" xlink:href="#u"/>
<use x="236.767578" xlink:href="#ae"/>
<use x="291.748047" xlink:href="#v"/>
<use x="355.664062" xlink:href="#ap"/>
<use x="434.619141" xlink:href="#w"/>
</g>
</g>
<g clip-path="url(#a)">
<g transform="translate(132.18 359.12) scale(.1 -.1)">
<defs>
<path id="ay" d="m17.922 72.906v-27.109h-8.2969v27.109zm18.453 0v-27.109h-8.2969v27.109z"/>
<path id="an" d="m11.719 12.406h10.297v-8.4062l-8-15.625h-6.2969l4 15.625z"/>
</defs>
<use xlink:href="#ay"/>
<use x="45.996094" xlink:href="#an"/>
</g>
</g>
<g clip-path="url(#a)">
<g transform="translate(172.52 359.12) scale(.1 -.1)">
<defs>
<path id="ax" d="m4.8906 31.391h26.312v-8h-26.312z"/>
</defs>
<use xlink:href="#ax"/>
</g>
</g>
<g clip-path="url(#a)">
<g transform="translate(200.29 359.12) scale(.1 -.1)">
<defs>
<path id="aq" d="m9.0781 54.688h8.9375v-25.688l25.344 25.688h11.031l-20.891-21.141 23.578-33.547h-10.062l-19.375 27.594-9.625-9.7656v-17.828h-8.9375z"/>
</defs>
<use xlink:href="#ae"/>
<use x="54.980469" xlink:href="#aq"/>
<use x="115.380859" xlink:href="#o"/>
<use x="176.660156" xlink:href="#as"/>
<use x="229.833984" xlink:href="#o"/>
<use x="291.113281" xlink:href="#v"/>
</g>
</g>
<g clip-path="url(#a)">
<g transform="translate(255.24 359.12) scale(.1 -.1)">
<defs>
<path id="bg" d="m31.109 56q11.719 0 18.406-7.625 6.6875-7.6094 6.6875-21.078 0-13.422-6.6875-21.078-6.6875-7.6406-18.406-7.6406-11.766 0-18.266 7.4219t-6.8438 21.297l-0.28125 11.188q-0.25 5.7969-0.25 7.8125 0 7.8125 2.8281 13.562 4.4531 9.0312 12.141 12.938t20.578 4.0156q5.9531 0.046875 8.5938 0.875l2.4844-7.125q-2.3906-0.98438-4.5781-1.0312l-12.219-0.82812q-6.1406-0.4375-9.8594-2.5938-9.7188-5.7031-10.641-13.172l-0.34375-2.7344q6.3438 5.7969 16.656 5.7969zm0-7.6094q-7.2344 0-11.438-5.6406-4.1875-5.6406-4.1875-15.453t4.1719-15.453 11.453-5.6406q7.1719 0 11.375 5.6562 4.2031 5.6719 4.2031 15.438 0 9.7188-4.2031 15.406t-11.375 5.6875z"/>
</defs>
<use xlink:href="#ae"/>
<use x="54.980469" xlink:href="#w"/>
<use x="116.503906" xlink:href="#bg"/>
<use x="178.173828" xlink:href="#w"/>
</g>
</g>
<g clip-path="url(#a)">
<g transform="translate(292.49 359.12) scale(.1 -.1)">
<defs>
<path id="bi" d="m9.8125 72.906h14.703l18.594-49.609 18.703 49.609h14.703v-72.906h-9.625v64.016l-18.797-50h-9.9062l-18.797 50v-64.016h-9.5781z"/>
<path id="ao" d="m43.453 16.219q0 4.3906-3.2031 6.6875-3.1875 2.2969-9.3438 2.2969h-12.797v-18.031h12.797q6.1562 0 9.3438 2.3125 3.2031 2.3281 3.2031 6.7344zm-34.375 38.469h9.0312v-22.312h13.188q10.453 0 16.094-3.9844 5.6406-3.9688 5.6406-12.172t-5.6406-12.219q-5.6406-4-16.094-4h-22.219z"/>
</defs>
<use xlink:href="#bi"/>
<use x="86.279297" xlink:href="#o"/>
<use x="147.558594" xlink:href="#v"/>
<use x="211.474609" xlink:href="#w"/>
<use x="272.998047" xlink:href="#q"/>
<use x="338.378906" xlink:href="#ao"/>
<use x="397.314453" xlink:href="#aq"/>
<use x="457.714844" xlink:href="#ag"/>
<use x="522.705078" xlink:href="#ar"/>
</g>
</g>
<g clip-path="url(#a)">
<g transform="translate(365.63 359.12) scale(.1 -.1)">
<defs>
<path id="af" d="m56.297 54.688v-54.688h-9.0312v47.516h-29.156v-47.516h-9.0312v54.688z"/>
<path id="bc" d="m56.297 0h-47.219v54.688h9.0312v-47.516h29.156v47.516h9.0312v-47.516h7.1875v-20.984h-7.1875z"/>
</defs>
<use xlink:href="#af"/>
<use x="65.380859" xlink:href="#p"/>
<use x="128.857422" xlink:href="#ag"/>
<use x="193.847656" xlink:href="#q"/>
<use x="259.228516" xlink:href="#bc"/>
</g>
</g>
<g clip-path="url(#a)">
<g transform="translate(445.98 359.12) scale(.1 -.1)">
<use xlink:href="#an"/>
</g>
</g>
<g clip-path="url(#a)">
<g transform="translate(488.82 359.12) scale(.1 -.1)">
<defs>
<path id="be" d="m40.578 54.688h8.9375v-25.688l23.875 25.688h10.453l-19.641-21.047 22.469-33.641h-9.625l-18.406 27.641-9.125-9.8125v-17.828h-8.9375v17.828l-9.125 9.8125-18.422-27.641h-9.6094l22.453 33.641-19.625 21.047h10.453l23.875-25.688z"/>
<path id="ba" d="m18.453 38.922q0-4.0625 3.125-6.3594 3.125-2.2812 8.9375-2.2812h12.109v17.234h-12.109q-5.8125 0-8.9375-2.25t-3.125-6.3438zm-12.781-38.922 16.688 23.969q-5.6562 1.2812-9.4219 4.625-3.75 3.3438-3.75 10.328 0 7.9062 5.2344 11.828 5.25 3.9375 15.859 3.9375h21.375v-54.688h-9.0312v23.094h-11.172l-16.125-23.094z"/>
</defs>
<use xlink:href="#af"/>
<use x="65.380859" xlink:href="#p"/>
<use x="128.857422" xlink:href="#u"/>
<use x="190.039062" xlink:href="#at"/>
<use x="259.179688" xlink:href="#u"/>
<use x="320.361328" xlink:href="#v"/>
<use x="384.277344" xlink:href="#be"/>
<use x="474.365234" xlink:href="#o"/>
<use x="535.644531" xlink:href="#ba"/>
</g>
</g>
<g clip-path="url(#a)">
<g transform="translate(583.03 359.12) scale(.1 -.1)">
<defs>
<path id="bd" d="m32.172-5.0781q-3.7969-9.7656-7.4219-12.734-3.6094-2.9844-9.6562-2.9844h-7.1875v7.5156h5.2812q3.7031 0 5.75 1.7656 2.0625 1.75 4.5469 8.2969l1.6094 4.0938-22.109 53.812h9.5156l17.094-42.766 17.094 42.766h9.5156z"/>
</defs>
<use xlink:href="#af"/>
<use x="65.380859" xlink:href="#bd"/>
<use x="124.560547" xlink:href="#ad"/>
<use x="182.8125" xlink:href="#ao"/>
</g>
</g>
<g clip-path="url(#a)">
<g transform="translate(675.5 359.12) scale(.1 -.1)">
<defs>
<path id="d" d="m10.688 12.406h10.312v-12.406h-10.312z"/>
</defs>
<use xlink:href="#d"/>
</g>
</g>
<g clip-path="url(#a)">
<g transform="translate(82.2 190.6) scale(.1 -.1)">
<defs>
<path id="y" d="m9.8125 72.906h9.8594v-72.906h-9.8594z"/>
<path id="au" d="m9.8125 72.906h14.703l18.594-49.609 18.703 49.609h14.703v-72.906h-9.625v64.016l-18.797-50h-9.9062l-18.797 50v-64.016h-9.5781z"/>
<path id="av" d="m9.8125 72.906h9.8594v-64.609h35.5v-8.2969h-45.359z"/>
</defs>
<use xlink:href="#y"/>
<use x="29.492188" xlink:href="#au"/>
<use x="115.771484" xlink:href="#x"/>
<use x="176.074219" xlink:href="#av"/>
<use x="231.787109" xlink:href="#y"/>
<use x="261.279297" xlink:href="#t"/>
<use x="331.103516" xlink:href="#y"/>
<use x="360.595703" xlink:href="#e"/>
</g>
</g>
<g clip-path="url(#a)">
<g transform="translate(356.34 19.729) scale(.1 -.1)">
<defs>
<path id="c" d="m12.406 8.2969h16.109v55.625l-17.531-3.5156v8.9844l17.438 3.5156h9.8594v-64.609h16.109v-8.2969h-41.984z"/>
</defs>
<use xlink:href="#c"/>
<use x="63.623047" xlink:href="#d"/>
<use x="95.410156" xlink:href="#c"/>
</g>
</g>
<g clip-path="url(#a)">
<g transform="translate(196.55 76.81) scale(.1 -.1)">
<defs>
<path id="m" d="m19.188 8.2969h34.422v-8.2969h-46.281v8.2969q5.6094 5.8125 15.297 15.594 9.7031 9.7969 12.188 12.641 4.7344 5.3125 6.6094 9 1.8906 3.6875 1.8906 7.25 0 5.8125-4.0781 9.4688-4.0781 3.6719-10.625 3.6719-4.6406 0-9.7969-1.6094-5.1406-1.6094-11-4.8906v9.9688q5.9531 2.3906 11.125 3.6094 5.1875 1.2188 9.4844 1.2188 11.328 0 18.062-5.6719 6.7344-5.6562 6.7344-15.125 0-4.5-1.6875-8.5312-1.6719-4.0156-6.125-9.4844-1.2188-1.4219-7.7656-8.1875-6.5312-6.7656-18.453-18.922z"/>
</defs>
<use xlink:href="#c"/>
<use x="63.623047" xlink:href="#d"/>
<use x="95.410156" xlink:href="#m"/>
</g>
</g>
<g clip-path="url(#a)">
<g transform="translate(516.12 247.23) scale(.1 -.1)">
<defs>
<path id="al" d="m40.578 39.312q7.0781-1.5156 11.047-6.3125 3.9844-4.7812 3.9844-11.812 0-10.781-7.4219-16.703-7.4219-5.9062-21.094-5.9062-4.5781 0-9.4375 0.90625t-10.031 2.7188v9.5156q4.0938-2.3906 8.9688-3.6094 4.8906-1.2188 10.219-1.2188 9.2656 0 14.125 3.6562t4.8594 10.641q0 6.4531-4.5156 10.078-4.5156 3.6406-12.562 3.6406h-8.5v8.1094h8.8906q7.2656 0 11.125 2.9062t3.8594 8.375q0 5.6094-3.9844 8.6094-3.9688 3.0156-11.391 3.0156-4.0625 0-8.7031-0.89062-4.6406-0.875-10.203-2.7188v8.7812q5.625 1.5625 10.531 2.3438t9.25 0.78125q11.234 0 17.766-5.1094 6.5469-5.0938 6.5469-13.781 0-6.0625-3.4688-10.234t-9.8594-5.7812z"/>
</defs>
<use xlink:href="#c"/>
<use x="63.623047" xlink:href="#d"/>
<use x="95.410156" xlink:href="#al"/>
</g>
</g>
<g clip-path="url(#a)">
<g transform="translate(510.66 303.56) scale(.1 -.1)">
<defs>
<path id="ac" d="m37.797 64.312-24.906-38.922h24.906zm-2.5938 8.5938h12.406v-47.516h10.406v-8.2031h-10.406v-17.188h-9.8125v17.188h-32.906v9.5156z"/>
</defs>
<use xlink:href="#c"/>
<use x="63.623047" xlink:href="#d"/>
<use x="95.410156" xlink:href="#ac"/>
</g>
</g>
<g clip-path="url(#a)">
<g transform="translate(587.17 303.56) scale(.1 -.1)">
<defs>
<path id="ab" d="m10.797 72.906h38.719v-8.3125h-29.688v-17.859q2.1406 0.73438 4.2812 1.0938 2.1562 0.35938 4.3125 0.35938 12.203 0 19.328-6.6875 7.1406-6.6875 7.1406-18.109 0-11.766-7.3281-18.297-7.3281-6.5156-20.656-6.5156-4.5938 0-9.3594 0.78125-4.75 0.78125-9.8281 2.3438v9.9219q4.3906-2.3906 9.0781-3.5625t9.9062-1.1719q8.4531 0 13.375 4.4375 4.9375 4.4375 4.9375 12.062 0 7.6094-4.9375 12.047-4.9219 4.4531-13.375 4.4531-3.9531 0-7.8906-0.875-3.9219-0.875-8.0156-2.7344z"/>
</defs>
<use xlink:href="#c"/>
<use x="63.623047" xlink:href="#d"/>
<use x="95.410156" xlink:href="#ab"/>
</g>
</g>
<g clip-path="url(#a)">
<g transform="translate(56.397 133.78) scale(.1 -.1)">
<defs>
<path id="ai" d="m31.781 34.625q-7.0312 0-11.062-3.7656-4.0156-3.7656-4.0156-10.344 0-6.5938 4.0156-10.359 4.0312-3.7656 11.062-3.7656t11.078 3.7812q4.0625 3.7969 4.0625 10.344 0 6.5781-4.0312 10.344-4.0156 3.7656-11.109 3.7656zm-9.8594 4.1875q-6.3438 1.5625-9.8906 5.9062-3.5312 4.3594-3.5312 10.609 0 8.7344 6.2188 13.812 6.2344 5.0781 17.062 5.0781 10.891 0 17.094-5.0781t6.2031-13.812q0-6.25-3.5469-10.609-3.5312-4.3438-9.8281-5.9062 7.125-1.6562 11.094-6.5 3.9844-4.8281 3.9844-11.797 0-10.609-6.4688-16.281-6.4688-5.6562-18.531-5.6562-12.047 0-18.531 5.6562-6.4688 5.6719-6.4688 16.281 0 6.9688 4 11.797 4.0156 4.8438 11.141 6.5zm-3.6094 15.578q0-5.6562 3.5312-8.8281 3.5469-3.1719 9.9375-3.1719 6.3594 0 9.9375 3.1719 3.5938 3.1719 3.5938 8.8281 0 5.6719-3.5938 8.8438-3.5781 3.1719-9.9375 3.1719-6.3906 0-9.9375-3.1719-3.5312-3.1719-3.5312-8.8438z"/>
</defs>
<use xlink:href="#c"/>
<use x="63.623047" xlink:href="#d"/>
<use x="95.410156" xlink:href="#ai"/>
</g>
</g>
<g clip-path="url(#a)">
<g transform="translate(210.09 303.56) scale(.1 -.1)">
<defs>
<path id="aa" d="m10.984 1.5156v8.9844q3.7188-1.7656 7.5156-2.6875 3.8125-0.92188 7.4844-0.92188 9.7656 0 14.906 6.5625 5.1562 6.5625 5.8906 19.953-2.8281-4.2031-7.1875-6.4531-4.3438-2.25-9.6094-2.25-10.938 0-17.312 6.6094-6.375 6.625-6.375 18.109 0 11.219 6.6406 18 6.6406 6.7969 17.672 6.7969 12.656 0 19.312-9.7031 6.6719-9.6875 6.6719-28.141 0-17.234-8.1875-27.516-8.1719-10.281-21.984-10.281-3.7188 0-7.5312 0.73438-3.7969 0.73438-7.9062 2.2031zm19.625 30.906q6.6406 0 10.516 4.5312 3.8906 4.5469 3.8906 12.469 0 7.8594-3.8906 12.422-3.875 4.5625-10.516 4.5625t-10.516-4.5625-3.875-12.422q0-7.9219 3.875-12.469 3.875-4.5312 10.516-4.5312z"/>
</defs>
<use xlink:href="#c"/>
<use x="63.623047" xlink:href="#d"/>
<use x="95.410156" xlink:href="#aa"/>
</g>
</g>
<g clip-path="url(#a)">
<g transform="translate(256.1 303.56) scale(.1 -.1)">
<defs>
<path id="am" d="m31.781 66.406q-7.6094 0-11.453-7.5-3.8281-7.4844-3.8281-22.531 0-14.984 3.8281-22.484 3.8438-7.5 11.453-7.5 7.6719 0 11.5 7.5 3.8438 7.5 3.8438 22.484 0 15.047-3.8438 22.531-3.8281 7.5-11.5 7.5zm0 7.8125q12.266 0 18.734-9.7031 6.4688-9.6875 6.4688-28.141 0-18.406-6.4688-28.109-6.4688-9.6875-18.734-9.6875-12.25 0-18.719 9.6875-6.4688 9.7031-6.4688 28.109 0 18.453 6.4688 28.141 6.4688 9.7031 18.719 9.7031z"/>
</defs>
<use xlink:href="#c"/>
<use x="63.623047" xlink:href="#d"/>
<use x="95.410156" xlink:href="#c"/>
<use x="159.033203" xlink:href="#am"/>
</g>
</g>
<g clip-path="url(#a)">
<g transform="translate(355.83 133.78) scale(.1 -.1)">
<use xlink:href="#c"/>
<use x="63.623047" xlink:href="#d"/>
<use x="95.410156" xlink:href="#c"/>
<use x="159.033203" xlink:href="#c"/>
</g>
</g>
<g clip-path="url(#a)">
<g transform="translate(340.8 190.6) scale(.1 -.1)">
<use xlink:href="#c"/>
<use x="63.623047" xlink:href="#d"/>
<use x="95.410156" xlink:href="#c"/>
<use x="159.033203" xlink:href="#ac"/>
</g>
</g>
<g clip-path="url(#a)">
<g transform="translate(370.86 247.23) scale(.1 -.1)">
<use xlink:href="#c"/>
<use x="63.623047" xlink:href="#d"/>
<use x="95.410156" xlink:href="#c"/>
<use x="159.033203" xlink:href="#ab"/>
</g>
</g>
<g clip-path="url(#a)">
<g transform="translate(370.86 303.56) scale(.1 -.1)">
<defs>
<path id="ak" d="m33.016 40.375q-6.6406 0-10.531-4.5469-3.875-4.5312-3.875-12.438 0-7.8594 3.875-12.438 3.8906-4.5625 10.531-4.5625t10.516 4.5625q3.875 4.5781 3.875 12.438 0 7.9062-3.875 12.438-3.875 4.5469-10.516 4.5469zm19.578 30.922v-8.9844q-3.7188 1.75-7.5 2.6719-3.7812 0.9375-7.5 0.9375-9.7656 0-14.922-6.5938-5.1406-6.5938-5.875-19.922 2.875 4.25 7.2188 6.5156 4.3594 2.2656 9.5781 2.2656 10.984 0 17.359-6.6719 6.375-6.6562 6.375-18.125 0-11.234-6.6406-18.031-6.6406-6.7812-17.672-6.7812-12.656 0-19.344 9.6875-6.6875 9.7031-6.6875 28.109 0 17.281 8.2031 27.562t22.016 10.281q3.7188 0 7.5-0.73438t7.8906-2.1875z"/>
</defs>
<use xlink:href="#c"/>
<use x="63.623047" xlink:href="#d"/>
<use x="95.410156" xlink:href="#c"/>
<use x="159.033203" xlink:href="#ak"/>
</g>
</g>
<g clip-path="url(#a)">
<g transform="translate(310.74 303.56) scale(.1 -.1)">
<defs>
<path id="aj" d="m8.2031 72.906h46.875v-4.2031l-26.469-68.703h-10.297l24.906 64.594h-35.016z"/>
</defs>
<use xlink:href="#c"/>
<use x="63.623047" xlink:href="#d"/>
<use x="95.410156" xlink:href="#c"/>
<use x="159.033203" xlink:href="#aj"/>
</g>
</g>
<g clip-path="url(#a)">
<g transform="translate(33.405 190.6) scale(.1 -.1)">
<use xlink:href="#c"/>
<use x="63.623047" xlink:href="#d"/>
<use x="95.410156" xlink:href="#c"/>
<use x="159.033203" xlink:href="#aa"/>
</g>
</g>
<g clip-path="url(#a)">
<g transform="translate(73.025 247.23) scale(.1 -.1)">
<use xlink:href="#c"/>
<use x="63.623047" xlink:href="#d"/>
<use x="95.410156" xlink:href="#m"/>
<use x="159.033203" xlink:href="#am"/>
</g>
</g>
<g clip-path="url(#a)">
<g transform="translate(59.363 303.56) scale(.1 -.1)">
<use xlink:href="#c"/>
<use x="63.623047" xlink:href="#d"/>
<use x="95.410156" xlink:href="#m"/>
<use x="159.033203" xlink:href="#c"/>
</g>
</g>
<g clip-path="url(#a)">
<g transform="translate(86.687 303.56) scale(.1 -.1)">
<use xlink:href="#c"/>
<use x="63.623047" xlink:href="#d"/>
<use x="95.410156" xlink:href="#m"/>
<use x="159.033203" xlink:href="#m"/>
</g>
</g>
<g clip-path="url(#a)">
<g transform="translate(29.307 247.23) scale(.1 -.1)">
<use xlink:href="#c"/>
<use x="63.623047" xlink:href="#d"/>
<use x="95.410156" xlink:href="#m"/>
<use x="159.033203" xlink:href="#al"/>
</g>
</g>
<g clip-path="url(#a)">
<g transform="translate(37.504 303.56) scale(.1 -.1)">
<use xlink:href="#c"/>
<use x="63.623047" xlink:href="#d"/>
<use x="95.410156" xlink:href="#m"/>
<use x="159.033203" xlink:href="#ac"/>
</g>
</g>
<g clip-path="url(#a)">
<g transform="translate(21.11 303.56) scale(.1 -.1)">
<use xlink:href="#c"/>
<use x="63.623047" xlink:href="#d"/>
<use x="95.410156" xlink:href="#m"/>
<use x="159.033203" xlink:href="#ab"/>
</g>
</g>
<g clip-path="url(#a)">
<g transform="translate(124.94 303.56) scale(.1 -.1)">
<use xlink:href="#c"/>
<use x="63.623047" xlink:href="#d"/>
<use x="95.410156" xlink:href="#m"/>
<use x="159.033203" xlink:href="#ak"/>
</g>
</g>
<g clip-path="url(#a)">
<g transform="translate(163.19 303.56) scale(.1 -.1)">
<use xlink:href="#c"/>
<use x="63.623047" xlink:href="#d"/>
<use x="95.410156" xlink:href="#m"/>
<use x="159.033203" xlink:href="#aj"/>
</g>
</g>
<g clip-path="url(#a)">
<g transform="translate(436.44 303.56) scale(.1 -.1)">
<use xlink:href="#c"/>
<use x="63.623047" xlink:href="#d"/>
<use x="95.410156" xlink:href="#m"/>
<use x="159.033203" xlink:href="#ai"/>
</g>
</g>
<g clip-path="url(#a)">
<g transform="translate(665.96 303.56) scale(.1 -.1)">
<use xlink:href="#c"/>
<use x="63.623047" xlink:href="#d"/>
<use x="95.410156" xlink:href="#m"/>
<use x="159.033203" xlink:href="#aa"/>
</g>
</g>
<defs>
<clipPath id="a">
<rect width="709.33" height="373.33"/>
</clipPath>
</defs>
</svg>
