<?xml version="1.0" encoding="UTF-8"?>
<!DOCTYPE svg  PUBLIC '-//W3C//DTD SVG 1.1//EN'  'http://www.w3.org/Graphics/SVG/1.1/DTD/svg11.dtd'>
<svg width="608pt" height="320pt" version="1.1" viewBox="0 0 608 320" xmlns="http://www.w3.org/2000/svg" xmlns:xlink="http://www.w3.org/1999/xlink">
<metadata>
<rdf:RDF xmlns:cc="http://creativecommons.org/ns#" xmlns:dc="http://purl.org/dc/elements/1.1/" xmlns:rdf="http://www.w3.org/1999/02/22-rdf-syntax-ns#">
<cc:Work>
<dc:type rdf:resource="http://purl.org/dc/dcmitype/StillImage"/>
<dc:date>2021-01-21T01:17:52.013929</dc:date>
<dc:format>image/svg+xml</dc:format>
<dc:creator>
<cc:Agent>
<dc:title>Matplotlib v3.3.3, https://matplotlib.org/</dc:title>
</cc:Agent>
</dc:creator>
</cc:Work>
</rdf:RDF>
</metadata>
<defs>
<style type="text/css">*{stroke-linecap:butt;stroke-linejoin:round;}</style>
</defs>
<path d="m0 320h608v-320h-608z" fill="#fff"/>
<g fill="none" stroke="#000">
<path d="m224.09 14.545v58.701" clip-path="url(#a)"/>
<path d="m224.09 73.246 356.27 58.552" clip-path="url(#a)"/>
<path d="m224.09 73.246 356.27 58.552" clip-path="url(#a)"/>
<path d="m224.09 73.246v58.552" clip-path="url(#a)"/>
<path d="m224.09 131.8-148.4 58.354" clip-path="url(#a)"/>
<path d="m224.09 131.8 188.65 58.354" clip-path="url(#a)"/>
<path d="m224.09 131.8-40.253 116.4" clip-path="url(#a)"/>
<path d="m75.7 190.15 66.087 58.049" clip-path="url(#a)"/>
<path d="m75.7 190.15-48.063 58.049" clip-path="url(#a)"/>
<path d="m75.7 190.15-6.0079 58.049" clip-path="url(#a)"/>
<path d="m75.7 190.15 24.032 58.049" clip-path="url(#a)"/>
<path d="m75.7 190.15 60.079 58.049" clip-path="url(#a)"/>
<path d="m75.7 190.15-30.04 58.049" clip-path="url(#a)"/>
<path d="m412.74 190.15 167.62 58.049" clip-path="url(#a)"/>
<path d="m412.74 190.15-153.8 58.049" clip-path="url(#a)"/>
<path d="m412.74 190.15-66.688 58.049" clip-path="url(#a)"/>
<path d="m412.74 190.15-0.60079 58.049" clip-path="url(#a)"/>
<path d="m412.74 190.15 71.494 58.049" clip-path="url(#a)"/>
<path d="m412.74 190.15 149.6 58.049" clip-path="url(#a)"/>
<path d="m258.94 248.2-27.036 57.253" clip-path="url(#a)"/>
<path d="m258.94 248.2 27.036 57.253" clip-path="url(#a)"/>
<path d="m346.06 248.2v57.253" clip-path="url(#a)"/>
<path d="m412.14 248.2v57.253" clip-path="url(#a)"/>
<path d="m27.636 248.2v57.253" clip-path="url(#a)"/>
<path d="m69.692 248.2v57.253" clip-path="url(#a)"/>
<path d="m99.731 248.2v57.253" clip-path="url(#a)"/>
<path d="m135.78 248.2v57.253" clip-path="url(#a)"/>
<path d="m45.66 248.2v57.253" clip-path="url(#a)"/>
<path d="m183.84 248.2v57.253" clip-path="url(#a)"/>
<path d="m484.24 248.2v57.253" clip-path="url(#a)"/>
<path d="m562.34 248.2v57.253" clip-path="url(#a)"/>
</g>
<path d="m217.82 40.888v6.0162q0 2.4 2.4 2.4h7.7425q2.4 0 2.4-2.4v-6.0162q0-2.4-2.4-2.4h-7.7425q-2.4 0-2.4 2.4z" clip-path="url(#a)" fill="#fff" stroke="#fff"/>
<g clip-path="url(#a)">
<g transform="translate(221.89 40.888) rotate(90) scale(.08 -.08)">
<defs>
<path id="x" d="m9.8125 72.906h9.8594v-29.891h35.844v29.891h9.8594v-72.906h-9.8594v34.719h-35.844v-34.719h-9.8594z"/>
</defs>
<use xlink:href="#x"/>
</g>
</g>
<path d="m398.51 108.27 5.4001 0.88749q2.3682 0.38922 2.7574-1.979l1.2556-7.64q0.38922-2.3682-1.979-2.7574l-5.4001-0.88749q-2.3682-0.38922-2.7574 1.979l-1.2556 7.64q-0.38922 2.3682 1.979 2.7574z" clip-path="url(#a)" fill="#fff" stroke="#fff"/>
<g clip-path="url(#a)">
<g transform="translate(399.17 104.26) rotate(9.3331) scale(.08 -.08)">
<defs>
<path id="p" d="m34.188 63.188-13.391-36.281h26.812zm-5.5781 9.7188h11.188l27.781-72.906h-10.25l-6.6406 18.703h-32.859l-6.6406-18.703h-10.406z"/>
</defs>
<use xlink:href="#p"/>
</g>
</g>
<path d="m398.83 108.32 4.7599 0.78228q2.3682 0.38922 2.7574-1.979l1.2556-7.64q0.38922-2.3682-1.979-2.7574l-4.7599-0.78228q-2.3682-0.38922-2.7574 1.979l-1.2556 7.64q-0.38922 2.3682 1.979 2.7574z" clip-path="url(#a)" fill="#fff" stroke="#fff"/>
<g clip-path="url(#a)">
<g transform="translate(399.49 104.31) rotate(9.3331) scale(.08 -.08)">
<defs>
<path id="o" d="m19.672 64.797v-27.391h12.406q6.8906 0 10.641 3.5625 3.7656 3.5625 3.7656 10.156 0 6.5469-3.7656 10.109-3.75 3.5625-10.641 3.5625zm-9.8594 8.1094h22.266q12.266 0 18.531-5.5469 6.2812-5.5469 6.2812-16.234 0-10.797-6.2812-16.312-6.2656-5.5156-18.531-5.5156h-12.406v-29.297h-9.8594z"/>
</defs>
<use xlink:href="#o"/>
</g>
</g>
<path d="m217.82 99.786v5.4725q0 2.4 2.4 2.4h7.7425q2.4 0 2.4-2.4v-5.4725q0-2.4-2.4-2.4h-7.7425q-2.4 0-2.4 2.4z" clip-path="url(#a)" fill="#fff" stroke="#fff"/>
<g clip-path="url(#a)">
<g transform="translate(221.89 99.786) rotate(90) scale(.08 -.08)">
<use xlink:href="#p"/>
</g>
</g>
<path d="m149.39 167.91 5.5989-2.2017q2.2335-0.87829 1.3552-3.1118l-2.8334-7.2054q-0.87829-2.2335-3.1118-1.3552l-5.5989 2.2017q-2.2335 0.87829-1.3552 3.1118l2.8334 7.2054q0.87829 2.2335 3.1118 1.3552z" clip-path="url(#a)" fill="#fff" stroke="#fff"/>
<g clip-path="url(#a)">
<g transform="translate(147.91 164.13) rotate(-21.466) scale(.08 -.08)">
<use xlink:href="#x"/>
</g>
</g>
<path d="m313.69 166.08 5.7476 1.7779q2.2928 0.70923 3.002-1.5836l2.288-7.3967q0.70923-2.2928-1.5836-3.002l-5.7476-1.7779q-2.2928-0.70923-3.002 1.5836l-2.288 7.3967q-0.70923 2.2928 1.5836 3.002z" clip-path="url(#a)" fill="#fff" stroke="#fff"/>
<g clip-path="url(#a)">
<g transform="translate(314.89 162.2) rotate(17.188) scale(.08 -.08)">
<use xlink:href="#x"/>
</g>
</g>
<path d="m208.94 194.82 1.9135-5.5335q0.78436-2.2682-1.4838-3.0526l-7.3173-2.5304q-2.2682-0.78436-3.0526 1.4838l-1.9135 5.5335q-0.78436 2.2682 1.4838 3.0526l7.3173 2.5304q2.2682 0.78436 3.0526-1.4838z" clip-path="url(#a)" fill="#fff" stroke="#fff"/>
<g clip-path="url(#a)">
<g transform="translate(205.1 193.49) rotate(-70.924) scale(.08 -.08)">
<defs>
<path id="t" d="m8.6875 72.906h9.9219v-44.297q0-11.719 4.2344-16.875 4.25-5.1406 13.781-5.1406 9.4688 0 13.719 5.1406 4.25 5.1562 4.25 16.875v44.297h9.9062v-45.516q0-14.25-7.0625-21.531-7.0469-7.2812-20.812-7.2812-13.828 0-20.891 7.2812-7.0469 7.2812-7.0469 21.531z"/>
</defs>
<use xlink:href="#t"/>
</g>
</g>
<path d="m102.55 222.08 4.1116 3.6115q1.8032 1.5839 3.387-0.2193l5.1096-5.8171q1.5839-1.8032-0.2193-3.387l-4.1116-3.6115q-1.8032-1.5839-3.387 0.2193l-5.1096 5.8171q-1.5839 1.8032 0.2193 3.387z" clip-path="url(#a)" fill="#fff" stroke="#fff"/>
<g clip-path="url(#a)">
<g transform="translate(105.23 219.03) rotate(41.295) scale(.08 -.08)">
<use xlink:href="#p"/>
</g>
</g>
<path d="m54.522 225.56 3.9532-4.7746q1.5306-1.8486-0.31801-3.3792l-5.9636-4.9377q-1.8486-1.5306-3.3792 0.31801l-3.9532 4.7746q-1.5306 1.8486 0.31801 3.3792l5.9636 4.9377q1.8486 1.5306 3.3792-0.31801z" clip-path="url(#a)" fill="#fff" stroke="#fff"/>
<g clip-path="url(#a)">
<g transform="translate(51.392 222.97) rotate(-50.376) scale(.08 -.08)">
<defs>
<path id="ab" d="m59.516 10.406v19.578h-16.109v8.1094h25.875v-31.312q-5.7031-4.0469-12.594-6.125-6.875-2.0781-14.688-2.0781-17.094 0-26.75 9.9844-9.6406 10-9.6406 27.812 0 17.875 9.6406 27.859 9.6562 9.9844 26.75 9.9844 7.125 0 13.547-1.7656 6.4219-1.75 11.844-5.1719v-10.5q-5.4688 4.6406-11.625 6.9844t-12.938 2.3438q-13.391 0-20.109-7.4688-6.7031-7.4688-6.7031-22.266 0-14.75 6.7031-22.219 6.7188-7.4688 20.109-7.4688 5.2188 0 9.3125 0.90625 4.1094 0.90625 7.375 2.8125z"/>
</defs>
<use xlink:href="#ab"/>
</g>
</g>
<path d="m78.617 222.89 0.63415-6.1273q0.24707-2.3872-2.1402-2.6343l-7.7014-0.79706q-2.3872-0.24707-2.6343 2.1402l-0.63415 6.1273q-0.24707 2.3872 2.1402 2.6343l7.7014 0.79706q2.3872 0.24707 2.6343-2.1402z" clip-path="url(#a)" fill="#fff" stroke="#fff"/>
<g clip-path="url(#a)">
<g transform="translate(74.574 222.47) rotate(-84.091) scale(.08 -.08)">
<defs>
<path id="ao" d="m19.672 64.797v-56.688h11.922q15.094 0 22.094 6.8281 7 6.8438 7 21.594 0 14.641-7 21.453t-22.094 6.8125zm-9.8594 8.1094h20.266q21.188 0 31.094-8.8125 9.9219-8.8125 9.9219-27.562 0-18.859-9.9688-27.703-9.9531-8.8281-31.047-8.8281h-20.266z"/>
</defs>
<use xlink:href="#ao"/>
</g>
</g>
<path d="m80.874 219.05 2.0933 5.0563q0.91801 2.2175 3.1355 1.2995l7.1537-2.9615q2.2175-0.91801 1.2995-3.1355l-2.0933-5.0563q-0.91801-2.2175-3.1355-1.2995l-7.1537 2.9615q-2.2175 0.91801-1.2995 3.1355z" clip-path="url(#a)" fill="#fff" stroke="#fff"/>
<g clip-path="url(#a)">
<g transform="translate(84.629 217.49) rotate(67.511) scale(.08 -.08)">
<use xlink:href="#p"/>
</g>
</g>
<path d="m99.555 221.92 3.6524 3.529q1.726 1.6677 3.3936-0.058309l5.3799-5.568q1.6677-1.726-0.058309-3.3936l-3.6524-3.529q-1.726-1.6677-3.3936 0.058309l-5.3799 5.568q-1.6677 1.726 0.058309 3.3936z" clip-path="url(#a)" fill="#fff" stroke="#fff"/>
<g clip-path="url(#a)">
<g transform="translate(102.38 219) rotate(44.016) scale(.08 -.08)">
<defs>
<path id="an" d="m53.516 70.516v-9.625q-5.6094 2.6875-10.594 4-4.9844 1.3281-9.625 1.3281-8.0469 0-12.422-3.125t-4.375-8.8906q0-4.8438 2.9062-7.3125 2.9062-2.4531 11.016-3.9688l5.9531-1.2188q11.031-2.1094 16.281-7.4062t5.25-14.172q0-10.609-7.1094-16.078-7.0938-5.4688-20.812-5.4688-5.1719 0-11.016 1.1719-5.8281 1.1719-12.078 3.4688v10.156q6-3.3594 11.766-5.0781 5.7656-1.7031 11.328-1.7031 8.4375 0 13.031 3.3125 4.5938 3.3281 4.5938 9.4844 0 5.3594-3.2969 8.3906t-10.812 4.5469l-6.0156 1.1719q-11.031 2.1875-15.969 6.875-4.9219 4.6875-4.9219 13.047 0 9.6719 6.8125 15.234t18.766 5.5625q5.1406 0 10.453-0.9375 5.3281-0.92188 10.891-2.7656z"/>
</defs>
<use xlink:href="#an"/>
</g>
</g>
<path d="m64.904 224.66 2.6909-5.2q1.103-2.1315-1.0285-3.2345l-6.8763-3.5584q-2.1315-1.103-3.2345 1.0285l-2.6909 5.2q-1.103 2.1315 1.0285 3.2345l6.8763 3.5584q2.1315 1.103 3.2345-1.0285z" clip-path="url(#a)" fill="#fff" stroke="#fff"/>
<g clip-path="url(#a)">
<g transform="translate(61.295 222.79) rotate(-62.639) scale(.08 -.08)">
<use xlink:href="#t"/>
</g>
</g>
<path d="m491.92 224.21 5.1712 1.7909q2.2679 0.78539 3.0532-1.4825l2.5337-7.3162q0.78539-2.2679-1.4825-3.0532l-5.1712-1.7909q-2.2679-0.78539-3.0532 1.4825l-2.5337 7.3162q-0.78539 2.2679 1.4825 3.0532z" clip-path="url(#a)" fill="#fff" stroke="#fff"/>
<g clip-path="url(#a)">
<g transform="translate(493.25 220.37) rotate(19.102) scale(.08 -.08)">
<use xlink:href="#p"/>
</g>
</g>
<path d="m335.16 226.14 5.7994-2.1889q2.2454-0.84747 1.3979-3.0929l-2.734-7.2437q-0.84747-2.2454-3.0929-1.3979l-5.7994 2.1889q-2.2454 0.84748-1.3979 3.0929l2.734 7.2437q0.84748 2.2454 3.0929 1.3979z" clip-path="url(#a)" fill="#fff" stroke="#fff"/>
<g clip-path="url(#a)">
<g transform="translate(333.72 222.34) rotate(-20.678) scale(.08 -.08)">
<use xlink:href="#ab"/>
</g>
</g>
<path d="m381.7 225.49 3.6384-3.1671q1.8102-1.5758 0.23449-3.386l-5.0835-5.8399q-1.5758-1.8102-3.386-0.23449l-3.6384 3.1671q-1.8102 1.5758-0.23449 3.386l5.0835 5.8399q1.5758 1.8102 3.386 0.23449z" clip-path="url(#a)" fill="#fff" stroke="#fff"/>
<g clip-path="url(#a)">
<g transform="translate(379.03 222.43) rotate(-41.038) scale(.08 -.08)">
<use xlink:href="#o"/>
</g>
</g>
<path d="m418.69 221.98 0.056636-5.4722q0.024837-2.3999-2.375-2.4247l-7.7421-0.080128q-2.3999-0.024837-2.4247 2.375l-0.056635 5.4722q-0.024838 2.3999 2.375 2.4247l7.7421 0.080128q2.3999 0.024838 2.4247-2.375z" clip-path="url(#a)" fill="#fff" stroke="#fff"/>
<g clip-path="url(#a)">
<g transform="translate(414.62 221.94) rotate(-89.407) scale(.08 -.08)">
<use xlink:href="#p"/>
</g>
</g>
<path d="m442.26 222.2 4.5454 3.6906q1.8632 1.5128 3.376-0.35038l4.8804-6.0107q1.5128-1.8632-0.35038-3.376l-4.5454-3.6906q-1.8632-1.5128-3.376 0.35038l-4.8804 6.0107q-1.5128 1.8632 0.35038 3.376z" clip-path="url(#a)" fill="#fff" stroke="#fff"/>
<g clip-path="url(#a)">
<g transform="translate(444.83 219.05) rotate(39.075) scale(.08 -.08)">
<use xlink:href="#t"/>
</g>
</g>
<path d="m482.54 223.96 5.4585 2.1181q2.2375 0.86822 3.1057-1.3692l2.8009-7.2181q0.86822-2.2375-1.3692-3.1057l-5.4585-2.1181q-2.2375-0.86822-3.1057 1.3692l-2.8009 7.2181q-0.86822 2.2375 1.3692 3.1057z" clip-path="url(#a)" fill="#fff" stroke="#fff"/>
<g clip-path="url(#a)">
<g transform="translate(484.01 220.18) rotate(21.208) scale(.08 -.08)">
<use xlink:href="#t"/>
</g>
</g>
<path d="m243.88 294.79 14.436-30.57q1.0248-2.1702-1.1454-3.195l-7.0012-3.306q-2.1702-1.0248-3.195 1.1454l-14.436 30.57q-1.0248 2.1702 1.1454 3.195l7.0012 3.306q2.1702 1.0248 3.195-1.1454z" clip-path="url(#a)" fill="#fff" stroke="#fff"/>
<g clip-path="url(#a)">
<g transform="translate(240.2 293.06) rotate(-64.723) scale(.08 -.08)">
<defs>
<path id="d" d="m-0.29688 72.906h61.672v-8.3125h-25.875v-64.594h-9.9062v64.594h-25.891z"/>
<path id="m" d="m56.203 29.594v-4.3906h-41.312q0.59375-9.2812 5.5938-14.141t13.938-4.8594q5.1719 0 10.031 1.2656t9.6562 3.8125v-8.5q-4.8438-2.0469-9.9219-3.125t-10.297-1.0781q-13.094 0-20.734 7.6094-7.6406 7.625-7.6406 20.625 0 13.422 7.25 21.297 7.25 7.8906 19.562 7.8906 11.031 0 17.453-7.1094 6.4219-7.0938 6.4219-19.297zm-8.9844 2.6406q-0.09375 7.3594-4.125 11.75-4.0312 4.4062-10.672 4.4062-7.5156 0-12.031-4.25t-5.2031-11.969z"/>
<path id="h" d="m41.109 46.297q-1.5156 0.875-3.2969 1.2812-1.7812 0.42188-3.9219 0.42188-7.625 0-11.703-4.9531t-4.0781-14.234v-28.812h-9.0312v54.688h9.0312v-8.5q2.8438 4.9844 7.375 7.3906 4.5469 2.4219 11.047 2.4219 0.92188 0 2.0469-0.125 1.125-0.10938 2.4844-0.35938z"/>
<path id="j" d="m52 44.188q3.375 6.0625 8.0625 8.9375t11.031 2.875q8.5469 0 13.188-5.9844 4.6406-5.9688 4.6406-17v-33.016h-9.0312v32.719q0 7.8594-2.7969 11.656-2.7812 3.8125-8.4844 3.8125-6.9844 0-11.047-4.6406-4.0469-4.625-4.0469-12.641v-30.906h-9.0312v32.719q0 7.9062-2.7812 11.688t-8.5938 3.7812q-6.8906 0-10.953-4.6562-4.0469-4.6562-4.0469-12.625v-30.906h-9.0312v54.688h9.0312v-8.5q3.0781 5.0312 7.375 7.4219t10.203 2.3906q5.9688 0 10.141-3.0312 4.1719-3.0156 6.1719-8.7812z"/>
<path id="l" d="m9.4219 54.688h8.9844v-54.688h-8.9844zm0 21.297h8.9844v-11.391h-8.9844z"/>
<path id="i" d="m54.891 33.016v-33.016h-8.9844v32.719q0 7.7656-3.0312 11.609-3.0312 3.8594-9.0781 3.8594-7.2812 0-11.484-4.6406-4.2031-4.625-4.2031-12.641v-30.906h-9.0312v54.688h9.0312v-8.5q3.2344 4.9375 7.5938 7.375 4.375 2.4375 10.094 2.4375 9.4219 0 14.25-5.8281 4.8438-5.8281 4.8438-17.156z"/>
<path id="f" d="m34.281 27.484q-10.891 0-15.094-2.4844t-4.2031-8.5q0-4.7812 3.1562-7.5938 3.1562-2.7969 8.5625-2.7969 7.4844 0 12 5.2969t4.5156 14.078v2zm17.922 3.7188v-31.203h-8.9844v8.2969q-3.0781-4.9688-7.6719-7.3438t-11.234-2.375q-8.3906 0-13.359 4.7188-4.9531 4.7188-4.9531 12.625 0 9.2188 6.1719 13.906 6.1875 4.6875 18.438 4.6875h12.609v0.89062q0 6.2031-4.0781 9.5938t-11.453 3.3906q-4.6875 0-9.1406-1.125-4.4375-1.125-8.5312-3.375v8.3125q4.9219 1.9062 9.5625 2.8438 4.6406 0.95312 9.0312 0.95312 11.875 0 17.734-6.1562 5.8594-6.1406 5.8594-18.641z"/>
<path id="k" d="m9.4219 75.984h8.9844v-75.984h-8.9844z"/>
</defs>
<use xlink:href="#d"/>
<use x="44.083984" xlink:href="#m"/>
<use x="105.607422" xlink:href="#h"/>
<use x="144.970703" xlink:href="#j"/>
<use x="242.382812" xlink:href="#l"/>
<use x="270.166016" xlink:href="#i"/>
<use x="333.544922" xlink:href="#f"/>
<use x="394.824219" xlink:href="#k"/>
</g>
</g>
<path d="m259.57 264.22 14.436 30.57q1.0248 2.1702 3.195 1.1454l7.0012-3.306q2.1702-1.0248 1.1454-3.195l-14.436-30.57q-1.0248-2.1702-3.195-1.1454l-7.0012 3.306q-2.1702 1.0248-1.1454 3.195z" clip-path="url(#a)" fill="#fff" stroke="#fff"/>
<g clip-path="url(#a)">
<g transform="translate(263.24 262.49) rotate(64.723) scale(.08 -.08)">
<use xlink:href="#d"/>
<use x="44.083984" xlink:href="#m"/>
<use x="105.607422" xlink:href="#h"/>
<use x="144.970703" xlink:href="#j"/>
<use x="242.382812" xlink:href="#l"/>
<use x="270.166016" xlink:href="#i"/>
<use x="333.544922" xlink:href="#f"/>
<use x="394.824219" xlink:href="#k"/>
</g>
</g>
<path d="m339.78 259.92v33.808q0 2.4 2.4 2.4h7.7425q2.4 0 2.4-2.4v-33.808q0-2.4-2.4-2.4h-7.7425q-2.4 0-2.4 2.4z" clip-path="url(#a)" fill="#fff" stroke="#fff"/>
<g clip-path="url(#a)">
<g transform="translate(343.85 259.92) rotate(90) scale(.08 -.08)">
<use xlink:href="#d"/>
<use x="44.083984" xlink:href="#m"/>
<use x="105.607422" xlink:href="#h"/>
<use x="144.970703" xlink:href="#j"/>
<use x="242.382812" xlink:href="#l"/>
<use x="270.166016" xlink:href="#i"/>
<use x="333.544922" xlink:href="#f"/>
<use x="394.824219" xlink:href="#k"/>
</g>
</g>
<path d="m405.87 259.92v33.808q0 2.4 2.4 2.4h7.7425q2.4 0 2.4-2.4v-33.808q0-2.4-2.4-2.4h-7.7425q-2.4 0-2.4 2.4z" clip-path="url(#a)" fill="#fff" stroke="#fff"/>
<g clip-path="url(#a)">
<g transform="translate(409.93 259.92) rotate(90) scale(.08 -.08)">
<use xlink:href="#d"/>
<use x="44.083984" xlink:href="#m"/>
<use x="105.607422" xlink:href="#h"/>
<use x="144.970703" xlink:href="#j"/>
<use x="242.382812" xlink:href="#l"/>
<use x="270.166016" xlink:href="#i"/>
<use x="333.544922" xlink:href="#f"/>
<use x="394.824219" xlink:href="#k"/>
</g>
</g>
<path d="m21.365 259.92v33.808q0 2.4 2.4 2.4h7.7425q2.4 0 2.4-2.4v-33.808q0-2.4-2.4-2.4h-7.7425q-2.4 0-2.4 2.4z" clip-path="url(#a)" fill="#fff" stroke="#fff"/>
<g clip-path="url(#a)">
<g transform="translate(25.429 259.92) rotate(90) scale(.08 -.08)">
<use xlink:href="#d"/>
<use x="44.083984" xlink:href="#m"/>
<use x="105.607422" xlink:href="#h"/>
<use x="144.970703" xlink:href="#j"/>
<use x="242.382812" xlink:href="#l"/>
<use x="270.166016" xlink:href="#i"/>
<use x="333.544922" xlink:href="#f"/>
<use x="394.824219" xlink:href="#k"/>
</g>
</g>
<path d="m63.42 259.92v33.808q0 2.4 2.4 2.4h7.7425q2.4 0 2.4-2.4v-33.808q0-2.4-2.4-2.4h-7.7425q-2.4 0-2.4 2.4z" clip-path="url(#a)" fill="#fff" stroke="#fff"/>
<g clip-path="url(#a)">
<g transform="translate(67.484 259.92) rotate(90) scale(.08 -.08)">
<use xlink:href="#d"/>
<use x="44.083984" xlink:href="#m"/>
<use x="105.607422" xlink:href="#h"/>
<use x="144.970703" xlink:href="#j"/>
<use x="242.382812" xlink:href="#l"/>
<use x="270.166016" xlink:href="#i"/>
<use x="333.544922" xlink:href="#f"/>
<use x="394.824219" xlink:href="#k"/>
</g>
</g>
<path d="m93.46 259.92v33.808q0 2.4 2.4 2.4h7.7425q2.4 0 2.4-2.4v-33.808q0-2.4-2.4-2.4h-7.7425q-2.4 0-2.4 2.4z" clip-path="url(#a)" fill="#fff" stroke="#fff"/>
<g clip-path="url(#a)">
<g transform="translate(97.524 259.92) rotate(90) scale(.08 -.08)">
<use xlink:href="#d"/>
<use x="44.083984" xlink:href="#m"/>
<use x="105.607422" xlink:href="#h"/>
<use x="144.970703" xlink:href="#j"/>
<use x="242.382812" xlink:href="#l"/>
<use x="270.166016" xlink:href="#i"/>
<use x="333.544922" xlink:href="#f"/>
<use x="394.824219" xlink:href="#k"/>
</g>
</g>
<path d="m129.51 259.92v33.808q0 2.4 2.4 2.4h7.7425q2.4 0 2.4-2.4v-33.808q0-2.4-2.4-2.4h-7.7425q-2.4 0-2.4 2.4z" clip-path="url(#a)" fill="#fff" stroke="#fff"/>
<g clip-path="url(#a)">
<g transform="translate(133.57 259.92) rotate(90) scale(.08 -.08)">
<use xlink:href="#d"/>
<use x="44.083984" xlink:href="#m"/>
<use x="105.607422" xlink:href="#h"/>
<use x="144.970703" xlink:href="#j"/>
<use x="242.382812" xlink:href="#l"/>
<use x="270.166016" xlink:href="#i"/>
<use x="333.544922" xlink:href="#f"/>
<use x="394.824219" xlink:href="#k"/>
</g>
</g>
<path d="m39.389 259.92v33.808q0 2.4 2.4 2.4h7.7425q2.4 0 2.4-2.4v-33.808q0-2.4-2.4-2.4h-7.7425q-2.4 0-2.4 2.4z" clip-path="url(#a)" fill="#fff" stroke="#fff"/>
<g clip-path="url(#a)">
<g transform="translate(43.453 259.92) rotate(90) scale(.08 -.08)">
<use xlink:href="#d"/>
<use x="44.083984" xlink:href="#m"/>
<use x="105.607422" xlink:href="#h"/>
<use x="144.970703" xlink:href="#j"/>
<use x="242.382812" xlink:href="#l"/>
<use x="270.166016" xlink:href="#i"/>
<use x="333.544922" xlink:href="#f"/>
<use x="394.824219" xlink:href="#k"/>
</g>
</g>
<path d="m177.57 259.92v33.808q0 2.4 2.4 2.4h7.7425q2.4 0 2.4-2.4v-33.808q0-2.4-2.4-2.4h-7.7425q-2.4 0-2.4 2.4z" clip-path="url(#a)" fill="#fff" stroke="#fff"/>
<g clip-path="url(#a)">
<g transform="translate(181.63 259.92) rotate(90) scale(.08 -.08)">
<use xlink:href="#d"/>
<use x="44.083984" xlink:href="#m"/>
<use x="105.607422" xlink:href="#h"/>
<use x="144.970703" xlink:href="#j"/>
<use x="242.382812" xlink:href="#l"/>
<use x="270.166016" xlink:href="#i"/>
<use x="333.544922" xlink:href="#f"/>
<use x="394.824219" xlink:href="#k"/>
</g>
</g>
<path d="m477.97 259.92v33.808q0 2.4 2.4 2.4h7.7425q2.4 0 2.4-2.4v-33.808q0-2.4-2.4-2.4h-7.7425q-2.4 0-2.4 2.4z" clip-path="url(#a)" fill="#fff" stroke="#fff"/>
<g clip-path="url(#a)">
<g transform="translate(482.03 259.92) rotate(90) scale(.08 -.08)">
<use xlink:href="#d"/>
<use x="44.083984" xlink:href="#m"/>
<use x="105.607422" xlink:href="#h"/>
<use x="144.970703" xlink:href="#j"/>
<use x="242.382812" xlink:href="#l"/>
<use x="270.166016" xlink:href="#i"/>
<use x="333.544922" xlink:href="#f"/>
<use x="394.824219" xlink:href="#k"/>
</g>
</g>
<path d="m556.07 259.92v33.808q0 2.4 2.4 2.4h7.7425q2.4 0 2.4-2.4v-33.808q0-2.4-2.4-2.4h-7.7425q-2.4 0-2.4 2.4z" clip-path="url(#a)" fill="#fff" stroke="#fff"/>
<g clip-path="url(#a)">
<g transform="translate(560.13 259.92) rotate(90) scale(.08 -.08)">
<use xlink:href="#d"/>
<use x="44.083984" xlink:href="#m"/>
<use x="105.607422" xlink:href="#h"/>
<use x="144.970703" xlink:href="#j"/>
<use x="242.382812" xlink:href="#l"/>
<use x="270.166016" xlink:href="#i"/>
<use x="333.544922" xlink:href="#f"/>
<use x="394.824219" xlink:href="#k"/>
</g>
</g>
<defs>
<path id="b" d="m0 8.6603c2.2967 0 4.4997-0.9125 6.1237-2.5365 1.624-1.624 2.5365-3.827 2.5365-6.1237s-0.9125-4.4997-2.5365-6.1237c-1.624-1.624-3.827-2.5365-6.1237-2.5365s-4.4997 0.9125-6.1237 2.5365c-1.624 1.624-2.5365 3.827-2.5365 6.1237s0.9125 4.4997 2.5365 6.1237c1.624 1.624 3.827 2.5365 6.1237 2.5365z"/>
</defs>
<g clip-path="url(#a)" fill="#ffffff" stroke="#ffffff">
<use x="27.636364" y="305.454545" xlink:href="#b"/>
<use x="45.660079" y="305.454545" xlink:href="#b"/>
<use x="69.6917" y="305.454545" xlink:href="#b"/>
<use x="99.731225" y="305.454545" xlink:href="#b"/>
<use x="135.778656" y="305.454545" xlink:href="#b"/>
<use x="183.841897" y="305.454545" xlink:href="#b"/>
<use x="231.905138" y="305.454545" xlink:href="#b"/>
<use x="285.976285" y="305.454545" xlink:href="#b"/>
<use x="346.055336" y="305.454545" xlink:href="#b"/>
<use x="412.142292" y="305.454545" xlink:href="#b"/>
<use x="484.237154" y="305.454545" xlink:href="#b"/>
<use x="562.339921" y="305.454545" xlink:href="#b"/>
<use x="580.363636" y="131.79844" xlink:href="#b"/>
<use x="580.363636" y="131.79844" xlink:href="#b"/>
<use x="580.363636" y="248.201632" xlink:href="#b"/>
<use x="141.786561" y="248.201632" xlink:href="#b"/>
<use x="224.094862" y="14.545455" xlink:href="#b"/>
<use x="224.094862" y="73.24601" xlink:href="#b"/>
<use x="224.094862" y="131.79844" xlink:href="#b"/>
<use x="75.699605" y="190.152268" xlink:href="#b"/>
<use x="412.743083" y="190.152268" xlink:href="#b"/>
<use x="258.940711" y="248.201632" xlink:href="#b"/>
<use x="346.055336" y="248.201632" xlink:href="#b"/>
<use x="412.142292" y="248.201632" xlink:href="#b"/>
<use x="27.636364" y="248.201632" xlink:href="#b"/>
<use x="69.6917" y="248.201632" xlink:href="#b"/>
<use x="99.731225" y="248.201632" xlink:href="#b"/>
<use x="135.778656" y="248.201632" xlink:href="#b"/>
<use x="45.660079" y="248.201632" xlink:href="#b"/>
<use x="183.841897" y="248.201632" xlink:href="#b"/>
<use x="484.237154" y="248.201632" xlink:href="#b"/>
<use x="562.339921" y="248.201632" xlink:href="#b"/>
</g>
<g clip-path="url(#a)">
<g transform="translate(20.917 308.21) scale(.1 -.1)">
<defs>
<path id="bb" d="m9.8125 72.906h9.8594v-29.891h35.844v29.891h9.8594v-72.906h-9.8594v34.719h-35.844v-34.719h-9.8594z"/>
<path id="ai" d="m32.172-5.0781q-3.7969-9.7656-7.4219-12.734-3.6094-2.9844-9.6562-2.9844h-7.1875v7.5156h5.2812q3.7031 0 5.75 1.7656 2.0625 1.75 4.5469 8.2969l1.6094 4.0938-22.109 53.812h9.5156l17.094-42.766 17.094 42.766h9.5156z"/>
</defs>
<use xlink:href="#bb"/>
<use x="75.195312" xlink:href="#ai"/>
</g>
</g>
<g clip-path="url(#a)">
<g transform="translate(44.071 308.21) scale(.1 -.1)">
<defs>
<path id="ag" d="m11.719 12.406h10.297v-8.4062l-8-15.625h-6.2969l4 15.625z"/>
</defs>
<use xlink:href="#ag"/>
</g>
</g>
<g clip-path="url(#a)">
<g transform="translate(48.556 308.21) scale(.1 -.1)">
<defs>
<path id="am" d="m21.625 7.1719h26.078v40.344h-18.891v-6.8438q0-20.109-5.7656-30.859zm-13.031 0q4.4375 1.9531 6.3906 6.1094 4.7969 10.297 4.7969 31.062v10.344h36.953v-47.516h7.1875v-20.984h-7.1875v13.812h-44.328v-13.812h-7.1875v20.984z"/>
<path id="q" d="m30.609 48.391q-7.2188 0-11.422-5.6406t-4.2031-15.453 4.1719-15.453q4.1875-5.6406 11.453-5.6406 7.1875 0 11.375 5.6562 4.2031 5.6719 4.2031 15.438 0 9.7188-4.2031 15.406-4.1875 5.6875-11.375 5.6875zm0 7.6094q11.719 0 18.406-7.625 6.7031-7.6094 6.7031-21.078 0-13.422-6.7031-21.078-6.6875-7.6406-18.406-7.6406-11.766 0-18.438 7.6406-6.6562 7.6562-6.6562 21.078 0 13.469 6.6562 21.078 6.6719 7.625 18.438 7.625z"/>
<path id="s" d="m48.781 52.594v-8.4062q-3.8125 2.1094-7.6406 3.1562t-7.7344 1.0469q-8.75 0-13.594-5.5469-4.8281-5.5312-4.8281-15.547t4.8281-15.562q4.8438-5.5312 13.594-5.5312 3.9062 0 7.7344 1.0469t7.6406 3.1562v-8.3125q-3.7656-1.75-7.7969-2.625-4.0156-0.89062-8.5625-0.89062-12.359 0-19.641 7.7656-7.2656 7.7656-7.2656 20.953 0 13.375 7.3438 21.031 7.3594 7.6719 20.156 7.6719 4.1406 0 8.0938-0.85938 3.9531-0.84375 7.6719-2.5469z"/>
<path id="aj" d="m2.9375 54.688h52.391v-7.1719h-21.781v-47.516h-8.8438v47.516h-21.766z"/>
<path id="aa" d="m34.281 27.484q-10.891 0-15.094-2.4844t-4.2031-8.5q0-4.7812 3.1562-7.5938 3.1562-2.7969 8.5625-2.7969 7.4844 0 12 5.2969t4.5156 14.078v2zm17.922 3.7188v-31.203h-8.9844v8.2969q-3.0781-4.9688-7.6719-7.3438t-11.234-2.375q-8.3906 0-13.359 4.7188-4.9531 4.7188-4.9531 12.625 0 9.2188 6.1719 13.906 6.1875 4.6875 18.438 4.6875h12.609v0.89062q0 6.2031-4.0781 9.5938t-11.453 3.3906q-4.6875 0-9.1406-1.125-4.4375-1.125-8.5312-3.375v8.3125q4.9219 1.9062 9.5625 2.8438 4.6406 0.95312 9.0312 0.95312 11.875 0 17.734-6.1562 5.8594-6.1406 5.8594-18.641z"/>
<path id="r" d="m18.062 25.203v-18.031h12.797q6.1562 0 9.375 2.3125 3.2188 2.3281 3.2188 6.7344 0 4.3906-3.2188 6.6875t-9.375 2.2969zm0 22.312v-15.141h11.828q5.0781 0 8.2969 2.0156 3.2188 2.0312 3.2188 5.6562 0 3.6094-3.2188 5.5312-3.2188 1.9375-8.2969 1.9375zm-8.9844 7.1719h21.391q9.625 0 14.797-3.5156t5.1719-10.016q0-5.0156-2.6406-7.9844-2.625-2.9531-7.8125-3.6719 6.2031-1.1719 9.625-4.8906 3.4219-3.7031 3.4219-9.2812 0-7.3125-5.6406-11.328-5.6406-4-16.094-4h-22.219z"/>
<path id="ah" d="m43.453 16.219q0 4.3906-3.2031 6.6875-3.1875 2.2969-9.3438 2.2969h-12.797v-18.031h12.797q6.1562 0 9.3438 2.3125 3.2031 2.3281 3.2031 6.7344zm-34.375 38.469h9.0312v-22.312h13.188q10.453 0 16.094-3.9844 5.6406-3.9688 5.6406-12.172t-5.6406-12.219q-5.6406-4-16.094-4h-22.219z"/>
</defs>
<use xlink:href="#am"/>
<use x="69.140625" xlink:href="#q"/>
<use x="130.322266" xlink:href="#s"/>
<use x="185.302734" xlink:href="#aj"/>
<use x="243.554688" xlink:href="#aa"/>
<use x="304.833984" xlink:href="#r"/>
<use x="363.769531" xlink:href="#ah"/>
</g>
</g>
<g clip-path="url(#a)">
<g transform="translate(89.614 308.21) scale(.1 -.1)">
<defs>
<path id="ak" d="m9.0781 54.688h13.141l15.531-36.625 15.578 36.625h13.031v-54.688h-9.0312v46.094l-15.094-35.594h-8.9844l-15.141 35.594v-46.094h-9.0312z"/>
<path id="y" d="m9.0781 54.688h9.0312v-22.312h29.156v22.312h9.0312v-54.688h-9.0312v25.203h-29.156v-25.203h-9.0312z"/>
<path id="z" d="m56.203 29.594v-4.3906h-41.312q0.59375-9.2812 5.5938-14.141t13.938-4.8594q5.1719 0 10.031 1.2656t9.6562 3.8125v-8.5q-4.8438-2.0469-9.9219-3.125t-10.297-1.0781q-13.094 0-20.734 7.6094-7.6406 7.625-7.6406 20.625 0 13.422 7.25 21.297 7.25 7.8906 19.562 7.8906 11.031 0 17.453-7.1094 6.4219-7.0938 6.4219-19.297zm-8.9844 2.6406q-0.09375 7.3594-4.125 11.75-4.0312 4.4062-10.672 4.4062-7.5156 0-12.031-4.25t-5.2031-11.969z"/>
</defs>
<use xlink:href="#ak"/>
<use x="75.439453" xlink:href="#y"/>
<use x="140.820312" xlink:href="#z"/>
</g>
</g>
<g clip-path="url(#a)">
<g transform="translate(99.219 308.21) scale(.1 -.1)">
<defs>
<path id="az" d="m3.7188 0v7.4688q8.875 1.375 11.609 7.5156 3.3281 8.6562 3.3281 30.766v8.9375h36.953v-54.688h-8.9844v47.516h-18.984v-5.4219q0-21.094-4.2969-30.562-4.5938-10.109-19.625-11.531z"/>
<path id="al" d="m55.906 54.688v-54.688h-8.9375v43.891l-26.359-43.891h-11.531v54.688h8.9375v-43.797l26.328 43.797z"/>
</defs>
<use xlink:href="#ai"/>
<use x="59.179688" xlink:href="#am"/>
<use x="128.320312" xlink:href="#q"/>
<use x="189.501953" xlink:href="#r"/>
<use x="248.4375" xlink:href="#q"/>
<use x="309.619141" xlink:href="#az"/>
<use x="373.535156" xlink:href="#ah"/>
<use x="432.470703" xlink:href="#s"/>
<use x="487.451172" xlink:href="#aj"/>
<use x="545.703125" xlink:href="#r"/>
<use x="604.638672" xlink:href="#al"/>
<use x="669.628906" xlink:href="#z"/>
</g>
</g>
<g clip-path="url(#a)">
<g transform="translate(182.25 308.21) scale(.1 -.1)">
<use xlink:href="#ag"/>
</g>
</g>
<g clip-path="url(#a)">
<g transform="translate(223.13 308.21) scale(.1 -.1)">
<use xlink:href="#r"/>
<use x="58.935547" xlink:href="#s"/>
<use x="113.916016" xlink:href="#z"/>
</g>
</g>
<g clip-path="url(#a)">
<g transform="translate(270.46 308.21) scale(.1 -.1)">
<defs>
<path id="ay" d="m18.109 8.2031v-29h-9.0312v75.484h9.0312v-8.2969q2.8438 4.875 7.1562 7.2344 4.3281 2.375 10.328 2.375 9.9688 0 16.188-7.9062 6.2344-7.9062 6.2344-20.797t-6.2344-20.812q-6.2188-7.9062-16.188-7.9062-6 0-10.328 2.375-4.3125 2.375-7.1562 7.25zm30.578 19.094q0 9.9062-4.0781 15.547t-11.203 5.6406q-7.1406 0-11.219-5.6406t-4.0781-15.547 4.0781-15.547 11.219-5.6406q7.125 0 11.203 5.6406t4.0781 15.547z"/>
</defs>
<use xlink:href="#ay"/>
<use x="63.476562" xlink:href="#aa"/>
<use x="124.755859" xlink:href="#r"/>
<use x="183.691406" xlink:href="#y"/>
<use x="249.072266" xlink:href="#q"/>
</g>
</g>
<g clip-path="url(#a)">
<g transform="translate(314.31 308.21) scale(.1 -.1)">
<defs>
<path id="ax" d="m54.891 54.688-19.781-26.609 20.797-28.078h-10.594l-15.922 21.484-15.906-21.484h-10.609l21.25 28.609-19.438 26.078h10.594l14.5-19.484 14.5 19.484z"/>
<path id="aw" d="m82.422 0h-73.344v54.688h9.0312v-47.516h23.109v47.516h9.0312v-47.516h23.141v47.516h9.0312v-47.516h7.1719v-20.984h-7.1719z"/>
<path id="ba" d="m55.906 54.688v-54.688h-8.9375v43.891l-26.359-43.891h-11.531v54.688h8.9375v-43.797l26.328 43.797zm-38.688 20.828h5.7656q0.53125-3.6562 2.8906-5.5 2.375-1.8281 6.625-1.8281 4.2031 0 6.5469 1.8125t2.9688 5.5156h5.7656q-0.48438-6.9844-4.3438-10.5t-10.938-3.5156-10.938 3.5156-4.3438 10.5z"/>
<path id="au" d="m18.453 38.922q0-4.0625 3.125-6.3594 3.125-2.2812 8.9375-2.2812h12.109v17.234h-12.109q-5.8125 0-8.9375-2.25t-3.125-6.3438zm-12.781-38.922 16.688 23.969q-5.6562 1.2812-9.4219 4.625-3.75 3.3438-3.75 10.328 0 7.9062 5.2344 11.828 5.25 3.9375 15.859 3.9375h21.375v-54.688h-9.0312v23.094h-11.172l-16.125-23.094z"/>
</defs>
<use xlink:href="#r"/>
<use x="58.935547" xlink:href="#q"/>
<use x="120.117188" xlink:href="#s"/>
<use x="175.097656" xlink:href="#ax"/>
<use x="234.277344" xlink:href="#al"/>
<use x="299.267578" xlink:href="#aw"/>
<use x="393.457031" xlink:href="#aa"/>
<use x="454.736328" xlink:href="#ba"/>
<use x="519.726562" xlink:href="#s"/>
<use x="574.707031" xlink:href="#au"/>
</g>
</g>
<g clip-path="url(#a)">
<g transform="translate(397.83 308.21) scale(.1 -.1)">
<defs>
<path id="av" d="m53.609 48.391q-7.2188 0-11.422-5.6406t-4.2031-15.453 4.1719-15.453q4.1875-5.6406 11.453-5.6406 7.1875 0 11.375 5.6562 4.2031 5.6719 4.2031 15.438 0 9.7188-4.2031 15.406-4.1875 5.6875-11.375 5.6875zm-24.797-15.531q0.92188 9.2812 7 16.203 6.0781 6.9375 17.797 6.9375t18.406-7.625q6.7031-7.6094 6.7031-21.078 0-13.422-6.7031-21.078-6.6875-7.6406-18.406-7.6406-11.766 0-18.188 7.375t-6.8594 19.484h-10.156v-25.438h-8.9844v54.688h8.9844v-21.828z"/>
</defs>
<use xlink:href="#ak"/>
<use x="75.439453" xlink:href="#y"/>
<use x="140.820312" xlink:href="#q"/>
<use x="202.001953" xlink:href="#av"/>
</g>
</g>
<g clip-path="url(#a)">
<g transform="translate(482.23 308.21) scale(.1 -.1)">
<defs>
<path id="at" d="m15.094 12.406h9.9062v-12.406h-9.9062zm0 60.5h9.9062v-31.984l-0.96875-17.438h-7.9219l-1.0156 17.438z"/>
</defs>
<use xlink:href="#at"/>
</g>
</g>
<g clip-path="url(#a)">
<g transform="translate(560.54 308.21) scale(.1 -.1)">
<defs>
<path id="as" d="m4.8906 31.391h26.312v-8h-26.312z"/>
</defs>
<use xlink:href="#as"/>
</g>
</g>
<g clip-path="url(#a)">
<g transform="translate(559.28 134.56) scale(.1 -.1)">
<defs>
<path id="g" d="m9.8125 72.906h9.8594v-72.906h-9.8594z"/>
<path id="u" d="m9.8125 72.906h14.703l18.594-49.609 18.703 49.609h14.703v-72.906h-9.625v64.016l-18.797-50h-9.9062l-18.797 50v-64.016h-9.5781z"/>
<path id="v" d="m9.8125 72.906h9.8594v-64.609h35.5v-8.2969h-45.359z"/>
<path id="w" d="m64.406 67.281v-10.391q-4.9844 4.6406-10.625 6.9219-5.6406 2.2969-11.984 2.2969-12.5 0-19.141-7.6406t-6.6406-22.094q0-14.406 6.6406-22.047t19.141-7.6406q6.3438 0 11.984 2.2969t10.625 6.9375v-10.312q-5.1719-3.5156-10.969-5.2812-5.7812-1.75-12.219-1.75-16.562 0-26.094 10.125-9.5156 10.141-9.5156 27.672 0 17.578 9.5156 27.703 9.5312 10.141 26.094 10.141 6.5312 0 12.312-1.7344 5.7969-1.7344 10.875-5.2031z"/>
</defs>
<use xlink:href="#g"/>
<use x="29.492188" xlink:href="#u"/>
<use x="115.771484" xlink:href="#o"/>
<use x="176.074219" xlink:href="#v"/>
<use x="231.787109" xlink:href="#g"/>
<use x="261.279297" xlink:href="#w"/>
<use x="331.103516" xlink:href="#g"/>
<use x="360.595703" xlink:href="#d"/>
</g>
</g>
<g clip-path="url(#a)">
<g transform="translate(559.28 134.56) scale(.1 -.1)">
<use xlink:href="#g"/>
<use x="29.492188" xlink:href="#u"/>
<use x="115.771484" xlink:href="#o"/>
<use x="176.074219" xlink:href="#v"/>
<use x="231.787109" xlink:href="#g"/>
<use x="261.279297" xlink:href="#w"/>
<use x="331.103516" xlink:href="#g"/>
<use x="360.595703" xlink:href="#d"/>
</g>
</g>
<g clip-path="url(#a)">
<g transform="translate(559.28 250.96) scale(.1 -.1)">
<use xlink:href="#g"/>
<use x="29.492188" xlink:href="#u"/>
<use x="115.771484" xlink:href="#o"/>
<use x="176.074219" xlink:href="#v"/>
<use x="231.787109" xlink:href="#g"/>
<use x="261.279297" xlink:href="#w"/>
<use x="331.103516" xlink:href="#g"/>
<use x="360.595703" xlink:href="#d"/>
</g>
</g>
<g clip-path="url(#a)">
<g transform="translate(120.7 250.96) scale(.1 -.1)">
<use xlink:href="#g"/>
<use x="29.492188" xlink:href="#u"/>
<use x="115.771484" xlink:href="#o"/>
<use x="176.074219" xlink:href="#v"/>
<use x="231.787109" xlink:href="#g"/>
<use x="261.279297" xlink:href="#w"/>
<use x="331.103516" xlink:href="#g"/>
<use x="360.595703" xlink:href="#d"/>
</g>
</g>
<g clip-path="url(#a)">
<g transform="translate(216.14 17.305) scale(.1 -.1)">
<defs>
<path id="c" d="m12.406 8.2969h16.109v55.625l-17.531-3.5156v8.9844l17.438 3.5156h9.8594v-64.609h16.109v-8.2969h-41.984z"/>
<path id="e" d="m10.688 12.406h10.312v-12.406h-10.312z"/>
</defs>
<use xlink:href="#c"/>
<use x="63.623047" xlink:href="#e"/>
<use x="95.410156" xlink:href="#c"/>
</g>
</g>
<g clip-path="url(#a)">
<g transform="translate(216.14 76.005) scale(.1 -.1)">
<defs>
<path id="n" d="m19.188 8.2969h34.422v-8.2969h-46.281v8.2969q5.6094 5.8125 15.297 15.594 9.7031 9.7969 12.188 12.641 4.7344 5.3125 6.6094 9 1.8906 3.6875 1.8906 7.25 0 5.8125-4.0781 9.4688-4.0781 3.6719-10.625 3.6719-4.6406 0-9.7969-1.6094-5.1406-1.6094-11-4.8906v9.9688q5.9531 2.3906 11.125 3.6094 5.1875 1.2188 9.4844 1.2188 11.328 0 18.062-5.6719 6.7344-5.6562 6.7344-15.125 0-4.5-1.6875-8.5312-1.6719-4.0156-6.125-9.4844-1.2188-1.4219-7.7656-8.1875-6.5312-6.7656-18.453-18.922z"/>
</defs>
<use xlink:href="#c"/>
<use x="63.623047" xlink:href="#e"/>
<use x="95.410156" xlink:href="#n"/>
</g>
</g>
<g clip-path="url(#a)">
<g transform="translate(216.14 134.56) scale(.1 -.1)">
<defs>
<path id="ae" d="m8.2031 72.906h46.875v-4.2031l-26.469-68.703h-10.297l24.906 64.594h-35.016z"/>
</defs>
<use xlink:href="#c"/>
<use x="63.623047" xlink:href="#e"/>
<use x="95.410156" xlink:href="#ae"/>
</g>
</g>
<g clip-path="url(#a)">
<g transform="translate(67.748 192.91) scale(.1 -.1)">
<defs>
<path id="ad" d="m31.781 34.625q-7.0312 0-11.062-3.7656-4.0156-3.7656-4.0156-10.344 0-6.5938 4.0156-10.359 4.0312-3.7656 11.062-3.7656t11.078 3.7812q4.0625 3.7969 4.0625 10.344 0 6.5781-4.0312 10.344-4.0156 3.7656-11.109 3.7656zm-9.8594 4.1875q-6.3438 1.5625-9.8906 5.9062-3.5312 4.3594-3.5312 10.609 0 8.7344 6.2188 13.812 6.2344 5.0781 17.062 5.0781 10.891 0 17.094-5.0781t6.2031-13.812q0-6.25-3.5469-10.609-3.5312-4.3438-9.8281-5.9062 7.125-1.6562 11.094-6.5 3.9844-4.8281 3.9844-11.797 0-10.609-6.4688-16.281-6.4688-5.6562-18.531-5.6562-12.047 0-18.531 5.6562-6.4688 5.6719-6.4688 16.281 0 6.9688 4 11.797 4.0156 4.8438 11.141 6.5zm-3.6094 15.578q0-5.6562 3.5312-8.8281 3.5469-3.1719 9.9375-3.1719 6.3594 0 9.9375 3.1719 3.5938 3.1719 3.5938 8.8281 0 5.6719-3.5938 8.8438-3.5781 3.1719-9.9375 3.1719-6.3906 0-9.9375-3.1719-3.5312-3.1719-3.5312-8.8438z"/>
</defs>
<use xlink:href="#c"/>
<use x="63.623047" xlink:href="#e"/>
<use x="95.410156" xlink:href="#ad"/>
</g>
</g>
<g clip-path="url(#a)">
<g transform="translate(404.79 192.91) scale(.1 -.1)">
<defs>
<path id="ac" d="m10.984 1.5156v8.9844q3.7188-1.7656 7.5156-2.6875 3.8125-0.92188 7.4844-0.92188 9.7656 0 14.906 6.5625 5.1562 6.5625 5.8906 19.953-2.8281-4.2031-7.1875-6.4531-4.3438-2.25-9.6094-2.25-10.938 0-17.312 6.6094-6.375 6.625-6.375 18.109 0 11.219 6.6406 18 6.6406 6.7969 17.672 6.7969 12.656 0 19.312-9.7031 6.6719-9.6875 6.6719-28.141 0-17.234-8.1875-27.516-8.1719-10.281-21.984-10.281-3.7188 0-7.5312 0.73438-3.7969 0.73438-7.9062 2.2031zm19.625 30.906q6.6406 0 10.516 4.5312 3.8906 4.5469 3.8906 12.469 0 7.8594-3.8906 12.422-3.875 4.5625-10.516 4.5625t-10.516-4.5625-3.875-12.422q0-7.9219 3.875-12.469 3.875-4.5312 10.516-4.5312z"/>
</defs>
<use xlink:href="#c"/>
<use x="63.623047" xlink:href="#e"/>
<use x="95.410156" xlink:href="#ac"/>
</g>
</g>
<g clip-path="url(#a)">
<g transform="translate(247.81 250.96) scale(.1 -.1)">
<use xlink:href="#c"/>
<use x="63.623047" xlink:href="#e"/>
<use x="95.410156" xlink:href="#c"/>
<use x="159.033203" xlink:href="#n"/>
</g>
</g>
<g clip-path="url(#a)">
<g transform="translate(334.92 250.96) scale(.1 -.1)">
<defs>
<path id="af" d="m40.578 39.312q7.0781-1.5156 11.047-6.3125 3.9844-4.7812 3.9844-11.812 0-10.781-7.4219-16.703-7.4219-5.9062-21.094-5.9062-4.5781 0-9.4375 0.90625t-10.031 2.7188v9.5156q4.0938-2.3906 8.9688-3.6094 4.8906-1.2188 10.219-1.2188 9.2656 0 14.125 3.6562t4.8594 10.641q0 6.4531-4.5156 10.078-4.5156 3.6406-12.562 3.6406h-8.5v8.1094h8.8906q7.2656 0 11.125 2.9062t3.8594 8.375q0 5.6094-3.9844 8.6094-3.9688 3.0156-11.391 3.0156-4.0625 0-8.7031-0.89062-4.6406-0.875-10.203-2.7188v8.7812q5.625 1.5625 10.531 2.3438t9.25 0.78125q11.234 0 17.766-5.1094 6.5469-5.0938 6.5469-13.781 0-6.0625-3.4688-10.234t-9.8594-5.7812z"/>
</defs>
<use xlink:href="#c"/>
<use x="63.623047" xlink:href="#e"/>
<use x="95.410156" xlink:href="#c"/>
<use x="159.033203" xlink:href="#af"/>
</g>
</g>
<g clip-path="url(#a)">
<g transform="translate(401.01 250.96) scale(.1 -.1)">
<defs>
<path id="aq" d="m37.797 64.312-24.906-38.922h24.906zm-2.5938 8.5938h12.406v-47.516h10.406v-8.2031h-10.406v-17.188h-9.8125v17.188h-32.906v9.5156z"/>
</defs>
<use xlink:href="#c"/>
<use x="63.623047" xlink:href="#e"/>
<use x="95.410156" xlink:href="#c"/>
<use x="159.033203" xlink:href="#aq"/>
</g>
</g>
<g clip-path="url(#a)">
<g transform="translate(16.504 250.96) scale(.1 -.1)">
<defs>
<path id="ap" d="m33.016 40.375q-6.6406 0-10.531-4.5469-3.875-4.5312-3.875-12.438 0-7.8594 3.875-12.438 3.8906-4.5625 10.531-4.5625t10.516 4.5625q3.875 4.5781 3.875 12.438 0 7.9062-3.875 12.438-3.875 4.5469-10.516 4.5469zm19.578 30.922v-8.9844q-3.7188 1.75-7.5 2.6719-3.7812 0.9375-7.5 0.9375-9.7656 0-14.922-6.5938-5.1406-6.5938-5.875-19.922 2.875 4.25 7.2188 6.5156 4.3594 2.2656 9.5781 2.2656 10.984 0 17.359-6.6719 6.375-6.6562 6.375-18.125 0-11.234-6.6406-18.031-6.6406-6.7812-17.672-6.7812-12.656 0-19.344 9.6875-6.6875 9.7031-6.6875 28.109 0 17.281 8.2031 27.562t22.016 10.281q3.7188 0 7.5-0.73438t7.8906-2.1875z"/>
</defs>
<use xlink:href="#c"/>
<use x="63.623047" xlink:href="#e"/>
<use x="95.410156" xlink:href="#c"/>
<use x="159.033203" xlink:href="#ap"/>
</g>
</g>
<g clip-path="url(#a)">
<g transform="translate(58.559 250.96) scale(.1 -.1)">
<use xlink:href="#c"/>
<use x="63.623047" xlink:href="#e"/>
<use x="95.410156" xlink:href="#c"/>
<use x="159.033203" xlink:href="#ae"/>
</g>
</g>
<g clip-path="url(#a)">
<g transform="translate(88.598 250.96) scale(.1 -.1)">
<use xlink:href="#c"/>
<use x="63.623047" xlink:href="#e"/>
<use x="95.410156" xlink:href="#c"/>
<use x="159.033203" xlink:href="#ad"/>
</g>
</g>
<g clip-path="url(#a)">
<g transform="translate(124.65 250.96) scale(.1 -.1)">
<use xlink:href="#c"/>
<use x="63.623047" xlink:href="#e"/>
<use x="95.410156" xlink:href="#c"/>
<use x="159.033203" xlink:href="#ac"/>
</g>
</g>
<g clip-path="url(#a)">
<g transform="translate(34.527 250.96) scale(.1 -.1)">
<defs>
<path id="ar" d="m31.781 66.406q-7.6094 0-11.453-7.5-3.8281-7.4844-3.8281-22.531 0-14.984 3.8281-22.484 3.8438-7.5 11.453-7.5 7.6719 0 11.5 7.5 3.8438 7.5 3.8438 22.484 0 15.047-3.8438 22.531-3.8281 7.5-11.5 7.5zm0 7.8125q12.266 0 18.734-9.7031 6.4688-9.6875 6.4688-28.141 0-18.406-6.4688-28.109-6.4688-9.6875-18.734-9.6875-12.25 0-18.719 9.6875-6.4688 9.7031-6.4688 28.109 0 18.453 6.4688 28.141 6.4688 9.7031 18.719 9.7031z"/>
</defs>
<use xlink:href="#c"/>
<use x="63.623047" xlink:href="#e"/>
<use x="95.410156" xlink:href="#n"/>
<use x="159.033203" xlink:href="#ar"/>
</g>
</g>
<g clip-path="url(#a)">
<g transform="translate(172.71 250.96) scale(.1 -.1)">
<use xlink:href="#c"/>
<use x="63.623047" xlink:href="#e"/>
<use x="95.410156" xlink:href="#n"/>
<use x="159.033203" xlink:href="#c"/>
</g>
</g>
<g clip-path="url(#a)">
<g transform="translate(473.1 250.96) scale(.1 -.1)">
<use xlink:href="#c"/>
<use x="63.623047" xlink:href="#e"/>
<use x="95.410156" xlink:href="#n"/>
<use x="159.033203" xlink:href="#n"/>
</g>
</g>
<g clip-path="url(#a)">
<g transform="translate(551.21 250.96) scale(.1 -.1)">
<use xlink:href="#c"/>
<use x="63.623047" xlink:href="#e"/>
<use x="95.410156" xlink:href="#n"/>
<use x="159.033203" xlink:href="#af"/>
</g>
</g>
<defs>
<clipPath id="a">
<rect width="608" height="320"/>
</clipPath>
</defs>
</svg>
