<?xml version="1.0" encoding="UTF-8"?>
<!DOCTYPE svg  PUBLIC '-//W3C//DTD SVG 1.1//EN'  'http://www.w3.org/Graphics/SVG/1.1/DTD/svg11.dtd'>
<svg width="557.33pt" height="293.33pt" version="1.1" viewBox="0 0 557.33 293.33" xmlns="http://www.w3.org/2000/svg" xmlns:xlink="http://www.w3.org/1999/xlink">
<metadata>
<rdf:RDF xmlns:cc="http://creativecommons.org/ns#" xmlns:dc="http://purl.org/dc/elements/1.1/" xmlns:rdf="http://www.w3.org/1999/02/22-rdf-syntax-ns#">
<cc:Work>
<dc:type rdf:resource="http://purl.org/dc/dcmitype/StillImage"/>
<dc:date>2021-01-21T01:17:48.144154</dc:date>
<dc:format>image/svg+xml</dc:format>
<dc:creator>
<cc:Agent>
<dc:title>Matplotlib v3.3.3, https://matplotlib.org/</dc:title>
</cc:Agent>
</dc:creator>
</cc:Work>
</rdf:RDF>
</metadata>
<defs>
<style type="text/css">*{stroke-linecap:butt;stroke-linejoin:round;}</style>
</defs>
<path d="m0 293.33h557.33v-293.33h-557.33z" fill="#fff"/>
<g fill="none" stroke="#000">
<path d="m283.39 13.333v53.809" clip-path="url(#a)"/>
<path d="m283.39 67.142-216.39 53.673" clip-path="url(#a)"/>
<path d="m283.39 67.142 28.611 160.38" clip-path="url(#a)"/>
<path d="m283.39 67.142 95.278 160.38" clip-path="url(#a)"/>
<path d="m283.39 67.142 208.61 107.16" clip-path="url(#a)"/>
<path d="m283.39 67.142-84.722 160.38" clip-path="url(#a)"/>
<path d="m283.39 67.142-31.389 160.38" clip-path="url(#a)"/>
<path d="m67 120.82 85 53.491" clip-path="url(#a)"/>
<path d="m67 120.82-41.667 106.7" clip-path="url(#a)"/>
<path d="m67 120.82 5 106.7" clip-path="url(#a)"/>
<path d="m67 120.82 58.333 53.491" clip-path="url(#a)"/>
<path d="m67 120.82-21.667 106.7" clip-path="url(#a)"/>
<path d="m312 227.52v52.482" clip-path="url(#a)"/>
<path d="m378.67 227.52v52.482" clip-path="url(#a)"/>
<path d="m492 174.31-40 53.212" clip-path="url(#a)"/>
<path d="m492 174.31 40 53.212" clip-path="url(#a)"/>
<path d="m452 227.52v52.482" clip-path="url(#a)"/>
<path d="m25.333 227.52v52.482" clip-path="url(#a)"/>
<path d="m72 227.52v52.482" clip-path="url(#a)"/>
<path d="m125.33 174.31-20 53.212" clip-path="url(#a)"/>
<path d="m125.33 174.31 20 53.212" clip-path="url(#a)"/>
<path d="m45.333 227.52v52.482" clip-path="url(#a)"/>
<path d="m105.33 227.52v52.482" clip-path="url(#a)"/>
<path d="m145.33 227.52v52.482" clip-path="url(#a)"/>
<path d="m198.67 227.52v52.482" clip-path="url(#a)"/>
<path d="m252 227.52v52.482" clip-path="url(#a)"/>
<path d="m532 227.52v52.482" clip-path="url(#a)"/>
</g>
<path d="m277.12 37.23v6.0162q0 2.4 2.4 2.4h7.7425q2.4 0 2.4-2.4v-6.0162q0-2.4-2.4-2.4h-7.7425q-2.4 0-2.4 2.4z" clip-path="url(#a)" fill="#fff" stroke="#fff"/>
<g clip-path="url(#a)">
<g transform="translate(281.18 37.23) rotate(90) scale(.08 -.08)">
<defs>
<path id="ai" d="m9.8125 72.906h9.8594v-29.891h35.844v29.891h9.8594v-72.906h-9.8594v34.719h-35.844v-34.719h-9.8594z"/>
</defs>
<use xlink:href="#ai"/>
</g>
</g>
<path d="m174.05 100.72 5.3115-1.3175q2.3294-0.57779 1.7516-2.9072l-1.864-7.5148q-0.57779-2.3294-2.9072-1.7516l-5.3115 1.3175q-2.3294 0.57779-1.7516 2.9072l1.864 7.5148q0.57779 2.3294 2.9072 1.7516z" clip-path="url(#a)" fill="#fff" stroke="#fff"/>
<g clip-path="url(#a)">
<g transform="translate(173.07 96.78) rotate(-13.93) scale(.08 -.08)">
<defs>
<path id="m" d="m34.188 63.188-13.391-36.281h26.812zm-5.5781 9.7188h11.188l27.781-72.906h-10.25l-6.6406 18.703h-32.859l-6.6406-18.703h-10.406z"/>
</defs>
<use xlink:href="#m"/>
</g>
</g>
<path d="m291.1 146.06 0.84718 4.7488q0.42151 2.3627 2.7842 1.9412l7.6222-1.3598q2.3627-0.42151 1.9412-2.7842l-0.84718-4.7488q-0.42151-2.3627-2.7842-1.9412l-7.6222 1.3598q-2.3627 0.4215-1.9412 2.7842z" clip-path="url(#a)" fill="#fff" stroke="#fff"/>
<g clip-path="url(#a)">
<g transform="translate(295.1 145.34) rotate(79.885) scale(.08 -.08)">
<defs>
<path id="r" d="m19.672 64.797v-27.391h12.406q6.8906 0 10.641 3.5625 3.7656 3.5625 3.7656 10.156 0 6.5469-3.7656 10.109-3.75 3.5625-10.641 3.5625zm-9.8594 8.1094h22.266q12.266 0 18.531-5.5469 6.2812-5.5469 6.2812-16.234 0-10.797-6.2812-16.312-6.2656-5.5156-18.531-5.5156h-12.406v-29.297h-9.8594z"/>
</defs>
<use xlink:href="#r"/>
</g>
</g>
<path d="m324.24 148.18 2.7951 4.7049q1.2258 2.0633 3.2892 0.83753l6.6564-3.9545q2.0633-1.2258 0.83753-3.2892l-2.7951-4.7049q-1.2258-2.0633-3.2892-0.83753l-6.6564 3.9545q-2.0633 1.2258-0.83753 3.2892z" clip-path="url(#a)" fill="#fff" stroke="#fff"/>
<g clip-path="url(#a)">
<g transform="translate(327.73 146.11) rotate(59.286) scale(.08 -.08)">
<use xlink:href="#m"/>
</g>
</g>
<path d="m382.39 125.05 4.8678 2.5006q2.1348 1.0967 3.2314-1.0381l3.5378-6.8869q1.0967-2.1348-1.0381-3.2314l-4.8678-2.5006q-2.1348-1.0966-3.2314 1.0381l-3.5378 6.8869q-1.0967 2.1348 1.0381 3.2314z" clip-path="url(#a)" fill="#fff" stroke="#fff"/>
<g clip-path="url(#a)">
<g transform="translate(384.25 121.44) rotate(27.19) scale(.08 -.08)">
<use xlink:href="#m"/>
</g>
</g>
<path d="m245.21 152.85 2.7349-5.177q1.121-2.1221-1.001-3.2431l-6.846-3.6165q-2.1221-1.121-3.2431 1.001l-2.7349 5.177q-1.121 2.1221 1.001 3.2431l6.846 3.6165q2.1221 1.121 3.2431-1.001z" clip-path="url(#a)" fill="#fff" stroke="#fff"/>
<g clip-path="url(#a)">
<g transform="translate(241.61 150.95) rotate(-62.154) scale(.08 -.08)">
<defs>
<path id="o" d="m8.6875 72.906h9.9219v-44.297q0-11.719 4.2344-16.875 4.25-5.1406 13.781-5.1406 9.4688 0 13.719 5.1406 4.25 5.1562 4.25 16.875v44.297h9.9062v-45.516q0-14.25-7.0625-21.531-7.0469-7.2812-20.812-7.2812-13.828 0-20.891 7.2812-7.0469 7.2812-7.0469 21.531z"/>
</defs>
<use xlink:href="#o"/>
</g>
</g>
<path d="m273.29 151.41 1.1246-5.746q0.46098-2.3553-1.8943-2.8163l-7.5983-1.4872q-2.3553-0.46098-2.8163 1.8943l-1.1246 5.746q-0.46098 2.3553 1.8943 2.8163l7.5983 1.4872q2.3553 0.46098 2.8163-1.8943z" clip-path="url(#a)" fill="#fff" stroke="#fff"/>
<g clip-path="url(#a)">
<g transform="translate(269.3 150.63) rotate(-78.926) scale(.08 -.08)">
<use xlink:href="#o"/>
</g>
</g>
<path d="m103.84 151.41 4.6317 2.9147q2.0313 1.2783 3.3095-0.75297l4.1238-6.5529q1.2783-2.0313-0.75298-3.3095l-4.6317-2.9147q-2.0313-1.2783-3.3095 0.75297l-4.1238 6.5529q-1.2783 2.0313 0.75298 3.3095z" clip-path="url(#a)" fill="#fff" stroke="#fff"/>
<g clip-path="url(#a)">
<g transform="translate(106.01 147.97) rotate(32.182) scale(.08 -.08)">
<use xlink:href="#m"/>
</g>
</g>
<path d="m51.131 178.69 1.7546-4.4933q0.87298-2.2356-1.3626-3.1086l-7.2121-2.8163q-2.2356-0.87298-3.1086 1.3626l-1.7546 4.4933q-0.87298 2.2356 1.3626 3.1086l7.2121 2.8163q2.2356 0.87298 3.1086-1.3626z" clip-path="url(#a)" fill="#fff" stroke="#fff"/>
<g clip-path="url(#a)">
<g transform="translate(47.346 177.22) rotate(-68.67) scale(.08 -.08)">
<use xlink:href="#r"/>
</g>
</g>
<path d="m63.128 172.16 0.21537 4.5962q0.11234 2.3974 2.5097 2.285l7.734-0.36241q2.3974-0.11234 2.285-2.5097l-0.21537-4.5962q-0.11234-2.3974-2.5097-2.285l-7.734 0.36241q-2.3974 0.11234-2.285 2.5097z" clip-path="url(#a)" fill="#fff" stroke="#fff"/>
<g clip-path="url(#a)">
<g transform="translate(67.187 171.97) rotate(87.317) scale(.08 -.08)">
<defs>
<path id="aj" d="m9.8125 72.906h41.891v-8.3125h-32.031v-21.484h28.906v-8.2969h-28.906v-34.812h-9.8594z"/>
</defs>
<use xlink:href="#aj"/>
</g>
</g>
<path d="m89.912 150.33 4.0334 3.6986q1.7689 1.622 3.3909-0.14684l5.2328-5.7065q1.622-1.7689-0.14684-3.3909l-4.0334-3.6986q-1.7689-1.622-3.3909 0.14684l-5.2328 5.7065q-1.622 1.7689 0.14684 3.3909z" clip-path="url(#a)" fill="#fff" stroke="#fff"/>
<g clip-path="url(#a)">
<g transform="translate(92.658 147.34) rotate(42.52) scale(.08 -.08)">
<use xlink:href="#m"/>
</g>
</g>
<path d="m61.73 178.28 1.1651-5.7379q0.47759-2.352-1.8744-2.8296l-7.5877-1.5407q-2.352-0.47759-2.8296 1.8744l-1.1651 5.7379q-0.47759 2.352 1.8744 2.8296l7.5877 1.5407q2.352 0.47759 2.8296-1.8744z" clip-path="url(#a)" fill="#fff" stroke="#fff"/>
<g clip-path="url(#a)">
<g transform="translate(57.747 177.47) rotate(-78.522) scale(.08 -.08)">
<use xlink:href="#o"/>
</g>
</g>
<path d="m305.73 236.86v33.808q0 2.4 2.4 2.4h7.7425q2.4 0 2.4-2.4v-33.808q0-2.4-2.4-2.4h-7.7425q-2.4 0-2.4 2.4z" clip-path="url(#a)" fill="#fff" stroke="#fff"/>
<g clip-path="url(#a)">
<g transform="translate(309.79 236.86) rotate(90) scale(.08 -.08)">
<defs>
<path id="e" d="m-0.29688 72.906h61.672v-8.3125h-25.875v-64.594h-9.9062v64.594h-25.891z"/>
<path id="l" d="m56.203 29.594v-4.3906h-41.312q0.59375-9.2812 5.5938-14.141t13.938-4.8594q5.1719 0 10.031 1.2656t9.6562 3.8125v-8.5q-4.8438-2.0469-9.9219-3.125t-10.297-1.0781q-13.094 0-20.734 7.6094-7.6406 7.625-7.6406 20.625 0 13.422 7.25 21.297 7.25 7.8906 19.562 7.8906 11.031 0 17.453-7.1094 6.4219-7.0938 6.4219-19.297zm-8.9844 2.6406q-0.09375 7.3594-4.125 11.75-4.0312 4.4062-10.672 4.4062-7.5156 0-12.031-4.25t-5.2031-11.969z"/>
<path id="g" d="m41.109 46.297q-1.5156 0.875-3.2969 1.2812-1.7812 0.42188-3.9219 0.42188-7.625 0-11.703-4.9531t-4.0781-14.234v-28.812h-9.0312v54.688h9.0312v-8.5q2.8438 4.9844 7.375 7.3906 4.5469 2.4219 11.047 2.4219 0.92188 0 2.0469-0.125 1.125-0.10938 2.4844-0.35938z"/>
<path id="i" d="m52 44.188q3.375 6.0625 8.0625 8.9375t11.031 2.875q8.5469 0 13.188-5.9844 4.6406-5.9688 4.6406-17v-33.016h-9.0312v32.719q0 7.8594-2.7969 11.656-2.7812 3.8125-8.4844 3.8125-6.9844 0-11.047-4.6406-4.0469-4.625-4.0469-12.641v-30.906h-9.0312v32.719q0 7.9062-2.7812 11.688t-8.5938 3.7812q-6.8906 0-10.953-4.6562-4.0469-4.6562-4.0469-12.625v-30.906h-9.0312v54.688h9.0312v-8.5q3.0781 5.0312 7.375 7.4219t10.203 2.3906q5.9688 0 10.141-3.0312 4.1719-3.0156 6.1719-8.7812z"/>
<path id="k" d="m9.4219 54.688h8.9844v-54.688h-8.9844zm0 21.297h8.9844v-11.391h-8.9844z"/>
<path id="h" d="m54.891 33.016v-33.016h-8.9844v32.719q0 7.7656-3.0312 11.609-3.0312 3.8594-9.0781 3.8594-7.2812 0-11.484-4.6406-4.2031-4.625-4.2031-12.641v-30.906h-9.0312v54.688h9.0312v-8.5q3.2344 4.9375 7.5938 7.375 4.375 2.4375 10.094 2.4375 9.4219 0 14.25-5.8281 4.8438-5.8281 4.8438-17.156z"/>
<path id="f" d="m34.281 27.484q-10.891 0-15.094-2.4844t-4.2031-8.5q0-4.7812 3.1562-7.5938 3.1562-2.7969 8.5625-2.7969 7.4844 0 12 5.2969t4.5156 14.078v2zm17.922 3.7188v-31.203h-8.9844v8.2969q-3.0781-4.9688-7.6719-7.3438t-11.234-2.375q-8.3906 0-13.359 4.7188-4.9531 4.7188-4.9531 12.625 0 9.2188 6.1719 13.906 6.1875 4.6875 18.438 4.6875h12.609v0.89062q0 6.2031-4.0781 9.5938t-11.453 3.3906q-4.6875 0-9.1406-1.125-4.4375-1.125-8.5312-3.375v8.3125q4.9219 1.9062 9.5625 2.8438 4.6406 0.95312 9.0312 0.95312 11.875 0 17.734-6.1562 5.8594-6.1406 5.8594-18.641z"/>
<path id="j" d="m9.4219 75.984h8.9844v-75.984h-8.9844z"/>
</defs>
<use xlink:href="#e"/>
<use x="44.083984" xlink:href="#l"/>
<use x="105.607422" xlink:href="#g"/>
<use x="144.970703" xlink:href="#i"/>
<use x="242.382812" xlink:href="#k"/>
<use x="270.166016" xlink:href="#h"/>
<use x="333.544922" xlink:href="#f"/>
<use x="394.824219" xlink:href="#j"/>
</g>
</g>
<path d="m372.4 236.86v33.808q0 2.4 2.4 2.4h7.7425q2.4 0 2.4-2.4v-33.808q0-2.4-2.4-2.4h-7.7425q-2.4 0-2.4 2.4z" clip-path="url(#a)" fill="#fff" stroke="#fff"/>
<g clip-path="url(#a)">
<g transform="translate(376.46 236.86) rotate(90) scale(.08 -.08)">
<use xlink:href="#e"/>
<use x="44.083984" xlink:href="#l"/>
<use x="105.607422" xlink:href="#g"/>
<use x="144.970703" xlink:href="#i"/>
<use x="242.382812" xlink:href="#k"/>
<use x="270.166016" xlink:href="#h"/>
<use x="333.544922" xlink:href="#f"/>
<use x="394.824219" xlink:href="#j"/>
</g>
</g>
<path d="m473.14 210.05 7.9593-10.588q1.4421-1.9184-0.47632-3.3605l-6.3947-4.807q-1.9184-1.4421-3.3605 0.47632l-7.9593 10.588q-1.4421 1.9184 0.47632 3.3605l6.3947 4.807q1.9184 1.4421 3.3605-0.47632z" clip-path="url(#a)" fill="#fff" stroke="#fff"/>
<g clip-path="url(#a)">
<g transform="translate(469.71 207.48) rotate(-53.067) scale(.08 -.08)">
<defs>
<path id="ao" d="m21 76.422v-100h-8.2969v100z"/>
<path id="ae" d="m53.516 70.516v-9.625q-5.6094 2.6875-10.594 4-4.9844 1.3281-9.625 1.3281-8.0469 0-12.422-3.125t-4.375-8.8906q0-4.8438 2.9062-7.3125 2.9062-2.4531 11.016-3.9688l5.9531-1.2188q11.031-2.1094 16.281-7.4062t5.25-14.172q0-10.609-7.1094-16.078-7.0938-5.4688-20.812-5.4688-5.1719 0-11.016 1.1719-5.8281 1.1719-12.078 3.4688v10.156q6-3.3594 11.766-5.0781 5.7656-1.7031 11.328-1.7031 8.4375 0 13.031 3.3125 4.5938 3.3281 4.5938 9.4844 0 5.3594-3.2969 8.3906t-10.812 4.5469l-6.0156 1.1719q-11.031 2.1875-15.969 6.875-4.9219 4.6875-4.9219 13.047 0 9.6719 6.8125 15.234t18.766 5.5625q5.1406 0 10.453-0.9375 5.3281-0.92188 10.891-2.7656z"/>
</defs>
<use xlink:href="#m"/>
<use x="68.408203" xlink:href="#ao"/>
<use x="102.099609" xlink:href="#ae"/>
</g>
</g>
<path d="m505.23 202.34 3.5181 4.6802q1.4421 1.9184 3.3605 0.47632l6.1889-4.6523q1.9184-1.4421 0.47632-3.3605l-3.5181-4.6802q-1.4421-1.9184-3.3605-0.47632l-6.1889 4.6523q-1.9184 1.4421-0.47632 3.3605z" clip-path="url(#a)" fill="#fff" stroke="#fff"/>
<g clip-path="url(#a)">
<g transform="translate(508.48 199.9) rotate(53.067) scale(.08 -.08)">
<use xlink:href="#o"/>
</g>
</g>
<path d="m445.73 236.86v33.808q0 2.4 2.4 2.4h7.7425q2.4 0 2.4-2.4v-33.808q0-2.4-2.4-2.4h-7.7425q-2.4 0-2.4 2.4z" clip-path="url(#a)" fill="#fff" stroke="#fff"/>
<g clip-path="url(#a)">
<g transform="translate(449.79 236.86) rotate(90) scale(.08 -.08)">
<use xlink:href="#e"/>
<use x="44.083984" xlink:href="#l"/>
<use x="105.607422" xlink:href="#g"/>
<use x="144.970703" xlink:href="#i"/>
<use x="242.382812" xlink:href="#k"/>
<use x="270.166016" xlink:href="#h"/>
<use x="333.544922" xlink:href="#f"/>
<use x="394.824219" xlink:href="#j"/>
</g>
</g>
<path d="m19.062 236.86v33.808q0 2.4 2.4 2.4h7.7425q2.4 0 2.4-2.4v-33.808q0-2.4-2.4-2.4h-7.7425q-2.4 0-2.4 2.4z" clip-path="url(#a)" fill="#fff" stroke="#fff"/>
<g clip-path="url(#a)">
<g transform="translate(23.126 236.86) rotate(90) scale(.08 -.08)">
<use xlink:href="#e"/>
<use x="44.083984" xlink:href="#l"/>
<use x="105.607422" xlink:href="#g"/>
<use x="144.970703" xlink:href="#i"/>
<use x="242.382812" xlink:href="#k"/>
<use x="270.166016" xlink:href="#h"/>
<use x="333.544922" xlink:href="#f"/>
<use x="394.824219" xlink:href="#j"/>
</g>
</g>
<path d="m65.729 236.86v33.808q0 2.4 2.4 2.4h7.7425q2.4 0 2.4-2.4v-33.808q0-2.4-2.4-2.4h-7.7425q-2.4 0-2.4 2.4z" clip-path="url(#a)" fill="#fff" stroke="#fff"/>
<g clip-path="url(#a)">
<g transform="translate(69.792 236.86) rotate(90) scale(.08 -.08)">
<use xlink:href="#e"/>
<use x="44.083984" xlink:href="#l"/>
<use x="105.607422" xlink:href="#g"/>
<use x="144.970703" xlink:href="#i"/>
<use x="242.382812" xlink:href="#k"/>
<use x="270.166016" xlink:href="#h"/>
<use x="333.544922" xlink:href="#f"/>
<use x="394.824219" xlink:href="#j"/>
</g>
</g>
<path d="m120.23 205.72 1.9557-5.2034q0.84438-2.2466-1.4022-3.0909l-7.2475-2.724q-2.2466-0.84438-3.0909 1.4022l-1.9557 5.2034q-0.84438 2.2466 1.4022 3.0909l7.2475 2.724q2.2466 0.84438 3.0909-1.4022z" clip-path="url(#a)" fill="#fff" stroke="#fff"/>
<g clip-path="url(#a)">
<g transform="translate(116.42 204.29) rotate(-69.401) scale(.08 -.08)">
<defs>
<path id="af" d="m44.391 34.188q3.1719-1.0781 6.1719-4.5938t6.0312-9.6719l10.016-19.922h-10.609l-9.3125 18.703q-3.625 7.3281-7.0156 9.7188t-9.25 2.3906h-10.75v-30.812h-9.8594v72.906h22.266q12.5 0 18.656-5.2344 6.1562-5.2188 6.1562-15.766 0-6.8906-3.2031-11.438-3.2031-4.5312-9.2969-6.2812zm-24.719 30.609v-25.875h12.406q7.125 0 10.766 3.2969t3.6406 9.6875-3.6406 9.6406-10.766 3.25z"/>
</defs>
<use xlink:href="#af"/>
</g>
</g>
<path d="m128.48 200.5 1.9654 5.2291q0.84438 2.2466 3.0909 1.4022l7.2475-2.724q2.2466-0.84438 1.4022-3.0909l-1.9654-5.2291q-0.84438-2.2466-3.0909-1.4022l-7.2475 2.724q-2.2466 0.84438-1.4022 3.0909z" clip-path="url(#a)" fill="#fff" stroke="#fff"/>
<g clip-path="url(#a)">
<g transform="translate(132.28 199.07) rotate(69.401) scale(.08 -.08)">
<defs>
<path id="v" d="m64.406 67.281v-10.391q-4.9844 4.6406-10.625 6.9219-5.6406 2.2969-11.984 2.2969-12.5 0-19.141-7.6406t-6.6406-22.094q0-14.406 6.6406-22.047t19.141-7.6406q6.3438 0 11.984 2.2969t10.625 6.9375v-10.312q-5.1719-3.5156-10.969-5.2812-5.7812-1.75-12.219-1.75-16.562 0-26.094 10.125-9.5156 10.141-9.5156 27.672 0 17.578 9.5156 27.703 9.5312 10.141 26.094 10.141 6.5312 0 12.312-1.7344 5.7969-1.7344 10.875-5.2031z"/>
</defs>
<use xlink:href="#v"/>
</g>
</g>
<path d="m39.062 236.86v33.808q0 2.4 2.4 2.4h7.7425q2.4 0 2.4-2.4v-33.808q0-2.4-2.4-2.4h-7.7425q-2.4 0-2.4 2.4z" clip-path="url(#a)" fill="#fff" stroke="#fff"/>
<g clip-path="url(#a)">
<g transform="translate(43.126 236.86) rotate(90) scale(.08 -.08)">
<use xlink:href="#e"/>
<use x="44.083984" xlink:href="#l"/>
<use x="105.607422" xlink:href="#g"/>
<use x="144.970703" xlink:href="#i"/>
<use x="242.382812" xlink:href="#k"/>
<use x="270.166016" xlink:href="#h"/>
<use x="333.544922" xlink:href="#f"/>
<use x="394.824219" xlink:href="#j"/>
</g>
</g>
<path d="m99.062 236.86v33.808q0 2.4 2.4 2.4h7.7425q2.4 0 2.4-2.4v-33.808q0-2.4-2.4-2.4h-7.7425q-2.4 0-2.4 2.4z" clip-path="url(#a)" fill="#fff" stroke="#fff"/>
<g clip-path="url(#a)">
<g transform="translate(103.13 236.86) rotate(90) scale(.08 -.08)">
<use xlink:href="#e"/>
<use x="44.083984" xlink:href="#l"/>
<use x="105.607422" xlink:href="#g"/>
<use x="144.970703" xlink:href="#i"/>
<use x="242.382812" xlink:href="#k"/>
<use x="270.166016" xlink:href="#h"/>
<use x="333.544922" xlink:href="#f"/>
<use x="394.824219" xlink:href="#j"/>
</g>
</g>
<path d="m139.06 236.86v33.808q0 2.4 2.4 2.4h7.7425q2.4 0 2.4-2.4v-33.808q0-2.4-2.4-2.4h-7.7425q-2.4 0-2.4 2.4z" clip-path="url(#a)" fill="#fff" stroke="#fff"/>
<g clip-path="url(#a)">
<g transform="translate(143.13 236.86) rotate(90) scale(.08 -.08)">
<use xlink:href="#e"/>
<use x="44.083984" xlink:href="#l"/>
<use x="105.607422" xlink:href="#g"/>
<use x="144.970703" xlink:href="#i"/>
<use x="242.382812" xlink:href="#k"/>
<use x="270.166016" xlink:href="#h"/>
<use x="333.544922" xlink:href="#f"/>
<use x="394.824219" xlink:href="#j"/>
</g>
</g>
<path d="m192.4 236.86v33.808q0 2.4 2.4 2.4h7.7425q2.4 0 2.4-2.4v-33.808q0-2.4-2.4-2.4h-7.7425q-2.4 0-2.4 2.4z" clip-path="url(#a)" fill="#fff" stroke="#fff"/>
<g clip-path="url(#a)">
<g transform="translate(196.46 236.86) rotate(90) scale(.08 -.08)">
<use xlink:href="#e"/>
<use x="44.083984" xlink:href="#l"/>
<use x="105.607422" xlink:href="#g"/>
<use x="144.970703" xlink:href="#i"/>
<use x="242.382812" xlink:href="#k"/>
<use x="270.166016" xlink:href="#h"/>
<use x="333.544922" xlink:href="#f"/>
<use x="394.824219" xlink:href="#j"/>
</g>
</g>
<path d="m245.73 236.86v33.808q0 2.4 2.4 2.4h7.7425q2.4 0 2.4-2.4v-33.808q0-2.4-2.4-2.4h-7.7425q-2.4 0-2.4 2.4z" clip-path="url(#a)" fill="#fff" stroke="#fff"/>
<g clip-path="url(#a)">
<g transform="translate(249.79 236.86) rotate(90) scale(.08 -.08)">
<use xlink:href="#e"/>
<use x="44.083984" xlink:href="#l"/>
<use x="105.607422" xlink:href="#g"/>
<use x="144.970703" xlink:href="#i"/>
<use x="242.382812" xlink:href="#k"/>
<use x="270.166016" xlink:href="#h"/>
<use x="333.544922" xlink:href="#f"/>
<use x="394.824219" xlink:href="#j"/>
</g>
</g>
<path d="m525.73 236.86v33.808q0 2.4 2.4 2.4h7.7425q2.4 0 2.4-2.4v-33.808q0-2.4-2.4-2.4h-7.7425q-2.4 0-2.4 2.4z" clip-path="url(#a)" fill="#fff" stroke="#fff"/>
<g clip-path="url(#a)">
<g transform="translate(529.79 236.86) rotate(90) scale(.08 -.08)">
<use xlink:href="#e"/>
<use x="44.083984" xlink:href="#l"/>
<use x="105.607422" xlink:href="#g"/>
<use x="144.970703" xlink:href="#i"/>
<use x="242.382812" xlink:href="#k"/>
<use x="270.166016" xlink:href="#h"/>
<use x="333.544922" xlink:href="#f"/>
<use x="394.824219" xlink:href="#j"/>
</g>
</g>
<defs>
<path id="b" d="m0 8.6603c2.2967 0 4.4997-0.9125 6.1237-2.5365 1.624-1.624 2.5365-3.827 2.5365-6.1237s-0.9125-4.4997-2.5365-6.1237c-1.624-1.624-3.827-2.5365-6.1237-2.5365s-4.4997 0.9125-6.1237 2.5365c-1.624 1.624-2.5365 3.827-2.5365 6.1237s0.9125 4.4997 2.5365 6.1237c1.624 1.624 3.827 2.5365 6.1237 2.5365z"/>
</defs>
<g clip-path="url(#a)" fill="#ffffff" stroke="#ffffff">
<use x="25.333333" y="280" xlink:href="#b"/>
<use x="45.333333" y="280" xlink:href="#b"/>
<use x="72" y="280" xlink:href="#b"/>
<use x="105.333333" y="280" xlink:href="#b"/>
<use x="145.333333" y="280" xlink:href="#b"/>
<use x="198.666667" y="280" xlink:href="#b"/>
<use x="252" y="280" xlink:href="#b"/>
<use x="312" y="280" xlink:href="#b"/>
<use x="378.666667" y="280" xlink:href="#b"/>
<use x="452" y="280" xlink:href="#b"/>
<use x="532" y="280" xlink:href="#b"/>
<use x="152" y="174.306246" xlink:href="#b"/>
<use x="283.388889" y="13.333333" xlink:href="#b"/>
<use x="283.388889" y="67.142176" xlink:href="#b"/>
<use x="67" y="120.815237" xlink:href="#b"/>
<use x="312" y="227.518163" xlink:href="#b"/>
<use x="378.666667" y="227.518163" xlink:href="#b"/>
<use x="492" y="174.306246" xlink:href="#b"/>
<use x="452" y="227.518163" xlink:href="#b"/>
<use x="25.333333" y="227.518163" xlink:href="#b"/>
<use x="72" y="227.518163" xlink:href="#b"/>
<use x="125.333333" y="174.306246" xlink:href="#b"/>
<use x="45.333333" y="227.518163" xlink:href="#b"/>
<use x="105.333333" y="227.518163" xlink:href="#b"/>
<use x="145.333333" y="227.518163" xlink:href="#b"/>
<use x="198.666667" y="227.518163" xlink:href="#b"/>
<use x="252" y="227.518163" xlink:href="#b"/>
<use x="532" y="227.518163" xlink:href="#b"/>
</g>
<g clip-path="url(#a)">
<g transform="translate(-.28307 282.76) scale(.1 -.1)">
<defs>
<path id="be" d="m65.375 72.906v-72.906h-9.8594v64.594h-35.844v-64.594h-9.8594v72.906z"/>
<path id="p" d="m30.609 48.391q-7.2188 0-11.422-5.6406t-4.2031-15.453 4.1719-15.453q4.1875-5.6406 11.453-5.6406 7.1875 0 11.375 5.6562 4.2031 5.6719 4.2031 15.438 0 9.7188-4.2031 15.406-4.1875 5.6875-11.375 5.6875zm0 7.6094q11.719 0 18.406-7.625 6.7031-7.6094 6.7031-21.078 0-13.422-6.7031-21.078-6.6875-7.6406-18.406-7.6406-11.766 0-18.438 7.6406-6.6562 7.6562-6.6562 21.078 0 13.469 6.6562 21.078 6.6719 7.625 18.438 7.625z"/>
<path id="at" d="m54.891 54.688-19.781-26.609 20.797-28.078h-10.594l-15.922 21.484-15.906-21.484h-10.609l21.25 28.609-19.438 26.078h10.594l14.5-19.484 14.5 19.484z"/>
<path id="q" d="m3.7188 0v7.4688q8.875 1.375 11.609 7.5156 3.3281 8.6562 3.3281 30.766v8.9375h36.953v-54.688h-8.9844v47.516h-18.984v-5.4219q0-21.094-4.2969-30.562-4.5938-10.109-19.625-11.531z"/>
<path id="aw" d="m56.297 54.688v-54.688h-9.0312v47.516h-29.156v-47.516h-9.0312v54.688z"/>
<path id="n" d="m34.281 27.484q-10.891 0-15.094-2.4844t-4.2031-8.5q0-4.7812 3.1562-7.5938 3.1562-2.7969 8.5625-2.7969 7.4844 0 12 5.2969t4.5156 14.078v2zm17.922 3.7188v-31.203h-8.9844v8.2969q-3.0781-4.9688-7.6719-7.3438t-11.234-2.375q-8.3906 0-13.359 4.7188-4.9531 4.7188-4.9531 12.625 0 9.2188 6.1719 13.906 6.1875 4.6875 18.438 4.6875h12.609v0.89062q0 6.2031-4.0781 9.5938t-11.453 3.3906q-4.6875 0-9.1406-1.125-4.4375-1.125-8.5312-3.375v8.3125q4.9219 1.9062 9.5625 2.8438 4.6406 0.95312 9.0312 0.95312 11.875 0 17.734-6.1562 5.8594-6.1406 5.8594-18.641z"/>
<path id="ay" d="m55.906 54.688v-54.688h-8.9375v43.891l-26.359-43.891h-11.531v54.688h8.9375v-43.797l26.328 43.797zm-38.688 20.828h5.7656q0.53125-3.6562 2.8906-5.5 2.375-1.8281 6.625-1.8281 4.2031 0 6.5469 1.8125t2.9688 5.5156h5.7656q-0.48438-6.9844-4.3438-10.5t-10.938-3.5156-10.938 3.5156-4.3438 10.5z"/>
</defs>
<use xlink:href="#be"/>
<use x="75.195312" xlink:href="#p"/>
<use x="136.376953" xlink:href="#at"/>
<use x="195.556641" xlink:href="#q"/>
<use x="259.472656" xlink:href="#p"/>
<use x="320.654297" xlink:href="#aw"/>
<use x="386.035156" xlink:href="#n"/>
<use x="447.314453" xlink:href="#ay"/>
</g>
</g>
<g clip-path="url(#a)">
<g transform="translate(43.529 282.76) scale(.1 -.1)">
<defs>
<path id="ab" d="m4.8906 31.391h26.312v-8h-26.312z"/>
</defs>
<use xlink:href="#ab"/>
</g>
</g>
<g clip-path="url(#a)">
<g transform="translate(65.916 282.76) scale(.1 -.1)">
<defs>
<path id="ad" d="m9.0781 54.688h8.9375v-25.688l25.344 25.688h11.031l-20.891-21.141 23.578-33.547h-10.062l-19.375 27.594-9.625-9.7656v-17.828h-8.9375z"/>
</defs>
<use xlink:href="#ad"/>
<use x="60.400391" xlink:href="#n"/>
</g>
</g>
<g clip-path="url(#a)">
<g transform="translate(102.39 282.76) scale(.1 -.1)">
<defs>
<path id="bc" d="m18.062 25.203v-18.031h12.797q6.1562 0 9.375 2.3125 3.2188 2.3281 3.2188 6.7344 0 4.3906-3.2188 6.6875t-9.375 2.2969zm0 22.312v-15.141h11.828q5.0781 0 8.2969 2.0156 3.2188 2.0312 3.2188 5.6562 0 3.6094-3.2188 5.5312-3.2188 1.9375-8.2969 1.9375zm-8.9844 7.1719h21.391q9.625 0 14.797-3.5156t5.1719-10.016q0-5.0156-2.6406-7.9844-2.625-2.9531-7.8125-3.6719 6.2031-1.1719 9.625-4.8906 3.4219-3.7031 3.4219-9.2812 0-7.3125-5.6406-11.328-5.6406-4-16.094-4h-22.219z"/>
</defs>
<use xlink:href="#bc"/>
</g>
</g>
<g clip-path="url(#a)">
<g transform="translate(124.73 282.76) scale(.1 -.1)">
<defs>
<path id="bb" d="m21.625 7.1719h26.078v40.344h-18.891v-6.8438q0-20.109-5.7656-30.859zm-13.031 0q4.4375 1.9531 6.3906 6.1094 4.7969 10.297 4.7969 31.062v10.344h36.953v-47.516h7.1875v-20.984h-7.1875v13.812h-44.328v-13.812h-7.1875v20.984z"/>
<path id="aq" d="m50.25 7.1719h23.141v47.516h9.0312v-54.688h-73.344v54.688h9.0312v-47.516h23.109v47.516h9.0312z"/>
<path id="az" d="m55.906 54.688v-54.688h-8.9375v43.891l-26.359-43.891h-11.531v54.688h8.9375v-43.797l26.328 43.797z"/>
</defs>
<use xlink:href="#q"/>
<use x="63.916016" xlink:href="#n"/>
<use x="125.195312" xlink:href="#bb"/>
<use x="194.335938" xlink:href="#p"/>
<use x="255.517578" xlink:href="#aq"/>
<use x="347.021484" xlink:href="#az"/>
</g>
</g>
<g clip-path="url(#a)">
<g transform="translate(197.08 282.76) scale(.1 -.1)">
<defs>
<path id="an" d="m11.719 12.406h10.297v-8.4062l-8-15.625h-6.2969l4 15.625z"/>
</defs>
<use xlink:href="#an"/>
</g>
</g>
<g clip-path="url(#a)">
<g transform="translate(250.2 282.76) scale(.1 -.1)">
<use xlink:href="#ab"/>
</g>
</g>
<g clip-path="url(#a)">
<g transform="translate(294.25 282.76) scale(.1 -.1)">
<defs>
<path id="ac" d="m48.781 52.594v-8.4062q-3.8125 2.1094-7.6406 3.1562t-7.7344 1.0469q-8.75 0-13.594-5.5469-4.8281-5.5312-4.8281-15.547t4.8281-15.562q4.8438-5.5312 13.594-5.5312 3.9062 0 7.7344 1.0469t7.6406 3.1562v-8.3125q-3.7656-1.75-7.7969-2.625-4.0156-0.89062-8.5625-0.89062-12.359 0-19.641 7.7656-7.2656 7.7656-7.2656 20.953 0 13.375 7.3438 21.031 7.3594 7.6719 20.156 7.6719 4.1406 0 8.0938-0.85938 3.9531-0.84375 7.6719-2.5469z"/>
<path id="ba" d="m34.469 29.5q6.0625-1.1719 9.4219-4.75 3.375-3.5625 3.375-8.8281 0-8.4531-6.2969-12.906-6.2969-4.4375-17.922-4.4375-3.9062 0-8.0312 0.6875t-8.5156 2.0469v8.3594q3.4688-1.8125 7.6094-2.7188 4.1562-0.89062 8.6875-0.89062 7.375 0 11.5 2.7344t4.125 7.125q0 4.2969-3.6562 6.9062t-10.344 2.6094h-7.2344v7.4219h7.5625q5.6719 0 8.9688 2.1719t3.2969 5.5938q0 3.125-3.4062 5.375-3.3906 2.25-9.1875 2.25-3.4688 0-7.4062-0.64062-3.9219-0.64062-8.6719-2.0469v8.1562q4.7969 1.1719 8.9375 1.75 4.1562 0.59375 7.8594 0.59375 9.5781 0 15.109-3.8438 5.5469-3.8281 5.5469-10.719 0-4.5312-2.9375-7.6875-2.9219-3.1406-8.3906-4.3125z"/>
</defs>
<use xlink:href="#ac"/>
<use x="54.980469" xlink:href="#ad"/>
<use x="115.380859" xlink:href="#n"/>
<use x="176.660156" xlink:href="#ba"/>
<use x="229.833984" xlink:href="#n"/>
<use x="291.113281" xlink:href="#q"/>
</g>
</g>
<g clip-path="url(#a)">
<g transform="translate(368.86 282.76) scale(.1 -.1)">
<defs>
<path id="u" d="m56.203 29.594v-4.3906h-41.312q0.59375-9.2812 5.5938-14.141t13.938-4.8594q5.1719 0 10.031 1.2656t9.6562 3.8125v-8.5q-4.8438-2.0469-9.9219-3.125t-10.297-1.0781q-13.094 0-20.734 7.6094-7.6406 7.625-7.6406 20.625 0 13.422 7.25 21.297 7.25 7.8906 19.562 7.8906 11.031 0 17.453-7.1094 6.4219-7.0938 6.4219-19.297zm-8.9844 2.6406q-0.09375 7.3594-4.125 11.75-4.0312 4.4062-10.672 4.4062-7.5156 0-12.031-4.25t-5.2031-11.969z"/>
<path id="ax" d="m9.0781 54.688h13.141l15.531-36.625 15.578 36.625h13.031v-54.688h-9.0312v46.094l-15.094-35.594h-8.9844l-15.141 35.594v-46.094h-9.0312z"/>
<path id="au" d="m32.172-5.0781q-3.7969-9.7656-7.4219-12.734-3.6094-2.9844-9.6562-2.9844h-7.1875v7.5156h5.2812q3.7031 0 5.75 1.7656 2.0625 1.75 4.5469 8.2969l1.6094 4.0938-22.109 53.812h9.5156l17.094-42.766 17.094 42.766h9.5156z"/>
</defs>
<use xlink:href="#u"/>
<use x="61.523438" xlink:href="#ax"/>
<use x="136.962891" xlink:href="#au"/>
</g>
</g>
<g clip-path="url(#a)">
<g transform="translate(420.28 282.76) scale(.1 -.1)">
<defs>
<path id="ar" d="m41.016 0v23h-16.75q-7.4688 0-12.453 4.6406-4.4844 4.2031-4.4844 13.188v13.859h8.9844v-13.031q0-5.7188 2.5312-8.5938 2.5938-2.8906 7.6719-2.8906h14.5v24.516h8.9844v-54.688z"/>
<path id="av" d="m2.9375 54.688h52.391v-7.1719h-21.781v-47.516h-8.8438v47.516h-21.766z"/>
<path id="ap" d="m53.609 48.391q-7.2188 0-11.422-5.6406t-4.2031-15.453 4.1719-15.453q4.1875-5.6406 11.453-5.6406 7.1875 0 11.375 5.6562 4.2031 5.6719 4.2031 15.438 0 9.7188-4.2031 15.406-4.1875 5.6875-11.375 5.6875zm-24.797-15.531q0.92188 9.2812 7 16.203 6.0781 6.9375 17.797 6.9375t18.406-7.625q6.7031-7.6094 6.7031-21.078 0-13.422-6.7031-21.078-6.6875-7.6406-18.406-7.6406-11.766 0-18.188 7.375t-6.8594 19.484h-10.156v-25.438h-8.9844v54.688h8.9844v-21.828z"/>
<path id="bd" d="m31.109 56q11.719 0 18.406-7.625 6.6875-7.6094 6.6875-21.078 0-13.422-6.6875-21.078-6.6875-7.6406-18.406-7.6406-11.766 0-18.266 7.4219t-6.8438 21.297l-0.28125 11.188q-0.25 5.7969-0.25 7.8125 0 7.8125 2.8281 13.562 4.4531 9.0312 12.141 12.938t20.578 4.0156q5.9531 0.046875 8.5938 0.875l2.4844-7.125q-2.3906-0.98438-4.5781-1.0312l-12.219-0.82812q-6.1406-0.4375-9.8594-2.5938-9.7188-5.7031-10.641-13.172l-0.34375-2.7344q6.3438 5.7969 16.656 5.7969zm0-7.6094q-7.2344 0-11.438-5.6406-4.1875-5.6406-4.1875-15.453t4.1719-15.453 11.453-5.6406q7.1719 0 11.375 5.6562 4.2031 5.6719 4.2031 15.438 0 9.7188-4.2031 15.406t-11.375 5.6875z"/>
<path id="as" d="m56.297 0h-47.219v54.688h9.0312v-47.516h29.156v47.516h9.0312v-47.516h7.1875v-20.984h-7.1875z"/>
</defs>
<use xlink:href="#ar"/>
<use x="59.082031" xlink:href="#u"/>
<use x="120.605469" xlink:href="#ac"/>
<use x="175.585938" xlink:href="#av"/>
<use x="233.837891" xlink:href="#p"/>
<use x="295.019531" xlink:href="#q"/>
<use x="358.935547" xlink:href="#ap"/>
<use x="443.115234" xlink:href="#bd"/>
<use x="504.785156" xlink:href="#u"/>
<use x="566.308594" xlink:href="#as"/>
</g>
</g>
<g clip-path="url(#a)">
<g transform="translate(530.41 282.76) scale(.1 -.1)">
<defs>
<path id="d" d="m10.688 12.406h10.312v-12.406h-10.312z"/>
</defs>
<use xlink:href="#d"/>
</g>
</g>
<g clip-path="url(#a)">
<g transform="translate(130.91 177.07) scale(.1 -.1)">
<defs>
<path id="s" d="m9.8125 72.906h9.8594v-72.906h-9.8594z"/>
<path id="ag" d="m9.8125 72.906h14.703l18.594-49.609 18.703 49.609h14.703v-72.906h-9.625v64.016l-18.797-50h-9.9062l-18.797 50v-64.016h-9.5781z"/>
<path id="ah" d="m9.8125 72.906h9.8594v-64.609h35.5v-8.2969h-45.359z"/>
</defs>
<use xlink:href="#s"/>
<use x="29.492188" xlink:href="#ag"/>
<use x="115.771484" xlink:href="#r"/>
<use x="176.074219" xlink:href="#ah"/>
<use x="231.787109" xlink:href="#s"/>
<use x="261.279297" xlink:href="#v"/>
<use x="331.103516" xlink:href="#s"/>
<use x="360.595703" xlink:href="#e"/>
</g>
</g>
<g clip-path="url(#a)">
<g transform="translate(275.44 16.093) scale(.1 -.1)">
<defs>
<path id="c" d="m12.406 8.2969h16.109v55.625l-17.531-3.5156v8.9844l17.438 3.5156h9.8594v-64.609h16.109v-8.2969h-41.984z"/>
</defs>
<use xlink:href="#c"/>
<use x="63.623047" xlink:href="#d"/>
<use x="95.410156" xlink:href="#c"/>
</g>
</g>
<g clip-path="url(#a)">
<g transform="translate(275.44 69.902) scale(.1 -.1)">
<defs>
<path id="t" d="m19.188 8.2969h34.422v-8.2969h-46.281v8.2969q5.6094 5.8125 15.297 15.594 9.7031 9.7969 12.188 12.641 4.7344 5.3125 6.6094 9 1.8906 3.6875 1.8906 7.25 0 5.8125-4.0781 9.4688-4.0781 3.6719-10.625 3.6719-4.6406 0-9.7969-1.6094-5.1406-1.6094-11-4.8906v9.9688q5.9531 2.3906 11.125 3.6094 5.1875 1.2188 9.4844 1.2188 11.328 0 18.062-5.6719 6.7344-5.6562 6.7344-15.125 0-4.5-1.6875-8.5312-1.6719-4.0156-6.125-9.4844-1.2188-1.4219-7.7656-8.1875-6.5312-6.7656-18.453-18.922z"/>
</defs>
<use xlink:href="#c"/>
<use x="63.623047" xlink:href="#d"/>
<use x="95.410156" xlink:href="#t"/>
</g>
</g>
<g clip-path="url(#a)">
<g transform="translate(59.048 123.57) scale(.1 -.1)">
<defs>
<path id="z" d="m37.797 64.312-24.906-38.922h24.906zm-2.5938 8.5938h12.406v-47.516h10.406v-8.2031h-10.406v-17.188h-9.8125v17.188h-32.906v9.5156z"/>
</defs>
<use xlink:href="#c"/>
<use x="63.623047" xlink:href="#d"/>
<use x="95.410156" xlink:href="#z"/>
</g>
</g>
<g clip-path="url(#a)">
<g transform="translate(304.05 230.28) scale(.1 -.1)">
<defs>
<path id="y" d="m10.797 72.906h38.719v-8.3125h-29.688v-17.859q2.1406 0.73438 4.2812 1.0938 2.1562 0.35938 4.3125 0.35938 12.203 0 19.328-6.6875 7.1406-6.6875 7.1406-18.109 0-11.766-7.3281-18.297-7.3281-6.5156-20.656-6.5156-4.5938 0-9.3594 0.78125-4.75 0.78125-9.8281 2.3438v9.9219q4.3906-2.3906 9.0781-3.5625t9.9062-1.1719q8.4531 0 13.375 4.4375 4.9375 4.4375 4.9375 12.062 0 7.6094-4.9375 12.047-4.9219 4.4531-13.375 4.4531-3.9531 0-7.8906-0.875-3.9219-0.875-8.0156-2.7344z"/>
</defs>
<use xlink:href="#c"/>
<use x="63.623047" xlink:href="#d"/>
<use x="95.410156" xlink:href="#y"/>
</g>
</g>
<g clip-path="url(#a)">
<g transform="translate(370.72 230.28) scale(.1 -.1)">
<defs>
<path id="x" d="m33.016 40.375q-6.6406 0-10.531-4.5469-3.875-4.5312-3.875-12.438 0-7.8594 3.875-12.438 3.8906-4.5625 10.531-4.5625t10.516 4.5625q3.875 4.5781 3.875 12.438 0 7.9062-3.875 12.438-3.875 4.5469-10.516 4.5469zm19.578 30.922v-8.9844q-3.7188 1.75-7.5 2.6719-3.7812 0.9375-7.5 0.9375-9.7656 0-14.922-6.5938-5.1406-6.5938-5.875-19.922 2.875 4.25 7.2188 6.5156 4.3594 2.2656 9.5781 2.2656 10.984 0 17.359-6.6719 6.375-6.6562 6.375-18.125 0-11.234-6.6406-18.031-6.6406-6.7812-17.672-6.7812-12.656 0-19.344 9.6875-6.6875 9.7031-6.6875 28.109 0 17.281 8.2031 27.562t22.016 10.281q3.7188 0 7.5-0.73438t7.8906-2.1875z"/>
</defs>
<use xlink:href="#c"/>
<use x="63.623047" xlink:href="#d"/>
<use x="95.410156" xlink:href="#x"/>
</g>
</g>
<g clip-path="url(#a)">
<g transform="translate(484.05 177.07) scale(.1 -.1)">
<defs>
<path id="w" d="m8.2031 72.906h46.875v-4.2031l-26.469-68.703h-10.297l24.906 64.594h-35.016z"/>
</defs>
<use xlink:href="#c"/>
<use x="63.623047" xlink:href="#d"/>
<use x="95.410156" xlink:href="#w"/>
</g>
</g>
<g clip-path="url(#a)">
<g transform="translate(440.87 230.28) scale(.1 -.1)">
<defs>
<path id="aa" d="m31.781 66.406q-7.6094 0-11.453-7.5-3.8281-7.4844-3.8281-22.531 0-14.984 3.8281-22.484 3.8438-7.5 11.453-7.5 7.6719 0 11.5 7.5 3.8438 7.5 3.8438 22.484 0 15.047-3.8438 22.531-3.8281 7.5-11.5 7.5zm0 7.8125q12.266 0 18.734-9.7031 6.4688-9.6875 6.4688-28.141 0-18.406-6.4688-28.109-6.4688-9.6875-18.734-9.6875-12.25 0-18.719 9.6875-6.4688 9.7031-6.4688 28.109 0 18.453 6.4688 28.141 6.4688 9.7031 18.719 9.7031z"/>
</defs>
<use xlink:href="#c"/>
<use x="63.623047" xlink:href="#d"/>
<use x="95.410156" xlink:href="#c"/>
<use x="159.033203" xlink:href="#aa"/>
</g>
</g>
<g clip-path="url(#a)">
<g transform="translate(14.201 230.28) scale(.1 -.1)">
<use xlink:href="#c"/>
<use x="63.623047" xlink:href="#d"/>
<use x="95.410156" xlink:href="#c"/>
<use x="159.033203" xlink:href="#t"/>
</g>
</g>
<g clip-path="url(#a)">
<g transform="translate(60.867 230.28) scale(.1 -.1)">
<defs>
<path id="am" d="m40.578 39.312q7.0781-1.5156 11.047-6.3125 3.9844-4.7812 3.9844-11.812 0-10.781-7.4219-16.703-7.4219-5.9062-21.094-5.9062-4.5781 0-9.4375 0.90625t-10.031 2.7188v9.5156q4.0938-2.3906 8.9688-3.6094 4.8906-1.2188 10.219-1.2188 9.2656 0 14.125 3.6562t4.8594 10.641q0 6.4531-4.5156 10.078-4.5156 3.6406-12.562 3.6406h-8.5v8.1094h8.8906q7.2656 0 11.125 2.9062t3.8594 8.375q0 5.6094-3.9844 8.6094-3.9688 3.0156-11.391 3.0156-4.0625 0-8.7031-0.89062-4.6406-0.875-10.203-2.7188v8.7812q5.625 1.5625 10.531 2.3438t9.25 0.78125q11.234 0 17.766-5.1094 6.5469-5.0938 6.5469-13.781 0-6.0625-3.4688-10.234t-9.8594-5.7812z"/>
</defs>
<use xlink:href="#c"/>
<use x="63.623047" xlink:href="#d"/>
<use x="95.410156" xlink:href="#c"/>
<use x="159.033203" xlink:href="#am"/>
</g>
</g>
<g clip-path="url(#a)">
<g transform="translate(114.2 177.07) scale(.1 -.1)">
<use xlink:href="#c"/>
<use x="63.623047" xlink:href="#d"/>
<use x="95.410156" xlink:href="#c"/>
<use x="159.033203" xlink:href="#z"/>
</g>
</g>
<g clip-path="url(#a)">
<g transform="translate(34.201 230.28) scale(.1 -.1)">
<use xlink:href="#c"/>
<use x="63.623047" xlink:href="#d"/>
<use x="95.410156" xlink:href="#c"/>
<use x="159.033203" xlink:href="#y"/>
</g>
</g>
<g clip-path="url(#a)">
<g transform="translate(94.201 230.28) scale(.1 -.1)">
<use xlink:href="#c"/>
<use x="63.623047" xlink:href="#d"/>
<use x="95.410156" xlink:href="#c"/>
<use x="159.033203" xlink:href="#x"/>
</g>
</g>
<g clip-path="url(#a)">
<g transform="translate(134.2 230.28) scale(.1 -.1)">
<use xlink:href="#c"/>
<use x="63.623047" xlink:href="#d"/>
<use x="95.410156" xlink:href="#c"/>
<use x="159.033203" xlink:href="#w"/>
</g>
</g>
<g clip-path="url(#a)">
<g transform="translate(187.53 230.28) scale(.1 -.1)">
<defs>
<path id="al" d="m31.781 34.625q-7.0312 0-11.062-3.7656-4.0156-3.7656-4.0156-10.344 0-6.5938 4.0156-10.359 4.0312-3.7656 11.062-3.7656t11.078 3.7812q4.0625 3.7969 4.0625 10.344 0 6.5781-4.0312 10.344-4.0156 3.7656-11.109 3.7656zm-9.8594 4.1875q-6.3438 1.5625-9.8906 5.9062-3.5312 4.3594-3.5312 10.609 0 8.7344 6.2188 13.812 6.2344 5.0781 17.062 5.0781 10.891 0 17.094-5.0781t6.2031-13.812q0-6.25-3.5469-10.609-3.5312-4.3438-9.8281-5.9062 7.125-1.6562 11.094-6.5 3.9844-4.8281 3.9844-11.797 0-10.609-6.4688-16.281-6.4688-5.6562-18.531-5.6562-12.047 0-18.531 5.6562-6.4688 5.6719-6.4688 16.281 0 6.9688 4 11.797 4.0156 4.8438 11.141 6.5zm-3.6094 15.578q0-5.6562 3.5312-8.8281 3.5469-3.1719 9.9375-3.1719 6.3594 0 9.9375 3.1719 3.5938 3.1719 3.5938 8.8281 0 5.6719-3.5938 8.8438-3.5781 3.1719-9.9375 3.1719-6.3906 0-9.9375-3.1719-3.5312-3.1719-3.5312-8.8438z"/>
</defs>
<use xlink:href="#c"/>
<use x="63.623047" xlink:href="#d"/>
<use x="95.410156" xlink:href="#c"/>
<use x="159.033203" xlink:href="#al"/>
</g>
</g>
<g clip-path="url(#a)">
<g transform="translate(240.87 230.28) scale(.1 -.1)">
<defs>
<path id="ak" d="m10.984 1.5156v8.9844q3.7188-1.7656 7.5156-2.6875 3.8125-0.92188 7.4844-0.92188 9.7656 0 14.906 6.5625 5.1562 6.5625 5.8906 19.953-2.8281-4.2031-7.1875-6.4531-4.3438-2.25-9.6094-2.25-10.938 0-17.312 6.6094-6.375 6.625-6.375 18.109 0 11.219 6.6406 18 6.6406 6.7969 17.672 6.7969 12.656 0 19.312-9.7031 6.6719-9.6875 6.6719-28.141 0-17.234-8.1875-27.516-8.1719-10.281-21.984-10.281-3.7188 0-7.5312 0.73438-3.7969 0.73438-7.9062 2.2031zm19.625 30.906q6.6406 0 10.516 4.5312 3.8906 4.5469 3.8906 12.469 0 7.8594-3.8906 12.422-3.875 4.5625-10.516 4.5625t-10.516-4.5625-3.875-12.422q0-7.9219 3.875-12.469 3.875-4.5312 10.516-4.5312z"/>
</defs>
<use xlink:href="#c"/>
<use x="63.623047" xlink:href="#d"/>
<use x="95.410156" xlink:href="#c"/>
<use x="159.033203" xlink:href="#ak"/>
</g>
</g>
<g clip-path="url(#a)">
<g transform="translate(520.87 230.28) scale(.1 -.1)">
<use xlink:href="#c"/>
<use x="63.623047" xlink:href="#d"/>
<use x="95.410156" xlink:href="#t"/>
<use x="159.033203" xlink:href="#aa"/>
</g>
</g>
<defs>
<clipPath id="a">
<rect width="557.33" height="293.33"/>
</clipPath>
</defs>
</svg>
