<?xml version="1.0" encoding="UTF-8"?>
<!DOCTYPE svg  PUBLIC '-//W3C//DTD SVG 1.1//EN'  'http://www.w3.org/Graphics/SVG/1.1/DTD/svg11.dtd'>
<svg width="962.67pt" height="506.67pt" version="1.1" viewBox="0 0 962.67 506.67" xmlns="http://www.w3.org/2000/svg" xmlns:xlink="http://www.w3.org/1999/xlink">
<metadata>
<rdf:RDF xmlns:cc="http://creativecommons.org/ns#" xmlns:dc="http://purl.org/dc/elements/1.1/" xmlns:rdf="http://www.w3.org/1999/02/22-rdf-syntax-ns#">
<cc:Work>
<dc:type rdf:resource="http://purl.org/dc/dcmitype/StillImage"/>
<dc:date>2021-02-01T11:23:55.595241</dc:date>
<dc:format>image/svg+xml</dc:format>
<dc:creator>
<cc:Agent>
<dc:title>Matplotlib v3.3.3, https://matplotlib.org/</dc:title>
</cc:Agent>
</dc:creator>
</cc:Work>
</rdf:RDF>
</metadata>
<defs>
<style type="text/css">*{stroke-linecap:butt;stroke-linejoin:round;}</style>
</defs>
<path d="m0 506.67h962.67v-506.67h-962.67z" fill="#fff"/>
<g fill="none" stroke="#000">
<path d="m596.83 23.03-162.19 66.409" clip-path="url(#a)"/>
<path d="m596.83 23.03 162.19 330.64" clip-path="url(#a)"/>
<path d="m434.64 89.439-304.59 66.298" clip-path="url(#a)"/>
<path d="m434.64 89.439 105.6 329.66" clip-path="url(#a)"/>
<path d="m434.64 89.439 172.92 329.66" clip-path="url(#a)"/>
<path d="m434.64 89.439-16.417 329.66" clip-path="url(#a)"/>
<path d="m434.64 89.439 42.488 329.66" clip-path="url(#a)"/>
<path d="m759.03 353.67-4.2075 65.431" clip-path="url(#a)"/>
<path d="m759.03 353.67 75.734 65.431" clip-path="url(#a)"/>
<path d="m759.03 353.67-151.47 65.431" clip-path="url(#a)" stroke-dasharray="3.7,1.6"/>
<path d="m759.03 353.67-79.942 65.431" clip-path="url(#a)"/>
<path d="m759.03 353.67 159.88 65.431" clip-path="url(#a)"/>
<path d="m754.82 419.1v64.533" clip-path="url(#a)"/>
<path d="m834.76 419.1v64.533" clip-path="url(#a)"/>
<path d="m130.05 155.74 233.48 66.165" clip-path="url(#a)"/>
<path d="m130.05 155.74-86.292 263.37" clip-path="url(#a)"/>
<path d="m130.05 155.74-46.321 263.37" clip-path="url(#a)"/>
<path d="m130.05 155.74 18.895 263.37" clip-path="url(#a)"/>
<path d="m130.05 155.74 197.95 66.165" clip-path="url(#a)"/>
<path d="m130.05 155.74-73.669 263.37" clip-path="url(#a)"/>
<path d="m130.05 155.74-10.558 263.37" clip-path="url(#a)"/>
<path d="m540.24 419.1v64.533" clip-path="url(#a)"/>
<path d="m607.56 419.1v64.533" clip-path="url(#a)"/>
<path d="m43.758 419.1v64.533" clip-path="url(#a)"/>
<path d="m83.728 419.1-10.519 64.533" clip-path="url(#a)"/>
<path d="m83.728 419.1 10.519 64.533" clip-path="url(#a)"/>
<path d="m148.94 419.1v64.533" clip-path="url(#a)"/>
<path d="m327.99 221.9-31.322 65.998" clip-path="url(#a)"/>
<path d="m327.99 221.9 31.322 197.2" clip-path="url(#a)"/>
<path d="m296.67 287.9 62.644 131.2" clip-path="url(#a)" stroke-dasharray="3.7,1.6"/>
<path d="m296.67 287.9-74.799 65.774" clip-path="url(#a)"/>
<path d="m296.67 287.9 12.155 131.2" clip-path="url(#a)"/>
<path d="m359.32 419.1v64.533" clip-path="url(#a)"/>
<path d="m221.87 353.67-39.27 65.431" clip-path="url(#a)"/>
<path d="m221.87 353.67 40.672 65.431" clip-path="url(#a)"/>
<path d="m221.87 353.67-1.4025 65.431" clip-path="url(#a)"/>
<path d="m308.83 419.1v64.533" clip-path="url(#a)"/>
<path d="m182.6 419.1v64.533" clip-path="url(#a)"/>
<path d="m262.55 419.1v64.533" clip-path="url(#a)"/>
<path d="m56.38 419.1v64.533" clip-path="url(#a)"/>
<path d="m119.49 419.1v64.533" clip-path="url(#a)"/>
<path d="m220.47 419.1v64.533" clip-path="url(#a)"/>
<path d="m418.22 419.1v64.533" clip-path="url(#a)"/>
<path d="m477.13 419.1v64.533" clip-path="url(#a)"/>
<path d="m679.08 419.1v64.533" clip-path="url(#a)"/>
<path d="m918.91 419.1v64.533" clip-path="url(#a)"/>
</g>
<path d="m515.33 63.178 5.5676-2.2796q2.221-0.90939 1.3117-3.1304l-2.9337-7.1652q-0.90939-2.221-3.1304-1.3117l-5.5676 2.2796q-2.221 0.90939-1.3117 3.1304l2.9337 7.1652q0.90939 2.221 3.1304 1.3117z" clip-path="url(#a)" fill="#fff" stroke="#fff"/>
<g clip-path="url(#a)">
<g transform="translate(513.79 59.418) rotate(-22.266) scale(.08 -.08)">
<defs>
<path id="ah" d="m9.8125 72.906h9.8594v-29.891h35.844v29.891h9.8594v-72.906h-9.8594v34.719h-35.844v-34.719h-9.8594z"/>
</defs>
<use xlink:href="#ah"/>
</g>
</g>
<path d="m670.97 188.41 2.6496 5.4014q1.057 2.1547 3.2117 1.0977l6.9512-3.4098q2.1547-1.057 1.0977-3.2117l-2.6496-5.4014q-1.057-2.1547-3.2117-1.0977l-6.9512 3.4098q-2.1547 1.057-1.0977 3.2117z" clip-path="url(#a)" fill="#fff" stroke="#fff"/>
<g clip-path="url(#a)">
<g transform="translate(674.62 186.62) rotate(63.87) scale(.08 -.08)">
<use xlink:href="#ah"/>
</g>
</g>
<path d="m281 129.3 5.3473-1.1639q2.3451-0.51044 1.8346-2.8555l-1.6467-7.5654q-0.51044-2.3451-2.8555-1.8346l-5.3473 1.1639q-2.3451 0.51044-1.8346 2.8555l1.6467 7.5654q0.51044 2.3451 2.8555 1.8346z" clip-path="url(#a)" fill="#fff" stroke="#fff"/>
<g clip-path="url(#a)">
<g transform="translate(280.14 125.33) rotate(-12.28) scale(.08 -.08)">
<defs>
<path id="p" d="m34.188 63.188-13.391-36.281h26.812zm-5.5781 9.7188h11.188l27.781-72.906h-10.25l-6.6406 18.703h-32.859l-6.6406-18.703h-10.406z"/>
</defs>
<use xlink:href="#p"/>
</g>
</g>
<path d="m480.73 253.89 1.4715 4.5938q0.73213 2.2856 3.0177 1.5535l7.3734-2.3619q2.2856-0.73213 1.5535-3.0177l-1.4715-4.5938q-0.73213-2.2856-3.0177-1.5535l-7.3734 2.3619q-2.2856 0.73213-1.5535 3.0177z" clip-path="url(#a)" fill="#fff" stroke="#fff"/>
<g clip-path="url(#a)">
<g transform="translate(484.6 252.65) rotate(72.238) scale(.08 -.08)">
<defs>
<path id="y" d="m19.672 64.797v-27.391h12.406q6.8906 0 10.641 3.5625 3.7656 3.5625 3.7656 10.156 0 6.5469-3.7656 10.109-3.75 3.5625-10.641 3.5625zm-9.8594 8.1094h22.266q12.266 0 18.531-5.5469 6.2812-5.5469 6.2812-16.234 0-10.797-6.2812-16.312-6.2656-5.5156-18.531-5.5156h-12.406v-29.297h-9.8594z"/>
</defs>
<use xlink:href="#y"/>
</g>
</g>
<path d="m514.27 254.76 2.542 4.8463q1.1148 2.1254 3.2402 1.0105l6.8565-3.5964q2.1254-1.1148 1.0105-3.2402l-2.542-4.8463q-1.1148-2.1254-3.2402-1.0105l-6.8565 3.5964q-2.1254 1.1148-1.0105 3.2402z" clip-path="url(#a)" fill="#fff" stroke="#fff"/>
<g clip-path="url(#a)">
<g transform="translate(517.87 252.87) rotate(62.322) scale(.08 -.08)">
<use xlink:href="#p"/>
</g>
</g>
<path d="m432.55 257.51 0.29121-5.8478q0.11937-2.397-2.2777-2.5164l-7.7329-0.38509q-2.397-0.11937-2.5164 2.2777l-0.29121 5.8478q-0.11937 2.397 2.2777 2.5164l7.7329 0.38509q2.397 0.11937 2.5164-2.2777z" clip-path="url(#a)" fill="#fff" stroke="#fff"/>
<g clip-path="url(#a)">
<g transform="translate(428.49 257.31) rotate(-87.149) scale(.08 -.08)">
<defs>
<path id="o" d="m8.6875 72.906h9.9219v-44.297q0-11.719 4.2344-16.875 4.25-5.1406 13.781-5.1406 9.4688 0 13.719 5.1406 4.25 5.1562 4.25 16.875v44.297h9.9062v-45.516q0-14.25-7.0625-21.531-7.0469-7.2812-20.812-7.2812-13.828 0-20.891 7.2812-7.0469 7.2812-7.0469 21.531z"/>
</defs>
<use xlink:href="#o"/>
</g>
</g>
<path d="m449.29 252.17 0.74841 5.807q0.30678 2.3803 2.6871 2.0735l7.679-0.98968q2.3803-0.30678 2.0735-2.6871l-0.74841-5.807q-0.30678-2.3803-2.6871-2.0735l-7.679 0.98968q-2.3803 0.30678-2.0735 2.6871z" clip-path="url(#a)" fill="#fff" stroke="#fff"/>
<g clip-path="url(#a)">
<g transform="translate(453.32 251.65) rotate(82.656) scale(.08 -.08)">
<use xlink:href="#o"/>
</g>
</g>
<path d="m762.98 389.86 0.3953-6.1473q0.15401-2.3951-2.241-2.5491l-7.7265-0.49685q-2.3951-0.15401-2.5491 2.241l-0.3953 6.1473q-0.15401 2.3951 2.241 2.5491l7.7265 0.49685q2.3951 0.15401 2.5491-2.241z" clip-path="url(#a)" fill="#fff" stroke="#fff"/>
<g clip-path="url(#a)">
<g transform="translate(758.93 389.6) rotate(-86.321) scale(.08 -.08)">
<defs>
<path id="aj" d="m19.672 64.797v-56.688h11.922q15.094 0 22.094 6.8281 7 6.8438 7 21.594 0 14.641-7 21.453t-22.094 6.8125zm-9.8594 8.1094h20.266q21.188 0 31.094-8.8125 9.9219-8.8125 9.9219-27.562 0-18.859-9.9688-27.703-9.9531-8.8281-31.047-8.8281h-20.266z"/>
</defs>
<use xlink:href="#aj"/>
</g>
</g>
<path d="m790.97 389.56 3.6502 3.1536q1.8161 1.569 3.3851-0.24708l5.0617-5.8588q1.569-1.8161-0.24708-3.3851l-3.6502-3.1536q-1.8161-1.569-3.3851 0.24708l-5.0617 5.8588q-1.569 1.8161 0.24708 3.3851z" clip-path="url(#a)" fill="#fff" stroke="#fff"/>
<g clip-path="url(#a)">
<g transform="translate(793.62 386.48) rotate(40.825) scale(.08 -.08)">
<use xlink:href="#y"/>
</g>
</g>
<path d="m683.27 393.23 5.0238-2.1702q2.2032-0.95174 1.2515-3.155l-3.0703-7.1077q-0.95174-2.2032-3.155-1.2515l-5.0238 2.1702q-2.2032 0.95174-1.2515 3.155l3.0703 7.1077q0.95174 2.2032 3.155 1.2515z" clip-path="url(#a)" fill="#fff" stroke="#fff"/>
<g clip-path="url(#a)">
<g transform="translate(681.65 389.5) rotate(-23.363) scale(.08 -.08)">
<use xlink:href="#p"/>
</g>
</g>
<path d="m720.76 393.1 4.5309-3.7084q1.8572-1.5201 0.33713-3.3773l-4.9039-5.9915q-1.5201-1.8572-3.3773-0.33713l-4.5309 3.7084q-1.8572 1.5201-0.33713 3.3773l4.9039 5.9915q1.5201 1.8572 3.3773 0.33713z" clip-path="url(#a)" fill="#fff" stroke="#fff"/>
<g clip-path="url(#a)">
<g transform="translate(718.19 389.95) rotate(-39.3) scale(.08 -.08)">
<use xlink:href="#o"/>
</g>
</g>
<path d="m833.88 391.08 5.4188 2.2176q2.2212 0.909 3.1302-1.3122l2.9325-7.1657q0.909-2.2212-1.3122-3.1302l-5.4188-2.2176q-2.2212-0.909-3.1302 1.3122l-2.9325 7.1657q-0.909 2.2212 1.3122 3.1302z" clip-path="url(#a)" fill="#fff" stroke="#fff"/>
<g clip-path="url(#a)">
<g transform="translate(835.42 387.32) rotate(22.256) scale(.08 -.08)">
<use xlink:href="#o"/>
</g>
</g>
<path d="m748.55 434.47v33.808q0 2.4 2.4 2.4h7.7425q2.4 0 2.4-2.4v-33.808q0-2.4-2.4-2.4h-7.7425q-2.4 0-2.4 2.4z" clip-path="url(#a)" fill="#fff" stroke="#fff"/>
<g clip-path="url(#a)">
<g transform="translate(752.61 434.47) rotate(90) scale(.08 -.08)">
<defs>
<path id="e" d="m-0.29688 72.906h61.672v-8.3125h-25.875v-64.594h-9.9062v64.594h-25.891z"/>
<path id="l" d="m56.203 29.594v-4.3906h-41.312q0.59375-9.2812 5.5938-14.141t13.938-4.8594q5.1719 0 10.031 1.2656t9.6562 3.8125v-8.5q-4.8438-2.0469-9.9219-3.125t-10.297-1.0781q-13.094 0-20.734 7.6094-7.6406 7.625-7.6406 20.625 0 13.422 7.25 21.297 7.25 7.8906 19.562 7.8906 11.031 0 17.453-7.1094 6.4219-7.0938 6.4219-19.297zm-8.9844 2.6406q-0.09375 7.3594-4.125 11.75-4.0312 4.4062-10.672 4.4062-7.5156 0-12.031-4.25t-5.2031-11.969z"/>
<path id="g" d="m41.109 46.297q-1.5156 0.875-3.2969 1.2812-1.7812 0.42188-3.9219 0.42188-7.625 0-11.703-4.9531t-4.0781-14.234v-28.812h-9.0312v54.688h9.0312v-8.5q2.8438 4.9844 7.375 7.3906 4.5469 2.4219 11.047 2.4219 0.92188 0 2.0469-0.125 1.125-0.10938 2.4844-0.35938z"/>
<path id="i" d="m52 44.188q3.375 6.0625 8.0625 8.9375t11.031 2.875q8.5469 0 13.188-5.9844 4.6406-5.9688 4.6406-17v-33.016h-9.0312v32.719q0 7.8594-2.7969 11.656-2.7812 3.8125-8.4844 3.8125-6.9844 0-11.047-4.6406-4.0469-4.625-4.0469-12.641v-30.906h-9.0312v32.719q0 7.9062-2.7812 11.688t-8.5938 3.7812q-6.8906 0-10.953-4.6562-4.0469-4.6562-4.0469-12.625v-30.906h-9.0312v54.688h9.0312v-8.5q3.0781 5.0312 7.375 7.4219t10.203 2.3906q5.9688 0 10.141-3.0312 4.1719-3.0156 6.1719-8.7812z"/>
<path id="k" d="m9.4219 54.688h8.9844v-54.688h-8.9844zm0 21.297h8.9844v-11.391h-8.9844z"/>
<path id="h" d="m54.891 33.016v-33.016h-8.9844v32.719q0 7.7656-3.0312 11.609-3.0312 3.8594-9.0781 3.8594-7.2812 0-11.484-4.6406-4.2031-4.625-4.2031-12.641v-30.906h-9.0312v54.688h9.0312v-8.5q3.2344 4.9375 7.5938 7.375 4.375 2.4375 10.094 2.4375 9.4219 0 14.25-5.8281 4.8438-5.8281 4.8438-17.156z"/>
<path id="f" d="m34.281 27.484q-10.891 0-15.094-2.4844t-4.2031-8.5q0-4.7812 3.1562-7.5938 3.1562-2.7969 8.5625-2.7969 7.4844 0 12 5.2969t4.5156 14.078v2zm17.922 3.7188v-31.203h-8.9844v8.2969q-3.0781-4.9688-7.6719-7.3438t-11.234-2.375q-8.3906 0-13.359 4.7188-4.9531 4.7188-4.9531 12.625 0 9.2188 6.1719 13.906 6.1875 4.6875 18.438 4.6875h12.609v0.89062q0 6.2031-4.0781 9.5938t-11.453 3.3906q-4.6875 0-9.1406-1.125-4.4375-1.125-8.5312-3.375v8.3125q4.9219 1.9062 9.5625 2.8438 4.6406 0.95312 9.0312 0.95312 11.875 0 17.734-6.1562 5.8594-6.1406 5.8594-18.641z"/>
<path id="j" d="m9.4219 75.984h8.9844v-75.984h-8.9844z"/>
</defs>
<use xlink:href="#e"/>
<use x="44.083984" xlink:href="#l"/>
<use x="105.607422" xlink:href="#g"/>
<use x="144.970703" xlink:href="#i"/>
<use x="242.382812" xlink:href="#k"/>
<use x="270.166016" xlink:href="#h"/>
<use x="333.544922" xlink:href="#f"/>
<use x="394.824219" xlink:href="#j"/>
</g>
</g>
<path d="m828.49 434.47v33.808q0 2.4 2.4 2.4h7.7425q2.4 0 2.4-2.4v-33.808q0-2.4-2.4-2.4h-7.7425q-2.4 0-2.4 2.4z" clip-path="url(#a)" fill="#fff" stroke="#fff"/>
<g clip-path="url(#a)">
<g transform="translate(832.55 434.47) rotate(90) scale(.08 -.08)">
<use xlink:href="#e"/>
<use x="44.083984" xlink:href="#l"/>
<use x="105.607422" xlink:href="#g"/>
<use x="144.970703" xlink:href="#i"/>
<use x="242.382812" xlink:href="#k"/>
<use x="270.166016" xlink:href="#h"/>
<use x="333.544922" xlink:href="#f"/>
<use x="394.824219" xlink:href="#j"/>
</g>
</g>
<path d="m242.63 194.16 4.8863 1.3847q2.3091 0.65437 2.9634-1.6547l2.111-7.4492q0.65437-2.3091-1.6547-2.9634l-4.8863-1.3847q-2.3091-0.65437-2.9634 1.6547l-2.111 7.4492q-0.65437 2.3091 1.6547 2.9634z" clip-path="url(#a)" fill="#fff" stroke="#fff"/>
<g clip-path="url(#a)">
<g transform="translate(243.74 190.25) rotate(15.822) scale(.08 -.08)">
<defs>
<path id="ag" d="m53.516 70.516v-9.625q-5.6094 2.6875-10.594 4-4.9844 1.3281-9.625 1.3281-8.0469 0-12.422-3.125t-4.375-8.8906q0-4.8438 2.9062-7.3125 2.9062-2.4531 11.016-3.9688l5.9531-1.2188q11.031-2.1094 16.281-7.4062t5.25-14.172q0-10.609-7.1094-16.078-7.0938-5.4688-20.812-5.4688-5.1719 0-11.016 1.1719-5.8281 1.1719-12.078 3.4688v10.156q6-3.3594 11.766-5.0781 5.7656-1.7031 11.328-1.7031 8.4375 0 13.031 3.3125 4.5938 3.3281 4.5938 9.4844 0 5.3594-3.2969 8.3906t-10.812 4.5469l-6.0156 1.1719q-11.031 2.1875-15.969 6.875-4.9219 4.6875-4.9219 13.047 0 9.6719 6.8125 15.234t18.766 5.5625q5.1406 0 10.453-0.9375 5.3281-0.92188 10.891-2.7656z"/>
</defs>
<use xlink:href="#ag"/>
</g>
</g>
<path d="m91.898 292.32 1.9301-5.8906q0.74727-2.2807-1.5334-3.028l-7.3576-2.4107q-2.2807-0.74727-3.028 1.5334l-1.9301 5.8906q-0.74727 2.2807 1.5334 3.028l7.3576 2.4107q2.2807 0.74727 3.028-1.5334z" clip-path="url(#a)" fill="#fff" stroke="#fff"/>
<g clip-path="url(#a)">
<g transform="translate(88.036 291.05) rotate(-71.859) scale(.08 -.08)">
<defs>
<path id="ai" d="m59.516 10.406v19.578h-16.109v8.1094h25.875v-31.312q-5.7031-4.0469-12.594-6.125-6.875-2.0781-14.688-2.0781-17.094 0-26.75 9.9844-9.6406 10-9.6406 27.812 0 17.875 9.6406 27.859 9.6562 9.9844 26.75 9.9844 7.125 0 13.547-1.7656 6.4219-1.75 11.844-5.1719v-10.5q-5.4688 4.6406-11.625 6.9844t-12.938 2.3438q-13.391 0-20.109-7.4688-6.7031-7.4688-6.7031-22.266 0-14.75 6.7031-22.219 6.7188-7.4688 20.109-7.4688 5.2188 0 9.3125 0.90625 4.1094 0.90625 7.375 2.8125z"/>
</defs>
<use xlink:href="#ai"/>
</g>
</g>
<path d="m112.53 291.56 1.0738-6.105q0.41573-2.3637-1.948-2.7795l-7.6255-1.3412q-2.3637-0.41573-2.7795 1.948l-1.0738 6.105q-0.41573 2.3637 1.948 2.7795l7.6255 1.3412q2.3637 0.41573 2.7794-1.948z" clip-path="url(#a)" fill="#fff" stroke="#fff"/>
<g clip-path="url(#a)">
<g transform="translate(108.53 290.86) rotate(-80.025) scale(.08 -.08)">
<use xlink:href="#ai"/>
</g>
</g>
<path d="m133.05 285.14 0.3916 5.4585q0.17174 2.3938 2.5656 2.2221l7.7227-0.55404q2.3938-0.17174 2.2221-2.5656l-0.3916-5.4585q-0.17174-2.3938-2.5656-2.2221l-7.7227 0.55404q-2.3938 0.17174-2.2221 2.5656z" clip-path="url(#a)" fill="#fff" stroke="#fff"/>
<g clip-path="url(#a)">
<g transform="translate(137.1 284.85) rotate(85.896) scale(.08 -.08)">
<use xlink:href="#p"/>
</g>
</g>
<path d="m224.44 193.9 5.1902 1.7349q2.2762 0.76084 3.037-1.5154l2.4545-7.3431q0.76084-2.2762-1.5154-3.037l-5.1902-1.7349q-2.2762-0.76084-3.037 1.5154l-2.4545 7.3431q-0.76084 2.2762 1.5154 3.037z" clip-path="url(#a)" fill="#fff" stroke="#fff"/>
<g clip-path="url(#a)">
<g transform="translate(225.73 190.05) rotate(18.483) scale(.08 -.08)">
<use xlink:href="#p"/>
</g>
</g>
<path d="m98.466 291.93 1.5772-5.6386q0.64652-2.3113-1.6648-2.9578l-7.4563-2.0857q-2.3113-0.64652-2.9578 1.6648l-1.5772 5.6386q-0.64652 2.3113 1.6648 2.9578l7.4563 2.0857q2.3113 0.64652 2.9578-1.6648z" clip-path="url(#a)" fill="#fff" stroke="#fff"/>
<g clip-path="url(#a)">
<g transform="translate(94.552 290.83) rotate(-74.372) scale(.08 -.08)">
<use xlink:href="#o"/>
</g>
</g>
<path d="m130.92 290.6 0.23452-5.8503q0.096132-2.3981-2.3019-2.4942l-7.7363-0.31013q-2.3981-0.096132-2.4942 2.3019l-0.23452 5.8503q-0.096132 2.3981 2.3019 2.4942l7.7363 0.31013q2.3981 0.096132 2.4942-2.3019z" clip-path="url(#a)" fill="#fff" stroke="#fff"/>
<g clip-path="url(#a)">
<g transform="translate(126.86 290.43) rotate(-87.704) scale(.08 -.08)">
<use xlink:href="#o"/>
</g>
</g>
<path d="m533.97 434.47v33.808q0 2.4 2.4 2.4h7.7425q2.4 0 2.4-2.4v-33.808q0-2.4-2.4-2.4h-7.7425q-2.4 0-2.4 2.4z" clip-path="url(#a)" fill="#fff" stroke="#fff"/>
<g clip-path="url(#a)">
<g transform="translate(538.03 434.47) rotate(90) scale(.08 -.08)">
<use xlink:href="#e"/>
<use x="44.083984" xlink:href="#l"/>
<use x="105.607422" xlink:href="#g"/>
<use x="144.970703" xlink:href="#i"/>
<use x="242.382812" xlink:href="#k"/>
<use x="270.166016" xlink:href="#h"/>
<use x="333.544922" xlink:href="#f"/>
<use x="394.824219" xlink:href="#j"/>
</g>
</g>
<path d="m601.29 434.47v33.808q0 2.4 2.4 2.4h7.7425q2.4 0 2.4-2.4v-33.808q0-2.4-2.4-2.4h-7.7425q-2.4 0-2.4 2.4z" clip-path="url(#a)" fill="#fff" stroke="#fff"/>
<g clip-path="url(#a)">
<g transform="translate(605.35 434.47) rotate(90) scale(.08 -.08)">
<use xlink:href="#e"/>
<use x="44.083984" xlink:href="#l"/>
<use x="105.607422" xlink:href="#g"/>
<use x="144.970703" xlink:href="#i"/>
<use x="242.382812" xlink:href="#k"/>
<use x="270.166016" xlink:href="#h"/>
<use x="333.544922" xlink:href="#f"/>
<use x="394.824219" xlink:href="#j"/>
</g>
</g>
<path d="m37.486 434.47v33.808q0 2.4 2.4 2.4h7.7425q2.4 0 2.4-2.4v-33.808q0-2.4-2.4-2.4h-7.7425q-2.4 0-2.4 2.4z" clip-path="url(#a)" fill="#fff" stroke="#fff"/>
<g clip-path="url(#a)">
<g transform="translate(41.55 434.47) rotate(90) scale(.08 -.08)">
<use xlink:href="#e"/>
<use x="44.083984" xlink:href="#l"/>
<use x="105.607422" xlink:href="#g"/>
<use x="144.970703" xlink:href="#i"/>
<use x="242.382812" xlink:href="#k"/>
<use x="270.166016" xlink:href="#h"/>
<use x="333.544922" xlink:href="#f"/>
<use x="394.824219" xlink:href="#j"/>
</g>
</g>
<path d="m81.939 469.06 5.4387-33.367q0.3861-2.3687-1.9826-2.7548l-7.6417-1.2456q-2.3687-0.3861-2.7548 1.9826l-5.4387 33.367q-0.3861 2.3687 1.9826 2.7548l7.6417 1.2456q2.3687 0.3861 2.7548-1.9826z" clip-path="url(#a)" fill="#fff" stroke="#fff"/>
<g clip-path="url(#a)">
<g transform="translate(77.928 468.41) rotate(-80.742) scale(.08 -.08)">
<use xlink:href="#e"/>
<use x="44.083984" xlink:href="#l"/>
<use x="105.607422" xlink:href="#g"/>
<use x="144.970703" xlink:href="#i"/>
<use x="242.382812" xlink:href="#k"/>
<use x="270.166016" xlink:href="#h"/>
<use x="333.544922" xlink:href="#f"/>
<use x="394.824219" xlink:href="#j"/>
</g>
</g>
<path d="m80.079 435.7 5.4387 33.367q0.3861 2.3687 2.7548 1.9826l7.6417-1.2456q2.3687-0.3861 1.9826-2.7548l-5.4387-33.367q-0.3861-2.3687-2.7548-1.9826l-7.6417 1.2456q-2.3687 0.3861-1.9826 2.7548z" clip-path="url(#a)" fill="#fff" stroke="#fff"/>
<g clip-path="url(#a)">
<g transform="translate(84.09 435.04) rotate(80.742) scale(.08 -.08)">
<use xlink:href="#e"/>
<use x="44.083984" xlink:href="#l"/>
<use x="105.607422" xlink:href="#g"/>
<use x="144.970703" xlink:href="#i"/>
<use x="242.382812" xlink:href="#k"/>
<use x="270.166016" xlink:href="#h"/>
<use x="333.544922" xlink:href="#f"/>
<use x="394.824219" xlink:href="#j"/>
</g>
</g>
<path d="m142.67 434.47v33.808q0 2.4 2.4 2.4h7.7425q2.4 0 2.4-2.4v-33.808q0-2.4-2.4-2.4h-7.7425q-2.4 0-2.4 2.4z" clip-path="url(#a)" fill="#fff" stroke="#fff"/>
<g clip-path="url(#a)">
<g transform="translate(146.74 434.47) rotate(90) scale(.08 -.08)">
<use xlink:href="#e"/>
<use x="44.083984" xlink:href="#l"/>
<use x="105.607422" xlink:href="#g"/>
<use x="144.970703" xlink:href="#i"/>
<use x="242.382812" xlink:href="#k"/>
<use x="270.166016" xlink:href="#h"/>
<use x="333.544922" xlink:href="#f"/>
<use x="394.824219" xlink:href="#j"/>
</g>
</g>
<path d="m316.92 259.87 2.1674-4.5668q1.029-2.1682-1.1392-3.1972l-6.9947-3.3197q-2.1682-1.029-3.1972 1.1392l-2.1674 4.5668q-1.029 2.1682 1.1392 3.1972l6.9947 3.3197q2.1682 1.029 3.1972-1.1392z" clip-path="url(#a)" fill="#fff" stroke="#fff"/>
<g clip-path="url(#a)">
<g transform="translate(313.24 258.13) rotate(-64.611) scale(.08 -.08)">
<defs>
<path id="ax" d="m9.8125 72.906h46.094v-8.3125h-36.234v-21.578h34.719v-8.2969h-34.719v-26.422h37.109v-8.2969h-46.969z"/>
</defs>
<use xlink:href="#ax"/>
</g>
</g>
<path d="m337.02 318.73 0.8763 5.5171q0.37648 2.3703 2.7468 1.9938l7.6466-1.2145q2.3703-0.37648 1.9938-2.7468l-0.8763-5.5171q-0.37648-2.3703-2.7468-1.9938l-7.6466 1.2145q-2.3703 0.37648-1.9938 2.7468z" clip-path="url(#a)" fill="#fff" stroke="#fff"/>
<g clip-path="url(#a)">
<g transform="translate(341.04 318.09) rotate(80.975) scale(.08 -.08)">
<defs>
<path id="v" d="m64.406 67.281v-10.391q-4.9844 4.6406-10.625 6.9219-5.6406 2.2969-11.984 2.2969-12.5 0-19.141-7.6406t-6.6406-22.094q0-14.406 6.6406-22.047t19.141-7.6406q6.3438 0 11.984 2.2969t10.625 6.9375v-10.312q-5.1719-3.5156-10.969-5.2812-5.7812-1.75-12.219-1.75-16.562 0-26.094 10.125-9.5156 10.141-9.5156 27.672 0 17.578 9.5156 27.703 9.5312 10.141 26.094 10.141 6.5312 0 12.312-1.7344 5.7969-1.7344 10.875-5.2031z"/>
</defs>
<use xlink:href="#v"/>
</g>
</g>
<path d="m321.16 353.73 2.3579 4.9385q1.0341 2.1658 3.1999 1.1317l6.987-3.336q2.1658-1.0341 1.1317-3.1999l-2.3579-4.9385q-1.0341-2.1658-3.1999-1.1317l-6.987 3.336q-2.1658 1.0341-1.1317 3.1999z" clip-path="url(#a)" fill="#fff" stroke="#fff"/>
<g clip-path="url(#a)">
<g transform="translate(324.82 351.98) rotate(64.478) scale(.08 -.08)">
<use xlink:href="#p"/>
</g>
</g>
<path d="m261.1 327.53 4.6259-4.0677q1.8023-1.5848 0.21747-3.3871l-5.1127-5.8143q-1.5848-1.8023-3.3871-0.21747l-4.6259 4.0677q-1.8023 1.5848-0.21747 3.3871l5.1127 5.8143q1.5848 1.8023 3.3871 0.21747z" clip-path="url(#a)" fill="#fff" stroke="#fff"/>
<g clip-path="url(#a)">
<g transform="translate(258.42 324.48) rotate(-41.326) scale(.08 -.08)">
<use xlink:href="#aj"/>
</g>
</g>
<path d="m296.27 351.55 0.46849 5.0571q0.22139 2.3898 2.6112 2.1684l7.7095-0.71421q2.3898-0.22139 2.1684-2.6112l-0.46849-5.0571q-0.22139-2.3898-2.6112-2.1684l-7.7095 0.71421q-2.3898 0.22139-2.1684 2.6112z" clip-path="url(#a)" fill="#fff" stroke="#fff"/>
<g clip-path="url(#a)">
<g transform="translate(300.32 351.18) rotate(84.707) scale(.08 -.08)">
<use xlink:href="#ag"/>
</g>
</g>
<path d="m353.05 434.47v33.808q0 2.4 2.4 2.4h7.7425q2.4 0 2.4-2.4v-33.808q0-2.4-2.4-2.4h-7.7425q-2.4 0-2.4 2.4z" clip-path="url(#a)" fill="#fff" stroke="#fff"/>
<g clip-path="url(#a)">
<g transform="translate(357.11 434.47) rotate(90) scale(.08 -.08)">
<use xlink:href="#e"/>
<use x="44.083984" xlink:href="#l"/>
<use x="105.607422" xlink:href="#g"/>
<use x="144.970703" xlink:href="#i"/>
<use x="242.382812" xlink:href="#k"/>
<use x="270.166016" xlink:href="#h"/>
<use x="333.544922" xlink:href="#f"/>
<use x="394.824219" xlink:href="#j"/>
</g>
</g>
<path d="m206.18 392.01 2.8747-4.7898q1.2351-2.0578-0.82278-3.2929l-6.6386-3.9843q-2.0578-1.2351-3.2929 0.82278l-2.8747 4.7898q-1.2351 2.0578 0.82278 3.2929l6.6386 3.9843q2.0578 1.2351 3.2929-0.82278z" clip-path="url(#a)" fill="#fff" stroke="#fff"/>
<g clip-path="url(#a)">
<g transform="translate(202.69 389.92) rotate(-59.029) scale(.08 -.08)">
<use xlink:href="#v"/>
</g>
</g>
<path d="m235.41 387.33 2.9491 4.7444q1.267 2.0383 3.3053 0.77128l6.5756-4.0875q2.0383-1.267 0.77128-3.3053l-2.9491-4.7444q-1.267-2.0383-3.3053-0.77128l-6.5756 4.0875q-2.0383 1.267-0.77128 3.3053z" clip-path="url(#a)" fill="#fff" stroke="#fff"/>
<g clip-path="url(#a)">
<g transform="translate(238.86 385.18) rotate(58.135) scale(.08 -.08)">
<use xlink:href="#v"/>
</g>
</g>
<path d="m227.38 389.45 0.12547-5.8537q0.051432-2.3994-2.348-2.4509l-7.7407-0.16592q-2.3994-0.051431-2.4509 2.348l-0.12547 5.8537q-0.051432 2.3994 2.348 2.4509l7.7407 0.16592q2.3994 0.051431 2.4509-2.348z" clip-path="url(#a)" fill="#fff" stroke="#fff"/>
<g clip-path="url(#a)">
<g transform="translate(223.32 389.36) rotate(-88.772) scale(.08 -.08)">
<use xlink:href="#o"/>
</g>
</g>
<path d="m302.56 434.47v33.808q0 2.4 2.4 2.4h7.7425q2.4 0 2.4-2.4v-33.808q0-2.4-2.4-2.4h-7.7425q-2.4 0-2.4 2.4z" clip-path="url(#a)" fill="#fff" stroke="#fff"/>
<g clip-path="url(#a)">
<g transform="translate(306.62 434.47) rotate(90) scale(.08 -.08)">
<use xlink:href="#e"/>
<use x="44.083984" xlink:href="#l"/>
<use x="105.607422" xlink:href="#g"/>
<use x="144.970703" xlink:href="#i"/>
<use x="242.382812" xlink:href="#k"/>
<use x="270.166016" xlink:href="#h"/>
<use x="333.544922" xlink:href="#f"/>
<use x="394.824219" xlink:href="#j"/>
</g>
</g>
<path d="m176.33 434.47v33.808q0 2.4 2.4 2.4h7.7425q2.4 0 2.4-2.4v-33.808q0-2.4-2.4-2.4h-7.7425q-2.4 0-2.4 2.4z" clip-path="url(#a)" fill="#fff" stroke="#fff"/>
<g clip-path="url(#a)">
<g transform="translate(180.4 434.47) rotate(90) scale(.08 -.08)">
<use xlink:href="#e"/>
<use x="44.083984" xlink:href="#l"/>
<use x="105.607422" xlink:href="#g"/>
<use x="144.970703" xlink:href="#i"/>
<use x="242.382812" xlink:href="#k"/>
<use x="270.166016" xlink:href="#h"/>
<use x="333.544922" xlink:href="#f"/>
<use x="394.824219" xlink:href="#j"/>
</g>
</g>
<path d="m256.27 434.47v33.808q0 2.4 2.4 2.4h7.7425q2.4 0 2.4-2.4v-33.808q0-2.4-2.4-2.4h-7.7425q-2.4 0-2.4 2.4z" clip-path="url(#a)" fill="#fff" stroke="#fff"/>
<g clip-path="url(#a)">
<g transform="translate(260.34 434.47) rotate(90) scale(.08 -.08)">
<use xlink:href="#e"/>
<use x="44.083984" xlink:href="#l"/>
<use x="105.607422" xlink:href="#g"/>
<use x="144.970703" xlink:href="#i"/>
<use x="242.382812" xlink:href="#k"/>
<use x="270.166016" xlink:href="#h"/>
<use x="333.544922" xlink:href="#f"/>
<use x="394.824219" xlink:href="#j"/>
</g>
</g>
<path d="m50.109 434.47v33.808q0 2.4 2.4 2.4h7.7425q2.4 0 2.4-2.4v-33.808q0-2.4-2.4-2.4h-7.7425q-2.4 0-2.4 2.4z" clip-path="url(#a)" fill="#fff" stroke="#fff"/>
<g clip-path="url(#a)">
<g transform="translate(54.172 434.47) rotate(90) scale(.08 -.08)">
<use xlink:href="#e"/>
<use x="44.083984" xlink:href="#l"/>
<use x="105.607422" xlink:href="#g"/>
<use x="144.970703" xlink:href="#i"/>
<use x="242.382812" xlink:href="#k"/>
<use x="270.166016" xlink:href="#h"/>
<use x="333.544922" xlink:href="#f"/>
<use x="394.824219" xlink:href="#j"/>
</g>
</g>
<path d="m113.22 434.47v33.808q0 2.4 2.4 2.4h7.7425q2.4 0 2.4-2.4v-33.808q0-2.4-2.4-2.4h-7.7425q-2.4 0-2.4 2.4z" clip-path="url(#a)" fill="#fff" stroke="#fff"/>
<g clip-path="url(#a)">
<g transform="translate(117.28 434.47) rotate(90) scale(.08 -.08)">
<use xlink:href="#e"/>
<use x="44.083984" xlink:href="#l"/>
<use x="105.607422" xlink:href="#g"/>
<use x="144.970703" xlink:href="#i"/>
<use x="242.382812" xlink:href="#k"/>
<use x="270.166016" xlink:href="#h"/>
<use x="333.544922" xlink:href="#f"/>
<use x="394.824219" xlink:href="#j"/>
</g>
</g>
<path d="m214.2 434.47v33.808q0 2.4 2.4 2.4h7.7425q2.4 0 2.4-2.4v-33.808q0-2.4-2.4-2.4h-7.7425q-2.4 0-2.4 2.4z" clip-path="url(#a)" fill="#fff" stroke="#fff"/>
<g clip-path="url(#a)">
<g transform="translate(218.26 434.47) rotate(90) scale(.08 -.08)">
<use xlink:href="#e"/>
<use x="44.083984" xlink:href="#l"/>
<use x="105.607422" xlink:href="#g"/>
<use x="144.970703" xlink:href="#i"/>
<use x="242.382812" xlink:href="#k"/>
<use x="270.166016" xlink:href="#h"/>
<use x="333.544922" xlink:href="#f"/>
<use x="394.824219" xlink:href="#j"/>
</g>
</g>
<path d="m411.95 434.47v33.808q0 2.4 2.4 2.4h7.7425q2.4 0 2.4-2.4v-33.808q0-2.4-2.4-2.4h-7.7425q-2.4 0-2.4 2.4z" clip-path="url(#a)" fill="#fff" stroke="#fff"/>
<g clip-path="url(#a)">
<g transform="translate(416.01 434.47) rotate(90) scale(.08 -.08)">
<use xlink:href="#e"/>
<use x="44.083984" xlink:href="#l"/>
<use x="105.607422" xlink:href="#g"/>
<use x="144.970703" xlink:href="#i"/>
<use x="242.382812" xlink:href="#k"/>
<use x="270.166016" xlink:href="#h"/>
<use x="333.544922" xlink:href="#f"/>
<use x="394.824219" xlink:href="#j"/>
</g>
</g>
<path d="m470.85 434.47v33.808q0 2.4 2.4 2.4h7.7425q2.4 0 2.4-2.4v-33.808q0-2.4-2.4-2.4h-7.7425q-2.4 0-2.4 2.4z" clip-path="url(#a)" fill="#fff" stroke="#fff"/>
<g clip-path="url(#a)">
<g transform="translate(474.92 434.47) rotate(90) scale(.08 -.08)">
<use xlink:href="#e"/>
<use x="44.083984" xlink:href="#l"/>
<use x="105.607422" xlink:href="#g"/>
<use x="144.970703" xlink:href="#i"/>
<use x="242.382812" xlink:href="#k"/>
<use x="270.166016" xlink:href="#h"/>
<use x="333.544922" xlink:href="#f"/>
<use x="394.824219" xlink:href="#j"/>
</g>
</g>
<path d="m672.81 434.47v33.808q0 2.4 2.4 2.4h7.7425q2.4 0 2.4-2.4v-33.808q0-2.4-2.4-2.4h-7.7425q-2.4 0-2.4 2.4z" clip-path="url(#a)" fill="#fff" stroke="#fff"/>
<g clip-path="url(#a)">
<g transform="translate(676.88 434.47) rotate(90) scale(.08 -.08)">
<use xlink:href="#e"/>
<use x="44.083984" xlink:href="#l"/>
<use x="105.607422" xlink:href="#g"/>
<use x="144.970703" xlink:href="#i"/>
<use x="242.382812" xlink:href="#k"/>
<use x="270.166016" xlink:href="#h"/>
<use x="333.544922" xlink:href="#f"/>
<use x="394.824219" xlink:href="#j"/>
</g>
</g>
<path d="m912.64 434.47v33.808q0 2.4 2.4 2.4h7.7425q2.4 0 2.4-2.4v-33.808q0-2.4-2.4-2.4h-7.7425q-2.4 0-2.4 2.4z" clip-path="url(#a)" fill="#fff" stroke="#fff"/>
<g clip-path="url(#a)">
<g transform="translate(916.7 434.47) rotate(90) scale(.08 -.08)">
<use xlink:href="#e"/>
<use x="44.083984" xlink:href="#l"/>
<use x="105.607422" xlink:href="#g"/>
<use x="144.970703" xlink:href="#i"/>
<use x="242.382812" xlink:href="#k"/>
<use x="270.166016" xlink:href="#h"/>
<use x="333.544922" xlink:href="#f"/>
<use x="394.824219" xlink:href="#j"/>
</g>
</g>
<defs>
<path id="b" d="m0 8.6603c2.2967 0 4.4997-0.9125 6.1237-2.5365 1.624-1.624 2.5365-3.827 2.5365-6.1237s-0.9125-4.4997-2.5365-6.1237c-1.624-1.624-3.827-2.5365-6.1237-2.5365s-4.4997 0.9125-6.1237 2.5365c-1.624 1.624-2.5365 3.827-2.5365 6.1237s0.9125 4.4997 2.5365 6.1237c1.624 1.624 3.827 2.5365 6.1237 2.5365z"/>
</defs>
<g clip-path="url(#a)" fill="#ffffff" stroke="#ffffff">
<use x="43.757576" y="483.636364" xlink:href="#b"/>
<use x="56.379953" y="483.636364" xlink:href="#b"/>
<use x="73.20979" y="483.636364" xlink:href="#b"/>
<use x="94.247086" y="483.636364" xlink:href="#b"/>
<use x="119.491841" y="483.636364" xlink:href="#b"/>
<use x="148.944056" y="483.636364" xlink:href="#b"/>
<use x="182.60373" y="483.636364" xlink:href="#b"/>
<use x="220.470862" y="483.636364" xlink:href="#b"/>
<use x="262.545455" y="483.636364" xlink:href="#b"/>
<use x="308.827506" y="483.636364" xlink:href="#b"/>
<use x="359.317016" y="483.636364" xlink:href="#b"/>
<use x="418.221445" y="483.636364" xlink:href="#b"/>
<use x="477.125874" y="483.636364" xlink:href="#b"/>
<use x="540.237762" y="483.636364" xlink:href="#b"/>
<use x="607.55711" y="483.636364" xlink:href="#b"/>
<use x="679.083916" y="483.636364" xlink:href="#b"/>
<use x="754.818182" y="483.636364" xlink:href="#b"/>
<use x="834.759907" y="483.636364" xlink:href="#b"/>
<use x="918.909091" y="483.636364" xlink:href="#b"/>
<use x="363.524476" y="221.901715" xlink:href="#b"/>
<use x="596.831984" y="23.030303" xlink:href="#b"/>
<use x="434.638328" y="89.439295" xlink:href="#b"/>
<use x="759.025641" y="353.673006" xlink:href="#b"/>
<use x="754.818182" y="419.103546" xlink:href="#b"/>
<use x="834.759907" y="419.103546" xlink:href="#b"/>
<use x="130.049447" y="155.737183" xlink:href="#b"/>
<use x="540.237762" y="419.103546" xlink:href="#b"/>
<use x="607.55711" y="419.103546" xlink:href="#b"/>
<use x="43.757576" y="419.103546" xlink:href="#b"/>
<use x="83.728438" y="419.103546" xlink:href="#b"/>
<use x="148.944056" y="419.103546" xlink:href="#b"/>
<use x="327.99482" y="221.901715" xlink:href="#b"/>
<use x="296.672624" y="287.899288" xlink:href="#b"/>
<use x="359.317016" y="419.103546" xlink:href="#b"/>
<use x="221.873349" y="353.673006" xlink:href="#b"/>
<use x="308.827506" y="419.103546" xlink:href="#b"/>
<use x="182.60373" y="419.103546" xlink:href="#b"/>
<use x="262.545455" y="419.103546" xlink:href="#b"/>
<use x="56.379953" y="419.103546" xlink:href="#b"/>
<use x="119.491841" y="419.103546" xlink:href="#b"/>
<use x="220.470862" y="419.103546" xlink:href="#b"/>
<use x="418.221445" y="419.103546" xlink:href="#b"/>
<use x="477.125874" y="419.103546" xlink:href="#b"/>
<use x="679.083916" y="419.103546" xlink:href="#b"/>
<use x="918.909091" y="419.103546" xlink:href="#b"/>
</g>
<g clip-path="url(#a)">
<g transform="translate(36.787 486.4) scale(.1 -.1)">
<defs>
<path id="be" d="m22.797 8.2969h32.234v56.297h-23.688v-10.344q0-24.359-5.4688-40.531-1.125-3.3125-3.0781-5.4219zm-14.391 0q6.5312 3.0781 8.3906 8.9375 4.7344 15.047 4.7344 41.891v13.781h43.359v-64.609h8.2969v-23.969h-8.2969v15.672h-51.656v-15.672h-8.2969v23.969z"/>
<path id="r" d="m34.281 27.484q-10.891 0-15.094-2.4844t-4.2031-8.5q0-4.7812 3.1562-7.5938 3.1562-2.7969 8.5625-2.7969 7.4844 0 12 5.2969t4.5156 14.078v2zm17.922 3.7188v-31.203h-8.9844v8.2969q-3.0781-4.9688-7.6719-7.3438t-11.234-2.375q-8.3906 0-13.359 4.7188-4.9531 4.7188-4.9531 12.625 0 9.2188 6.1719 13.906 6.1875 4.6875 18.438 4.6875h12.609v0.89062q0 6.2031-4.0781 9.5938t-11.453 3.3906q-4.6875 0-9.1406-1.125-4.4375-1.125-8.5312-3.375v8.3125q4.9219 1.9062 9.5625 2.8438 4.6406 0.95312 9.0312 0.95312 11.875 0 17.734-6.1562 5.8594-6.1406 5.8594-18.641z"/>
</defs>
<use xlink:href="#be"/>
<use x="78.125" xlink:href="#r"/>
</g>
</g>
<g clip-path="url(#a)">
<g transform="translate(54.791 486.4) scale(.1 -.1)">
<defs>
<path id="t" d="m11.719 12.406h10.297v-8.4062l-8-15.625h-6.2969l4 15.625z"/>
</defs>
<use xlink:href="#t"/>
</g>
</g>
<g clip-path="url(#a)">
<g transform="translate(57.697 486.4) scale(.1 -.1)">
<defs>
<path id="w" d="m56.297 54.688v-54.688h-9.0312v47.516h-29.156v-47.516h-9.0312v54.688z"/>
<path id="u" d="m18.109 8.2031v-29h-9.0312v75.484h9.0312v-8.2969q2.8438 4.875 7.1562 7.2344 4.3281 2.375 10.328 2.375 9.9688 0 16.188-7.9062 6.2344-7.9062 6.2344-20.797t-6.2344-20.812q-6.2188-7.9062-16.188-7.9062-6 0-10.328 2.375-4.3125 2.375-7.1562 7.25zm30.578 19.094q0 9.9062-4.0781 15.547t-11.203 5.6406q-7.1406 0-11.219-5.6406t-4.0781-15.547 4.0781-15.547 11.219-5.6406q7.125 0 11.203 5.6406t4.0781 15.547z"/>
<path id="au" d="m18.062 25.203v-18.031h12.797q6.1562 0 9.375 2.3125 3.2188 2.3281 3.2188 6.7344 0 4.3906-3.2188 6.6875t-9.375 2.2969zm0 22.312v-15.141h11.828q5.0781 0 8.2969 2.0156 3.2188 2.0312 3.2188 5.6562 0 3.6094-3.2188 5.5312-3.2188 1.9375-8.2969 1.9375zm-8.9844 7.1719h21.391q9.625 0 14.797-3.5156t5.1719-10.016q0-5.0156-2.6406-7.9844-2.625-2.9531-7.8125-3.6719 6.2031-1.1719 9.625-4.8906 3.4219-3.7031 3.4219-9.2812 0-7.3125-5.6406-11.328-5.6406-4-16.094-4h-22.219z"/>
<path id="n" d="m30.609 48.391q-7.2188 0-11.422-5.6406t-4.2031-15.453 4.1719-15.453q4.1875-5.6406 11.453-5.6406 7.1875 0 11.375 5.6562 4.2031 5.6719 4.2031 15.438 0 9.7188-4.2031 15.406-4.1875 5.6875-11.375 5.6875zm0 7.6094q11.719 0 18.406-7.625 6.7031-7.6094 6.7031-21.078 0-13.422-6.7031-21.078-6.6875-7.6406-18.406-7.6406-11.766 0-18.438 7.6406-6.6562 7.6562-6.6562 21.078 0 13.469 6.6562 21.078 6.6719 7.625 18.438 7.625z"/>
</defs>
<use xlink:href="#w"/>
<use x="65.380859" xlink:href="#u"/>
<use x="128.857422" xlink:href="#r"/>
<use x="190.136719" xlink:href="#au"/>
<use x="249.072266" xlink:href="#n"/>
</g>
</g>
<g clip-path="url(#a)">
<g transform="translate(86.666 486.4) scale(.1 -.1)">
<defs>
<path id="at" d="m40.578 54.688h8.9375v-25.688l23.875 25.688h10.453l-19.641-21.047 22.469-33.641h-9.625l-18.406 27.641-9.125-9.8125v-17.828h-8.9375v17.828l-9.125 9.8125-18.422-27.641h-9.6094l22.453 33.641-19.625 21.047h10.453l23.875-25.688z"/>
<path id="x" d="m56.203 29.594v-4.3906h-41.312q0.59375-9.2812 5.5938-14.141t13.938-4.8594q5.1719 0 10.031 1.2656t9.6562 3.8125v-8.5q-4.8438-2.0469-9.9219-3.125t-10.297-1.0781q-13.094 0-20.734 7.6094-7.6406 7.625-7.6406 20.625 0 13.422 7.25 21.297 7.25 7.8906 19.562 7.8906 11.031 0 17.453-7.1094 6.4219-7.0938 6.4219-19.297zm-8.9844 2.6406q-0.09375 7.3594-4.125 11.75-4.0312 4.4062-10.672 4.4062-7.5156 0-12.031-4.25t-5.2031-11.969z"/>
</defs>
<use xlink:href="#at"/>
<use x="90.087891" xlink:href="#x"/>
</g>
</g>
<g clip-path="url(#a)">
<g transform="translate(117.9 486.4) scale(.1 -.1)">
<use xlink:href="#t"/>
</g>
</g>
<g clip-path="url(#a)">
<g transform="translate(124.14 486.4) scale(.1 -.1)">
<defs>
<path id="bd" d="m34.469 29.5q6.0625-1.1719 9.4219-4.75 3.375-3.5625 3.375-8.8281 0-8.4531-6.2969-12.906-6.2969-4.4375-17.922-4.4375-3.9062 0-8.0312 0.6875t-8.5156 2.0469v8.3594q3.4688-1.8125 7.6094-2.7188 4.1562-0.89062 8.6875-0.89062 7.375 0 11.5 2.7344t4.125 7.125q0 4.2969-3.6562 6.9062t-10.344 2.6094h-7.2344v7.4219h7.5625q5.6719 0 8.9688 2.1719t3.2969 5.5938q0 3.125-3.4062 5.375-3.3906 2.25-9.1875 2.25-3.4688 0-7.4062-0.64062-3.9219-0.64062-8.6719-2.0469v8.1562q4.7969 1.1719 8.9375 1.75 4.1562 0.59375 7.8594 0.59375 9.5781 0 15.109-3.8438 5.5469-3.8281 5.5469-10.719 0-4.5312-2.9375-7.6875-2.9219-3.1406-8.3906-4.3125z"/>
<path id="as" d="m48.781 52.594v-8.4062q-3.8125 2.1094-7.6406 3.1562t-7.7344 1.0469q-8.75 0-13.594-5.5469-4.8281-5.5312-4.8281-15.547t4.8281-15.562q4.8438-5.5312 13.594-5.5312 3.9062 0 7.7344 1.0469t7.6406 3.1562v-8.3125q-3.7656-1.75-7.7969-2.625-4.0156-0.89062-8.5625-0.89062-12.359 0-19.641 7.7656-7.2656 7.7656-7.2656 20.953 0 13.375 7.3438 21.031 7.3594 7.6719 20.156 7.6719 4.1406 0 8.0938-0.85938 3.9531-0.84375 7.6719-2.5469z"/>
<path id="ae" d="m3.7188 0v7.4688q8.875 1.375 11.609 7.5156 3.3281 8.6562 3.3281 30.766v8.9375h36.953v-54.688h-8.9844v47.516h-18.984v-5.4219q0-21.094-4.2969-30.562-4.5938-10.109-19.625-11.531z"/>
<path id="ao" d="m61.047 54.688h8.9844v-54.688h-8.9844zm4.5 1.3125m-22.094-39.781q0 4.3906-3.2031 6.6875-3.1875 2.2969-9.3438 2.2969h-12.797v-18.031h12.797q6.1562 0 9.3438 2.3125 3.2031 2.3281 3.2031 6.7344zm-34.375 38.469h9.0312v-22.312h13.188q10.453 0 16.094-3.9844 5.6406-3.9688 5.6406-12.172t-5.6406-12.219q-5.6406-4-16.094-4h-22.219z"/>
</defs>
<use xlink:href="#au"/>
<use x="58.935547" xlink:href="#bd"/>
<use x="112.109375" xlink:href="#u"/>
<use x="175.585938" xlink:href="#n"/>
<use x="236.767578" xlink:href="#as"/>
<use x="291.748047" xlink:href="#ae"/>
<use x="355.664062" xlink:href="#ao"/>
<use x="434.619141" xlink:href="#x"/>
</g>
</g>
<g clip-path="url(#a)">
<g transform="translate(167.3 486.4) scale(.1 -.1)">
<defs>
<path id="ap" d="m41.016 0v23h-16.75q-7.4688 0-12.453 4.6406-4.4844 4.2031-4.4844 13.188v13.859h8.9844v-13.031q0-5.7188 2.5312-8.5938 2.5938-2.8906 7.6719-2.8906h14.5v24.516h8.9844v-54.688z"/>
<path id="q" d="m9.0781 54.688h9.0312v-22.312h29.156v22.312h9.0312v-54.688h-9.0312v25.203h-29.156v-25.203h-9.0312z"/>
<path id="ad" d="m43.453 16.219q0 4.3906-3.2031 6.6875-3.1875 2.2969-9.3438 2.2969h-12.797v-18.031h12.797q6.1562 0 9.3438 2.3125 3.2031 2.3281 3.2031 6.7344zm-34.375 38.469h9.0312v-22.312h13.188q10.453 0 16.094-3.9844 5.6406-3.9688 5.6406-12.172t-5.6406-12.219q-5.6406-4-16.094-4h-22.219z"/>
</defs>
<use xlink:href="#n"/>
<use x="61.181641" xlink:href="#ap"/>
<use x="120.263672" xlink:href="#x"/>
<use x="181.787109" xlink:href="#q"/>
<use x="247.167969" xlink:href="#ad"/>
</g>
</g>
<g clip-path="url(#a)">
<g transform="translate(218.88 486.4) scale(.1 -.1)">
<use xlink:href="#t"/>
</g>
</g>
<g clip-path="url(#a)">
<g transform="translate(247.24 486.4) scale(.1 -.1)">
<use xlink:href="#n"/>
<use x="61.181641" xlink:href="#ap"/>
<use x="120.263672" xlink:href="#x"/>
<use x="181.787109" xlink:href="#q"/>
<use x="247.167969" xlink:href="#ad"/>
</g>
</g>
<g clip-path="url(#a)">
<g transform="translate(283.19 486.4) scale(.1 -.1)">
<defs>
<path id="ar" d="m2.9375 54.688h52.391v-7.1719h-21.781v-47.516h-8.8438v47.516h-21.766z"/>
<path id="bc" d="m55.906 54.688v-54.688h-8.9375v43.891l-26.359-43.891h-11.531v54.688h8.9375v-43.797l26.328 43.797zm-38.688 20.828h5.7656q0.53125-3.6562 2.8906-5.5 2.375-1.8281 6.625-1.8281 4.2031 0 6.5469 1.8125t2.9688 5.5156h5.7656q-0.48438-6.9844-4.3438-10.5t-10.938-3.5156-10.938 3.5156-4.3438 10.5z"/>
</defs>
<use xlink:href="#as"/>
<use x="54.980469" xlink:href="#ar"/>
<use x="113.232422" xlink:href="#u"/>
<use x="176.708984" xlink:href="#r"/>
<use x="237.988281" xlink:href="#q"/>
<use x="303.369141" xlink:href="#q"/>
<use x="368.75" xlink:href="#ao"/>
<use x="447.705078" xlink:href="#bc"/>
</g>
</g>
<g clip-path="url(#a)">
<g transform="translate(343.29 486.4) scale(.1 -.1)">
<defs>
<path id="af" d="m21.625 7.1719h26.078v40.344h-18.891v-6.8438q0-20.109-5.7656-30.859zm-13.031 0q4.4375 1.9531 6.3906 6.1094 4.7969 10.297 4.7969 31.062v10.344h36.953v-47.516h7.1875v-20.984h-7.1875v13.812h-44.328v-13.812h-7.1875v20.984z"/>
</defs>
<use xlink:href="#q"/>
<use x="65.380859" xlink:href="#r"/>
<use x="126.660156" xlink:href="#u"/>
<use x="190.136719" xlink:href="#n"/>
<use x="251.318359" xlink:href="#af"/>
</g>
</g>
<g clip-path="url(#a)">
<g transform="translate(414.33 486.4) scale(.1 -.1)">
<defs>
<path id="az" d="m17.922 72.906v-27.109h-8.2969v27.109zm18.453 0v-27.109h-8.2969v27.109z"/>
</defs>
<use xlink:href="#az"/>
<use x="45.996094" xlink:href="#t"/>
</g>
</g>
<g clip-path="url(#a)">
<g transform="translate(475.32 486.4) scale(.1 -.1)">
<defs>
<path id="ay" d="m4.8906 31.391h26.312v-8h-26.312z"/>
</defs>
<use xlink:href="#ay"/>
</g>
</g>
<g clip-path="url(#a)">
<g transform="translate(517.46 486.4) scale(.1 -.1)">
<defs>
<path id="aq" d="m32.172-5.0781q-3.7969-9.7656-7.4219-12.734-3.6094-2.9844-9.6562-2.9844h-7.1875v7.5156h5.2812q3.7031 0 5.75 1.7656 2.0625 1.75 4.5469 8.2969l1.6094 4.0938-22.109 53.812h9.5156l17.094-42.766 17.094 42.766h9.5156z"/>
<path id="bb" d="m9.0781 54.688h13.141l15.531-36.625 15.578 36.625h13.031v-54.688h-9.0312v46.094l-15.094-35.594h-8.9844l-15.141 35.594v-46.094h-9.0312z"/>
</defs>
<use xlink:href="#w"/>
<use x="65.380859" xlink:href="#n"/>
<use x="126.5625" xlink:href="#af"/>
<use x="195.703125" xlink:href="#aq"/>
<use x="254.882812" xlink:href="#bb"/>
<use x="330.322266" xlink:href="#r"/>
<use x="391.601562" xlink:href="#ae"/>
</g>
</g>
<g clip-path="url(#a)">
<g transform="translate(601.23 486.4) scale(.1 -.1)">
<use xlink:href="#n"/>
<use x="61.181641" xlink:href="#q"/>
</g>
</g>
<g clip-path="url(#a)">
<g transform="translate(677.49 486.4) scale(.1 -.1)">
<use xlink:href="#t"/>
</g>
</g>
<g clip-path="url(#a)">
<g transform="translate(725.03 486.4) scale(.1 -.1)">
<defs>
<path id="ba" d="m18.453 38.922q0-4.0625 3.125-6.3594 3.125-2.2812 8.9375-2.2812h12.109v17.234h-12.109q-5.8125 0-8.9375-2.25t-3.125-6.3438zm-12.781-38.922 16.688 23.969q-5.6562 1.2812-9.4219 4.625-3.75 3.3438-3.75 10.328 0 7.9062 5.2344 11.828 5.25 3.9375 15.859 3.9375h21.375v-54.688h-9.0312v23.094h-11.172l-16.125-23.094z"/>
</defs>
<use xlink:href="#w"/>
<use x="65.380859" xlink:href="#u"/>
<use x="128.857422" xlink:href="#n"/>
<use x="190.039062" xlink:href="#af"/>
<use x="259.179688" xlink:href="#n"/>
<use x="320.361328" xlink:href="#ae"/>
<use x="384.277344" xlink:href="#at"/>
<use x="474.365234" xlink:href="#r"/>
<use x="535.644531" xlink:href="#ba"/>
</g>
</g>
<g clip-path="url(#a)">
<g transform="translate(822.67 486.4) scale(.1 -.1)">
<use xlink:href="#w"/>
<use x="65.380859" xlink:href="#aq"/>
<use x="124.560547" xlink:href="#ar"/>
<use x="182.8125" xlink:href="#ad"/>
</g>
</g>
<g clip-path="url(#a)">
<g transform="translate(917.32 486.4) scale(.1 -.1)">
<defs>
<path id="d" d="m10.688 12.406h10.312v-12.406h-10.312z"/>
</defs>
<use xlink:href="#d"/>
</g>
</g>
<g clip-path="url(#a)">
<g transform="translate(342.44 224.66) scale(.1 -.1)">
<defs>
<path id="z" d="m9.8125 72.906h9.8594v-72.906h-9.8594z"/>
<path id="av" d="m9.8125 72.906h14.703l18.594-49.609 18.703 49.609h14.703v-72.906h-9.625v64.016l-18.797-50h-9.9062l-18.797 50v-64.016h-9.5781z"/>
<path id="aw" d="m9.8125 72.906h9.8594v-64.609h35.5v-8.2969h-45.359z"/>
</defs>
<use xlink:href="#z"/>
<use x="29.492188" xlink:href="#av"/>
<use x="115.771484" xlink:href="#y"/>
<use x="176.074219" xlink:href="#aw"/>
<use x="231.787109" xlink:href="#z"/>
<use x="261.279297" xlink:href="#v"/>
<use x="331.103516" xlink:href="#z"/>
<use x="360.595703" xlink:href="#e"/>
</g>
</g>
<g clip-path="url(#a)">
<g transform="translate(588.88 25.79) scale(.1 -.1)">
<defs>
<path id="c" d="m12.406 8.2969h16.109v55.625l-17.531-3.5156v8.9844l17.438 3.5156h9.8594v-64.609h16.109v-8.2969h-41.984z"/>
</defs>
<use xlink:href="#c"/>
<use x="63.623047" xlink:href="#d"/>
<use x="95.410156" xlink:href="#c"/>
</g>
</g>
<g clip-path="url(#a)">
<g transform="translate(426.69 92.199) scale(.1 -.1)">
<defs>
<path id="m" d="m19.188 8.2969h34.422v-8.2969h-46.281v8.2969q5.6094 5.8125 15.297 15.594 9.7031 9.7969 12.188 12.641 4.7344 5.3125 6.6094 9 1.8906 3.6875 1.8906 7.25 0 5.8125-4.0781 9.4688-4.0781 3.6719-10.625 3.6719-4.6406 0-9.7969-1.6094-5.1406-1.6094-11-4.8906v9.9688q5.9531 2.3906 11.125 3.6094 5.1875 1.2188 9.4844 1.2188 11.328 0 18.062-5.6719 6.7344-5.6562 6.7344-15.125 0-4.5-1.6875-8.5312-1.6719-4.0156-6.125-9.4844-1.2188-1.4219-7.7656-8.1875-6.5312-6.7656-18.453-18.922z"/>
</defs>
<use xlink:href="#c"/>
<use x="63.623047" xlink:href="#d"/>
<use x="95.410156" xlink:href="#m"/>
</g>
</g>
<g clip-path="url(#a)">
<g transform="translate(751.07 356.43) scale(.1 -.1)">
<defs>
<path id="s" d="m40.578 39.312q7.0781-1.5156 11.047-6.3125 3.9844-4.7812 3.9844-11.812 0-10.781-7.4219-16.703-7.4219-5.9062-21.094-5.9062-4.5781 0-9.4375 0.90625t-10.031 2.7188v9.5156q4.0938-2.3906 8.9688-3.6094 4.8906-1.2188 10.219-1.2188 9.2656 0 14.125 3.6562t4.8594 10.641q0 6.4531-4.5156 10.078-4.5156 3.6406-12.562 3.6406h-8.5v8.1094h8.8906q7.2656 0 11.125 2.9062t3.8594 8.375q0 5.6094-3.9844 8.6094-3.9688 3.0156-11.391 3.0156-4.0625 0-8.7031-0.89062-4.6406-0.875-10.203-2.7188v8.7812q5.625 1.5625 10.531 2.3438t9.25 0.78125q11.234 0 17.766-5.1094 6.5469-5.0938 6.5469-13.781 0-6.0625-3.4688-10.234t-9.8594-5.7812z"/>
</defs>
<use xlink:href="#c"/>
<use x="63.623047" xlink:href="#d"/>
<use x="95.410156" xlink:href="#s"/>
</g>
</g>
<g clip-path="url(#a)">
<g transform="translate(746.87 421.86) scale(.1 -.1)">
<defs>
<path id="ab" d="m37.797 64.312-24.906-38.922h24.906zm-2.5938 8.5938h12.406v-47.516h10.406v-8.2031h-10.406v-17.188h-9.8125v17.188h-32.906v9.5156z"/>
</defs>
<use xlink:href="#c"/>
<use x="63.623047" xlink:href="#d"/>
<use x="95.410156" xlink:href="#ab"/>
</g>
</g>
<g clip-path="url(#a)">
<g transform="translate(826.81 421.86) scale(.1 -.1)">
<defs>
<path id="aa" d="m10.797 72.906h38.719v-8.3125h-29.688v-17.859q2.1406 0.73438 4.2812 1.0938 2.1562 0.35938 4.3125 0.35938 12.203 0 19.328-6.6875 7.1406-6.6875 7.1406-18.109 0-11.766-7.3281-18.297-7.3281-6.5156-20.656-6.5156-4.5938 0-9.3594 0.78125-4.75 0.78125-9.8281 2.3438v9.9219q4.3906-2.3906 9.0781-3.5625t9.9062-1.1719q8.4531 0 13.375 4.4375 4.9375 4.4375 4.9375 12.062 0 7.6094-4.9375 12.047-4.9219 4.4531-13.375 4.4531-3.9531 0-7.8906-0.875-3.9219-0.875-8.0156-2.7344z"/>
</defs>
<use xlink:href="#c"/>
<use x="63.623047" xlink:href="#d"/>
<use x="95.410156" xlink:href="#aa"/>
</g>
</g>
<g clip-path="url(#a)">
<g transform="translate(122.1 158.5) scale(.1 -.1)">
<defs>
<path id="al" d="m31.781 34.625q-7.0312 0-11.062-3.7656-4.0156-3.7656-4.0156-10.344 0-6.5938 4.0156-10.359 4.0312-3.7656 11.062-3.7656t11.078 3.7812q4.0625 3.7969 4.0625 10.344 0 6.5781-4.0312 10.344-4.0156 3.7656-11.109 3.7656zm-9.8594 4.1875q-6.3438 1.5625-9.8906 5.9062-3.5312 4.3594-3.5312 10.609 0 8.7344 6.2188 13.812 6.2344 5.0781 17.062 5.0781 10.891 0 17.094-5.0781t6.2031-13.812q0-6.25-3.5469-10.609-3.5312-4.3438-9.8281-5.9062 7.125-1.6562 11.094-6.5 3.9844-4.8281 3.9844-11.797 0-10.609-6.4688-16.281-6.4688-5.6562-18.531-5.6562-12.047 0-18.531 5.6562-6.4688 5.6719-6.4688 16.281 0 6.9688 4 11.797 4.0156 4.8438 11.141 6.5zm-3.6094 15.578q0-5.6562 3.5312-8.8281 3.5469-3.1719 9.9375-3.1719 6.3594 0 9.9375 3.1719 3.5938 3.1719 3.5938 8.8281 0 5.6719-3.5938 8.8438-3.5781 3.1719-9.9375 3.1719-6.3906 0-9.9375-3.1719-3.5312-3.1719-3.5312-8.8438z"/>
</defs>
<use xlink:href="#c"/>
<use x="63.623047" xlink:href="#d"/>
<use x="95.410156" xlink:href="#al"/>
</g>
</g>
<g clip-path="url(#a)">
<g transform="translate(532.29 421.86) scale(.1 -.1)">
<defs>
<path id="ak" d="m10.984 1.5156v8.9844q3.7188-1.7656 7.5156-2.6875 3.8125-0.92188 7.4844-0.92188 9.7656 0 14.906 6.5625 5.1562 6.5625 5.8906 19.953-2.8281-4.2031-7.1875-6.4531-4.3438-2.25-9.6094-2.25-10.938 0-17.312 6.6094-6.375 6.625-6.375 18.109 0 11.219 6.6406 18 6.6406 6.7969 17.672 6.7969 12.656 0 19.312-9.7031 6.6719-9.6875 6.6719-28.141 0-17.234-8.1875-27.516-8.1719-10.281-21.984-10.281-3.7188 0-7.5312 0.73438-3.7969 0.73438-7.9062 2.2031zm19.625 30.906q6.6406 0 10.516 4.5312 3.8906 4.5469 3.8906 12.469 0 7.8594-3.8906 12.422-3.875 4.5625-10.516 4.5625t-10.516-4.5625-3.875-12.422q0-7.9219 3.875-12.469 3.875-4.5312 10.516-4.5312z"/>
</defs>
<use xlink:href="#c"/>
<use x="63.623047" xlink:href="#d"/>
<use x="95.410156" xlink:href="#ak"/>
</g>
</g>
<g clip-path="url(#a)">
<g transform="translate(596.42 421.86) scale(.1 -.1)">
<defs>
<path id="ac" d="m31.781 66.406q-7.6094 0-11.453-7.5-3.8281-7.4844-3.8281-22.531 0-14.984 3.8281-22.484 3.8438-7.5 11.453-7.5 7.6719 0 11.5 7.5 3.8438 7.5 3.8438 22.484 0 15.047-3.8438 22.531-3.8281 7.5-11.5 7.5zm0 7.8125q12.266 0 18.734-9.7031 6.4688-9.6875 6.4688-28.141 0-18.406-6.4688-28.109-6.4688-9.6875-18.734-9.6875-12.25 0-18.719 9.6875-6.4688 9.7031-6.4688 28.109 0 18.453 6.4688 28.141 6.4688 9.7031 18.719 9.7031z"/>
</defs>
<use xlink:href="#c"/>
<use x="63.623047" xlink:href="#d"/>
<use x="95.410156" xlink:href="#c"/>
<use x="159.033203" xlink:href="#ac"/>
</g>
</g>
<g clip-path="url(#a)">
<g transform="translate(32.625 421.86) scale(.1 -.1)">
<use xlink:href="#c"/>
<use x="63.623047" xlink:href="#d"/>
<use x="95.410156" xlink:href="#c"/>
<use x="159.033203" xlink:href="#ab"/>
</g>
</g>
<g clip-path="url(#a)">
<g transform="translate(72.596 421.86) scale(.1 -.1)">
<use xlink:href="#c"/>
<use x="63.623047" xlink:href="#d"/>
<use x="95.410156" xlink:href="#c"/>
<use x="159.033203" xlink:href="#aa"/>
</g>
</g>
<g clip-path="url(#a)">
<g transform="translate(137.81 421.86) scale(.1 -.1)">
<defs>
<path id="an" d="m33.016 40.375q-6.6406 0-10.531-4.5469-3.875-4.5312-3.875-12.438 0-7.8594 3.875-12.438 3.8906-4.5625 10.531-4.5625t10.516 4.5625q3.875 4.5781 3.875 12.438 0 7.9062-3.875 12.438-3.875 4.5469-10.516 4.5469zm19.578 30.922v-8.9844q-3.7188 1.75-7.5 2.6719-3.7812 0.9375-7.5 0.9375-9.7656 0-14.922-6.5938-5.1406-6.5938-5.875-19.922 2.875 4.25 7.2188 6.5156 4.3594 2.2656 9.5781 2.2656 10.984 0 17.359-6.6719 6.375-6.6562 6.375-18.125 0-11.234-6.6406-18.031-6.6406-6.7812-17.672-6.7812-12.656 0-19.344 9.6875-6.6875 9.7031-6.6875 28.109 0 17.281 8.2031 27.562t22.016 10.281q3.7188 0 7.5-0.73438t7.8906-2.1875z"/>
</defs>
<use xlink:href="#c"/>
<use x="63.623047" xlink:href="#d"/>
<use x="95.410156" xlink:href="#c"/>
<use x="159.033203" xlink:href="#an"/>
</g>
</g>
<g clip-path="url(#a)">
<g transform="translate(316.86 224.66) scale(.1 -.1)">
<defs>
<path id="am" d="m8.2031 72.906h46.875v-4.2031l-26.469-68.703h-10.297l24.906 64.594h-35.016z"/>
</defs>
<use xlink:href="#c"/>
<use x="63.623047" xlink:href="#d"/>
<use x="95.410156" xlink:href="#c"/>
<use x="159.033203" xlink:href="#am"/>
</g>
</g>
<g clip-path="url(#a)">
<g transform="translate(285.54 290.66) scale(.1 -.1)">
<use xlink:href="#c"/>
<use x="63.623047" xlink:href="#d"/>
<use x="95.410156" xlink:href="#m"/>
<use x="159.033203" xlink:href="#ac"/>
</g>
</g>
<g clip-path="url(#a)">
<g transform="translate(348.18 421.86) scale(.1 -.1)">
<use xlink:href="#c"/>
<use x="63.623047" xlink:href="#d"/>
<use x="95.410156" xlink:href="#m"/>
<use x="159.033203" xlink:href="#c"/>
</g>
</g>
<g clip-path="url(#a)">
<g transform="translate(210.74 356.43) scale(.1 -.1)">
<use xlink:href="#c"/>
<use x="63.623047" xlink:href="#d"/>
<use x="95.410156" xlink:href="#m"/>
<use x="159.033203" xlink:href="#m"/>
</g>
</g>
<g clip-path="url(#a)">
<g transform="translate(297.69 421.86) scale(.1 -.1)">
<use xlink:href="#c"/>
<use x="63.623047" xlink:href="#d"/>
<use x="95.410156" xlink:href="#m"/>
<use x="159.033203" xlink:href="#s"/>
</g>
</g>
<g clip-path="url(#a)">
<g transform="translate(171.47 421.86) scale(.1 -.1)">
<use xlink:href="#c"/>
<use x="63.623047" xlink:href="#d"/>
<use x="95.410156" xlink:href="#m"/>
<use x="159.033203" xlink:href="#ab"/>
</g>
</g>
<g clip-path="url(#a)">
<g transform="translate(251.41 421.86) scale(.1 -.1)">
<use xlink:href="#c"/>
<use x="63.623047" xlink:href="#d"/>
<use x="95.410156" xlink:href="#m"/>
<use x="159.033203" xlink:href="#aa"/>
</g>
</g>
<g clip-path="url(#a)">
<g transform="translate(45.247 421.86) scale(.1 -.1)">
<use xlink:href="#c"/>
<use x="63.623047" xlink:href="#d"/>
<use x="95.410156" xlink:href="#m"/>
<use x="159.033203" xlink:href="#an"/>
</g>
</g>
<g clip-path="url(#a)">
<g transform="translate(108.36 421.86) scale(.1 -.1)">
<use xlink:href="#c"/>
<use x="63.623047" xlink:href="#d"/>
<use x="95.410156" xlink:href="#m"/>
<use x="159.033203" xlink:href="#am"/>
</g>
</g>
<g clip-path="url(#a)">
<g transform="translate(209.34 421.86) scale(.1 -.1)">
<use xlink:href="#c"/>
<use x="63.623047" xlink:href="#d"/>
<use x="95.410156" xlink:href="#m"/>
<use x="159.033203" xlink:href="#al"/>
</g>
</g>
<g clip-path="url(#a)">
<g transform="translate(407.09 421.86) scale(.1 -.1)">
<use xlink:href="#c"/>
<use x="63.623047" xlink:href="#d"/>
<use x="95.410156" xlink:href="#m"/>
<use x="159.033203" xlink:href="#ak"/>
</g>
</g>
<g clip-path="url(#a)">
<g transform="translate(465.99 421.86) scale(.1 -.1)">
<use xlink:href="#c"/>
<use x="63.623047" xlink:href="#d"/>
<use x="95.410156" xlink:href="#s"/>
<use x="159.033203" xlink:href="#ac"/>
</g>
</g>
<g clip-path="url(#a)">
<g transform="translate(667.95 421.86) scale(.1 -.1)">
<use xlink:href="#c"/>
<use x="63.623047" xlink:href="#d"/>
<use x="95.410156" xlink:href="#s"/>
<use x="159.033203" xlink:href="#c"/>
</g>
</g>
<g clip-path="url(#a)">
<g transform="translate(907.78 421.86) scale(.1 -.1)">
<use xlink:href="#c"/>
<use x="63.623047" xlink:href="#d"/>
<use x="95.410156" xlink:href="#s"/>
<use x="159.033203" xlink:href="#m"/>
</g>
</g>
<defs>
<clipPath id="a">
<rect width="962.67" height="506.67"/>
</clipPath>
</defs>
</svg>
