<?xml version="1.0" encoding="UTF-8"?>
<!DOCTYPE svg  PUBLIC '-//W3C//DTD SVG 1.1//EN'  'http://www.w3.org/Graphics/SVG/1.1/DTD/svg11.dtd'>
<svg width="709.33pt" height="373.33pt" version="1.1" viewBox="0 0 709.33 373.33" xmlns="http://www.w3.org/2000/svg" xmlns:xlink="http://www.w3.org/1999/xlink">
<metadata>
<rdf:RDF xmlns:cc="http://creativecommons.org/ns#" xmlns:dc="http://purl.org/dc/elements/1.1/" xmlns:rdf="http://www.w3.org/1999/02/22-rdf-syntax-ns#">
<cc:Work>
<dc:type rdf:resource="http://purl.org/dc/dcmitype/StillImage"/>
<dc:date>2021-02-01T11:24:06.949726</dc:date>
<dc:format>image/svg+xml</dc:format>
<dc:creator>
<cc:Agent>
<dc:title>Matplotlib v3.3.3, https://matplotlib.org/</dc:title>
</cc:Agent>
</dc:creator>
</cc:Work>
</rdf:RDF>
</metadata>
<defs>
<style type="text/css">*{stroke-linecap:butt;stroke-linejoin:round;}</style>
</defs>
<path d="m0 373.33h709.33v-373.33h-709.33z" fill="#fff"/>
<g fill="none" stroke="#000">
<path d="m320.6 16.97v48.933" clip-path="url(#a)"/>
<path d="m320.6 65.903-195.42 48.851" clip-path="url(#a)"/>
<path d="m320.6 65.903 128.9 242.91" clip-path="url(#a)"/>
<path d="m320.6 65.903 286.73 97.604" clip-path="url(#a)"/>
<path d="m320.6 65.903-288.35 242.91" clip-path="url(#a)"/>
<path d="m320.6 65.903 4.2674 242.91" clip-path="url(#a)"/>
<path d="m320.6 65.903 63.875 242.91" clip-path="url(#a)"/>
<path d="m125.18 114.75-65.84 145.85" clip-path="url(#a)"/>
<path d="m125.18 114.75 10.025 194.06" clip-path="url(#a)"/>
<path d="m125.18 114.75 47.957 194.06" clip-path="url(#a)"/>
<path d="m125.18 114.75 30.346 48.753" clip-path="url(#a)"/>
<path d="m125.18 114.75-22.488 194.06" clip-path="url(#a)"/>
<path d="m449.5 308.81v47.55" clip-path="url(#a)"/>
<path d="m607.32 163.51-29.127 48.63" clip-path="url(#a)"/>
<path d="m607.32 163.51 29.127 97.095" clip-path="url(#a)"/>
<path d="m578.2 212.14 58.253 48.465" clip-path="url(#a)" stroke-dasharray="3.7,1.6"/>
<path d="m578.2 212.14-58.253 96.677" clip-path="url(#a)"/>
<path d="m636.45 260.6-40.642 48.212" clip-path="url(#a)"/>
<path d="m636.45 260.6 40.642 48.212" clip-path="url(#a)"/>
<path d="m595.81 308.81v47.55" clip-path="url(#a)"/>
<path d="m519.94 308.81v47.55" clip-path="url(#a)"/>
<path d="m59.337 260.6 16.257 48.212" clip-path="url(#a)"/>
<path d="m59.337 260.6-10.838 48.212" clip-path="url(#a)"/>
<path d="m59.337 260.6 10.838 48.212" clip-path="url(#a)"/>
<path d="m135.2 308.81v47.55" clip-path="url(#a)"/>
<path d="m173.13 308.81v47.55" clip-path="url(#a)"/>
<path d="m155.52 163.51 115.15 48.63" clip-path="url(#a)"/>
<path d="m155.52 163.51 85.348 48.63" clip-path="url(#a)"/>
<path d="m155.52 163.51-85.348 145.31" clip-path="url(#a)" stroke-dasharray="3.7,1.6"/>
<path d="m240.87 212.14-24.385 96.677" clip-path="url(#a)"/>
<path d="m240.87 212.14 24.385 48.465" clip-path="url(#a)"/>
<path d="m216.48 308.81v47.55" clip-path="url(#a)"/>
<path d="m265.25 260.6v48.212" clip-path="url(#a)"/>
<path d="m265.25 308.81v47.55" clip-path="url(#a)"/>
<path d="m48.499 308.81v47.55" clip-path="url(#a)"/>
<path d="m70.175 308.81v47.55" clip-path="url(#a)"/>
<path d="m32.242 308.81v47.55" clip-path="url(#a)"/>
<path d="m102.69 308.81v47.55" clip-path="url(#a)"/>
<path d="m324.86 308.81v47.55" clip-path="url(#a)"/>
<path d="m384.47 308.81v47.55" clip-path="url(#a)"/>
<path d="m677.09 308.81v47.55" clip-path="url(#a)"/>
</g>
<path d="m314.32 38.428v6.0162q0 2.4 2.4 2.4h7.7425q2.4 0 2.4-2.4v-6.0162q0-2.4-2.4-2.4h-7.7425q-2.4 0-2.4 2.4z" clip-path="url(#a)" fill="#fff" stroke="#fff"/>
<g clip-path="url(#a)">
<g transform="translate(318.39 38.428) rotate(90) scale(.08 -.08)">
<defs>
<path id="z" d="m9.8125 72.906h9.8594v-29.891h35.844v29.891h9.8594v-72.906h-9.8594v34.719h-35.844v-34.719h-9.8594z"/>
</defs>
<use xlink:href="#z"/>
</g>
</g>
<path d="m221.75 97.076 5.3091-1.3272q2.3284-0.58204 1.7463-2.9104l-1.8777-7.5114q-0.58204-2.3284-2.9104-1.7463l-5.3091 1.3272q-2.3284 0.58204-1.7463 2.9104l1.8777 7.5114q0.58204 2.3284 2.9104 1.7463z" clip-path="url(#a)" fill="#fff" stroke="#fff"/>
<g clip-path="url(#a)">
<g transform="translate(220.77 93.133) rotate(-14.035) scale(.08 -.08)">
<defs>
<path id="n" d="m34.188 63.188-13.391-36.281h26.812zm-5.5781 9.7188h11.188l27.781-72.906h-10.25l-6.6406 18.703h-32.859l-6.6406-18.703h-10.406z"/>
</defs>
<use xlink:href="#n"/>
</g>
</g>
<path d="m378.38 188.17 2.2611 4.261q1.125 2.12 3.245 0.99501l6.8392-3.6293q2.12-1.125 0.99501-3.245l-2.2611-4.261q-1.125-2.12-3.245-0.99501l-6.8392 3.6293q-2.12 1.125-0.99501 3.245z" clip-path="url(#a)" fill="#fff" stroke="#fff"/>
<g clip-path="url(#a)">
<g transform="translate(381.97 186.26) rotate(62.047) scale(.08 -.08)">
<defs>
<path id="o" d="m19.672 64.797v-27.391h12.406q6.8906 0 10.641 3.5625 3.7656 3.5625 3.7656 10.156 0 6.5469-3.7656 10.109-3.75 3.5625-10.641 3.5625zm-9.8594 8.1094h22.266q12.266 0 18.531-5.5469 6.2812-5.5469 6.2812-16.234 0-10.797-6.2812-16.312-6.2656-5.5156-18.531-5.5156h-12.406v-29.297h-9.8594z"/>
</defs>
<use xlink:href="#o"/>
</g>
</g>
<path d="m459.35 119.76 5.1806 1.7635q2.272 0.7734 3.0454-1.4986l2.495-7.3295q0.7734-2.272-1.4986-3.0454l-5.1806-1.7635q-2.272-0.7734-3.0454 1.4986l-2.495 7.3295q-0.77339 2.272 1.4986 3.0454z" clip-path="url(#a)" fill="#fff" stroke="#fff"/>
<g clip-path="url(#a)">
<g transform="translate(460.66 115.91) rotate(18.799) scale(.08 -.08)">
<use xlink:href="#n"/>
</g>
</g>
<path d="m178.22 194.04 4.4779-3.7722q1.8355-1.5462 0.28926-3.3818l-4.9883-5.9214q-1.5462-1.8355-3.3818-0.28926l-4.4779 3.7722q-1.8355 1.5462-0.28926 3.3818l4.9883 5.9214q1.5462 1.8355 3.3818 0.28926z" clip-path="url(#a)" fill="#fff" stroke="#fff"/>
<g clip-path="url(#a)">
<g transform="translate(175.6 190.93) rotate(-40.111) scale(.08 -.08)">
<defs>
<path id="r" d="m8.6875 72.906h9.9219v-44.297q0-11.719 4.2344-16.875 4.25-5.1406 13.781-5.1406 9.4688 0 13.719 5.1406 4.25 5.1562 4.25 16.875v44.297h9.9062v-45.516q0-14.25-7.0625-21.531-7.0469-7.2812-20.812-7.2812-13.828 0-20.891 7.2812-7.0469 7.2812-7.0469 21.531z"/>
</defs>
<use xlink:href="#r"/>
</g>
</g>
<path d="m316.41 184.54 0.10284 5.8541q0.042156 2.3996 2.4418 2.3575l7.7413-0.136q2.3996-0.042156 2.3575-2.4418l-0.10284-5.8541q-0.042156-2.3996-2.4418-2.3575l-7.7413 0.136q-2.3996 0.042156-2.3575 2.4418z" clip-path="url(#a)" fill="#fff" stroke="#fff"/>
<g clip-path="url(#a)">
<g transform="translate(320.47 184.47) rotate(88.994) scale(.08 -.08)">
<use xlink:href="#r"/>
</g>
</g>
<path d="m345.72 186.12 1.489 5.6625q0.61035 2.3211 2.9314 1.7107l7.4879-1.969q2.3211-0.61035 1.7107-2.9314l-1.489-5.6625q-0.61035-2.3211-2.9314-1.7107l-7.4879 1.969q-2.3211 0.61035-1.7107 2.9314z" clip-path="url(#a)" fill="#fff" stroke="#fff"/>
<g clip-path="url(#a)">
<g transform="translate(349.65 185.09) rotate(75.267) scale(.08 -.08)">
<use xlink:href="#r"/>
</g>
</g>
<path d="m96.735 193 2.4754-5.4834q0.98747-2.1874-1.2-3.1749l-7.0568-3.1856q-2.1874-0.98747-3.1749 1.2l-2.4754 5.4834q-0.98747 2.1874 1.2 3.1749l7.0568 3.1856q2.1874 0.98747 3.1749-1.2z" clip-path="url(#a)" fill="#fff" stroke="#fff"/>
<g clip-path="url(#a)">
<g transform="translate(93.031 191.33) rotate(-65.704) scale(.08 -.08)">
<use xlink:href="#z"/>
</g>
</g>
<path d="m123.81 209.88 0.22996 4.4516q0.12382 2.3968 2.5206 2.273l7.7322-0.39944q2.3968-0.12382 2.273-2.5206l-0.22996-4.4516q-0.12382-2.3968-2.5206-2.273l-7.7322 0.39944q-2.3968 0.12382-2.273 2.5206z" clip-path="url(#a)" fill="#fff" stroke="#fff"/>
<g clip-path="url(#a)">
<g transform="translate(127.87 209.67) rotate(87.043) scale(.08 -.08)">
<defs>
<path id="s" d="m9.8125 72.906h9.8594v-64.609h35.5v-8.2969h-45.359z"/>
</defs>
<use xlink:href="#s"/>
</g>
</g>
<path d="m142.53 211.12 1.0694 4.3273q0.57578 2.3299 2.9057 1.7541l7.5164-1.8575q2.3299-0.57578 1.7541-2.9057l-1.0694-4.3273q-0.57578-2.3299-2.9057-1.7541l-7.5164 1.8575q-2.3299 0.57578-1.7541 2.9057z" clip-path="url(#a)" fill="#fff" stroke="#fff"/>
<g clip-path="url(#a)">
<g transform="translate(146.48 210.15) rotate(76.119) scale(.08 -.08)">
<use xlink:href="#s"/>
</g>
</g>
<path d="m133.44 139.89 3.1792 5.1076q1.2682 2.0375 3.3058 0.76929l6.5732-4.0914q2.0375-1.2682 0.76929-3.3058l-3.1792-5.1076q-1.2682-2.0375-3.3058-0.76929l-6.5732 4.0914q-2.0375 1.2682-0.76929 3.3058z" clip-path="url(#a)" fill="#fff" stroke="#fff"/>
<g clip-path="url(#a)">
<g transform="translate(136.89 137.74) rotate(58.1) scale(.08 -.08)">
<use xlink:href="#z"/>
</g>
</g>
<path d="m119.82 215.41 0.67399-5.8161q0.27627-2.384-2.1078-2.6603l-7.691-0.89127q-2.384-0.27627-2.6603 2.1078l-0.67399 5.8161q-0.27627 2.384 2.1078 2.6603l7.691 0.89127q2.384 0.27627 2.6603-2.1078z" clip-path="url(#a)" fill="#fff" stroke="#fff"/>
<g clip-path="url(#a)">
<g transform="translate(115.79 214.95) rotate(-83.39) scale(.08 -.08)">
<use xlink:href="#r"/>
</g>
</g>
<path d="m443.23 315.68v33.808q0 2.4 2.4 2.4h7.7425q2.4 0 2.4-2.4v-33.808q0-2.4-2.4-2.4h-7.7425q-2.4 0-2.4 2.4z" clip-path="url(#a)" fill="#fff" stroke="#fff"/>
<g clip-path="url(#a)">
<g transform="translate(447.29 315.68) rotate(90) scale(.08 -.08)">
<defs>
<path id="e" d="m-0.29688 72.906h61.672v-8.3125h-25.875v-64.594h-9.9062v64.594h-25.891z"/>
<path id="l" d="m56.203 29.594v-4.3906h-41.312q0.59375-9.2812 5.5938-14.141t13.938-4.8594q5.1719 0 10.031 1.2656t9.6562 3.8125v-8.5q-4.8438-2.0469-9.9219-3.125t-10.297-1.0781q-13.094 0-20.734 7.6094-7.6406 7.625-7.6406 20.625 0 13.422 7.25 21.297 7.25 7.8906 19.562 7.8906 11.031 0 17.453-7.1094 6.4219-7.0938 6.4219-19.297zm-8.9844 2.6406q-0.09375 7.3594-4.125 11.75-4.0312 4.4062-10.672 4.4062-7.5156 0-12.031-4.25t-5.2031-11.969z"/>
<path id="g" d="m41.109 46.297q-1.5156 0.875-3.2969 1.2812-1.7812 0.42188-3.9219 0.42188-7.625 0-11.703-4.9531t-4.0781-14.234v-28.812h-9.0312v54.688h9.0312v-8.5q2.8438 4.9844 7.375 7.3906 4.5469 2.4219 11.047 2.4219 0.92188 0 2.0469-0.125 1.125-0.10938 2.4844-0.35938z"/>
<path id="i" d="m52 44.188q3.375 6.0625 8.0625 8.9375t11.031 2.875q8.5469 0 13.188-5.9844 4.6406-5.9688 4.6406-17v-33.016h-9.0312v32.719q0 7.8594-2.7969 11.656-2.7812 3.8125-8.4844 3.8125-6.9844 0-11.047-4.6406-4.0469-4.625-4.0469-12.641v-30.906h-9.0312v32.719q0 7.9062-2.7812 11.688t-8.5938 3.7812q-6.8906 0-10.953-4.6562-4.0469-4.6562-4.0469-12.625v-30.906h-9.0312v54.688h9.0312v-8.5q3.0781 5.0312 7.375 7.4219t10.203 2.3906q5.9688 0 10.141-3.0312 4.1719-3.0156 6.1719-8.7812z"/>
<path id="k" d="m9.4219 54.688h8.9844v-54.688h-8.9844zm0 21.297h8.9844v-11.391h-8.9844z"/>
<path id="h" d="m54.891 33.016v-33.016h-8.9844v32.719q0 7.7656-3.0312 11.609-3.0312 3.8594-9.0781 3.8594-7.2812 0-11.484-4.6406-4.2031-4.625-4.2031-12.641v-30.906h-9.0312v54.688h9.0312v-8.5q3.2344 4.9375 7.5938 7.375 4.375 2.4375 10.094 2.4375 9.4219 0 14.25-5.8281 4.8438-5.8281 4.8438-17.156z"/>
<path id="f" d="m34.281 27.484q-10.891 0-15.094-2.4844t-4.2031-8.5q0-4.7812 3.1562-7.5938 3.1562-2.7969 8.5625-2.7969 7.4844 0 12 5.2969t4.5156 14.078v2zm17.922 3.7188v-31.203h-8.9844v8.2969q-3.0781-4.9688-7.6719-7.3438t-11.234-2.375q-8.3906 0-13.359 4.7188-4.9531 4.7188-4.9531 12.625 0 9.2188 6.1719 13.906 6.1875 4.6875 18.438 4.6875h12.609v0.89062q0 6.2031-4.0781 9.5938t-11.453 3.3906q-4.6875 0-9.1406-1.125-4.4375-1.125-8.5312-3.375v8.3125q4.9219 1.9062 9.5625 2.8438 4.6406 0.95312 9.0312 0.95312 11.875 0 17.734-6.1562 5.8594-6.1406 5.8594-18.641z"/>
<path id="j" d="m9.4219 75.984h8.9844v-75.984h-8.9844z"/>
</defs>
<use xlink:href="#e"/>
<use x="44.083984" xlink:href="#l"/>
<use x="105.607422" xlink:href="#g"/>
<use x="144.970703" xlink:href="#i"/>
<use x="242.382812" xlink:href="#k"/>
<use x="270.166016" xlink:href="#h"/>
<use x="333.544922" xlink:href="#f"/>
<use x="394.824219" xlink:href="#j"/>
</g>
</g>
<path d="m596.84 193.21 2.5974-4.3366q1.2332-2.0589-0.82575-3.2921l-6.6422-3.9783q-2.0589-1.2332-3.2921 0.82575l-2.5974 4.3366q-1.2332 2.0589 0.82575 3.2921l6.6422 3.9783q2.0589 1.2332 3.2921-0.82575z" clip-path="url(#a)" fill="#fff" stroke="#fff"/>
<g clip-path="url(#a)">
<g transform="translate(593.35 191.12) rotate(-59.081) scale(.08 -.08)">
<defs>
<path id="ai" d="m9.8125 72.906h46.094v-8.3125h-36.234v-21.578h34.719v-8.2969h-34.719v-26.422h37.109v-8.2969h-46.969z"/>
</defs>
<use xlink:href="#ai"/>
</g>
</g>
<path d="m615.08 211.18 1.6051 5.3507q0.6896 2.2988 2.9884 1.6092l7.416-2.2247q2.2988-0.6896 1.6092-2.9884l-1.6051-5.3507q-0.6896-2.2988-2.9884-1.6092l-7.416 2.2247q-2.2988 0.6896-1.6092 2.9884z" clip-path="url(#a)" fill="#fff" stroke="#fff"/>
<g clip-path="url(#a)">
<g transform="translate(618.97 210.01) rotate(73.302) scale(.08 -.08)">
<defs>
<path id="t" d="m64.406 67.281v-10.391q-4.9844 4.6406-10.625 6.9219-5.6406 2.2969-11.984 2.2969-12.5 0-19.141-7.6406t-6.6406-22.094q0-14.406 6.6406-22.047t19.141-7.6406q6.3438 0 11.984 2.2969t10.625 6.9375v-10.312q-5.1719-3.5156-10.969-5.2812-5.7812-1.75-12.219-1.75-16.562 0-26.094 10.125-9.5156 10.141-9.5156 27.672 0 17.578 9.5156 27.703 9.5312 10.141 26.094 10.141 6.5312 0 12.312-1.7344 5.7969-1.7344 10.875-5.2031z"/>
</defs>
<use xlink:href="#t"/>
</g>
</g>
<path d="m601.21 239.44 4.2069 3.5q1.845 1.535 3.3799-0.31001l4.9518-5.9519q1.535-1.845-0.31001-3.3799l-4.2069-3.5q-1.845-1.535-3.3799 0.31001l-4.9518 5.9519q-1.535 1.845 0.31001 3.3799z" clip-path="url(#a)" fill="#fff" stroke="#fff"/>
<g clip-path="url(#a)">
<g transform="translate(603.81 236.32) rotate(39.759) scale(.08 -.08)">
<use xlink:href="#n"/>
</g>
</g>
<path d="m553.13 265.89 2.6212-4.3501q1.2386-2.0557-0.81701-3.2943l-6.6317-3.9959q-2.0557-1.2386-3.2943 0.81701l-2.6212 4.3501q-1.2386 2.0557 0.81701 3.2943l6.6317 3.9959q2.0557 1.2386 3.2943-0.81701z" clip-path="url(#a)" fill="#fff" stroke="#fff"/>
<g clip-path="url(#a)">
<g transform="translate(549.65 263.79) rotate(-58.929) scale(.08 -.08)">
<defs>
<path id="ag" d="m53.516 70.516v-9.625q-5.6094 2.6875-10.594 4-4.9844 1.3281-9.625 1.3281-8.0469 0-12.422-3.125t-4.375-8.8906q0-4.8438 2.9062-7.3125 2.9062-2.4531 11.016-3.9688l5.9531-1.2188q11.031-2.1094 16.281-7.4062t5.25-14.172q0-10.609-7.1094-16.078-7.0938-5.4688-20.812-5.4688-5.1719 0-11.016 1.1719-5.8281 1.1719-12.078 3.4688v10.156q6-3.3594 11.766-5.0781 5.7656-1.7031 11.328-1.7031 8.4375 0 13.031 3.3125 4.5938 3.3281 4.5938 9.4844 0 5.3594-3.2969 8.3906t-10.812 4.5469l-6.0156 1.1719q-11.031 2.1875-15.969 6.875-4.9219 4.6875-4.9219 13.047 0 9.6719 6.8125 15.234t18.766 5.5625q5.1406 0 10.453-0.9375 5.3281-0.92188 10.891-2.7656z"/>
</defs>
<use xlink:href="#ag"/>
</g>
</g>
<path d="m616.75 293.9 8.5376-10.128q1.5469-1.835-0.28813-3.3819l-6.1167-5.1562q-1.835-1.5469-3.3819 0.28813l-8.5376 10.128q-1.5469 1.835 0.28813 3.3819l6.1167 5.1562q1.835 1.5469 3.3819-0.28813z" clip-path="url(#a)" fill="#fff" stroke="#fff"/>
<g clip-path="url(#a)">
<g transform="translate(613.48 291.13) rotate(-49.87) scale(.08 -.08)">
<defs>
<path id="al" d="m21 76.422v-100h-8.2969v100z"/>
</defs>
<use xlink:href="#n"/>
<use x="68.408203" xlink:href="#al"/>
<use x="102.099609" xlink:href="#ag"/>
</g>
</g>
<path d="m650.09 286.51 3.7737 4.4766q1.5469 1.835 3.3819 0.28813l5.9198-4.9902q1.835-1.5469 0.28813-3.3819l-3.7737-4.4766q-1.5469-1.835-3.3819-0.28813l-5.9198 4.9902q-1.835 1.5469-0.28813 3.3819z" clip-path="url(#a)" fill="#fff" stroke="#fff"/>
<g clip-path="url(#a)">
<g transform="translate(653.2 283.89) rotate(49.87) scale(.08 -.08)">
<use xlink:href="#r"/>
</g>
</g>
<path d="m589.54 315.68v33.808q0 2.4 2.4 2.4h7.7425q2.4 0 2.4-2.4v-33.808q0-2.4-2.4-2.4h-7.7425q-2.4 0-2.4 2.4z" clip-path="url(#a)" fill="#fff" stroke="#fff"/>
<g clip-path="url(#a)">
<g transform="translate(593.6 315.68) rotate(90) scale(.08 -.08)">
<use xlink:href="#e"/>
<use x="44.083984" xlink:href="#l"/>
<use x="105.607422" xlink:href="#g"/>
<use x="144.970703" xlink:href="#i"/>
<use x="242.382812" xlink:href="#k"/>
<use x="270.166016" xlink:href="#h"/>
<use x="333.544922" xlink:href="#f"/>
<use x="394.824219" xlink:href="#j"/>
</g>
</g>
<path d="m513.67 315.68v33.808q0 2.4 2.4 2.4h7.7425q2.4 0 2.4-2.4v-33.808q0-2.4-2.4-2.4h-7.7425q-2.4 0-2.4 2.4z" clip-path="url(#a)" fill="#fff" stroke="#fff"/>
<g clip-path="url(#a)">
<g transform="translate(517.74 315.68) rotate(90) scale(.08 -.08)">
<use xlink:href="#e"/>
<use x="44.083984" xlink:href="#l"/>
<use x="105.607422" xlink:href="#g"/>
<use x="144.970703" xlink:href="#i"/>
<use x="242.382812" xlink:href="#k"/>
<use x="270.166016" xlink:href="#h"/>
<use x="333.544922" xlink:href="#f"/>
<use x="394.824219" xlink:href="#j"/>
</g>
</g>
<path d="m60.648 284.12 1.7486 5.1856q0.76684 2.2742 3.041 1.5074l7.3366-2.4739q2.2742-0.76684 1.5074-3.041l-1.7486-5.1856q-0.76684-2.2742-3.041-1.5074l-7.3366 2.4739q-2.2742 0.76684-1.5074 3.041z" clip-path="url(#a)" fill="#fff" stroke="#fff"/>
<g clip-path="url(#a)">
<g transform="translate(64.499 282.82) rotate(71.366) scale(.08 -.08)">
<use xlink:href="#n"/>
</g>
</g>
<path d="m59.436 288.75 1.2002-5.3393q0.52637-2.3416-1.8152-2.8679l-7.554-1.6981q-2.3416-0.52637-2.8679 1.8152l-1.2002 5.3393q-0.52637 2.3416 1.8152 2.8679l7.554 1.6981q2.3416 0.52637 2.8679-1.8152z" clip-path="url(#a)" fill="#fff" stroke="#fff"/>
<g clip-path="url(#a)">
<g transform="translate(55.472 287.86) rotate(-77.331) scale(.08 -.08)">
<use xlink:href="#n"/>
</g>
</g>
<path d="m58.108 283.73 1.058 4.7063q0.52637 2.3416 2.8679 1.8152l7.554-1.6981q2.3416-0.52637 1.8152-2.8679l-1.058-4.7063q-0.52637-2.3416-2.8679-1.8152l-7.554 1.6981q-2.3416 0.52637-1.8152 2.8679z" clip-path="url(#a)" fill="#fff" stroke="#fff"/>
<g clip-path="url(#a)">
<g transform="translate(62.073 282.84) rotate(77.331) scale(.08 -.08)">
<use xlink:href="#o"/>
</g>
</g>
<path d="m128.93 315.68v33.808q0 2.4 2.4 2.4h7.7425q2.4 0 2.4-2.4v-33.808q0-2.4-2.4-2.4h-7.7425q-2.4 0-2.4 2.4z" clip-path="url(#a)" fill="#fff" stroke="#fff"/>
<g clip-path="url(#a)">
<g transform="translate(132.99 315.68) rotate(90) scale(.08 -.08)">
<use xlink:href="#e"/>
<use x="44.083984" xlink:href="#l"/>
<use x="105.607422" xlink:href="#g"/>
<use x="144.970703" xlink:href="#i"/>
<use x="242.382812" xlink:href="#k"/>
<use x="270.166016" xlink:href="#h"/>
<use x="333.544922" xlink:href="#f"/>
<use x="394.824219" xlink:href="#j"/>
</g>
</g>
<path d="m166.86 315.68v33.808q0 2.4 2.4 2.4h7.7425q2.4 0 2.4-2.4v-33.808q0-2.4-2.4-2.4h-7.7425q-2.4 0-2.4 2.4z" clip-path="url(#a)" fill="#fff" stroke="#fff"/>
<g clip-path="url(#a)">
<g transform="translate(170.93 315.68) rotate(90) scale(.08 -.08)">
<use xlink:href="#e"/>
<use x="44.083984" xlink:href="#l"/>
<use x="105.607422" xlink:href="#g"/>
<use x="144.970703" xlink:href="#i"/>
<use x="242.382812" xlink:href="#k"/>
<use x="270.166016" xlink:href="#h"/>
<use x="333.544922" xlink:href="#f"/>
<use x="394.824219" xlink:href="#j"/>
</g>
</g>
<path d="m208.14 192.53 5.0414 2.129q2.2109 0.9337 3.1446-1.2772l3.0122-7.1325q0.9337-2.2109-1.2772-3.1446l-5.0414-2.129q-2.2109-0.9337-3.1446 1.2772l-3.0122 7.1325q-0.9337 2.2109 1.2772 3.1446z" clip-path="url(#a)" fill="#fff" stroke="#fff"/>
<g clip-path="url(#a)">
<g transform="translate(209.72 188.79) rotate(22.895) scale(.08 -.08)">
<use xlink:href="#n"/>
</g>
</g>
<path d="m192.71 191.92 4.7548 2.7092q2.0853 1.1881 3.2734-0.89711l3.833-6.7271q1.1882-2.0853-0.89711-3.2734l-4.7548-2.7092q-2.0853-1.1881-3.2734 0.89711l-3.833 6.7271q-1.1881 2.0853 0.89711 3.2734z" clip-path="url(#a)" fill="#fff" stroke="#fff"/>
<g clip-path="url(#a)">
<g transform="translate(194.73 188.38) rotate(29.674) scale(.08 -.08)">
<use xlink:href="#n"/>
</g>
</g>
<path d="m117.03 241.42 2.443-4.1593q1.2155-2.0694-0.85393-3.2849l-6.6761-3.9213q-2.0694-1.2155-3.2849 0.85393l-2.443 4.1593q-1.2155 2.0694 0.85393 3.2849l6.6761 3.9213q2.0694 1.2155 3.2849-0.85393z" clip-path="url(#a)" fill="#fff" stroke="#fff"/>
<g clip-path="url(#a)">
<g transform="translate(113.53 239.36) rotate(-59.572) scale(.08 -.08)">
<use xlink:href="#o"/>
</g>
</g>
<path d="m234.14 264.46 1.2363-4.9015q0.58697-2.3271-1.7401-2.9141l-7.5074-1.8936q-2.3271-0.58697-2.9141 1.7401l-1.2363 4.9015q-0.58697 2.3271 1.7401 2.9141l7.5074 1.8936q2.3271 0.58697 2.9141-1.7401z" clip-path="url(#a)" fill="#fff" stroke="#fff"/>
<g clip-path="url(#a)">
<g transform="translate(230.2 263.47) rotate(-75.843) scale(.08 -.08)">
<use xlink:href="#ai"/>
</g>
</g>
<path d="m246.2 236.69 2.5108 4.9902q1.0787 2.1439 3.2226 1.0652l6.9164-3.48q2.1439-1.0787 1.0652-3.2226l-2.5108-4.9902q-1.0787-2.1439-3.2226-1.0652l-6.9164 3.48q-2.1439 1.0787-1.0652 3.2226z" clip-path="url(#a)" fill="#fff" stroke="#fff"/>
<g clip-path="url(#a)">
<g transform="translate(249.84 234.87) rotate(63.291) scale(.08 -.08)">
<use xlink:href="#t"/>
</g>
</g>
<path d="m210.21 315.68v33.808q0 2.4 2.4 2.4h7.7425q2.4 0 2.4-2.4v-33.808q0-2.4-2.4-2.4h-7.7425q-2.4 0-2.4 2.4z" clip-path="url(#a)" fill="#fff" stroke="#fff"/>
<g clip-path="url(#a)">
<g transform="translate(214.28 315.68) rotate(90) scale(.08 -.08)">
<use xlink:href="#e"/>
<use x="44.083984" xlink:href="#l"/>
<use x="105.607422" xlink:href="#g"/>
<use x="144.970703" xlink:href="#i"/>
<use x="242.382812" xlink:href="#k"/>
<use x="270.166016" xlink:href="#h"/>
<use x="333.544922" xlink:href="#f"/>
<use x="394.824219" xlink:href="#j"/>
</g>
</g>
<path d="m258.85 278.21v12.991q0 2.4 2.4 2.4h8q2.4 0 2.4-2.4v-12.991q0-2.4-2.4-2.4h-8q-2.4 0-2.4 2.4z" clip-path="url(#a)" fill="#fff" stroke="#fff"/>
<g clip-path="url(#a)">
<g transform="translate(263.14 278.21) rotate(90) scale(.08 -.08)">
<use xlink:href="#n"/>
<use x="68.408203" xlink:href="#al"/>
<use x="102.099609" xlink:href="#o"/>
</g>
</g>
<path d="m258.98 315.68v33.808q0 2.4 2.4 2.4h7.7425q2.4 0 2.4-2.4v-33.808q0-2.4-2.4-2.4h-7.7425q-2.4 0-2.4 2.4z" clip-path="url(#a)" fill="#fff" stroke="#fff"/>
<g clip-path="url(#a)">
<g transform="translate(263.05 315.68) rotate(90) scale(.08 -.08)">
<use xlink:href="#e"/>
<use x="44.083984" xlink:href="#l"/>
<use x="105.607422" xlink:href="#g"/>
<use x="144.970703" xlink:href="#i"/>
<use x="242.382812" xlink:href="#k"/>
<use x="270.166016" xlink:href="#h"/>
<use x="333.544922" xlink:href="#f"/>
<use x="394.824219" xlink:href="#j"/>
</g>
</g>
<path d="m42.228 315.68v33.808q0 2.4 2.4 2.4h7.7425q2.4 0 2.4-2.4v-33.808q0-2.4-2.4-2.4h-7.7425q-2.4 0-2.4 2.4z" clip-path="url(#a)" fill="#fff" stroke="#fff"/>
<g clip-path="url(#a)">
<g transform="translate(46.292 315.68) rotate(90) scale(.08 -.08)">
<use xlink:href="#e"/>
<use x="44.083984" xlink:href="#l"/>
<use x="105.607422" xlink:href="#g"/>
<use x="144.970703" xlink:href="#i"/>
<use x="242.382812" xlink:href="#k"/>
<use x="270.166016" xlink:href="#h"/>
<use x="333.544922" xlink:href="#f"/>
<use x="394.824219" xlink:href="#j"/>
</g>
</g>
<path d="m63.903 315.68v33.808q0 2.4 2.4 2.4h7.7425q2.4 0 2.4-2.4v-33.808q0-2.4-2.4-2.4h-7.7425q-2.4 0-2.4 2.4z" clip-path="url(#a)" fill="#fff" stroke="#fff"/>
<g clip-path="url(#a)">
<g transform="translate(67.967 315.68) rotate(90) scale(.08 -.08)">
<use xlink:href="#e"/>
<use x="44.083984" xlink:href="#l"/>
<use x="105.607422" xlink:href="#g"/>
<use x="144.970703" xlink:href="#i"/>
<use x="242.382812" xlink:href="#k"/>
<use x="270.166016" xlink:href="#h"/>
<use x="333.544922" xlink:href="#f"/>
<use x="394.824219" xlink:href="#j"/>
</g>
</g>
<path d="m25.971 315.68v33.808q0 2.4 2.4 2.4h7.7425q2.4 0 2.4-2.4v-33.808q0-2.4-2.4-2.4h-7.7425q-2.4 0-2.4 2.4z" clip-path="url(#a)" fill="#fff" stroke="#fff"/>
<g clip-path="url(#a)">
<g transform="translate(30.035 315.68) rotate(90) scale(.08 -.08)">
<use xlink:href="#e"/>
<use x="44.083984" xlink:href="#l"/>
<use x="105.607422" xlink:href="#g"/>
<use x="144.970703" xlink:href="#i"/>
<use x="242.382812" xlink:href="#k"/>
<use x="270.166016" xlink:href="#h"/>
<use x="333.544922" xlink:href="#f"/>
<use x="394.824219" xlink:href="#j"/>
</g>
</g>
<path d="m96.417 315.68v33.808q0 2.4 2.4 2.4h7.7425q2.4 0 2.4-2.4v-33.808q0-2.4-2.4-2.4h-7.7425q-2.4 0-2.4 2.4z" clip-path="url(#a)" fill="#fff" stroke="#fff"/>
<g clip-path="url(#a)">
<g transform="translate(100.48 315.68) rotate(90) scale(.08 -.08)">
<use xlink:href="#e"/>
<use x="44.083984" xlink:href="#l"/>
<use x="105.607422" xlink:href="#g"/>
<use x="144.970703" xlink:href="#i"/>
<use x="242.382812" xlink:href="#k"/>
<use x="270.166016" xlink:href="#h"/>
<use x="333.544922" xlink:href="#f"/>
<use x="394.824219" xlink:href="#j"/>
</g>
</g>
<path d="m318.59 315.68v33.808q0 2.4 2.4 2.4h7.7425q2.4 0 2.4-2.4v-33.808q0-2.4-2.4-2.4h-7.7425q-2.4 0-2.4 2.4z" clip-path="url(#a)" fill="#fff" stroke="#fff"/>
<g clip-path="url(#a)">
<g transform="translate(322.66 315.68) rotate(90) scale(.08 -.08)">
<use xlink:href="#e"/>
<use x="44.083984" xlink:href="#l"/>
<use x="105.607422" xlink:href="#g"/>
<use x="144.970703" xlink:href="#i"/>
<use x="242.382812" xlink:href="#k"/>
<use x="270.166016" xlink:href="#h"/>
<use x="333.544922" xlink:href="#f"/>
<use x="394.824219" xlink:href="#j"/>
</g>
</g>
<path d="m378.2 315.68v33.808q0 2.4 2.4 2.4h7.7425q2.4 0 2.4-2.4v-33.808q0-2.4-2.4-2.4h-7.7425q-2.4 0-2.4 2.4z" clip-path="url(#a)" fill="#fff" stroke="#fff"/>
<g clip-path="url(#a)">
<g transform="translate(382.26 315.68) rotate(90) scale(.08 -.08)">
<use xlink:href="#e"/>
<use x="44.083984" xlink:href="#l"/>
<use x="105.607422" xlink:href="#g"/>
<use x="144.970703" xlink:href="#i"/>
<use x="242.382812" xlink:href="#k"/>
<use x="270.166016" xlink:href="#h"/>
<use x="333.544922" xlink:href="#f"/>
<use x="394.824219" xlink:href="#j"/>
</g>
</g>
<path d="m670.82 315.68v33.808q0 2.4 2.4 2.4h7.7425q2.4 0 2.4-2.4v-33.808q0-2.4-2.4-2.4h-7.7425q-2.4 0-2.4 2.4z" clip-path="url(#a)" fill="#fff" stroke="#fff"/>
<g clip-path="url(#a)">
<g transform="translate(674.88 315.68) rotate(90) scale(.08 -.08)">
<use xlink:href="#e"/>
<use x="44.083984" xlink:href="#l"/>
<use x="105.607422" xlink:href="#g"/>
<use x="144.970703" xlink:href="#i"/>
<use x="242.382812" xlink:href="#k"/>
<use x="270.166016" xlink:href="#h"/>
<use x="333.544922" xlink:href="#f"/>
<use x="394.824219" xlink:href="#j"/>
</g>
</g>
<defs>
<path id="b" d="m0 8.6603c2.2967 0 4.4997-0.9125 6.1237-2.5365 1.624-1.624 2.5365-3.827 2.5365-6.1237s-0.9125-4.4997-2.5365-6.1237c-1.624-1.624-3.827-2.5365-6.1237-2.5365s-4.4997 0.9125-6.1237 2.5365c-1.624 1.624-2.5365 3.827-2.5365 6.1237s0.9125 4.4997 2.5365 6.1237c1.624 1.624 3.827 2.5365 6.1237 2.5365z"/>
</defs>
<g clip-path="url(#a)" fill="#ffffff" stroke="#ffffff">
<use x="32.242424" y="356.363636" xlink:href="#b"/>
<use x="48.499109" y="356.363636" xlink:href="#b"/>
<use x="70.174688" y="356.363636" xlink:href="#b"/>
<use x="102.688057" y="356.363636" xlink:href="#b"/>
<use x="135.201426" y="356.363636" xlink:href="#b"/>
<use x="173.13369" y="356.363636" xlink:href="#b"/>
<use x="216.484848" y="356.363636" xlink:href="#b"/>
<use x="265.254902" y="356.363636" xlink:href="#b"/>
<use x="324.862745" y="356.363636" xlink:href="#b"/>
<use x="384.470588" y="356.363636" xlink:href="#b"/>
<use x="449.497326" y="356.363636" xlink:href="#b"/>
<use x="519.942959" y="356.363636" xlink:href="#b"/>
<use x="595.807487" y="356.363636" xlink:href="#b"/>
<use x="677.090909" y="356.363636" xlink:href="#b"/>
<use x="270.673797" y="212.136318" xlink:href="#b"/>
<use x="75.593583" y="308.813139" xlink:href="#b"/>
<use x="320.595365" y="16.969697" xlink:href="#b"/>
<use x="320.595365" y="65.902638" xlink:href="#b"/>
<use x="125.176471" y="114.753713" xlink:href="#b"/>
<use x="449.497326" y="308.813139" xlink:href="#b"/>
<use x="607.322638" y="163.506527" xlink:href="#b"/>
<use x="578.196078" y="212.136318" xlink:href="#b"/>
<use x="636.449198" y="260.601162" xlink:href="#b"/>
<use x="595.807487" y="308.813139" xlink:href="#b"/>
<use x="519.942959" y="308.813139" xlink:href="#b"/>
<use x="59.336898" y="260.601162" xlink:href="#b"/>
<use x="135.201426" y="308.813139" xlink:href="#b"/>
<use x="173.13369" y="308.813139" xlink:href="#b"/>
<use x="155.522282" y="163.506527" xlink:href="#b"/>
<use x="240.869875" y="212.136318" xlink:href="#b"/>
<use x="216.484848" y="308.813139" xlink:href="#b"/>
<use x="265.254902" y="260.601162" xlink:href="#b"/>
<use x="265.254902" y="308.813139" xlink:href="#b"/>
<use x="48.499109" y="308.813139" xlink:href="#b"/>
<use x="70.174688" y="308.813139" xlink:href="#b"/>
<use x="32.242424" y="308.813139" xlink:href="#b"/>
<use x="102.688057" y="308.813139" xlink:href="#b"/>
<use x="324.862745" y="308.813139" xlink:href="#b"/>
<use x="384.470588" y="308.813139" xlink:href="#b"/>
<use x="677.090909" y="308.813139" xlink:href="#b"/>
</g>
<g clip-path="url(#a)">
<g transform="translate(29.942 359.12) scale(.1 -.1)">
<defs>
<path id="ak" d="m17.922 72.906v-27.109h-8.2969v27.109zm18.453 0v-27.109h-8.2969v27.109z"/>
</defs>
<use xlink:href="#ak"/>
</g>
</g>
<g clip-path="url(#a)">
<g transform="translate(41.294 359.12) scale(.1 -.1)">
<defs>
<path id="bd" d="m39.406 66.219q-10.75 0-17.078-8.0156-6.3125-8-6.3125-21.828 0-13.766 6.3125-21.781 6.3281-8 17.078-8 10.734 0 17.016 8 6.2812 8.0156 6.2812 21.781 0 13.828-6.2812 21.828-6.2812 8.0156-17.016 8.0156zm0 8q15.328 0 24.5-10.281 9.1875-10.281 9.1875-27.562 0-17.234-9.1875-27.516-9.1719-10.281-24.5-10.281-15.375 0-24.594 10.25-9.2031 10.266-9.2031 27.547t9.2031 27.562q9.2188 10.281 24.594 10.281z"/>
<path id="x" d="m9.0781 54.688h9.0312v-22.312h29.156v22.312h9.0312v-54.688h-9.0312v25.203h-29.156v-25.203h-9.0312z"/>
</defs>
<use xlink:href="#bd"/>
<use x="78.710938" xlink:href="#x"/>
</g>
</g>
<g clip-path="url(#a)">
<g transform="translate(38.464 359.12) scale(.1 -.1)">
<defs>
<path id="aq" d="m18.109 8.2031v-29h-9.0312v75.484h9.0312v-8.2969q2.8438 4.875 7.1562 7.2344 4.3281 2.375 10.328 2.375 9.9688 0 16.188-7.9062 6.2344-7.9062 6.2344-20.797t-6.2344-20.812q-6.2188-7.9062-16.188-7.9062-6 0-10.328 2.375-4.3125 2.375-7.1562 7.25zm30.578 19.094q0 9.9062-4.0781 15.547t-11.203 5.6406q-7.1406 0-11.219-5.6406t-4.0781-15.547 4.0781-15.547 11.219-5.6406q7.125 0 11.203 5.6406t4.0781 15.547z"/>
<path id="q" d="m34.281 27.484q-10.891 0-15.094-2.4844t-4.2031-8.5q0-4.7812 3.1562-7.5938 3.1562-2.7969 8.5625-2.7969 7.4844 0 12 5.2969t4.5156 14.078v2zm17.922 3.7188v-31.203h-8.9844v8.2969q-3.0781-4.9688-7.6719-7.3438t-11.234-2.375q-8.3906 0-13.359 4.7188-4.9531 4.7188-4.9531 12.625 0 9.2188 6.1719 13.906 6.1875 4.6875 18.438 4.6875h12.609v0.89062q0 6.2031-4.0781 9.5938t-11.453 3.3906q-4.6875 0-9.1406-1.125-4.4375-1.125-8.5312-3.375v8.3125q4.9219 1.9062 9.5625 2.8438 4.6406 0.95312 9.0312 0.95312 11.875 0 17.734-6.1562 5.8594-6.1406 5.8594-18.641z"/>
<path id="ap" d="m48.781 52.594v-8.4062q-3.8125 2.1094-7.6406 3.1562t-7.7344 1.0469q-8.75 0-13.594-5.5469-4.8281-5.5312-4.8281-15.547t4.8281-15.562q4.8438-5.5312 13.594-5.5312 3.9062 0 7.7344 1.0469t7.6406 3.1562v-8.3125q-3.7656-1.75-7.7969-2.625-4.0156-0.89062-8.5625-0.89062-12.359 0-19.641 7.7656-7.2656 7.7656-7.2656 20.953 0 13.375 7.3438 21.031 7.3594 7.6719 20.156 7.6719 4.1406 0 8.0938-0.85938 3.9531-0.84375 7.6719-2.5469z"/>
<path id="ao" d="m32.172-5.0781q-3.7969-9.7656-7.4219-12.734-3.6094-2.9844-9.6562-2.9844h-7.1875v7.5156h5.2812q3.7031 0 5.75 1.7656 2.0625 1.75 4.5469 8.2969l1.6094 4.0938-22.109 53.812h9.5156l17.094-42.766 17.094 42.766h9.5156z"/>
<path id="bc" d="m40.578 54.688h8.9375v-25.688l23.875 25.688h10.453l-19.641-21.047 22.469-33.641h-9.625l-18.406 27.641-9.125-9.8125v-17.828h-8.9375v17.828l-9.125 9.8125-18.422-27.641h-9.6094l22.453 33.641-19.625 21.047h10.453l23.875-25.688z"/>
<path id="at" d="m21.625 7.1719h26.078v40.344h-18.891v-6.8438q0-20.109-5.7656-30.859zm-13.031 0q4.4375 1.9531 6.3906 6.1094 4.7969 10.297 4.7969 31.062v10.344h36.953v-47.516h7.1875v-20.984h-7.1875v13.812h-44.328v-13.812h-7.1875v20.984z"/>
<path id="as" d="m56.203 29.594v-4.3906h-41.312q0.59375-9.2812 5.5938-14.141t13.938-4.8594q5.1719 0 10.031 1.2656t9.6562 3.8125v-8.5q-4.8438-2.0469-9.9219-3.125t-10.297-1.0781q-13.094 0-20.734 7.6094-7.6406 7.625-7.6406 20.625 0 13.422 7.25 21.297 7.25 7.8906 19.562 7.8906 11.031 0 17.453-7.1094 6.4219-7.0938 6.4219-19.297zm-8.9844 2.6406q-0.09375 7.3594-4.125 11.75-4.0312 4.4062-10.672 4.4062-7.5156 0-12.031-4.25t-5.2031-11.969z"/>
<path id="v" d="m2.9375 54.688h52.391v-7.1719h-21.781v-47.516h-8.8438v47.516h-21.766z"/>
</defs>
<use xlink:href="#aq"/>
<use x="63.476562" xlink:href="#q"/>
<use x="124.755859" xlink:href="#ap"/>
<use x="179.736328" xlink:href="#ap"/>
<use x="234.716797" xlink:href="#ao"/>
<use x="293.896484" xlink:href="#bc"/>
<use x="383.984375" xlink:href="#at"/>
<use x="453.125" xlink:href="#q"/>
<use x="514.404297" xlink:href="#as"/>
<use x="575.927734" xlink:href="#v"/>
</g>
</g>
<g clip-path="url(#a)">
<g transform="translate(101.1 359.12) scale(.1 -.1)">
<defs>
<path id="aj" d="m11.719 12.406h10.297v-8.4062l-8-15.625h-6.2969l4 15.625z"/>
</defs>
<use xlink:href="#aj"/>
</g>
</g>
<g clip-path="url(#a)">
<g transform="translate(119.76 359.12) scale(.1 -.1)">
<defs>
<path id="w" d="m56.297 54.688v-54.688h-9.0312v47.516h-29.156v-47.516h-9.0312v54.688z"/>
<path id="ae" d="m30.609 48.391q-7.2188 0-11.422-5.6406t-4.2031-15.453 4.1719-15.453q4.1875-5.6406 11.453-5.6406 7.1875 0 11.375 5.6562 4.2031 5.6719 4.2031 15.438 0 9.7188-4.2031 15.406-4.1875 5.6875-11.375 5.6875zm0 7.6094q11.719 0 18.406-7.625 6.7031-7.6094 6.7031-21.078 0-13.422-6.7031-21.078-6.6875-7.6406-18.406-7.6406-11.766 0-18.438 7.6406-6.6562 7.6562-6.6562 21.078 0 13.469 6.6562 21.078 6.6719 7.625 18.438 7.625z"/>
<path id="az" d="m41.016 0v23h-16.75q-7.4688 0-12.453 4.6406-4.4844 4.2031-4.4844 13.188v13.859h8.9844v-13.031q0-5.7188 2.5312-8.5938 2.5938-2.8906 7.6719-2.8906h14.5v24.516h8.9844v-54.688z"/>
<path id="y" d="m55.906 54.688v-54.688h-8.9375v43.891l-26.359-43.891h-11.531v54.688h8.9375v-43.797l26.328 43.797z"/>
</defs>
<use xlink:href="#w"/>
<use x="65.380859" xlink:href="#ae"/>
<use x="126.5625" xlink:href="#az"/>
<use x="185.644531" xlink:href="#v"/>
<use x="243.896484" xlink:href="#y"/>
</g>
</g>
<g clip-path="url(#a)">
<g transform="translate(164.03 359.12) scale(.1 -.1)">
<defs>
<path id="af" d="m9.0781 54.688h8.9375v-25.688l25.344 25.688h11.031l-20.891-21.141 23.578-33.547h-10.062l-19.375 27.594-9.625-9.7656v-17.828h-8.9375z"/>
</defs>
<use xlink:href="#af"/>
<use x="60.400391" xlink:href="#q"/>
<use x="121.679688" xlink:href="#af"/>
</g>
</g>
<g clip-path="url(#a)">
<g transform="translate(207.6 359.12) scale(.1 -.1)">
<use xlink:href="#v"/>
<use x="58.251953" xlink:href="#ae"/>
<use x="119.433594" xlink:href="#v"/>
</g>
</g>
<g clip-path="url(#a)">
<g transform="translate(243.05 359.12) scale(.1 -.1)">
<defs>
<path id="am" d="m43.453 16.219q0 4.3906-3.2031 6.6875-3.1875 2.2969-9.3438 2.2969h-12.797v-18.031h12.797q6.1562 0 9.3438 2.3125 3.2031 2.3281 3.2031 6.7344zm-34.375 38.469h9.0312v-22.312h13.188q10.453 0 16.094-3.9844 5.6406-3.9688 5.6406-12.172t-5.6406-12.219q-5.6406-4-16.094-4h-22.219z"/>
<path id="ay" d="m18.453 38.922q0-4.0625 3.125-6.3594 3.125-2.2812 8.9375-2.2812h12.109v17.234h-12.109q-5.8125 0-8.9375-2.25t-3.125-6.3438zm-12.781-38.922 16.688 23.969q-5.6562 1.2812-9.4219 4.625-3.75 3.3438-3.75 10.328 0 7.9062 5.2344 11.828 5.25 3.9375 15.859 3.9375h21.375v-54.688h-9.0312v23.094h-11.172l-16.125-23.094z"/>
<path id="an" d="m56.297 0h-47.219v54.688h9.0312v-47.516h29.156v47.516h9.0312v-47.516h7.1875v-20.984h-7.1875z"/>
</defs>
<use xlink:href="#w"/>
<use x="65.380859" xlink:href="#am"/>
<use x="124.316406" xlink:href="#ay"/>
<use x="184.472656" xlink:href="#x"/>
<use x="249.853516" xlink:href="#y"/>
<use x="314.84375" xlink:href="#an"/>
<use x="382.910156" xlink:href="#q"/>
</g>
</g>
<g clip-path="url(#a)">
<g transform="translate(320.97 359.12) scale(.1 -.1)">
<use xlink:href="#ak"/>
<use x="45.996094" xlink:href="#aj"/>
</g>
</g>
<g clip-path="url(#a)">
<g transform="translate(382.67 359.12) scale(.1 -.1)">
<defs>
<path id="ax" d="m4.8906 31.391h26.312v-8h-26.312z"/>
</defs>
<use xlink:href="#ax"/>
</g>
</g>
<g clip-path="url(#a)">
<g transform="translate(426.72 359.12) scale(.1 -.1)">
<defs>
<path id="ba" d="m9.0781 54.688h13.141l15.531-36.625 15.578 36.625h13.031v-54.688h-9.0312v46.094l-15.094-35.594h-8.9844l-15.141 35.594v-46.094h-9.0312z"/>
<path id="ar" d="m3.7188 0v7.4688q8.875 1.375 11.609 7.5156 3.3281 8.6562 3.3281 30.766v8.9375h36.953v-54.688h-8.9844v47.516h-18.984v-5.4219q0-21.094-4.2969-30.562-4.5938-10.109-19.625-11.531z"/>
</defs>
<use xlink:href="#w"/>
<use x="65.380859" xlink:href="#ae"/>
<use x="126.5625" xlink:href="#at"/>
<use x="195.703125" xlink:href="#ao"/>
<use x="254.882812" xlink:href="#ba"/>
<use x="330.322266" xlink:href="#q"/>
<use x="391.601562" xlink:href="#ar"/>
</g>
</g>
<g clip-path="url(#a)">
<g transform="translate(490.56 359.12) scale(.1 -.1)">
<defs>
<path id="be" d="m9.8125 72.906h14.703l18.594-49.609 18.703 49.609h14.703v-72.906h-9.625v64.016l-18.797-50h-9.9062l-18.797 50v-64.016h-9.5781z"/>
<path id="bb" d="m55.906 54.688v-54.688h-8.9375v43.891l-26.359-43.891h-11.531v54.688h8.9375v-43.797l26.328 43.797zm-38.688 20.828h5.7656q0.53125-3.6562 2.8906-5.5 2.375-1.8281 6.625-1.8281 4.2031 0 6.5469 1.8125t2.9688 5.5156h5.7656q-0.48438-6.9844-4.3438-10.5t-10.938-3.5156-10.938 3.5156-4.3438 10.5z"/>
</defs>
<use xlink:href="#be"/>
<use x="86.279297" xlink:href="#q"/>
<use x="147.558594" xlink:href="#ar"/>
<use x="211.474609" xlink:href="#as"/>
<use x="272.998047" xlink:href="#x"/>
<use x="338.378906" xlink:href="#am"/>
<use x="397.314453" xlink:href="#af"/>
<use x="457.714844" xlink:href="#y"/>
<use x="522.705078" xlink:href="#bb"/>
</g>
</g>
<g clip-path="url(#a)">
<g transform="translate(579.44 359.12) scale(.1 -.1)">
<use xlink:href="#w"/>
<use x="65.380859" xlink:href="#aq"/>
<use x="128.857422" xlink:href="#y"/>
<use x="193.847656" xlink:href="#x"/>
<use x="259.228516" xlink:href="#an"/>
</g>
</g>
<g clip-path="url(#a)">
<g transform="translate(675.5 359.12) scale(.1 -.1)">
<defs>
<path id="d" d="m10.688 12.406h10.312v-12.406h-10.312z"/>
</defs>
<use xlink:href="#d"/>
</g>
</g>
<g clip-path="url(#a)">
<g transform="translate(249.59 214.9) scale(.1 -.1)">
<defs>
<path id="p" d="m9.8125 72.906h9.8594v-72.906h-9.8594z"/>
<path id="ah" d="m9.8125 72.906h14.703l18.594-49.609 18.703 49.609h14.703v-72.906h-9.625v64.016l-18.797-50h-9.9062l-18.797 50v-64.016h-9.5781z"/>
</defs>
<use xlink:href="#p"/>
<use x="29.492188" xlink:href="#ah"/>
<use x="115.771484" xlink:href="#o"/>
<use x="176.074219" xlink:href="#s"/>
<use x="231.787109" xlink:href="#p"/>
<use x="261.279297" xlink:href="#t"/>
<use x="331.103516" xlink:href="#p"/>
<use x="360.595703" xlink:href="#e"/>
</g>
</g>
<g clip-path="url(#a)">
<g transform="translate(54.508 311.57) scale(.1 -.1)">
<use xlink:href="#p"/>
<use x="29.492188" xlink:href="#ah"/>
<use x="115.771484" xlink:href="#o"/>
<use x="176.074219" xlink:href="#s"/>
<use x="231.787109" xlink:href="#p"/>
<use x="261.279297" xlink:href="#t"/>
<use x="331.103516" xlink:href="#p"/>
<use x="360.595703" xlink:href="#e"/>
</g>
</g>
<g clip-path="url(#a)">
<g transform="translate(312.64 19.729) scale(.1 -.1)">
<defs>
<path id="c" d="m12.406 8.2969h16.109v55.625l-17.531-3.5156v8.9844l17.438 3.5156h9.8594v-64.609h16.109v-8.2969h-41.984z"/>
</defs>
<use xlink:href="#c"/>
<use x="63.623047" xlink:href="#d"/>
<use x="95.410156" xlink:href="#c"/>
</g>
</g>
<g clip-path="url(#a)">
<g transform="translate(312.64 68.662) scale(.1 -.1)">
<defs>
<path id="m" d="m19.188 8.2969h34.422v-8.2969h-46.281v8.2969q5.6094 5.8125 15.297 15.594 9.7031 9.7969 12.188 12.641 4.7344 5.3125 6.6094 9 1.8906 3.6875 1.8906 7.25 0 5.8125-4.0781 9.4688-4.0781 3.6719-10.625 3.6719-4.6406 0-9.7969-1.6094-5.1406-1.6094-11-4.8906v9.9688q5.9531 2.3906 11.125 3.6094 5.1875 1.2188 9.4844 1.2188 11.328 0 18.062-5.6719 6.7344-5.6562 6.7344-15.125 0-4.5-1.6875-8.5312-1.6719-4.0156-6.125-9.4844-1.2188-1.4219-7.7656-8.1875-6.5312-6.7656-18.453-18.922z"/>
</defs>
<use xlink:href="#c"/>
<use x="63.623047" xlink:href="#d"/>
<use x="95.410156" xlink:href="#m"/>
</g>
</g>
<g clip-path="url(#a)">
<g transform="translate(117.22 117.51) scale(.1 -.1)">
<defs>
<path id="ac" d="m10.797 72.906h38.719v-8.3125h-29.688v-17.859q2.1406 0.73438 4.2812 1.0938 2.1562 0.35938 4.3125 0.35938 12.203 0 19.328-6.6875 7.1406-6.6875 7.1406-18.109 0-11.766-7.3281-18.297-7.3281-6.5156-20.656-6.5156-4.5938 0-9.3594 0.78125-4.75 0.78125-9.8281 2.3438v9.9219q4.3906-2.3906 9.0781-3.5625t9.9062-1.1719q8.4531 0 13.375 4.4375 4.9375 4.4375 4.9375 12.062 0 7.6094-4.9375 12.047-4.9219 4.4531-13.375 4.4531-3.9531 0-7.8906-0.875-3.9219-0.875-8.0156-2.7344z"/>
</defs>
<use xlink:href="#c"/>
<use x="63.623047" xlink:href="#d"/>
<use x="95.410156" xlink:href="#ac"/>
</g>
</g>
<g clip-path="url(#a)">
<g transform="translate(441.55 311.57) scale(.1 -.1)">
<defs>
<path id="ab" d="m33.016 40.375q-6.6406 0-10.531-4.5469-3.875-4.5312-3.875-12.438 0-7.8594 3.875-12.438 3.8906-4.5625 10.531-4.5625t10.516 4.5625q3.875 4.5781 3.875 12.438 0 7.9062-3.875 12.438-3.875 4.5469-10.516 4.5469zm19.578 30.922v-8.9844q-3.7188 1.75-7.5 2.6719-3.7812 0.9375-7.5 0.9375-9.7656 0-14.922-6.5938-5.1406-6.5938-5.875-19.922 2.875 4.25 7.2188 6.5156 4.3594 2.2656 9.5781 2.2656 10.984 0 17.359-6.6719 6.375-6.6562 6.375-18.125 0-11.234-6.6406-18.031-6.6406-6.7812-17.672-6.7812-12.656 0-19.344 9.6875-6.6875 9.7031-6.6875 28.109 0 17.281 8.2031 27.562t22.016 10.281q3.7188 0 7.5-0.73438t7.8906-2.1875z"/>
</defs>
<use xlink:href="#c"/>
<use x="63.623047" xlink:href="#d"/>
<use x="95.410156" xlink:href="#ab"/>
</g>
</g>
<g clip-path="url(#a)">
<g transform="translate(599.37 166.27) scale(.1 -.1)">
<defs>
<path id="aa" d="m8.2031 72.906h46.875v-4.2031l-26.469-68.703h-10.297l24.906 64.594h-35.016z"/>
</defs>
<use xlink:href="#c"/>
<use x="63.623047" xlink:href="#d"/>
<use x="95.410156" xlink:href="#aa"/>
</g>
</g>
<g clip-path="url(#a)">
<g transform="translate(567.06 214.9) scale(.1 -.1)">
<defs>
<path id="ad" d="m31.781 66.406q-7.6094 0-11.453-7.5-3.8281-7.4844-3.8281-22.531 0-14.984 3.8281-22.484 3.8438-7.5 11.453-7.5 7.6719 0 11.5 7.5 3.8438 7.5 3.8438 22.484 0 15.047-3.8438 22.531-3.8281 7.5-11.5 7.5zm0 7.8125q12.266 0 18.734-9.7031 6.4688-9.6875 6.4688-28.141 0-18.406-6.4688-28.109-6.4688-9.6875-18.734-9.6875-12.25 0-18.719 9.6875-6.4688 9.7031-6.4688 28.109 0 18.453 6.4688 28.141 6.4688 9.7031 18.719 9.7031z"/>
</defs>
<use xlink:href="#c"/>
<use x="63.623047" xlink:href="#d"/>
<use x="95.410156" xlink:href="#c"/>
<use x="159.033203" xlink:href="#ad"/>
</g>
</g>
<g clip-path="url(#a)">
<g transform="translate(625.32 263.36) scale(.1 -.1)">
<use xlink:href="#c"/>
<use x="63.623047" xlink:href="#d"/>
<use x="95.410156" xlink:href="#c"/>
<use x="159.033203" xlink:href="#c"/>
</g>
</g>
<g clip-path="url(#a)">
<g transform="translate(584.67 311.57) scale(.1 -.1)">
<use xlink:href="#c"/>
<use x="63.623047" xlink:href="#d"/>
<use x="95.410156" xlink:href="#c"/>
<use x="159.033203" xlink:href="#m"/>
</g>
</g>
<g clip-path="url(#a)">
<g transform="translate(508.81 311.57) scale(.1 -.1)">
<defs>
<path id="u" d="m40.578 39.312q7.0781-1.5156 11.047-6.3125 3.9844-4.7812 3.9844-11.812 0-10.781-7.4219-16.703-7.4219-5.9062-21.094-5.9062-4.5781 0-9.4375 0.90625t-10.031 2.7188v9.5156q4.0938-2.3906 8.9688-3.6094 4.8906-1.2188 10.219-1.2188 9.2656 0 14.125 3.6562t4.8594 10.641q0 6.4531-4.5156 10.078-4.5156 3.6406-12.562 3.6406h-8.5v8.1094h8.8906q7.2656 0 11.125 2.9062t3.8594 8.375q0 5.6094-3.9844 8.6094-3.9688 3.0156-11.391 3.0156-4.0625 0-8.7031-0.89062-4.6406-0.875-10.203-2.7188v8.7812q5.625 1.5625 10.531 2.3438t9.25 0.78125q11.234 0 17.766-5.1094 6.5469-5.0938 6.5469-13.781 0-6.0625-3.4688-10.234t-9.8594-5.7812z"/>
</defs>
<use xlink:href="#c"/>
<use x="63.623047" xlink:href="#d"/>
<use x="95.410156" xlink:href="#c"/>
<use x="159.033203" xlink:href="#u"/>
</g>
</g>
<g clip-path="url(#a)">
<g transform="translate(48.204 263.36) scale(.1 -.1)">
<defs>
<path id="aw" d="m37.797 64.312-24.906-38.922h24.906zm-2.5938 8.5938h12.406v-47.516h10.406v-8.2031h-10.406v-17.188h-9.8125v17.188h-32.906v9.5156z"/>
</defs>
<use xlink:href="#c"/>
<use x="63.623047" xlink:href="#d"/>
<use x="95.410156" xlink:href="#c"/>
<use x="159.033203" xlink:href="#aw"/>
</g>
</g>
<g clip-path="url(#a)">
<g transform="translate(124.07 311.57) scale(.1 -.1)">
<use xlink:href="#c"/>
<use x="63.623047" xlink:href="#d"/>
<use x="95.410156" xlink:href="#c"/>
<use x="159.033203" xlink:href="#ac"/>
</g>
</g>
<g clip-path="url(#a)">
<g transform="translate(162 311.57) scale(.1 -.1)">
<use xlink:href="#c"/>
<use x="63.623047" xlink:href="#d"/>
<use x="95.410156" xlink:href="#c"/>
<use x="159.033203" xlink:href="#ab"/>
</g>
</g>
<g clip-path="url(#a)">
<g transform="translate(144.39 166.27) scale(.1 -.1)">
<use xlink:href="#c"/>
<use x="63.623047" xlink:href="#d"/>
<use x="95.410156" xlink:href="#c"/>
<use x="159.033203" xlink:href="#aa"/>
</g>
</g>
<g clip-path="url(#a)">
<g transform="translate(229.74 214.9) scale(.1 -.1)">
<use xlink:href="#c"/>
<use x="63.623047" xlink:href="#d"/>
<use x="95.410156" xlink:href="#m"/>
<use x="159.033203" xlink:href="#ad"/>
</g>
</g>
<g clip-path="url(#a)">
<g transform="translate(205.35 311.57) scale(.1 -.1)">
<use xlink:href="#c"/>
<use x="63.623047" xlink:href="#d"/>
<use x="95.410156" xlink:href="#m"/>
<use x="159.033203" xlink:href="#c"/>
</g>
</g>
<g clip-path="url(#a)">
<g transform="translate(254.12 263.36) scale(.1 -.1)">
<use xlink:href="#c"/>
<use x="63.623047" xlink:href="#d"/>
<use x="95.410156" xlink:href="#m"/>
<use x="159.033203" xlink:href="#m"/>
</g>
</g>
<g clip-path="url(#a)">
<g transform="translate(254.12 311.57) scale(.1 -.1)">
<use xlink:href="#c"/>
<use x="63.623047" xlink:href="#d"/>
<use x="95.410156" xlink:href="#m"/>
<use x="159.033203" xlink:href="#u"/>
</g>
</g>
<g clip-path="url(#a)">
<g transform="translate(37.366 311.57) scale(.1 -.1)">
<use xlink:href="#c"/>
<use x="63.623047" xlink:href="#d"/>
<use x="95.410156" xlink:href="#m"/>
<use x="159.033203" xlink:href="#ac"/>
</g>
</g>
<g clip-path="url(#a)">
<g transform="translate(59.042 311.57) scale(.1 -.1)">
<use xlink:href="#c"/>
<use x="63.623047" xlink:href="#d"/>
<use x="95.410156" xlink:href="#m"/>
<use x="159.033203" xlink:href="#ab"/>
</g>
</g>
<g clip-path="url(#a)">
<g transform="translate(21.11 311.57) scale(.1 -.1)">
<use xlink:href="#c"/>
<use x="63.623047" xlink:href="#d"/>
<use x="95.410156" xlink:href="#m"/>
<use x="159.033203" xlink:href="#aa"/>
</g>
</g>
<g clip-path="url(#a)">
<g transform="translate(91.555 311.57) scale(.1 -.1)">
<defs>
<path id="av" d="m31.781 34.625q-7.0312 0-11.062-3.7656-4.0156-3.7656-4.0156-10.344 0-6.5938 4.0156-10.359 4.0312-3.7656 11.062-3.7656t11.078 3.7812q4.0625 3.7969 4.0625 10.344 0 6.5781-4.0312 10.344-4.0156 3.7656-11.109 3.7656zm-9.8594 4.1875q-6.3438 1.5625-9.8906 5.9062-3.5312 4.3594-3.5312 10.609 0 8.7344 6.2188 13.812 6.2344 5.0781 17.062 5.0781 10.891 0 17.094-5.0781t6.2031-13.812q0-6.25-3.5469-10.609-3.5312-4.3438-9.8281-5.9062 7.125-1.6562 11.094-6.5 3.9844-4.8281 3.9844-11.797 0-10.609-6.4688-16.281-6.4688-5.6562-18.531-5.6562-12.047 0-18.531 5.6562-6.4688 5.6719-6.4688 16.281 0 6.9688 4 11.797 4.0156 4.8438 11.141 6.5zm-3.6094 15.578q0-5.6562 3.5312-8.8281 3.5469-3.1719 9.9375-3.1719 6.3594 0 9.9375 3.1719 3.5938 3.1719 3.5938 8.8281 0 5.6719-3.5938 8.8438-3.5781 3.1719-9.9375 3.1719-6.3906 0-9.9375-3.1719-3.5312-3.1719-3.5312-8.8438z"/>
</defs>
<use xlink:href="#c"/>
<use x="63.623047" xlink:href="#d"/>
<use x="95.410156" xlink:href="#m"/>
<use x="159.033203" xlink:href="#av"/>
</g>
</g>
<g clip-path="url(#a)">
<g transform="translate(313.73 311.57) scale(.1 -.1)">
<defs>
<path id="au" d="m10.984 1.5156v8.9844q3.7188-1.7656 7.5156-2.6875 3.8125-0.92188 7.4844-0.92188 9.7656 0 14.906 6.5625 5.1562 6.5625 5.8906 19.953-2.8281-4.2031-7.1875-6.4531-4.3438-2.25-9.6094-2.25-10.938 0-17.312 6.6094-6.375 6.625-6.375 18.109 0 11.219 6.6406 18 6.6406 6.7969 17.672 6.7969 12.656 0 19.312-9.7031 6.6719-9.6875 6.6719-28.141 0-17.234-8.1875-27.516-8.1719-10.281-21.984-10.281-3.7188 0-7.5312 0.73438-3.7969 0.73438-7.9062 2.2031zm19.625 30.906q6.6406 0 10.516 4.5312 3.8906 4.5469 3.8906 12.469 0 7.8594-3.8906 12.422-3.875 4.5625-10.516 4.5625t-10.516-4.5625-3.875-12.422q0-7.9219 3.875-12.469 3.875-4.5312 10.516-4.5312z"/>
</defs>
<use xlink:href="#c"/>
<use x="63.623047" xlink:href="#d"/>
<use x="95.410156" xlink:href="#m"/>
<use x="159.033203" xlink:href="#au"/>
</g>
</g>
<g clip-path="url(#a)">
<g transform="translate(373.34 311.57) scale(.1 -.1)">
<use xlink:href="#c"/>
<use x="63.623047" xlink:href="#d"/>
<use x="95.410156" xlink:href="#u"/>
<use x="159.033203" xlink:href="#ad"/>
</g>
</g>
<g clip-path="url(#a)">
<g transform="translate(665.96 311.57) scale(.1 -.1)">
<use xlink:href="#c"/>
<use x="63.623047" xlink:href="#d"/>
<use x="95.410156" xlink:href="#u"/>
<use x="159.033203" xlink:href="#c"/>
</g>
</g>
<defs>
<clipPath id="a">
<rect width="709.33" height="373.33"/>
</clipPath>
</defs>
</svg>
