<?xml version="1.0" encoding="UTF-8"?>
<!DOCTYPE svg  PUBLIC '-//W3C//DTD SVG 1.1//EN'  'http://www.w3.org/Graphics/SVG/1.1/DTD/svg11.dtd'>
<svg width="962.67pt" height="506.67pt" version="1.1" viewBox="0 0 962.67 506.67" xmlns="http://www.w3.org/2000/svg" xmlns:xlink="http://www.w3.org/1999/xlink">
<metadata>
<rdf:RDF xmlns:cc="http://creativecommons.org/ns#" xmlns:dc="http://purl.org/dc/elements/1.1/" xmlns:rdf="http://www.w3.org/1999/02/22-rdf-syntax-ns#">
<cc:Work>
<dc:type rdf:resource="http://purl.org/dc/dcmitype/StillImage"/>
<dc:date>2021-01-13T08:48:13.330372</dc:date>
<dc:format>image/svg+xml</dc:format>
<dc:creator>
<cc:Agent>
<dc:title>Matplotlib v3.3.3, https://matplotlib.org/</dc:title>
</cc:Agent>
</dc:creator>
</cc:Work>
</rdf:RDF>
</metadata>
<defs>
<style type="text/css">*{stroke-linecap:butt;stroke-linejoin:round;}</style>
</defs>
<path d="m0 506.67h962.67v-506.67h-962.67z" fill="#fff"/>
<g fill="none" stroke="#000">
<path d="m175.61 23.03v92.943" clip-path="url(#a)"/>
<path d="m175.61 115.97 282.71 92.708" clip-path="url(#a)"/>
<path d="m175.61 115.97-81.116 277.01" clip-path="url(#a)"/>
<path d="m175.61 115.97-33.554 92.708" clip-path="url(#a)"/>
<path d="m175.61 115.97-119.17 277.01" clip-path="url(#a)"/>
<path d="m175.61 115.97-102.26 277.01" clip-path="url(#a)"/>
<path d="m175.61 115.97 7.6671 277.01" clip-path="url(#a)"/>
<path d="m175.61 115.97 45.717 277.01" clip-path="url(#a)"/>
<path d="m458.32 208.68-59.424 92.394" clip-path="url(#a)"/>
<path d="m458.32 208.68-194.71 184.31" clip-path="url(#a)"/>
<path d="m458.32 208.68 16.676 92.394" clip-path="url(#a)"/>
<path d="m458.32 208.68 16.676 184.31" clip-path="url(#a)"/>
<path d="m458.32 208.68 263.3 92.394" clip-path="url(#a)"/>
<path d="m458.32 208.68-42.513 184.31" clip-path="url(#a)"/>
<path d="m94.491 392.99v90.65" clip-path="url(#a)"/>
<path d="m142.05 208.68-7.3986 92.394" clip-path="url(#a)"/>
<path d="m142.05 208.68 7.3986 92.394" clip-path="url(#a)"/>
<path d="m134.65 301.07 14.797 91.911" clip-path="url(#a)" stroke-dasharray="3.7,1.6"/>
<path d="m134.65 301.07-14.797 91.911" clip-path="url(#a)"/>
<path d="m149.45 301.07v91.911" clip-path="url(#a)"/>
<path d="m149.45 392.99v90.65" clip-path="url(#a)"/>
<path d="m119.86 392.99v90.65" clip-path="url(#a)"/>
<path d="m398.89 301.07 355.13 91.911" clip-path="url(#a)" stroke-dasharray="3.7,1.6"/>
<path d="m398.89 301.07-355.13 91.911" clip-path="url(#a)"/>
<path d="m263.6 392.99v90.65" clip-path="url(#a)"/>
<path d="m474.99 301.07 279.03 91.911" clip-path="url(#a)" stroke-dasharray="3.7,1.6"/>
<path d="m474.99 301.07-164.88 91.911" clip-path="url(#a)"/>
<path d="m474.99 301.07-114.15 91.911" clip-path="url(#a)"/>
<path d="m474.99 392.99v90.65" clip-path="url(#a)"/>
<path d="m721.61 301.07-183.2 91.911" clip-path="url(#a)"/>
<path d="m721.61 301.07-115.56 91.911" clip-path="url(#a)"/>
<path d="m721.61 301.07-43.687 91.911" clip-path="url(#a)"/>
<path d="m721.61 301.07 32.413 91.911" clip-path="url(#a)"/>
<path d="m721.61 301.07 112.74 91.911" clip-path="url(#a)"/>
<path d="m721.61 301.07 197.3 91.911" clip-path="url(#a)"/>
<path d="m538.41 392.99v90.65" clip-path="url(#a)"/>
<path d="m606.05 392.99v90.65" clip-path="url(#a)"/>
<path d="m677.93 392.99v90.65" clip-path="url(#a)"/>
<path d="m754.03 392.99v90.65" clip-path="url(#a)"/>
<path d="m834.35 392.99v90.65" clip-path="url(#a)"/>
<path d="m56.441 392.99v90.65" clip-path="url(#a)"/>
<path d="m310.11 392.99v90.65" clip-path="url(#a)"/>
<path d="m360.84 392.99v90.65" clip-path="url(#a)"/>
<path d="m43.758 392.99v90.65" clip-path="url(#a)"/>
<path d="m73.352 392.99v90.65" clip-path="url(#a)"/>
<path d="m183.27 392.99v90.65" clip-path="url(#a)"/>
<path d="m221.32 392.99v90.65" clip-path="url(#a)"/>
<path d="m415.8 392.99v90.65" clip-path="url(#a)"/>
<path d="m918.91 392.99v90.65" clip-path="url(#a)"/>
</g>
<path d="m169.34 66.493v6.0162q0 2.4 2.4 2.4h7.7425q2.4 0 2.4-2.4v-6.0162q0-2.4-2.4-2.4h-7.7425q-2.4 0-2.4 2.4z" clip-path="url(#a)" fill="#fff" stroke="#fff"/>
<g clip-path="url(#a)">
<g transform="translate(173.4 66.493) rotate(90) scale(.08 -.08)">
<defs>
<path id="v" d="m9.8125 72.906h9.8594v-29.891h35.844v29.891h9.8594v-72.906h-9.8594v34.719h-35.844v-34.719h-9.8594z"/>
</defs>
<use xlink:href="#v"/>
</g>
</g>
<path d="m312.41 167.43 5.2 1.7052q2.2805 0.74784 3.0284-1.5327l2.4126-7.357q0.74784-2.2805-1.5327-3.0284l-5.2-1.7052q-2.2805-0.74784-3.0284 1.5327l-2.4126 7.357q-0.74784 2.2805 1.5327 3.0284z" clip-path="url(#a)" fill="#fff" stroke="#fff"/>
<g clip-path="url(#a)">
<g transform="translate(313.67 163.57) rotate(18.156) scale(.08 -.08)">
<defs>
<path id="o" d="m34.188 63.188-13.391-36.281h26.812zm-5.5781 9.7188h11.188l27.781-72.906h-10.25l-6.6406 18.703h-32.859l-6.6406-18.703h-10.406z"/>
</defs>
<use xlink:href="#o"/>
</g>
</g>
<path d="m140.39 258.56 1.3556-4.6294q0.67446-2.3033-1.6288-2.9777l-7.4305-2.1758q-2.3033-0.67446-2.9777 1.6288l-1.3556 4.6294q-0.67446 2.3033 1.6288 2.9777l7.4305 2.1758q2.3033 0.67446 2.9777-1.6288z" clip-path="url(#a)" fill="#fff" stroke="#fff"/>
<g clip-path="url(#a)">
<g transform="translate(136.49 257.41) rotate(-73.679) scale(.08 -.08)">
<defs>
<path id="aq" d="m19.672 64.797v-27.391h12.406q6.8906 0 10.641 3.5625 3.7656 3.5625 3.7656 10.156 0 6.5469-3.7656 10.109-3.75 3.5625-10.641 3.5625zm-9.8594 8.1094h22.266q12.266 0 18.531-5.5469 6.2812-5.5469 6.2812-16.234 0-10.797-6.2812-16.312-6.2656-5.5156-18.531-5.5156h-12.406v-29.297h-9.8594z"/>
</defs>
<use xlink:href="#aq"/>
</g>
</g>
<path d="m163.8 167.03 1.8624-5.1458q0.81678-2.2567-1.44-3.0735l-7.2803-2.635q-2.2567-0.81678-3.0735 1.44l-1.8624 5.1458q-0.81678 2.2567 1.44 3.0735l7.2803 2.635q2.2567 0.81678 3.0735-1.44z" clip-path="url(#a)" fill="#fff" stroke="#fff"/>
<g clip-path="url(#a)">
<g transform="translate(159.98 165.65) rotate(-70.103) scale(.08 -.08)">
<use xlink:href="#o"/>
</g>
</g>
<path d="m120.63 259.65 2.3137-5.3784q0.94841-2.2047-1.2563-3.1531l-7.1123-3.0596q-2.2047-0.94841-3.1531 1.2563l-2.3137 5.3784q-0.94841 2.2047 1.2563 3.1531l7.1123 3.0596q2.2047 0.94841 3.1531-1.2563z" clip-path="url(#a)" fill="#fff" stroke="#fff"/>
<g clip-path="url(#a)">
<g transform="translate(116.9 258.04) rotate(-66.723) scale(.08 -.08)">
<defs>
<path id="q" d="m8.6875 72.906h9.9219v-44.297q0-11.719 4.2344-16.875 4.25-5.1406 13.781-5.1406 9.4688 0 13.719 5.1406 4.25 5.1562 4.25 16.875v44.297h9.9062v-45.516q0-14.25-7.0625-21.531-7.0469-7.2812-20.812-7.2812-13.828 0-20.891 7.2812-7.0469 7.2812-7.0469 21.531z"/>
</defs>
<use xlink:href="#q"/>
</g>
</g>
<path d="m129.35 259.4 2.0276-5.4927q0.83111-2.2515-1.4204-3.0826l-7.2634-2.6812q-2.2515-0.83111-3.0826 1.4204l-2.0276 5.4927q-0.83111 2.2515 1.4204 3.0826l7.2634 2.6812q2.2515 0.83111 3.0826-1.4204z" clip-path="url(#a)" fill="#fff" stroke="#fff"/>
<g clip-path="url(#a)">
<g transform="translate(125.54 257.99) rotate(-69.739) scale(.08 -.08)">
<use xlink:href="#q"/>
</g>
</g>
<path d="m173.09 251.73 0.16199 5.8528q0.066401 2.3991 2.4655 2.3327l7.7395-0.21421q2.3991-0.066401 2.3327-2.4655l-0.16199-5.8528q-0.066401-2.3991-2.4655-2.3327l-7.7395 0.21421q-2.3991 0.0664-2.3327 2.4655z" clip-path="url(#a)" fill="#fff" stroke="#fff"/>
<g clip-path="url(#a)">
<g transform="translate(177.15 251.61) rotate(88.415) scale(.08 -.08)">
<use xlink:href="#q"/>
</g>
</g>
<path d="m191.8 252.61 0.95339 5.7769q0.3908 2.368 2.7588 1.9772l7.6392-1.2607q2.368-0.3908 1.9772-2.7588l-0.95339-5.7769q-0.3908-2.368-2.7588-1.9772l-7.6392 1.2607q-2.368 0.3908-1.9772 2.7588z" clip-path="url(#a)" fill="#fff" stroke="#fff"/>
<g clip-path="url(#a)">
<g transform="translate(195.81 251.95) rotate(80.629) scale(.08 -.08)">
<use xlink:href="#q"/>
</g>
</g>
<path d="m432.25 260.8 3.2544-5.06q1.2983-2.0186-0.7203-3.3168l-6.5119-4.1882q-2.0186-1.2983-3.3168 0.7203l-3.2544 5.06q-1.2983 2.0186 0.7203 3.3168l6.5119 4.1882q2.0186 1.2983 3.3168-0.7203z" clip-path="url(#a)" fill="#fff" stroke="#fff"/>
<g clip-path="url(#a)">
<g transform="translate(428.83 258.6) rotate(-57.252) scale(.08 -.08)">
<use xlink:href="#v"/>
</g>
</g>
<path d="m363.65 306.92 3.2373-3.0642q1.743-1.6498 0.093168-3.3928l-5.3224-5.623q-1.6498-1.743-3.3928-0.093168l-3.2373 3.0642q-1.743 1.6498-0.093168 3.3928l5.3224 5.623q1.6498 1.743 3.3928 0.093168z" clip-path="url(#a)" fill="#fff" stroke="#fff"/>
<g clip-path="url(#a)">
<g transform="translate(360.86 303.97) rotate(-43.427) scale(.08 -.08)">
<defs>
<path id="ac" d="m9.8125 72.906h9.8594v-64.609h35.5v-8.2969h-45.359z"/>
</defs>
<use xlink:href="#ac"/>
</g>
</g>
<path d="m459.95 253.03 1.0686 5.9206q0.42629 2.3618 2.7881 1.9355l7.6194-1.3752q2.3618-0.42629 1.9355-2.7881l-1.0686-5.9206q-0.42629-2.3618-2.7881-1.9355l-7.6194 1.3752q-2.3618 0.42629-1.9355 2.7881z" clip-path="url(#a)" fill="#fff" stroke="#fff"/>
<g clip-path="url(#a)">
<g transform="translate(463.95 252.31) rotate(79.769) scale(.08 -.08)">
<use xlink:href="#v"/>
</g>
</g>
<path d="m460.21 299.18 0.40168 4.4394q0.21627 2.3902 2.6065 2.174l7.711-0.69771q2.3902-0.21627 2.174-2.6065l-0.40168-4.4394q-0.21627-2.3902-2.6065-2.174l-7.711 0.69771q-2.3902 0.21627-2.174 2.6065z" clip-path="url(#a)" fill="#fff" stroke="#fff"/>
<g clip-path="url(#a)">
<g transform="translate(464.25 298.81) rotate(84.83) scale(.08 -.08)">
<use xlink:href="#ac"/>
</g>
</g>
<path d="m585.05 259.8 5.6769 1.9921q2.2646 0.79468 3.0593-1.4699l2.5637-7.3057q0.79468-2.2646-1.4699-3.0593l-5.6769-1.9921q-2.2646-0.79468-3.0593 1.4699l-2.5637 7.3057q-0.79468 2.2646 1.4699 3.0593z" clip-path="url(#a)" fill="#fff" stroke="#fff"/>
<g clip-path="url(#a)">
<g transform="translate(586.39 255.96) rotate(19.336) scale(.08 -.08)">
<use xlink:href="#v"/>
</g>
</g>
<path d="m442.51 305.1 1.316-5.7052q0.53943-2.3386-1.7992-2.878l-7.5444-1.7402q-2.3386-0.53943-2.878 1.7992l-1.316 5.7052q-0.53943 2.3386 1.7992 2.878l7.5444 1.7402q2.3386 0.53943 2.878-1.7992z" clip-path="url(#a)" fill="#fff" stroke="#fff"/>
<g clip-path="url(#a)">
<g transform="translate(438.55 304.18) rotate(-77.011) scale(.08 -.08)">
<use xlink:href="#q"/>
</g>
</g>
<path d="m88.22 421.41v33.808q0 2.4 2.4 2.4h7.7425q2.4 0 2.4-2.4v-33.808q0-2.4-2.4-2.4h-7.7425q-2.4 0-2.4 2.4z" clip-path="url(#a)" fill="#fff" stroke="#fff"/>
<g clip-path="url(#a)">
<g transform="translate(92.283 421.41) rotate(90) scale(.08 -.08)">
<defs>
<path id="f" d="m-0.29688 72.906h61.672v-8.3125h-25.875v-64.594h-9.9062v64.594h-25.891z"/>
<path id="l" d="m56.203 29.594v-4.3906h-41.312q0.59375-9.2812 5.5938-14.141t13.938-4.8594q5.1719 0 10.031 1.2656t9.6562 3.8125v-8.5q-4.8438-2.0469-9.9219-3.125t-10.297-1.0781q-13.094 0-20.734 7.6094-7.6406 7.625-7.6406 20.625 0 13.422 7.25 21.297 7.25 7.8906 19.562 7.8906 11.031 0 17.453-7.1094 6.4219-7.0938 6.4219-19.297zm-8.9844 2.6406q-0.09375 7.3594-4.125 11.75-4.0312 4.4062-10.672 4.4062-7.5156 0-12.031-4.25t-5.2031-11.969z"/>
<path id="g" d="m41.109 46.297q-1.5156 0.875-3.2969 1.2812-1.7812 0.42188-3.9219 0.42188-7.625 0-11.703-4.9531t-4.0781-14.234v-28.812h-9.0312v54.688h9.0312v-8.5q2.8438 4.9844 7.375 7.3906 4.5469 2.4219 11.047 2.4219 0.92188 0 2.0469-0.125 1.125-0.10938 2.4844-0.35938z"/>
<path id="i" d="m52 44.188q3.375 6.0625 8.0625 8.9375t11.031 2.875q8.5469 0 13.188-5.9844 4.6406-5.9688 4.6406-17v-33.016h-9.0312v32.719q0 7.8594-2.7969 11.656-2.7812 3.8125-8.4844 3.8125-6.9844 0-11.047-4.6406-4.0469-4.625-4.0469-12.641v-30.906h-9.0312v32.719q0 7.9062-2.7812 11.688t-8.5938 3.7812q-6.8906 0-10.953-4.6562-4.0469-4.6562-4.0469-12.625v-30.906h-9.0312v54.688h9.0312v-8.5q3.0781 5.0312 7.375 7.4219t10.203 2.3906q5.9688 0 10.141-3.0312 4.1719-3.0156 6.1719-8.7812z"/>
<path id="k" d="m9.4219 54.688h8.9844v-54.688h-8.9844zm0 21.297h8.9844v-11.391h-8.9844z"/>
<path id="h" d="m54.891 33.016v-33.016h-8.9844v32.719q0 7.7656-3.0312 11.609-3.0312 3.8594-9.0781 3.8594-7.2812 0-11.484-4.6406-4.2031-4.625-4.2031-12.641v-30.906h-9.0312v54.688h9.0312v-8.5q3.2344 4.9375 7.5938 7.375 4.375 2.4375 10.094 2.4375 9.4219 0 14.25-5.8281 4.8438-5.8281 4.8438-17.156z"/>
<path id="e" d="m34.281 27.484q-10.891 0-15.094-2.4844t-4.2031-8.5q0-4.7812 3.1562-7.5938 3.1562-2.7969 8.5625-2.7969 7.4844 0 12 5.2969t4.5156 14.078v2zm17.922 3.7188v-31.203h-8.9844v8.2969q-3.0781-4.9688-7.6719-7.3438t-11.234-2.375q-8.3906 0-13.359 4.7188-4.9531 4.7188-4.9531 12.625 0 9.2188 6.1719 13.906 6.1875 4.6875 18.438 4.6875h12.609v0.89062q0 6.2031-4.0781 9.5938t-11.453 3.3906q-4.6875 0-9.1406-1.125-4.4375-1.125-8.5312-3.375v8.3125q4.9219 1.9062 9.5625 2.8438 4.6406 0.95312 9.0312 0.95312 11.875 0 17.734-6.1562 5.8594-6.1406 5.8594-18.641z"/>
<path id="j" d="m9.4219 75.984h8.9844v-75.984h-8.9844z"/>
</defs>
<use xlink:href="#f"/>
<use x="44.083984" xlink:href="#l"/>
<use x="105.607422" xlink:href="#g"/>
<use x="144.970703" xlink:href="#i"/>
<use x="242.382812" xlink:href="#k"/>
<use x="270.166016" xlink:href="#h"/>
<use x="333.544922" xlink:href="#e"/>
<use x="394.824219" xlink:href="#j"/>
</g>
</g>
<path d="m144.4 257.9 0.4035-5.0389q0.19157-2.3923-2.2008-2.5839l-7.7178-0.61802q-2.3923-0.19157-2.5839 2.2008l-0.4035 5.0389q-0.19157 2.3923 2.2008 2.5839l7.7178 0.61802q2.3923 0.19157 2.5839-2.2008z" clip-path="url(#a)" fill="#fff" stroke="#fff"/>
<g clip-path="url(#a)">
<g transform="translate(140.35 257.57) rotate(-85.422) scale(.08 -.08)">
<defs>
<path id="at" d="m9.8125 72.906h46.094v-8.3125h-36.234v-21.578h34.719v-8.2969h-34.719v-26.422h37.109v-8.2969h-46.969z"/>
</defs>
<use xlink:href="#at"/>
</g>
</g>
<path d="m139.28 252.59 0.4459 5.5684q0.19157 2.3923 2.5839 2.2008l7.7178-0.61802q2.3923-0.19157 2.2008-2.5839l-0.4459-5.5684q-0.19157-2.3923-2.5839-2.2008l-7.7178 0.61802q-2.3923 0.19157-2.2008 2.5839z" clip-path="url(#a)" fill="#fff" stroke="#fff"/>
<g clip-path="url(#a)">
<g transform="translate(143.33 252.27) rotate(85.422) scale(.08 -.08)">
<defs>
<path id="au" d="m64.406 67.281v-10.391q-4.9844 4.6406-10.625 6.9219-5.6406 2.2969-11.984 2.2969-12.5 0-19.141-7.6406t-6.6406-22.094q0-14.406 6.6406-22.047t19.141-7.6406q6.3438 0 11.984 2.2969t10.625 6.9375v-10.312q-5.1719-3.5156-10.969-5.2812-5.7812-1.75-12.219-1.75-16.562 0-26.094 10.125-9.5156 10.141-9.5156 27.672 0 17.578 9.5156 27.703 9.5312 10.141 26.094 10.141 6.5312 0 12.312-1.7344 5.7969-1.7344 10.875-5.2031z"/>
</defs>
<use xlink:href="#au"/>
</g>
</g>
<path d="m135.43 345.33 0.86984 5.4029q0.38147 2.3695 2.751 1.988l7.6441-1.2307q2.3695-0.38147 1.988-2.751l-0.86984-5.4029q-0.38148-2.3695-2.751-1.988l-7.6441 1.2307q-2.3695 0.38148-1.988 2.751z" clip-path="url(#a)" fill="#fff" stroke="#fff"/>
<g clip-path="url(#a)">
<g transform="translate(139.44 344.68) rotate(80.854) scale(.08 -.08)">
<use xlink:href="#o"/>
</g>
</g>
<path d="m133.04 350.53 0.80726-5.0142q0.38148-2.3695-1.988-2.751l-7.6441-1.2307q-2.3695-0.38148-2.751 1.988l-0.80726 5.0142q-0.38148 2.3695 1.988 2.751l7.6441 1.2307q2.3695 0.38147 2.751-1.988z" clip-path="url(#a)" fill="#fff" stroke="#fff"/>
<g clip-path="url(#a)">
<g transform="translate(129.03 349.89) rotate(-80.854) scale(.08 -.08)">
<defs>
<path id="t" d="m53.516 70.516v-9.625q-5.6094 2.6875-10.594 4-4.9844 1.3281-9.625 1.3281-8.0469 0-12.422-3.125t-4.375-8.8906q0-4.8438 2.9062-7.3125 2.9062-2.4531 11.016-3.9688l5.9531-1.2188q11.031-2.1094 16.281-7.4062t5.25-14.172q0-10.609-7.1094-16.078-7.0938-5.4688-20.812-5.4688-5.1719 0-11.016 1.1719-5.8281 1.1719-12.078 3.4688v10.156q6-3.3594 11.766-5.0781 5.7656-1.7031 11.328-1.7031 8.4375 0 13.031 3.3125 4.5938 3.3281 4.5938 9.4844 0 5.3594-3.2969 8.3906t-10.812 4.5469l-6.0156 1.1719q-11.031 2.1875-15.969 6.875-4.9219 4.6875-4.9219 13.047 0 9.6719 6.8125 15.234t18.766 5.5625q5.1406 0 10.453-0.9375 5.3281-0.92188 10.891-2.7656z"/>
</defs>
<use xlink:href="#t"/>
</g>
</g>
<path d="m143.05 340.41v13.246q0 2.4 2.4 2.4h8q2.4 0 2.4-2.4v-13.246q0-2.4-2.4-2.4h-8q-2.4 0-2.4 2.4z" clip-path="url(#a)" fill="#fff" stroke="#fff"/>
<g clip-path="url(#a)">
<g transform="translate(147.34 340.41) rotate(90) scale(.08 -.08)">
<defs>
<path id="ay" d="m21 76.422v-100h-8.2969v100z"/>
</defs>
<use xlink:href="#o"/>
<use x="68.408203" xlink:href="#ay"/>
<use x="102.099609" xlink:href="#t"/>
</g>
</g>
<path d="m143.18 421.41v33.808q0 2.4 2.4 2.4h7.7425q2.4 0 2.4-2.4v-33.808q0-2.4-2.4-2.4h-7.7425q-2.4 0-2.4 2.4z" clip-path="url(#a)" fill="#fff" stroke="#fff"/>
<g clip-path="url(#a)">
<g transform="translate(147.24 421.41) rotate(90) scale(.08 -.08)">
<use xlink:href="#f"/>
<use x="44.083984" xlink:href="#l"/>
<use x="105.607422" xlink:href="#g"/>
<use x="144.970703" xlink:href="#i"/>
<use x="242.382812" xlink:href="#k"/>
<use x="270.166016" xlink:href="#h"/>
<use x="333.544922" xlink:href="#e"/>
<use x="394.824219" xlink:href="#j"/>
</g>
</g>
<path d="m113.59 421.41v33.808q0 2.4 2.4 2.4h7.7425q2.4 0 2.4-2.4v-33.808q0-2.4-2.4-2.4h-7.7425q-2.4 0-2.4 2.4z" clip-path="url(#a)" fill="#fff" stroke="#fff"/>
<g clip-path="url(#a)">
<g transform="translate(117.65 421.41) rotate(90) scale(.08 -.08)">
<use xlink:href="#f"/>
<use x="44.083984" xlink:href="#l"/>
<use x="105.607422" xlink:href="#g"/>
<use x="144.970703" xlink:href="#i"/>
<use x="242.382812" xlink:href="#k"/>
<use x="270.166016" xlink:href="#h"/>
<use x="333.544922" xlink:href="#e"/>
<use x="394.824219" xlink:href="#j"/>
</g>
</g>
<path d="m572.24 352.42 5.2979 1.3712q2.3234 0.60133 2.9248-1.7221l1.9399-7.4955q0.60133-2.3234-1.7221-2.9248l-5.2979-1.3712q-2.3234-0.60133-2.9248 1.7221l-1.9399 7.4955q-0.60133 2.3234 1.7221 2.9248z" clip-path="url(#a)" fill="#fff" stroke="#fff"/>
<g clip-path="url(#a)">
<g transform="translate(573.26 348.48) rotate(14.51) scale(.08 -.08)">
<use xlink:href="#o"/>
</g>
</g>
<path d="m220.44 353.74 4.9168-1.2725q2.3234-0.60133 1.7221-2.9248l-1.9399-7.4955q-0.60133-2.3234-2.9248-1.7221l-4.9168 1.2725q-2.3234 0.60133-1.7221 2.9248l1.9399 7.4955q0.60133 2.3234 2.9248 1.7221z" clip-path="url(#a)" fill="#fff" stroke="#fff"/>
<g clip-path="url(#a)">
<g transform="translate(219.42 349.8) rotate(-14.51) scale(.08 -.08)">
<use xlink:href="#t"/>
</g>
</g>
<path d="m257.33 421.41v33.808q0 2.4 2.4 2.4h7.7425q2.4 0 2.4-2.4v-33.808q0-2.4-2.4-2.4h-7.7425q-2.4 0-2.4 2.4z" clip-path="url(#a)" fill="#fff" stroke="#fff"/>
<g clip-path="url(#a)">
<g transform="translate(261.39 421.41) rotate(90) scale(.08 -.08)">
<use xlink:href="#f"/>
<use x="44.083984" xlink:href="#l"/>
<use x="105.607422" xlink:href="#g"/>
<use x="144.970703" xlink:href="#i"/>
<use x="242.382812" xlink:href="#k"/>
<use x="270.166016" xlink:href="#h"/>
<use x="333.544922" xlink:href="#e"/>
<use x="394.824219" xlink:href="#j"/>
</g>
</g>
<path d="m609.95 352.13 5.1978 1.7121q2.2795 0.75086 3.0304-1.5287l2.4223-7.3538q0.75086-2.2795-1.5287-3.0304l-5.1978-1.7121q-2.2795-0.75086-3.0304 1.5287l-2.4223 7.3538q-0.75086 2.2795 1.5287 3.0304z" clip-path="url(#a)" fill="#fff" stroke="#fff"/>
<g clip-path="url(#a)">
<g transform="translate(611.22 348.27) rotate(18.231) scale(.08 -.08)">
<use xlink:href="#o"/>
</g>
</g>
<path d="m392.9 354.02 5.4144-3.0181q2.0963-1.1685 0.92776-3.2649l-3.7698-6.7628q-1.1685-2.0963-3.2649-0.92776l-5.4144 3.0181q-2.0963 1.1685-0.92776 3.2649l3.7698 6.7628q1.1685 2.0963 3.2649 0.92776z" clip-path="url(#a)" fill="#fff" stroke="#fff"/>
<g clip-path="url(#a)">
<g transform="translate(390.92 350.47) rotate(-29.137) scale(.08 -.08)">
<defs>
<path id="ar" d="m59.516 10.406v19.578h-16.109v8.1094h25.875v-31.312q-5.7031-4.0469-12.594-6.125-6.875-2.0781-14.688-2.0781-17.094 0-26.75 9.9844-9.6406 10-9.6406 27.812 0 17.875 9.6406 27.859 9.6562 9.9844 26.75 9.9844 7.125 0 13.547-1.7656 6.4219-1.75 11.844-5.1719v-10.5q-5.4688 4.6406-11.625 6.9844t-12.938 2.3438q-13.391 0-20.109-7.4688-6.7031-7.4688-6.7031-22.266 0-14.75 6.7031-22.219 6.7188-7.4688 20.109-7.4688 5.2188 0 9.3125 0.90625 4.1094 0.90625 7.375 2.8125z"/>
</defs>
<use xlink:href="#ar"/>
</g>
</g>
<path d="m419.87 353.51 3.9558-3.1852q1.8694-1.5052 0.36419-3.3745l-4.8557-6.0306q-1.5052-1.8694-3.3745-0.36419l-3.9558 3.1851q-1.8694 1.5052-0.36419 3.3745l4.8557 6.0306q1.5052 1.8694 3.3745 0.36419z" clip-path="url(#a)" fill="#fff" stroke="#fff"/>
<g clip-path="url(#a)">
<g transform="translate(417.32 350.34) rotate(-38.84) scale(.08 -.08)">
<use xlink:href="#t"/>
</g>
</g>
<path d="m468.72 421.41v33.808q0 2.4 2.4 2.4h7.7425q2.4 0 2.4-2.4v-33.808q0-2.4-2.4-2.4h-7.7425q-2.4 0-2.4 2.4z" clip-path="url(#a)" fill="#fff" stroke="#fff"/>
<g clip-path="url(#a)">
<g transform="translate(472.78 421.41) rotate(90) scale(.08 -.08)">
<use xlink:href="#f"/>
<use x="44.083984" xlink:href="#l"/>
<use x="105.607422" xlink:href="#g"/>
<use x="144.970703" xlink:href="#i"/>
<use x="242.382812" xlink:href="#k"/>
<use x="270.166016" xlink:href="#h"/>
<use x="333.544922" xlink:href="#e"/>
<use x="394.824219" xlink:href="#j"/>
</g>
</g>
<path d="m630.07 354.02 5.5059-2.7623q2.1452-1.0762 1.069-3.2214l-3.4719-6.9204q-1.0762-2.1452-3.2214-1.069l-5.5059 2.7623q-2.1452 1.0762-1.069 3.2214l3.4719 6.9204q1.0762 2.1452 3.2214 1.069z" clip-path="url(#a)" fill="#fff" stroke="#fff"/>
<g clip-path="url(#a)">
<g transform="translate(628.25 350.38) rotate(-26.642) scale(.08 -.08)">
<defs>
<path id="ad" d="m19.672 64.797v-56.688h11.922q15.094 0 22.094 6.8281 7 6.8438 7 21.594 0 14.641-7 21.453t-22.094 6.8125zm-9.8594 8.1094h20.266q21.188 0 31.094-8.8125 9.9219-8.8125 9.9219-27.562 0-18.859-9.9688-27.703-9.9531-8.8281-31.047-8.8281h-20.266z"/>
</defs>
<use xlink:href="#ad"/>
</g>
</g>
<path d="m665.33 353.86 4.821-3.8345q1.8783-1.4939 0.38438-3.3723l-4.8195-6.0596q-1.4939-1.8783-3.3723-0.38438l-4.821 3.8345q-1.8783 1.4939-0.38438 3.3723l4.8195 6.0596q1.4939 1.8783 3.3723 0.38438z" clip-path="url(#a)" fill="#fff" stroke="#fff"/>
<g clip-path="url(#a)">
<g transform="translate(662.8 350.68) rotate(-38.497) scale(.08 -.08)">
<use xlink:href="#ad"/>
</g>
</g>
<path d="m704.45 351.8 1.9753-4.1557q1.0303-2.1676-1.1373-3.1979l-6.9928-3.3238q-2.1676-1.0303-3.1979 1.1373l-1.9753 4.1557q-1.0303 2.1676 1.1373 3.1979l6.9928 3.3238q2.1676 1.0303 3.1979-1.1373z" clip-path="url(#a)" fill="#fff" stroke="#fff"/>
<g clip-path="url(#a)">
<g transform="translate(700.78 350.06) rotate(-64.577) scale(.08 -.08)">
<defs>
<path id="as" d="m9.8125 72.906h41.891v-8.3125h-32.031v-21.484h28.906v-8.2969h-28.906v-34.812h-9.8594z"/>
</defs>
<use xlink:href="#as"/>
</g>
</g>
<path d="m730.99 346.54 1.82 5.161q0.79819 2.2634 3.0616 1.4652l7.3018-2.575q2.2634-0.79819 1.4652-3.0616l-1.82-5.161q-0.79819-2.2634-3.0616-1.4652l-7.3018 2.575q-2.2634 0.79819-1.4652 3.0616z" clip-path="url(#a)" fill="#fff" stroke="#fff"/>
<g clip-path="url(#a)">
<g transform="translate(734.83 345.18) rotate(70.575) scale(.08 -.08)">
<use xlink:href="#o"/>
</g>
</g>
<path d="m772.05 350.29 3.9364 3.2091q1.8602 1.5165 3.3767-0.34368l4.8923-6.001q1.5165-1.8602-0.34368-3.3767l-3.9364-3.2091q-1.8602-1.5165-3.3767 0.34368l-4.8923 6.001q-1.5165 1.8602 0.34368 3.3767z" clip-path="url(#a)" fill="#fff" stroke="#fff"/>
<g clip-path="url(#a)">
<g transform="translate(774.62 347.14) rotate(39.188) scale(.08 -.08)">
<use xlink:href="#t"/>
</g>
</g>
<path d="m814.96 351.48 5.3074 2.4725q2.1755 1.0135 3.189-1.162l3.2695-7.0183q1.0135-2.1755-1.162-3.189l-5.3074-2.4725q-2.1755-1.0135-3.189 1.162l-3.2695 7.0183q-1.0135 2.1755 1.162 3.189z" clip-path="url(#a)" fill="#fff" stroke="#fff"/>
<g clip-path="url(#a)">
<g transform="translate(816.67 347.79) rotate(24.979) scale(.08 -.08)">
<use xlink:href="#q"/>
</g>
</g>
<path d="m532.14 421.41v33.808q0 2.4 2.4 2.4h7.7425q2.4 0 2.4-2.4v-33.808q0-2.4-2.4-2.4h-7.7425q-2.4 0-2.4 2.4z" clip-path="url(#a)" fill="#fff" stroke="#fff"/>
<g clip-path="url(#a)">
<g transform="translate(536.2 421.41) rotate(90) scale(.08 -.08)">
<use xlink:href="#f"/>
<use x="44.083984" xlink:href="#l"/>
<use x="105.607422" xlink:href="#g"/>
<use x="144.970703" xlink:href="#i"/>
<use x="242.382812" xlink:href="#k"/>
<use x="270.166016" xlink:href="#h"/>
<use x="333.544922" xlink:href="#e"/>
<use x="394.824219" xlink:href="#j"/>
</g>
</g>
<path d="m599.78 421.41v33.808q0 2.4 2.4 2.4h7.7425q2.4 0 2.4-2.4v-33.808q0-2.4-2.4-2.4h-7.7425q-2.4 0-2.4 2.4z" clip-path="url(#a)" fill="#fff" stroke="#fff"/>
<g clip-path="url(#a)">
<g transform="translate(603.85 421.41) rotate(90) scale(.08 -.08)">
<use xlink:href="#f"/>
<use x="44.083984" xlink:href="#l"/>
<use x="105.607422" xlink:href="#g"/>
<use x="144.970703" xlink:href="#i"/>
<use x="242.382812" xlink:href="#k"/>
<use x="270.166016" xlink:href="#h"/>
<use x="333.544922" xlink:href="#e"/>
<use x="394.824219" xlink:href="#j"/>
</g>
</g>
<path d="m671.65 421.41v33.808q0 2.4 2.4 2.4h7.7425q2.4 0 2.4-2.4v-33.808q0-2.4-2.4-2.4h-7.7425q-2.4 0-2.4 2.4z" clip-path="url(#a)" fill="#fff" stroke="#fff"/>
<g clip-path="url(#a)">
<g transform="translate(675.72 421.41) rotate(90) scale(.08 -.08)">
<use xlink:href="#f"/>
<use x="44.083984" xlink:href="#l"/>
<use x="105.607422" xlink:href="#g"/>
<use x="144.970703" xlink:href="#i"/>
<use x="242.382812" xlink:href="#k"/>
<use x="270.166016" xlink:href="#h"/>
<use x="333.544922" xlink:href="#e"/>
<use x="394.824219" xlink:href="#j"/>
</g>
</g>
<path d="m747.75 421.41v33.808q0 2.4 2.4 2.4h7.7425q2.4 0 2.4-2.4v-33.808q0-2.4-2.4-2.4h-7.7425q-2.4 0-2.4 2.4z" clip-path="url(#a)" fill="#fff" stroke="#fff"/>
<g clip-path="url(#a)">
<g transform="translate(751.82 421.41) rotate(90) scale(.08 -.08)">
<use xlink:href="#f"/>
<use x="44.083984" xlink:href="#l"/>
<use x="105.607422" xlink:href="#g"/>
<use x="144.970703" xlink:href="#i"/>
<use x="242.382812" xlink:href="#k"/>
<use x="270.166016" xlink:href="#h"/>
<use x="333.544922" xlink:href="#e"/>
<use x="394.824219" xlink:href="#j"/>
</g>
</g>
<path d="m828.08 421.41v33.808q0 2.4 2.4 2.4h7.7425q2.4 0 2.4-2.4v-33.808q0-2.4-2.4-2.4h-7.7425q-2.4 0-2.4 2.4z" clip-path="url(#a)" fill="#fff" stroke="#fff"/>
<g clip-path="url(#a)">
<g transform="translate(832.15 421.41) rotate(90) scale(.08 -.08)">
<use xlink:href="#f"/>
<use x="44.083984" xlink:href="#l"/>
<use x="105.607422" xlink:href="#g"/>
<use x="144.970703" xlink:href="#i"/>
<use x="242.382812" xlink:href="#k"/>
<use x="270.166016" xlink:href="#h"/>
<use x="333.544922" xlink:href="#e"/>
<use x="394.824219" xlink:href="#j"/>
</g>
</g>
<path d="m50.17 421.41v33.808q0 2.4 2.4 2.4h7.7425q2.4 0 2.4-2.4v-33.808q0-2.4-2.4-2.4h-7.7425q-2.4 0-2.4 2.4z" clip-path="url(#a)" fill="#fff" stroke="#fff"/>
<g clip-path="url(#a)">
<g transform="translate(54.233 421.41) rotate(90) scale(.08 -.08)">
<use xlink:href="#f"/>
<use x="44.083984" xlink:href="#l"/>
<use x="105.607422" xlink:href="#g"/>
<use x="144.970703" xlink:href="#i"/>
<use x="242.382812" xlink:href="#k"/>
<use x="270.166016" xlink:href="#h"/>
<use x="333.544922" xlink:href="#e"/>
<use x="394.824219" xlink:href="#j"/>
</g>
</g>
<path d="m303.84 421.41v33.808q0 2.4 2.4 2.4h7.7425q2.4 0 2.4-2.4v-33.808q0-2.4-2.4-2.4h-7.7425q-2.4 0-2.4 2.4z" clip-path="url(#a)" fill="#fff" stroke="#fff"/>
<g clip-path="url(#a)">
<g transform="translate(307.9 421.41) rotate(90) scale(.08 -.08)">
<use xlink:href="#f"/>
<use x="44.083984" xlink:href="#l"/>
<use x="105.607422" xlink:href="#g"/>
<use x="144.970703" xlink:href="#i"/>
<use x="242.382812" xlink:href="#k"/>
<use x="270.166016" xlink:href="#h"/>
<use x="333.544922" xlink:href="#e"/>
<use x="394.824219" xlink:href="#j"/>
</g>
</g>
<path d="m354.57 421.41v33.808q0 2.4 2.4 2.4h7.7425q2.4 0 2.4-2.4v-33.808q0-2.4-2.4-2.4h-7.7425q-2.4 0-2.4 2.4z" clip-path="url(#a)" fill="#fff" stroke="#fff"/>
<g clip-path="url(#a)">
<g transform="translate(358.63 421.41) rotate(90) scale(.08 -.08)">
<use xlink:href="#f"/>
<use x="44.083984" xlink:href="#l"/>
<use x="105.607422" xlink:href="#g"/>
<use x="144.970703" xlink:href="#i"/>
<use x="242.382812" xlink:href="#k"/>
<use x="270.166016" xlink:href="#h"/>
<use x="333.544922" xlink:href="#e"/>
<use x="394.824219" xlink:href="#j"/>
</g>
</g>
<path d="m37.486 421.41v33.808q0 2.4 2.4 2.4h7.7425q2.4 0 2.4-2.4v-33.808q0-2.4-2.4-2.4h-7.7425q-2.4 0-2.4 2.4z" clip-path="url(#a)" fill="#fff" stroke="#fff"/>
<g clip-path="url(#a)">
<g transform="translate(41.55 421.41) rotate(90) scale(.08 -.08)">
<use xlink:href="#f"/>
<use x="44.083984" xlink:href="#l"/>
<use x="105.607422" xlink:href="#g"/>
<use x="144.970703" xlink:href="#i"/>
<use x="242.382812" xlink:href="#k"/>
<use x="270.166016" xlink:href="#h"/>
<use x="333.544922" xlink:href="#e"/>
<use x="394.824219" xlink:href="#j"/>
</g>
</g>
<path d="m67.081 421.41v33.808q0 2.4 2.4 2.4h7.7425q2.4 0 2.4-2.4v-33.808q0-2.4-2.4-2.4h-7.7425q-2.4 0-2.4 2.4z" clip-path="url(#a)" fill="#fff" stroke="#fff"/>
<g clip-path="url(#a)">
<g transform="translate(71.145 421.41) rotate(90) scale(.08 -.08)">
<use xlink:href="#f"/>
<use x="44.083984" xlink:href="#l"/>
<use x="105.607422" xlink:href="#g"/>
<use x="144.970703" xlink:href="#i"/>
<use x="242.382812" xlink:href="#k"/>
<use x="270.166016" xlink:href="#h"/>
<use x="333.544922" xlink:href="#e"/>
<use x="394.824219" xlink:href="#j"/>
</g>
</g>
<path d="m177 421.41v33.808q0 2.4 2.4 2.4h7.7425q2.4 0 2.4-2.4v-33.808q0-2.4-2.4-2.4h-7.7425q-2.4 0-2.4 2.4z" clip-path="url(#a)" fill="#fff" stroke="#fff"/>
<g clip-path="url(#a)">
<g transform="translate(181.07 421.41) rotate(90) scale(.08 -.08)">
<use xlink:href="#f"/>
<use x="44.083984" xlink:href="#l"/>
<use x="105.607422" xlink:href="#g"/>
<use x="144.970703" xlink:href="#i"/>
<use x="242.382812" xlink:href="#k"/>
<use x="270.166016" xlink:href="#h"/>
<use x="333.544922" xlink:href="#e"/>
<use x="394.824219" xlink:href="#j"/>
</g>
</g>
<path d="m215.05 421.41v33.808q0 2.4 2.4 2.4h7.7425q2.4 0 2.4-2.4v-33.808q0-2.4-2.4-2.4h-7.7425q-2.4 0-2.4 2.4z" clip-path="url(#a)" fill="#fff" stroke="#fff"/>
<g clip-path="url(#a)">
<g transform="translate(219.12 421.41) rotate(90) scale(.08 -.08)">
<use xlink:href="#f"/>
<use x="44.083984" xlink:href="#l"/>
<use x="105.607422" xlink:href="#g"/>
<use x="144.970703" xlink:href="#i"/>
<use x="242.382812" xlink:href="#k"/>
<use x="270.166016" xlink:href="#h"/>
<use x="333.544922" xlink:href="#e"/>
<use x="394.824219" xlink:href="#j"/>
</g>
</g>
<path d="m409.53 421.41v33.808q0 2.4 2.4 2.4h7.7425q2.4 0 2.4-2.4v-33.808q0-2.4-2.4-2.4h-7.7425q-2.4 0-2.4 2.4z" clip-path="url(#a)" fill="#fff" stroke="#fff"/>
<g clip-path="url(#a)">
<g transform="translate(413.6 421.41) rotate(90) scale(.08 -.08)">
<use xlink:href="#f"/>
<use x="44.083984" xlink:href="#l"/>
<use x="105.607422" xlink:href="#g"/>
<use x="144.970703" xlink:href="#i"/>
<use x="242.382812" xlink:href="#k"/>
<use x="270.166016" xlink:href="#h"/>
<use x="333.544922" xlink:href="#e"/>
<use x="394.824219" xlink:href="#j"/>
</g>
</g>
<path d="m912.64 421.41v33.808q0 2.4 2.4 2.4h7.7425q2.4 0 2.4-2.4v-33.808q0-2.4-2.4-2.4h-7.7425q-2.4 0-2.4 2.4z" clip-path="url(#a)" fill="#fff" stroke="#fff"/>
<g clip-path="url(#a)">
<g transform="translate(916.7 421.41) rotate(90) scale(.08 -.08)">
<use xlink:href="#f"/>
<use x="44.083984" xlink:href="#l"/>
<use x="105.607422" xlink:href="#g"/>
<use x="144.970703" xlink:href="#i"/>
<use x="242.382812" xlink:href="#k"/>
<use x="270.166016" xlink:href="#h"/>
<use x="333.544922" xlink:href="#e"/>
<use x="394.824219" xlink:href="#j"/>
</g>
</g>
<defs>
<path id="b" d="m0 8.6603c2.2967 0 4.4997-0.9125 6.1237-2.5365 1.624-1.624 2.5365-3.827 2.5365-6.1237s-0.9125-4.4997-2.5365-6.1237c-1.624-1.624-3.827-2.5365-6.1237-2.5365s-4.4997 0.9125-6.1237 2.5365c-1.624 1.624-2.5365 3.827-2.5365 6.1237s0.9125 4.4997 2.5365 6.1237c1.624 1.624 3.827 2.5365 6.1237 2.5365z"/>
</defs>
<g clip-path="url(#a)" fill="#ffffff" stroke="#ffffff">
<use x="43.757576" y="483.636364" xlink:href="#b"/>
<use x="56.440931" y="483.636364" xlink:href="#b"/>
<use x="73.352071" y="483.636364" xlink:href="#b"/>
<use x="94.490997" y="483.636364" xlink:href="#b"/>
<use x="119.857708" y="483.636364" xlink:href="#b"/>
<use x="149.452203" y="483.636364" xlink:href="#b"/>
<use x="183.274484" y="483.636364" xlink:href="#b"/>
<use x="221.32455" y="483.636364" xlink:href="#b"/>
<use x="263.602401" y="483.636364" xlink:href="#b"/>
<use x="310.108037" y="483.636364" xlink:href="#b"/>
<use x="360.841458" y="483.636364" xlink:href="#b"/>
<use x="415.802664" y="483.636364" xlink:href="#b"/>
<use x="474.991656" y="483.636364" xlink:href="#b"/>
<use x="538.408432" y="483.636364" xlink:href="#b"/>
<use x="606.052994" y="483.636364" xlink:href="#b"/>
<use x="677.92534" y="483.636364" xlink:href="#b"/>
<use x="754.025472" y="483.636364" xlink:href="#b"/>
<use x="834.353389" y="483.636364" xlink:href="#b"/>
<use x="918.909091" y="483.636364" xlink:href="#b"/>
<use x="175.607429" y="23.030303" xlink:href="#b"/>
<use x="175.607429" y="115.972849" xlink:href="#b"/>
<use x="458.315392" y="208.680864" xlink:href="#b"/>
<use x="94.490997" y="392.985918" xlink:href="#b"/>
<use x="142.053579" y="208.680864" xlink:href="#b"/>
<use x="134.654955" y="301.074425" xlink:href="#b"/>
<use x="149.452203" y="301.074425" xlink:href="#b"/>
<use x="149.452203" y="392.985918" xlink:href="#b"/>
<use x="119.857708" y="392.985918" xlink:href="#b"/>
<use x="398.891524" y="301.074425" xlink:href="#b"/>
<use x="263.602401" y="392.985918" xlink:href="#b"/>
<use x="474.991656" y="301.074425" xlink:href="#b"/>
<use x="474.991656" y="392.985918" xlink:href="#b"/>
<use x="721.612453" y="301.074425" xlink:href="#b"/>
<use x="538.408432" y="392.985918" xlink:href="#b"/>
<use x="606.052994" y="392.985918" xlink:href="#b"/>
<use x="677.92534" y="392.985918" xlink:href="#b"/>
<use x="754.025472" y="392.985918" xlink:href="#b"/>
<use x="834.353389" y="392.985918" xlink:href="#b"/>
<use x="56.440931" y="392.985918" xlink:href="#b"/>
<use x="310.108037" y="392.985918" xlink:href="#b"/>
<use x="360.841458" y="392.985918" xlink:href="#b"/>
<use x="43.757576" y="392.985918" xlink:href="#b"/>
<use x="73.352071" y="392.985918" xlink:href="#b"/>
<use x="183.274484" y="392.985918" xlink:href="#b"/>
<use x="221.32455" y="392.985918" xlink:href="#b"/>
<use x="415.802664" y="392.985918" xlink:href="#b"/>
<use x="918.909091" y="392.985918" xlink:href="#b"/>
</g>
<g clip-path="url(#a)">
<g transform="translate(22.065 486.4) scale(.1 -.1)">
<defs>
<path id="bk" d="m28.562 74.219q12.016 0 19.625-5.1094 7.625-5.0938 7.625-13.781 0-6.0625-3.4688-10.234t-9.8594-5.7812q7.0781-1.5156 11.047-6.3125 3.9844-4.7812 3.9844-11.812 0-11.219-8.6719-16.922-8.6562-5.6875-20.281-5.6875-5.9531 0-12.891 1.6094-6.9375 1.625-9.0781 2.9844v10.156q7.4688-4.3438 11.594-5.3906t10.188-1.0469q9.1719 0 14.25 3.5156t5.0781 10.781q0 6.4531-4.5156 10.078-4.5156 3.6406-14.031 3.6406h-9.9688v8.1094h10.359q8.7344 0 12.594 2.9062t3.8594 8.375q0 5.6094-3.9844 8.6094-3.9844 3.0156-13.641 3.0156-6.5469 0-8.7969-0.59375-2.25-0.57812-12.25-4.3438v9.625q5.5156 1.9531 11.266 2.7812 5.7656 0.82812 9.9688 0.82812z"/>
<path id="s" d="m34.281 27.484q-10.891 0-15.094-2.4844t-4.2031-8.5q0-4.7812 3.1562-7.5938 3.1562-2.7969 8.5625-2.7969 7.4844 0 12 5.2969t4.5156 14.078v2zm17.922 3.7188v-31.203h-8.9844v8.2969q-3.0781-4.9688-7.6719-7.3438t-11.234-2.375q-8.3906 0-13.359 4.7188-4.9531 4.7188-4.9531 12.625 0 9.2188 6.1719 13.906 6.1875 4.6875 18.438 4.6875h12.609v0.89062q0 6.2031-4.0781 9.5938t-11.453 3.3906q-4.6875 0-9.1406-1.125-4.4375-1.125-8.5312-3.375v8.3125q4.9219 1.9062 9.5625 2.8438 4.6406 0.95312 9.0312 0.95312 11.875 0 17.734-6.1562 5.8594-6.1406 5.8594-18.641z"/>
<path id="bg" d="m31.109 56q11.719 0 18.406-7.625 6.6875-7.6094 6.6875-21.078 0-13.422-6.6875-21.078-6.6875-7.6406-18.406-7.6406-11.766 0-18.266 7.4219t-6.8438 21.297l-0.28125 11.188q-0.25 5.7969-0.25 7.8125 0 7.8125 2.8281 13.562 4.4531 9.0312 12.141 12.938t20.578 4.0156q5.9531 0.046875 8.5938 0.875l2.4844-7.125q-2.3906-0.98438-4.5781-1.0312l-12.219-0.82812q-6.1406-0.4375-9.8594-2.5938-9.7188-5.7031-10.641-13.172l-0.34375-2.7344q6.3438 5.7969 16.656 5.7969zm0-7.6094q-7.2344 0-11.438-5.6406-4.1875-5.6406-4.1875-15.453t4.1719-15.453 11.453-5.6406q7.1719 0 11.375 5.6562 4.2031 5.6719 4.2031 15.438 0 9.7188-4.2031 15.406t-11.375 5.6875z"/>
<path id="bf" d="m18.062 25.203v-18.031h12.797q6.1562 0 9.375 2.3125 3.2188 2.3281 3.2188 6.7344 0 4.3906-3.2188 6.6875t-9.375 2.2969zm0 22.312v-15.141h11.828q5.0781 0 8.2969 2.0156 3.2188 2.0312 3.2188 5.6562 0 3.6094-3.2188 5.5312-3.2188 1.9375-8.2969 1.9375zm-8.9844 7.1719h21.391q9.625 0 14.797-3.5156t5.1719-10.016q0-5.0156-2.6406-7.9844-2.625-2.9531-7.8125-3.6719 6.2031-1.1719 9.625-4.8906 3.4219-3.7031 3.4219-9.2812 0-7.3125-5.6406-11.328-5.6406-4-16.094-4h-22.219z"/>
<path id="r" d="m9.0781 54.688h9.0312v-22.312h29.156v22.312h9.0312v-54.688h-9.0312v25.203h-29.156v-25.203h-9.0312z"/>
<path id="p" d="m30.609 48.391q-7.2188 0-11.422-5.6406t-4.2031-15.453 4.1719-15.453q4.1875-5.6406 11.453-5.6406 7.1875 0 11.375 5.6562 4.2031 5.6719 4.2031 15.438 0 9.7188-4.2031 15.406-4.1875 5.6875-11.375 5.6875zm0 7.6094q11.719 0 18.406-7.625 6.7031-7.6094 6.7031-21.078 0-13.422-6.7031-21.078-6.6875-7.6406-18.406-7.6406-11.766 0-18.438 7.6406-6.6562 7.6562-6.6562 21.078 0 13.469 6.6562 21.078 6.6719 7.625 18.438 7.625z"/>
</defs>
<use xlink:href="#bk"/>
<use x="64.111328" xlink:href="#s"/>
<use x="125.390625" xlink:href="#bg"/>
<use x="187.060547" xlink:href="#s"/>
<use x="248.339844" xlink:href="#bf"/>
<use x="307.275391" xlink:href="#r"/>
<use x="372.65625" xlink:href="#p"/>
</g>
</g>
<g clip-path="url(#a)">
<g transform="translate(54.436 486.4) scale(.1 -.1)">
<defs>
<path id="ax" d="m15.094 12.406h9.9062v-12.406h-9.9062zm0 60.5h9.9062v-31.984l-0.96875-17.438h-7.9219l-1.0156 17.438z"/>
</defs>
<use xlink:href="#ax"/>
</g>
</g>
<g clip-path="url(#a)">
<g transform="translate(71.548 486.4) scale(.1 -.1)">
<defs>
<path id="ah" d="m4.8906 31.391h26.312v-8h-26.312z"/>
</defs>
<use xlink:href="#ah"/>
</g>
</g>
<g clip-path="url(#a)">
<g transform="translate(71.714 486.4) scale(.1 -.1)">
<defs>
<path id="aa" d="m56.297 54.688v-54.688h-9.0312v47.516h-29.156v-47.516h-9.0312v54.688z"/>
<path id="ap" d="m21.625 7.1719h26.078v40.344h-18.891v-6.8438q0-20.109-5.7656-30.859zm-13.031 0q4.4375 1.9531 6.3906 6.1094 4.7969 10.297 4.7969 31.062v10.344h36.953v-47.516h7.1875v-20.984h-7.1875v13.812h-44.328v-13.812h-7.1875v20.984z"/>
<path id="ak" d="m32.172-5.0781q-3.7969-9.7656-7.4219-12.734-3.6094-2.9844-9.6562-2.9844h-7.1875v7.5156h5.2812q3.7031 0 5.75 1.7656 2.0625 1.75 4.5469 8.2969l1.6094 4.0938-22.109 53.812h9.5156l17.094-42.766 17.094 42.766h9.5156z"/>
<path id="bc" d="m9.0781 54.688h13.141l15.531-36.625 15.578 36.625h13.031v-54.688h-9.0312v46.094l-15.094-35.594h-8.9844l-15.141 35.594v-46.094h-9.0312z"/>
<path id="am" d="m3.7188 0v7.4688q8.875 1.375 11.609 7.5156 3.3281 8.6562 3.3281 30.766v8.9375h36.953v-54.688h-8.9844v47.516h-18.984v-5.4219q0-21.094-4.2969-30.562-4.5938-10.109-19.625-11.531z"/>
</defs>
<use xlink:href="#aa"/>
<use x="65.380859" xlink:href="#p"/>
<use x="126.5625" xlink:href="#ap"/>
<use x="195.703125" xlink:href="#ak"/>
<use x="254.882812" xlink:href="#bc"/>
<use x="330.322266" xlink:href="#s"/>
<use x="391.601562" xlink:href="#am"/>
</g>
</g>
<g clip-path="url(#a)">
<g transform="translate(90.473 486.4) scale(.1 -.1)">
<defs>
<path id="bi" d="m9.8125 72.906h14.703l18.594-49.609 18.703 49.609h14.703v-72.906h-9.625v64.016l-18.797-50h-9.9062l-18.797 50v-64.016h-9.5781z"/>
<path id="u" d="m56.203 29.594v-4.3906h-41.312q0.59375-9.2812 5.5938-14.141t13.938-4.8594q5.1719 0 10.031 1.2656t9.6562 3.8125v-8.5q-4.8438-2.0469-9.9219-3.125t-10.297-1.0781q-13.094 0-20.734 7.6094-7.6406 7.625-7.6406 20.625 0 13.422 7.25 21.297 7.25 7.8906 19.562 7.8906 11.031 0 17.453-7.1094 6.4219-7.0938 6.4219-19.297zm-8.9844 2.6406q-0.09375 7.3594-4.125 11.75-4.0312 4.4062-10.672 4.4062-7.5156 0-12.031-4.25t-5.2031-11.969z"/>
<path id="aj" d="m43.453 16.219q0 4.3906-3.2031 6.6875-3.1875 2.2969-9.3438 2.2969h-12.797v-18.031h12.797q6.1562 0 9.3438 2.3125 3.2031 2.3281 3.2031 6.7344zm-34.375 38.469h9.0312v-22.312h13.188q10.453 0 16.094-3.9844 5.6406-3.9688 5.6406-12.172t-5.6406-12.219q-5.6406-4-16.094-4h-22.219z"/>
<path id="an" d="m9.0781 54.688h8.9375v-25.688l25.344 25.688h11.031l-20.891-21.141 23.578-33.547h-10.062l-19.375 27.594-9.625-9.7656v-17.828h-8.9375z"/>
<path id="ab" d="m55.906 54.688v-54.688h-8.9375v43.891l-26.359-43.891h-11.531v54.688h8.9375v-43.797l26.328 43.797z"/>
<path id="bd" d="m55.906 54.688v-54.688h-8.9375v43.891l-26.359-43.891h-11.531v54.688h8.9375v-43.797l26.328 43.797zm-38.688 20.828h5.7656q0.53125-3.6562 2.8906-5.5 2.375-1.8281 6.625-1.8281 4.2031 0 6.5469 1.8125t2.9688 5.5156h5.7656q-0.48438-6.9844-4.3438-10.5t-10.938-3.5156-10.938 3.5156-4.3438 10.5z"/>
</defs>
<use xlink:href="#bi"/>
<use x="86.279297" xlink:href="#s"/>
<use x="147.558594" xlink:href="#am"/>
<use x="211.474609" xlink:href="#u"/>
<use x="272.998047" xlink:href="#r"/>
<use x="338.378906" xlink:href="#aj"/>
<use x="397.314453" xlink:href="#an"/>
<use x="457.714844" xlink:href="#ab"/>
<use x="522.705078" xlink:href="#bd"/>
</g>
</g>
<g clip-path="url(#a)">
<g transform="translate(133.09 486.4) scale(.1 -.1)">
<defs>
<path id="al" d="m18.109 8.2031v-29h-9.0312v75.484h9.0312v-8.2969q2.8438 4.875 7.1562 7.2344 4.3281 2.375 10.328 2.375 9.9688 0 16.188-7.9062 6.2344-7.9062 6.2344-20.797t-6.2344-20.812q-6.2188-7.9062-16.188-7.9062-6 0-10.328 2.375-4.3125 2.375-7.1562 7.25zm30.578 19.094q0 9.9062-4.0781 15.547t-11.203 5.6406q-7.1406 0-11.219-5.6406t-4.0781-15.547 4.0781-15.547 11.219-5.6406q7.125 0 11.203 5.6406t4.0781 15.547z"/>
<path id="ba" d="m56.297 0h-47.219v54.688h9.0312v-47.516h29.156v47.516h9.0312v-47.516h7.1875v-20.984h-7.1875z"/>
</defs>
<use xlink:href="#aa"/>
<use x="65.380859" xlink:href="#al"/>
<use x="128.857422" xlink:href="#ab"/>
<use x="193.847656" xlink:href="#r"/>
<use x="259.228516" xlink:href="#ba"/>
</g>
</g>
<g clip-path="url(#a)">
<g transform="translate(181.69 486.4) scale(.1 -.1)">
<defs>
<path id="d" d="m10.688 12.406h10.312v-12.406h-10.312z"/>
</defs>
<use xlink:href="#d"/>
</g>
</g>
<g clip-path="url(#a)">
<g transform="translate(219.52 486.4) scale(.1 -.1)">
<use xlink:href="#ah"/>
</g>
</g>
<g clip-path="url(#a)">
<g transform="translate(259.86 486.4) scale(.1 -.1)">
<defs>
<path id="bj" d="m64.984 72.906v-72.906h-9.5625v60.984l-32.328-60.984h-13.281v72.906h9.5781v-60.984l32.312 60.984z"/>
</defs>
<use xlink:href="#bj"/>
</g>
</g>
<g clip-path="url(#a)">
<g transform="translate(296.01 486.4) scale(.1 -.1)">
<defs>
<path id="ao" d="m40.578 54.688h8.9375v-25.688l23.875 25.688h10.453l-19.641-21.047 22.469-33.641h-9.625l-18.406 27.641-9.125-9.8125v-17.828h-8.9375v17.828l-9.125 9.8125-18.422-27.641h-9.6094l22.453 33.641-19.625 21.047h10.453l23.875-25.688z"/>
</defs>
<use xlink:href="#ap"/>
<use x="69.140625" xlink:href="#s"/>
<use x="130.419922" xlink:href="#ao"/>
<use x="220.507812" xlink:href="#u"/>
</g>
</g>
<g clip-path="url(#a)">
<g transform="translate(336.33 486.4) scale(.1 -.1)">
<defs>
<path id="ai" d="m5.5156 10.406q7.7188-4.2031 15.391-4.2031 7.1719 0 12.297 4.1719t6.0625 14.828h-27.734v7.1719h27.438q-0.59375 5.125-4.4844 10.562-3.875 5.4531-13.578 5.4531-7.5312 0-15.391-4.2031v8.4062q7.6719 3.4062 15.781 3.4062 12.781 0 20.125-7.7344 7.3594-7.7344 7.3594-20.969 0-13.188-7.1562-20.953t-19.703-7.7656q-9.2188 0-16.406 3.5156z"/>
<path id="z" d="m2.9375 54.688h52.391v-7.1719h-21.781v-47.516h-8.8438v47.516h-21.766z"/>
<path id="az" d="m41.016 0v23h-16.75q-7.4688 0-12.453 4.6406-4.4844 4.2031-4.4844 13.188v13.859h8.9844v-13.031q0-5.7188 2.5312-8.5938 2.5938-2.8906 7.6719-2.8906h14.5v24.516h8.9844v-54.688z"/>
</defs>
<use xlink:href="#aa"/>
<use x="65.380859" xlink:href="#p"/>
<use x="126.5625" xlink:href="#ai"/>
<use x="181.445312" xlink:href="#z"/>
<use x="239.697266" xlink:href="#ab"/>
<use x="304.6875" xlink:href="#az"/>
<use x="363.769531" xlink:href="#r"/>
<use x="429.150391" xlink:href="#p"/>
</g>
</g>
<g clip-path="url(#a)">
<g transform="translate(414.21 486.4) scale(.1 -.1)">
<use xlink:href="#d"/>
</g>
</g>
<g clip-path="url(#a)">
<g transform="translate(468.17 486.4) scale(.1 -.1)">
<defs>
<path id="bh" d="m9.8125 72.906h9.8594v-29.891h35.844v29.891h9.8594v-72.906h-9.8594v34.719h-35.844v-34.719h-9.8594z"/>
</defs>
<use xlink:href="#bh"/>
<use x="75.195312" xlink:href="#p"/>
</g>
</g>
<g clip-path="url(#a)">
<g transform="translate(532.06 486.4) scale(.1 -.1)">
<use xlink:href="#r"/>
<use x="65.380859" xlink:href="#u"/>
</g>
</g>
<g clip-path="url(#a)">
<g transform="translate(597.06 486.4) scale(.1 -.1)">
<use xlink:href="#z"/>
<use x="58.251953" xlink:href="#s"/>
<use x="119.53125" xlink:href="#an"/>
</g>
</g>
<g clip-path="url(#a)">
<g transform="translate(670.46 486.4) scale(.1 -.1)">
<use xlink:href="#ak"/>
<use x="59.179688" xlink:href="#ao"/>
</g>
</g>
<g clip-path="url(#a)">
<g transform="translate(745.31 486.4) scale(.1 -.1)">
<use xlink:href="#ai"/>
<use x="54.882812" xlink:href="#z"/>
<use x="113.134766" xlink:href="#p"/>
</g>
</g>
<g clip-path="url(#a)">
<g transform="translate(810.34 486.4) scale(.1 -.1)">
<defs>
<path id="bb" d="m48.781 52.594v-8.4062q-3.8125 2.1094-7.6406 3.1562t-7.7344 1.0469q-8.75 0-13.594-5.5469-4.8281-5.5312-4.8281-15.547t4.8281-15.562q4.8438-5.5312 13.594-5.5312 3.9062 0 7.7344 1.0469t7.6406 3.1562v-8.3125q-3.7656-1.75-7.7969-2.625-4.0156-0.89062-8.5625-0.89062-12.359 0-19.641 7.7656-7.2656 7.7656-7.2656 20.953 0 13.375 7.3438 21.031 7.3594 7.6719 20.156 7.6719 4.1406 0 8.0938-0.85938 3.9531-0.84375 7.6719-2.5469z"/>
<path id="be" d="m34.469 29.5q6.0625-1.1719 9.4219-4.75 3.375-3.5625 3.375-8.8281 0-8.4531-6.2969-12.906-6.2969-4.4375-17.922-4.4375-3.9062 0-8.0312 0.6875t-8.5156 2.0469v8.3594q3.4688-1.8125 7.6094-2.7188 4.1562-0.89062 8.6875-0.89062 7.375 0 11.5 2.7344t4.125 7.125q0 4.2969-3.6562 6.9062t-10.344 2.6094h-7.2344v7.4219h7.5625q5.6719 0 8.9688 2.1719t3.2969 5.5938q0 3.125-3.4062 5.375-3.3906 2.25-9.1875 2.25-3.4688 0-7.4062-0.64062-3.9219-0.64062-8.6719-2.0469v8.1562q4.7969 1.1719 8.9375 1.75 4.1562 0.59375 7.8594 0.59375 9.5781 0 15.109-3.8438 5.5469-3.8281 5.5469-10.719 0-4.5312-2.9375-7.6875-2.9219-3.1406-8.3906-4.3125z"/>
</defs>
<use xlink:href="#bb"/>
<use x="54.980469" xlink:href="#u"/>
<use x="116.503906" xlink:href="#al"/>
<use x="179.980469" xlink:href="#aj"/>
<use x="238.916016" xlink:href="#u"/>
<use x="300.439453" xlink:href="#be"/>
<use x="353.613281" xlink:href="#r"/>
<use x="418.994141" xlink:href="#p"/>
</g>
</g>
<g clip-path="url(#a)">
<g transform="translate(915.02 486.4) scale(.1 -.1)">
<defs>
<path id="aw" d="m17.922 72.906v-27.109h-8.2969v27.109zm18.453 0v-27.109h-8.2969v27.109z"/>
</defs>
<use xlink:href="#aw"/>
<use x="45.996094" xlink:href="#d"/>
</g>
</g>
<g clip-path="url(#a)">
<g transform="translate(167.66 25.79) scale(.1 -.1)">
<defs>
<path id="c" d="m12.406 8.2969h16.109v55.625l-17.531-3.5156v8.9844l17.438 3.5156h9.8594v-64.609h16.109v-8.2969h-41.984z"/>
</defs>
<use xlink:href="#c"/>
<use x="63.623047" xlink:href="#d"/>
<use x="95.410156" xlink:href="#c"/>
</g>
</g>
<g clip-path="url(#a)">
<g transform="translate(167.66 118.73) scale(.1 -.1)">
<defs>
<path id="m" d="m19.188 8.2969h34.422v-8.2969h-46.281v8.2969q5.6094 5.8125 15.297 15.594 9.7031 9.7969 12.188 12.641 4.7344 5.3125 6.6094 9 1.8906 3.6875 1.8906 7.25 0 5.8125-4.0781 9.4688-4.0781 3.6719-10.625 3.6719-4.6406 0-9.7969-1.6094-5.1406-1.6094-11-4.8906v9.9688q5.9531 2.3906 11.125 3.6094 5.1875 1.2188 9.4844 1.2188 11.328 0 18.062-5.6719 6.7344-5.6562 6.7344-15.125 0-4.5-1.6875-8.5312-1.6719-4.0156-6.125-9.4844-1.2188-1.4219-7.7656-8.1875-6.5312-6.7656-18.453-18.922z"/>
</defs>
<use xlink:href="#c"/>
<use x="63.623047" xlink:href="#d"/>
<use x="95.410156" xlink:href="#m"/>
</g>
</g>
<g clip-path="url(#a)">
<g transform="translate(450.36 211.44) scale(.1 -.1)">
<defs>
<path id="n" d="m40.578 39.312q7.0781-1.5156 11.047-6.3125 3.9844-4.7812 3.9844-11.812 0-10.781-7.4219-16.703-7.4219-5.9062-21.094-5.9062-4.5781 0-9.4375 0.90625t-10.031 2.7188v9.5156q4.0938-2.3906 8.9688-3.6094 4.8906-1.2188 10.219-1.2188 9.2656 0 14.125 3.6562t4.8594 10.641q0 6.4531-4.5156 10.078-4.5156 3.6406-12.562 3.6406h-8.5v8.1094h8.8906q7.2656 0 11.125 2.9062t3.8594 8.375q0 5.6094-3.9844 8.6094-3.9688 3.0156-11.391 3.0156-4.0625 0-8.7031-0.89062-4.6406-0.875-10.203-2.7188v8.7812q5.625 1.5625 10.531 2.3438t9.25 0.78125q11.234 0 17.766-5.1094 6.5469-5.0938 6.5469-13.781 0-6.0625-3.4688-10.234t-9.8594-5.7812z"/>
</defs>
<use xlink:href="#c"/>
<use x="63.623047" xlink:href="#d"/>
<use x="95.410156" xlink:href="#n"/>
</g>
</g>
<g clip-path="url(#a)">
<g transform="translate(86.539 395.75) scale(.1 -.1)">
<defs>
<path id="x" d="m37.797 64.312-24.906-38.922h24.906zm-2.5938 8.5938h12.406v-47.516h10.406v-8.2031h-10.406v-17.188h-9.8125v17.188h-32.906v9.5156z"/>
</defs>
<use xlink:href="#c"/>
<use x="63.623047" xlink:href="#d"/>
<use x="95.410156" xlink:href="#x"/>
</g>
</g>
<g clip-path="url(#a)">
<g transform="translate(134.1 211.44) scale(.1 -.1)">
<defs>
<path id="w" d="m10.797 72.906h38.719v-8.3125h-29.688v-17.859q2.1406 0.73438 4.2812 1.0938 2.1562 0.35938 4.3125 0.35938 12.203 0 19.328-6.6875 7.1406-6.6875 7.1406-18.109 0-11.766-7.3281-18.297-7.3281-6.5156-20.656-6.5156-4.5938 0-9.3594 0.78125-4.75 0.78125-9.8281 2.3438v9.9219q4.3906-2.3906 9.0781-3.5625t9.9062-1.1719q8.4531 0 13.375 4.4375 4.9375 4.4375 4.9375 12.062 0 7.6094-4.9375 12.047-4.9219 4.4531-13.375 4.4531-3.9531 0-7.8906-0.875-3.9219-0.875-8.0156-2.7344z"/>
</defs>
<use xlink:href="#c"/>
<use x="63.623047" xlink:href="#d"/>
<use x="95.410156" xlink:href="#w"/>
</g>
</g>
<g clip-path="url(#a)">
<g transform="translate(123.52 303.83) scale(.1 -.1)">
<defs>
<path id="y" d="m31.781 66.406q-7.6094 0-11.453-7.5-3.8281-7.4844-3.8281-22.531 0-14.984 3.8281-22.484 3.8438-7.5 11.453-7.5 7.6719 0 11.5 7.5 3.8438 7.5 3.8438 22.484 0 15.047-3.8438 22.531-3.8281 7.5-11.5 7.5zm0 7.8125q12.266 0 18.734-9.7031 6.4688-9.6875 6.4688-28.141 0-18.406-6.4688-28.109-6.4688-9.6875-18.734-9.6875-12.25 0-18.719 9.6875-6.4688 9.7031-6.4688 28.109 0 18.453 6.4688 28.141 6.4688 9.7031 18.719 9.7031z"/>
</defs>
<use xlink:href="#c"/>
<use x="63.623047" xlink:href="#d"/>
<use x="95.410156" xlink:href="#c"/>
<use x="159.033203" xlink:href="#y"/>
</g>
</g>
<g clip-path="url(#a)">
<g transform="translate(138.32 303.83) scale(.1 -.1)">
<use xlink:href="#c"/>
<use x="63.623047" xlink:href="#d"/>
<use x="95.410156" xlink:href="#c"/>
<use x="159.033203" xlink:href="#c"/>
</g>
</g>
<g clip-path="url(#a)">
<g transform="translate(138.32 395.75) scale(.1 -.1)">
<use xlink:href="#c"/>
<use x="63.623047" xlink:href="#d"/>
<use x="95.410156" xlink:href="#c"/>
<use x="159.033203" xlink:href="#m"/>
</g>
</g>
<g clip-path="url(#a)">
<g transform="translate(108.72 395.75) scale(.1 -.1)">
<use xlink:href="#c"/>
<use x="63.623047" xlink:href="#d"/>
<use x="95.410156" xlink:href="#c"/>
<use x="159.033203" xlink:href="#n"/>
</g>
</g>
<g clip-path="url(#a)">
<g transform="translate(387.76 303.83) scale(.1 -.1)">
<use xlink:href="#c"/>
<use x="63.623047" xlink:href="#d"/>
<use x="95.410156" xlink:href="#c"/>
<use x="159.033203" xlink:href="#x"/>
</g>
</g>
<g clip-path="url(#a)">
<g transform="translate(252.47 395.75) scale(.1 -.1)">
<use xlink:href="#c"/>
<use x="63.623047" xlink:href="#d"/>
<use x="95.410156" xlink:href="#c"/>
<use x="159.033203" xlink:href="#w"/>
</g>
</g>
<g clip-path="url(#a)">
<g transform="translate(463.86 303.83) scale(.1 -.1)">
<defs>
<path id="ag" d="m33.016 40.375q-6.6406 0-10.531-4.5469-3.875-4.5312-3.875-12.438 0-7.8594 3.875-12.438 3.8906-4.5625 10.531-4.5625t10.516 4.5625q3.875 4.5781 3.875 12.438 0 7.9062-3.875 12.438-3.875 4.5469-10.516 4.5469zm19.578 30.922v-8.9844q-3.7188 1.75-7.5 2.6719-3.7812 0.9375-7.5 0.9375-9.7656 0-14.922-6.5938-5.1406-6.5938-5.875-19.922 2.875 4.25 7.2188 6.5156 4.3594 2.2656 9.5781 2.2656 10.984 0 17.359-6.6719 6.375-6.6562 6.375-18.125 0-11.234-6.6406-18.031-6.6406-6.7812-17.672-6.7812-12.656 0-19.344 9.6875-6.6875 9.7031-6.6875 28.109 0 17.281 8.2031 27.562t22.016 10.281q3.7188 0 7.5-0.73438t7.8906-2.1875z"/>
</defs>
<use xlink:href="#c"/>
<use x="63.623047" xlink:href="#d"/>
<use x="95.410156" xlink:href="#c"/>
<use x="159.033203" xlink:href="#ag"/>
</g>
</g>
<g clip-path="url(#a)">
<g transform="translate(463.86 395.75) scale(.1 -.1)">
<defs>
<path id="af" d="m8.2031 72.906h46.875v-4.2031l-26.469-68.703h-10.297l24.906 64.594h-35.016z"/>
</defs>
<use xlink:href="#c"/>
<use x="63.623047" xlink:href="#d"/>
<use x="95.410156" xlink:href="#c"/>
<use x="159.033203" xlink:href="#af"/>
</g>
</g>
<g clip-path="url(#a)">
<g transform="translate(710.48 303.83) scale(.1 -.1)">
<defs>
<path id="ae" d="m31.781 34.625q-7.0312 0-11.062-3.7656-4.0156-3.7656-4.0156-10.344 0-6.5938 4.0156-10.359 4.0312-3.7656 11.062-3.7656t11.078 3.7812q4.0625 3.7969 4.0625 10.344 0 6.5781-4.0312 10.344-4.0156 3.7656-11.109 3.7656zm-9.8594 4.1875q-6.3438 1.5625-9.8906 5.9062-3.5312 4.3594-3.5312 10.609 0 8.7344 6.2188 13.812 6.2344 5.0781 17.062 5.0781 10.891 0 17.094-5.0781t6.2031-13.812q0-6.25-3.5469-10.609-3.5312-4.3438-9.8281-5.9062 7.125-1.6562 11.094-6.5 3.9844-4.8281 3.9844-11.797 0-10.609-6.4688-16.281-6.4688-5.6562-18.531-5.6562-12.047 0-18.531 5.6562-6.4688 5.6719-6.4688 16.281 0 6.9688 4 11.797 4.0156 4.8438 11.141 6.5zm-3.6094 15.578q0-5.6562 3.5312-8.8281 3.5469-3.1719 9.9375-3.1719 6.3594 0 9.9375 3.1719 3.5938 3.1719 3.5938 8.8281 0 5.6719-3.5938 8.8438-3.5781 3.1719-9.9375 3.1719-6.3906 0-9.9375-3.1719-3.5312-3.1719-3.5312-8.8438z"/>
</defs>
<use xlink:href="#c"/>
<use x="63.623047" xlink:href="#d"/>
<use x="95.410156" xlink:href="#c"/>
<use x="159.033203" xlink:href="#ae"/>
</g>
</g>
<g clip-path="url(#a)">
<g transform="translate(527.28 395.75) scale(.1 -.1)">
<use xlink:href="#c"/>
<use x="63.623047" xlink:href="#d"/>
<use x="95.410156" xlink:href="#m"/>
<use x="159.033203" xlink:href="#y"/>
</g>
</g>
<g clip-path="url(#a)">
<g transform="translate(594.92 395.75) scale(.1 -.1)">
<use xlink:href="#c"/>
<use x="63.623047" xlink:href="#d"/>
<use x="95.410156" xlink:href="#m"/>
<use x="159.033203" xlink:href="#c"/>
</g>
</g>
<g clip-path="url(#a)">
<g transform="translate(666.79 395.75) scale(.1 -.1)">
<use xlink:href="#c"/>
<use x="63.623047" xlink:href="#d"/>
<use x="95.410156" xlink:href="#m"/>
<use x="159.033203" xlink:href="#m"/>
</g>
</g>
<g clip-path="url(#a)">
<g transform="translate(742.89 395.75) scale(.1 -.1)">
<use xlink:href="#c"/>
<use x="63.623047" xlink:href="#d"/>
<use x="95.410156" xlink:href="#m"/>
<use x="159.033203" xlink:href="#n"/>
</g>
</g>
<g clip-path="url(#a)">
<g transform="translate(823.22 395.75) scale(.1 -.1)">
<use xlink:href="#c"/>
<use x="63.623047" xlink:href="#d"/>
<use x="95.410156" xlink:href="#m"/>
<use x="159.033203" xlink:href="#x"/>
</g>
</g>
<g clip-path="url(#a)">
<g transform="translate(45.308 395.75) scale(.1 -.1)">
<use xlink:href="#c"/>
<use x="63.623047" xlink:href="#d"/>
<use x="95.410156" xlink:href="#m"/>
<use x="159.033203" xlink:href="#w"/>
</g>
</g>
<g clip-path="url(#a)">
<g transform="translate(298.98 395.75) scale(.1 -.1)">
<use xlink:href="#c"/>
<use x="63.623047" xlink:href="#d"/>
<use x="95.410156" xlink:href="#m"/>
<use x="159.033203" xlink:href="#ag"/>
</g>
</g>
<g clip-path="url(#a)">
<g transform="translate(349.71 395.75) scale(.1 -.1)">
<use xlink:href="#c"/>
<use x="63.623047" xlink:href="#d"/>
<use x="95.410156" xlink:href="#m"/>
<use x="159.033203" xlink:href="#af"/>
</g>
</g>
<g clip-path="url(#a)">
<g transform="translate(32.625 395.75) scale(.1 -.1)">
<use xlink:href="#c"/>
<use x="63.623047" xlink:href="#d"/>
<use x="95.410156" xlink:href="#m"/>
<use x="159.033203" xlink:href="#ae"/>
</g>
</g>
<g clip-path="url(#a)">
<g transform="translate(62.219 395.75) scale(.1 -.1)">
<defs>
<path id="av" d="m10.984 1.5156v8.9844q3.7188-1.7656 7.5156-2.6875 3.8125-0.92188 7.4844-0.92188 9.7656 0 14.906 6.5625 5.1562 6.5625 5.8906 19.953-2.8281-4.2031-7.1875-6.4531-4.3438-2.25-9.6094-2.25-10.938 0-17.312 6.6094-6.375 6.625-6.375 18.109 0 11.219 6.6406 18 6.6406 6.7969 17.672 6.7969 12.656 0 19.312-9.7031 6.6719-9.6875 6.6719-28.141 0-17.234-8.1875-27.516-8.1719-10.281-21.984-10.281-3.7188 0-7.5312 0.73438-3.7969 0.73438-7.9062 2.2031zm19.625 30.906q6.6406 0 10.516 4.5312 3.8906 4.5469 3.8906 12.469 0 7.8594-3.8906 12.422-3.875 4.5625-10.516 4.5625t-10.516-4.5625-3.875-12.422q0-7.9219 3.875-12.469 3.875-4.5312 10.516-4.5312z"/>
</defs>
<use xlink:href="#c"/>
<use x="63.623047" xlink:href="#d"/>
<use x="95.410156" xlink:href="#m"/>
<use x="159.033203" xlink:href="#av"/>
</g>
</g>
<g clip-path="url(#a)">
<g transform="translate(172.14 395.75) scale(.1 -.1)">
<use xlink:href="#c"/>
<use x="63.623047" xlink:href="#d"/>
<use x="95.410156" xlink:href="#n"/>
<use x="159.033203" xlink:href="#y"/>
</g>
</g>
<g clip-path="url(#a)">
<g transform="translate(210.19 395.75) scale(.1 -.1)">
<use xlink:href="#c"/>
<use x="63.623047" xlink:href="#d"/>
<use x="95.410156" xlink:href="#n"/>
<use x="159.033203" xlink:href="#c"/>
</g>
</g>
<g clip-path="url(#a)">
<g transform="translate(404.67 395.75) scale(.1 -.1)">
<use xlink:href="#c"/>
<use x="63.623047" xlink:href="#d"/>
<use x="95.410156" xlink:href="#n"/>
<use x="159.033203" xlink:href="#m"/>
</g>
</g>
<g clip-path="url(#a)">
<g transform="translate(907.78 395.75) scale(.1 -.1)">
<use xlink:href="#c"/>
<use x="63.623047" xlink:href="#d"/>
<use x="95.410156" xlink:href="#n"/>
<use x="159.033203" xlink:href="#n"/>
</g>
</g>
<defs>
<clipPath id="a">
<rect width="962.67" height="506.67"/>
</clipPath>
</defs>
</svg>
