<?xml version="1.0" encoding="UTF-8"?>
<!DOCTYPE svg  PUBLIC '-//W3C//DTD SVG 1.1//EN'  'http://www.w3.org/Graphics/SVG/1.1/DTD/svg11.dtd'>
<svg width="354.67pt" height="186.67pt" version="1.1" viewBox="0 0 354.67 186.67" xmlns="http://www.w3.org/2000/svg" xmlns:xlink="http://www.w3.org/1999/xlink">
<metadata>
<rdf:RDF xmlns:cc="http://creativecommons.org/ns#" xmlns:dc="http://purl.org/dc/elements/1.1/" xmlns:rdf="http://www.w3.org/1999/02/22-rdf-syntax-ns#">
<cc:Work>
<dc:type rdf:resource="http://purl.org/dc/dcmitype/StillImage"/>
<dc:date>2021-02-01T11:24:19.193162</dc:date>
<dc:format>image/svg+xml</dc:format>
<dc:creator>
<cc:Agent>
<dc:title>Matplotlib v3.3.3, https://matplotlib.org/</dc:title>
</cc:Agent>
</dc:creator>
</cc:Work>
</rdf:RDF>
</metadata>
<defs>
<style type="text/css">*{stroke-linecap:butt;stroke-linejoin:round;}</style>
</defs>
<path d="m0 186.67h354.67v-186.67h-354.67z" fill="#fff"/>
<g fill="none" stroke="#000">
<path d="m91.354 8.4848v34.242" clip-path="url(#a)"/>
<path d="m91.354 42.727 247.19 34.156" clip-path="url(#a)"/>
<path d="m91.354 42.727 247.19 34.156" clip-path="url(#a)"/>
<path d="m91.354 42.727v34.156" clip-path="url(#a)"/>
<path d="m91.354 76.882-75.232 67.902" clip-path="url(#a)"/>
<path d="m91.354 76.882 75.232 34.04" clip-path="url(#a)"/>
<path d="m16.121 144.78v33.398" clip-path="url(#a)"/>
<path d="m166.59 110.92-122.83 33.862" clip-path="url(#a)"/>
<path d="m166.59 110.92-85.98 33.862" clip-path="url(#a)"/>
<path d="m166.59 110.92-39.919 33.862" clip-path="url(#a)"/>
<path d="m166.59 110.92 15.354 33.862" clip-path="url(#a)"/>
<path d="m166.59 110.92 79.838 33.862" clip-path="url(#a)"/>
<path d="m166.59 110.92 153.54 33.862" clip-path="url(#a)"/>
<path d="m43.758 144.78v33.398" clip-path="url(#a)"/>
<path d="m80.606 144.78v33.398" clip-path="url(#a)"/>
<path d="m126.67 144.78v33.398" clip-path="url(#a)"/>
<path d="m181.94 144.78v33.398" clip-path="url(#a)"/>
<path d="m246.42 144.78v33.398" clip-path="url(#a)"/>
<path d="m320.12 144.78v33.398" clip-path="url(#a)"/>
</g>
<path d="m85.082 22.598v6.0162q0 2.4 2.4 2.4h7.7425q2.4 0 2.4-2.4v-6.0162q0-2.4-2.4-2.4h-7.7425q-2.4 0-2.4 2.4z" clip-path="url(#a)" fill="#fff" stroke="#fff"/>
<g clip-path="url(#a)">
<g transform="translate(89.146 22.598) rotate(90) scale(.08 -.08)">
<defs>
<path id="t" d="m9.8125 72.906h9.8594v-29.891h35.844v29.891h9.8594v-72.906h-9.8594v34.719h-35.844v-34.719h-9.8594z"/>
</defs>
<use xlink:href="#t"/>
</g>
</g>
<path d="m211.38 65.642 5.421 0.74904q2.3774 0.3285 2.7059-2.0489l1.0597-7.6696q0.3285-2.3774-2.0489-2.7059l-5.421-0.74904q-2.3774-0.3285-2.7059 2.0489l-1.0597 7.6696q-0.3285 2.3774 2.0489 2.7059z" clip-path="url(#a)" fill="#fff" stroke="#fff"/>
<g clip-path="url(#a)">
<g transform="translate(211.94 61.617) rotate(7.867) scale(.08 -.08)">
<defs>
<path id="n" d="m34.188 63.188-13.391-36.281h26.812zm-5.5781 9.7188h11.188l27.781-72.906h-10.25l-6.6406 18.703h-32.859l-6.6406-18.703h-10.406z"/>
</defs>
<use xlink:href="#n"/>
</g>
</g>
<path d="m211.7 65.687 4.7784 0.66025q2.3774 0.3285 2.7059-2.0489l1.0597-7.6696q0.3285-2.3774-2.0489-2.7059l-4.7784-0.66025q-2.3774-0.3285-2.7059 2.0489l-1.0597 7.6696q-0.3285 2.3774 2.0489 2.7059z" clip-path="url(#a)" fill="#fff" stroke="#fff"/>
<g clip-path="url(#a)">
<g transform="translate(212.26 61.661) rotate(7.867) scale(.08 -.08)">
<defs>
<path id="p" d="m19.672 64.797v-27.391h12.406q6.8906 0 10.641 3.5625 3.7656 3.5625 3.7656 10.156 0 6.5469-3.7656 10.109-3.75 3.5625-10.641 3.5625zm-9.8594 8.1094h22.266q12.266 0 18.531-5.5469 6.2812-5.5469 6.2812-16.234 0-10.797-6.2812-16.312-6.2656-5.5156-18.531-5.5156h-12.406v-29.297h-9.8594z"/>
</defs>
<use xlink:href="#p"/>
</g>
</g>
<path d="m85.082 57.068v5.4725q0 2.4 2.4 2.4h7.7425q2.4 0 2.4-2.4v-5.4725q0-2.4-2.4-2.4h-7.7425q-2.4 0-2.4 2.4z" clip-path="url(#a)" fill="#fff" stroke="#fff"/>
<g clip-path="url(#a)">
<g transform="translate(89.146 57.068) rotate(90) scale(.08 -.08)">
<use xlink:href="#n"/>
</g>
</g>
<path d="m56.285 116.98 3.309-2.9866q1.7816-1.608 0.1736-3.3897l-5.1876-5.7476q-1.608-1.7816-3.3897-0.1736l-3.309 2.9866q-1.7816 1.608-0.1736 3.3897l5.1876 5.7476q1.608 1.7816 3.3897 0.1736z" clip-path="url(#a)" fill="#fff" stroke="#fff"/>
<g clip-path="url(#a)">
<g transform="translate(53.562 113.97) rotate(-42.068) scale(.08 -.08)">
<defs>
<path id="q" d="m9.8125 72.906h9.8594v-64.609h35.5v-8.2969h-45.359z"/>
</defs>
<use xlink:href="#q"/>
</g>
</g>
<path d="m123.64 98.376 5.4813 2.4801q2.1866 0.98935 3.1759-1.1972l3.1917-7.054q0.98935-2.1866-1.1972-3.1759l-5.4813-2.4801q-2.1866-0.98935-3.1759 1.1972l-3.1917 7.054q-0.98935 2.1866 1.1972 3.1759z" clip-path="url(#a)" fill="#fff" stroke="#fff"/>
<g clip-path="url(#a)">
<g transform="translate(125.32 94.673) rotate(24.345) scale(.08 -.08)">
<use xlink:href="#t"/>
</g>
</g>
<path d="m9.85 144.58v33.808q0 2.4 2.4 2.4h7.7425q2.4 0 2.4-2.4v-33.808q0-2.4-2.4-2.4h-7.7425q-2.4 0-2.4 2.4z" clip-path="url(#a)" fill="#fff" stroke="#fff"/>
<g clip-path="url(#a)">
<g transform="translate(13.914 144.58) rotate(90) scale(.08 -.08)">
<defs>
<path id="e" d="m-0.29688 72.906h61.672v-8.3125h-25.875v-64.594h-9.9062v64.594h-25.891z"/>
<path id="l" d="m56.203 29.594v-4.3906h-41.312q0.59375-9.2812 5.5938-14.141t13.938-4.8594q5.1719 0 10.031 1.2656t9.6562 3.8125v-8.5q-4.8438-2.0469-9.9219-3.125t-10.297-1.0781q-13.094 0-20.734 7.6094-7.6406 7.625-7.6406 20.625 0 13.422 7.25 21.297 7.25 7.8906 19.562 7.8906 11.031 0 17.453-7.1094 6.4219-7.0938 6.4219-19.297zm-8.9844 2.6406q-0.09375 7.3594-4.125 11.75-4.0312 4.4062-10.672 4.4062-7.5156 0-12.031-4.25t-5.2031-11.969z"/>
<path id="g" d="m41.109 46.297q-1.5156 0.875-3.2969 1.2812-1.7812 0.42188-3.9219 0.42188-7.625 0-11.703-4.9531t-4.0781-14.234v-28.812h-9.0312v54.688h9.0312v-8.5q2.8438 4.9844 7.375 7.3906 4.5469 2.4219 11.047 2.4219 0.92188 0 2.0469-0.125 1.125-0.10938 2.4844-0.35938z"/>
<path id="i" d="m52 44.188q3.375 6.0625 8.0625 8.9375t11.031 2.875q8.5469 0 13.188-5.9844 4.6406-5.9688 4.6406-17v-33.016h-9.0312v32.719q0 7.8594-2.7969 11.656-2.7812 3.8125-8.4844 3.8125-6.9844 0-11.047-4.6406-4.0469-4.625-4.0469-12.641v-30.906h-9.0312v32.719q0 7.9062-2.7812 11.688t-8.5938 3.7812q-6.8906 0-10.953-4.6562-4.0469-4.6562-4.0469-12.625v-30.906h-9.0312v54.688h9.0312v-8.5q3.0781 5.0312 7.375 7.4219t10.203 2.3906q5.9688 0 10.141-3.0312 4.1719-3.0156 6.1719-8.7812z"/>
<path id="k" d="m9.4219 54.688h8.9844v-54.688h-8.9844zm0 21.297h8.9844v-11.391h-8.9844z"/>
<path id="h" d="m54.891 33.016v-33.016h-8.9844v32.719q0 7.7656-3.0312 11.609-3.0312 3.8594-9.0781 3.8594-7.2812 0-11.484-4.6406-4.2031-4.625-4.2031-12.641v-30.906h-9.0312v54.688h9.0312v-8.5q3.2344 4.9375 7.5938 7.375 4.375 2.4375 10.094 2.4375 9.4219 0 14.25-5.8281 4.8438-5.8281 4.8438-17.156z"/>
<path id="f" d="m34.281 27.484q-10.891 0-15.094-2.4844t-4.2031-8.5q0-4.7812 3.1562-7.5938 3.1562-2.7969 8.5625-2.7969 7.4844 0 12 5.2969t4.5156 14.078v2zm17.922 3.7188v-31.203h-8.9844v8.2969q-3.0781-4.9688-7.6719-7.3438t-11.234-2.375q-8.3906 0-13.359 4.7188-4.9531 4.7188-4.9531 12.625 0 9.2188 6.1719 13.906 6.1875 4.6875 18.438 4.6875h12.609v0.89062q0 6.2031-4.0781 9.5938t-11.453 3.3906q-4.6875 0-9.1406-1.125-4.4375-1.125-8.5312-3.375v8.3125q4.9219 1.9062 9.5625 2.8438 4.6406 0.95312 9.0312 0.95312 11.875 0 17.734-6.1562 5.8594-6.1406 5.8594-18.641z"/>
<path id="j" d="m9.4219 75.984h8.9844v-75.984h-8.9844z"/>
</defs>
<use xlink:href="#e"/>
<use x="44.083984" xlink:href="#l"/>
<use x="105.607422" xlink:href="#g"/>
<use x="144.970703" xlink:href="#i"/>
<use x="242.382812" xlink:href="#k"/>
<use x="270.166016" xlink:href="#h"/>
<use x="333.544922" xlink:href="#f"/>
<use x="394.824219" xlink:href="#j"/>
</g>
</g>
<path d="m104.2 134.63 5.2757-1.4544q2.3137-0.63785 1.6758-2.9515l-2.0577-7.464q-0.63785-2.3137-2.9515-1.6758l-5.2757 1.4544q-2.3137 0.63785-1.6758 2.9515l2.0577 7.464q0.63785 2.3137 2.9515 1.6758z" clip-path="url(#a)" fill="#fff" stroke="#fff"/>
<g clip-path="url(#a)">
<g transform="translate(103.12 130.71) rotate(-15.413) scale(.08 -.08)">
<use xlink:href="#n"/>
</g>
</g>
<path d="m123.35 134.69 5.0918-2.0054q2.2331-0.87946 1.3536-3.1125l-2.8372-7.2039q-0.87946-2.2331-3.1125-1.3536l-5.0918 2.0054q-2.2331 0.87946-1.3536 3.1125l2.8372 7.2039q0.87946 2.2331 3.1125 1.3536z" clip-path="url(#a)" fill="#fff" stroke="#fff"/>
<g clip-path="url(#a)">
<g transform="translate(121.86 130.91) rotate(-21.496) scale(.08 -.08)">
<use xlink:href="#n"/>
</g>
</g>
<path d="m148.93 134.12 3.5089-2.9765q1.8302-1.5525 0.2777-3.3827l-5.0085-5.9044q-1.5525-1.8302-3.3827-0.2777l-3.5089 2.9765q-1.8302 1.5525-0.2777 3.3827l5.0085 5.9044q1.5525 1.8302 3.3827 0.2777z" clip-path="url(#a)" fill="#fff" stroke="#fff"/>
<g clip-path="url(#a)">
<g transform="translate(146.3 131.02) rotate(-40.307) scale(.08 -.08)">
<defs>
<path id="y" d="m9.8125 72.906h41.891v-8.3125h-32.031v-21.484h28.906v-8.2969h-28.906v-34.812h-9.8594z"/>
</defs>
<use xlink:href="#y"/>
</g>
</g>
<path d="m167.5 128.13 2.0973 4.6255q0.99108 2.1858 3.1769 1.1947l7.0515-3.1973q2.1858-0.99108 1.1947-3.1769l-2.0973-4.6255q-0.99108-2.1858-3.1769-1.1947l-7.0515 3.1973q-2.1858 0.99108-1.1947 3.1769z" clip-path="url(#a)" fill="#fff" stroke="#fff"/>
<g clip-path="url(#a)">
<g transform="translate(171.2 126.45) rotate(65.61) scale(.08 -.08)">
<defs>
<path id="x" d="m53.516 70.516v-9.625q-5.6094 2.6875-10.594 4-4.9844 1.3281-9.625 1.3281-8.0469 0-12.422-3.125t-4.375-8.8906q0-4.8438 2.9062-7.3125 2.9062-2.4531 11.016-3.9688l5.9531-1.2188q11.031-2.1094 16.281-7.4062t5.25-14.172q0-10.609-7.1094-16.078-7.0938-5.4688-20.812-5.4688-5.1719 0-11.016 1.1719-5.8281 1.1719-12.078 3.4688v10.156q6-3.3594 11.766-5.0781 5.7656-1.7031 11.328-1.7031 8.4375 0 13.031 3.3125 4.5938 3.3281 4.5938 9.4844 0 5.3594-3.2969 8.3906t-10.812 4.5469l-6.0156 1.1719q-11.031 2.1875-15.969 6.875-4.9219 4.6875-4.9219 13.047 0 9.6719 6.8125 15.234t18.766 5.5625q5.1406 0 10.453-0.9375 5.3281-0.92188 10.891-2.7656z"/>
</defs>
<use xlink:href="#x"/>
</g>
</g>
<path d="m201.36 132.48 5.3902 2.2862q2.2095 0.93712 3.1466-1.2724l3.0232-7.1279q0.93712-2.2095-1.2724-3.1466l-5.3902-2.2862q-2.2095-0.93712-3.1466 1.2724l-3.0232 7.1279q-0.93712 2.2095 1.2724 3.1466z" clip-path="url(#a)" fill="#fff" stroke="#fff"/>
<g clip-path="url(#a)">
<g transform="translate(202.95 128.74) rotate(22.983) scale(.08 -.08)">
<defs>
<path id="r" d="m8.6875 72.906h9.9219v-44.297q0-11.719 4.2344-16.875 4.25-5.1406 13.781-5.1406 9.4688 0 13.719 5.1406 4.25 5.1562 4.25 16.875v44.297h9.9062v-45.516q0-14.25-7.0625-21.531-7.0469-7.2812-20.812-7.2812-13.828 0-20.891 7.2812-7.0469 7.2812-7.0469 21.531z"/>
</defs>
<use xlink:href="#r"/>
</g>
</g>
<path d="m239.14 133.35 5.7176 1.261q2.3437 0.5169 2.8606-1.8268l1.6675-7.5608q0.5169-2.3437-1.8268-2.8606l-5.7176-1.261q-2.3437-0.5169-2.8606 1.8268l-1.6675 7.5608q-0.5169 2.3437 1.8268 2.8606z" clip-path="url(#a)" fill="#fff" stroke="#fff"/>
<g clip-path="url(#a)">
<g transform="translate(240.02 129.38) rotate(12.437) scale(.08 -.08)">
<use xlink:href="#r"/>
</g>
</g>
<path d="m37.486 144.58v33.808q0 2.4 2.4 2.4h7.7425q2.4 0 2.4-2.4v-33.808q0-2.4-2.4-2.4h-7.7425q-2.4 0-2.4 2.4z" clip-path="url(#a)" fill="#fff" stroke="#fff"/>
<g clip-path="url(#a)">
<g transform="translate(41.55 144.58) rotate(90) scale(.08 -.08)">
<use xlink:href="#e"/>
<use x="44.083984" xlink:href="#l"/>
<use x="105.607422" xlink:href="#g"/>
<use x="144.970703" xlink:href="#i"/>
<use x="242.382812" xlink:href="#k"/>
<use x="270.166016" xlink:href="#h"/>
<use x="333.544922" xlink:href="#f"/>
<use x="394.824219" xlink:href="#j"/>
</g>
</g>
<path d="m74.335 144.58v33.808q0 2.4 2.4 2.4h7.7425q2.4 0 2.4-2.4v-33.808q0-2.4-2.4-2.4h-7.7425q-2.4 0-2.4 2.4z" clip-path="url(#a)" fill="#fff" stroke="#fff"/>
<g clip-path="url(#a)">
<g transform="translate(78.399 144.58) rotate(90) scale(.08 -.08)">
<use xlink:href="#e"/>
<use x="44.083984" xlink:href="#l"/>
<use x="105.607422" xlink:href="#g"/>
<use x="144.970703" xlink:href="#i"/>
<use x="242.382812" xlink:href="#k"/>
<use x="270.166016" xlink:href="#h"/>
<use x="333.544922" xlink:href="#f"/>
<use x="394.824219" xlink:href="#j"/>
</g>
</g>
<path d="m120.4 144.58v33.808q0 2.4 2.4 2.4h7.7425q2.4 0 2.4-2.4v-33.808q0-2.4-2.4-2.4h-7.7425q-2.4 0-2.4 2.4z" clip-path="url(#a)" fill="#fff" stroke="#fff"/>
<g clip-path="url(#a)">
<g transform="translate(124.46 144.58) rotate(90) scale(.08 -.08)">
<use xlink:href="#e"/>
<use x="44.083984" xlink:href="#l"/>
<use x="105.607422" xlink:href="#g"/>
<use x="144.970703" xlink:href="#i"/>
<use x="242.382812" xlink:href="#k"/>
<use x="270.166016" xlink:href="#h"/>
<use x="333.544922" xlink:href="#f"/>
<use x="394.824219" xlink:href="#j"/>
</g>
</g>
<path d="m175.67 144.58v33.808q0 2.4 2.4 2.4h7.7425q2.4 0 2.4-2.4v-33.808q0-2.4-2.4-2.4h-7.7425q-2.4 0-2.4 2.4z" clip-path="url(#a)" fill="#fff" stroke="#fff"/>
<g clip-path="url(#a)">
<g transform="translate(179.73 144.58) rotate(90) scale(.08 -.08)">
<use xlink:href="#e"/>
<use x="44.083984" xlink:href="#l"/>
<use x="105.607422" xlink:href="#g"/>
<use x="144.970703" xlink:href="#i"/>
<use x="242.382812" xlink:href="#k"/>
<use x="270.166016" xlink:href="#h"/>
<use x="333.544922" xlink:href="#f"/>
<use x="394.824219" xlink:href="#j"/>
</g>
</g>
<path d="m240.15 144.58v33.808q0 2.4 2.4 2.4h7.7425q2.4 0 2.4-2.4v-33.808q0-2.4-2.4-2.4h-7.7425q-2.4 0-2.4 2.4z" clip-path="url(#a)" fill="#fff" stroke="#fff"/>
<g clip-path="url(#a)">
<g transform="translate(244.22 144.58) rotate(90) scale(.08 -.08)">
<use xlink:href="#e"/>
<use x="44.083984" xlink:href="#l"/>
<use x="105.607422" xlink:href="#g"/>
<use x="144.970703" xlink:href="#i"/>
<use x="242.382812" xlink:href="#k"/>
<use x="270.166016" xlink:href="#h"/>
<use x="333.544922" xlink:href="#f"/>
<use x="394.824219" xlink:href="#j"/>
</g>
</g>
<path d="m313.85 144.58v33.808q0 2.4 2.4 2.4h7.7425q2.4 0 2.4-2.4v-33.808q0-2.4-2.4-2.4h-7.7425q-2.4 0-2.4 2.4z" clip-path="url(#a)" fill="#fff" stroke="#fff"/>
<g clip-path="url(#a)">
<g transform="translate(317.91 144.58) rotate(90) scale(.08 -.08)">
<use xlink:href="#e"/>
<use x="44.083984" xlink:href="#l"/>
<use x="105.607422" xlink:href="#g"/>
<use x="144.970703" xlink:href="#i"/>
<use x="242.382812" xlink:href="#k"/>
<use x="270.166016" xlink:href="#h"/>
<use x="333.544922" xlink:href="#f"/>
<use x="394.824219" xlink:href="#j"/>
</g>
</g>
<defs>
<path id="b" d="m0 8.6603c2.2967 0 4.4997-0.9125 6.1237-2.5365 1.624-1.624 2.5365-3.827 2.5365-6.1237s-0.9125-4.4997-2.5365-6.1237c-1.624-1.624-3.827-2.5365-6.1237-2.5365s-4.4997 0.9125-6.1237 2.5365c-1.624 1.624-2.5365 3.827-2.5365 6.1237s0.9125 4.4997 2.5365 6.1237c1.624 1.624 3.827 2.5365 6.1237 2.5365z"/>
</defs>
<g clip-path="url(#a)" fill="#ffffff" stroke="#ffffff">
<use x="16.121212" y="178.181818" xlink:href="#b"/>
<use x="43.757576" y="178.181818" xlink:href="#b"/>
<use x="80.606061" y="178.181818" xlink:href="#b"/>
<use x="126.666667" y="178.181818" xlink:href="#b"/>
<use x="181.939394" y="178.181818" xlink:href="#b"/>
<use x="246.424242" y="178.181818" xlink:href="#b"/>
<use x="320.121212" y="178.181818" xlink:href="#b"/>
<use x="338.545455" y="76.882424" xlink:href="#b"/>
<use x="338.545455" y="76.882424" xlink:href="#b"/>
<use x="91.353535" y="8.484848" xlink:href="#b"/>
<use x="91.353535" y="42.726839" xlink:href="#b"/>
<use x="91.353535" y="76.882424" xlink:href="#b"/>
<use x="16.121212" y="144.784286" xlink:href="#b"/>
<use x="166.585859" y="110.922157" xlink:href="#b"/>
<use x="43.757576" y="144.784286" xlink:href="#b"/>
<use x="80.606061" y="144.784286" xlink:href="#b"/>
<use x="126.666667" y="144.784286" xlink:href="#b"/>
<use x="181.939394" y="144.784286" xlink:href="#b"/>
<use x="246.424242" y="144.784286" xlink:href="#b"/>
<use x="320.121212" y="144.784286" xlink:href="#b"/>
</g>
<g clip-path="url(#a)">
<g transform="translate(12.701 180.94) scale(.1 -.1)">
<defs>
<path id="aq" d="m34.188 63.188-13.391-36.281h26.812zm-5.5781 9.7188h11.188l27.781-72.906h-10.25l-6.6406 18.703h-32.859l-6.6406-18.703h-10.406z"/>
</defs>
<use xlink:href="#aq"/>
</g>
</g>
<g clip-path="url(#a)">
<g transform="translate(34.832 180.94) scale(.1 -.1)">
<defs>
<path id="aj" d="m41.016 0v23h-16.75q-7.4688 0-12.453 4.6406-4.4844 4.2031-4.4844 13.188v13.859h8.9844v-13.031q0-5.7188 2.5312-8.5938 2.5938-2.8906 7.6719-2.8906h14.5v24.516h8.9844v-54.688z"/>
<path id="w" d="m2.9375 54.688h52.391v-7.1719h-21.781v-47.516h-8.8438v47.516h-21.766z"/>
<path id="o" d="m30.609 48.391q-7.2188 0-11.422-5.6406t-4.2031-15.453 4.1719-15.453q4.1875-5.6406 11.453-5.6406 7.1875 0 11.375 5.6562 4.2031 5.6719 4.2031 15.438 0 9.7188-4.2031 15.406-4.1875 5.6875-11.375 5.6875zm0 7.6094q11.719 0 18.406-7.625 6.7031-7.6094 6.7031-21.078 0-13.422-6.7031-21.078-6.6875-7.6406-18.406-7.6406-11.766 0-18.438 7.6406-6.6562 7.6562-6.6562 21.078 0 13.469 6.6562 21.078 6.6719 7.625 18.438 7.625z"/>
</defs>
<use xlink:href="#aj"/>
<use x="59.082031" xlink:href="#w"/>
<use x="117.333984" xlink:href="#o"/>
</g>
</g>
<g clip-path="url(#a)">
<g transform="translate(71.89 180.94) scale(.1 -.1)">
<defs>
<path id="ai" d="m5.5156 10.406q7.7188-4.2031 15.391-4.2031 7.1719 0 12.297 4.1719t6.0625 14.828h-27.734v7.1719h27.438q-0.59375 5.125-4.4844 10.562-3.875 5.4531-13.578 5.4531-7.5312 0-15.391-4.2031v8.4062q7.6719 3.4062 15.781 3.4062 12.781 0 20.125-7.7344 7.3594-7.7344 7.3594-20.969 0-13.188-7.1562-20.953t-19.703-7.7656q-9.2188 0-16.406 3.5156z"/>
</defs>
<use xlink:href="#ai"/>
<use x="54.882812" xlink:href="#w"/>
<use x="113.134766" xlink:href="#o"/>
</g>
</g>
<g clip-path="url(#a)">
<g transform="translate(120.94 180.94) scale(.1 -.1)">
<defs>
<path id="am" d="m34.469 29.5q6.0625-1.1719 9.4219-4.75 3.375-3.5625 3.375-8.8281 0-8.4531-6.2969-12.906-6.2969-4.4375-17.922-4.4375-3.9062 0-8.0312 0.6875t-8.5156 2.0469v8.3594q3.4688-1.8125 7.6094-2.7188 4.1562-0.89062 8.6875-0.89062 7.375 0 11.5 2.7344t4.125 7.125q0 4.2969-3.6562 6.9062t-10.344 2.6094h-7.2344v7.4219h7.5625q5.6719 0 8.9688 2.1719t3.2969 5.5938q0 3.125-3.4062 5.375-3.3906 2.25-9.1875 2.25-3.4688 0-7.4062-0.64062-3.9219-0.64062-8.6719-2.0469v8.1562q4.7969 1.1719 8.9375 1.75 4.1562 0.59375 7.8594 0.59375 9.5781 0 15.109-3.8438 5.5469-3.8281 5.5469-10.719 0-4.5312-2.9375-7.6875-2.9219-3.1406-8.3906-4.3125z"/>
<path id="ap" d="m34.281 27.484q-10.891 0-15.094-2.4844t-4.2031-8.5q0-4.7812 3.1562-7.5938 3.1562-2.7969 8.5625-2.7969 7.4844 0 12 5.2969t4.5156 14.078v2zm17.922 3.7188v-31.203h-8.9844v8.2969q-3.0781-4.9688-7.6719-7.3438t-11.234-2.375q-8.3906 0-13.359 4.7188-4.9531 4.7188-4.9531 12.625 0 9.2188 6.1719 13.906 6.1875 4.6875 18.438 4.6875h12.609v0.89062q0 6.2031-4.0781 9.5938t-11.453 3.3906q-4.6875 0-9.1406-1.125-4.4375-1.125-8.5312-3.375v8.3125q4.9219 1.9062 9.5625 2.8438 4.6406 0.95312 9.0312 0.95312 11.875 0 17.734-6.1562 5.8594-6.1406 5.8594-18.641z"/>
</defs>
<use xlink:href="#am"/>
<use x="53.173828" xlink:href="#ap"/>
</g>
</g>
<g clip-path="url(#a)">
<g transform="translate(164.11 180.94) scale(.1 -.1)">
<defs>
<path id="ak" d="m32.172-5.0781q-3.7969-9.7656-7.4219-12.734-3.6094-2.9844-9.6562-2.9844h-7.1875v7.5156h5.2812q3.7031 0 5.75 1.7656 2.0625 1.75 4.5469 8.2969l1.6094 4.0938-22.109 53.812h9.5156l17.094-42.766 17.094 42.766h9.5156z"/>
<path id="an" d="m9.0781 0v54.688h38.578v-7.1719h-29.547v-47.516z"/>
<path id="ao" d="m18.062 25.203v-18.031h12.797q6.1562 0 9.375 2.3125 3.2188 2.3281 3.2188 6.7344 0 4.3906-3.2188 6.6875t-9.375 2.2969zm0 22.312v-15.141h11.828q5.0781 0 8.2969 2.0156 3.2188 2.0312 3.2188 5.6562 0 3.6094-3.2188 5.5312-3.2188 1.9375-8.2969 1.9375zm-8.9844 7.1719h21.391q9.625 0 14.797-3.5156t5.1719-10.016q0-5.0156-2.6406-7.9844-2.625-2.9531-7.8125-3.6719 6.2031-1.1719 9.625-4.8906 3.4219-3.7031 3.4219-9.2812 0-7.3125-5.6406-11.328-5.6406-4-16.094-4h-22.219z"/>
<path id="al" d="m18.109 8.2031v-29h-9.0312v75.484h9.0312v-8.2969q2.8438 4.875 7.1562 7.2344 4.3281 2.375 10.328 2.375 9.9688 0 16.188-7.9062 6.2344-7.9062 6.2344-20.797t-6.2344-20.812q-6.2188-7.9062-16.188-7.9062-6 0-10.328 2.375-4.3125 2.375-7.1562 7.25zm30.578 19.094q0 9.9062-4.0781 15.547t-11.203 5.6406q-7.1406 0-11.219-5.6406t-4.0781-15.547 4.0781-15.547 11.219-5.6406q7.125 0 11.203 5.6406t4.0781 15.547z"/>
</defs>
<use xlink:href="#ak"/>
<use x="59.179688" xlink:href="#an"/>
<use x="111.71875" xlink:href="#o"/>
<use x="172.900391" xlink:href="#ao"/>
<use x="231.835938" xlink:href="#o"/>
<use x="293.017578" xlink:href="#al"/>
</g>
</g>
<g clip-path="url(#a)">
<g transform="translate(243.77 180.94) scale(.1 -.1)">
<defs>
<path id="z" d="m19.094 12.406h9.9062v-12.406h-9.9062zm9.625 7.1719h-9.3281v7.5156q0 4.9375 1.3594 8.1094 1.375 3.1719 5.7656 7.375l4.3906 4.3438q2.7812 2.5938 4.0312 4.8906t1.25 4.6875q0 4.3438-3.2031 7.0312t-8.4688 2.6875q-3.8594 0-8.2344-1.7188-4.3594-1.7031-9.1094-4.9844v9.1875q4.5938 2.7812 9.2969 4.1406 4.7188 1.375 9.75 1.375 8.9844 0 14.422-4.7344 5.4531-4.7344 5.4531-12.5 0-3.7188-1.7656-7.0625-1.75-3.3438-6.1406-7.5312l-4.2969-4.2031q-2.2969-2.2969-3.25-3.5938t-1.3438-2.5156q-0.29688-1.0156-0.4375-2.4844t-0.14062-4z"/>
</defs>
<use xlink:href="#z"/>
</g>
</g>
<g clip-path="url(#a)">
<g transform="translate(318.32 180.94) scale(.1 -.1)">
<defs>
<path id="ah" d="m4.8906 31.391h26.312v-8h-26.312z"/>
</defs>
<use xlink:href="#ah"/>
</g>
</g>
<g clip-path="url(#a)">
<g transform="translate(317.46 79.642) scale(.1 -.1)">
<defs>
<path id="m" d="m9.8125 72.906h9.8594v-72.906h-9.8594z"/>
<path id="s" d="m9.8125 72.906h14.703l18.594-49.609 18.703 49.609h14.703v-72.906h-9.625v64.016l-18.797-50h-9.9062l-18.797 50v-64.016h-9.5781z"/>
<path id="u" d="m64.406 67.281v-10.391q-4.9844 4.6406-10.625 6.9219-5.6406 2.2969-11.984 2.2969-12.5 0-19.141-7.6406t-6.6406-22.094q0-14.406 6.6406-22.047t19.141-7.6406q6.3438 0 11.984 2.2969t10.625 6.9375v-10.312q-5.1719-3.5156-10.969-5.2812-5.7812-1.75-12.219-1.75-16.562 0-26.094 10.125-9.5156 10.141-9.5156 27.672 0 17.578 9.5156 27.703 9.5312 10.141 26.094 10.141 6.5312 0 12.312-1.7344 5.7969-1.7344 10.875-5.2031z"/>
</defs>
<use xlink:href="#m"/>
<use x="29.492188" xlink:href="#s"/>
<use x="115.771484" xlink:href="#p"/>
<use x="176.074219" xlink:href="#q"/>
<use x="231.787109" xlink:href="#m"/>
<use x="261.279297" xlink:href="#u"/>
<use x="331.103516" xlink:href="#m"/>
<use x="360.595703" xlink:href="#e"/>
</g>
</g>
<g clip-path="url(#a)">
<g transform="translate(317.46 79.642) scale(.1 -.1)">
<use xlink:href="#m"/>
<use x="29.492188" xlink:href="#s"/>
<use x="115.771484" xlink:href="#p"/>
<use x="176.074219" xlink:href="#q"/>
<use x="231.787109" xlink:href="#m"/>
<use x="261.279297" xlink:href="#u"/>
<use x="331.103516" xlink:href="#m"/>
<use x="360.595703" xlink:href="#e"/>
</g>
</g>
<g clip-path="url(#a)">
<g transform="translate(83.402 11.244) scale(.1 -.1)">
<defs>
<path id="c" d="m12.406 8.2969h16.109v55.625l-17.531-3.5156v8.9844l17.438 3.5156h9.8594v-64.609h16.109v-8.2969h-41.984z"/>
<path id="d" d="m10.688 12.406h10.312v-12.406h-10.312z"/>
</defs>
<use xlink:href="#c"/>
<use x="63.623047" xlink:href="#d"/>
<use x="95.410156" xlink:href="#c"/>
</g>
</g>
<g clip-path="url(#a)">
<g transform="translate(83.402 45.486) scale(.1 -.1)">
<defs>
<path id="v" d="m19.188 8.2969h34.422v-8.2969h-46.281v8.2969q5.6094 5.8125 15.297 15.594 9.7031 9.7969 12.188 12.641 4.7344 5.3125 6.6094 9 1.8906 3.6875 1.8906 7.25 0 5.8125-4.0781 9.4688-4.0781 3.6719-10.625 3.6719-4.6406 0-9.7969-1.6094-5.1406-1.6094-11-4.8906v9.9688q5.9531 2.3906 11.125 3.6094 5.1875 1.2188 9.4844 1.2188 11.328 0 18.062-5.6719 6.7344-5.6562 6.7344-15.125 0-4.5-1.6875-8.5312-1.6719-4.0156-6.125-9.4844-1.2188-1.4219-7.7656-8.1875-6.5312-6.7656-18.453-18.922z"/>
</defs>
<use xlink:href="#c"/>
<use x="63.623047" xlink:href="#d"/>
<use x="95.410156" xlink:href="#v"/>
</g>
</g>
<g clip-path="url(#a)">
<g transform="translate(83.402 79.642) scale(.1 -.1)">
<defs>
<path id="ac" d="m8.2031 72.906h46.875v-4.2031l-26.469-68.703h-10.297l24.906 64.594h-35.016z"/>
</defs>
<use xlink:href="#c"/>
<use x="63.623047" xlink:href="#d"/>
<use x="95.410156" xlink:href="#ac"/>
</g>
</g>
<g clip-path="url(#a)">
<g transform="translate(8.1696 147.54) scale(.1 -.1)">
<defs>
<path id="ab" d="m31.781 34.625q-7.0312 0-11.062-3.7656-4.0156-3.7656-4.0156-10.344 0-6.5938 4.0156-10.359 4.0312-3.7656 11.062-3.7656t11.078 3.7812q4.0625 3.7969 4.0625 10.344 0 6.5781-4.0312 10.344-4.0156 3.7656-11.109 3.7656zm-9.8594 4.1875q-6.3438 1.5625-9.8906 5.9062-3.5312 4.3594-3.5312 10.609 0 8.7344 6.2188 13.812 6.2344 5.0781 17.062 5.0781 10.891 0 17.094-5.0781t6.2031-13.812q0-6.25-3.5469-10.609-3.5312-4.3438-9.8281-5.9062 7.125-1.6562 11.094-6.5 3.9844-4.8281 3.9844-11.797 0-10.609-6.4688-16.281-6.4688-5.6562-18.531-5.6562-12.047 0-18.531 5.6562-6.4688 5.6719-6.4688 16.281 0 6.9688 4 11.797 4.0156 4.8438 11.141 6.5zm-3.6094 15.578q0-5.6562 3.5312-8.8281 3.5469-3.1719 9.9375-3.1719 6.3594 0 9.9375 3.1719 3.5938 3.1719 3.5938 8.8281 0 5.6719-3.5938 8.8438-3.5781 3.1719-9.9375 3.1719-6.3906 0-9.9375-3.1719-3.5312-3.1719-3.5312-8.8438z"/>
</defs>
<use xlink:href="#c"/>
<use x="63.623047" xlink:href="#d"/>
<use x="95.410156" xlink:href="#ab"/>
</g>
</g>
<g clip-path="url(#a)">
<g transform="translate(158.63 113.68) scale(.1 -.1)">
<defs>
<path id="aa" d="m10.984 1.5156v8.9844q3.7188-1.7656 7.5156-2.6875 3.8125-0.92188 7.4844-0.92188 9.7656 0 14.906 6.5625 5.1562 6.5625 5.8906 19.953-2.8281-4.2031-7.1875-6.4531-4.3438-2.25-9.6094-2.25-10.938 0-17.312 6.6094-6.375 6.625-6.375 18.109 0 11.219 6.6406 18 6.6406 6.7969 17.672 6.7969 12.656 0 19.312-9.7031 6.6719-9.6875 6.6719-28.141 0-17.234-8.1875-27.516-8.1719-10.281-21.984-10.281-3.7188 0-7.5312 0.73438-3.7969 0.73438-7.9062 2.2031zm19.625 30.906q6.6406 0 10.516 4.5312 3.8906 4.5469 3.8906 12.469 0 7.8594-3.8906 12.422-3.875 4.5625-10.516 4.5625t-10.516-4.5625-3.875-12.422q0-7.9219 3.875-12.469 3.875-4.5312 10.516-4.5312z"/>
</defs>
<use xlink:href="#c"/>
<use x="63.623047" xlink:href="#d"/>
<use x="95.410156" xlink:href="#aa"/>
</g>
</g>
<g clip-path="url(#a)">
<g transform="translate(32.625 147.54) scale(.1 -.1)">
<defs>
<path id="ag" d="m31.781 66.406q-7.6094 0-11.453-7.5-3.8281-7.4844-3.8281-22.531 0-14.984 3.8281-22.484 3.8438-7.5 11.453-7.5 7.6719 0 11.5 7.5 3.8438 7.5 3.8438 22.484 0 15.047-3.8438 22.531-3.8281 7.5-11.5 7.5zm0 7.8125q12.266 0 18.734-9.7031 6.4688-9.6875 6.4688-28.141 0-18.406-6.4688-28.109-6.4688-9.6875-18.734-9.6875-12.25 0-18.719 9.6875-6.4688 9.7031-6.4688 28.109 0 18.453 6.4688 28.141 6.4688 9.7031 18.719 9.7031z"/>
</defs>
<use xlink:href="#c"/>
<use x="63.623047" xlink:href="#d"/>
<use x="95.410156" xlink:href="#c"/>
<use x="159.033203" xlink:href="#ag"/>
</g>
</g>
<g clip-path="url(#a)">
<g transform="translate(69.473 147.54) scale(.1 -.1)">
<use xlink:href="#c"/>
<use x="63.623047" xlink:href="#d"/>
<use x="95.410156" xlink:href="#c"/>
<use x="159.033203" xlink:href="#c"/>
</g>
</g>
<g clip-path="url(#a)">
<g transform="translate(115.53 147.54) scale(.1 -.1)">
<use xlink:href="#c"/>
<use x="63.623047" xlink:href="#d"/>
<use x="95.410156" xlink:href="#c"/>
<use x="159.033203" xlink:href="#v"/>
</g>
</g>
<g clip-path="url(#a)">
<g transform="translate(170.81 147.54) scale(.1 -.1)">
<defs>
<path id="af" d="m40.578 39.312q7.0781-1.5156 11.047-6.3125 3.9844-4.7812 3.9844-11.812 0-10.781-7.4219-16.703-7.4219-5.9062-21.094-5.9062-4.5781 0-9.4375 0.90625t-10.031 2.7188v9.5156q4.0938-2.3906 8.9688-3.6094 4.8906-1.2188 10.219-1.2188 9.2656 0 14.125 3.6562t4.8594 10.641q0 6.4531-4.5156 10.078-4.5156 3.6406-12.562 3.6406h-8.5v8.1094h8.8906q7.2656 0 11.125 2.9062t3.8594 8.375q0 5.6094-3.9844 8.6094-3.9688 3.0156-11.391 3.0156-4.0625 0-8.7031-0.89062-4.6406-0.875-10.203-2.7188v8.7812q5.625 1.5625 10.531 2.3438t9.25 0.78125q11.234 0 17.766-5.1094 6.5469-5.0938 6.5469-13.781 0-6.0625-3.4688-10.234t-9.8594-5.7812z"/>
</defs>
<use xlink:href="#c"/>
<use x="63.623047" xlink:href="#d"/>
<use x="95.410156" xlink:href="#c"/>
<use x="159.033203" xlink:href="#af"/>
</g>
</g>
<g clip-path="url(#a)">
<g transform="translate(235.29 147.54) scale(.1 -.1)">
<defs>
<path id="ae" d="m37.797 64.312-24.906-38.922h24.906zm-2.5938 8.5938h12.406v-47.516h10.406v-8.2031h-10.406v-17.188h-9.8125v17.188h-32.906v9.5156z"/>
</defs>
<use xlink:href="#c"/>
<use x="63.623047" xlink:href="#d"/>
<use x="95.410156" xlink:href="#c"/>
<use x="159.033203" xlink:href="#ae"/>
</g>
</g>
<g clip-path="url(#a)">
<g transform="translate(308.99 147.54) scale(.1 -.1)">
<defs>
<path id="ad" d="m10.797 72.906h38.719v-8.3125h-29.688v-17.859q2.1406 0.73438 4.2812 1.0938 2.1562 0.35938 4.3125 0.35938 12.203 0 19.328-6.6875 7.1406-6.6875 7.1406-18.109 0-11.766-7.3281-18.297-7.3281-6.5156-20.656-6.5156-4.5938 0-9.3594 0.78125-4.75 0.78125-9.8281 2.3438v9.9219q4.3906-2.3906 9.0781-3.5625t9.9062-1.1719q8.4531 0 13.375 4.4375 4.9375 4.4375 4.9375 12.062 0 7.6094-4.9375 12.047-4.9219 4.4531-13.375 4.4531-3.9531 0-7.8906-0.875-3.9219-0.875-8.0156-2.7344z"/>
</defs>
<use xlink:href="#c"/>
<use x="63.623047" xlink:href="#d"/>
<use x="95.410156" xlink:href="#c"/>
<use x="159.033203" xlink:href="#ad"/>
</g>
</g>
<defs>
<clipPath id="a">
<rect width="354.67" height="186.67"/>
</clipPath>
</defs>
</svg>
