<?xml version="1.0" encoding="UTF-8"?>
<!DOCTYPE svg  PUBLIC '-//W3C//DTD SVG 1.1//EN'  'http://www.w3.org/Graphics/SVG/1.1/DTD/svg11.dtd'>
<svg width="1064pt" height="560pt" version="1.1" viewBox="0 0 1064 560" xmlns="http://www.w3.org/2000/svg" xmlns:xlink="http://www.w3.org/1999/xlink">
<metadata>
<rdf:RDF xmlns:cc="http://creativecommons.org/ns#" xmlns:dc="http://purl.org/dc/elements/1.1/" xmlns:rdf="http://www.w3.org/1999/02/22-rdf-syntax-ns#">
<cc:Work>
<dc:type rdf:resource="http://purl.org/dc/dcmitype/StillImage"/>
<dc:date>2021-02-01T11:24:24.968064</dc:date>
<dc:format>image/svg+xml</dc:format>
<dc:creator>
<cc:Agent>
<dc:title>Matplotlib v3.3.3, https://matplotlib.org/</dc:title>
</cc:Agent>
</dc:creator>
</cc:Work>
</rdf:RDF>
</metadata>
<defs>
<style type="text/css">*{stroke-linecap:butt;stroke-linejoin:round;}</style>
</defs>
<path d="m0 560h1064v-560h-1064z" fill="#fff"/>
<g fill="none" stroke="#000">
<path d="m182.8 25.455-103.16 85.621" clip-path="url(#a)"/>
<path d="m182.8 25.455-6.7541 425.75" clip-path="url(#a)"/>
<path d="m182.8 25.455 147.62 85.621" clip-path="url(#a)"/>
<path d="m182.8 25.455-37.707 425.75" clip-path="url(#a)"/>
<path d="m79.639 111.08-22.57 85.449" clip-path="url(#a)"/>
<path d="m79.639 111.08-4.1915 340.13" clip-path="url(#a)"/>
<path d="m79.639 111.08 26.761 255.63" clip-path="url(#a)"/>
<path d="m176.04 451.2v83.342" clip-path="url(#a)"/>
<path d="m330.42 111.08-119.55 340.13" clip-path="url(#a)"/>
<path d="m330.42 111.08-59.581 255.63" clip-path="url(#a)"/>
<path d="m330.42 111.08 8.1278 340.13" clip-path="url(#a)"/>
<path d="m330.42 111.08 171.01 85.449" clip-path="url(#a)"/>
<path d="m210.87 451.2v83.342" clip-path="url(#a)"/>
<path d="m270.84 366.7-21.28 84.501" clip-path="url(#a)"/>
<path d="m270.84 366.7 21.28 84.501" clip-path="url(#a)"/>
<path d="m338.55 451.2v83.342" clip-path="url(#a)"/>
<path d="m501.42 196.52-112.58 254.68" clip-path="url(#a)"/>
<path d="m501.42 196.52-58.413 254.68" clip-path="url(#a)"/>
<path d="m501.42 196.52 171.37 85.233" clip-path="url(#a)"/>
<path d="m501.42 196.52-0.37616 254.68" clip-path="url(#a)"/>
<path d="m388.84 451.2v83.342" clip-path="url(#a)"/>
<path d="m443.01 451.2v83.342" clip-path="url(#a)"/>
<path d="m672.79 281.76-229.78 169.45" clip-path="url(#a)" stroke-dasharray="3.7,1.6"/>
<path d="m672.79 281.76-109.84 169.45" clip-path="url(#a)"/>
<path d="m672.79 281.76-44.065 169.45" clip-path="url(#a)"/>
<path d="m672.79 281.76 25.579 169.45" clip-path="url(#a)"/>
<path d="m672.79 281.76 99.092 169.45" clip-path="url(#a)"/>
<path d="m672.79 281.76 259.01 84.944" clip-path="url(#a)"/>
<path d="m562.95 451.2v83.342" clip-path="url(#a)"/>
<path d="m628.73 451.2v83.342" clip-path="url(#a)"/>
<path d="m698.37 451.2v83.342" clip-path="url(#a)"/>
<path d="m771.88 451.2v83.342" clip-path="url(#a)"/>
<path d="m931.81 366.7-82.541 84.501" clip-path="url(#a)"/>
<path d="m931.81 366.7-1.2897 84.501" clip-path="url(#a)"/>
<path d="m931.81 366.7 83.83 84.501" clip-path="url(#a)"/>
<path d="m849.27 451.2v83.342" clip-path="url(#a)"/>
<path d="m930.52 451.2v83.342" clip-path="url(#a)"/>
<path d="m249.56 451.2v83.342" clip-path="url(#a)"/>
<path d="m292.12 451.2v83.342" clip-path="url(#a)"/>
<path d="m57.069 196.52-2.9018 85.233" clip-path="url(#a)"/>
<path d="m57.069 196.52 2.9018 170.18" clip-path="url(#a)"/>
<path d="m75.447 451.2v83.342" clip-path="url(#a)"/>
<path d="m106.4 366.7-11.607 84.501" clip-path="url(#a)"/>
<path d="m106.4 366.7 11.607 84.501" clip-path="url(#a)"/>
<path d="m94.793 451.2v83.342" clip-path="url(#a)"/>
<path d="m118.01 451.2v83.342" clip-path="url(#a)"/>
<path d="m54.167 281.76 5.8036 84.944" clip-path="url(#a)" stroke-dasharray="3.7,1.6"/>
<path d="m54.167 281.76-5.8036 169.45" clip-path="url(#a)"/>
<path d="m59.971 366.7v84.501" clip-path="url(#a)"/>
<path d="m59.971 451.2v83.342" clip-path="url(#a)"/>
<path d="m48.364 451.2v83.342" clip-path="url(#a)"/>
<path d="m145.09 451.2v83.342" clip-path="url(#a)"/>
<path d="m501.05 451.2v83.342" clip-path="url(#a)"/>
<path d="m1015.6 451.2v83.342" clip-path="url(#a)"/>
</g>
<path d="m132.91 75.012 4.6294-3.8424q1.8468-1.5328 0.31396-3.3796l-4.9449-5.9577q-1.5328-1.8468-3.3796-0.31396l-4.6294 3.8424q-1.8468 1.5328-0.31396 3.3796l4.9449 5.9577q1.5328 1.8468 3.3796 0.31396z" clip-path="url(#a)" fill="#fff" stroke="#fff"/>
<g clip-path="url(#a)">
<g transform="translate(130.31 71.885) rotate(-39.692) scale(.08 -.08)">
<defs>
<path id="ao" d="m9.8125 72.906h9.8594v-29.891h35.844v29.891h9.8594v-72.906h-9.8594v34.719h-35.844v-34.719h-9.8594z"/>
</defs>
<use xlink:href="#ao"/>
</g>
</g>
<path d="m185.66 240.66 0.070705-4.4569q0.038069-2.3997-2.3616-2.4378l-7.7415-0.12281q-2.3997-0.038069-2.4378 2.3616l-0.070705 4.4569q-0.038069 2.3997 2.3616 2.4378l7.7415 0.12281q2.3997 0.038069 2.4378-2.3616z" clip-path="url(#a)" fill="#fff" stroke="#fff"/>
<g clip-path="url(#a)">
<g transform="translate(181.59 240.59) rotate(-89.091) scale(.08 -.08)">
<defs>
<path id="ax" d="m9.8125 72.906h9.8594v-64.609h35.5v-8.2969h-45.359z"/>
</defs>
<use xlink:href="#ax"/>
</g>
</g>
<path d="m250.86 72.181 5.2042 3.0185q2.0761 1.2041 3.2802-0.87192l3.8846-6.6975q1.2041-2.0761-0.87192-3.2802l-5.2042-3.0185q-2.0761-1.2041-3.2802 0.87192l-3.8846 6.6975q-1.2041 2.0761 0.87192 3.2802z" clip-path="url(#a)" fill="#fff" stroke="#fff"/>
<g clip-path="url(#a)">
<g transform="translate(252.9 68.665) rotate(30.114) scale(.08 -.08)">
<use xlink:href="#ao"/>
</g>
</g>
<path d="m169.93 241.8 0.51653-5.8322q0.21173-2.3906-2.1789-2.6024l-7.7123-0.68305q-2.3906-0.21173-2.6024 2.1789l-0.51653 5.8322q-0.21173 2.3906 2.1789 2.6024l7.7123 0.68305q2.3906 0.21173 2.6024-2.1789z" clip-path="url(#a)" fill="#fff" stroke="#fff"/>
<g clip-path="url(#a)">
<g transform="translate(165.88 241.44) rotate(-84.939) scale(.08 -.08)">
<defs>
<path id="ad" d="m8.6875 72.906h9.9219v-44.297q0-11.719 4.2344-16.875 4.25-5.1406 13.781-5.1406 9.4688 0 13.719 5.1406 4.25 5.1562 4.25 16.875v44.297h9.9062v-45.516q0-14.25-7.0625-21.531-7.0469-7.2812-20.812-7.2812-13.828 0-20.891 7.2812-7.0469 7.2812-7.0469 21.531z"/>
</defs>
<use xlink:href="#ad"/>
</g>
</g>
<path d="m73.718 158.05 1.3975-5.291q0.61289-2.3204-1.7075-2.9333l-7.4858-1.9772q-2.3204-0.61289-2.9333 1.7075l-1.3975 5.291q-0.6129 2.3204 1.7075 2.9333l7.4858 1.9772q2.3204 0.6129 2.9333-1.7075z" clip-path="url(#a)" fill="#fff" stroke="#fff"/>
<g clip-path="url(#a)">
<g transform="translate(69.789 157.01) rotate(-75.204) scale(.08 -.08)">
<defs>
<path id="p" d="m34.188 63.188-13.391-36.281h26.812zm-5.5781 9.7188h11.188l27.781-72.906h-10.25l-6.6406 18.703h-32.859l-6.6406-18.703h-10.406z"/>
</defs>
<use xlink:href="#p"/>
</g>
</g>
<path d="m83.784 283.63 0.05944-4.8234q0.029574-2.3998-2.3702-2.4294l-7.7419-0.095407q-2.3998-0.029573-2.4294 2.3702l-0.059441 4.8234q-0.029573 2.3998 2.3702 2.4294l7.7419 0.095406q2.3998 0.029574 2.4294-2.3702z" clip-path="url(#a)" fill="#fff" stroke="#fff"/>
<g clip-path="url(#a)">
<g transform="translate(79.721 283.58) rotate(-89.294) scale(.08 -.08)">
<defs>
<path id="an" d="m19.672 64.797v-27.391h12.406q6.8906 0 10.641 3.5625 3.7656 3.5625 3.7656 10.156 0 6.5469-3.7656 10.109-3.75 3.5625-10.641 3.5625zm-9.8594 8.1094h22.266q12.266 0 18.531-5.5469 6.2812-5.5469 6.2812-16.234 0-10.797-6.2812-16.312-6.2656-5.5156-18.531-5.5156h-12.406v-29.297h-9.8594z"/>
</defs>
<use xlink:href="#an"/>
</g>
</g>
<path d="m86.497 236.82 0.5698 5.4428q0.24989 2.387 2.6368 2.1371l7.7004-0.80615q2.387-0.24989 2.1371-2.6368l-0.5698-5.4428q-0.24989-2.387-2.6368-2.1371l-7.7004 0.80615q-2.387 0.24989-2.1371 2.6368z" clip-path="url(#a)" fill="#fff" stroke="#fff"/>
<g clip-path="url(#a)">
<g transform="translate(90.539 236.4) rotate(84.024) scale(.08 -.08)">
<use xlink:href="#p"/>
</g>
</g>
<path d="m169.77 475.97v33.808q0 2.4 2.4 2.4h7.7425q2.4 0 2.4-2.4v-33.808q0-2.4-2.4-2.4h-7.7425q-2.4 0-2.4 2.4z" clip-path="url(#a)" fill="#fff" stroke="#fff"/>
<g clip-path="url(#a)">
<g transform="translate(173.84 475.97) rotate(90) scale(.08 -.08)">
<defs>
<path id="f" d="m-0.29688 72.906h61.672v-8.3125h-25.875v-64.594h-9.9062v64.594h-25.891z"/>
<path id="l" d="m56.203 29.594v-4.3906h-41.312q0.59375-9.2812 5.5938-14.141t13.938-4.8594q5.1719 0 10.031 1.2656t9.6562 3.8125v-8.5q-4.8438-2.0469-9.9219-3.125t-10.297-1.0781q-13.094 0-20.734 7.6094-7.6406 7.625-7.6406 20.625 0 13.422 7.25 21.297 7.25 7.8906 19.562 7.8906 11.031 0 17.453-7.1094 6.4219-7.0938 6.4219-19.297zm-8.9844 2.6406q-0.09375 7.3594-4.125 11.75-4.0312 4.4062-10.672 4.4062-7.5156 0-12.031-4.25t-5.2031-11.969z"/>
<path id="g" d="m41.109 46.297q-1.5156 0.875-3.2969 1.2812-1.7812 0.42188-3.9219 0.42188-7.625 0-11.703-4.9531t-4.0781-14.234v-28.812h-9.0312v54.688h9.0312v-8.5q2.8438 4.9844 7.375 7.3906 4.5469 2.4219 11.047 2.4219 0.92188 0 2.0469-0.125 1.125-0.10938 2.4844-0.35938z"/>
<path id="i" d="m52 44.188q3.375 6.0625 8.0625 8.9375t11.031 2.875q8.5469 0 13.188-5.9844 4.6406-5.9688 4.6406-17v-33.016h-9.0312v32.719q0 7.8594-2.7969 11.656-2.7812 3.8125-8.4844 3.8125-6.9844 0-11.047-4.6406-4.0469-4.625-4.0469-12.641v-30.906h-9.0312v32.719q0 7.9062-2.7812 11.688t-8.5938 3.7812q-6.8906 0-10.953-4.6562-4.0469-4.6562-4.0469-12.625v-30.906h-9.0312v54.688h9.0312v-8.5q3.0781 5.0312 7.375 7.4219t10.203 2.3906q5.9688 0 10.141-3.0312 4.1719-3.0156 6.1719-8.7812z"/>
<path id="k" d="m9.4219 54.688h8.9844v-54.688h-8.9844zm0 21.297h8.9844v-11.391h-8.9844z"/>
<path id="h" d="m54.891 33.016v-33.016h-8.9844v32.719q0 7.7656-3.0312 11.609-3.0312 3.8594-9.0781 3.8594-7.2812 0-11.484-4.6406-4.2031-4.625-4.2031-12.641v-30.906h-9.0312v54.688h9.0312v-8.5q3.2344 4.9375 7.5938 7.375 4.375 2.4375 10.094 2.4375 9.4219 0 14.25-5.8281 4.8438-5.8281 4.8438-17.156z"/>
<path id="e" d="m34.281 27.484q-10.891 0-15.094-2.4844t-4.2031-8.5q0-4.7812 3.1562-7.5938 3.1562-2.7969 8.5625-2.7969 7.4844 0 12 5.2969t4.5156 14.078v2zm17.922 3.7188v-31.203h-8.9844v8.2969q-3.0781-4.9688-7.6719-7.3438t-11.234-2.375q-8.3906 0-13.359 4.7188-4.9531 4.7188-4.9531 12.625 0 9.2188 6.1719 13.906 6.1875 4.6875 18.438 4.6875h12.609v0.89062q0 6.2031-4.0781 9.5938t-11.453 3.3906q-4.6875 0-9.1406-1.125-4.4375-1.125-8.5312-3.375v8.3125q4.9219 1.9062 9.5625 2.8438 4.6406 0.95312 9.0312 0.95312 11.875 0 17.734-6.1562 5.8594-6.1406 5.8594-18.641z"/>
<path id="j" d="m9.4219 75.984h8.9844v-75.984h-8.9844z"/>
</defs>
<use xlink:href="#f"/>
<use x="44.083984" xlink:href="#l"/>
<use x="105.607422" xlink:href="#g"/>
<use x="144.970703" xlink:href="#i"/>
<use x="242.382812" xlink:href="#k"/>
<use x="270.166016" xlink:href="#h"/>
<use x="333.544922" xlink:href="#e"/>
<use x="394.824219" xlink:href="#j"/>
</g>
</g>
<path d="m275.65 285.8 1.8147-5.1629q0.79585-2.2642-1.4684-3.0601l-7.3044-2.5674q-2.2642-0.79585-3.0601 1.4684l-1.8147 5.1629q-0.79585 2.2642 1.4684 3.0601l7.3044 2.5674q2.2642 0.79585 3.0601-1.4684z" clip-path="url(#a)" fill="#fff" stroke="#fff"/>
<g clip-path="url(#a)">
<g transform="translate(271.82 284.45) rotate(-70.634) scale(.08 -.08)">
<use xlink:href="#p"/>
</g>
</g>
<path d="m306.04 243.31 1.3983-5.9992q0.54479-2.3374-1.7926-2.8821l-7.5404-1.7575q-2.3374-0.54479-2.8821 1.7926l-1.3983 5.9992q-0.54479 2.3374 1.7926 2.8821l7.5404 1.7575q2.3374 0.54479 2.8821-1.7926z" clip-path="url(#a)" fill="#fff" stroke="#fff"/>
<g clip-path="url(#a)">
<g transform="translate(302.08 242.39) rotate(-76.88) scale(.08 -.08)">
<defs>
<path id="ap" d="m19.672 64.797v-56.688h11.922q15.094 0 22.094 6.8281 7 6.8438 7 21.594 0 14.641-7 21.453t-22.094 6.8125zm-9.8594 8.1094h20.266q21.188 0 31.094-8.8125 9.9219-8.8125 9.9219-27.562 0-18.859-9.9688-27.703-9.9531-8.8281-31.047-8.8281h-20.266z"/>
</defs>
<use xlink:href="#ap"/>
</g>
</g>
<path d="m328.15 278.75 0.12133 5.0773q0.057334 2.3993 2.4566 2.342l7.7403-0.18496q2.3993-0.057335 2.342-2.4566l-0.12133-5.0773q-0.057335-2.3993-2.4566-2.342l-7.7403 0.18496q-2.3993 0.057334-2.342 2.4566z" clip-path="url(#a)" fill="#fff" stroke="#fff"/>
<g clip-path="url(#a)">
<g transform="translate(332.21 278.65) rotate(88.631) scale(.08 -.08)">
<defs>
<path id="ab" d="m53.516 70.516v-9.625q-5.6094 2.6875-10.594 4-4.9844 1.3281-9.625 1.3281-8.0469 0-12.422-3.125t-4.375-8.8906q0-4.8438 2.9062-7.3125 2.9062-2.4531 11.016-3.9688l5.9531-1.2188q11.031-2.1094 16.281-7.4062t5.25-14.172q0-10.609-7.1094-16.078-7.0938-5.4688-20.812-5.4688-5.1719 0-11.016 1.1719-5.8281 1.1719-12.078 3.4688v10.156q6-3.3594 11.766-5.0781 5.7656-1.7031 11.328-1.7031 8.4375 0 13.031 3.3125 4.5938 3.3281 4.5938 9.4844 0 5.3594-3.2969 8.3906t-10.812 4.5469l-6.0156 1.1719q-11.031 2.1875-15.969 6.875-4.9219 4.6875-4.9219 13.047 0 9.6719 6.8125 15.234t18.766 5.5625q5.1406 0 10.453-0.9375 5.3281-0.92188 10.891-2.7656z"/>
</defs>
<use xlink:href="#ab"/>
</g>
</g>
<path d="m410.67 158.19 4.8954 2.4461q2.1469 1.0728 3.2197-1.0741l3.4608-6.926q1.0728-2.1469-1.0741-3.2197l-4.8954-2.4461q-2.1469-1.0728-3.2197 1.0741l-3.4608 6.926q-1.0728 2.1469 1.0741 3.2197z" clip-path="url(#a)" fill="#fff" stroke="#fff"/>
<g clip-path="url(#a)">
<g transform="translate(412.49 154.55) rotate(26.551) scale(.08 -.08)">
<use xlink:href="#p"/>
</g>
</g>
<path d="m204.59 475.97v33.808q0 2.4 2.4 2.4h7.7425q2.4 0 2.4-2.4v-33.808q0-2.4-2.4-2.4h-7.7425q-2.4 0-2.4 2.4z" clip-path="url(#a)" fill="#fff" stroke="#fff"/>
<g clip-path="url(#a)">
<g transform="translate(208.66 475.97) rotate(90) scale(.08 -.08)">
<use xlink:href="#f"/>
<use x="44.083984" xlink:href="#l"/>
<use x="105.607422" xlink:href="#g"/>
<use x="144.970703" xlink:href="#i"/>
<use x="242.382812" xlink:href="#k"/>
<use x="270.166016" xlink:href="#h"/>
<use x="333.544922" xlink:href="#e"/>
<use x="394.824219" xlink:href="#j"/>
</g>
</g>
<path d="m265.66 412.94 1.2345-4.902q0.5861-2.3273-1.7412-2.9134l-7.5081-1.8908q-2.3273-0.5861-2.9134 1.7412l-1.2345 4.902q-0.5861 2.3273 1.7412 2.9134l7.5081 1.8908q2.3273 0.5861 2.9134-1.7412z" clip-path="url(#a)" fill="#fff" stroke="#fff"/>
<g clip-path="url(#a)">
<g transform="translate(261.72 411.94) rotate(-75.865) scale(.08 -.08)">
<defs>
<path id="w" d="m9.8125 72.906h46.094v-8.3125h-36.234v-21.578h34.719v-8.2969h-34.719v-26.422h37.109v-8.2969h-46.969z"/>
</defs>
<use xlink:href="#w"/>
</g>
</g>
<path d="m274.71 407.78 1.3642 5.4171q0.5861 2.3273 2.9134 1.7412l7.5081-1.8908q2.3273-0.5861 1.7412-2.9134l-1.3642-5.4171q-0.5861-2.3273-2.9134-1.7412l-7.5081 1.8908q-2.3273 0.5861-1.7412 2.9134z" clip-path="url(#a)" fill="#fff" stroke="#fff"/>
<g clip-path="url(#a)">
<g transform="translate(278.65 406.78) rotate(75.865) scale(.08 -.08)">
<defs>
<path id="ac" d="m64.406 67.281v-10.391q-4.9844 4.6406-10.625 6.9219-5.6406 2.2969-11.984 2.2969-12.5 0-19.141-7.6406t-6.6406-22.094q0-14.406 6.6406-22.047t19.141-7.6406q6.3438 0 11.984 2.2969t10.625 6.9375v-10.312q-5.1719-3.5156-10.969-5.2812-5.7812-1.75-12.219-1.75-16.562 0-26.094 10.125-9.5156 10.141-9.5156 27.672 0 17.578 9.5156 27.703 9.5312 10.141 26.094 10.141 6.5312 0 12.312-1.7344 5.7969-1.7344 10.875-5.2031z"/>
</defs>
<use xlink:href="#ac"/>
</g>
</g>
<path d="m332.27 475.97v33.808q0 2.4 2.4 2.4h7.7425q2.4 0 2.4-2.4v-33.808q0-2.4-2.4-2.4h-7.7425q-2.4 0-2.4 2.4z" clip-path="url(#a)" fill="#fff" stroke="#fff"/>
<g clip-path="url(#a)">
<g transform="translate(336.34 475.97) rotate(90) scale(.08 -.08)">
<use xlink:href="#f"/>
<use x="44.083984" xlink:href="#l"/>
<use x="105.607422" xlink:href="#g"/>
<use x="144.970703" xlink:href="#i"/>
<use x="242.382812" xlink:href="#k"/>
<use x="270.166016" xlink:href="#h"/>
<use x="333.544922" xlink:href="#e"/>
<use x="394.824219" xlink:href="#j"/>
</g>
</g>
<path d="m449.85 328.71 2.0438-4.6234q0.97033-2.1951-1.2248-3.1654l-7.0815-3.1303q-2.1951-0.97033-3.1654 1.2248l-2.0438 4.6234q-0.97034 2.1951 1.2248 3.1654l7.0815 3.1303q2.1951 0.97034 3.1654-1.2248z" clip-path="url(#a)" fill="#fff" stroke="#fff"/>
<g clip-path="url(#a)">
<g transform="translate(446.13 327.07) rotate(-66.152) scale(.08 -.08)">
<use xlink:href="#w"/>
</g>
</g>
<path d="m477.71 327.99 1.2488-5.4449q0.53653-2.3393-1.8027-2.8758l-7.5466-1.7309q-2.3393-0.53653-2.8758 1.8027l-1.2488 5.4449q-0.53653 2.3393 1.8027 2.8758l7.5466 1.7309q2.3393 0.53653 2.8758-1.8027z" clip-path="url(#a)" fill="#fff" stroke="#fff"/>
<g clip-path="url(#a)">
<g transform="translate(473.74 327.08) rotate(-77.082) scale(.08 -.08)">
<use xlink:href="#ac"/>
</g>
</g>
<path d="m582.05 243.63 4.5261 2.2511q2.1489 1.0688 3.2177-1.0801l3.448-6.9324q1.0688-2.1489-1.0801-3.2177l-4.5261-2.2511q-2.1489-1.0688-3.2177 1.0801l-3.448 6.9324q-1.0688 2.1489 1.0801 3.2177z" clip-path="url(#a)" fill="#fff" stroke="#fff"/>
<g clip-path="url(#a)">
<g transform="translate(583.86 239.99) rotate(26.444) scale(.08 -.08)">
<use xlink:href="#w"/>
</g>
</g>
<path d="m507.5 326.8 0.008648-5.855q0.003544-2.4-2.3965-2.4035l-7.7425-0.011436q-2.4-0.003545-2.4035 2.3965l-0.008648 5.855q-0.003544 2.4 2.3965 2.4035l7.7425 0.011435q2.4 0.003545 2.4035-2.3965z" clip-path="url(#a)" fill="#fff" stroke="#fff"/>
<g clip-path="url(#a)">
<g transform="translate(503.44 326.8) rotate(-89.915) scale(.08 -.08)">
<use xlink:href="#ad"/>
</g>
</g>
<path d="m382.57 475.97v33.808q0 2.4 2.4 2.4h7.7425q2.4 0 2.4-2.4v-33.808q0-2.4-2.4-2.4h-7.7425q-2.4 0-2.4 2.4z" clip-path="url(#a)" fill="#fff" stroke="#fff"/>
<g clip-path="url(#a)">
<g transform="translate(386.64 475.97) rotate(90) scale(.08 -.08)">
<use xlink:href="#f"/>
<use x="44.083984" xlink:href="#l"/>
<use x="105.607422" xlink:href="#g"/>
<use x="144.970703" xlink:href="#i"/>
<use x="242.382812" xlink:href="#k"/>
<use x="270.166016" xlink:href="#h"/>
<use x="333.544922" xlink:href="#e"/>
<use x="394.824219" xlink:href="#j"/>
</g>
</g>
<path d="m436.74 475.97v33.808q0 2.4 2.4 2.4h7.7425q2.4 0 2.4-2.4v-33.808q0-2.4-2.4-2.4h-7.7425q-2.4 0-2.4 2.4z" clip-path="url(#a)" fill="#fff" stroke="#fff"/>
<g clip-path="url(#a)">
<g transform="translate(440.8 475.97) rotate(90) scale(.08 -.08)">
<use xlink:href="#f"/>
<use x="44.083984" xlink:href="#l"/>
<use x="105.607422" xlink:href="#g"/>
<use x="144.970703" xlink:href="#i"/>
<use x="242.382812" xlink:href="#k"/>
<use x="270.166016" xlink:href="#h"/>
<use x="333.544922" xlink:href="#e"/>
<use x="394.824219" xlink:href="#j"/>
</g>
</g>
<path d="m559.42 373.15 4.4044-3.2479q1.9316-1.4244 0.5072-3.356l-4.5952-6.2314q-1.4244-1.9316-3.356-0.5072l-4.4044 3.2479q-1.9316 1.4244-0.5072 3.356l4.5952 6.2314q1.4244 1.9316 3.356 0.5072z" clip-path="url(#a)" fill="#fff" stroke="#fff"/>
<g clip-path="url(#a)">
<g transform="translate(557.01 369.88) rotate(-36.406) scale(.08 -.08)">
<use xlink:href="#p"/>
</g>
</g>
<path d="m621.62 372.22 3.0236-4.6645q1.3055-2.0139-0.70843-3.3194l-6.4969-4.2115q-2.0139-1.3055-3.3194 0.70843l-3.0236 4.6645q-1.3055 2.0139 0.70843 3.3194l6.4969 4.2115q2.0139 1.3055 3.3194-0.70843z" clip-path="url(#a)" fill="#fff" stroke="#fff"/>
<g clip-path="url(#a)">
<g transform="translate(618.21 370.01) rotate(-57.048) scale(.08 -.08)">
<defs>
<path id="am" d="m44.391 34.188q3.1719-1.0781 6.1719-4.5938t6.0312-9.6719l10.016-19.922h-10.609l-9.3125 18.703q-3.625 7.3281-7.0156 9.7188t-9.25 2.3906h-10.75v-30.812h-9.8594v72.906h22.266q12.5 0 18.656-5.2344 6.1562-5.2188 6.1562-15.766 0-6.8906-3.2031-11.438-3.2031-4.5312-9.2969-6.2812zm-24.719 30.609v-25.875h12.406q7.125 0 10.766 3.2969t3.6406 9.6875-3.6406 9.6406-10.766 3.25z"/>
</defs>
<use xlink:href="#am"/>
</g>
</g>
<path d="m656.25 370.29 1.158-4.4531q0.60403-2.3227-1.7187-2.9268l-7.4933-1.9486q-2.3227-0.60403-2.9268 1.7187l-1.158 4.4531q-0.60403 2.3227 1.7187 2.9268l7.4933 1.9486q2.3227 0.60404 2.9268-1.7187z" clip-path="url(#a)" fill="#fff" stroke="#fff"/>
<g clip-path="url(#a)">
<g transform="translate(652.32 369.26) rotate(-75.423) scale(.08 -.08)">
<defs>
<path id="ay" d="m9.8125 72.906h41.891v-8.3125h-32.031v-21.484h28.906v-8.2969h-28.906v-34.812h-9.8594z"/>
</defs>
<use xlink:href="#ay"/>
</g>
</g>
<path d="m678.92 364.37 0.91948 6.091q0.35824 2.3731 2.7314 2.0149l7.6558-1.1557q2.3731-0.35824 2.0149-2.7314l-0.91948-6.091q-0.35824-2.3731-2.7314-2.0149l-7.6558 1.1557q-2.3731 0.35824-2.0149 2.7314z" clip-path="url(#a)" fill="#fff" stroke="#fff"/>
<g clip-path="url(#a)">
<g transform="translate(682.94 363.77) rotate(81.416) scale(.08 -.08)">
<use xlink:href="#ap"/>
</g>
</g>
<path d="m715.64 367.45 2.5638 4.3841q1.2116 2.0717 3.2833 0.86019l6.6835-3.9085q2.0717-1.2116 0.86019-3.2833l-2.5638-4.3841q-1.2116-2.0717-3.2833-0.86019l-6.6835 3.9085q-2.0717 1.2116-0.86019 3.2833z" clip-path="url(#a)" fill="#fff" stroke="#fff"/>
<g clip-path="url(#a)">
<g transform="translate(719.15 365.4) rotate(59.681) scale(.08 -.08)">
<use xlink:href="#ab"/>
</g>
</g>
<path d="m797.74 329.34 5.2 1.7054q2.2805 0.74789 3.0284-1.5326l2.4127-7.357q0.74789-2.2805-1.5326-3.0284l-5.2-1.7054q-2.2805-0.74789-3.0284 1.5326l-2.4127 7.357q-0.74789 2.2805 1.5326 3.0284z" clip-path="url(#a)" fill="#fff" stroke="#fff"/>
<g clip-path="url(#a)">
<g transform="translate(799.01 325.48) rotate(18.157) scale(.08 -.08)">
<use xlink:href="#p"/>
</g>
</g>
<path d="m556.68 475.97v33.808q0 2.4 2.4 2.4h7.7425q2.4 0 2.4-2.4v-33.808q0-2.4-2.4-2.4h-7.7425q-2.4 0-2.4 2.4z" clip-path="url(#a)" fill="#fff" stroke="#fff"/>
<g clip-path="url(#a)">
<g transform="translate(560.75 475.97) rotate(90) scale(.08 -.08)">
<use xlink:href="#f"/>
<use x="44.083984" xlink:href="#l"/>
<use x="105.607422" xlink:href="#g"/>
<use x="144.970703" xlink:href="#i"/>
<use x="242.382812" xlink:href="#k"/>
<use x="270.166016" xlink:href="#h"/>
<use x="333.544922" xlink:href="#e"/>
<use x="394.824219" xlink:href="#j"/>
</g>
</g>
<path d="m622.46 475.97v33.808q0 2.4 2.4 2.4h7.7425q2.4 0 2.4-2.4v-33.808q0-2.4-2.4-2.4h-7.7425q-2.4 0-2.4 2.4z" clip-path="url(#a)" fill="#fff" stroke="#fff"/>
<g clip-path="url(#a)">
<g transform="translate(626.52 475.97) rotate(90) scale(.08 -.08)">
<use xlink:href="#f"/>
<use x="44.083984" xlink:href="#l"/>
<use x="105.607422" xlink:href="#g"/>
<use x="144.970703" xlink:href="#i"/>
<use x="242.382812" xlink:href="#k"/>
<use x="270.166016" xlink:href="#h"/>
<use x="333.544922" xlink:href="#e"/>
<use x="394.824219" xlink:href="#j"/>
</g>
</g>
<path d="m692.1 475.97v33.808q0 2.4 2.4 2.4h7.7425q2.4 0 2.4-2.4v-33.808q0-2.4-2.4-2.4h-7.7425q-2.4 0-2.4 2.4z" clip-path="url(#a)" fill="#fff" stroke="#fff"/>
<g clip-path="url(#a)">
<g transform="translate(696.16 475.97) rotate(90) scale(.08 -.08)">
<use xlink:href="#f"/>
<use x="44.083984" xlink:href="#l"/>
<use x="105.607422" xlink:href="#g"/>
<use x="144.970703" xlink:href="#i"/>
<use x="242.382812" xlink:href="#k"/>
<use x="270.166016" xlink:href="#h"/>
<use x="333.544922" xlink:href="#e"/>
<use x="394.824219" xlink:href="#j"/>
</g>
</g>
<path d="m765.61 475.97v33.808q0 2.4 2.4 2.4h7.7425q2.4 0 2.4-2.4v-33.808q0-2.4-2.4-2.4h-7.7425q-2.4 0-2.4 2.4z" clip-path="url(#a)" fill="#fff" stroke="#fff"/>
<g clip-path="url(#a)">
<g transform="translate(769.68 475.97) rotate(90) scale(.08 -.08)">
<use xlink:href="#f"/>
<use x="44.083984" xlink:href="#l"/>
<use x="105.607422" xlink:href="#g"/>
<use x="144.970703" xlink:href="#i"/>
<use x="242.382812" xlink:href="#k"/>
<use x="270.166016" xlink:href="#h"/>
<use x="333.544922" xlink:href="#e"/>
<use x="394.824219" xlink:href="#j"/>
</g>
</g>
<path d="m893.26 415.14 3.5322-3.6161q1.677-1.7169-0.039832-3.3939l-5.5386-5.4101q-1.7169-1.677-3.3939 0.039833l-3.5322 3.6161q-1.677 1.7169 0.039833 3.3939l5.5386 5.4101q1.7169 1.677 3.3939-0.039833z" clip-path="url(#a)" fill="#fff" stroke="#fff"/>
<g clip-path="url(#a)">
<g transform="translate(890.35 412.3) rotate(-45.672) scale(.08 -.08)">
<use xlink:href="#w"/>
</g>
</g>
<path d="m937.39 411.84 0.08525-5.5856q0.036626-2.3997-2.3631-2.4363l-7.7416-0.11816q-2.3997-0.036626-2.4363 2.3631l-0.08525 5.5856q-0.036625 2.3997 2.3631 2.4363l7.7416 0.11816q2.3997 0.036625 2.4363-2.3631z" clip-path="url(#a)" fill="#fff" stroke="#fff"/>
<g clip-path="url(#a)">
<g transform="translate(933.33 411.78) rotate(-89.126) scale(.08 -.08)">
<use xlink:href="#ac"/>
</g>
</g>
<path d="m967.21 411.29 4.1236 4.1566q1.6903 1.7038 3.3941 0.013526l5.4965-5.4529q1.7038-1.6903 0.013526-3.3941l-4.1236-4.1566q-1.6903-1.7038-3.3941-0.013526l-5.4965 5.4529q-1.7038 1.6903-0.013526 3.3941z" clip-path="url(#a)" fill="#fff" stroke="#fff"/>
<g clip-path="url(#a)">
<g transform="translate(970.09 408.43) rotate(45.228) scale(.08 -.08)">
<use xlink:href="#ad"/>
</g>
</g>
<path d="m842.99 475.97v33.808q0 2.4 2.4 2.4h7.7425q2.4 0 2.4-2.4v-33.808q0-2.4-2.4-2.4h-7.7425q-2.4 0-2.4 2.4z" clip-path="url(#a)" fill="#fff" stroke="#fff"/>
<g clip-path="url(#a)">
<g transform="translate(847.06 475.97) rotate(90) scale(.08 -.08)">
<use xlink:href="#f"/>
<use x="44.083984" xlink:href="#l"/>
<use x="105.607422" xlink:href="#g"/>
<use x="144.970703" xlink:href="#i"/>
<use x="242.382812" xlink:href="#k"/>
<use x="270.166016" xlink:href="#h"/>
<use x="333.544922" xlink:href="#e"/>
<use x="394.824219" xlink:href="#j"/>
</g>
</g>
<path d="m924.25 475.97v33.808q0 2.4 2.4 2.4h7.7425q2.4 0 2.4-2.4v-33.808q0-2.4-2.4-2.4h-7.7425q-2.4 0-2.4 2.4z" clip-path="url(#a)" fill="#fff" stroke="#fff"/>
<g clip-path="url(#a)">
<g transform="translate(928.31 475.97) rotate(90) scale(.08 -.08)">
<use xlink:href="#f"/>
<use x="44.083984" xlink:href="#l"/>
<use x="105.607422" xlink:href="#g"/>
<use x="144.970703" xlink:href="#i"/>
<use x="242.382812" xlink:href="#k"/>
<use x="270.166016" xlink:href="#h"/>
<use x="333.544922" xlink:href="#e"/>
<use x="394.824219" xlink:href="#j"/>
</g>
</g>
<path d="m243.29 475.97v33.808q0 2.4 2.4 2.4h7.7425q2.4 0 2.4-2.4v-33.808q0-2.4-2.4-2.4h-7.7425q-2.4 0-2.4 2.4z" clip-path="url(#a)" fill="#fff" stroke="#fff"/>
<g clip-path="url(#a)">
<g transform="translate(247.35 475.97) rotate(90) scale(.08 -.08)">
<use xlink:href="#f"/>
<use x="44.083984" xlink:href="#l"/>
<use x="105.607422" xlink:href="#g"/>
<use x="144.970703" xlink:href="#i"/>
<use x="242.382812" xlink:href="#k"/>
<use x="270.166016" xlink:href="#h"/>
<use x="333.544922" xlink:href="#e"/>
<use x="394.824219" xlink:href="#j"/>
</g>
</g>
<path d="m285.85 475.97v33.808q0 2.4 2.4 2.4h7.7425q2.4 0 2.4-2.4v-33.808q0-2.4-2.4-2.4h-7.7425q-2.4 0-2.4 2.4z" clip-path="url(#a)" fill="#fff" stroke="#fff"/>
<g clip-path="url(#a)">
<g transform="translate(289.91 475.97) rotate(90) scale(.08 -.08)">
<use xlink:href="#f"/>
<use x="44.083984" xlink:href="#l"/>
<use x="105.607422" xlink:href="#g"/>
<use x="144.970703" xlink:href="#i"/>
<use x="242.382812" xlink:href="#k"/>
<use x="270.166016" xlink:href="#h"/>
<use x="333.544922" xlink:href="#e"/>
<use x="394.824219" xlink:href="#j"/>
</g>
</g>
<path d="m61.8 241.88 0.172-5.0521q0.081662-2.3986-2.3169-2.4803l-7.738-0.26344q-2.3986-0.081662-2.4803 2.3169l-0.172 5.0521q-0.081662 2.3986 2.3169 2.4803l7.738 0.26344q2.3986 0.081662 2.4803-2.3169z" clip-path="url(#a)" fill="#fff" stroke="#fff"/>
<g clip-path="url(#a)">
<g transform="translate(57.738 241.74) rotate(-88.05) scale(.08 -.08)">
<use xlink:href="#w"/>
</g>
</g>
<path d="m52.202 278.93 0.095241 5.5854q0.040918 2.3997 2.4406 2.3587l7.7414-0.132q2.3997-0.040919 2.3587-2.4406l-0.095241-5.5854q-0.040918-2.3997-2.4406-2.3587l-7.7414 0.132q-2.3997 0.040918-2.3587 2.4406z" clip-path="url(#a)" fill="#fff" stroke="#fff"/>
<g clip-path="url(#a)">
<g transform="translate(56.265 278.86) rotate(89.023) scale(.08 -.08)">
<use xlink:href="#ac"/>
</g>
</g>
<path d="m69.176 475.97v33.808q0 2.4 2.4 2.4h7.7425q2.4 0 2.4-2.4v-33.808q0-2.4-2.4-2.4h-7.7425q-2.4 0-2.4 2.4z" clip-path="url(#a)" fill="#fff" stroke="#fff"/>
<g clip-path="url(#a)">
<g transform="translate(73.24 475.97) rotate(90) scale(.08 -.08)">
<use xlink:href="#f"/>
<use x="44.083984" xlink:href="#l"/>
<use x="105.607422" xlink:href="#g"/>
<use x="144.970703" xlink:href="#i"/>
<use x="242.382812" xlink:href="#k"/>
<use x="270.166016" xlink:href="#h"/>
<use x="333.544922" xlink:href="#e"/>
<use x="394.824219" xlink:href="#j"/>
</g>
</g>
<path d="m106.43 412.56 0.75646-5.507q0.3266-2.3777-2.0511-2.7043l-7.6705-1.0536q-2.3777-0.3266-2.7043 2.0511l-0.75646 5.507q-0.3266 2.3777 2.0511 2.7043l7.6705 1.0536q2.3777 0.3266 2.7043-2.0511z" clip-path="url(#a)" fill="#fff" stroke="#fff"/>
<g clip-path="url(#a)">
<g transform="translate(102.41 412.01) rotate(-82.179) scale(.08 -.08)">
<use xlink:href="#am"/>
</g>
</g>
<path d="m104.98 403.39 1.7679 12.87q0.3266 2.3777 2.7043 2.0511l7.9256-1.0887q2.3777-0.3266 2.0511-2.7043l-1.7679-12.87q-0.3266-2.3777-2.7043-2.0511l-7.9256 1.0887q-2.3777 0.3266-2.0511 2.7043z" clip-path="url(#a)" fill="#fff" stroke="#fff"/>
<g clip-path="url(#a)">
<g transform="translate(109.23 402.81) rotate(82.179) scale(.08 -.08)">
<defs>
<path id="as" d="m21 76.422v-100h-8.2969v100z"/>
</defs>
<use xlink:href="#p"/>
<use x="68.408203" xlink:href="#as"/>
<use x="102.099609" xlink:href="#an"/>
</g>
</g>
<path d="m88.521 475.97v33.808q0 2.4 2.4 2.4h7.7425q2.4 0 2.4-2.4v-33.808q0-2.4-2.4-2.4h-7.7425q-2.4 0-2.4 2.4z" clip-path="url(#a)" fill="#fff" stroke="#fff"/>
<g clip-path="url(#a)">
<g transform="translate(92.585 475.97) rotate(90) scale(.08 -.08)">
<use xlink:href="#f"/>
<use x="44.083984" xlink:href="#l"/>
<use x="105.607422" xlink:href="#g"/>
<use x="144.970703" xlink:href="#i"/>
<use x="242.382812" xlink:href="#k"/>
<use x="270.166016" xlink:href="#h"/>
<use x="333.544922" xlink:href="#e"/>
<use x="394.824219" xlink:href="#j"/>
</g>
</g>
<path d="m111.74 475.97v33.808q0 2.4 2.4 2.4h7.7425q2.4 0 2.4-2.4v-33.808q0-2.4-2.4-2.4h-7.7425q-2.4 0-2.4 2.4z" clip-path="url(#a)" fill="#fff" stroke="#fff"/>
<g clip-path="url(#a)">
<g transform="translate(115.8 475.97) rotate(90) scale(.08 -.08)">
<use xlink:href="#f"/>
<use x="44.083984" xlink:href="#l"/>
<use x="105.607422" xlink:href="#g"/>
<use x="144.970703" xlink:href="#i"/>
<use x="242.382812" xlink:href="#k"/>
<use x="270.166016" xlink:href="#h"/>
<use x="333.544922" xlink:href="#e"/>
<use x="394.824219" xlink:href="#j"/>
</g>
</g>
<path d="m50.626 321.93 0.37303 5.4598q0.16359 2.3944 2.558 2.2308l7.7245-0.52776q2.3944-0.16359 2.2308-2.558l-0.37303-5.4598q-0.16359-2.3944-2.558-2.2308l-7.7245 0.52776q-2.3944 0.16359-2.2308 2.558z" clip-path="url(#a)" fill="#fff" stroke="#fff"/>
<g clip-path="url(#a)">
<g transform="translate(54.68 321.65) rotate(86.091) scale(.08 -.08)">
<use xlink:href="#p"/>
</g>
</g>
<path d="m57.446 369.23 0.17385-5.0758q0.082154-2.3986-2.3164-2.4807l-7.738-0.26503q-2.3986-0.082154-2.4807 2.3164l-0.17385 5.0758q-0.082153 2.3986 2.3164 2.4807l7.738 0.26503q2.3986 0.082153 2.4807-2.3164z" clip-path="url(#a)" fill="#fff" stroke="#fff"/>
<g clip-path="url(#a)">
<g transform="translate(53.385 369.09) rotate(-88.038) scale(.08 -.08)">
<use xlink:href="#ab"/>
</g>
</g>
<path d="m53.571 402.33v13.246q0 2.4 2.4 2.4h8q2.4 0 2.4-2.4v-13.246q0-2.4-2.4-2.4h-8q-2.4 0-2.4 2.4z" clip-path="url(#a)" fill="#fff" stroke="#fff"/>
<g clip-path="url(#a)">
<g transform="translate(57.857 402.33) rotate(90) scale(.08 -.08)">
<use xlink:href="#p"/>
<use x="68.408203" xlink:href="#as"/>
<use x="102.099609" xlink:href="#ab"/>
</g>
</g>
<path d="m53.7 475.97v33.808q0 2.4 2.4 2.4h7.7425q2.4 0 2.4-2.4v-33.808q0-2.4-2.4-2.4h-7.7425q-2.4 0-2.4 2.4z" clip-path="url(#a)" fill="#fff" stroke="#fff"/>
<g clip-path="url(#a)">
<g transform="translate(57.763 475.97) rotate(90) scale(.08 -.08)">
<use xlink:href="#f"/>
<use x="44.083984" xlink:href="#l"/>
<use x="105.607422" xlink:href="#g"/>
<use x="144.970703" xlink:href="#i"/>
<use x="242.382812" xlink:href="#k"/>
<use x="270.166016" xlink:href="#h"/>
<use x="333.544922" xlink:href="#e"/>
<use x="394.824219" xlink:href="#j"/>
</g>
</g>
<path d="m42.092 475.97v33.808q0 2.4 2.4 2.4h7.7425q2.4 0 2.4-2.4v-33.808q0-2.4-2.4-2.4h-7.7425q-2.4 0-2.4 2.4z" clip-path="url(#a)" fill="#fff" stroke="#fff"/>
<g clip-path="url(#a)">
<g transform="translate(46.156 475.97) rotate(90) scale(.08 -.08)">
<use xlink:href="#f"/>
<use x="44.083984" xlink:href="#l"/>
<use x="105.607422" xlink:href="#g"/>
<use x="144.970703" xlink:href="#i"/>
<use x="242.382812" xlink:href="#k"/>
<use x="270.166016" xlink:href="#h"/>
<use x="333.544922" xlink:href="#e"/>
<use x="394.824219" xlink:href="#j"/>
</g>
</g>
<path d="m138.82 475.97v33.808q0 2.4 2.4 2.4h7.7425q2.4 0 2.4-2.4v-33.808q0-2.4-2.4-2.4h-7.7425q-2.4 0-2.4 2.4z" clip-path="url(#a)" fill="#fff" stroke="#fff"/>
<g clip-path="url(#a)">
<g transform="translate(142.88 475.97) rotate(90) scale(.08 -.08)">
<use xlink:href="#f"/>
<use x="44.083984" xlink:href="#l"/>
<use x="105.607422" xlink:href="#g"/>
<use x="144.970703" xlink:href="#i"/>
<use x="242.382812" xlink:href="#k"/>
<use x="270.166016" xlink:href="#h"/>
<use x="333.544922" xlink:href="#e"/>
<use x="394.824219" xlink:href="#j"/>
</g>
</g>
<path d="m494.78 475.97v33.808q0 2.4 2.4 2.4h7.7425q2.4 0 2.4-2.4v-33.808q0-2.4-2.4-2.4h-7.7425q-2.4 0-2.4 2.4z" clip-path="url(#a)" fill="#fff" stroke="#fff"/>
<g clip-path="url(#a)">
<g transform="translate(498.84 475.97) rotate(90) scale(.08 -.08)">
<use xlink:href="#f"/>
<use x="44.083984" xlink:href="#l"/>
<use x="105.607422" xlink:href="#g"/>
<use x="144.970703" xlink:href="#i"/>
<use x="242.382812" xlink:href="#k"/>
<use x="270.166016" xlink:href="#h"/>
<use x="333.544922" xlink:href="#e"/>
<use x="394.824219" xlink:href="#j"/>
</g>
</g>
<path d="m1009.4 475.97v33.808q0 2.4 2.4 2.4h7.7425q2.4 0 2.4-2.4v-33.808q0-2.4-2.4-2.4h-7.7425q-2.4 0-2.4 2.4z" clip-path="url(#a)" fill="#fff" stroke="#fff"/>
<g clip-path="url(#a)">
<g transform="translate(1013.4 475.97) rotate(90) scale(.08 -.08)">
<use xlink:href="#f"/>
<use x="44.083984" xlink:href="#l"/>
<use x="105.607422" xlink:href="#g"/>
<use x="144.970703" xlink:href="#i"/>
<use x="242.382812" xlink:href="#k"/>
<use x="270.166016" xlink:href="#h"/>
<use x="333.544922" xlink:href="#e"/>
<use x="394.824219" xlink:href="#j"/>
</g>
</g>
<defs>
<path id="b" d="m0 8.6603c2.2967 0 4.4997-0.9125 6.1237-2.5365 1.624-1.624 2.5365-3.827 2.5365-6.1237s-0.9125-4.4997-2.5365-6.1237c-1.624-1.624-3.827-2.5365-6.1237-2.5365s-4.4997 0.9125-6.1237 2.5365c-1.624 1.624-2.5365 3.827-2.5365 6.1237s0.9125 4.4997 2.5365 6.1237c1.624 1.624 3.827 2.5365 6.1237 2.5365z"/>
</defs>
<g clip-path="url(#a)" fill="#ffffff" stroke="#ffffff">
<use x="48.363636" y="534.545455" xlink:href="#b"/>
<use x="59.970909" y="534.545455" xlink:href="#b"/>
<use x="75.447273" y="534.545455" xlink:href="#b"/>
<use x="94.792727" y="534.545455" xlink:href="#b"/>
<use x="118.007273" y="534.545455" xlink:href="#b"/>
<use x="145.090909" y="534.545455" xlink:href="#b"/>
<use x="176.043636" y="534.545455" xlink:href="#b"/>
<use x="210.865455" y="534.545455" xlink:href="#b"/>
<use x="249.556364" y="534.545455" xlink:href="#b"/>
<use x="292.116364" y="534.545455" xlink:href="#b"/>
<use x="338.545455" y="534.545455" xlink:href="#b"/>
<use x="388.843636" y="534.545455" xlink:href="#b"/>
<use x="443.010909" y="534.545455" xlink:href="#b"/>
<use x="501.047273" y="534.545455" xlink:href="#b"/>
<use x="562.952727" y="534.545455" xlink:href="#b"/>
<use x="628.727273" y="534.545455" xlink:href="#b"/>
<use x="698.370909" y="534.545455" xlink:href="#b"/>
<use x="771.883636" y="534.545455" xlink:href="#b"/>
<use x="849.265455" y="534.545455" xlink:href="#b"/>
<use x="930.516364" y="534.545455" xlink:href="#b"/>
<use x="1015.636364" y="534.545455" xlink:href="#b"/>
<use x="182.797753" y="25.454545" xlink:href="#b"/>
<use x="79.638788" y="111.075811" xlink:href="#b"/>
<use x="176.043636" y="451.203712" xlink:href="#b"/>
<use x="330.417677" y="111.075811" xlink:href="#b"/>
<use x="210.865455" y="451.203712" xlink:href="#b"/>
<use x="270.836364" y="366.702593" xlink:href="#b"/>
<use x="338.545455" y="451.203712" xlink:href="#b"/>
<use x="501.423434" y="196.524853" xlink:href="#b"/>
<use x="388.843636" y="451.203712" xlink:href="#b"/>
<use x="443.010909" y="451.203712" xlink:href="#b"/>
<use x="672.791919" y="281.758274" xlink:href="#b"/>
<use x="562.952727" y="451.203712" xlink:href="#b"/>
<use x="628.727273" y="451.203712" xlink:href="#b"/>
<use x="698.370909" y="451.203712" xlink:href="#b"/>
<use x="771.883636" y="451.203712" xlink:href="#b"/>
<use x="931.806061" y="366.702593" xlink:href="#b"/>
<use x="849.265455" y="451.203712" xlink:href="#b"/>
<use x="930.516364" y="451.203712" xlink:href="#b"/>
<use x="249.556364" y="451.203712" xlink:href="#b"/>
<use x="292.116364" y="451.203712" xlink:href="#b"/>
<use x="57.069091" y="196.524853" xlink:href="#b"/>
<use x="75.447273" y="451.203712" xlink:href="#b"/>
<use x="106.4" y="366.702593" xlink:href="#b"/>
<use x="94.792727" y="451.203712" xlink:href="#b"/>
<use x="118.007273" y="451.203712" xlink:href="#b"/>
<use x="54.167273" y="281.758274" xlink:href="#b"/>
<use x="59.970909" y="366.702593" xlink:href="#b"/>
<use x="59.970909" y="451.203712" xlink:href="#b"/>
<use x="48.363636" y="451.203712" xlink:href="#b"/>
<use x="145.090909" y="451.203712" xlink:href="#b"/>
<use x="501.047273" y="451.203712" xlink:href="#b"/>
<use x="1015.636364" y="451.203712" xlink:href="#b"/>
</g>
<g clip-path="url(#a)">
<g transform="translate(18.978 537.3) scale(.1 -.1)">
<defs>
<path id="bh" d="m9.8125 72.906h14.703l18.594-49.609 18.703 49.609h14.703v-72.906h-9.625v64.016l-18.797-50h-9.9062l-18.797 50v-64.016h-9.5781z"/>
<path id="v" d="m34.281 27.484q-10.891 0-15.094-2.4844t-4.2031-8.5q0-4.7812 3.1562-7.5938 3.1562-2.7969 8.5625-2.7969 7.4844 0 12 5.2969t4.5156 14.078v2zm17.922 3.7188v-31.203h-8.9844v8.2969q-3.0781-4.9688-7.6719-7.3438t-11.234-2.375q-8.3906 0-13.359 4.7188-4.9531 4.7188-4.9531 12.625 0 9.2188 6.1719 13.906 6.1875 4.6875 18.438 4.6875h12.609v0.89062q0 6.2031-4.0781 9.5938t-11.453 3.3906q-4.6875 0-9.1406-1.125-4.4375-1.125-8.5312-3.375v8.3125q4.9219 1.9062 9.5625 2.8438 4.6406 0.95312 9.0312 0.95312 11.875 0 17.734-6.1562 5.8594-6.1406 5.8594-18.641z"/>
<path id="r" d="m3.7188 0v7.4688q8.875 1.375 11.609 7.5156 3.3281 8.6562 3.3281 30.766v8.9375h36.953v-54.688h-8.9844v47.516h-18.984v-5.4219q0-21.094-4.2969-30.562-4.5938-10.109-19.625-11.531z"/>
<path id="o" d="m56.203 29.594v-4.3906h-41.312q0.59375-9.2812 5.5938-14.141t13.938-4.8594q5.1719 0 10.031 1.2656t9.6562 3.8125v-8.5q-4.8438-2.0469-9.9219-3.125t-10.297-1.0781q-13.094 0-20.734 7.6094-7.6406 7.625-7.6406 20.625 0 13.422 7.25 21.297 7.25 7.8906 19.562 7.8906 11.031 0 17.453-7.1094 6.4219-7.0938 6.4219-19.297zm-8.9844 2.6406q-0.09375 7.3594-4.125 11.75-4.0312 4.4062-10.672 4.4062-7.5156 0-12.031-4.25t-5.2031-11.969z"/>
<path id="t" d="m9.0781 54.688h9.0312v-22.312h29.156v22.312h9.0312v-54.688h-9.0312v25.203h-29.156v-25.203h-9.0312z"/>
<path id="at" d="m43.453 16.219q0 4.3906-3.2031 6.6875-3.1875 2.2969-9.3438 2.2969h-12.797v-18.031h12.797q6.1562 0 9.3438 2.3125 3.2031 2.3281 3.2031 6.7344zm-34.375 38.469h9.0312v-22.312h13.188q10.453 0 16.094-3.9844 5.6406-3.9688 5.6406-12.172t-5.6406-12.219q-5.6406-4-16.094-4h-22.219z"/>
<path id="z" d="m9.0781 54.688h8.9375v-25.688l25.344 25.688h11.031l-20.891-21.141 23.578-33.547h-10.062l-19.375 27.594-9.625-9.7656v-17.828h-8.9375z"/>
<path id="aa" d="m55.906 54.688v-54.688h-8.9375v43.891l-26.359-43.891h-11.531v54.688h8.9375v-43.797l26.328 43.797z"/>
<path id="av" d="m55.906 54.688v-54.688h-8.9375v43.891l-26.359-43.891h-11.531v54.688h8.9375v-43.797l26.328 43.797zm-38.688 20.828h5.7656q0.53125-3.6562 2.8906-5.5 2.375-1.8281 6.625-1.8281 4.2031 0 6.5469 1.8125t2.9688 5.5156h5.7656q-0.48438-6.9844-4.3438-10.5t-10.938-3.5156-10.938 3.5156-4.3438 10.5z"/>
</defs>
<use xlink:href="#bh"/>
<use x="86.279297" xlink:href="#v"/>
<use x="147.558594" xlink:href="#r"/>
<use x="211.474609" xlink:href="#o"/>
<use x="272.998047" xlink:href="#t"/>
<use x="338.378906" xlink:href="#at"/>
<use x="397.314453" xlink:href="#z"/>
<use x="457.714844" xlink:href="#aa"/>
<use x="522.705078" xlink:href="#av"/>
</g>
</g>
<g clip-path="url(#a)">
<g transform="translate(43.607 537.3) scale(.1 -.1)">
<defs>
<path id="bg" d="m56.297 54.688v-54.688h-9.0312v47.516h-29.156v-47.516h-9.0312v54.688z"/>
<path id="s" d="m18.109 8.2031v-29h-9.0312v75.484h9.0312v-8.2969q2.8438 4.875 7.1562 7.2344 4.3281 2.375 10.328 2.375 9.9688 0 16.188-7.9062 6.2344-7.9062 6.2344-20.797t-6.2344-20.812q-6.2188-7.9062-16.188-7.9062-6 0-10.328 2.375-4.3125 2.375-7.1562 7.25zm30.578 19.094q0 9.9062-4.0781 15.547t-11.203 5.6406q-7.1406 0-11.219-5.6406t-4.0781-15.547 4.0781-15.547 11.219-5.6406q7.125 0 11.203 5.6406t4.0781 15.547z"/>
<path id="be" d="m56.297 0h-47.219v54.688h9.0312v-47.516h29.156v47.516h9.0312v-47.516h7.1875v-20.984h-7.1875z"/>
</defs>
<use xlink:href="#bg"/>
<use x="65.380859" xlink:href="#s"/>
<use x="128.857422" xlink:href="#aa"/>
<use x="193.847656" xlink:href="#t"/>
<use x="259.228516" xlink:href="#be"/>
</g>
</g>
<g clip-path="url(#a)">
<g transform="translate(53.507 537.3) scale(.1 -.1)">
<defs>
<path id="y" d="m48.781 52.594v-8.4062q-3.8125 2.1094-7.6406 3.1562t-7.7344 1.0469q-8.75 0-13.594-5.5469-4.8281-5.5312-4.8281-15.547t4.8281-15.562q4.8438-5.5312 13.594-5.5312 3.9062 0 7.7344 1.0469t7.6406 3.1562v-8.3125q-3.7656-1.75-7.7969-2.625-4.0156-0.89062-8.5625-0.89062-12.359 0-19.641 7.7656-7.2656 7.7656-7.2656 20.953 0 13.375 7.3438 21.031 7.3594 7.6719 20.156 7.6719 4.1406 0 8.0938-0.85938 3.9531-0.84375 7.6719-2.5469z"/>
<path id="al" d="m9.0781 54.688h13.141l15.531-36.625 15.578 36.625h13.031v-54.688h-9.0312v46.094l-15.094-35.594h-8.9844l-15.141 35.594v-46.094h-9.0312z"/>
<path id="q" d="m30.609 48.391q-7.2188 0-11.422-5.6406t-4.2031-15.453 4.1719-15.453q4.1875-5.6406 11.453-5.6406 7.1875 0 11.375 5.6562 4.2031 5.6719 4.2031 15.438 0 9.7188-4.2031 15.406-4.1875 5.6875-11.375 5.6875zm0 7.6094q11.719 0 18.406-7.625 6.7031-7.6094 6.7031-21.078 0-13.422-6.7031-21.078-6.6875-7.6406-18.406-7.6406-11.766 0-18.438 7.6406-6.6562 7.6562-6.6562 21.078 0 13.469 6.6562 21.078 6.6719 7.625 18.438 7.625z"/>
<path id="x" d="m2.9375 54.688h52.391v-7.1719h-21.781v-47.516h-8.8438v47.516h-21.766z"/>
</defs>
<use xlink:href="#y"/>
<use x="54.980469" xlink:href="#al"/>
<use x="130.419922" xlink:href="#q"/>
<use x="191.601562" xlink:href="#x"/>
<use x="249.853516" xlink:href="#s"/>
<use x="313.330078" xlink:href="#o"/>
<use x="374.853516" xlink:href="#r"/>
</g>
</g>
<g clip-path="url(#a)">
<g transform="translate(88.46 537.3) scale(.1 -.1)">
<use xlink:href="#t"/>
<use x="65.380859" xlink:href="#v"/>
</g>
</g>
<g clip-path="url(#a)">
<g transform="translate(87.123 537.3) scale(.1 -.1)">
<defs>
<path id="bf" d="m14.797 27.297q0-11.469 3.5312-16.328 3.5469-4.8594 9.5469-4.8594 4.7969 0 10.359 8.2031v25.969q-5.5625 8.2031-10.359 8.2031-6 0-9.5469-4.8594-3.5312-4.8594-3.5312-16.328zm23.438-48.094v27.781q-2.7812-4.5938-5.9844-6.5t-7.25-1.9062q-8.1562 0-13.844 7.5469t-5.6875 20.969q0 13.438 5.6875 21.172t13.844 7.7344q4.0469 0 7.25-1.8594 3.2031-1.8438 5.9844-6.4375v25.203h9.0312v-25.203q2.7812 4.5938 5.9844 6.4375 3.2031 1.8594 7.25 1.8594 8.1562 0 13.844-7.7344t5.6875-21.172q0-13.422-5.6875-20.969t-13.844-7.5469q-4.0469 0-7.25 1.9062t-5.9844 6.5v-27.781zm32.469 48.094q0 11.469-3.5469 16.328-3.5312 4.8594-9.5312 4.8594-4.7969 0-10.359-8.2031v-25.969q5.5625-8.2031 10.359-8.2031 6 0 9.5312 4.8594 3.5469 4.8594 3.5469 16.328z"/>
<path id="bb" d="m82.422 0h-73.344v54.688h9.0312v-47.516h23.109v47.516h9.0312v-47.516h23.141v47.516h9.0312v-47.516h7.1719v-20.984h-7.1719z"/>
</defs>
<use xlink:href="#bf"/>
<use x="85.498047" xlink:href="#q"/>
<use x="146.679688" xlink:href="#t"/>
<use x="212.060547" xlink:href="#v"/>
<use x="273.339844" xlink:href="#s"/>
<use x="336.816406" xlink:href="#bb"/>
<use x="431.005859" xlink:href="#aa"/>
<use x="495.996094" xlink:href="#z"/>
<use x="556.396484" xlink:href="#v"/>
</g>
</g>
<g clip-path="url(#a)">
<g transform="translate(143.5 537.3) scale(.1 -.1)">
<defs>
<path id="ar" d="m11.719 12.406h10.297v-8.4062l-8-15.625h-6.2969l4 15.625z"/>
</defs>
<use xlink:href="#ar"/>
</g>
</g>
<g clip-path="url(#a)">
<g transform="translate(172.79 537.3) scale(.1 -.1)">
<use xlink:href="#aa"/>
</g>
</g>
<g clip-path="url(#a)">
<g transform="translate(201.06 537.3) scale(.1 -.1)">
<defs>
<path id="ak" d="m32.172-5.0781q-3.7969-9.7656-7.4219-12.734-3.6094-2.9844-9.6562-2.9844h-7.1875v7.5156h5.2812q3.7031 0 5.75 1.7656 2.0625 1.75 4.5469 8.2969l1.6094 4.0938-22.109 53.812h9.5156l17.094-42.766 17.094 42.766h9.5156z"/>
</defs>
<use xlink:href="#o"/>
<use x="61.523438" xlink:href="#al"/>
<use x="136.962891" xlink:href="#ak"/>
</g>
</g>
<g clip-path="url(#a)">
<g transform="translate(240.78 537.3) scale(.1 -.1)">
<defs>
<path id="u" d="m18.062 25.203v-18.031h12.797q6.1562 0 9.375 2.3125 3.2188 2.3281 3.2188 6.7344 0 4.3906-3.2188 6.6875t-9.375 2.2969zm0 22.312v-15.141h11.828q5.0781 0 8.2969 2.0156 3.2188 2.0312 3.2188 5.6562 0 3.6094-3.2188 5.5312-3.2188 1.9375-8.2969 1.9375zm-8.9844 7.1719h21.391q9.625 0 14.797-3.5156t5.1719-10.016q0-5.0156-2.6406-7.9844-2.625-2.9531-7.8125-3.6719 6.2031-1.1719 9.625-4.8906 3.4219-3.7031 3.4219-9.2812 0-7.3125-5.6406-11.328-5.6406-4-16.094-4h-22.219z"/>
</defs>
<use xlink:href="#u"/>
<use x="58.935547" xlink:href="#y"/>
<use x="113.916016" xlink:href="#o"/>
</g>
</g>
<g clip-path="url(#a)">
<g transform="translate(272.18 537.3) scale(.1 -.1)">
<defs>
<path id="aw" d="m31.109 56q11.719 0 18.406-7.625 6.6875-7.6094 6.6875-21.078 0-13.422-6.6875-21.078-6.6875-7.6406-18.406-7.6406-11.766 0-18.266 7.4219t-6.8438 21.297l-0.28125 11.188q-0.25 5.7969-0.25 7.8125 0 7.8125 2.8281 13.562 4.4531 9.0312 12.141 12.938t20.578 4.0156q5.9531 0.046875 8.5938 0.875l2.4844-7.125q-2.3906-0.98438-4.5781-1.0312l-12.219-0.82812q-6.1406-0.4375-9.8594-2.5938-9.7188-5.7031-10.641-13.172l-0.34375-2.7344q6.3438 5.7969 16.656 5.7969zm0-7.6094q-7.2344 0-11.438-5.6406-4.1875-5.6406-4.1875-15.453t4.1719-15.453 11.453-5.6406q7.1719 0 11.375 5.6562 4.2031 5.6719 4.2031 15.438 0 9.7188-4.2031 15.406t-11.375 5.6875z"/>
<path id="bc" d="m50.25 7.1719h23.141v47.516h9.0312v-54.688h-73.344v54.688h9.0312v-47.516h23.109v47.516h9.0312z"/>
</defs>
<use xlink:href="#aw"/>
<use x="61.669922" xlink:href="#q"/>
<use x="122.851562" xlink:href="#r"/>
<use x="186.767578" xlink:href="#at"/>
<use x="245.703125" xlink:href="#bc"/>
<use x="337.207031" xlink:href="#o"/>
</g>
</g>
<g clip-path="url(#a)">
<g transform="translate(313.89 537.3) scale(.1 -.1)">
<defs>
<path id="az" d="m18.453 38.922q0-4.0625 3.125-6.3594 3.125-2.2812 8.9375-2.2812h12.109v17.234h-12.109q-5.8125 0-8.9375-2.25t-3.125-6.3438zm-12.781-38.922 16.688 23.969q-5.6562 1.2812-9.4219 4.625-3.75 3.3438-3.75 10.328 0 7.9062 5.2344 11.828 5.25 3.9375 15.859 3.9375h21.375v-54.688h-9.0312v23.094h-11.172l-16.125-23.094z"/>
</defs>
<use xlink:href="#t"/>
<use x="65.380859" xlink:href="#s"/>
<use x="128.857422" xlink:href="#v"/>
<use x="190.136719" xlink:href="#u"/>
<use x="249.072266" xlink:href="#aa"/>
<use x="314.0625" xlink:href="#r"/>
<use x="377.978516" xlink:href="#y"/>
<use x="432.958984" xlink:href="#az"/>
</g>
</g>
<g clip-path="url(#a)">
<g transform="translate(377.21 537.3) scale(.1 -.1)">
<defs>
<path id="ba" d="m5.5156 10.406q7.7188-4.2031 15.391-4.2031 7.1719 0 12.297 4.1719t6.0625 14.828h-27.734v7.1719h27.438q-0.59375 5.125-4.4844 10.562-3.875 5.4531-13.578 5.4531-7.5312 0-15.391-4.2031v8.4062q7.6719 3.4062 15.781 3.4062 12.781 0 20.125-7.7344 7.3594-7.7344 7.3594-20.969 0-13.188-7.1562-20.953t-19.703-7.7656q-9.2188 0-16.406 3.5156z"/>
</defs>
<use xlink:href="#ba"/>
<use x="54.882812" xlink:href="#x"/>
<use x="113.134766" xlink:href="#q"/>
<use x="174.316406" xlink:href="#x"/>
</g>
</g>
<g clip-path="url(#a)">
<g transform="translate(421.68 537.3) scale(.1 -.1)">
<defs>
<path id="bd" d="m41.016 0v23h-16.75q-7.4688 0-12.453 4.6406-4.4844 4.2031-4.4844 13.188v13.859h8.9844v-13.031q0-5.7188 2.5312-8.5938 2.5938-2.8906 7.6719-2.8906h14.5v24.516h8.9844v-54.688z"/>
</defs>
<use xlink:href="#bd"/>
<use x="59.082031" xlink:href="#o"/>
<use x="120.605469" xlink:href="#r"/>
<use x="184.521484" xlink:href="#q"/>
<use x="245.703125" xlink:href="#u"/>
<use x="304.638672" xlink:href="#o"/>
<use x="366.162109" xlink:href="#z"/>
</g>
</g>
<g clip-path="url(#a)">
<g transform="translate(499.46 537.3) scale(.1 -.1)">
<use xlink:href="#ar"/>
</g>
</g>
<g clip-path="url(#a)">
<g transform="translate(540.53 537.3) scale(.1 -.1)">
<defs>
<path id="au" d="m61.047 54.688h8.9844v-54.688h-8.9844zm4.5 1.3125m-22.094-39.781q0 4.3906-3.2031 6.6875-3.1875 2.2969-9.3438 2.2969h-12.797v-18.031h12.797q6.1562 0 9.3438 2.3125 3.2031 2.3281 3.2031 6.7344zm-34.375 38.469h9.0312v-22.312h13.188q10.453 0 16.094-3.9844 5.6406-3.9688 5.6406-12.172t-5.6406-12.219q-5.6406-4-16.094-4h-22.219z"/>
</defs>
<use xlink:href="#z"/>
<use x="60.400391" xlink:href="#q"/>
<use x="121.582031" xlink:href="#x"/>
<use x="179.833984" xlink:href="#q"/>
<use x="241.015625" xlink:href="#s"/>
<use x="304.492188" xlink:href="#au"/>
<use x="383.447266" xlink:href="#av"/>
</g>
</g>
<g clip-path="url(#a)">
<g transform="translate(618.5 537.3) scale(.1 -.1)">
<use xlink:href="#aw"/>
<use x="61.669922" xlink:href="#au"/>
<use x="140.625" xlink:href="#r"/>
</g>
</g>
<g clip-path="url(#a)">
<g transform="translate(689.37 537.3) scale(.1 -.1)">
<use xlink:href="#x"/>
<use x="58.251953" xlink:href="#v"/>
<use x="119.53125" xlink:href="#z"/>
</g>
</g>
<g clip-path="url(#a)">
<g transform="translate(756.34 537.3) scale(.1 -.1)">
<use xlink:href="#u"/>
<use x="58.935547" xlink:href="#o"/>
<use x="120.458984" xlink:href="#s"/>
<use x="183.935547" xlink:href="#o"/>
<use x="245.458984" xlink:href="#t"/>
</g>
</g>
<g clip-path="url(#a)">
<g transform="translate(830.7 537.3) scale(.1 -.1)">
<use xlink:href="#y"/>
<use x="54.980469" xlink:href="#u"/>
<use x="113.916016" xlink:href="#q"/>
<use x="175.097656" xlink:href="#o"/>
<use x="236.621094" xlink:href="#al"/>
<use x="312.060547" xlink:href="#ak"/>
</g>
</g>
<g clip-path="url(#a)">
<g transform="translate(915.61 537.3) scale(.1 -.1)">
<use xlink:href="#y"/>
<use x="54.980469" xlink:href="#r"/>
<use x="118.896484" xlink:href="#q"/>
<use x="180.078125" xlink:href="#u"/>
<use x="239.013672" xlink:href="#ak"/>
</g>
</g>
<g clip-path="url(#a)">
<g transform="translate(1014 537.3) scale(.1 -.1)">
<defs>
<path id="d" d="m10.688 12.406h10.312v-12.406h-10.312z"/>
</defs>
<use xlink:href="#d"/>
</g>
</g>
<g clip-path="url(#a)">
<g transform="translate(174.85 28.214) scale(.1 -.1)">
<defs>
<path id="c" d="m12.406 8.2969h16.109v55.625l-17.531-3.5156v8.9844l17.438 3.5156h9.8594v-64.609h16.109v-8.2969h-41.984z"/>
</defs>
<use xlink:href="#c"/>
<use x="63.623047" xlink:href="#d"/>
<use x="95.410156" xlink:href="#c"/>
</g>
</g>
<g clip-path="url(#a)">
<g transform="translate(71.687 113.84) scale(.1 -.1)">
<defs>
<path id="m" d="m19.188 8.2969h34.422v-8.2969h-46.281v8.2969q5.6094 5.8125 15.297 15.594 9.7031 9.7969 12.188 12.641 4.7344 5.3125 6.6094 9 1.8906 3.6875 1.8906 7.25 0 5.8125-4.0781 9.4688-4.0781 3.6719-10.625 3.6719-4.6406 0-9.7969-1.6094-5.1406-1.6094-11-4.8906v9.9688q5.9531 2.3906 11.125 3.6094 5.1875 1.2188 9.4844 1.2188 11.328 0 18.062-5.6719 6.7344-5.6562 6.7344-15.125 0-4.5-1.6875-8.5312-1.6719-4.0156-6.125-9.4844-1.2188-1.4219-7.7656-8.1875-6.5312-6.7656-18.453-18.922z"/>
</defs>
<use xlink:href="#c"/>
<use x="63.623047" xlink:href="#d"/>
<use x="95.410156" xlink:href="#m"/>
</g>
</g>
<g clip-path="url(#a)">
<g transform="translate(168.09 453.96) scale(.1 -.1)">
<defs>
<path id="n" d="m40.578 39.312q7.0781-1.5156 11.047-6.3125 3.9844-4.7812 3.9844-11.812 0-10.781-7.4219-16.703-7.4219-5.9062-21.094-5.9062-4.5781 0-9.4375 0.90625t-10.031 2.7188v9.5156q4.0938-2.3906 8.9688-3.6094 4.8906-1.2188 10.219-1.2188 9.2656 0 14.125 3.6562t4.8594 10.641q0 6.4531-4.5156 10.078-4.5156 3.6406-12.562 3.6406h-8.5v8.1094h8.8906q7.2656 0 11.125 2.9062t3.8594 8.375q0 5.6094-3.9844 8.6094-3.9688 3.0156-11.391 3.0156-4.0625 0-8.7031-0.89062-4.6406-0.875-10.203-2.7188v8.7812q5.625 1.5625 10.531 2.3438t9.25 0.78125q11.234 0 17.766-5.1094 6.5469-5.0938 6.5469-13.781 0-6.0625-3.4688-10.234t-9.8594-5.7812z"/>
</defs>
<use xlink:href="#c"/>
<use x="63.623047" xlink:href="#d"/>
<use x="95.410156" xlink:href="#n"/>
</g>
</g>
<g clip-path="url(#a)">
<g transform="translate(322.47 113.84) scale(.1 -.1)">
<defs>
<path id="ai" d="m37.797 64.312-24.906-38.922h24.906zm-2.5938 8.5938h12.406v-47.516h10.406v-8.2031h-10.406v-17.188h-9.8125v17.188h-32.906v9.5156z"/>
</defs>
<use xlink:href="#c"/>
<use x="63.623047" xlink:href="#d"/>
<use x="95.410156" xlink:href="#ai"/>
</g>
</g>
<g clip-path="url(#a)">
<g transform="translate(202.91 453.96) scale(.1 -.1)">
<defs>
<path id="ag" d="m8.2031 72.906h46.875v-4.2031l-26.469-68.703h-10.297l24.906 64.594h-35.016z"/>
</defs>
<use xlink:href="#c"/>
<use x="63.623047" xlink:href="#d"/>
<use x="95.410156" xlink:href="#ag"/>
</g>
</g>
<g clip-path="url(#a)">
<g transform="translate(262.88 369.46) scale(.1 -.1)">
<defs>
<path id="af" d="m31.781 34.625q-7.0312 0-11.062-3.7656-4.0156-3.7656-4.0156-10.344 0-6.5938 4.0156-10.359 4.0312-3.7656 11.062-3.7656t11.078 3.7812q4.0625 3.7969 4.0625 10.344 0 6.5781-4.0312 10.344-4.0156 3.7656-11.109 3.7656zm-9.8594 4.1875q-6.3438 1.5625-9.8906 5.9062-3.5312 4.3594-3.5312 10.609 0 8.7344 6.2188 13.812 6.2344 5.0781 17.062 5.0781 10.891 0 17.094-5.0781t6.2031-13.812q0-6.25-3.5469-10.609-3.5312-4.3438-9.8281-5.9062 7.125-1.6562 11.094-6.5 3.9844-4.8281 3.9844-11.797 0-10.609-6.4688-16.281-6.4688-5.6562-18.531-5.6562-12.047 0-18.531 5.6562-6.4688 5.6719-6.4688 16.281 0 6.9688 4 11.797 4.0156 4.8438 11.141 6.5zm-3.6094 15.578q0-5.6562 3.5312-8.8281 3.5469-3.1719 9.9375-3.1719 6.3594 0 9.9375 3.1719 3.5938 3.1719 3.5938 8.8281 0 5.6719-3.5938 8.8438-3.5781 3.1719-9.9375 3.1719-6.3906 0-9.9375-3.1719-3.5312-3.1719-3.5312-8.8438z"/>
</defs>
<use xlink:href="#c"/>
<use x="63.623047" xlink:href="#d"/>
<use x="95.410156" xlink:href="#af"/>
</g>
</g>
<g clip-path="url(#a)">
<g transform="translate(330.59 453.96) scale(.1 -.1)">
<defs>
<path id="ae" d="m10.984 1.5156v8.9844q3.7188-1.7656 7.5156-2.6875 3.8125-0.92188 7.4844-0.92188 9.7656 0 14.906 6.5625 5.1562 6.5625 5.8906 19.953-2.8281-4.2031-7.1875-6.4531-4.3438-2.25-9.6094-2.25-10.938 0-17.312 6.6094-6.375 6.625-6.375 18.109 0 11.219 6.6406 18 6.6406 6.7969 17.672 6.7969 12.656 0 19.312-9.7031 6.6719-9.6875 6.6719-28.141 0-17.234-8.1875-27.516-8.1719-10.281-21.984-10.281-3.7188 0-7.5312 0.73438-3.7969 0.73438-7.9062 2.2031zm19.625 30.906q6.6406 0 10.516 4.5312 3.8906 4.5469 3.8906 12.469 0 7.8594-3.8906 12.422-3.875 4.5625-10.516 4.5625t-10.516-4.5625-3.875-12.422q0-7.9219 3.875-12.469 3.875-4.5312 10.516-4.5312z"/>
</defs>
<use xlink:href="#c"/>
<use x="63.623047" xlink:href="#d"/>
<use x="95.410156" xlink:href="#ae"/>
</g>
</g>
<g clip-path="url(#a)">
<g transform="translate(490.29 199.28) scale(.1 -.1)">
<defs>
<path id="aj" d="m31.781 66.406q-7.6094 0-11.453-7.5-3.8281-7.4844-3.8281-22.531 0-14.984 3.8281-22.484 3.8438-7.5 11.453-7.5 7.6719 0 11.5 7.5 3.8438 7.5 3.8438 22.484 0 15.047-3.8438 22.531-3.8281 7.5-11.5 7.5zm0 7.8125q12.266 0 18.734-9.7031 6.4688-9.6875 6.4688-28.141 0-18.406-6.4688-28.109-6.4688-9.6875-18.734-9.6875-12.25 0-18.719 9.6875-6.4688 9.7031-6.4688 28.109 0 18.453 6.4688 28.141 6.4688 9.7031 18.719 9.7031z"/>
</defs>
<use xlink:href="#c"/>
<use x="63.623047" xlink:href="#d"/>
<use x="95.410156" xlink:href="#c"/>
<use x="159.033203" xlink:href="#aj"/>
</g>
</g>
<g clip-path="url(#a)">
<g transform="translate(377.71 453.96) scale(.1 -.1)">
<use xlink:href="#c"/>
<use x="63.623047" xlink:href="#d"/>
<use x="95.410156" xlink:href="#c"/>
<use x="159.033203" xlink:href="#c"/>
</g>
</g>
<g clip-path="url(#a)">
<g transform="translate(431.88 453.96) scale(.1 -.1)">
<use xlink:href="#c"/>
<use x="63.623047" xlink:href="#d"/>
<use x="95.410156" xlink:href="#c"/>
<use x="159.033203" xlink:href="#m"/>
</g>
</g>
<g clip-path="url(#a)">
<g transform="translate(661.66 284.52) scale(.1 -.1)">
<use xlink:href="#c"/>
<use x="63.623047" xlink:href="#d"/>
<use x="95.410156" xlink:href="#c"/>
<use x="159.033203" xlink:href="#n"/>
</g>
</g>
<g clip-path="url(#a)">
<g transform="translate(551.82 453.96) scale(.1 -.1)">
<defs>
<path id="ah" d="m10.797 72.906h38.719v-8.3125h-29.688v-17.859q2.1406 0.73438 4.2812 1.0938 2.1562 0.35938 4.3125 0.35938 12.203 0 19.328-6.6875 7.1406-6.6875 7.1406-18.109 0-11.766-7.3281-18.297-7.3281-6.5156-20.656-6.5156-4.5938 0-9.3594 0.78125-4.75 0.78125-9.8281 2.3438v9.9219q4.3906-2.3906 9.0781-3.5625t9.9062-1.1719q8.4531 0 13.375 4.4375 4.9375 4.4375 4.9375 12.062 0 7.6094-4.9375 12.047-4.9219 4.4531-13.375 4.4531-3.9531 0-7.8906-0.875-3.9219-0.875-8.0156-2.7344z"/>
</defs>
<use xlink:href="#c"/>
<use x="63.623047" xlink:href="#d"/>
<use x="95.410156" xlink:href="#c"/>
<use x="159.033203" xlink:href="#ah"/>
</g>
</g>
<g clip-path="url(#a)">
<g transform="translate(617.59 453.96) scale(.1 -.1)">
<defs>
<path id="aq" d="m33.016 40.375q-6.6406 0-10.531-4.5469-3.875-4.5312-3.875-12.438 0-7.8594 3.875-12.438 3.8906-4.5625 10.531-4.5625t10.516 4.5625q3.875 4.5781 3.875 12.438 0 7.9062-3.875 12.438-3.875 4.5469-10.516 4.5469zm19.578 30.922v-8.9844q-3.7188 1.75-7.5 2.6719-3.7812 0.9375-7.5 0.9375-9.7656 0-14.922-6.5938-5.1406-6.5938-5.875-19.922 2.875 4.25 7.2188 6.5156 4.3594 2.2656 9.5781 2.2656 10.984 0 17.359-6.6719 6.375-6.6562 6.375-18.125 0-11.234-6.6406-18.031-6.6406-6.7812-17.672-6.7812-12.656 0-19.344 9.6875-6.6875 9.7031-6.6875 28.109 0 17.281 8.2031 27.562t22.016 10.281q3.7188 0 7.5-0.73438t7.8906-2.1875z"/>
</defs>
<use xlink:href="#c"/>
<use x="63.623047" xlink:href="#d"/>
<use x="95.410156" xlink:href="#c"/>
<use x="159.033203" xlink:href="#aq"/>
</g>
</g>
<g clip-path="url(#a)">
<g transform="translate(687.24 453.96) scale(.1 -.1)">
<use xlink:href="#c"/>
<use x="63.623047" xlink:href="#d"/>
<use x="95.410156" xlink:href="#c"/>
<use x="159.033203" xlink:href="#ag"/>
</g>
</g>
<g clip-path="url(#a)">
<g transform="translate(760.75 453.96) scale(.1 -.1)">
<use xlink:href="#c"/>
<use x="63.623047" xlink:href="#d"/>
<use x="95.410156" xlink:href="#c"/>
<use x="159.033203" xlink:href="#af"/>
</g>
</g>
<g clip-path="url(#a)">
<g transform="translate(920.67 369.46) scale(.1 -.1)">
<use xlink:href="#c"/>
<use x="63.623047" xlink:href="#d"/>
<use x="95.410156" xlink:href="#c"/>
<use x="159.033203" xlink:href="#ae"/>
</g>
</g>
<g clip-path="url(#a)">
<g transform="translate(838.13 453.96) scale(.1 -.1)">
<use xlink:href="#c"/>
<use x="63.623047" xlink:href="#d"/>
<use x="95.410156" xlink:href="#m"/>
<use x="159.033203" xlink:href="#aj"/>
</g>
</g>
<g clip-path="url(#a)">
<g transform="translate(919.38 453.96) scale(.1 -.1)">
<use xlink:href="#c"/>
<use x="63.623047" xlink:href="#d"/>
<use x="95.410156" xlink:href="#m"/>
<use x="159.033203" xlink:href="#c"/>
</g>
</g>
<g clip-path="url(#a)">
<g transform="translate(238.42 453.96) scale(.1 -.1)">
<use xlink:href="#c"/>
<use x="63.623047" xlink:href="#d"/>
<use x="95.410156" xlink:href="#m"/>
<use x="159.033203" xlink:href="#m"/>
</g>
</g>
<g clip-path="url(#a)">
<g transform="translate(280.98 453.96) scale(.1 -.1)">
<use xlink:href="#c"/>
<use x="63.623047" xlink:href="#d"/>
<use x="95.410156" xlink:href="#m"/>
<use x="159.033203" xlink:href="#n"/>
</g>
</g>
<g clip-path="url(#a)">
<g transform="translate(45.936 199.28) scale(.1 -.1)">
<use xlink:href="#c"/>
<use x="63.623047" xlink:href="#d"/>
<use x="95.410156" xlink:href="#m"/>
<use x="159.033203" xlink:href="#ai"/>
</g>
</g>
<g clip-path="url(#a)">
<g transform="translate(64.314 453.96) scale(.1 -.1)">
<use xlink:href="#c"/>
<use x="63.623047" xlink:href="#d"/>
<use x="95.410156" xlink:href="#m"/>
<use x="159.033203" xlink:href="#ah"/>
</g>
</g>
<g clip-path="url(#a)">
<g transform="translate(95.267 369.46) scale(.1 -.1)">
<use xlink:href="#c"/>
<use x="63.623047" xlink:href="#d"/>
<use x="95.410156" xlink:href="#m"/>
<use x="159.033203" xlink:href="#aq"/>
</g>
</g>
<g clip-path="url(#a)">
<g transform="translate(83.66 453.96) scale(.1 -.1)">
<use xlink:href="#c"/>
<use x="63.623047" xlink:href="#d"/>
<use x="95.410156" xlink:href="#m"/>
<use x="159.033203" xlink:href="#ag"/>
</g>
</g>
<g clip-path="url(#a)">
<g transform="translate(106.87 453.96) scale(.1 -.1)">
<use xlink:href="#c"/>
<use x="63.623047" xlink:href="#d"/>
<use x="95.410156" xlink:href="#m"/>
<use x="159.033203" xlink:href="#af"/>
</g>
</g>
<g clip-path="url(#a)">
<g transform="translate(43.034 284.52) scale(.1 -.1)">
<use xlink:href="#c"/>
<use x="63.623047" xlink:href="#d"/>
<use x="95.410156" xlink:href="#m"/>
<use x="159.033203" xlink:href="#ae"/>
</g>
</g>
<g clip-path="url(#a)">
<g transform="translate(48.838 369.46) scale(.1 -.1)">
<use xlink:href="#c"/>
<use x="63.623047" xlink:href="#d"/>
<use x="95.410156" xlink:href="#n"/>
<use x="159.033203" xlink:href="#aj"/>
</g>
</g>
<g clip-path="url(#a)">
<g transform="translate(48.838 453.96) scale(.1 -.1)">
<use xlink:href="#c"/>
<use x="63.623047" xlink:href="#d"/>
<use x="95.410156" xlink:href="#n"/>
<use x="159.033203" xlink:href="#c"/>
</g>
</g>
<g clip-path="url(#a)">
<g transform="translate(37.231 453.96) scale(.1 -.1)">
<use xlink:href="#c"/>
<use x="63.623047" xlink:href="#d"/>
<use x="95.410156" xlink:href="#n"/>
<use x="159.033203" xlink:href="#m"/>
</g>
</g>
<g clip-path="url(#a)">
<g transform="translate(133.96 453.96) scale(.1 -.1)">
<use xlink:href="#c"/>
<use x="63.623047" xlink:href="#d"/>
<use x="95.410156" xlink:href="#n"/>
<use x="159.033203" xlink:href="#n"/>
</g>
</g>
<g clip-path="url(#a)">
<g transform="translate(489.91 453.96) scale(.1 -.1)">
<use xlink:href="#c"/>
<use x="63.623047" xlink:href="#d"/>
<use x="95.410156" xlink:href="#n"/>
<use x="159.033203" xlink:href="#ai"/>
</g>
</g>
<g clip-path="url(#a)">
<g transform="translate(1004.5 453.96) scale(.1 -.1)">
<use xlink:href="#c"/>
<use x="63.623047" xlink:href="#d"/>
<use x="95.410156" xlink:href="#n"/>
<use x="159.033203" xlink:href="#ah"/>
</g>
</g>
<defs>
<clipPath id="a">
<rect width="1064" height="560"/>
</clipPath>
</defs>
</svg>
