<?xml version="1.0" encoding="UTF-8"?>
<!DOCTYPE svg  PUBLIC '-//W3C//DTD SVG 1.1//EN'  'http://www.w3.org/Graphics/SVG/1.1/DTD/svg11.dtd'>
<svg width="1317.3pt" height="693.33pt" version="1.1" viewBox="0 0 1317.3 693.33" xmlns="http://www.w3.org/2000/svg" xmlns:xlink="http://www.w3.org/1999/xlink">
<metadata>
<rdf:RDF xmlns:cc="http://creativecommons.org/ns#" xmlns:dc="http://purl.org/dc/elements/1.1/" xmlns:rdf="http://www.w3.org/1999/02/22-rdf-syntax-ns#">
<cc:Work>
<dc:type rdf:resource="http://purl.org/dc/dcmitype/StillImage"/>
<dc:date>2021-01-13T08:48:47.512899</dc:date>
<dc:format>image/svg+xml</dc:format>
<dc:creator>
<cc:Agent>
<dc:title>Matplotlib v3.3.3, https://matplotlib.org/</dc:title>
</cc:Agent>
</dc:creator>
</cc:Work>
</rdf:RDF>
</metadata>
<defs>
<style type="text/css">*{stroke-linecap:butt;stroke-linejoin:round;}</style>
</defs>
<path d="m0 693.33h1317.3v-693.33h-1317.3z" fill="#fff"/>
<g fill="none" stroke="#000">
<path d="m543.19 31.515-378.05 106.01" clip-path="url(#a)"/>
<path d="m543.19 31.515-203.03 527.12" clip-path="url(#a)"/>
<path d="m543.19 31.515-158.44 527.12" clip-path="url(#a)"/>
<path d="m543.19 31.515-31.035 422.5" clip-path="url(#a)"/>
<path d="m543.19 31.515 113.35 422.5" clip-path="url(#a)"/>
<path d="m543.19 31.515 312.95 527.12" clip-path="url(#a)"/>
<path d="m543.19 31.515 345.8 317.33" clip-path="url(#a)"/>
<path d="m543.19 31.515-244.43 527.12" clip-path="url(#a)"/>
<path d="m543.19 31.515 242.88 527.12" clip-path="url(#a)"/>
<path d="m165.14 137.52-89.34 211.32" clip-path="url(#a)"/>
<path d="m165.14 137.52 28.506 421.11" clip-path="url(#a)"/>
<path d="m165.14 137.52 86.633 105.79" clip-path="url(#a)"/>
<path d="m165.14 137.52-25.64 421.11" clip-path="url(#a)"/>
<path d="m165.14 137.52-0.15925 421.11" clip-path="url(#a)"/>
<path d="m340.16 558.63v103.19" clip-path="url(#a)"/>
<path d="m384.75 558.63v103.19" clip-path="url(#a)"/>
<path d="m512.15 454.01 82.811 104.62" clip-path="url(#a)" stroke-dasharray="3.7,1.6"/>
<path d="m512.15 454.01-79.626 104.62" clip-path="url(#a)"/>
<path d="m512.15 454.01-28.665 104.62" clip-path="url(#a)"/>
<path d="m512.15 454.01 25.48 104.62" clip-path="url(#a)"/>
<path d="m656.54 454.01-61.577 104.62" clip-path="url(#a)"/>
<path d="m656.54 454.01-1.0617 104.62" clip-path="url(#a)"/>
<path d="m656.54 454.01 62.639 104.62" clip-path="url(#a)"/>
<path d="m856.14 558.63v103.19" clip-path="url(#a)"/>
<path d="m888.99 348.84 40.41 209.79" clip-path="url(#a)"/>
<path d="m888.99 348.84 116.85 209.79" clip-path="url(#a)"/>
<path d="m888.99 348.84 136.76 105.17" clip-path="url(#a)"/>
<path d="m888.99 348.84-294.02 209.79" clip-path="url(#a)" stroke-dasharray="3.7,1.6"/>
<path d="m929.4 558.63v103.19" clip-path="url(#a)"/>
<path d="m1005.8 558.63v103.19" clip-path="url(#a)"/>
<path d="m1025.7 454.01 231.71 104.62" clip-path="url(#a)"/>
<path d="m1025.7 454.01 59.72 104.62" clip-path="url(#a)"/>
<path d="m1025.7 454.01-430.78 104.62" clip-path="url(#a)" stroke-dasharray="3.7,1.6"/>
<path d="m1025.7 454.01 142.53 104.62" clip-path="url(#a)"/>
<path d="m1025.7 454.01 228.53 104.62" clip-path="url(#a)"/>
<path d="m1085.5 558.63v103.19" clip-path="url(#a)"/>
<path d="m594.97 558.63v103.19" clip-path="url(#a)"/>
<path d="m655.48 558.63v103.19" clip-path="url(#a)"/>
<path d="m719.18 558.63v103.19" clip-path="url(#a)"/>
<path d="m432.53 558.63v103.19" clip-path="url(#a)"/>
<path d="m483.49 558.63v103.19" clip-path="url(#a)"/>
<path d="m75.804 348.84-15.925 209.79" clip-path="url(#a)"/>
<path d="m75.804 348.84 15.925 105.17" clip-path="url(#a)"/>
<path d="m193.65 558.63v103.19" clip-path="url(#a)"/>
<path d="m251.78 243.32-8.7589 105.53" clip-path="url(#a)"/>
<path d="m251.78 243.32 8.7589 210.7" clip-path="url(#a)"/>
<path d="m243.02 348.84 17.518 105.17" clip-path="url(#a)" stroke-dasharray="3.7,1.6"/>
<path d="m243.02 348.84-17.518 209.79" clip-path="url(#a)"/>
<path d="m260.54 454.01v104.62" clip-path="url(#a)"/>
<path d="m260.54 558.63v103.19" clip-path="url(#a)"/>
<path d="m225.5 558.63v103.19" clip-path="url(#a)"/>
<path d="m59.879 558.63v103.19" clip-path="url(#a)"/>
<path d="m91.729 454.01-22.295 104.62" clip-path="url(#a)"/>
<path d="m91.729 454.01-9.5551 104.62" clip-path="url(#a)"/>
<path d="m91.729 454.01 25.48 104.62" clip-path="url(#a)"/>
<path d="m91.729 454.01 6.3701 104.62" clip-path="url(#a)"/>
<path d="m69.434 558.63v103.19" clip-path="url(#a)"/>
<path d="m82.174 558.63v103.19" clip-path="url(#a)"/>
<path d="m117.21 558.63v103.19" clip-path="url(#a)"/>
<path d="m98.099 558.63v103.19" clip-path="url(#a)"/>
<path d="m139.5 558.63v103.19" clip-path="url(#a)"/>
<path d="m164.99 558.63v103.19" clip-path="url(#a)"/>
<path d="m298.76 558.63v103.19" clip-path="url(#a)"/>
<path d="m537.64 558.63v103.19" clip-path="url(#a)"/>
<path d="m786.07 558.63v103.19" clip-path="url(#a)"/>
<path d="m1168.3 558.63v103.19" clip-path="url(#a)"/>
<path d="m1254.3 558.63v103.19" clip-path="url(#a)"/>
</g>
<path d="m352.96 91.369 5.7928-1.6244q2.3109-0.64799 1.6629-2.9589l-2.0904-7.455q-0.64799-2.3109-2.9589-1.6629l-5.7928 1.6244q-2.3109 0.64799-1.6629 2.9589l2.0904 7.455q0.64799 2.3109 2.9589 1.6629z" clip-path="url(#a)" fill="#fff" stroke="#fff"/>
<g clip-path="url(#a)">
<g transform="translate(351.87 87.456) rotate(-15.664) scale(.08 -.08)">
<defs>
<path id="z" d="m9.8125 72.906h9.8594v-29.891h35.844v29.891h9.8594v-72.906h-9.8594v34.719h-35.844v-34.719h-9.8594z"/>
</defs>
<use xlink:href="#z"/>
</g>
</g>
<path d="m446.73 299.41 1.6021-4.1596q0.86262-2.2396-1.377-3.1022l-7.2251-2.7829q-2.2396-0.86262-3.1022 1.377l-1.6021 4.1596q-0.86262 2.2396 1.377 3.1022l7.2251 2.7829q2.2396 0.86262 3.1022-1.377z" clip-path="url(#a)" fill="#fff" stroke="#fff"/>
<g clip-path="url(#a)">
<g transform="translate(442.94 297.95) rotate(-68.935) scale(.08 -.08)">
<defs>
<path id="y" d="m9.8125 72.906h9.8594v-64.609h35.5v-8.2969h-45.359z"/>
</defs>
<use xlink:href="#y"/>
</g>
</g>
<path d="m469.34 299.01 1.2831-4.2688q0.69084-2.2984-1.6076-2.9893l-7.4148-2.2287q-2.2984-0.69084-2.9893 1.6076l-1.2831 4.2688q-0.69084 2.2984 1.6076 2.9893l7.4148 2.2287q2.2984 0.69084 2.9893-1.6076z" clip-path="url(#a)" fill="#fff" stroke="#fff"/>
<g clip-path="url(#a)">
<g transform="translate(465.44 297.84) rotate(-73.271) scale(.08 -.08)">
<use xlink:href="#y"/>
</g>
</g>
<path d="m533.71 246.22 0.44074-6.0001q0.17582-2.3936-2.2177-2.5694l-7.7217-0.5672q-2.3936-0.17582-2.5694 2.2177l-0.44074 6.0001q-0.17582 2.3936 2.2177 2.5694l7.7217 0.5672q2.3936 0.17582 2.5694-2.2177z" clip-path="url(#a)" fill="#fff" stroke="#fff"/>
<g clip-path="url(#a)">
<g transform="translate(529.65 245.93) rotate(-85.799) scale(.08 -.08)">
<use xlink:href="#z"/>
</g>
</g>
<path d="m593.03 241.48 1.559 5.8108q0.62191 2.318 2.9399 1.6961l7.478-2.0063q2.318-0.62191 1.6961-2.9399l-1.559-5.8108q-0.62191-2.318-2.9399-1.6961l-7.478 2.0063q-2.318 0.62191-1.6961 2.9399z" clip-path="url(#a)" fill="#fff" stroke="#fff"/>
<g clip-path="url(#a)">
<g transform="translate(596.95 240.43) rotate(74.982) scale(.08 -.08)">
<use xlink:href="#z"/>
</g>
</g>
<path d="m693.13 296.36 2.2756 3.8329q1.2252 2.0637 3.2889 0.83848l6.6576-3.9526q2.0637-1.2252 0.83848-3.2889l-2.2756-3.8329q-1.2252-2.0637-3.2889-0.83848l-6.6576 3.9526q-2.0637 1.2252-0.83848 3.2889z" clip-path="url(#a)" fill="#fff" stroke="#fff"/>
<g clip-path="url(#a)">
<g transform="translate(696.63 294.28) rotate(59.302) scale(.08 -.08)">
<use xlink:href="#y"/>
</g>
</g>
<path d="m709.63 192.77 4.4327 4.0678q1.7683 1.6227 3.391-0.14557l5.2349-5.7045q1.6227-1.7683-0.14557-3.391l-4.4327-4.0678q-1.7683-1.6227-3.391 0.14557l-5.2349 5.7045q-1.6227 1.7683 0.14557 3.391z" clip-path="url(#a)" fill="#fff" stroke="#fff"/>
<g clip-path="url(#a)">
<g transform="translate(712.38 189.77) rotate(42.542) scale(.08 -.08)">
<use xlink:href="#z"/>
</g>
</g>
<path d="m425.43 300.37 2.4631-5.3117q1.0096-2.1773-1.1676-3.1869l-7.024-3.2572q-2.1773-1.0096-3.1869 1.1676l-2.4631 5.3117q-1.0096 2.1773 1.1676 3.1869l7.024 3.2572q2.1773 1.0096 3.1869-1.1676z" clip-path="url(#a)" fill="#fff" stroke="#fff"/>
<g clip-path="url(#a)">
<g transform="translate(421.74 298.66) rotate(-65.122) scale(.08 -.08)">
<defs>
<path id="s" d="m8.6875 72.906h9.9219v-44.297q0-11.719 4.2344-16.875 4.25-5.1406 13.781-5.1406 9.4688 0 13.719 5.1406 4.25 5.1562 4.25 16.875v44.297h9.9062v-45.516q0-14.25-7.0625-21.531-7.0469-7.2812-20.812-7.2812-13.828 0-20.891 7.2812-7.0469 7.2812-7.0469 21.531z"/>
</defs>
<use xlink:href="#s"/>
</g>
</g>
<path d="m657.71 295.04 2.4502 5.3177q1.0044 2.1797 3.1841 1.1754l7.0319-3.2401q2.1797-1.0044 1.1754-3.1841l-2.4502-5.3177q-1.0044-2.1797-3.1841-1.1754l-7.0319 3.2401q-2.1797 1.0044-1.1754 3.1841z" clip-path="url(#a)" fill="#fff" stroke="#fff"/>
<g clip-path="url(#a)">
<g transform="translate(661.4 293.34) rotate(65.261) scale(.08 -.08)">
<use xlink:href="#s"/>
</g>
</g>
<path d="m125.18 248.15 2.131-5.0405q0.93456-2.2106-1.276-3.1451l-7.1314-3.0149q-2.2106-0.93456-3.1451 1.276l-2.131 5.0405q-0.93456 2.2106 1.276 3.1451l7.1314 3.0149q2.2106 0.93456 3.1451-1.276z" clip-path="url(#a)" fill="#fff" stroke="#fff"/>
<g clip-path="url(#a)">
<g transform="translate(121.44 246.56) rotate(-67.083) scale(.08 -.08)">
<defs>
<path id="n" d="m34.188 63.188-13.391-36.281h26.812zm-5.5781 9.7188h11.188l27.781-72.906h-10.25l-6.6406 18.703h-32.859l-6.6406-18.703h-10.406z"/>
</defs>
<use xlink:href="#n"/>
</g>
</g>
<path d="m172.98 346.09 0.32579 4.8127q0.16209 2.3945 2.5566 2.2324l7.7248-0.52291q2.3945-0.16209 2.2324-2.5566l-0.32579-4.8127q-0.16209-2.3945-2.5566-2.2324l-7.7248 0.52291q-2.3945 0.16209-2.2324 2.5566z" clip-path="url(#a)" fill="#fff" stroke="#fff"/>
<g clip-path="url(#a)">
<g transform="translate(177.03 345.82) rotate(86.127) scale(.08 -.08)">
<defs>
<path id="u" d="m19.672 64.797v-27.391h12.406q6.8906 0 10.641 3.5625 3.7656 3.5625 3.7656 10.156 0 6.5469-3.7656 10.109-3.75 3.5625-10.641 3.5625zm-9.8594 8.1094h22.266q12.266 0 18.531-5.5469 6.2812-5.5469 6.2812-16.234 0-10.797-6.2812-16.312-6.2656-5.5156-18.531-5.5156h-12.406v-29.297h-9.8594z"/>
</defs>
<use xlink:href="#u"/>
</g>
</g>
<path d="m201.88 192.28 3.4672 4.234q1.5206 1.8569 3.3774 0.3363l5.9903-4.9054q1.8569-1.5206 0.3363-3.3774l-3.4672-4.234q-1.5206-1.8569-3.3774-0.3363l-5.9903 4.9054q-1.8569 1.5206-0.3363 3.3774z" clip-path="url(#a)" fill="#fff" stroke="#fff"/>
<g clip-path="url(#a)">
<g transform="translate(205.02 189.7) rotate(50.686) scale(.08 -.08)">
<use xlink:href="#n"/>
</g>
</g>
<path d="m158.41 351.38 0.35583-5.8442q0.14586-2.3956-2.2497-2.5414l-7.7282-0.47054q-2.3956-0.14586-2.5414 2.2497l-0.35583 5.8442q-0.14586 2.3956 2.2497 2.5414l7.7282 0.47054q2.3956 0.14586 2.5414-2.2497z" clip-path="url(#a)" fill="#fff" stroke="#fff"/>
<g clip-path="url(#a)">
<g transform="translate(154.35 351.13) rotate(-86.516) scale(.08 -.08)">
<use xlink:href="#s"/>
</g>
</g>
<path d="m171.33 351.01 0.002215-5.855q9.07e-4 -2.4-2.3991-2.4009l-7.7425-0.002928q-2.4-9.08e-4 -2.4009 2.3991l-0.002214 5.855q-9.07e-4 2.4 2.3991 2.4009l7.7425 0.002928q2.4 9.08e-4 2.4009-2.3991z" clip-path="url(#a)" fill="#fff" stroke="#fff"/>
<g clip-path="url(#a)">
<g transform="translate(167.27 351.01) rotate(-89.978) scale(.08 -.08)">
<use xlink:href="#s"/>
</g>
</g>
<path d="m333.89 593.32v33.808q0 2.4 2.4 2.4h7.7425q2.4 0 2.4-2.4v-33.808q0-2.4-2.4-2.4h-7.7425q-2.4 0-2.4 2.4z" clip-path="url(#a)" fill="#fff" stroke="#fff"/>
<g clip-path="url(#a)">
<g transform="translate(337.95 593.32) rotate(90) scale(.08 -.08)">
<defs>
<path id="e" d="m-0.29688 72.906h61.672v-8.3125h-25.875v-64.594h-9.9062v64.594h-25.891z"/>
<path id="l" d="m56.203 29.594v-4.3906h-41.312q0.59375-9.2812 5.5938-14.141t13.938-4.8594q5.1719 0 10.031 1.2656t9.6562 3.8125v-8.5q-4.8438-2.0469-9.9219-3.125t-10.297-1.0781q-13.094 0-20.734 7.6094-7.6406 7.625-7.6406 20.625 0 13.422 7.25 21.297 7.25 7.8906 19.562 7.8906 11.031 0 17.453-7.1094 6.4219-7.0938 6.4219-19.297zm-8.9844 2.6406q-0.09375 7.3594-4.125 11.75-4.0312 4.4062-10.672 4.4062-7.5156 0-12.031-4.25t-5.2031-11.969z"/>
<path id="g" d="m41.109 46.297q-1.5156 0.875-3.2969 1.2812-1.7812 0.42188-3.9219 0.42188-7.625 0-11.703-4.9531t-4.0781-14.234v-28.812h-9.0312v54.688h9.0312v-8.5q2.8438 4.9844 7.375 7.3906 4.5469 2.4219 11.047 2.4219 0.92188 0 2.0469-0.125 1.125-0.10938 2.4844-0.35938z"/>
<path id="i" d="m52 44.188q3.375 6.0625 8.0625 8.9375t11.031 2.875q8.5469 0 13.188-5.9844 4.6406-5.9688 4.6406-17v-33.016h-9.0312v32.719q0 7.8594-2.7969 11.656-2.7812 3.8125-8.4844 3.8125-6.9844 0-11.047-4.6406-4.0469-4.625-4.0469-12.641v-30.906h-9.0312v32.719q0 7.9062-2.7812 11.688t-8.5938 3.7812q-6.8906 0-10.953-4.6562-4.0469-4.6562-4.0469-12.625v-30.906h-9.0312v54.688h9.0312v-8.5q3.0781 5.0312 7.375 7.4219t10.203 2.3906q5.9688 0 10.141-3.0312 4.1719-3.0156 6.1719-8.7812z"/>
<path id="k" d="m9.4219 54.688h8.9844v-54.688h-8.9844zm0 21.297h8.9844v-11.391h-8.9844z"/>
<path id="h" d="m54.891 33.016v-33.016h-8.9844v32.719q0 7.7656-3.0312 11.609-3.0312 3.8594-9.0781 3.8594-7.2812 0-11.484-4.6406-4.2031-4.625-4.2031-12.641v-30.906h-9.0312v54.688h9.0312v-8.5q3.2344 4.9375 7.5938 7.375 4.375 2.4375 10.094 2.4375 9.4219 0 14.25-5.8281 4.8438-5.8281 4.8438-17.156z"/>
<path id="f" d="m34.281 27.484q-10.891 0-15.094-2.4844t-4.2031-8.5q0-4.7812 3.1562-7.5938 3.1562-2.7969 8.5625-2.7969 7.4844 0 12 5.2969t4.5156 14.078v2zm17.922 3.7188v-31.203h-8.9844v8.2969q-3.0781-4.9688-7.6719-7.3438t-11.234-2.375q-8.3906 0-13.359 4.7188-4.9531 4.7188-4.9531 12.625 0 9.2188 6.1719 13.906 6.1875 4.6875 18.438 4.6875h12.609v0.89062q0 6.2031-4.0781 9.5938t-11.453 3.3906q-4.6875 0-9.1406-1.125-4.4375-1.125-8.5312-3.375v8.3125q4.9219 1.9062 9.5625 2.8438 4.6406 0.95312 9.0312 0.95312 11.875 0 17.734-6.1562 5.8594-6.1406 5.8594-18.641z"/>
<path id="j" d="m9.4219 75.984h8.9844v-75.984h-8.9844z"/>
</defs>
<use xlink:href="#e"/>
<use x="44.083984" xlink:href="#l"/>
<use x="105.607422" xlink:href="#g"/>
<use x="144.970703" xlink:href="#i"/>
<use x="242.382812" xlink:href="#k"/>
<use x="270.166016" xlink:href="#h"/>
<use x="333.544922" xlink:href="#f"/>
<use x="394.824219" xlink:href="#j"/>
</g>
</g>
<path d="m378.48 593.32v33.808q0 2.4 2.4 2.4h7.7425q2.4 0 2.4-2.4v-33.808q0-2.4-2.4-2.4h-7.7425q-2.4 0-2.4 2.4z" clip-path="url(#a)" fill="#fff" stroke="#fff"/>
<g clip-path="url(#a)">
<g transform="translate(382.55 593.32) rotate(90) scale(.08 -.08)">
<use xlink:href="#e"/>
<use x="44.083984" xlink:href="#l"/>
<use x="105.607422" xlink:href="#g"/>
<use x="144.970703" xlink:href="#i"/>
<use x="242.382812" xlink:href="#k"/>
<use x="270.166016" xlink:href="#h"/>
<use x="333.544922" xlink:href="#f"/>
<use x="394.824219" xlink:href="#j"/>
</g>
</g>
<path d="m546.94 508.07 3.3965 4.291q1.4895 1.8818 3.3714 0.39229l6.0709-4.8053q1.8818-1.4895 0.39229-3.3714l-3.3965-4.291q-1.4895-1.8818-3.3714-0.39229l-6.0709 4.8053q-1.8818 1.4895-0.39229 3.3714z" clip-path="url(#a)" fill="#fff" stroke="#fff"/>
<g clip-path="url(#a)">
<g transform="translate(550.13 505.55) rotate(51.637) scale(.08 -.08)">
<use xlink:href="#n"/>
</g>
</g>
<path d="m475.47 512.57 3.7307-4.9018q1.4535-1.9098-0.45626-3.3633l-6.161-4.6891q-1.9098-1.4535-3.3633 0.45626l-3.7307 4.9018q-1.4535 1.9098 0.45626 3.3633l6.161 4.6891q1.9098 1.4535 3.3633-0.45626z" clip-path="url(#a)" fill="#fff" stroke="#fff"/>
<g clip-path="url(#a)">
<g transform="translate(472.23 510.11) rotate(-52.725) scale(.08 -.08)">
<defs>
<path id="ah" d="m19.672 64.797v-56.688h11.922q15.094 0 22.094 6.8281 7 6.8438 7 21.594 0 14.641-7 21.453t-22.094 6.8125zm-9.8594 8.1094h20.266q21.188 0 31.094-8.8125 9.9219-8.8125 9.9219-27.562 0-18.859-9.9688-27.703-9.9531-8.8281-31.047-8.8281h-20.266z"/>
</defs>
<use xlink:href="#ah"/>
</g>
</g>
<path d="m503.23 510.31 1.2747-4.6523q0.63421-2.3147-1.6805-2.9489l-7.4673-2.046q-2.3147-0.63421-2.9489 1.6805l-1.2747 4.6523q-0.63421 2.3147 1.6805 2.9489l7.4673 2.046q2.3147 0.63421 2.9489-1.6805z" clip-path="url(#a)" fill="#fff" stroke="#fff"/>
<g clip-path="url(#a)">
<g transform="translate(499.31 509.23) rotate(-74.677) scale(.08 -.08)">
<use xlink:href="#u"/>
</g>
</g>
<path d="m518.11 504.96 1.3855 5.6887q0.56792 2.3318 2.8998 1.7639l7.5226-1.8321q2.3318-0.56792 1.7639-2.8998l-1.3855-5.6887q-0.56792-2.3318-2.8998-1.7639l-7.5226 1.8321q-2.3318 0.56792-1.7639 2.8998z" clip-path="url(#a)" fill="#fff" stroke="#fff"/>
<g clip-path="url(#a)">
<g transform="translate(522.06 504) rotate(76.312) scale(.08 -.08)">
<use xlink:href="#s"/>
</g>
</g>
<path d="m629.77 511.86 2.7759-4.7162q1.2174-2.0683-0.85095-3.2857l-6.6725-3.9273q-2.0683-1.2174-3.2857 0.85095l-2.7759 4.7162q-1.2174 2.0683 0.85095 3.2857l6.6725 3.9273q2.0683 1.2174 3.2857-0.85095z" clip-path="url(#a)" fill="#fff" stroke="#fff"/>
<g clip-path="url(#a)">
<g transform="translate(626.27 509.8) rotate(-59.52) scale(.08 -.08)">
<use xlink:href="#n"/>
</g>
</g>
<path d="m662.25 509.47 0.062508-6.1597q0.024354-2.3999-2.3755-2.4242l-7.7421-0.078566q-2.3999-0.024354-2.4242 2.3755l-0.062508 6.1597q-0.024354 2.3999 2.3755 2.4242l7.7421 0.078567q2.3999 0.024353 2.4242-2.3755z" clip-path="url(#a)" fill="#fff" stroke="#fff"/>
<g clip-path="url(#a)">
<g transform="translate(658.19 509.43) rotate(-89.419) scale(.08 -.08)">
<use xlink:href="#ah"/>
</g>
</g>
<path d="m681.24 507.48 2.4779 4.1387q1.2329 2.0591 3.292 0.82628l6.6429-3.9773q2.0591-1.2329 0.82627-3.292l-2.4779-4.1387q-1.2329-2.0591-3.292-0.82628l-6.6429 3.9773q-2.0591 1.2329-0.82628 3.292z" clip-path="url(#a)" fill="#fff" stroke="#fff"/>
<g clip-path="url(#a)">
<g transform="translate(684.73 505.39) rotate(59.09) scale(.08 -.08)">
<use xlink:href="#u"/>
</g>
</g>
<path d="m849.87 593.32v33.808q0 2.4 2.4 2.4h7.7425q2.4 0 2.4-2.4v-33.808q0-2.4-2.4-2.4h-7.7425q-2.4 0-2.4 2.4z" clip-path="url(#a)" fill="#fff" stroke="#fff"/>
<g clip-path="url(#a)">
<g transform="translate(853.93 593.32) rotate(90) scale(.08 -.08)">
<use xlink:href="#e"/>
<use x="44.083984" xlink:href="#l"/>
<use x="105.607422" xlink:href="#g"/>
<use x="144.970703" xlink:href="#i"/>
<use x="242.382812" xlink:href="#k"/>
<use x="270.166016" xlink:href="#h"/>
<use x="333.544922" xlink:href="#f"/>
<use x="394.824219" xlink:href="#j"/>
</g>
</g>
<path d="m902.45 451.9 1.1651 6.0488q0.45395 2.3567 2.8106 1.9027l7.6027-1.4645q2.3567-0.45395 1.9027-2.8106l-1.1651-6.0488q-0.45395-2.3567-2.8106-1.9027l-7.6027 1.4645q-2.3567 0.45395-1.9027 2.8106z" clip-path="url(#a)" fill="#fff" stroke="#fff"/>
<g clip-path="url(#a)">
<g transform="translate(906.44 451.13) rotate(79.097) scale(.08 -.08)">
<use xlink:href="#ah"/>
</g>
</g>
<path d="m940.76 454.68 2.3472 4.2141q1.1678 2.0967 3.2645 0.92885l6.764-3.7675q2.0967-1.1678 0.92885-3.2645l-2.3472-4.2141q-1.1678-2.0967-3.2645-0.92885l-6.764 3.7675q-2.0967 1.1678-0.92885 3.2645z" clip-path="url(#a)" fill="#fff" stroke="#fff"/>
<g clip-path="url(#a)">
<g transform="translate(944.31 452.71) rotate(60.883) scale(.08 -.08)">
<use xlink:href="#u"/>
</g>
</g>
<path d="m951.37 404.73 4.3381 3.3361q1.9025 1.4631 3.3655-0.43944l4.7199-6.1375q1.4631-1.9025-0.43944-3.3655l-4.3381-3.3361q-1.9025-1.4631-3.3655 0.43944l-4.7199 6.1375q-1.4631 1.9025 0.43944 3.3655z" clip-path="url(#a)" fill="#fff" stroke="#fff"/>
<g clip-path="url(#a)">
<g transform="translate(953.85 401.51) rotate(37.561) scale(.08 -.08)">
<use xlink:href="#n"/>
</g>
</g>
<path d="m743.39 460.43 4.4548-3.1786q1.9537-1.394 0.55968-3.3476l-4.4971-6.3026q-1.394-1.9537-3.3476-0.55968l-4.4548 3.1786q-1.9537 1.394-0.55968 3.3476l4.4971 6.3026q1.394 1.9537 3.3476 0.55968z" clip-path="url(#a)" fill="#fff" stroke="#fff"/>
<g clip-path="url(#a)">
<g transform="translate(741.03 457.12) rotate(-35.509) scale(.08 -.08)">
<use xlink:href="#n"/>
</g>
</g>
<path d="m923.12 593.32v33.808q0 2.4 2.4 2.4h7.7425q2.4 0 2.4-2.4v-33.808q0-2.4-2.4-2.4h-7.7425q-2.4 0-2.4 2.4z" clip-path="url(#a)" fill="#fff" stroke="#fff"/>
<g clip-path="url(#a)">
<g transform="translate(927.19 593.32) rotate(90) scale(.08 -.08)">
<use xlink:href="#e"/>
<use x="44.083984" xlink:href="#l"/>
<use x="105.607422" xlink:href="#g"/>
<use x="144.970703" xlink:href="#i"/>
<use x="242.382812" xlink:href="#k"/>
<use x="270.166016" xlink:href="#h"/>
<use x="333.544922" xlink:href="#f"/>
<use x="394.824219" xlink:href="#j"/>
</g>
</g>
<path d="m999.56 593.32v33.808q0 2.4 2.4 2.4h7.7425q2.4 0 2.4-2.4v-33.808q0-2.4-2.4-2.4h-7.7425q-2.4 0-2.4 2.4z" clip-path="url(#a)" fill="#fff" stroke="#fff"/>
<g clip-path="url(#a)">
<g transform="translate(1003.6 593.32) rotate(90) scale(.08 -.08)">
<use xlink:href="#e"/>
<use x="44.083984" xlink:href="#l"/>
<use x="105.607422" xlink:href="#g"/>
<use x="144.970703" xlink:href="#i"/>
<use x="242.382812" xlink:href="#k"/>
<use x="270.166016" xlink:href="#h"/>
<use x="333.544922" xlink:href="#f"/>
<use x="394.824219" xlink:href="#j"/>
</g>
</g>
<path d="m1136.5 510.91 4.9877 2.252q2.1874 0.98762 3.175-1.1998l3.1861-7.0566q0.98762-2.1874-1.1998-3.175l-4.9877-2.252q-2.1874-0.98762-3.175 1.1998l-3.1861 7.0566q-0.98762 2.1874 1.1998 3.175z" clip-path="url(#a)" fill="#fff" stroke="#fff"/>
<g clip-path="url(#a)">
<g transform="translate(1138.2 507.21) rotate(24.3) scale(.08 -.08)">
<use xlink:href="#n"/>
</g>
</g>
<path d="m1049 507.34 2.3913 4.1893q1.1898 2.0843 3.2741 0.89455l6.7241-3.8383q2.0843-1.1898 0.89455-3.2741l-2.3913-4.1893q-1.1898-2.0843-3.2741-0.89455l-6.7241 3.8383q-2.0843 1.1898-0.89455 3.2741z" clip-path="url(#a)" fill="#fff" stroke="#fff"/>
<g clip-path="url(#a)">
<g transform="translate(1052.5 505.32) rotate(60.281) scale(.08 -.08)">
<use xlink:href="#u"/>
</g>
</g>
<path d="m809.18 513.06 5.3179-1.2915q2.3322-0.56641 1.7658-2.8986l-1.8273-7.5238q-0.56641-2.3322-2.8986-1.7658l-5.3179 1.2915q-2.3322 0.56641-1.7658 2.8986l1.8273 7.5238q0.56641 2.3322 2.8986 1.7658z" clip-path="url(#a)" fill="#fff" stroke="#fff"/>
<g clip-path="url(#a)">
<g transform="translate(808.22 509.11) rotate(-13.651) scale(.08 -.08)">
<use xlink:href="#n"/>
</g>
</g>
<path d="m1090.9 509.65 4.72 3.4645q1.9347 1.4201 3.3549-0.5146l4.5814-6.2415q1.4201-1.9347-0.5146-3.3549l-4.72-3.4645q-1.9347-1.4201-3.3549 0.5146l-4.5814 6.2415q-1.4201 1.9347 0.5146 3.3549z" clip-path="url(#a)" fill="#fff" stroke="#fff"/>
<g clip-path="url(#a)">
<g transform="translate(1093.3 506.37) rotate(36.279) scale(.08 -.08)">
<use xlink:href="#s"/>
</g>
</g>
<path d="m1134.7 510.81 5.3236 2.4372q2.1822 0.99902 3.1812-1.1832l3.2229-7.0398q0.99902-2.1822-1.1832-3.1812l-5.3236-2.4372q-2.1822-0.99902-3.1812 1.1832l-3.2229 7.0398q-0.99902 2.1822 1.1832 3.1812z" clip-path="url(#a)" fill="#fff" stroke="#fff"/>
<g clip-path="url(#a)">
<g transform="translate(1136.4 507.11) rotate(24.598) scale(.08 -.08)">
<use xlink:href="#s"/>
</g>
</g>
<path d="m1079.2 593.32v33.808q0 2.4 2.4 2.4h7.7425q2.4 0 2.4-2.4v-33.808q0-2.4-2.4-2.4h-7.7425q-2.4 0-2.4 2.4z" clip-path="url(#a)" fill="#fff" stroke="#fff"/>
<g clip-path="url(#a)">
<g transform="translate(1083.3 593.32) rotate(90) scale(.08 -.08)">
<use xlink:href="#e"/>
<use x="44.083984" xlink:href="#l"/>
<use x="105.607422" xlink:href="#g"/>
<use x="144.970703" xlink:href="#i"/>
<use x="242.382812" xlink:href="#k"/>
<use x="270.166016" xlink:href="#h"/>
<use x="333.544922" xlink:href="#f"/>
<use x="394.824219" xlink:href="#j"/>
</g>
</g>
<path d="m588.69 593.32v33.808q0 2.4 2.4 2.4h7.7425q2.4 0 2.4-2.4v-33.808q0-2.4-2.4-2.4h-7.7425q-2.4 0-2.4 2.4z" clip-path="url(#a)" fill="#fff" stroke="#fff"/>
<g clip-path="url(#a)">
<g transform="translate(592.76 593.32) rotate(90) scale(.08 -.08)">
<use xlink:href="#e"/>
<use x="44.083984" xlink:href="#l"/>
<use x="105.607422" xlink:href="#g"/>
<use x="144.970703" xlink:href="#i"/>
<use x="242.382812" xlink:href="#k"/>
<use x="270.166016" xlink:href="#h"/>
<use x="333.544922" xlink:href="#f"/>
<use x="394.824219" xlink:href="#j"/>
</g>
</g>
<path d="m649.21 593.32v33.808q0 2.4 2.4 2.4h7.7425q2.4 0 2.4-2.4v-33.808q0-2.4-2.4-2.4h-7.7425q-2.4 0-2.4 2.4z" clip-path="url(#a)" fill="#fff" stroke="#fff"/>
<g clip-path="url(#a)">
<g transform="translate(653.27 593.32) rotate(90) scale(.08 -.08)">
<use xlink:href="#e"/>
<use x="44.083984" xlink:href="#l"/>
<use x="105.607422" xlink:href="#g"/>
<use x="144.970703" xlink:href="#i"/>
<use x="242.382812" xlink:href="#k"/>
<use x="270.166016" xlink:href="#h"/>
<use x="333.544922" xlink:href="#f"/>
<use x="394.824219" xlink:href="#j"/>
</g>
</g>
<path d="m712.91 593.32v33.808q0 2.4 2.4 2.4h7.7425q2.4 0 2.4-2.4v-33.808q0-2.4-2.4-2.4h-7.7425q-2.4 0-2.4 2.4z" clip-path="url(#a)" fill="#fff" stroke="#fff"/>
<g clip-path="url(#a)">
<g transform="translate(716.97 593.32) rotate(90) scale(.08 -.08)">
<use xlink:href="#e"/>
<use x="44.083984" xlink:href="#l"/>
<use x="105.607422" xlink:href="#g"/>
<use x="144.970703" xlink:href="#i"/>
<use x="242.382812" xlink:href="#k"/>
<use x="270.166016" xlink:href="#h"/>
<use x="333.544922" xlink:href="#f"/>
<use x="394.824219" xlink:href="#j"/>
</g>
</g>
<path d="m426.26 593.32v33.808q0 2.4 2.4 2.4h7.7425q2.4 0 2.4-2.4v-33.808q0-2.4-2.4-2.4h-7.7425q-2.4 0-2.4 2.4z" clip-path="url(#a)" fill="#fff" stroke="#fff"/>
<g clip-path="url(#a)">
<g transform="translate(430.32 593.32) rotate(90) scale(.08 -.08)">
<use xlink:href="#e"/>
<use x="44.083984" xlink:href="#l"/>
<use x="105.607422" xlink:href="#g"/>
<use x="144.970703" xlink:href="#i"/>
<use x="242.382812" xlink:href="#k"/>
<use x="270.166016" xlink:href="#h"/>
<use x="333.544922" xlink:href="#f"/>
<use x="394.824219" xlink:href="#j"/>
</g>
</g>
<path d="m477.22 593.32v33.808q0 2.4 2.4 2.4h7.7425q2.4 0 2.4-2.4v-33.808q0-2.4-2.4-2.4h-7.7425q-2.4 0-2.4 2.4z" clip-path="url(#a)" fill="#fff" stroke="#fff"/>
<g clip-path="url(#a)">
<g transform="translate(481.28 593.32) rotate(90) scale(.08 -.08)">
<use xlink:href="#e"/>
<use x="44.083984" xlink:href="#l"/>
<use x="105.607422" xlink:href="#g"/>
<use x="144.970703" xlink:href="#i"/>
<use x="242.382812" xlink:href="#k"/>
<use x="270.166016" xlink:href="#h"/>
<use x="333.544922" xlink:href="#f"/>
<use x="394.824219" xlink:href="#j"/>
</g>
</g>
<path d="m73.926 456.44 0.3374-4.4447q0.18166-2.3931-2.2115-2.5748l-7.7203-0.58605q-2.3931-0.18166-2.5748 2.2115l-0.3374 4.4447q-0.18166 2.3931 2.2115 2.5748l7.7203 0.58605q2.3931 0.18166 2.5748-2.2115z" clip-path="url(#a)" fill="#fff" stroke="#fff"/>
<g clip-path="url(#a)">
<g transform="translate(69.874 456.13) rotate(-85.659) scale(.08 -.08)">
<use xlink:href="#y"/>
</g>
</g>
<path d="m77.116 399.39 0.90074 5.9484q0.35932 2.3729 2.7323 2.0136l7.6552-1.1592q2.3729-0.35932 2.0136-2.7323l-0.90074-5.9484q-0.35932-2.3729-2.7323-2.0136l-7.6552 1.1592q-2.3729 0.35932-2.0136 2.7323z" clip-path="url(#a)" fill="#fff" stroke="#fff"/>
<g clip-path="url(#a)">
<g transform="translate(81.134 398.78) rotate(81.389) scale(.08 -.08)">
<use xlink:href="#z"/>
</g>
</g>
<path d="m187.38 593.32v33.808q0 2.4 2.4 2.4h7.7425q2.4 0 2.4-2.4v-33.808q0-2.4-2.4-2.4h-7.7425q-2.4 0-2.4 2.4z" clip-path="url(#a)" fill="#fff" stroke="#fff"/>
<g clip-path="url(#a)">
<g transform="translate(191.44 593.32) rotate(90) scale(.08 -.08)">
<use xlink:href="#e"/>
<use x="44.083984" xlink:href="#l"/>
<use x="105.607422" xlink:href="#g"/>
<use x="144.970703" xlink:href="#i"/>
<use x="242.382812" xlink:href="#k"/>
<use x="270.166016" xlink:href="#h"/>
<use x="333.544922" xlink:href="#f"/>
<use x="394.824219" xlink:href="#j"/>
</g>
</g>
<path d="m253.44 299.12 0.41813-5.0377q0.19852-2.3918-2.1933-2.5903l-7.716-0.64043q-2.3918-0.19852-2.5903 2.1933l-0.41813 5.0377q-0.19852 2.3918 2.1933 2.5903l7.716 0.64043q2.3918 0.19852 2.5903-2.1933z" clip-path="url(#a)" fill="#fff" stroke="#fff"/>
<g clip-path="url(#a)">
<g transform="translate(249.39 298.78) rotate(-85.255) scale(.08 -.08)">
<defs>
<path id="ba" d="m9.8125 72.906h46.094v-8.3125h-36.234v-21.578h34.719v-8.2969h-34.719v-26.422h37.109v-8.2969h-46.969z"/>
</defs>
<use xlink:href="#ba"/>
</g>
</g>
<path d="m249.78 346.13 0.23203 5.5814q0.099685 2.3979 2.4976 2.2982l7.7358-0.32159q2.3979-0.099684 2.2982-2.4976l-0.23203-5.5814q-0.099685-2.3979-2.4976-2.2982l-7.7358 0.32159q-2.3979 0.099685-2.2982 2.4976z" clip-path="url(#a)" fill="#fff" stroke="#fff"/>
<g clip-path="url(#a)">
<g transform="translate(253.84 345.97) rotate(87.62) scale(.08 -.08)">
<defs>
<path id="aq" d="m64.406 67.281v-10.391q-4.9844 4.6406-10.625 6.9219-5.6406 2.2969-11.984 2.2969-12.5 0-19.141-7.6406t-6.6406-22.094q0-14.406 6.6406-22.047t19.141-7.6406q6.3438 0 11.984 2.2969t10.625 6.9375v-10.312q-5.1719-3.5156-10.969-5.2812-5.7812-1.75-12.219-1.75-16.562 0-26.094 10.125-9.5156 10.141-9.5156 27.672 0 17.578 9.5156 27.703 9.5312 10.141 26.094 10.141 6.5312 0 12.312-1.7344 5.7969-1.7344 10.875-5.2031z"/>
</defs>
<use xlink:href="#aq"/>
</g>
</g>
<path d="m245.14 399.76 0.89915 5.3981q0.39433 2.3674 2.7617 1.9731l7.6373-1.2721q2.3674-0.39433 1.9731-2.7617l-0.89915-5.3981q-0.39433-2.3674-2.7617-1.9731l-7.6373 1.2721q-2.3674 0.39433-1.9731 2.7617z" clip-path="url(#a)" fill="#fff" stroke="#fff"/>
<g clip-path="url(#a)">
<g transform="translate(249.15 399.09) rotate(80.543) scale(.08 -.08)">
<use xlink:href="#n"/>
</g>
</g>
<path d="m240.3 456.79 0.42261-5.0611q0.19971-2.3917-2.192-2.5914l-7.7156-0.64427q-2.3917-0.19971-2.5914 2.192l-0.42261 5.0611q-0.19971 2.3917 2.192 2.5914l7.7156 0.64427q2.3917 0.19971 2.5914-2.192z" clip-path="url(#a)" fill="#fff" stroke="#fff"/>
<g clip-path="url(#a)">
<g transform="translate(236.25 456.45) rotate(-85.227) scale(.08 -.08)">
<defs>
<path id="af" d="m53.516 70.516v-9.625q-5.6094 2.6875-10.594 4-4.9844 1.3281-9.625 1.3281-8.0469 0-12.422-3.125t-4.375-8.8906q0-4.8438 2.9062-7.3125 2.9062-2.4531 11.016-3.9688l5.9531-1.2188q11.031-2.1094 16.281-7.4062t5.25-14.172q0-10.609-7.1094-16.078-7.0938-5.4688-20.812-5.4688-5.1719 0-11.016 1.1719-5.8281 1.1719-12.078 3.4688v10.156q6-3.3594 11.766-5.0781 5.7656-1.7031 11.328-1.7031 8.4375 0 13.031 3.3125 4.5938 3.3281 4.5938 9.4844 0 5.3594-3.2969 8.3906t-10.812 4.5469l-6.0156 1.1719q-11.031 2.1875-15.969 6.875-4.9219 4.6875-4.9219 13.047 0 9.6719 6.8125 15.234t18.766 5.5625q5.1406 0 10.453-0.9375 5.3281-0.92188 10.891-2.7656z"/>
</defs>
<use xlink:href="#af"/>
</g>
</g>
<path d="m254.14 499.7v13.246q0 2.4 2.4 2.4h8q2.4 0 2.4-2.4v-13.246q0-2.4-2.4-2.4h-8q-2.4 0-2.4 2.4z" clip-path="url(#a)" fill="#fff" stroke="#fff"/>
<g clip-path="url(#a)">
<g transform="translate(258.42 499.7) rotate(90) scale(.08 -.08)">
<defs>
<path id="bc" d="m21 76.422v-100h-8.2969v100z"/>
</defs>
<use xlink:href="#n"/>
<use x="68.408203" xlink:href="#bc"/>
<use x="102.099609" xlink:href="#af"/>
</g>
</g>
<path d="m254.27 593.32v33.808q0 2.4 2.4 2.4h7.7425q2.4 0 2.4-2.4v-33.808q0-2.4-2.4-2.4h-7.7425q-2.4 0-2.4 2.4z" clip-path="url(#a)" fill="#fff" stroke="#fff"/>
<g clip-path="url(#a)">
<g transform="translate(258.33 593.32) rotate(90) scale(.08 -.08)">
<use xlink:href="#e"/>
<use x="44.083984" xlink:href="#l"/>
<use x="105.607422" xlink:href="#g"/>
<use x="144.970703" xlink:href="#i"/>
<use x="242.382812" xlink:href="#k"/>
<use x="270.166016" xlink:href="#h"/>
<use x="333.544922" xlink:href="#f"/>
<use x="394.824219" xlink:href="#j"/>
</g>
</g>
<path d="m219.23 593.32v33.808q0 2.4 2.4 2.4h7.7425q2.4 0 2.4-2.4v-33.808q0-2.4-2.4-2.4h-7.7425q-2.4 0-2.4 2.4z" clip-path="url(#a)" fill="#fff" stroke="#fff"/>
<g clip-path="url(#a)">
<g transform="translate(223.29 593.32) rotate(90) scale(.08 -.08)">
<use xlink:href="#e"/>
<use x="44.083984" xlink:href="#l"/>
<use x="105.607422" xlink:href="#g"/>
<use x="144.970703" xlink:href="#i"/>
<use x="242.382812" xlink:href="#k"/>
<use x="270.166016" xlink:href="#h"/>
<use x="333.544922" xlink:href="#f"/>
<use x="394.824219" xlink:href="#j"/>
</g>
</g>
<path d="m53.608 593.32v33.808q0 2.4 2.4 2.4h7.7425q2.4 0 2.4-2.4v-33.808q0-2.4-2.4-2.4h-7.7425q-2.4 0-2.4 2.4z" clip-path="url(#a)" fill="#fff" stroke="#fff"/>
<g clip-path="url(#a)">
<g transform="translate(57.671 593.32) rotate(90) scale(.08 -.08)">
<use xlink:href="#e"/>
<use x="44.083984" xlink:href="#l"/>
<use x="105.607422" xlink:href="#g"/>
<use x="144.970703" xlink:href="#i"/>
<use x="242.382812" xlink:href="#k"/>
<use x="270.166016" xlink:href="#h"/>
<use x="333.544922" xlink:href="#f"/>
<use x="394.824219" xlink:href="#j"/>
</g>
</g>
<path d="m86.145 510.31 1.1406-5.3523q0.50022-2.3473-1.8471-2.8475l-7.5725-1.6137q-2.3473-0.50022-2.8475 1.8471l-1.1406 5.3523q-0.50022 2.3473 1.8471 2.8475l7.5725 1.6137q2.3473 0.50022 2.8475-1.8471z" clip-path="url(#a)" fill="#fff" stroke="#fff"/>
<g clip-path="url(#a)">
<g transform="translate(82.17 509.46) rotate(-77.97) scale(.08 -.08)">
<use xlink:href="#n"/>
</g>
</g>
<path d="m92.966 509.42 0.46193-5.0577q0.21829-2.3901-2.1718-2.6083l-7.7104-0.7042q-2.3901-0.21829-2.6083 2.1718l-0.46193 5.0577q-0.21829 2.3901 2.1718 2.6083l7.7104 0.7042q2.3901 0.21829 2.6083-2.1718z" clip-path="url(#a)" fill="#fff" stroke="#fff"/>
<g clip-path="url(#a)">
<g transform="translate(88.919 509.05) rotate(-84.782) scale(.08 -.08)">
<use xlink:href="#af"/>
</g>
</g>
<path d="m97.729 505.15 1.295 5.3171q0.56792 2.3318 2.8998 1.7639l7.5226-1.8321q2.3318-0.56792 1.7639-2.8998l-1.295-5.3171q-0.56792-2.3318-2.8998-1.7639l-7.5226 1.8321q-2.3318 0.56792-1.7639 2.8998z" clip-path="url(#a)" fill="#fff" stroke="#fff"/>
<g clip-path="url(#a)">
<g transform="translate(101.68 504.19) rotate(76.312) scale(.08 -.08)">
<use xlink:href="#n"/>
</g>
</g>
<path d="m88.477 503.78 0.35584 5.8442q0.14586 2.3956 2.5414 2.2497l7.7282-0.47055q2.3956-0.14586 2.2497-2.5414l-0.35584-5.8442q-0.14586-2.3956-2.5414-2.2497l-7.7282 0.47055q-2.3956 0.14586-2.2497 2.5414z" clip-path="url(#a)" fill="#fff" stroke="#fff"/>
<g clip-path="url(#a)">
<g transform="translate(92.533 503.54) rotate(86.516) scale(.08 -.08)">
<use xlink:href="#s"/>
</g>
</g>
<path d="m63.163 593.32v33.808q0 2.4 2.4 2.4h7.7425q2.4 0 2.4-2.4v-33.808q0-2.4-2.4-2.4h-7.7425q-2.4 0-2.4 2.4z" clip-path="url(#a)" fill="#fff" stroke="#fff"/>
<g clip-path="url(#a)">
<g transform="translate(67.226 593.32) rotate(90) scale(.08 -.08)">
<use xlink:href="#e"/>
<use x="44.083984" xlink:href="#l"/>
<use x="105.607422" xlink:href="#g"/>
<use x="144.970703" xlink:href="#i"/>
<use x="242.382812" xlink:href="#k"/>
<use x="270.166016" xlink:href="#h"/>
<use x="333.544922" xlink:href="#f"/>
<use x="394.824219" xlink:href="#j"/>
</g>
</g>
<path d="m75.903 593.32v33.808q0 2.4 2.4 2.4h7.7425q2.4 0 2.4-2.4v-33.808q0-2.4-2.4-2.4h-7.7425q-2.4 0-2.4 2.4z" clip-path="url(#a)" fill="#fff" stroke="#fff"/>
<g clip-path="url(#a)">
<g transform="translate(79.967 593.32) rotate(90) scale(.08 -.08)">
<use xlink:href="#e"/>
<use x="44.083984" xlink:href="#l"/>
<use x="105.607422" xlink:href="#g"/>
<use x="144.970703" xlink:href="#i"/>
<use x="242.382812" xlink:href="#k"/>
<use x="270.166016" xlink:href="#h"/>
<use x="333.544922" xlink:href="#f"/>
<use x="394.824219" xlink:href="#j"/>
</g>
</g>
<path d="m110.94 593.32v33.808q0 2.4 2.4 2.4h7.7425q2.4 0 2.4-2.4v-33.808q0-2.4-2.4-2.4h-7.7425q-2.4 0-2.4 2.4z" clip-path="url(#a)" fill="#fff" stroke="#fff"/>
<g clip-path="url(#a)">
<g transform="translate(115 593.32) rotate(90) scale(.08 -.08)">
<use xlink:href="#e"/>
<use x="44.083984" xlink:href="#l"/>
<use x="105.607422" xlink:href="#g"/>
<use x="144.970703" xlink:href="#i"/>
<use x="242.382812" xlink:href="#k"/>
<use x="270.166016" xlink:href="#h"/>
<use x="333.544922" xlink:href="#f"/>
<use x="394.824219" xlink:href="#j"/>
</g>
</g>
<path d="m91.828 593.32v33.808q0 2.4 2.4 2.4h7.7425q2.4 0 2.4-2.4v-33.808q0-2.4-2.4-2.4h-7.7425q-2.4 0-2.4 2.4z" clip-path="url(#a)" fill="#fff" stroke="#fff"/>
<g clip-path="url(#a)">
<g transform="translate(95.892 593.32) rotate(90) scale(.08 -.08)">
<use xlink:href="#e"/>
<use x="44.083984" xlink:href="#l"/>
<use x="105.607422" xlink:href="#g"/>
<use x="144.970703" xlink:href="#i"/>
<use x="242.382812" xlink:href="#k"/>
<use x="270.166016" xlink:href="#h"/>
<use x="333.544922" xlink:href="#f"/>
<use x="394.824219" xlink:href="#j"/>
</g>
</g>
<path d="m133.23 593.32v33.808q0 2.4 2.4 2.4h7.7425q2.4 0 2.4-2.4v-33.808q0-2.4-2.4-2.4h-7.7425q-2.4 0-2.4 2.4z" clip-path="url(#a)" fill="#fff" stroke="#fff"/>
<g clip-path="url(#a)">
<g transform="translate(137.3 593.32) rotate(90) scale(.08 -.08)">
<use xlink:href="#e"/>
<use x="44.083984" xlink:href="#l"/>
<use x="105.607422" xlink:href="#g"/>
<use x="144.970703" xlink:href="#i"/>
<use x="242.382812" xlink:href="#k"/>
<use x="270.166016" xlink:href="#h"/>
<use x="333.544922" xlink:href="#f"/>
<use x="394.824219" xlink:href="#j"/>
</g>
</g>
<path d="m158.71 593.32v33.808q0 2.4 2.4 2.4h7.7425q2.4 0 2.4-2.4v-33.808q0-2.4-2.4-2.4h-7.7425q-2.4 0-2.4 2.4z" clip-path="url(#a)" fill="#fff" stroke="#fff"/>
<g clip-path="url(#a)">
<g transform="translate(162.78 593.32) rotate(90) scale(.08 -.08)">
<use xlink:href="#e"/>
<use x="44.083984" xlink:href="#l"/>
<use x="105.607422" xlink:href="#g"/>
<use x="144.970703" xlink:href="#i"/>
<use x="242.382812" xlink:href="#k"/>
<use x="270.166016" xlink:href="#h"/>
<use x="333.544922" xlink:href="#f"/>
<use x="394.824219" xlink:href="#j"/>
</g>
</g>
<path d="m292.49 593.32v33.808q0 2.4 2.4 2.4h7.7425q2.4 0 2.4-2.4v-33.808q0-2.4-2.4-2.4h-7.7425q-2.4 0-2.4 2.4z" clip-path="url(#a)" fill="#fff" stroke="#fff"/>
<g clip-path="url(#a)">
<g transform="translate(296.55 593.32) rotate(90) scale(.08 -.08)">
<use xlink:href="#e"/>
<use x="44.083984" xlink:href="#l"/>
<use x="105.607422" xlink:href="#g"/>
<use x="144.970703" xlink:href="#i"/>
<use x="242.382812" xlink:href="#k"/>
<use x="270.166016" xlink:href="#h"/>
<use x="333.544922" xlink:href="#f"/>
<use x="394.824219" xlink:href="#j"/>
</g>
</g>
<path d="m531.36 593.32v33.808q0 2.4 2.4 2.4h7.7425q2.4 0 2.4-2.4v-33.808q0-2.4-2.4-2.4h-7.7425q-2.4 0-2.4 2.4z" clip-path="url(#a)" fill="#fff" stroke="#fff"/>
<g clip-path="url(#a)">
<g transform="translate(535.43 593.32) rotate(90) scale(.08 -.08)">
<use xlink:href="#e"/>
<use x="44.083984" xlink:href="#l"/>
<use x="105.607422" xlink:href="#g"/>
<use x="144.970703" xlink:href="#i"/>
<use x="242.382812" xlink:href="#k"/>
<use x="270.166016" xlink:href="#h"/>
<use x="333.544922" xlink:href="#f"/>
<use x="394.824219" xlink:href="#j"/>
</g>
</g>
<path d="m779.8 593.32v33.808q0 2.4 2.4 2.4h7.7425q2.4 0 2.4-2.4v-33.808q0-2.4-2.4-2.4h-7.7425q-2.4 0-2.4 2.4z" clip-path="url(#a)" fill="#fff" stroke="#fff"/>
<g clip-path="url(#a)">
<g transform="translate(783.86 593.32) rotate(90) scale(.08 -.08)">
<use xlink:href="#e"/>
<use x="44.083984" xlink:href="#l"/>
<use x="105.607422" xlink:href="#g"/>
<use x="144.970703" xlink:href="#i"/>
<use x="242.382812" xlink:href="#k"/>
<use x="270.166016" xlink:href="#h"/>
<use x="333.544922" xlink:href="#f"/>
<use x="394.824219" xlink:href="#j"/>
</g>
</g>
<path d="m1162 593.32v33.808q0 2.4 2.4 2.4h7.7425q2.4 0 2.4-2.4v-33.808q0-2.4-2.4-2.4h-7.7425q-2.4 0-2.4 2.4z" clip-path="url(#a)" fill="#fff" stroke="#fff"/>
<g clip-path="url(#a)">
<g transform="translate(1166.1 593.32) rotate(90) scale(.08 -.08)">
<use xlink:href="#e"/>
<use x="44.083984" xlink:href="#l"/>
<use x="105.607422" xlink:href="#g"/>
<use x="144.970703" xlink:href="#i"/>
<use x="242.382812" xlink:href="#k"/>
<use x="270.166016" xlink:href="#h"/>
<use x="333.544922" xlink:href="#f"/>
<use x="394.824219" xlink:href="#j"/>
</g>
</g>
<path d="m1248 593.32v33.808q0 2.4 2.4 2.4h7.7425q2.4 0 2.4-2.4v-33.808q0-2.4-2.4-2.4h-7.7425q-2.4 0-2.4 2.4z" clip-path="url(#a)" fill="#fff" stroke="#fff"/>
<g clip-path="url(#a)">
<g transform="translate(1252.1 593.32) rotate(90) scale(.08 -.08)">
<use xlink:href="#e"/>
<use x="44.083984" xlink:href="#l"/>
<use x="105.607422" xlink:href="#g"/>
<use x="144.970703" xlink:href="#i"/>
<use x="242.382812" xlink:href="#k"/>
<use x="270.166016" xlink:href="#h"/>
<use x="333.544922" xlink:href="#f"/>
<use x="394.824219" xlink:href="#j"/>
</g>
</g>
<defs>
<path id="b" d="m0 8.6603c2.2967 0 4.4997-0.9125 6.1237-2.5365 1.624-1.624 2.5365-3.827 2.5365-6.1237s-0.9125-4.4997-2.5365-6.1237c-1.624-1.624-3.827-2.5365-6.1237-2.5365s-4.4997 0.9125-6.1237 2.5365c-1.624 1.624-2.5365 3.827-2.5365 6.1237s0.9125 4.4997 2.5365 6.1237c1.624 1.624 3.827 2.5365 6.1237 2.5365z"/>
</defs>
<g clip-path="url(#a)" fill="#ffffff" stroke="#ffffff">
<use x="59.878788" y="661.818182" xlink:href="#b"/>
<use x="69.433914" y="661.818182" xlink:href="#b"/>
<use x="82.174081" y="661.818182" xlink:href="#b"/>
<use x="98.099291" y="661.818182" xlink:href="#b"/>
<use x="117.209542" y="661.818182" xlink:href="#b"/>
<use x="139.504836" y="661.818182" xlink:href="#b"/>
<use x="164.985171" y="661.818182" xlink:href="#b"/>
<use x="193.650548" y="661.818182" xlink:href="#b"/>
<use x="225.500967" y="661.818182" xlink:href="#b"/>
<use x="260.536428" y="661.818182" xlink:href="#b"/>
<use x="298.756931" y="661.818182" xlink:href="#b"/>
<use x="340.162476" y="661.818182" xlink:href="#b"/>
<use x="384.753063" y="661.818182" xlink:href="#b"/>
<use x="432.528691" y="661.818182" xlink:href="#b"/>
<use x="483.489362" y="661.818182" xlink:href="#b"/>
<use x="537.635074" y="661.818182" xlink:href="#b"/>
<use x="594.965828" y="661.818182" xlink:href="#b"/>
<use x="655.481625" y="661.818182" xlink:href="#b"/>
<use x="719.182463" y="661.818182" xlink:href="#b"/>
<use x="786.068343" y="661.818182" xlink:href="#b"/>
<use x="856.139265" y="661.818182" xlink:href="#b"/>
<use x="929.395229" y="661.818182" xlink:href="#b"/>
<use x="1005.836235" y="661.818182" xlink:href="#b"/>
<use x="1085.462282" y="661.818182" xlink:href="#b"/>
<use x="1168.273372" y="661.818182" xlink:href="#b"/>
<use x="1254.269504" y="661.818182" xlink:href="#b"/>
<use x="1257.454545" y="558.633167" xlink:href="#b"/>
<use x="543.189728" y="31.515152" xlink:href="#b"/>
<use x="165.144423" y="137.522433" xlink:href="#b"/>
<use x="340.162476" y="558.633167" xlink:href="#b"/>
<use x="384.753063" y="558.633167" xlink:href="#b"/>
<use x="512.154739" y="454.012734" xlink:href="#b"/>
<use x="656.543305" y="454.012734" xlink:href="#b"/>
<use x="856.139265" y="558.633167" xlink:href="#b"/>
<use x="888.98501" y="348.843577" xlink:href="#b"/>
<use x="929.395229" y="558.633167" xlink:href="#b"/>
<use x="1005.836235" y="558.633167" xlink:href="#b"/>
<use x="1025.742747" y="454.012734" xlink:href="#b"/>
<use x="1085.462282" y="558.633167" xlink:href="#b"/>
<use x="594.965828" y="558.633167" xlink:href="#b"/>
<use x="655.481625" y="558.633167" xlink:href="#b"/>
<use x="719.182463" y="558.633167" xlink:href="#b"/>
<use x="432.528691" y="558.633167" xlink:href="#b"/>
<use x="483.489362" y="558.633167" xlink:href="#b"/>
<use x="75.803997" y="348.843577" xlink:href="#b"/>
<use x="193.650548" y="558.633167" xlink:href="#b"/>
<use x="251.777563" y="243.316485" xlink:href="#b"/>
<use x="243.018698" y="348.843577" xlink:href="#b"/>
<use x="260.536428" y="454.012734" xlink:href="#b"/>
<use x="260.536428" y="558.633167" xlink:href="#b"/>
<use x="225.500967" y="558.633167" xlink:href="#b"/>
<use x="59.878788" y="558.633167" xlink:href="#b"/>
<use x="91.729207" y="454.012734" xlink:href="#b"/>
<use x="69.433914" y="558.633167" xlink:href="#b"/>
<use x="82.174081" y="558.633167" xlink:href="#b"/>
<use x="117.209542" y="558.633167" xlink:href="#b"/>
<use x="98.099291" y="558.633167" xlink:href="#b"/>
<use x="139.504836" y="558.633167" xlink:href="#b"/>
<use x="164.985171" y="558.633167" xlink:href="#b"/>
<use x="298.756931" y="558.633167" xlink:href="#b"/>
<use x="537.635074" y="558.633167" xlink:href="#b"/>
<use x="786.068343" y="558.633167" xlink:href="#b"/>
<use x="1168.273372" y="558.633167" xlink:href="#b"/>
<use x="1254.269504" y="558.633167" xlink:href="#b"/>
</g>
<g clip-path="url(#a)">
<g transform="translate(56.458 664.58) scale(.1 -.1)">
<defs>
<path id="bk" d="m34.188 63.188-13.391-36.281h26.812zm-5.5781 9.7188h11.188l27.781-72.906h-10.25l-6.6406 18.703h-32.859l-6.6406-18.703h-10.406z"/>
</defs>
<use xlink:href="#bk"/>
</g>
</g>
<g clip-path="url(#a)">
<g transform="translate(60.508 664.58) scale(.1 -.1)">
<defs>
<path id="au" d="m41.016 0v23h-16.75q-7.4688 0-12.453 4.6406-4.4844 4.2031-4.4844 13.188v13.859h8.9844v-13.031q0-5.7188 2.5312-8.5938 2.5938-2.8906 7.6719-2.8906h14.5v24.516h8.9844v-54.688z"/>
<path id="v" d="m2.9375 54.688h52.391v-7.1719h-21.781v-47.516h-8.8438v47.516h-21.766z"/>
<path id="q" d="m30.609 48.391q-7.2188 0-11.422-5.6406t-4.2031-15.453 4.1719-15.453q4.1875-5.6406 11.453-5.6406 7.1875 0 11.375 5.6562 4.2031 5.6719 4.2031 15.438 0 9.7188-4.2031 15.406-4.1875 5.6875-11.375 5.6875zm0 7.6094q11.719 0 18.406-7.625 6.7031-7.6094 6.7031-21.078 0-13.422-6.7031-21.078-6.6875-7.6406-18.406-7.6406-11.766 0-18.438 7.6406-6.6562 7.6562-6.6562 21.078 0 13.469 6.6562 21.078 6.6719 7.625 18.438 7.625z"/>
</defs>
<use xlink:href="#au"/>
<use x="59.082031" xlink:href="#v"/>
<use x="117.333984" xlink:href="#q"/>
</g>
</g>
<g clip-path="url(#a)">
<g transform="translate(67.041 664.58) scale(.1 -.1)">
<defs>
<path id="r" d="m34.281 27.484q-10.891 0-15.094-2.4844t-4.2031-8.5q0-4.7812 3.1562-7.5938 3.1562-2.7969 8.5625-2.7969 7.4844 0 12 5.2969t4.5156 14.078v2zm17.922 3.7188v-31.203h-8.9844v8.2969q-3.0781-4.9688-7.6719-7.3438t-11.234-2.375q-8.3906 0-13.359 4.7188-4.9531 4.7188-4.9531 12.625 0 9.2188 6.1719 13.906 6.1875 4.6875 18.438 4.6875h12.609v0.89062q0 6.2031-4.0781 9.5938t-11.453 3.3906q-4.6875 0-9.1406-1.125-4.4375-1.125-8.5312-3.375v8.3125q4.9219 1.9062 9.5625 2.8438 4.6406 0.95312 9.0312 0.95312 11.875 0 17.734-6.1562 5.8594-6.1406 5.8594-18.641z"/>
<path id="ao" d="m9.0781 54.688h8.9375v-25.688l25.344 25.688h11.031l-20.891-21.141 23.578-33.547h-10.062l-19.375 27.594-9.625-9.7656v-17.828h-8.9375z"/>
<path id="t" d="m56.203 29.594v-4.3906h-41.312q0.59375-9.2812 5.5938-14.141t13.938-4.8594q5.1719 0 10.031 1.2656t9.6562 3.8125v-8.5q-4.8438-2.0469-9.9219-3.125t-10.297-1.0781q-13.094 0-20.734 7.6094-7.6406 7.625-7.6406 20.625 0 13.422 7.25 21.297 7.25 7.8906 19.562 7.8906 11.031 0 17.453-7.1094 6.4219-7.0938 6.4219-19.297zm-8.9844 2.6406q-0.09375 7.3594-4.125 11.75-4.0312 4.4062-10.672 4.4062-7.5156 0-12.031-4.25t-5.2031-11.969z"/>
</defs>
<use xlink:href="#v"/>
<use x="58.251953" xlink:href="#r"/>
<use x="119.53125" xlink:href="#ao"/>
<use x="179.931641" xlink:href="#q"/>
<use x="241.113281" xlink:href="#t"/>
</g>
</g>
<g clip-path="url(#a)">
<g transform="translate(95.799 664.58) scale(.1 -.1)">
<defs>
<path id="as" d="m17.922 72.906v-27.109h-8.2969v27.109zm18.453 0v-27.109h-8.2969v27.109z"/>
</defs>
<use xlink:href="#as"/>
</g>
</g>
<g clip-path="url(#a)">
<g transform="translate(86.625 664.58) scale(.1 -.1)">
<defs>
<path id="be" d="m5.5156 10.406q7.7188-4.2031 15.391-4.2031 7.1719 0 12.297 4.1719t6.0625 14.828h-27.734v7.1719h27.438q-0.59375 5.125-4.4844 10.562-3.875 5.4531-13.578 5.4531-7.5312 0-15.391-4.2031v8.4062q7.6719 3.4062 15.781 3.4062 12.781 0 20.125-7.7344 7.3594-7.7344 7.3594-20.969 0-13.188-7.1562-20.953t-19.703-7.7656q-9.2188 0-16.406 3.5156z"/>
<path id="bh" d="m14.797 27.297q0-11.469 3.5312-16.328 3.5469-4.8594 9.5469-4.8594 4.7969 0 10.359 8.2031v25.969q-5.5625 8.2031-10.359 8.2031-6 0-9.5469-4.8594-3.5312-4.8594-3.5312-16.328zm23.438-48.094v27.781q-2.7812-4.5938-5.9844-6.5t-7.25-1.9062q-8.1562 0-13.844 7.5469t-5.6875 20.969q0 13.438 5.6875 21.172t13.844 7.7344q4.0469 0 7.25-1.8594 3.2031-1.8438 5.9844-6.4375v25.203h9.0312v-25.203q2.7812 4.5938 5.9844 6.4375 3.2031 1.8594 7.25 1.8594 8.1562 0 13.844-7.7344t5.6875-21.172q0-13.422-5.6875-20.969t-13.844-7.5469q-4.0469 0-7.25 1.9062t-5.9844 6.5v-27.781zm32.469 48.094q0 11.469-3.5469 16.328-3.5312 4.8594-9.5312 4.8594-4.7969 0-10.359-8.2031v-25.969q5.5625-8.2031 10.359-8.2031 6 0 9.5312 4.8594 3.5469 4.8594 3.5469 16.328z"/>
<path id="bi" d="m9.0781 54.688h13.141l15.531-36.625 15.578 36.625h13.031v-54.688h-9.0312v46.094l-15.094-35.594h-8.9844l-15.141 35.594v-46.094h-9.0312z"/>
<path id="ac" d="m18.109 8.2031v-29h-9.0312v75.484h9.0312v-8.2969q2.8438 4.875 7.1562 7.2344 4.3281 2.375 10.328 2.375 9.9688 0 16.188-7.9062 6.2344-7.9062 6.2344-20.797t-6.2344-20.812q-6.2188-7.9062-16.188-7.9062-6 0-10.328 2.375-4.3125 2.375-7.1562 7.25zm30.578 19.094q0 9.9062-4.0781 15.547t-11.203 5.6406q-7.1406 0-11.219-5.6406t-4.0781-15.547 4.0781-15.547 11.219-5.6406q7.125 0 11.203 5.6406t4.0781 15.547z"/>
<path id="x" d="m9.0781 54.688h9.0312v-22.312h29.156v22.312h9.0312v-54.688h-9.0312v25.203h-29.156v-25.203h-9.0312z"/>
<path id="bf" d="m61.047 54.688h8.9844v-54.688h-8.9844zm4.5 1.3125m-22.094-39.781q0 4.3906-3.2031 6.6875-3.1875 2.2969-9.3438 2.2969h-12.797v-18.031h12.797q6.1562 0 9.3438 2.3125 3.2031 2.3281 3.2031 6.7344zm-34.375 38.469h9.0312v-22.312h13.188q10.453 0 16.094-3.9844 5.6406-3.9688 5.6406-12.172t-5.6406-12.219q-5.6406-4-16.094-4h-22.219z"/>
<path id="aw" d="m55.906 54.688v-54.688h-8.9375v43.891l-26.359-43.891h-11.531v54.688h8.9375v-43.797l26.328 43.797zm-38.688 20.828h5.7656q0.53125-3.6562 2.8906-5.5 2.375-1.8281 6.625-1.8281 4.2031 0 6.5469 1.8125t2.9688 5.5156h5.7656q-0.48438-6.9844-4.3438-10.5t-10.938-3.5156-10.938 3.5156-4.3438 10.5z"/>
</defs>
<use xlink:href="#be"/>
<use x="54.882812" xlink:href="#bh"/>
<use x="140.380859" xlink:href="#t"/>
<use x="201.904297" xlink:href="#bi"/>
<use x="277.34375" xlink:href="#t"/>
<use x="338.867188" xlink:href="#ac"/>
<use x="402.34375" xlink:href="#x"/>
<use x="467.724609" xlink:href="#bf"/>
<use x="546.679688" xlink:href="#aw"/>
</g>
</g>
<g clip-path="url(#a)">
<g transform="translate(134.55 664.58) scale(.1 -.1)">
<defs>
<path id="bb" d="m19.094 12.406h9.9062v-12.406h-9.9062zm9.625 7.1719h-9.3281v7.5156q0 4.9375 1.3594 8.1094 1.375 3.1719 5.7656 7.375l4.3906 4.3438q2.7812 2.5938 4.0312 4.8906t1.25 4.6875q0 4.3438-3.2031 7.0312t-8.4688 2.6875q-3.8594 0-8.2344-1.7188-4.3594-1.7031-9.1094-4.9844v9.1875q4.5938 2.7812 9.2969 4.1406 4.7188 1.375 9.75 1.375 8.9844 0 14.422-4.7344 5.4531-4.7344 5.4531-12.5 0-3.7188-1.7656-7.0625-1.75-3.3438-6.1406-7.5312l-4.2969-4.2031q-2.2969-2.2969-3.25-3.5938t-1.3438-2.5156q-0.29688-1.0156-0.4375-2.4844t-0.14062-4z"/>
</defs>
<use xlink:href="#as"/>
<use x="45.996094" xlink:href="#bb"/>
</g>
</g>
<g clip-path="url(#a)">
<g transform="translate(163.18 664.58) scale(.1 -.1)">
<defs>
<path id="ar" d="m4.8906 31.391h26.312v-8h-26.312z"/>
</defs>
<use xlink:href="#ar"/>
</g>
</g>
<g clip-path="url(#a)">
<g transform="translate(172.2 664.58) scale(.1 -.1)">
<defs>
<path id="ab" d="m48.781 52.594v-8.4062q-3.8125 2.1094-7.6406 3.1562t-7.7344 1.0469q-8.75 0-13.594-5.5469-4.8281-5.5312-4.8281-15.547t4.8281-15.562q4.8438-5.5312 13.594-5.5312 3.9062 0 7.7344 1.0469t7.6406 3.1562v-8.3125q-3.7656-1.75-7.7969-2.625-4.0156-0.89062-8.5625-0.89062-12.359 0-19.641 7.7656-7.2656 7.7656-7.2656 20.953 0 13.375 7.3438 21.031 7.3594 7.6719 20.156 7.6719 4.1406 0 8.0938-0.85938 3.9531-0.84375 7.6719-2.5469z"/>
<path id="w" d="m56.297 54.688v-54.688h-9.0312v47.516h-29.156v-47.516h-9.0312v54.688z"/>
<path id="ap" d="m55.906 54.688v-54.688h-8.9375v43.891l-26.359-43.891h-11.531v54.688h8.9375v-43.797l26.328 43.797z"/>
<path id="ad" d="m3.7188 0v7.4688q8.875 1.375 11.609 7.5156 3.3281 8.6562 3.3281 30.766v8.9375h36.953v-54.688h-8.9844v47.516h-18.984v-5.4219q0-21.094-4.2969-30.562-4.5938-10.109-19.625-11.531z"/>
</defs>
<use xlink:href="#ab"/>
<use x="54.980469" xlink:href="#w"/>
<use x="120.361328" xlink:href="#ac"/>
<use x="183.837891" xlink:href="#q"/>
<use x="245.019531" xlink:href="#ab"/>
<use x="300" xlink:href="#ap"/>
<use x="364.990234" xlink:href="#ad"/>
</g>
</g>
<g clip-path="url(#a)">
<g transform="translate(196.12 664.58) scale(.1 -.1)">
<defs>
<path id="bj" d="m9.8125 72.906h14.703l18.594-49.609 18.703 49.609h14.703v-72.906h-9.625v64.016l-18.797-50h-9.9062l-18.797 50v-64.016h-9.5781z"/>
<path id="at" d="m43.453 16.219q0 4.3906-3.2031 6.6875-3.1875 2.2969-9.3438 2.2969h-12.797v-18.031h12.797q6.1562 0 9.3438 2.3125 3.2031 2.3281 3.2031 6.7344zm-34.375 38.469h9.0312v-22.312h13.188q10.453 0 16.094-3.9844 5.6406-3.9688 5.6406-12.172t-5.6406-12.219q-5.6406-4-16.094-4h-22.219z"/>
</defs>
<use xlink:href="#bj"/>
<use x="86.279297" xlink:href="#r"/>
<use x="147.558594" xlink:href="#ad"/>
<use x="211.474609" xlink:href="#t"/>
<use x="272.998047" xlink:href="#x"/>
<use x="338.378906" xlink:href="#at"/>
<use x="397.314453" xlink:href="#ao"/>
<use x="457.714844" xlink:href="#ap"/>
<use x="522.705078" xlink:href="#aw"/>
</g>
</g>
<g clip-path="url(#a)">
<g transform="translate(244.17 664.58) scale(.1 -.1)">
<defs>
<path id="bg" d="m56.297 0h-47.219v54.688h9.0312v-47.516h29.156v47.516h9.0312v-47.516h7.1875v-20.984h-7.1875z"/>
</defs>
<use xlink:href="#w"/>
<use x="65.380859" xlink:href="#ac"/>
<use x="128.857422" xlink:href="#ap"/>
<use x="193.847656" xlink:href="#x"/>
<use x="259.228516" xlink:href="#bg"/>
</g>
</g>
<g clip-path="url(#a)">
<g transform="translate(297.17 664.58) scale(.1 -.1)">
<defs>
<path id="an" d="m11.719 12.406h10.297v-8.4062l-8-15.625h-6.2969l4 15.625z"/>
</defs>
<use xlink:href="#an"/>
</g>
</g>
<g clip-path="url(#a)">
<g transform="translate(327.74 664.58) scale(.1 -.1)">
<defs>
<path id="ae" d="m18.062 25.203v-18.031h12.797q6.1562 0 9.375 2.3125 3.2188 2.3281 3.2188 6.7344 0 4.3906-3.2188 6.6875t-9.375 2.2969zm0 22.312v-15.141h11.828q5.0781 0 8.2969 2.0156 3.2188 2.0312 3.2188 5.6562 0 3.6094-3.2188 5.5312-3.2188 1.9375-8.2969 1.9375zm-8.9844 7.1719h21.391q9.625 0 14.797-3.5156t5.1719-10.016q0-5.0156-2.6406-7.9844-2.625-2.9531-7.8125-3.6719 6.2031-1.1719 9.625-4.8906 3.4219-3.7031 3.4219-9.2812 0-7.3125-5.6406-11.328-5.6406-4-16.094-4h-22.219z"/>
<path id="ay" d="m21.625 7.1719h26.078v40.344h-18.891v-6.8438q0-20.109-5.7656-30.859zm-13.031 0q4.4375 1.9531 6.3906 6.1094 4.7969 10.297 4.7969 31.062v10.344h36.953v-47.516h7.1875v-20.984h-7.1875v13.812h-44.328v-13.812h-7.1875v20.984z"/>
</defs>
<use xlink:href="#ae"/>
<use x="58.935547" xlink:href="#t"/>
<use x="120.458984" xlink:href="#ay"/>
<use x="189.599609" xlink:href="#at"/>
</g>
</g>
<g clip-path="url(#a)">
<g transform="translate(375.86 664.58) scale(.1 -.1)">
<defs>
<path id="ax" d="m34.469 29.5q6.0625-1.1719 9.4219-4.75 3.375-3.5625 3.375-8.8281 0-8.4531-6.2969-12.906-6.2969-4.4375-17.922-4.4375-3.9062 0-8.0312 0.6875t-8.5156 2.0469v8.3594q3.4688-1.8125 7.6094-2.7188 4.1562-0.89062 8.6875-0.89062 7.375 0 11.5 2.7344t4.125 7.125q0 4.2969-3.6562 6.9062t-10.344 2.6094h-7.2344v7.4219h7.5625q5.6719 0 8.9688 2.1719t3.2969 5.5938q0 3.125-3.4062 5.375-3.3906 2.25-9.1875 2.25-3.4688 0-7.4062-0.64062-3.9219-0.64062-8.6719-2.0469v8.1562q4.7969 1.1719 8.9375 1.75 4.1562 0.59375 7.8594 0.59375 9.5781 0 15.109-3.8438 5.5469-3.8281 5.5469-10.719 0-4.5312-2.9375-7.6875-2.9219-3.1406-8.3906-4.3125z"/>
</defs>
<use xlink:href="#ac"/>
<use x="63.476562" xlink:href="#r"/>
<use x="124.755859" xlink:href="#ax"/>
</g>
</g>
<g clip-path="url(#a)">
<g transform="translate(417.34 664.58) scale(.1 -.1)">
<use xlink:href="#ax"/>
<use x="53.173828" xlink:href="#r"/>
<use x="114.453125" xlink:href="#ay"/>
<use x="183.59375" xlink:href="#r"/>
<use x="244.873047" xlink:href="#ae"/>
</g>
</g>
<g clip-path="url(#a)">
<g transform="translate(465.23 664.58) scale(.1 -.1)">
<use xlink:href="#ae"/>
<use x="58.935547" xlink:href="#q"/>
<use x="120.117188" xlink:href="#w"/>
<use x="185.498047" xlink:href="#ac"/>
<use x="248.974609" xlink:href="#q"/>
<use x="310.15625" xlink:href="#ab"/>
</g>
</g>
<g clip-path="url(#a)">
<g transform="translate(536.05 664.58) scale(.1 -.1)">
<use xlink:href="#an"/>
</g>
</g>
<g clip-path="url(#a)">
<g transform="translate(588.64 664.58) scale(.1 -.1)">
<use xlink:href="#q"/>
<use x="61.181641" xlink:href="#x"/>
</g>
</g>
<g clip-path="url(#a)">
<g transform="translate(649.14 664.58) scale(.1 -.1)">
<use xlink:href="#x"/>
<use x="65.380859" xlink:href="#t"/>
</g>
</g>
<g clip-path="url(#a)">
<g transform="translate(689.3 664.58) scale(.1 -.1)">
<defs>
<path id="av" d="m32.172-5.0781q-3.7969-9.7656-7.4219-12.734-3.6094-2.9844-9.6562-2.9844h-7.1875v7.5156h5.2812q3.7031 0 5.75 1.7656 2.0625 1.75 4.5469 8.2969l1.6094 4.0938-22.109 53.812h9.5156l17.094-42.766 17.094 42.766h9.5156z"/>
<path id="bd" d="m18.453 38.922q0-4.0625 3.125-6.3594 3.125-2.2812 8.9375-2.2812h12.109v17.234h-12.109q-5.8125 0-8.9375-2.25t-3.125-6.3438zm-12.781-38.922 16.688 23.969q-5.6562 1.2812-9.4219 4.625-3.75 3.3438-3.75 10.328 0 7.9062 5.2344 11.828 5.25 3.9375 15.859 3.9375h21.375v-54.688h-9.0312v23.094h-11.172l-16.125-23.094z"/>
</defs>
<use xlink:href="#q"/>
<use x="61.181641" xlink:href="#v"/>
<use x="119.433594" xlink:href="#ab"/>
<use x="174.414062" xlink:href="#v"/>
<use x="232.666016" xlink:href="#av"/>
<use x="291.845703" xlink:href="#w"/>
<use x="357.226562" xlink:href="#r"/>
<use x="418.505859" xlink:href="#ad"/>
<use x="482.421875" xlink:href="#ab"/>
<use x="537.402344" xlink:href="#bd"/>
</g>
</g>
<g clip-path="url(#a)">
<g transform="translate(784.48 664.58) scale(.1 -.1)">
<use xlink:href="#an"/>
</g>
</g>
<g clip-path="url(#a)">
<g transform="translate(843.73 664.58) scale(.1 -.1)">
<use xlink:href="#w"/>
<use x="65.380859" xlink:href="#q"/>
<use x="126.5625" xlink:href="#ao"/>
<use x="186.962891" xlink:href="#r"/>
</g>
</g>
<g clip-path="url(#a)">
<g transform="translate(923.05 664.58) scale(.1 -.1)">
<use xlink:href="#x"/>
<use x="65.380859" xlink:href="#t"/>
</g>
</g>
<g clip-path="url(#a)">
<g transform="translate(984.14 664.58) scale(.1 -.1)">
<use xlink:href="#w"/>
<use x="65.380859" xlink:href="#q"/>
<use x="126.5625" xlink:href="#ad"/>
<use x="190.478516" xlink:href="#av"/>
<use x="249.658203" xlink:href="#au"/>
<use x="308.740234" xlink:href="#r"/>
<use x="370.019531" xlink:href="#ad"/>
</g>
</g>
<g clip-path="url(#a)">
<g transform="translate(1067.5 664.58) scale(.1 -.1)">
<use xlink:href="#q"/>
<use x="61.181641" xlink:href="#v"/>
<use x="119.433594" xlink:href="#ae"/>
<use x="178.369141" xlink:href="#t"/>
<use x="239.892578" xlink:href="#v"/>
<use x="298.144531" xlink:href="#r"/>
</g>
</g>
<g clip-path="url(#a)">
<g transform="translate(1166.7 664.58) scale(.1 -.1)">
<defs>
<path id="d" d="m10.688 12.406h10.312v-12.406h-10.312z"/>
</defs>
<use xlink:href="#d"/>
</g>
</g>
<g clip-path="url(#a)">
<g transform="translate(1252.5 664.58) scale(.1 -.1)">
<use xlink:href="#ar"/>
</g>
</g>
<g clip-path="url(#a)">
<g transform="translate(1236.4 561.39) scale(.1 -.1)">
<defs>
<path id="ag" d="m9.8125 72.906h9.8594v-72.906h-9.8594z"/>
<path id="az" d="m9.8125 72.906h14.703l18.594-49.609 18.703 49.609h14.703v-72.906h-9.625v64.016l-18.797-50h-9.9062l-18.797 50v-64.016h-9.5781z"/>
</defs>
<use xlink:href="#ag"/>
<use x="29.492188" xlink:href="#az"/>
<use x="115.771484" xlink:href="#u"/>
<use x="176.074219" xlink:href="#y"/>
<use x="231.787109" xlink:href="#ag"/>
<use x="261.279297" xlink:href="#aq"/>
<use x="331.103516" xlink:href="#ag"/>
<use x="360.595703" xlink:href="#e"/>
</g>
</g>
<g clip-path="url(#a)">
<g transform="translate(535.24 34.275) scale(.1 -.1)">
<defs>
<path id="c" d="m12.406 8.2969h16.109v55.625l-17.531-3.5156v8.9844l17.438 3.5156h9.8594v-64.609h16.109v-8.2969h-41.984z"/>
</defs>
<use xlink:href="#c"/>
<use x="63.623047" xlink:href="#d"/>
<use x="95.410156" xlink:href="#c"/>
</g>
</g>
<g clip-path="url(#a)">
<g transform="translate(157.19 140.28) scale(.1 -.1)">
<defs>
<path id="p" d="m19.188 8.2969h34.422v-8.2969h-46.281v8.2969q5.6094 5.8125 15.297 15.594 9.7031 9.7969 12.188 12.641 4.7344 5.3125 6.6094 9 1.8906 3.6875 1.8906 7.25 0 5.8125-4.0781 9.4688-4.0781 3.6719-10.625 3.6719-4.6406 0-9.7969-1.6094-5.1406-1.6094-11-4.8906v9.9688q5.9531 2.3906 11.125 3.6094 5.1875 1.2188 9.4844 1.2188 11.328 0 18.062-5.6719 6.7344-5.6562 6.7344-15.125 0-4.5-1.6875-8.5312-1.6719-4.0156-6.125-9.4844-1.2188-1.4219-7.7656-8.1875-6.5312-6.7656-18.453-18.922z"/>
</defs>
<use xlink:href="#c"/>
<use x="63.623047" xlink:href="#d"/>
<use x="95.410156" xlink:href="#p"/>
</g>
</g>
<g clip-path="url(#a)">
<g transform="translate(332.21 561.39) scale(.1 -.1)">
<defs>
<path id="m" d="m40.578 39.312q7.0781-1.5156 11.047-6.3125 3.9844-4.7812 3.9844-11.812 0-10.781-7.4219-16.703-7.4219-5.9062-21.094-5.9062-4.5781 0-9.4375 0.90625t-10.031 2.7188v9.5156q4.0938-2.3906 8.9688-3.6094 4.8906-1.2188 10.219-1.2188 9.2656 0 14.125 3.6562t4.8594 10.641q0 6.4531-4.5156 10.078-4.5156 3.6406-12.562 3.6406h-8.5v8.1094h8.8906q7.2656 0 11.125 2.9062t3.8594 8.375q0 5.6094-3.9844 8.6094-3.9688 3.0156-11.391 3.0156-4.0625 0-8.7031-0.89062-4.6406-0.875-10.203-2.7188v8.7812q5.625 1.5625 10.531 2.3438t9.25 0.78125q11.234 0 17.766-5.1094 6.5469-5.0938 6.5469-13.781 0-6.0625-3.4688-10.234t-9.8594-5.7812z"/>
</defs>
<use xlink:href="#c"/>
<use x="63.623047" xlink:href="#d"/>
<use x="95.410156" xlink:href="#m"/>
</g>
</g>
<g clip-path="url(#a)">
<g transform="translate(376.8 561.39) scale(.1 -.1)">
<defs>
<path id="o" d="m37.797 64.312-24.906-38.922h24.906zm-2.5938 8.5938h12.406v-47.516h10.406v-8.2031h-10.406v-17.188h-9.8125v17.188h-32.906v9.5156z"/>
</defs>
<use xlink:href="#c"/>
<use x="63.623047" xlink:href="#d"/>
<use x="95.410156" xlink:href="#o"/>
</g>
</g>
<g clip-path="url(#a)">
<g transform="translate(504.2 456.77) scale(.1 -.1)">
<defs>
<path id="aa" d="m10.797 72.906h38.719v-8.3125h-29.688v-17.859q2.1406 0.73438 4.2812 1.0938 2.1562 0.35938 4.3125 0.35938 12.203 0 19.328-6.6875 7.1406-6.6875 7.1406-18.109 0-11.766-7.3281-18.297-7.3281-6.5156-20.656-6.5156-4.5938 0-9.3594 0.78125-4.75 0.78125-9.8281 2.3438v9.9219q4.3906-2.3906 9.0781-3.5625t9.9062-1.1719q8.4531 0 13.375 4.4375 4.9375 4.4375 4.9375 12.062 0 7.6094-4.9375 12.047-4.9219 4.4531-13.375 4.4531-3.9531 0-7.8906-0.875-3.9219-0.875-8.0156-2.7344z"/>
</defs>
<use xlink:href="#c"/>
<use x="63.623047" xlink:href="#d"/>
<use x="95.410156" xlink:href="#aa"/>
</g>
</g>
<g clip-path="url(#a)">
<g transform="translate(648.59 456.77) scale(.1 -.1)">
<defs>
<path id="al" d="m33.016 40.375q-6.6406 0-10.531-4.5469-3.875-4.5312-3.875-12.438 0-7.8594 3.875-12.438 3.8906-4.5625 10.531-4.5625t10.516 4.5625q3.875 4.5781 3.875 12.438 0 7.9062-3.875 12.438-3.875 4.5469-10.516 4.5469zm19.578 30.922v-8.9844q-3.7188 1.75-7.5 2.6719-3.7812 0.9375-7.5 0.9375-9.7656 0-14.922-6.5938-5.1406-6.5938-5.875-19.922 2.875 4.25 7.2188 6.5156 4.3594 2.2656 9.5781 2.2656 10.984 0 17.359-6.6719 6.375-6.6562 6.375-18.125 0-11.234-6.6406-18.031-6.6406-6.7812-17.672-6.7812-12.656 0-19.344 9.6875-6.6875 9.7031-6.6875 28.109 0 17.281 8.2031 27.562t22.016 10.281q3.7188 0 7.5-0.73438t7.8906-2.1875z"/>
</defs>
<use xlink:href="#c"/>
<use x="63.623047" xlink:href="#d"/>
<use x="95.410156" xlink:href="#al"/>
</g>
</g>
<g clip-path="url(#a)">
<g transform="translate(848.19 561.39) scale(.1 -.1)">
<defs>
<path id="ak" d="m8.2031 72.906h46.875v-4.2031l-26.469-68.703h-10.297l24.906 64.594h-35.016z"/>
</defs>
<use xlink:href="#c"/>
<use x="63.623047" xlink:href="#d"/>
<use x="95.410156" xlink:href="#ak"/>
</g>
</g>
<g clip-path="url(#a)">
<g transform="translate(881.03 351.6) scale(.1 -.1)">
<defs>
<path id="aj" d="m31.781 34.625q-7.0312 0-11.062-3.7656-4.0156-3.7656-4.0156-10.344 0-6.5938 4.0156-10.359 4.0312-3.7656 11.062-3.7656t11.078 3.7812q4.0625 3.7969 4.0625 10.344 0 6.5781-4.0312 10.344-4.0156 3.7656-11.109 3.7656zm-9.8594 4.1875q-6.3438 1.5625-9.8906 5.9062-3.5312 4.3594-3.5312 10.609 0 8.7344 6.2188 13.812 6.2344 5.0781 17.062 5.0781 10.891 0 17.094-5.0781t6.2031-13.812q0-6.25-3.5469-10.609-3.5312-4.3438-9.8281-5.9062 7.125-1.6562 11.094-6.5 3.9844-4.8281 3.9844-11.797 0-10.609-6.4688-16.281-6.4688-5.6562-18.531-5.6562-12.047 0-18.531 5.6562-6.4688 5.6719-6.4688 16.281 0 6.9688 4 11.797 4.0156 4.8438 11.141 6.5zm-3.6094 15.578q0-5.6562 3.5312-8.8281 3.5469-3.1719 9.9375-3.1719 6.3594 0 9.9375 3.1719 3.5938 3.1719 3.5938 8.8281 0 5.6719-3.5938 8.8438-3.5781 3.1719-9.9375 3.1719-6.3906 0-9.9375-3.1719-3.5312-3.1719-3.5312-8.8438z"/>
</defs>
<use xlink:href="#c"/>
<use x="63.623047" xlink:href="#d"/>
<use x="95.410156" xlink:href="#aj"/>
</g>
</g>
<g clip-path="url(#a)">
<g transform="translate(918.26 561.39) scale(.1 -.1)">
<use xlink:href="#c"/>
<use x="63.623047" xlink:href="#d"/>
<use x="95.410156" xlink:href="#c"/>
<use x="159.033203" xlink:href="#m"/>
</g>
</g>
<g clip-path="url(#a)">
<g transform="translate(994.7 561.39) scale(.1 -.1)">
<use xlink:href="#c"/>
<use x="63.623047" xlink:href="#d"/>
<use x="95.410156" xlink:href="#c"/>
<use x="159.033203" xlink:href="#o"/>
</g>
</g>
<g clip-path="url(#a)">
<g transform="translate(1014.6 456.77) scale(.1 -.1)">
<use xlink:href="#c"/>
<use x="63.623047" xlink:href="#d"/>
<use x="95.410156" xlink:href="#c"/>
<use x="159.033203" xlink:href="#aa"/>
</g>
</g>
<g clip-path="url(#a)">
<g transform="translate(1074.3 561.39) scale(.1 -.1)">
<use xlink:href="#c"/>
<use x="63.623047" xlink:href="#d"/>
<use x="95.410156" xlink:href="#c"/>
<use x="159.033203" xlink:href="#ak"/>
</g>
</g>
<g clip-path="url(#a)">
<g transform="translate(583.83 561.39) scale(.1 -.1)">
<use xlink:href="#c"/>
<use x="63.623047" xlink:href="#d"/>
<use x="95.410156" xlink:href="#c"/>
<use x="159.033203" xlink:href="#aj"/>
</g>
</g>
<g clip-path="url(#a)">
<g transform="translate(644.35 561.39) scale(.1 -.1)">
<defs>
<path id="ai" d="m10.984 1.5156v8.9844q3.7188-1.7656 7.5156-2.6875 3.8125-0.92188 7.4844-0.92188 9.7656 0 14.906 6.5625 5.1562 6.5625 5.8906 19.953-2.8281-4.2031-7.1875-6.4531-4.3438-2.25-9.6094-2.25-10.938 0-17.312 6.6094-6.375 6.625-6.375 18.109 0 11.219 6.6406 18 6.6406 6.7969 17.672 6.7969 12.656 0 19.312-9.7031 6.6719-9.6875 6.6719-28.141 0-17.234-8.1875-27.516-8.1719-10.281-21.984-10.281-3.7188 0-7.5312 0.73438-3.7969 0.73438-7.9062 2.2031zm19.625 30.906q6.6406 0 10.516 4.5312 3.8906 4.5469 3.8906 12.469 0 7.8594-3.8906 12.422-3.875 4.5625-10.516 4.5625t-10.516-4.5625-3.875-12.422q0-7.9219 3.875-12.469 3.875-4.5312 10.516-4.5312z"/>
</defs>
<use xlink:href="#c"/>
<use x="63.623047" xlink:href="#d"/>
<use x="95.410156" xlink:href="#c"/>
<use x="159.033203" xlink:href="#ai"/>
</g>
</g>
<g clip-path="url(#a)">
<g transform="translate(708.05 561.39) scale(.1 -.1)">
<defs>
<path id="am" d="m31.781 66.406q-7.6094 0-11.453-7.5-3.8281-7.4844-3.8281-22.531 0-14.984 3.8281-22.484 3.8438-7.5 11.453-7.5 7.6719 0 11.5 7.5 3.8438 7.5 3.8438 22.484 0 15.047-3.8438 22.531-3.8281 7.5-11.5 7.5zm0 7.8125q12.266 0 18.734-9.7031 6.4688-9.6875 6.4688-28.141 0-18.406-6.4688-28.109-6.4688-9.6875-18.734-9.6875-12.25 0-18.719 9.6875-6.4688 9.7031-6.4688 28.109 0 18.453 6.4688 28.141 6.4688 9.7031 18.719 9.7031z"/>
</defs>
<use xlink:href="#c"/>
<use x="63.623047" xlink:href="#d"/>
<use x="95.410156" xlink:href="#p"/>
<use x="159.033203" xlink:href="#am"/>
</g>
</g>
<g clip-path="url(#a)">
<g transform="translate(421.4 561.39) scale(.1 -.1)">
<use xlink:href="#c"/>
<use x="63.623047" xlink:href="#d"/>
<use x="95.410156" xlink:href="#p"/>
<use x="159.033203" xlink:href="#c"/>
</g>
</g>
<g clip-path="url(#a)">
<g transform="translate(472.36 561.39) scale(.1 -.1)">
<use xlink:href="#c"/>
<use x="63.623047" xlink:href="#d"/>
<use x="95.410156" xlink:href="#p"/>
<use x="159.033203" xlink:href="#p"/>
</g>
</g>
<g clip-path="url(#a)">
<g transform="translate(64.671 351.6) scale(.1 -.1)">
<use xlink:href="#c"/>
<use x="63.623047" xlink:href="#d"/>
<use x="95.410156" xlink:href="#p"/>
<use x="159.033203" xlink:href="#o"/>
</g>
</g>
<g clip-path="url(#a)">
<g transform="translate(182.52 561.39) scale(.1 -.1)">
<use xlink:href="#c"/>
<use x="63.623047" xlink:href="#d"/>
<use x="95.410156" xlink:href="#p"/>
<use x="159.033203" xlink:href="#aa"/>
</g>
</g>
<g clip-path="url(#a)">
<g transform="translate(240.64 246.08) scale(.1 -.1)">
<use xlink:href="#c"/>
<use x="63.623047" xlink:href="#d"/>
<use x="95.410156" xlink:href="#p"/>
<use x="159.033203" xlink:href="#al"/>
</g>
</g>
<g clip-path="url(#a)">
<g transform="translate(231.89 351.6) scale(.1 -.1)">
<use xlink:href="#c"/>
<use x="63.623047" xlink:href="#d"/>
<use x="95.410156" xlink:href="#p"/>
<use x="159.033203" xlink:href="#ai"/>
</g>
</g>
<g clip-path="url(#a)">
<g transform="translate(249.4 456.77) scale(.1 -.1)">
<use xlink:href="#c"/>
<use x="63.623047" xlink:href="#d"/>
<use x="95.410156" xlink:href="#m"/>
<use x="159.033203" xlink:href="#am"/>
</g>
</g>
<g clip-path="url(#a)">
<g transform="translate(249.4 561.39) scale(.1 -.1)">
<use xlink:href="#c"/>
<use x="63.623047" xlink:href="#d"/>
<use x="95.410156" xlink:href="#m"/>
<use x="159.033203" xlink:href="#c"/>
</g>
</g>
<g clip-path="url(#a)">
<g transform="translate(214.37 561.39) scale(.1 -.1)">
<use xlink:href="#c"/>
<use x="63.623047" xlink:href="#d"/>
<use x="95.410156" xlink:href="#m"/>
<use x="159.033203" xlink:href="#p"/>
</g>
</g>
<g clip-path="url(#a)">
<g transform="translate(48.746 561.39) scale(.1 -.1)">
<use xlink:href="#c"/>
<use x="63.623047" xlink:href="#d"/>
<use x="95.410156" xlink:href="#m"/>
<use x="159.033203" xlink:href="#m"/>
</g>
</g>
<g clip-path="url(#a)">
<g transform="translate(80.596 456.77) scale(.1 -.1)">
<use xlink:href="#c"/>
<use x="63.623047" xlink:href="#d"/>
<use x="95.410156" xlink:href="#m"/>
<use x="159.033203" xlink:href="#o"/>
</g>
</g>
<g clip-path="url(#a)">
<g transform="translate(58.301 561.39) scale(.1 -.1)">
<use xlink:href="#c"/>
<use x="63.623047" xlink:href="#d"/>
<use x="95.410156" xlink:href="#m"/>
<use x="159.033203" xlink:href="#aa"/>
</g>
</g>
<g clip-path="url(#a)">
<g transform="translate(71.041 561.39) scale(.1 -.1)">
<use xlink:href="#c"/>
<use x="63.623047" xlink:href="#d"/>
<use x="95.410156" xlink:href="#m"/>
<use x="159.033203" xlink:href="#al"/>
</g>
</g>
<g clip-path="url(#a)">
<g transform="translate(106.08 561.39) scale(.1 -.1)">
<use xlink:href="#c"/>
<use x="63.623047" xlink:href="#d"/>
<use x="95.410156" xlink:href="#m"/>
<use x="159.033203" xlink:href="#ak"/>
</g>
</g>
<g clip-path="url(#a)">
<g transform="translate(86.966 561.39) scale(.1 -.1)">
<use xlink:href="#c"/>
<use x="63.623047" xlink:href="#d"/>
<use x="95.410156" xlink:href="#m"/>
<use x="159.033203" xlink:href="#aj"/>
</g>
</g>
<g clip-path="url(#a)">
<g transform="translate(128.37 561.39) scale(.1 -.1)">
<use xlink:href="#c"/>
<use x="63.623047" xlink:href="#d"/>
<use x="95.410156" xlink:href="#m"/>
<use x="159.033203" xlink:href="#ai"/>
</g>
</g>
<g clip-path="url(#a)">
<g transform="translate(153.85 561.39) scale(.1 -.1)">
<use xlink:href="#c"/>
<use x="63.623047" xlink:href="#d"/>
<use x="95.410156" xlink:href="#o"/>
<use x="159.033203" xlink:href="#am"/>
</g>
</g>
<g clip-path="url(#a)">
<g transform="translate(287.62 561.39) scale(.1 -.1)">
<use xlink:href="#c"/>
<use x="63.623047" xlink:href="#d"/>
<use x="95.410156" xlink:href="#o"/>
<use x="159.033203" xlink:href="#c"/>
</g>
</g>
<g clip-path="url(#a)">
<g transform="translate(526.5 561.39) scale(.1 -.1)">
<use xlink:href="#c"/>
<use x="63.623047" xlink:href="#d"/>
<use x="95.410156" xlink:href="#o"/>
<use x="159.033203" xlink:href="#p"/>
</g>
</g>
<g clip-path="url(#a)">
<g transform="translate(774.94 561.39) scale(.1 -.1)">
<use xlink:href="#c"/>
<use x="63.623047" xlink:href="#d"/>
<use x="95.410156" xlink:href="#o"/>
<use x="159.033203" xlink:href="#m"/>
</g>
</g>
<g clip-path="url(#a)">
<g transform="translate(1157.1 561.39) scale(.1 -.1)">
<use xlink:href="#c"/>
<use x="63.623047" xlink:href="#d"/>
<use x="95.410156" xlink:href="#o"/>
<use x="159.033203" xlink:href="#o"/>
</g>
</g>
<g clip-path="url(#a)">
<g transform="translate(1243.1 561.39) scale(.1 -.1)">
<use xlink:href="#c"/>
<use x="63.623047" xlink:href="#d"/>
<use x="95.410156" xlink:href="#o"/>
<use x="159.033203" xlink:href="#aa"/>
</g>
</g>
<defs>
<clipPath id="a">
<rect width="1317.3" height="693.33"/>
</clipPath>
</defs>
</svg>
