<?xml version="1.0" encoding="UTF-8"?>
<!DOCTYPE svg  PUBLIC '-//W3C//DTD SVG 1.1//EN'  'http://www.w3.org/Graphics/SVG/1.1/DTD/svg11.dtd'>
<svg width="1773.3pt" height="933.33pt" version="1.1" viewBox="0 0 1773.3 933.33" xmlns="http://www.w3.org/2000/svg" xmlns:xlink="http://www.w3.org/1999/xlink">
<metadata>
<rdf:RDF xmlns:cc="http://creativecommons.org/ns#" xmlns:dc="http://purl.org/dc/elements/1.1/" xmlns:rdf="http://www.w3.org/1999/02/22-rdf-syntax-ns#">
<cc:Work>
<dc:type rdf:resource="http://purl.org/dc/dcmitype/StillImage"/>
<dc:date>2021-02-01T11:25:02.618135</dc:date>
<dc:format>image/svg+xml</dc:format>
<dc:creator>
<cc:Agent>
<dc:title>Matplotlib v3.3.3, https://matplotlib.org/</dc:title>
</cc:Agent>
</dc:creator>
</cc:Work>
</rdf:RDF>
</metadata>
<defs>
<style type="text/css">*{stroke-linecap:butt;stroke-linejoin:round;}</style>
</defs>
<path d="m0 933.33h1773.3v-933.33h-1773.3z" fill="#fff"/>
<g fill="none" stroke="#000">
<path d="m745.25 42.424-531.12 142.7" clip-path="url(#a)"/>
<path d="m745.25 42.424 691.91 142.7" clip-path="url(#a)"/>
<path d="m745.25 42.424-107.07 709.58" clip-path="url(#a)"/>
<path d="m745.25 42.424-53.732 709.58" clip-path="url(#a)"/>
<path d="m214.13 185.13 373.14 142.42" clip-path="url(#a)"/>
<path d="m214.13 185.13 373.14 142.42" clip-path="url(#a)"/>
<path d="m214.13 185.13v142.42" clip-path="url(#a)"/>
<path d="m1437.2 185.13-429.34 142.42" clip-path="url(#a)"/>
<path d="m1437.2 185.13 83.444 566.88" clip-path="url(#a)"/>
<path d="m1437.2 185.13 168.29 566.88" clip-path="url(#a)"/>
<path d="m1437.2 185.13-78.98 566.88" clip-path="url(#a)"/>
<path d="m1437.2 185.13 1.0202 566.88" clip-path="url(#a)"/>
<path d="m1437.2 185.13 255.57 566.88" clip-path="url(#a)"/>
<path d="m1007.8 327.54-139.33 283.63" clip-path="url(#a)"/>
<path d="m1007.8 327.54 124.91 424.46" clip-path="url(#a)"/>
<path d="m1007.8 327.54-40.182 142.06" clip-path="url(#a)"/>
<path d="m1007.8 327.54 54.606 424.46" clip-path="url(#a)"/>
<path d="m1520.6 752.01v138.9" clip-path="url(#a)"/>
<path d="m1605.5 752.01v138.9" clip-path="url(#a)"/>
<path d="m868.48 611.17-121.21 140.84" clip-path="url(#a)"/>
<path d="m868.48 611.17-63.03 140.84" clip-path="url(#a)"/>
<path d="m868.48 611.17-2.4242 140.84" clip-path="url(#a)"/>
<path d="m868.48 611.17 60.606 140.84" clip-path="url(#a)"/>
<path d="m868.48 611.17 126.06 140.84" clip-path="url(#a)"/>
<path d="m1132.7 752.01v138.9" clip-path="url(#a)"/>
<path d="m967.64 469.6 275.39 141.57" clip-path="url(#a)"/>
<path d="m967.64 469.6-162.18 282.41" clip-path="url(#a)" stroke-dasharray="3.7,1.6"/>
<path d="m967.64 469.6-101.58 282.41" clip-path="url(#a)" stroke-dasharray="3.7,1.6"/>
<path d="m967.64 469.6-38.545 282.41" clip-path="url(#a)" stroke-dasharray="3.7,1.6"/>
<path d="m967.64 469.6 26.909 282.41" clip-path="url(#a)" stroke-dasharray="3.7,1.6"/>
<path d="m1243 611.17-37.576 140.84" clip-path="url(#a)"/>
<path d="m1243 611.17 37.576 140.84" clip-path="url(#a)"/>
<path d="m1205.5 752.01v138.9" clip-path="url(#a)"/>
<path d="m1280.6 752.01v138.9" clip-path="url(#a)"/>
<path d="m747.27 752.01v138.9" clip-path="url(#a)"/>
<path d="m805.45 752.01v138.9" clip-path="url(#a)"/>
<path d="m866.06 752.01v138.9" clip-path="url(#a)"/>
<path d="m929.09 752.01v138.9" clip-path="url(#a)"/>
<path d="m994.55 752.01v138.9" clip-path="url(#a)"/>
<path d="m214.13 327.54-133.52 424.46" clip-path="url(#a)"/>
<path d="m214.13 327.54-116.55 424.46" clip-path="url(#a)"/>
<path d="m214.13 327.54-80.189 283.63" clip-path="url(#a)"/>
<path d="m214.13 327.54 61.932 142.06" clip-path="url(#a)"/>
<path d="m214.13 327.54 276.17 283.63" clip-path="url(#a)"/>
<path d="m214.13 327.54-126.25 424.46" clip-path="url(#a)"/>
<path d="m214.13 327.54-31.705 424.46" clip-path="url(#a)"/>
<path d="m214.13 327.54 150.11 424.46" clip-path="url(#a)"/>
<path d="m80.606 752.01v138.9" clip-path="url(#a)"/>
<path d="m97.576 752.01v138.9" clip-path="url(#a)"/>
<path d="m133.94 611.17-24.242 140.84" clip-path="url(#a)"/>
<path d="m133.94 611.17-9.697 140.84" clip-path="url(#a)"/>
<path d="m133.94 611.17 7.2727 140.84" clip-path="url(#a)"/>
<path d="m133.94 611.17 26.667 140.84" clip-path="url(#a)"/>
<path d="m276.06 469.6-56.061 141.57" clip-path="url(#a)"/>
<path d="m276.06 469.6-13.636 282.41" clip-path="url(#a)"/>
<path d="m276.06 469.6 17.879 282.41" clip-path="url(#a)"/>
<path d="m276.06 469.6 51.818 282.41" clip-path="url(#a)"/>
<path d="m490.3 611.17-87.273 140.84" clip-path="url(#a)"/>
<path d="m490.3 611.17-46.061 140.84" clip-path="url(#a)"/>
<path d="m490.3 611.17-2.4242 140.84" clip-path="url(#a)"/>
<path d="m490.3 611.17 43.636 140.84" clip-path="url(#a)"/>
<path d="m490.3 611.17 92.121 140.84" clip-path="url(#a)"/>
<path d="m403.03 752.01v138.9" clip-path="url(#a)"/>
<path d="m444.24 752.01v138.9" clip-path="url(#a)"/>
<path d="m487.88 752.01v138.9" clip-path="url(#a)"/>
<path d="m533.94 752.01v138.9" clip-path="url(#a)"/>
<path d="m582.42 752.01v138.9" clip-path="url(#a)"/>
<path d="m220 611.17-13.333 140.84" clip-path="url(#a)"/>
<path d="m220 611.17 13.333 140.84" clip-path="url(#a)"/>
<path d="m262.42 752.01v138.9" clip-path="url(#a)"/>
<path d="m293.94 752.01v138.9" clip-path="url(#a)"/>
<path d="m327.88 752.01v138.9" clip-path="url(#a)"/>
<path d="m206.67 752.01v138.9" clip-path="url(#a)"/>
<path d="m233.33 752.01v138.9" clip-path="url(#a)"/>
<path d="m109.7 752.01v138.9" clip-path="url(#a)"/>
<path d="m124.24 752.01v138.9" clip-path="url(#a)"/>
<path d="m141.21 752.01v138.9" clip-path="url(#a)"/>
<path d="m160.61 752.01v138.9" clip-path="url(#a)"/>
<path d="m87.879 752.01v138.9" clip-path="url(#a)"/>
<path d="m182.42 752.01v138.9" clip-path="url(#a)"/>
<path d="m364.24 752.01v138.9" clip-path="url(#a)"/>
<path d="m638.18 752.01v138.9" clip-path="url(#a)"/>
<path d="m691.52 752.01v138.9" clip-path="url(#a)"/>
<path d="m1062.4 752.01v138.9" clip-path="url(#a)"/>
<path d="m1358.2 752.01v138.9" clip-path="url(#a)"/>
<path d="m1438.2 752.01v138.9" clip-path="url(#a)"/>
<path d="m1692.7 752.01v138.9" clip-path="url(#a)"/>
</g>
<path d="m478.41 120.61 5.8102-1.5611q2.3178-0.62275 1.695-2.9405l-2.009-7.4773q-0.62275-2.3178-2.9405-1.695l-5.8102 1.5611q-2.3178 0.62275-1.695 2.9405l2.009 7.4773q0.62275 2.3178 2.9405 1.695z" clip-path="url(#a)" fill="#fff" stroke="#fff"/>
<g clip-path="url(#a)">
<g transform="translate(477.36 116.69) rotate(-15.039) scale(.08 -.08)">
<defs>
<path id="x" d="m9.8125 72.906h9.8594v-29.891h35.844v29.891h9.8594v-72.906h-9.8594v34.719h-35.844v-34.719h-9.8594z"/>
</defs>
<use xlink:href="#x"/>
</g>
</g>
<path d="m1087 119.31 5.8922 1.2152q2.3505 0.48478 2.8353-1.8658l1.5639-7.5829q0.48478-2.3505-1.8658-2.8353l-5.8922-1.2152q-2.3505-0.48478-2.8353 1.8658l-1.5639 7.5829q-0.48478 2.3505 1.8658 2.8353z" clip-path="url(#a)" fill="#fff" stroke="#fff"/>
<g clip-path="url(#a)">
<g transform="translate(1087.8 115.33) rotate(11.653) scale(.08 -.08)">
<use xlink:href="#x"/>
</g>
</g>
<path d="m697.48 401.05 0.87354-5.7895q0.35807-2.3731-2.0151-2.7312l-7.6558-1.1551q-2.3731-0.35807-2.7312 2.0151l-0.87354 5.7895q-0.35807 2.3731 2.0151 2.7312l7.6558 1.1552q2.3731 0.35807 2.7312-2.0151z" clip-path="url(#a)" fill="#fff" stroke="#fff"/>
<g clip-path="url(#a)">
<g transform="translate(693.46 400.44) rotate(-81.42) scale(.08 -.08)">
<defs>
<path id="u" d="m8.6875 72.906h9.9219v-44.297q0-11.719 4.2344-16.875 4.25-5.1406 13.781-5.1406 9.4688 0 13.719 5.1406 4.25 5.1562 4.25 16.875v44.297h9.9062v-45.516q0-14.25-7.0625-21.531-7.0469-7.2812-20.812-7.2812-13.828 0-20.891 7.2812-7.0469 7.2812-7.0469 21.531z"/>
</defs>
<use xlink:href="#u"/>
</g>
</g>
<path d="m724.41 400.61 0.44209-5.8383q0.18122-2.3931-2.2119-2.5744l-7.7204-0.58461q-2.3931-0.18122-2.5744 2.2119l-0.44209 5.8383q-0.18122 2.3931 2.2119 2.5744l7.7204 0.58461q2.3931 0.18122 2.5744-2.2119z" clip-path="url(#a)" fill="#fff" stroke="#fff"/>
<g clip-path="url(#a)">
<g transform="translate(720.36 400.3) rotate(-85.67) scale(.08 -.08)">
<use xlink:href="#u"/>
</g>
</g>
<path d="m395.91 261.22 5.1128 1.9514q2.2422 0.85578 3.098-1.3865l2.7608-7.2336q0.85578-2.2422-1.3865-3.098l-5.1128-1.9514q-2.2422-0.85578-3.098 1.3865l-2.7608 7.2336q-0.85578 2.2422 1.3865 3.098z" clip-path="url(#a)" fill="#fff" stroke="#fff"/>
<g clip-path="url(#a)">
<g transform="translate(397.36 257.42) rotate(20.89) scale(.08 -.08)">
<defs>
<path id="p" d="m34.188 63.188-13.391-36.281h26.812zm-5.5781 9.7188h11.188l27.781-72.906h-10.25l-6.6406 18.703h-32.859l-6.6406-18.703h-10.406z"/>
</defs>
<use xlink:href="#p"/>
</g>
</g>
<path d="m396.21 261.33 4.5067 1.72q2.2422 0.85578 3.098-1.3865l2.7608-7.2336q0.85578-2.2422-1.3865-3.098l-4.5067-1.72q-2.2422-0.85578-3.098 1.3865l-2.7608 7.2336q-0.85578 2.2422 1.3865 3.098z" clip-path="url(#a)" fill="#fff" stroke="#fff"/>
<g clip-path="url(#a)">
<g transform="translate(397.66 257.54) rotate(20.89) scale(.08 -.08)">
<defs>
<path id="w" d="m19.672 64.797v-27.391h12.406q6.8906 0 10.641 3.5625 3.7656 3.5625 3.7656 10.156 0 6.5469-3.7656 10.109-3.75 3.5625-10.641 3.5625zm-9.8594 8.1094h22.266q12.266 0 18.531-5.5469 6.2812-5.5469 6.2812-16.234 0-10.797-6.2812-16.312-6.2656-5.5156-18.531-5.5156h-12.406v-29.297h-9.8594z"/>
</defs>
<use xlink:href="#w"/>
</g>
</g>
<path d="m207.86 253.6v5.4725q0 2.4 2.4 2.4h7.7425q2.4 0 2.4-2.4v-5.4725q0-2.4-2.4-2.4h-7.7425q-2.4 0-2.4 2.4z" clip-path="url(#a)" fill="#fff" stroke="#fff"/>
<g clip-path="url(#a)">
<g transform="translate(211.92 253.6) rotate(90) scale(.08 -.08)">
<use xlink:href="#p"/>
</g>
</g>
<path d="m1221.9 263.15 5.1942-1.7229q2.278-0.75561 1.5223-3.0336l-2.4376-7.3488q-0.75561-2.278-3.0336-1.5223l-5.1942 1.7229q-2.278 0.75561-1.5223 3.0336l2.4376 7.3488q0.75561 2.278 3.0336 1.5223z" clip-path="url(#a)" fill="#fff" stroke="#fff"/>
<g clip-path="url(#a)">
<g transform="translate(1220.6 259.29) rotate(-18.351) scale(.08 -.08)">
<use xlink:href="#p"/>
</g>
</g>
<path d="m1472.3 467.09 0.70248 4.7723q0.34951 2.3744 2.7239 2.0249l7.66-1.1275q2.3744-0.34951 2.0249-2.7239l-0.70248-4.7723q-0.34951-2.3744-2.7239-2.0249l-7.66 1.1275q-2.3744 0.34951-2.0249 2.7239z" clip-path="url(#a)" fill="#fff" stroke="#fff"/>
<g clip-path="url(#a)">
<g transform="translate(1476.3 466.5) rotate(81.626) scale(.08 -.08)">
<use xlink:href="#w"/>
</g>
</g>
<path d="m1514.5 467.73 1.5575 5.2462q0.68304 2.3008 2.9838 1.6177l7.4223-2.2035q2.3008-0.68304 1.6177-2.9838l-1.5575-5.2462q-0.68304-2.3008-2.9838-1.6177l-7.4223 2.2035q-2.3008 0.68304-1.6177 2.9838z" clip-path="url(#a)" fill="#fff" stroke="#fff"/>
<g clip-path="url(#a)">
<g transform="translate(1518.4 466.57) rotate(73.465) scale(.08 -.08)">
<use xlink:href="#p"/>
</g>
</g>
<path d="m1403.5 472.33 0.80794-5.799q0.33118-2.377-2.0459-2.7082l-7.6684-1.0684q-2.377-0.33118-2.7082 2.0459l-0.80794 5.799q-0.33118 2.377 2.0459 2.7082l7.6684 1.0684q2.377 0.33118 2.7082-2.0459z" clip-path="url(#a)" fill="#fff" stroke="#fff"/>
<g clip-path="url(#a)">
<g transform="translate(1399.5 471.77) rotate(-82.068) scale(.08 -.08)">
<use xlink:href="#u"/>
</g>
</g>
<path d="m1431.4 465.65 0.010537 5.855q0.004319 2.4 2.4043 2.3957l7.7425-0.013934q2.4-0.004319 2.3957-2.4043l-0.010538-5.855q-0.004319-2.4-2.4043-2.3957l-7.7425 0.013934q-2.4 0.00432-2.3957 2.4043z" clip-path="url(#a)" fill="#fff" stroke="#fff"/>
<g clip-path="url(#a)">
<g transform="translate(1435.5 465.64) rotate(89.897) scale(.08 -.08)">
<use xlink:href="#u"/>
</g>
</g>
<path d="m1558 468.47 2.4064 5.3376q0.98638 2.1879 3.1743 1.2016l7.0584-3.1821q2.1879-0.98638 1.2016-3.1743l-2.4064-5.3376q-0.98638-2.1879-3.1743-1.2016l-7.0584 3.1821q-2.1879 0.98638-1.2015 3.1743z" clip-path="url(#a)" fill="#fff" stroke="#fff"/>
<g clip-path="url(#a)">
<g transform="translate(1561.7 466.8) rotate(65.733) scale(.08 -.08)">
<use xlink:href="#u"/>
</g>
</g>
<path d="m942.45 474.82 2.6527-5.3999q1.0582-2.1541-1.0959-3.2123l-6.9493-3.4138q-2.1541-1.0582-3.2123 1.0959l-2.6527 5.3999q-1.0582 2.1541 1.0959 3.2123l6.9493 3.4138q2.1541 1.0582 3.2123-1.0959z" clip-path="url(#a)" fill="#fff" stroke="#fff"/>
<g clip-path="url(#a)">
<g transform="translate(938.81 473.03) rotate(-63.837) scale(.08 -.08)">
<use xlink:href="#x"/>
</g>
</g>
<path d="m1063.6 539.41 1.2584 4.2762q0.67753 2.3024 2.9799 1.6248l7.4276-2.1857q2.3024-0.67753 1.6248-2.9799l-1.2584-4.2762q-0.67753-2.3024-2.9799-1.6248l-7.4276 2.1857q-2.3024 0.67753-1.6248 2.9799z" clip-path="url(#a)" fill="#fff" stroke="#fff"/>
<g clip-path="url(#a)">
<g transform="translate(1067.5 538.26) rotate(73.602) scale(.08 -.08)">
<defs>
<path id="aj" d="m9.8125 72.906h9.8594v-64.609h35.5v-8.2969h-45.359z"/>
</defs>
<use xlink:href="#aj"/>
</g>
</g>
<path d="m992.94 403.17 1.6375-5.7891q0.65323-2.3094-1.6562-2.9626l-7.4502-2.1074q-2.3094-0.65323-2.9626 1.6562l-1.6375 5.7891q-0.65323 2.3094 1.6562 2.9626l7.4502 2.1074q2.3094 0.65323 2.9626-1.6562z" clip-path="url(#a)" fill="#fff" stroke="#fff"/>
<g clip-path="url(#a)">
<g transform="translate(989.03 402.06) rotate(-74.206) scale(.08 -.08)">
<use xlink:href="#x"/>
</g>
</g>
<path d="m1028.5 537.67 0.74707 5.8071q0.30623 2.3804 2.6866 2.0742l7.6792-0.98791q2.3804-0.30623 2.0742-2.6866l-0.74707-5.8071q-0.30623-2.3804-2.6866-2.0742l-7.6792 0.98791q-2.3804 0.30623-2.0742 2.6866z" clip-path="url(#a)" fill="#fff" stroke="#fff"/>
<g clip-path="url(#a)">
<g transform="translate(1032.6 537.15) rotate(82.669) scale(.08 -.08)">
<use xlink:href="#u"/>
</g>
</g>
<path d="m1514.3 804.55v33.808q0 2.4 2.4 2.4h7.7425q2.4 0 2.4-2.4v-33.808q0-2.4-2.4-2.4h-7.7425q-2.4 0-2.4 2.4z" clip-path="url(#a)" fill="#fff" stroke="#fff"/>
<g clip-path="url(#a)">
<g transform="translate(1518.4 804.55) rotate(90) scale(.08 -.08)">
<defs>
<path id="e" d="m-0.29688 72.906h61.672v-8.3125h-25.875v-64.594h-9.9062v64.594h-25.891z"/>
<path id="l" d="m56.203 29.594v-4.3906h-41.312q0.59375-9.2812 5.5938-14.141t13.938-4.8594q5.1719 0 10.031 1.2656t9.6562 3.8125v-8.5q-4.8438-2.0469-9.9219-3.125t-10.297-1.0781q-13.094 0-20.734 7.6094-7.6406 7.625-7.6406 20.625 0 13.422 7.25 21.297 7.25 7.8906 19.562 7.8906 11.031 0 17.453-7.1094 6.4219-7.0938 6.4219-19.297zm-8.9844 2.6406q-0.09375 7.3594-4.125 11.75-4.0312 4.4062-10.672 4.4062-7.5156 0-12.031-4.25t-5.2031-11.969z"/>
<path id="g" d="m41.109 46.297q-1.5156 0.875-3.2969 1.2812-1.7812 0.42188-3.9219 0.42188-7.625 0-11.703-4.9531t-4.0781-14.234v-28.812h-9.0312v54.688h9.0312v-8.5q2.8438 4.9844 7.375 7.3906 4.5469 2.4219 11.047 2.4219 0.92188 0 2.0469-0.125 1.125-0.10938 2.4844-0.35938z"/>
<path id="i" d="m52 44.188q3.375 6.0625 8.0625 8.9375t11.031 2.875q8.5469 0 13.188-5.9844 4.6406-5.9688 4.6406-17v-33.016h-9.0312v32.719q0 7.8594-2.7969 11.656-2.7812 3.8125-8.4844 3.8125-6.9844 0-11.047-4.6406-4.0469-4.625-4.0469-12.641v-30.906h-9.0312v32.719q0 7.9062-2.7812 11.688t-8.5938 3.7812q-6.8906 0-10.953-4.6562-4.0469-4.6562-4.0469-12.625v-30.906h-9.0312v54.688h9.0312v-8.5q3.0781 5.0312 7.375 7.4219t10.203 2.3906q5.9688 0 10.141-3.0312 4.1719-3.0156 6.1719-8.7812z"/>
<path id="k" d="m9.4219 54.688h8.9844v-54.688h-8.9844zm0 21.297h8.9844v-11.391h-8.9844z"/>
<path id="h" d="m54.891 33.016v-33.016h-8.9844v32.719q0 7.7656-3.0312 11.609-3.0312 3.8594-9.0781 3.8594-7.2812 0-11.484-4.6406-4.2031-4.625-4.2031-12.641v-30.906h-9.0312v54.688h9.0312v-8.5q3.2344 4.9375 7.5938 7.375 4.375 2.4375 10.094 2.4375 9.4219 0 14.25-5.8281 4.8438-5.8281 4.8438-17.156z"/>
<path id="f" d="m34.281 27.484q-10.891 0-15.094-2.4844t-4.2031-8.5q0-4.7812 3.1562-7.5938 3.1562-2.7969 8.5625-2.7969 7.4844 0 12 5.2969t4.5156 14.078v2zm17.922 3.7188v-31.203h-8.9844v8.2969q-3.0781-4.9688-7.6719-7.3438t-11.234-2.375q-8.3906 0-13.359 4.7188-4.9531 4.7188-4.9531 12.625 0 9.2188 6.1719 13.906 6.1875 4.6875 18.438 4.6875h12.609v0.89062q0 6.2031-4.0781 9.5938t-11.453 3.3906q-4.6875 0-9.1406-1.125-4.4375-1.125-8.5312-3.375v8.3125q4.9219 1.9062 9.5625 2.8438 4.6406 0.95312 9.0312 0.95312 11.875 0 17.734-6.1562 5.8594-6.1406 5.8594-18.641z"/>
<path id="j" d="m9.4219 75.984h8.9844v-75.984h-8.9844z"/>
</defs>
<use xlink:href="#e"/>
<use x="44.083984" xlink:href="#l"/>
<use x="105.607422" xlink:href="#g"/>
<use x="144.970703" xlink:href="#i"/>
<use x="242.382812" xlink:href="#k"/>
<use x="270.166016" xlink:href="#h"/>
<use x="333.544922" xlink:href="#f"/>
<use x="394.824219" xlink:href="#j"/>
</g>
</g>
<path d="m1599.2 804.55v33.808q0 2.4 2.4 2.4h7.7425q2.4 0 2.4-2.4v-33.808q0-2.4-2.4-2.4h-7.7425q-2.4 0-2.4 2.4z" clip-path="url(#a)" fill="#fff" stroke="#fff"/>
<g clip-path="url(#a)">
<g transform="translate(1603.2 804.55) rotate(90) scale(.08 -.08)">
<use xlink:href="#e"/>
<use x="44.083984" xlink:href="#l"/>
<use x="105.607422" xlink:href="#g"/>
<use x="144.970703" xlink:href="#i"/>
<use x="242.382812" xlink:href="#k"/>
<use x="270.166016" xlink:href="#h"/>
<use x="333.544922" xlink:href="#f"/>
<use x="394.824219" xlink:href="#j"/>
</g>
</g>
<path d="m810.85 687.75 3.5699-4.1478q1.5656-1.819-0.25345-3.3846l-5.8683-5.0507q-1.819-1.5656-3.3846 0.25345l-3.5699 4.1478q-1.5656 1.819 0.25346 3.3846l5.8683 5.0507q1.819 1.5656 3.3846-0.25345z" clip-path="url(#a)" fill="#fff" stroke="#fff"/>
<g clip-path="url(#a)">
<g transform="translate(807.77 685.1) rotate(-49.283) scale(.08 -.08)">
<use xlink:href="#p"/>
</g>
</g>
<path d="m841.44 686.96 2.5164-5.6226q0.9804-2.1906-1.2102-3.171l-7.067-3.1628q-2.1906-0.9804-3.171 1.2102l-2.5164 5.6226q-0.9804 2.1906 1.2102 3.171l7.067 3.1628q2.1906 0.9804 3.171-1.2102z" clip-path="url(#a)" fill="#fff" stroke="#fff"/>
<g clip-path="url(#a)">
<g transform="translate(837.73 685.3) rotate(-65.889) scale(.08 -.08)">
<defs>
<path id="v" d="m19.672 64.797v-56.688h11.922q15.094 0 22.094 6.8281 7 6.8438 7 21.594 0 14.641-7 21.453t-22.094 6.8125zm-9.8594 8.1094h20.266q21.188 0 31.094-8.8125 9.9219-8.8125 9.9219-27.562 0-18.859-9.9688-27.703-9.9531-8.8281-31.047-8.8281h-20.266z"/>
</defs>
<use xlink:href="#v"/>
</g>
</g>
<path d="m873.5 684.11 0.083021-4.823q0.041306-2.3996-2.3583-2.441l-7.7414-0.13325q-2.3996-0.041306-2.441 2.3583l-0.08302 4.823q-0.041306 2.3996 2.3583 2.441l7.7414 0.13326q2.3996 0.041306 2.441-2.3583z" clip-path="url(#a)" fill="#fff" stroke="#fff"/>
<g clip-path="url(#a)">
<g transform="translate(869.44 684.04) rotate(-89.014) scale(.08 -.08)">
<use xlink:href="#w"/>
</g>
</g>
<path d="m891.95 681.55 2.1632 5.0268q0.94869 2.2045 3.1532 1.2559l7.1119-3.0605q2.2045-0.94869 1.2559-3.1532l-2.1632-5.0268q-0.94869-2.2045-3.1532-1.2559l-7.1119 3.0605q-2.2045 0.94869-1.2559 3.1532z" clip-path="url(#a)" fill="#fff" stroke="#fff"/>
<g clip-path="url(#a)">
<g transform="translate(895.68 679.95) rotate(66.716) scale(.08 -.08)">
<use xlink:href="#p"/>
</g>
</g>
<path d="m924.79 683.48 4.1084 4.5899q1.6007 1.7883 3.3889 0.1876l5.769-5.1638q1.7883-1.6007 0.1876-3.3889l-4.1084-4.5899q-1.6007-1.7883-3.3889-0.1876l-5.769 5.1638q-1.7883 1.6007-0.1876 3.3889z" clip-path="url(#a)" fill="#fff" stroke="#fff"/>
<g clip-path="url(#a)">
<g transform="translate(927.82 680.77) rotate(48.168) scale(.08 -.08)">
<use xlink:href="#v"/>
</g>
</g>
<path d="m1126.5 804.55v33.808q0 2.4 2.4 2.4h7.7425q2.4 0 2.4-2.4v-33.808q0-2.4-2.4-2.4h-7.7425q-2.4 0-2.4 2.4z" clip-path="url(#a)" fill="#fff" stroke="#fff"/>
<g clip-path="url(#a)">
<g transform="translate(1130.5 804.55) rotate(90) scale(.08 -.08)">
<use xlink:href="#e"/>
<use x="44.083984" xlink:href="#l"/>
<use x="105.607422" xlink:href="#g"/>
<use x="144.970703" xlink:href="#i"/>
<use x="242.382812" xlink:href="#k"/>
<use x="270.166016" xlink:href="#h"/>
<use x="333.544922" xlink:href="#f"/>
<use x="394.824219" xlink:href="#j"/>
</g>
</g>
<path d="m1100 544.71 4.867 2.502q2.1345 1.0973 3.2318-1.0372l3.5399-6.8859q1.0973-2.1345-1.0372-3.2318l-4.867-2.502q-2.1345-1.0973-3.2318 1.0372l-3.5399 6.8859q-1.0973 2.1345 1.0372 3.2318z" clip-path="url(#a)" fill="#fff" stroke="#fff"/>
<g clip-path="url(#a)">
<g transform="translate(1101.9 541.1) rotate(27.207) scale(.08 -.08)">
<use xlink:href="#p"/>
</g>
</g>
<path d="m890.45 616.6 3.0677-5.3418q1.1952-2.0812-0.88602-3.2764l-6.7141-3.8558q-2.0812-1.1952-3.2764 0.88602l-3.0677 5.3418q-1.1952 2.0812 0.88602 3.2764l6.7141 3.8558q2.0812 1.1952 3.2764-0.88602z" clip-path="url(#a)" fill="#fff" stroke="#fff"/>
<g clip-path="url(#a)">
<g transform="translate(886.93 614.57) rotate(-60.132) scale(.08 -.08)">
<use xlink:href="#v"/>
</g>
</g>
<path d="m921.93 615.19 1.6326-4.5391q0.81228-2.2584-1.4461-3.0706l-7.2856-2.6204q-2.2584-0.81228-3.0706 1.4461l-1.6326 4.5391q-0.81228 2.2584 1.4461 3.0706l7.2856 2.6204q2.2584 0.81228 3.0706-1.4461z" clip-path="url(#a)" fill="#fff" stroke="#fff"/>
<g clip-path="url(#a)">
<g transform="translate(918.11 613.82) rotate(-70.218) scale(.08 -.08)">
<use xlink:href="#w"/>
</g>
</g>
<path d="m954.21 614.36 0.74007-5.4222q0.32456-2.378-2.0534-2.7025l-7.6714-1.0471q-2.378-0.32456-2.7025 2.0534l-0.74007 5.4222q-0.32456 2.378 2.0534 2.7025l7.6714 1.0471q2.378 0.32456 2.7025-2.0534z" clip-path="url(#a)" fill="#fff" stroke="#fff"/>
<g clip-path="url(#a)">
<g transform="translate(950.18 613.81) rotate(-82.228) scale(.08 -.08)">
<use xlink:href="#p"/>
</g>
</g>
<path d="m974.56 608.33 0.5843 6.1322q0.22765 2.3892 2.6168 2.1615l7.7076-0.73441q2.3892-0.22765 2.1615-2.6168l-0.5843-6.1322q-0.22765-2.3892-2.6168-2.1615l-7.7076 0.73441q-2.3892 0.22765-2.1615 2.6168z" clip-path="url(#a)" fill="#fff" stroke="#fff"/>
<g clip-path="url(#a)">
<g transform="translate(978.6 607.94) rotate(84.557) scale(.08 -.08)">
<use xlink:href="#v"/>
</g>
</g>
<path d="m1229.7 685.65 1.3031-4.8841q0.61869-2.3189-1.7002-2.9376l-7.4808-1.9959q-2.3189-0.61869-2.9376 1.7002l-1.3031 4.8841q-0.61869 2.3189 1.7002 2.9376l7.4808 1.9959q2.3189 0.61869 2.9376-1.7002z" clip-path="url(#a)" fill="#fff" stroke="#fff"/>
<g clip-path="url(#a)">
<g transform="translate(1225.7 684.6) rotate(-75.061) scale(.08 -.08)">
<defs>
<path id="bh" d="m9.8125 72.906h46.094v-8.3125h-36.234v-21.578h34.719v-8.2969h-34.719v-26.422h37.109v-8.2969h-46.969z"/>
</defs>
<use xlink:href="#bh"/>
</g>
</g>
<path d="m1255 680.51 1.4401 5.3974q0.61869 2.3189 2.9376 1.7002l7.4808-1.9959q2.3189-0.61869 1.7002-2.9376l-1.4401-5.3974q-0.61869-2.3189-2.9376-1.7002l-7.4808 1.9959q-2.3189 0.61869-1.7002 2.9376z" clip-path="url(#a)" fill="#fff" stroke="#fff"/>
<g clip-path="url(#a)">
<g transform="translate(1259 679.46) rotate(75.061) scale(.08 -.08)">
<defs>
<path id="ak" d="m64.406 67.281v-10.391q-4.9844 4.6406-10.625 6.9219-5.6406 2.2969-11.984 2.2969-12.5 0-19.141-7.6406t-6.6406-22.094q0-14.406 6.6406-22.047t19.141-7.6406q6.3438 0 11.984 2.2969t10.625 6.9375v-10.312q-5.1719-3.5156-10.969-5.2812-5.7812-1.75-12.219-1.75-16.562 0-26.094 10.125-9.5156 10.141-9.5156 27.672 0 17.578 9.5156 27.703 9.5312 10.141 26.094 10.141 6.5312 0 12.312-1.7344 5.7969-1.7344 10.875-5.2031z"/>
</defs>
<use xlink:href="#ak"/>
</g>
</g>
<path d="m1199.2 804.55v33.808q0 2.4 2.4 2.4h7.7425q2.4 0 2.4-2.4v-33.808q0-2.4-2.4-2.4h-7.7425q-2.4 0-2.4 2.4z" clip-path="url(#a)" fill="#fff" stroke="#fff"/>
<g clip-path="url(#a)">
<g transform="translate(1203.2 804.55) rotate(90) scale(.08 -.08)">
<use xlink:href="#e"/>
<use x="44.083984" xlink:href="#l"/>
<use x="105.607422" xlink:href="#g"/>
<use x="144.970703" xlink:href="#i"/>
<use x="242.382812" xlink:href="#k"/>
<use x="270.166016" xlink:href="#h"/>
<use x="333.544922" xlink:href="#f"/>
<use x="394.824219" xlink:href="#j"/>
</g>
</g>
<path d="m1274.3 804.55v33.808q0 2.4 2.4 2.4h7.7425q2.4 0 2.4-2.4v-33.808q0-2.4-2.4-2.4h-7.7425q-2.4 0-2.4 2.4z" clip-path="url(#a)" fill="#fff" stroke="#fff"/>
<g clip-path="url(#a)">
<g transform="translate(1278.4 804.55) rotate(90) scale(.08 -.08)">
<use xlink:href="#e"/>
<use x="44.083984" xlink:href="#l"/>
<use x="105.607422" xlink:href="#g"/>
<use x="144.970703" xlink:href="#i"/>
<use x="242.382812" xlink:href="#k"/>
<use x="270.166016" xlink:href="#h"/>
<use x="333.544922" xlink:href="#f"/>
<use x="394.824219" xlink:href="#j"/>
</g>
</g>
<path d="m741 804.55v33.808q0 2.4 2.4 2.4h7.7425q2.4 0 2.4-2.4v-33.808q0-2.4-2.4-2.4h-7.7425q-2.4 0-2.4 2.4z" clip-path="url(#a)" fill="#fff" stroke="#fff"/>
<g clip-path="url(#a)">
<g transform="translate(745.07 804.55) rotate(90) scale(.08 -.08)">
<use xlink:href="#e"/>
<use x="44.083984" xlink:href="#l"/>
<use x="105.607422" xlink:href="#g"/>
<use x="144.970703" xlink:href="#i"/>
<use x="242.382812" xlink:href="#k"/>
<use x="270.166016" xlink:href="#h"/>
<use x="333.544922" xlink:href="#f"/>
<use x="394.824219" xlink:href="#j"/>
</g>
</g>
<path d="m799.18 804.55v33.808q0 2.4 2.4 2.4h7.7425q2.4 0 2.4-2.4v-33.808q0-2.4-2.4-2.4h-7.7425q-2.4 0-2.4 2.4z" clip-path="url(#a)" fill="#fff" stroke="#fff"/>
<g clip-path="url(#a)">
<g transform="translate(803.25 804.55) rotate(90) scale(.08 -.08)">
<use xlink:href="#e"/>
<use x="44.083984" xlink:href="#l"/>
<use x="105.607422" xlink:href="#g"/>
<use x="144.970703" xlink:href="#i"/>
<use x="242.382812" xlink:href="#k"/>
<use x="270.166016" xlink:href="#h"/>
<use x="333.544922" xlink:href="#f"/>
<use x="394.824219" xlink:href="#j"/>
</g>
</g>
<path d="m859.79 804.55v33.808q0 2.4 2.4 2.4h7.7425q2.4 0 2.4-2.4v-33.808q0-2.4-2.4-2.4h-7.7425q-2.4 0-2.4 2.4z" clip-path="url(#a)" fill="#fff" stroke="#fff"/>
<g clip-path="url(#a)">
<g transform="translate(863.85 804.55) rotate(90) scale(.08 -.08)">
<use xlink:href="#e"/>
<use x="44.083984" xlink:href="#l"/>
<use x="105.607422" xlink:href="#g"/>
<use x="144.970703" xlink:href="#i"/>
<use x="242.382812" xlink:href="#k"/>
<use x="270.166016" xlink:href="#h"/>
<use x="333.544922" xlink:href="#f"/>
<use x="394.824219" xlink:href="#j"/>
</g>
</g>
<path d="m922.82 804.55v33.808q0 2.4 2.4 2.4h7.7425q2.4 0 2.4-2.4v-33.808q0-2.4-2.4-2.4h-7.7425q-2.4 0-2.4 2.4z" clip-path="url(#a)" fill="#fff" stroke="#fff"/>
<g clip-path="url(#a)">
<g transform="translate(926.88 804.55) rotate(90) scale(.08 -.08)">
<use xlink:href="#e"/>
<use x="44.083984" xlink:href="#l"/>
<use x="105.607422" xlink:href="#g"/>
<use x="144.970703" xlink:href="#i"/>
<use x="242.382812" xlink:href="#k"/>
<use x="270.166016" xlink:href="#h"/>
<use x="333.544922" xlink:href="#f"/>
<use x="394.824219" xlink:href="#j"/>
</g>
</g>
<path d="m988.27 804.55v33.808q0 2.4 2.4 2.4h7.7425q2.4 0 2.4-2.4v-33.808q0-2.4-2.4-2.4h-7.7425q-2.4 0-2.4 2.4z" clip-path="url(#a)" fill="#fff" stroke="#fff"/>
<g clip-path="url(#a)">
<g transform="translate(992.34 804.55) rotate(90) scale(.08 -.08)">
<use xlink:href="#e"/>
<use x="44.083984" xlink:href="#l"/>
<use x="105.607422" xlink:href="#g"/>
<use x="144.970703" xlink:href="#i"/>
<use x="242.382812" xlink:href="#k"/>
<use x="270.166016" xlink:href="#h"/>
<use x="333.544922" xlink:href="#f"/>
<use x="394.824219" xlink:href="#j"/>
</g>
</g>
<path d="m152.42 544.61 1.8601-5.9131q0.72017-2.2894-1.5692-3.0096l-7.3857-2.3233q-2.2894-0.72017-3.0096 1.5692l-1.8601 5.9131q-0.72017 2.2894 1.5692 3.0096l7.3857 2.3233q2.2894 0.72017 3.0096-1.5692z" clip-path="url(#a)" fill="#fff" stroke="#fff"/>
<g clip-path="url(#a)">
<g transform="translate(148.54 543.39) rotate(-72.538) scale(.08 -.08)">
<defs>
<path id="ax" d="m59.516 10.406v19.578h-16.109v8.1094h25.875v-31.312q-5.7031-4.0469-12.594-6.125-6.875-2.0781-14.688-2.0781-17.094 0-26.75 9.9844-9.6406 10-9.6406 27.812 0 17.875 9.6406 27.859 9.6562 9.9844 26.75 9.9844 7.125 0 13.547-1.7656 6.4219-1.75 11.844-5.1719v-10.5q-5.4688 4.6406-11.625 6.9844t-12.938 2.3438q-13.391 0-20.109-7.4688-6.7031-7.4688-6.7031-22.266 0-14.75 6.7031-22.219 6.7188-7.4688 20.109-7.4688 5.2188 0 9.3125 0.90625 4.1094 0.90625 7.375 2.8125z"/>
</defs>
<use xlink:href="#ax"/>
</g>
</g>
<path d="m161.31 543.58 1.1803-4.2984q0.63549-2.3143-1.6788-2.9498l-7.4661-2.0501q-2.3143-0.63549-2.9498 1.6788l-1.1803 4.2984q-0.63549 2.3143 1.6788 2.9498l7.4661 2.0501q2.3143 0.63549 2.9498-1.6788z" clip-path="url(#a)" fill="#fff" stroke="#fff"/>
<g clip-path="url(#a)">
<g transform="translate(157.39 542.51) rotate(-74.646) scale(.08 -.08)">
<use xlink:href="#aj"/>
</g>
</g>
<path d="m179.25 473.96 1.6368-5.7893q0.65295-2.3095-1.6565-2.9624l-7.4505-2.1064q-2.3095-0.65295-2.9624 1.6565l-1.6368 5.7893q-0.65295 2.3095 1.6565 2.9624l7.4505 2.1064q2.3095 0.65295 2.9624-1.6565z" clip-path="url(#a)" fill="#fff" stroke="#fff"/>
<g clip-path="url(#a)">
<g transform="translate(175.34 472.85) rotate(-74.213) scale(.08 -.08)">
<use xlink:href="#x"/>
</g>
</g>
<path d="m238.14 398.32 2.4043 5.5149q0.95914 2.2 3.1591 1.2409l7.0973-3.0942q2.2-0.95914 1.2409-3.1592l-2.4043-5.5149q-0.95914-2.2-3.1591-1.2409l-7.0973 3.0942q-2.2 0.95914-1.2409 3.1592z" clip-path="url(#a)" fill="#fff" stroke="#fff"/>
<g clip-path="url(#a)">
<g transform="translate(241.87 396.69) rotate(66.444) scale(.08 -.08)">
<use xlink:href="#x"/>
</g>
</g>
<path d="m345.62 471.58 4.1971 4.3104q1.6743 1.7195 3.3938 0.045198l5.5472-5.4014q1.7195-1.6743 0.045198-3.3938l-4.1971-4.3104q-1.6743-1.7195-3.3938-0.045198l-5.5472 5.4014q-1.7195 1.6743-0.045197 3.3938z" clip-path="url(#a)" fill="#fff" stroke="#fff"/>
<g clip-path="url(#a)">
<g transform="translate(348.54 468.74) rotate(45.763) scale(.08 -.08)">
<use xlink:href="#x"/>
</g>
</g>
<path d="m156.18 544.37 1.6692-5.612q0.68422-2.3004-1.6162-2.9846l-7.4212-2.2073q-2.3004-0.68422-2.9846 1.6162l-1.6692 5.612q-0.68422 2.3004 1.6162 2.9846l7.4212 2.2073q2.3004 0.68422 2.9846-1.6162z" clip-path="url(#a)" fill="#fff" stroke="#fff"/>
<g clip-path="url(#a)">
<g transform="translate(152.29 543.21) rotate(-73.436) scale(.08 -.08)">
<use xlink:href="#u"/>
</g>
</g>
<path d="m204.31 543.16 0.43611-5.8387q0.17876-2.3933-2.2146-2.5721l-7.721-0.5767q-2.3933-0.17876-2.5721 2.2146l-0.43611 5.8387q-0.17876 2.3933 2.2146 2.5721l7.721 0.5767q2.3933 0.17876 2.5721-2.2146z" clip-path="url(#a)" fill="#fff" stroke="#fff"/>
<g clip-path="url(#a)">
<g transform="translate(200.26 542.86) rotate(-85.728) scale(.08 -.08)">
<use xlink:href="#u"/>
</g>
</g>
<path d="m282.3 539.1 1.9522 5.52q0.8002 2.2627 3.0629 1.4625l7.2995-2.5815q2.2627-0.8002 1.4625-3.0629l-1.9522-5.52q-0.8002-2.2627-3.0629-1.4625l-7.2995 2.5815q-2.2627 0.8002-1.4625 3.0629z" clip-path="url(#a)" fill="#fff" stroke="#fff"/>
<g clip-path="url(#a)">
<g transform="translate(286.13 537.75) rotate(70.524) scale(.08 -.08)">
<use xlink:href="#u"/>
</g>
</g>
<path d="m74.335 804.55v33.808q0 2.4 2.4 2.4h7.7425q2.4 0 2.4-2.4v-33.808q0-2.4-2.4-2.4h-7.7425q-2.4 0-2.4 2.4z" clip-path="url(#a)" fill="#fff" stroke="#fff"/>
<g clip-path="url(#a)">
<g transform="translate(78.399 804.55) rotate(90) scale(.08 -.08)">
<use xlink:href="#e"/>
<use x="44.083984" xlink:href="#l"/>
<use x="105.607422" xlink:href="#g"/>
<use x="144.970703" xlink:href="#i"/>
<use x="242.382812" xlink:href="#k"/>
<use x="270.166016" xlink:href="#h"/>
<use x="333.544922" xlink:href="#f"/>
<use x="394.824219" xlink:href="#j"/>
</g>
</g>
<path d="m91.305 804.55v33.808q0 2.4 2.4 2.4h7.7425q2.4 0 2.4-2.4v-33.808q0-2.4-2.4-2.4h-7.7425q-2.4 0-2.4 2.4z" clip-path="url(#a)" fill="#fff" stroke="#fff"/>
<g clip-path="url(#a)">
<g transform="translate(95.368 804.55) rotate(90) scale(.08 -.08)">
<use xlink:href="#e"/>
<use x="44.083984" xlink:href="#l"/>
<use x="105.607422" xlink:href="#g"/>
<use x="144.970703" xlink:href="#i"/>
<use x="242.382812" xlink:href="#k"/>
<use x="270.166016" xlink:href="#h"/>
<use x="333.544922" xlink:href="#f"/>
<use x="394.824219" xlink:href="#j"/>
</g>
</g>
<path d="m127.53 685.35 0.92835-5.3932q0.40713-2.3652-1.9581-2.7723l-7.6303-1.3134q-2.3652-0.40713-2.7723 1.9581l-0.92835 5.3932q-0.40713 2.3652 1.9581 2.7723l7.6303 1.3134q2.3652 0.40713 2.7723-1.9581z" clip-path="url(#a)" fill="#fff" stroke="#fff"/>
<g clip-path="url(#a)">
<g transform="translate(123.53 684.66) rotate(-80.233) scale(.08 -.08)">
<use xlink:href="#p"/>
</g>
</g>
<path d="m135.19 684.31 0.31606-4.5904q0.16486-2.3943-2.2295-2.5592l-7.7242-0.53184q-2.3943-0.16486-2.5592 2.2295l-0.31606 4.5904q-0.16486 2.3943 2.2295 2.5592l7.7242 0.53184q2.3943 0.16486 2.5592-2.2295z" clip-path="url(#a)" fill="#fff" stroke="#fff"/>
<g clip-path="url(#a)">
<g transform="translate(131.14 684.04) rotate(-86.061) scale(.08 -.08)">
<defs>
<path id="bg" d="m9.8125 72.906h41.891v-8.3125h-32.031v-21.484h28.906v-8.2969h-28.906v-34.812h-9.8594z"/>
</defs>
<use xlink:href="#bg"/>
</g>
</g>
<path d="m131.15 678.84 0.31768 6.1518q0.12377 2.3968 2.5206 2.273l7.7322-0.39929q2.3968-0.12377 2.273-2.5206l-0.31768-6.1518q-0.12377-2.3968-2.5206-2.273l-7.7322 0.39929q-2.3968 0.12377-2.273 2.5206z" clip-path="url(#a)" fill="#fff" stroke="#fff"/>
<g clip-path="url(#a)">
<g transform="translate(135.21 678.63) rotate(87.044) scale(.08 -.08)">
<use xlink:href="#v"/>
</g>
</g>
<path d="m140.64 680.26 0.94486 4.9901q0.4465 2.3581 2.8046 1.9116l7.6073-1.4404q2.3581-0.4465 1.9116-2.8046l-0.94486-4.9901q-0.4465-2.3581-2.8046-1.9116l-7.6073 1.4404q-2.3581 0.4465-1.9116 2.8046z" clip-path="url(#a)" fill="#fff" stroke="#fff"/>
<g clip-path="url(#a)">
<g transform="translate(144.63 679.5) rotate(79.278) scale(.08 -.08)">
<defs>
<path id="av" d="m53.516 70.516v-9.625q-5.6094 2.6875-10.594 4-4.9844 1.3281-9.625 1.3281-8.0469 0-12.422-3.125t-4.375-8.8906q0-4.8438 2.9062-7.3125 2.9062-2.4531 11.016-3.9688l5.9531-1.2188q11.031-2.1094 16.281-7.4062t5.25-14.172q0-10.609-7.1094-16.078-7.0938-5.4688-20.812-5.4688-5.1719 0-11.016 1.1719-5.8281 1.1719-12.078 3.4688v10.156q6-3.3594 11.766-5.0781 5.7656-1.7031 11.328-1.7031 8.4375 0 13.031 3.3125 4.5938 3.3281 4.5938 9.4844 0 5.3594-3.2969 8.3906t-10.812 4.5469l-6.0156 1.1719q-11.031 2.1875-15.969 6.875-4.9219 4.6875-4.9219 13.047 0 9.6719 6.8125 15.234t18.766 5.5625q5.1406 0 10.453-0.9375 5.3281-0.92188 10.891-2.7656z"/>
</defs>
<use xlink:href="#av"/>
</g>
</g>
<path d="m252.85 545.24 2.0148-5.0881q0.8836-2.2314-1.3478-3.115l-7.1987-2.8505q-2.2314-0.8836-3.115 1.3478l-2.0148 5.0881q-0.8836 2.2314 1.3478 3.115l7.1987 2.8505q2.2314 0.8836 3.115-1.3478z" clip-path="url(#a)" fill="#fff" stroke="#fff"/>
<g clip-path="url(#a)">
<g transform="translate(249.08 543.74) rotate(-68.397) scale(.08 -.08)">
<use xlink:href="#p"/>
</g>
</g>
<path d="m275.36 614.2 0.29896-6.1915q0.11575-2.3972-2.2815-2.513l-7.7335-0.37342q-2.3972-0.11575-2.513 2.2815l-0.29896 6.1915q-0.11575 2.3972 2.2815 2.513l7.7335 0.37342q2.3972 0.11575 2.513-2.2815z" clip-path="url(#a)" fill="#fff" stroke="#fff"/>
<g clip-path="url(#a)">
<g transform="translate(271.3 614) rotate(-87.236) scale(.08 -.08)">
<use xlink:href="#ax"/>
</g>
</g>
<path d="m278.57 608.47 0.34576 5.4616q0.15164 2.3952 2.5468 2.2436l7.727-0.48918q2.3952-0.15164 2.2436-2.5468l-0.34576-5.4616q-0.15164-2.3952-2.5468-2.2436l-7.727 0.48918q-2.3952 0.15164-2.2436 2.5468z" clip-path="url(#a)" fill="#fff" stroke="#fff"/>
<g clip-path="url(#a)">
<g transform="translate(282.62 608.21) rotate(86.378) scale(.08 -.08)">
<use xlink:href="#p"/>
</g>
</g>
<path d="m294.42 605.1 2.5147 13.705q0.43314 2.3606 2.7937 1.9275l7.8686-1.4438q2.3606-0.43314 1.9275-2.7937l-2.5147-13.705q-0.43314-2.3606-2.7937-1.9275l-7.8686 1.4438q-2.3606 0.43314-1.9275 2.7937z" clip-path="url(#a)" fill="#fff" stroke="#fff"/>
<g clip-path="url(#a)">
<g transform="translate(298.63 604.33) rotate(79.603) scale(.08 -.08)">
<defs>
<path id="bj" d="m21 76.422v-100h-8.2969v100z"/>
</defs>
<use xlink:href="#v"/>
<use x="77.001953" xlink:href="#bj"/>
<use x="110.693359" xlink:href="#av"/>
</g>
</g>
<path d="m450.56 687.22 2.8826-4.6518q1.2642-2.0401-0.77588-3.3042l-6.5813-4.0783q-2.0401-1.2642-3.3042 0.77588l-2.8826 4.6518q-1.2642 2.0401 0.77588 3.3042l6.5813 4.0783q2.0401 1.2642 3.3042-0.77588z" clip-path="url(#a)" fill="#fff" stroke="#fff"/>
<g clip-path="url(#a)">
<g transform="translate(447.1 685.08) rotate(-58.214) scale(.08 -.08)">
<use xlink:href="#p"/>
</g>
</g>
<path d="m472.28 686.47 1.9148-5.8548q0.74604-2.2811-1.5351-3.0271l-7.3589-2.4068q-2.2811-0.74604-3.0271 1.5351l-1.9148 5.8548q-0.74604 2.2811 1.5351 3.0271l7.3589 2.4068q2.2811 0.74604 3.0271-1.5351z" clip-path="url(#a)" fill="#fff" stroke="#fff"/>
<g clip-path="url(#a)">
<g transform="translate(468.41 685.2) rotate(-71.89) scale(.08 -.08)">
<use xlink:href="#v"/>
</g>
</g>
<path d="m495.32 684.11 0.08302-4.823q0.041306-2.3996-2.3583-2.441l-7.7414-0.13325q-2.3996-0.041306-2.441 2.3583l-0.08302 4.823q-0.041306 2.3996 2.3583 2.441l7.7414 0.13326q2.3996 0.041306 2.441-2.3583z" clip-path="url(#a)" fill="#fff" stroke="#fff"/>
<g clip-path="url(#a)">
<g transform="translate(491.26 684.04) rotate(-89.014) scale(.08 -.08)">
<use xlink:href="#w"/>
</g>
</g>
<path d="m505.22 680.5 1.8231 5.884q0.7103 2.2925 3.0028 1.5822l7.3956-2.2915q2.2925-0.7103 1.5822-3.0028l-1.8231-5.884q-0.7103-2.2925-3.0028-1.5822l-7.3956 2.2915q-2.2925 0.7103-1.5822 3.0028z" clip-path="url(#a)" fill="#fff" stroke="#fff"/>
<g clip-path="url(#a)">
<g transform="translate(509.1 679.3) rotate(72.785) scale(.08 -.08)">
<use xlink:href="#v"/>
</g>
</g>
<path d="m529.43 682.44 3.372 5.1551q1.3138 2.0085 3.3223 0.69472l6.4795-4.2383q2.0085-1.3138 0.69472-3.3223l-3.372-5.1551q-1.3138-2.0085-3.3223-0.69472l-6.4795 4.2383q-2.0085 1.3138-0.69472 3.3223z" clip-path="url(#a)" fill="#fff" stroke="#fff"/>
<g clip-path="url(#a)">
<g transform="translate(532.83 680.22) rotate(56.811) scale(.08 -.08)">
<use xlink:href="#v"/>
</g>
</g>
<path d="m396.76 804.55v33.808q0 2.4 2.4 2.4h7.7425q2.4 0 2.4-2.4v-33.808q0-2.4-2.4-2.4h-7.7425q-2.4 0-2.4 2.4z" clip-path="url(#a)" fill="#fff" stroke="#fff"/>
<g clip-path="url(#a)">
<g transform="translate(400.82 804.55) rotate(90) scale(.08 -.08)">
<use xlink:href="#e"/>
<use x="44.083984" xlink:href="#l"/>
<use x="105.607422" xlink:href="#g"/>
<use x="144.970703" xlink:href="#i"/>
<use x="242.382812" xlink:href="#k"/>
<use x="270.166016" xlink:href="#h"/>
<use x="333.544922" xlink:href="#f"/>
<use x="394.824219" xlink:href="#j"/>
</g>
</g>
<path d="m437.97 804.55v33.808q0 2.4 2.4 2.4h7.7425q2.4 0 2.4-2.4v-33.808q0-2.4-2.4-2.4h-7.7425q-2.4 0-2.4 2.4z" clip-path="url(#a)" fill="#fff" stroke="#fff"/>
<g clip-path="url(#a)">
<g transform="translate(442.03 804.55) rotate(90) scale(.08 -.08)">
<use xlink:href="#e"/>
<use x="44.083984" xlink:href="#l"/>
<use x="105.607422" xlink:href="#g"/>
<use x="144.970703" xlink:href="#i"/>
<use x="242.382812" xlink:href="#k"/>
<use x="270.166016" xlink:href="#h"/>
<use x="333.544922" xlink:href="#f"/>
<use x="394.824219" xlink:href="#j"/>
</g>
</g>
<path d="m481.61 804.55v33.808q0 2.4 2.4 2.4h7.7425q2.4 0 2.4-2.4v-33.808q0-2.4-2.4-2.4h-7.7425q-2.4 0-2.4 2.4z" clip-path="url(#a)" fill="#fff" stroke="#fff"/>
<g clip-path="url(#a)">
<g transform="translate(485.67 804.55) rotate(90) scale(.08 -.08)">
<use xlink:href="#e"/>
<use x="44.083984" xlink:href="#l"/>
<use x="105.607422" xlink:href="#g"/>
<use x="144.970703" xlink:href="#i"/>
<use x="242.382812" xlink:href="#k"/>
<use x="270.166016" xlink:href="#h"/>
<use x="333.544922" xlink:href="#f"/>
<use x="394.824219" xlink:href="#j"/>
</g>
</g>
<path d="m527.67 804.55v33.808q0 2.4 2.4 2.4h7.7425q2.4 0 2.4-2.4v-33.808q0-2.4-2.4-2.4h-7.7425q-2.4 0-2.4 2.4z" clip-path="url(#a)" fill="#fff" stroke="#fff"/>
<g clip-path="url(#a)">
<g transform="translate(531.73 804.55) rotate(90) scale(.08 -.08)">
<use xlink:href="#e"/>
<use x="44.083984" xlink:href="#l"/>
<use x="105.607422" xlink:href="#g"/>
<use x="144.970703" xlink:href="#i"/>
<use x="242.382812" xlink:href="#k"/>
<use x="270.166016" xlink:href="#h"/>
<use x="333.544922" xlink:href="#f"/>
<use x="394.824219" xlink:href="#j"/>
</g>
</g>
<path d="m576.15 804.55v33.808q0 2.4 2.4 2.4h7.7425q2.4 0 2.4-2.4v-33.808q0-2.4-2.4-2.4h-7.7425q-2.4 0-2.4 2.4z" clip-path="url(#a)" fill="#fff" stroke="#fff"/>
<g clip-path="url(#a)">
<g transform="translate(580.22 804.55) rotate(90) scale(.08 -.08)">
<use xlink:href="#e"/>
<use x="44.083984" xlink:href="#l"/>
<use x="105.607422" xlink:href="#g"/>
<use x="144.970703" xlink:href="#i"/>
<use x="242.382812" xlink:href="#k"/>
<use x="270.166016" xlink:href="#h"/>
<use x="333.544922" xlink:href="#f"/>
<use x="394.824219" xlink:href="#j"/>
</g>
</g>
<path d="m219.31 684.95 0.52392-5.534q0.2262-2.3893-2.1631-2.6155l-7.708-0.72974q-2.3893-0.2262-2.6155 2.1631l-0.52392 5.534q-0.2262 2.3893 2.1631 2.6155l7.708 0.72974q2.3893 0.2262 2.6155-2.1631z" clip-path="url(#a)" fill="#fff" stroke="#fff"/>
<g clip-path="url(#a)">
<g transform="translate(215.27 684.56) rotate(-84.592) scale(.08 -.08)">
<defs>
<path id="bf" d="m44.391 34.188q3.1719-1.0781 6.1719-4.5938t6.0312-9.6719l10.016-19.922h-10.609l-9.3125 18.703q-3.625 7.3281-7.0156 9.7188t-9.25 2.3906h-10.75v-30.812h-9.8594v72.906h22.266q12.5 0 18.656-5.2344 6.1562-5.2188 6.1562-15.766 0-6.8906-3.2031-11.438-3.2031-4.5312-9.2969-6.2812zm-24.719 30.609v-25.875h12.406q7.125 0 10.766 3.2969t3.6406 9.6875-3.6406 9.6406-10.766 3.25z"/>
</defs>
<use xlink:href="#bf"/>
</g>
</g>
<path d="m220.16 679.4 0.52651 5.5614q0.2262 2.3893 2.6155 2.1631l7.708-0.72974q2.3893-0.2262 2.1631-2.6155l-0.52652-5.5614q-0.2262-2.3893-2.6155-2.1631l-7.708 0.72974q-2.3893 0.2262-2.1631 2.6155z" clip-path="url(#a)" fill="#fff" stroke="#fff"/>
<g clip-path="url(#a)">
<g transform="translate(224.21 679.02) rotate(84.592) scale(.08 -.08)">
<use xlink:href="#ak"/>
</g>
</g>
<path d="m256.15 804.55v33.808q0 2.4 2.4 2.4h7.7425q2.4 0 2.4-2.4v-33.808q0-2.4-2.4-2.4h-7.7425q-2.4 0-2.4 2.4z" clip-path="url(#a)" fill="#fff" stroke="#fff"/>
<g clip-path="url(#a)">
<g transform="translate(260.22 804.55) rotate(90) scale(.08 -.08)">
<use xlink:href="#e"/>
<use x="44.083984" xlink:href="#l"/>
<use x="105.607422" xlink:href="#g"/>
<use x="144.970703" xlink:href="#i"/>
<use x="242.382812" xlink:href="#k"/>
<use x="270.166016" xlink:href="#h"/>
<use x="333.544922" xlink:href="#f"/>
<use x="394.824219" xlink:href="#j"/>
</g>
</g>
<path d="m287.67 804.55v33.808q0 2.4 2.4 2.4h7.7425q2.4 0 2.4-2.4v-33.808q0-2.4-2.4-2.4h-7.7425q-2.4 0-2.4 2.4z" clip-path="url(#a)" fill="#fff" stroke="#fff"/>
<g clip-path="url(#a)">
<g transform="translate(291.73 804.55) rotate(90) scale(.08 -.08)">
<use xlink:href="#e"/>
<use x="44.083984" xlink:href="#l"/>
<use x="105.607422" xlink:href="#g"/>
<use x="144.970703" xlink:href="#i"/>
<use x="242.382812" xlink:href="#k"/>
<use x="270.166016" xlink:href="#h"/>
<use x="333.544922" xlink:href="#f"/>
<use x="394.824219" xlink:href="#j"/>
</g>
</g>
<path d="m321.61 804.55v33.808q0 2.4 2.4 2.4h7.7425q2.4 0 2.4-2.4v-33.808q0-2.4-2.4-2.4h-7.7425q-2.4 0-2.4 2.4z" clip-path="url(#a)" fill="#fff" stroke="#fff"/>
<g clip-path="url(#a)">
<g transform="translate(325.67 804.55) rotate(90) scale(.08 -.08)">
<use xlink:href="#e"/>
<use x="44.083984" xlink:href="#l"/>
<use x="105.607422" xlink:href="#g"/>
<use x="144.970703" xlink:href="#i"/>
<use x="242.382812" xlink:href="#k"/>
<use x="270.166016" xlink:href="#h"/>
<use x="333.544922" xlink:href="#f"/>
<use x="394.824219" xlink:href="#j"/>
</g>
</g>
<path d="m200.4 804.55v33.808q0 2.4 2.4 2.4h7.7425q2.4 0 2.4-2.4v-33.808q0-2.4-2.4-2.4h-7.7425q-2.4 0-2.4 2.4z" clip-path="url(#a)" fill="#fff" stroke="#fff"/>
<g clip-path="url(#a)">
<g transform="translate(204.46 804.55) rotate(90) scale(.08 -.08)">
<use xlink:href="#e"/>
<use x="44.083984" xlink:href="#l"/>
<use x="105.607422" xlink:href="#g"/>
<use x="144.970703" xlink:href="#i"/>
<use x="242.382812" xlink:href="#k"/>
<use x="270.166016" xlink:href="#h"/>
<use x="333.544922" xlink:href="#f"/>
<use x="394.824219" xlink:href="#j"/>
</g>
</g>
<path d="m227.06 804.55v33.808q0 2.4 2.4 2.4h7.7425q2.4 0 2.4-2.4v-33.808q0-2.4-2.4-2.4h-7.7425q-2.4 0-2.4 2.4z" clip-path="url(#a)" fill="#fff" stroke="#fff"/>
<g clip-path="url(#a)">
<g transform="translate(231.13 804.55) rotate(90) scale(.08 -.08)">
<use xlink:href="#e"/>
<use x="44.083984" xlink:href="#l"/>
<use x="105.607422" xlink:href="#g"/>
<use x="144.970703" xlink:href="#i"/>
<use x="242.382812" xlink:href="#k"/>
<use x="270.166016" xlink:href="#h"/>
<use x="333.544922" xlink:href="#f"/>
<use x="394.824219" xlink:href="#j"/>
</g>
</g>
<path d="m103.43 804.55v33.808q0 2.4 2.4 2.4h7.7425q2.4 0 2.4-2.4v-33.808q0-2.4-2.4-2.4h-7.7425q-2.4 0-2.4 2.4z" clip-path="url(#a)" fill="#fff" stroke="#fff"/>
<g clip-path="url(#a)">
<g transform="translate(107.49 804.55) rotate(90) scale(.08 -.08)">
<use xlink:href="#e"/>
<use x="44.083984" xlink:href="#l"/>
<use x="105.607422" xlink:href="#g"/>
<use x="144.970703" xlink:href="#i"/>
<use x="242.382812" xlink:href="#k"/>
<use x="270.166016" xlink:href="#h"/>
<use x="333.544922" xlink:href="#f"/>
<use x="394.824219" xlink:href="#j"/>
</g>
</g>
<path d="m117.97 804.55v33.808q0 2.4 2.4 2.4h7.7425q2.4 0 2.4-2.4v-33.808q0-2.4-2.4-2.4h-7.7425q-2.4 0-2.4 2.4z" clip-path="url(#a)" fill="#fff" stroke="#fff"/>
<g clip-path="url(#a)">
<g transform="translate(122.03 804.55) rotate(90) scale(.08 -.08)">
<use xlink:href="#e"/>
<use x="44.083984" xlink:href="#l"/>
<use x="105.607422" xlink:href="#g"/>
<use x="144.970703" xlink:href="#i"/>
<use x="242.382812" xlink:href="#k"/>
<use x="270.166016" xlink:href="#h"/>
<use x="333.544922" xlink:href="#f"/>
<use x="394.824219" xlink:href="#j"/>
</g>
</g>
<path d="m134.94 804.55v33.808q0 2.4 2.4 2.4h7.7425q2.4 0 2.4-2.4v-33.808q0-2.4-2.4-2.4h-7.7425q-2.4 0-2.4 2.4z" clip-path="url(#a)" fill="#fff" stroke="#fff"/>
<g clip-path="url(#a)">
<g transform="translate(139 804.55) rotate(90) scale(.08 -.08)">
<use xlink:href="#e"/>
<use x="44.083984" xlink:href="#l"/>
<use x="105.607422" xlink:href="#g"/>
<use x="144.970703" xlink:href="#i"/>
<use x="242.382812" xlink:href="#k"/>
<use x="270.166016" xlink:href="#h"/>
<use x="333.544922" xlink:href="#f"/>
<use x="394.824219" xlink:href="#j"/>
</g>
</g>
<path d="m154.33 804.55v33.808q0 2.4 2.4 2.4h7.7425q2.4 0 2.4-2.4v-33.808q0-2.4-2.4-2.4h-7.7425q-2.4 0-2.4 2.4z" clip-path="url(#a)" fill="#fff" stroke="#fff"/>
<g clip-path="url(#a)">
<g transform="translate(158.4 804.55) rotate(90) scale(.08 -.08)">
<use xlink:href="#e"/>
<use x="44.083984" xlink:href="#l"/>
<use x="105.607422" xlink:href="#g"/>
<use x="144.970703" xlink:href="#i"/>
<use x="242.382812" xlink:href="#k"/>
<use x="270.166016" xlink:href="#h"/>
<use x="333.544922" xlink:href="#f"/>
<use x="394.824219" xlink:href="#j"/>
</g>
</g>
<path d="m81.608 804.55v33.808q0 2.4 2.4 2.4h7.7425q2.4 0 2.4-2.4v-33.808q0-2.4-2.4-2.4h-7.7425q-2.4 0-2.4 2.4z" clip-path="url(#a)" fill="#fff" stroke="#fff"/>
<g clip-path="url(#a)">
<g transform="translate(85.671 804.55) rotate(90) scale(.08 -.08)">
<use xlink:href="#e"/>
<use x="44.083984" xlink:href="#l"/>
<use x="105.607422" xlink:href="#g"/>
<use x="144.970703" xlink:href="#i"/>
<use x="242.382812" xlink:href="#k"/>
<use x="270.166016" xlink:href="#h"/>
<use x="333.544922" xlink:href="#f"/>
<use x="394.824219" xlink:href="#j"/>
</g>
</g>
<path d="m176.15 804.55v33.808q0 2.4 2.4 2.4h7.7425q2.4 0 2.4-2.4v-33.808q0-2.4-2.4-2.4h-7.7425q-2.4 0-2.4 2.4z" clip-path="url(#a)" fill="#fff" stroke="#fff"/>
<g clip-path="url(#a)">
<g transform="translate(180.22 804.55) rotate(90) scale(.08 -.08)">
<use xlink:href="#e"/>
<use x="44.083984" xlink:href="#l"/>
<use x="105.607422" xlink:href="#g"/>
<use x="144.970703" xlink:href="#i"/>
<use x="242.382812" xlink:href="#k"/>
<use x="270.166016" xlink:href="#h"/>
<use x="333.544922" xlink:href="#f"/>
<use x="394.824219" xlink:href="#j"/>
</g>
</g>
<path d="m357.97 804.55v33.808q0 2.4 2.4 2.4h7.7425q2.4 0 2.4-2.4v-33.808q0-2.4-2.4-2.4h-7.7425q-2.4 0-2.4 2.4z" clip-path="url(#a)" fill="#fff" stroke="#fff"/>
<g clip-path="url(#a)">
<g transform="translate(362.03 804.55) rotate(90) scale(.08 -.08)">
<use xlink:href="#e"/>
<use x="44.083984" xlink:href="#l"/>
<use x="105.607422" xlink:href="#g"/>
<use x="144.970703" xlink:href="#i"/>
<use x="242.382812" xlink:href="#k"/>
<use x="270.166016" xlink:href="#h"/>
<use x="333.544922" xlink:href="#f"/>
<use x="394.824219" xlink:href="#j"/>
</g>
</g>
<path d="m631.91 804.55v33.808q0 2.4 2.4 2.4h7.7425q2.4 0 2.4-2.4v-33.808q0-2.4-2.4-2.4h-7.7425q-2.4 0-2.4 2.4z" clip-path="url(#a)" fill="#fff" stroke="#fff"/>
<g clip-path="url(#a)">
<g transform="translate(635.97 804.55) rotate(90) scale(.08 -.08)">
<use xlink:href="#e"/>
<use x="44.083984" xlink:href="#l"/>
<use x="105.607422" xlink:href="#g"/>
<use x="144.970703" xlink:href="#i"/>
<use x="242.382812" xlink:href="#k"/>
<use x="270.166016" xlink:href="#h"/>
<use x="333.544922" xlink:href="#f"/>
<use x="394.824219" xlink:href="#j"/>
</g>
</g>
<path d="m685.24 804.55v33.808q0 2.4 2.4 2.4h7.7425q2.4 0 2.4-2.4v-33.808q0-2.4-2.4-2.4h-7.7425q-2.4 0-2.4 2.4z" clip-path="url(#a)" fill="#fff" stroke="#fff"/>
<g clip-path="url(#a)">
<g transform="translate(689.31 804.55) rotate(90) scale(.08 -.08)">
<use xlink:href="#e"/>
<use x="44.083984" xlink:href="#l"/>
<use x="105.607422" xlink:href="#g"/>
<use x="144.970703" xlink:href="#i"/>
<use x="242.382812" xlink:href="#k"/>
<use x="270.166016" xlink:href="#h"/>
<use x="333.544922" xlink:href="#f"/>
<use x="394.824219" xlink:href="#j"/>
</g>
</g>
<path d="m1056.2 804.55v33.808q0 2.4 2.4 2.4h7.7425q2.4 0 2.4-2.4v-33.808q0-2.4-2.4-2.4h-7.7425q-2.4 0-2.4 2.4z" clip-path="url(#a)" fill="#fff" stroke="#fff"/>
<g clip-path="url(#a)">
<g transform="translate(1060.2 804.55) rotate(90) scale(.08 -.08)">
<use xlink:href="#e"/>
<use x="44.083984" xlink:href="#l"/>
<use x="105.607422" xlink:href="#g"/>
<use x="144.970703" xlink:href="#i"/>
<use x="242.382812" xlink:href="#k"/>
<use x="270.166016" xlink:href="#h"/>
<use x="333.544922" xlink:href="#f"/>
<use x="394.824219" xlink:href="#j"/>
</g>
</g>
<path d="m1351.9 804.55v33.808q0 2.4 2.4 2.4h7.7425q2.4 0 2.4-2.4v-33.808q0-2.4-2.4-2.4h-7.7425q-2.4 0-2.4 2.4z" clip-path="url(#a)" fill="#fff" stroke="#fff"/>
<g clip-path="url(#a)">
<g transform="translate(1356 804.55) rotate(90) scale(.08 -.08)">
<use xlink:href="#e"/>
<use x="44.083984" xlink:href="#l"/>
<use x="105.607422" xlink:href="#g"/>
<use x="144.970703" xlink:href="#i"/>
<use x="242.382812" xlink:href="#k"/>
<use x="270.166016" xlink:href="#h"/>
<use x="333.544922" xlink:href="#f"/>
<use x="394.824219" xlink:href="#j"/>
</g>
</g>
<path d="m1431.9 804.55v33.808q0 2.4 2.4 2.4h7.7425q2.4 0 2.4-2.4v-33.808q0-2.4-2.4-2.4h-7.7425q-2.4 0-2.4 2.4z" clip-path="url(#a)" fill="#fff" stroke="#fff"/>
<g clip-path="url(#a)">
<g transform="translate(1436 804.55) rotate(90) scale(.08 -.08)">
<use xlink:href="#e"/>
<use x="44.083984" xlink:href="#l"/>
<use x="105.607422" xlink:href="#g"/>
<use x="144.970703" xlink:href="#i"/>
<use x="242.382812" xlink:href="#k"/>
<use x="270.166016" xlink:href="#h"/>
<use x="333.544922" xlink:href="#f"/>
<use x="394.824219" xlink:href="#j"/>
</g>
</g>
<path d="m1686.5 804.55v33.808q0 2.4 2.4 2.4h7.7425q2.4 0 2.4-2.4v-33.808q0-2.4-2.4-2.4h-7.7425q-2.4 0-2.4 2.4z" clip-path="url(#a)" fill="#fff" stroke="#fff"/>
<g clip-path="url(#a)">
<g transform="translate(1690.5 804.55) rotate(90) scale(.08 -.08)">
<use xlink:href="#e"/>
<use x="44.083984" xlink:href="#l"/>
<use x="105.607422" xlink:href="#g"/>
<use x="144.970703" xlink:href="#i"/>
<use x="242.382812" xlink:href="#k"/>
<use x="270.166016" xlink:href="#h"/>
<use x="333.544922" xlink:href="#f"/>
<use x="394.824219" xlink:href="#j"/>
</g>
</g>
<defs>
<path id="b" d="m0 8.6603c2.2967 0 4.4997-0.9125 6.1237-2.5365 1.624-1.624 2.5365-3.827 2.5365-6.1237s-0.9125-4.4997-2.5365-6.1237c-1.624-1.624-3.827-2.5365-6.1237-2.5365s-4.4997 0.9125-6.1237 2.5365c-1.624 1.624-2.5365 3.827-2.5365 6.1237s0.9125 4.4997 2.5365 6.1237c1.624 1.624 3.827 2.5365 6.1237 2.5365z"/>
</defs>
<g clip-path="url(#a)" fill="#ffffff" stroke="#ffffff">
<use x="80.606061" y="890.909091" xlink:href="#b"/>
<use x="87.878788" y="890.909091" xlink:href="#b"/>
<use x="97.575758" y="890.909091" xlink:href="#b"/>
<use x="109.69697" y="890.909091" xlink:href="#b"/>
<use x="124.242424" y="890.909091" xlink:href="#b"/>
<use x="141.212121" y="890.909091" xlink:href="#b"/>
<use x="160.606061" y="890.909091" xlink:href="#b"/>
<use x="182.424242" y="890.909091" xlink:href="#b"/>
<use x="206.666667" y="890.909091" xlink:href="#b"/>
<use x="233.333333" y="890.909091" xlink:href="#b"/>
<use x="262.424242" y="890.909091" xlink:href="#b"/>
<use x="293.939394" y="890.909091" xlink:href="#b"/>
<use x="327.878788" y="890.909091" xlink:href="#b"/>
<use x="364.242424" y="890.909091" xlink:href="#b"/>
<use x="403.030303" y="890.909091" xlink:href="#b"/>
<use x="444.242424" y="890.909091" xlink:href="#b"/>
<use x="487.878788" y="890.909091" xlink:href="#b"/>
<use x="533.939394" y="890.909091" xlink:href="#b"/>
<use x="582.424242" y="890.909091" xlink:href="#b"/>
<use x="638.181818" y="890.909091" xlink:href="#b"/>
<use x="691.515152" y="890.909091" xlink:href="#b"/>
<use x="747.272727" y="890.909091" xlink:href="#b"/>
<use x="805.454545" y="890.909091" xlink:href="#b"/>
<use x="866.060606" y="890.909091" xlink:href="#b"/>
<use x="929.090909" y="890.909091" xlink:href="#b"/>
<use x="994.545455" y="890.909091" xlink:href="#b"/>
<use x="1062.424242" y="890.909091" xlink:href="#b"/>
<use x="1132.727273" y="890.909091" xlink:href="#b"/>
<use x="1205.454545" y="890.909091" xlink:href="#b"/>
<use x="1280.606061" y="890.909091" xlink:href="#b"/>
<use x="1358.181818" y="890.909091" xlink:href="#b"/>
<use x="1438.181818" y="890.909091" xlink:href="#b"/>
<use x="1520.606061" y="890.909091" xlink:href="#b"/>
<use x="1605.454545" y="890.909091" xlink:href="#b"/>
<use x="1692.727273" y="890.909091" xlink:href="#b"/>
<use x="587.272727" y="327.541422" xlink:href="#b"/>
<use x="587.272727" y="327.541422" xlink:href="#b"/>
<use x="745.246843" y="42.424242" xlink:href="#b"/>
<use x="214.128788" y="185.126352" xlink:href="#b"/>
<use x="1437.161616" y="185.126352" xlink:href="#b"/>
<use x="1007.818182" y="327.541422" xlink:href="#b"/>
<use x="1520.606061" y="752.006186" xlink:href="#b"/>
<use x="1605.454545" y="752.006186" xlink:href="#b"/>
<use x="868.484848" y="611.170989" xlink:href="#b"/>
<use x="1132.727273" y="752.006186" xlink:href="#b"/>
<use x="967.636364" y="469.597123" xlink:href="#b"/>
<use x="1243.030303" y="611.170989" xlink:href="#b"/>
<use x="1205.454545" y="752.006186" xlink:href="#b"/>
<use x="1280.606061" y="752.006186" xlink:href="#b"/>
<use x="747.272727" y="752.006186" xlink:href="#b"/>
<use x="805.454545" y="752.006186" xlink:href="#b"/>
<use x="866.060606" y="752.006186" xlink:href="#b"/>
<use x="929.090909" y="752.006186" xlink:href="#b"/>
<use x="994.545455" y="752.006186" xlink:href="#b"/>
<use x="214.128788" y="327.541422" xlink:href="#b"/>
<use x="80.606061" y="752.006186" xlink:href="#b"/>
<use x="97.575758" y="752.006186" xlink:href="#b"/>
<use x="133.939394" y="611.170989" xlink:href="#b"/>
<use x="276.060606" y="469.597123" xlink:href="#b"/>
<use x="490.30303" y="611.170989" xlink:href="#b"/>
<use x="403.030303" y="752.006186" xlink:href="#b"/>
<use x="444.242424" y="752.006186" xlink:href="#b"/>
<use x="487.878788" y="752.006186" xlink:href="#b"/>
<use x="533.939394" y="752.006186" xlink:href="#b"/>
<use x="582.424242" y="752.006186" xlink:href="#b"/>
<use x="220" y="611.170989" xlink:href="#b"/>
<use x="262.424242" y="752.006186" xlink:href="#b"/>
<use x="293.939394" y="752.006186" xlink:href="#b"/>
<use x="327.878788" y="752.006186" xlink:href="#b"/>
<use x="206.666667" y="752.006186" xlink:href="#b"/>
<use x="233.333333" y="752.006186" xlink:href="#b"/>
<use x="109.69697" y="752.006186" xlink:href="#b"/>
<use x="124.242424" y="752.006186" xlink:href="#b"/>
<use x="141.212121" y="752.006186" xlink:href="#b"/>
<use x="160.606061" y="752.006186" xlink:href="#b"/>
<use x="87.878788" y="752.006186" xlink:href="#b"/>
<use x="182.424242" y="752.006186" xlink:href="#b"/>
<use x="364.242424" y="752.006186" xlink:href="#b"/>
<use x="638.181818" y="752.006186" xlink:href="#b"/>
<use x="691.515152" y="752.006186" xlink:href="#b"/>
<use x="1062.424242" y="752.006186" xlink:href="#b"/>
<use x="1358.181818" y="752.006186" xlink:href="#b"/>
<use x="1438.181818" y="752.006186" xlink:href="#b"/>
<use x="1692.727273" y="752.006186" xlink:href="#b"/>
</g>
<g clip-path="url(#a)">
<g transform="translate(73.887 893.67) scale(.1 -.1)">
<defs>
<path id="br" d="m9.8125 72.906h9.8594v-29.891h35.844v29.891h9.8594v-72.906h-9.8594v34.719h-35.844v-34.719h-9.8594z"/>
<path id="ab" d="m32.172-5.0781q-3.7969-9.7656-7.4219-12.734-3.6094-2.9844-9.6562-2.9844h-7.1875v7.5156h5.2812q3.7031 0 5.75 1.7656 2.0625 1.75 4.5469 8.2969l1.6094 4.0938-22.109 53.812h9.5156l17.094-42.766 17.094 42.766h9.5156z"/>
</defs>
<use xlink:href="#br"/>
<use x="75.195312" xlink:href="#ab"/>
</g>
</g>
<g clip-path="url(#a)">
<g transform="translate(86.29 893.67) scale(.1 -.1)">
<defs>
<path id="aq" d="m11.719 12.406h10.297v-8.4062l-8-15.625h-6.2969l4 15.625z"/>
</defs>
<use xlink:href="#aq"/>
</g>
</g>
<g clip-path="url(#a)">
<g transform="translate(82.655 893.67) scale(.1 -.1)">
<defs>
<path id="ba" d="m18.109 8.2031v-29h-9.0312v75.484h9.0312v-8.2969q2.8438 4.875 7.1562 7.2344 4.3281 2.375 10.328 2.375 9.9688 0 16.188-7.9062 6.2344-7.9062 6.2344-20.797t-6.2344-20.812q-6.2188-7.9062-16.188-7.9062-6 0-10.328 2.375-4.3125 2.375-7.1562 7.25zm30.578 19.094q0 9.9062-4.0781 15.547t-11.203 5.6406q-7.1406 0-11.219-5.6406t-4.0781-15.547 4.0781-15.547 11.219-5.6406q7.125 0 11.203 5.6406t4.0781 15.547z"/>
<path id="s" d="m34.281 27.484q-10.891 0-15.094-2.4844t-4.2031-8.5q0-4.7812 3.1562-7.5938 3.1562-2.7969 8.5625-2.7969 7.4844 0 12 5.2969t4.5156 14.078v2zm17.922 3.7188v-31.203h-8.9844v8.2969q-3.0781-4.9688-7.6719-7.3438t-11.234-2.375q-8.3906 0-13.359 4.7188-4.9531 4.7188-4.9531 12.625 0 9.2188 6.1719 13.906 6.1875 4.6875 18.438 4.6875h12.609v0.89062q0 6.2031-4.0781 9.5938t-11.453 3.3906q-4.6875 0-9.1406-1.125-4.4375-1.125-8.5312-3.375v8.3125q4.9219 1.9062 9.5625 2.8438 4.6406 0.95312 9.0312 0.95312 11.875 0 17.734-6.1562 5.8594-6.1406 5.8594-18.641z"/>
<path id="at" d="m34.469 29.5q6.0625-1.1719 9.4219-4.75 3.375-3.5625 3.375-8.8281 0-8.4531-6.2969-12.906-6.2969-4.4375-17.922-4.4375-3.9062 0-8.0312 0.6875t-8.5156 2.0469v8.3594q3.4688-1.8125 7.6094-2.7188 4.1562-0.89062 8.6875-0.89062 7.375 0 11.5 2.7344t4.125 7.125q0 4.2969-3.6562 6.9062t-10.344 2.6094h-7.2344v7.4219h7.5625q5.6719 0 8.9688 2.1719t3.2969 5.5938q0 3.125-3.4062 5.375-3.3906 2.25-9.1875 2.25-3.4688 0-7.4062-0.64062-3.9219-0.64062-8.6719-2.0469v8.1562q4.7969 1.1719 8.9375 1.75 4.1562 0.59375 7.8594 0.59375 9.5781 0 15.109-3.8438 5.5469-3.8281 5.5469-10.719 0-4.5312-2.9375-7.6875-2.9219-3.1406-8.3906-4.3125z"/>
<path id="ao" d="m18.062 25.203v-18.031h12.797q6.1562 0 9.375 2.3125 3.2188 2.3281 3.2188 6.7344 0 4.3906-3.2188 6.6875t-9.375 2.2969zm0 22.312v-15.141h11.828q5.0781 0 8.2969 2.0156 3.2188 2.0312 3.2188 5.6562 0 3.6094-3.2188 5.5312-3.2188 1.9375-8.2969 1.9375zm-8.9844 7.1719h21.391q9.625 0 14.797-3.5156t5.1719-10.016q0-5.0156-2.6406-7.9844-2.625-2.9531-7.8125-3.6719 6.2031-1.1719 9.625-4.8906 3.4219-3.7031 3.4219-9.2812 0-7.3125-5.6406-11.328-5.6406-4-16.094-4h-22.219z"/>
<path id="m" d="m56.203 29.594v-4.3906h-41.312q0.59375-9.2812 5.5938-14.141t13.938-4.8594q5.1719 0 10.031 1.2656t9.6562 3.8125v-8.5q-4.8438-2.0469-9.9219-3.125t-10.297-1.0781q-13.094 0-20.734 7.6094-7.6406 7.625-7.6406 20.625 0 13.422 7.25 21.297 7.25 7.8906 19.562 7.8906 11.031 0 17.453-7.1094 6.4219-7.0938 6.4219-19.297zm-8.9844 2.6406q-0.09375 7.3594-4.125 11.75-4.0312 4.4062-10.672 4.4062-7.5156 0-12.031-4.25t-5.2031-11.969z"/>
</defs>
<use xlink:href="#ba"/>
<use x="63.476562" xlink:href="#s"/>
<use x="124.755859" xlink:href="#at"/>
<use x="177.929688" xlink:href="#ao"/>
<use x="236.865234" xlink:href="#m"/>
</g>
</g>
<g clip-path="url(#a)">
<g transform="translate(102.84 893.67) scale(.1 -.1)">
<defs>
<path id="t" d="m2.9375 54.688h52.391v-7.1719h-21.781v-47.516h-8.8438v47.516h-21.766z"/>
<path id="az" d="m61.047 54.688h8.9844v-54.688h-8.9844zm4.5 1.3125m-22.094-39.781q0 4.3906-3.2031 6.6875-3.1875 2.2969-9.3438 2.2969h-12.797v-18.031h12.797q6.1562 0 9.3438 2.3125 3.2031 2.3281 3.2031 6.7344zm-34.375 38.469h9.0312v-22.312h13.188q10.453 0 16.094-3.9844 5.6406-3.9688 5.6406-12.172t-5.6406-12.219q-5.6406-4-16.094-4h-22.219z"/>
</defs>
<use xlink:href="#t"/>
<use x="58.251953" xlink:href="#az"/>
</g>
</g>
<g clip-path="url(#a)">
<g transform="translate(116.78 893.67) scale(.1 -.1)">
<defs>
<path id="au" d="m40.578 54.688h8.9375v-25.688l23.875 25.688h10.453l-19.641-21.047 22.469-33.641h-9.625l-18.406 27.641-9.125-9.8125v-17.828h-8.9375v17.828l-9.125 9.8125-18.422-27.641h-9.6094l22.453 33.641-19.625 21.047h10.453l23.875-25.688z"/>
</defs>
<use xlink:href="#ab"/>
<use x="59.179688" xlink:href="#au"/>
</g>
</g>
<g clip-path="url(#a)">
<g transform="translate(126.14 893.67) scale(.1 -.1)">
<defs>
<path id="as" d="m9.0781 54.688h8.9375v-25.688l25.344 25.688h11.031l-20.891-21.141 23.578-33.547h-10.062l-19.375 27.594-9.625-9.7656v-17.828h-8.9375z"/>
<path id="af" d="m18.453 38.922q0-4.0625 3.125-6.3594 3.125-2.2812 8.9375-2.2812h12.109v17.234h-12.109q-5.8125 0-8.9375-2.25t-3.125-6.3438zm-12.781-38.922 16.688 23.969q-5.6562 1.2812-9.4219 4.625-3.75 3.3438-3.75 10.328 0 7.9062 5.2344 11.828 5.25 3.9375 15.859 3.9375h21.375v-54.688h-9.0312v23.094h-11.172l-16.125-23.094z"/>
</defs>
<use xlink:href="#t"/>
<use x="58.251953" xlink:href="#s"/>
<use x="119.53125" xlink:href="#as"/>
<use x="179.931641" xlink:href="#s"/>
<use x="241.210938" xlink:href="#af"/>
</g>
</g>
<g clip-path="url(#a)">
<g transform="translate(116.11 893.67) scale(.1 -.1)">
<defs>
<path id="ah" d="m9.0781 54.688h13.141l15.531-36.625 15.578 36.625h13.031v-54.688h-9.0312v46.094l-15.094-35.594h-8.9844l-15.141 35.594v-46.094h-9.0312z"/>
<path id="ac" d="m30.609 48.391q-7.2188 0-11.422-5.6406t-4.2031-15.453 4.1719-15.453q4.1875-5.6406 11.453-5.6406 7.1875 0 11.375 5.6562 4.2031 5.6719 4.2031 15.438 0 9.7188-4.2031 15.406-4.1875 5.6875-11.375 5.6875zm0 7.6094q11.719 0 18.406-7.625 6.7031-7.6094 6.7031-21.078 0-13.422-6.7031-21.078-6.6875-7.6406-18.406-7.6406-11.766 0-18.438 7.6406-6.6562 7.6562-6.6562 21.078 0 13.469 6.6562 21.078 6.6719 7.625 18.438 7.625z"/>
<path id="be" d="m9.0781 0v54.688h38.578v-7.1719h-29.547v-47.516z"/>
<path id="bl" d="m82.422 0h-73.344v54.688h9.0312v-47.516h23.109v47.516h9.0312v-47.516h23.141v47.516h9.0312v-47.516h7.1719v-20.984h-7.1719z"/>
<path id="an" d="m48.781 52.594v-8.4062q-3.8125 2.1094-7.6406 3.1562t-7.7344 1.0469q-8.75 0-13.594-5.5469-4.8281-5.5312-4.8281-15.547t4.8281-15.562q4.8438-5.5312 13.594-5.5312 3.9062 0 7.7344 1.0469t7.6406 3.1562v-8.3125q-3.7656-1.75-7.7969-2.625-4.0156-0.89062-8.5625-0.89062-12.359 0-19.641 7.7656-7.2656 7.7656-7.2656 20.953 0 13.375 7.3438 21.031 7.3594 7.6719 20.156 7.6719 4.1406 0 8.0938-0.85938 3.9531-0.84375 7.6719-2.5469z"/>
<path id="ag" d="m9.0781 54.688h9.0312v-22.312h29.156v22.312h9.0312v-54.688h-9.0312v25.203h-29.156v-25.203h-9.0312z"/>
</defs>
<use xlink:href="#ah"/>
<use x="75.439453" xlink:href="#ac"/>
<use x="136.621094" xlink:href="#be"/>
<use x="189.160156" xlink:href="#ab"/>
<use x="248.339844" xlink:href="#bl"/>
<use x="342.529297" xlink:href="#m"/>
<use x="404.052734" xlink:href="#an"/>
<use x="459.033203" xlink:href="#t"/>
<use x="517.285156" xlink:href="#ao"/>
<use x="576.220703" xlink:href="#m"/>
<use x="637.744141" xlink:href="#ag"/>
<use x="703.125" xlink:href="#ag"/>
<use x="768.505859" xlink:href="#s"/>
<use x="829.785156" xlink:href="#af"/>
</g>
</g>
<g clip-path="url(#a)">
<g transform="translate(179.77 893.67) scale(.1 -.1)">
<defs>
<path id="bi" d="m19.094 12.406h9.9062v-12.406h-9.9062zm9.625 7.1719h-9.3281v7.5156q0 4.9375 1.3594 8.1094 1.375 3.1719 5.7656 7.375l4.3906 4.3438q2.7812 2.5938 4.0312 4.8906t1.25 4.6875q0 4.3438-3.2031 7.0312t-8.4688 2.6875q-3.8594 0-8.2344-1.7188-4.3594-1.7031-9.1094-4.9844v9.1875q4.5938 2.7812 9.2969 4.1406 4.7188 1.375 9.75 1.375 8.9844 0 14.422-4.7344 5.4531-4.7344 5.4531-12.5 0-3.7188-1.7656-7.0625-1.75-3.3438-6.1406-7.5312l-4.2969-4.2031q-2.2969-2.2969-3.25-3.5938t-1.3438-2.5156q-0.29688-1.0156-0.4375-2.4844t-0.14062-4z"/>
</defs>
<use xlink:href="#bi"/>
</g>
</g>
<g clip-path="url(#a)">
<g transform="translate(203.62 893.67) scale(.1 -.1)">
<defs>
<path id="bp" d="m31.984 8.8438q-1.0312-2.4531-2.5938-4.2969-3.8594-4.5469-16.109-4.5469h-3.7656v8.2969h3.0781q5.8125 0 8.0625 1.3281 1.3594 0.82812 2.25 2.875l2.1875 5.1719-23.391 55.234h10.609l18.109-42.781 18.219 42.781h10.594z"/>
</defs>
<use xlink:href="#bp"/>
</g>
</g>
<g clip-path="url(#a)">
<g transform="translate(221.25 893.67) scale(.1 -.1)">
<defs>
<path id="ap" d="m31.109 56q11.719 0 18.406-7.625 6.6875-7.6094 6.6875-21.078 0-13.422-6.6875-21.078-6.6875-7.6406-18.406-7.6406-11.766 0-18.266 7.4219t-6.8438 21.297l-0.28125 11.188q-0.25 5.7969-0.25 7.8125 0 7.8125 2.8281 13.562 4.4531 9.0312 12.141 12.938t20.578 4.0156q5.9531 0.046875 8.5938 0.875l2.4844-7.125q-2.3906-0.98438-4.5781-1.0312l-12.219-0.82812q-6.1406-0.4375-9.8594-2.5938-9.7188-5.7031-10.641-13.172l-0.34375-2.7344q6.3438 5.7969 16.656 5.7969zm0-7.6094q-7.2344 0-11.438-5.6406-4.1875-5.6406-4.1875-15.453t4.1719-15.453 11.453-5.6406q7.1719 0 11.375 5.6562 4.2031 5.6719 4.2031 15.438 0 9.7188-4.2031 15.406t-11.375 5.6875z"/>
</defs>
<use xlink:href="#t"/>
<use x="58.251953" xlink:href="#m"/>
<use x="119.775391" xlink:href="#ap"/>
<use x="181.445312" xlink:href="#af"/>
</g>
</g>
<g clip-path="url(#a)">
<g transform="translate(248.32 893.67) scale(.1 -.1)">
<defs>
<path id="bd" d="m21.625 7.1719h26.078v40.344h-18.891v-6.8438q0-20.109-5.7656-30.859zm-13.031 0q4.4375 1.9531 6.3906 6.1094 4.7969 10.297 4.7969 31.062v10.344h36.953v-47.516h7.1875v-20.984h-7.1875v13.812h-44.328v-13.812h-7.1875v20.984z"/>
</defs>
<use xlink:href="#bd"/>
<use x="69.140625" xlink:href="#s"/>
<use x="130.419922" xlink:href="#au"/>
<use x="220.507812" xlink:href="#m"/>
</g>
</g>
<g clip-path="url(#a)">
<g transform="translate(284.41 893.67) scale(.1 -.1)">
<defs>
<path id="ai" d="m3.7188 0v7.4688q8.875 1.375 11.609 7.5156 3.3281 8.6562 3.3281 30.766v8.9375h36.953v-54.688h-8.9844v47.516h-18.984v-5.4219q0-21.094-4.2969-30.562-4.5938-10.109-19.625-11.531z"/>
<path id="bb" d="m56.297 54.688v-54.688h-9.0312v47.516h-29.156v-47.516h-9.0312v54.688z"/>
</defs>
<use xlink:href="#ai"/>
<use x="63.916016" xlink:href="#s"/>
<use x="125.195312" xlink:href="#bb"/>
</g>
</g>
<g clip-path="url(#a)">
<g transform="translate(318.62 893.67) scale(.1 -.1)">
<use xlink:href="#ag"/>
<use x="65.380859" xlink:href="#m"/>
<use x="126.904297" xlink:href="#t"/>
</g>
</g>
<g clip-path="url(#a)">
<g transform="translate(362.65 893.67) scale(.1 -.1)">
<defs>
<path id="d" d="m10.688 12.406h10.312v-12.406h-10.312z"/>
</defs>
<use xlink:href="#d"/>
</g>
</g>
<g clip-path="url(#a)">
<g transform="translate(396.03 893.67) scale(.1 -.1)">
<defs>
<path id="bq" d="m-0.29688 72.906h61.672v-8.3125h-25.875v-64.594h-9.9062v64.594h-25.891z"/>
</defs>
<use xlink:href="#bq"/>
<use x="61.083984" xlink:href="#az"/>
</g>
</g>
<g clip-path="url(#a)">
<g transform="translate(440.99 893.67) scale(.1 -.1)">
<defs>
<path id="bc" d="m55.906 54.688v-54.688h-8.9375v43.891l-26.359-43.891h-11.531v54.688h8.9375v-43.797l26.328 43.797z"/>
</defs>
<use xlink:href="#bc"/>
</g>
</g>
<g clip-path="url(#a)">
<g transform="translate(444.47 893.67) scale(.1 -.1)">
<defs>
<path id="ar" d="m50.25 7.1719h23.141v47.516h9.0312v-54.688h-73.344v54.688h9.0312v-47.516h23.109v47.516h9.0312z"/>
<path id="am" d="m43.453 16.219q0 4.3906-3.2031 6.6875-3.1875 2.2969-9.3438 2.2969h-12.797v-18.031h12.797q6.1562 0 9.3438 2.3125 3.2031 2.3281 3.2031 6.7344zm-34.375 38.469h9.0312v-22.312h13.188q10.453 0 16.094-3.9844 5.6406-3.9688 5.6406-12.172t-5.6406-12.219q-5.6406-4-16.094-4h-22.219z"/>
</defs>
<use xlink:href="#bb"/>
<use x="65.380859" xlink:href="#ab"/>
<use x="124.560547" xlink:href="#t"/>
<use x="182.8125" xlink:href="#m"/>
<use x="244.335938" xlink:href="#ar"/>
<use x="335.839844" xlink:href="#m"/>
<use x="397.363281" xlink:href="#an"/>
<use x="452.34375" xlink:href="#t"/>
<use x="510.595703" xlink:href="#ao"/>
<use x="569.53125" xlink:href="#ac"/>
<use x="630.712891" xlink:href="#ao"/>
<use x="689.648438" xlink:href="#s"/>
<use x="750.927734" xlink:href="#t"/>
<use x="809.179688" xlink:href="#am"/>
</g>
</g>
<g clip-path="url(#a)">
<g transform="translate(527.59 893.67) scale(.1 -.1)">
<use xlink:href="#ag"/>
<use x="65.380859" xlink:href="#m"/>
</g>
</g>
<g clip-path="url(#a)">
<g transform="translate(560.49 893.67) scale(.1 -.1)">
<use xlink:href="#ah"/>
<use x="75.439453" xlink:href="#ac"/>
<use x="136.621094" xlink:href="#au"/>
<use x="226.708984" xlink:href="#m"/>
<use x="288.232422" xlink:href="#ar"/>
<use x="379.736328" xlink:href="#am"/>
</g>
</g>
<g clip-path="url(#a)">
<g transform="translate(633.41 893.67) scale(.1 -.1)">
<use xlink:href="#d"/>
<use x="31.787109" xlink:href="#d"/>
<use x="63.574219" xlink:href="#d"/>
</g>
</g>
<g clip-path="url(#a)">
<g transform="translate(689.71 893.67) scale(.1 -.1)">
<defs>
<path id="ay" d="m4.8906 31.391h26.312v-8h-26.312z"/>
</defs>
<use xlink:href="#ay"/>
</g>
</g>
<g clip-path="url(#a)">
<g transform="translate(743.8 893.67) scale(.1 -.1)">
<defs>
<path id="bo" d="m20.062 51.906q0-6.3906 3.6406-9.6875t10.766-3.2969h15.344v25.875h-15.344q-7.125 0-10.766-3.25t-3.6406-9.6406zm-13.422-51.906 19.922 31.891q-4.875 1.2656-11.125 5.3906t-6.25 14.625q0 10.062 6.3438 15.531t18.938 5.4688h25.203v-72.906h-9.8594v30.812h-13.188l-19.234-30.812z"/>
</defs>
<use xlink:href="#bo"/>
</g>
</g>
<g clip-path="url(#a)">
<g transform="translate(793.04 893.67) scale(.1 -.1)">
<use xlink:href="#ah"/>
<use x="75.439453" xlink:href="#ac"/>
<use x="136.621094" xlink:href="#be"/>
<use x="189.160156" xlink:href="#ab"/>
</g>
</g>
<g clip-path="url(#a)">
<g transform="translate(847.84 893.67) scale(.1 -.1)">
<use xlink:href="#ab"/>
<use x="59.179688" xlink:href="#ag"/>
<use x="124.560547" xlink:href="#m"/>
<use x="186.083984" xlink:href="#an"/>
<use x="241.064453" xlink:href="#t"/>
<use x="299.316406" xlink:href="#bc"/>
</g>
</g>
<g clip-path="url(#a)">
<g transform="translate(917.01 893.67) scale(.1 -.1)">
<use xlink:href="#t"/>
<use x="58.251953" xlink:href="#m"/>
<use x="119.775391" xlink:href="#ap"/>
<use x="181.445312" xlink:href="#af"/>
</g>
</g>
<g clip-path="url(#a)">
<g transform="translate(974.23 893.67) scale(.1 -.1)">
<use xlink:href="#bd"/>
<use x="69.140625" xlink:href="#s"/>
<use x="130.419922" xlink:href="#ai"/>
<use x="194.335938" xlink:href="#am"/>
<use x="253.271484" xlink:href="#ar"/>
<use x="344.775391" xlink:href="#m"/>
</g>
</g>
<g clip-path="url(#a)">
<g transform="translate(1060.8 893.67) scale(.1 -.1)">
<use xlink:href="#aq"/>
</g>
</g>
<g clip-path="url(#a)">
<g transform="translate(1122.9 893.67) scale(.1 -.1)">
<defs>
<path id="bm" d="m41.016 0v23h-16.75q-7.4688 0-12.453 4.6406-4.4844 4.2031-4.4844 13.188v13.859h8.9844v-13.031q0-5.7188 2.5312-8.5938 2.5938-2.8906 7.6719-2.8906h14.5v24.516h8.9844v-54.688z"/>
</defs>
<use xlink:href="#bm"/>
<use x="59.082031" xlink:href="#m"/>
<use x="120.605469" xlink:href="#ah"/>
</g>
</g>
<g clip-path="url(#a)">
<g transform="translate(1188.7 893.67) scale(.1 -.1)">
<defs>
<path id="bk" d="m53.609 48.391q-7.2188 0-11.422-5.6406t-4.2031-15.453 4.1719-15.453q4.1875-5.6406 11.453-5.6406 7.1875 0 11.375 5.6562 4.2031 5.6719 4.2031 15.438 0 9.7188-4.2031 15.406-4.1875 5.6875-11.375 5.6875zm-24.797-15.531q0.92188 9.2812 7 16.203 6.0781 6.9375 17.797 6.9375t18.406-7.625q6.7031-7.6094 6.7031-21.078 0-13.422-6.7031-21.078-6.6875-7.6406-18.406-7.6406-11.766 0-18.188 7.375t-6.8594 19.484h-10.156v-25.438h-8.9844v54.688h8.9844v-21.828z"/>
<path id="bn" d="m55.906 54.688v-54.688h-8.9375v43.891l-26.359-43.891h-11.531v54.688h8.9375v-43.797l26.328 43.797zm-38.688 20.828h5.7656q0.53125-3.6562 2.8906-5.5 2.375-1.8281 6.625-1.8281 4.2031 0 6.5469 1.8125t2.9688 5.5156h5.7656q-0.48438-6.9844-4.3438-10.5t-10.938-3.5156-10.938 3.5156-4.3438 10.5z"/>
</defs>
<use xlink:href="#ai"/>
<use x="63.916016" xlink:href="#bk"/>
<use x="148.095703" xlink:href="#ap"/>
<use x="209.765625" xlink:href="#ac"/>
<use x="270.947266" xlink:href="#bn"/>
</g>
</g>
<g clip-path="url(#a)">
<g transform="translate(1259.1 893.75) scale(.1 -.1)">
<use xlink:href="#as"/>
<use x="60.400391" xlink:href="#ac"/>
<use x="121.582031" xlink:href="#ba"/>
<use x="185.058594" xlink:href="#s"/>
<use x="246.337891" xlink:href="#ap"/>
<use x="308.007812" xlink:href="#ai"/>
<use x="371.923828" xlink:href="#am"/>
</g>
</g>
<g clip-path="url(#a)">
<g transform="translate(1356.6 893.67) scale(.1 -.1)">
<use xlink:href="#aq"/>
</g>
</g>
<g clip-path="url(#a)">
<g transform="translate(1436.4 893.67) scale(.1 -.1)">
<use xlink:href="#ay"/>
</g>
</g>
<g clip-path="url(#a)">
<g transform="translate(1499.8 893.67) scale(.1 -.1)">
<use xlink:href="#an"/>
<use x="54.980469" xlink:href="#as"/>
<use x="115.380859" xlink:href="#s"/>
<use x="176.660156" xlink:href="#at"/>
<use x="229.833984" xlink:href="#s"/>
<use x="291.113281" xlink:href="#ai"/>
<use x="355.029297" xlink:href="#s"/>
</g>
</g>
<g clip-path="url(#a)">
<g transform="translate(1592.9 893.67) scale(.1 -.1)">
<use xlink:href="#at"/>
<use x="53.173828" xlink:href="#ah"/>
<use x="128.613281" xlink:href="#m"/>
<use x="190.136719" xlink:href="#af"/>
</g>
</g>
<g clip-path="url(#a)">
<g transform="translate(1691.1 893.67) scale(.1 -.1)">
<use xlink:href="#d"/>
</g>
</g>
<g clip-path="url(#a)">
<g transform="translate(566.19 330.3) scale(.1 -.1)">
<defs>
<path id="y" d="m9.8125 72.906h9.8594v-72.906h-9.8594z"/>
<path id="aw" d="m9.8125 72.906h14.703l18.594-49.609 18.703 49.609h14.703v-72.906h-9.625v64.016l-18.797-50h-9.9062l-18.797 50v-64.016h-9.5781z"/>
</defs>
<use xlink:href="#y"/>
<use x="29.492188" xlink:href="#aw"/>
<use x="115.771484" xlink:href="#w"/>
<use x="176.074219" xlink:href="#aj"/>
<use x="231.787109" xlink:href="#y"/>
<use x="261.279297" xlink:href="#ak"/>
<use x="331.103516" xlink:href="#y"/>
<use x="360.595703" xlink:href="#e"/>
</g>
</g>
<g clip-path="url(#a)">
<g transform="translate(566.19 330.3) scale(.1 -.1)">
<use xlink:href="#y"/>
<use x="29.492188" xlink:href="#aw"/>
<use x="115.771484" xlink:href="#w"/>
<use x="176.074219" xlink:href="#aj"/>
<use x="231.787109" xlink:href="#y"/>
<use x="261.279297" xlink:href="#ak"/>
<use x="331.103516" xlink:href="#y"/>
<use x="360.595703" xlink:href="#e"/>
</g>
</g>
<g clip-path="url(#a)">
<g transform="translate(737.3 45.184) scale(.1 -.1)">
<defs>
<path id="c" d="m12.406 8.2969h16.109v55.625l-17.531-3.5156v8.9844l17.438 3.5156h9.8594v-64.609h16.109v-8.2969h-41.984z"/>
</defs>
<use xlink:href="#c"/>
<use x="63.623047" xlink:href="#d"/>
<use x="95.410156" xlink:href="#c"/>
</g>
</g>
<g clip-path="url(#a)">
<g transform="translate(206.18 187.89) scale(.1 -.1)">
<defs>
<path id="o" d="m19.188 8.2969h34.422v-8.2969h-46.281v8.2969q5.6094 5.8125 15.297 15.594 9.7031 9.7969 12.188 12.641 4.7344 5.3125 6.6094 9 1.8906 3.6875 1.8906 7.25 0 5.8125-4.0781 9.4688-4.0781 3.6719-10.625 3.6719-4.6406 0-9.7969-1.6094-5.1406-1.6094-11-4.8906v9.9688q5.9531 2.3906 11.125 3.6094 5.1875 1.2188 9.4844 1.2188 11.328 0 18.062-5.6719 6.7344-5.6562 6.7344-15.125 0-4.5-1.6875-8.5312-1.6719-4.0156-6.125-9.4844-1.2188-1.4219-7.7656-8.1875-6.5312-6.7656-18.453-18.922z"/>
</defs>
<use xlink:href="#c"/>
<use x="63.623047" xlink:href="#d"/>
<use x="95.410156" xlink:href="#o"/>
</g>
</g>
<g clip-path="url(#a)">
<g transform="translate(1429.2 187.89) scale(.1 -.1)">
<defs>
<path id="r" d="m40.578 39.312q7.0781-1.5156 11.047-6.3125 3.9844-4.7812 3.9844-11.812 0-10.781-7.4219-16.703-7.4219-5.9062-21.094-5.9062-4.5781 0-9.4375 0.90625t-10.031 2.7188v9.5156q4.0938-2.3906 8.9688-3.6094 4.8906-1.2188 10.219-1.2188 9.2656 0 14.125 3.6562t4.8594 10.641q0 6.4531-4.5156 10.078-4.5156 3.6406-12.562 3.6406h-8.5v8.1094h8.8906q7.2656 0 11.125 2.9062t3.8594 8.375q0 5.6094-3.9844 8.6094-3.9688 3.0156-11.391 3.0156-4.0625 0-8.7031-0.89062-4.6406-0.875-10.203-2.7188v8.7812q5.625 1.5625 10.531 2.3438t9.25 0.78125q11.234 0 17.766-5.1094 6.5469-5.0938 6.5469-13.781 0-6.0625-3.4688-10.234t-9.8594-5.7812z"/>
</defs>
<use xlink:href="#c"/>
<use x="63.623047" xlink:href="#d"/>
<use x="95.410156" xlink:href="#r"/>
</g>
</g>
<g clip-path="url(#a)">
<g transform="translate(999.87 330.3) scale(.1 -.1)">
<defs>
<path id="aa" d="m8.2031 72.906h46.875v-4.2031l-26.469-68.703h-10.297l24.906 64.594h-35.016z"/>
</defs>
<use xlink:href="#c"/>
<use x="63.623047" xlink:href="#d"/>
<use x="95.410156" xlink:href="#aa"/>
</g>
</g>
<g clip-path="url(#a)">
<g transform="translate(1512.7 754.77) scale(.1 -.1)">
<defs>
<path id="z" d="m31.781 34.625q-7.0312 0-11.062-3.7656-4.0156-3.7656-4.0156-10.344 0-6.5938 4.0156-10.359 4.0312-3.7656 11.062-3.7656t11.078 3.7812q4.0625 3.7969 4.0625 10.344 0 6.5781-4.0312 10.344-4.0156 3.7656-11.109 3.7656zm-9.8594 4.1875q-6.3438 1.5625-9.8906 5.9062-3.5312 4.3594-3.5312 10.609 0 8.7344 6.2188 13.812 6.2344 5.0781 17.062 5.0781 10.891 0 17.094-5.0781t6.2031-13.812q0-6.25-3.5469-10.609-3.5312-4.3438-9.8281-5.9062 7.125-1.6562 11.094-6.5 3.9844-4.8281 3.9844-11.797 0-10.609-6.4688-16.281-6.4688-5.6562-18.531-5.6562-12.047 0-18.531 5.6562-6.4688 5.6719-6.4688 16.281 0 6.9688 4 11.797 4.0156 4.8438 11.141 6.5zm-3.6094 15.578q0-5.6562 3.5312-8.8281 3.5469-3.1719 9.9375-3.1719 6.3594 0 9.9375 3.1719 3.5938 3.1719 3.5938 8.8281 0 5.6719-3.5938 8.8438-3.5781 3.1719-9.9375 3.1719-6.3906 0-9.9375-3.1719-3.5312-3.1719-3.5312-8.8438z"/>
</defs>
<use xlink:href="#c"/>
<use x="63.623047" xlink:href="#d"/>
<use x="95.410156" xlink:href="#z"/>
</g>
</g>
<g clip-path="url(#a)">
<g transform="translate(1597.5 754.77) scale(.1 -.1)">
<defs>
<path id="ad" d="m10.984 1.5156v8.9844q3.7188-1.7656 7.5156-2.6875 3.8125-0.92188 7.4844-0.92188 9.7656 0 14.906 6.5625 5.1562 6.5625 5.8906 19.953-2.8281-4.2031-7.1875-6.4531-4.3438-2.25-9.6094-2.25-10.938 0-17.312 6.6094-6.375 6.625-6.375 18.109 0 11.219 6.6406 18 6.6406 6.7969 17.672 6.7969 12.656 0 19.312-9.7031 6.6719-9.6875 6.6719-28.141 0-17.234-8.1875-27.516-8.1719-10.281-21.984-10.281-3.7188 0-7.5312 0.73438-3.7969 0.73438-7.9062 2.2031zm19.625 30.906q6.6406 0 10.516 4.5312 3.8906 4.5469 3.8906 12.469 0 7.8594-3.8906 12.422-3.875 4.5625-10.516 4.5625t-10.516-4.5625-3.875-12.422q0-7.9219 3.875-12.469 3.875-4.5312 10.516-4.5312z"/>
</defs>
<use xlink:href="#c"/>
<use x="63.623047" xlink:href="#d"/>
<use x="95.410156" xlink:href="#ad"/>
</g>
</g>
<g clip-path="url(#a)">
<g transform="translate(857.35 613.93) scale(.1 -.1)">
<use xlink:href="#c"/>
<use x="63.623047" xlink:href="#d"/>
<use x="95.410156" xlink:href="#c"/>
<use x="159.033203" xlink:href="#o"/>
</g>
</g>
<g clip-path="url(#a)">
<g transform="translate(1121.6 754.77) scale(.1 -.1)">
<use xlink:href="#c"/>
<use x="63.623047" xlink:href="#d"/>
<use x="95.410156" xlink:href="#c"/>
<use x="159.033203" xlink:href="#r"/>
</g>
</g>
<g clip-path="url(#a)">
<g transform="translate(956.5 472.36) scale(.1 -.1)">
<defs>
<path id="n" d="m37.797 64.312-24.906-38.922h24.906zm-2.5938 8.5938h12.406v-47.516h10.406v-8.2031h-10.406v-17.188h-9.8125v17.188h-32.906v9.5156z"/>
</defs>
<use xlink:href="#c"/>
<use x="63.623047" xlink:href="#d"/>
<use x="95.410156" xlink:href="#c"/>
<use x="159.033203" xlink:href="#n"/>
</g>
</g>
<g clip-path="url(#a)">
<g transform="translate(1231.9 613.93) scale(.1 -.1)">
<defs>
<path id="ae" d="m33.016 40.375q-6.6406 0-10.531-4.5469-3.875-4.5312-3.875-12.438 0-7.8594 3.875-12.438 3.8906-4.5625 10.531-4.5625t10.516 4.5625q3.875 4.5781 3.875 12.438 0 7.9062-3.875 12.438-3.875 4.5469-10.516 4.5469zm19.578 30.922v-8.9844q-3.7188 1.75-7.5 2.6719-3.7812 0.9375-7.5 0.9375-9.7656 0-14.922-6.5938-5.1406-6.5938-5.875-19.922 2.875 4.25 7.2188 6.5156 4.3594 2.2656 9.5781 2.2656 10.984 0 17.359-6.6719 6.375-6.6562 6.375-18.125 0-11.234-6.6406-18.031-6.6406-6.7812-17.672-6.7812-12.656 0-19.344 9.6875-6.6875 9.7031-6.6875 28.109 0 17.281 8.2031 27.562t22.016 10.281q3.7188 0 7.5-0.73438t7.8906-2.1875z"/>
</defs>
<use xlink:href="#c"/>
<use x="63.623047" xlink:href="#d"/>
<use x="95.410156" xlink:href="#c"/>
<use x="159.033203" xlink:href="#ae"/>
</g>
</g>
<g clip-path="url(#a)">
<g transform="translate(1194.3 754.77) scale(.1 -.1)">
<use xlink:href="#c"/>
<use x="63.623047" xlink:href="#d"/>
<use x="95.410156" xlink:href="#c"/>
<use x="159.033203" xlink:href="#aa"/>
</g>
</g>
<g clip-path="url(#a)">
<g transform="translate(1269.5 754.77) scale(.1 -.1)">
<use xlink:href="#c"/>
<use x="63.623047" xlink:href="#d"/>
<use x="95.410156" xlink:href="#c"/>
<use x="159.033203" xlink:href="#z"/>
</g>
</g>
<g clip-path="url(#a)">
<g transform="translate(736.14 754.77) scale(.1 -.1)">
<use xlink:href="#c"/>
<use x="63.623047" xlink:href="#d"/>
<use x="95.410156" xlink:href="#c"/>
<use x="159.033203" xlink:href="#ad"/>
</g>
</g>
<g clip-path="url(#a)">
<g transform="translate(794.32 754.77) scale(.1 -.1)">
<defs>
<path id="al" d="m31.781 66.406q-7.6094 0-11.453-7.5-3.8281-7.4844-3.8281-22.531 0-14.984 3.8281-22.484 3.8438-7.5 11.453-7.5 7.6719 0 11.5 7.5 3.8438 7.5 3.8438 22.484 0 15.047-3.8438 22.531-3.8281 7.5-11.5 7.5zm0 7.8125q12.266 0 18.734-9.7031 6.4688-9.6875 6.4688-28.141 0-18.406-6.4688-28.109-6.4688-9.6875-18.734-9.6875-12.25 0-18.719 9.6875-6.4688 9.7031-6.4688 28.109 0 18.453 6.4688 28.141 6.4688 9.7031 18.719 9.7031z"/>
</defs>
<use xlink:href="#c"/>
<use x="63.623047" xlink:href="#d"/>
<use x="95.410156" xlink:href="#o"/>
<use x="159.033203" xlink:href="#al"/>
</g>
</g>
<g clip-path="url(#a)">
<g transform="translate(854.93 754.77) scale(.1 -.1)">
<use xlink:href="#c"/>
<use x="63.623047" xlink:href="#d"/>
<use x="95.410156" xlink:href="#o"/>
<use x="159.033203" xlink:href="#c"/>
</g>
</g>
<g clip-path="url(#a)">
<g transform="translate(917.96 754.77) scale(.1 -.1)">
<use xlink:href="#c"/>
<use x="63.623047" xlink:href="#d"/>
<use x="95.410156" xlink:href="#o"/>
<use x="159.033203" xlink:href="#o"/>
</g>
</g>
<g clip-path="url(#a)">
<g transform="translate(983.41 754.77) scale(.1 -.1)">
<use xlink:href="#c"/>
<use x="63.623047" xlink:href="#d"/>
<use x="95.410156" xlink:href="#o"/>
<use x="159.033203" xlink:href="#r"/>
</g>
</g>
<g clip-path="url(#a)">
<g transform="translate(203 330.3) scale(.1 -.1)">
<use xlink:href="#c"/>
<use x="63.623047" xlink:href="#d"/>
<use x="95.410156" xlink:href="#o"/>
<use x="159.033203" xlink:href="#ae"/>
</g>
</g>
<g clip-path="url(#a)">
<g transform="translate(69.473 754.77) scale(.1 -.1)">
<use xlink:href="#c"/>
<use x="63.623047" xlink:href="#d"/>
<use x="95.410156" xlink:href="#o"/>
<use x="159.033203" xlink:href="#aa"/>
</g>
</g>
<g clip-path="url(#a)">
<g transform="translate(86.443 754.77) scale(.1 -.1)">
<use xlink:href="#c"/>
<use x="63.623047" xlink:href="#d"/>
<use x="95.410156" xlink:href="#o"/>
<use x="159.033203" xlink:href="#z"/>
</g>
</g>
<g clip-path="url(#a)">
<g transform="translate(122.81 613.93) scale(.1 -.1)">
<use xlink:href="#c"/>
<use x="63.623047" xlink:href="#d"/>
<use x="95.410156" xlink:href="#o"/>
<use x="159.033203" xlink:href="#ad"/>
</g>
</g>
<g clip-path="url(#a)">
<g transform="translate(264.93 472.36) scale(.1 -.1)">
<use xlink:href="#c"/>
<use x="63.623047" xlink:href="#d"/>
<use x="95.410156" xlink:href="#r"/>
<use x="159.033203" xlink:href="#al"/>
</g>
</g>
<g clip-path="url(#a)">
<g transform="translate(479.17 613.93) scale(.1 -.1)">
<use xlink:href="#c"/>
<use x="63.623047" xlink:href="#d"/>
<use x="95.410156" xlink:href="#r"/>
<use x="159.033203" xlink:href="#c"/>
</g>
</g>
<g clip-path="url(#a)">
<g transform="translate(391.9 754.77) scale(.1 -.1)">
<defs>
<path id="q" d="m10.797 72.906h38.719v-8.3125h-29.688v-17.859q2.1406 0.73438 4.2812 1.0938 2.1562 0.35938 4.3125 0.35938 12.203 0 19.328-6.6875 7.1406-6.6875 7.1406-18.109 0-11.766-7.3281-18.297-7.3281-6.5156-20.656-6.5156-4.5938 0-9.3594 0.78125-4.75 0.78125-9.8281 2.3438v9.9219q4.3906-2.3906 9.0781-3.5625t9.9062-1.1719q8.4531 0 13.375 4.4375 4.9375 4.4375 4.9375 12.062 0 7.6094-4.9375 12.047-4.9219 4.4531-13.375 4.4531-3.9531 0-7.8906-0.875-3.9219-0.875-8.0156-2.7344z"/>
</defs>
<use xlink:href="#c"/>
<use x="63.623047" xlink:href="#d"/>
<use x="95.410156" xlink:href="#r"/>
<use x="159.033203" xlink:href="#q"/>
</g>
</g>
<g clip-path="url(#a)">
<g transform="translate(433.11 754.77) scale(.1 -.1)">
<use xlink:href="#c"/>
<use x="63.623047" xlink:href="#d"/>
<use x="95.410156" xlink:href="#r"/>
<use x="159.033203" xlink:href="#ae"/>
</g>
</g>
<g clip-path="url(#a)">
<g transform="translate(476.75 754.77) scale(.1 -.1)">
<use xlink:href="#c"/>
<use x="63.623047" xlink:href="#d"/>
<use x="95.410156" xlink:href="#r"/>
<use x="159.033203" xlink:href="#aa"/>
</g>
</g>
<g clip-path="url(#a)">
<g transform="translate(522.81 754.77) scale(.1 -.1)">
<use xlink:href="#c"/>
<use x="63.623047" xlink:href="#d"/>
<use x="95.410156" xlink:href="#r"/>
<use x="159.033203" xlink:href="#z"/>
</g>
</g>
<g clip-path="url(#a)">
<g transform="translate(571.29 754.77) scale(.1 -.1)">
<use xlink:href="#c"/>
<use x="63.623047" xlink:href="#d"/>
<use x="95.410156" xlink:href="#r"/>
<use x="159.033203" xlink:href="#ad"/>
</g>
</g>
<g clip-path="url(#a)">
<g transform="translate(208.87 613.93) scale(.1 -.1)">
<use xlink:href="#c"/>
<use x="63.623047" xlink:href="#d"/>
<use x="95.410156" xlink:href="#n"/>
<use x="159.033203" xlink:href="#al"/>
</g>
</g>
<g clip-path="url(#a)">
<g transform="translate(251.29 754.77) scale(.1 -.1)">
<use xlink:href="#c"/>
<use x="63.623047" xlink:href="#d"/>
<use x="95.410156" xlink:href="#n"/>
<use x="159.033203" xlink:href="#c"/>
</g>
</g>
<g clip-path="url(#a)">
<g transform="translate(282.81 754.77) scale(.1 -.1)">
<use xlink:href="#c"/>
<use x="63.623047" xlink:href="#d"/>
<use x="95.410156" xlink:href="#n"/>
<use x="159.033203" xlink:href="#o"/>
</g>
</g>
<g clip-path="url(#a)">
<g transform="translate(316.75 754.77) scale(.1 -.1)">
<use xlink:href="#c"/>
<use x="63.623047" xlink:href="#d"/>
<use x="95.410156" xlink:href="#n"/>
<use x="159.033203" xlink:href="#r"/>
</g>
</g>
<g clip-path="url(#a)">
<g transform="translate(195.53 754.77) scale(.1 -.1)">
<use xlink:href="#c"/>
<use x="63.623047" xlink:href="#d"/>
<use x="95.410156" xlink:href="#n"/>
<use x="159.033203" xlink:href="#n"/>
</g>
</g>
<g clip-path="url(#a)">
<g transform="translate(222.2 754.77) scale(.1 -.1)">
<use xlink:href="#c"/>
<use x="63.623047" xlink:href="#d"/>
<use x="95.410156" xlink:href="#n"/>
<use x="159.033203" xlink:href="#q"/>
</g>
</g>
<g clip-path="url(#a)">
<g transform="translate(98.564 754.77) scale(.1 -.1)">
<use xlink:href="#c"/>
<use x="63.623047" xlink:href="#d"/>
<use x="95.410156" xlink:href="#n"/>
<use x="159.033203" xlink:href="#ae"/>
</g>
</g>
<g clip-path="url(#a)">
<g transform="translate(113.11 754.77) scale(.1 -.1)">
<use xlink:href="#c"/>
<use x="63.623047" xlink:href="#d"/>
<use x="95.410156" xlink:href="#n"/>
<use x="159.033203" xlink:href="#aa"/>
</g>
</g>
<g clip-path="url(#a)">
<g transform="translate(130.08 754.77) scale(.1 -.1)">
<use xlink:href="#c"/>
<use x="63.623047" xlink:href="#d"/>
<use x="95.410156" xlink:href="#n"/>
<use x="159.033203" xlink:href="#z"/>
</g>
</g>
<g clip-path="url(#a)">
<g transform="translate(149.47 754.77) scale(.1 -.1)">
<use xlink:href="#c"/>
<use x="63.623047" xlink:href="#d"/>
<use x="95.410156" xlink:href="#n"/>
<use x="159.033203" xlink:href="#ad"/>
</g>
</g>
<g clip-path="url(#a)">
<g transform="translate(76.746 754.77) scale(.1 -.1)">
<use xlink:href="#c"/>
<use x="63.623047" xlink:href="#d"/>
<use x="95.410156" xlink:href="#q"/>
<use x="159.033203" xlink:href="#al"/>
</g>
</g>
<g clip-path="url(#a)">
<g transform="translate(171.29 754.77) scale(.1 -.1)">
<use xlink:href="#c"/>
<use x="63.623047" xlink:href="#d"/>
<use x="95.410156" xlink:href="#q"/>
<use x="159.033203" xlink:href="#c"/>
</g>
</g>
<g clip-path="url(#a)">
<g transform="translate(353.11 754.77) scale(.1 -.1)">
<use xlink:href="#c"/>
<use x="63.623047" xlink:href="#d"/>
<use x="95.410156" xlink:href="#q"/>
<use x="159.033203" xlink:href="#o"/>
</g>
</g>
<g clip-path="url(#a)">
<g transform="translate(627.05 754.77) scale(.1 -.1)">
<use xlink:href="#c"/>
<use x="63.623047" xlink:href="#d"/>
<use x="95.410156" xlink:href="#q"/>
<use x="159.033203" xlink:href="#r"/>
</g>
</g>
<g clip-path="url(#a)">
<g transform="translate(680.38 754.77) scale(.1 -.1)">
<use xlink:href="#c"/>
<use x="63.623047" xlink:href="#d"/>
<use x="95.410156" xlink:href="#q"/>
<use x="159.033203" xlink:href="#n"/>
</g>
</g>
<g clip-path="url(#a)">
<g transform="translate(1051.3 754.77) scale(.1 -.1)">
<use xlink:href="#c"/>
<use x="63.623047" xlink:href="#d"/>
<use x="95.410156" xlink:href="#q"/>
<use x="159.033203" xlink:href="#q"/>
</g>
</g>
<g clip-path="url(#a)">
<g transform="translate(1347 754.77) scale(.1 -.1)">
<use xlink:href="#c"/>
<use x="63.623047" xlink:href="#d"/>
<use x="95.410156" xlink:href="#q"/>
<use x="159.033203" xlink:href="#ae"/>
</g>
</g>
<g clip-path="url(#a)">
<g transform="translate(1427 754.77) scale(.1 -.1)">
<use xlink:href="#c"/>
<use x="63.623047" xlink:href="#d"/>
<use x="95.410156" xlink:href="#q"/>
<use x="159.033203" xlink:href="#aa"/>
</g>
</g>
<g clip-path="url(#a)">
<g transform="translate(1681.6 754.77) scale(.1 -.1)">
<use xlink:href="#c"/>
<use x="63.623047" xlink:href="#d"/>
<use x="95.410156" xlink:href="#q"/>
<use x="159.033203" xlink:href="#z"/>
</g>
</g>
<defs>
<clipPath id="a">
<rect width="1773.3" height="933.33"/>
</clipPath>
</defs>
</svg>
