<?xml version="1.0" encoding="UTF-8"?>
<!DOCTYPE svg  PUBLIC '-//W3C//DTD SVG 1.1//EN'  'http://www.w3.org/Graphics/SVG/1.1/DTD/svg11.dtd'>
<svg width="861.33pt" height="453.33pt" version="1.1" viewBox="0 0 861.33 453.33" xmlns="http://www.w3.org/2000/svg" xmlns:xlink="http://www.w3.org/1999/xlink">
<metadata>
<rdf:RDF xmlns:cc="http://creativecommons.org/ns#" xmlns:dc="http://purl.org/dc/elements/1.1/" xmlns:rdf="http://www.w3.org/1999/02/22-rdf-syntax-ns#">
<cc:Work>
<dc:type rdf:resource="http://purl.org/dc/dcmitype/StillImage"/>
<dc:date>2021-01-21T01:19:07.731558</dc:date>
<dc:format>image/svg+xml</dc:format>
<dc:creator>
<cc:Agent>
<dc:title>Matplotlib v3.3.3, https://matplotlib.org/</dc:title>
</cc:Agent>
</dc:creator>
</cc:Work>
</rdf:RDF>
</metadata>
<defs>
<style type="text/css">*{stroke-linecap:butt;stroke-linejoin:round;}</style>
</defs>
<path d="m0 453.33h861.33v-453.33h-861.33z" fill="#fff"/>
<g fill="none" stroke="#000">
<path d="m136.56 20.606v69.312" clip-path="url(#a)"/>
<path d="m136.56 89.919-81.869 206.94" clip-path="url(#a)"/>
<path d="m136.56 89.919-41.474 275.34" clip-path="url(#a)"/>
<path d="m136.56 89.919-13.509 275.34" clip-path="url(#a)"/>
<path d="m136.56 89.919 136.85 69.173" clip-path="url(#a)"/>
<path d="m54.688 296.85-15.536 68.406" clip-path="url(#a)"/>
<path d="m54.688 296.85-1.5536 68.406" clip-path="url(#a)"/>
<path d="m54.688 296.85 17.09 68.406" clip-path="url(#a)"/>
<path d="m95.082 365.26v67.467" clip-path="url(#a)"/>
<path d="m123.05 365.26v67.467" clip-path="url(#a)"/>
<path d="m273.41 159.09-117.73 206.17" clip-path="url(#a)"/>
<path d="m273.41 159.09-80.447 206.17" clip-path="url(#a)"/>
<path d="m273.41 159.09-38.499 206.17" clip-path="url(#a)"/>
<path d="m273.41 159.09 228.57 68.998" clip-path="url(#a)"/>
<path d="m273.41 159.09 8.11 206.17" clip-path="url(#a)"/>
<path d="m155.67 365.26v67.467" clip-path="url(#a)"/>
<path d="m192.96 365.26v67.467" clip-path="url(#a)"/>
<path d="m234.91 365.26v67.467" clip-path="url(#a)"/>
<path d="m501.98 228.09-78.303 68.764" clip-path="url(#a)"/>
<path d="m501.98 228.09-20.042 68.764" clip-path="url(#a)"/>
<path d="m501.98 228.09 12.584 137.17" clip-path="url(#a)"/>
<path d="m501.98 228.09 199.02 68.764" clip-path="url(#a)"/>
<path d="m501.98 228.09-113.26 137.17" clip-path="url(#a)"/>
<path d="m423.68 296.85 90.887 68.406" clip-path="url(#a)" stroke-dasharray="3.7,1.6"/>
<path d="m423.68 296.85-90.887 68.406" clip-path="url(#a)"/>
<path d="m481.94 296.85 32.626 68.406" clip-path="url(#a)" stroke-dasharray="3.7,1.6"/>
<path d="m481.94 296.85-32.626 68.406" clip-path="url(#a)"/>
<path d="m514.56 365.26v67.467" clip-path="url(#a)"/>
<path d="m701 296.85-116.52 68.406" clip-path="url(#a)"/>
<path d="m701 296.85-41.948 68.406" clip-path="url(#a)"/>
<path d="m701 296.85 37.287 68.406" clip-path="url(#a)"/>
<path d="m701 296.85 121.18 68.406" clip-path="url(#a)"/>
<path d="m584.48 365.26v67.467" clip-path="url(#a)"/>
<path d="m659.05 365.26v67.467" clip-path="url(#a)"/>
<path d="m738.29 365.26v67.467" clip-path="url(#a)"/>
<path d="m449.31 365.26v67.467" clip-path="url(#a)"/>
<path d="m332.79 365.26v67.467" clip-path="url(#a)"/>
<path d="m39.152 365.26v67.467" clip-path="url(#a)"/>
<path d="m53.134 365.26v67.467" clip-path="url(#a)"/>
<path d="m71.778 365.26v67.467" clip-path="url(#a)"/>
<path d="m281.52 365.26v67.467" clip-path="url(#a)"/>
<path d="m388.72 365.26v67.467" clip-path="url(#a)"/>
<path d="m822.18 365.26v67.467" clip-path="url(#a)"/>
</g>
<path d="m130.29 52.254v6.0162q0 2.4 2.4 2.4h7.7425q2.4 0 2.4-2.4v-6.0162q0-2.4-2.4-2.4h-7.7425q-2.4 0-2.4 2.4z" clip-path="url(#a)" fill="#fff" stroke="#fff"/>
<g clip-path="url(#a)">
<g transform="translate(134.35 52.254) rotate(90) scale(.08 -.08)">
<defs>
<path id="at" d="m9.8125 72.906h9.8594v-29.891h35.844v29.891h9.8594v-72.906h-9.8594v34.719h-35.844v-34.719h-9.8594z"/>
</defs>
<use xlink:href="#at"/>
</g>
</g>
<path d="m100.55 197.97 1.7976-4.5436q0.88291-2.2317-1.3488-3.1146l-7.1995-2.8483q-2.2317-0.88291-3.1146 1.3488l-1.7976 4.5436q-0.88291 2.2317 1.3488 3.1146l7.1995 2.8483q2.2317 0.88291 3.1146-1.3488z" clip-path="url(#a)" fill="#fff" stroke="#fff"/>
<g clip-path="url(#a)">
<g transform="translate(96.776 196.47) rotate(-68.415) scale(.08 -.08)">
<defs>
<path id="e" d="m-0.29688 72.906h61.672v-8.3125h-25.875v-64.594h-9.9062v64.594h-25.891z"/>
</defs>
<use xlink:href="#e"/>
</g>
</g>
<path d="m121.61 231.23 0.81512-5.4115q0.35748-2.3732-2.0158-2.7307l-7.6561-1.1532q-2.3732-0.35748-2.7307 2.0158l-0.81512 5.4115q-0.35748 2.3732 2.0158 2.7307l7.6561 1.1532q2.3732 0.35748 2.7307-2.0158z" clip-path="url(#a)" fill="#fff" stroke="#fff"/>
<g clip-path="url(#a)">
<g transform="translate(117.59 230.62) rotate(-81.434) scale(.08 -.08)">
<defs>
<path id="u" d="m34.188 63.188-13.391-36.281h26.812zm-5.5781 9.7188h11.188l27.781-72.906h-10.25l-6.6406 18.703h-32.859l-6.6406-18.703h-10.406z"/>
</defs>
<use xlink:href="#u"/>
</g>
</g>
<path d="m135.95 230.31 0.23638-4.818q0.11761-2.3971-2.2795-2.5147l-7.7332-0.37941q-2.3971-0.11761-2.5147 2.2795l-0.23638 4.818q-0.11761 2.3971 2.2795 2.5147l7.7332 0.37941q2.3971 0.11761 2.5147-2.2795z" clip-path="url(#a)" fill="#fff" stroke="#fff"/>
<g clip-path="url(#a)">
<g transform="translate(131.89 230.11) rotate(-87.191) scale(.08 -.08)">
<defs>
<path id="as" d="m19.672 64.797v-27.391h12.406q6.8906 0 10.641 3.5625 3.7656 3.5625 3.7656 10.156 0 6.5469-3.7656 10.109-3.75 3.5625-10.641 3.5625zm-9.8594 8.1094h22.266q12.266 0 18.531-5.5469 6.2812-5.5469 6.2812-16.234 0-10.797-6.2812-16.312-6.2656-5.5156-18.531-5.5156h-12.406v-29.297h-9.8594z"/>
</defs>
<use xlink:href="#as"/>
</g>
</g>
<path d="m199.71 128.87 4.884 2.4687q2.1419 1.0827 3.2246-1.0593l3.4927-6.9099q1.0827-2.1419-1.0593-3.2246l-4.884-2.4687q-2.1419-1.0827-3.2246 1.0593l-3.4927 6.9099q-1.0827 2.1419 1.0593 3.2246z" clip-path="url(#a)" fill="#fff" stroke="#fff"/>
<g clip-path="url(#a)">
<g transform="translate(201.54 125.24) rotate(26.815) scale(.08 -.08)">
<use xlink:href="#u"/>
</g>
</g>
<path d="m52.42 335.16 1.2312-5.4207q0.53155-2.3404-1.8088-2.8719l-7.5502-1.7148q-2.3404-0.53155-2.8719 1.8088l-1.2312 5.4207q-0.53155 2.3404 1.8088 2.8719l7.5502 1.7148q2.3404 0.53155 2.8719-1.8088z" clip-path="url(#a)" fill="#fff" stroke="#fff"/>
<g clip-path="url(#a)">
<g transform="translate(48.457 334.26) rotate(-77.204) scale(.08 -.08)">
<defs>
<path id="ak" d="m44.391 34.188q3.1719-1.0781 6.1719-4.5938t6.0312-9.6719l10.016-19.922h-10.609l-9.3125 18.703q-3.625 7.3281-7.0156 9.7188t-9.25 2.3906h-10.75v-30.812h-9.8594v72.906h22.266q12.5 0 18.656-5.2344 6.1562-5.2188 6.1562-15.766 0-6.8906-3.2031-11.438-3.2031-4.5312-9.2969-6.2812zm-24.719 30.609v-25.875h12.406q7.125 0 10.766 3.2969t3.6406 9.6875-3.6406 9.6406-10.766 3.25z"/>
</defs>
<use xlink:href="#ak"/>
</g>
</g>
<path d="m60.109 334.35 0.14299-6.2959q0.054495-2.3994-2.3449-2.4539l-7.7405-0.1758q-2.3994-0.054495-2.4539 2.3449l-0.14299 6.2959q-0.054495 2.3994 2.3449 2.4539l7.7405 0.1758q2.3994 0.054494 2.4539-2.3449z" clip-path="url(#a)" fill="#fff" stroke="#fff"/>
<g clip-path="url(#a)">
<g transform="translate(56.046 334.26) rotate(-88.699) scale(.08 -.08)">
<defs>
<path id="z" d="m39.406 66.219q-10.75 0-17.078-8.0156-6.3125-8-6.3125-21.828 0-13.766 6.3125-21.781 6.3281-8 17.078-8 10.734 0 17.016 8 6.2812 8.0156 6.2812 21.781 0 13.828-6.2812 21.828-6.2812 8.0156-17.016 8.0156zm13.812-64.906 13-14.203h-11.922l-10.797 11.672q-1.6094-0.09375-2.4688-0.14062-0.84375-0.0625-1.625-0.0625-15.375 0-24.594 10.281-9.2031 10.281-9.2031 27.516 0 17.281 9.2031 27.562 9.2188 10.281 24.594 10.281 15.328 0 24.5-10.281 9.1875-10.281 9.1875-27.562 0-12.688-5.1094-21.734-5.0938-9.0312-14.766-13.328z"/>
</defs>
<use xlink:href="#z"/>
</g>
</g>
<path d="m56.472 329.87 1.354 5.4197q0.58172 2.3284 2.9102 1.7467l7.5116-1.8766q2.3284-0.58172 1.7467-2.9102l-1.354-5.4197q-0.58172-2.3284-2.9102-1.7467l-7.5116 1.8766q-2.3284 0.58172-1.7467 2.9102z" clip-path="url(#a)" fill="#fff" stroke="#fff"/>
<g clip-path="url(#a)">
<g transform="translate(60.414 328.88) rotate(75.973) scale(.08 -.08)">
<defs>
<path id="t" d="m64.406 67.281v-10.391q-4.9844 4.6406-10.625 6.9219-5.6406 2.2969-11.984 2.2969-12.5 0-19.141-7.6406t-6.6406-22.094q0-14.406 6.6406-22.047t19.141-7.6406q6.3438 0 11.984 2.2969t10.625 6.9375v-10.312q-5.1719-3.5156-10.969-5.2812-5.7812-1.75-12.219-1.75-16.562 0-26.094 10.125-9.5156 10.141-9.5156 27.672 0 17.578 9.5156 27.703 9.5312 10.141 26.094 10.141 6.5312 0 12.312-1.7344 5.7969-1.7344 10.875-5.2031z"/>
</defs>
<use xlink:href="#t"/>
</g>
</g>
<path d="m88.811 382.09v33.808q0 2.4 2.4 2.4h7.7425q2.4 0 2.4-2.4v-33.808q0-2.4-2.4-2.4h-7.7425q-2.4 0-2.4 2.4z" clip-path="url(#a)" fill="#fff" stroke="#fff"/>
<g clip-path="url(#a)">
<g transform="translate(92.875 382.09) rotate(90) scale(.08 -.08)">
<defs>
<path id="l" d="m56.203 29.594v-4.3906h-41.312q0.59375-9.2812 5.5938-14.141t13.938-4.8594q5.1719 0 10.031 1.2656t9.6562 3.8125v-8.5q-4.8438-2.0469-9.9219-3.125t-10.297-1.0781q-13.094 0-20.734 7.6094-7.6406 7.625-7.6406 20.625 0 13.422 7.25 21.297 7.25 7.8906 19.562 7.8906 11.031 0 17.453-7.1094 6.4219-7.0938 6.4219-19.297zm-8.9844 2.6406q-0.09375 7.3594-4.125 11.75-4.0312 4.4062-10.672 4.4062-7.5156 0-12.031-4.25t-5.2031-11.969z"/>
<path id="g" d="m41.109 46.297q-1.5156 0.875-3.2969 1.2812-1.7812 0.42188-3.9219 0.42188-7.625 0-11.703-4.9531t-4.0781-14.234v-28.812h-9.0312v54.688h9.0312v-8.5q2.8438 4.9844 7.375 7.3906 4.5469 2.4219 11.047 2.4219 0.92188 0 2.0469-0.125 1.125-0.10938 2.4844-0.35938z"/>
<path id="i" d="m52 44.188q3.375 6.0625 8.0625 8.9375t11.031 2.875q8.5469 0 13.188-5.9844 4.6406-5.9688 4.6406-17v-33.016h-9.0312v32.719q0 7.8594-2.7969 11.656-2.7812 3.8125-8.4844 3.8125-6.9844 0-11.047-4.6406-4.0469-4.625-4.0469-12.641v-30.906h-9.0312v32.719q0 7.9062-2.7812 11.688t-8.5938 3.7812q-6.8906 0-10.953-4.6562-4.0469-4.6562-4.0469-12.625v-30.906h-9.0312v54.688h9.0312v-8.5q3.0781 5.0312 7.375 7.4219t10.203 2.3906q5.9688 0 10.141-3.0312 4.1719-3.0156 6.1719-8.7812z"/>
<path id="k" d="m9.4219 54.688h8.9844v-54.688h-8.9844zm0 21.297h8.9844v-11.391h-8.9844z"/>
<path id="h" d="m54.891 33.016v-33.016h-8.9844v32.719q0 7.7656-3.0312 11.609-3.0312 3.8594-9.0781 3.8594-7.2812 0-11.484-4.6406-4.2031-4.625-4.2031-12.641v-30.906h-9.0312v54.688h9.0312v-8.5q3.2344 4.9375 7.5938 7.375 4.375 2.4375 10.094 2.4375 9.4219 0 14.25-5.8281 4.8438-5.8281 4.8438-17.156z"/>
<path id="f" d="m34.281 27.484q-10.891 0-15.094-2.4844t-4.2031-8.5q0-4.7812 3.1562-7.5938 3.1562-2.7969 8.5625-2.7969 7.4844 0 12 5.2969t4.5156 14.078v2zm17.922 3.7188v-31.203h-8.9844v8.2969q-3.0781-4.9688-7.6719-7.3438t-11.234-2.375q-8.3906 0-13.359 4.7188-4.9531 4.7188-4.9531 12.625 0 9.2188 6.1719 13.906 6.1875 4.6875 18.438 4.6875h12.609v0.89062q0 6.2031-4.0781 9.5938t-11.453 3.3906q-4.6875 0-9.1406-1.125-4.4375-1.125-8.5312-3.375v8.3125q4.9219 1.9062 9.5625 2.8438 4.6406 0.95312 9.0312 0.95312 11.875 0 17.734-6.1562 5.8594-6.1406 5.8594-18.641z"/>
<path id="j" d="m9.4219 75.984h8.9844v-75.984h-8.9844z"/>
</defs>
<use xlink:href="#e"/>
<use x="44.083984" xlink:href="#l"/>
<use x="105.607422" xlink:href="#g"/>
<use x="144.970703" xlink:href="#i"/>
<use x="242.382812" xlink:href="#k"/>
<use x="270.166016" xlink:href="#h"/>
<use x="333.544922" xlink:href="#f"/>
<use x="394.824219" xlink:href="#j"/>
</g>
</g>
<path d="m116.78 382.09v33.808q0 2.4 2.4 2.4h7.7425q2.4 0 2.4-2.4v-33.808q0-2.4-2.4-2.4h-7.7425q-2.4 0-2.4 2.4z" clip-path="url(#a)" fill="#fff" stroke="#fff"/>
<g clip-path="url(#a)">
<g transform="translate(120.84 382.09) rotate(90) scale(.08 -.08)">
<use xlink:href="#e"/>
<use x="44.083984" xlink:href="#l"/>
<use x="105.607422" xlink:href="#g"/>
<use x="144.970703" xlink:href="#i"/>
<use x="242.382812" xlink:href="#k"/>
<use x="270.166016" xlink:href="#h"/>
<use x="333.544922" xlink:href="#f"/>
<use x="394.824219" xlink:href="#j"/>
</g>
</g>
<path d="m218.73 267.48 2.5068-4.3897q1.1902-2.0841-0.89396-3.2743l-6.7234-3.8395q-2.0841-1.1902-3.2743 0.89396l-2.5068 4.3897q-1.1902 2.0841 0.89397 3.2743l6.7234 3.8395q2.0841 1.1902 3.2743-0.89396z" clip-path="url(#a)" fill="#fff" stroke="#fff"/>
<g clip-path="url(#a)">
<g transform="translate(215.2 265.47) rotate(-60.271) scale(.08 -.08)">
<defs>
<path id="q" d="m9.8125 72.906h46.094v-8.3125h-36.234v-21.578h34.719v-8.2969h-34.719v-26.422h37.109v-8.2969h-46.969z"/>
</defs>
<use xlink:href="#q"/>
</g>
</g>
<path d="m237.88 267.39 2.2892-5.8667q0.87242-2.2358-1.3634-3.1082l-7.2128-2.8145q-2.2358-0.87242-3.1082 1.3634l-2.2892 5.8667q-0.87242 2.2358 1.3634 3.1082l7.2128 2.8145q2.2358 0.87242 3.1082-1.3634z" clip-path="url(#a)" fill="#fff" stroke="#fff"/>
<g clip-path="url(#a)">
<g transform="translate(234.1 265.91) rotate(-68.684) scale(.08 -.08)">
<use xlink:href="#z"/>
</g>
</g>
<path d="m259.81 266.07 1.0254-5.4913q0.44055-2.3592-1.9187-2.7998l-7.6109-1.4212q-2.3592-0.44055-2.7998 1.9187l-1.0254 5.4913q-0.44055 2.3592 1.9187 2.7998l7.6109 1.4212q2.3592 0.44055 2.7998-1.9187z" clip-path="url(#a)" fill="#fff" stroke="#fff"/>
<g clip-path="url(#a)">
<g transform="translate(255.82 265.33) rotate(-79.423) scale(.08 -.08)">
<use xlink:href="#t"/>
</g>
</g>
<path d="m383.46 198.86 4.8393 1.4608q2.2976 0.69358 2.9912-1.604l2.2375-7.4121q0.69358-2.2976-1.604-2.9912l-4.8393-1.4608q-2.2976-0.69358-2.9912 1.604l-2.2375 7.4121q-0.69358 2.2976 1.604 2.9912z" clip-path="url(#a)" fill="#fff" stroke="#fff"/>
<g clip-path="url(#a)">
<g transform="translate(384.64 194.97) rotate(16.797) scale(.08 -.08)">
<use xlink:href="#q"/>
</g>
</g>
<path d="m271.08 259.5 0.23014 5.8505q0.094335 2.3981 2.4925 2.3038l7.7365-0.30433q2.3981-0.094335 2.3038-2.4925l-0.23014-5.8505q-0.094335-2.3981-2.4925-2.3038l-7.7365 0.30433q-2.3981 0.094335-2.3038 2.4925z" clip-path="url(#a)" fill="#fff" stroke="#fff"/>
<g clip-path="url(#a)">
<g transform="translate(275.14 259.34) rotate(87.747) scale(.08 -.08)">
<defs>
<path id="y" d="m8.6875 72.906h9.9219v-44.297q0-11.719 4.2344-16.875 4.25-5.1406 13.781-5.1406 9.4688 0 13.719 5.1406 4.25 5.1562 4.25 16.875v44.297h9.9062v-45.516q0-14.25-7.0625-21.531-7.0469-7.2812-20.812-7.2812-13.828 0-20.891 7.2812-7.0469 7.2812-7.0469 21.531z"/>
</defs>
<use xlink:href="#y"/>
</g>
</g>
<path d="m149.4 382.09v33.808q0 2.4 2.4 2.4h7.7425q2.4 0 2.4-2.4v-33.808q0-2.4-2.4-2.4h-7.7425q-2.4 0-2.4 2.4z" clip-path="url(#a)" fill="#fff" stroke="#fff"/>
<g clip-path="url(#a)">
<g transform="translate(153.47 382.09) rotate(90) scale(.08 -.08)">
<use xlink:href="#e"/>
<use x="44.083984" xlink:href="#l"/>
<use x="105.607422" xlink:href="#g"/>
<use x="144.970703" xlink:href="#i"/>
<use x="242.382812" xlink:href="#k"/>
<use x="270.166016" xlink:href="#h"/>
<use x="333.544922" xlink:href="#f"/>
<use x="394.824219" xlink:href="#j"/>
</g>
</g>
<path d="m186.69 382.09v33.808q0 2.4 2.4 2.4h7.7425q2.4 0 2.4-2.4v-33.808q0-2.4-2.4-2.4h-7.7425q-2.4 0-2.4 2.4z" clip-path="url(#a)" fill="#fff" stroke="#fff"/>
<g clip-path="url(#a)">
<g transform="translate(190.75 382.09) rotate(90) scale(.08 -.08)">
<use xlink:href="#e"/>
<use x="44.083984" xlink:href="#l"/>
<use x="105.607422" xlink:href="#g"/>
<use x="144.970703" xlink:href="#i"/>
<use x="242.382812" xlink:href="#k"/>
<use x="270.166016" xlink:href="#h"/>
<use x="333.544922" xlink:href="#f"/>
<use x="394.824219" xlink:href="#j"/>
</g>
</g>
<path d="m228.64 382.09v33.808q0 2.4 2.4 2.4h7.7425q2.4 0 2.4-2.4v-33.808q0-2.4-2.4-2.4h-7.7425q-2.4 0-2.4 2.4z" clip-path="url(#a)" fill="#fff" stroke="#fff"/>
<g clip-path="url(#a)">
<g transform="translate(232.7 382.09) rotate(90) scale(.08 -.08)">
<use xlink:href="#e"/>
<use x="44.083984" xlink:href="#l"/>
<use x="105.607422" xlink:href="#g"/>
<use x="144.970703" xlink:href="#i"/>
<use x="242.382812" xlink:href="#k"/>
<use x="270.166016" xlink:href="#h"/>
<use x="333.544922" xlink:href="#f"/>
<use x="394.824219" xlink:href="#j"/>
</g>
</g>
<path d="m465.07 268.85 3.7983-3.3356q1.8033-1.5837 0.21968-3.387l-5.109-5.8176q-1.5837-1.8033-3.387-0.21968l-3.7983 3.3356q-1.8033 1.5837-0.21968 3.387l5.109 5.8176q1.5837 1.8033 3.387 0.21968z" clip-path="url(#a)" fill="#fff" stroke="#fff"/>
<g clip-path="url(#a)">
<g transform="translate(462.38 265.8) rotate(-41.289) scale(.08 -.08)">
<use xlink:href="#q"/>
</g>
</g>
<path d="m497.27 266.65 1.4145-4.8531q0.67155-2.3041-1.6326-2.9757l-7.4332-2.1665q-2.3041-0.67155-2.9757 1.6326l-1.4145 4.8531q-0.67155 2.3041 1.6326 2.9757l7.4332 2.1665q2.3041 0.67155 2.9757-1.6326z" clip-path="url(#a)" fill="#fff" stroke="#fff"/>
<g clip-path="url(#a)">
<g transform="translate(493.37 265.52) rotate(-73.751) scale(.08 -.08)">
<use xlink:href="#q"/>
</g>
</g>
<path d="m501.77 294.47 0.51036 5.5629q0.21926 2.39 2.6092 2.1707l7.7101-0.70735q2.39-0.21926 2.1707-2.6092l-0.51036-5.5629q-0.21926-2.39-2.6092-2.1707l-7.7101 0.70735q-2.39 0.21926-2.1707 2.6092z" clip-path="url(#a)" fill="#fff" stroke="#fff"/>
<g clip-path="url(#a)">
<g transform="translate(505.82 294.1) rotate(84.758) scale(.08 -.08)">
<use xlink:href="#t"/>
</g>
</g>
<path d="m597.05 267.57 4.7778 1.6508q2.2684 0.78377 3.0522-1.4846l2.5285-7.318q0.78377-2.2684-1.4846-3.0522l-4.7778-1.6508q-2.2684-0.78377-3.0522 1.4846l-2.5285 7.318q-0.78377 2.2684 1.4846 3.0522z" clip-path="url(#a)" fill="#fff" stroke="#fff"/>
<g clip-path="url(#a)">
<g transform="translate(598.38 263.73) rotate(19.061) scale(.08 -.08)">
<use xlink:href="#q"/>
</g>
</g>
<path d="m448.32 302.93 3.7279-4.5149q1.5281-1.8507-0.32259-3.3787l-5.9703-4.9296q-1.8507-1.5281-3.3787 0.32259l-3.7279 4.5149q-1.5281 1.8507 0.32259 3.3787l5.9703 4.9296q1.8507 1.5281 3.3787-0.32259z" clip-path="url(#a)" fill="#fff" stroke="#fff"/>
<g clip-path="url(#a)">
<g transform="translate(445.19 300.34) rotate(-50.454) scale(.08 -.08)">
<use xlink:href="#y"/>
</g>
</g>
<path d="m463.16 334.42 4.3724 3.2909q1.9176 1.4432 3.3608-0.47433l4.656-6.1861q1.4432-1.9176-0.47433-3.3608l-4.3724-3.2909q-1.9176-1.4432-3.3608 0.47433l-4.656 6.1861q-1.4432 1.9176 0.47433 3.3608z" clip-path="url(#a)" fill="#fff" stroke="#fff"/>
<g clip-path="url(#a)">
<g transform="translate(465.61 331.18) rotate(36.967) scale(.08 -.08)">
<use xlink:href="#u"/>
</g>
</g>
<path d="m379.97 337.6 4.0578-3.0541q1.9176-1.4432 0.47433-3.3608l-4.656-6.1861q-1.4432-1.9176-3.3608-0.47433l-4.0578 3.0541q-1.9176 1.4432-0.47433 3.3608l4.656 6.1861q1.4432 1.9176 3.3608 0.47433z" clip-path="url(#a)" fill="#fff" stroke="#fff"/>
<g clip-path="url(#a)">
<g transform="translate(377.53 334.35) rotate(-36.967) scale(.08 -.08)">
<defs>
<path id="aj" d="m53.516 70.516v-9.625q-5.6094 2.6875-10.594 4-4.9844 1.3281-9.625 1.3281-8.0469 0-12.422-3.125t-4.375-8.8906q0-4.8438 2.9062-7.3125 2.9062-2.4531 11.016-3.9688l5.9531-1.2188q11.031-2.1094 16.281-7.4062t5.25-14.172q0-10.609-7.1094-16.078-7.0938-5.4688-20.812-5.4688-5.1719 0-11.016 1.1719-5.8281 1.1719-12.078 3.4688v10.156q6-3.3594 11.766-5.0781 5.7656-1.7031 11.328-1.7031 8.4375 0 13.031 3.3125 4.5938 3.3281 4.5938 9.4844 0 5.3594-3.2969 8.3906t-10.812 4.5469l-6.0156 1.1719q-11.031 2.1875-15.969 6.875-4.9219 4.6875-4.9219 13.047 0 9.6719 6.8125 15.234t18.766 5.5625q5.1406 0 10.453-0.9375 5.3281-0.92188 10.891-2.7656z"/>
</defs>
<use xlink:href="#aj"/>
</g>
</g>
<path d="m491.41 331.29 2.3559 4.9394q1.0332 2.1662 3.1994 1.133l6.9883-3.3331q2.1662-1.0332 1.133-3.1994l-2.3559-4.9394q-1.0332-2.1662-3.1994-1.133l-6.9883 3.3331q-2.1662 1.0332-1.133 3.1994z" clip-path="url(#a)" fill="#fff" stroke="#fff"/>
<g clip-path="url(#a)">
<g transform="translate(495.08 329.54) rotate(64.501) scale(.08 -.08)">
<use xlink:href="#u"/>
</g>
</g>
<path d="m470.19 336.05 2.1864-4.584q1.0332-2.1662-1.133-3.1994l-6.9883-3.3331q-2.1662-1.0332-3.1994 1.133l-2.1864 4.584q-1.0332 2.1662 1.133 3.1994l6.9883 3.3331q2.1662 1.0332 3.1994-1.133z" clip-path="url(#a)" fill="#fff" stroke="#fff"/>
<g clip-path="url(#a)">
<g transform="translate(466.52 334.3) rotate(-64.501) scale(.08 -.08)">
<use xlink:href="#aj"/>
</g>
</g>
<path d="m508.29 382.09v33.808q0 2.4 2.4 2.4h7.7425q2.4 0 2.4-2.4v-33.808q0-2.4-2.4-2.4h-7.7425q-2.4 0-2.4 2.4z" clip-path="url(#a)" fill="#fff" stroke="#fff"/>
<g clip-path="url(#a)">
<g transform="translate(512.36 382.09) rotate(90) scale(.08 -.08)">
<use xlink:href="#e"/>
<use x="44.083984" xlink:href="#l"/>
<use x="105.607422" xlink:href="#g"/>
<use x="144.970703" xlink:href="#i"/>
<use x="242.382812" xlink:href="#k"/>
<use x="270.166016" xlink:href="#h"/>
<use x="333.544922" xlink:href="#f"/>
<use x="394.824219" xlink:href="#j"/>
</g>
</g>
<path d="m643.52 337.87 4.7937-2.8142q2.0697-1.215 0.85466-3.2847l-3.9198-6.677q-1.215-2.0697-3.2847-0.85466l-4.7937 2.8142q-2.0697 1.215-0.85466 3.2847l3.9198 6.677q1.215 2.0697 3.2847 0.85466z" clip-path="url(#a)" fill="#fff" stroke="#fff"/>
<g clip-path="url(#a)">
<g transform="translate(641.46 334.37) rotate(-30.416) scale(.08 -.08)">
<use xlink:href="#ak"/>
</g>
</g>
<path d="m683.72 337.02 3.2921-5.3685q1.2546-2.046-0.79132-3.3006l-6.6003-4.0475q-2.046-1.2546-3.3006 0.79132l-3.2921 5.3685q-1.2546 2.046 0.79132 3.3006l6.6003 4.0475q2.046 1.2546 3.3006-0.79132z" clip-path="url(#a)" fill="#fff" stroke="#fff"/>
<g clip-path="url(#a)">
<g transform="translate(680.26 334.9) rotate(-58.482) scale(.08 -.08)">
<use xlink:href="#z"/>
</g>
</g>
<path d="m712.8 331.61 2.6736 4.9049q1.1487 2.1073 3.2559 0.95862l6.7982-3.7056q2.1073-1.1486 0.95862-3.2559l-2.6736-4.9049q-1.1486-2.1073-3.2559-0.95862l-6.7982 3.7056q-2.1073 1.1487-0.95862 3.2559z" clip-path="url(#a)" fill="#fff" stroke="#fff"/>
<g clip-path="url(#a)">
<g transform="translate(716.37 329.66) rotate(61.406) scale(.08 -.08)">
<use xlink:href="#t"/>
</g>
</g>
<path d="m755.96 335.08 5.0988 2.8781q2.09 1.1798 3.2698-0.91024l3.806-6.7425q1.1798-2.09-0.91024-3.2698l-5.0988-2.8782q-2.09-1.1798-3.2698 0.91024l-3.806 6.7425q-1.1798 2.09 0.91024 3.2698z" clip-path="url(#a)" fill="#fff" stroke="#fff"/>
<g clip-path="url(#a)">
<g transform="translate(757.96 331.54) rotate(29.444) scale(.08 -.08)">
<use xlink:href="#y"/>
</g>
</g>
<path d="m578.2 382.09v33.808q0 2.4 2.4 2.4h7.7425q2.4 0 2.4-2.4v-33.808q0-2.4-2.4-2.4h-7.7425q-2.4 0-2.4 2.4z" clip-path="url(#a)" fill="#fff" stroke="#fff"/>
<g clip-path="url(#a)">
<g transform="translate(582.27 382.09) rotate(90) scale(.08 -.08)">
<use xlink:href="#e"/>
<use x="44.083984" xlink:href="#l"/>
<use x="105.607422" xlink:href="#g"/>
<use x="144.970703" xlink:href="#i"/>
<use x="242.382812" xlink:href="#k"/>
<use x="270.166016" xlink:href="#h"/>
<use x="333.544922" xlink:href="#f"/>
<use x="394.824219" xlink:href="#j"/>
</g>
</g>
<path d="m652.78 382.09v33.808q0 2.4 2.4 2.4h7.7425q2.4 0 2.4-2.4v-33.808q0-2.4-2.4-2.4h-7.7425q-2.4 0-2.4 2.4z" clip-path="url(#a)" fill="#fff" stroke="#fff"/>
<g clip-path="url(#a)">
<g transform="translate(656.84 382.09) rotate(90) scale(.08 -.08)">
<use xlink:href="#e"/>
<use x="44.083984" xlink:href="#l"/>
<use x="105.607422" xlink:href="#g"/>
<use x="144.970703" xlink:href="#i"/>
<use x="242.382812" xlink:href="#k"/>
<use x="270.166016" xlink:href="#h"/>
<use x="333.544922" xlink:href="#f"/>
<use x="394.824219" xlink:href="#j"/>
</g>
</g>
<path d="m732.01 382.09v33.808q0 2.4 2.4 2.4h7.7425q2.4 0 2.4-2.4v-33.808q0-2.4-2.4-2.4h-7.7425q-2.4 0-2.4 2.4z" clip-path="url(#a)" fill="#fff" stroke="#fff"/>
<g clip-path="url(#a)">
<g transform="translate(736.08 382.09) rotate(90) scale(.08 -.08)">
<use xlink:href="#e"/>
<use x="44.083984" xlink:href="#l"/>
<use x="105.607422" xlink:href="#g"/>
<use x="144.970703" xlink:href="#i"/>
<use x="242.382812" xlink:href="#k"/>
<use x="270.166016" xlink:href="#h"/>
<use x="333.544922" xlink:href="#f"/>
<use x="394.824219" xlink:href="#j"/>
</g>
</g>
<path d="m443.04 382.09v33.808q0 2.4 2.4 2.4h7.7425q2.4 0 2.4-2.4v-33.808q0-2.4-2.4-2.4h-7.7425q-2.4 0-2.4 2.4z" clip-path="url(#a)" fill="#fff" stroke="#fff"/>
<g clip-path="url(#a)">
<g transform="translate(447.1 382.09) rotate(90) scale(.08 -.08)">
<use xlink:href="#e"/>
<use x="44.083984" xlink:href="#l"/>
<use x="105.607422" xlink:href="#g"/>
<use x="144.970703" xlink:href="#i"/>
<use x="242.382812" xlink:href="#k"/>
<use x="270.166016" xlink:href="#h"/>
<use x="333.544922" xlink:href="#f"/>
<use x="394.824219" xlink:href="#j"/>
</g>
</g>
<path d="m326.52 382.09v33.808q0 2.4 2.4 2.4h7.7425q2.4 0 2.4-2.4v-33.808q0-2.4-2.4-2.4h-7.7425q-2.4 0-2.4 2.4z" clip-path="url(#a)" fill="#fff" stroke="#fff"/>
<g clip-path="url(#a)">
<g transform="translate(330.58 382.09) rotate(90) scale(.08 -.08)">
<use xlink:href="#e"/>
<use x="44.083984" xlink:href="#l"/>
<use x="105.607422" xlink:href="#g"/>
<use x="144.970703" xlink:href="#i"/>
<use x="242.382812" xlink:href="#k"/>
<use x="270.166016" xlink:href="#h"/>
<use x="333.544922" xlink:href="#f"/>
<use x="394.824219" xlink:href="#j"/>
</g>
</g>
<path d="m32.88 382.09v33.808q0 2.4 2.4 2.4h7.7425q2.4 0 2.4-2.4v-33.808q0-2.4-2.4-2.4h-7.7425q-2.4 0-2.4 2.4z" clip-path="url(#a)" fill="#fff" stroke="#fff"/>
<g clip-path="url(#a)">
<g transform="translate(36.944 382.09) rotate(90) scale(.08 -.08)">
<use xlink:href="#e"/>
<use x="44.083984" xlink:href="#l"/>
<use x="105.607422" xlink:href="#g"/>
<use x="144.970703" xlink:href="#i"/>
<use x="242.382812" xlink:href="#k"/>
<use x="270.166016" xlink:href="#h"/>
<use x="333.544922" xlink:href="#f"/>
<use x="394.824219" xlink:href="#j"/>
</g>
</g>
<path d="m46.863 382.09v33.808q0 2.4 2.4 2.4h7.7425q2.4 0 2.4-2.4v-33.808q0-2.4-2.4-2.4h-7.7425q-2.4 0-2.4 2.4z" clip-path="url(#a)" fill="#fff" stroke="#fff"/>
<g clip-path="url(#a)">
<g transform="translate(50.927 382.09) rotate(90) scale(.08 -.08)">
<use xlink:href="#e"/>
<use x="44.083984" xlink:href="#l"/>
<use x="105.607422" xlink:href="#g"/>
<use x="144.970703" xlink:href="#i"/>
<use x="242.382812" xlink:href="#k"/>
<use x="270.166016" xlink:href="#h"/>
<use x="333.544922" xlink:href="#f"/>
<use x="394.824219" xlink:href="#j"/>
</g>
</g>
<path d="m65.507 382.09v33.808q0 2.4 2.4 2.4h7.7425q2.4 0 2.4-2.4v-33.808q0-2.4-2.4-2.4h-7.7425q-2.4 0-2.4 2.4z" clip-path="url(#a)" fill="#fff" stroke="#fff"/>
<g clip-path="url(#a)">
<g transform="translate(69.57 382.09) rotate(90) scale(.08 -.08)">
<use xlink:href="#e"/>
<use x="44.083984" xlink:href="#l"/>
<use x="105.607422" xlink:href="#g"/>
<use x="144.970703" xlink:href="#i"/>
<use x="242.382812" xlink:href="#k"/>
<use x="270.166016" xlink:href="#h"/>
<use x="333.544922" xlink:href="#f"/>
<use x="394.824219" xlink:href="#j"/>
</g>
</g>
<path d="m275.25 382.09v33.808q0 2.4 2.4 2.4h7.7425q2.4 0 2.4-2.4v-33.808q0-2.4-2.4-2.4h-7.7425q-2.4 0-2.4 2.4z" clip-path="url(#a)" fill="#fff" stroke="#fff"/>
<g clip-path="url(#a)">
<g transform="translate(279.31 382.09) rotate(90) scale(.08 -.08)">
<use xlink:href="#e"/>
<use x="44.083984" xlink:href="#l"/>
<use x="105.607422" xlink:href="#g"/>
<use x="144.970703" xlink:href="#i"/>
<use x="242.382812" xlink:href="#k"/>
<use x="270.166016" xlink:href="#h"/>
<use x="333.544922" xlink:href="#f"/>
<use x="394.824219" xlink:href="#j"/>
</g>
</g>
<path d="m382.45 382.09v33.808q0 2.4 2.4 2.4h7.7425q2.4 0 2.4-2.4v-33.808q0-2.4-2.4-2.4h-7.7425q-2.4 0-2.4 2.4z" clip-path="url(#a)" fill="#fff" stroke="#fff"/>
<g clip-path="url(#a)">
<g transform="translate(386.51 382.09) rotate(90) scale(.08 -.08)">
<use xlink:href="#e"/>
<use x="44.083984" xlink:href="#l"/>
<use x="105.607422" xlink:href="#g"/>
<use x="144.970703" xlink:href="#i"/>
<use x="242.382812" xlink:href="#k"/>
<use x="270.166016" xlink:href="#h"/>
<use x="333.544922" xlink:href="#f"/>
<use x="394.824219" xlink:href="#j"/>
</g>
</g>
<path d="m815.91 382.09v33.808q0 2.4 2.4 2.4h7.7425q2.4 0 2.4-2.4v-33.808q0-2.4-2.4-2.4h-7.7425q-2.4 0-2.4 2.4z" clip-path="url(#a)" fill="#fff" stroke="#fff"/>
<g clip-path="url(#a)">
<g transform="translate(819.97 382.09) rotate(90) scale(.08 -.08)">
<use xlink:href="#e"/>
<use x="44.083984" xlink:href="#l"/>
<use x="105.607422" xlink:href="#g"/>
<use x="144.970703" xlink:href="#i"/>
<use x="242.382812" xlink:href="#k"/>
<use x="270.166016" xlink:href="#h"/>
<use x="333.544922" xlink:href="#f"/>
<use x="394.824219" xlink:href="#j"/>
</g>
</g>
<defs>
<path id="b" d="m0 8.6603c2.2967 0 4.4997-0.9125 6.1237-2.5365 1.624-1.624 2.5365-3.827 2.5365-6.1237s-0.9125-4.4997-2.5365-6.1237c-1.624-1.624-3.827-2.5365-6.1237-2.5365s-4.4997 0.9125-6.1237 2.5365c-1.624 1.624-2.5365 3.827-2.5365 6.1237s0.9125 4.4997 2.5365 6.1237c1.624 1.624 3.827 2.5365 6.1237 2.5365z"/>
</defs>
<g clip-path="url(#a)" fill="#ffffff" stroke="#ffffff">
<use x="39.151515" y="432.727273" xlink:href="#b"/>
<use x="53.134199" y="432.727273" xlink:href="#b"/>
<use x="71.777778" y="432.727273" xlink:href="#b"/>
<use x="95.082251" y="432.727273" xlink:href="#b"/>
<use x="123.047619" y="432.727273" xlink:href="#b"/>
<use x="155.673882" y="432.727273" xlink:href="#b"/>
<use x="192.961039" y="432.727273" xlink:href="#b"/>
<use x="234.909091" y="432.727273" xlink:href="#b"/>
<use x="281.518038" y="432.727273" xlink:href="#b"/>
<use x="332.787879" y="432.727273" xlink:href="#b"/>
<use x="388.718615" y="432.727273" xlink:href="#b"/>
<use x="449.310245" y="432.727273" xlink:href="#b"/>
<use x="514.562771" y="432.727273" xlink:href="#b"/>
<use x="584.47619" y="432.727273" xlink:href="#b"/>
<use x="659.050505" y="432.727273" xlink:href="#b"/>
<use x="738.285714" y="432.727273" xlink:href="#b"/>
<use x="822.181818" y="432.727273" xlink:href="#b"/>
<use x="136.556445" y="20.606061" xlink:href="#b"/>
<use x="136.556445" y="89.918514" xlink:href="#b"/>
<use x="54.687831" y="296.85448" xlink:href="#b"/>
<use x="95.082251" y="365.260147" xlink:href="#b"/>
<use x="123.047619" y="365.260147" xlink:href="#b"/>
<use x="273.408081" y="159.091548" xlink:href="#b"/>
<use x="155.673882" y="365.260147" xlink:href="#b"/>
<use x="192.961039" y="365.260147" xlink:href="#b"/>
<use x="234.909091" y="365.260147" xlink:href="#b"/>
<use x="501.978355" y="228.090031" xlink:href="#b"/>
<use x="423.675325" y="296.85448" xlink:href="#b"/>
<use x="481.936508" y="296.85448" xlink:href="#b"/>
<use x="514.562771" y="365.260147" xlink:href="#b"/>
<use x="700.998557" y="296.85448" xlink:href="#b"/>
<use x="584.47619" y="365.260147" xlink:href="#b"/>
<use x="659.050505" y="365.260147" xlink:href="#b"/>
<use x="738.285714" y="365.260147" xlink:href="#b"/>
<use x="449.310245" y="365.260147" xlink:href="#b"/>
<use x="332.787879" y="365.260147" xlink:href="#b"/>
<use x="39.151515" y="365.260147" xlink:href="#b"/>
<use x="53.134199" y="365.260147" xlink:href="#b"/>
<use x="71.777778" y="365.260147" xlink:href="#b"/>
<use x="281.518038" y="365.260147" xlink:href="#b"/>
<use x="388.718615" y="365.260147" xlink:href="#b"/>
<use x="822.181818" y="365.260147" xlink:href="#b"/>
</g>
<g clip-path="url(#a)">
<g transform="translate(32.882 435.49) scale(.1 -.1)">
<defs>
<path id="bd" d="m28.562 74.219q12.016 0 19.625-5.1094 7.625-5.0938 7.625-13.781 0-6.0625-3.4688-10.234t-9.8594-5.7812q7.0781-1.5156 11.047-6.3125 3.9844-4.7812 3.9844-11.812 0-11.219-8.6719-16.922-8.6562-5.6875-20.281-5.6875-5.9531 0-12.891 1.6094-6.9375 1.625-9.0781 2.9844v10.156q7.4688-4.3438 11.594-5.3906t10.188-1.0469q9.1719 0 14.25 3.5156t5.0781 10.781q0 6.4531-4.5156 10.078-4.5156 3.6406-14.031 3.6406h-9.9688v8.1094h10.359q8.7344 0 12.594 2.9062t3.8594 8.375q0 5.6094-3.9844 8.6094-3.9844 3.0156-13.641 3.0156-6.5469 0-8.7969-0.59375-2.25-0.57812-12.25-4.3438v9.625q5.5156 1.9531 11.266 2.7812 5.7656 0.82812 9.9688 0.82812z"/>
<path id="x" d="m34.281 27.484q-10.891 0-15.094-2.4844t-4.2031-8.5q0-4.7812 3.1562-7.5938 3.1562-2.7969 8.5625-2.7969 7.4844 0 12 5.2969t4.5156 14.078v2zm17.922 3.7188v-31.203h-8.9844v8.2969q-3.0781-4.9688-7.6719-7.3438t-11.234-2.375q-8.3906 0-13.359 4.7188-4.9531 4.7188-4.9531 12.625 0 9.2188 6.1719 13.906 6.1875 4.6875 18.438 4.6875h12.609v0.89062q0 6.2031-4.0781 9.5938t-11.453 3.3906q-4.6875 0-9.1406-1.125-4.4375-1.125-8.5312-3.375v8.3125q4.9219 1.9062 9.5625 2.8438 4.6406 0.95312 9.0312 0.95312 11.875 0 17.734-6.1562 5.8594-6.1406 5.8594-18.641z"/>
</defs>
<use xlink:href="#bd"/>
<use x="64.111328" xlink:href="#x"/>
</g>
</g>
<g clip-path="url(#a)">
<g transform="translate(44.362 435.49) scale(.1 -.1)">
<defs>
<path id="s" d="m18.062 25.203v-18.031h12.797q6.1562 0 9.375 2.3125 3.2188 2.3281 3.2188 6.7344 0 4.3906-3.2188 6.6875t-9.375 2.2969zm0 22.312v-15.141h11.828q5.0781 0 8.2969 2.0156 3.2188 2.0312 3.2188 5.6562 0 3.6094-3.2188 5.5312-3.2188 1.9375-8.2969 1.9375zm-8.9844 7.1719h21.391q9.625 0 14.797-3.5156t5.1719-10.016q0-5.0156-2.6406-7.9844-2.625-2.9531-7.8125-3.6719 6.2031-1.1719 9.625-4.8906 3.4219-3.7031 3.4219-9.2812 0-7.3125-5.6406-11.328-5.6406-4-16.094-4h-22.219z"/>
<path id="ag" d="m48.781 52.594v-8.4062q-3.8125 2.1094-7.6406 3.1562t-7.7344 1.0469q-8.75 0-13.594-5.5469-4.8281-5.5312-4.8281-15.547t4.8281-15.562q4.8438-5.5312 13.594-5.5312 3.9062 0 7.7344 1.0469t7.6406 3.1562v-8.3125q-3.7656-1.75-7.7969-2.625-4.0156-0.89062-8.5625-0.89062-12.359 0-19.641 7.7656-7.2656 7.7656-7.2656 20.953 0 13.375 7.3438 21.031 7.3594 7.6719 20.156 7.6719 4.1406 0 8.0938-0.85938 3.9531-0.84375 7.6719-2.5469z"/>
<path id="o" d="m56.203 29.594v-4.3906h-41.312q0.59375-9.2812 5.5938-14.141t13.938-4.8594q5.1719 0 10.031 1.2656t9.6562 3.8125v-8.5q-4.8438-2.0469-9.9219-3.125t-10.297-1.0781q-13.094 0-20.734 7.6094-7.6406 7.625-7.6406 20.625 0 13.422 7.25 21.297 7.25 7.8906 19.562 7.8906 11.031 0 17.453-7.1094 6.4219-7.0938 6.4219-19.297zm-8.9844 2.6406q-0.09375 7.3594-4.125 11.75-4.0312 4.4062-10.672 4.4062-7.5156 0-12.031-4.25t-5.2031-11.969z"/>
</defs>
<use xlink:href="#s"/>
<use x="58.935547" xlink:href="#ag"/>
<use x="113.916016" xlink:href="#o"/>
</g>
</g>
<g clip-path="url(#a)">
<g transform="translate(55.8 435.49) scale(.1 -.1)">
<defs>
<path id="v" d="m18.109 8.2031v-29h-9.0312v75.484h9.0312v-8.2969q2.8438 4.875 7.1562 7.2344 4.3281 2.375 10.328 2.375 9.9688 0 16.188-7.9062 6.2344-7.9062 6.2344-20.797t-6.2344-20.812q-6.2188-7.9062-16.188-7.9062-6 0-10.328 2.375-4.3125 2.375-7.1562 7.25zm30.578 19.094q0 9.9062-4.0781 15.547t-11.203 5.6406q-7.1406 0-11.219-5.6406t-4.0781-15.547 4.0781-15.547 11.219-5.6406q7.125 0 11.203 5.6406t4.0781 15.547z"/>
<path id="aq" d="m9.0781 54.688h13.141l15.531-36.625 15.578 36.625h13.031v-54.688h-9.0312v46.094l-15.094-35.594h-8.9844l-15.141 35.594v-46.094h-9.0312z"/>
<path id="an" d="m18.453 38.922q0-4.0625 3.125-6.3594 3.125-2.2812 8.9375-2.2812h12.109v17.234h-12.109q-5.8125 0-8.9375-2.25t-3.125-6.3438zm-12.781-38.922 16.688 23.969q-5.6562 1.2812-9.4219 4.625-3.75 3.3438-3.75 10.328 0 7.9062 5.2344 11.828 5.25 3.9375 15.859 3.9375h21.375v-54.688h-9.0312v23.094h-11.172l-16.125-23.094z"/>
</defs>
<use xlink:href="#s"/>
<use x="58.935547" xlink:href="#v"/>
<use x="122.412109" xlink:href="#o"/>
<use x="183.935547" xlink:href="#aq"/>
<use x="259.375" xlink:href="#an"/>
</g>
</g>
<g clip-path="url(#a)">
<g transform="translate(85.274 435.49) scale(.1 -.1)">
<defs>
<path id="az" d="m32.172-5.0781q-3.7969-9.7656-7.4219-12.734-3.6094-2.9844-9.6562-2.9844h-7.1875v7.5156h5.2812q3.7031 0 5.75 1.7656 2.0625 1.75 4.5469 8.2969l1.6094 4.0938-22.109 53.812h9.5156l17.094-42.766 17.094 42.766h9.5156z"/>
</defs>
<use xlink:href="#o"/>
<use x="61.523438" xlink:href="#aq"/>
<use x="136.962891" xlink:href="#az"/>
</g>
</g>
<g clip-path="url(#a)">
<g transform="translate(101.43 435.49) scale(.1 -.1)">
<defs>
<path id="ah" d="m56.297 54.688v-54.688h-9.0312v47.516h-29.156v-47.516h-9.0312v54.688z"/>
<path id="n" d="m30.609 48.391q-7.2188 0-11.422-5.6406t-4.2031-15.453 4.1719-15.453q4.1875-5.6406 11.453-5.6406 7.1875 0 11.375 5.6562 4.2031 5.6719 4.2031 15.438 0 9.7188-4.2031 15.406-4.1875 5.6875-11.375 5.6875zm0 7.6094q11.719 0 18.406-7.625 6.7031-7.6094 6.7031-21.078 0-13.422-6.7031-21.078-6.6875-7.6406-18.406-7.6406-11.766 0-18.438 7.6406-6.6562 7.6562-6.6562 21.078 0 13.469 6.6562 21.078 6.6719 7.625 18.438 7.625z"/>
<path id="ai" d="m3.7188 0v7.4688q8.875 1.375 11.609 7.5156 3.3281 8.6562 3.3281 30.766v8.9375h36.953v-54.688h-8.9844v47.516h-18.984v-5.4219q0-21.094-4.2969-30.562-4.5938-10.109-19.625-11.531z"/>
</defs>
<use xlink:href="#ah"/>
<use x="65.380859" xlink:href="#n"/>
<use x="126.5625" xlink:href="#ah"/>
<use x="191.943359" xlink:href="#x"/>
<use x="253.222656" xlink:href="#ai"/>
<use x="317.138672" xlink:href="#ag"/>
<use x="372.119141" xlink:href="#an"/>
</g>
</g>
<g clip-path="url(#a)">
<g transform="translate(137.48 435.49) scale(.1 -.1)">
<defs>
<path id="p" d="m2.9375 54.688h52.391v-7.1719h-21.781v-47.516h-8.8438v47.516h-21.766z"/>
<path id="ax" d="m43.453 16.219q0 4.3906-3.2031 6.6875-3.1875 2.2969-9.3438 2.2969h-12.797v-18.031h12.797q6.1562 0 9.3438 2.3125 3.2031 2.3281 3.2031 6.7344zm-34.375 38.469h9.0312v-22.312h13.188q10.453 0 16.094-3.9844 5.6406-3.9688 5.6406-12.172t-5.6406-12.219q-5.6406-4-16.094-4h-22.219z"/>
<path id="r" d="m9.0781 54.688h8.9375v-25.688l25.344 25.688h11.031l-20.891-21.141 23.578-33.547h-10.062l-19.375 27.594-9.625-9.7656v-17.828h-8.9375z"/>
</defs>
<use xlink:href="#p"/>
<use x="58.251953" xlink:href="#n"/>
<use x="119.433594" xlink:href="#ai"/>
<use x="183.349609" xlink:href="#ax"/>
<use x="242.285156" xlink:href="#r"/>
<use x="302.685547" xlink:href="#n"/>
</g>
</g>
<g clip-path="url(#a)">
<g transform="translate(179.93 435.49) scale(.1 -.1)">
<defs>
<path id="bc" d="m21.625 7.1719h26.078v40.344h-18.891v-6.8438q0-20.109-5.7656-30.859zm-13.031 0q4.4375 1.9531 6.3906 6.1094 4.7969 10.297 4.7969 31.062v10.344h36.953v-47.516h7.1875v-20.984h-7.1875v13.812h-44.328v-13.812h-7.1875v20.984z"/>
<path id="ba" d="m55.906 54.688v-54.688h-8.9375v43.891l-26.359-43.891h-11.531v54.688h8.9375v-43.797l26.328 43.797z"/>
<path id="w" d="m9.0781 54.688h9.0312v-22.312h29.156v22.312h9.0312v-54.688h-9.0312v25.203h-29.156v-25.203h-9.0312z"/>
</defs>
<use xlink:href="#n"/>
<use x="61.181641" xlink:href="#bc"/>
<use x="130.322266" xlink:href="#ba"/>
<use x="195.3125" xlink:href="#w"/>
</g>
</g>
<g clip-path="url(#a)">
<g transform="translate(216.49 435.49) scale(.1 -.1)">
<defs>
<path id="ap" d="m56.297 0h-47.219v54.688h9.0312v-47.516h29.156v47.516h9.0312v-47.516h7.1875v-20.984h-7.1875z"/>
</defs>
<use xlink:href="#ap"/>
<use x="68.066406" xlink:href="#s"/>
<use x="127.001953" xlink:href="#o"/>
<use x="188.525391" xlink:href="#p"/>
<use x="246.777344" xlink:href="#n"/>
<use x="307.958984" xlink:href="#r"/>
</g>
</g>
<g clip-path="url(#a)">
<g transform="translate(279.71 435.49) scale(.1 -.1)">
<defs>
<path id="av" d="m4.8906 31.391h26.312v-8h-26.312z"/>
</defs>
<use xlink:href="#av"/>
</g>
</g>
<g clip-path="url(#a)">
<g transform="translate(304.14 435.49) scale(.1 -.1)">
<defs>
<path id="af" d="m54.891 54.688-19.781-26.609 20.797-28.078h-10.594l-15.922 21.484-15.906-21.484h-10.609l21.25 28.609-19.438 26.078h10.594l14.5-19.484 14.5 19.484z"/>
<path id="ao" d="m61.047 54.688h8.9844v-54.688h-8.9844zm4.5 1.3125m-22.094-39.781q0 4.3906-3.2031 6.6875-3.1875 2.2969-9.3438 2.2969h-12.797v-18.031h12.797q6.1562 0 9.3438 2.3125 3.2031 2.3281 3.2031 6.7344zm-34.375 38.469h9.0312v-22.312h13.188q10.453 0 16.094-3.9844 5.6406-3.9688 5.6406-12.172t-5.6406-12.219q-5.6406-4-16.094-4h-22.219z"/>
<path id="ar" d="m55.906 54.688v-54.688h-8.9375v43.891l-26.359-43.891h-11.531v54.688h8.9375v-43.797l26.328 43.797zm-38.688 20.828h5.7656q0.53125-3.6562 2.8906-5.5 2.375-1.8281 6.625-1.8281 4.2031 0 6.5469 1.8125t2.9688 5.5156h5.7656q-0.48438-6.9844-4.3438-10.5t-10.938-3.5156-10.938 3.5156-4.3438 10.5z"/>
</defs>
<use xlink:href="#r"/>
<use x="60.400391" xlink:href="#v"/>
<use x="123.876953" xlink:href="#n"/>
<use x="185.058594" xlink:href="#af"/>
<use x="244.238281" xlink:href="#n"/>
<use x="305.419922" xlink:href="#p"/>
<use x="363.671875" xlink:href="#w"/>
<use x="429.052734" xlink:href="#ao"/>
<use x="508.007812" xlink:href="#ar"/>
</g>
</g>
<g clip-path="url(#a)">
<g transform="translate(387.13 435.49) scale(.1 -.1)">
<defs>
<path id="aw" d="m11.719 12.406h10.297v-8.4062l-8-15.625h-6.2969l4 15.625z"/>
</defs>
<use xlink:href="#aw"/>
</g>
</g>
<g clip-path="url(#a)">
<g transform="translate(417.7 435.49) scale(.1 -.1)">
<defs>
<path id="bb" d="m34.469 29.5q6.0625-1.1719 9.4219-4.75 3.375-3.5625 3.375-8.8281 0-8.4531-6.2969-12.906-6.2969-4.4375-17.922-4.4375-3.9062 0-8.0312 0.6875t-8.5156 2.0469v8.3594q3.4688-1.8125 7.6094-2.7188 4.1562-0.89062 8.6875-0.89062 7.375 0 11.5 2.7344t4.125 7.125q0 4.2969-3.6562 6.9062t-10.344 2.6094h-7.2344v7.4219h7.5625q5.6719 0 8.9688 2.1719t3.2969 5.5938q0 3.125-3.4062 5.375-3.3906 2.25-9.1875 2.25-3.4688 0-7.4062-0.64062-3.9219-0.64062-8.6719-2.0469v8.1562q4.7969 1.1719 8.9375 1.75 4.1562 0.59375 7.8594 0.59375 9.5781 0 15.109-3.8438 5.5469-3.8281 5.5469-10.719 0-4.5312-2.9375-7.6875-2.9219-3.1406-8.3906-4.3125z"/>
<path id="ay" d="m41.016 0v23h-16.75q-7.4688 0-12.453 4.6406-4.4844 4.2031-4.4844 13.188v13.859h8.9844v-13.031q0-5.7188 2.5312-8.5938 2.5938-2.8906 7.6719-2.8906h14.5v24.516h8.9844v-54.688z"/>
</defs>
<use xlink:href="#w"/>
<use x="65.380859" xlink:href="#o"/>
<use x="126.904297" xlink:href="#s"/>
<use x="185.839844" xlink:href="#bb"/>
<use x="239.013672" xlink:href="#v"/>
<use x="302.490234" xlink:href="#x"/>
<use x="363.769531" xlink:href="#ay"/>
<use x="422.851562" xlink:href="#w"/>
<use x="488.232422" xlink:href="#ao"/>
<use x="567.1875" xlink:href="#ar"/>
</g>
</g>
<g clip-path="url(#a)">
<g transform="translate(496.14 435.49) scale(.1 -.1)">
<use xlink:href="#ap"/>
<use x="68.066406" xlink:href="#s"/>
<use x="127.001953" xlink:href="#o"/>
<use x="188.525391" xlink:href="#p"/>
<use x="246.777344" xlink:href="#n"/>
<use x="307.958984" xlink:href="#r"/>
</g>
</g>
<g clip-path="url(#a)">
<g transform="translate(581.42 435.49) scale(.1 -.1)">
<use xlink:href="#n"/>
</g>
</g>
<g clip-path="url(#a)">
<g transform="translate(646.93 435.49) scale(.1 -.1)">
<use xlink:href="#p"/>
<use x="58.251953" xlink:href="#v"/>
<use x="121.728516" xlink:href="#o"/>
<use x="183.251953" xlink:href="#af"/>
</g>
</g>
<g clip-path="url(#a)">
<g transform="translate(710.96 435.49) scale(.1 -.1)">
<use xlink:href="#ai"/>
<use x="63.916016" xlink:href="#o"/>
<use x="125.439453" xlink:href="#ah"/>
<use x="190.820312" xlink:href="#o"/>
<use x="252.34375" xlink:href="#ag"/>
<use x="307.324219" xlink:href="#p"/>
<use x="365.576172" xlink:href="#r"/>
<use x="425.976562" xlink:href="#x"/>
<use x="487.255859" xlink:href="#af"/>
</g>
</g>
<g clip-path="url(#a)">
<g transform="translate(817.41 435.49) scale(.1 -.1)">
<defs>
<path id="d" d="m10.688 12.406h10.312v-12.406h-10.312z"/>
</defs>
<use xlink:href="#d"/>
<use x="31.787109" xlink:href="#d"/>
<use x="63.574219" xlink:href="#d"/>
</g>
</g>
<g clip-path="url(#a)">
<g transform="translate(128.6 23.365) scale(.1 -.1)">
<defs>
<path id="c" d="m12.406 8.2969h16.109v55.625l-17.531-3.5156v8.9844l17.438 3.5156h9.8594v-64.609h16.109v-8.2969h-41.984z"/>
</defs>
<use xlink:href="#c"/>
<use x="63.623047" xlink:href="#d"/>
<use x="95.410156" xlink:href="#c"/>
</g>
</g>
<g clip-path="url(#a)">
<g transform="translate(128.6 92.678) scale(.1 -.1)">
<defs>
<path id="m" d="m19.188 8.2969h34.422v-8.2969h-46.281v8.2969q5.6094 5.8125 15.297 15.594 9.7031 9.7969 12.188 12.641 4.7344 5.3125 6.6094 9 1.8906 3.6875 1.8906 7.25 0 5.8125-4.0781 9.4688-4.0781 3.6719-10.625 3.6719-4.6406 0-9.7969-1.6094-5.1406-1.6094-11-4.8906v9.9688q5.9531 2.3906 11.125 3.6094 5.1875 1.2188 9.4844 1.2188 11.328 0 18.062-5.6719 6.7344-5.6562 6.7344-15.125 0-4.5-1.6875-8.5312-1.6719-4.0156-6.125-9.4844-1.2188-1.4219-7.7656-8.1875-6.5312-6.7656-18.453-18.922z"/>
</defs>
<use xlink:href="#c"/>
<use x="63.623047" xlink:href="#d"/>
<use x="95.410156" xlink:href="#m"/>
</g>
</g>
<g clip-path="url(#a)">
<g transform="translate(46.736 299.61) scale(.1 -.1)">
<defs>
<path id="ae" d="m40.578 39.312q7.0781-1.5156 11.047-6.3125 3.9844-4.7812 3.9844-11.812 0-10.781-7.4219-16.703-7.4219-5.9062-21.094-5.9062-4.5781 0-9.4375 0.90625t-10.031 2.7188v9.5156q4.0938-2.3906 8.9688-3.6094 4.8906-1.2188 10.219-1.2188 9.2656 0 14.125 3.6562t4.8594 10.641q0 6.4531-4.5156 10.078-4.5156 3.6406-12.562 3.6406h-8.5v8.1094h8.8906q7.2656 0 11.125 2.9062t3.8594 8.375q0 5.6094-3.9844 8.6094-3.9688 3.0156-11.391 3.0156-4.0625 0-8.7031-0.89062-4.6406-0.875-10.203-2.7188v8.7812q5.625 1.5625 10.531 2.3438t9.25 0.78125q11.234 0 17.766-5.1094 6.5469-5.0938 6.5469-13.781 0-6.0625-3.4688-10.234t-9.8594-5.7812z"/>
</defs>
<use xlink:href="#c"/>
<use x="63.623047" xlink:href="#d"/>
<use x="95.410156" xlink:href="#ae"/>
</g>
</g>
<g clip-path="url(#a)">
<g transform="translate(87.131 368.02) scale(.1 -.1)">
<defs>
<path id="ad" d="m37.797 64.312-24.906-38.922h24.906zm-2.5938 8.5938h12.406v-47.516h10.406v-8.2031h-10.406v-17.188h-9.8125v17.188h-32.906v9.5156z"/>
</defs>
<use xlink:href="#c"/>
<use x="63.623047" xlink:href="#d"/>
<use x="95.410156" xlink:href="#ad"/>
</g>
</g>
<g clip-path="url(#a)">
<g transform="translate(115.1 368.02) scale(.1 -.1)">
<defs>
<path id="ac" d="m10.797 72.906h38.719v-8.3125h-29.688v-17.859q2.1406 0.73438 4.2812 1.0938 2.1562 0.35938 4.3125 0.35938 12.203 0 19.328-6.6875 7.1406-6.6875 7.1406-18.109 0-11.766-7.3281-18.297-7.3281-6.5156-20.656-6.5156-4.5938 0-9.3594 0.78125-4.75 0.78125-9.8281 2.3438v9.9219q4.3906-2.3906 9.0781-3.5625t9.9062-1.1719q8.4531 0 13.375 4.4375 4.9375 4.4375 4.9375 12.062 0 7.6094-4.9375 12.047-4.9219 4.4531-13.375 4.4531-3.9531 0-7.8906-0.875-3.9219-0.875-8.0156-2.7344z"/>
</defs>
<use xlink:href="#c"/>
<use x="63.623047" xlink:href="#d"/>
<use x="95.410156" xlink:href="#ac"/>
</g>
</g>
<g clip-path="url(#a)">
<g transform="translate(265.46 161.85) scale(.1 -.1)">
<defs>
<path id="am" d="m33.016 40.375q-6.6406 0-10.531-4.5469-3.875-4.5312-3.875-12.438 0-7.8594 3.875-12.438 3.8906-4.5625 10.531-4.5625t10.516 4.5625q3.875 4.5781 3.875 12.438 0 7.9062-3.875 12.438-3.875 4.5469-10.516 4.5469zm19.578 30.922v-8.9844q-3.7188 1.75-7.5 2.6719-3.7812 0.9375-7.5 0.9375-9.7656 0-14.922-6.5938-5.1406-6.5938-5.875-19.922 2.875 4.25 7.2188 6.5156 4.3594 2.2656 9.5781 2.2656 10.984 0 17.359-6.6719 6.375-6.6562 6.375-18.125 0-11.234-6.6406-18.031-6.6406-6.7812-17.672-6.7812-12.656 0-19.344 9.6875-6.6875 9.7031-6.6875 28.109 0 17.281 8.2031 27.562t22.016 10.281q3.7188 0 7.5-0.73438t7.8906-2.1875z"/>
</defs>
<use xlink:href="#c"/>
<use x="63.623047" xlink:href="#d"/>
<use x="95.410156" xlink:href="#am"/>
</g>
</g>
<g clip-path="url(#a)">
<g transform="translate(147.72 368.02) scale(.1 -.1)">
<defs>
<path id="ab" d="m8.2031 72.906h46.875v-4.2031l-26.469-68.703h-10.297l24.906 64.594h-35.016z"/>
</defs>
<use xlink:href="#c"/>
<use x="63.623047" xlink:href="#d"/>
<use x="95.410156" xlink:href="#ab"/>
</g>
</g>
<g clip-path="url(#a)">
<g transform="translate(185.01 368.02) scale(.1 -.1)">
<defs>
<path id="aa" d="m31.781 34.625q-7.0312 0-11.062-3.7656-4.0156-3.7656-4.0156-10.344 0-6.5938 4.0156-10.359 4.0312-3.7656 11.062-3.7656t11.078 3.7812q4.0625 3.7969 4.0625 10.344 0 6.5781-4.0312 10.344-4.0156 3.7656-11.109 3.7656zm-9.8594 4.1875q-6.3438 1.5625-9.8906 5.9062-3.5312 4.3594-3.5312 10.609 0 8.7344 6.2188 13.812 6.2344 5.0781 17.062 5.0781 10.891 0 17.094-5.0781t6.2031-13.812q0-6.25-3.5469-10.609-3.5312-4.3438-9.8281-5.9062 7.125-1.6562 11.094-6.5 3.9844-4.8281 3.9844-11.797 0-10.609-6.4688-16.281-6.4688-5.6562-18.531-5.6562-12.047 0-18.531 5.6562-6.4688 5.6719-6.4688 16.281 0 6.9688 4 11.797 4.0156 4.8438 11.141 6.5zm-3.6094 15.578q0-5.6562 3.5312-8.8281 3.5469-3.1719 9.9375-3.1719 6.3594 0 9.9375 3.1719 3.5938 3.1719 3.5938 8.8281 0 5.6719-3.5938 8.8438-3.5781 3.1719-9.9375 3.1719-6.3906 0-9.9375-3.1719-3.5312-3.1719-3.5312-8.8438z"/>
</defs>
<use xlink:href="#c"/>
<use x="63.623047" xlink:href="#d"/>
<use x="95.410156" xlink:href="#aa"/>
</g>
</g>
<g clip-path="url(#a)">
<g transform="translate(226.96 368.02) scale(.1 -.1)">
<defs>
<path id="al" d="m10.984 1.5156v8.9844q3.7188-1.7656 7.5156-2.6875 3.8125-0.92188 7.4844-0.92188 9.7656 0 14.906 6.5625 5.1562 6.5625 5.8906 19.953-2.8281-4.2031-7.1875-6.4531-4.3438-2.25-9.6094-2.25-10.938 0-17.312 6.6094-6.375 6.625-6.375 18.109 0 11.219 6.6406 18 6.6406 6.7969 17.672 6.7969 12.656 0 19.312-9.7031 6.6719-9.6875 6.6719-28.141 0-17.234-8.1875-27.516-8.1719-10.281-21.984-10.281-3.7188 0-7.5312 0.73438-3.7969 0.73438-7.9062 2.2031zm19.625 30.906q6.6406 0 10.516 4.5312 3.8906 4.5469 3.8906 12.469 0 7.8594-3.8906 12.422-3.875 4.5625-10.516 4.5625t-10.516-4.5625-3.875-12.422q0-7.9219 3.875-12.469 3.875-4.5312 10.516-4.5312z"/>
</defs>
<use xlink:href="#c"/>
<use x="63.623047" xlink:href="#d"/>
<use x="95.410156" xlink:href="#al"/>
</g>
</g>
<g clip-path="url(#a)">
<g transform="translate(490.85 230.85) scale(.1 -.1)">
<defs>
<path id="au" d="m31.781 66.406q-7.6094 0-11.453-7.5-3.8281-7.4844-3.8281-22.531 0-14.984 3.8281-22.484 3.8438-7.5 11.453-7.5 7.6719 0 11.5 7.5 3.8438 7.5 3.8438 22.484 0 15.047-3.8438 22.531-3.8281 7.5-11.5 7.5zm0 7.8125q12.266 0 18.734-9.7031 6.4688-9.6875 6.4688-28.141 0-18.406-6.4688-28.109-6.4688-9.6875-18.734-9.6875-12.25 0-18.719 9.6875-6.4688 9.7031-6.4688 28.109 0 18.453 6.4688 28.141 6.4688 9.7031 18.719 9.7031z"/>
</defs>
<use xlink:href="#c"/>
<use x="63.623047" xlink:href="#d"/>
<use x="95.410156" xlink:href="#c"/>
<use x="159.033203" xlink:href="#au"/>
</g>
</g>
<g clip-path="url(#a)">
<g transform="translate(412.54 299.61) scale(.1 -.1)">
<use xlink:href="#c"/>
<use x="63.623047" xlink:href="#d"/>
<use x="95.410156" xlink:href="#c"/>
<use x="159.033203" xlink:href="#m"/>
</g>
</g>
<g clip-path="url(#a)">
<g transform="translate(470.8 299.61) scale(.1 -.1)">
<use xlink:href="#c"/>
<use x="63.623047" xlink:href="#d"/>
<use x="95.410156" xlink:href="#c"/>
<use x="159.033203" xlink:href="#ae"/>
</g>
</g>
<g clip-path="url(#a)">
<g transform="translate(503.43 368.02) scale(.1 -.1)">
<use xlink:href="#c"/>
<use x="63.623047" xlink:href="#d"/>
<use x="95.410156" xlink:href="#c"/>
<use x="159.033203" xlink:href="#ad"/>
</g>
</g>
<g clip-path="url(#a)">
<g transform="translate(689.87 299.61) scale(.1 -.1)">
<use xlink:href="#c"/>
<use x="63.623047" xlink:href="#d"/>
<use x="95.410156" xlink:href="#c"/>
<use x="159.033203" xlink:href="#ac"/>
</g>
</g>
<g clip-path="url(#a)">
<g transform="translate(573.34 368.02) scale(.1 -.1)">
<use xlink:href="#c"/>
<use x="63.623047" xlink:href="#d"/>
<use x="95.410156" xlink:href="#c"/>
<use x="159.033203" xlink:href="#ab"/>
</g>
</g>
<g clip-path="url(#a)">
<g transform="translate(647.92 368.02) scale(.1 -.1)">
<use xlink:href="#c"/>
<use x="63.623047" xlink:href="#d"/>
<use x="95.410156" xlink:href="#c"/>
<use x="159.033203" xlink:href="#aa"/>
</g>
</g>
<g clip-path="url(#a)">
<g transform="translate(727.15 368.02) scale(.1 -.1)">
<use xlink:href="#c"/>
<use x="63.623047" xlink:href="#d"/>
<use x="95.410156" xlink:href="#c"/>
<use x="159.033203" xlink:href="#al"/>
</g>
</g>
<g clip-path="url(#a)">
<g transform="translate(438.18 368.02) scale(.1 -.1)">
<use xlink:href="#c"/>
<use x="63.623047" xlink:href="#d"/>
<use x="95.410156" xlink:href="#m"/>
<use x="159.033203" xlink:href="#c"/>
</g>
</g>
<g clip-path="url(#a)">
<g transform="translate(321.66 368.02) scale(.1 -.1)">
<use xlink:href="#c"/>
<use x="63.623047" xlink:href="#d"/>
<use x="95.410156" xlink:href="#m"/>
<use x="159.033203" xlink:href="#m"/>
</g>
</g>
<g clip-path="url(#a)">
<g transform="translate(28.019 368.02) scale(.1 -.1)">
<use xlink:href="#c"/>
<use x="63.623047" xlink:href="#d"/>
<use x="95.410156" xlink:href="#m"/>
<use x="159.033203" xlink:href="#ae"/>
</g>
</g>
<g clip-path="url(#a)">
<g transform="translate(42.001 368.02) scale(.1 -.1)">
<use xlink:href="#c"/>
<use x="63.623047" xlink:href="#d"/>
<use x="95.410156" xlink:href="#m"/>
<use x="159.033203" xlink:href="#ad"/>
</g>
</g>
<g clip-path="url(#a)">
<g transform="translate(60.645 368.02) scale(.1 -.1)">
<use xlink:href="#c"/>
<use x="63.623047" xlink:href="#d"/>
<use x="95.410156" xlink:href="#m"/>
<use x="159.033203" xlink:href="#ac"/>
</g>
</g>
<g clip-path="url(#a)">
<g transform="translate(270.39 368.02) scale(.1 -.1)">
<use xlink:href="#c"/>
<use x="63.623047" xlink:href="#d"/>
<use x="95.410156" xlink:href="#m"/>
<use x="159.033203" xlink:href="#am"/>
</g>
</g>
<g clip-path="url(#a)">
<g transform="translate(377.59 368.02) scale(.1 -.1)">
<use xlink:href="#c"/>
<use x="63.623047" xlink:href="#d"/>
<use x="95.410156" xlink:href="#m"/>
<use x="159.033203" xlink:href="#ab"/>
</g>
</g>
<g clip-path="url(#a)">
<g transform="translate(811.05 368.02) scale(.1 -.1)">
<use xlink:href="#c"/>
<use x="63.623047" xlink:href="#d"/>
<use x="95.410156" xlink:href="#m"/>
<use x="159.033203" xlink:href="#aa"/>
</g>
</g>
<defs>
<clipPath id="a">
<rect width="861.33" height="453.33"/>
</clipPath>
</defs>
</svg>
