<?xml version="1.0" encoding="UTF-8"?>
<!DOCTYPE svg  PUBLIC '-//W3C//DTD SVG 1.1//EN'  'http://www.w3.org/Graphics/SVG/1.1/DTD/svg11.dtd'>
<svg width="506.67pt" height="266.67pt" version="1.1" viewBox="0 0 506.67 266.67" xmlns="http://www.w3.org/2000/svg" xmlns:xlink="http://www.w3.org/1999/xlink">
<metadata>
<rdf:RDF xmlns:cc="http://creativecommons.org/ns#" xmlns:dc="http://purl.org/dc/elements/1.1/" xmlns:rdf="http://www.w3.org/1999/02/22-rdf-syntax-ns#">
<cc:Work>
<dc:type rdf:resource="http://purl.org/dc/dcmitype/StillImage"/>
<dc:date>2021-02-23T11:03:17.801934</dc:date>
<dc:format>image/svg+xml</dc:format>
<dc:creator>
<cc:Agent>
<dc:title>Matplotlib v3.3.3, https://matplotlib.org/</dc:title>
</cc:Agent>
</dc:creator>
</cc:Work>
</rdf:RDF>
</metadata>
<defs>
<style type="text/css">*{stroke-linecap:butt;stroke-linejoin:round;}</style>
</defs>
<path d="m0 266.67h506.67v-266.67h-506.67z" fill="#fff"/>
<g fill="none" stroke="#000">
<path d="m111.98 12.121v61.128" clip-path="url(#a)"/>
<path d="m111.98 73.25-88.953 121.52" clip-path="url(#a)"/>
<path d="m111.98 73.25-67.019 121.52" clip-path="url(#a)"/>
<path d="m111.98 73.25-37.775 121.52" clip-path="url(#a)"/>
<path d="m111.98 73.25 194.97 60.921" clip-path="url(#a)"/>
<path d="m111.98 73.25-1.2185 121.52" clip-path="url(#a)"/>
<path d="m23.03 194.77v59.772" clip-path="url(#a)"/>
<path d="m44.964 194.77v59.772" clip-path="url(#a)"/>
<path d="m74.209 194.77v59.772" clip-path="url(#a)"/>
<path d="m306.95 134.17-152.32 60.603" clip-path="url(#a)"/>
<path d="m306.95 134.17-101.14 60.603" clip-path="url(#a)"/>
<path d="m306.95 134.17-42.649 60.603" clip-path="url(#a)"/>
<path d="m306.95 134.17 23.152 60.603" clip-path="url(#a)"/>
<path d="m306.95 134.17 96.264 60.603" clip-path="url(#a)"/>
<path d="m306.95 134.17 176.69 60.603" clip-path="url(#a)"/>
<path d="m154.63 194.77v59.772" clip-path="url(#a)"/>
<path d="m205.81 194.77v59.772" clip-path="url(#a)"/>
<path d="m264.3 194.77v59.772" clip-path="url(#a)"/>
<path d="m330.1 194.77v59.772" clip-path="url(#a)"/>
<path d="m110.76 194.77v59.772" clip-path="url(#a)"/>
<path d="m403.21 194.77v59.772" clip-path="url(#a)"/>
<path d="m483.64 194.77v59.772" clip-path="url(#a)"/>
</g>
<path d="m105.71 39.677v6.0162q0 2.4 2.4 2.4h7.7425q2.4 0 2.4-2.4v-6.0162q0-2.4-2.4-2.4h-7.7425q-2.4 0-2.4 2.4z" clip-path="url(#a)" fill="#fff" stroke="#fff"/>
<g clip-path="url(#a)">
<g transform="translate(109.78 39.677) rotate(90) scale(.08 -.08)">
<defs>
<path id="ad" d="m9.8125 72.906h9.8594v-29.891h35.844v29.891h9.8594v-72.906h-9.8594v34.719h-35.844v-34.719h-9.8594z"/>
</defs>
<use xlink:href="#ad"/>
</g>
</g>
<path d="m70.951 139.92 3.2323-4.4159q1.4176-1.9366-0.51906-3.3542l-6.2476-4.5731q-1.9366-1.4176-3.3542 0.51906l-3.2323 4.4159q-1.4176 1.9366 0.51906 3.3542l6.2476 4.5731q1.9366 1.4176 3.3542-0.51906z" clip-path="url(#a)" fill="#fff" stroke="#fff"/>
<g clip-path="url(#a)">
<g transform="translate(67.672 137.52) rotate(-53.797) scale(.08 -.08)">
<defs>
<path id="n" d="m34.188 63.188-13.391-36.281h26.812zm-5.5781 9.7188h11.188l27.781-72.906h-10.25l-6.6406 18.703h-32.859l-6.6406-18.703h-10.406z"/>
</defs>
<use xlink:href="#n"/>
</g>
</g>
<path d="m82.8 139.15 2.3295-4.224q1.159-2.1016-0.94258-3.2606l-6.7798-3.739q-2.1016-1.159-3.2606 0.94259l-2.3295 4.224q-1.159 2.1016 0.94259 3.2606l6.7798 3.739q2.1016 1.159 3.2606-0.94259z" clip-path="url(#a)" fill="#fff" stroke="#fff"/>
<g clip-path="url(#a)">
<g transform="translate(79.242 137.19) rotate(-61.124) scale(.08 -.08)">
<defs>
<path id="u" d="m19.672 64.797v-27.391h12.406q6.8906 0 10.641 3.5625 3.7656 3.5625 3.7656 10.156 0 6.5469-3.7656 10.109-3.75 3.5625-10.641 3.5625zm-9.8594 8.1094h22.266q12.266 0 18.531-5.5469 6.2812-5.5469 6.2812-16.234 0-10.797-6.2812-16.312-6.2656-5.5156-18.531-5.5156h-12.406v-29.297h-9.8594z"/>
</defs>
<use xlink:href="#u"/>
</g>
</g>
<path d="m98.359 138.21 1.4504-4.666q0.71239-2.2918-1.5794-3.0042l-7.3935-2.2982q-2.2918-0.71239-3.0042 1.5794l-1.4504 4.666q-0.71239 2.2918 1.5794 3.0042l7.3935 2.2982q2.2918 0.71239 3.0042-1.5794z" clip-path="url(#a)" fill="#fff" stroke="#fff"/>
<g clip-path="url(#a)">
<g transform="translate(94.479 137) rotate(-72.733) scale(.08 -.08)">
<defs>
<path id="e" d="m-0.29688 72.906h61.672v-8.3125h-25.875v-64.594h-9.9062v64.594h-25.891z"/>
</defs>
<use xlink:href="#e"/>
</g>
</g>
<path d="m204.98 108.88 5.2234 1.6322q2.2908 0.7158 3.0066-1.575l2.3092-7.3901q0.7158-2.2908-1.575-3.0066l-5.2234-1.6322q-2.2908-0.7158-3.0066 1.575l-2.3092 7.3901q-0.7158 2.2908 1.575 3.0066z" clip-path="url(#a)" fill="#fff" stroke="#fff"/>
<g clip-path="url(#a)">
<g transform="translate(206.2 105) rotate(17.352) scale(.08 -.08)">
<use xlink:href="#n"/>
</g>
</g>
<path d="m117.62 137 0.058706-5.8547q0.024063-2.3999-2.3758-2.4239l-7.7421-0.077631q-2.3999-0.024064-2.4239 2.3758l-0.058706 5.8547q-0.024063 2.3999 2.3758 2.4239l7.7421 0.077631q2.3999 0.024064 2.4239-2.3758z" clip-path="url(#a)" fill="#fff" stroke="#fff"/>
<g clip-path="url(#a)">
<g transform="translate(113.55 136.96) rotate(-89.426) scale(.08 -.08)">
<defs>
<path id="p" d="m8.6875 72.906h9.9219v-44.297q0-11.719 4.2344-16.875 4.25-5.1406 13.781-5.1406 9.4688 0 13.719 5.1406 4.25 5.1562 4.25 16.875v44.297h9.9062v-45.516q0-14.25-7.0625-21.531-7.0469-7.2812-20.812-7.2812-13.828 0-20.891 7.2812-7.0469 7.2812-7.0469 21.531z"/>
</defs>
<use xlink:href="#p"/>
</g>
</g>
<path d="m16.759 207.76v33.808q0 2.4 2.4 2.4h7.7425q2.4 0 2.4-2.4v-33.808q0-2.4-2.4-2.4h-7.7425q-2.4 0-2.4 2.4z" clip-path="url(#a)" fill="#fff" stroke="#fff"/>
<g clip-path="url(#a)">
<g transform="translate(20.823 207.76) rotate(90) scale(.08 -.08)">
<defs>
<path id="l" d="m56.203 29.594v-4.3906h-41.312q0.59375-9.2812 5.5938-14.141t13.938-4.8594q5.1719 0 10.031 1.2656t9.6562 3.8125v-8.5q-4.8438-2.0469-9.9219-3.125t-10.297-1.0781q-13.094 0-20.734 7.6094-7.6406 7.625-7.6406 20.625 0 13.422 7.25 21.297 7.25 7.8906 19.562 7.8906 11.031 0 17.453-7.1094 6.4219-7.0938 6.4219-19.297zm-8.9844 2.6406q-0.09375 7.3594-4.125 11.75-4.0312 4.4062-10.672 4.4062-7.5156 0-12.031-4.25t-5.2031-11.969z"/>
<path id="g" d="m41.109 46.297q-1.5156 0.875-3.2969 1.2812-1.7812 0.42188-3.9219 0.42188-7.625 0-11.703-4.9531t-4.0781-14.234v-28.812h-9.0312v54.688h9.0312v-8.5q2.8438 4.9844 7.375 7.3906 4.5469 2.4219 11.047 2.4219 0.92188 0 2.0469-0.125 1.125-0.10938 2.4844-0.35938z"/>
<path id="i" d="m52 44.188q3.375 6.0625 8.0625 8.9375t11.031 2.875q8.5469 0 13.188-5.9844 4.6406-5.9688 4.6406-17v-33.016h-9.0312v32.719q0 7.8594-2.7969 11.656-2.7812 3.8125-8.4844 3.8125-6.9844 0-11.047-4.6406-4.0469-4.625-4.0469-12.641v-30.906h-9.0312v32.719q0 7.9062-2.7812 11.688t-8.5938 3.7812q-6.8906 0-10.953-4.6562-4.0469-4.6562-4.0469-12.625v-30.906h-9.0312v54.688h9.0312v-8.5q3.0781 5.0312 7.375 7.4219t10.203 2.3906q5.9688 0 10.141-3.0312 4.1719-3.0156 6.1719-8.7812z"/>
<path id="k" d="m9.4219 54.688h8.9844v-54.688h-8.9844zm0 21.297h8.9844v-11.391h-8.9844z"/>
<path id="h" d="m54.891 33.016v-33.016h-8.9844v32.719q0 7.7656-3.0312 11.609-3.0312 3.8594-9.0781 3.8594-7.2812 0-11.484-4.6406-4.2031-4.625-4.2031-12.641v-30.906h-9.0312v54.688h9.0312v-8.5q3.2344 4.9375 7.5938 7.375 4.375 2.4375 10.094 2.4375 9.4219 0 14.25-5.8281 4.8438-5.8281 4.8438-17.156z"/>
<path id="f" d="m34.281 27.484q-10.891 0-15.094-2.4844t-4.2031-8.5q0-4.7812 3.1562-7.5938 3.1562-2.7969 8.5625-2.7969 7.4844 0 12 5.2969t4.5156 14.078v2zm17.922 3.7188v-31.203h-8.9844v8.2969q-3.0781-4.9688-7.6719-7.3438t-11.234-2.375q-8.3906 0-13.359 4.7188-4.9531 4.7188-4.9531 12.625 0 9.2188 6.1719 13.906 6.1875 4.6875 18.438 4.6875h12.609v0.89062q0 6.2031-4.0781 9.5938t-11.453 3.3906q-4.6875 0-9.1406-1.125-4.4375-1.125-8.5312-3.375v8.3125q4.9219 1.9062 9.5625 2.8438 4.6406 0.95312 9.0312 0.95312 11.875 0 17.734-6.1562 5.8594-6.1406 5.8594-18.641z"/>
<path id="j" d="m9.4219 75.984h8.9844v-75.984h-8.9844z"/>
</defs>
<use xlink:href="#e"/>
<use x="44.083984" xlink:href="#l"/>
<use x="105.607422" xlink:href="#g"/>
<use x="144.970703" xlink:href="#i"/>
<use x="242.382812" xlink:href="#k"/>
<use x="270.166016" xlink:href="#h"/>
<use x="333.544922" xlink:href="#f"/>
<use x="394.824219" xlink:href="#j"/>
</g>
</g>
<path d="m38.693 207.76v33.808q0 2.4 2.4 2.4h7.7425q2.4 0 2.4-2.4v-33.808q0-2.4-2.4-2.4h-7.7425q-2.4 0-2.4 2.4z" clip-path="url(#a)" fill="#fff" stroke="#fff"/>
<g clip-path="url(#a)">
<g transform="translate(42.756 207.76) rotate(90) scale(.08 -.08)">
<use xlink:href="#e"/>
<use x="44.083984" xlink:href="#l"/>
<use x="105.607422" xlink:href="#g"/>
<use x="144.970703" xlink:href="#i"/>
<use x="242.382812" xlink:href="#k"/>
<use x="270.166016" xlink:href="#h"/>
<use x="333.544922" xlink:href="#f"/>
<use x="394.824219" xlink:href="#j"/>
</g>
</g>
<path d="m67.938 207.76v33.808q0 2.4 2.4 2.4h7.7425q2.4 0 2.4-2.4v-33.808q0-2.4-2.4-2.4h-7.7425q-2.4 0-2.4 2.4z" clip-path="url(#a)" fill="#fff" stroke="#fff"/>
<g clip-path="url(#a)">
<g transform="translate(72.001 207.76) rotate(90) scale(.08 -.08)">
<use xlink:href="#e"/>
<use x="44.083984" xlink:href="#l"/>
<use x="105.607422" xlink:href="#g"/>
<use x="144.970703" xlink:href="#i"/>
<use x="242.382812" xlink:href="#k"/>
<use x="270.166016" xlink:href="#h"/>
<use x="333.544922" xlink:href="#f"/>
<use x="394.824219" xlink:href="#j"/>
</g>
</g>
<path d="m230.53 171.33 5.1649-2.055q2.23-0.88725 1.3427-3.1172l-2.8623-7.194q-0.88725-2.23-3.1172-1.3427l-5.1649 2.055q-2.23 0.88725-1.3427 3.1172l2.8623 7.194q0.88725 2.23 3.1172 1.3427z" clip-path="url(#a)" fill="#fff" stroke="#fff"/>
<g clip-path="url(#a)">
<g transform="translate(229.02 167.55) rotate(-21.696) scale(.08 -.08)">
<defs>
<path id="ac" d="m44.391 34.188q3.1719-1.0781 6.1719-4.5938t6.0312-9.6719l10.016-19.922h-10.609l-9.3125 18.703q-3.625 7.3281-7.0156 9.7188t-9.25 2.3906h-10.75v-30.812h-9.8594v72.906h22.266q12.5 0 18.656-5.2344 6.1562-5.2188 6.1562-15.766 0-6.8906-3.2031-11.438-3.2031-4.5312-9.2969-6.2812zm-24.719 30.609v-25.875h12.406q7.125 0 10.766 3.2969t3.6406 9.6875-3.6406 9.6406-10.766 3.25z"/>
</defs>
<use xlink:href="#ac"/>
</g>
</g>
<path d="m257.26 171.26 4.6943-2.8129q2.0587-1.2336 0.8251-3.2923l-3.9796-6.6415q-1.2336-2.0587-3.2923-0.82511l-4.6943 2.8129q-2.0587 1.2336-0.82511 3.2923l3.9796 6.6415q1.2336 2.0587 3.2923 0.82511z" clip-path="url(#a)" fill="#fff" stroke="#fff"/>
<g clip-path="url(#a)">
<g transform="translate(255.17 167.77) rotate(-30.93) scale(.08 -.08)">
<use xlink:href="#n"/>
</g>
</g>
<path d="m289.37 170.05 2.7761-3.9448q1.3812-1.9627-0.58148-3.3439l-6.3318-4.4559q-1.9627-1.3812-3.3439 0.58148l-2.7761 3.9448q-1.3812 1.9627 0.58148 3.3439l6.3318 4.4559q1.9627 1.3812 3.3439-0.58148z" clip-path="url(#a)" fill="#fff" stroke="#fff"/>
<g clip-path="url(#a)">
<g transform="translate(286.04 167.72) rotate(-54.865) scale(.08 -.08)">
<use xlink:href="#u"/>
</g>
</g>
<path d="m311.69 164.15 1.953 5.1122q0.8565 2.242 3.0985 1.3855l7.2327-2.7631q2.242-0.8565 1.3855-3.0985l-1.953-5.1122q-0.8565-2.242-3.0985-1.3855l-7.2327 2.7631q-2.242 0.8565-1.3855 3.0985z" clip-path="url(#a)" fill="#fff" stroke="#fff"/>
<g clip-path="url(#a)">
<g transform="translate(315.49 162.7) rotate(69.092) scale(.08 -.08)">
<use xlink:href="#n"/>
</g>
</g>
<path d="m349.26 168.22 4.9549 3.1193q2.031 1.2786 3.3097-0.7524l4.1249-6.5522q1.2786-2.031-0.7524-3.3097l-4.9549-3.1193q-2.031-1.2786-3.3097 0.7524l-4.1249 6.5522q-1.2786 2.031 0.7524 3.3097z" clip-path="url(#a)" fill="#fff" stroke="#fff"/>
<g clip-path="url(#a)">
<g transform="translate(351.43 164.78) rotate(32.192) scale(.08 -.08)">
<use xlink:href="#p"/>
</g>
</g>
<path d="m390.49 169.45 5.5383 1.8996q2.2702 0.77866 3.0488-1.4915l2.512-7.3237q0.77866-2.2702-1.4915-3.0488l-5.5383-1.8996q-2.2702-0.77866-3.0488 1.4915l-2.512 7.3237q-0.77866 2.2702 1.4915 3.0488z" clip-path="url(#a)" fill="#fff" stroke="#fff"/>
<g clip-path="url(#a)">
<g transform="translate(391.81 165.61) rotate(18.932) scale(.08 -.08)">
<use xlink:href="#p"/>
</g>
</g>
<path d="m148.36 207.76v33.808q0 2.4 2.4 2.4h7.7425q2.4 0 2.4-2.4v-33.808q0-2.4-2.4-2.4h-7.7425q-2.4 0-2.4 2.4z" clip-path="url(#a)" fill="#fff" stroke="#fff"/>
<g clip-path="url(#a)">
<g transform="translate(152.42 207.76) rotate(90) scale(.08 -.08)">
<use xlink:href="#e"/>
<use x="44.083984" xlink:href="#l"/>
<use x="105.607422" xlink:href="#g"/>
<use x="144.970703" xlink:href="#i"/>
<use x="242.382812" xlink:href="#k"/>
<use x="270.166016" xlink:href="#h"/>
<use x="333.544922" xlink:href="#f"/>
<use x="394.824219" xlink:href="#j"/>
</g>
</g>
<path d="m199.54 207.76v33.808q0 2.4 2.4 2.4h7.7425q2.4 0 2.4-2.4v-33.808q0-2.4-2.4-2.4h-7.7425q-2.4 0-2.4 2.4z" clip-path="url(#a)" fill="#fff" stroke="#fff"/>
<g clip-path="url(#a)">
<g transform="translate(203.6 207.76) rotate(90) scale(.08 -.08)">
<use xlink:href="#e"/>
<use x="44.083984" xlink:href="#l"/>
<use x="105.607422" xlink:href="#g"/>
<use x="144.970703" xlink:href="#i"/>
<use x="242.382812" xlink:href="#k"/>
<use x="270.166016" xlink:href="#h"/>
<use x="333.544922" xlink:href="#f"/>
<use x="394.824219" xlink:href="#j"/>
</g>
</g>
<path d="m258.03 207.76v33.808q0 2.4 2.4 2.4h7.7425q2.4 0 2.4-2.4v-33.808q0-2.4-2.4-2.4h-7.7425q-2.4 0-2.4 2.4z" clip-path="url(#a)" fill="#fff" stroke="#fff"/>
<g clip-path="url(#a)">
<g transform="translate(262.09 207.76) rotate(90) scale(.08 -.08)">
<use xlink:href="#e"/>
<use x="44.083984" xlink:href="#l"/>
<use x="105.607422" xlink:href="#g"/>
<use x="144.970703" xlink:href="#i"/>
<use x="242.382812" xlink:href="#k"/>
<use x="270.166016" xlink:href="#h"/>
<use x="333.544922" xlink:href="#f"/>
<use x="394.824219" xlink:href="#j"/>
</g>
</g>
<path d="m323.83 207.76v33.808q0 2.4 2.4 2.4h7.7425q2.4 0 2.4-2.4v-33.808q0-2.4-2.4-2.4h-7.7425q-2.4 0-2.4 2.4z" clip-path="url(#a)" fill="#fff" stroke="#fff"/>
<g clip-path="url(#a)">
<g transform="translate(327.89 207.76) rotate(90) scale(.08 -.08)">
<use xlink:href="#e"/>
<use x="44.083984" xlink:href="#l"/>
<use x="105.607422" xlink:href="#g"/>
<use x="144.970703" xlink:href="#i"/>
<use x="242.382812" xlink:href="#k"/>
<use x="270.166016" xlink:href="#h"/>
<use x="333.544922" xlink:href="#f"/>
<use x="394.824219" xlink:href="#j"/>
</g>
</g>
<path d="m104.49 207.76v33.808q0 2.4 2.4 2.4h7.7425q2.4 0 2.4-2.4v-33.808q0-2.4-2.4-2.4h-7.7425q-2.4 0-2.4 2.4z" clip-path="url(#a)" fill="#fff" stroke="#fff"/>
<g clip-path="url(#a)">
<g transform="translate(108.56 207.76) rotate(90) scale(.08 -.08)">
<use xlink:href="#e"/>
<use x="44.083984" xlink:href="#l"/>
<use x="105.607422" xlink:href="#g"/>
<use x="144.970703" xlink:href="#i"/>
<use x="242.382812" xlink:href="#k"/>
<use x="270.166016" xlink:href="#h"/>
<use x="333.544922" xlink:href="#f"/>
<use x="394.824219" xlink:href="#j"/>
</g>
</g>
<path d="m396.94 207.76v33.808q0 2.4 2.4 2.4h7.7425q2.4 0 2.4-2.4v-33.808q0-2.4-2.4-2.4h-7.7425q-2.4 0-2.4 2.4z" clip-path="url(#a)" fill="#fff" stroke="#fff"/>
<g clip-path="url(#a)">
<g transform="translate(401.01 207.76) rotate(90) scale(.08 -.08)">
<use xlink:href="#e"/>
<use x="44.083984" xlink:href="#l"/>
<use x="105.607422" xlink:href="#g"/>
<use x="144.970703" xlink:href="#i"/>
<use x="242.382812" xlink:href="#k"/>
<use x="270.166016" xlink:href="#h"/>
<use x="333.544922" xlink:href="#f"/>
<use x="394.824219" xlink:href="#j"/>
</g>
</g>
<path d="m477.37 207.76v33.808q0 2.4 2.4 2.4h7.7425q2.4 0 2.4-2.4v-33.808q0-2.4-2.4-2.4h-7.7425q-2.4 0-2.4 2.4z" clip-path="url(#a)" fill="#fff" stroke="#fff"/>
<g clip-path="url(#a)">
<g transform="translate(481.43 207.76) rotate(90) scale(.08 -.08)">
<use xlink:href="#e"/>
<use x="44.083984" xlink:href="#l"/>
<use x="105.607422" xlink:href="#g"/>
<use x="144.970703" xlink:href="#i"/>
<use x="242.382812" xlink:href="#k"/>
<use x="270.166016" xlink:href="#h"/>
<use x="333.544922" xlink:href="#f"/>
<use x="394.824219" xlink:href="#j"/>
</g>
</g>
<defs>
<path id="b" d="m0 8.6603c2.2967 0 4.4997-0.9125 6.1237-2.5365 1.624-1.624 2.5365-3.827 2.5365-6.1237s-0.9125-4.4997-2.5365-6.1237c-1.624-1.624-3.827-2.5365-6.1237-2.5365s-4.4997 0.9125-6.1237 2.5365c-1.624 1.624-2.5365 3.827-2.5365 6.1237s0.9125 4.4997 2.5365 6.1237c1.624 1.624 3.827 2.5365 6.1237 2.5365z"/>
</defs>
<g clip-path="url(#a)" fill="#ffffff" stroke="#ffffff">
<use x="23.030303" y="254.545455" xlink:href="#b"/>
<use x="44.963925" y="254.545455" xlink:href="#b"/>
<use x="74.208754" y="254.545455" xlink:href="#b"/>
<use x="110.764791" y="254.545455" xlink:href="#b"/>
<use x="154.632035" y="254.545455" xlink:href="#b"/>
<use x="205.810486" y="254.545455" xlink:href="#b"/>
<use x="264.300144" y="254.545455" xlink:href="#b"/>
<use x="330.10101" y="254.545455" xlink:href="#b"/>
<use x="403.213083" y="254.545455" xlink:href="#b"/>
<use x="483.636364" y="254.545455" xlink:href="#b"/>
<use x="111.983325" y="12.121212" xlink:href="#b"/>
<use x="111.983325" y="73.249579" xlink:href="#b"/>
<use x="23.030303" y="194.773775" xlink:href="#b"/>
<use x="44.963925" y="194.773775" xlink:href="#b"/>
<use x="74.208754" y="194.773775" xlink:href="#b"/>
<use x="306.948854" y="134.170607" xlink:href="#b"/>
<use x="154.632035" y="194.773775" xlink:href="#b"/>
<use x="205.810486" y="194.773775" xlink:href="#b"/>
<use x="264.300144" y="194.773775" xlink:href="#b"/>
<use x="330.10101" y="194.773775" xlink:href="#b"/>
<use x="110.764791" y="194.773775" xlink:href="#b"/>
<use x="403.213083" y="194.773775" xlink:href="#b"/>
<use x="483.636364" y="194.773775" xlink:href="#b"/>
</g>
<g clip-path="url(#a)">
<g transform="translate(4.1326 257.3) scale(.1 -.1)">
<defs>
<path id="aq" d="m65.375 0h-55.562v72.906h9.8594v-64.609h35.844v64.609h9.8594v-64.609h8.3125v-23.969h-8.3125z"/>
<path id="t" d="m18.062 25.203v-18.031h12.797q6.1562 0 9.375 2.3125 3.2188 2.3281 3.2188 6.7344 0 4.3906-3.2188 6.6875t-9.375 2.2969zm0 22.312v-15.141h11.828q5.0781 0 8.2969 2.0156 3.2188 2.0312 3.2188 5.6562 0 3.6094-3.2188 5.5312-3.2188 1.9375-8.2969 1.9375zm-8.9844 7.1719h21.391q9.625 0 14.797-3.5156t5.1719-10.016q0-5.0156-2.6406-7.9844-2.625-2.9531-7.8125-3.6719 6.2031-1.1719 9.625-4.8906 3.4219-3.7031 3.4219-9.2812 0-7.3125-5.6406-11.328-5.6406-4-16.094-4h-22.219z"/>
<path id="r" d="m56.203 29.594v-4.3906h-41.312q0.59375-9.2812 5.5938-14.141t13.938-4.8594q5.1719 0 10.031 1.2656t9.6562 3.8125v-8.5q-4.8438-2.0469-9.9219-3.125t-10.297-1.0781q-13.094 0-20.734 7.6094-7.6406 7.625-7.6406 20.625 0 13.422 7.25 21.297 7.25 7.8906 19.562 7.8906 11.031 0 17.453-7.1094 6.4219-7.0938 6.4219-19.297zm-8.9844 2.6406q-0.09375 7.3594-4.125 11.75-4.0312 4.4062-10.672 4.4062-7.5156 0-12.031-4.25t-5.2031-11.969z"/>
<path id="an" d="m2.9375 54.688h52.391v-7.1719h-21.781v-47.516h-8.8438v47.516h-21.766z"/>
<path id="q" d="m30.609 48.391q-7.2188 0-11.422-5.6406t-4.2031-15.453 4.1719-15.453q4.1875-5.6406 11.453-5.6406 7.1875 0 11.375 5.6562 4.2031 5.6719 4.2031 15.438 0 9.7188-4.2031 15.406-4.1875 5.6875-11.375 5.6875zm0 7.6094q11.719 0 18.406-7.625 6.7031-7.6094 6.7031-21.078 0-13.422-6.7031-21.078-6.6875-7.6406-18.406-7.6406-11.766 0-18.438 7.6406-6.6562 7.6562-6.6562 21.078 0 13.469 6.6562 21.078 6.6719 7.625 18.438 7.625z"/>
<path id="o" d="m9.0781 54.688h8.9375v-25.688l25.344 25.688h11.031l-20.891-21.141 23.578-33.547h-10.062l-19.375 27.594-9.625-9.7656v-17.828h-8.9375z"/>
</defs>
<use xlink:href="#aq"/>
<use x="77.636719" xlink:href="#t"/>
<use x="136.572266" xlink:href="#r"/>
<use x="198.095703" xlink:href="#an"/>
<use x="256.347656" xlink:href="#q"/>
<use x="317.529297" xlink:href="#o"/>
</g>
</g>
<g clip-path="url(#a)">
<g transform="translate(29.038 257.3) scale(.1 -.1)">
<defs>
<path id="ab" d="m55.906 54.688v-54.688h-8.9375v43.891l-26.359-43.891h-11.531v54.688h8.9375v-43.797l26.328 43.797z"/>
<path id="s" d="m21.625 7.1719h26.078v40.344h-18.891v-6.8438q0-20.109-5.7656-30.859zm-13.031 0q4.4375 1.9531 6.3906 6.1094 4.7969 10.297 4.7969 31.062v10.344h36.953v-47.516h7.1875v-20.984h-7.1875v13.812h-44.328v-13.812h-7.1875v20.984z"/>
<path id="aa" d="m3.7188 0v7.4688q8.875 1.375 11.609 7.5156 3.3281 8.6562 3.3281 30.766v8.9375h36.953v-54.688h-8.9844v47.516h-18.984v-5.4219q0-21.094-4.2969-30.562-4.5938-10.109-19.625-11.531z"/>
</defs>
<use xlink:href="#t"/>
<use x="58.935547" xlink:href="#ab"/>
<use x="123.925781" xlink:href="#s"/>
<use x="193.066406" xlink:href="#r"/>
<use x="254.589844" xlink:href="#aa"/>
</g>
</g>
<g clip-path="url(#a)">
<g transform="translate(49.45 257.3) scale(.1 -.1)">
<defs>
<path id="y" d="m9.0781 54.688h9.0312v-22.312h29.156v22.312h9.0312v-54.688h-9.0312v25.203h-29.156v-25.203h-9.0312z"/>
<path id="m" d="m34.281 27.484q-10.891 0-15.094-2.4844t-4.2031-8.5q0-4.7812 3.1562-7.5938 3.1562-2.7969 8.5625-2.7969 7.4844 0 12 5.2969t4.5156 14.078v2zm17.922 3.7188v-31.203h-8.9844v8.2969q-3.0781-4.9688-7.6719-7.3438t-11.234-2.375q-8.3906 0-13.359 4.7188-4.9531 4.7188-4.9531 12.625 0 9.2188 6.1719 13.906 6.1875 4.6875 18.438 4.6875h12.609v0.89062q0 6.2031-4.0781 9.5938t-11.453 3.3906q-4.6875 0-9.1406-1.125-4.4375-1.125-8.5312-3.375v8.3125q4.9219 1.9062 9.5625 2.8438 4.6406 0.95312 9.0312 0.95312 11.875 0 17.734-6.1562 5.8594-6.1406 5.8594-18.641z"/>
<path id="ap" d="m40.578 54.688h8.9375v-25.688l23.875 25.688h10.453l-19.641-21.047 22.469-33.641h-9.625l-18.406 27.641-9.125-9.8125v-17.828h-8.9375v17.828l-9.125 9.8125-18.422-27.641h-9.6094l22.453 33.641-19.625 21.047h10.453l23.875-25.688z"/>
<path id="al" d="m61.047 54.688h8.9844v-54.688h-8.9844zm4.5 1.3125m-22.094-39.781q0 4.3906-3.2031 6.6875-3.1875 2.2969-9.3438 2.2969h-12.797v-18.031h12.797q6.1562 0 9.3438 2.3125 3.2031 2.3281 3.2031 6.7344zm-34.375 38.469h9.0312v-22.312h13.188q10.453 0 16.094-3.9844 5.6406-3.9688 5.6406-12.172t-5.6406-12.219q-5.6406-4-16.094-4h-22.219z"/>
</defs>
<use xlink:href="#q"/>
<use x="61.181641" xlink:href="#s"/>
<use x="130.322266" xlink:href="#y"/>
<use x="195.703125" xlink:href="#m"/>
<use x="256.982422" xlink:href="#ap"/>
<use x="347.070312" xlink:href="#s"/>
<use x="416.210938" xlink:href="#al"/>
</g>
</g>
<g clip-path="url(#a)">
<g transform="translate(109.18 257.3) scale(.1 -.1)">
<defs>
<path id="ak" d="m11.719 12.406h10.297v-8.4062l-8-15.625h-6.2969l4 15.625z"/>
</defs>
<use xlink:href="#ak"/>
</g>
</g>
<g clip-path="url(#a)">
<g transform="translate(145.53 257.3) scale(.1 -.1)">
<use xlink:href="#o"/>
<use x="60.400391" xlink:href="#m"/>
<use x="121.679688" xlink:href="#o"/>
</g>
</g>
<g clip-path="url(#a)">
<g transform="translate(191.96 257.3) scale(.1 -.1)">
<defs>
<path id="z" d="m9.0781 54.688h13.141l15.531-36.625 15.578 36.625h13.031v-54.688h-9.0312v46.094l-15.094-35.594h-8.9844l-15.141 35.594v-46.094h-9.0312z"/>
</defs>
<use xlink:href="#z"/>
<use x="75.439453" xlink:href="#ab"/>
<use x="140.429688" xlink:href="#z"/>
<use x="215.869141" xlink:href="#q"/>
</g>
</g>
<g clip-path="url(#a)">
<g transform="translate(253.45 257.3) scale(.1 -.1)">
<defs>
<path id="am" d="m50.25 7.1719h23.141v47.516h9.0312v-54.688h-73.344v54.688h9.0312v-47.516h23.109v47.516h9.0312z"/>
</defs>
<use xlink:href="#am"/>
<use x="91.503906" xlink:href="#r"/>
<use x="153.027344" xlink:href="#aa"/>
</g>
</g>
<g clip-path="url(#a)">
<g transform="translate(308.5 257.3) scale(.1 -.1)">
<defs>
<path id="ao" d="m18.109 8.2031v-29h-9.0312v75.484h9.0312v-8.2969q2.8438 4.875 7.1562 7.2344 4.3281 2.375 10.328 2.375 9.9688 0 16.188-7.9062 6.2344-7.9062 6.2344-20.797t-6.2344-20.812q-6.2188-7.9062-16.188-7.9062-6 0-10.328 2.375-4.3125 2.375-7.1562 7.25zm30.578 19.094q0 9.9062-4.0781 15.547t-11.203 5.6406q-7.1406 0-11.219-5.6406t-4.0781-15.547 4.0781-15.547 11.219-5.6406q7.125 0 11.203 5.6406t4.0781 15.547z"/>
</defs>
<use xlink:href="#o"/>
<use x="60.400391" xlink:href="#m"/>
<use x="121.679688" xlink:href="#ao"/>
<use x="185.15625" xlink:href="#m"/>
<use x="246.435547" xlink:href="#t"/>
<use x="305.371094" xlink:href="#m"/>
<use x="366.650391" xlink:href="#y"/>
</g>
</g>
<g clip-path="url(#a)">
<g transform="translate(401.62 257.3) scale(.1 -.1)">
<defs>
<path id="d" d="m10.688 12.406h10.312v-12.406h-10.312z"/>
</defs>
<use xlink:href="#d"/>
</g>
</g>
<g clip-path="url(#a)">
<g transform="translate(481.83 257.3) scale(.1 -.1)">
<defs>
<path id="aj" d="m4.8906 31.391h26.312v-8h-26.312z"/>
</defs>
<use xlink:href="#aj"/>
</g>
</g>
<g clip-path="url(#a)">
<g transform="translate(104.03 14.881) scale(.1 -.1)">
<defs>
<path id="c" d="m12.406 8.2969h16.109v55.625l-17.531-3.5156v8.9844l17.438 3.5156h9.8594v-64.609h16.109v-8.2969h-41.984z"/>
</defs>
<use xlink:href="#c"/>
<use x="63.623047" xlink:href="#d"/>
<use x="95.410156" xlink:href="#c"/>
</g>
</g>
<g clip-path="url(#a)">
<g transform="translate(104.03 76.009) scale(.1 -.1)">
<defs>
<path id="x" d="m19.188 8.2969h34.422v-8.2969h-46.281v8.2969q5.6094 5.8125 15.297 15.594 9.7031 9.7969 12.188 12.641 4.7344 5.3125 6.6094 9 1.8906 3.6875 1.8906 7.25 0 5.8125-4.0781 9.4688-4.0781 3.6719-10.625 3.6719-4.6406 0-9.7969-1.6094-5.1406-1.6094-11-4.8906v9.9688q5.9531 2.3906 11.125 3.6094 5.1875 1.2188 9.4844 1.2188 11.328 0 18.062-5.6719 6.7344-5.6562 6.7344-15.125 0-4.5-1.6875-8.5312-1.6719-4.0156-6.125-9.4844-1.2188-1.4219-7.7656-8.1875-6.5312-6.7656-18.453-18.922z"/>
</defs>
<use xlink:href="#c"/>
<use x="63.623047" xlink:href="#d"/>
<use x="95.410156" xlink:href="#x"/>
</g>
</g>
<g clip-path="url(#a)">
<g transform="translate(15.079 197.53) scale(.1 -.1)">
<defs>
<path id="w" d="m10.797 72.906h38.719v-8.3125h-29.688v-17.859q2.1406 0.73438 4.2812 1.0938 2.1562 0.35938 4.3125 0.35938 12.203 0 19.328-6.6875 7.1406-6.6875 7.1406-18.109 0-11.766-7.3281-18.297-7.3281-6.5156-20.656-6.5156-4.5938 0-9.3594 0.78125-4.75 0.78125-9.8281 2.3438v9.9219q4.3906-2.3906 9.0781-3.5625t9.9062-1.1719q8.4531 0 13.375 4.4375 4.9375 4.4375 4.9375 12.062 0 7.6094-4.9375 12.047-4.9219 4.4531-13.375 4.4531-3.9531 0-7.8906-0.875-3.9219-0.875-8.0156-2.7344z"/>
</defs>
<use xlink:href="#c"/>
<use x="63.623047" xlink:href="#d"/>
<use x="95.410156" xlink:href="#w"/>
</g>
</g>
<g clip-path="url(#a)">
<g transform="translate(37.012 197.53) scale(.1 -.1)">
<defs>
<path id="v" d="m33.016 40.375q-6.6406 0-10.531-4.5469-3.875-4.5312-3.875-12.438 0-7.8594 3.875-12.438 3.8906-4.5625 10.531-4.5625t10.516 4.5625q3.875 4.5781 3.875 12.438 0 7.9062-3.875 12.438-3.875 4.5469-10.516 4.5469zm19.578 30.922v-8.9844q-3.7188 1.75-7.5 2.6719-3.7812 0.9375-7.5 0.9375-9.7656 0-14.922-6.5938-5.1406-6.5938-5.875-19.922 2.875 4.25 7.2188 6.5156 4.3594 2.2656 9.5781 2.2656 10.984 0 17.359-6.6719 6.375-6.6562 6.375-18.125 0-11.234-6.6406-18.031-6.6406-6.7812-17.672-6.7812-12.656 0-19.344 9.6875-6.6875 9.7031-6.6875 28.109 0 17.281 8.2031 27.562t22.016 10.281q3.7188 0 7.5-0.73438t7.8906-2.1875z"/>
</defs>
<use xlink:href="#c"/>
<use x="63.623047" xlink:href="#d"/>
<use x="95.410156" xlink:href="#v"/>
</g>
</g>
<g clip-path="url(#a)">
<g transform="translate(66.257 197.53) scale(.1 -.1)">
<defs>
<path id="af" d="m8.2031 72.906h46.875v-4.2031l-26.469-68.703h-10.297l24.906 64.594h-35.016z"/>
</defs>
<use xlink:href="#c"/>
<use x="63.623047" xlink:href="#d"/>
<use x="95.410156" xlink:href="#af"/>
</g>
</g>
<g clip-path="url(#a)">
<g transform="translate(299 136.93) scale(.1 -.1)">
<defs>
<path id="ae" d="m31.781 34.625q-7.0312 0-11.062-3.7656-4.0156-3.7656-4.0156-10.344 0-6.5938 4.0156-10.359 4.0312-3.7656 11.062-3.7656t11.078 3.7812q4.0625 3.7969 4.0625 10.344 0 6.5781-4.0312 10.344-4.0156 3.7656-11.109 3.7656zm-9.8594 4.1875q-6.3438 1.5625-9.8906 5.9062-3.5312 4.3594-3.5312 10.609 0 8.7344 6.2188 13.812 6.2344 5.0781 17.062 5.0781 10.891 0 17.094-5.0781t6.2031-13.812q0-6.25-3.5469-10.609-3.5312-4.3438-9.8281-5.9062 7.125-1.6562 11.094-6.5 3.9844-4.8281 3.9844-11.797 0-10.609-6.4688-16.281-6.4688-5.6562-18.531-5.6562-12.047 0-18.531 5.6562-6.4688 5.6719-6.4688 16.281 0 6.9688 4 11.797 4.0156 4.8438 11.141 6.5zm-3.6094 15.578q0-5.6562 3.5312-8.8281 3.5469-3.1719 9.9375-3.1719 6.3594 0 9.9375 3.1719 3.5938 3.1719 3.5938 8.8281 0 5.6719-3.5938 8.8438-3.5781 3.1719-9.9375 3.1719-6.3906 0-9.9375-3.1719-3.5312-3.1719-3.5312-8.8438z"/>
</defs>
<use xlink:href="#c"/>
<use x="63.623047" xlink:href="#d"/>
<use x="95.410156" xlink:href="#ae"/>
</g>
</g>
<g clip-path="url(#a)">
<g transform="translate(143.5 197.53) scale(.1 -.1)">
<defs>
<path id="ai" d="m31.781 66.406q-7.6094 0-11.453-7.5-3.8281-7.4844-3.8281-22.531 0-14.984 3.8281-22.484 3.8438-7.5 11.453-7.5 7.6719 0 11.5 7.5 3.8438 7.5 3.8438 22.484 0 15.047-3.8438 22.531-3.8281 7.5-11.5 7.5zm0 7.8125q12.266 0 18.734-9.7031 6.4688-9.6875 6.4688-28.141 0-18.406-6.4688-28.109-6.4688-9.6875-18.734-9.6875-12.25 0-18.719 9.6875-6.4688 9.7031-6.4688 28.109 0 18.453 6.4688 28.141 6.4688 9.7031 18.719 9.7031z"/>
</defs>
<use xlink:href="#c"/>
<use x="63.623047" xlink:href="#d"/>
<use x="95.410156" xlink:href="#c"/>
<use x="159.033203" xlink:href="#ai"/>
</g>
</g>
<g clip-path="url(#a)">
<g transform="translate(194.68 197.53) scale(.1 -.1)">
<use xlink:href="#c"/>
<use x="63.623047" xlink:href="#d"/>
<use x="95.410156" xlink:href="#c"/>
<use x="159.033203" xlink:href="#c"/>
</g>
</g>
<g clip-path="url(#a)">
<g transform="translate(253.17 197.53) scale(.1 -.1)">
<use xlink:href="#c"/>
<use x="63.623047" xlink:href="#d"/>
<use x="95.410156" xlink:href="#c"/>
<use x="159.033203" xlink:href="#x"/>
</g>
</g>
<g clip-path="url(#a)">
<g transform="translate(318.97 197.53) scale(.1 -.1)">
<defs>
<path id="ah" d="m40.578 39.312q7.0781-1.5156 11.047-6.3125 3.9844-4.7812 3.9844-11.812 0-10.781-7.4219-16.703-7.4219-5.9062-21.094-5.9062-4.5781 0-9.4375 0.90625t-10.031 2.7188v9.5156q4.0938-2.3906 8.9688-3.6094 4.8906-1.2188 10.219-1.2188 9.2656 0 14.125 3.6562t4.8594 10.641q0 6.4531-4.5156 10.078-4.5156 3.6406-12.562 3.6406h-8.5v8.1094h8.8906q7.2656 0 11.125 2.9062t3.8594 8.375q0 5.6094-3.9844 8.6094-3.9688 3.0156-11.391 3.0156-4.0625 0-8.7031-0.89062-4.6406-0.875-10.203-2.7188v8.7812q5.625 1.5625 10.531 2.3438t9.25 0.78125q11.234 0 17.766-5.1094 6.5469-5.0938 6.5469-13.781 0-6.0625-3.4688-10.234t-9.8594-5.7812z"/>
</defs>
<use xlink:href="#c"/>
<use x="63.623047" xlink:href="#d"/>
<use x="95.410156" xlink:href="#c"/>
<use x="159.033203" xlink:href="#ah"/>
</g>
</g>
<g clip-path="url(#a)">
<g transform="translate(99.632 197.53) scale(.1 -.1)">
<defs>
<path id="ag" d="m37.797 64.312-24.906-38.922h24.906zm-2.5938 8.5938h12.406v-47.516h10.406v-8.2031h-10.406v-17.188h-9.8125v17.188h-32.906v9.5156z"/>
</defs>
<use xlink:href="#c"/>
<use x="63.623047" xlink:href="#d"/>
<use x="95.410156" xlink:href="#c"/>
<use x="159.033203" xlink:href="#ag"/>
</g>
</g>
<g clip-path="url(#a)">
<g transform="translate(392.08 197.53) scale(.1 -.1)">
<use xlink:href="#c"/>
<use x="63.623047" xlink:href="#d"/>
<use x="95.410156" xlink:href="#c"/>
<use x="159.033203" xlink:href="#w"/>
</g>
</g>
<g clip-path="url(#a)">
<g transform="translate(472.5 197.53) scale(.1 -.1)">
<use xlink:href="#c"/>
<use x="63.623047" xlink:href="#d"/>
<use x="95.410156" xlink:href="#c"/>
<use x="159.033203" xlink:href="#v"/>
</g>
</g>
<defs>
<clipPath id="a">
<rect width="506.67" height="266.67"/>
</clipPath>
</defs>
</svg>
