<?xml version="1.0" encoding="UTF-8"?>
<!DOCTYPE svg  PUBLIC '-//W3C//DTD SVG 1.1//EN'  'http://www.w3.org/Graphics/SVG/1.1/DTD/svg11.dtd'>
<svg width="2026.7pt" height="1066.7pt" version="1.1" viewBox="0 0 2026.7 1066.7" xmlns="http://www.w3.org/2000/svg" xmlns:xlink="http://www.w3.org/1999/xlink">
<metadata>
<rdf:RDF xmlns:cc="http://creativecommons.org/ns#" xmlns:dc="http://purl.org/dc/elements/1.1/" xmlns:rdf="http://www.w3.org/1999/02/22-rdf-syntax-ns#">
<cc:Work>
<dc:type rdf:resource="http://purl.org/dc/dcmitype/StillImage"/>
<dc:date>2021-01-13T08:49:20.120572</dc:date>
<dc:format>image/svg+xml</dc:format>
<dc:creator>
<cc:Agent>
<dc:title>Matplotlib v3.3.3, https://matplotlib.org/</dc:title>
</cc:Agent>
</dc:creator>
</cc:Work>
</rdf:RDF>
</metadata>
<defs>
<style type="text/css">*{stroke-linecap:butt;stroke-linejoin:round;}</style>
</defs>
<path d="m0 1066.7h2026.7v-1066.7h-2026.7z" fill="#fff"/>
<g fill="none" stroke="#000">
<path d="m649.53 48.485-528.46 488.2" clip-path="url(#a)"/>
<path d="m649.53 48.485-266.02 163.09" clip-path="url(#a)"/>
<path d="m649.53 48.485 682.45 163.09" clip-path="url(#a)"/>
<path d="m649.53 48.485 30.275 810.95" clip-path="url(#a)"/>
<path d="m649.53 48.485 81.751 810.95" clip-path="url(#a)"/>
<path d="m121.08 536.68-11.797 322.75" clip-path="url(#a)"/>
<path d="m121.08 536.68-1.0724 322.75" clip-path="url(#a)"/>
<path d="m121.08 536.68-25.738 161.8" clip-path="url(#a)"/>
<path d="m121.08 536.68 11.797 322.75" clip-path="url(#a)"/>
<path d="m121.08 536.68 26.811 322.75" clip-path="url(#a)"/>
<path d="m383.52 211.57 3.0181 162.76" clip-path="url(#a)"/>
<path d="m383.52 211.57-38.306 647.86" clip-path="url(#a)"/>
<path d="m383.52 211.57 23.358 162.76" clip-path="url(#a)"/>
<path d="m383.52 211.57-100.51 647.86" clip-path="url(#a)"/>
<path d="m383.52 211.57-70.479 647.86" clip-path="url(#a)"/>
<path d="m383.52 211.57 71.081 647.86" clip-path="url(#a)"/>
<path d="m383.52 211.57 111.83 647.86" clip-path="url(#a)"/>
<path d="m1332 211.57 9.4067 162.76" clip-path="url(#a)"/>
<path d="m1332 211.57-40.89 647.86" clip-path="url(#a)"/>
<path d="m1332 211.57 32.035 647.86" clip-path="url(#a)"/>
<path d="m1332 211.57-180.31 647.86" clip-path="url(#a)"/>
<path d="m1332 211.57-111.67 647.86" clip-path="url(#a)"/>
<path d="m1332 211.57 107.1 647.86" clip-path="url(#a)"/>
<path d="m1332 211.57 184.32 647.86" clip-path="url(#a)"/>
<path d="m1341.4 374.33-421.57 162.35" clip-path="url(#a)"/>
<path d="m1341.4 374.33 421.57 324.15" clip-path="url(#a)"/>
<path d="m1291.1 859.44v158.75" clip-path="url(#a)"/>
<path d="m1364 859.44v158.75" clip-path="url(#a)"/>
<path d="m919.82 536.68-134.91 322.75" clip-path="url(#a)"/>
<path d="m919.82 536.68-79.145 322.75" clip-path="url(#a)"/>
<path d="m919.82 536.68-21.234 322.75" clip-path="url(#a)"/>
<path d="m919.82 536.68 69.922 161.8" clip-path="url(#a)"/>
<path d="m919.82 536.68 165.37 322.75" clip-path="url(#a)"/>
<path d="m1763 698.48-167.3 160.95" clip-path="url(#a)"/>
<path d="m1763 698.48-85.794 160.95" clip-path="url(#a)"/>
<path d="m1763 698.48-2.1448 160.95" clip-path="url(#a)"/>
<path d="m1763 698.48 83.649 160.95" clip-path="url(#a)"/>
<path d="m1763 698.48 171.59 160.95" clip-path="url(#a)"/>
<path d="m1595.7 859.44v158.75" clip-path="url(#a)"/>
<path d="m1677.2 859.44v158.75" clip-path="url(#a)"/>
<path d="m1760.8 859.44v158.75" clip-path="url(#a)"/>
<path d="m784.91 859.44v158.75" clip-path="url(#a)"/>
<path d="m840.67 859.44v158.75" clip-path="url(#a)"/>
<path d="m898.58 859.44v158.75" clip-path="url(#a)"/>
<path d="m989.74 698.48-31.1 160.95" clip-path="url(#a)"/>
<path d="m989.74 698.48 31.1 160.95" clip-path="url(#a)"/>
<path d="m1085.2 859.44v158.75" clip-path="url(#a)"/>
<path d="m958.64 859.44v158.75" clip-path="url(#a)"/>
<path d="m1020.8 859.44v158.75" clip-path="url(#a)"/>
<path d="m386.54 374.33-197.47 162.35" clip-path="url(#a)"/>
<path d="m386.54 374.33 197.47 324.15" clip-path="url(#a)"/>
<path d="m345.21 859.44v158.75" clip-path="url(#a)"/>
<path d="m406.88 374.33-9.1156 162.35" clip-path="url(#a)"/>
<path d="m406.88 374.33 9.1156 324.15" clip-path="url(#a)"/>
<path d="m397.76 536.68 18.231 161.8" clip-path="url(#a)" stroke-dasharray="3.7,1.6"/>
<path d="m397.76 536.68-18.231 322.75" clip-path="url(#a)"/>
<path d="m415.99 698.48v160.95" clip-path="url(#a)"/>
<path d="m415.99 859.44v158.75" clip-path="url(#a)"/>
<path d="m379.53 859.44v158.75" clip-path="url(#a)"/>
<path d="m189.07 536.68 16.73 322.75" clip-path="url(#a)"/>
<path d="m189.07 536.68 53.192 161.8" clip-path="url(#a)"/>
<path d="m189.07 536.68-41.181 322.75" clip-path="url(#a)" stroke-dasharray="3.7,1.6"/>
<path d="m189.07 536.68-24.022 322.75" clip-path="url(#a)"/>
<path d="m189.07 536.68-4.7187 322.75" clip-path="url(#a)"/>
<path d="m584.01 698.48-45.757 160.95" clip-path="url(#a)"/>
<path d="m584.01 698.48-0.71495 160.95" clip-path="url(#a)"/>
<path d="m584.01 698.48 46.472 160.95" clip-path="url(#a)"/>
<path d="m538.25 859.44v158.75" clip-path="url(#a)"/>
<path d="m583.29 859.44v158.75" clip-path="url(#a)"/>
<path d="m630.48 859.44v158.75" clip-path="url(#a)"/>
<path d="m205.8 859.44v158.75" clip-path="url(#a)"/>
<path d="m242.26 698.48-12.869 160.95" clip-path="url(#a)"/>
<path d="m242.26 698.48 12.869 160.95" clip-path="url(#a)"/>
<path d="m109.28 859.44v158.75" clip-path="url(#a)"/>
<path d="m120 859.44v158.75" clip-path="url(#a)"/>
<path d="m229.39 859.44v158.75" clip-path="url(#a)"/>
<path d="m255.13 859.44v158.75" clip-path="url(#a)"/>
<path d="m95.338 698.48 5.3621 160.95" clip-path="url(#a)"/>
<path d="m95.338 698.48-3.2173 160.95" clip-path="url(#a)"/>
<path d="m95.338 698.48 3.2173 160.95" clip-path="url(#a)"/>
<path d="m132.87 859.44v158.75" clip-path="url(#a)"/>
<path d="m147.89 859.44v158.75" clip-path="url(#a)"/>
<path d="m165.05 859.44v158.75" clip-path="url(#a)"/>
<path d="m184.35 859.44v158.75" clip-path="url(#a)"/>
<path d="m92.121 859.44v158.75" clip-path="url(#a)"/>
<path d="m98.556 859.44v158.75" clip-path="url(#a)"/>
<path d="m283.01 859.44v158.75" clip-path="url(#a)"/>
<path d="m313.04 859.44v158.75" clip-path="url(#a)"/>
<path d="m454.6 859.44v158.75" clip-path="url(#a)"/>
<path d="m495.35 859.44v158.75" clip-path="url(#a)"/>
<path d="m679.81 859.44v158.75" clip-path="url(#a)"/>
<path d="m731.29 859.44v158.75" clip-path="url(#a)"/>
<path d="m1151.7 859.44v158.75" clip-path="url(#a)"/>
<path d="m1220.3 859.44v158.75" clip-path="url(#a)"/>
<path d="m1439.1 859.44v158.75" clip-path="url(#a)"/>
<path d="m1516.3 859.44v158.75" clip-path="url(#a)"/>
<path d="m1846.6 859.44v158.75" clip-path="url(#a)"/>
<path d="m1934.5 859.44v158.75" clip-path="url(#a)"/>
</g>
<path d="m387.35 299.23 4.4191-4.0825q1.7629-1.6286 0.1343-3.3915l-5.2539-5.6871q-1.6286-1.7629-3.3915-0.1343l-4.4191 4.0825q-1.7629 1.6286-0.1343 3.3915l5.2539 5.6871q1.6286 1.7629 3.3915 0.1343z" clip-path="url(#a)" fill="#fff" stroke="#fff"/>
<g clip-path="url(#a)">
<g transform="translate(384.59 296.25) rotate(-42.732) scale(.08 -.08)">
<defs>
<path id="y" d="m9.8125 72.906h9.8594v-29.891h35.844v29.891h9.8594v-72.906h-9.8594v34.719h-35.844v-34.719h-9.8594z"/>
</defs>
<use xlink:href="#y"/>
</g>
</g>
<path d="m517.24 136.95 5.1291-3.1445q2.0461-1.2544 0.79167-3.3005l-4.0468-6.6008q-1.2544-2.0461-3.3005-0.79167l-5.1291 3.1445q-2.0461 1.2544-0.79167 3.3005l4.0468 6.6008q1.2544 2.0461 3.3005 0.79168z" clip-path="url(#a)" fill="#fff" stroke="#fff"/>
<g clip-path="url(#a)">
<g transform="translate(515.12 133.48) rotate(-31.512) scale(.08 -.08)">
<use xlink:href="#y"/>
</g>
</g>
<path d="m986.37 135.43 5.8515 1.3984q2.3343 0.55783 2.8921-1.7764l1.7996-7.5305q0.55783-2.3343-1.7764-2.8921l-5.8515-1.3984q-2.3343-0.55783-2.8921 1.7764l-1.7996 7.5305q-0.55783 2.3343 1.7764 2.8921z" clip-path="url(#a)" fill="#fff" stroke="#fff"/>
<g clip-path="url(#a)">
<g transform="translate(987.32 131.48) rotate(13.44) scale(.08 -.08)">
<use xlink:href="#y"/>
</g>
</g>
<path d="m658.3 451.27 0.21843 5.8509q0.089537 2.3983 2.4879 2.3088l7.7371-0.28885q2.3983-0.089536 2.3088-2.4879l-0.21843-5.8509q-0.089536-2.3983-2.4879-2.3088l-7.7371 0.28885q-2.3983 0.089537-2.3088 2.4879z" clip-path="url(#a)" fill="#fff" stroke="#fff"/>
<g clip-path="url(#a)">
<g transform="translate(662.36 451.12) rotate(87.862) scale(.08 -.08)">
<defs>
<path id="m" d="m8.6875 72.906h9.9219v-44.297q0-11.719 4.2344-16.875 4.25-5.1406 13.781-5.1406 9.4688 0 13.719 5.1406 4.25 5.1562 4.25 16.875v44.297h9.9062v-45.516q0-14.25-7.0625-21.531-7.0469-7.2812-20.812-7.2812-13.828 0-20.891 7.2812-7.0469 7.2812-7.0469 21.531z"/>
</defs>
<use xlink:href="#m"/>
</g>
</g>
<path d="m683.88 451.68 0.58726 5.8255q0.24072 2.3879 2.6286 2.1472l7.7035-0.77658q2.3879-0.24072 2.1472-2.6286l-0.58726-5.8255q-0.24072-2.3879-2.6286-2.1472l-7.7035 0.77658q-2.3879 0.24072-2.1472 2.6286z" clip-path="url(#a)" fill="#fff" stroke="#fff"/>
<g clip-path="url(#a)">
<g transform="translate(687.92 451.27) rotate(84.244) scale(.08 -.08)">
<use xlink:href="#m"/>
</g>
</g>
<path d="m121.34 701.21 0.21386-5.8511q0.087662-2.3984-2.3107-2.4861l-7.7373-0.2828q-2.3984-0.087662-2.4861 2.3107l-0.21386 5.8511q-0.087661 2.3984 2.3107 2.4861l7.7373 0.2828q2.3984 0.087662 2.4861-2.3107z" clip-path="url(#a)" fill="#fff" stroke="#fff"/>
<g clip-path="url(#a)">
<g transform="translate(117.28 701.07) rotate(-87.907) scale(.08 -.08)">
<use xlink:href="#m"/>
</g>
</g>
<path d="m126.8 701.01 0.019455-5.855q0.007974-2.4-2.392-2.408l-7.7425-0.025726q-2.4-0.007974-2.408 2.392l-0.019454 5.855q-0.007975 2.4 2.392 2.408l7.7425 0.025726q2.4 0.007975 2.408-2.392z" clip-path="url(#a)" fill="#fff" stroke="#fff"/>
<g clip-path="url(#a)">
<g transform="translate(122.74 700.99) rotate(-89.81) scale(.08 -.08)">
<use xlink:href="#m"/>
</g>
</g>
<path d="m113.97 621.27 0.85973-5.4045q0.37704-2.3702-1.9932-2.7472l-7.6464-1.2163q-2.3702-0.37704-2.7472 1.9932l-0.85973 5.4045q-0.37704 2.3702 1.9932 2.7472l7.6464 1.2163q2.3702 0.37704 2.7472-1.9932z" clip-path="url(#a)" fill="#fff" stroke="#fff"/>
<g clip-path="url(#a)">
<g transform="translate(109.96 620.63) rotate(-80.961) scale(.08 -.08)">
<defs>
<path id="n" d="m34.188 63.188-13.391-36.281h26.812zm-5.5781 9.7188h11.188l27.781-72.906h-10.25l-6.6406 18.703h-32.859l-6.6406-18.703h-10.406z"/>
</defs>
<use xlink:href="#n"/>
</g>
</g>
<path d="m120.62 695.88 0.17619 4.8205q0.087661 2.3984 2.4861 2.3107l7.7373-0.2828q2.3984-0.087662 2.3107-2.4861l-0.17619-4.8205q-0.087661-2.3984-2.4861-2.3107l-7.7373 0.2828q-2.3984 0.087662-2.3107 2.4861z" clip-path="url(#a)" fill="#fff" stroke="#fff"/>
<g clip-path="url(#a)">
<g transform="translate(124.68 695.73) rotate(87.907) scale(.08 -.08)">
<defs>
<path id="ac" d="m19.672 64.797v-27.391h12.406q6.8906 0 10.641 3.5625 3.7656 3.5625 3.7656 10.156 0 6.5469-3.7656 10.109-3.75 3.5625-10.641 3.5625zm-9.8594 8.1094h22.266q12.266 0 18.531-5.5469 6.2812-5.5469 6.2812-16.234 0-10.797-6.2812-16.312-6.2656-5.5156-18.531-5.5156h-12.406v-29.297h-9.8594z"/>
</defs>
<use xlink:href="#ac"/>
</g>
</g>
<path d="m128.01 695.85 0.45303 5.4537q0.19868 2.3918 2.5904 2.1931l7.7159-0.64095q2.3918-0.19868 2.1931-2.5904l-0.45303-5.4537q-0.19868-2.3918-2.5904-2.1931l-7.7159 0.64095q-2.3918 0.19868-2.1931 2.5904z" clip-path="url(#a)" fill="#fff" stroke="#fff"/>
<g clip-path="url(#a)">
<g transform="translate(132.06 695.51) rotate(85.251) scale(.08 -.08)">
<use xlink:href="#n"/>
</g>
</g>
<path d="m378.71 290.33 0.10146 5.4716q0.044496 2.3996 2.4441 2.3551l7.7412-0.14355q2.3996-0.044496 2.3551-2.4441l-0.10146-5.4716q-0.044496-2.3996-2.4441-2.3551l-7.7412 0.14355q-2.3996 0.044496-2.3551 2.4441z" clip-path="url(#a)" fill="#fff" stroke="#fff"/>
<g clip-path="url(#a)">
<g transform="translate(382.77 290.26) rotate(88.938) scale(.08 -.08)">
<use xlink:href="#n"/>
</g>
</g>
<path d="m370.48 538.28 0.28472-4.8153q0.14166-2.3958-2.2542-2.5375l-7.729-0.45699q-2.3958-0.14166-2.5375 2.2542l-0.28472 4.8153q-0.14166 2.3958 2.2542 2.5375l7.729 0.45699q2.3958 0.14166 2.5375-2.2542z" clip-path="url(#a)" fill="#fff" stroke="#fff"/>
<g clip-path="url(#a)">
<g transform="translate(366.43 538.04) rotate(-86.616) scale(.08 -.08)">
<use xlink:href="#ac"/>
</g>
</g>
<path d="m388.6 291.14 0.77742 5.417q0.34094 2.3757 2.7166 2.0347l7.664-1.0999q2.3757-0.34094 2.0347-2.7166l-0.77742-5.417q-0.34094-2.3757-2.7166-2.0347l-7.664 1.0999q-2.3757 0.34094-2.0347 2.7166z" clip-path="url(#a)" fill="#fff" stroke="#fff"/>
<g clip-path="url(#a)">
<g transform="translate(392.62 290.56) rotate(81.833) scale(.08 -.08)">
<use xlink:href="#n"/>
</g>
</g>
<path d="m339.01 539.36 0.89758-5.7858q0.36792-2.3716-2.0037-2.7396l-7.651-1.1869q-2.3716-0.36792-2.7396 2.0037l-0.89758 5.7858q-0.36792 2.3716 2.0037 2.7396l7.651 1.1869q2.3716 0.36792 2.7396-2.0037z" clip-path="url(#a)" fill="#fff" stroke="#fff"/>
<g clip-path="url(#a)">
<g transform="translate(335 538.74) rotate(-81.182) scale(.08 -.08)">
<use xlink:href="#m"/>
</g>
</g>
<path d="m354.2 539.09 0.63321-5.8207q0.25956-2.3859-2.1264-2.6455l-7.6971-0.83734q-2.3859-0.25956-2.6455 2.1264l-0.63321 5.8207q-0.25956 2.3859 2.1264 2.6455l7.6971 0.83734q2.3859 0.25956 2.6455-2.1264z" clip-path="url(#a)" fill="#fff" stroke="#fff"/>
<g clip-path="url(#a)">
<g transform="translate(350.16 538.65) rotate(-83.791) scale(.08 -.08)">
<use xlink:href="#m"/>
</g>
</g>
<path d="m412.51 533.28 0.63856 5.8201q0.26175 2.3857 2.6474 2.1239l7.6963-0.84441q2.3857-0.26175 2.1239-2.6474l-0.63856-5.8201q-0.26175-2.3857-2.6474-2.1239l-7.6963 0.84441q-2.3857 0.26175-2.1239 2.6474z" clip-path="url(#a)" fill="#fff" stroke="#fff"/>
<g clip-path="url(#a)">
<g transform="translate(416.55 532.84) rotate(83.739) scale(.08 -.08)">
<use xlink:href="#m"/>
</g>
</g>
<path d="m432.76 533.69 0.99595 5.7697q0.40825 2.365 2.7733 1.9568l7.6297-1.317q2.365-0.40825 1.9568-2.7733l-0.99596-5.7697q-0.40825-2.365-2.7733-1.9568l-7.6297 1.317q-2.365 0.40825-1.9568 2.7733z" clip-path="url(#a)" fill="#fff" stroke="#fff"/>
<g clip-path="url(#a)">
<g transform="translate(436.76 532.99) rotate(80.206) scale(.08 -.08)">
<use xlink:href="#m"/>
</g>
</g>
<path d="m1330.3 290.58 0.31576 5.4634q0.13848 2.396 2.5345 2.2575l7.7296-0.44673q2.396-0.13848 2.2575-2.5345l-0.31576-5.4634q-0.13848-2.396-2.5345-2.2575l-7.7296 0.44673q-2.396 0.13848-2.2575 2.5345z" clip-path="url(#a)" fill="#fff" stroke="#fff"/>
<g clip-path="url(#a)">
<g transform="translate(1334.3 290.35) rotate(86.692) scale(.08 -.08)">
<use xlink:href="#n"/>
</g>
</g>
<path d="m1317.6 538.31 0.30385-4.8142q0.15118-2.3952-2.2441-2.5464l-7.7271-0.4877q-2.3952-0.15118-2.5464 2.2441l-0.30385 4.8142q-0.15118 2.3952 2.2441 2.5464l7.7271 0.4877q2.3952 0.15118 2.5464-2.2441z" clip-path="url(#a)" fill="#fff" stroke="#fff"/>
<g clip-path="url(#a)">
<g transform="translate(1313.6 538.05) rotate(-86.389) scale(.08 -.08)">
<use xlink:href="#ac"/>
</g>
</g>
<path d="m1341.6 533.08 0.27027 5.4658q0.11853 2.3971 2.5156 2.2785l7.7331-0.38238q2.3971-0.11853 2.2785-2.5156l-0.27027-5.4658q-0.11853-2.3971-2.5156-2.2785l-7.7331 0.38238q-2.3971 0.11853-2.2785 2.5156z" clip-path="url(#a)" fill="#fff" stroke="#fff"/>
<g clip-path="url(#a)">
<g transform="translate(1345.7 532.88) rotate(87.169) scale(.08 -.08)">
<use xlink:href="#n"/>
</g>
</g>
<path d="m1247.1 540.01 1.5698-5.6406q0.64348-2.3121-1.6686-2.9556l-7.459-2.0759q-2.3121-0.64348-2.9556 1.6686l-1.5698 5.6406q-0.64348 2.3121 1.6686 2.9556l7.459 2.0759q2.3121 0.64348 2.9556-1.6686z" clip-path="url(#a)" fill="#fff" stroke="#fff"/>
<g clip-path="url(#a)">
<g transform="translate(1243.2 538.92) rotate(-74.448) scale(.08 -.08)">
<use xlink:href="#m"/>
</g>
</g>
<path d="m1281.8 539.45 0.99454-5.7699q0.40767-2.3651-1.9575-2.7728l-7.63-1.3152q-2.3651-0.40767-2.7728 1.9575l-0.99454 5.7699q-0.40767 2.3651 1.9575 2.7728l7.63 1.3152q2.3651 0.40767 2.7728-1.9575z" clip-path="url(#a)" fill="#fff" stroke="#fff"/>
<g clip-path="url(#a)">
<g transform="translate(1277.8 538.76) rotate(-80.22) scale(.08 -.08)">
<use xlink:href="#m"/>
</g>
</g>
<path d="m1378.9 533.64 0.95498 5.7766q0.39145 2.3679 2.7593 1.9764l7.6388-1.2628q2.3679-0.39146 1.9764-2.7593l-0.95498-5.7766q-0.39145-2.3679-2.7593-1.9764l-7.6388 1.2628q-2.3679 0.39145-1.9764 2.7593z" clip-path="url(#a)" fill="#fff" stroke="#fff"/>
<g clip-path="url(#a)">
<g transform="translate(1382.9 532.98) rotate(80.613) scale(.08 -.08)">
<use xlink:href="#m"/>
</g>
</g>
<path d="m1417.3 534.4 1.6022 5.6315q0.65674 2.3084 2.9651 1.6516l7.447-2.1187q2.3084-0.65675 1.6516-2.9651l-1.6022-5.6315q-0.65675-2.3084-2.9651-1.6516l-7.447 2.1187q-2.3084 0.65675-1.6516 2.9651z" clip-path="url(#a)" fill="#fff" stroke="#fff"/>
<g clip-path="url(#a)">
<g transform="translate(1421.2 533.29) rotate(74.119) scale(.08 -.08)">
<use xlink:href="#m"/>
</g>
</g>
<path d="m1130 462.44 5.6143-2.1621q2.2397-0.86251 1.3772-3.1022l-2.7825-7.2252q-0.86251-2.2397-3.1022-1.3772l-5.6143 2.1621q-2.2397 0.86251-1.3772 3.1022l2.7825 7.2252q0.86251 2.2397 3.1022 1.3772z" clip-path="url(#a)" fill="#fff" stroke="#fff"/>
<g clip-path="url(#a)">
<g transform="translate(1128.6 458.65) rotate(-21.062) scale(.08 -.08)">
<use xlink:href="#y"/>
</g>
</g>
<path d="m1546 539.55 4.7694 3.6672q1.9026 1.4629 3.3655-0.43968l4.7194-6.1379q1.4629-1.9026-0.43968-3.3655l-4.7694-3.6672q-1.9026-1.4629-3.3655 0.43968l-4.7194 6.1379q-1.4629 1.9026 0.43968 3.3655z" clip-path="url(#a)" fill="#fff" stroke="#fff"/>
<g clip-path="url(#a)">
<g transform="translate(1548.4 536.32) rotate(37.557) scale(.08 -.08)">
<use xlink:href="#y"/>
</g>
</g>
<path d="m1284.8 921.9v33.808q0 2.4 2.4 2.4h7.7425q2.4 0 2.4-2.4v-33.808q0-2.4-2.4-2.4h-7.7425q-2.4 0-2.4 2.4z" clip-path="url(#a)" fill="#fff" stroke="#fff"/>
<g clip-path="url(#a)">
<g transform="translate(1288.9 921.9) rotate(90) scale(.08 -.08)">
<defs>
<path id="e" d="m-0.29688 72.906h61.672v-8.3125h-25.875v-64.594h-9.9062v64.594h-25.891z"/>
<path id="l" d="m56.203 29.594v-4.3906h-41.312q0.59375-9.2812 5.5938-14.141t13.938-4.8594q5.1719 0 10.031 1.2656t9.6562 3.8125v-8.5q-4.8438-2.0469-9.9219-3.125t-10.297-1.0781q-13.094 0-20.734 7.6094-7.6406 7.625-7.6406 20.625 0 13.422 7.25 21.297 7.25 7.8906 19.562 7.8906 11.031 0 17.453-7.1094 6.4219-7.0938 6.4219-19.297zm-8.9844 2.6406q-0.09375 7.3594-4.125 11.75-4.0312 4.4062-10.672 4.4062-7.5156 0-12.031-4.25t-5.2031-11.969z"/>
<path id="g" d="m41.109 46.297q-1.5156 0.875-3.2969 1.2812-1.7812 0.42188-3.9219 0.42188-7.625 0-11.703-4.9531t-4.0781-14.234v-28.812h-9.0312v54.688h9.0312v-8.5q2.8438 4.9844 7.375 7.3906 4.5469 2.4219 11.047 2.4219 0.92188 0 2.0469-0.125 1.125-0.10938 2.4844-0.35938z"/>
<path id="i" d="m52 44.188q3.375 6.0625 8.0625 8.9375t11.031 2.875q8.5469 0 13.188-5.9844 4.6406-5.9688 4.6406-17v-33.016h-9.0312v32.719q0 7.8594-2.7969 11.656-2.7812 3.8125-8.4844 3.8125-6.9844 0-11.047-4.6406-4.0469-4.625-4.0469-12.641v-30.906h-9.0312v32.719q0 7.9062-2.7812 11.688t-8.5938 3.7812q-6.8906 0-10.953-4.6562-4.0469-4.6562-4.0469-12.625v-30.906h-9.0312v54.688h9.0312v-8.5q3.0781 5.0312 7.375 7.4219t10.203 2.3906q5.9688 0 10.141-3.0312 4.1719-3.0156 6.1719-8.7812z"/>
<path id="k" d="m9.4219 54.688h8.9844v-54.688h-8.9844zm0 21.297h8.9844v-11.391h-8.9844z"/>
<path id="h" d="m54.891 33.016v-33.016h-8.9844v32.719q0 7.7656-3.0312 11.609-3.0312 3.8594-9.0781 3.8594-7.2812 0-11.484-4.6406-4.2031-4.625-4.2031-12.641v-30.906h-9.0312v54.688h9.0312v-8.5q3.2344 4.9375 7.5938 7.375 4.375 2.4375 10.094 2.4375 9.4219 0 14.25-5.8281 4.8438-5.8281 4.8438-17.156z"/>
<path id="f" d="m34.281 27.484q-10.891 0-15.094-2.4844t-4.2031-8.5q0-4.7812 3.1562-7.5938 3.1562-2.7969 8.5625-2.7969 7.4844 0 12 5.2969t4.5156 14.078v2zm17.922 3.7188v-31.203h-8.9844v8.2969q-3.0781-4.9688-7.6719-7.3438t-11.234-2.375q-8.3906 0-13.359 4.7188-4.9531 4.7188-4.9531 12.625 0 9.2188 6.1719 13.906 6.1875 4.6875 18.438 4.6875h12.609v0.89062q0 6.2031-4.0781 9.5938t-11.453 3.3906q-4.6875 0-9.1406-1.125-4.4375-1.125-8.5312-3.375v8.3125q4.9219 1.9062 9.5625 2.8438 4.6406 0.95312 9.0312 0.95312 11.875 0 17.734-6.1562 5.8594-6.1406 5.8594-18.641z"/>
<path id="j" d="m9.4219 75.984h8.9844v-75.984h-8.9844z"/>
</defs>
<use xlink:href="#e"/>
<use x="44.083984" xlink:href="#l"/>
<use x="105.607422" xlink:href="#g"/>
<use x="144.970703" xlink:href="#i"/>
<use x="242.382812" xlink:href="#k"/>
<use x="270.166016" xlink:href="#h"/>
<use x="333.544922" xlink:href="#f"/>
<use x="394.824219" xlink:href="#j"/>
</g>
</g>
<path d="m1357.7 921.9v33.808q0 2.4 2.4 2.4h7.7425q2.4 0 2.4-2.4v-33.808q0-2.4-2.4-2.4h-7.7425q-2.4 0-2.4 2.4z" clip-path="url(#a)" fill="#fff" stroke="#fff"/>
<g clip-path="url(#a)">
<g transform="translate(1361.8 921.9) rotate(90) scale(.08 -.08)">
<use xlink:href="#e"/>
<use x="44.083984" xlink:href="#l"/>
<use x="105.607422" xlink:href="#g"/>
<use x="144.970703" xlink:href="#i"/>
<use x="242.382812" xlink:href="#k"/>
<use x="270.166016" xlink:href="#h"/>
<use x="333.544922" xlink:href="#f"/>
<use x="394.824219" xlink:href="#j"/>
</g>
</g>
<path d="m856.96 703.32 2.3757-5.6835q0.92559-2.2143-1.2887-3.1399l-7.1435-2.986q-2.2143-0.92559-3.1399 1.2887l-2.3757 5.6835q-0.92559 2.2143 1.2887 3.1399l7.1435 2.986q2.2143 0.92559 3.1399-1.2887z" clip-path="url(#a)" fill="#fff" stroke="#fff"/>
<g clip-path="url(#a)">
<g transform="translate(853.21 701.75) rotate(-67.315) scale(.08 -.08)">
<defs>
<path id="ai" d="m19.672 64.797v-56.688h11.922q15.094 0 22.094 6.8281 7 6.8438 7 21.594 0 14.641-7 21.453t-22.094 6.8125zm-9.8594 8.1094h20.266q21.188 0 31.094-8.8125 9.9219-8.8125 9.9219-27.562 0-18.859-9.9688-27.703-9.9531-8.8281-31.047-8.8281h-20.266z"/>
</defs>
<use xlink:href="#ai"/>
</g>
</g>
<path d="m885.6 702.54 1.4671-5.9827q0.57159-2.3309-1.7594-2.9025l-7.5197-1.844q-2.3309-0.57159-2.9025 1.7594l-1.4671 5.9827q-0.57159 2.3309 1.7594 2.9025l7.5197 1.844q2.3309 0.57159 2.9025-1.7594z" clip-path="url(#a)" fill="#fff" stroke="#fff"/>
<g clip-path="url(#a)">
<g transform="translate(881.66 701.58) rotate(-76.222) scale(.08 -.08)">
<use xlink:href="#ai"/>
</g>
</g>
<path d="m915.28 701.2 0.35926-5.4607q0.15756-2.3948-2.2373-2.5524l-7.7258-0.50828q-2.3948-0.15756-2.5524 2.2373l-0.35926 5.4607q-0.15756 2.3948 2.2373 2.5524l7.7258 0.50828q2.3948 0.15756 2.5524-2.2373z" clip-path="url(#a)" fill="#fff" stroke="#fff"/>
<g clip-path="url(#a)">
<g transform="translate(911.22 700.93) rotate(-86.236) scale(.08 -.08)">
<use xlink:href="#n"/>
</g>
</g>
<path d="m947.94 617.56 2.1709 5.0235q0.95207 2.2031 3.1552 1.251l7.1072-3.0714q2.2031-0.95207 1.251-3.1552l-2.1709-5.0235q-0.95207-2.2031-3.1552-1.251l-7.1072 3.0714q-2.2031 0.95207-1.251 3.1552z" clip-path="url(#a)" fill="#fff" stroke="#fff"/>
<g clip-path="url(#a)">
<g transform="translate(951.67 615.95) rotate(66.628) scale(.08 -.08)">
<use xlink:href="#n"/>
</g>
</g>
<path d="m995.82 698.77 2.1996 4.293q1.0944 2.136 3.2303 1.0416l6.8907-3.5306q2.136-1.0944 1.0416-3.2303l-2.1996-4.293q-1.0944-2.136-3.2303-1.0416l-6.8907 3.5306q-2.136 1.0944-1.0416 3.2303z" clip-path="url(#a)" fill="#fff" stroke="#fff"/>
<g clip-path="url(#a)">
<g transform="translate(999.44 696.92) rotate(62.871) scale(.08 -.08)">
<use xlink:href="#ac"/>
</g>
</g>
<path d="m1681.7 785.37 3.9437-3.7942q1.7295-1.6639 0.06558-3.3935l-5.368-5.5795q-1.664-1.7295-3.3935-0.06558l-3.9437 3.7942q-1.7295 1.6639-0.065581 3.3935l5.368 5.5795q1.6639 1.7295 3.3935 0.06558z" clip-path="url(#a)" fill="#fff" stroke="#fff"/>
<g clip-path="url(#a)">
<g transform="translate(1678.9 782.45) rotate(-43.893) scale(.08 -.08)">
<use xlink:href="#n"/>
</g>
</g>
<path d="m1724.1 784.63 2.8975-5.436q1.1289-2.1179-0.989-3.2468l-6.8325-3.6419q-2.1179-1.1289-3.2468 0.989l-2.8975 5.436q-1.1289 2.1179 0.989 3.2468l6.8325 3.6419q2.1179 1.1289 3.2468-0.989z" clip-path="url(#a)" fill="#fff" stroke="#fff"/>
<g clip-path="url(#a)">
<g transform="translate(1720.6 782.71) rotate(-61.941) scale(.08 -.08)">
<use xlink:href="#ai"/>
</g>
</g>
<path d="m1768.1 781.58 0.067673-5.0783q0.031979-2.3998-2.3678-2.4318l-7.7418-0.10317q-2.3998-0.031979-2.4318 2.3678l-0.067672 5.0783q-0.031979 2.3998 2.3678 2.4318l7.7418 0.10317q2.3998 0.031979 2.4318-2.3678z" clip-path="url(#a)" fill="#fff" stroke="#fff"/>
<g clip-path="url(#a)">
<g transform="translate(1764.1 781.53) rotate(-89.237) scale(.08 -.08)">
<defs>
<path id="ag" d="m53.516 70.516v-9.625q-5.6094 2.6875-10.594 4-4.9844 1.3281-9.625 1.3281-8.0469 0-12.422-3.125t-4.375-8.8906q0-4.8438 2.9062-7.3125 2.9062-2.4531 11.016-3.9688l5.9531-1.2188q11.031-2.1094 16.281-7.4062t5.25-14.172q0-10.609-7.1094-16.078-7.0938-5.4688-20.812-5.4688-5.1719 0-11.016 1.1719-5.8281 1.1719-12.078 3.4688v10.156q6-3.3594 11.766-5.0781 5.7656-1.7031 11.328-1.7031 8.4375 0 13.031 3.3125 4.5938 3.3281 4.5938 9.4844 0 5.3594-3.2969 8.3906t-10.812 4.5469l-6.0156 1.1719q-11.031 2.1875-15.969 6.875-4.9219 4.6875-4.9219 13.047 0 9.6719 6.8125 15.234t18.766 5.5625q5.1406 0 10.453-0.9375 5.3281-0.92188 10.891-2.7656z"/>
</defs>
<use xlink:href="#ag"/>
</g>
</g>
<path d="m1797.9 779.25 2.7 5.1953q1.1068 2.1296 3.2363 1.0228l6.8701-3.5704q2.1296-1.1068 1.0228-3.2363l-2.7-5.1953q-1.1068-2.1296-3.2363-1.0228l-6.8701 3.5704q-2.1296 1.1068-1.0228 3.2363z" clip-path="url(#a)" fill="#fff" stroke="#fff"/>
<g clip-path="url(#a)">
<g transform="translate(1801.5 777.38) rotate(62.539) scale(.08 -.08)">
<use xlink:href="#m"/>
</g>
</g>
<path d="m1842.3 781.53 4.2703 4.0057q1.7504 1.642 3.3924-0.10847l5.297-5.6469q1.642-1.7504-0.10847-3.3924l-4.2703-4.0057q-1.7504-1.642-3.3924 0.10847l-5.297 5.6469q-1.642 1.7504 0.10847 3.3924z" clip-path="url(#a)" fill="#fff" stroke="#fff"/>
<g clip-path="url(#a)">
<g transform="translate(1845.1 778.57) rotate(43.169) scale(.08 -.08)">
<use xlink:href="#m"/>
</g>
</g>
<path d="m1589.4 921.9v33.808q0 2.4 2.4 2.4h7.7425q2.4 0 2.4-2.4v-33.808q0-2.4-2.4-2.4h-7.7425q-2.4 0-2.4 2.4z" clip-path="url(#a)" fill="#fff" stroke="#fff"/>
<g clip-path="url(#a)">
<g transform="translate(1593.5 921.9) rotate(90) scale(.08 -.08)">
<use xlink:href="#e"/>
<use x="44.083984" xlink:href="#l"/>
<use x="105.607422" xlink:href="#g"/>
<use x="144.970703" xlink:href="#i"/>
<use x="242.382812" xlink:href="#k"/>
<use x="270.166016" xlink:href="#h"/>
<use x="333.544922" xlink:href="#f"/>
<use x="394.824219" xlink:href="#j"/>
</g>
</g>
<path d="m1670.9 921.9v33.808q0 2.4 2.4 2.4h7.7425q2.4 0 2.4-2.4v-33.808q0-2.4-2.4-2.4h-7.7425q-2.4 0-2.4 2.4z" clip-path="url(#a)" fill="#fff" stroke="#fff"/>
<g clip-path="url(#a)">
<g transform="translate(1675 921.9) rotate(90) scale(.08 -.08)">
<use xlink:href="#e"/>
<use x="44.083984" xlink:href="#l"/>
<use x="105.607422" xlink:href="#g"/>
<use x="144.970703" xlink:href="#i"/>
<use x="242.382812" xlink:href="#k"/>
<use x="270.166016" xlink:href="#h"/>
<use x="333.544922" xlink:href="#f"/>
<use x="394.824219" xlink:href="#j"/>
</g>
</g>
<path d="m1754.5 921.9v33.808q0 2.4 2.4 2.4h7.7425q2.4 0 2.4-2.4v-33.808q0-2.4-2.4-2.4h-7.7425q-2.4 0-2.4 2.4z" clip-path="url(#a)" fill="#fff" stroke="#fff"/>
<g clip-path="url(#a)">
<g transform="translate(1758.6 921.9) rotate(90) scale(.08 -.08)">
<use xlink:href="#e"/>
<use x="44.083984" xlink:href="#l"/>
<use x="105.607422" xlink:href="#g"/>
<use x="144.970703" xlink:href="#i"/>
<use x="242.382812" xlink:href="#k"/>
<use x="270.166016" xlink:href="#h"/>
<use x="333.544922" xlink:href="#f"/>
<use x="394.824219" xlink:href="#j"/>
</g>
</g>
<path d="m778.64 921.9v33.808q0 2.4 2.4 2.4h7.7425q2.4 0 2.4-2.4v-33.808q0-2.4-2.4-2.4h-7.7425q-2.4 0-2.4 2.4z" clip-path="url(#a)" fill="#fff" stroke="#fff"/>
<g clip-path="url(#a)">
<g transform="translate(782.7 921.9) rotate(90) scale(.08 -.08)">
<use xlink:href="#e"/>
<use x="44.083984" xlink:href="#l"/>
<use x="105.607422" xlink:href="#g"/>
<use x="144.970703" xlink:href="#i"/>
<use x="242.382812" xlink:href="#k"/>
<use x="270.166016" xlink:href="#h"/>
<use x="333.544922" xlink:href="#f"/>
<use x="394.824219" xlink:href="#j"/>
</g>
</g>
<path d="m834.4 921.9v33.808q0 2.4 2.4 2.4h7.7425q2.4 0 2.4-2.4v-33.808q0-2.4-2.4-2.4h-7.7425q-2.4 0-2.4 2.4z" clip-path="url(#a)" fill="#fff" stroke="#fff"/>
<g clip-path="url(#a)">
<g transform="translate(838.47 921.9) rotate(90) scale(.08 -.08)">
<use xlink:href="#e"/>
<use x="44.083984" xlink:href="#l"/>
<use x="105.607422" xlink:href="#g"/>
<use x="144.970703" xlink:href="#i"/>
<use x="242.382812" xlink:href="#k"/>
<use x="270.166016" xlink:href="#h"/>
<use x="333.544922" xlink:href="#f"/>
<use x="394.824219" xlink:href="#j"/>
</g>
</g>
<path d="m892.31 921.9v33.808q0 2.4 2.4 2.4h7.7425q2.4 0 2.4-2.4v-33.808q0-2.4-2.4-2.4h-7.7425q-2.4 0-2.4 2.4z" clip-path="url(#a)" fill="#fff" stroke="#fff"/>
<g clip-path="url(#a)">
<g transform="translate(896.38 921.9) rotate(90) scale(.08 -.08)">
<use xlink:href="#e"/>
<use x="44.083984" xlink:href="#l"/>
<use x="105.607422" xlink:href="#g"/>
<use x="144.970703" xlink:href="#i"/>
<use x="242.382812" xlink:href="#k"/>
<use x="270.166016" xlink:href="#h"/>
<use x="333.544922" xlink:href="#f"/>
<use x="394.824219" xlink:href="#j"/>
</g>
</g>
<path d="m979.82 782.88 1.0546-5.4578q0.45532-2.3564-1.9011-2.8117l-7.6019-1.4689q-2.3564-0.45532-2.8117 1.9011l-1.0546 5.4578q-0.45532 2.3564 1.9011 2.8117l7.6019 1.4689q2.3564 0.45532 2.8117-1.9011z" clip-path="url(#a)" fill="#fff" stroke="#fff"/>
<g clip-path="url(#a)">
<g transform="translate(975.83 782.11) rotate(-79.064) scale(.08 -.08)">
<defs>
<path id="au" d="m44.391 34.188q3.1719-1.0781 6.1719-4.5938t6.0312-9.6719l10.016-19.922h-10.609l-9.3125 18.703q-3.625 7.3281-7.0156 9.7188t-9.25 2.3906h-10.75v-30.812h-9.8594v72.906h22.266q12.5 0 18.656-5.2344 6.1562-5.2188 6.1562-15.766 0-6.8906-3.2031-11.438-3.2031-4.5312-9.2969-6.2812zm-24.719 30.609v-25.875h12.406q7.125 0 10.766 3.2969t3.6406 9.6875-3.6406 9.6406-10.766 3.25z"/>
</defs>
<use xlink:href="#au"/>
</g>
</g>
<path d="m998.6 777.41 1.0598 5.4848q0.45532 2.3564 2.8117 1.9011l7.6019-1.4689q2.3564-0.45532 1.9011-2.8117l-1.0598-5.4848q-0.45532-2.3564-2.8117-1.9011l-7.6019 1.4689q-2.3564 0.45532-1.9011 2.8117z" clip-path="url(#a)" fill="#fff" stroke="#fff"/>
<g clip-path="url(#a)">
<g transform="translate(1002.6 776.63) rotate(79.064) scale(.08 -.08)">
<defs>
<path id="aj" d="m64.406 67.281v-10.391q-4.9844 4.6406-10.625 6.9219-5.6406 2.2969-11.984 2.2969-12.5 0-19.141-7.6406t-6.6406-22.094q0-14.406 6.6406-22.047t19.141-7.6406q6.3438 0 11.984 2.2969t10.625 6.9375v-10.312q-5.1719-3.5156-10.969-5.2812-5.7812-1.75-12.219-1.75-16.562 0-26.094 10.125-9.5156 10.141-9.5156 27.672 0 17.578 9.5156 27.703 9.5312 10.141 26.094 10.141 6.5312 0 12.312-1.7344 5.7969-1.7344 10.875-5.2031z"/>
</defs>
<use xlink:href="#aj"/>
</g>
</g>
<path d="m1078.9 921.9v33.808q0 2.4 2.4 2.4h7.7425q2.4 0 2.4-2.4v-33.808q0-2.4-2.4-2.4h-7.7425q-2.4 0-2.4 2.4z" clip-path="url(#a)" fill="#fff" stroke="#fff"/>
<g clip-path="url(#a)">
<g transform="translate(1083 921.9) rotate(90) scale(.08 -.08)">
<use xlink:href="#e"/>
<use x="44.083984" xlink:href="#l"/>
<use x="105.607422" xlink:href="#g"/>
<use x="144.970703" xlink:href="#i"/>
<use x="242.382812" xlink:href="#k"/>
<use x="270.166016" xlink:href="#h"/>
<use x="333.544922" xlink:href="#f"/>
<use x="394.824219" xlink:href="#j"/>
</g>
</g>
<path d="m952.37 921.9v33.808q0 2.4 2.4 2.4h7.7425q2.4 0 2.4-2.4v-33.808q0-2.4-2.4-2.4h-7.7425q-2.4 0-2.4 2.4z" clip-path="url(#a)" fill="#fff" stroke="#fff"/>
<g clip-path="url(#a)">
<g transform="translate(956.43 921.9) rotate(90) scale(.08 -.08)">
<use xlink:href="#e"/>
<use x="44.083984" xlink:href="#l"/>
<use x="105.607422" xlink:href="#g"/>
<use x="144.970703" xlink:href="#i"/>
<use x="242.382812" xlink:href="#k"/>
<use x="270.166016" xlink:href="#h"/>
<use x="333.544922" xlink:href="#f"/>
<use x="394.824219" xlink:href="#j"/>
</g>
</g>
<path d="m1014.6 921.9v33.808q0 2.4 2.4 2.4h7.7425q2.4 0 2.4-2.4v-33.808q0-2.4-2.4-2.4h-7.7425q-2.4 0-2.4 2.4z" clip-path="url(#a)" fill="#fff" stroke="#fff"/>
<g clip-path="url(#a)">
<g transform="translate(1018.6 921.9) rotate(90) scale(.08 -.08)">
<use xlink:href="#e"/>
<use x="44.083984" xlink:href="#l"/>
<use x="105.607422" xlink:href="#g"/>
<use x="144.970703" xlink:href="#i"/>
<use x="242.382812" xlink:href="#k"/>
<use x="270.166016" xlink:href="#h"/>
<use x="333.544922" xlink:href="#f"/>
<use x="394.824219" xlink:href="#j"/>
</g>
</g>
<path d="m289.46 462.26 4.6473-3.8208q1.8539-1.5242 0.32971-3.3781l-4.9171-5.9807q-1.5242-1.8539-3.3781-0.32971l-4.6473 3.8208q-1.8539 1.5242-0.32971 3.3781l4.9171 5.9807q1.5242 1.8539 3.3781 0.32971z" clip-path="url(#a)" fill="#fff" stroke="#fff"/>
<g clip-path="url(#a)">
<g transform="translate(286.88 459.12) rotate(-39.425) scale(.08 -.08)">
<use xlink:href="#y"/>
</g>
</g>
<path d="m478.35 537.1 3.13 5.1379q1.2486 2.0496 3.2982 0.801l6.6122-4.0281q2.0496-1.2486 0.80101-3.2982l-3.13-5.1379q-1.2486-2.0496-3.2982-0.80101l-6.6122 4.0281q-2.0496 1.2486-0.801 3.2982z" clip-path="url(#a)" fill="#fff" stroke="#fff"/>
<g clip-path="url(#a)">
<g transform="translate(481.82 534.99) rotate(58.65) scale(.08 -.08)">
<use xlink:href="#y"/>
</g>
</g>
<path d="m338.94 921.9v33.808q0 2.4 2.4 2.4h7.7425q2.4 0 2.4-2.4v-33.808q0-2.4-2.4-2.4h-7.7425q-2.4 0-2.4 2.4z" clip-path="url(#a)" fill="#fff" stroke="#fff"/>
<g clip-path="url(#a)">
<g transform="translate(343.01 921.9) rotate(90) scale(.08 -.08)">
<use xlink:href="#e"/>
<use x="44.083984" xlink:href="#l"/>
<use x="105.607422" xlink:href="#g"/>
<use x="144.970703" xlink:href="#i"/>
<use x="242.382812" xlink:href="#k"/>
<use x="270.166016" xlink:href="#h"/>
<use x="333.544922" xlink:href="#f"/>
<use x="394.824219" xlink:href="#j"/>
</g>
</g>
<path d="m408.44 458.38 0.28338-5.0471q0.13454-2.3962-2.2617-2.5308l-7.7303-0.43404q-2.3962-0.13454-2.5308 2.2617l-0.28338 5.047q-0.13454 2.3962 2.2617 2.5308l7.7303 0.43404q2.3962 0.13454 2.5308-2.2617z" clip-path="url(#a)" fill="#fff" stroke="#fff"/>
<g clip-path="url(#a)">
<g transform="translate(404.38 458.16) rotate(-86.786) scale(.08 -.08)">
<defs>
<path id="bc" d="m9.8125 72.906h46.094v-8.3125h-36.234v-21.578h34.719v-8.2969h-34.719v-26.422h37.109v-8.2969h-46.969z"/>
</defs>
<use xlink:href="#bc"/>
</g>
</g>
<path d="m405.09 533.79 0.15703 5.584q0.067465 2.3991 2.4665 2.3316l7.7394-0.21765q2.3991-0.067465 2.3316-2.4665l-0.15703-5.584q-0.067466-2.3991-2.4665-2.3316l-7.7394 0.21765q-2.3991 0.067466-2.3316 2.4665z" clip-path="url(#a)" fill="#fff" stroke="#fff"/>
<g clip-path="url(#a)">
<g transform="translate(409.15 533.68) rotate(88.389) scale(.08 -.08)">
<use xlink:href="#aj"/>
</g>
</g>
<path d="m400.34 615.56 0.61275 5.4381q0.26873 2.3849 2.6536 2.1162l7.6938-0.86692q2.3849-0.26873 2.1162-2.6536l-0.61276-5.4381q-0.26873-2.3849-2.6536-2.1162l-7.6938 0.86693q-2.3849 0.26873-2.1162 2.6536z" clip-path="url(#a)" fill="#fff" stroke="#fff"/>
<g clip-path="url(#a)">
<g transform="translate(404.38 615.11) rotate(83.571) scale(.08 -.08)">
<use xlink:href="#n"/>
</g>
</g>
<path d="m394.76 700.95 0.28642-5.0707q0.13535-2.3962-2.2608-2.5315l-7.7302-0.43665q-2.3962-0.13535-2.5315 2.2608l-0.28642 5.0707q-0.13535 2.3962 2.2608 2.5315l7.7302 0.43665q2.3962 0.13535 2.5315-2.2608z" clip-path="url(#a)" fill="#fff" stroke="#fff"/>
<g clip-path="url(#a)">
<g transform="translate(390.71 700.72) rotate(-86.767) scale(.08 -.08)">
<use xlink:href="#ag"/>
</g>
</g>
<path d="m409.59 772.34v13.246q0 2.4 2.4 2.4h8q2.4 0 2.4-2.4v-13.246q0-2.4-2.4-2.4h-8q-2.4 0-2.4 2.4z" clip-path="url(#a)" fill="#fff" stroke="#fff"/>
<g clip-path="url(#a)">
<g transform="translate(413.88 772.34) rotate(90) scale(.08 -.08)">
<defs>
<path id="bd" d="m21 76.422v-100h-8.2969v100z"/>
</defs>
<use xlink:href="#n"/>
<use x="68.408203" xlink:href="#bd"/>
<use x="102.099609" xlink:href="#ag"/>
</g>
</g>
<path d="m409.72 921.9v33.808q0 2.4 2.4 2.4h7.7425q2.4 0 2.4-2.4v-33.808q0-2.4-2.4-2.4h-7.7425q-2.4 0-2.4 2.4z" clip-path="url(#a)" fill="#fff" stroke="#fff"/>
<g clip-path="url(#a)">
<g transform="translate(413.79 921.9) rotate(90) scale(.08 -.08)">
<use xlink:href="#e"/>
<use x="44.083984" xlink:href="#l"/>
<use x="105.607422" xlink:href="#g"/>
<use x="144.970703" xlink:href="#i"/>
<use x="242.382812" xlink:href="#k"/>
<use x="270.166016" xlink:href="#h"/>
<use x="333.544922" xlink:href="#f"/>
<use x="394.824219" xlink:href="#j"/>
</g>
</g>
<path d="m373.26 921.9v33.808q0 2.4 2.4 2.4h7.7425q2.4 0 2.4-2.4v-33.808q0-2.4-2.4-2.4h-7.7425q-2.4 0-2.4 2.4z" clip-path="url(#a)" fill="#fff" stroke="#fff"/>
<g clip-path="url(#a)">
<g transform="translate(377.32 921.9) rotate(90) scale(.08 -.08)">
<use xlink:href="#e"/>
<use x="44.083984" xlink:href="#l"/>
<use x="105.607422" xlink:href="#g"/>
<use x="144.970703" xlink:href="#i"/>
<use x="242.382812" xlink:href="#k"/>
<use x="270.166016" xlink:href="#h"/>
<use x="333.544922" xlink:href="#f"/>
<use x="394.824219" xlink:href="#j"/>
</g>
</g>
<path d="m191.05 695.98 0.2497 4.8173q0.12424 2.3968 2.521 2.2725l7.7321-0.40079q2.3968-0.12424 2.2725-2.521l-0.2497-4.8173q-0.12424-2.3968-2.521-2.2725l-7.7321 0.40079q-2.3968 0.12424-2.2725 2.521z" clip-path="url(#a)" fill="#fff" stroke="#fff"/>
<g clip-path="url(#a)">
<g transform="translate(195.1 695.76) rotate(87.033) scale(.08 -.08)">
<use xlink:href="#ac"/>
</g>
</g>
<path d="m208.85 616.94 1.7091 5.1988q0.74955 2.28 3.0295 1.5304l7.3552-2.4181q2.28-0.74955 1.5304-3.0295l-1.7091-5.1988q-0.74955-2.28-3.0295-1.5304l-7.3552 2.4181q-2.28 0.74955-1.5304 3.0295z" clip-path="url(#a)" fill="#fff" stroke="#fff"/>
<g clip-path="url(#a)">
<g transform="translate(212.71 615.67) rotate(71.801) scale(.08 -.08)">
<use xlink:href="#n"/>
</g>
</g>
<path d="m174.35 701.57 0.69264-5.4285q0.30376-2.3807-2.0769-2.6845l-7.6802-0.97994q-2.3807-0.30376-2.6845 2.0769l-0.69264 5.4285q-0.30376 2.3807 2.0769 2.6845l7.6802 0.97994q2.3807 0.30376 2.6845-2.0769z" clip-path="url(#a)" fill="#fff" stroke="#fff"/>
<g clip-path="url(#a)">
<g transform="translate(170.32 701.05) rotate(-82.729) scale(.08 -.08)">
<use xlink:href="#n"/>
</g>
</g>
<path d="m183.09 701.44 0.43458-5.8388q0.17814-2.3934-2.2152-2.5715l-7.7211-0.57468q-2.3934-0.17814-2.5715 2.2152l-0.43458 5.8388q-0.17814 2.3934 2.2152 2.5715l7.7211 0.57468q2.3934 0.17814 2.5715-2.2152z" clip-path="url(#a)" fill="#fff" stroke="#fff"/>
<g clip-path="url(#a)">
<g transform="translate(179.04 701.14) rotate(-85.743) scale(.08 -.08)">
<use xlink:href="#m"/>
</g>
</g>
<path d="m192.94 701.08 0.085592-5.8544q0.035084-2.3997-2.3647-2.4348l-7.7417-0.11318q-2.3997-0.035084-2.4348 2.3647l-0.085591 5.8544q-0.035085 2.3997 2.3647 2.4348l7.7417 0.11318q2.3997 0.035085 2.4348-2.3647z" clip-path="url(#a)" fill="#fff" stroke="#fff"/>
<g clip-path="url(#a)">
<g transform="translate(188.87 701.02) rotate(-89.162) scale(.08 -.08)">
<use xlink:href="#m"/>
</g>
</g>
<path d="m566.41 783.31 1.4964-5.2639q0.65628-2.3085-1.6523-2.9648l-7.4474-2.1172q-2.3085-0.65628-2.9648 1.6523l-1.4964 5.2639q-0.65628 2.3085 1.6523 2.9648l7.4474 2.1172q2.3085 0.65628 2.9648-1.6523z" clip-path="url(#a)" fill="#fff" stroke="#fff"/>
<g clip-path="url(#a)">
<g transform="translate(562.5 782.19) rotate(-74.13) scale(.08 -.08)">
<use xlink:href="#n"/>
</g>
</g>
<path d="m589.91 782.07 0.027362-6.1599q0.010661-2.4-2.3893-2.4106l-7.7424-0.034391q-2.4-0.010661-2.4106 2.3893l-0.027362 6.1599q-0.01066 2.4 2.3893 2.4106l7.7424 0.034391q2.4 0.010661 2.4106-2.3893z" clip-path="url(#a)" fill="#fff" stroke="#fff"/>
<g clip-path="url(#a)">
<g transform="translate(585.84 782.05) rotate(-89.745) scale(.08 -.08)">
<use xlink:href="#ai"/>
</g>
</g>
<path d="m600.51 778.26 1.4088 4.8794q0.66575 2.3058 2.9716 1.6401l7.4387-2.1477q2.3058-0.66575 1.6401-2.9716l-1.4088-4.8794q-0.66575-2.3058-2.9716-1.6401l-7.4387 2.1477q-2.3058 0.66575-1.6401 2.9716z" clip-path="url(#a)" fill="#fff" stroke="#fff"/>
<g clip-path="url(#a)">
<g transform="translate(604.42 777.13) rotate(73.895) scale(.08 -.08)">
<use xlink:href="#ag"/>
</g>
</g>
<path d="m531.98 921.9v33.808q0 2.4 2.4 2.4h7.7425q2.4 0 2.4-2.4v-33.808q0-2.4-2.4-2.4h-7.7425q-2.4 0-2.4 2.4z" clip-path="url(#a)" fill="#fff" stroke="#fff"/>
<g clip-path="url(#a)">
<g transform="translate(536.04 921.9) rotate(90) scale(.08 -.08)">
<use xlink:href="#e"/>
<use x="44.083984" xlink:href="#l"/>
<use x="105.607422" xlink:href="#g"/>
<use x="144.970703" xlink:href="#i"/>
<use x="242.382812" xlink:href="#k"/>
<use x="270.166016" xlink:href="#h"/>
<use x="333.544922" xlink:href="#f"/>
<use x="394.824219" xlink:href="#j"/>
</g>
</g>
<path d="m577.02 921.9v33.808q0 2.4 2.4 2.4h7.7425q2.4 0 2.4-2.4v-33.808q0-2.4-2.4-2.4h-7.7425q-2.4 0-2.4 2.4z" clip-path="url(#a)" fill="#fff" stroke="#fff"/>
<g clip-path="url(#a)">
<g transform="translate(581.08 921.9) rotate(90) scale(.08 -.08)">
<use xlink:href="#e"/>
<use x="44.083984" xlink:href="#l"/>
<use x="105.607422" xlink:href="#g"/>
<use x="144.970703" xlink:href="#i"/>
<use x="242.382812" xlink:href="#k"/>
<use x="270.166016" xlink:href="#h"/>
<use x="333.544922" xlink:href="#f"/>
<use x="394.824219" xlink:href="#j"/>
</g>
</g>
<path d="m624.21 921.9v33.808q0 2.4 2.4 2.4h7.7425q2.4 0 2.4-2.4v-33.808q0-2.4-2.4-2.4h-7.7425q-2.4 0-2.4 2.4z" clip-path="url(#a)" fill="#fff" stroke="#fff"/>
<g clip-path="url(#a)">
<g transform="translate(628.27 921.9) rotate(90) scale(.08 -.08)">
<use xlink:href="#e"/>
<use x="44.083984" xlink:href="#l"/>
<use x="105.607422" xlink:href="#g"/>
<use x="144.970703" xlink:href="#i"/>
<use x="242.382812" xlink:href="#k"/>
<use x="270.166016" xlink:href="#h"/>
<use x="333.544922" xlink:href="#f"/>
<use x="394.824219" xlink:href="#j"/>
</g>
</g>
<path d="m199.53 921.9v33.808q0 2.4 2.4 2.4h7.7425q2.4 0 2.4-2.4v-33.808q0-2.4-2.4-2.4h-7.7425q-2.4 0-2.4 2.4z" clip-path="url(#a)" fill="#fff" stroke="#fff"/>
<g clip-path="url(#a)">
<g transform="translate(203.59 921.9) rotate(90) scale(.08 -.08)">
<use xlink:href="#e"/>
<use x="44.083984" xlink:href="#l"/>
<use x="105.607422" xlink:href="#g"/>
<use x="144.970703" xlink:href="#i"/>
<use x="242.382812" xlink:href="#k"/>
<use x="270.166016" xlink:href="#h"/>
<use x="333.544922" xlink:href="#f"/>
<use x="394.824219" xlink:href="#j"/>
</g>
</g>
<path d="m241.86 782.23 0.44304-5.5411q0.19128-2.3924-2.2011-2.5836l-7.7179-0.61708q-2.3924-0.19128-2.5836 2.2011l-0.44304 5.5411q-0.19128 2.3924 2.2011 2.5836l7.7179 0.61708q2.3924 0.19128 2.5836-2.2011z" clip-path="url(#a)" fill="#fff" stroke="#fff"/>
<g clip-path="url(#a)">
<g transform="translate(237.8 781.9) rotate(-85.429) scale(.08 -.08)">
<use xlink:href="#au"/>
</g>
</g>
<path d="m242.22 776.67 0.44523 5.5685q0.19128 2.3924 2.5836 2.2011l7.7179-0.61708q2.3924-0.19128 2.2011-2.5836l-0.44523-5.5685q-0.19128-2.3924-2.5836-2.2011l-7.7179 0.61708q-2.3924 0.19128-2.2011 2.5836z" clip-path="url(#a)" fill="#fff" stroke="#fff"/>
<g clip-path="url(#a)">
<g transform="translate(246.27 776.35) rotate(85.429) scale(.08 -.08)">
<use xlink:href="#aj"/>
</g>
</g>
<path d="m103.01 921.9v33.808q0 2.4 2.4 2.4h7.7425q2.4 0 2.4-2.4v-33.808q0-2.4-2.4-2.4h-7.7425q-2.4 0-2.4 2.4z" clip-path="url(#a)" fill="#fff" stroke="#fff"/>
<g clip-path="url(#a)">
<g transform="translate(107.07 921.9) rotate(90) scale(.08 -.08)">
<use xlink:href="#e"/>
<use x="44.083984" xlink:href="#l"/>
<use x="105.607422" xlink:href="#g"/>
<use x="144.970703" xlink:href="#i"/>
<use x="242.382812" xlink:href="#k"/>
<use x="270.166016" xlink:href="#h"/>
<use x="333.544922" xlink:href="#f"/>
<use x="394.824219" xlink:href="#j"/>
</g>
</g>
<path d="m113.73 921.9v33.808q0 2.4 2.4 2.4h7.7425q2.4 0 2.4-2.4v-33.808q0-2.4-2.4-2.4h-7.7425q-2.4 0-2.4 2.4z" clip-path="url(#a)" fill="#fff" stroke="#fff"/>
<g clip-path="url(#a)">
<g transform="translate(117.8 921.9) rotate(90) scale(.08 -.08)">
<use xlink:href="#e"/>
<use x="44.083984" xlink:href="#l"/>
<use x="105.607422" xlink:href="#g"/>
<use x="144.970703" xlink:href="#i"/>
<use x="242.382812" xlink:href="#k"/>
<use x="270.166016" xlink:href="#h"/>
<use x="333.544922" xlink:href="#f"/>
<use x="394.824219" xlink:href="#j"/>
</g>
</g>
<path d="m223.12 921.9v33.808q0 2.4 2.4 2.4h7.7425q2.4 0 2.4-2.4v-33.808q0-2.4-2.4-2.4h-7.7425q-2.4 0-2.4 2.4z" clip-path="url(#a)" fill="#fff" stroke="#fff"/>
<g clip-path="url(#a)">
<g transform="translate(227.18 921.9) rotate(90) scale(.08 -.08)">
<use xlink:href="#e"/>
<use x="44.083984" xlink:href="#l"/>
<use x="105.607422" xlink:href="#g"/>
<use x="144.970703" xlink:href="#i"/>
<use x="242.382812" xlink:href="#k"/>
<use x="270.166016" xlink:href="#h"/>
<use x="333.544922" xlink:href="#f"/>
<use x="394.824219" xlink:href="#j"/>
</g>
</g>
<path d="m248.86 921.9v33.808q0 2.4 2.4 2.4h7.7425q2.4 0 2.4-2.4v-33.808q0-2.4-2.4-2.4h-7.7425q-2.4 0-2.4 2.4z" clip-path="url(#a)" fill="#fff" stroke="#fff"/>
<g clip-path="url(#a)">
<g transform="translate(252.92 921.9) rotate(90) scale(.08 -.08)">
<use xlink:href="#e"/>
<use x="44.083984" xlink:href="#l"/>
<use x="105.607422" xlink:href="#g"/>
<use x="144.970703" xlink:href="#i"/>
<use x="242.382812" xlink:href="#k"/>
<use x="270.166016" xlink:href="#h"/>
<use x="333.544922" xlink:href="#f"/>
<use x="394.824219" xlink:href="#j"/>
</g>
</g>
<path d="m91.667 776.63 0.1691 5.0759q0.07991 2.3987 2.4786 2.3188l7.7382-0.25779q2.3987-0.079911 2.3188-2.4786l-0.1691-5.0759q-0.07991-2.3987-2.4786-2.3188l-7.7382 0.25779q-2.3987 0.079911-2.3188 2.4786z" clip-path="url(#a)" fill="#fff" stroke="#fff"/>
<g clip-path="url(#a)">
<g transform="translate(95.729 776.49) rotate(88.092) scale(.08 -.08)">
<use xlink:href="#ag"/>
</g>
</g>
<path d="m99.945 781.82 0.10937-5.4714q0.047963-2.3995-2.3516-2.4475l-7.741-0.15473q-2.3995-0.047963-2.4475 2.3516l-0.10937 5.4714q-0.047963 2.3995 2.3516 2.4475l7.741 0.15473q2.3995 0.047963 2.4475-2.3516z" clip-path="url(#a)" fill="#fff" stroke="#fff"/>
<g clip-path="url(#a)">
<g transform="translate(95.882 781.74) rotate(-88.855) scale(.08 -.08)">
<use xlink:href="#n"/>
</g>
</g>
<path d="m90.622 776.35 0.10937 5.4714q0.047964 2.3995 2.4475 2.3516l7.741-0.15473q2.3995-0.047963 2.3516-2.4475l-0.10937-5.4714q-0.047963-2.3995-2.4475-2.3516l-7.741 0.15473q-2.3995 0.047963-2.3516 2.4475z" clip-path="url(#a)" fill="#fff" stroke="#fff"/>
<g clip-path="url(#a)">
<g transform="translate(94.685 776.27) rotate(88.855) scale(.08 -.08)">
<use xlink:href="#n"/>
</g>
</g>
<path d="m126.6 921.9v33.808q0 2.4 2.4 2.4h7.7425q2.4 0 2.4-2.4v-33.808q0-2.4-2.4-2.4h-7.7425q-2.4 0-2.4 2.4z" clip-path="url(#a)" fill="#fff" stroke="#fff"/>
<g clip-path="url(#a)">
<g transform="translate(130.67 921.9) rotate(90) scale(.08 -.08)">
<use xlink:href="#e"/>
<use x="44.083984" xlink:href="#l"/>
<use x="105.607422" xlink:href="#g"/>
<use x="144.970703" xlink:href="#i"/>
<use x="242.382812" xlink:href="#k"/>
<use x="270.166016" xlink:href="#h"/>
<use x="333.544922" xlink:href="#f"/>
<use x="394.824219" xlink:href="#j"/>
</g>
</g>
<path d="m141.62 921.9v33.808q0 2.4 2.4 2.4h7.7425q2.4 0 2.4-2.4v-33.808q0-2.4-2.4-2.4h-7.7425q-2.4 0-2.4 2.4z" clip-path="url(#a)" fill="#fff" stroke="#fff"/>
<g clip-path="url(#a)">
<g transform="translate(145.68 921.9) rotate(90) scale(.08 -.08)">
<use xlink:href="#e"/>
<use x="44.083984" xlink:href="#l"/>
<use x="105.607422" xlink:href="#g"/>
<use x="144.970703" xlink:href="#i"/>
<use x="242.382812" xlink:href="#k"/>
<use x="270.166016" xlink:href="#h"/>
<use x="333.544922" xlink:href="#f"/>
<use x="394.824219" xlink:href="#j"/>
</g>
</g>
<path d="m158.77 921.9v33.808q0 2.4 2.4 2.4h7.7425q2.4 0 2.4-2.4v-33.808q0-2.4-2.4-2.4h-7.7425q-2.4 0-2.4 2.4z" clip-path="url(#a)" fill="#fff" stroke="#fff"/>
<g clip-path="url(#a)">
<g transform="translate(162.84 921.9) rotate(90) scale(.08 -.08)">
<use xlink:href="#e"/>
<use x="44.083984" xlink:href="#l"/>
<use x="105.607422" xlink:href="#g"/>
<use x="144.970703" xlink:href="#i"/>
<use x="242.382812" xlink:href="#k"/>
<use x="270.166016" xlink:href="#h"/>
<use x="333.544922" xlink:href="#f"/>
<use x="394.824219" xlink:href="#j"/>
</g>
</g>
<path d="m178.08 921.9v33.808q0 2.4 2.4 2.4h7.7425q2.4 0 2.4-2.4v-33.808q0-2.4-2.4-2.4h-7.7425q-2.4 0-2.4 2.4z" clip-path="url(#a)" fill="#fff" stroke="#fff"/>
<g clip-path="url(#a)">
<g transform="translate(182.14 921.9) rotate(90) scale(.08 -.08)">
<use xlink:href="#e"/>
<use x="44.083984" xlink:href="#l"/>
<use x="105.607422" xlink:href="#g"/>
<use x="144.970703" xlink:href="#i"/>
<use x="242.382812" xlink:href="#k"/>
<use x="270.166016" xlink:href="#h"/>
<use x="333.544922" xlink:href="#f"/>
<use x="394.824219" xlink:href="#j"/>
</g>
</g>
<path d="m85.85 921.9v33.808q0 2.4 2.4 2.4h7.7425q2.4 0 2.4-2.4v-33.808q0-2.4-2.4-2.4h-7.7425q-2.4 0-2.4 2.4z" clip-path="url(#a)" fill="#fff" stroke="#fff"/>
<g clip-path="url(#a)">
<g transform="translate(89.914 921.9) rotate(90) scale(.08 -.08)">
<use xlink:href="#e"/>
<use x="44.083984" xlink:href="#l"/>
<use x="105.607422" xlink:href="#g"/>
<use x="144.970703" xlink:href="#i"/>
<use x="242.382812" xlink:href="#k"/>
<use x="270.166016" xlink:href="#h"/>
<use x="333.544922" xlink:href="#f"/>
<use x="394.824219" xlink:href="#j"/>
</g>
</g>
<path d="m92.285 921.9v33.808q0 2.4 2.4 2.4h7.7425q2.4 0 2.4-2.4v-33.808q0-2.4-2.4-2.4h-7.7425q-2.4 0-2.4 2.4z" clip-path="url(#a)" fill="#fff" stroke="#fff"/>
<g clip-path="url(#a)">
<g transform="translate(96.348 921.9) rotate(90) scale(.08 -.08)">
<use xlink:href="#e"/>
<use x="44.083984" xlink:href="#l"/>
<use x="105.607422" xlink:href="#g"/>
<use x="144.970703" xlink:href="#i"/>
<use x="242.382812" xlink:href="#k"/>
<use x="270.166016" xlink:href="#h"/>
<use x="333.544922" xlink:href="#f"/>
<use x="394.824219" xlink:href="#j"/>
</g>
</g>
<path d="m276.74 921.9v33.808q0 2.4 2.4 2.4h7.7425q2.4 0 2.4-2.4v-33.808q0-2.4-2.4-2.4h-7.7425q-2.4 0-2.4 2.4z" clip-path="url(#a)" fill="#fff" stroke="#fff"/>
<g clip-path="url(#a)">
<g transform="translate(280.81 921.9) rotate(90) scale(.08 -.08)">
<use xlink:href="#e"/>
<use x="44.083984" xlink:href="#l"/>
<use x="105.607422" xlink:href="#g"/>
<use x="144.970703" xlink:href="#i"/>
<use x="242.382812" xlink:href="#k"/>
<use x="270.166016" xlink:href="#h"/>
<use x="333.544922" xlink:href="#f"/>
<use x="394.824219" xlink:href="#j"/>
</g>
</g>
<path d="m306.77 921.9v33.808q0 2.4 2.4 2.4h7.7425q2.4 0 2.4-2.4v-33.808q0-2.4-2.4-2.4h-7.7425q-2.4 0-2.4 2.4z" clip-path="url(#a)" fill="#fff" stroke="#fff"/>
<g clip-path="url(#a)">
<g transform="translate(310.83 921.9) rotate(90) scale(.08 -.08)">
<use xlink:href="#e"/>
<use x="44.083984" xlink:href="#l"/>
<use x="105.607422" xlink:href="#g"/>
<use x="144.970703" xlink:href="#i"/>
<use x="242.382812" xlink:href="#k"/>
<use x="270.166016" xlink:href="#h"/>
<use x="333.544922" xlink:href="#f"/>
<use x="394.824219" xlink:href="#j"/>
</g>
</g>
<path d="m448.33 921.9v33.808q0 2.4 2.4 2.4h7.7425q2.4 0 2.4-2.4v-33.808q0-2.4-2.4-2.4h-7.7425q-2.4 0-2.4 2.4z" clip-path="url(#a)" fill="#fff" stroke="#fff"/>
<g clip-path="url(#a)">
<g transform="translate(452.39 921.9) rotate(90) scale(.08 -.08)">
<use xlink:href="#e"/>
<use x="44.083984" xlink:href="#l"/>
<use x="105.607422" xlink:href="#g"/>
<use x="144.970703" xlink:href="#i"/>
<use x="242.382812" xlink:href="#k"/>
<use x="270.166016" xlink:href="#h"/>
<use x="333.544922" xlink:href="#f"/>
<use x="394.824219" xlink:href="#j"/>
</g>
</g>
<path d="m489.08 921.9v33.808q0 2.4 2.4 2.4h7.7425q2.4 0 2.4-2.4v-33.808q0-2.4-2.4-2.4h-7.7425q-2.4 0-2.4 2.4z" clip-path="url(#a)" fill="#fff" stroke="#fff"/>
<g clip-path="url(#a)">
<g transform="translate(493.15 921.9) rotate(90) scale(.08 -.08)">
<use xlink:href="#e"/>
<use x="44.083984" xlink:href="#l"/>
<use x="105.607422" xlink:href="#g"/>
<use x="144.970703" xlink:href="#i"/>
<use x="242.382812" xlink:href="#k"/>
<use x="270.166016" xlink:href="#h"/>
<use x="333.544922" xlink:href="#f"/>
<use x="394.824219" xlink:href="#j"/>
</g>
</g>
<path d="m673.54 921.9v33.808q0 2.4 2.4 2.4h7.7425q2.4 0 2.4-2.4v-33.808q0-2.4-2.4-2.4h-7.7425q-2.4 0-2.4 2.4z" clip-path="url(#a)" fill="#fff" stroke="#fff"/>
<g clip-path="url(#a)">
<g transform="translate(677.6 921.9) rotate(90) scale(.08 -.08)">
<use xlink:href="#e"/>
<use x="44.083984" xlink:href="#l"/>
<use x="105.607422" xlink:href="#g"/>
<use x="144.970703" xlink:href="#i"/>
<use x="242.382812" xlink:href="#k"/>
<use x="270.166016" xlink:href="#h"/>
<use x="333.544922" xlink:href="#f"/>
<use x="394.824219" xlink:href="#j"/>
</g>
</g>
<path d="m725.01 921.9v33.808q0 2.4 2.4 2.4h7.7425q2.4 0 2.4-2.4v-33.808q0-2.4-2.4-2.4h-7.7425q-2.4 0-2.4 2.4z" clip-path="url(#a)" fill="#fff" stroke="#fff"/>
<g clip-path="url(#a)">
<g transform="translate(729.08 921.9) rotate(90) scale(.08 -.08)">
<use xlink:href="#e"/>
<use x="44.083984" xlink:href="#l"/>
<use x="105.607422" xlink:href="#g"/>
<use x="144.970703" xlink:href="#i"/>
<use x="242.382812" xlink:href="#k"/>
<use x="270.166016" xlink:href="#h"/>
<use x="333.544922" xlink:href="#f"/>
<use x="394.824219" xlink:href="#j"/>
</g>
</g>
<path d="m1145.4 921.9v33.808q0 2.4 2.4 2.4h7.7425q2.4 0 2.4-2.4v-33.808q0-2.4-2.4-2.4h-7.7425q-2.4 0-2.4 2.4z" clip-path="url(#a)" fill="#fff" stroke="#fff"/>
<g clip-path="url(#a)">
<g transform="translate(1149.5 921.9) rotate(90) scale(.08 -.08)">
<use xlink:href="#e"/>
<use x="44.083984" xlink:href="#l"/>
<use x="105.607422" xlink:href="#g"/>
<use x="144.970703" xlink:href="#i"/>
<use x="242.382812" xlink:href="#k"/>
<use x="270.166016" xlink:href="#h"/>
<use x="333.544922" xlink:href="#f"/>
<use x="394.824219" xlink:href="#j"/>
</g>
</g>
<path d="m1214 921.9v33.808q0 2.4 2.4 2.4h7.7425q2.4 0 2.4-2.4v-33.808q0-2.4-2.4-2.4h-7.7425q-2.4 0-2.4 2.4z" clip-path="url(#a)" fill="#fff" stroke="#fff"/>
<g clip-path="url(#a)">
<g transform="translate(1218.1 921.9) rotate(90) scale(.08 -.08)">
<use xlink:href="#e"/>
<use x="44.083984" xlink:href="#l"/>
<use x="105.607422" xlink:href="#g"/>
<use x="144.970703" xlink:href="#i"/>
<use x="242.382812" xlink:href="#k"/>
<use x="270.166016" xlink:href="#h"/>
<use x="333.544922" xlink:href="#f"/>
<use x="394.824219" xlink:href="#j"/>
</g>
</g>
<path d="m1432.8 921.9v33.808q0 2.4 2.4 2.4h7.7425q2.4 0 2.4-2.4v-33.808q0-2.4-2.4-2.4h-7.7425q-2.4 0-2.4 2.4z" clip-path="url(#a)" fill="#fff" stroke="#fff"/>
<g clip-path="url(#a)">
<g transform="translate(1436.9 921.9) rotate(90) scale(.08 -.08)">
<use xlink:href="#e"/>
<use x="44.083984" xlink:href="#l"/>
<use x="105.607422" xlink:href="#g"/>
<use x="144.970703" xlink:href="#i"/>
<use x="242.382812" xlink:href="#k"/>
<use x="270.166016" xlink:href="#h"/>
<use x="333.544922" xlink:href="#f"/>
<use x="394.824219" xlink:href="#j"/>
</g>
</g>
<path d="m1510 921.9v33.808q0 2.4 2.4 2.4h7.7425q2.4 0 2.4-2.4v-33.808q0-2.4-2.4-2.4h-7.7425q-2.4 0-2.4 2.4z" clip-path="url(#a)" fill="#fff" stroke="#fff"/>
<g clip-path="url(#a)">
<g transform="translate(1514.1 921.9) rotate(90) scale(.08 -.08)">
<use xlink:href="#e"/>
<use x="44.083984" xlink:href="#l"/>
<use x="105.607422" xlink:href="#g"/>
<use x="144.970703" xlink:href="#i"/>
<use x="242.382812" xlink:href="#k"/>
<use x="270.166016" xlink:href="#h"/>
<use x="333.544922" xlink:href="#f"/>
<use x="394.824219" xlink:href="#j"/>
</g>
</g>
<path d="m1840.3 921.9v33.808q0 2.4 2.4 2.4h7.7425q2.4 0 2.4-2.4v-33.808q0-2.4-2.4-2.4h-7.7425q-2.4 0-2.4 2.4z" clip-path="url(#a)" fill="#fff" stroke="#fff"/>
<g clip-path="url(#a)">
<g transform="translate(1844.4 921.9) rotate(90) scale(.08 -.08)">
<use xlink:href="#e"/>
<use x="44.083984" xlink:href="#l"/>
<use x="105.607422" xlink:href="#g"/>
<use x="144.970703" xlink:href="#i"/>
<use x="242.382812" xlink:href="#k"/>
<use x="270.166016" xlink:href="#h"/>
<use x="333.544922" xlink:href="#f"/>
<use x="394.824219" xlink:href="#j"/>
</g>
</g>
<path d="m1928.3 921.9v33.808q0 2.4 2.4 2.4h7.7425q2.4 0 2.4-2.4v-33.808q0-2.4-2.4-2.4h-7.7425q-2.4 0-2.4 2.4z" clip-path="url(#a)" fill="#fff" stroke="#fff"/>
<g clip-path="url(#a)">
<g transform="translate(1932.3 921.9) rotate(90) scale(.08 -.08)">
<use xlink:href="#e"/>
<use x="44.083984" xlink:href="#l"/>
<use x="105.607422" xlink:href="#g"/>
<use x="144.970703" xlink:href="#i"/>
<use x="242.382812" xlink:href="#k"/>
<use x="270.166016" xlink:href="#h"/>
<use x="333.544922" xlink:href="#f"/>
<use x="394.824219" xlink:href="#j"/>
</g>
</g>
<defs>
<path id="b" d="m0 8.6603c2.2967 0 4.4997-0.9125 6.1237-2.5365 1.624-1.624 2.5365-3.827 2.5365-6.1237s-0.9125-4.4997-2.5365-6.1237c-1.624-1.624-3.827-2.5365-6.1237-2.5365s-4.4997 0.9125-6.1237 2.5365c-1.624 1.624-2.5365 3.827-2.5365 6.1237s0.9125 4.4997 2.5365 6.1237c1.624 1.624 3.827 2.5365 6.1237 2.5365z"/>
</defs>
<g clip-path="url(#a)" fill="#ffffff" stroke="#ffffff">
<use x="92.121212" y="1018.181818" xlink:href="#b"/>
<use x="98.555755" y="1018.181818" xlink:href="#b"/>
<use x="109.279994" y="1018.181818" xlink:href="#b"/>
<use x="120.004233" y="1018.181818" xlink:href="#b"/>
<use x="132.87332" y="1018.181818" xlink:href="#b"/>
<use x="147.887254" y="1018.181818" xlink:href="#b"/>
<use x="165.046037" y="1018.181818" xlink:href="#b"/>
<use x="184.349667" y="1018.181818" xlink:href="#b"/>
<use x="205.798144" y="1018.181818" xlink:href="#b"/>
<use x="229.39147" y="1018.181818" xlink:href="#b"/>
<use x="255.129643" y="1018.181818" xlink:href="#b"/>
<use x="283.012664" y="1018.181818" xlink:href="#b"/>
<use x="313.040533" y="1018.181818" xlink:href="#b"/>
<use x="345.21325" y="1018.181818" xlink:href="#b"/>
<use x="379.530815" y="1018.181818" xlink:href="#b"/>
<use x="415.993227" y="1018.181818" xlink:href="#b"/>
<use x="454.600487" y="1018.181818" xlink:href="#b"/>
<use x="495.352595" y="1018.181818" xlink:href="#b"/>
<use x="538.24955" y="1018.181818" xlink:href="#b"/>
<use x="583.291354" y="1018.181818" xlink:href="#b"/>
<use x="630.478005" y="1018.181818" xlink:href="#b"/>
<use x="679.809504" y="1018.181818" xlink:href="#b"/>
<use x="731.28585" y="1018.181818" xlink:href="#b"/>
<use x="784.907045" y="1018.181818" xlink:href="#b"/>
<use x="840.673087" y="1018.181818" xlink:href="#b"/>
<use x="898.583977" y="1018.181818" xlink:href="#b"/>
<use x="958.639715" y="1018.181818" xlink:href="#b"/>
<use x="1020.840301" y="1018.181818" xlink:href="#b"/>
<use x="1085.185734" y="1018.181818" xlink:href="#b"/>
<use x="1151.676015" y="1018.181818" xlink:href="#b"/>
<use x="1220.311144" y="1018.181818" xlink:href="#b"/>
<use x="1291.091121" y="1018.181818" xlink:href="#b"/>
<use x="1364.015945" y="1018.181818" xlink:href="#b"/>
<use x="1439.085618" y="1018.181818" xlink:href="#b"/>
<use x="1516.300138" y="1018.181818" xlink:href="#b"/>
<use x="1595.659505" y="1018.181818" xlink:href="#b"/>
<use x="1677.163721" y="1018.181818" xlink:href="#b"/>
<use x="1760.812784" y="1018.181818" xlink:href="#b"/>
<use x="1846.606696" y="1018.181818" xlink:href="#b"/>
<use x="1934.545455" y="1018.181818" xlink:href="#b"/>
<use x="100.700603" y="859.435641" xlink:href="#b"/>
<use x="649.534467" y="48.484848" xlink:href="#b"/>
<use x="121.076657" y="536.682426" xlink:href="#b"/>
<use x="383.51921" y="211.572973" xlink:href="#b"/>
<use x="1331.981112" y="211.572973" xlink:href="#b"/>
<use x="1341.387801" y="374.333053" xlink:href="#b"/>
<use x="1291.091121" y="859.435641" xlink:href="#b"/>
<use x="1364.015945" y="859.435641" xlink:href="#b"/>
<use x="919.81797" y="536.682426" xlink:href="#b"/>
<use x="1762.957632" y="698.48113" xlink:href="#b"/>
<use x="1595.659505" y="859.435641" xlink:href="#b"/>
<use x="1677.163721" y="859.435641" xlink:href="#b"/>
<use x="1760.812784" y="859.435641" xlink:href="#b"/>
<use x="784.907045" y="859.435641" xlink:href="#b"/>
<use x="840.673087" y="859.435641" xlink:href="#b"/>
<use x="898.583977" y="859.435641" xlink:href="#b"/>
<use x="989.740008" y="698.48113" xlink:href="#b"/>
<use x="1085.185734" y="859.435641" xlink:href="#b"/>
<use x="958.639715" y="859.435641" xlink:href="#b"/>
<use x="1020.840301" y="859.435641" xlink:href="#b"/>
<use x="386.537317" y="374.333053" xlink:href="#b"/>
<use x="345.21325" y="859.435641" xlink:href="#b"/>
<use x="406.877624" y="374.333053" xlink:href="#b"/>
<use x="397.762021" y="536.682426" xlink:href="#b"/>
<use x="415.993227" y="698.48113" xlink:href="#b"/>
<use x="415.993227" y="859.435641" xlink:href="#b"/>
<use x="379.530815" y="859.435641" xlink:href="#b"/>
<use x="189.068332" y="536.682426" xlink:href="#b"/>
<use x="584.006303" y="698.48113" xlink:href="#b"/>
<use x="538.24955" y="859.435641" xlink:href="#b"/>
<use x="583.291354" y="859.435641" xlink:href="#b"/>
<use x="630.478005" y="859.435641" xlink:href="#b"/>
<use x="205.798144" y="859.435641" xlink:href="#b"/>
<use x="242.260557" y="698.48113" xlink:href="#b"/>
<use x="109.279994" y="859.435641" xlink:href="#b"/>
<use x="120.004233" y="859.435641" xlink:href="#b"/>
<use x="229.39147" y="859.435641" xlink:href="#b"/>
<use x="255.129643" y="859.435641" xlink:href="#b"/>
<use x="95.338484" y="698.48113" xlink:href="#b"/>
<use x="132.87332" y="859.435641" xlink:href="#b"/>
<use x="147.887254" y="859.435641" xlink:href="#b"/>
<use x="165.046037" y="859.435641" xlink:href="#b"/>
<use x="184.349667" y="859.435641" xlink:href="#b"/>
<use x="92.121212" y="859.435641" xlink:href="#b"/>
<use x="98.555755" y="859.435641" xlink:href="#b"/>
<use x="283.012664" y="859.435641" xlink:href="#b"/>
<use x="313.040533" y="859.435641" xlink:href="#b"/>
<use x="454.600487" y="859.435641" xlink:href="#b"/>
<use x="495.352595" y="859.435641" xlink:href="#b"/>
<use x="679.809504" y="859.435641" xlink:href="#b"/>
<use x="731.28585" y="859.435641" xlink:href="#b"/>
<use x="1151.676015" y="859.435641" xlink:href="#b"/>
<use x="1220.311144" y="859.435641" xlink:href="#b"/>
<use x="1439.085618" y="859.435641" xlink:href="#b"/>
<use x="1516.300138" y="859.435641" xlink:href="#b"/>
<use x="1846.606696" y="859.435641" xlink:href="#b"/>
<use x="1934.545455" y="859.435641" xlink:href="#b"/>
</g>
<g clip-path="url(#a)">
<g transform="translate(88.647 1020.9) scale(.1 -.1)">
<defs>
<path id="ay" d="m20.062 51.906q0-6.3906 3.6406-9.6875t10.766-3.2969h15.344v25.875h-15.344q-7.125 0-10.766-3.25t-3.6406-9.6406zm-13.422-51.906 19.922 31.891q-4.875 1.2656-11.125 5.3906t-6.25 14.625q0 10.062 6.3438 15.531t18.938 5.4688h25.203v-72.906h-9.8594v30.812h-13.188l-19.234-30.812z"/>
</defs>
<use xlink:href="#ay"/>
</g>
</g>
<g clip-path="url(#a)">
<g transform="translate(88.797 1020.9) scale(.1 -.1)">
<defs>
<path id="at" d="m4.1094 0v8.2969q10.594 2.2969 13.609 10.312 4.25 12.594 4.25 41.891v12.406h43.359v-72.906h-9.8594v64.594h-23.688v-8.9844q0-27.625-4.9688-40.516-4.7969-12.359-22.703-15.094z"/>
<path id="v" d="m55.906 54.688v-54.688h-8.9375v43.891l-26.359-43.891h-11.531v54.688h8.9375v-43.797l26.328 43.797z"/>
<path id="t" d="m48.781 52.594v-8.4062q-3.8125 2.1094-7.6406 3.1562t-7.7344 1.0469q-8.75 0-13.594-5.5469-4.8281-5.5312-4.8281-15.547t4.8281-15.562q4.8438-5.5312 13.594-5.5312 3.9062 0 7.7344 1.0469t7.6406 3.1562v-8.3125q-3.7656-1.75-7.7969-2.625-4.0156-0.89062-8.5625-0.89062-12.359 0-19.641 7.7656-7.2656 7.7656-7.2656 20.953 0 13.375 7.3438 21.031 7.3594 7.6719 20.156 7.6719 4.1406 0 8.0938-0.85938 3.9531-0.84375 7.6719-2.5469z"/>
</defs>
<use xlink:href="#at"/>
<use x="75.195312" xlink:href="#v"/>
<use x="140.185547" xlink:href="#t"/>
</g>
</g>
<g clip-path="url(#a)">
<g transform="translate(107.69 1020.9) scale(.1 -.1)">
<defs>
<path id="ar" d="m11.719 12.406h10.297v-8.4062l-8-15.625h-6.2969l4 15.625z"/>
</defs>
<use xlink:href="#ar"/>
</g>
</g>
<g clip-path="url(#a)">
<g transform="translate(118.2 1020.9) scale(.1 -.1)">
<defs>
<path id="w" d="m4.8906 31.391h26.312v-8h-26.312z"/>
</defs>
<use xlink:href="#w"/>
</g>
</g>
<g clip-path="url(#a)">
<g transform="translate(115.12 1020.9) scale(.1 -.1)">
<defs>
<path id="an" d="m9.0781 54.688h8.9375v-25.688l25.344 25.688h11.031l-20.891-21.141 23.578-33.547h-10.062l-19.375 27.594-9.625-9.7656v-17.828h-8.9375z"/>
<path id="x" d="m34.281 27.484q-10.891 0-15.094-2.4844t-4.2031-8.5q0-4.7812 3.1562-7.5938 3.1562-2.7969 8.5625-2.7969 7.4844 0 12 5.2969t4.5156 14.078v2zm17.922 3.7188v-31.203h-8.9844v8.2969q-3.0781-4.9688-7.6719-7.3438t-11.234-2.375q-8.3906 0-13.359 4.7188-4.9531 4.7188-4.9531 12.625 0 9.2188 6.1719 13.906 6.1875 4.6875 18.438 4.6875h12.609v0.89062q0 6.2031-4.0781 9.5938t-11.453 3.3906q-4.6875 0-9.1406-1.125-4.4375-1.125-8.5312-3.375v8.3125q4.9219 1.9062 9.5625 2.8438 4.6406 0.95312 9.0312 0.95312 11.875 0 17.734-6.1562 5.8594-6.1406 5.8594-18.641z"/>
<path id="ax" d="m34.469 29.5q6.0625-1.1719 9.4219-4.75 3.375-3.5625 3.375-8.8281 0-8.4531-6.2969-12.906-6.2969-4.4375-17.922-4.4375-3.9062 0-8.0312 0.6875t-8.5156 2.0469v8.3594q3.4688-1.8125 7.6094-2.7188 4.1562-0.89062 8.6875-0.89062 7.375 0 11.5 2.7344t4.125 7.125q0 4.2969-3.6562 6.9062t-10.344 2.6094h-7.2344v7.4219h7.5625q5.6719 0 8.9688 2.1719t3.2969 5.5938q0 3.125-3.4062 5.375-3.3906 2.25-9.1875 2.25-3.4688 0-7.4062-0.64062-3.9219-0.64062-8.6719-2.0469v8.1562q4.7969 1.1719 8.9375 1.75 4.1562 0.59375 7.8594 0.59375 9.5781 0 15.109-3.8438 5.5469-3.8281 5.5469-10.719 0-4.5312-2.9375-7.6875-2.9219-3.1406-8.3906-4.3125z"/>
<path id="am" d="m3.7188 0v7.4688q8.875 1.375 11.609 7.5156 3.3281 8.6562 3.3281 30.766v8.9375h36.953v-54.688h-8.9844v47.516h-18.984v-5.4219q0-21.094-4.2969-30.562-4.5938-10.109-19.625-11.531z"/>
</defs>
<use xlink:href="#t"/>
<use x="54.980469" xlink:href="#an"/>
<use x="115.380859" xlink:href="#x"/>
<use x="176.660156" xlink:href="#ax"/>
<use x="229.833984" xlink:href="#x"/>
<use x="291.113281" xlink:href="#am"/>
</g>
</g>
<g clip-path="url(#a)">
<g transform="translate(138.13 1020.9) scale(.1 -.1)">
<use xlink:href="#at"/>
<use x="75.195312" xlink:href="#v"/>
<use x="140.185547" xlink:href="#t"/>
</g>
</g>
<g clip-path="url(#a)">
<g transform="translate(163.46 1020.9) scale(.1 -.1)">
<defs>
<path id="d" d="m10.688 12.406h10.312v-12.406h-10.312z"/>
</defs>
<use xlink:href="#d"/>
</g>
</g>
<g clip-path="url(#a)">
<g transform="translate(182.55 1020.9) scale(.1 -.1)">
<use xlink:href="#w"/>
</g>
</g>
<g clip-path="url(#a)">
<g transform="translate(183.61 1020.9) scale(.1 -.1)">
<defs>
<path id="bi" d="m65.375 72.906v-72.906h-9.8594v64.594h-35.844v-64.594h-9.8594v72.906z"/>
<path id="u" d="m30.609 48.391q-7.2188 0-11.422-5.6406t-4.2031-15.453 4.1719-15.453q4.1875-5.6406 11.453-5.6406 7.1875 0 11.375 5.6562 4.2031 5.6719 4.2031 15.438 0 9.7188-4.2031 15.406-4.1875 5.6875-11.375 5.6875zm0 7.6094q11.719 0 18.406-7.625 6.7031-7.6094 6.7031-21.078 0-13.422-6.7031-21.078-6.6875-7.6406-18.406-7.6406-11.766 0-18.438 7.6406-6.6562 7.6562-6.6562 21.078 0 13.469 6.6562 21.078 6.6719 7.625 18.438 7.625z"/>
<path id="ap" d="m9.0781 0v54.688h38.578v-7.1719h-29.547v-47.516z"/>
<path id="aa" d="m18.109 8.2031v-29h-9.0312v75.484h9.0312v-8.2969q2.8438 4.875 7.1562 7.2344 4.3281 2.375 10.328 2.375 9.9688 0 16.188-7.9062 6.2344-7.9062 6.2344-20.797t-6.2344-20.812q-6.2188-7.9062-16.188-7.9062-6 0-10.328 2.375-4.3125 2.375-7.1562 7.25zm30.578 19.094q0 9.9062-4.0781 15.547t-11.203 5.6406q-7.1406 0-11.219-5.6406t-4.0781-15.547 4.0781-15.547 11.219-5.6406q7.125 0 11.203 5.6406t4.0781 15.547z"/>
<path id="ao" d="m55.906 54.688v-54.688h-8.9375v43.891l-26.359-43.891h-11.531v54.688h8.9375v-43.797l26.328 43.797zm-38.688 20.828h5.7656q0.53125-3.6562 2.8906-5.5 2.375-1.8281 6.625-1.8281 4.2031 0 6.5469 1.8125t2.9688 5.5156h5.7656q-0.48438-6.9844-4.3438-10.5t-10.938-3.5156-10.938 3.5156-4.3438 10.5z"/>
</defs>
<use xlink:href="#bi"/>
<use x="75.195312" xlink:href="#u"/>
<use x="136.376953" xlink:href="#v"/>
<use x="201.367188" xlink:href="#ap"/>
<use x="253.90625" xlink:href="#aa"/>
<use x="317.382812" xlink:href="#x"/>
<use x="378.662109" xlink:href="#ao"/>
</g>
</g>
<g clip-path="url(#a)">
<g transform="translate(223.58 1020.9) scale(.1 -.1)">
<use xlink:href="#t"/>
<use x="54.980469" xlink:href="#u"/>
</g>
</g>
<g clip-path="url(#a)">
<g transform="translate(241.78 1020.9) scale(.1 -.1)">
<defs>
<path id="aw" d="m9.0781 54.688h13.141l15.531-36.625 15.578 36.625h13.031v-54.688h-9.0312v46.094l-15.094-35.594h-8.9844l-15.141 35.594v-46.094h-9.0312z"/>
<path id="ab" d="m9.0781 54.688h9.0312v-22.312h29.156v22.312h9.0312v-54.688h-9.0312v25.203h-29.156v-25.203h-9.0312z"/>
</defs>
<use xlink:href="#aw"/>
<use x="75.439453" xlink:href="#ab"/>
<use x="140.820312" xlink:href="#u"/>
<use x="202.001953" xlink:href="#ao"/>
</g>
</g>
<g clip-path="url(#a)">
<g transform="translate(281.42 1020.9) scale(.1 -.1)">
<use xlink:href="#ar"/>
</g>
</g>
<g clip-path="url(#a)">
<g transform="translate(311.24 1020.9) scale(.1 -.1)">
<use xlink:href="#w"/>
</g>
</g>
<g clip-path="url(#a)">
<g transform="translate(320.19 1020.9) scale(.1 -.1)">
<defs>
<path id="al" d="m56.297 54.688v-54.688h-9.0312v47.516h-29.156v-47.516h-9.0312v54.688z"/>
</defs>
<use xlink:href="#al"/>
<use x="65.380859" xlink:href="#u"/>
<use x="126.5625" xlink:href="#al"/>
<use x="191.943359" xlink:href="#aa"/>
<use x="255.419922" xlink:href="#u"/>
<use x="316.601562" xlink:href="#t"/>
<use x="371.582031" xlink:href="#v"/>
<use x="436.572266" xlink:href="#am"/>
</g>
</g>
<g clip-path="url(#a)">
<g transform="translate(350.15 1020.9) scale(.1 -.1)">
<defs>
<path id="az" d="m9.8125 72.906h14.703l18.594-49.609 18.703 49.609h14.703v-72.906h-9.625v64.016l-18.797-50h-9.9062l-18.797 50v-64.016h-9.5781z"/>
<path id="ah" d="m56.203 29.594v-4.3906h-41.312q0.59375-9.2812 5.5938-14.141t13.938-4.8594q5.1719 0 10.031 1.2656t9.6562 3.8125v-8.5q-4.8438-2.0469-9.9219-3.125t-10.297-1.0781q-13.094 0-20.734 7.6094-7.6406 7.625-7.6406 20.625 0 13.422 7.25 21.297 7.25 7.8906 19.562 7.8906 11.031 0 17.453-7.1094 6.4219-7.0938 6.4219-19.297zm-8.9844 2.6406q-0.09375 7.3594-4.125 11.75-4.0312 4.4062-10.672 4.4062-7.5156 0-12.031-4.25t-5.2031-11.969z"/>
<path id="av" d="m43.453 16.219q0 4.3906-3.2031 6.6875-3.1875 2.2969-9.3438 2.2969h-12.797v-18.031h12.797q6.1562 0 9.3438 2.3125 3.2031 2.3281 3.2031 6.7344zm-34.375 38.469h9.0312v-22.312h13.188q10.453 0 16.094-3.9844 5.6406-3.9688 5.6406-12.172t-5.6406-12.219q-5.6406-4-16.094-4h-22.219z"/>
</defs>
<use xlink:href="#az"/>
<use x="86.279297" xlink:href="#x"/>
<use x="147.558594" xlink:href="#am"/>
<use x="211.474609" xlink:href="#ah"/>
<use x="272.998047" xlink:href="#ab"/>
<use x="338.378906" xlink:href="#av"/>
<use x="397.314453" xlink:href="#an"/>
<use x="457.714844" xlink:href="#v"/>
<use x="522.705078" xlink:href="#ao"/>
</g>
</g>
<g clip-path="url(#a)">
<g transform="translate(399.63 1020.9) scale(.1 -.1)">
<defs>
<path id="bg" d="m56.297 0h-47.219v54.688h9.0312v-47.516h29.156v47.516h9.0312v-47.516h7.1875v-20.984h-7.1875z"/>
</defs>
<use xlink:href="#al"/>
<use x="65.380859" xlink:href="#aa"/>
<use x="128.857422" xlink:href="#v"/>
<use x="193.847656" xlink:href="#ab"/>
<use x="259.228516" xlink:href="#bg"/>
</g>
</g>
<g clip-path="url(#a)">
<g transform="translate(453.01 1020.9) scale(.1 -.1)">
<use xlink:href="#d"/>
</g>
</g>
<g clip-path="url(#a)">
<g transform="translate(493.55 1020.9) scale(.1 -.1)">
<use xlink:href="#w"/>
</g>
</g>
<g clip-path="url(#a)">
<g transform="translate(527.59 1020.9) scale(.1 -.1)">
<use xlink:href="#az"/>
<use x="86.279297" xlink:href="#ab"/>
<use x="151.660156" xlink:href="#ah"/>
</g>
</g>
<g clip-path="url(#a)">
<g transform="translate(574.29 1020.9) scale(.1 -.1)">
<defs>
<path id="ak" d="m2.9375 54.688h52.391v-7.1719h-21.781v-47.516h-8.8438v47.516h-21.766z"/>
</defs>
<use xlink:href="#ak"/>
<use x="58.251953" xlink:href="#x"/>
<use x="119.53125" xlink:href="#an"/>
</g>
</g>
<g clip-path="url(#a)">
<g transform="translate(609.73 1020.9) scale(.1 -.1)">
<defs>
<path id="as" d="m32.172-5.0781q-3.7969-9.7656-7.4219-12.734-3.6094-2.9844-9.6562-2.9844h-7.1875v7.5156h5.2812q3.7031 0 5.75 1.7656 2.0625 1.75 4.5469 8.2969l1.6094 4.0938-22.109 53.812h9.5156l17.094-42.766 17.094 42.766h9.5156z"/>
</defs>
<use xlink:href="#ap"/>
<use x="52.539062" xlink:href="#aa"/>
<use x="116.015625" xlink:href="#as"/>
<use x="175.195312" xlink:href="#t"/>
<use x="230.175781" xlink:href="#ak"/>
<use x="288.427734" xlink:href="#ab"/>
<use x="353.808594" xlink:href="#u"/>
</g>
</g>
<g clip-path="url(#a)">
<g transform="translate(675.04 1020.9) scale(.1 -.1)">
<use xlink:href="#d"/>
<use x="31.787109" xlink:href="#d"/>
<use x="63.574219" xlink:href="#d"/>
</g>
</g>
<g clip-path="url(#a)">
<g transform="translate(729.48 1020.9) scale(.1 -.1)">
<use xlink:href="#w"/>
</g>
</g>
<g clip-path="url(#a)">
<g transform="translate(778.07 1020.9) scale(.1 -.1)">
<defs>
<path id="bj" d="m9.8125 72.906h9.8594v-29.891h35.844v29.891h9.8594v-72.906h-9.8594v34.719h-35.844v-34.719h-9.8594z"/>
</defs>
<use xlink:href="#bj"/>
<use x="75.195312" xlink:href="#ah"/>
</g>
</g>
<g clip-path="url(#a)">
<g transform="translate(828.26 1020.9) scale(.1 -.1)">
<use xlink:href="#aw"/>
<use x="75.439453" xlink:href="#u"/>
<use x="136.621094" xlink:href="#ap"/>
<use x="189.160156" xlink:href="#as"/>
</g>
</g>
<g clip-path="url(#a)">
<g transform="translate(895.58 1020.9) scale(.1 -.1)">
<defs>
<path id="be" d="m18.453 38.922q0-4.0625 3.125-6.3594 3.125-2.2812 8.9375-2.2812h12.109v17.234h-12.109q-5.8125 0-8.9375-2.25t-3.125-6.3438zm-12.781-38.922 16.688 23.969q-5.6562 1.2812-9.4219 4.625-3.75 3.3438-3.75 10.328 0 7.9062 5.2344 11.828 5.25 3.9375 15.859 3.9375h21.375v-54.688h-9.0312v23.094h-11.172l-16.125-23.094z"/>
</defs>
<use xlink:href="#be"/>
</g>
</g>
<g clip-path="url(#a)">
<g transform="translate(955.89 1020.9) scale(.1 -.1)">
<use xlink:href="#t"/>
</g>
</g>
<g clip-path="url(#a)">
<g transform="translate(1005.5 1020.9) scale(.1 -.1)">
<defs>
<path id="bh" d="m31.109 56q11.719 0 18.406-7.625 6.6875-7.6094 6.6875-21.078 0-13.422-6.6875-21.078-6.6875-7.6406-18.406-7.6406-11.766 0-18.266 7.4219t-6.8438 21.297l-0.28125 11.188q-0.25 5.7969-0.25 7.8125 0 7.8125 2.8281 13.562 4.4531 9.0312 12.141 12.938t20.578 4.0156q5.9531 0.046875 8.5938 0.875l2.4844-7.125q-2.3906-0.98438-4.5781-1.0312l-12.219-0.82812q-6.1406-0.4375-9.8594-2.5938-9.7188-5.7031-10.641-13.172l-0.34375-2.7344q6.3438 5.7969 16.656 5.7969zm0-7.6094q-7.2344 0-11.438-5.6406-4.1875-5.6406-4.1875-15.453t4.1719-15.453 11.453-5.6406q7.1719 0 11.375 5.6562 4.2031 5.6719 4.2031 15.438 0 9.7188-4.2031 15.406t-11.375 5.6875z"/>
</defs>
<use xlink:href="#ak"/>
<use x="58.251953" xlink:href="#u"/>
<use x="119.433594" xlink:href="#bh"/>
<use x="181.103516" xlink:href="#u"/>
<use x="242.285156" xlink:href="#ao"/>
</g>
</g>
<g clip-path="url(#a)">
<g transform="translate(1067.2 1020.9) scale(.1 -.1)">
<use xlink:href="#v"/>
<use x="64.990234" xlink:href="#ap"/>
<use x="117.529297" xlink:href="#aa"/>
<use x="181.005859" xlink:href="#x"/>
<use x="242.285156" xlink:href="#ak"/>
<use x="300.537109" xlink:href="#av"/>
</g>
</g>
<g clip-path="url(#a)">
<g transform="translate(1150.1 1020.9) scale(.1 -.1)">
<use xlink:href="#ar"/>
</g>
</g>
<g clip-path="url(#a)">
<g transform="translate(1218.5 1020.9) scale(.1 -.1)">
<use xlink:href="#w"/>
</g>
</g>
<g clip-path="url(#a)">
<g transform="translate(1273.3 1020.9) scale(.1 -.1)">
<use xlink:href="#t"/>
<use x="54.980469" xlink:href="#an"/>
<use x="115.380859" xlink:href="#x"/>
<use x="176.660156" xlink:href="#ax"/>
<use x="229.833984" xlink:href="#x"/>
<use x="291.113281" xlink:href="#am"/>
</g>
</g>
<g clip-path="url(#a)">
<g transform="translate(1354.3 1020.9) scale(.1 -.1)">
<use xlink:href="#at"/>
<use x="75.195312" xlink:href="#v"/>
<use x="140.185547" xlink:href="#t"/>
</g>
</g>
<g clip-path="url(#a)">
<g transform="translate(1437.5 1020.9) scale(.1 -.1)">
<use xlink:href="#d"/>
</g>
</g>
<g clip-path="url(#a)">
<g transform="translate(1514.5 1020.9) scale(.1 -.1)">
<use xlink:href="#w"/>
</g>
</g>
<g clip-path="url(#a)">
<g transform="translate(1592.2 1020.9) scale(.1 -.1)">
<use xlink:href="#ay"/>
</g>
</g>
<g clip-path="url(#a)">
<g transform="translate(1670.8 1020.9) scale(.1 -.1)">
<use xlink:href="#ab"/>
<use x="65.380859" xlink:href="#ah"/>
</g>
</g>
<g clip-path="url(#a)">
<g transform="translate(1735.7 1020.9) scale(.1 -.1)">
<defs>
<path id="bf" d="m41.016 0v23h-16.75q-7.4688 0-12.453 4.6406-4.4844 4.2031-4.4844 13.188v13.859h8.9844v-13.031q0-5.7188 2.5312-8.5938 2.5938-2.8906 7.6719-2.8906h14.5v24.516h8.9844v-54.688z"/>
</defs>
<use xlink:href="#al"/>
<use x="65.380859" xlink:href="#aa"/>
<use x="128.857422" xlink:href="#v"/>
<use x="193.847656" xlink:href="#aa"/>
<use x="257.324219" xlink:href="#as"/>
<use x="316.503906" xlink:href="#bf"/>
<use x="375.585938" xlink:href="#ah"/>
<use x="437.109375" xlink:href="#ab"/>
</g>
</g>
<g clip-path="url(#a)">
<g transform="translate(1845 1020.9) scale(.1 -.1)">
<use xlink:href="#d"/>
</g>
</g>
<g clip-path="url(#a)">
<g transform="translate(1932.7 1020.9) scale(.1 -.1)">
<use xlink:href="#w"/>
</g>
</g>
<g clip-path="url(#a)">
<g transform="translate(79.615 862.2) scale(.1 -.1)">
<defs>
<path id="aq" d="m9.8125 72.906h9.8594v-72.906h-9.8594z"/>
<path id="ba" d="m9.8125 72.906h14.703l18.594-49.609 18.703 49.609h14.703v-72.906h-9.625v64.016l-18.797-50h-9.9062l-18.797 50v-64.016h-9.5781z"/>
<path id="bb" d="m9.8125 72.906h9.8594v-64.609h35.5v-8.2969h-45.359z"/>
</defs>
<use xlink:href="#aq"/>
<use x="29.492188" xlink:href="#ba"/>
<use x="115.771484" xlink:href="#ac"/>
<use x="176.074219" xlink:href="#bb"/>
<use x="231.787109" xlink:href="#aq"/>
<use x="261.279297" xlink:href="#aj"/>
<use x="331.103516" xlink:href="#aq"/>
<use x="360.595703" xlink:href="#e"/>
</g>
</g>
<g clip-path="url(#a)">
<g transform="translate(641.58 51.244) scale(.1 -.1)">
<defs>
<path id="c" d="m12.406 8.2969h16.109v55.625l-17.531-3.5156v8.9844l17.438 3.5156h9.8594v-64.609h16.109v-8.2969h-41.984z"/>
</defs>
<use xlink:href="#c"/>
<use x="63.623047" xlink:href="#d"/>
<use x="95.410156" xlink:href="#c"/>
</g>
</g>
<g clip-path="url(#a)">
<g transform="translate(113.13 539.44) scale(.1 -.1)">
<defs>
<path id="q" d="m19.188 8.2969h34.422v-8.2969h-46.281v8.2969q5.6094 5.8125 15.297 15.594 9.7031 9.7969 12.188 12.641 4.7344 5.3125 6.6094 9 1.8906 3.6875 1.8906 7.25 0 5.8125-4.0781 9.4688-4.0781 3.6719-10.625 3.6719-4.6406 0-9.7969-1.6094-5.1406-1.6094-11-4.8906v9.9688q5.9531 2.3906 11.125 3.6094 5.1875 1.2188 9.4844 1.2188 11.328 0 18.062-5.6719 6.7344-5.6562 6.7344-15.125 0-4.5-1.6875-8.5312-1.6719-4.0156-6.125-9.4844-1.2188-1.4219-7.7656-8.1875-6.5312-6.7656-18.453-18.922z"/>
</defs>
<use xlink:href="#c"/>
<use x="63.623047" xlink:href="#d"/>
<use x="95.410156" xlink:href="#q"/>
</g>
</g>
<g clip-path="url(#a)">
<g transform="translate(375.57 214.33) scale(.1 -.1)">
<defs>
<path id="s" d="m40.578 39.312q7.0781-1.5156 11.047-6.3125 3.9844-4.7812 3.9844-11.812 0-10.781-7.4219-16.703-7.4219-5.9062-21.094-5.9062-4.5781 0-9.4375 0.90625t-10.031 2.7188v9.5156q4.0938-2.3906 8.9688-3.6094 4.8906-1.2188 10.219-1.2188 9.2656 0 14.125 3.6562t4.8594 10.641q0 6.4531-4.5156 10.078-4.5156 3.6406-12.562 3.6406h-8.5v8.1094h8.8906q7.2656 0 11.125 2.9062t3.8594 8.375q0 5.6094-3.9844 8.6094-3.9688 3.0156-11.391 3.0156-4.0625 0-8.7031-0.89062-4.6406-0.875-10.203-2.7188v8.7812q5.625 1.5625 10.531 2.3438t9.25 0.78125q11.234 0 17.766-5.1094 6.5469-5.0938 6.5469-13.781 0-6.0625-3.4688-10.234t-9.8594-5.7812z"/>
</defs>
<use xlink:href="#c"/>
<use x="63.623047" xlink:href="#d"/>
<use x="95.410156" xlink:href="#s"/>
</g>
</g>
<g clip-path="url(#a)">
<g transform="translate(1324 214.33) scale(.1 -.1)">
<defs>
<path id="p" d="m37.797 64.312-24.906-38.922h24.906zm-2.5938 8.5938h12.406v-47.516h10.406v-8.2031h-10.406v-17.188h-9.8125v17.188h-32.906v9.5156z"/>
</defs>
<use xlink:href="#c"/>
<use x="63.623047" xlink:href="#d"/>
<use x="95.410156" xlink:href="#p"/>
</g>
</g>
<g clip-path="url(#a)">
<g transform="translate(1333.4 377.09) scale(.1 -.1)">
<defs>
<path id="z" d="m10.984 1.5156v8.9844q3.7188-1.7656 7.5156-2.6875 3.8125-0.92188 7.4844-0.92188 9.7656 0 14.906 6.5625 5.1562 6.5625 5.8906 19.953-2.8281-4.2031-7.1875-6.4531-4.3438-2.25-9.6094-2.25-10.938 0-17.312 6.6094-6.375 6.625-6.375 18.109 0 11.219 6.6406 18 6.6406 6.7969 17.672 6.7969 12.656 0 19.312-9.7031 6.6719-9.6875 6.6719-28.141 0-17.234-8.1875-27.516-8.1719-10.281-21.984-10.281-3.7188 0-7.5312 0.73438-3.7969 0.73438-7.9062 2.2031zm19.625 30.906q6.6406 0 10.516 4.5312 3.8906 4.5469 3.8906 12.469 0 7.8594-3.8906 12.422-3.875 4.5625-10.516 4.5625t-10.516-4.5625-3.875-12.422q0-7.9219 3.875-12.469 3.875-4.5312 10.516-4.5312z"/>
</defs>
<use xlink:href="#c"/>
<use x="63.623047" xlink:href="#d"/>
<use x="95.410156" xlink:href="#z"/>
</g>
</g>
<g clip-path="url(#a)">
<g transform="translate(1280 862.2) scale(.1 -.1)">
<defs>
<path id="af" d="m31.781 66.406q-7.6094 0-11.453-7.5-3.8281-7.4844-3.8281-22.531 0-14.984 3.8281-22.484 3.8438-7.5 11.453-7.5 7.6719 0 11.5 7.5 3.8438 7.5 3.8438 22.484 0 15.047-3.8438 22.531-3.8281 7.5-11.5 7.5zm0 7.8125q12.266 0 18.734-9.7031 6.4688-9.6875 6.4688-28.141 0-18.406-6.4688-28.109-6.4688-9.6875-18.734-9.6875-12.25 0-18.719 9.6875-6.4688 9.7031-6.4688 28.109 0 18.453 6.4688 28.141 6.4688 9.7031 18.719 9.7031z"/>
</defs>
<use xlink:href="#c"/>
<use x="63.623047" xlink:href="#d"/>
<use x="95.410156" xlink:href="#c"/>
<use x="159.033203" xlink:href="#af"/>
</g>
</g>
<g clip-path="url(#a)">
<g transform="translate(1352.9 862.2) scale(.1 -.1)">
<use xlink:href="#c"/>
<use x="63.623047" xlink:href="#d"/>
<use x="95.410156" xlink:href="#c"/>
<use x="159.033203" xlink:href="#c"/>
</g>
</g>
<g clip-path="url(#a)">
<g transform="translate(908.69 539.44) scale(.1 -.1)">
<defs>
<path id="o" d="m33.016 40.375q-6.6406 0-10.531-4.5469-3.875-4.5312-3.875-12.438 0-7.8594 3.875-12.438 3.8906-4.5625 10.531-4.5625t10.516 4.5625q3.875 4.5781 3.875 12.438 0 7.9062-3.875 12.438-3.875 4.5469-10.516 4.5469zm19.578 30.922v-8.9844q-3.7188 1.75-7.5 2.6719-3.7812 0.9375-7.5 0.9375-9.7656 0-14.922-6.5938-5.1406-6.5938-5.875-19.922 2.875 4.25 7.2188 6.5156 4.3594 2.2656 9.5781 2.2656 10.984 0 17.359-6.6719 6.375-6.6562 6.375-18.125 0-11.234-6.6406-18.031-6.6406-6.7812-17.672-6.7812-12.656 0-19.344 9.6875-6.6875 9.7031-6.6875 28.109 0 17.281 8.2031 27.562t22.016 10.281q3.7188 0 7.5-0.73438t7.8906-2.1875z"/>
</defs>
<use xlink:href="#c"/>
<use x="63.623047" xlink:href="#d"/>
<use x="95.410156" xlink:href="#c"/>
<use x="159.033203" xlink:href="#o"/>
</g>
</g>
<g clip-path="url(#a)">
<g transform="translate(1751.8 701.24) scale(.1 -.1)">
<defs>
<path id="ae" d="m8.2031 72.906h46.875v-4.2031l-26.469-68.703h-10.297l24.906 64.594h-35.016z"/>
</defs>
<use xlink:href="#c"/>
<use x="63.623047" xlink:href="#d"/>
<use x="95.410156" xlink:href="#c"/>
<use x="159.033203" xlink:href="#ae"/>
</g>
</g>
<g clip-path="url(#a)">
<g transform="translate(1584.5 862.2) scale(.1 -.1)">
<defs>
<path id="ad" d="m31.781 34.625q-7.0312 0-11.062-3.7656-4.0156-3.7656-4.0156-10.344 0-6.5938 4.0156-10.359 4.0312-3.7656 11.062-3.7656t11.078 3.7812q4.0625 3.7969 4.0625 10.344 0 6.5781-4.0312 10.344-4.0156 3.7656-11.109 3.7656zm-9.8594 4.1875q-6.3438 1.5625-9.8906 5.9062-3.5312 4.3594-3.5312 10.609 0 8.7344 6.2188 13.812 6.2344 5.0781 17.062 5.0781 10.891 0 17.094-5.0781t6.2031-13.812q0-6.25-3.5469-10.609-3.5312-4.3438-9.8281-5.9062 7.125-1.6562 11.094-6.5 3.9844-4.8281 3.9844-11.797 0-10.609-6.4688-16.281-6.4688-5.6562-18.531-5.6562-12.047 0-18.531 5.6562-6.4688 5.6719-6.4688 16.281 0 6.9688 4 11.797 4.0156 4.8438 11.141 6.5zm-3.6094 15.578q0-5.6562 3.5312-8.8281 3.5469-3.1719 9.9375-3.1719 6.3594 0 9.9375 3.1719 3.5938 3.1719 3.5938 8.8281 0 5.6719-3.5938 8.8438-3.5781 3.1719-9.9375 3.1719-6.3906 0-9.9375-3.1719-3.5312-3.1719-3.5312-8.8438z"/>
</defs>
<use xlink:href="#c"/>
<use x="63.623047" xlink:href="#d"/>
<use x="95.410156" xlink:href="#c"/>
<use x="159.033203" xlink:href="#ad"/>
</g>
</g>
<g clip-path="url(#a)">
<g transform="translate(1666 862.2) scale(.1 -.1)">
<use xlink:href="#c"/>
<use x="63.623047" xlink:href="#d"/>
<use x="95.410156" xlink:href="#c"/>
<use x="159.033203" xlink:href="#z"/>
</g>
</g>
<g clip-path="url(#a)">
<g transform="translate(1749.7 862.2) scale(.1 -.1)">
<use xlink:href="#c"/>
<use x="63.623047" xlink:href="#d"/>
<use x="95.410156" xlink:href="#q"/>
<use x="159.033203" xlink:href="#af"/>
</g>
</g>
<g clip-path="url(#a)">
<g transform="translate(773.77 862.2) scale(.1 -.1)">
<use xlink:href="#c"/>
<use x="63.623047" xlink:href="#d"/>
<use x="95.410156" xlink:href="#q"/>
<use x="159.033203" xlink:href="#c"/>
</g>
</g>
<g clip-path="url(#a)">
<g transform="translate(829.54 862.2) scale(.1 -.1)">
<use xlink:href="#c"/>
<use x="63.623047" xlink:href="#d"/>
<use x="95.410156" xlink:href="#q"/>
<use x="159.033203" xlink:href="#q"/>
</g>
</g>
<g clip-path="url(#a)">
<g transform="translate(887.45 862.2) scale(.1 -.1)">
<use xlink:href="#c"/>
<use x="63.623047" xlink:href="#d"/>
<use x="95.410156" xlink:href="#q"/>
<use x="159.033203" xlink:href="#s"/>
</g>
</g>
<g clip-path="url(#a)">
<g transform="translate(978.61 701.24) scale(.1 -.1)">
<use xlink:href="#c"/>
<use x="63.623047" xlink:href="#d"/>
<use x="95.410156" xlink:href="#q"/>
<use x="159.033203" xlink:href="#p"/>
</g>
</g>
<g clip-path="url(#a)">
<g transform="translate(1074.1 862.2) scale(.1 -.1)">
<defs>
<path id="r" d="m10.797 72.906h38.719v-8.3125h-29.688v-17.859q2.1406 0.73438 4.2812 1.0938 2.1562 0.35938 4.3125 0.35938 12.203 0 19.328-6.6875 7.1406-6.6875 7.1406-18.109 0-11.766-7.3281-18.297-7.3281-6.5156-20.656-6.5156-4.5938 0-9.3594 0.78125-4.75 0.78125-9.8281 2.3438v9.9219q4.3906-2.3906 9.0781-3.5625t9.9062-1.1719q8.4531 0 13.375 4.4375 4.9375 4.4375 4.9375 12.062 0 7.6094-4.9375 12.047-4.9219 4.4531-13.375 4.4531-3.9531 0-7.8906-0.875-3.9219-0.875-8.0156-2.7344z"/>
</defs>
<use xlink:href="#c"/>
<use x="63.623047" xlink:href="#d"/>
<use x="95.410156" xlink:href="#q"/>
<use x="159.033203" xlink:href="#r"/>
</g>
</g>
<g clip-path="url(#a)">
<g transform="translate(947.51 862.2) scale(.1 -.1)">
<use xlink:href="#c"/>
<use x="63.623047" xlink:href="#d"/>
<use x="95.410156" xlink:href="#q"/>
<use x="159.033203" xlink:href="#o"/>
</g>
</g>
<g clip-path="url(#a)">
<g transform="translate(1009.7 862.2) scale(.1 -.1)">
<use xlink:href="#c"/>
<use x="63.623047" xlink:href="#d"/>
<use x="95.410156" xlink:href="#q"/>
<use x="159.033203" xlink:href="#ae"/>
</g>
</g>
<g clip-path="url(#a)">
<g transform="translate(375.4 377.09) scale(.1 -.1)">
<use xlink:href="#c"/>
<use x="63.623047" xlink:href="#d"/>
<use x="95.410156" xlink:href="#q"/>
<use x="159.033203" xlink:href="#ad"/>
</g>
</g>
<g clip-path="url(#a)">
<g transform="translate(334.08 862.2) scale(.1 -.1)">
<use xlink:href="#c"/>
<use x="63.623047" xlink:href="#d"/>
<use x="95.410156" xlink:href="#q"/>
<use x="159.033203" xlink:href="#z"/>
</g>
</g>
<g clip-path="url(#a)">
<g transform="translate(395.74 377.09) scale(.1 -.1)">
<use xlink:href="#c"/>
<use x="63.623047" xlink:href="#d"/>
<use x="95.410156" xlink:href="#s"/>
<use x="159.033203" xlink:href="#af"/>
</g>
</g>
<g clip-path="url(#a)">
<g transform="translate(386.63 539.44) scale(.1 -.1)">
<use xlink:href="#c"/>
<use x="63.623047" xlink:href="#d"/>
<use x="95.410156" xlink:href="#s"/>
<use x="159.033203" xlink:href="#r"/>
</g>
</g>
<g clip-path="url(#a)">
<g transform="translate(404.86 701.24) scale(.1 -.1)">
<use xlink:href="#c"/>
<use x="63.623047" xlink:href="#d"/>
<use x="95.410156" xlink:href="#s"/>
<use x="159.033203" xlink:href="#o"/>
</g>
</g>
<g clip-path="url(#a)">
<g transform="translate(404.86 862.2) scale(.1 -.1)">
<use xlink:href="#c"/>
<use x="63.623047" xlink:href="#d"/>
<use x="95.410156" xlink:href="#s"/>
<use x="159.033203" xlink:href="#ae"/>
</g>
</g>
<g clip-path="url(#a)">
<g transform="translate(368.4 862.2) scale(.1 -.1)">
<use xlink:href="#c"/>
<use x="63.623047" xlink:href="#d"/>
<use x="95.410156" xlink:href="#s"/>
<use x="159.033203" xlink:href="#ad"/>
</g>
</g>
<g clip-path="url(#a)">
<g transform="translate(177.94 539.44) scale(.1 -.1)">
<use xlink:href="#c"/>
<use x="63.623047" xlink:href="#d"/>
<use x="95.410156" xlink:href="#s"/>
<use x="159.033203" xlink:href="#z"/>
</g>
</g>
<g clip-path="url(#a)">
<g transform="translate(572.87 701.24) scale(.1 -.1)">
<use xlink:href="#c"/>
<use x="63.623047" xlink:href="#d"/>
<use x="95.410156" xlink:href="#p"/>
<use x="159.033203" xlink:href="#af"/>
</g>
</g>
<g clip-path="url(#a)">
<g transform="translate(527.12 862.2) scale(.1 -.1)">
<use xlink:href="#c"/>
<use x="63.623047" xlink:href="#d"/>
<use x="95.410156" xlink:href="#p"/>
<use x="159.033203" xlink:href="#c"/>
</g>
</g>
<g clip-path="url(#a)">
<g transform="translate(572.16 862.2) scale(.1 -.1)">
<use xlink:href="#c"/>
<use x="63.623047" xlink:href="#d"/>
<use x="95.410156" xlink:href="#p"/>
<use x="159.033203" xlink:href="#q"/>
</g>
</g>
<g clip-path="url(#a)">
<g transform="translate(619.35 862.2) scale(.1 -.1)">
<use xlink:href="#c"/>
<use x="63.623047" xlink:href="#d"/>
<use x="95.410156" xlink:href="#p"/>
<use x="159.033203" xlink:href="#s"/>
</g>
</g>
<g clip-path="url(#a)">
<g transform="translate(194.67 862.2) scale(.1 -.1)">
<use xlink:href="#c"/>
<use x="63.623047" xlink:href="#d"/>
<use x="95.410156" xlink:href="#p"/>
<use x="159.033203" xlink:href="#p"/>
</g>
</g>
<g clip-path="url(#a)">
<g transform="translate(231.13 701.24) scale(.1 -.1)">
<use xlink:href="#c"/>
<use x="63.623047" xlink:href="#d"/>
<use x="95.410156" xlink:href="#p"/>
<use x="159.033203" xlink:href="#r"/>
</g>
</g>
<g clip-path="url(#a)">
<g transform="translate(98.147 862.2) scale(.1 -.1)">
<use xlink:href="#c"/>
<use x="63.623047" xlink:href="#d"/>
<use x="95.410156" xlink:href="#p"/>
<use x="159.033203" xlink:href="#o"/>
</g>
</g>
<g clip-path="url(#a)">
<g transform="translate(108.87 862.2) scale(.1 -.1)">
<use xlink:href="#c"/>
<use x="63.623047" xlink:href="#d"/>
<use x="95.410156" xlink:href="#p"/>
<use x="159.033203" xlink:href="#ae"/>
</g>
</g>
<g clip-path="url(#a)">
<g transform="translate(218.26 862.2) scale(.1 -.1)">
<use xlink:href="#c"/>
<use x="63.623047" xlink:href="#d"/>
<use x="95.410156" xlink:href="#p"/>
<use x="159.033203" xlink:href="#ad"/>
</g>
</g>
<g clip-path="url(#a)">
<g transform="translate(244 862.2) scale(.1 -.1)">
<use xlink:href="#c"/>
<use x="63.623047" xlink:href="#d"/>
<use x="95.410156" xlink:href="#p"/>
<use x="159.033203" xlink:href="#z"/>
</g>
</g>
<g clip-path="url(#a)">
<g transform="translate(84.206 701.24) scale(.1 -.1)">
<use xlink:href="#c"/>
<use x="63.623047" xlink:href="#d"/>
<use x="95.410156" xlink:href="#r"/>
<use x="159.033203" xlink:href="#af"/>
</g>
</g>
<g clip-path="url(#a)">
<g transform="translate(121.74 862.2) scale(.1 -.1)">
<use xlink:href="#c"/>
<use x="63.623047" xlink:href="#d"/>
<use x="95.410156" xlink:href="#r"/>
<use x="159.033203" xlink:href="#c"/>
</g>
</g>
<g clip-path="url(#a)">
<g transform="translate(136.75 862.2) scale(.1 -.1)">
<use xlink:href="#c"/>
<use x="63.623047" xlink:href="#d"/>
<use x="95.410156" xlink:href="#r"/>
<use x="159.033203" xlink:href="#q"/>
</g>
</g>
<g clip-path="url(#a)">
<g transform="translate(153.91 862.2) scale(.1 -.1)">
<use xlink:href="#c"/>
<use x="63.623047" xlink:href="#d"/>
<use x="95.410156" xlink:href="#r"/>
<use x="159.033203" xlink:href="#s"/>
</g>
</g>
<g clip-path="url(#a)">
<g transform="translate(173.22 862.2) scale(.1 -.1)">
<use xlink:href="#c"/>
<use x="63.623047" xlink:href="#d"/>
<use x="95.410156" xlink:href="#r"/>
<use x="159.033203" xlink:href="#p"/>
</g>
</g>
<g clip-path="url(#a)">
<g transform="translate(80.988 862.2) scale(.1 -.1)">
<use xlink:href="#c"/>
<use x="63.623047" xlink:href="#d"/>
<use x="95.410156" xlink:href="#r"/>
<use x="159.033203" xlink:href="#o"/>
</g>
</g>
<g clip-path="url(#a)">
<g transform="translate(87.423 862.2) scale(.1 -.1)">
<use xlink:href="#c"/>
<use x="63.623047" xlink:href="#d"/>
<use x="95.410156" xlink:href="#r"/>
<use x="159.033203" xlink:href="#ae"/>
</g>
</g>
<g clip-path="url(#a)">
<g transform="translate(271.88 862.2) scale(.1 -.1)">
<use xlink:href="#c"/>
<use x="63.623047" xlink:href="#d"/>
<use x="95.410156" xlink:href="#r"/>
<use x="159.033203" xlink:href="#ad"/>
</g>
</g>
<g clip-path="url(#a)">
<g transform="translate(301.91 862.2) scale(.1 -.1)">
<use xlink:href="#c"/>
<use x="63.623047" xlink:href="#d"/>
<use x="95.410156" xlink:href="#r"/>
<use x="159.033203" xlink:href="#z"/>
</g>
</g>
<g clip-path="url(#a)">
<g transform="translate(443.47 862.2) scale(.1 -.1)">
<use xlink:href="#c"/>
<use x="63.623047" xlink:href="#d"/>
<use x="95.410156" xlink:href="#o"/>
<use x="159.033203" xlink:href="#af"/>
</g>
</g>
<g clip-path="url(#a)">
<g transform="translate(484.22 862.2) scale(.1 -.1)">
<use xlink:href="#c"/>
<use x="63.623047" xlink:href="#d"/>
<use x="95.410156" xlink:href="#o"/>
<use x="159.033203" xlink:href="#c"/>
</g>
</g>
<g clip-path="url(#a)">
<g transform="translate(668.68 862.2) scale(.1 -.1)">
<use xlink:href="#c"/>
<use x="63.623047" xlink:href="#d"/>
<use x="95.410156" xlink:href="#o"/>
<use x="159.033203" xlink:href="#q"/>
</g>
</g>
<g clip-path="url(#a)">
<g transform="translate(720.15 862.2) scale(.1 -.1)">
<use xlink:href="#c"/>
<use x="63.623047" xlink:href="#d"/>
<use x="95.410156" xlink:href="#o"/>
<use x="159.033203" xlink:href="#s"/>
</g>
</g>
<g clip-path="url(#a)">
<g transform="translate(1140.5 862.2) scale(.1 -.1)">
<use xlink:href="#c"/>
<use x="63.623047" xlink:href="#d"/>
<use x="95.410156" xlink:href="#o"/>
<use x="159.033203" xlink:href="#p"/>
</g>
</g>
<g clip-path="url(#a)">
<g transform="translate(1209.2 862.2) scale(.1 -.1)">
<use xlink:href="#c"/>
<use x="63.623047" xlink:href="#d"/>
<use x="95.410156" xlink:href="#o"/>
<use x="159.033203" xlink:href="#r"/>
</g>
</g>
<g clip-path="url(#a)">
<g transform="translate(1428 862.2) scale(.1 -.1)">
<use xlink:href="#c"/>
<use x="63.623047" xlink:href="#d"/>
<use x="95.410156" xlink:href="#o"/>
<use x="159.033203" xlink:href="#o"/>
</g>
</g>
<g clip-path="url(#a)">
<g transform="translate(1505.2 862.2) scale(.1 -.1)">
<use xlink:href="#c"/>
<use x="63.623047" xlink:href="#d"/>
<use x="95.410156" xlink:href="#o"/>
<use x="159.033203" xlink:href="#ae"/>
</g>
</g>
<g clip-path="url(#a)">
<g transform="translate(1835.5 862.2) scale(.1 -.1)">
<use xlink:href="#c"/>
<use x="63.623047" xlink:href="#d"/>
<use x="95.410156" xlink:href="#o"/>
<use x="159.033203" xlink:href="#ad"/>
</g>
</g>
<g clip-path="url(#a)">
<g transform="translate(1923.4 862.2) scale(.1 -.1)">
<use xlink:href="#c"/>
<use x="63.623047" xlink:href="#d"/>
<use x="95.410156" xlink:href="#o"/>
<use x="159.033203" xlink:href="#z"/>
</g>
</g>
<defs>
<clipPath id="a">
<rect width="2026.7" height="1066.7"/>
</clipPath>
</defs>
</svg>
