<?xml version="1.0" encoding="UTF-8"?>
<!DOCTYPE svg  PUBLIC '-//W3C//DTD SVG 1.1//EN'  'http://www.w3.org/Graphics/SVG/1.1/DTD/svg11.dtd'>
<svg width="557.33pt" height="293.33pt" version="1.1" viewBox="0 0 557.33 293.33" xmlns="http://www.w3.org/2000/svg" xmlns:xlink="http://www.w3.org/1999/xlink">
<metadata>
<rdf:RDF xmlns:cc="http://creativecommons.org/ns#" xmlns:dc="http://purl.org/dc/elements/1.1/" xmlns:rdf="http://www.w3.org/1999/02/22-rdf-syntax-ns#">
<cc:Work>
<dc:type rdf:resource="http://purl.org/dc/dcmitype/StillImage"/>
<dc:date>2021-02-01T11:25:25.995556</dc:date>
<dc:format>image/svg+xml</dc:format>
<dc:creator>
<cc:Agent>
<dc:title>Matplotlib v3.3.3, https://matplotlib.org/</dc:title>
</cc:Agent>
</dc:creator>
</cc:Work>
</rdf:RDF>
</metadata>
<defs>
<style type="text/css">*{stroke-linecap:butt;stroke-linejoin:round;}</style>
</defs>
<path d="m0 293.33h557.33v-293.33h-557.33z" fill="#fff"/>
<g fill="none" stroke="#000">
<path d="m252.7 13.333v53.809" clip-path="url(#a)"/>
<path d="m252.7 67.142-192.83 53.673" clip-path="url(#a)"/>
<path d="m252.7 67.142 56.371 160.38" clip-path="url(#a)"/>
<path d="m252.7 67.142 199.36 53.673" clip-path="url(#a)"/>
<path d="m252.7 67.142-58.473 160.38" clip-path="url(#a)"/>
<path d="m252.7 67.142-4.4286 160.38" clip-path="url(#a)"/>
<path d="m59.862 120.82-34.528 106.7" clip-path="url(#a)"/>
<path d="m59.862 120.82-14.262 106.7" clip-path="url(#a)"/>
<path d="m59.862 120.82 48.79 53.491" clip-path="url(#a)"/>
<path d="m309.07 227.52v52.482" clip-path="url(#a)"/>
<path d="m452.06 120.82 1.1259 53.491" clip-path="url(#a)"/>
<path d="m452.06 120.82-1.1259 53.491" clip-path="url(#a)"/>
<path d="m453.19 174.31-2.2519 53.212" clip-path="url(#a)" stroke-dasharray="3.7,1.6"/>
<path d="m453.19 174.31-76.563 53.212" clip-path="url(#a)"/>
<path d="m453.19 174.31 78.815 53.212" clip-path="url(#a)"/>
<path d="m450.93 174.31v53.212" clip-path="url(#a)"/>
<path d="m450.93 227.52v52.482" clip-path="url(#a)"/>
<path d="m376.62 227.52v52.482" clip-path="url(#a)"/>
<path d="m25.333 227.52v52.482" clip-path="url(#a)"/>
<path d="m45.6 227.52v52.482" clip-path="url(#a)"/>
<path d="m108.65 174.31-36.03 53.212" clip-path="url(#a)"/>
<path d="m108.65 174.31-2.2519 53.212" clip-path="url(#a)"/>
<path d="m108.65 174.31 38.281 53.212" clip-path="url(#a)"/>
<path d="m72.622 227.52v52.482" clip-path="url(#a)"/>
<path d="m106.4 227.52v52.482" clip-path="url(#a)"/>
<path d="m146.93 227.52v52.482" clip-path="url(#a)"/>
<path d="m194.22 227.52v52.482" clip-path="url(#a)"/>
<path d="m248.27 227.52v52.482" clip-path="url(#a)"/>
<path d="m532 227.52v52.482" clip-path="url(#a)"/>
</g>
<path d="m246.42 37.23v6.0162q0 2.4 2.4 2.4h7.7425q2.4 0 2.4-2.4v-6.0162q0-2.4-2.4-2.4h-7.7425q-2.4 0-2.4 2.4z" clip-path="url(#a)" fill="#fff" stroke="#fff"/>
<g clip-path="url(#a)">
<g transform="translate(250.49 37.23) rotate(90) scale(.08 -.08)">
<defs>
<path id="ag" d="m9.8125 72.906h9.8594v-29.891h35.844v29.891h9.8594v-72.906h-9.8594v34.719h-35.844v-34.719h-9.8594z"/>
</defs>
<use xlink:href="#ag"/>
</g>
</g>
<path d="m155.32 100.75 5.2721-1.4674q2.3121-0.64355 1.6686-2.9557l-2.0761-7.459q-0.64355-2.3121-2.9557-1.6686l-5.2721 1.4674q-2.3121 0.64355-1.6686 2.9557l2.0761 7.459q0.64355 2.3121 2.9557 1.6686z" clip-path="url(#a)" fill="#fff" stroke="#fff"/>
<g clip-path="url(#a)">
<g transform="translate(154.23 96.839) rotate(-15.554) scale(.08 -.08)">
<defs>
<path id="m" d="m34.188 63.188-13.391-36.281h26.812zm-5.5781 9.7188h11.188l27.781-72.906h-10.25l-6.6406 18.703h-32.859l-6.6406-18.703h-10.406z"/>
</defs>
<use xlink:href="#m"/>
</g>
</g>
<path d="m274.16 147.13 1.5996 4.5508q0.79586 2.2642 3.0601 1.4683l7.3044-2.5675q2.2642-0.79586 1.4683-3.0601l-1.5996-4.5508q-0.79586-2.2642-3.0601-1.4683l-7.3044 2.5675q-2.2642 0.79586-1.4683 3.0601z" clip-path="url(#a)" fill="#fff" stroke="#fff"/>
<g clip-path="url(#a)">
<g transform="translate(278 145.79) rotate(70.634) scale(.08 -.08)">
<defs>
<path id="af" d="m19.672 64.797v-27.391h12.406q6.8906 0 10.641 3.5625 3.7656 3.5625 3.7656 10.156 0 6.5469-3.7656 10.109-3.75 3.5625-10.641 3.5625zm-9.8594 8.1094h22.266q12.266 0 18.531-5.5469 6.2812-5.5469 6.2812-16.234 0-10.797-6.2812-16.312-6.2656-5.5156-18.531-5.5156h-12.406v-29.297h-9.8594z"/>
</defs>
<use xlink:href="#af"/>
</g>
</g>
<path d="m348.1 99.323 5.2843 1.4227q2.3175 0.62392 2.9414-1.6936l2.0128-7.4763q0.62392-2.3175-1.6936-2.9414l-5.2843-1.4227q-2.3175-0.62392-2.9414 1.6936l-2.0128 7.4763q-0.62392 2.3175 1.6936 2.9414z" clip-path="url(#a)" fill="#fff" stroke="#fff"/>
<g clip-path="url(#a)">
<g transform="translate(349.16 95.399) rotate(15.068) scale(.08 -.08)">
<use xlink:href="#m"/>
</g>
</g>
<path d="m228.35 152.23 2.0056-5.5008q0.8221-2.2548-1.4327-3.0769l-7.2741-2.6521q-2.2548-0.8221-3.0769 1.4327l-2.0056 5.5008q-0.8221 2.2548 1.4327 3.0769l7.2741 2.6521q2.2548 0.8221 3.0769-1.4327z" clip-path="url(#a)" fill="#fff" stroke="#fff"/>
<g clip-path="url(#a)">
<g transform="translate(224.53 150.84) rotate(-69.968) scale(.08 -.08)">
<defs>
<path id="s" d="m8.6875 72.906h9.9219v-44.297q0-11.719 4.2344-16.875 4.25-5.1406 13.781-5.1406 9.4688 0 13.719 5.1406 4.25 5.1562 4.25 16.875v44.297h9.9062v-45.516q0-14.25-7.0625-21.531-7.0469-7.2812-20.812-7.2812-13.828 0-20.891 7.2812-7.0469 7.2812-7.0469 21.531z"/>
</defs>
<use xlink:href="#s"/>
</g>
</g>
<path d="m256.67 150.43 0.16162-5.8528q0.066248-2.3991-2.3328-2.4653l-7.7396-0.21372q-2.3991-0.066249-2.4653 2.3328l-0.16162 5.8528q-0.066249 2.3991 2.3328 2.4653l7.7395 0.21372q2.3991 0.066248 2.4653-2.3328z" clip-path="url(#a)" fill="#fff" stroke="#fff"/>
<g clip-path="url(#a)">
<g transform="translate(252.61 150.32) rotate(-88.418) scale(.08 -.08)">
<use xlink:href="#s"/>
</g>
</g>
<path d="m47.722 178.7 1.6848-5.2067q0.7389-2.2834-1.5445-3.0223l-7.3664-2.3837q-2.2834-0.7389-3.0223 1.5445l-1.6848 5.2067q-0.7389 2.2834 1.5445 3.0223l7.3664 2.3837q2.2834 0.7389 3.0223-1.5445z" clip-path="url(#a)" fill="#fff" stroke="#fff"/>
<g clip-path="url(#a)">
<g transform="translate(43.855 177.45) rotate(-72.069) scale(.08 -.08)">
<use xlink:href="#m"/>
</g>
</g>
<path d="m58.61 177.51 0.67283-5.034q0.31795-2.3788-2.0609-2.6968l-7.6743-1.0257q-2.3788-0.31795-2.6968 2.0609l-0.67283 5.034q-0.31795 2.3788 2.0609 2.6968l7.6743 1.0257q2.3788 0.31795 2.6968-2.0609z" clip-path="url(#a)" fill="#fff" stroke="#fff"/>
<g clip-path="url(#a)">
<g transform="translate(54.582 176.98) rotate(-82.387) scale(.08 -.08)">
<defs>
<path id="t" d="m53.516 70.516v-9.625q-5.6094 2.6875-10.594 4-4.9844 1.3281-9.625 1.3281-8.0469 0-12.422-3.125t-4.375-8.8906q0-4.8438 2.9062-7.3125 2.9062-2.4531 11.016-3.9688l5.9531-1.2188q11.031-2.1094 16.281-7.4062t5.25-14.172q0-10.609-7.1094-16.078-7.0938-5.4688-20.812-5.4688-5.1719 0-11.016 1.1719-5.8281 1.1719-12.078 3.4688v10.156q6-3.3594 11.766-5.0781 5.7656-1.7031 11.328-1.7031 8.4375 0 13.031 3.3125 4.5938 3.3281 4.5938 9.4844 0 5.3594-3.2969 8.3906t-10.812 4.5469l-6.0156 1.1719q-11.031 2.1875-15.969 6.875-4.9219 4.6875-4.9219 13.047 0 9.6719 6.8125 15.234t18.766 5.5625q5.1406 0 10.453-0.9375 5.3281-0.92188 10.891-2.7656z"/>
</defs>
<use xlink:href="#t"/>
</g>
</g>
<path d="m77.779 149.77 3.6879 4.0432q1.6174 1.7732 3.3905 0.15583l5.7204-5.2176q1.7732-1.6174 0.15583-3.3905l-3.6879-4.0432q-1.6174-1.7732-3.3905-0.15583l-5.7204 5.2176q-1.7732 1.6174-0.15583 3.3905z" clip-path="url(#a)" fill="#fff" stroke="#fff"/>
<g clip-path="url(#a)">
<g transform="translate(80.782 147.03) rotate(47.631) scale(.08 -.08)">
<use xlink:href="#m"/>
</g>
</g>
<path d="m302.8 236.86v33.808q0 2.4 2.4 2.4h7.7425q2.4 0 2.4-2.4v-33.808q0-2.4-2.4-2.4h-7.7425q-2.4 0-2.4 2.4z" clip-path="url(#a)" fill="#fff" stroke="#fff"/>
<g clip-path="url(#a)">
<g transform="translate(306.86 236.86) rotate(90) scale(.08 -.08)">
<defs>
<path id="f" d="m-0.29688 72.906h61.672v-8.3125h-25.875v-64.594h-9.9062v64.594h-25.891z"/>
<path id="l" d="m56.203 29.594v-4.3906h-41.312q0.59375-9.2812 5.5938-14.141t13.938-4.8594q5.1719 0 10.031 1.2656t9.6562 3.8125v-8.5q-4.8438-2.0469-9.9219-3.125t-10.297-1.0781q-13.094 0-20.734 7.6094-7.6406 7.625-7.6406 20.625 0 13.422 7.25 21.297 7.25 7.8906 19.562 7.8906 11.031 0 17.453-7.1094 6.4219-7.0938 6.4219-19.297zm-8.9844 2.6406q-0.09375 7.3594-4.125 11.75-4.0312 4.4062-10.672 4.4062-7.5156 0-12.031-4.25t-5.2031-11.969z"/>
<path id="g" d="m41.109 46.297q-1.5156 0.875-3.2969 1.2812-1.7812 0.42188-3.9219 0.42188-7.625 0-11.703-4.9531t-4.0781-14.234v-28.812h-9.0312v54.688h9.0312v-8.5q2.8438 4.9844 7.375 7.3906 4.5469 2.4219 11.047 2.4219 0.92188 0 2.0469-0.125 1.125-0.10938 2.4844-0.35938z"/>
<path id="i" d="m52 44.188q3.375 6.0625 8.0625 8.9375t11.031 2.875q8.5469 0 13.188-5.9844 4.6406-5.9688 4.6406-17v-33.016h-9.0312v32.719q0 7.8594-2.7969 11.656-2.7812 3.8125-8.4844 3.8125-6.9844 0-11.047-4.6406-4.0469-4.625-4.0469-12.641v-30.906h-9.0312v32.719q0 7.9062-2.7812 11.688t-8.5938 3.7812q-6.8906 0-10.953-4.6562-4.0469-4.6562-4.0469-12.625v-30.906h-9.0312v54.688h9.0312v-8.5q3.0781 5.0312 7.375 7.4219t10.203 2.3906q5.9688 0 10.141-3.0312 4.1719-3.0156 6.1719-8.7812z"/>
<path id="k" d="m9.4219 54.688h8.9844v-54.688h-8.9844zm0 21.297h8.9844v-11.391h-8.9844z"/>
<path id="h" d="m54.891 33.016v-33.016h-8.9844v32.719q0 7.7656-3.0312 11.609-3.0312 3.8594-9.0781 3.8594-7.2812 0-11.484-4.6406-4.2031-4.625-4.2031-12.641v-30.906h-9.0312v54.688h9.0312v-8.5q3.2344 4.9375 7.5938 7.375 4.375 2.4375 10.094 2.4375 9.4219 0 14.25-5.8281 4.8438-5.8281 4.8438-17.156z"/>
<path id="e" d="m34.281 27.484q-10.891 0-15.094-2.4844t-4.2031-8.5q0-4.7812 3.1562-7.5938 3.1562-2.7969 8.5625-2.7969 7.4844 0 12 5.2969t4.5156 14.078v2zm17.922 3.7188v-31.203h-8.9844v8.2969q-3.0781-4.9688-7.6719-7.3438t-11.234-2.375q-8.3906 0-13.359 4.7188-4.9531 4.7188-4.9531 12.625 0 9.2188 6.1719 13.906 6.1875 4.6875 18.438 4.6875h12.609v0.89062q0 6.2031-4.0781 9.5938t-11.453 3.3906q-4.6875 0-9.1406-1.125-4.4375-1.125-8.5312-3.375v8.3125q4.9219 1.9062 9.5625 2.8438 4.6406 0.95312 9.0312 0.95312 11.875 0 17.734-6.1562 5.8594-6.1406 5.8594-18.641z"/>
<path id="j" d="m9.4219 75.984h8.9844v-75.984h-8.9844z"/>
</defs>
<use xlink:href="#f"/>
<use x="44.083984" xlink:href="#l"/>
<use x="105.607422" xlink:href="#g"/>
<use x="144.970703" xlink:href="#i"/>
<use x="242.382812" xlink:href="#k"/>
<use x="270.166016" xlink:href="#h"/>
<use x="333.544922" xlink:href="#e"/>
<use x="394.824219" xlink:href="#j"/>
</g>
</g>
<path d="m446.3 145.17 0.10638 5.0539q0.050506 2.3995 2.45 2.349l7.7408-0.16294q2.3995-0.050506 2.349-2.45l-0.10638-5.0539q-0.050506-2.3995-2.45-2.349l-7.7408 0.16294q-2.3995 0.050506-2.349 2.45z" clip-path="url(#a)" fill="#fff" stroke="#fff"/>
<g clip-path="url(#a)">
<g transform="translate(450.36 145.08) rotate(88.794) scale(.08 -.08)">
<defs>
<path id="u" d="m9.8125 72.906h46.094v-8.3125h-36.234v-21.578h34.719v-8.2969h-34.719v-26.422h37.109v-8.2969h-46.969z"/>
</defs>
<use xlink:href="#u"/>
</g>
</g>
<path d="m457.71 150.49 0.11756-5.585q0.050506-2.3995-2.349-2.45l-7.7408-0.16294q-2.3995-0.050506-2.45 2.349l-0.11756 5.585q-0.050506 2.3995 2.349 2.45l7.7408 0.16294q2.3995 0.050506 2.45-2.349z" clip-path="url(#a)" fill="#fff" stroke="#fff"/>
<g clip-path="url(#a)">
<g transform="translate(453.64 150.4) rotate(-88.794) scale(.08 -.08)">
<defs>
<path id="v" d="m64.406 67.281v-10.391q-4.9844 4.6406-10.625 6.9219-5.6406 2.2969-11.984 2.2969-12.5 0-19.141-7.6406t-6.6406-22.094q0-14.406 6.6406-22.047t19.141-7.6406q6.3438 0 11.984 2.2969t10.625 6.9375v-10.312q-5.1719-3.5156-10.969-5.2812-5.7812-1.75-12.219-1.75-16.562 0-26.094 10.125-9.5156 10.141-9.5156 27.672 0 17.578 9.5156 27.703 9.5312 10.141 26.094 10.141 6.5312 0 12.312-1.7344 5.7969-1.7344 10.875-5.2031z"/>
</defs>
<use xlink:href="#v"/>
</g>
</g>
<path d="m458.21 203.91 0.23138-5.4676q0.10147-2.3979-2.2964-2.4993l-7.7356-0.32736q-2.3979-0.10147-2.4993 2.2964l-0.23138 5.4676q-0.10147 2.3979 2.2964 2.4993l7.7356 0.32736q2.3979 0.10147 2.4993-2.2964z" clip-path="url(#a)" fill="#fff" stroke="#fff"/>
<g clip-path="url(#a)">
<g transform="translate(454.15 203.74) rotate(-87.577) scale(.08 -.08)">
<use xlink:href="#m"/>
</g>
</g>
<path d="m416.4 207.51 4.1704-2.8985q1.9708-1.3697 0.60107-3.3405l-4.4187-6.3578q-1.3697-1.9708-3.3405-0.60107l-4.1704 2.8985q-1.9708 1.3697-0.60107 3.3405l4.4187 6.3578q1.3697 1.9708 3.3405 0.60107z" clip-path="url(#a)" fill="#fff" stroke="#fff"/>
<g clip-path="url(#a)">
<g transform="translate(414.08 204.17) rotate(-34.8) scale(.08 -.08)">
<use xlink:href="#t"/>
</g>
</g>
<path d="m486.66 204.47 4.8526 3.2762q1.9891 1.3429 3.332-0.64616l4.3324-6.4169q1.3429-1.9891-0.64616-3.332l-4.8526-3.2762q-1.9891-1.3429-3.332 0.64616l-4.3324 6.4169q-1.3429 1.9891 0.64616 3.332z" clip-path="url(#a)" fill="#fff" stroke="#fff"/>
<g clip-path="url(#a)">
<g transform="translate(488.93 201.1) rotate(34.025) scale(.08 -.08)">
<use xlink:href="#s"/>
</g>
</g>
<path d="m444.53 194.29v13.246q0 2.4 2.4 2.4h8q2.4 0 2.4-2.4v-13.246q0-2.4-2.4-2.4h-8q-2.4 0-2.4 2.4z" clip-path="url(#a)" fill="#fff" stroke="#fff"/>
<g clip-path="url(#a)">
<g transform="translate(448.82 194.29) rotate(90) scale(.08 -.08)">
<defs>
<path id="am" d="m21 76.422v-100h-8.2969v100z"/>
</defs>
<use xlink:href="#t"/>
<use x="63.476562" xlink:href="#am"/>
<use x="97.167969" xlink:href="#m"/>
</g>
</g>
<path d="m444.66 236.86v33.808q0 2.4 2.4 2.4h7.7425q2.4 0 2.4-2.4v-33.808q0-2.4-2.4-2.4h-7.7425q-2.4 0-2.4 2.4z" clip-path="url(#a)" fill="#fff" stroke="#fff"/>
<g clip-path="url(#a)">
<g transform="translate(448.73 236.86) rotate(90) scale(.08 -.08)">
<use xlink:href="#f"/>
<use x="44.083984" xlink:href="#l"/>
<use x="105.607422" xlink:href="#g"/>
<use x="144.970703" xlink:href="#i"/>
<use x="242.382812" xlink:href="#k"/>
<use x="270.166016" xlink:href="#h"/>
<use x="333.544922" xlink:href="#e"/>
<use x="394.824219" xlink:href="#j"/>
</g>
</g>
<path d="m370.35 236.86v33.808q0 2.4 2.4 2.4h7.7425q2.4 0 2.4-2.4v-33.808q0-2.4-2.4-2.4h-7.7425q-2.4 0-2.4 2.4z" clip-path="url(#a)" fill="#fff" stroke="#fff"/>
<g clip-path="url(#a)">
<g transform="translate(374.41 236.86) rotate(90) scale(.08 -.08)">
<use xlink:href="#f"/>
<use x="44.083984" xlink:href="#l"/>
<use x="105.607422" xlink:href="#g"/>
<use x="144.970703" xlink:href="#i"/>
<use x="242.382812" xlink:href="#k"/>
<use x="270.166016" xlink:href="#h"/>
<use x="333.544922" xlink:href="#e"/>
<use x="394.824219" xlink:href="#j"/>
</g>
</g>
<path d="m19.062 236.86v33.808q0 2.4 2.4 2.4h7.7425q2.4 0 2.4-2.4v-33.808q0-2.4-2.4-2.4h-7.7425q-2.4 0-2.4 2.4z" clip-path="url(#a)" fill="#fff" stroke="#fff"/>
<g clip-path="url(#a)">
<g transform="translate(23.126 236.86) rotate(90) scale(.08 -.08)">
<use xlink:href="#f"/>
<use x="44.083984" xlink:href="#l"/>
<use x="105.607422" xlink:href="#g"/>
<use x="144.970703" xlink:href="#i"/>
<use x="242.382812" xlink:href="#k"/>
<use x="270.166016" xlink:href="#h"/>
<use x="333.544922" xlink:href="#e"/>
<use x="394.824219" xlink:href="#j"/>
</g>
</g>
<path d="m39.329 236.86v33.808q0 2.4 2.4 2.4h7.7425q2.4 0 2.4-2.4v-33.808q0-2.4-2.4-2.4h-7.7425q-2.4 0-2.4 2.4z" clip-path="url(#a)" fill="#fff" stroke="#fff"/>
<g clip-path="url(#a)">
<g transform="translate(43.392 236.86) rotate(90) scale(.08 -.08)">
<use xlink:href="#f"/>
<use x="44.083984" xlink:href="#l"/>
<use x="105.607422" xlink:href="#g"/>
<use x="144.970703" xlink:href="#i"/>
<use x="242.382812" xlink:href="#k"/>
<use x="270.166016" xlink:href="#h"/>
<use x="333.544922" xlink:href="#e"/>
<use x="394.824219" xlink:href="#j"/>
</g>
</g>
<path d="m94.413 206.52 2.8342-4.1858q1.3456-1.9873-0.6417-3.3329l-6.4111-4.341q-1.9873-1.3456-3.3329 0.64171l-2.8342 4.1858q-1.3456 1.9873 0.6417 3.3329l6.4111 4.341q1.9873 1.3456 3.3329-0.6417z" clip-path="url(#a)" fill="#fff" stroke="#fff"/>
<g clip-path="url(#a)">
<g transform="translate(91.048 204.24) rotate(-55.898) scale(.08 -.08)">
<use xlink:href="#u"/>
</g>
</g>
<path d="m113.67 203.95 0.23503-5.5538q0.10147-2.3979-2.2964-2.4993l-7.7356-0.32736q-2.3979-0.10147-2.4993 2.2964l-0.23503 5.5538q-0.10147 2.3979 2.2964 2.4993l7.7356 0.32736q2.3979 0.10147 2.4993-2.2964z" clip-path="url(#a)" fill="#fff" stroke="#fff"/>
<g clip-path="url(#a)">
<g transform="translate(109.61 203.78) rotate(-87.577) scale(.08 -.08)">
<defs>
<path id="ae" d="m44.391 34.188q3.1719-1.0781 6.1719-4.5938t6.0312-9.6719l10.016-19.922h-10.609l-9.3125 18.703q-3.625 7.3281-7.0156 9.7188t-9.25 2.3906h-10.75v-30.812h-9.8594v72.906h22.266q12.5 0 18.656-5.2344 6.1562-5.2188 6.1562-15.766 0-6.8906-3.2031-11.438-3.2031-4.5312-9.2969-6.2812zm-24.719 30.609v-25.875h12.406q7.125 0 10.766 3.2969t3.6406 9.6875-3.6406 9.6406-10.766 3.25z"/>
</defs>
<use xlink:href="#ae"/>
</g>
</g>
<path d="m121.07 202.31 3.2623 4.5347q1.4016 1.9482 3.3498 0.54664l6.285-4.5216q1.9482-1.4016 0.54664-3.3498l-3.2623-4.5347q-1.4016-1.9482-3.3498-0.54664l-6.285 4.5216q-1.9482 1.4016-0.54664 3.3498z" clip-path="url(#a)" fill="#fff" stroke="#fff"/>
<g clip-path="url(#a)">
<g transform="translate(124.37 199.93) rotate(54.268) scale(.08 -.08)">
<use xlink:href="#v"/>
</g>
</g>
<path d="m66.351 236.86v33.808q0 2.4 2.4 2.4h7.7425q2.4 0 2.4-2.4v-33.808q0-2.4-2.4-2.4h-7.7425q-2.4 0-2.4 2.4z" clip-path="url(#a)" fill="#fff" stroke="#fff"/>
<g clip-path="url(#a)">
<g transform="translate(70.415 236.86) rotate(90) scale(.08 -.08)">
<use xlink:href="#f"/>
<use x="44.083984" xlink:href="#l"/>
<use x="105.607422" xlink:href="#g"/>
<use x="144.970703" xlink:href="#i"/>
<use x="242.382812" xlink:href="#k"/>
<use x="270.166016" xlink:href="#h"/>
<use x="333.544922" xlink:href="#e"/>
<use x="394.824219" xlink:href="#j"/>
</g>
</g>
<path d="m100.13 236.86v33.808q0 2.4 2.4 2.4h7.7425q2.4 0 2.4-2.4v-33.808q0-2.4-2.4-2.4h-7.7425q-2.4 0-2.4 2.4z" clip-path="url(#a)" fill="#fff" stroke="#fff"/>
<g clip-path="url(#a)">
<g transform="translate(104.19 236.86) rotate(90) scale(.08 -.08)">
<use xlink:href="#f"/>
<use x="44.083984" xlink:href="#l"/>
<use x="105.607422" xlink:href="#g"/>
<use x="144.970703" xlink:href="#i"/>
<use x="242.382812" xlink:href="#k"/>
<use x="270.166016" xlink:href="#h"/>
<use x="333.544922" xlink:href="#e"/>
<use x="394.824219" xlink:href="#j"/>
</g>
</g>
<path d="m140.66 236.86v33.808q0 2.4 2.4 2.4h7.7425q2.4 0 2.4-2.4v-33.808q0-2.4-2.4-2.4h-7.7425q-2.4 0-2.4 2.4z" clip-path="url(#a)" fill="#fff" stroke="#fff"/>
<g clip-path="url(#a)">
<g transform="translate(144.73 236.86) rotate(90) scale(.08 -.08)">
<use xlink:href="#f"/>
<use x="44.083984" xlink:href="#l"/>
<use x="105.607422" xlink:href="#g"/>
<use x="144.970703" xlink:href="#i"/>
<use x="242.382812" xlink:href="#k"/>
<use x="270.166016" xlink:href="#h"/>
<use x="333.544922" xlink:href="#e"/>
<use x="394.824219" xlink:href="#j"/>
</g>
</g>
<path d="m187.95 236.86v33.808q0 2.4 2.4 2.4h7.7425q2.4 0 2.4-2.4v-33.808q0-2.4-2.4-2.4h-7.7425q-2.4 0-2.4 2.4z" clip-path="url(#a)" fill="#fff" stroke="#fff"/>
<g clip-path="url(#a)">
<g transform="translate(192.01 236.86) rotate(90) scale(.08 -.08)">
<use xlink:href="#f"/>
<use x="44.083984" xlink:href="#l"/>
<use x="105.607422" xlink:href="#g"/>
<use x="144.970703" xlink:href="#i"/>
<use x="242.382812" xlink:href="#k"/>
<use x="270.166016" xlink:href="#h"/>
<use x="333.544922" xlink:href="#e"/>
<use x="394.824219" xlink:href="#j"/>
</g>
</g>
<path d="m242 236.86v33.808q0 2.4 2.4 2.4h7.7425q2.4 0 2.4-2.4v-33.808q0-2.4-2.4-2.4h-7.7425q-2.4 0-2.4 2.4z" clip-path="url(#a)" fill="#fff" stroke="#fff"/>
<g clip-path="url(#a)">
<g transform="translate(246.06 236.86) rotate(90) scale(.08 -.08)">
<use xlink:href="#f"/>
<use x="44.083984" xlink:href="#l"/>
<use x="105.607422" xlink:href="#g"/>
<use x="144.970703" xlink:href="#i"/>
<use x="242.382812" xlink:href="#k"/>
<use x="270.166016" xlink:href="#h"/>
<use x="333.544922" xlink:href="#e"/>
<use x="394.824219" xlink:href="#j"/>
</g>
</g>
<path d="m525.73 236.86v33.808q0 2.4 2.4 2.4h7.7425q2.4 0 2.4-2.4v-33.808q0-2.4-2.4-2.4h-7.7425q-2.4 0-2.4 2.4z" clip-path="url(#a)" fill="#fff" stroke="#fff"/>
<g clip-path="url(#a)">
<g transform="translate(529.79 236.86) rotate(90) scale(.08 -.08)">
<use xlink:href="#f"/>
<use x="44.083984" xlink:href="#l"/>
<use x="105.607422" xlink:href="#g"/>
<use x="144.970703" xlink:href="#i"/>
<use x="242.382812" xlink:href="#k"/>
<use x="270.166016" xlink:href="#h"/>
<use x="333.544922" xlink:href="#e"/>
<use x="394.824219" xlink:href="#j"/>
</g>
</g>
<defs>
<path id="c" d="m0 8.6603c2.2967 0 4.4997-0.9125 6.1237-2.5365 1.624-1.624 2.5365-3.827 2.5365-6.1237s-0.9125-4.4997-2.5365-6.1237c-1.624-1.624-3.827-2.5365-6.1237-2.5365s-4.4997 0.9125-6.1237 2.5365c-1.624 1.624-2.5365 3.827-2.5365 6.1237s0.9125 4.4997 2.5365 6.1237c1.624 1.624 3.827 2.5365 6.1237 2.5365z"/>
</defs>
<g clip-path="url(#a)" fill="#ffffff" stroke="#ffffff">
<use x="25.333333" y="280" xlink:href="#c"/>
<use x="45.6" y="280" xlink:href="#c"/>
<use x="72.622222" y="280" xlink:href="#c"/>
<use x="106.4" y="280" xlink:href="#c"/>
<use x="146.933333" y="280" xlink:href="#c"/>
<use x="194.222222" y="280" xlink:href="#c"/>
<use x="248.266667" y="280" xlink:href="#c"/>
<use x="309.066667" y="280" xlink:href="#c"/>
<use x="376.622222" y="280" xlink:href="#c"/>
<use x="450.933333" y="280" xlink:href="#c"/>
<use x="532" y="280" xlink:href="#c"/>
<use x="252.695309" y="13.333333" xlink:href="#c"/>
<use x="252.695309" y="67.142176" xlink:href="#c"/>
<use x="59.861728" y="120.815237" xlink:href="#c"/>
<use x="309.066667" y="227.518163" xlink:href="#c"/>
<use x="452.059259" y="120.815237" xlink:href="#c"/>
<use x="453.185185" y="174.306246" xlink:href="#c"/>
<use x="450.933333" y="174.306246" xlink:href="#c"/>
<use x="450.933333" y="227.518163" xlink:href="#c"/>
<use x="376.622222" y="227.518163" xlink:href="#c"/>
<use x="25.333333" y="227.518163" xlink:href="#c"/>
<use x="45.6" y="227.518163" xlink:href="#c"/>
<use x="108.651852" y="174.306246" xlink:href="#c"/>
<use x="72.622222" y="227.518163" xlink:href="#c"/>
<use x="106.4" y="227.518163" xlink:href="#c"/>
<use x="146.933333" y="227.518163" xlink:href="#c"/>
<use x="194.222222" y="227.518163" xlink:href="#c"/>
<use x="248.266667" y="227.518163" xlink:href="#c"/>
<use x="532" y="227.518163" xlink:href="#c"/>
</g>
<g clip-path="url(#a)">
<g transform="translate(15.87 282.76) scale(.1 -.1)">
<defs>
<path id="ay" d="m5.4219 15.922q10.297-9.2344 22.797-9.2344 12.891 0 18.703 6.9375t6.8906 18.609h-38.969v8.2969h38.969q-1.0781 11.672-6.8906 18.625t-18.703 6.9531q-12.5 0-22.797-9.2188v10.391q10.156 6.9375 23.391 6.9375 16.359 0 25.875-10.141 9.5156-10.125 9.5156-27.656 0-17.578-9.5156-27.719-9.5156-10.125-25.875-10.125-13.047 0-23.391 7.0312z"/>
<path id="aq" d="m2.9375 54.688h52.391v-7.1719h-21.781v-47.516h-8.8438v47.516h-21.766z"/>
<path id="ab" d="m30.609 48.391q-7.2188 0-11.422-5.6406t-4.2031-15.453 4.1719-15.453q4.1875-5.6406 11.453-5.6406 7.1875 0 11.375 5.6562 4.2031 5.6719 4.2031 15.438 0 9.7188-4.2031 15.406-4.1875 5.6875-11.375 5.6875zm0 7.6094q11.719 0 18.406-7.625 6.7031-7.6094 6.7031-21.078 0-13.422-6.7031-21.078-6.6875-7.6406-18.406-7.6406-11.766 0-18.438 7.6406-6.6562 7.6562-6.6562 21.078 0 13.469 6.6562 21.078 6.6719 7.625 18.438 7.625z"/>
</defs>
<use xlink:href="#ay"/>
<use x="69.824219" xlink:href="#aq"/>
<use x="128.076172" xlink:href="#ab"/>
</g>
</g>
<g clip-path="url(#a)">
<g transform="translate(32.313 282.76) scale(.1 -.1)">
<defs>
<path id="ax" d="m31.109 56q11.719 0 18.406-7.625 6.6875-7.6094 6.6875-21.078 0-13.422-6.6875-21.078-6.6875-7.6406-18.406-7.6406-11.766 0-18.266 7.4219t-6.8438 21.297l-0.28125 11.188q-0.25 5.7969-0.25 7.8125 0 7.8125 2.8281 13.562 4.4531 9.0312 12.141 12.938t20.578 4.0156q5.9531 0.046875 8.5938 0.875l2.4844-7.125q-2.3906-0.98438-4.5781-1.0312l-12.219-0.82812q-6.1406-0.4375-9.8594-2.5938-9.7188-5.7031-10.641-13.172l-0.34375-2.7344q6.3438 5.7969 16.656 5.7969zm0-7.6094q-7.2344 0-11.438-5.6406-4.1875-5.6406-4.1875-15.453t4.1719-15.453 11.453-5.6406q7.1719 0 11.375 5.6562 4.2031 5.6719 4.2031 15.438 0 9.7188-4.2031 15.406t-11.375 5.6875z"/>
<path id="ao" d="m61.047 54.688h8.9844v-54.688h-8.9844zm4.5 1.3125m-22.094-39.781q0 4.3906-3.2031 6.6875-3.1875 2.2969-9.3438 2.2969h-12.797v-18.031h12.797q6.1562 0 9.3438 2.3125 3.2031 2.3281 3.2031 6.7344zm-34.375 38.469h9.0312v-22.312h13.188q10.453 0 16.094-3.9844 5.6406-3.9688 5.6406-12.172t-5.6406-12.219q-5.6406-4-16.094-4h-22.219z"/>
<path id="p" d="m3.7188 0v7.4688q8.875 1.375 11.609 7.5156 3.3281 8.6562 3.3281 30.766v8.9375h36.953v-54.688h-8.9844v47.516h-18.984v-5.4219q0-21.094-4.2969-30.562-4.5938-10.109-19.625-11.531z"/>
</defs>
<use xlink:href="#ax"/>
<use x="61.669922" xlink:href="#ao"/>
<use x="140.625" xlink:href="#p"/>
<use x="204.541016" xlink:href="#ab"/>
</g>
</g>
<g clip-path="url(#a)">
<g transform="translate(66.277 282.76) scale(.1 -.1)">
<defs>
<path id="o" d="m9.0781 54.688h9.0312v-22.312h29.156v22.312h9.0312v-54.688h-9.0312v25.203h-29.156v-25.203h-9.0312z"/>
<path id="q" d="m56.203 29.594v-4.3906h-41.312q0.59375-9.2812 5.5938-14.141t13.938-4.8594q5.1719 0 10.031 1.2656t9.6562 3.8125v-8.5q-4.8438-2.0469-9.9219-3.125t-10.297-1.0781q-13.094 0-20.734 7.6094-7.6406 7.625-7.6406 20.625 0 13.422 7.25 21.297 7.25 7.8906 19.562 7.8906 11.031 0 17.453-7.1094 6.4219-7.0938 6.4219-19.297zm-8.9844 2.6406q-0.09375 7.3594-4.125 11.75-4.0312 4.4062-10.672 4.4062-7.5156 0-12.031-4.25t-5.2031-11.969z"/>
</defs>
<use xlink:href="#o"/>
<use x="65.380859" xlink:href="#q"/>
</g>
</g>
<g clip-path="url(#a)">
<g transform="translate(100.07 282.76) scale(.1 -.1)">
<defs>
<path id="r" d="m34.281 27.484q-10.891 0-15.094-2.4844t-4.2031-8.5q0-4.7812 3.1562-7.5938 3.1562-2.7969 8.5625-2.7969 7.4844 0 12 5.2969t4.5156 14.078v2zm17.922 3.7188v-31.203h-8.9844v8.2969q-3.0781-4.9688-7.6719-7.3438t-11.234-2.375q-8.3906 0-13.359 4.7188-4.9531 4.7188-4.9531 12.625 0 9.2188 6.1719 13.906 6.1875 4.6875 18.438 4.6875h12.609v0.89062q0 6.2031-4.0781 9.5938t-11.453 3.3906q-4.6875 0-9.1406-1.125-4.4375-1.125-8.5312-3.375v8.3125q4.9219 1.9062 9.5625 2.8438 4.6406 0.95312 9.0312 0.95312 11.875 0 17.734-6.1562 5.8594-6.1406 5.8594-18.641z"/>
</defs>
<use xlink:href="#o"/>
<use x="65.380859" xlink:href="#r"/>
</g>
</g>
<g clip-path="url(#a)">
<g transform="translate(130.61 282.76) scale(.1 -.1)">
<defs>
<path id="ba" d="m28.562 74.219q12.016 0 19.625-5.1094 7.625-5.0938 7.625-13.781 0-6.0625-3.4688-10.234t-9.8594-5.7812q7.0781-1.5156 11.047-6.3125 3.9844-4.7812 3.9844-11.812 0-11.219-8.6719-16.922-8.6562-5.6875-20.281-5.6875-5.9531 0-12.891 1.6094-6.9375 1.625-9.0781 2.9844v10.156q7.4688-4.3438 11.594-5.3906t10.188-1.0469q9.1719 0 14.25 3.5156t5.0781 10.781q0 6.4531-4.5156 10.078-4.5156 3.6406-14.031 3.6406h-9.9688v8.1094h10.359q8.7344 0 12.594 2.9062t3.8594 8.375q0 5.6094-3.9844 8.6094-3.9844 3.0156-13.641 3.0156-6.5469 0-8.7969-0.59375-2.25-0.57812-12.25-4.3438v9.625q5.5156 1.9531 11.266 2.7812 5.7656 0.82812 9.9688 0.82812z"/>
<path id="au" d="m9.0781 54.688h13.141l15.531-36.625 15.578 36.625h13.031v-54.688h-9.0312v46.094l-15.094-35.594h-8.9844l-15.141 35.594v-46.094h-9.0312z"/>
</defs>
<use xlink:href="#ba"/>
<use x="64.111328" xlink:href="#q"/>
<use x="125.634766" xlink:href="#au"/>
<use x="201.074219" xlink:href="#p"/>
<use x="264.990234" xlink:href="#q"/>
</g>
</g>
<g clip-path="url(#a)">
<g transform="translate(192.63 282.76) scale(.1 -.1)">
<defs>
<path id="al" d="m11.719 12.406h10.297v-8.4062l-8-15.625h-6.2969l4 15.625z"/>
</defs>
<use xlink:href="#al"/>
</g>
</g>
<g clip-path="url(#a)">
<g transform="translate(246.46 282.76) scale(.1 -.1)">
<defs>
<path id="ak" d="m4.8906 31.391h26.312v-8h-26.312z"/>
</defs>
<use xlink:href="#ak"/>
</g>
</g>
<g clip-path="url(#a)">
<g transform="translate(291.31 282.76) scale(.1 -.1)">
<defs>
<path id="ar" d="m48.781 52.594v-8.4062q-3.8125 2.1094-7.6406 3.1562t-7.7344 1.0469q-8.75 0-13.594-5.5469-4.8281-5.5312-4.8281-15.547t4.8281-15.562q4.8438-5.5312 13.594-5.5312 3.9062 0 7.7344 1.0469t7.6406 3.1562v-8.3125q-3.7656-1.75-7.7969-2.625-4.0156-0.89062-8.5625-0.89062-12.359 0-19.641 7.7656-7.2656 7.7656-7.2656 20.953 0 13.375 7.3438 21.031 7.3594 7.6719 20.156 7.6719 4.1406 0 8.0938-0.85938 3.9531-0.84375 7.6719-2.5469z"/>
<path id="ac" d="m9.0781 54.688h8.9375v-25.688l25.344 25.688h11.031l-20.891-21.141 23.578-33.547h-10.062l-19.375 27.594-9.625-9.7656v-17.828h-8.9375z"/>
<path id="aw" d="m34.469 29.5q6.0625-1.1719 9.4219-4.75 3.375-3.5625 3.375-8.8281 0-8.4531-6.2969-12.906-6.2969-4.4375-17.922-4.4375-3.9062 0-8.0312 0.6875t-8.5156 2.0469v8.3594q3.4688-1.8125 7.6094-2.7188 4.1562-0.89062 8.6875-0.89062 7.375 0 11.5 2.7344t4.125 7.125q0 4.2969-3.6562 6.9062t-10.344 2.6094h-7.2344v7.4219h7.5625q5.6719 0 8.9688 2.1719t3.2969 5.5938q0 3.125-3.4062 5.375-3.3906 2.25-9.1875 2.25-3.4688 0-7.4062-0.64062-3.9219-0.64062-8.6719-2.0469v8.1562q4.7969 1.1719 8.9375 1.75 4.1562 0.59375 7.8594 0.59375 9.5781 0 15.109-3.8438 5.5469-3.8281 5.5469-10.719 0-4.5312-2.9375-7.6875-2.9219-3.1406-8.3906-4.3125z"/>
</defs>
<use xlink:href="#ar"/>
<use x="54.980469" xlink:href="#ac"/>
<use x="115.380859" xlink:href="#r"/>
<use x="176.660156" xlink:href="#aw"/>
<use x="229.833984" xlink:href="#r"/>
<use x="291.113281" xlink:href="#p"/>
</g>
</g>
<g clip-path="url(#a)">
<g transform="translate(347.24 282.76) scale(.1 -.1)">
<defs>
<path id="az" d="m9.8125 72.906h14.703l18.594-49.609 18.703 49.609h14.703v-72.906h-9.625v64.016l-18.797-50h-9.9062l-18.797 50v-64.016h-9.5781z"/>
<path id="an" d="m43.453 16.219q0 4.3906-3.2031 6.6875-3.1875 2.2969-9.3438 2.2969h-12.797v-18.031h12.797q6.1562 0 9.3438 2.3125 3.2031 2.3281 3.2031 6.7344zm-34.375 38.469h9.0312v-22.312h13.188q10.453 0 16.094-3.9844 5.6406-3.9688 5.6406-12.172t-5.6406-12.219q-5.6406-4-16.094-4h-22.219z"/>
<path id="ad" d="m55.906 54.688v-54.688h-8.9375v43.891l-26.359-43.891h-11.531v54.688h8.9375v-43.797l26.328 43.797z"/>
<path id="av" d="m55.906 54.688v-54.688h-8.9375v43.891l-26.359-43.891h-11.531v54.688h8.9375v-43.797l26.328 43.797zm-38.688 20.828h5.7656q0.53125-3.6562 2.8906-5.5 2.375-1.8281 6.625-1.8281 4.2031 0 6.5469 1.8125t2.9688 5.5156h5.7656q-0.48438-6.9844-4.3438-10.5t-10.938-3.5156-10.938 3.5156-4.3438 10.5z"/>
</defs>
<use xlink:href="#az"/>
<use x="86.279297" xlink:href="#r"/>
<use x="147.558594" xlink:href="#p"/>
<use x="211.474609" xlink:href="#q"/>
<use x="272.998047" xlink:href="#o"/>
<use x="338.378906" xlink:href="#an"/>
<use x="397.314453" xlink:href="#ac"/>
<use x="457.714844" xlink:href="#ad"/>
<use x="522.705078" xlink:href="#av"/>
</g>
</g>
<g clip-path="url(#a)">
<g transform="translate(434.57 282.76) scale(.1 -.1)">
<defs>
<path id="at" d="m56.297 54.688v-54.688h-9.0312v47.516h-29.156v-47.516h-9.0312v54.688z"/>
<path id="as" d="m18.109 8.2031v-29h-9.0312v75.484h9.0312v-8.2969q2.8438 4.875 7.1562 7.2344 4.3281 2.375 10.328 2.375 9.9688 0 16.188-7.9062 6.2344-7.9062 6.2344-20.797t-6.2344-20.812q-6.2188-7.9062-16.188-7.9062-6 0-10.328 2.375-4.3125 2.375-7.1562 7.25zm30.578 19.094q0 9.9062-4.0781 15.547t-11.203 5.6406q-7.1406 0-11.219-5.6406t-4.0781-15.547 4.0781-15.547 11.219-5.6406q7.125 0 11.203 5.6406t4.0781 15.547z"/>
<path id="ap" d="m56.297 0h-47.219v54.688h9.0312v-47.516h29.156v47.516h9.0312v-47.516h7.1875v-20.984h-7.1875z"/>
</defs>
<use xlink:href="#at"/>
<use x="65.380859" xlink:href="#as"/>
<use x="128.857422" xlink:href="#ad"/>
<use x="193.847656" xlink:href="#o"/>
<use x="259.228516" xlink:href="#ap"/>
</g>
</g>
<g clip-path="url(#a)">
<g transform="translate(530.41 282.76) scale(.1 -.1)">
<defs>
<path id="d" d="m10.688 12.406h10.312v-12.406h-10.312z"/>
</defs>
<use xlink:href="#d"/>
</g>
</g>
<g clip-path="url(#a)">
<g transform="translate(244.74 16.093) scale(.1 -.1)">
<defs>
<path id="b" d="m12.406 8.2969h16.109v55.625l-17.531-3.5156v8.9844l17.438 3.5156h9.8594v-64.609h16.109v-8.2969h-41.984z"/>
</defs>
<use xlink:href="#b"/>
<use x="63.623047" xlink:href="#d"/>
<use x="95.410156" xlink:href="#b"/>
</g>
</g>
<g clip-path="url(#a)">
<g transform="translate(244.74 69.902) scale(.1 -.1)">
<defs>
<path id="n" d="m19.188 8.2969h34.422v-8.2969h-46.281v8.2969q5.6094 5.8125 15.297 15.594 9.7031 9.7969 12.188 12.641 4.7344 5.3125 6.6094 9 1.8906 3.6875 1.8906 7.25 0 5.8125-4.0781 9.4688-4.0781 3.6719-10.625 3.6719-4.6406 0-9.7969-1.6094-5.1406-1.6094-11-4.8906v9.9688q5.9531 2.3906 11.125 3.6094 5.1875 1.2188 9.4844 1.2188 11.328 0 18.062-5.6719 6.7344-5.6562 6.7344-15.125 0-4.5-1.6875-8.5312-1.6719-4.0156-6.125-9.4844-1.2188-1.4219-7.7656-8.1875-6.5312-6.7656-18.453-18.922z"/>
</defs>
<use xlink:href="#b"/>
<use x="63.623047" xlink:href="#d"/>
<use x="95.410156" xlink:href="#n"/>
</g>
</g>
<g clip-path="url(#a)">
<g transform="translate(51.91 123.57) scale(.1 -.1)">
<defs>
<path id="z" d="m37.797 64.312-24.906-38.922h24.906zm-2.5938 8.5938h12.406v-47.516h10.406v-8.2031h-10.406v-17.188h-9.8125v17.188h-32.906v9.5156z"/>
</defs>
<use xlink:href="#b"/>
<use x="63.623047" xlink:href="#d"/>
<use x="95.410156" xlink:href="#z"/>
</g>
</g>
<g clip-path="url(#a)">
<g transform="translate(301.12 230.28) scale(.1 -.1)">
<defs>
<path id="y" d="m10.797 72.906h38.719v-8.3125h-29.688v-17.859q2.1406 0.73438 4.2812 1.0938 2.1562 0.35938 4.3125 0.35938 12.203 0 19.328-6.6875 7.1406-6.6875 7.1406-18.109 0-11.766-7.3281-18.297-7.3281-6.5156-20.656-6.5156-4.5938 0-9.3594 0.78125-4.75 0.78125-9.8281 2.3438v9.9219q4.3906-2.3906 9.0781-3.5625t9.9062-1.1719q8.4531 0 13.375 4.4375 4.9375 4.4375 4.9375 12.062 0 7.6094-4.9375 12.047-4.9219 4.4531-13.375 4.4531-3.9531 0-7.8906-0.875-3.9219-0.875-8.0156-2.7344z"/>
</defs>
<use xlink:href="#b"/>
<use x="63.623047" xlink:href="#d"/>
<use x="95.410156" xlink:href="#y"/>
</g>
</g>
<g clip-path="url(#a)">
<g transform="translate(444.11 123.57) scale(.1 -.1)">
<defs>
<path id="x" d="m33.016 40.375q-6.6406 0-10.531-4.5469-3.875-4.5312-3.875-12.438 0-7.8594 3.875-12.438 3.8906-4.5625 10.531-4.5625t10.516 4.5625q3.875 4.5781 3.875 12.438 0 7.9062-3.875 12.438-3.875 4.5469-10.516 4.5469zm19.578 30.922v-8.9844q-3.7188 1.75-7.5 2.6719-3.7812 0.9375-7.5 0.9375-9.7656 0-14.922-6.5938-5.1406-6.5938-5.875-19.922 2.875 4.25 7.2188 6.5156 4.3594 2.2656 9.5781 2.2656 10.984 0 17.359-6.6719 6.375-6.6562 6.375-18.125 0-11.234-6.6406-18.031-6.6406-6.7812-17.672-6.7812-12.656 0-19.344 9.6875-6.6875 9.7031-6.6875 28.109 0 17.281 8.2031 27.562t22.016 10.281q3.7188 0 7.5-0.73438t7.8906-2.1875z"/>
</defs>
<use xlink:href="#b"/>
<use x="63.623047" xlink:href="#d"/>
<use x="95.410156" xlink:href="#x"/>
</g>
</g>
<g clip-path="url(#a)">
<g transform="translate(445.23 177.07) scale(.1 -.1)">
<defs>
<path id="w" d="m10.984 1.5156v8.9844q3.7188-1.7656 7.5156-2.6875 3.8125-0.92188 7.4844-0.92188 9.7656 0 14.906 6.5625 5.1562 6.5625 5.8906 19.953-2.8281-4.2031-7.1875-6.4531-4.3438-2.25-9.6094-2.25-10.938 0-17.312 6.6094-6.375 6.625-6.375 18.109 0 11.219 6.6406 18 6.6406 6.7969 17.672 6.7969 12.656 0 19.312-9.7031 6.6719-9.6875 6.6719-28.141 0-17.234-8.1875-27.516-8.1719-10.281-21.984-10.281-3.7188 0-7.5312 0.73438-3.7969 0.73438-7.9062 2.2031zm19.625 30.906q6.6406 0 10.516 4.5312 3.8906 4.5469 3.8906 12.469 0 7.8594-3.8906 12.422-3.875 4.5625-10.516 4.5625t-10.516-4.5625-3.875-12.422q0-7.9219 3.875-12.469 3.875-4.5312 10.516-4.5312z"/>
</defs>
<use xlink:href="#b"/>
<use x="63.623047" xlink:href="#d"/>
<use x="95.410156" xlink:href="#w"/>
</g>
</g>
<g clip-path="url(#a)">
<g transform="translate(439.8 177.07) scale(.1 -.1)">
<defs>
<path id="aa" d="m31.781 66.406q-7.6094 0-11.453-7.5-3.8281-7.4844-3.8281-22.531 0-14.984 3.8281-22.484 3.8438-7.5 11.453-7.5 7.6719 0 11.5 7.5 3.8438 7.5 3.8438 22.484 0 15.047-3.8438 22.531-3.8281 7.5-11.5 7.5zm0 7.8125q12.266 0 18.734-9.7031 6.4688-9.6875 6.4688-28.141 0-18.406-6.4688-28.109-6.4688-9.6875-18.734-9.6875-12.25 0-18.719 9.6875-6.4688 9.7031-6.4688 28.109 0 18.453 6.4688 28.141 6.4688 9.7031 18.719 9.7031z"/>
</defs>
<use xlink:href="#b"/>
<use x="63.623047" xlink:href="#d"/>
<use x="95.410156" xlink:href="#b"/>
<use x="159.033203" xlink:href="#aa"/>
</g>
</g>
<g clip-path="url(#a)">
<g transform="translate(439.8 230.28) scale(.1 -.1)">
<use xlink:href="#b"/>
<use x="63.623047" xlink:href="#d"/>
<use x="95.410156" xlink:href="#b"/>
<use x="159.033203" xlink:href="#b"/>
</g>
</g>
<g clip-path="url(#a)">
<g transform="translate(365.49 230.28) scale(.1 -.1)">
<use xlink:href="#b"/>
<use x="63.623047" xlink:href="#d"/>
<use x="95.410156" xlink:href="#b"/>
<use x="159.033203" xlink:href="#n"/>
</g>
</g>
<g clip-path="url(#a)">
<g transform="translate(14.201 230.28) scale(.1 -.1)">
<defs>
<path id="aj" d="m40.578 39.312q7.0781-1.5156 11.047-6.3125 3.9844-4.7812 3.9844-11.812 0-10.781-7.4219-16.703-7.4219-5.9062-21.094-5.9062-4.5781 0-9.4375 0.90625t-10.031 2.7188v9.5156q4.0938-2.3906 8.9688-3.6094 4.8906-1.2188 10.219-1.2188 9.2656 0 14.125 3.6562t4.8594 10.641q0 6.4531-4.5156 10.078-4.5156 3.6406-12.562 3.6406h-8.5v8.1094h8.8906q7.2656 0 11.125 2.9062t3.8594 8.375q0 5.6094-3.9844 8.6094-3.9688 3.0156-11.391 3.0156-4.0625 0-8.7031-0.89062-4.6406-0.875-10.203-2.7188v8.7812q5.625 1.5625 10.531 2.3438t9.25 0.78125q11.234 0 17.766-5.1094 6.5469-5.0938 6.5469-13.781 0-6.0625-3.4688-10.234t-9.8594-5.7812z"/>
</defs>
<use xlink:href="#b"/>
<use x="63.623047" xlink:href="#d"/>
<use x="95.410156" xlink:href="#b"/>
<use x="159.033203" xlink:href="#aj"/>
</g>
</g>
<g clip-path="url(#a)">
<g transform="translate(34.467 230.28) scale(.1 -.1)">
<use xlink:href="#b"/>
<use x="63.623047" xlink:href="#d"/>
<use x="95.410156" xlink:href="#b"/>
<use x="159.033203" xlink:href="#z"/>
</g>
</g>
<g clip-path="url(#a)">
<g transform="translate(97.519 177.07) scale(.1 -.1)">
<use xlink:href="#b"/>
<use x="63.623047" xlink:href="#d"/>
<use x="95.410156" xlink:href="#b"/>
<use x="159.033203" xlink:href="#y"/>
</g>
</g>
<g clip-path="url(#a)">
<g transform="translate(61.489 230.28) scale(.1 -.1)">
<use xlink:href="#b"/>
<use x="63.623047" xlink:href="#d"/>
<use x="95.410156" xlink:href="#b"/>
<use x="159.033203" xlink:href="#x"/>
</g>
</g>
<g clip-path="url(#a)">
<g transform="translate(95.267 230.28) scale(.1 -.1)">
<defs>
<path id="ai" d="m8.2031 72.906h46.875v-4.2031l-26.469-68.703h-10.297l24.906 64.594h-35.016z"/>
</defs>
<use xlink:href="#b"/>
<use x="63.623047" xlink:href="#d"/>
<use x="95.410156" xlink:href="#b"/>
<use x="159.033203" xlink:href="#ai"/>
</g>
</g>
<g clip-path="url(#a)">
<g transform="translate(135.8 230.28) scale(.1 -.1)">
<defs>
<path id="ah" d="m31.781 34.625q-7.0312 0-11.062-3.7656-4.0156-3.7656-4.0156-10.344 0-6.5938 4.0156-10.359 4.0312-3.7656 11.062-3.7656t11.078 3.7812q4.0625 3.7969 4.0625 10.344 0 6.5781-4.0312 10.344-4.0156 3.7656-11.109 3.7656zm-9.8594 4.1875q-6.3438 1.5625-9.8906 5.9062-3.5312 4.3594-3.5312 10.609 0 8.7344 6.2188 13.812 6.2344 5.0781 17.062 5.0781 10.891 0 17.094-5.0781t6.2031-13.812q0-6.25-3.5469-10.609-3.5312-4.3438-9.8281-5.9062 7.125-1.6562 11.094-6.5 3.9844-4.8281 3.9844-11.797 0-10.609-6.4688-16.281-6.4688-5.6562-18.531-5.6562-12.047 0-18.531 5.6562-6.4688 5.6719-6.4688 16.281 0 6.9688 4 11.797 4.0156 4.8438 11.141 6.5zm-3.6094 15.578q0-5.6562 3.5312-8.8281 3.5469-3.1719 9.9375-3.1719 6.3594 0 9.9375 3.1719 3.5938 3.1719 3.5938 8.8281 0 5.6719-3.5938 8.8438-3.5781 3.1719-9.9375 3.1719-6.3906 0-9.9375-3.1719-3.5312-3.1719-3.5312-8.8438z"/>
</defs>
<use xlink:href="#b"/>
<use x="63.623047" xlink:href="#d"/>
<use x="95.410156" xlink:href="#b"/>
<use x="159.033203" xlink:href="#ah"/>
</g>
</g>
<g clip-path="url(#a)">
<g transform="translate(183.09 230.28) scale(.1 -.1)">
<use xlink:href="#b"/>
<use x="63.623047" xlink:href="#d"/>
<use x="95.410156" xlink:href="#b"/>
<use x="159.033203" xlink:href="#w"/>
</g>
</g>
<g clip-path="url(#a)">
<g transform="translate(237.13 230.28) scale(.1 -.1)">
<use xlink:href="#b"/>
<use x="63.623047" xlink:href="#d"/>
<use x="95.410156" xlink:href="#n"/>
<use x="159.033203" xlink:href="#aa"/>
</g>
</g>
<g clip-path="url(#a)">
<g transform="translate(520.87 230.28) scale(.1 -.1)">
<use xlink:href="#b"/>
<use x="63.623047" xlink:href="#d"/>
<use x="95.410156" xlink:href="#n"/>
<use x="159.033203" xlink:href="#b"/>
</g>
</g>
<defs>
<clipPath id="a">
<rect width="557.33" height="293.33"/>
</clipPath>
</defs>
</svg>
