<?xml version="1.0" encoding="UTF-8"?>
<!DOCTYPE svg  PUBLIC '-//W3C//DTD SVG 1.1//EN'  'http://www.w3.org/Graphics/SVG/1.1/DTD/svg11.dtd'>
<svg width="557.33pt" height="293.33pt" version="1.1" viewBox="0 0 557.33 293.33" xmlns="http://www.w3.org/2000/svg" xmlns:xlink="http://www.w3.org/1999/xlink">
<metadata>
<rdf:RDF xmlns:cc="http://creativecommons.org/ns#" xmlns:dc="http://purl.org/dc/elements/1.1/" xmlns:rdf="http://www.w3.org/1999/02/22-rdf-syntax-ns#">
<cc:Work>
<dc:type rdf:resource="http://purl.org/dc/dcmitype/StillImage"/>
<dc:date>2021-01-21T01:19:28.025524</dc:date>
<dc:format>image/svg+xml</dc:format>
<dc:creator>
<cc:Agent>
<dc:title>Matplotlib v3.3.3, https://matplotlib.org/</dc:title>
</cc:Agent>
</dc:creator>
</cc:Work>
</rdf:RDF>
</metadata>
<defs>
<style type="text/css">*{stroke-linecap:butt;stroke-linejoin:round;}</style>
</defs>
<path d="m0 293.33h557.33v-293.33h-557.33z" fill="#fff"/>
<g fill="none" stroke="#000">
<path d="m195.76 13.333-117.29 44.849" clip-path="url(#a)"/>
<path d="m195.76 13.333 117.29 89.608" clip-path="url(#a)"/>
<path d="m78.463 58.183 117.87 44.759" clip-path="url(#a)"/>
<path d="m78.463 58.183 117.87 44.759" clip-path="url(#a)"/>
<path d="m78.463 58.183v44.759" clip-path="url(#a)"/>
<path d="m313.05 102.94 218.95 44.646" clip-path="url(#a)"/>
<path d="m313.05 102.94 218.95 44.646" clip-path="url(#a)"/>
<path d="m313.05 102.94v44.646" clip-path="url(#a)"/>
<path d="m313.05 147.59 218.95 44.495" clip-path="url(#a)"/>
<path d="m313.05 147.59 54.286 88.757" clip-path="url(#a)"/>
<path d="m313.05 147.59-173.71 88.757" clip-path="url(#a)" stroke-dasharray="3.7,1.6"/>
<path d="m313.05 147.59-129.38 44.495" clip-path="url(#a)" stroke-dasharray="3.7,1.6"/>
<path d="m313.05 147.59-66.048 88.757" clip-path="url(#a)"/>
<path d="m313.05 147.59-9.0476 88.757" clip-path="url(#a)"/>
<path d="m313.05 147.59 123.95 88.757" clip-path="url(#a)"/>
<path d="m313.05 147.59 199.95 88.757" clip-path="url(#a)"/>
<path d="m367.33 236.34v43.655" clip-path="url(#a)"/>
<path d="m78.463 102.94-53.13 133.4" clip-path="url(#a)"/>
<path d="m78.463 102.94 53.13 44.646" clip-path="url(#a)"/>
<path d="m25.333 236.34v43.655" clip-path="url(#a)"/>
<path d="m131.59 147.59-59.815 44.495" clip-path="url(#a)"/>
<path d="m131.59 147.59 7.7407 88.757" clip-path="url(#a)"/>
<path d="m131.59 147.59 52.074 44.495" clip-path="url(#a)"/>
<path d="m71.778 192.08-27.444 44.262" clip-path="url(#a)"/>
<path d="m71.778 192.08-2.1111 44.262" clip-path="url(#a)"/>
<path d="m71.778 192.08 29.556 44.262" clip-path="url(#a)"/>
<path d="m139.33 236.34v43.655" clip-path="url(#a)"/>
<path d="m183.67 192.08v44.262" clip-path="url(#a)"/>
<path d="m183.67 236.34v43.655" clip-path="url(#a)"/>
<path d="m44.333 236.34v43.655" clip-path="url(#a)"/>
<path d="m69.667 236.34v43.655" clip-path="url(#a)"/>
<path d="m101.33 236.34v43.655" clip-path="url(#a)"/>
<path d="m247 236.34v43.655" clip-path="url(#a)"/>
<path d="m304 236.34v43.655" clip-path="url(#a)"/>
<path d="m437 236.34v43.655" clip-path="url(#a)"/>
<path d="m513 236.34v43.655" clip-path="url(#a)"/>
</g>
<path d="m136.54 42.69 5.6195-2.1487q2.2417-0.85717 1.3845-3.0989l-2.7653-7.2319q-0.85717-2.2417-3.0989-1.3845l-5.6195 2.1487q-2.2417 0.85717-1.3845 3.0989l2.7653 7.2319q0.85717 2.2417 3.0989 1.3845z" clip-path="url(#a)" fill="#fff" stroke="#fff"/>
<g clip-path="url(#a)">
<g transform="translate(135.09 38.894) rotate(-20.925) scale(.08 -.08)">
<defs>
<path id="w" d="m9.8125 72.906h9.8594v-29.891h35.844v29.891h9.8594v-72.906h-9.8594v34.719h-35.844v-34.719h-9.8594z"/>
</defs>
<use xlink:href="#w"/>
</g>
</g>
<path d="m248.2 61.295 4.7807 3.6524q1.9071 1.457 3.3641-0.45013l4.7003-6.1525q1.457-1.9071-0.45013-3.3641l-4.7807-3.6524q-1.9071-1.457-3.3641 0.45013l-4.7003 6.1525q-1.457 1.9071 0.45013 3.3641z" clip-path="url(#a)" fill="#fff" stroke="#fff"/>
<g clip-path="url(#a)">
<g transform="translate(250.67 58.065) rotate(37.379) scale(.08 -.08)">
<use xlink:href="#w"/>
</g>
</g>
<path d="m132.61 85.454 5.1161 1.9427q2.2437 0.852 3.0957-1.3917l2.7486-7.2382q0.852-2.2437-1.3917-3.0957l-5.1161-1.9427q-2.2437-0.852-3.0957 1.3917l-2.7486 7.2382q-0.852 2.2437 1.3917 3.0957z" clip-path="url(#a)" fill="#fff" stroke="#fff"/>
<g clip-path="url(#a)">
<g transform="translate(134.06 81.654) rotate(20.793) scale(.08 -.08)">
<defs>
<path id="p" d="m34.188 63.188-13.391-36.281h26.812zm-5.5781 9.7188h11.188l27.781-72.906h-10.25l-6.6406 18.703h-32.859l-6.6406-18.703h-10.406z"/>
</defs>
<use xlink:href="#p"/>
</g>
</g>
<path d="m132.92 85.569 4.5096 1.7124q2.2437 0.852 3.0957-1.3917l2.7486-7.2382q0.852-2.2437-1.3917-3.0957l-4.5096-1.7124q-2.2437-0.852-3.0957 1.3917l-2.7486 7.2382q-0.852 2.2437 1.3917 3.0957z" clip-path="url(#a)" fill="#fff" stroke="#fff"/>
<g clip-path="url(#a)">
<g transform="translate(134.36 81.77) rotate(20.793) scale(.08 -.08)">
<defs>
<path id="o" d="m19.672 64.797v-27.391h12.406q6.8906 0 10.641 3.5625 3.7656 3.5625 3.7656 10.156 0 6.5469-3.7656 10.109-3.75 3.5625-10.641 3.5625zm-9.8594 8.1094h22.266q12.266 0 18.531-5.5469 6.2812-5.5469 6.2812-16.234 0-10.797-6.2812-16.312-6.2656-5.5156-18.531-5.5156h-12.406v-29.297h-9.8594z"/>
</defs>
<use xlink:href="#o"/>
</g>
</g>
<path d="m72.192 77.826v5.4725q0 2.4 2.4 2.4h7.7425q2.4 0 2.4-2.4v-5.4725q0-2.4-2.4-2.4h-7.7425q-2.4 0-2.4 2.4z" clip-path="url(#a)" fill="#fff" stroke="#fff"/>
<g clip-path="url(#a)">
<g transform="translate(76.255 77.826) rotate(90) scale(.08 -.08)">
<use xlink:href="#p"/>
</g>
</g>
<path d="m418.91 130.93 4.7265 0.96377q2.3516 0.47951 2.8311-1.8721l1.5469-7.5864q0.47951-2.3516-1.8721-2.8311l-4.7265-0.96377q-2.3516-0.47951-2.8311 1.8721l-1.5469 7.5864q-0.47951 2.3516 1.8721 2.8311z" clip-path="url(#a)" fill="#fff" stroke="#fff"/>
<g clip-path="url(#a)">
<g transform="translate(419.72 126.95) rotate(11.525) scale(.08 -.08)">
<use xlink:href="#o"/>
</g>
</g>
<path d="m418.59 130.86 5.3622 1.0934q2.3516 0.47951 2.8311-1.8721l1.5469-7.5864q0.47951-2.3516-1.8721-2.8311l-5.3622-1.0934q-2.3516-0.47951-2.8311 1.8721l-1.5469 7.5864q-0.47951 2.3516 1.8721 2.8311z" clip-path="url(#a)" fill="#fff" stroke="#fff"/>
<g clip-path="url(#a)">
<g transform="translate(419.4 126.88) rotate(11.525) scale(.08 -.08)">
<use xlink:href="#p"/>
</g>
</g>
<path d="m306.78 122.53v5.4725q0 2.4 2.4 2.4h7.7425q2.4 0 2.4-2.4v-5.4725q0-2.4-2.4-2.4h-7.7425q-2.4 0-2.4 2.4z" clip-path="url(#a)" fill="#fff" stroke="#fff"/>
<g clip-path="url(#a)">
<g transform="translate(310.84 122.53) rotate(90) scale(.08 -.08)">
<use xlink:href="#p"/>
</g>
</g>
<path d="m418.26 175.37 6.0366 1.2267q2.3519 0.47795 2.8299-1.874l1.5419-7.5874q0.47795-2.3519-1.874-2.8299l-6.0366-1.2267q-2.3519-0.47795-2.8299 1.874l-1.5419 7.5874q-0.47795 2.3519 1.874 2.8299z" clip-path="url(#a)" fill="#fff" stroke="#fff"/>
<g clip-path="url(#a)">
<g transform="translate(419.07 171.38) rotate(11.487) scale(.08 -.08)">
<defs>
<path id="am" d="m19.672 64.797v-56.688h11.922q15.094 0 22.094 6.8281 7 6.8438 7 21.594 0 14.641-7 21.453t-22.094 6.8125zm-9.8594 8.1094h20.266q21.188 0 31.094-8.8125 9.9219-8.8125 9.9219-27.562 0-18.859-9.9688-27.703-9.9531-8.8281-31.047-8.8281h-20.266z"/>
</defs>
<use xlink:href="#am"/>
</g>
</g>
<path d="m333.22 192.59 3.2343 5.2881q1.2522 2.0474 3.2997 0.79517l6.605-4.0398q2.0474-1.2522 0.79517-3.2997l-3.2343-5.2881q-1.2522-2.0474-3.2997-0.79517l-6.605 4.0398q-2.0474 1.2522-0.79517 3.2997z" clip-path="url(#a)" fill="#fff" stroke="#fff"/>
<g clip-path="url(#a)">
<g transform="translate(336.69 190.47) rotate(58.549) scale(.08 -.08)">
<defs>
<path id="ak" d="m59.516 10.406v19.578h-16.109v8.1094h25.875v-31.312q-5.7031-4.0469-12.594-6.125-6.875-2.0781-14.688-2.0781-17.094 0-26.75 9.9844-9.6406 10-9.6406 27.812 0 17.875 9.6406 27.859 9.6562 9.9844 26.75 9.9844 7.125 0 13.547-1.7656 6.4219-1.75 11.844-5.1719v-10.5q-5.4688 4.6406-11.625 6.9844t-12.938 2.3438q-13.391 0-20.109-7.4688-6.7031-7.4688-6.7031-22.266 0-14.75 6.7031-22.219 6.7188-7.4688 20.109-7.4688 5.2188 0 9.3125 0.90625 4.1094 0.90625 7.375 2.8125z"/>
</defs>
<use xlink:href="#ak"/>
</g>
</g>
<path d="m226.78 198.71 4.5226-2.3108q2.1372-1.092 1.0452-3.2292l-3.5227-6.8947q-1.092-2.1372-3.2292-1.0452l-4.5226 2.3108q-2.1372 1.092-1.0452 3.2292l3.5227 6.8947q1.092 2.1372 3.2292 1.0452z" clip-path="url(#a)" fill="#fff" stroke="#fff"/>
<g clip-path="url(#a)">
<g transform="translate(224.93 195.09) rotate(-27.064) scale(.08 -.08)">
<defs>
<path id="aa" d="m53.516 70.516v-9.625q-5.6094 2.6875-10.594 4-4.9844 1.3281-9.625 1.3281-8.0469 0-12.422-3.125t-4.375-8.8906q0-4.8438 2.9062-7.3125 2.9062-2.4531 11.016-3.9688l5.9531-1.2188q11.031-2.1094 16.281-7.4062t5.25-14.172q0-10.609-7.1094-16.078-7.0938-5.4688-20.812-5.4688-5.1719 0-11.016 1.1719-5.8281 1.1719-12.078 3.4688v10.156q6-3.3594 11.766-5.0781 5.7656-1.7031 11.328-1.7031 8.4375 0 13.031 3.3125 4.5938 3.3281 4.5938 9.4844 0 5.3594-3.2969 8.3906t-10.812 4.5469l-6.0156 1.1719q-11.031 2.1875-15.969 6.875-4.9219 4.6875-4.9219 13.047 0 9.6719 6.8125 15.234t18.766 5.5625q5.1406 0 10.453-0.9375 5.3281-0.92188 10.891-2.7656z"/>
</defs>
<use xlink:href="#aa"/>
</g>
</g>
<path d="m247.81 176.66 5.175-1.7797q2.2695-0.7805 1.489-3.05l-2.5179-7.3216q-0.7805-2.2695-3.05-1.489l-5.175 1.7797q-2.2695 0.7805-1.489 3.05l2.5179 7.3216q0.7805 2.2695 3.05 1.489z" clip-path="url(#a)" fill="#fff" stroke="#fff"/>
<g clip-path="url(#a)">
<g transform="translate(246.49 172.81) rotate(-18.978) scale(.08 -.08)">
<use xlink:href="#p"/>
</g>
</g>
<path d="m283.31 198.06 3.4954-4.6972q1.4328-1.9254-0.49264-3.3582l-6.2114-4.6222q-1.9254-1.4328-3.3582 0.49264l-3.4954 4.6972q-1.4328 1.9254 0.49264 3.3582l6.2114 4.6222q1.9254 1.4328 3.3582-0.49264z" clip-path="url(#a)" fill="#fff" stroke="#fff"/>
<g clip-path="url(#a)">
<g transform="translate(280.05 195.63) rotate(-53.346) scale(.08 -.08)">
<defs>
<path id="u" d="m8.6875 72.906h9.9219v-44.297q0-11.719 4.2344-16.875 4.25-5.1406 13.781-5.1406 9.4688 0 13.719 5.1406 4.25 5.1562 4.25 16.875v44.297h9.9062v-45.516q0-14.25-7.0625-21.531-7.0469-7.2812-20.812-7.2812-13.828 0-20.891 7.2812-7.0469 7.2812-7.0469 21.531z"/>
</defs>
<use xlink:href="#u"/>
</g>
</g>
<path d="m314.47 195.51 0.59376-5.8248q0.24339-2.3876-2.1442-2.631l-7.7026-0.78518q-2.3876-0.24339-2.631 2.1442l-0.59376 5.8248q-0.24339 2.3876 2.1442 2.631l7.7026 0.78518q2.3876 0.24339 2.631-2.1442z" clip-path="url(#a)" fill="#fff" stroke="#fff"/>
<g clip-path="url(#a)">
<g transform="translate(310.42 195.1) rotate(-84.18) scale(.08 -.08)">
<use xlink:href="#u"/>
</g>
</g>
<path d="m368.99 195.36 4.7604 3.4087q1.9513 1.3973 3.3486-0.55406l4.5076-6.295q1.3973-1.9513-0.55406-3.3486l-4.7604-3.4087q-1.9513-1.3973-3.3486 0.55406l-4.5076 6.295q-1.3973 1.9513 0.55406 3.3486z" clip-path="url(#a)" fill="#fff" stroke="#fff"/>
<g clip-path="url(#a)">
<g transform="translate(371.36 192.06) rotate(35.605) scale(.08 -.08)">
<use xlink:href="#u"/>
</g>
</g>
<path d="m407.8 196.51 5.3515 2.3755q2.1936 0.97372 3.1673-1.2199l3.1413-7.0766q0.97372-2.1936-1.2199-3.1673l-5.3515-2.3755q-2.1936-0.97372-3.1673 1.2199l-3.1413 7.0766q-0.97372 2.1936 1.2199 3.1673z" clip-path="url(#a)" fill="#fff" stroke="#fff"/>
<g clip-path="url(#a)">
<g transform="translate(409.45 192.8) rotate(23.936) scale(.08 -.08)">
<use xlink:href="#u"/>
</g>
</g>
<path d="m361.06 241.27v33.808q0 2.4 2.4 2.4h7.7425q2.4 0 2.4-2.4v-33.808q0-2.4-2.4-2.4h-7.7425q-2.4 0-2.4 2.4z" clip-path="url(#a)" fill="#fff" stroke="#fff"/>
<g clip-path="url(#a)">
<g transform="translate(365.13 241.27) rotate(90) scale(.08 -.08)">
<defs>
<path id="e" d="m-0.29688 72.906h61.672v-8.3125h-25.875v-64.594h-9.9062v64.594h-25.891z"/>
<path id="n" d="m56.203 29.594v-4.3906h-41.312q0.59375-9.2812 5.5938-14.141t13.938-4.8594q5.1719 0 10.031 1.2656t9.6562 3.8125v-8.5q-4.8438-2.0469-9.9219-3.125t-10.297-1.0781q-13.094 0-20.734 7.6094-7.6406 7.625-7.6406 20.625 0 13.422 7.25 21.297 7.25 7.8906 19.562 7.8906 11.031 0 17.453-7.1094 6.4219-7.0938 6.4219-19.297zm-8.9844 2.6406q-0.09375 7.3594-4.125 11.75-4.0312 4.4062-10.672 4.4062-7.5156 0-12.031-4.25t-5.2031-11.969z"/>
<path id="i" d="m41.109 46.297q-1.5156 0.875-3.2969 1.2812-1.7812 0.42188-3.9219 0.42188-7.625 0-11.703-4.9531t-4.0781-14.234v-28.812h-9.0312v54.688h9.0312v-8.5q2.8438 4.9844 7.375 7.3906 4.5469 2.4219 11.047 2.4219 0.92188 0 2.0469-0.125 1.125-0.10938 2.4844-0.35938z"/>
<path id="k" d="m52 44.188q3.375 6.0625 8.0625 8.9375t11.031 2.875q8.5469 0 13.188-5.9844 4.6406-5.9688 4.6406-17v-33.016h-9.0312v32.719q0 7.8594-2.7969 11.656-2.7812 3.8125-8.4844 3.8125-6.9844 0-11.047-4.6406-4.0469-4.625-4.0469-12.641v-30.906h-9.0312v32.719q0 7.9062-2.7812 11.688t-8.5938 3.7812q-6.8906 0-10.953-4.6562-4.0469-4.6562-4.0469-12.625v-30.906h-9.0312v54.688h9.0312v-8.5q3.0781 5.0312 7.375 7.4219t10.203 2.3906q5.9688 0 10.141-3.0312 4.1719-3.0156 6.1719-8.7812z"/>
<path id="m" d="m9.4219 54.688h8.9844v-54.688h-8.9844zm0 21.297h8.9844v-11.391h-8.9844z"/>
<path id="j" d="m54.891 33.016v-33.016h-8.9844v32.719q0 7.7656-3.0312 11.609-3.0312 3.8594-9.0781 3.8594-7.2812 0-11.484-4.6406-4.2031-4.625-4.2031-12.641v-30.906h-9.0312v54.688h9.0312v-8.5q3.2344 4.9375 7.5938 7.375 4.375 2.4375 10.094 2.4375 9.4219 0 14.25-5.8281 4.8438-5.8281 4.8438-17.156z"/>
<path id="g" d="m34.281 27.484q-10.891 0-15.094-2.4844t-4.2031-8.5q0-4.7812 3.1562-7.5938 3.1562-2.7969 8.5625-2.7969 7.4844 0 12 5.2969t4.5156 14.078v2zm17.922 3.7188v-31.203h-8.9844v8.2969q-3.0781-4.9688-7.6719-7.3438t-11.234-2.375q-8.3906 0-13.359 4.7188-4.9531 4.7188-4.9531 12.625 0 9.2188 6.1719 13.906 6.1875 4.6875 18.438 4.6875h12.609v0.89062q0 6.2031-4.0781 9.5938t-11.453 3.3906q-4.6875 0-9.1406-1.125-4.4375-1.125-8.5312-3.375v8.3125q4.9219 1.9062 9.5625 2.8438 4.6406 0.95312 9.0312 0.95312 11.875 0 17.734-6.1562 5.8594-6.1406 5.8594-18.641z"/>
<path id="l" d="m9.4219 75.984h8.9844v-75.984h-8.9844z"/>
</defs>
<use xlink:href="#e"/>
<use x="44.083984" xlink:href="#n"/>
<use x="105.607422" xlink:href="#i"/>
<use x="144.970703" xlink:href="#k"/>
<use x="242.382812" xlink:href="#m"/>
<use x="270.166016" xlink:href="#j"/>
<use x="333.544922" xlink:href="#g"/>
<use x="394.824219" xlink:href="#l"/>
</g>
</g>
<path d="m56.9 174.03 1.6493-4.1412q0.888-2.2297-1.3417-3.1177l-7.193-2.8647q-2.2297-0.888-3.1177 1.3417l-1.6493 4.1412q-0.888 2.2297 1.3417 3.1177l7.193 2.8647q2.2297 0.888 3.1177-1.3417z" clip-path="url(#a)" fill="#fff" stroke="#fff"/>
<g clip-path="url(#a)">
<g transform="translate(53.124 172.53) rotate(-68.284) scale(.08 -.08)">
<defs>
<path id="q" d="m9.8125 72.906h9.8594v-64.609h35.5v-8.2969h-45.359z"/>
</defs>
<use xlink:href="#q"/>
</g>
</g>
<path d="m98.69 128.13 4.6059 3.8705q1.8374 1.544 3.3814-0.29339l4.981-5.9275q1.544-1.8374-0.29339-3.3814l-4.6059-3.8705q-1.8374-1.544-3.3814 0.29339l-4.981 5.9275q-1.544 1.8374 0.29339 3.3814z" clip-path="url(#a)" fill="#fff" stroke="#fff"/>
<g clip-path="url(#a)">
<g transform="translate(101.3 125.02) rotate(40.041) scale(.08 -.08)">
<use xlink:href="#w"/>
</g>
</g>
<path d="m19.062 241.27v33.808q0 2.4 2.4 2.4h7.7425q2.4 0 2.4-2.4v-33.808q0-2.4-2.4-2.4h-7.7425q-2.4 0-2.4 2.4z" clip-path="url(#a)" fill="#fff" stroke="#fff"/>
<g clip-path="url(#a)">
<g transform="translate(23.126 241.27) rotate(90) scale(.08 -.08)">
<use xlink:href="#e"/>
<use x="44.083984" xlink:href="#n"/>
<use x="105.607422" xlink:href="#i"/>
<use x="144.970703" xlink:href="#k"/>
<use x="242.382812" xlink:href="#m"/>
<use x="270.166016" xlink:href="#j"/>
<use x="333.544922" xlink:href="#g"/>
<use x="394.824219" xlink:href="#l"/>
</g>
</g>
<path d="m103.23 176.5 4.3909-3.2663q1.9256-1.4324 0.49321-3.3581l-4.6211-6.2122q-1.4324-1.9256-3.3581-0.49321l-4.3909 3.2663q-1.9256 1.4324-0.49321 3.3581l4.6211 6.2122q1.4324 1.9256 3.3581 0.49321z" clip-path="url(#a)" fill="#fff" stroke="#fff"/>
<g clip-path="url(#a)">
<g transform="translate(100.81 173.24) rotate(-36.645) scale(.08 -.08)">
<use xlink:href="#p"/>
</g>
</g>
<path d="m128.99 189.98 0.44126 5.0595q0.20852 2.3909 2.5994 2.1824l7.7132-0.67269q2.3909-0.20852 2.1824-2.5994l-0.44126-5.0595q-0.20852-2.3909-2.5994-2.1824l-7.7132 0.67269q-2.3909 0.20852-2.1824 2.5994z" clip-path="url(#a)" fill="#fff" stroke="#fff"/>
<g clip-path="url(#a)">
<g transform="translate(133.04 189.63) rotate(85.016) scale(.08 -.08)">
<use xlink:href="#aa"/>
</g>
</g>
<path d="m151.48 172.83 4.1606 3.555q1.8246 1.5591 3.3837-0.26558l5.0296-5.8864q1.5591-1.8246-0.26558-3.3837l-4.1606-3.555q-1.8246-1.5591-3.3837 0.26558l-5.0296 5.8864q-1.5591 1.8246 0.26558 3.3837z" clip-path="url(#a)" fill="#fff" stroke="#fff"/>
<g clip-path="url(#a)">
<g transform="translate(154.12 169.74) rotate(40.512) scale(.08 -.08)">
<use xlink:href="#p"/>
</g>
</g>
<path d="m61.921 219.88 2.9293-4.7243q1.2647-2.0397-0.77502-3.3044l-6.5803-4.08q-2.0397-1.2647-3.3044 0.77502l-2.9293 4.7243q-1.2647 2.0397 0.77502 3.3044l6.5803 4.08q2.0397 1.2647 3.3044-0.77502z" clip-path="url(#a)" fill="#fff" stroke="#fff"/>
<g clip-path="url(#a)">
<g transform="translate(58.467 217.74) rotate(-58.199) scale(.08 -.08)">
<defs>
<path id="aj" d="m44.391 34.188q3.1719-1.0781 6.1719-4.5938t6.0312-9.6719l10.016-19.922h-10.609l-9.3125 18.703q-3.625 7.3281-7.0156 9.7188t-9.25 2.3906h-10.75v-30.812h-9.8594v72.906h22.266q12.5 0 18.656-5.2344 6.1562-5.2188 6.1562-15.766 0-6.8906-3.2031-11.438-3.2031-4.5312-9.2969-6.2812zm-24.719 30.609v-25.875h12.406q7.125 0 10.766 3.2969t3.6406 9.6875-3.6406 9.6406-10.766 3.25z"/>
</defs>
<use xlink:href="#aj"/>
</g>
</g>
<path d="m76.866 217.04 0.24083-5.0493q0.11434-2.3973-2.2829-2.5116l-7.7337-0.36886q-2.3973-0.11434-2.5116 2.2829l-0.24083 5.0493q-0.11434 2.3973 2.2829 2.5116l7.7337 0.36886q2.3973 0.11434 2.5116-2.2829z" clip-path="url(#a)" fill="#fff" stroke="#fff"/>
<g clip-path="url(#a)">
<g transform="translate(72.807 216.84) rotate(-87.269) scale(.08 -.08)">
<defs>
<path id="al" d="m9.8125 72.906h46.094v-8.3125h-36.234v-21.578h34.719v-8.2969h-34.719v-26.422h37.109v-8.2969h-46.969z"/>
</defs>
<use xlink:href="#al"/>
</g>
</g>
<path d="m79.789 215.37 3.1021 4.6458q1.3328 1.9959 3.3287 0.66318l6.439-4.2995q1.9959-1.3328 0.66318-3.3287l-3.1021-4.6458q-1.3328-1.9959-3.3287-0.66318l-6.439 4.2995q-1.9959 1.3328-0.66318 3.3287z" clip-path="url(#a)" fill="#fff" stroke="#fff"/>
<g clip-path="url(#a)">
<g transform="translate(83.169 213.12) rotate(56.268) scale(.08 -.08)">
<defs>
<path id="r" d="m64.406 67.281v-10.391q-4.9844 4.6406-10.625 6.9219-5.6406 2.2969-11.984 2.2969-12.5 0-19.141-7.6406t-6.6406-22.094q0-14.406 6.6406-22.047t19.141-7.6406q6.3438 0 11.984 2.2969t10.625 6.9375v-10.312q-5.1719-3.5156-10.969-5.2812-5.7812-1.75-12.219-1.75-16.562 0-26.094 10.125-9.5156 10.141-9.5156 27.672 0 17.578 9.5156 27.703 9.5312 10.141 26.094 10.141 6.5312 0 12.312-1.7344 5.7969-1.7344 10.875-5.2031z"/>
</defs>
<use xlink:href="#r"/>
</g>
</g>
<path d="m133.06 241.27v33.808q0 2.4 2.4 2.4h7.7425q2.4 0 2.4-2.4v-33.808q0-2.4-2.4-2.4h-7.7425q-2.4 0-2.4 2.4z" clip-path="url(#a)" fill="#fff" stroke="#fff"/>
<g clip-path="url(#a)">
<g transform="translate(137.13 241.27) rotate(90) scale(.08 -.08)">
<use xlink:href="#e"/>
<use x="44.083984" xlink:href="#n"/>
<use x="105.607422" xlink:href="#i"/>
<use x="144.970703" xlink:href="#k"/>
<use x="242.382812" xlink:href="#m"/>
<use x="270.166016" xlink:href="#j"/>
<use x="333.544922" xlink:href="#g"/>
<use x="394.824219" xlink:href="#l"/>
</g>
</g>
<path d="m177.27 207.72v12.991q0 2.4 2.4 2.4h8q2.4 0 2.4-2.4v-12.991q0-2.4-2.4-2.4h-8q-2.4 0-2.4 2.4z" clip-path="url(#a)" fill="#fff" stroke="#fff"/>
<g clip-path="url(#a)">
<g transform="translate(181.55 207.72) rotate(90) scale(.08 -.08)">
<defs>
<path id="aq" d="m21 76.422v-100h-8.2969v100z"/>
</defs>
<use xlink:href="#p"/>
<use x="68.408203" xlink:href="#aq"/>
<use x="102.099609" xlink:href="#o"/>
</g>
</g>
<path d="m177.4 241.27v33.808q0 2.4 2.4 2.4h7.7425q2.4 0 2.4-2.4v-33.808q0-2.4-2.4-2.4h-7.7425q-2.4 0-2.4 2.4z" clip-path="url(#a)" fill="#fff" stroke="#fff"/>
<g clip-path="url(#a)">
<g transform="translate(181.46 241.27) rotate(90) scale(.08 -.08)">
<use xlink:href="#e"/>
<use x="44.083984" xlink:href="#n"/>
<use x="105.607422" xlink:href="#i"/>
<use x="144.970703" xlink:href="#k"/>
<use x="242.382812" xlink:href="#m"/>
<use x="270.166016" xlink:href="#j"/>
<use x="333.544922" xlink:href="#g"/>
<use x="394.824219" xlink:href="#l"/>
</g>
</g>
<path d="m38.062 241.27v33.808q0 2.4 2.4 2.4h7.7425q2.4 0 2.4-2.4v-33.808q0-2.4-2.4-2.4h-7.7425q-2.4 0-2.4 2.4z" clip-path="url(#a)" fill="#fff" stroke="#fff"/>
<g clip-path="url(#a)">
<g transform="translate(42.126 241.27) rotate(90) scale(.08 -.08)">
<use xlink:href="#e"/>
<use x="44.083984" xlink:href="#n"/>
<use x="105.607422" xlink:href="#i"/>
<use x="144.970703" xlink:href="#k"/>
<use x="242.382812" xlink:href="#m"/>
<use x="270.166016" xlink:href="#j"/>
<use x="333.544922" xlink:href="#g"/>
<use x="394.824219" xlink:href="#l"/>
</g>
</g>
<path d="m63.395 241.27v33.808q0 2.4 2.4 2.4h7.7425q2.4 0 2.4-2.4v-33.808q0-2.4-2.4-2.4h-7.7425q-2.4 0-2.4 2.4z" clip-path="url(#a)" fill="#fff" stroke="#fff"/>
<g clip-path="url(#a)">
<g transform="translate(67.459 241.27) rotate(90) scale(.08 -.08)">
<use xlink:href="#e"/>
<use x="44.083984" xlink:href="#n"/>
<use x="105.607422" xlink:href="#i"/>
<use x="144.970703" xlink:href="#k"/>
<use x="242.382812" xlink:href="#m"/>
<use x="270.166016" xlink:href="#j"/>
<use x="333.544922" xlink:href="#g"/>
<use x="394.824219" xlink:href="#l"/>
</g>
</g>
<path d="m95.062 241.27v33.808q0 2.4 2.4 2.4h7.7425q2.4 0 2.4-2.4v-33.808q0-2.4-2.4-2.4h-7.7425q-2.4 0-2.4 2.4z" clip-path="url(#a)" fill="#fff" stroke="#fff"/>
<g clip-path="url(#a)">
<g transform="translate(99.126 241.27) rotate(90) scale(.08 -.08)">
<use xlink:href="#e"/>
<use x="44.083984" xlink:href="#n"/>
<use x="105.607422" xlink:href="#i"/>
<use x="144.970703" xlink:href="#k"/>
<use x="242.382812" xlink:href="#m"/>
<use x="270.166016" xlink:href="#j"/>
<use x="333.544922" xlink:href="#g"/>
<use x="394.824219" xlink:href="#l"/>
</g>
</g>
<path d="m240.73 241.27v33.808q0 2.4 2.4 2.4h7.7425q2.4 0 2.4-2.4v-33.808q0-2.4-2.4-2.4h-7.7425q-2.4 0-2.4 2.4z" clip-path="url(#a)" fill="#fff" stroke="#fff"/>
<g clip-path="url(#a)">
<g transform="translate(244.79 241.27) rotate(90) scale(.08 -.08)">
<use xlink:href="#e"/>
<use x="44.083984" xlink:href="#n"/>
<use x="105.607422" xlink:href="#i"/>
<use x="144.970703" xlink:href="#k"/>
<use x="242.382812" xlink:href="#m"/>
<use x="270.166016" xlink:href="#j"/>
<use x="333.544922" xlink:href="#g"/>
<use x="394.824219" xlink:href="#l"/>
</g>
</g>
<path d="m297.73 241.27v33.808q0 2.4 2.4 2.4h7.7425q2.4 0 2.4-2.4v-33.808q0-2.4-2.4-2.4h-7.7425q-2.4 0-2.4 2.4z" clip-path="url(#a)" fill="#fff" stroke="#fff"/>
<g clip-path="url(#a)">
<g transform="translate(301.79 241.27) rotate(90) scale(.08 -.08)">
<use xlink:href="#e"/>
<use x="44.083984" xlink:href="#n"/>
<use x="105.607422" xlink:href="#i"/>
<use x="144.970703" xlink:href="#k"/>
<use x="242.382812" xlink:href="#m"/>
<use x="270.166016" xlink:href="#j"/>
<use x="333.544922" xlink:href="#g"/>
<use x="394.824219" xlink:href="#l"/>
</g>
</g>
<path d="m430.73 241.27v33.808q0 2.4 2.4 2.4h7.7425q2.4 0 2.4-2.4v-33.808q0-2.4-2.4-2.4h-7.7425q-2.4 0-2.4 2.4z" clip-path="url(#a)" fill="#fff" stroke="#fff"/>
<g clip-path="url(#a)">
<g transform="translate(434.79 241.27) rotate(90) scale(.08 -.08)">
<use xlink:href="#e"/>
<use x="44.083984" xlink:href="#n"/>
<use x="105.607422" xlink:href="#i"/>
<use x="144.970703" xlink:href="#k"/>
<use x="242.382812" xlink:href="#m"/>
<use x="270.166016" xlink:href="#j"/>
<use x="333.544922" xlink:href="#g"/>
<use x="394.824219" xlink:href="#l"/>
</g>
</g>
<path d="m506.73 241.27v33.808q0 2.4 2.4 2.4h7.7425q2.4 0 2.4-2.4v-33.808q0-2.4-2.4-2.4h-7.7425q-2.4 0-2.4 2.4z" clip-path="url(#a)" fill="#fff" stroke="#fff"/>
<g clip-path="url(#a)">
<g transform="translate(510.79 241.27) rotate(90) scale(.08 -.08)">
<use xlink:href="#e"/>
<use x="44.083984" xlink:href="#n"/>
<use x="105.607422" xlink:href="#i"/>
<use x="144.970703" xlink:href="#k"/>
<use x="242.382812" xlink:href="#m"/>
<use x="270.166016" xlink:href="#j"/>
<use x="333.544922" xlink:href="#g"/>
<use x="394.824219" xlink:href="#l"/>
</g>
</g>
<defs>
<path id="b" d="m0 8.6603c2.2967 0 4.4997-0.9125 6.1237-2.5365 1.624-1.624 2.5365-3.827 2.5365-6.1237s-0.9125-4.4997-2.5365-6.1237c-1.624-1.624-3.827-2.5365-6.1237-2.5365s-4.4997 0.9125-6.1237 2.5365c-1.624 1.624-2.5365 3.827-2.5365 6.1237s0.9125 4.4997 2.5365 6.1237c1.624 1.624 3.827 2.5365 6.1237 2.5365z"/>
</defs>
<g clip-path="url(#a)" fill="#ffffff" stroke="#ffffff">
<use x="25.333333" y="280" xlink:href="#b"/>
<use x="44.333333" y="280" xlink:href="#b"/>
<use x="69.666667" y="280" xlink:href="#b"/>
<use x="101.333333" y="280" xlink:href="#b"/>
<use x="139.333333" y="280" xlink:href="#b"/>
<use x="183.666667" y="280" xlink:href="#b"/>
<use x="247" y="280" xlink:href="#b"/>
<use x="304" y="280" xlink:href="#b"/>
<use x="367.333333" y="280" xlink:href="#b"/>
<use x="437" y="280" xlink:href="#b"/>
<use x="513" y="280" xlink:href="#b"/>
<use x="532" y="147.587667" xlink:href="#b"/>
<use x="532" y="147.587667" xlink:href="#b"/>
<use x="532" y="192.082311" xlink:href="#b"/>
<use x="196.333333" y="102.94159" xlink:href="#b"/>
<use x="196.333333" y="102.94159" xlink:href="#b"/>
<use x="195.755291" y="13.333333" xlink:href="#b"/>
<use x="78.462963" y="58.182568" xlink:href="#b"/>
<use x="313.047619" y="102.94159" xlink:href="#b"/>
<use x="313.047619" y="147.587667" xlink:href="#b"/>
<use x="367.333333" y="236.344801" xlink:href="#b"/>
<use x="78.462963" y="102.94159" xlink:href="#b"/>
<use x="25.333333" y="236.344801" xlink:href="#b"/>
<use x="131.592593" y="147.587667" xlink:href="#b"/>
<use x="71.777778" y="192.082311" xlink:href="#b"/>
<use x="139.333333" y="236.344801" xlink:href="#b"/>
<use x="183.666667" y="192.082311" xlink:href="#b"/>
<use x="183.666667" y="236.344801" xlink:href="#b"/>
<use x="44.333333" y="236.344801" xlink:href="#b"/>
<use x="69.666667" y="236.344801" xlink:href="#b"/>
<use x="101.333333" y="236.344801" xlink:href="#b"/>
<use x="247" y="236.344801" xlink:href="#b"/>
<use x="304" y="236.344801" xlink:href="#b"/>
<use x="437" y="236.344801" xlink:href="#b"/>
<use x="513" y="236.344801" xlink:href="#b"/>
</g>
<g clip-path="url(#a)">
<g transform="translate(21.913 282.76) scale(.1 -.1)">
<defs>
<path id="az" d="m34.188 63.188-13.391-36.281h26.812zm-5.5781 9.7188h11.188l27.781-72.906h-10.25l-6.6406 18.703h-32.859l-6.6406-18.703h-10.406z"/>
</defs>
<use xlink:href="#az"/>
</g>
</g>
<g clip-path="url(#a)">
<g transform="translate(38.001 282.76) scale(.1 -.1)">
<defs>
<path id="z" d="m9.0781 54.688h9.0312v-22.312h29.156v22.312h9.0312v-54.688h-9.0312v25.203h-29.156v-25.203h-9.0312z"/>
<path id="ai" d="m34.281 27.484q-10.891 0-15.094-2.4844t-4.2031-8.5q0-4.7812 3.1562-7.5938 3.1562-2.7969 8.5625-2.7969 7.4844 0 12 5.2969t4.5156 14.078v2zm17.922 3.7188v-31.203h-8.9844v8.2969q-3.0781-4.9688-7.6719-7.3438t-11.234-2.375q-8.3906 0-13.359 4.7188-4.9531 4.7188-4.9531 12.625 0 9.2188 6.1719 13.906 6.1875 4.6875 18.438 4.6875h12.609v0.89062q0 6.2031-4.0781 9.5938t-11.453 3.3906q-4.6875 0-9.1406-1.125-4.4375-1.125-8.5312-3.375v8.3125q4.9219 1.9062 9.5625 2.8438 4.6406 0.95312 9.0312 0.95312 11.875 0 17.734-6.1562 5.8594-6.1406 5.8594-18.641z"/>
</defs>
<use xlink:href="#z"/>
<use x="65.380859" xlink:href="#ai"/>
</g>
</g>
<g clip-path="url(#a)">
<g transform="translate(60.446 282.76) scale(.1 -.1)">
<defs>
<path id="t" d="m2.9375 54.688h52.391v-7.1719h-21.781v-47.516h-8.8438v47.516h-21.766z"/>
<path id="y" d="m30.609 48.391q-7.2188 0-11.422-5.6406t-4.2031-15.453 4.1719-15.453q4.1875-5.6406 11.453-5.6406 7.1875 0 11.375 5.6562 4.2031 5.6719 4.2031 15.438 0 9.7188-4.2031 15.406-4.1875 5.6875-11.375 5.6875zm0 7.6094q11.719 0 18.406-7.625 6.7031-7.6094 6.7031-21.078 0-13.422-6.7031-21.078-6.6875-7.6406-18.406-7.6406-11.766 0-18.438 7.6406-6.6562 7.6562-6.6562 21.078 0 13.469 6.6562 21.078 6.6719 7.625 18.438 7.625z"/>
<path id="ax" d="m55.906 54.688v-54.688h-8.9375v43.891l-26.359-43.891h-11.531v54.688h8.9375v-43.797l26.328 43.797zm-38.688 20.828h5.7656q0.53125-3.6562 2.8906-5.5 2.375-1.8281 6.625-1.8281 4.2031 0 6.5469 1.8125t2.9688 5.5156h5.7656q-0.48438-6.9844-4.3438-10.5t-10.938-3.5156-10.938 3.5156-4.3438 10.5z"/>
</defs>
<use xlink:href="#t"/>
<use x="58.251953" xlink:href="#y"/>
<use x="119.433594" xlink:href="#ax"/>
</g>
</g>
<g clip-path="url(#a)">
<g transform="translate(79.47 282.76) scale(.1 -.1)">
<defs>
<path id="au" d="m56.297 54.688v-54.688h-9.0312v47.516h-29.156v-47.516h-9.0312v54.688z"/>
<path id="av" d="m3.7188 0v7.4688q8.875 1.375 11.609 7.5156 3.3281 8.6562 3.3281 30.766v8.9375h36.953v-54.688h-8.9844v47.516h-18.984v-5.4219q0-21.094-4.2969-30.562-4.5938-10.109-19.625-11.531z"/>
<path id="v" d="m56.203 29.594v-4.3906h-41.312q0.59375-9.2812 5.5938-14.141t13.938-4.8594q5.1719 0 10.031 1.2656t9.6562 3.8125v-8.5q-4.8438-2.0469-9.9219-3.125t-10.297-1.0781q-13.094 0-20.734 7.6094-7.6406 7.625-7.6406 20.625 0 13.422 7.25 21.297 7.25 7.8906 19.562 7.8906 11.031 0 17.453-7.1094 6.4219-7.0938 6.4219-19.297zm-8.9844 2.6406q-0.09375 7.3594-4.125 11.75-4.0312 4.4062-10.672 4.4062-7.5156 0-12.031-4.25t-5.2031-11.969z"/>
</defs>
<use xlink:href="#au"/>
<use x="65.380859" xlink:href="#av"/>
<use x="129.296875" xlink:href="#ai"/>
<use x="190.576172" xlink:href="#z"/>
<use x="255.957031" xlink:href="#v"/>
<use x="317.480469" xlink:href="#t"/>
<use x="375.732422" xlink:href="#v"/>
</g>
</g>
<g clip-path="url(#a)">
<g transform="translate(127.65 282.76) scale(.1 -.1)">
<defs>
<path id="at" d="m48.781 52.594v-8.4062q-3.8125 2.1094-7.6406 3.1562t-7.7344 1.0469q-8.75 0-13.594-5.5469-4.8281-5.5312-4.8281-15.547t4.8281-15.562q4.8438-5.5312 13.594-5.5312 3.9062 0 7.7344 1.0469t7.6406 3.1562v-8.3125q-3.7656-1.75-7.7969-2.625-4.0156-0.89062-8.5625-0.89062-12.359 0-19.641 7.7656-7.2656 7.7656-7.2656 20.953 0 13.375 7.3438 21.031 7.3594 7.6719 20.156 7.6719 4.1406 0 8.0938-0.85938 3.9531-0.84375 7.6719-2.5469z"/>
<path id="ar" d="m43.453 16.219q0 4.3906-3.2031 6.6875-3.1875 2.2969-9.3438 2.2969h-12.797v-18.031h12.797q6.1562 0 9.3438 2.3125 3.2031 2.3281 3.2031 6.7344zm-34.375 38.469h9.0312v-22.312h13.188q10.453 0 16.094-3.9844 5.6406-3.9688 5.6406-12.172t-5.6406-12.219q-5.6406-4-16.094-4h-22.219z"/>
</defs>
<use xlink:href="#v"/>
<use x="61.523438" xlink:href="#at"/>
<use x="116.503906" xlink:href="#t"/>
<use x="174.755859" xlink:href="#ar"/>
</g>
</g>
<g clip-path="url(#a)">
<g transform="translate(158.89 282.76) scale(.1 -.1)">
<defs>
<path id="as" d="m54.891 54.688-19.781-26.609 20.797-28.078h-10.594l-15.922 21.484-15.906-21.484h-10.609l21.25 28.609-19.438 26.078h10.594l14.5-19.484 14.5 19.484z"/>
<path id="ah" d="m55.906 54.688v-54.688h-8.9375v43.891l-26.359-43.891h-11.531v54.688h8.9375v-43.797l26.328 43.797z"/>
<path id="aw" d="m9.0781 54.688h8.9375v-25.688l25.344 25.688h11.031l-20.891-21.141 23.578-33.547h-10.062l-19.375 27.594-9.625-9.7656v-17.828h-8.9375z"/>
</defs>
<use xlink:href="#y"/>
<use x="61.181641" xlink:href="#as"/>
<use x="120.361328" xlink:href="#y"/>
<use x="181.542969" xlink:href="#t"/>
<use x="239.794922" xlink:href="#z"/>
<use x="305.175781" xlink:href="#ah"/>
<use x="370.166016" xlink:href="#aw"/>
<use x="430.566406" xlink:href="#ah"/>
</g>
</g>
<g clip-path="url(#a)">
<g transform="translate(244.35 282.76) scale(.1 -.1)">
<defs>
<path id="an" d="m19.094 12.406h9.9062v-12.406h-9.9062zm9.625 7.1719h-9.3281v7.5156q0 4.9375 1.3594 8.1094 1.375 3.1719 5.7656 7.375l4.3906 4.3438q2.7812 2.5938 4.0312 4.8906t1.25 4.6875q0 4.3438-3.2031 7.0312t-8.4688 2.6875q-3.8594 0-8.2344-1.7188-4.3594-1.7031-9.1094-4.9844v9.1875q4.5938 2.7812 9.2969 4.1406 4.7188 1.375 9.75 1.375 8.9844 0 14.422-4.7344 5.4531-4.7344 5.4531-12.5 0-3.7188-1.7656-7.0625-1.75-3.3438-6.1406-7.5312l-4.2969-4.2031q-2.2969-2.2969-3.25-3.5938t-1.3438-2.5156q-0.29688-1.0156-0.4375-2.4844t-0.14062-4z"/>
</defs>
<use xlink:href="#an"/>
</g>
</g>
<g clip-path="url(#a)">
<g transform="translate(302.2 282.76) scale(.1 -.1)">
<defs>
<path id="ag" d="m4.8906 31.391h26.312v-8h-26.312z"/>
</defs>
<use xlink:href="#ag"/>
</g>
</g>
<g clip-path="url(#a)">
<g transform="translate(357.58 282.76) scale(.1 -.1)">
<defs>
<path id="ay" d="m9.8125 72.906h9.8594v-29.891h35.844v29.891h9.8594v-72.906h-9.8594v34.719h-35.844v-34.719h-9.8594z"/>
</defs>
<use xlink:href="#ay"/>
<use x="75.195312" xlink:href="#v"/>
<use x="136.71875" xlink:href="#t"/>
</g>
</g>
<g clip-path="url(#a)">
<g transform="translate(435.41 282.76) scale(.1 -.1)">
<defs>
<path id="d" d="m10.688 12.406h10.312v-12.406h-10.312z"/>
</defs>
<use xlink:href="#d"/>
</g>
</g>
<g clip-path="url(#a)">
<g transform="translate(511.2 282.76) scale(.1 -.1)">
<use xlink:href="#ag"/>
</g>
</g>
<g clip-path="url(#a)">
<g transform="translate(510.91 150.35) scale(.1 -.1)">
<defs>
<path id="f" d="m9.8125 72.906h9.8594v-72.906h-9.8594z"/>
<path id="s" d="m9.8125 72.906h14.703l18.594-49.609 18.703 49.609h14.703v-72.906h-9.625v64.016l-18.797-50h-9.9062l-18.797 50v-64.016h-9.5781z"/>
</defs>
<use xlink:href="#f"/>
<use x="29.492188" xlink:href="#s"/>
<use x="115.771484" xlink:href="#o"/>
<use x="176.074219" xlink:href="#q"/>
<use x="231.787109" xlink:href="#f"/>
<use x="261.279297" xlink:href="#r"/>
<use x="331.103516" xlink:href="#f"/>
<use x="360.595703" xlink:href="#e"/>
</g>
</g>
<g clip-path="url(#a)">
<g transform="translate(510.91 150.35) scale(.1 -.1)">
<use xlink:href="#f"/>
<use x="29.492188" xlink:href="#s"/>
<use x="115.771484" xlink:href="#o"/>
<use x="176.074219" xlink:href="#q"/>
<use x="231.787109" xlink:href="#f"/>
<use x="261.279297" xlink:href="#r"/>
<use x="331.103516" xlink:href="#f"/>
<use x="360.595703" xlink:href="#e"/>
</g>
</g>
<g clip-path="url(#a)">
<g transform="translate(510.91 194.84) scale(.1 -.1)">
<use xlink:href="#f"/>
<use x="29.492188" xlink:href="#s"/>
<use x="115.771484" xlink:href="#o"/>
<use x="176.074219" xlink:href="#q"/>
<use x="231.787109" xlink:href="#f"/>
<use x="261.279297" xlink:href="#r"/>
<use x="331.103516" xlink:href="#f"/>
<use x="360.595703" xlink:href="#e"/>
</g>
</g>
<g clip-path="url(#a)">
<g transform="translate(175.25 105.7) scale(.1 -.1)">
<use xlink:href="#f"/>
<use x="29.492188" xlink:href="#s"/>
<use x="115.771484" xlink:href="#o"/>
<use x="176.074219" xlink:href="#q"/>
<use x="231.787109" xlink:href="#f"/>
<use x="261.279297" xlink:href="#r"/>
<use x="331.103516" xlink:href="#f"/>
<use x="360.595703" xlink:href="#e"/>
</g>
</g>
<g clip-path="url(#a)">
<g transform="translate(175.25 105.7) scale(.1 -.1)">
<use xlink:href="#f"/>
<use x="29.492188" xlink:href="#s"/>
<use x="115.771484" xlink:href="#o"/>
<use x="176.074219" xlink:href="#q"/>
<use x="231.787109" xlink:href="#f"/>
<use x="261.279297" xlink:href="#r"/>
<use x="331.103516" xlink:href="#f"/>
<use x="360.595703" xlink:href="#e"/>
</g>
</g>
<g clip-path="url(#a)">
<g transform="translate(187.8 16.093) scale(.1 -.1)">
<defs>
<path id="c" d="m12.406 8.2969h16.109v55.625l-17.531-3.5156v8.9844l17.438 3.5156h9.8594v-64.609h16.109v-8.2969h-41.984z"/>
</defs>
<use xlink:href="#c"/>
<use x="63.623047" xlink:href="#d"/>
<use x="95.410156" xlink:href="#c"/>
</g>
</g>
<g clip-path="url(#a)">
<g transform="translate(70.511 60.942) scale(.1 -.1)">
<defs>
<path id="h" d="m19.188 8.2969h34.422v-8.2969h-46.281v8.2969q5.6094 5.8125 15.297 15.594 9.7031 9.7969 12.188 12.641 4.7344 5.3125 6.6094 9 1.8906 3.6875 1.8906 7.25 0 5.8125-4.0781 9.4688-4.0781 3.6719-10.625 3.6719-4.6406 0-9.7969-1.6094-5.1406-1.6094-11-4.8906v9.9688q5.9531 2.3906 11.125 3.6094 5.1875 1.2188 9.4844 1.2188 11.328 0 18.062-5.6719 6.7344-5.6562 6.7344-15.125 0-4.5-1.6875-8.5312-1.6719-4.0156-6.125-9.4844-1.2188-1.4219-7.7656-8.1875-6.5312-6.7656-18.453-18.922z"/>
</defs>
<use xlink:href="#c"/>
<use x="63.623047" xlink:href="#d"/>
<use x="95.410156" xlink:href="#h"/>
</g>
</g>
<g clip-path="url(#a)">
<g transform="translate(305.1 105.7) scale(.1 -.1)">
<defs>
<path id="ae" d="m40.578 39.312q7.0781-1.5156 11.047-6.3125 3.9844-4.7812 3.9844-11.812 0-10.781-7.4219-16.703-7.4219-5.9062-21.094-5.9062-4.5781 0-9.4375 0.90625t-10.031 2.7188v9.5156q4.0938-2.3906 8.9688-3.6094 4.8906-1.2188 10.219-1.2188 9.2656 0 14.125 3.6562t4.8594 10.641q0 6.4531-4.5156 10.078-4.5156 3.6406-12.562 3.6406h-8.5v8.1094h8.8906q7.2656 0 11.125 2.9062t3.8594 8.375q0 5.6094-3.9844 8.6094-3.9688 3.0156-11.391 3.0156-4.0625 0-8.7031-0.89062-4.6406-0.875-10.203-2.7188v8.7812q5.625 1.5625 10.531 2.3438t9.25 0.78125q11.234 0 17.766-5.1094 6.5469-5.0938 6.5469-13.781 0-6.0625-3.4688-10.234t-9.8594-5.7812z"/>
</defs>
<use xlink:href="#c"/>
<use x="63.623047" xlink:href="#d"/>
<use x="95.410156" xlink:href="#ae"/>
</g>
</g>
<g clip-path="url(#a)">
<g transform="translate(305.1 150.35) scale(.1 -.1)">
<defs>
<path id="x" d="m31.781 34.625q-7.0312 0-11.062-3.7656-4.0156-3.7656-4.0156-10.344 0-6.5938 4.0156-10.359 4.0312-3.7656 11.062-3.7656t11.078 3.7812q4.0625 3.7969 4.0625 10.344 0 6.5781-4.0312 10.344-4.0156 3.7656-11.109 3.7656zm-9.8594 4.1875q-6.3438 1.5625-9.8906 5.9062-3.5312 4.3594-3.5312 10.609 0 8.7344 6.2188 13.812 6.2344 5.0781 17.062 5.0781 10.891 0 17.094-5.0781t6.2031-13.812q0-6.25-3.5469-10.609-3.5312-4.3438-9.8281-5.9062 7.125-1.6562 11.094-6.5 3.9844-4.8281 3.9844-11.797 0-10.609-6.4688-16.281-6.4688-5.6562-18.531-5.6562-12.047 0-18.531 5.6562-6.4688 5.6719-6.4688 16.281 0 6.9688 4 11.797 4.0156 4.8438 11.141 6.5zm-3.6094 15.578q0-5.6562 3.5312-8.8281 3.5469-3.1719 9.9375-3.1719 6.3594 0 9.9375 3.1719 3.5938 3.1719 3.5938 8.8281 0 5.6719-3.5938 8.8438-3.5781 3.1719-9.9375 3.1719-6.3906 0-9.9375-3.1719-3.5312-3.1719-3.5312-8.8438z"/>
</defs>
<use xlink:href="#c"/>
<use x="63.623047" xlink:href="#d"/>
<use x="95.410156" xlink:href="#x"/>
</g>
</g>
<g clip-path="url(#a)">
<g transform="translate(356.2 239.1) scale(.1 -.1)">
<defs>
<path id="af" d="m31.781 66.406q-7.6094 0-11.453-7.5-3.8281-7.4844-3.8281-22.531 0-14.984 3.8281-22.484 3.8438-7.5 11.453-7.5 7.6719 0 11.5 7.5 3.8438 7.5 3.8438 22.484 0 15.047-3.8438 22.531-3.8281 7.5-11.5 7.5zm0 7.8125q12.266 0 18.734-9.7031 6.4688-9.6875 6.4688-28.141 0-18.406-6.4688-28.109-6.4688-9.6875-18.734-9.6875-12.25 0-18.719 9.6875-6.4688 9.7031-6.4688 28.109 0 18.453 6.4688 28.141 6.4688 9.7031 18.719 9.7031z"/>
</defs>
<use xlink:href="#c"/>
<use x="63.623047" xlink:href="#d"/>
<use x="95.410156" xlink:href="#c"/>
<use x="159.033203" xlink:href="#af"/>
</g>
</g>
<g clip-path="url(#a)">
<g transform="translate(67.33 105.7) scale(.1 -.1)">
<defs>
<path id="ad" d="m10.797 72.906h38.719v-8.3125h-29.688v-17.859q2.1406 0.73438 4.2812 1.0938 2.1562 0.35938 4.3125 0.35938 12.203 0 19.328-6.6875 7.1406-6.6875 7.1406-18.109 0-11.766-7.3281-18.297-7.3281-6.5156-20.656-6.5156-4.5938 0-9.3594 0.78125-4.75 0.78125-9.8281 2.3438v9.9219q4.3906-2.3906 9.0781-3.5625t9.9062-1.1719q8.4531 0 13.375 4.4375 4.9375 4.4375 4.9375 12.062 0 7.6094-4.9375 12.047-4.9219 4.4531-13.375 4.4531-3.9531 0-7.8906-0.875-3.9219-0.875-8.0156-2.7344z"/>
</defs>
<use xlink:href="#c"/>
<use x="63.623047" xlink:href="#d"/>
<use x="95.410156" xlink:href="#c"/>
<use x="159.033203" xlink:href="#ad"/>
</g>
</g>
<g clip-path="url(#a)">
<g transform="translate(14.201 239.1) scale(.1 -.1)">
<defs>
<path id="ac" d="m33.016 40.375q-6.6406 0-10.531-4.5469-3.875-4.5312-3.875-12.438 0-7.8594 3.875-12.438 3.8906-4.5625 10.531-4.5625t10.516 4.5625q3.875 4.5781 3.875 12.438 0 7.9062-3.875 12.438-3.875 4.5469-10.516 4.5469zm19.578 30.922v-8.9844q-3.7188 1.75-7.5 2.6719-3.7812 0.9375-7.5 0.9375-9.7656 0-14.922-6.5938-5.1406-6.5938-5.875-19.922 2.875 4.25 7.2188 6.5156 4.3594 2.2656 9.5781 2.2656 10.984 0 17.359-6.6719 6.375-6.6562 6.375-18.125 0-11.234-6.6406-18.031-6.6406-6.7812-17.672-6.7812-12.656 0-19.344 9.6875-6.6875 9.7031-6.6875 28.109 0 17.281 8.2031 27.562t22.016 10.281q3.7188 0 7.5-0.73438t7.8906-2.1875z"/>
</defs>
<use xlink:href="#c"/>
<use x="63.623047" xlink:href="#d"/>
<use x="95.410156" xlink:href="#c"/>
<use x="159.033203" xlink:href="#ac"/>
</g>
</g>
<g clip-path="url(#a)">
<g transform="translate(120.46 150.35) scale(.1 -.1)">
<defs>
<path id="ab" d="m8.2031 72.906h46.875v-4.2031l-26.469-68.703h-10.297l24.906 64.594h-35.016z"/>
</defs>
<use xlink:href="#c"/>
<use x="63.623047" xlink:href="#d"/>
<use x="95.410156" xlink:href="#c"/>
<use x="159.033203" xlink:href="#ab"/>
</g>
</g>
<g clip-path="url(#a)">
<g transform="translate(60.645 194.84) scale(.1 -.1)">
<use xlink:href="#c"/>
<use x="63.623047" xlink:href="#d"/>
<use x="95.410156" xlink:href="#c"/>
<use x="159.033203" xlink:href="#x"/>
</g>
</g>
<g clip-path="url(#a)">
<g transform="translate(128.2 239.1) scale(.1 -.1)">
<defs>
<path id="ao" d="m10.984 1.5156v8.9844q3.7188-1.7656 7.5156-2.6875 3.8125-0.92188 7.4844-0.92188 9.7656 0 14.906 6.5625 5.1562 6.5625 5.8906 19.953-2.8281-4.2031-7.1875-6.4531-4.3438-2.25-9.6094-2.25-10.938 0-17.312 6.6094-6.375 6.625-6.375 18.109 0 11.219 6.6406 18 6.6406 6.7969 17.672 6.7969 12.656 0 19.312-9.7031 6.6719-9.6875 6.6719-28.141 0-17.234-8.1875-27.516-8.1719-10.281-21.984-10.281-3.7188 0-7.5312 0.73438-3.7969 0.73438-7.9062 2.2031zm19.625 30.906q6.6406 0 10.516 4.5312 3.8906 4.5469 3.8906 12.469 0 7.8594-3.8906 12.422-3.875 4.5625-10.516 4.5625t-10.516-4.5625-3.875-12.422q0-7.9219 3.875-12.469 3.875-4.5312 10.516-4.5312z"/>
</defs>
<use xlink:href="#c"/>
<use x="63.623047" xlink:href="#d"/>
<use x="95.410156" xlink:href="#c"/>
<use x="159.033203" xlink:href="#ao"/>
</g>
</g>
<g clip-path="url(#a)">
<g transform="translate(172.53 194.84) scale(.1 -.1)">
<use xlink:href="#c"/>
<use x="63.623047" xlink:href="#d"/>
<use x="95.410156" xlink:href="#h"/>
<use x="159.033203" xlink:href="#af"/>
</g>
</g>
<g clip-path="url(#a)">
<g transform="translate(172.53 239.1) scale(.1 -.1)">
<use xlink:href="#c"/>
<use x="63.623047" xlink:href="#d"/>
<use x="95.410156" xlink:href="#h"/>
<use x="159.033203" xlink:href="#c"/>
</g>
</g>
<g clip-path="url(#a)">
<g transform="translate(33.201 239.1) scale(.1 -.1)">
<use xlink:href="#c"/>
<use x="63.623047" xlink:href="#d"/>
<use x="95.410156" xlink:href="#h"/>
<use x="159.033203" xlink:href="#h"/>
</g>
</g>
<g clip-path="url(#a)">
<g transform="translate(58.534 239.1) scale(.1 -.1)">
<use xlink:href="#c"/>
<use x="63.623047" xlink:href="#d"/>
<use x="95.410156" xlink:href="#h"/>
<use x="159.033203" xlink:href="#ae"/>
</g>
</g>
<g clip-path="url(#a)">
<g transform="translate(90.201 239.1) scale(.1 -.1)">
<defs>
<path id="ap" d="m37.797 64.312-24.906-38.922h24.906zm-2.5938 8.5938h12.406v-47.516h10.406v-8.2031h-10.406v-17.188h-9.8125v17.188h-32.906v9.5156z"/>
</defs>
<use xlink:href="#c"/>
<use x="63.623047" xlink:href="#d"/>
<use x="95.410156" xlink:href="#h"/>
<use x="159.033203" xlink:href="#ap"/>
</g>
</g>
<g clip-path="url(#a)">
<g transform="translate(235.87 239.1) scale(.1 -.1)">
<use xlink:href="#c"/>
<use x="63.623047" xlink:href="#d"/>
<use x="95.410156" xlink:href="#h"/>
<use x="159.033203" xlink:href="#ad"/>
</g>
</g>
<g clip-path="url(#a)">
<g transform="translate(292.87 239.1) scale(.1 -.1)">
<use xlink:href="#c"/>
<use x="63.623047" xlink:href="#d"/>
<use x="95.410156" xlink:href="#h"/>
<use x="159.033203" xlink:href="#ac"/>
</g>
</g>
<g clip-path="url(#a)">
<g transform="translate(425.87 239.1) scale(.1 -.1)">
<use xlink:href="#c"/>
<use x="63.623047" xlink:href="#d"/>
<use x="95.410156" xlink:href="#h"/>
<use x="159.033203" xlink:href="#ab"/>
</g>
</g>
<g clip-path="url(#a)">
<g transform="translate(501.87 239.1) scale(.1 -.1)">
<use xlink:href="#c"/>
<use x="63.623047" xlink:href="#d"/>
<use x="95.410156" xlink:href="#h"/>
<use x="159.033203" xlink:href="#x"/>
</g>
</g>
<defs>
<clipPath id="a">
<rect width="557.33" height="293.33"/>
</clipPath>
</defs>
</svg>
