<?xml version="1.0" encoding="UTF-8"?>
<!DOCTYPE svg  PUBLIC '-//W3C//DTD SVG 1.1//EN'  'http://www.w3.org/Graphics/SVG/1.1/DTD/svg11.dtd'>
<svg width="1418.7pt" height="746.67pt" version="1.1" viewBox="0 0 1418.7 746.67" xmlns="http://www.w3.org/2000/svg" xmlns:xlink="http://www.w3.org/1999/xlink">
<metadata>
<rdf:RDF xmlns:cc="http://creativecommons.org/ns#" xmlns:dc="http://purl.org/dc/elements/1.1/" xmlns:rdf="http://www.w3.org/1999/02/22-rdf-syntax-ns#">
<cc:Work>
<dc:type rdf:resource="http://purl.org/dc/dcmitype/StillImage"/>
<dc:date>2021-01-13T08:49:30.673633</dc:date>
<dc:format>image/svg+xml</dc:format>
<dc:creator>
<cc:Agent>
<dc:title>Matplotlib v3.3.3, https://matplotlib.org/</dc:title>
</cc:Agent>
</dc:creator>
</cc:Work>
</rdf:RDF>
</metadata>
<defs>
<style type="text/css">*{stroke-linecap:butt;stroke-linejoin:round;}</style>
</defs>
<path d="m0 746.67h1418.7v-746.67h-1418.7z" fill="#fff"/>
<g fill="none" stroke="#000">
<path d="m225.11 33.939v97.866" clip-path="url(#a)"/>
<path d="m225.11 131.81 339 97.702" clip-path="url(#a)"/>
<path d="m225.11 131.81-86.162 485.82" clip-path="url(#a)"/>
<path d="m225.11 131.81-42.229 195.21" clip-path="url(#a)"/>
<path d="m225.11 131.81-124.88 485.82" clip-path="url(#a)"/>
<path d="m225.11 131.81-107.01 485.82" clip-path="url(#a)"/>
<path d="m225.11 131.81-5.7417 485.82" clip-path="url(#a)"/>
<path d="m225.11 131.81 27.022 485.82" clip-path="url(#a)"/>
<path d="m564.11 229.51-489.7 291.69" clip-path="url(#a)"/>
<path d="m564.11 229.51-276.24 388.12" clip-path="url(#a)"/>
<path d="m564.11 229.51-153.38 97.506" clip-path="url(#a)"/>
<path d="m564.11 229.51 185.43 194.77" clip-path="url(#a)"/>
<path d="m564.11 229.51 387.97 388.12" clip-path="url(#a)"/>
<path d="m564.11 229.51 342.17 194.77" clip-path="url(#a)"/>
<path d="m564.11 229.51 3.7409 388.12" clip-path="url(#a)"/>
<path d="m138.95 617.63v95.101" clip-path="url(#a)"/>
<path d="m182.88 327.01-6.7017 97.26" clip-path="url(#a)"/>
<path d="m182.88 327.01 6.7017 194.19" clip-path="url(#a)"/>
<path d="m176.18 424.27 13.403 96.93" clip-path="url(#a)" stroke-dasharray="3.7,1.6"/>
<path d="m176.18 424.27-13.403 193.35" clip-path="url(#a)"/>
<path d="m189.58 521.2v96.424" clip-path="url(#a)"/>
<path d="m189.58 617.63v95.101" clip-path="url(#a)"/>
<path d="m162.78 617.63v95.101" clip-path="url(#a)"/>
<path d="m74.413 521.2-9.9284 96.424" clip-path="url(#a)"/>
<path d="m74.413 521.2-0.99284 96.424" clip-path="url(#a)"/>
<path d="m74.413 521.2 10.921 96.424" clip-path="url(#a)"/>
<path d="m287.87 617.63v95.101" clip-path="url(#a)"/>
<path d="m410.74 327.01 103.5 97.26" clip-path="url(#a)"/>
<path d="m410.74 327.01-63.293 194.19" clip-path="url(#a)"/>
<path d="m410.74 327.01 63.293 97.26" clip-path="url(#a)"/>
<path d="m749.54 424.27-125.1 193.35" clip-path="url(#a)"/>
<path d="m749.54 424.27-65.527 193.35" clip-path="url(#a)"/>
<path d="m749.54 424.27-2.9785 193.35" clip-path="url(#a)"/>
<path d="m749.54 424.27 62.549 193.35" clip-path="url(#a)"/>
<path d="m749.54 424.27 131.05 96.93" clip-path="url(#a)"/>
<path d="m952.08 617.63v95.101" clip-path="url(#a)"/>
<path d="m906.29 424.27 120.26 193.35" clip-path="url(#a)"/>
<path d="m906.29 424.27 321.31 96.93" clip-path="url(#a)"/>
<path d="m906.29 424.27-281.84 193.35" clip-path="url(#a)" stroke-dasharray="3.7,1.6"/>
<path d="m906.29 424.27-159.72 193.35" clip-path="url(#a)" stroke-dasharray="3.7,1.6"/>
<path d="m1026.5 617.63v95.101" clip-path="url(#a)"/>
<path d="m1227.6 521.2-123.61 96.424" clip-path="url(#a)"/>
<path d="m1227.6 521.2-43.188 96.424" clip-path="url(#a)"/>
<path d="m1227.6 521.2 40.21 96.424" clip-path="url(#a)"/>
<path d="m1227.6 521.2 126.59 96.424" clip-path="url(#a)"/>
<path d="m1104 617.63v95.101" clip-path="url(#a)"/>
<path d="m1184.4 617.63v95.101" clip-path="url(#a)"/>
<path d="m624.45 617.63v95.101" clip-path="url(#a)"/>
<path d="m684.02 617.63v95.101" clip-path="url(#a)"/>
<path d="m746.56 617.63v95.101" clip-path="url(#a)"/>
<path d="m812.09 617.63v95.101" clip-path="url(#a)"/>
<path d="m880.6 521.2v96.424" clip-path="url(#a)"/>
<path d="m880.6 617.63v95.101" clip-path="url(#a)"/>
<path d="m347.44 521.2-20.85 96.424" clip-path="url(#a)"/>
<path d="m347.44 521.2 20.85 96.424" clip-path="url(#a)"/>
<path d="m474.03 424.27-37.231 96.93" clip-path="url(#a)"/>
<path d="m474.03 424.27 37.231 193.35" clip-path="url(#a)"/>
<path d="m436.8 521.2-23.828 96.424" clip-path="url(#a)"/>
<path d="m436.8 521.2 23.828 96.424" clip-path="url(#a)"/>
<path d="m511.26 617.63v95.101" clip-path="url(#a)"/>
<path d="m412.97 617.63v95.101" clip-path="url(#a)"/>
<path d="m460.63 617.63v95.101" clip-path="url(#a)"/>
<path d="m326.59 617.63v95.101" clip-path="url(#a)"/>
<path d="m368.29 617.63v95.101" clip-path="url(#a)"/>
<path d="m64.485 617.63v95.101" clip-path="url(#a)"/>
<path d="m73.42 617.63v95.101" clip-path="url(#a)"/>
<path d="m85.334 617.63v95.101" clip-path="url(#a)"/>
<path d="m100.23 617.63v95.101" clip-path="url(#a)"/>
<path d="m118.1 617.63v95.101" clip-path="url(#a)"/>
<path d="m219.37 617.63v95.101" clip-path="url(#a)"/>
<path d="m252.13 617.63v95.101" clip-path="url(#a)"/>
<path d="m567.85 617.63v95.101" clip-path="url(#a)"/>
<path d="m1267.8 617.63v95.101" clip-path="url(#a)"/>
<path d="m1354.2 617.63v95.101" clip-path="url(#a)"/>
</g>
<path d="m218.84 79.864v6.0162q0 2.4 2.4 2.4h7.7425q2.4 0 2.4-2.4v-6.0162q0-2.4-2.4-2.4h-7.7425q-2.4 0-2.4 2.4z" clip-path="url(#a)" fill="#fff" stroke="#fff"/>
<g clip-path="url(#a)">
<g transform="translate(222.9 79.864) rotate(90) scale(.08 -.08)">
<defs>
<path id="y" d="m9.8125 72.906h9.8594v-29.891h35.844v29.891h9.8594v-72.906h-9.8594v34.719h-35.844v-34.719h-9.8594z"/>
</defs>
<use xlink:href="#y"/>
</g>
</g>
<path d="m390.25 185.92 5.2585 1.5155q2.3061 0.66464 2.9708-1.6415l2.1441-7.4397q0.66464-2.3061-1.6415-2.9708l-5.2585-1.5155q-2.3061-0.66464-2.9708 1.6415l-2.1441 7.4397q-0.66464 2.3061 1.6415 2.9708z" clip-path="url(#a)" fill="#fff" stroke="#fff"/>
<g clip-path="url(#a)">
<g transform="translate(391.37 182.02) rotate(16.077) scale(.08 -.08)">
<defs>
<path id="o" d="m34.188 63.188-13.391-36.281h26.812zm-5.5781 9.7188h11.188l27.781-72.906h-10.25l-6.6406 18.703h-32.859l-6.6406-18.703h-10.406z"/>
</defs>
<use xlink:href="#o"/>
</g>
</g>
<path d="m187.78 378.19 0.84236-4.7496q0.41911-2.3631-1.944-2.7822l-7.6235-1.3521q-2.3631-0.41911-2.7822 1.944l-0.84236 4.7496q-0.41911 2.3631 1.944 2.7822l7.6235 1.3521q2.3631 0.41911 2.7822-1.944z" clip-path="url(#a)" fill="#fff" stroke="#fff"/>
<g clip-path="url(#a)">
<g transform="translate(183.78 377.48) rotate(-79.943) scale(.08 -.08)">
<defs>
<path id="ad" d="m19.672 64.797v-27.391h12.406q6.8906 0 10.641 3.5625 3.7656 3.5625 3.7656 10.156 0 6.5469-3.7656 10.109-3.75 3.5625-10.641 3.5625zm-9.8594 8.1094h22.266q12.266 0 18.531-5.5469 6.2812-5.5469 6.2812-16.234 0-10.797-6.2812-16.312-6.2656-5.5156-18.531-5.5156h-12.406v-29.297h-9.8594z"/>
</defs>
<use xlink:href="#ad"/>
</g>
</g>
<path d="m209.55 233.41 1.1571-5.3488q0.50744-2.3457-1.8383-2.8532l-7.5675-1.637q-2.3457-0.50744-2.8532 1.8383l-1.1571 5.3488q-0.50744 2.3457 1.8383 2.8532l7.5675 1.637q2.3457 0.50744 2.8532-1.8383z" clip-path="url(#a)" fill="#fff" stroke="#fff"/>
<g clip-path="url(#a)">
<g transform="translate(205.57 232.55) rotate(-77.794) scale(.08 -.08)">
<use xlink:href="#o"/>
</g>
</g>
<path d="m168.01 379.11 1.4577-5.6706q0.5975-2.3244-1.7269-2.9219l-7.4987-1.9276q-2.3244-0.59751-2.9219 1.7269l-1.4577 5.6706q-0.59751 2.3244 1.7269 2.9219l7.4987 1.9276q2.3244 0.59751 2.9219-1.7269z" clip-path="url(#a)" fill="#fff" stroke="#fff"/>
<g clip-path="url(#a)">
<g transform="translate(164.08 378.1) rotate(-75.584) scale(.08 -.08)">
<defs>
<path id="t" d="m8.6875 72.906h9.9219v-44.297q0-11.719 4.2344-16.875 4.25-5.1406 13.781-5.1406 9.4688 0 13.719 5.1406 4.25 5.1562 4.25 16.875v44.297h9.9062v-45.516q0-14.25-7.0625-21.531-7.0469-7.2812-20.812-7.2812-13.828 0-20.891 7.2812-7.0469 7.2812-7.0469 21.531z"/>
</defs>
<use xlink:href="#t"/>
</g>
</g>
<path d="m177.1 378.92 1.2595-5.7179q0.51627-2.3438-1.8275-2.8601l-7.5612-1.6655q-2.3438-0.51627-2.8601 1.8275l-1.2595 5.7179q-0.51627 2.3438 1.8275 2.8601l7.5612 1.6655q2.3438 0.51627 2.8601-1.8275z" clip-path="url(#a)" fill="#fff" stroke="#fff"/>
<g clip-path="url(#a)">
<g transform="translate(173.13 378.05) rotate(-77.578) scale(.08 -.08)">
<use xlink:href="#t"/>
</g>
</g>
<path d="m228.47 377.72 0.069193-5.8546q0.028363-2.3998-2.3715-2.4282l-7.742-0.091499q-2.3998-0.028363-2.4282 2.3715l-0.069193 5.8546q-0.028363 2.3998 2.3715 2.4282l7.742 0.091499q2.3998 0.028363 2.4282-2.3715z" clip-path="url(#a)" fill="#fff" stroke="#fff"/>
<g clip-path="url(#a)">
<g transform="translate(224.41 377.67) rotate(-89.323) scale(.08 -.08)">
<use xlink:href="#t"/>
</g>
</g>
<path d="m232.2 372.14 0.32516 5.846q0.13328 2.3963 2.5296 2.263l7.7306-0.42998q2.3963-0.13328 2.263-2.5296l-0.32516-5.846q-0.13328-2.3963-2.5296-2.263l-7.7306 0.42998q-2.3963 0.13328-2.263 2.5296z" clip-path="url(#a)" fill="#fff" stroke="#fff"/>
<g clip-path="url(#a)">
<g transform="translate(236.25 371.92) rotate(86.816) scale(.08 -.08)">
<use xlink:href="#t"/>
</g>
</g>
<path d="m319.89 382.28 5.1688-3.0788q2.0619-1.2282 0.83372-3.2901l-3.9622-6.6518q-1.2282-2.0619-3.2901-0.83372l-5.1688 3.0788q-2.0619 1.2282-0.83372 3.2901l3.9622 6.6518q1.2282 2.0619 3.2901 0.83372z" clip-path="url(#a)" fill="#fff" stroke="#fff"/>
<g clip-path="url(#a)">
<g transform="translate(317.81 378.79) rotate(-30.781) scale(.08 -.08)">
<use xlink:href="#y"/>
</g>
</g>
<path d="m429.81 429.02 2.5847-3.6316q1.3917-1.9553-0.56364-3.347l-6.3079-4.4896q-1.9553-1.3917-3.347 0.56364l-2.5847 3.6316q-1.3917 1.9553 0.56364 3.347l6.3079 4.4896q1.9553 1.3917 3.347-0.56364z" clip-path="url(#a)" fill="#fff" stroke="#fff"/>
<g clip-path="url(#a)">
<g transform="translate(426.5 426.66) rotate(-54.559) scale(.08 -.08)">
<defs>
<path id="ai" d="m9.8125 72.906h9.8594v-64.609h35.5v-8.2969h-45.359z"/>
</defs>
<use xlink:href="#ai"/>
</g>
</g>
<path d="m488.25 285.17 5.0771-3.2277q2.0254-1.2876 0.73778-3.313l-4.1538-6.5339q-1.2876-2.0254-3.313-0.73778l-5.0771 3.2277q-2.0254 1.2876-0.73778 3.313l4.1538 6.5339q1.2876 2.0254 3.313 0.73778z" clip-path="url(#a)" fill="#fff" stroke="#fff"/>
<g clip-path="url(#a)">
<g transform="translate(486.07 281.74) rotate(-32.445) scale(.08 -.08)">
<use xlink:href="#y"/>
</g>
</g>
<path d="m650.21 329.04 4.1484 4.3573q1.6549 1.7382 3.3931 0.083311l5.6075-5.3387q1.7382-1.6549 0.083311-3.3931l-4.1484-4.3573q-1.6549-1.7382-3.3931-0.08331l-5.6075 5.3387q-1.7382 1.6549-0.08331 3.3931z" clip-path="url(#a)" fill="#fff" stroke="#fff"/>
<g clip-path="url(#a)">
<g transform="translate(653.16 326.23) rotate(46.406) scale(.08 -.08)">
<use xlink:href="#y"/>
</g>
</g>
<path d="m752.09 426.42 3.1513 3.1525q1.6967 1.6974 3.3941 6.54e-4l5.4758-5.4737q1.6974-1.6967 6.54e-4 -3.3941l-3.1513-3.1525q-1.6967-1.6974-3.3941-6.54e-4l-5.4758 5.4737q-1.6974 1.6967-6.54e-4 3.3941z" clip-path="url(#a)" fill="#fff" stroke="#fff"/>
<g clip-path="url(#a)">
<g transform="translate(754.96 423.55) rotate(45.011) scale(.08 -.08)">
<use xlink:href="#ai"/>
</g>
</g>
<path d="m729.48 330.85 5.2286 2.9761q2.0858 1.1872 3.273-0.89856l3.83-6.7288q1.1872-2.0858-0.89856-3.273l-5.2286-2.9761q-2.0858-1.1872-3.273 0.89856l-3.83 6.7288q-1.1872 2.0858 0.89856 3.273z" clip-path="url(#a)" fill="#fff" stroke="#fff"/>
<g clip-path="url(#a)">
<g transform="translate(731.49 327.32) rotate(29.648) scale(.08 -.08)">
<use xlink:href="#y"/>
</g>
</g>
<path d="m559.68 420.7 0.056431 5.8547q0.023131 2.3999 2.423 2.3768l7.7421-0.074622q2.3999-0.023131 2.3768-2.423l-0.05643-5.8547q-0.023132-2.3999-2.423-2.3768l-7.7421 0.074622q-2.3999 0.023132-2.3768 2.423z" clip-path="url(#a)" fill="#fff" stroke="#fff"/>
<g clip-path="url(#a)">
<g transform="translate(563.75 420.66) rotate(89.448) scale(.08 -.08)">
<use xlink:href="#t"/>
</g>
</g>
<path d="m132.68 648.27v33.808q0 2.4 2.4 2.4h7.7425q2.4 0 2.4-2.4v-33.808q0-2.4-2.4-2.4h-7.7425q-2.4 0-2.4 2.4z" clip-path="url(#a)" fill="#fff" stroke="#fff"/>
<g clip-path="url(#a)">
<g transform="translate(136.74 648.27) rotate(90) scale(.08 -.08)">
<defs>
<path id="e" d="m-0.29688 72.906h61.672v-8.3125h-25.875v-64.594h-9.9062v64.594h-25.891z"/>
<path id="l" d="m56.203 29.594v-4.3906h-41.312q0.59375-9.2812 5.5938-14.141t13.938-4.8594q5.1719 0 10.031 1.2656t9.6562 3.8125v-8.5q-4.8438-2.0469-9.9219-3.125t-10.297-1.0781q-13.094 0-20.734 7.6094-7.6406 7.625-7.6406 20.625 0 13.422 7.25 21.297 7.25 7.8906 19.562 7.8906 11.031 0 17.453-7.1094 6.4219-7.0938 6.4219-19.297zm-8.9844 2.6406q-0.09375 7.3594-4.125 11.75-4.0312 4.4062-10.672 4.4062-7.5156 0-12.031-4.25t-5.2031-11.969z"/>
<path id="g" d="m41.109 46.297q-1.5156 0.875-3.2969 1.2812-1.7812 0.42188-3.9219 0.42188-7.625 0-11.703-4.9531t-4.0781-14.234v-28.812h-9.0312v54.688h9.0312v-8.5q2.8438 4.9844 7.375 7.3906 4.5469 2.4219 11.047 2.4219 0.92188 0 2.0469-0.125 1.125-0.10938 2.4844-0.35938z"/>
<path id="i" d="m52 44.188q3.375 6.0625 8.0625 8.9375t11.031 2.875q8.5469 0 13.188-5.9844 4.6406-5.9688 4.6406-17v-33.016h-9.0312v32.719q0 7.8594-2.7969 11.656-2.7812 3.8125-8.4844 3.8125-6.9844 0-11.047-4.6406-4.0469-4.625-4.0469-12.641v-30.906h-9.0312v32.719q0 7.9062-2.7812 11.688t-8.5938 3.7812q-6.8906 0-10.953-4.6562-4.0469-4.6562-4.0469-12.625v-30.906h-9.0312v54.688h9.0312v-8.5q3.0781 5.0312 7.375 7.4219t10.203 2.3906q5.9688 0 10.141-3.0312 4.1719-3.0156 6.1719-8.7812z"/>
<path id="k" d="m9.4219 54.688h8.9844v-54.688h-8.9844zm0 21.297h8.9844v-11.391h-8.9844z"/>
<path id="h" d="m54.891 33.016v-33.016h-8.9844v32.719q0 7.7656-3.0312 11.609-3.0312 3.8594-9.0781 3.8594-7.2812 0-11.484-4.6406-4.2031-4.625-4.2031-12.641v-30.906h-9.0312v54.688h9.0312v-8.5q3.2344 4.9375 7.5938 7.375 4.375 2.4375 10.094 2.4375 9.4219 0 14.25-5.8281 4.8438-5.8281 4.8438-17.156z"/>
<path id="f" d="m34.281 27.484q-10.891 0-15.094-2.4844t-4.2031-8.5q0-4.7812 3.1562-7.5938 3.1562-2.7969 8.5625-2.7969 7.4844 0 12 5.2969t4.5156 14.078v2zm17.922 3.7188v-31.203h-8.9844v8.2969q-3.0781-4.9688-7.6719-7.3438t-11.234-2.375q-8.3906 0-13.359 4.7188-4.9531 4.7188-4.9531 12.625 0 9.2188 6.1719 13.906 6.1875 4.6875 18.438 4.6875h12.609v0.89062q0 6.2031-4.0781 9.5938t-11.453 3.3906q-4.6875 0-9.1406-1.125-4.4375-1.125-8.5312-3.375v8.3125q4.9219 1.9062 9.5625 2.8438 4.6406 0.95312 9.0312 0.95312 11.875 0 17.734-6.1562 5.8594-6.1406 5.8594-18.641z"/>
<path id="j" d="m9.4219 75.984h8.9844v-75.984h-8.9844z"/>
</defs>
<use xlink:href="#e"/>
<use x="44.083984" xlink:href="#l"/>
<use x="105.607422" xlink:href="#g"/>
<use x="144.970703" xlink:href="#i"/>
<use x="242.382812" xlink:href="#k"/>
<use x="270.166016" xlink:href="#h"/>
<use x="333.544922" xlink:href="#f"/>
<use x="394.824219" xlink:href="#j"/>
</g>
</g>
<path d="m185.61 378.6 0.34749-5.043q0.16498-2.3943-2.2293-2.5593l-7.7242-0.53223q-2.3943-0.16498-2.5593 2.2293l-0.34749 5.043q-0.16498 2.3943 2.2293 2.5593l7.7242 0.53223q2.3943 0.16498 2.5593-2.2293z" clip-path="url(#a)" fill="#fff" stroke="#fff"/>
<g clip-path="url(#a)">
<g transform="translate(181.56 378.32) rotate(-86.058) scale(.08 -.08)">
<defs>
<path id="ak" d="m9.8125 72.906h46.094v-8.3125h-36.234v-21.578h34.719v-8.2969h-34.719v-26.422h37.109v-8.2969h-46.969z"/>
</defs>
<use xlink:href="#ak"/>
</g>
</g>
<path d="m179.87 421.53 0.19267 5.5829q0.082777 2.3986 2.4813 2.3158l7.7379-0.26704q2.3986-0.082777 2.3158-2.4813l-0.19267-5.5829q-0.082777-2.3986-2.4813-2.3158l-7.7379 0.26704q-2.3986 0.082777-2.3158 2.4813z" clip-path="url(#a)" fill="#fff" stroke="#fff"/>
<g clip-path="url(#a)">
<g transform="translate(183.93 421.39) rotate(88.023) scale(.08 -.08)">
<defs>
<path id="w" d="m64.406 67.281v-10.391q-4.9844 4.6406-10.625 6.9219-5.6406 2.2969-11.984 2.2969-12.5 0-19.141-7.6406t-6.6406-22.094q0-14.406 6.6406-22.047t19.141-7.6406q6.3438 0 11.984 2.2969t10.625 6.9375v-10.312q-5.1719-3.5156-10.969-5.2812-5.7812-1.75-12.219-1.75-16.562 0-26.094 10.125-9.5156 10.141-9.5156 27.672 0 17.578 9.5156 27.703 9.5312 10.141 26.094 10.141 6.5312 0 12.312-1.7344 5.7969-1.7344 10.875-5.2031z"/>
</defs>
<use xlink:href="#w"/>
</g>
</g>
<path d="m176.29 470.89 0.7496 5.4209q0.32874 2.3774 2.7061 2.0486l7.6695-1.0605q2.3774-0.32874 2.0486-2.7061l-0.7496-5.4209q-0.32874-2.3774-2.7061-2.0486l-7.6695 1.0605q-2.3774 0.32874-2.0486 2.7061z" clip-path="url(#a)" fill="#fff" stroke="#fff"/>
<g clip-path="url(#a)">
<g transform="translate(180.32 470.33) rotate(82.127) scale(.08 -.08)">
<use xlink:href="#o"/>
</g>
</g>
<path d="m175.56 523.92 0.35122-5.0666q0.16597-2.3943-2.2283-2.5602l-7.724-0.53543q-2.3943-0.16597-2.5602 2.2283l-0.35122 5.0666q-0.16597 2.3943 2.2283 2.5602l7.724 0.53543q2.3943 0.16597 2.5602-2.2283z" clip-path="url(#a)" fill="#fff" stroke="#fff"/>
<g clip-path="url(#a)">
<g transform="translate(171.5 523.64) rotate(-86.035) scale(.08 -.08)">
<defs>
<path id="x" d="m53.516 70.516v-9.625q-5.6094 2.6875-10.594 4-4.9844 1.3281-9.625 1.3281-8.0469 0-12.422-3.125t-4.375-8.8906q0-4.8438 2.9062-7.3125 2.9062-2.4531 11.016-3.9688l5.9531-1.2188q11.031-2.1094 16.281-7.4062t5.25-14.172q0-10.609-7.1094-16.078-7.0938-5.4688-20.812-5.4688-5.1719 0-11.016 1.1719-5.8281 1.1719-12.078 3.4688v10.156q6-3.3594 11.766-5.0781 5.7656-1.7031 11.328-1.7031 8.4375 0 13.031 3.3125 4.5938 3.3281 4.5938 9.4844 0 5.3594-3.2969 8.3906t-10.812 4.5469l-6.0156 1.1719q-11.031 2.1875-15.969 6.875-4.9219 4.6875-4.9219 13.047 0 9.6719 6.8125 15.234t18.766 5.5625q5.1406 0 10.453-0.9375 5.3281-0.92188 10.891-2.7656z"/>
</defs>
<use xlink:href="#x"/>
</g>
</g>
<path d="m183.18 562.79v13.246q0 2.4 2.4 2.4h8q2.4 0 2.4-2.4v-13.246q0-2.4-2.4-2.4h-8q-2.4 0-2.4 2.4z" clip-path="url(#a)" fill="#fff" stroke="#fff"/>
<g clip-path="url(#a)">
<g transform="translate(187.47 562.79) rotate(90) scale(.08 -.08)">
<defs>
<path id="av" d="m21 76.422v-100h-8.2969v100z"/>
</defs>
<use xlink:href="#o"/>
<use x="68.408203" xlink:href="#av"/>
<use x="102.099609" xlink:href="#x"/>
</g>
</g>
<path d="m183.31 648.27v33.808q0 2.4 2.4 2.4h7.7425q2.4 0 2.4-2.4v-33.808q0-2.4-2.4-2.4h-7.7425q-2.4 0-2.4 2.4z" clip-path="url(#a)" fill="#fff" stroke="#fff"/>
<g clip-path="url(#a)">
<g transform="translate(187.37 648.27) rotate(90) scale(.08 -.08)">
<use xlink:href="#e"/>
<use x="44.083984" xlink:href="#l"/>
<use x="105.607422" xlink:href="#g"/>
<use x="144.970703" xlink:href="#i"/>
<use x="242.382812" xlink:href="#k"/>
<use x="270.166016" xlink:href="#h"/>
<use x="333.544922" xlink:href="#f"/>
<use x="394.824219" xlink:href="#j"/>
</g>
</g>
<path d="m156.5 648.27v33.808q0 2.4 2.4 2.4h7.7425q2.4 0 2.4-2.4v-33.808q0-2.4-2.4-2.4h-7.7425q-2.4 0-2.4 2.4z" clip-path="url(#a)" fill="#fff" stroke="#fff"/>
<g clip-path="url(#a)">
<g transform="translate(160.57 648.27) rotate(90) scale(.08 -.08)">
<use xlink:href="#e"/>
<use x="44.083984" xlink:href="#l"/>
<use x="105.607422" xlink:href="#g"/>
<use x="144.970703" xlink:href="#i"/>
<use x="242.382812" xlink:href="#k"/>
<use x="270.166016" xlink:href="#h"/>
<use x="333.544922" xlink:href="#f"/>
<use x="394.824219" xlink:href="#j"/>
</g>
</g>
<path d="m75.407 572.78 0.56052-5.4437q0.24582-2.3874-2.1416-2.6332l-7.7018-0.79302q-2.3874-0.24582-2.6332 2.1416l-0.56052 5.4437q-0.24582 2.3874 2.1416 2.6332l7.7018 0.79302q2.3874 0.24582 2.6332-2.1416z" clip-path="url(#a)" fill="#fff" stroke="#fff"/>
<g clip-path="url(#a)">
<g transform="translate(71.365 572.36) rotate(-84.121) scale(.08 -.08)">
<use xlink:href="#o"/>
</g>
</g>
<path d="m80.164 571.78 0.047374-4.601q0.024711-2.3999-2.3752-2.4246l-7.7421-0.079717q-2.3999-0.024711-2.4246 2.3752l-0.047374 4.601q-0.024711 2.3999 2.3752 2.4246l7.7421 0.079717q2.3999 0.02471 2.4246-2.3752z" clip-path="url(#a)" fill="#fff" stroke="#fff"/>
<g clip-path="url(#a)">
<g transform="translate(76.101 571.74) rotate(-89.41) scale(.08 -.08)">
<defs>
<path id="be" d="m9.8125 72.906h41.891v-8.3125h-32.031v-21.484h28.906v-8.2969h-28.906v-34.812h-9.8594z"/>
</defs>
<use xlink:href="#be"/>
</g>
</g>
<path d="m73.357 567.6 0.57158 5.0465q0.2701 2.3848 2.6549 2.1146l7.6933-0.87136q2.3848-0.2701 2.1146-2.6549l-0.57158-5.0465q-0.2701-2.3848-2.6549-2.1146l-7.6933 0.87136q-2.3848 0.2701-2.1146 2.6549z" clip-path="url(#a)" fill="#fff" stroke="#fff"/>
<g clip-path="url(#a)">
<g transform="translate(77.395 567.14) rotate(83.538) scale(.08 -.08)">
<use xlink:href="#x"/>
</g>
</g>
<path d="m281.6 648.27v33.808q0 2.4 2.4 2.4h7.7425q2.4 0 2.4-2.4v-33.808q0-2.4-2.4-2.4h-7.7425q-2.4 0-2.4 2.4z" clip-path="url(#a)" fill="#fff" stroke="#fff"/>
<g clip-path="url(#a)">
<g transform="translate(285.67 648.27) rotate(90) scale(.08 -.08)">
<use xlink:href="#e"/>
<use x="44.083984" xlink:href="#l"/>
<use x="105.607422" xlink:href="#g"/>
<use x="144.970703" xlink:href="#i"/>
<use x="242.382812" xlink:href="#k"/>
<use x="270.166016" xlink:href="#h"/>
<use x="333.544922" xlink:href="#f"/>
<use x="394.824219" xlink:href="#j"/>
</g>
</g>
<path d="m456.34 378.47 3.7011 3.4778q1.749 1.6435 3.3925-0.10551l5.3019-5.6423q1.6435-1.749-0.10551-3.3925l-3.7011-3.4778q-1.749-1.6435-3.3925 0.10551l-5.3019 5.6423q-1.6435 1.749 0.10551 3.3925z" clip-path="url(#a)" fill="#fff" stroke="#fff"/>
<g clip-path="url(#a)">
<g transform="translate(459.13 375.51) rotate(43.219) scale(.08 -.08)">
<use xlink:href="#x"/>
</g>
</g>
<path d="m384.21 428.65 1.6959-5.2031q0.74374-2.2819-1.5381-3.0256l-7.3614-2.3993q-2.2819-0.74374-3.0256 1.5381l-1.6959 5.2031q-0.74374 2.2819 1.5381 3.0256l7.3614 2.3993q2.2819 0.74374 3.0256-1.5381z" clip-path="url(#a)" fill="#fff" stroke="#fff"/>
<g clip-path="url(#a)">
<g transform="translate(380.34 427.39) rotate(-71.947) scale(.08 -.08)">
<use xlink:href="#o"/>
</g>
</g>
<path d="m435.64 376.77 2.9849 4.5868q1.3091 2.0116 3.3206 0.7025l6.4894-4.2231q2.0116-1.3091 0.7025-3.3206l-2.9849-4.5868q-1.3091-2.0116-3.3206-0.7025l-6.4894 4.2231q-2.0116 1.3091-0.7025 3.3206z" clip-path="url(#a)" fill="#fff" stroke="#fff"/>
<g clip-path="url(#a)">
<g transform="translate(439.04 374.55) rotate(56.945) scale(.08 -.08)">
<use xlink:href="#o"/>
</g>
</g>
<path d="m690.77 526.65 2.9727-4.5947q1.3037-2.015-0.71133-3.3187l-6.5006-4.2058q-2.015-1.3037-3.3187 0.71133l-2.9727 4.5947q-1.3037 2.015 0.71133 3.3187l6.5006 4.2058q2.015 1.3037 3.3187-0.71133z" clip-path="url(#a)" fill="#fff" stroke="#fff"/>
<g clip-path="url(#a)">
<g transform="translate(687.36 524.45) rotate(-57.098) scale(.08 -.08)">
<use xlink:href="#o"/>
</g>
</g>
<path d="m721.73 525.88 1.9772-5.8341q0.77032-2.273-1.5027-3.0433l-7.3328-2.4851q-2.273-0.77032-3.0433 1.5027l-1.9772 5.8341q-0.77032 2.273 1.5027 3.0433l7.3328 2.4851q2.273 0.77032 3.0433-1.5027z" clip-path="url(#a)" fill="#fff" stroke="#fff"/>
<g clip-path="url(#a)">
<g transform="translate(717.88 524.58) rotate(-71.279) scale(.08 -.08)">
<defs>
<path id="al" d="m19.672 64.797v-56.688h11.922q15.094 0 22.094 6.8281 7 6.8438 7 21.594 0 14.641-7 21.453t-22.094 6.8125zm-9.8594 8.1094h20.266q21.188 0 31.094-8.8125 9.9219-8.8125 9.9219-27.562 0-18.859-9.9688-27.703-9.9531-8.8281-31.047-8.8281h-20.266z"/>
</defs>
<use xlink:href="#al"/>
</g>
</g>
<path d="m754.28 524.13 0.094881-6.1593q0.036966-2.3997-2.3627-2.4367l-7.7416-0.11926q-2.3997-0.036966-2.4367 2.3627l-0.094881 6.1593q-0.036966 2.3997 2.3627 2.4367l7.7416 0.11926q2.3997 0.036967 2.4367-2.3627z" clip-path="url(#a)" fill="#fff" stroke="#fff"/>
<g clip-path="url(#a)">
<g transform="translate(750.21 524.06) rotate(-89.117) scale(.08 -.08)">
<use xlink:href="#al"/>
</g>
</g>
<path d="m774.11 520.58 1.4847 4.5896q0.7387 2.2835 3.0222 1.5448l7.3666-2.3831q2.2835-0.7387 1.5448-3.0222l-1.4847-4.5896q-0.7387-2.2835-3.0222-1.5448l-7.3666 2.3831q-2.2835 0.7387-1.5448 3.0222z" clip-path="url(#a)" fill="#fff" stroke="#fff"/>
<g clip-path="url(#a)">
<g transform="translate(777.98 519.33) rotate(72.074) scale(.08 -.08)">
<use xlink:href="#ad"/>
</g>
</g>
<path d="m809.14 476.15 4.3998 3.2542q1.9296 1.4271 3.3567-0.50244l4.604-6.2249q1.4271-1.9296-0.50244-3.3567l-4.3998-3.2542q-1.9296-1.4271-3.3567 0.50244l-4.604 6.2249q-1.4271 1.9296 0.50244 3.3567z" clip-path="url(#a)" fill="#fff" stroke="#fff"/>
<g clip-path="url(#a)">
<g transform="translate(811.56 472.89) rotate(36.487) scale(.08 -.08)">
<use xlink:href="#o"/>
</g>
</g>
<path d="m945.81 648.27v33.808q0 2.4 2.4 2.4h7.7425q2.4 0 2.4-2.4v-33.808q0-2.4-2.4-2.4h-7.7425q-2.4 0-2.4 2.4z" clip-path="url(#a)" fill="#fff" stroke="#fff"/>
<g clip-path="url(#a)">
<g transform="translate(949.87 648.27) rotate(90) scale(.08 -.08)">
<use xlink:href="#e"/>
<use x="44.083984" xlink:href="#l"/>
<use x="105.607422" xlink:href="#g"/>
<use x="144.970703" xlink:href="#i"/>
<use x="242.382812" xlink:href="#k"/>
<use x="270.166016" xlink:href="#h"/>
<use x="333.544922" xlink:href="#f"/>
<use x="394.824219" xlink:href="#j"/>
</g>
</g>
<path d="m959.82 522.21 2.5476 4.0961q1.2675 2.038 3.3055 0.77044l6.5746-4.0891q2.038-1.2675 0.77044-3.3055l-2.5476-4.0961q-1.2675-2.038-3.3055-0.77044l-6.5746 4.0891q-2.038 1.2675-0.77044 3.3055z" clip-path="url(#a)" fill="#fff" stroke="#fff"/>
<g clip-path="url(#a)">
<g transform="translate(963.27 520.07) rotate(58.12) scale(.08 -.08)">
<use xlink:href="#ad"/>
</g>
</g>
<path d="m1062.5 477.95 5.2393 1.5806q2.2977 0.69316 2.9909-1.6046l2.2362-7.4125q0.69316-2.2977-1.6046-2.9909l-5.2393-1.5806q-2.2977-0.69316-2.9909 1.6046l-2.2362 7.4125q-0.69316 2.2977 1.6046 2.9909z" clip-path="url(#a)" fill="#fff" stroke="#fff"/>
<g clip-path="url(#a)">
<g transform="translate(1063.7 474.06) rotate(16.787) scale(.08 -.08)">
<use xlink:href="#o"/>
</g>
</g>
<path d="m766.66 527.67 4.5127-3.0958q1.9791-1.3577 0.62135-3.3368l-4.38-6.3845q-1.3577-1.9791-3.3368-0.62135l-4.5127 3.0958q-1.9791 1.3577-0.62135 3.3368l4.38 6.3845q1.3577 1.9791 3.3368 0.62135z" clip-path="url(#a)" fill="#fff" stroke="#fff"/>
<g clip-path="url(#a)">
<g transform="translate(764.36 524.32) rotate(-34.452) scale(.08 -.08)">
<use xlink:href="#o"/>
</g>
</g>
<path d="m829.3 527.32 3.9231-4.7492q1.5285-1.8503-0.32184-3.3788l-5.9692-4.931q-1.8503-1.5285-3.3788 0.32184l-3.9231 4.7492q-1.5285 1.8503 0.32184 3.3788l5.9692 4.931q1.8503 1.5285 3.3788-0.32184z" clip-path="url(#a)" fill="#fff" stroke="#fff"/>
<g clip-path="url(#a)">
<g transform="translate(826.17 524.73) rotate(-50.441) scale(.08 -.08)">
<use xlink:href="#al"/>
</g>
</g>
<path d="m1020.3 648.27v33.808q0 2.4 2.4 2.4h7.7425q2.4 0 2.4-2.4v-33.808q0-2.4-2.4-2.4h-7.7425q-2.4 0-2.4 2.4z" clip-path="url(#a)" fill="#fff" stroke="#fff"/>
<g clip-path="url(#a)">
<g transform="translate(1024.3 648.27) rotate(90) scale(.08 -.08)">
<use xlink:href="#e"/>
<use x="44.083984" xlink:href="#l"/>
<use x="105.607422" xlink:href="#g"/>
<use x="144.970703" xlink:href="#i"/>
<use x="242.382812" xlink:href="#k"/>
<use x="270.166016" xlink:href="#h"/>
<use x="333.544922" xlink:href="#f"/>
<use x="394.824219" xlink:href="#j"/>
</g>
</g>
<path d="m1167.7 575.91 3.9857-3.1092q1.8923-1.4762 0.41617-3.3685l-4.7622-6.1048q-1.4762-1.8923-3.3685-0.41617l-3.9857 3.1092q-1.8923 1.4762-0.41617 3.3685l4.7622 6.1048q1.4762 1.8923 3.3685 0.41617z" clip-path="url(#a)" fill="#fff" stroke="#fff"/>
<g clip-path="url(#a)">
<g transform="translate(1165.2 572.71) rotate(-37.957) scale(.08 -.08)">
<use xlink:href="#ak"/>
</g>
</g>
<path d="m1210.6 574.53 2.2835-5.0982q0.98105-2.1903-1.2093-3.1714l-7.0661-3.1649q-2.1903-0.98105-3.1714 1.2093l-2.2835 5.0982q-0.98105 2.1903 1.2093 3.1714l7.0661 3.1649q2.1903 0.98105 3.1714-1.2093z" clip-path="url(#a)" fill="#fff" stroke="#fff"/>
<g clip-path="url(#a)">
<g transform="translate(1206.9 572.87) rotate(-65.872) scale(.08 -.08)">
<use xlink:href="#w"/>
</g>
</g>
<path d="m1240.8 569.13 2.2535 5.404q0.92373 2.2151 3.1388 1.2914l7.146-2.98q2.2151-0.92373 1.2914-3.1388l-2.2535-5.404q-0.92373-2.2151-3.1388-1.2914l-7.146 2.98q-2.2151 0.92373-1.2914 3.1388z" clip-path="url(#a)" fill="#fff" stroke="#fff"/>
<g clip-path="url(#a)">
<g transform="translate(1244.5 567.56) rotate(67.363) scale(.08 -.08)">
<use xlink:href="#t"/>
</g>
</g>
<path d="m1284.8 572.63 4.6577 3.5478q1.9092 1.4543 3.3635-0.45492l4.6916-6.1592q1.4543-1.9092-0.45492-3.3635l-4.6577-3.5478q-1.9092-1.4543-3.3635 0.45492l-4.6916 6.1592q-1.4543 1.9092 0.45492 3.3635z" clip-path="url(#a)" fill="#fff" stroke="#fff"/>
<g clip-path="url(#a)">
<g transform="translate(1287.2 569.4) rotate(37.297) scale(.08 -.08)">
<use xlink:href="#t"/>
</g>
</g>
<path d="m1097.7 648.27v33.808q0 2.4 2.4 2.4h7.7425q2.4 0 2.4-2.4v-33.808q0-2.4-2.4-2.4h-7.7425q-2.4 0-2.4 2.4z" clip-path="url(#a)" fill="#fff" stroke="#fff"/>
<g clip-path="url(#a)">
<g transform="translate(1101.8 648.27) rotate(90) scale(.08 -.08)">
<use xlink:href="#e"/>
<use x="44.083984" xlink:href="#l"/>
<use x="105.607422" xlink:href="#g"/>
<use x="144.970703" xlink:href="#i"/>
<use x="242.382812" xlink:href="#k"/>
<use x="270.166016" xlink:href="#h"/>
<use x="333.544922" xlink:href="#f"/>
<use x="394.824219" xlink:href="#j"/>
</g>
</g>
<path d="m1178.1 648.27v33.808q0 2.4 2.4 2.4h7.7425q2.4 0 2.4-2.4v-33.808q0-2.4-2.4-2.4h-7.7425q-2.4 0-2.4 2.4z" clip-path="url(#a)" fill="#fff" stroke="#fff"/>
<g clip-path="url(#a)">
<g transform="translate(1182.2 648.27) rotate(90) scale(.08 -.08)">
<use xlink:href="#e"/>
<use x="44.083984" xlink:href="#l"/>
<use x="105.607422" xlink:href="#g"/>
<use x="144.970703" xlink:href="#i"/>
<use x="242.382812" xlink:href="#k"/>
<use x="270.166016" xlink:href="#h"/>
<use x="333.544922" xlink:href="#f"/>
<use x="394.824219" xlink:href="#j"/>
</g>
</g>
<path d="m618.17 648.27v33.808q0 2.4 2.4 2.4h7.7425q2.4 0 2.4-2.4v-33.808q0-2.4-2.4-2.4h-7.7425q-2.4 0-2.4 2.4z" clip-path="url(#a)" fill="#fff" stroke="#fff"/>
<g clip-path="url(#a)">
<g transform="translate(622.24 648.27) rotate(90) scale(.08 -.08)">
<use xlink:href="#e"/>
<use x="44.083984" xlink:href="#l"/>
<use x="105.607422" xlink:href="#g"/>
<use x="144.970703" xlink:href="#i"/>
<use x="242.382812" xlink:href="#k"/>
<use x="270.166016" xlink:href="#h"/>
<use x="333.544922" xlink:href="#f"/>
<use x="394.824219" xlink:href="#j"/>
</g>
</g>
<path d="m677.74 648.27v33.808q0 2.4 2.4 2.4h7.7425q2.4 0 2.4-2.4v-33.808q0-2.4-2.4-2.4h-7.7425q-2.4 0-2.4 2.4z" clip-path="url(#a)" fill="#fff" stroke="#fff"/>
<g clip-path="url(#a)">
<g transform="translate(681.81 648.27) rotate(90) scale(.08 -.08)">
<use xlink:href="#e"/>
<use x="44.083984" xlink:href="#l"/>
<use x="105.607422" xlink:href="#g"/>
<use x="144.970703" xlink:href="#i"/>
<use x="242.382812" xlink:href="#k"/>
<use x="270.166016" xlink:href="#h"/>
<use x="333.544922" xlink:href="#f"/>
<use x="394.824219" xlink:href="#j"/>
</g>
</g>
<path d="m740.29 648.27v33.808q0 2.4 2.4 2.4h7.7425q2.4 0 2.4-2.4v-33.808q0-2.4-2.4-2.4h-7.7425q-2.4 0-2.4 2.4z" clip-path="url(#a)" fill="#fff" stroke="#fff"/>
<g clip-path="url(#a)">
<g transform="translate(744.36 648.27) rotate(90) scale(.08 -.08)">
<use xlink:href="#e"/>
<use x="44.083984" xlink:href="#l"/>
<use x="105.607422" xlink:href="#g"/>
<use x="144.970703" xlink:href="#i"/>
<use x="242.382812" xlink:href="#k"/>
<use x="270.166016" xlink:href="#h"/>
<use x="333.544922" xlink:href="#f"/>
<use x="394.824219" xlink:href="#j"/>
</g>
</g>
<path d="m805.82 648.27v33.808q0 2.4 2.4 2.4h7.7425q2.4 0 2.4-2.4v-33.808q0-2.4-2.4-2.4h-7.7425q-2.4 0-2.4 2.4z" clip-path="url(#a)" fill="#fff" stroke="#fff"/>
<g clip-path="url(#a)">
<g transform="translate(809.88 648.27) rotate(90) scale(.08 -.08)">
<use xlink:href="#e"/>
<use x="44.083984" xlink:href="#l"/>
<use x="105.607422" xlink:href="#g"/>
<use x="144.970703" xlink:href="#i"/>
<use x="242.382812" xlink:href="#k"/>
<use x="270.166016" xlink:href="#h"/>
<use x="333.544922" xlink:href="#f"/>
<use x="394.824219" xlink:href="#j"/>
</g>
</g>
<path d="m874.2 562.79v13.246q0 2.4 2.4 2.4h8q2.4 0 2.4-2.4v-13.246q0-2.4-2.4-2.4h-8q-2.4 0-2.4 2.4z" clip-path="url(#a)" fill="#fff" stroke="#fff"/>
<g clip-path="url(#a)">
<g transform="translate(878.48 562.79) rotate(90) scale(.08 -.08)">
<use xlink:href="#o"/>
<use x="68.408203" xlink:href="#av"/>
<use x="102.099609" xlink:href="#x"/>
</g>
</g>
<path d="m874.33 648.27v33.808q0 2.4 2.4 2.4h7.7425q2.4 0 2.4-2.4v-33.808q0-2.4-2.4-2.4h-7.7425q-2.4 0-2.4 2.4z" clip-path="url(#a)" fill="#fff" stroke="#fff"/>
<g clip-path="url(#a)">
<g transform="translate(878.39 648.27) rotate(90) scale(.08 -.08)">
<use xlink:href="#e"/>
<use x="44.083984" xlink:href="#l"/>
<use x="105.607422" xlink:href="#g"/>
<use x="144.970703" xlink:href="#i"/>
<use x="242.382812" xlink:href="#k"/>
<use x="270.166016" xlink:href="#h"/>
<use x="333.544922" xlink:href="#f"/>
<use x="394.824219" xlink:href="#j"/>
</g>
</g>
<path d="m342.56 573.46 1.1748-5.4332q0.50723-2.3458-1.8386-2.853l-7.5676-1.6363q-2.3458-0.50723-2.853 1.8386l-1.1748 5.4332q-0.50723 2.3458 1.8386 2.853l7.5676 1.6363q2.3458 0.50723 2.853-1.8386z" clip-path="url(#a)" fill="#fff" stroke="#fff"/>
<g clip-path="url(#a)">
<g transform="translate(338.59 572.6) rotate(-77.799) scale(.08 -.08)">
<defs>
<path id="bb" d="m44.391 34.188q3.1719-1.0781 6.1719-4.5938t6.0312-9.6719l10.016-19.922h-10.609l-9.3125 18.703q-3.625 7.3281-7.0156 9.7188t-9.25 2.3906h-10.75v-30.812h-9.8594v72.906h22.266q12.5 0 18.656-5.2344 6.1562-5.2188 6.1562-15.766 0-6.8906-3.2031-11.438-3.2031-4.5312-9.2969-6.2812zm-24.719 30.609v-25.875h12.406q7.125 0 10.766 3.2969t3.6406 9.6875-3.6406 9.6406-10.766 3.25z"/>
</defs>
<use xlink:href="#bb"/>
</g>
</g>
<path d="m351.15 568.01 1.1806 5.4601q0.50723 2.3458 2.853 1.8386l7.5676-1.6363q2.3458-0.50723 1.8386-2.853l-1.1806-5.4601q-0.50723-2.3458-2.853-1.8386l-7.5676 1.6363q-2.3458 0.50723-1.8386 2.853z" clip-path="url(#a)" fill="#fff" stroke="#fff"/>
<g clip-path="url(#a)">
<g transform="translate(355.12 567.15) rotate(77.799) scale(.08 -.08)">
<use xlink:href="#w"/>
</g>
</g>
<path d="m460.14 477.93 2.2581-5.8787q0.86056-2.2404-1.3799-3.101l-7.2277-2.7762q-2.2404-0.86056-3.101 1.3799l-2.2581 5.8787q-0.86056 2.2404 1.3799 3.101l7.2277 2.7762q2.2404 0.86056 3.101-1.3799z" clip-path="url(#a)" fill="#fff" stroke="#fff"/>
<g clip-path="url(#a)">
<g transform="translate(456.35 476.47) rotate(-68.988) scale(.08 -.08)">
<defs>
<path id="bc" d="m39.406 66.219q-10.75 0-17.078-8.0156-6.3125-8-6.3125-21.828 0-13.766 6.3125-21.781 6.3281-8 17.078-8 10.734 0 17.016 8 6.2812 8.0156 6.2812 21.781 0 13.828-6.2812 21.828-6.2812 8.0156-17.016 8.0156zm13.812-64.906 13-14.203h-11.922l-10.797 11.672q-1.6094-0.09375-2.4688-0.14062-0.84375-0.0625-1.625-0.0625-15.375 0-24.594 10.281-9.2031 10.281-9.2031 27.516 0 17.281 9.2031 27.562 9.2188 10.281 24.594 10.281 15.328 0 24.5-10.281 9.1875-10.281 9.1875-27.562 0-12.688-5.1094-21.734-5.0938-9.0312-14.766-13.328z"/>
</defs>
<use xlink:href="#bc"/>
</g>
</g>
<path d="m485.96 519.39 1.0563 5.4855q0.4538 2.3567 2.8105 1.9029l7.6028-1.464q2.3567-0.4538 1.9029-2.8105l-1.0563-5.4855q-0.4538-2.3567-2.8105-1.9029l-7.6028 1.464q-2.3567 0.4538-1.9029 2.8105z" clip-path="url(#a)" fill="#fff" stroke="#fff"/>
<g clip-path="url(#a)">
<g transform="translate(489.95 518.62) rotate(79.101) scale(.08 -.08)">
<use xlink:href="#w"/>
</g>
</g>
<path d="m430.37 573.37 1.2127-4.9074q0.57576-2.3299-1.7541-2.9057l-7.5164-1.8574q-2.3299-0.57576-2.9057 1.7541l-1.2127 4.9074q-0.57576 2.3299 1.7541 2.9057l7.5164 1.8574q2.3299 0.57576 2.9057-1.7541z" clip-path="url(#a)" fill="#fff" stroke="#fff"/>
<g clip-path="url(#a)">
<g transform="translate(426.42 572.4) rotate(-76.119) scale(.08 -.08)">
<use xlink:href="#ak"/>
</g>
</g>
<path d="m441.96 568.21 1.3402 5.4231q0.57576 2.3299 2.9057 1.7541l7.5164-1.8574q2.3299-0.57576 1.7541-2.9057l-1.3402-5.4231q-0.57576-2.3299-2.9057-1.7541l-7.5164 1.8574q-2.3299 0.57576-1.7541 2.9057z" clip-path="url(#a)" fill="#fff" stroke="#fff"/>
<g clip-path="url(#a)">
<g transform="translate(445.9 567.23) rotate(76.119) scale(.08 -.08)">
<use xlink:href="#w"/>
</g>
</g>
<path d="m504.99 648.27v33.808q0 2.4 2.4 2.4h7.7425q2.4 0 2.4-2.4v-33.808q0-2.4-2.4-2.4h-7.7425q-2.4 0-2.4 2.4z" clip-path="url(#a)" fill="#fff" stroke="#fff"/>
<g clip-path="url(#a)">
<g transform="translate(509.05 648.27) rotate(90) scale(.08 -.08)">
<use xlink:href="#e"/>
<use x="44.083984" xlink:href="#l"/>
<use x="105.607422" xlink:href="#g"/>
<use x="144.970703" xlink:href="#i"/>
<use x="242.382812" xlink:href="#k"/>
<use x="270.166016" xlink:href="#h"/>
<use x="333.544922" xlink:href="#f"/>
<use x="394.824219" xlink:href="#j"/>
</g>
</g>
<path d="m406.7 648.27v33.808q0 2.4 2.4 2.4h7.7425q2.4 0 2.4-2.4v-33.808q0-2.4-2.4-2.4h-7.7425q-2.4 0-2.4 2.4z" clip-path="url(#a)" fill="#fff" stroke="#fff"/>
<g clip-path="url(#a)">
<g transform="translate(410.76 648.27) rotate(90) scale(.08 -.08)">
<use xlink:href="#e"/>
<use x="44.083984" xlink:href="#l"/>
<use x="105.607422" xlink:href="#g"/>
<use x="144.970703" xlink:href="#i"/>
<use x="242.382812" xlink:href="#k"/>
<use x="270.166016" xlink:href="#h"/>
<use x="333.544922" xlink:href="#f"/>
<use x="394.824219" xlink:href="#j"/>
</g>
</g>
<path d="m454.36 648.27v33.808q0 2.4 2.4 2.4h7.7425q2.4 0 2.4-2.4v-33.808q0-2.4-2.4-2.4h-7.7425q-2.4 0-2.4 2.4z" clip-path="url(#a)" fill="#fff" stroke="#fff"/>
<g clip-path="url(#a)">
<g transform="translate(458.42 648.27) rotate(90) scale(.08 -.08)">
<use xlink:href="#e"/>
<use x="44.083984" xlink:href="#l"/>
<use x="105.607422" xlink:href="#g"/>
<use x="144.970703" xlink:href="#i"/>
<use x="242.382812" xlink:href="#k"/>
<use x="270.166016" xlink:href="#h"/>
<use x="333.544922" xlink:href="#f"/>
<use x="394.824219" xlink:href="#j"/>
</g>
</g>
<path d="m320.32 648.27v33.808q0 2.4 2.4 2.4h7.7425q2.4 0 2.4-2.4v-33.808q0-2.4-2.4-2.4h-7.7425q-2.4 0-2.4 2.4z" clip-path="url(#a)" fill="#fff" stroke="#fff"/>
<g clip-path="url(#a)">
<g transform="translate(324.39 648.27) rotate(90) scale(.08 -.08)">
<use xlink:href="#e"/>
<use x="44.083984" xlink:href="#l"/>
<use x="105.607422" xlink:href="#g"/>
<use x="144.970703" xlink:href="#i"/>
<use x="242.382812" xlink:href="#k"/>
<use x="270.166016" xlink:href="#h"/>
<use x="333.544922" xlink:href="#f"/>
<use x="394.824219" xlink:href="#j"/>
</g>
</g>
<path d="m362.02 648.27v33.808q0 2.4 2.4 2.4h7.7425q2.4 0 2.4-2.4v-33.808q0-2.4-2.4-2.4h-7.7425q-2.4 0-2.4 2.4z" clip-path="url(#a)" fill="#fff" stroke="#fff"/>
<g clip-path="url(#a)">
<g transform="translate(366.09 648.27) rotate(90) scale(.08 -.08)">
<use xlink:href="#e"/>
<use x="44.083984" xlink:href="#l"/>
<use x="105.607422" xlink:href="#g"/>
<use x="144.970703" xlink:href="#i"/>
<use x="242.382812" xlink:href="#k"/>
<use x="270.166016" xlink:href="#h"/>
<use x="333.544922" xlink:href="#f"/>
<use x="394.824219" xlink:href="#j"/>
</g>
</g>
<path d="m58.214 648.27v33.808q0 2.4 2.4 2.4h7.7425q2.4 0 2.4-2.4v-33.808q0-2.4-2.4-2.4h-7.7425q-2.4 0-2.4 2.4z" clip-path="url(#a)" fill="#fff" stroke="#fff"/>
<g clip-path="url(#a)">
<g transform="translate(62.277 648.27) rotate(90) scale(.08 -.08)">
<use xlink:href="#e"/>
<use x="44.083984" xlink:href="#l"/>
<use x="105.607422" xlink:href="#g"/>
<use x="144.970703" xlink:href="#i"/>
<use x="242.382812" xlink:href="#k"/>
<use x="270.166016" xlink:href="#h"/>
<use x="333.544922" xlink:href="#f"/>
<use x="394.824219" xlink:href="#j"/>
</g>
</g>
<path d="m67.149 648.27v33.808q0 2.4 2.4 2.4h7.7425q2.4 0 2.4-2.4v-33.808q0-2.4-2.4-2.4h-7.7425q-2.4 0-2.4 2.4z" clip-path="url(#a)" fill="#fff" stroke="#fff"/>
<g clip-path="url(#a)">
<g transform="translate(71.213 648.27) rotate(90) scale(.08 -.08)">
<use xlink:href="#e"/>
<use x="44.083984" xlink:href="#l"/>
<use x="105.607422" xlink:href="#g"/>
<use x="144.970703" xlink:href="#i"/>
<use x="242.382812" xlink:href="#k"/>
<use x="270.166016" xlink:href="#h"/>
<use x="333.544922" xlink:href="#f"/>
<use x="394.824219" xlink:href="#j"/>
</g>
</g>
<path d="m79.063 648.27v33.808q0 2.4 2.4 2.4h7.7425q2.4 0 2.4-2.4v-33.808q0-2.4-2.4-2.4h-7.7425q-2.4 0-2.4 2.4z" clip-path="url(#a)" fill="#fff" stroke="#fff"/>
<g clip-path="url(#a)">
<g transform="translate(83.127 648.27) rotate(90) scale(.08 -.08)">
<use xlink:href="#e"/>
<use x="44.083984" xlink:href="#l"/>
<use x="105.607422" xlink:href="#g"/>
<use x="144.970703" xlink:href="#i"/>
<use x="242.382812" xlink:href="#k"/>
<use x="270.166016" xlink:href="#h"/>
<use x="333.544922" xlink:href="#f"/>
<use x="394.824219" xlink:href="#j"/>
</g>
</g>
<path d="m93.956 648.27v33.808q0 2.4 2.4 2.4h7.7425q2.4 0 2.4-2.4v-33.808q0-2.4-2.4-2.4h-7.7425q-2.4 0-2.4 2.4z" clip-path="url(#a)" fill="#fff" stroke="#fff"/>
<g clip-path="url(#a)">
<g transform="translate(98.02 648.27) rotate(90) scale(.08 -.08)">
<use xlink:href="#e"/>
<use x="44.083984" xlink:href="#l"/>
<use x="105.607422" xlink:href="#g"/>
<use x="144.970703" xlink:href="#i"/>
<use x="242.382812" xlink:href="#k"/>
<use x="270.166016" xlink:href="#h"/>
<use x="333.544922" xlink:href="#f"/>
<use x="394.824219" xlink:href="#j"/>
</g>
</g>
<path d="m111.83 648.27v33.808q0 2.4 2.4 2.4h7.7425q2.4 0 2.4-2.4v-33.808q0-2.4-2.4-2.4h-7.7425q-2.4 0-2.4 2.4z" clip-path="url(#a)" fill="#fff" stroke="#fff"/>
<g clip-path="url(#a)">
<g transform="translate(115.89 648.27) rotate(90) scale(.08 -.08)">
<use xlink:href="#e"/>
<use x="44.083984" xlink:href="#l"/>
<use x="105.607422" xlink:href="#g"/>
<use x="144.970703" xlink:href="#i"/>
<use x="242.382812" xlink:href="#k"/>
<use x="270.166016" xlink:href="#h"/>
<use x="333.544922" xlink:href="#f"/>
<use x="394.824219" xlink:href="#j"/>
</g>
</g>
<path d="m213.1 648.27v33.808q0 2.4 2.4 2.4h7.7425q2.4 0 2.4-2.4v-33.808q0-2.4-2.4-2.4h-7.7425q-2.4 0-2.4 2.4z" clip-path="url(#a)" fill="#fff" stroke="#fff"/>
<g clip-path="url(#a)">
<g transform="translate(217.16 648.27) rotate(90) scale(.08 -.08)">
<use xlink:href="#e"/>
<use x="44.083984" xlink:href="#l"/>
<use x="105.607422" xlink:href="#g"/>
<use x="144.970703" xlink:href="#i"/>
<use x="242.382812" xlink:href="#k"/>
<use x="270.166016" xlink:href="#h"/>
<use x="333.544922" xlink:href="#f"/>
<use x="394.824219" xlink:href="#j"/>
</g>
</g>
<path d="m245.86 648.27v33.808q0 2.4 2.4 2.4h7.7425q2.4 0 2.4-2.4v-33.808q0-2.4-2.4-2.4h-7.7425q-2.4 0-2.4 2.4z" clip-path="url(#a)" fill="#fff" stroke="#fff"/>
<g clip-path="url(#a)">
<g transform="translate(249.92 648.27) rotate(90) scale(.08 -.08)">
<use xlink:href="#e"/>
<use x="44.083984" xlink:href="#l"/>
<use x="105.607422" xlink:href="#g"/>
<use x="144.970703" xlink:href="#i"/>
<use x="242.382812" xlink:href="#k"/>
<use x="270.166016" xlink:href="#h"/>
<use x="333.544922" xlink:href="#f"/>
<use x="394.824219" xlink:href="#j"/>
</g>
</g>
<path d="m561.58 648.27v33.808q0 2.4 2.4 2.4h7.7425q2.4 0 2.4-2.4v-33.808q0-2.4-2.4-2.4h-7.7425q-2.4 0-2.4 2.4z" clip-path="url(#a)" fill="#fff" stroke="#fff"/>
<g clip-path="url(#a)">
<g transform="translate(565.65 648.27) rotate(90) scale(.08 -.08)">
<use xlink:href="#e"/>
<use x="44.083984" xlink:href="#l"/>
<use x="105.607422" xlink:href="#g"/>
<use x="144.970703" xlink:href="#i"/>
<use x="242.382812" xlink:href="#k"/>
<use x="270.166016" xlink:href="#h"/>
<use x="333.544922" xlink:href="#f"/>
<use x="394.824219" xlink:href="#j"/>
</g>
</g>
<path d="m1261.5 648.27v33.808q0 2.4 2.4 2.4h7.7425q2.4 0 2.4-2.4v-33.808q0-2.4-2.4-2.4h-7.7425q-2.4 0-2.4 2.4z" clip-path="url(#a)" fill="#fff" stroke="#fff"/>
<g clip-path="url(#a)">
<g transform="translate(1265.6 648.27) rotate(90) scale(.08 -.08)">
<use xlink:href="#e"/>
<use x="44.083984" xlink:href="#l"/>
<use x="105.607422" xlink:href="#g"/>
<use x="144.970703" xlink:href="#i"/>
<use x="242.382812" xlink:href="#k"/>
<use x="270.166016" xlink:href="#h"/>
<use x="333.544922" xlink:href="#f"/>
<use x="394.824219" xlink:href="#j"/>
</g>
</g>
<path d="m1347.9 648.27v33.808q0 2.4 2.4 2.4h7.7425q2.4 0 2.4-2.4v-33.808q0-2.4-2.4-2.4h-7.7425q-2.4 0-2.4 2.4z" clip-path="url(#a)" fill="#fff" stroke="#fff"/>
<g clip-path="url(#a)">
<g transform="translate(1352 648.27) rotate(90) scale(.08 -.08)">
<use xlink:href="#e"/>
<use x="44.083984" xlink:href="#l"/>
<use x="105.607422" xlink:href="#g"/>
<use x="144.970703" xlink:href="#i"/>
<use x="242.382812" xlink:href="#k"/>
<use x="270.166016" xlink:href="#h"/>
<use x="333.544922" xlink:href="#f"/>
<use x="394.824219" xlink:href="#j"/>
</g>
</g>
<defs>
<path id="b" d="m0 8.6603c2.2967 0 4.4997-0.9125 6.1237-2.5365 1.624-1.624 2.5365-3.827 2.5365-6.1237s-0.9125-4.4997-2.5365-6.1237c-1.624-1.624-3.827-2.5365-6.1237-2.5365s-4.4997 0.9125-6.1237 2.5365c-1.624 1.624-2.5365 3.827-2.5365 6.1237s0.9125 4.4997 2.5365 6.1237c1.624 1.624 3.827 2.5365 6.1237 2.5365z"/>
</defs>
<g clip-path="url(#a)" fill="#ffffff" stroke="#ffffff">
<use x="64.484848" y="712.727273" xlink:href="#b"/>
<use x="73.420393" y="712.727273" xlink:href="#b"/>
<use x="85.334453" y="712.727273" xlink:href="#b"/>
<use x="100.227028" y="712.727273" xlink:href="#b"/>
<use x="118.098117" y="712.727273" xlink:href="#b"/>
<use x="138.947722" y="712.727273" xlink:href="#b"/>
<use x="162.775842" y="712.727273" xlink:href="#b"/>
<use x="189.582476" y="712.727273" xlink:href="#b"/>
<use x="219.367625" y="712.727273" xlink:href="#b"/>
<use x="252.13129" y="712.727273" xlink:href="#b"/>
<use x="287.873469" y="712.727273" xlink:href="#b"/>
<use x="326.594163" y="712.727273" xlink:href="#b"/>
<use x="368.293373" y="712.727273" xlink:href="#b"/>
<use x="412.971097" y="712.727273" xlink:href="#b"/>
<use x="460.627336" y="712.727273" xlink:href="#b"/>
<use x="511.26209" y="712.727273" xlink:href="#b"/>
<use x="567.853874" y="712.727273" xlink:href="#b"/>
<use x="624.445657" y="712.727273" xlink:href="#b"/>
<use x="684.015956" y="712.727273" xlink:href="#b"/>
<use x="746.56477" y="712.727273" xlink:href="#b"/>
<use x="812.092099" y="712.727273" xlink:href="#b"/>
<use x="880.597942" y="712.727273" xlink:href="#b"/>
<use x="952.082301" y="712.727273" xlink:href="#b"/>
<use x="1026.545175" y="712.727273" xlink:href="#b"/>
<use x="1103.986563" y="712.727273" xlink:href="#b"/>
<use x="1184.406467" y="712.727273" xlink:href="#b"/>
<use x="1267.804885" y="712.727273" xlink:href="#b"/>
<use x="1354.181818" y="712.727273" xlink:href="#b"/>
<use x="514.240605" y="424.272635" xlink:href="#b"/>
<use x="225.109372" y="33.939394" xlink:href="#b"/>
<use x="225.109372" y="131.805277" xlink:href="#b"/>
<use x="564.113001" y="229.507427" xlink:href="#b"/>
<use x="138.947722" y="617.626278" xlink:href="#b"/>
<use x="182.880817" y="327.013054" xlink:href="#b"/>
<use x="176.179159" y="424.272635" xlink:href="#b"/>
<use x="189.582476" y="521.202324" xlink:href="#b"/>
<use x="189.582476" y="617.626278" xlink:href="#b"/>
<use x="162.775842" y="617.626278" xlink:href="#b"/>
<use x="74.413232" y="521.202324" xlink:href="#b"/>
<use x="287.873469" y="617.626278" xlink:href="#b"/>
<use x="410.73721" y="327.013054" xlink:href="#b"/>
<use x="749.543285" y="424.272635" xlink:href="#b"/>
<use x="952.082301" y="617.626278" xlink:href="#b"/>
<use x="906.287634" y="424.272635" xlink:href="#b"/>
<use x="1026.545175" y="617.626278" xlink:href="#b"/>
<use x="1227.594933" y="521.202324" xlink:href="#b"/>
<use x="1103.986563" y="617.626278" xlink:href="#b"/>
<use x="1184.406467" y="617.626278" xlink:href="#b"/>
<use x="624.445657" y="617.626278" xlink:href="#b"/>
<use x="684.015956" y="617.626278" xlink:href="#b"/>
<use x="746.56477" y="617.626278" xlink:href="#b"/>
<use x="812.092099" y="617.626278" xlink:href="#b"/>
<use x="880.597942" y="521.202324" xlink:href="#b"/>
<use x="880.597942" y="617.626278" xlink:href="#b"/>
<use x="347.443768" y="521.202324" xlink:href="#b"/>
<use x="474.030653" y="424.272635" xlink:href="#b"/>
<use x="436.799216" y="521.202324" xlink:href="#b"/>
<use x="511.26209" y="617.626278" xlink:href="#b"/>
<use x="412.971097" y="617.626278" xlink:href="#b"/>
<use x="460.627336" y="617.626278" xlink:href="#b"/>
<use x="326.594163" y="617.626278" xlink:href="#b"/>
<use x="368.293373" y="617.626278" xlink:href="#b"/>
<use x="64.484848" y="617.626278" xlink:href="#b"/>
<use x="73.420393" y="617.626278" xlink:href="#b"/>
<use x="85.334453" y="617.626278" xlink:href="#b"/>
<use x="100.227028" y="617.626278" xlink:href="#b"/>
<use x="118.098117" y="617.626278" xlink:href="#b"/>
<use x="219.367625" y="617.626278" xlink:href="#b"/>
<use x="252.13129" y="617.626278" xlink:href="#b"/>
<use x="567.853874" y="617.626278" xlink:href="#b"/>
<use x="1267.804885" y="617.626278" xlink:href="#b"/>
<use x="1354.181818" y="617.626278" xlink:href="#b"/>
</g>
<g clip-path="url(#a)">
<g transform="translate(61.011 715.49) scale(.1 -.1)">
<defs>
<path id="bj" d="m20.062 51.906q0-6.3906 3.6406-9.6875t10.766-3.2969h15.344v25.875h-15.344q-7.125 0-10.766-3.25t-3.6406-9.6406zm-13.422-51.906 19.922 31.891q-4.875 1.2656-11.125 5.3906t-6.25 14.625q0 10.062 6.3438 15.531t18.938 5.4688h25.203v-72.906h-9.8594v30.812h-13.188l-19.234-30.812z"/>
</defs>
<use xlink:href="#bj"/>
</g>
</g>
<g clip-path="url(#a)">
<g transform="translate(66.389 715.49) scale(.1 -.1)">
<defs>
<path id="bi" d="m31.109 56q11.719 0 18.406-7.625 6.6875-7.6094 6.6875-21.078 0-13.422-6.6875-21.078-6.6875-7.6406-18.406-7.6406-11.766 0-18.266 7.4219t-6.8438 21.297l-0.28125 11.188q-0.25 5.7969-0.25 7.8125 0 7.8125 2.8281 13.562 4.4531 9.0312 12.141 12.938t20.578 4.0156q5.9531 0.046875 8.5938 0.875l2.4844-7.125q-2.3906-0.98438-4.5781-1.0312l-12.219-0.82812q-6.1406-0.4375-9.8594-2.5938-9.7188-5.7031-10.641-13.172l-0.34375-2.7344q6.3438 5.7969 16.656 5.7969zm0-7.6094q-7.2344 0-11.438-5.6406-4.1875-5.6406-4.1875-15.453t4.1719-15.453 11.453-5.6406q7.1719 0 11.375 5.6562 4.2031 5.6719 4.2031 15.438 0 9.7188-4.2031 15.406t-11.375 5.6875z"/>
<path id="ax" d="m61.047 54.688h8.9844v-54.688h-8.9844zm4.5 1.3125m-22.094-39.781q0 4.3906-3.2031 6.6875-3.1875 2.2969-9.3438 2.2969h-12.797v-18.031h12.797q6.1562 0 9.3438 2.3125 3.2031 2.3281 3.2031 6.7344zm-34.375 38.469h9.0312v-22.312h13.188q10.453 0 16.094-3.9844 5.6406-3.9688 5.6406-12.172t-5.6406-12.219q-5.6406-4-16.094-4h-22.219z"/>
</defs>
<use xlink:href="#bi"/>
<use x="61.669922" xlink:href="#ax"/>
</g>
</g>
<g clip-path="url(#a)">
<g transform="translate(75.639 715.49) scale(.1 -.1)">
<defs>
<path id="ac" d="m18.109 8.2031v-29h-9.0312v75.484h9.0312v-8.2969q2.8438 4.875 7.1562 7.2344 4.3281 2.375 10.328 2.375 9.9688 0 16.188-7.9062 6.2344-7.9062 6.2344-20.797t-6.2344-20.812q-6.2188-7.9062-16.188-7.9062-6 0-10.328 2.375-4.3125 2.375-7.1562 7.25zm30.578 19.094q0 9.9062-4.0781 15.547t-11.203 5.6406q-7.1406 0-11.219-5.6406t-4.0781-15.547 4.0781-15.547 11.219-5.6406q7.125 0 11.203 5.6406t4.0781 15.547z"/>
<path id="s" d="m34.281 27.484q-10.891 0-15.094-2.4844t-4.2031-8.5q0-4.7812 3.1562-7.5938 3.1562-2.7969 8.5625-2.7969 7.4844 0 12 5.2969t4.5156 14.078v2zm17.922 3.7188v-31.203h-8.9844v8.2969q-3.0781-4.9688-7.6719-7.3438t-11.234-2.375q-8.3906 0-13.359 4.7188-4.9531 4.7188-4.9531 12.625 0 9.2188 6.1719 13.906 6.1875 4.6875 18.438 4.6875h12.609v0.89062q0 6.2031-4.0781 9.5938t-11.453 3.3906q-4.6875 0-9.1406-1.125-4.4375-1.125-8.5312-3.375v8.3125q4.9219 1.9062 9.5625 2.8438 4.6406 0.95312 9.0312 0.95312 11.875 0 17.734-6.1562 5.8594-6.1406 5.8594-18.641z"/>
<path id="as" d="m21.625 7.1719h26.078v40.344h-18.891v-6.8438q0-20.109-5.7656-30.859zm-13.031 0q4.4375 1.9531 6.3906 6.1094 4.7969 10.297 4.7969 31.062v10.344h36.953v-47.516h7.1875v-20.984h-7.1875v13.812h-44.328v-13.812h-7.1875v20.984z"/>
</defs>
<use xlink:href="#ac"/>
<use x="63.476562" xlink:href="#s"/>
<use x="124.755859" xlink:href="#as"/>
</g>
</g>
<g clip-path="url(#a)">
<g transform="translate(98.638 715.49) scale(.1 -.1)">
<defs>
<path id="au" d="m11.719 12.406h10.297v-8.4062l-8-15.625h-6.2969l4 15.625z"/>
</defs>
<use xlink:href="#au"/>
</g>
</g>
<g clip-path="url(#a)">
<g transform="translate(116.29 715.49) scale(.1 -.1)">
<defs>
<path id="am" d="m4.8906 31.391h26.312v-8h-26.312z"/>
</defs>
<use xlink:href="#am"/>
</g>
</g>
<g clip-path="url(#a)">
<g transform="translate(117.59 715.49) scale(.1 -.1)">
<defs>
<path id="ah" d="m30.609 48.391q-7.2188 0-11.422-5.6406t-4.2031-15.453 4.1719-15.453q4.1875-5.6406 11.453-5.6406 7.1875 0 11.375 5.6562 4.2031 5.6719 4.2031 15.438 0 9.7188-4.2031 15.406-4.1875 5.6875-11.375 5.6875zm0 7.6094q11.719 0 18.406-7.625 6.7031-7.6094 6.7031-21.078 0-13.422-6.7031-21.078-6.6875-7.6406-18.406-7.6406-11.766 0-18.438 7.6406-6.6562 7.6562-6.6562 21.078 0 13.469 6.6562 21.078 6.6719 7.625 18.438 7.625z"/>
<path id="ab" d="m2.9375 54.688h52.391v-7.1719h-21.781v-47.516h-8.8438v47.516h-21.766z"/>
<path id="at" d="m18.062 25.203v-18.031h12.797q6.1562 0 9.375 2.3125 3.2188 2.3281 3.2188 6.7344 0 4.3906-3.2188 6.6875t-9.375 2.2969zm0 22.312v-15.141h11.828q5.0781 0 8.2969 2.0156 3.2188 2.0312 3.2188 5.6562 0 3.6094-3.2188 5.5312-3.2188 1.9375-8.2969 1.9375zm-8.9844 7.1719h21.391q9.625 0 14.797-3.5156t5.1719-10.016q0-5.0156-2.6406-7.9844-2.625-2.9531-7.8125-3.6719 6.2031-1.1719 9.625-4.8906 3.4219-3.7031 3.4219-9.2812 0-7.3125-5.6406-11.328-5.6406-4-16.094-4h-22.219z"/>
<path id="q" d="m56.203 29.594v-4.3906h-41.312q0.59375-9.2812 5.5938-14.141t13.938-4.8594q5.1719 0 10.031 1.2656t9.6562 3.8125v-8.5q-4.8438-2.0469-9.9219-3.125t-10.297-1.0781q-13.094 0-20.734 7.6094-7.6406 7.625-7.6406 20.625 0 13.422 7.25 21.297 7.25 7.8906 19.562 7.8906 11.031 0 17.453-7.1094 6.4219-7.0938 6.4219-19.297zm-8.9844 2.6406q-0.09375 7.3594-4.125 11.75-4.0312 4.4062-10.672 4.4062-7.5156 0-12.031-4.25t-5.2031-11.969z"/>
<path id="v" d="m55.906 54.688v-54.688h-8.9375v43.891l-26.359-43.891h-11.531v54.688h8.9375v-43.797l26.328 43.797z"/>
<path id="ap" d="m3.7188 0v7.4688q8.875 1.375 11.609 7.5156 3.3281 8.6562 3.3281 30.766v8.9375h36.953v-54.688h-8.9844v47.516h-18.984v-5.4219q0-21.094-4.2969-30.562-4.5938-10.109-19.625-11.531z"/>
</defs>
<use xlink:href="#ah"/>
<use x="61.181641" xlink:href="#ab"/>
<use x="119.433594" xlink:href="#at"/>
<use x="178.369141" xlink:href="#q"/>
<use x="239.892578" xlink:href="#ab"/>
<use x="298.144531" xlink:href="#v"/>
<use x="363.134766" xlink:href="#ap"/>
</g>
</g>
<g clip-path="url(#a)">
<g transform="translate(133.39 715.49) scale(.1 -.1)">
<defs>
<path id="ba" d="m9.8125 72.906h14.703l18.594-49.609 18.703 49.609h14.703v-72.906h-9.625v64.016l-18.797-50h-9.9062l-18.797 50v-64.016h-9.5781z"/>
<path id="r" d="m9.0781 54.688h9.0312v-22.312h29.156v22.312h9.0312v-54.688h-9.0312v25.203h-29.156v-25.203h-9.0312z"/>
<path id="aw" d="m43.453 16.219q0 4.3906-3.2031 6.6875-3.1875 2.2969-9.3438 2.2969h-12.797v-18.031h12.797q6.1562 0 9.3438 2.3125 3.2031 2.3281 3.2031 6.7344zm-34.375 38.469h9.0312v-22.312h13.188q10.453 0 16.094-3.9844 5.6406-3.9688 5.6406-12.172t-5.6406-12.219q-5.6406-4-16.094-4h-22.219z"/>
<path id="az" d="m9.0781 54.688h8.9375v-25.688l25.344 25.688h11.031l-20.891-21.141 23.578-33.547h-10.062l-19.375 27.594-9.625-9.7656v-17.828h-8.9375z"/>
<path id="aq" d="m55.906 54.688v-54.688h-8.9375v43.891l-26.359-43.891h-11.531v54.688h8.9375v-43.797l26.328 43.797zm-38.688 20.828h5.7656q0.53125-3.6562 2.8906-5.5 2.375-1.8281 6.625-1.8281 4.2031 0 6.5469 1.8125t2.9688 5.5156h5.7656q-0.48438-6.9844-4.3438-10.5t-10.938-3.5156-10.938 3.5156-4.3438 10.5z"/>
</defs>
<use xlink:href="#ba"/>
<use x="86.279297" xlink:href="#s"/>
<use x="147.558594" xlink:href="#ap"/>
<use x="211.474609" xlink:href="#q"/>
<use x="272.998047" xlink:href="#r"/>
<use x="338.378906" xlink:href="#aw"/>
<use x="397.314453" xlink:href="#az"/>
<use x="457.714844" xlink:href="#v"/>
<use x="522.705078" xlink:href="#aq"/>
</g>
</g>
<g clip-path="url(#a)">
<g transform="translate(173.22 715.49) scale(.1 -.1)">
<defs>
<path id="bh" d="m56.297 54.688v-54.688h-9.0312v47.516h-29.156v-47.516h-9.0312v54.688z"/>
<path id="bg" d="m56.297 0h-47.219v54.688h9.0312v-47.516h29.156v47.516h9.0312v-47.516h7.1875v-20.984h-7.1875z"/>
</defs>
<use xlink:href="#bh"/>
<use x="65.380859" xlink:href="#ac"/>
<use x="128.857422" xlink:href="#v"/>
<use x="193.847656" xlink:href="#r"/>
<use x="259.228516" xlink:href="#bg"/>
</g>
</g>
<g clip-path="url(#a)">
<g transform="translate(217.78 715.49) scale(.1 -.1)">
<use xlink:href="#au"/>
</g>
</g>
<g clip-path="url(#a)">
<g transform="translate(250.33 715.49) scale(.1 -.1)">
<use xlink:href="#am"/>
</g>
</g>
<g clip-path="url(#a)">
<g transform="translate(281.55 715.49) scale(.1 -.1)">
<use xlink:href="#r"/>
<use x="65.380859" xlink:href="#ah"/>
</g>
</g>
<g clip-path="url(#a)">
<g transform="translate(323.63 715.49) scale(.1 -.1)">
<defs>
<path id="an" d="m32.172-5.0781q-3.7969-9.7656-7.4219-12.734-3.6094-2.9844-9.6562-2.9844h-7.1875v7.5156h5.2812q3.7031 0 5.75 1.7656 2.0625 1.75 4.5469 8.2969l1.6094 4.0938-22.109 53.812h9.5156l17.094-42.766 17.094 42.766h9.5156z"/>
</defs>
<use xlink:href="#an"/>
</g>
</g>
<g clip-path="url(#a)">
<g transform="translate(355.17 715.49) scale(.1 -.1)">
<defs>
<path id="ao" d="m9.0781 54.688h13.141l15.531-36.625 15.578 36.625h13.031v-54.688h-9.0312v46.094l-15.094-35.594h-8.9844l-15.141 35.594v-46.094h-9.0312z"/>
<path id="bf" d="m18.453 38.922q0-4.0625 3.125-6.3594 3.125-2.2812 8.9375-2.2812h12.109v17.234h-12.109q-5.8125 0-8.9375-2.25t-3.125-6.3438zm-12.781-38.922 16.688 23.969q-5.6562 1.2812-9.4219 4.625-3.75 3.3438-3.75 10.328 0 7.9062 5.2344 11.828 5.25 3.9375 15.859 3.9375h21.375v-54.688h-9.0312v23.094h-11.172l-16.125-23.094z"/>
</defs>
<use xlink:href="#ao"/>
<use x="75.439453" xlink:href="#q"/>
<use x="136.962891" xlink:href="#r"/>
<use x="202.34375" xlink:href="#bf"/>
</g>
</g>
<g clip-path="url(#a)">
<g transform="translate(403.97 715.49) scale(.1 -.1)">
<use xlink:href="#ab"/>
<use x="58.251953" xlink:href="#s"/>
<use x="119.53125" xlink:href="#az"/>
</g>
</g>
<g clip-path="url(#a)">
<g transform="translate(447.54 715.49) scale(.1 -.1)">
<use xlink:href="#ao"/>
<use x="75.439453" xlink:href="#s"/>
<use x="136.71875" xlink:href="#ap"/>
<use x="200.634766" xlink:href="#ah"/>
</g>
</g>
<g clip-path="url(#a)">
<g transform="translate(488.7 715.49) scale(.1 -.1)">
<use xlink:href="#at"/>
<use x="58.935547" xlink:href="#ac"/>
<use x="122.412109" xlink:href="#q"/>
<use x="183.935547" xlink:href="#ao"/>
<use x="259.375" xlink:href="#q"/>
<use x="320.898438" xlink:href="#r"/>
<use x="386.279297" xlink:href="#v"/>
</g>
</g>
<g clip-path="url(#a)">
<g transform="translate(566.26 715.49) scale(.1 -.1)">
<defs>
<path id="d" d="m10.688 12.406h10.312v-12.406h-10.312z"/>
</defs>
<use xlink:href="#d"/>
</g>
</g>
<g clip-path="url(#a)">
<g transform="translate(613.79 715.49) scale(.1 -.1)">
<use xlink:href="#ba"/>
<use x="86.279297" xlink:href="#r"/>
<use x="151.660156" xlink:href="#q"/>
</g>
</g>
<g clip-path="url(#a)">
<g transform="translate(673.15 715.49) scale(.1 -.1)">
<defs>
<path id="ay" d="m82.422 0h-73.344v54.688h9.0312v-47.516h23.109v47.516h9.0312v-47.516h23.141v47.516h9.0312v-47.516h7.1719v-20.984h-7.1719z"/>
</defs>
<use xlink:href="#q"/>
<use x="61.523438" xlink:href="#ay"/>
<use x="155.712891" xlink:href="#q"/>
</g>
</g>
<g clip-path="url(#a)">
<g transform="translate(733.72 715.49) scale(.1 -.1)">
<use xlink:href="#r"/>
<use x="65.380859" xlink:href="#s"/>
<use x="126.660156" xlink:href="#as"/>
<use x="195.800781" xlink:href="#ah"/>
</g>
</g>
<g clip-path="url(#a)">
<g transform="translate(796.35 715.49) scale(.1 -.1)">
<use xlink:href="#r"/>
<use x="65.380859" xlink:href="#s"/>
<use x="126.660156" xlink:href="#aq"/>
<use x="191.650391" xlink:href="#ab"/>
<use x="249.902344" xlink:href="#v"/>
</g>
</g>
<g clip-path="url(#a)">
<g transform="translate(862.02 715.49) scale(.1 -.1)">
<defs>
<path id="ar" d="m34.469 29.5q6.0625-1.1719 9.4219-4.75 3.375-3.5625 3.375-8.8281 0-8.4531-6.2969-12.906-6.2969-4.4375-17.922-4.4375-3.9062 0-8.0312 0.6875t-8.5156 2.0469v8.3594q3.4688-1.8125 7.6094-2.7188 4.1562-0.89062 8.6875-0.89062 7.375 0 11.5 2.7344t4.125 7.125q0 4.2969-3.6562 6.9062t-10.344 2.6094h-7.2344v7.4219h7.5625q5.6719 0 8.9688 2.1719t3.2969 5.5938q0 3.125-3.4062 5.375-3.3906 2.25-9.1875 2.25-3.4688 0-7.4062-0.64062-3.9219-0.64062-8.6719-2.0469v8.1562q4.7969 1.1719 8.9375 1.75 4.1562 0.59375 7.8594 0.59375 9.5781 0 15.109-3.8438 5.5469-3.8281 5.5469-10.719 0-4.5312-2.9375-7.6875-2.9219-3.1406-8.3906-4.3125z"/>
</defs>
<use xlink:href="#as"/>
<use x="69.140625" xlink:href="#ac"/>
<use x="132.617188" xlink:href="#an"/>
<use x="191.796875" xlink:href="#ar"/>
<use x="244.970703" xlink:href="#q"/>
<use x="306.494141" xlink:href="#aq"/>
</g>
</g>
<g clip-path="url(#a)">
<g transform="translate(948.83 715.49) scale(.1 -.1)">
<use xlink:href="#v"/>
</g>
</g>
<g clip-path="url(#a)">
<g transform="translate(1008.7 715.49) scale(.1 -.1)">
<use xlink:href="#an"/>
<use x="59.179688" xlink:href="#ar"/>
<use x="112.353516" xlink:href="#r"/>
<use x="177.734375" xlink:href="#s"/>
<use x="239.013672" xlink:href="#ab"/>
<use x="297.265625" xlink:href="#aw"/>
</g>
</g>
<g clip-path="url(#a)">
<g transform="translate(1084.8 715.49) scale(.1 -.1)">
<use xlink:href="#ac"/>
<use x="63.476562" xlink:href="#s"/>
<use x="124.755859" xlink:href="#ar"/>
<use x="177.929688" xlink:href="#r"/>
<use x="243.310547" xlink:href="#ax"/>
<use x="322.265625" xlink:href="#q"/>
</g>
</g>
<g clip-path="url(#a)">
<g transform="translate(1170.4 715.49) scale(.1 -.1)">
<use xlink:href="#at"/>
<use x="58.935547" xlink:href="#q"/>
<use x="120.458984" xlink:href="#ay"/>
<use x="214.648438" xlink:href="#v"/>
</g>
</g>
<g clip-path="url(#a)">
<g transform="translate(1266.2 715.49) scale(.1 -.1)">
<use xlink:href="#d"/>
</g>
</g>
<g clip-path="url(#a)">
<g transform="translate(1352.4 715.49) scale(.1 -.1)">
<use xlink:href="#am"/>
</g>
</g>
<g clip-path="url(#a)">
<g transform="translate(493.16 427.03) scale(.1 -.1)">
<defs>
<path id="aj" d="m9.8125 72.906h9.8594v-72.906h-9.8594z"/>
<path id="bd" d="m9.8125 72.906h14.703l18.594-49.609 18.703 49.609h14.703v-72.906h-9.625v64.016l-18.797-50h-9.9062l-18.797 50v-64.016h-9.5781z"/>
</defs>
<use xlink:href="#aj"/>
<use x="29.492188" xlink:href="#bd"/>
<use x="115.771484" xlink:href="#ad"/>
<use x="176.074219" xlink:href="#ai"/>
<use x="231.787109" xlink:href="#aj"/>
<use x="261.279297" xlink:href="#w"/>
<use x="331.103516" xlink:href="#aj"/>
<use x="360.595703" xlink:href="#e"/>
</g>
</g>
<g clip-path="url(#a)">
<g transform="translate(217.16 36.699) scale(.1 -.1)">
<defs>
<path id="c" d="m12.406 8.2969h16.109v55.625l-17.531-3.5156v8.9844l17.438 3.5156h9.8594v-64.609h16.109v-8.2969h-41.984z"/>
</defs>
<use xlink:href="#c"/>
<use x="63.623047" xlink:href="#d"/>
<use x="95.410156" xlink:href="#c"/>
</g>
</g>
<g clip-path="url(#a)">
<g transform="translate(217.16 134.56) scale(.1 -.1)">
<defs>
<path id="n" d="m19.188 8.2969h34.422v-8.2969h-46.281v8.2969q5.6094 5.8125 15.297 15.594 9.7031 9.7969 12.188 12.641 4.7344 5.3125 6.6094 9 1.8906 3.6875 1.8906 7.25 0 5.8125-4.0781 9.4688-4.0781 3.6719-10.625 3.6719-4.6406 0-9.7969-1.6094-5.1406-1.6094-11-4.8906v9.9688q5.9531 2.3906 11.125 3.6094 5.1875 1.2188 9.4844 1.2188 11.328 0 18.062-5.6719 6.7344-5.6562 6.7344-15.125 0-4.5-1.6875-8.5312-1.6719-4.0156-6.125-9.4844-1.2188-1.4219-7.7656-8.1875-6.5312-6.7656-18.453-18.922z"/>
</defs>
<use xlink:href="#c"/>
<use x="63.623047" xlink:href="#d"/>
<use x="95.410156" xlink:href="#n"/>
</g>
</g>
<g clip-path="url(#a)">
<g transform="translate(556.16 232.27) scale(.1 -.1)">
<defs>
<path id="u" d="m10.797 72.906h38.719v-8.3125h-29.688v-17.859q2.1406 0.73438 4.2812 1.0938 2.1562 0.35938 4.3125 0.35938 12.203 0 19.328-6.6875 7.1406-6.6875 7.1406-18.109 0-11.766-7.3281-18.297-7.3281-6.5156-20.656-6.5156-4.5938 0-9.3594 0.78125-4.75 0.78125-9.8281 2.3438v9.9219q4.3906-2.3906 9.0781-3.5625t9.9062-1.1719q8.4531 0 13.375 4.4375 4.9375 4.4375 4.9375 12.062 0 7.6094-4.9375 12.047-4.9219 4.4531-13.375 4.4531-3.9531 0-7.8906-0.875-3.9219-0.875-8.0156-2.7344z"/>
</defs>
<use xlink:href="#c"/>
<use x="63.623047" xlink:href="#d"/>
<use x="95.410156" xlink:href="#u"/>
</g>
</g>
<g clip-path="url(#a)">
<g transform="translate(131 620.39) scale(.1 -.1)">
<defs>
<path id="aa" d="m33.016 40.375q-6.6406 0-10.531-4.5469-3.875-4.5312-3.875-12.438 0-7.8594 3.875-12.438 3.8906-4.5625 10.531-4.5625t10.516 4.5625q3.875 4.5781 3.875 12.438 0 7.9062-3.875 12.438-3.875 4.5469-10.516 4.5469zm19.578 30.922v-8.9844q-3.7188 1.75-7.5 2.6719-3.7812 0.9375-7.5 0.9375-9.7656 0-14.922-6.5938-5.1406-6.5938-5.875-19.922 2.875 4.25 7.2188 6.5156 4.3594 2.2656 9.5781 2.2656 10.984 0 17.359-6.6719 6.375-6.6562 6.375-18.125 0-11.234-6.6406-18.031-6.6406-6.7812-17.672-6.7812-12.656 0-19.344 9.6875-6.6875 9.7031-6.6875 28.109 0 17.281 8.2031 27.562t22.016 10.281q3.7188 0 7.5-0.73438t7.8906-2.1875z"/>
</defs>
<use xlink:href="#c"/>
<use x="63.623047" xlink:href="#d"/>
<use x="95.410156" xlink:href="#aa"/>
</g>
</g>
<g clip-path="url(#a)">
<g transform="translate(174.93 329.77) scale(.1 -.1)">
<defs>
<path id="z" d="m8.2031 72.906h46.875v-4.2031l-26.469-68.703h-10.297l24.906 64.594h-35.016z"/>
</defs>
<use xlink:href="#c"/>
<use x="63.623047" xlink:href="#d"/>
<use x="95.410156" xlink:href="#z"/>
</g>
</g>
<g clip-path="url(#a)">
<g transform="translate(165.05 427.03) scale(.1 -.1)">
<use xlink:href="#c"/>
<use x="63.623047" xlink:href="#d"/>
<use x="95.410156" xlink:href="#c"/>
<use x="159.033203" xlink:href="#n"/>
</g>
</g>
<g clip-path="url(#a)">
<g transform="translate(178.45 523.96) scale(.1 -.1)">
<defs>
<path id="p" d="m40.578 39.312q7.0781-1.5156 11.047-6.3125 3.9844-4.7812 3.9844-11.812 0-10.781-7.4219-16.703-7.4219-5.9062-21.094-5.9062-4.5781 0-9.4375 0.90625t-10.031 2.7188v9.5156q4.0938-2.3906 8.9688-3.6094 4.8906-1.2188 10.219-1.2188 9.2656 0 14.125 3.6562t4.8594 10.641q0 6.4531-4.5156 10.078-4.5156 3.6406-12.562 3.6406h-8.5v8.1094h8.8906q7.2656 0 11.125 2.9062t3.8594 8.375q0 5.6094-3.9844 8.6094-3.9688 3.0156-11.391 3.0156-4.0625 0-8.7031-0.89062-4.6406-0.875-10.203-2.7188v8.7812q5.625 1.5625 10.531 2.3438t9.25 0.78125q11.234 0 17.766-5.1094 6.5469-5.0938 6.5469-13.781 0-6.0625-3.4688-10.234t-9.8594-5.7812z"/>
</defs>
<use xlink:href="#c"/>
<use x="63.623047" xlink:href="#d"/>
<use x="95.410156" xlink:href="#c"/>
<use x="159.033203" xlink:href="#p"/>
</g>
</g>
<g clip-path="url(#a)">
<g transform="translate(178.45 620.39) scale(.1 -.1)">
<defs>
<path id="m" d="m37.797 64.312-24.906-38.922h24.906zm-2.5938 8.5938h12.406v-47.516h10.406v-8.2031h-10.406v-17.188h-9.8125v17.188h-32.906v9.5156z"/>
</defs>
<use xlink:href="#c"/>
<use x="63.623047" xlink:href="#d"/>
<use x="95.410156" xlink:href="#c"/>
<use x="159.033203" xlink:href="#m"/>
</g>
</g>
<g clip-path="url(#a)">
<g transform="translate(151.64 620.39) scale(.1 -.1)">
<use xlink:href="#c"/>
<use x="63.623047" xlink:href="#d"/>
<use x="95.410156" xlink:href="#c"/>
<use x="159.033203" xlink:href="#u"/>
</g>
</g>
<g clip-path="url(#a)">
<g transform="translate(63.28 523.96) scale(.1 -.1)">
<use xlink:href="#c"/>
<use x="63.623047" xlink:href="#d"/>
<use x="95.410156" xlink:href="#c"/>
<use x="159.033203" xlink:href="#aa"/>
</g>
</g>
<g clip-path="url(#a)">
<g transform="translate(276.74 620.39) scale(.1 -.1)">
<use xlink:href="#c"/>
<use x="63.623047" xlink:href="#d"/>
<use x="95.410156" xlink:href="#c"/>
<use x="159.033203" xlink:href="#z"/>
</g>
</g>
<g clip-path="url(#a)">
<g transform="translate(399.6 329.77) scale(.1 -.1)">
<defs>
<path id="af" d="m31.781 34.625q-7.0312 0-11.062-3.7656-4.0156-3.7656-4.0156-10.344 0-6.5938 4.0156-10.359 4.0312-3.7656 11.062-3.7656t11.078 3.7812q4.0625 3.7969 4.0625 10.344 0 6.5781-4.0312 10.344-4.0156 3.7656-11.109 3.7656zm-9.8594 4.1875q-6.3438 1.5625-9.8906 5.9062-3.5312 4.3594-3.5312 10.609 0 8.7344 6.2188 13.812 6.2344 5.0781 17.062 5.0781 10.891 0 17.094-5.0781t6.2031-13.812q0-6.25-3.5469-10.609-3.5312-4.3438-9.8281-5.9062 7.125-1.6562 11.094-6.5 3.9844-4.8281 3.9844-11.797 0-10.609-6.4688-16.281-6.4688-5.6562-18.531-5.6562-12.047 0-18.531 5.6562-6.4688 5.6719-6.4688 16.281 0 6.9688 4 11.797 4.0156 4.8438 11.141 6.5zm-3.6094 15.578q0-5.6562 3.5312-8.8281 3.5469-3.1719 9.9375-3.1719 6.3594 0 9.9375 3.1719 3.5938 3.1719 3.5938 8.8281 0 5.6719-3.5938 8.8438-3.5781 3.1719-9.9375 3.1719-6.3906 0-9.9375-3.1719-3.5312-3.1719-3.5312-8.8438z"/>
</defs>
<use xlink:href="#c"/>
<use x="63.623047" xlink:href="#d"/>
<use x="95.410156" xlink:href="#c"/>
<use x="159.033203" xlink:href="#af"/>
</g>
</g>
<g clip-path="url(#a)">
<g transform="translate(738.41 427.03) scale(.1 -.1)">
<defs>
<path id="ae" d="m10.984 1.5156v8.9844q3.7188-1.7656 7.5156-2.6875 3.8125-0.92188 7.4844-0.92188 9.7656 0 14.906 6.5625 5.1562 6.5625 5.8906 19.953-2.8281-4.2031-7.1875-6.4531-4.3438-2.25-9.6094-2.25-10.938 0-17.312 6.6094-6.375 6.625-6.375 18.109 0 11.219 6.6406 18 6.6406 6.7969 17.672 6.7969 12.656 0 19.312-9.7031 6.6719-9.6875 6.6719-28.141 0-17.234-8.1875-27.516-8.1719-10.281-21.984-10.281-3.7188 0-7.5312 0.73438-3.7969 0.73438-7.9062 2.2031zm19.625 30.906q6.6406 0 10.516 4.5312 3.8906 4.5469 3.8906 12.469 0 7.8594-3.8906 12.422-3.875 4.5625-10.516 4.5625t-10.516-4.5625-3.875-12.422q0-7.9219 3.875-12.469 3.875-4.5312 10.516-4.5312z"/>
</defs>
<use xlink:href="#c"/>
<use x="63.623047" xlink:href="#d"/>
<use x="95.410156" xlink:href="#c"/>
<use x="159.033203" xlink:href="#ae"/>
</g>
</g>
<g clip-path="url(#a)">
<g transform="translate(940.95 620.39) scale(.1 -.1)">
<defs>
<path id="ag" d="m31.781 66.406q-7.6094 0-11.453-7.5-3.8281-7.4844-3.8281-22.531 0-14.984 3.8281-22.484 3.8438-7.5 11.453-7.5 7.6719 0 11.5 7.5 3.8438 7.5 3.8438 22.484 0 15.047-3.8438 22.531-3.8281 7.5-11.5 7.5zm0 7.8125q12.266 0 18.734-9.7031 6.4688-9.6875 6.4688-28.141 0-18.406-6.4688-28.109-6.4688-9.6875-18.734-9.6875-12.25 0-18.719 9.6875-6.4688 9.7031-6.4688 28.109 0 18.453 6.4688 28.141 6.4688 9.7031 18.719 9.7031z"/>
</defs>
<use xlink:href="#c"/>
<use x="63.623047" xlink:href="#d"/>
<use x="95.410156" xlink:href="#n"/>
<use x="159.033203" xlink:href="#ag"/>
</g>
</g>
<g clip-path="url(#a)">
<g transform="translate(895.15 427.03) scale(.1 -.1)">
<use xlink:href="#c"/>
<use x="63.623047" xlink:href="#d"/>
<use x="95.410156" xlink:href="#n"/>
<use x="159.033203" xlink:href="#c"/>
</g>
</g>
<g clip-path="url(#a)">
<g transform="translate(1015.4 620.39) scale(.1 -.1)">
<use xlink:href="#c"/>
<use x="63.623047" xlink:href="#d"/>
<use x="95.410156" xlink:href="#n"/>
<use x="159.033203" xlink:href="#p"/>
</g>
</g>
<g clip-path="url(#a)">
<g transform="translate(1216.5 523.96) scale(.1 -.1)">
<use xlink:href="#c"/>
<use x="63.623047" xlink:href="#d"/>
<use x="95.410156" xlink:href="#n"/>
<use x="159.033203" xlink:href="#m"/>
</g>
</g>
<g clip-path="url(#a)">
<g transform="translate(1092.9 620.39) scale(.1 -.1)">
<use xlink:href="#c"/>
<use x="63.623047" xlink:href="#d"/>
<use x="95.410156" xlink:href="#n"/>
<use x="159.033203" xlink:href="#u"/>
</g>
</g>
<g clip-path="url(#a)">
<g transform="translate(1173.3 620.39) scale(.1 -.1)">
<use xlink:href="#c"/>
<use x="63.623047" xlink:href="#d"/>
<use x="95.410156" xlink:href="#n"/>
<use x="159.033203" xlink:href="#aa"/>
</g>
</g>
<g clip-path="url(#a)">
<g transform="translate(613.31 620.39) scale(.1 -.1)">
<use xlink:href="#c"/>
<use x="63.623047" xlink:href="#d"/>
<use x="95.410156" xlink:href="#n"/>
<use x="159.033203" xlink:href="#z"/>
</g>
</g>
<g clip-path="url(#a)">
<g transform="translate(672.88 620.39) scale(.1 -.1)">
<use xlink:href="#c"/>
<use x="63.623047" xlink:href="#d"/>
<use x="95.410156" xlink:href="#n"/>
<use x="159.033203" xlink:href="#af"/>
</g>
</g>
<g clip-path="url(#a)">
<g transform="translate(735.43 620.39) scale(.1 -.1)">
<use xlink:href="#c"/>
<use x="63.623047" xlink:href="#d"/>
<use x="95.410156" xlink:href="#n"/>
<use x="159.033203" xlink:href="#ae"/>
</g>
</g>
<g clip-path="url(#a)">
<g transform="translate(800.96 620.39) scale(.1 -.1)">
<use xlink:href="#c"/>
<use x="63.623047" xlink:href="#d"/>
<use x="95.410156" xlink:href="#p"/>
<use x="159.033203" xlink:href="#ag"/>
</g>
</g>
<g clip-path="url(#a)">
<g transform="translate(869.47 523.96) scale(.1 -.1)">
<use xlink:href="#c"/>
<use x="63.623047" xlink:href="#d"/>
<use x="95.410156" xlink:href="#p"/>
<use x="159.033203" xlink:href="#c"/>
</g>
</g>
<g clip-path="url(#a)">
<g transform="translate(869.47 620.39) scale(.1 -.1)">
<use xlink:href="#c"/>
<use x="63.623047" xlink:href="#d"/>
<use x="95.410156" xlink:href="#p"/>
<use x="159.033203" xlink:href="#n"/>
</g>
</g>
<g clip-path="url(#a)">
<g transform="translate(336.31 523.96) scale(.1 -.1)">
<use xlink:href="#c"/>
<use x="63.623047" xlink:href="#d"/>
<use x="95.410156" xlink:href="#p"/>
<use x="159.033203" xlink:href="#m"/>
</g>
</g>
<g clip-path="url(#a)">
<g transform="translate(462.9 427.03) scale(.1 -.1)">
<use xlink:href="#c"/>
<use x="63.623047" xlink:href="#d"/>
<use x="95.410156" xlink:href="#p"/>
<use x="159.033203" xlink:href="#u"/>
</g>
</g>
<g clip-path="url(#a)">
<g transform="translate(425.67 523.96) scale(.1 -.1)">
<use xlink:href="#c"/>
<use x="63.623047" xlink:href="#d"/>
<use x="95.410156" xlink:href="#p"/>
<use x="159.033203" xlink:href="#aa"/>
</g>
</g>
<g clip-path="url(#a)">
<g transform="translate(500.13 620.39) scale(.1 -.1)">
<use xlink:href="#c"/>
<use x="63.623047" xlink:href="#d"/>
<use x="95.410156" xlink:href="#p"/>
<use x="159.033203" xlink:href="#z"/>
</g>
</g>
<g clip-path="url(#a)">
<g transform="translate(401.84 620.39) scale(.1 -.1)">
<use xlink:href="#c"/>
<use x="63.623047" xlink:href="#d"/>
<use x="95.410156" xlink:href="#p"/>
<use x="159.033203" xlink:href="#af"/>
</g>
</g>
<g clip-path="url(#a)">
<g transform="translate(449.49 620.39) scale(.1 -.1)">
<use xlink:href="#c"/>
<use x="63.623047" xlink:href="#d"/>
<use x="95.410156" xlink:href="#p"/>
<use x="159.033203" xlink:href="#ae"/>
</g>
</g>
<g clip-path="url(#a)">
<g transform="translate(315.46 620.39) scale(.1 -.1)">
<use xlink:href="#c"/>
<use x="63.623047" xlink:href="#d"/>
<use x="95.410156" xlink:href="#m"/>
<use x="159.033203" xlink:href="#ag"/>
</g>
</g>
<g clip-path="url(#a)">
<g transform="translate(357.16 620.39) scale(.1 -.1)">
<use xlink:href="#c"/>
<use x="63.623047" xlink:href="#d"/>
<use x="95.410156" xlink:href="#m"/>
<use x="159.033203" xlink:href="#c"/>
</g>
</g>
<g clip-path="url(#a)">
<g transform="translate(53.352 620.39) scale(.1 -.1)">
<use xlink:href="#c"/>
<use x="63.623047" xlink:href="#d"/>
<use x="95.410156" xlink:href="#m"/>
<use x="159.033203" xlink:href="#n"/>
</g>
</g>
<g clip-path="url(#a)">
<g transform="translate(62.288 620.39) scale(.1 -.1)">
<use xlink:href="#c"/>
<use x="63.623047" xlink:href="#d"/>
<use x="95.410156" xlink:href="#m"/>
<use x="159.033203" xlink:href="#p"/>
</g>
</g>
<g clip-path="url(#a)">
<g transform="translate(74.202 620.39) scale(.1 -.1)">
<use xlink:href="#c"/>
<use x="63.623047" xlink:href="#d"/>
<use x="95.410156" xlink:href="#m"/>
<use x="159.033203" xlink:href="#m"/>
</g>
</g>
<g clip-path="url(#a)">
<g transform="translate(89.094 620.39) scale(.1 -.1)">
<use xlink:href="#c"/>
<use x="63.623047" xlink:href="#d"/>
<use x="95.410156" xlink:href="#m"/>
<use x="159.033203" xlink:href="#u"/>
</g>
</g>
<g clip-path="url(#a)">
<g transform="translate(106.97 620.39) scale(.1 -.1)">
<use xlink:href="#c"/>
<use x="63.623047" xlink:href="#d"/>
<use x="95.410156" xlink:href="#m"/>
<use x="159.033203" xlink:href="#aa"/>
</g>
</g>
<g clip-path="url(#a)">
<g transform="translate(208.23 620.39) scale(.1 -.1)">
<use xlink:href="#c"/>
<use x="63.623047" xlink:href="#d"/>
<use x="95.410156" xlink:href="#m"/>
<use x="159.033203" xlink:href="#z"/>
</g>
</g>
<g clip-path="url(#a)">
<g transform="translate(241 620.39) scale(.1 -.1)">
<use xlink:href="#c"/>
<use x="63.623047" xlink:href="#d"/>
<use x="95.410156" xlink:href="#m"/>
<use x="159.033203" xlink:href="#af"/>
</g>
</g>
<g clip-path="url(#a)">
<g transform="translate(556.72 620.39) scale(.1 -.1)">
<use xlink:href="#c"/>
<use x="63.623047" xlink:href="#d"/>
<use x="95.410156" xlink:href="#m"/>
<use x="159.033203" xlink:href="#ae"/>
</g>
</g>
<g clip-path="url(#a)">
<g transform="translate(1256.7 620.39) scale(.1 -.1)">
<use xlink:href="#c"/>
<use x="63.623047" xlink:href="#d"/>
<use x="95.410156" xlink:href="#u"/>
<use x="159.033203" xlink:href="#ag"/>
</g>
</g>
<g clip-path="url(#a)">
<g transform="translate(1343 620.39) scale(.1 -.1)">
<use xlink:href="#c"/>
<use x="63.623047" xlink:href="#d"/>
<use x="95.410156" xlink:href="#u"/>
<use x="159.033203" xlink:href="#c"/>
</g>
</g>
<defs>
<clipPath id="a">
<rect width="1418.7" height="746.67"/>
</clipPath>
</defs>
</svg>
