<?xml version="1.0" encoding="UTF-8"?>
<!DOCTYPE svg  PUBLIC '-//W3C//DTD SVG 1.1//EN'  'http://www.w3.org/Graphics/SVG/1.1/DTD/svg11.dtd'>
<svg width="1672pt" height="880pt" version="1.1" viewBox="0 0 1672 880" xmlns="http://www.w3.org/2000/svg" xmlns:xlink="http://www.w3.org/1999/xlink">
<metadata>
<rdf:RDF xmlns:cc="http://creativecommons.org/ns#" xmlns:dc="http://purl.org/dc/elements/1.1/" xmlns:rdf="http://www.w3.org/1999/02/22-rdf-syntax-ns#">
<cc:Work>
<dc:type rdf:resource="http://purl.org/dc/dcmitype/StillImage"/>
<dc:date>2021-01-13T08:49:46.572421</dc:date>
<dc:format>image/svg+xml</dc:format>
<dc:creator>
<cc:Agent>
<dc:title>Matplotlib v3.3.3, https://matplotlib.org/</dc:title>
</cc:Agent>
</dc:creator>
</cc:Work>
</rdf:RDF>
</metadata>
<defs>
<style type="text/css">*{stroke-linecap:butt;stroke-linejoin:round;}</style>
</defs>
<path d="m0 880h1672v-880h-1672z" fill="#fff"/>
<g fill="none" stroke="#000">
<path d="m228.07 40v115.34" clip-path="url(#a)"/>
<path d="m228.07 155.34 314.17 115.15" clip-path="url(#a)"/>
<path d="m228.07 155.34-67.34 572.57" clip-path="url(#a)"/>
<path d="m228.07 155.34-44.232 572.57" clip-path="url(#a)"/>
<path d="m228.07 155.34-105.85 572.57" clip-path="url(#a)"/>
<path d="m228.07 155.34-87.88 572.57" clip-path="url(#a)"/>
<path d="m228.07 155.34-18.556 572.57" clip-path="url(#a)"/>
<path d="m228.07 155.34 9.6873 572.57" clip-path="url(#a)"/>
<path d="m542.24 270.49-455.54 229.54" clip-path="url(#a)"/>
<path d="m542.24 270.49-273.68 457.43" clip-path="url(#a)"/>
<path d="m542.24 270.49-261.48 343.78" clip-path="url(#a)"/>
<path d="m542.24 270.49 25.981 114.92" clip-path="url(#a)"/>
<path d="m542.24 270.49 662.2 229.54" clip-path="url(#a)"/>
<path d="m542.24 270.49-124.76 457.43" clip-path="url(#a)"/>
<path d="m542.24 270.49 427.27 457.43" clip-path="url(#a)"/>
<path d="m160.73 727.92v112.08" clip-path="url(#a)"/>
<path d="m183.84 727.92v112.08" clip-path="url(#a)"/>
<path d="m86.698 500.04-10.698 227.88" clip-path="url(#a)"/>
<path d="m86.698 500.04-2.9955 227.88" clip-path="url(#a)"/>
<path d="m86.698 500.04 13.694 114.24" clip-path="url(#a)"/>
<path d="m268.57 727.92v112.08" clip-path="url(#a)"/>
<path d="m280.76 614.27 21.182 113.64" clip-path="url(#a)"/>
<path d="m280.76 614.27 57.128 113.64" clip-path="url(#a)"/>
<path d="m280.76 614.27 95.642 113.64" clip-path="url(#a)"/>
<path d="m280.76 614.27-173.95 113.64" clip-path="url(#a)" stroke-dasharray="3.7,1.6"/>
<path d="m568.22 385.41-107.09 342.51" clip-path="url(#a)"/>
<path d="m568.22 385.41-60.873 342.51" clip-path="url(#a)"/>
<path d="m568.22 385.41 13.587 228.87" clip-path="url(#a)"/>
<path d="m568.22 385.41 154.38 114.63" clip-path="url(#a)"/>
<path d="m1204.4 500.04-165.61 227.88" clip-path="url(#a)"/>
<path d="m1204.4 500.04-56.486 114.24" clip-path="url(#a)"/>
<path d="m1204.4 500.04 222.09 114.24" clip-path="url(#a)"/>
<path d="m1038.8 727.92v112.08" clip-path="url(#a)"/>
<path d="m1148 614.27-37.23 113.64" clip-path="url(#a)"/>
<path d="m1148 614.27 37.23 113.64" clip-path="url(#a)"/>
<path d="m1426.5 614.27-164.32 113.64" clip-path="url(#a)"/>
<path d="m1426.5 614.27-84.73 113.64" clip-path="url(#a)"/>
<path d="m1426.5 614.27-2.5676 113.64" clip-path="url(#a)"/>
<path d="m1426.5 614.27 82.162 113.64" clip-path="url(#a)"/>
<path d="m1426.5 614.27 169.46 113.64" clip-path="url(#a)"/>
<path d="m1262.2 727.92v112.08" clip-path="url(#a)"/>
<path d="m1341.8 727.92v112.08" clip-path="url(#a)"/>
<path d="m1424 727.92v112.08" clip-path="url(#a)"/>
<path d="m1110.7 727.92v112.08" clip-path="url(#a)"/>
<path d="m1185.2 727.92v112.08" clip-path="url(#a)"/>
<path d="m461.14 727.92v112.08" clip-path="url(#a)"/>
<path d="m507.35 727.92v112.08" clip-path="url(#a)"/>
<path d="m581.81 614.27-25.676 113.64" clip-path="url(#a)"/>
<path d="m581.81 614.27 25.676 113.64" clip-path="url(#a)"/>
<path d="m722.6 500.04-61.194 227.88" clip-path="url(#a)"/>
<path d="m722.6 500.04-4.7072 227.88" clip-path="url(#a)"/>
<path d="m722.6 500.04 11.554 114.24" clip-path="url(#a)"/>
<path d="m722.6 500.04 54.347 227.88" clip-path="url(#a)"/>
<path d="m661.41 727.92v112.08" clip-path="url(#a)"/>
<path d="m717.89 727.92v112.08" clip-path="url(#a)"/>
<path d="m734.15 614.27-273.02 113.64" clip-path="url(#a)" stroke-dasharray="3.7,1.6"/>
<path d="m734.15 614.27 104.41 113.64" clip-path="url(#a)"/>
<path d="m734.15 614.27 168.6 113.64" clip-path="url(#a)"/>
<path d="m838.57 727.92v112.08" clip-path="url(#a)"/>
<path d="m902.76 727.92v112.08" clip-path="url(#a)"/>
<path d="m556.14 727.92v112.08" clip-path="url(#a)"/>
<path d="m607.49 727.92v112.08" clip-path="url(#a)"/>
<path d="m301.95 727.92v112.08" clip-path="url(#a)"/>
<path d="m337.89 727.92v112.08" clip-path="url(#a)"/>
<path d="m376.41 727.92v112.08" clip-path="url(#a)"/>
<path d="m76 727.92v112.08" clip-path="url(#a)"/>
<path d="m83.703 727.92v112.08" clip-path="url(#a)"/>
<path d="m100.39 614.27-6.4189 113.64" clip-path="url(#a)"/>
<path d="m100.39 614.27 6.4189 113.64" clip-path="url(#a)"/>
<path d="m93.973 727.92v112.08" clip-path="url(#a)"/>
<path d="m106.81 727.92v112.08" clip-path="url(#a)"/>
<path d="m122.22 727.92v112.08" clip-path="url(#a)"/>
<path d="m140.19 727.92v112.08" clip-path="url(#a)"/>
<path d="m209.51 727.92v112.08" clip-path="url(#a)"/>
<path d="m237.76 727.92v112.08" clip-path="url(#a)"/>
<path d="m417.49 727.92v112.08" clip-path="url(#a)"/>
<path d="m776.95 727.92v112.08" clip-path="url(#a)"/>
<path d="m969.51 727.92v112.08" clip-path="url(#a)"/>
<path d="m1508.7 727.92v112.08" clip-path="url(#a)"/>
<path d="m1596 727.92v112.08" clip-path="url(#a)"/>
</g>
<path d="m221.8 94.663v6.0162q0 2.4 2.4 2.4h7.7425q2.4 0 2.4-2.4v-6.0162q0-2.4-2.4-2.4h-7.7425q-2.4 0-2.4 2.4z" clip-path="url(#a)" fill="#fff" stroke="#fff"/>
<g clip-path="url(#a)">
<g transform="translate(225.86 94.663) rotate(90) scale(.08 -.08)">
<defs>
<path id="z" d="m9.8125 72.906h9.8594v-29.891h35.844v29.891h9.8594v-72.906h-9.8594v34.719h-35.844v-34.719h-9.8594z"/>
</defs>
<use xlink:href="#z"/>
</g>
</g>
<path d="m380.43 217.86 5.1383 1.8832q2.2534 0.82591 3.0793-1.4275l2.6644-7.2696q0.82591-2.2534-1.4275-3.0793l-5.1383-1.8832q-2.2534-0.82591-3.0793 1.4275l-2.6644 7.2696q-0.82591 2.2534 1.4275 3.0793z" clip-path="url(#a)" fill="#fff" stroke="#fff"/>
<g clip-path="url(#a)">
<g transform="translate(381.83 214.05) rotate(20.129) scale(.08 -.08)">
<defs>
<path id="p" d="m34.188 63.188-13.391-36.281h26.812zm-5.5781 9.7188h11.188l27.781-72.906h-10.25l-6.6406 18.703h-32.859l-6.6406-18.703h-10.406z"/>
</defs>
<use xlink:href="#p"/>
</g>
</g>
<path d="m200.35 444.76 0.56343-4.7907q0.28033-2.3836-2.1032-2.6639l-7.6895-0.90435q-2.3836-0.28033-2.6639 2.1032l-0.56343 4.7907q-0.28033 2.3836 2.1032 2.6639l7.6895 0.90435q2.3836 0.28033 2.6639-2.1032z" clip-path="url(#a)" fill="#fff" stroke="#fff"/>
<g clip-path="url(#a)">
<g transform="translate(196.31 444.28) rotate(-83.292) scale(.08 -.08)">
<defs>
<path id="af" d="m19.672 64.797v-27.391h12.406q6.8906 0 10.641 3.5625 3.7656 3.5625 3.7656 10.156 0 6.5469-3.7656 10.109-3.75 3.5625-10.641 3.5625zm-9.8594 8.1094h22.266q12.266 0 18.531-5.5469 6.2812-5.5469 6.2812-16.234 0-10.797-6.2812-16.312-6.2656-5.5156-18.531-5.5156h-12.406v-29.297h-9.8594z"/>
</defs>
<use xlink:href="#af"/>
</g>
</g>
<path d="m212 444.84 0.4215-5.4562q0.18485-2.3929-2.208-2.5777l-7.7195-0.59633q-2.3929-0.18485-2.5777 2.208l-0.4215 5.4562q-0.18485 2.3929 2.208 2.5777l7.7195 0.59633q2.3929 0.18485 2.5777-2.208z" clip-path="url(#a)" fill="#fff" stroke="#fff"/>
<g clip-path="url(#a)">
<g transform="translate(207.94 444.53) rotate(-85.583) scale(.08 -.08)">
<use xlink:href="#p"/>
</g>
</g>
<path d="m180.78 445.65 1.0644-5.7574q0.4363-2.36-1.9237-2.7963l-7.6135-1.4075q-2.36-0.4363-2.7963 1.9237l-1.0644 5.7574q-0.4363 2.36 1.9237 2.7963l7.6135 1.4075q2.36 0.4363 2.7963-1.9237z" clip-path="url(#a)" fill="#fff" stroke="#fff"/>
<g clip-path="url(#a)">
<g transform="translate(176.78 444.91) rotate(-79.526) scale(.08 -.08)">
<defs>
<path id="r" d="m8.6875 72.906h9.9219v-44.297q0-11.719 4.2344-16.875 4.25-5.1406 13.781-5.1406 9.4688 0 13.719 5.1406 4.25 5.1562 4.25 16.875v44.297h9.9062v-45.516q0-14.25-7.0625-21.531-7.0469-7.2812-20.812-7.2812-13.828 0-20.891 7.2812-7.0469 7.2812-7.0469 21.531z"/>
</defs>
<use xlink:href="#r"/>
</g>
</g>
<path d="m189.88 445.47 0.88824-5.7872q0.3641-2.3722-2.0081-2.7363l-7.6529-1.1746q-2.3722-0.36409-2.7363 2.0081l-0.88824 5.7872q-0.36409 2.3722 2.0081 2.7363l7.6529 1.1746q2.3722 0.3641 2.7363-2.0081z" clip-path="url(#a)" fill="#fff" stroke="#fff"/>
<g clip-path="url(#a)">
<g transform="translate(185.87 444.86) rotate(-81.274) scale(.08 -.08)">
<use xlink:href="#r"/>
</g>
</g>
<path d="m224.96 444.76 0.18965-5.8519q0.077738-2.3987-2.321-2.4765l-7.7384-0.25079q-2.3987-0.077738-2.4765 2.321l-0.18965 5.8519q-0.077738 2.3987 2.321 2.4765l7.7384 0.25079q2.3987 0.077738 2.4765-2.321z" clip-path="url(#a)" fill="#fff" stroke="#fff"/>
<g clip-path="url(#a)">
<g transform="translate(220.9 444.63) rotate(-88.144) scale(.08 -.08)">
<use xlink:href="#r"/>
</g>
</g>
<path d="m226.59 438.81 0.099046 5.8542q0.0406 2.3997 2.4403 2.3591l7.7414-0.13098q2.3997-0.0406 2.3591-2.4403l-0.099046-5.8542q-0.0406-2.3997-2.4403-2.3591l-7.7414 0.13098q-2.3997 0.0406-2.3591 2.4403z" clip-path="url(#a)" fill="#fff" stroke="#fff"/>
<g clip-path="url(#a)">
<g transform="translate(230.66 438.74) rotate(89.031) scale(.08 -.08)">
<use xlink:href="#r"/>
</g>
</g>
<path d="m314.61 392.22 5.3727-2.7073q2.1433-1.08 1.0633-3.2233l-3.4841-6.9143q-1.08-2.1433-3.2233-1.0633l-5.3727 2.7073q-2.1433 1.08-1.0633 3.2233l3.4841 6.9143q1.08 2.1433 3.2233 1.0633z" clip-path="url(#a)" fill="#fff" stroke="#fff"/>
<g clip-path="url(#a)">
<g transform="translate(312.78 388.59) rotate(-26.743) scale(.08 -.08)">
<use xlink:href="#z"/>
</g>
</g>
<path d="m409.64 504.34 2.2886-3.8252q1.2322-2.0595-0.82733-3.2917l-6.6441-3.9751q-2.0595-1.2322-3.2917 0.82732l-2.2886 3.8252q-1.2322 2.0595 0.82733 3.2917l6.6441 3.9751q2.0595 1.2322 3.2917-0.82732z" clip-path="url(#a)" fill="#fff" stroke="#fff"/>
<g clip-path="url(#a)">
<g transform="translate(406.16 502.25) rotate(-59.108) scale(.08 -.08)">
<defs>
<path id="az" d="m9.8125 72.906h9.8594v-64.609h35.5v-8.2969h-45.359z"/>
</defs>
<use xlink:href="#az"/>
</g>
</g>
<path d="m414.67 448.57 3.6421-4.7885q1.4529-1.9102-0.45732-3.3632l-6.1625-4.6872q-1.9102-1.4529-3.3632 0.45732l-3.6421 4.7885q-1.4529 1.9102 0.45732 3.3632l6.1625 4.6872q1.9102 1.4529 3.3632-0.45732z" clip-path="url(#a)" fill="#fff" stroke="#fff"/>
<g clip-path="url(#a)">
<g transform="translate(411.44 446.11) rotate(-52.744) scale(.08 -.08)">
<use xlink:href="#z"/>
</g>
</g>
<path d="m548.45 326.4 1.3267 5.8681q0.52925 2.3409 2.8702 1.8117l7.5519-1.7074q2.3409-0.52925 1.8117-2.8702l-1.3267-5.8681q-0.52925-2.3409-2.8702-1.8117l-7.5519 1.7074q-2.3409 0.52925-1.8117 2.8702z" clip-path="url(#a)" fill="#fff" stroke="#fff"/>
<g clip-path="url(#a)">
<g transform="translate(552.42 325.5) rotate(77.26) scale(.08 -.08)">
<use xlink:href="#z"/>
</g>
</g>
<path d="m868.45 390.2 5.6844 1.9704q2.2676 0.78604 3.0537-1.4816l2.5358-7.3155q0.78604-2.2676-1.4816-3.0537l-5.6844-1.9704q-2.2676-0.78604-3.0537 1.4816l-2.5358 7.3155q-0.78605 2.2676 1.4816 3.0537z" clip-path="url(#a)" fill="#fff" stroke="#fff"/>
<g clip-path="url(#a)">
<g transform="translate(869.78 386.36) rotate(19.118) scale(.08 -.08)">
<use xlink:href="#z"/>
</g>
</g>
<path d="m485.14 503.68 1.5406-5.6487q0.6315-2.3154-1.6839-2.9469l-7.4697-2.0372q-2.3154-0.6315-2.9469 1.6839l-1.5406 5.6487q-0.6315 2.3154 1.6839 2.9469l7.4697 2.0372q2.3154 0.6315 2.9469-1.6839z" clip-path="url(#a)" fill="#fff" stroke="#fff"/>
<g clip-path="url(#a)">
<g transform="translate(481.22 502.61) rotate(-74.744) scale(.08 -.08)">
<use xlink:href="#r"/>
</g>
</g>
<path d="m749.3 501.35 3.9967 4.2787q1.6383 1.7539 3.3921 0.11562l5.6581-5.2851q1.7539-1.6383 0.11562-3.3921l-3.9967-4.2787q-1.6383-1.7539-3.3921-0.11562l-5.6581 5.2851q-1.7539 1.6383-0.11562 3.3921z" clip-path="url(#a)" fill="#fff" stroke="#fff"/>
<g clip-path="url(#a)">
<g transform="translate(752.27 498.57) rotate(46.952) scale(.08 -.08)">
<use xlink:href="#r"/>
</g>
</g>
<path d="m154.46 767.05v33.808q0 2.4 2.4 2.4h7.7425q2.4 0 2.4-2.4v-33.808q0-2.4-2.4-2.4h-7.7425q-2.4 0-2.4 2.4z" clip-path="url(#a)" fill="#fff" stroke="#fff"/>
<g clip-path="url(#a)">
<g transform="translate(158.52 767.05) rotate(90) scale(.08 -.08)">
<defs>
<path id="f" d="m-0.29688 72.906h61.672v-8.3125h-25.875v-64.594h-9.9062v64.594h-25.891z"/>
<path id="l" d="m56.203 29.594v-4.3906h-41.312q0.59375-9.2812 5.5938-14.141t13.938-4.8594q5.1719 0 10.031 1.2656t9.6562 3.8125v-8.5q-4.8438-2.0469-9.9219-3.125t-10.297-1.0781q-13.094 0-20.734 7.6094-7.6406 7.625-7.6406 20.625 0 13.422 7.25 21.297 7.25 7.8906 19.562 7.8906 11.031 0 17.453-7.1094 6.4219-7.0938 6.4219-19.297zm-8.9844 2.6406q-0.09375 7.3594-4.125 11.75-4.0312 4.4062-10.672 4.4062-7.5156 0-12.031-4.25t-5.2031-11.969z"/>
<path id="g" d="m41.109 46.297q-1.5156 0.875-3.2969 1.2812-1.7812 0.42188-3.9219 0.42188-7.625 0-11.703-4.9531t-4.0781-14.234v-28.812h-9.0312v54.688h9.0312v-8.5q2.8438 4.9844 7.375 7.3906 4.5469 2.4219 11.047 2.4219 0.92188 0 2.0469-0.125 1.125-0.10938 2.4844-0.35938z"/>
<path id="i" d="m52 44.188q3.375 6.0625 8.0625 8.9375t11.031 2.875q8.5469 0 13.188-5.9844 4.6406-5.9688 4.6406-17v-33.016h-9.0312v32.719q0 7.8594-2.7969 11.656-2.7812 3.8125-8.4844 3.8125-6.9844 0-11.047-4.6406-4.0469-4.625-4.0469-12.641v-30.906h-9.0312v32.719q0 7.9062-2.7812 11.688t-8.5938 3.7812q-6.8906 0-10.953-4.6562-4.0469-4.6562-4.0469-12.625v-30.906h-9.0312v54.688h9.0312v-8.5q3.0781 5.0312 7.375 7.4219t10.203 2.3906q5.9688 0 10.141-3.0312 4.1719-3.0156 6.1719-8.7812z"/>
<path id="k" d="m9.4219 54.688h8.9844v-54.688h-8.9844zm0 21.297h8.9844v-11.391h-8.9844z"/>
<path id="h" d="m54.891 33.016v-33.016h-8.9844v32.719q0 7.7656-3.0312 11.609-3.0312 3.8594-9.0781 3.8594-7.2812 0-11.484-4.6406-4.2031-4.625-4.2031-12.641v-30.906h-9.0312v54.688h9.0312v-8.5q3.2344 4.9375 7.5938 7.375 4.375 2.4375 10.094 2.4375 9.4219 0 14.25-5.8281 4.8438-5.8281 4.8438-17.156z"/>
<path id="e" d="m34.281 27.484q-10.891 0-15.094-2.4844t-4.2031-8.5q0-4.7812 3.1562-7.5938 3.1562-2.7969 8.5625-2.7969 7.4844 0 12 5.2969t4.5156 14.078v2zm17.922 3.7188v-31.203h-8.9844v8.2969q-3.0781-4.9688-7.6719-7.3438t-11.234-2.375q-8.3906 0-13.359 4.7188-4.9531 4.7188-4.9531 12.625 0 9.2188 6.1719 13.906 6.1875 4.6875 18.438 4.6875h12.609v0.89062q0 6.2031-4.0781 9.5938t-11.453 3.3906q-4.6875 0-9.1406-1.125-4.4375-1.125-8.5312-3.375v8.3125q4.9219 1.9062 9.5625 2.8438 4.6406 0.95312 9.0312 0.95312 11.875 0 17.734-6.1562 5.8594-6.1406 5.8594-18.641z"/>
<path id="j" d="m9.4219 75.984h8.9844v-75.984h-8.9844z"/>
</defs>
<use xlink:href="#f"/>
<use x="44.083984" xlink:href="#l"/>
<use x="105.607422" xlink:href="#g"/>
<use x="144.970703" xlink:href="#i"/>
<use x="242.382812" xlink:href="#k"/>
<use x="270.166016" xlink:href="#h"/>
<use x="333.544922" xlink:href="#e"/>
<use x="394.824219" xlink:href="#j"/>
</g>
</g>
<path d="m177.57 767.05v33.808q0 2.4 2.4 2.4h7.7425q2.4 0 2.4-2.4v-33.808q0-2.4-2.4-2.4h-7.7425q-2.4 0-2.4 2.4z" clip-path="url(#a)" fill="#fff" stroke="#fff"/>
<g clip-path="url(#a)">
<g transform="translate(181.63 767.05) rotate(90) scale(.08 -.08)">
<use xlink:href="#f"/>
<use x="44.083984" xlink:href="#l"/>
<use x="105.607422" xlink:href="#g"/>
<use x="144.970703" xlink:href="#i"/>
<use x="242.382812" xlink:href="#k"/>
<use x="270.166016" xlink:href="#h"/>
<use x="333.544922" xlink:href="#e"/>
<use x="394.824219" xlink:href="#j"/>
</g>
</g>
<path d="m87.485 617 0.25663-5.4665q0.11255-2.3974-2.2848-2.5099l-7.734-0.36308q-2.3974-0.11255-2.5099 2.2848l-0.25663 5.4665q-0.11255 2.3974 2.2848 2.5099l7.734 0.36308q2.3974 0.11255 2.5099-2.2848z" clip-path="url(#a)" fill="#fff" stroke="#fff"/>
<g clip-path="url(#a)">
<g transform="translate(83.426 616.81) rotate(-87.312) scale(.08 -.08)">
<use xlink:href="#p"/>
</g>
</g>
<path d="m91.439 616.47 0.063403-4.8233q0.031545-2.3998-2.3682-2.4313l-7.7418-0.10177q-2.3998-0.031545-2.4313 2.3682l-0.063403 4.8233q-0.031545 2.3998 2.3682 2.4313l7.7418 0.10177q2.3998 0.031545 2.4313-2.3682z" clip-path="url(#a)" fill="#fff" stroke="#fff"/>
<g clip-path="url(#a)">
<g transform="translate(87.376 616.42) rotate(-89.247) scale(.08 -.08)">
<use xlink:href="#af"/>
</g>
</g>
<path d="m86.993 555.18 0.65132 5.4336q0.28564 2.3829 2.6686 2.0973l7.6875-0.92149q2.3829-0.28564 2.0973-2.6686l-0.65132-5.4336q-0.28564-2.3829-2.6686-2.0973l-7.6875 0.92149q-2.3829 0.28564-2.0973 2.6686z" clip-path="url(#a)" fill="#fff" stroke="#fff"/>
<g clip-path="url(#a)">
<g transform="translate(91.028 554.7) rotate(83.165) scale(.08 -.08)">
<use xlink:href="#p"/>
</g>
</g>
<path d="m262.3 767.05v33.808q0 2.4 2.4 2.4h7.7425q2.4 0 2.4-2.4v-33.808q0-2.4-2.4-2.4h-7.7425q-2.4 0-2.4 2.4z" clip-path="url(#a)" fill="#fff" stroke="#fff"/>
<g clip-path="url(#a)">
<g transform="translate(266.36 767.05) rotate(90) scale(.08 -.08)">
<use xlink:href="#f"/>
<use x="44.083984" xlink:href="#l"/>
<use x="105.607422" xlink:href="#g"/>
<use x="144.970703" xlink:href="#i"/>
<use x="242.382812" xlink:href="#k"/>
<use x="270.166016" xlink:href="#h"/>
<use x="333.544922" xlink:href="#e"/>
<use x="394.824219" xlink:href="#j"/>
</g>
</g>
<path d="m284.69 669.55 1.0028 5.3798q0.43977 2.3594 2.7991 1.9196l7.6114-1.4187q2.3594-0.43977 1.9196-2.7991l-1.0028-5.3798q-0.43977-2.3594-2.7991-1.9196l-7.6114 1.4187q-2.3594 0.43978-1.9196 2.7991z" clip-path="url(#a)" fill="#fff" stroke="#fff"/>
<g clip-path="url(#a)">
<g transform="translate(288.68 668.81) rotate(79.442) scale(.08 -.08)">
<use xlink:href="#p"/>
</g>
</g>
<path d="m302.34 671.16 2.7667 5.5037q1.0779 2.1443 3.2222 1.0664l6.9176-3.4775q2.1443-1.0779 1.0664-3.2222l-2.7667-5.5037q-1.0779-2.1443-3.2222-1.0664l-6.9176 3.4775q-2.1443 1.0779-1.0664 3.2222z" clip-path="url(#a)" fill="#fff" stroke="#fff"/>
<g clip-path="url(#a)">
<g transform="translate(305.97 669.34) rotate(63.311) scale(.08 -.08)">
<defs>
<path id="as" d="m19.672 64.797v-56.688h11.922q15.094 0 22.094 6.8281 7 6.8438 7 21.594 0 14.641-7 21.453t-22.094 6.8125zm-9.8594 8.1094h20.266q21.188 0 31.094-8.8125 9.9219-8.8125 9.9219-27.562 0-18.859-9.9688-27.703-9.9531-8.8281-31.047-8.8281h-20.266z"/>
</defs>
<use xlink:href="#as"/>
</g>
</g>
<path d="m322.23 673.29 3.1061 3.6907q1.5454 1.8362 3.3816 0.29086l5.9238-4.9855q1.8362-1.5454 0.29086-3.3816l-3.1061-3.6907q-1.5454-1.8362-3.3816-0.29086l-5.9238 4.9855q-1.8362 1.5454-0.29086 3.3816z" clip-path="url(#a)" fill="#fff" stroke="#fff"/>
<g clip-path="url(#a)">
<g transform="translate(325.34 670.67) rotate(49.916) scale(.08 -.08)">
<use xlink:href="#af"/>
</g>
</g>
<path d="m194.93 677.84 4.5815-2.9931q2.0092-1.3126 0.69661-3.3219l-4.2346-6.4819q-1.3126-2.0092-3.3219-0.69661l-4.5815 2.9931q-2.0092 1.3126-0.69661 3.3219l4.2346 6.4819q1.3126 2.0092 3.3219 0.69661z" clip-path="url(#a)" fill="#fff" stroke="#fff"/>
<g clip-path="url(#a)">
<g transform="translate(192.7 674.44) rotate(-33.156) scale(.08 -.08)">
<use xlink:href="#p"/>
</g>
</g>
<path d="m519.85 561.15 1.6331-5.2232q0.7162-2.2906-1.5745-3.0068l-7.3897-2.3105q-2.2906-0.7162-3.0068 1.5745l-1.6331 5.2232q-0.7162 2.2906 1.5745 3.0068l7.3897 2.3105q2.2906 0.7162 3.0068-1.5745z" clip-path="url(#a)" fill="#fff" stroke="#fff"/>
<g clip-path="url(#a)">
<g transform="translate(515.97 559.93) rotate(-72.638) scale(.08 -.08)">
<use xlink:href="#p"/>
</g>
</g>
<path d="m543.42 560.79 1.0779-6.065q0.41996-2.363-1.943-2.7829l-7.623-1.3548q-2.363-0.41996-2.7829 1.943l-1.0779 6.065q-0.41996 2.363 1.943 2.7829l7.623 1.3548q2.363 0.41996 2.7829-1.943z" clip-path="url(#a)" fill="#fff" stroke="#fff"/>
<g clip-path="url(#a)">
<g transform="translate(539.42 560.08) rotate(-79.922) scale(.08 -.08)">
<use xlink:href="#as"/>
</g>
</g>
<path d="m568.61 497.68 0.30097 5.0698q0.14223 2.3958 2.538 2.2536l7.7289-0.45883q2.3958-0.14223 2.2536-2.538l-0.30097-5.0698q-0.14223-2.3958-2.538-2.2536l-7.7289 0.45883q-2.3958 0.14223-2.2536 2.538z" clip-path="url(#a)" fill="#fff" stroke="#fff"/>
<g clip-path="url(#a)">
<g transform="translate(572.66 497.44) rotate(86.603) scale(.08 -.08)">
<defs>
<path id="ar" d="m53.516 70.516v-9.625q-5.6094 2.6875-10.594 4-4.9844 1.3281-9.625 1.3281-8.0469 0-12.422-3.125t-4.375-8.8906q0-4.8438 2.9062-7.3125 2.9062-2.4531 11.016-3.9688l5.9531-1.2188q11.031-2.1094 16.281-7.4062t5.25-14.172q0-10.609-7.1094-16.078-7.0938-5.4688-20.812-5.4688-5.1719 0-11.016 1.1719-5.8281 1.1719-12.078 3.4688v10.156q6-3.3594 11.766-5.0781 5.7656-1.7031 11.328-1.7031 8.4375 0 13.031 3.3125 4.5938 3.3281 4.5938 9.4844 0 5.3594-3.2969 8.3906t-10.812 4.5469l-6.0156 1.1719q-11.031 2.1875-15.969 6.875-4.9219 4.6875-4.9219 13.047 0 9.6719 6.8125 15.234t18.766 5.5625q5.1406 0 10.453-0.9375 5.3281-0.92188 10.891-2.7656z"/>
</defs>
<use xlink:href="#ar"/>
</g>
</g>
<path d="m639.48 446.13 4.3937 3.2624q1.9269 1.4308 3.3577-0.49612l4.6157-6.2162q1.4308-1.9269-0.49613-3.3577l-4.3937-3.2624q-1.9269-1.4308-3.3577 0.49613l-4.6157 6.2162q-1.4308 1.9269 0.49613 3.3577z" clip-path="url(#a)" fill="#fff" stroke="#fff"/>
<g clip-path="url(#a)">
<g transform="translate(641.9 442.86) rotate(36.595) scale(.08 -.08)">
<use xlink:href="#p"/>
</g>
</g>
<path d="m1125.1 619.88 3.2172-4.427q1.4109-1.9415-0.53054-3.3524l-6.2633-4.5517q-1.9415-1.4109-3.3524 0.53054l-3.2172 4.427q-1.4109 1.9415 0.53054 3.3524l6.2633 4.5517q1.9415 1.4109 3.3524-0.53054z" clip-path="url(#a)" fill="#fff" stroke="#fff"/>
<g clip-path="url(#a)">
<g transform="translate(1121.8 617.49) rotate(-53.993) scale(.08 -.08)">
<use xlink:href="#p"/>
</g>
</g>
<path d="m1180.7 562.21 2.2511-4.5526q1.0638-2.1514-1.0876-3.2151l-6.9404-3.4318q-2.1514-1.0638-3.2151 1.0876l-2.2511 4.5526q-1.0638 2.1514 1.0876 3.2151l6.9404 3.4318q2.1514 1.0638 3.2151-1.0876z" clip-path="url(#a)" fill="#fff" stroke="#fff"/>
<g clip-path="url(#a)">
<g transform="translate(1177.1 560.41) rotate(-63.689) scale(.08 -.08)">
<use xlink:href="#ar"/>
</g>
</g>
<path d="m1310.2 561.48 4.8665 2.5032q2.1342 1.0978 3.232-1.0364l3.5415-6.8851q1.0978-2.1342-1.0364-3.232l-4.8665-2.5032q-2.1342-1.0978-3.232 1.0364l-3.5415 6.8851q-1.0978 2.1342 1.0364 3.232z" clip-path="url(#a)" fill="#fff" stroke="#fff"/>
<g clip-path="url(#a)">
<g transform="translate(1312.1 557.87) rotate(27.22) scale(.08 -.08)">
<use xlink:href="#p"/>
</g>
</g>
<path d="m1032.6 767.05v33.808q0 2.4 2.4 2.4h7.7425q2.4 0 2.4-2.4v-33.808q0-2.4-2.4-2.4h-7.7425q-2.4 0-2.4 2.4z" clip-path="url(#a)" fill="#fff" stroke="#fff"/>
<g clip-path="url(#a)">
<g transform="translate(1036.6 767.05) rotate(90) scale(.08 -.08)">
<use xlink:href="#f"/>
<use x="44.083984" xlink:href="#l"/>
<use x="105.607422" xlink:href="#g"/>
<use x="144.970703" xlink:href="#i"/>
<use x="242.382812" xlink:href="#k"/>
<use x="270.166016" xlink:href="#h"/>
<use x="333.544922" xlink:href="#e"/>
<use x="394.824219" xlink:href="#j"/>
</g>
</g>
<path d="m1134.4 675.69 1.7306-5.2825q0.74718-2.2807-1.5336-3.0279l-7.3577-2.4104q-2.2807-0.74718-3.0279 1.5336l-1.7306 5.2825q-0.74718 2.2807 1.5336 3.0279l7.3577 2.4104q2.2807 0.74718 3.0279-1.5336z" clip-path="url(#a)" fill="#fff" stroke="#fff"/>
<g clip-path="url(#a)">
<g transform="translate(1130.6 674.42) rotate(-71.861) scale(.08 -.08)">
<defs>
<path id="ae" d="m44.391 34.188q3.1719-1.0781 6.1719-4.5938t6.0312-9.6719l10.016-19.922h-10.609l-9.3125 18.703q-3.625 7.3281-7.0156 9.7188t-9.25 2.3906h-10.75v-30.812h-9.8594v72.906h22.266q12.5 0 18.656-5.2344 6.1562-5.2188 6.1562-15.766 0-6.8906-3.2031-11.438-3.2031-4.5312-9.2969-6.2812zm-24.719 30.609v-25.875h12.406q7.125 0 10.766 3.2969t3.6406 9.6875-3.6406 9.6406-10.766 3.25z"/>
</defs>
<use xlink:href="#ae"/>
</g>
</g>
<path d="m1159.7 670.39 1.7391 5.3086q0.74718 2.2807 3.0279 1.5336l7.3577-2.4104q2.2807-0.74718 1.5336-3.0279l-1.7391-5.3086q-0.74718-2.2807-3.0279-1.5336l-7.3577 2.4104q-2.2807 0.74718-1.5336 3.0279z" clip-path="url(#a)" fill="#fff" stroke="#fff"/>
<g clip-path="url(#a)">
<g transform="translate(1163.6 669.13) rotate(71.861) scale(.08 -.08)">
<defs>
<path id="aa" d="m64.406 67.281v-10.391q-4.9844 4.6406-10.625 6.9219-5.6406 2.2969-11.984 2.2969-12.5 0-19.141-7.6406t-6.6406-22.094q0-14.406 6.6406-22.047t19.141-7.6406q6.3438 0 11.984 2.2969t10.625 6.9375v-10.312q-5.1719-3.5156-10.969-5.2812-5.7812-1.75-12.219-1.75-16.562 0-26.094 10.125-9.5156 10.141-9.5156 27.672 0 17.578 9.5156 27.703 9.5312 10.141 26.094 10.141 6.5312 0 12.312-1.7344 5.7969-1.7344 10.875-5.2031z"/>
</defs>
<use xlink:href="#aa"/>
</g>
</g>
<path d="m1345.7 677.83 4.5719-3.1618q1.9739-1.3651 0.60881-3.3391l-4.404-6.368q-1.3651-1.9739-3.3391-0.60881l-4.5719 3.1618q-1.9739 1.3651-0.60881 3.3391l4.404 6.368q1.3651 1.9739 3.3391 0.60881z" clip-path="url(#a)" fill="#fff" stroke="#fff"/>
<g clip-path="url(#a)">
<g transform="translate(1343.3 674.49) rotate(-34.667) scale(.08 -.08)">
<use xlink:href="#ae"/>
</g>
</g>
<path d="m1387.7 676.87 3.0215-4.0526q1.4346-1.9241-0.48952-3.3586l-6.2071-4.6279q-1.9241-1.4346-3.3586 0.48952l-3.0215 4.0526q-1.4346 1.9241 0.48952 3.3586l6.2071 4.6279q1.9241 1.4346 3.3586-0.48952z" clip-path="url(#a)" fill="#fff" stroke="#fff"/>
<g clip-path="url(#a)">
<g transform="translate(1384.4 674.44) rotate(-53.292) scale(.08 -.08)">
<defs>
<path id="al" d="m9.8125 72.906h46.094v-8.3125h-36.234v-21.578h34.719v-8.2969h-34.719v-26.422h37.109v-8.2969h-46.969z"/>
</defs>
<use xlink:href="#al"/>
</g>
</g>
<path d="m1431.5 674.03 0.12618-5.5848q0.05421-2.3994-2.3452-2.4536l-7.7405-0.17488q-2.3994-0.05421-2.4536 2.3452l-0.12618 5.5848q-0.054211 2.3994 2.3452 2.4536l7.7405 0.17488q2.3994 0.05421 2.4536-2.3452z" clip-path="url(#a)" fill="#fff" stroke="#fff"/>
<g clip-path="url(#a)">
<g transform="translate(1427.4 673.94) rotate(-88.706) scale(.08 -.08)">
<use xlink:href="#aa"/>
</g>
</g>
<path d="m1460.8 672.4 3.4304 4.7448q1.4062 1.9449 3.3511 0.53877l6.2744-4.5363q1.9449-1.4062 0.53877-3.3511l-3.4304-4.7448q-1.4062-1.9449-3.3511-0.53877l-6.2744 4.5363q-1.9449 1.4062-0.53877 3.3511z" clip-path="url(#a)" fill="#fff" stroke="#fff"/>
<g clip-path="url(#a)">
<g transform="translate(1464.1 670.02) rotate(54.134) scale(.08 -.08)">
<use xlink:href="#r"/>
</g>
</g>
<path d="m1505.3 674.67 4.8628 3.2611q1.9933 1.3367 3.33-0.65655l4.3123-6.4304q1.3367-1.9933-0.65655-3.33l-4.8628-3.2611q-1.9933-1.3367-3.33 0.65655l-4.3123 6.4304q-1.3367 1.9933 0.65655 3.33z" clip-path="url(#a)" fill="#fff" stroke="#fff"/>
<g clip-path="url(#a)">
<g transform="translate(1507.6 671.3) rotate(33.847) scale(.08 -.08)">
<use xlink:href="#r"/>
</g>
</g>
<path d="m1255.9 767.05v33.808q0 2.4 2.4 2.4h7.7425q2.4 0 2.4-2.4v-33.808q0-2.4-2.4-2.4h-7.7425q-2.4 0-2.4 2.4z" clip-path="url(#a)" fill="#fff" stroke="#fff"/>
<g clip-path="url(#a)">
<g transform="translate(1260 767.05) rotate(90) scale(.08 -.08)">
<use xlink:href="#f"/>
<use x="44.083984" xlink:href="#l"/>
<use x="105.607422" xlink:href="#g"/>
<use x="144.970703" xlink:href="#i"/>
<use x="242.382812" xlink:href="#k"/>
<use x="270.166016" xlink:href="#h"/>
<use x="333.544922" xlink:href="#e"/>
<use x="394.824219" xlink:href="#j"/>
</g>
</g>
<path d="m1335.5 767.05v33.808q0 2.4 2.4 2.4h7.7425q2.4 0 2.4-2.4v-33.808q0-2.4-2.4-2.4h-7.7425q-2.4 0-2.4 2.4z" clip-path="url(#a)" fill="#fff" stroke="#fff"/>
<g clip-path="url(#a)">
<g transform="translate(1339.6 767.05) rotate(90) scale(.08 -.08)">
<use xlink:href="#f"/>
<use x="44.083984" xlink:href="#l"/>
<use x="105.607422" xlink:href="#g"/>
<use x="144.970703" xlink:href="#i"/>
<use x="242.382812" xlink:href="#k"/>
<use x="270.166016" xlink:href="#h"/>
<use x="333.544922" xlink:href="#e"/>
<use x="394.824219" xlink:href="#j"/>
</g>
</g>
<path d="m1417.7 767.05v33.808q0 2.4 2.4 2.4h7.7425q2.4 0 2.4-2.4v-33.808q0-2.4-2.4-2.4h-7.7425q-2.4 0-2.4 2.4z" clip-path="url(#a)" fill="#fff" stroke="#fff"/>
<g clip-path="url(#a)">
<g transform="translate(1421.8 767.05) rotate(90) scale(.08 -.08)">
<use xlink:href="#f"/>
<use x="44.083984" xlink:href="#l"/>
<use x="105.607422" xlink:href="#g"/>
<use x="144.970703" xlink:href="#i"/>
<use x="242.382812" xlink:href="#k"/>
<use x="270.166016" xlink:href="#h"/>
<use x="333.544922" xlink:href="#e"/>
<use x="394.824219" xlink:href="#j"/>
</g>
</g>
<path d="m1104.5 767.05v33.808q0 2.4 2.4 2.4h7.7425q2.4 0 2.4-2.4v-33.808q0-2.4-2.4-2.4h-7.7425q-2.4 0-2.4 2.4z" clip-path="url(#a)" fill="#fff" stroke="#fff"/>
<g clip-path="url(#a)">
<g transform="translate(1108.5 767.05) rotate(90) scale(.08 -.08)">
<use xlink:href="#f"/>
<use x="44.083984" xlink:href="#l"/>
<use x="105.607422" xlink:href="#g"/>
<use x="144.970703" xlink:href="#i"/>
<use x="242.382812" xlink:href="#k"/>
<use x="270.166016" xlink:href="#h"/>
<use x="333.544922" xlink:href="#e"/>
<use x="394.824219" xlink:href="#j"/>
</g>
</g>
<path d="m1178.9 767.05v33.808q0 2.4 2.4 2.4h7.7425q2.4 0 2.4-2.4v-33.808q0-2.4-2.4-2.4h-7.7425q-2.4 0-2.4 2.4z" clip-path="url(#a)" fill="#fff" stroke="#fff"/>
<g clip-path="url(#a)">
<g transform="translate(1183 767.05) rotate(90) scale(.08 -.08)">
<use xlink:href="#f"/>
<use x="44.083984" xlink:href="#l"/>
<use x="105.607422" xlink:href="#g"/>
<use x="144.970703" xlink:href="#i"/>
<use x="242.382812" xlink:href="#k"/>
<use x="270.166016" xlink:href="#h"/>
<use x="333.544922" xlink:href="#e"/>
<use x="394.824219" xlink:href="#j"/>
</g>
</g>
<path d="m454.86 767.05v33.808q0 2.4 2.4 2.4h7.7425q2.4 0 2.4-2.4v-33.808q0-2.4-2.4-2.4h-7.7425q-2.4 0-2.4 2.4z" clip-path="url(#a)" fill="#fff" stroke="#fff"/>
<g clip-path="url(#a)">
<g transform="translate(458.93 767.05) rotate(90) scale(.08 -.08)">
<use xlink:href="#f"/>
<use x="44.083984" xlink:href="#l"/>
<use x="105.607422" xlink:href="#g"/>
<use x="144.970703" xlink:href="#i"/>
<use x="242.382812" xlink:href="#k"/>
<use x="270.166016" xlink:href="#h"/>
<use x="333.544922" xlink:href="#e"/>
<use x="394.824219" xlink:href="#j"/>
</g>
</g>
<path d="m501.08 767.05v33.808q0 2.4 2.4 2.4h7.7425q2.4 0 2.4-2.4v-33.808q0-2.4-2.4-2.4h-7.7425q-2.4 0-2.4 2.4z" clip-path="url(#a)" fill="#fff" stroke="#fff"/>
<g clip-path="url(#a)">
<g transform="translate(505.14 767.05) rotate(90) scale(.08 -.08)">
<use xlink:href="#f"/>
<use x="44.083984" xlink:href="#l"/>
<use x="105.607422" xlink:href="#g"/>
<use x="144.970703" xlink:href="#i"/>
<use x="242.382812" xlink:href="#k"/>
<use x="270.166016" xlink:href="#h"/>
<use x="333.544922" xlink:href="#e"/>
<use x="394.824219" xlink:href="#j"/>
</g>
</g>
<path d="m574.48 675.19 1.225-5.4221q0.52891-2.341-1.8121-2.8699l-7.5521-1.7063q-2.341-0.52891-2.8699 1.8121l-1.225 5.4221q-0.52891 2.341 1.8121 2.8699l7.5521 1.7063q2.341 0.52891 2.8699-1.8121z" clip-path="url(#a)" fill="#fff" stroke="#fff"/>
<g clip-path="url(#a)">
<g transform="translate(570.51 674.29) rotate(-77.269) scale(.08 -.08)">
<use xlink:href="#ae"/>
</g>
</g>
<path d="m587.92 669.75 1.2311 5.4489q0.52891 2.341 2.8699 1.8121l7.5521-1.7063q2.341-0.52891 1.8121-2.8699l-1.2311-5.4489q-0.52891-2.341-2.8699-1.8121l-7.5521 1.7063q-2.341 0.52891-1.8121 2.8699z" clip-path="url(#a)" fill="#fff" stroke="#fff"/>
<g clip-path="url(#a)">
<g transform="translate(591.88 668.86) rotate(77.269) scale(.08 -.08)">
<use xlink:href="#aa"/>
</g>
</g>
<path d="m697.34 618.29 1.4416-5.3686q0.62243-2.3179-1.6955-2.9403l-7.4776-2.008q-2.3179-0.62243-2.9403 1.6955l-1.4416 5.3686q-0.62243 2.3179 1.6955 2.9403l7.4776 2.008q2.3179 0.62243 2.9403-1.6955z" clip-path="url(#a)" fill="#fff" stroke="#fff"/>
<g clip-path="url(#a)">
<g transform="translate(693.41 617.23) rotate(-74.969) scale(.08 -.08)">
<use xlink:href="#ae"/>
</g>
</g>
<path d="m726.46 616.9 0.11537-5.5851q0.049564-2.3995-2.3499-2.4491l-7.7408-0.1599q-2.3995-0.049565-2.4491 2.3499l-0.11537 5.5851q-0.049564 2.3995 2.3499 2.4491l7.7408 0.1599q2.3995 0.049565 2.4491-2.3499z" clip-path="url(#a)" fill="#fff" stroke="#fff"/>
<g clip-path="url(#a)">
<g transform="translate(722.39 616.81) rotate(-88.817) scale(.08 -.08)">
<use xlink:href="#aa"/>
</g>
</g>
<path d="m721.88 555.27 0.50867 5.0293q0.2415 2.3878 2.6293 2.1463l7.7032-0.7791q2.3878-0.2415 2.1463-2.6293l-0.50867-5.0293q-0.2415-2.3878-2.6293-2.1463l-7.7032 0.7791q-2.3878 0.2415-2.1463 2.6293z" clip-path="url(#a)" fill="#fff" stroke="#fff"/>
<g clip-path="url(#a)">
<g transform="translate(725.93 554.86) rotate(84.225) scale(.08 -.08)">
<use xlink:href="#al"/>
</g>
</g>
<path d="m742.99 612.58 1.3583 5.6953q0.55676 2.3345 2.8913 1.7778l7.5313-1.7961q2.3345-0.55676 1.7778-2.8913l-1.3583-5.6953q-0.55676-2.3345-2.8913-1.7778l-7.5313 1.7961q-2.3345 0.55676-1.7778 2.8913z" clip-path="url(#a)" fill="#fff" stroke="#fff"/>
<g clip-path="url(#a)">
<g transform="translate(746.95 611.64) rotate(76.586) scale(.08 -.08)">
<use xlink:href="#r"/>
</g>
</g>
<path d="m655.13 767.05v33.808q0 2.4 2.4 2.4h7.7425q2.4 0 2.4-2.4v-33.808q0-2.4-2.4-2.4h-7.7425q-2.4 0-2.4 2.4z" clip-path="url(#a)" fill="#fff" stroke="#fff"/>
<g clip-path="url(#a)">
<g transform="translate(659.2 767.05) rotate(90) scale(.08 -.08)">
<use xlink:href="#f"/>
<use x="44.083984" xlink:href="#l"/>
<use x="105.607422" xlink:href="#g"/>
<use x="144.970703" xlink:href="#i"/>
<use x="242.382812" xlink:href="#k"/>
<use x="270.166016" xlink:href="#h"/>
<use x="333.544922" xlink:href="#e"/>
<use x="394.824219" xlink:href="#j"/>
</g>
</g>
<path d="m711.62 767.05v33.808q0 2.4 2.4 2.4h7.7425q2.4 0 2.4-2.4v-33.808q0-2.4-2.4-2.4h-7.7425q-2.4 0-2.4 2.4z" clip-path="url(#a)" fill="#fff" stroke="#fff"/>
<g clip-path="url(#a)">
<g transform="translate(715.68 767.05) rotate(90) scale(.08 -.08)">
<use xlink:href="#f"/>
<use x="44.083984" xlink:href="#l"/>
<use x="105.607422" xlink:href="#g"/>
<use x="144.970703" xlink:href="#i"/>
<use x="242.382812" xlink:href="#k"/>
<use x="270.166016" xlink:href="#h"/>
<use x="333.544922" xlink:href="#e"/>
<use x="394.824219" xlink:href="#j"/>
</g>
</g>
<path d="m597.53 677.94 5.0523-2.103q2.2157-0.92228 1.2934-3.138l-2.9753-7.148q-0.92228-2.2157-3.138-1.2934l-5.0523 2.103q-2.2157 0.92228-1.2934 3.138l2.9753 7.148q0.92228 2.2157 3.138 1.2934z" clip-path="url(#a)" fill="#fff" stroke="#fff"/>
<g clip-path="url(#a)">
<g transform="translate(595.97 674.18) rotate(-22.599) scale(.08 -.08)">
<use xlink:href="#p"/>
</g>
</g>
<path d="m779.89 673.32 3.7026 4.0298q1.6238 1.7673 3.3911 0.14351l5.7014-5.2384q1.7673-1.6238 0.14351-3.3911l-3.7026-4.0298q-1.6238-1.7673-3.3911-0.14351l-5.7014 5.2384q-1.7673 1.6238-0.14351 3.3911z" clip-path="url(#a)" fill="#fff" stroke="#fff"/>
<g clip-path="url(#a)">
<g transform="translate(782.88 670.57) rotate(47.423) scale(.08 -.08)">
<use xlink:href="#p"/>
</g>
</g>
<path d="m812.95 674.95 4 2.6961q1.9901 1.3414 3.3315-0.64874l4.3274-6.4203q1.3414-1.9901-0.64874-3.3315l-4-2.6961q-1.9901-1.3414-3.3315 0.64874l-4.3274 6.4203q-1.3414 1.9901 0.64874 3.3315z" clip-path="url(#a)" fill="#fff" stroke="#fff"/>
<g clip-path="url(#a)">
<g transform="translate(815.22 671.58) rotate(33.981) scale(.08 -.08)">
<use xlink:href="#af"/>
</g>
</g>
<path d="m832.3 767.05v33.808q0 2.4 2.4 2.4h7.7425q2.4 0 2.4-2.4v-33.808q0-2.4-2.4-2.4h-7.7425q-2.4 0-2.4 2.4z" clip-path="url(#a)" fill="#fff" stroke="#fff"/>
<g clip-path="url(#a)">
<g transform="translate(836.36 767.05) rotate(90) scale(.08 -.08)">
<use xlink:href="#f"/>
<use x="44.083984" xlink:href="#l"/>
<use x="105.607422" xlink:href="#g"/>
<use x="144.970703" xlink:href="#i"/>
<use x="242.382812" xlink:href="#k"/>
<use x="270.166016" xlink:href="#h"/>
<use x="333.544922" xlink:href="#e"/>
<use x="394.824219" xlink:href="#j"/>
</g>
</g>
<path d="m896.49 767.05v33.808q0 2.4 2.4 2.4h7.7425q2.4 0 2.4-2.4v-33.808q0-2.4-2.4-2.4h-7.7425q-2.4 0-2.4 2.4z" clip-path="url(#a)" fill="#fff" stroke="#fff"/>
<g clip-path="url(#a)">
<g transform="translate(900.55 767.05) rotate(90) scale(.08 -.08)">
<use xlink:href="#f"/>
<use x="44.083984" xlink:href="#l"/>
<use x="105.607422" xlink:href="#g"/>
<use x="144.970703" xlink:href="#i"/>
<use x="242.382812" xlink:href="#k"/>
<use x="270.166016" xlink:href="#h"/>
<use x="333.544922" xlink:href="#e"/>
<use x="394.824219" xlink:href="#j"/>
</g>
</g>
<path d="m549.86 767.05v33.808q0 2.4 2.4 2.4h7.7425q2.4 0 2.4-2.4v-33.808q0-2.4-2.4-2.4h-7.7425q-2.4 0-2.4 2.4z" clip-path="url(#a)" fill="#fff" stroke="#fff"/>
<g clip-path="url(#a)">
<g transform="translate(553.93 767.05) rotate(90) scale(.08 -.08)">
<use xlink:href="#f"/>
<use x="44.083984" xlink:href="#l"/>
<use x="105.607422" xlink:href="#g"/>
<use x="144.970703" xlink:href="#i"/>
<use x="242.382812" xlink:href="#k"/>
<use x="270.166016" xlink:href="#h"/>
<use x="333.544922" xlink:href="#e"/>
<use x="394.824219" xlink:href="#j"/>
</g>
</g>
<path d="m601.22 767.05v33.808q0 2.4 2.4 2.4h7.7425q2.4 0 2.4-2.4v-33.808q0-2.4-2.4-2.4h-7.7425q-2.4 0-2.4 2.4z" clip-path="url(#a)" fill="#fff" stroke="#fff"/>
<g clip-path="url(#a)">
<g transform="translate(605.28 767.05) rotate(90) scale(.08 -.08)">
<use xlink:href="#f"/>
<use x="44.083984" xlink:href="#l"/>
<use x="105.607422" xlink:href="#g"/>
<use x="144.970703" xlink:href="#i"/>
<use x="242.382812" xlink:href="#k"/>
<use x="270.166016" xlink:href="#h"/>
<use x="333.544922" xlink:href="#e"/>
<use x="394.824219" xlink:href="#j"/>
</g>
</g>
<path d="m295.67 767.05v33.808q0 2.4 2.4 2.4h7.7425q2.4 0 2.4-2.4v-33.808q0-2.4-2.4-2.4h-7.7425q-2.4 0-2.4 2.4z" clip-path="url(#a)" fill="#fff" stroke="#fff"/>
<g clip-path="url(#a)">
<g transform="translate(299.74 767.05) rotate(90) scale(.08 -.08)">
<use xlink:href="#f"/>
<use x="44.083984" xlink:href="#l"/>
<use x="105.607422" xlink:href="#g"/>
<use x="144.970703" xlink:href="#i"/>
<use x="242.382812" xlink:href="#k"/>
<use x="270.166016" xlink:href="#h"/>
<use x="333.544922" xlink:href="#e"/>
<use x="394.824219" xlink:href="#j"/>
</g>
</g>
<path d="m331.62 767.05v33.808q0 2.4 2.4 2.4h7.7425q2.4 0 2.4-2.4v-33.808q0-2.4-2.4-2.4h-7.7425q-2.4 0-2.4 2.4z" clip-path="url(#a)" fill="#fff" stroke="#fff"/>
<g clip-path="url(#a)">
<g transform="translate(335.68 767.05) rotate(90) scale(.08 -.08)">
<use xlink:href="#f"/>
<use x="44.083984" xlink:href="#l"/>
<use x="105.607422" xlink:href="#g"/>
<use x="144.970703" xlink:href="#i"/>
<use x="242.382812" xlink:href="#k"/>
<use x="270.166016" xlink:href="#h"/>
<use x="333.544922" xlink:href="#e"/>
<use x="394.824219" xlink:href="#j"/>
</g>
</g>
<path d="m370.13 767.05v33.808q0 2.4 2.4 2.4h7.7425q2.4 0 2.4-2.4v-33.808q0-2.4-2.4-2.4h-7.7425q-2.4 0-2.4 2.4z" clip-path="url(#a)" fill="#fff" stroke="#fff"/>
<g clip-path="url(#a)">
<g transform="translate(374.2 767.05) rotate(90) scale(.08 -.08)">
<use xlink:href="#f"/>
<use x="44.083984" xlink:href="#l"/>
<use x="105.607422" xlink:href="#g"/>
<use x="144.970703" xlink:href="#i"/>
<use x="242.382812" xlink:href="#k"/>
<use x="270.166016" xlink:href="#h"/>
<use x="333.544922" xlink:href="#e"/>
<use x="394.824219" xlink:href="#j"/>
</g>
</g>
<path d="m69.729 767.05v33.808q0 2.4 2.4 2.4h7.7425q2.4 0 2.4-2.4v-33.808q0-2.4-2.4-2.4h-7.7425q-2.4 0-2.4 2.4z" clip-path="url(#a)" fill="#fff" stroke="#fff"/>
<g clip-path="url(#a)">
<g transform="translate(73.792 767.05) rotate(90) scale(.08 -.08)">
<use xlink:href="#f"/>
<use x="44.083984" xlink:href="#l"/>
<use x="105.607422" xlink:href="#g"/>
<use x="144.970703" xlink:href="#i"/>
<use x="242.382812" xlink:href="#k"/>
<use x="270.166016" xlink:href="#h"/>
<use x="333.544922" xlink:href="#e"/>
<use x="394.824219" xlink:href="#j"/>
</g>
</g>
<path d="m77.431 767.05v33.808q0 2.4 2.4 2.4h7.7425q2.4 0 2.4-2.4v-33.808q0-2.4-2.4-2.4h-7.7425q-2.4 0-2.4 2.4z" clip-path="url(#a)" fill="#fff" stroke="#fff"/>
<g clip-path="url(#a)">
<g transform="translate(81.495 767.05) rotate(90) scale(.08 -.08)">
<use xlink:href="#f"/>
<use x="44.083984" xlink:href="#l"/>
<use x="105.607422" xlink:href="#g"/>
<use x="144.970703" xlink:href="#i"/>
<use x="242.382812" xlink:href="#k"/>
<use x="270.166016" xlink:href="#h"/>
<use x="333.544922" xlink:href="#e"/>
<use x="394.824219" xlink:href="#j"/>
</g>
</g>
<path d="m103.3 673.97 0.28507-5.047q0.13534-2.3962-2.2608-2.5315l-7.7302-0.43663q-2.3962-0.13534-2.5315 2.2608l-0.28507 5.047q-0.13534 2.3962 2.2608 2.5315l7.7302 0.43663q2.3962 0.13534 2.5315-2.2608z" clip-path="url(#a)" fill="#fff" stroke="#fff"/>
<g clip-path="url(#a)">
<g transform="translate(99.244 673.74) rotate(-86.767) scale(.08 -.08)">
<use xlink:href="#al"/>
</g>
</g>
<path d="m97.183 668.66 0.31503 5.5774q0.13534 2.3962 2.5315 2.2608l7.7302-0.43663q2.3962-0.13534 2.2608-2.5315l-0.31503-5.5774q-0.13534-2.3962-2.5315-2.2608l-7.7302 0.43663q-2.3962 0.13534-2.2608 2.5315z" clip-path="url(#a)" fill="#fff" stroke="#fff"/>
<g clip-path="url(#a)">
<g transform="translate(101.24 668.43) rotate(86.767) scale(.08 -.08)">
<use xlink:href="#aa"/>
</g>
</g>
<path d="m87.702 767.05v33.808q0 2.4 2.4 2.4h7.7425q2.4 0 2.4-2.4v-33.808q0-2.4-2.4-2.4h-7.7425q-2.4 0-2.4 2.4z" clip-path="url(#a)" fill="#fff" stroke="#fff"/>
<g clip-path="url(#a)">
<g transform="translate(91.765 767.05) rotate(90) scale(.08 -.08)">
<use xlink:href="#f"/>
<use x="44.083984" xlink:href="#l"/>
<use x="105.607422" xlink:href="#g"/>
<use x="144.970703" xlink:href="#i"/>
<use x="242.382812" xlink:href="#k"/>
<use x="270.166016" xlink:href="#h"/>
<use x="333.544922" xlink:href="#e"/>
<use x="394.824219" xlink:href="#j"/>
</g>
</g>
<path d="m100.54 767.05v33.808q0 2.4 2.4 2.4h7.7425q2.4 0 2.4-2.4v-33.808q0-2.4-2.4-2.4h-7.7425q-2.4 0-2.4 2.4z" clip-path="url(#a)" fill="#fff" stroke="#fff"/>
<g clip-path="url(#a)">
<g transform="translate(104.6 767.05) rotate(90) scale(.08 -.08)">
<use xlink:href="#f"/>
<use x="44.083984" xlink:href="#l"/>
<use x="105.607422" xlink:href="#g"/>
<use x="144.970703" xlink:href="#i"/>
<use x="242.382812" xlink:href="#k"/>
<use x="270.166016" xlink:href="#h"/>
<use x="333.544922" xlink:href="#e"/>
<use x="394.824219" xlink:href="#j"/>
</g>
</g>
<path d="m115.94 767.05v33.808q0 2.4 2.4 2.4h7.7425q2.4 0 2.4-2.4v-33.808q0-2.4-2.4-2.4h-7.7425q-2.4 0-2.4 2.4z" clip-path="url(#a)" fill="#fff" stroke="#fff"/>
<g clip-path="url(#a)">
<g transform="translate(120.01 767.05) rotate(90) scale(.08 -.08)">
<use xlink:href="#f"/>
<use x="44.083984" xlink:href="#l"/>
<use x="105.607422" xlink:href="#g"/>
<use x="144.970703" xlink:href="#i"/>
<use x="242.382812" xlink:href="#k"/>
<use x="270.166016" xlink:href="#h"/>
<use x="333.544922" xlink:href="#e"/>
<use x="394.824219" xlink:href="#j"/>
</g>
</g>
<path d="m133.92 767.05v33.808q0 2.4 2.4 2.4h7.7425q2.4 0 2.4-2.4v-33.808q0-2.4-2.4-2.4h-7.7425q-2.4 0-2.4 2.4z" clip-path="url(#a)" fill="#fff" stroke="#fff"/>
<g clip-path="url(#a)">
<g transform="translate(137.98 767.05) rotate(90) scale(.08 -.08)">
<use xlink:href="#f"/>
<use x="44.083984" xlink:href="#l"/>
<use x="105.607422" xlink:href="#g"/>
<use x="144.970703" xlink:href="#i"/>
<use x="242.382812" xlink:href="#k"/>
<use x="270.166016" xlink:href="#h"/>
<use x="333.544922" xlink:href="#e"/>
<use x="394.824219" xlink:href="#j"/>
</g>
</g>
<path d="m203.24 767.05v33.808q0 2.4 2.4 2.4h7.7425q2.4 0 2.4-2.4v-33.808q0-2.4-2.4-2.4h-7.7425q-2.4 0-2.4 2.4z" clip-path="url(#a)" fill="#fff" stroke="#fff"/>
<g clip-path="url(#a)">
<g transform="translate(207.31 767.05) rotate(90) scale(.08 -.08)">
<use xlink:href="#f"/>
<use x="44.083984" xlink:href="#l"/>
<use x="105.607422" xlink:href="#g"/>
<use x="144.970703" xlink:href="#i"/>
<use x="242.382812" xlink:href="#k"/>
<use x="270.166016" xlink:href="#h"/>
<use x="333.544922" xlink:href="#e"/>
<use x="394.824219" xlink:href="#j"/>
</g>
</g>
<path d="m231.49 767.05v33.808q0 2.4 2.4 2.4h7.7425q2.4 0 2.4-2.4v-33.808q0-2.4-2.4-2.4h-7.7425q-2.4 0-2.4 2.4z" clip-path="url(#a)" fill="#fff" stroke="#fff"/>
<g clip-path="url(#a)">
<g transform="translate(235.55 767.05) rotate(90) scale(.08 -.08)">
<use xlink:href="#f"/>
<use x="44.083984" xlink:href="#l"/>
<use x="105.607422" xlink:href="#g"/>
<use x="144.970703" xlink:href="#i"/>
<use x="242.382812" xlink:href="#k"/>
<use x="270.166016" xlink:href="#h"/>
<use x="333.544922" xlink:href="#e"/>
<use x="394.824219" xlink:href="#j"/>
</g>
</g>
<path d="m411.22 767.05v33.808q0 2.4 2.4 2.4h7.7425q2.4 0 2.4-2.4v-33.808q0-2.4-2.4-2.4h-7.7425q-2.4 0-2.4 2.4z" clip-path="url(#a)" fill="#fff" stroke="#fff"/>
<g clip-path="url(#a)">
<g transform="translate(415.28 767.05) rotate(90) scale(.08 -.08)">
<use xlink:href="#f"/>
<use x="44.083984" xlink:href="#l"/>
<use x="105.607422" xlink:href="#g"/>
<use x="144.970703" xlink:href="#i"/>
<use x="242.382812" xlink:href="#k"/>
<use x="270.166016" xlink:href="#h"/>
<use x="333.544922" xlink:href="#e"/>
<use x="394.824219" xlink:href="#j"/>
</g>
</g>
<path d="m770.67 767.05v33.808q0 2.4 2.4 2.4h7.7425q2.4 0 2.4-2.4v-33.808q0-2.4-2.4-2.4h-7.7425q-2.4 0-2.4 2.4z" clip-path="url(#a)" fill="#fff" stroke="#fff"/>
<g clip-path="url(#a)">
<g transform="translate(774.74 767.05) rotate(90) scale(.08 -.08)">
<use xlink:href="#f"/>
<use x="44.083984" xlink:href="#l"/>
<use x="105.607422" xlink:href="#g"/>
<use x="144.970703" xlink:href="#i"/>
<use x="242.382812" xlink:href="#k"/>
<use x="270.166016" xlink:href="#h"/>
<use x="333.544922" xlink:href="#e"/>
<use x="394.824219" xlink:href="#j"/>
</g>
</g>
<path d="m963.24 767.05v33.808q0 2.4 2.4 2.4h7.7425q2.4 0 2.4-2.4v-33.808q0-2.4-2.4-2.4h-7.7425q-2.4 0-2.4 2.4z" clip-path="url(#a)" fill="#fff" stroke="#fff"/>
<g clip-path="url(#a)">
<g transform="translate(967.31 767.05) rotate(90) scale(.08 -.08)">
<use xlink:href="#f"/>
<use x="44.083984" xlink:href="#l"/>
<use x="105.607422" xlink:href="#g"/>
<use x="144.970703" xlink:href="#i"/>
<use x="242.382812" xlink:href="#k"/>
<use x="270.166016" xlink:href="#h"/>
<use x="333.544922" xlink:href="#e"/>
<use x="394.824219" xlink:href="#j"/>
</g>
</g>
<path d="m1502.4 767.05v33.808q0 2.4 2.4 2.4h7.7425q2.4 0 2.4-2.4v-33.808q0-2.4-2.4-2.4h-7.7425q-2.4 0-2.4 2.4z" clip-path="url(#a)" fill="#fff" stroke="#fff"/>
<g clip-path="url(#a)">
<g transform="translate(1506.5 767.05) rotate(90) scale(.08 -.08)">
<use xlink:href="#f"/>
<use x="44.083984" xlink:href="#l"/>
<use x="105.607422" xlink:href="#g"/>
<use x="144.970703" xlink:href="#i"/>
<use x="242.382812" xlink:href="#k"/>
<use x="270.166016" xlink:href="#h"/>
<use x="333.544922" xlink:href="#e"/>
<use x="394.824219" xlink:href="#j"/>
</g>
</g>
<path d="m1589.7 767.05v33.808q0 2.4 2.4 2.4h7.7425q2.4 0 2.4-2.4v-33.808q0-2.4-2.4-2.4h-7.7425q-2.4 0-2.4 2.4z" clip-path="url(#a)" fill="#fff" stroke="#fff"/>
<g clip-path="url(#a)">
<g transform="translate(1593.8 767.05) rotate(90) scale(.08 -.08)">
<use xlink:href="#f"/>
<use x="44.083984" xlink:href="#l"/>
<use x="105.607422" xlink:href="#g"/>
<use x="144.970703" xlink:href="#i"/>
<use x="242.382812" xlink:href="#k"/>
<use x="270.166016" xlink:href="#h"/>
<use x="333.544922" xlink:href="#e"/>
<use x="394.824219" xlink:href="#j"/>
</g>
</g>
<defs>
<path id="b" d="m0 8.6603c2.2967 0 4.4997-0.9125 6.1237-2.5365 1.624-1.624 2.5365-3.827 2.5365-6.1237s-0.9125-4.4997-2.5365-6.1237c-1.624-1.624-3.827-2.5365-6.1237-2.5365s-4.4997 0.9125-6.1237 2.5365c-1.624 1.624-2.5365 3.827-2.5365 6.1237s0.9125 4.4997 2.5365 6.1237c1.624 1.624 3.827 2.5365 6.1237 2.5365z"/>
</defs>
<g clip-path="url(#a)" fill="#ffffff" stroke="#ffffff">
<use x="76" y="840" xlink:href="#b"/>
<use x="83.702703" y="840" xlink:href="#b"/>
<use x="93.972973" y="840" xlink:href="#b"/>
<use x="106.810811" y="840" xlink:href="#b"/>
<use x="122.216216" y="840" xlink:href="#b"/>
<use x="140.189189" y="840" xlink:href="#b"/>
<use x="160.72973" y="840" xlink:href="#b"/>
<use x="183.837838" y="840" xlink:href="#b"/>
<use x="209.513514" y="840" xlink:href="#b"/>
<use x="237.756757" y="840" xlink:href="#b"/>
<use x="268.567568" y="840" xlink:href="#b"/>
<use x="301.945946" y="840" xlink:href="#b"/>
<use x="337.891892" y="840" xlink:href="#b"/>
<use x="376.405405" y="840" xlink:href="#b"/>
<use x="417.486486" y="840" xlink:href="#b"/>
<use x="461.135135" y="840" xlink:href="#b"/>
<use x="507.351351" y="840" xlink:href="#b"/>
<use x="556.135135" y="840" xlink:href="#b"/>
<use x="607.486486" y="840" xlink:href="#b"/>
<use x="661.405405" y="840" xlink:href="#b"/>
<use x="717.891892" y="840" xlink:href="#b"/>
<use x="776.945946" y="840" xlink:href="#b"/>
<use x="838.567568" y="840" xlink:href="#b"/>
<use x="902.756757" y="840" xlink:href="#b"/>
<use x="969.513514" y="840" xlink:href="#b"/>
<use x="1038.837838" y="840" xlink:href="#b"/>
<use x="1110.72973" y="840" xlink:href="#b"/>
<use x="1185.189189" y="840" xlink:href="#b"/>
<use x="1262.216216" y="840" xlink:href="#b"/>
<use x="1341.810811" y="840" xlink:href="#b"/>
<use x="1423.972973" y="840" xlink:href="#b"/>
<use x="1508.702703" y="840" xlink:href="#b"/>
<use x="1596" y="840" xlink:href="#b"/>
<use x="228.069429" y="40" xlink:href="#b"/>
<use x="228.069429" y="155.341933" xlink:href="#b"/>
<use x="542.242761" y="270.490896" xlink:href="#b"/>
<use x="160.72973" y="727.916685" xlink:href="#b"/>
<use x="183.837838" y="727.916685" xlink:href="#b"/>
<use x="86.698198" y="500.035606" xlink:href="#b"/>
<use x="268.567568" y="727.916685" xlink:href="#b"/>
<use x="280.763514" y="614.274168" xlink:href="#b"/>
<use x="568.224099" y="385.408242" xlink:href="#b"/>
<use x="1204.445946" y="500.035606" xlink:href="#b"/>
<use x="1038.837838" y="727.916685" xlink:href="#b"/>
<use x="1147.959459" y="614.274168" xlink:href="#b"/>
<use x="1426.540541" y="614.274168" xlink:href="#b"/>
<use x="1262.216216" y="727.916685" xlink:href="#b"/>
<use x="1341.810811" y="727.916685" xlink:href="#b"/>
<use x="1423.972973" y="727.916685" xlink:href="#b"/>
<use x="1110.72973" y="727.916685" xlink:href="#b"/>
<use x="1185.189189" y="727.916685" xlink:href="#b"/>
<use x="461.135135" y="727.916685" xlink:href="#b"/>
<use x="507.351351" y="727.916685" xlink:href="#b"/>
<use x="581.810811" y="614.274168" xlink:href="#b"/>
<use x="722.599099" y="500.035606" xlink:href="#b"/>
<use x="661.405405" y="727.916685" xlink:href="#b"/>
<use x="717.891892" y="727.916685" xlink:href="#b"/>
<use x="734.153153" y="614.274168" xlink:href="#b"/>
<use x="838.567568" y="727.916685" xlink:href="#b"/>
<use x="902.756757" y="727.916685" xlink:href="#b"/>
<use x="556.135135" y="727.916685" xlink:href="#b"/>
<use x="607.486486" y="727.916685" xlink:href="#b"/>
<use x="301.945946" y="727.916685" xlink:href="#b"/>
<use x="337.891892" y="727.916685" xlink:href="#b"/>
<use x="376.405405" y="727.916685" xlink:href="#b"/>
<use x="76" y="727.916685" xlink:href="#b"/>
<use x="83.702703" y="727.916685" xlink:href="#b"/>
<use x="100.391892" y="614.274168" xlink:href="#b"/>
<use x="93.972973" y="727.916685" xlink:href="#b"/>
<use x="106.810811" y="727.916685" xlink:href="#b"/>
<use x="122.216216" y="727.916685" xlink:href="#b"/>
<use x="140.189189" y="727.916685" xlink:href="#b"/>
<use x="209.513514" y="727.916685" xlink:href="#b"/>
<use x="237.756757" y="727.916685" xlink:href="#b"/>
<use x="417.486486" y="727.916685" xlink:href="#b"/>
<use x="776.945946" y="727.916685" xlink:href="#b"/>
<use x="969.513514" y="727.916685" xlink:href="#b"/>
<use x="1508.702703" y="727.916685" xlink:href="#b"/>
<use x="1596" y="727.916685" xlink:href="#b"/>
</g>
<g clip-path="url(#a)">
<g transform="translate(61.324 842.76) scale(.1 -.1)">
<defs>
<path id="ay" d="m4.1094 0v8.2969q10.594 2.2969 13.609 10.312 4.25 12.594 4.25 41.891v12.406h43.359v-72.906h-9.8594v64.594h-23.688v-8.9844q0-27.625-4.9688-40.516-4.7969-12.359-22.703-15.094z"/>
<path id="at" d="m53.609 48.391q-7.2188 0-11.422-5.6406t-4.2031-15.453 4.1719-15.453q4.1875-5.6406 11.453-5.6406 7.1875 0 11.375 5.6562 4.2031 5.6719 4.2031 15.438 0 9.7188-4.2031 15.406-4.1875 5.6875-11.375 5.6875zm-24.797-15.531q0.92188 9.2812 7 16.203 6.0781 6.9375 17.797 6.9375t18.406-7.625q6.7031-7.6094 6.7031-21.078 0-13.422-6.7031-21.078-6.6875-7.6406-18.406-7.6406-11.766 0-18.188 7.375t-6.8594 19.484h-10.156v-25.438h-8.9844v54.688h8.9844v-21.828z"/>
<path id="av" d="m21.625 7.1719h26.078v40.344h-18.891v-6.8438q0-20.109-5.7656-30.859zm-13.031 0q4.4375 1.9531 6.3906 6.1094 4.7969 10.297 4.7969 31.062v10.344h36.953v-47.516h7.1875v-20.984h-7.1875v13.812h-44.328v-13.812h-7.1875v20.984z"/>
<path id="w" d="m55.906 54.688v-54.688h-8.9375v43.891l-26.359-43.891h-11.531v54.688h8.9375v-43.797l26.328 43.797z"/>
</defs>
<use xlink:href="#ay"/>
<use x="75.195312" xlink:href="#at"/>
<use x="159.375" xlink:href="#av"/>
<use x="228.515625" xlink:href="#w"/>
</g>
</g>
<g clip-path="url(#a)">
<g transform="translate(64.503 842.76) scale(.1 -.1)">
<defs>
<path id="y" d="m34.469 29.5q6.0625-1.1719 9.4219-4.75 3.375-3.5625 3.375-8.8281 0-8.4531-6.2969-12.906-6.2969-4.4375-17.922-4.4375-3.9062 0-8.0312 0.6875t-8.5156 2.0469v8.3594q3.4688-1.8125 7.6094-2.7188 4.1562-0.89062 8.6875-0.89062 7.375 0 11.5 2.7344t4.125 7.125q0 4.2969-3.6562 6.9062t-10.344 2.6094h-7.2344v7.4219h7.5625q5.6719 0 8.9688 2.1719t3.2969 5.5938q0 3.125-3.4062 5.375-3.3906 2.25-9.1875 2.25-3.4688 0-7.4062-0.64062-3.9219-0.64062-8.6719-2.0469v8.1562q4.7969 1.1719 8.9375 1.75 4.1562 0.59375 7.8594 0.59375 9.5781 0 15.109-3.8438 5.5469-3.8281 5.5469-10.719 0-4.5312-2.9375-7.6875-2.9219-3.1406-8.3906-4.3125z"/>
<path id="t" d="m34.281 27.484q-10.891 0-15.094-2.4844t-4.2031-8.5q0-4.7812 3.1562-7.5938 3.1562-2.7969 8.5625-2.7969 7.4844 0 12 5.2969t4.5156 14.078v2zm17.922 3.7188v-31.203h-8.9844v8.2969q-3.0781-4.9688-7.6719-7.3438t-11.234-2.375q-8.3906 0-13.359 4.7188-4.9531 4.7188-4.9531 12.625 0 9.2188 6.1719 13.906 6.1875 4.6875 18.438 4.6875h12.609v0.89062q0 6.2031-4.0781 9.5938t-11.453 3.3906q-4.6875 0-9.1406-1.125-4.4375-1.125-8.5312-3.375v8.3125q4.9219 1.9062 9.5625 2.8438 4.6406 0.95312 9.0312 0.95312 11.875 0 17.734-6.1562 5.8594-6.1406 5.8594-18.641z"/>
<path id="ax" d="m31.109 56q11.719 0 18.406-7.625 6.6875-7.6094 6.6875-21.078 0-13.422-6.6875-21.078-6.6875-7.6406-18.406-7.6406-11.766 0-18.266 7.4219t-6.8438 21.297l-0.28125 11.188q-0.25 5.7969-0.25 7.8125 0 7.8125 2.8281 13.562 4.4531 9.0312 12.141 12.938t20.578 4.0156q5.9531 0.046875 8.5938 0.875l2.4844-7.125q-2.3906-0.98438-4.5781-1.0312l-12.219-0.82812q-6.1406-0.4375-9.8594-2.5938-9.7188-5.7031-10.641-13.172l-0.34375-2.7344q6.3438 5.7969 16.656 5.7969zm0-7.6094q-7.2344 0-11.438-5.6406-4.1875-5.6406-4.1875-15.453t4.1719-15.453 11.453-5.6406q7.1719 0 11.375 5.6562 4.2031 5.6719 4.2031 15.438 0 9.7188-4.2031 15.406t-11.375 5.6875z"/>
<path id="ac" d="m61.047 54.688h8.9844v-54.688h-8.9844zm4.5 1.3125m-22.094-39.781q0 4.3906-3.2031 6.6875-3.1875 2.2969-9.3438 2.2969h-12.797v-18.031h12.797q6.1562 0 9.3438 2.3125 3.2031 2.3281 3.2031 6.7344zm-34.375 38.469h9.0312v-22.312h13.188q10.453 0 16.094-3.9844 5.6406-3.9688 5.6406-12.172t-5.6406-12.219q-5.6406-4-16.094-4h-22.219z"/>
<path id="aq" d="m3.7188 0v7.4688q8.875 1.375 11.609 7.5156 3.3281 8.6562 3.3281 30.766v8.9375h36.953v-54.688h-8.9844v47.516h-18.984v-5.4219q0-21.094-4.2969-30.562-4.5938-10.109-19.625-11.531z"/>
</defs>
<use xlink:href="#y"/>
<use x="53.173828" xlink:href="#t"/>
<use x="114.453125" xlink:href="#ax"/>
<use x="176.123047" xlink:href="#ac"/>
<use x="255.078125" xlink:href="#aq"/>
<use x="318.994141" xlink:href="#w"/>
</g>
</g>
<g clip-path="url(#a)">
<g transform="translate(85.357 842.76) scale(.1 -.1)">
<defs>
<path id="bb" d="m5.5156 10.406q7.7188-4.2031 15.391-4.2031 7.1719 0 12.297 4.1719t6.0625 14.828h-27.734v7.1719h27.438q-0.59375 5.125-4.4844 10.562-3.875 5.4531-13.578 5.4531-7.5312 0-15.391-4.2031v8.4062q7.6719 3.4062 15.781 3.4062 12.781 0 20.125-7.7344 7.3594-7.7344 7.3594-20.969 0-13.188-7.1562-20.953t-19.703-7.7656q-9.2188 0-16.406 3.5156z"/>
<path id="s" d="m2.9375 54.688h52.391v-7.1719h-21.781v-47.516h-8.8438v47.516h-21.766z"/>
<path id="aj" d="m32.172-5.0781q-3.7969-9.7656-7.4219-12.734-3.6094-2.9844-9.6562-2.9844h-7.1875v7.5156h5.2812q3.7031 0 5.75 1.7656 2.0625 1.75 4.5469 8.2969l1.6094 4.0938-22.109 53.812h9.5156l17.094-42.766 17.094 42.766h9.5156z"/>
</defs>
<use xlink:href="#bb"/>
<use x="54.882812" xlink:href="#s"/>
<use x="113.134766" xlink:href="#aj"/>
</g>
</g>
<g clip-path="url(#a)">
<g transform="translate(88.423 842.76) scale(.1 -.1)">
<defs>
<path id="ad" d="m48.781 52.594v-8.4062q-3.8125 2.1094-7.6406 3.1562t-7.7344 1.0469q-8.75 0-13.594-5.5469-4.8281-5.5312-4.8281-15.547t4.8281-15.562q4.8438-5.5312 13.594-5.5312 3.9062 0 7.7344 1.0469t7.6406 3.1562v-8.3125q-3.7656-1.75-7.7969-2.625-4.0156-0.89062-8.5625-0.89062-12.359 0-19.641 7.7656-7.2656 7.7656-7.2656 20.953 0 13.375 7.3438 21.031 7.3594 7.6719 20.156 7.6719 4.1406 0 8.0938-0.85938 3.9531-0.84375 7.6719-2.5469z"/>
<path id="ak" d="m9.0781 54.688h9.0312v-22.312h29.156v22.312h9.0312v-54.688h-9.0312v25.203h-29.156v-25.203h-9.0312z"/>
</defs>
<use xlink:href="#w"/>
<use x="64.990234" xlink:href="#ad"/>
<use x="119.970703" xlink:href="#s"/>
<use x="178.222656" xlink:href="#w"/>
<use x="243.212891" xlink:href="#ak"/>
<use x="308.59375" xlink:href="#aj"/>
</g>
</g>
<g clip-path="url(#a)">
<g transform="translate(120.63 842.76) scale(.1 -.1)">
<defs>
<path id="ao" d="m11.719 12.406h10.297v-8.4062l-8-15.625h-6.2969l4 15.625z"/>
</defs>
<use xlink:href="#ao"/>
</g>
</g>
<g clip-path="url(#a)">
<g transform="translate(138.39 842.76) scale(.1 -.1)">
<defs>
<path id="an" d="m4.8906 31.391h26.312v-8h-26.312z"/>
</defs>
<use xlink:href="#an"/>
</g>
</g>
<g clip-path="url(#a)">
<g transform="translate(142.98 842.76) scale(.1 -.1)">
<defs>
<path id="au" d="m9.0781 54.688h8.9375v-25.688l25.344 25.688h11.031l-20.891-21.141 23.578-33.547h-10.062l-19.375 27.594-9.625-9.7656v-17.828h-8.9375z"/>
</defs>
<use xlink:href="#ad"/>
<use x="54.980469" xlink:href="#au"/>
<use x="115.380859" xlink:href="#t"/>
<use x="176.660156" xlink:href="#y"/>
<use x="229.833984" xlink:href="#t"/>
<use x="291.113281" xlink:href="#aq"/>
</g>
</g>
<g clip-path="url(#a)">
<g transform="translate(174.08 842.76) scale(.1 -.1)">
<use xlink:href="#ay"/>
<use x="75.195312" xlink:href="#w"/>
<use x="140.185547" xlink:href="#ad"/>
</g>
</g>
<g clip-path="url(#a)">
<g transform="translate(207.92 842.76) scale(.1 -.1)">
<use xlink:href="#ao"/>
</g>
</g>
<g clip-path="url(#a)">
<g transform="translate(235.95 842.76) scale(.1 -.1)">
<use xlink:href="#an"/>
</g>
</g>
<g clip-path="url(#a)">
<g transform="translate(262.24 842.76) scale(.1 -.1)">
<defs>
<path id="v" d="m30.609 48.391q-7.2188 0-11.422-5.6406t-4.2031-15.453 4.1719-15.453q4.1875-5.6406 11.453-5.6406 7.1875 0 11.375 5.6562 4.2031 5.6719 4.2031 15.438 0 9.7188-4.2031 15.406-4.1875 5.6875-11.375 5.6875zm0 7.6094q11.719 0 18.406-7.625 6.7031-7.6094 6.7031-21.078 0-13.422-6.7031-21.078-6.6875-7.6406-18.406-7.6406-11.766 0-18.438 7.6406-6.6562 7.6562-6.6562 21.078 0 13.469 6.6562 21.078 6.6719 7.625 18.438 7.625z"/>
</defs>
<use xlink:href="#ak"/>
<use x="65.380859" xlink:href="#v"/>
</g>
</g>
<g clip-path="url(#a)">
<g transform="translate(295.09 842.76) scale(.1 -.1)">
<use xlink:href="#s"/>
<use x="58.251953" xlink:href="#ac"/>
</g>
</g>
<g clip-path="url(#a)">
<g transform="translate(331.55 842.76) scale(.1 -.1)">
<defs>
<path id="x" d="m56.203 29.594v-4.3906h-41.312q0.59375-9.2812 5.5938-14.141t13.938-4.8594q5.1719 0 10.031 1.2656t9.6562 3.8125v-8.5q-4.8438-2.0469-9.9219-3.125t-10.297-1.0781q-13.094 0-20.734 7.6094-7.6406 7.625-7.6406 20.625 0 13.422 7.25 21.297 7.25 7.8906 19.562 7.8906 11.031 0 17.453-7.1094 6.4219-7.0938 6.4219-19.297zm-8.9844 2.6406q-0.09375 7.3594-4.125 11.75-4.0312 4.4062-10.672 4.4062-7.5156 0-12.031-4.25t-5.2031-11.969z"/>
</defs>
<use xlink:href="#ak"/>
<use x="65.380859" xlink:href="#x"/>
</g>
</g>
<g clip-path="url(#a)">
<g transform="translate(354.39 842.76) scale(.1 -.1)">
<defs>
<path id="u" d="m18.062 25.203v-18.031h12.797q6.1562 0 9.375 2.3125 3.2188 2.3281 3.2188 6.7344 0 4.3906-3.2188 6.6875t-9.375 2.2969zm0 22.312v-15.141h11.828q5.0781 0 8.2969 2.0156 3.2188 2.0312 3.2188 5.6562 0 3.6094-3.2188 5.5312-3.2188 1.9375-8.2969 1.9375zm-8.9844 7.1719h21.391q9.625 0 14.797-3.5156t5.1719-10.016q0-5.0156-2.6406-7.9844-2.625-2.9531-7.8125-3.6719 6.2031-1.1719 9.625-4.8906 3.4219-3.7031 3.4219-9.2812 0-7.3125-5.6406-11.328-5.6406-4-16.094-4h-22.219z"/>
<path id="bf" d="m55.906 54.688v-54.688h-8.9375v43.891l-26.359-43.891h-11.531v54.688h8.9375v-43.797l26.328 43.797zm-38.688 20.828h5.7656q0.53125-3.6562 2.8906-5.5 2.375-1.8281 6.625-1.8281 4.2031 0 6.5469 1.8125t2.9688 5.5156h5.7656q-0.48438-6.9844-4.3438-10.5t-10.938-3.5156-10.938 3.5156-4.3438 10.5z"/>
</defs>
<use xlink:href="#y"/>
<use x="53.173828" xlink:href="#t"/>
<use x="114.453125" xlink:href="#ax"/>
<use x="176.123047" xlink:href="#ac"/>
<use x="255.078125" xlink:href="#u"/>
<use x="314.013672" xlink:href="#t"/>
<use x="375.292969" xlink:href="#bf"/>
</g>
</g>
<g clip-path="url(#a)">
<g transform="translate(415.8 842.76) scale(.1 -.1)">
<defs>
<path id="ba" d="m11.719 12.406h10.297v-12.406h-10.297zm0 39.297h10.297v-12.391h-10.297z"/>
</defs>
<use xlink:href="#ba"/>
</g>
</g>
<g clip-path="url(#a)">
<g transform="translate(454.27 842.76) scale(.1 -.1)">
<use xlink:href="#s"/>
<use x="58.251953" xlink:href="#ac"/>
</g>
</g>
<g clip-path="url(#a)">
<g transform="translate(483.1 842.76) scale(.1 -.1)">
<defs>
<path id="aw" d="m9.0781 0v54.688h38.578v-7.1719h-29.547v-47.516z"/>
</defs>
<use xlink:href="#ak"/>
<use x="65.380859" xlink:href="#t"/>
<use x="126.660156" xlink:href="#u"/>
<use x="185.595703" xlink:href="#ad"/>
<use x="240.576172" xlink:href="#x"/>
<use x="302.099609" xlink:href="#aw"/>
<use x="354.638672" xlink:href="#av"/>
<use x="423.779297" xlink:href="#t"/>
</g>
</g>
<g clip-path="url(#a)">
<g transform="translate(553.19 842.76) scale(.1 -.1)">
<use xlink:href="#u"/>
</g>
</g>
<g clip-path="url(#a)">
<g transform="translate(589.5 842.76) scale(.1 -.1)">
<use xlink:href="#v"/>
<use x="61.181641" xlink:href="#s"/>
<use x="119.433594" xlink:href="#u"/>
<use x="178.369141" xlink:href="#x"/>
<use x="239.892578" xlink:href="#s"/>
<use x="298.144531" xlink:href="#x"/>
</g>
</g>
<g clip-path="url(#a)">
<g transform="translate(655.68 842.76) scale(.1 -.1)">
<use xlink:href="#y"/>
<use x="53.173828" xlink:href="#t"/>
</g>
</g>
<g clip-path="url(#a)">
<g transform="translate(706.16 842.76) scale(.1 -.1)">
<defs>
<path id="bd" d="m54.891 54.688-19.781-26.609 20.797-28.078h-10.594l-15.922 21.484-15.906-21.484h-10.609l21.25 28.609-19.438 26.078h10.594l14.5-19.484 14.5 19.484z"/>
</defs>
<use xlink:href="#u"/>
<use x="58.935547" xlink:href="#ad"/>
<use x="113.916016" xlink:href="#x"/>
<use x="175.439453" xlink:href="#bd"/>
</g>
</g>
<g clip-path="url(#a)">
<g transform="translate(775.36 842.76) scale(.1 -.1)">
<use xlink:href="#ao"/>
</g>
</g>
<g clip-path="url(#a)">
<g transform="translate(826.8 842.76) scale(.1 -.1)">
<use xlink:href="#au"/>
<use x="60.400391" xlink:href="#v"/>
<use x="121.582031" xlink:href="#aw"/>
<use x="174.121094" xlink:href="#v"/>
</g>
</g>
<g clip-path="url(#a)">
<g transform="translate(877.53 842.76) scale(.1 -.1)">
<defs>
<path id="be" d="m56.297 54.688v-54.688h-9.0312v47.516h-29.156v-47.516h-9.0312v54.688z"/>
<path id="ap" d="m18.109 8.2031v-29h-9.0312v75.484h9.0312v-8.2969q2.8438 4.875 7.1562 7.2344 4.3281 2.375 10.328 2.375 9.9688 0 16.188-7.9062 6.2344-7.9062 6.2344-20.797t-6.2344-20.812q-6.2188-7.9062-16.188-7.9062-6 0-10.328 2.375-4.3125 2.375-7.1562 7.25zm30.578 19.094q0 9.9062-4.0781 15.547t-11.203 5.6406q-7.1406 0-11.219-5.6406t-4.0781-15.547 4.0781-15.547 11.219-5.6406q7.125 0 11.203 5.6406t4.0781 15.547z"/>
<path id="bc" d="m41.016 0v23h-16.75q-7.4688 0-12.453 4.6406-4.4844 4.2031-4.4844 13.188v13.859h8.9844v-13.031q0-5.7188 2.5312-8.5938 2.5938-2.8906 7.6719-2.8906h14.5v24.516h8.9844v-54.688z"/>
</defs>
<use xlink:href="#be"/>
<use x="65.380859" xlink:href="#ap"/>
<use x="128.857422" xlink:href="#w"/>
<use x="193.847656" xlink:href="#ap"/>
<use x="257.324219" xlink:href="#aj"/>
<use x="316.503906" xlink:href="#bc"/>
<use x="375.585938" xlink:href="#w"/>
<use x="440.576172" xlink:href="#aq"/>
</g>
</g>
<g clip-path="url(#a)">
<g transform="translate(967.92 842.76) scale(.1 -.1)">
<defs>
<path id="d" d="m10.688 12.406h10.312v-12.406h-10.312z"/>
</defs>
<use xlink:href="#d"/>
</g>
</g>
<g clip-path="url(#a)">
<g transform="translate(1031.8 842.76) scale(.1 -.1)">
<defs>
<path id="bg" d="m-0.29688 72.906h61.672v-8.3125h-25.875v-64.594h-9.9062v64.594h-25.891z"/>
</defs>
<use xlink:href="#bg"/>
<use x="61.083984" xlink:href="#ac"/>
</g>
</g>
<g clip-path="url(#a)">
<g transform="translate(1107.8 842.76) scale(.1 -.1)">
<use xlink:href="#u"/>
</g>
</g>
<g clip-path="url(#a)">
<g transform="translate(1167.2 842.76) scale(.1 -.1)">
<use xlink:href="#v"/>
<use x="61.181641" xlink:href="#s"/>
<use x="119.433594" xlink:href="#u"/>
<use x="178.369141" xlink:href="#x"/>
<use x="239.892578" xlink:href="#s"/>
<use x="298.144531" xlink:href="#x"/>
</g>
</g>
<g clip-path="url(#a)">
<g transform="translate(1256.5 842.76) scale(.1 -.1)">
<use xlink:href="#y"/>
<use x="53.173828" xlink:href="#t"/>
</g>
</g>
<g clip-path="url(#a)">
<g transform="translate(1328.7 842.76) scale(.1 -.1)">
<use xlink:href="#s"/>
<use x="58.251953" xlink:href="#u"/>
<use x="117.1875" xlink:href="#v"/>
<use x="178.369141" xlink:href="#at"/>
</g>
</g>
<g clip-path="url(#a)">
<g transform="translate(1412.1 842.76) scale(.1 -.1)">
<use xlink:href="#ap"/>
<use x="63.476562" xlink:href="#v"/>
<use x="124.658203" xlink:href="#y"/>
<use x="177.832031" xlink:href="#aj"/>
</g>
</g>
<g clip-path="url(#a)">
<g transform="translate(1507.1 842.76) scale(.1 -.1)">
<use xlink:href="#d"/>
</g>
</g>
<g clip-path="url(#a)">
<g transform="translate(1594.2 842.76) scale(.1 -.1)">
<use xlink:href="#an"/>
</g>
</g>
<g clip-path="url(#a)">
<g transform="translate(220.12 42.759) scale(.1 -.1)">
<defs>
<path id="c" d="m12.406 8.2969h16.109v55.625l-17.531-3.5156v8.9844l17.438 3.5156h9.8594v-64.609h16.109v-8.2969h-41.984z"/>
</defs>
<use xlink:href="#c"/>
<use x="63.623047" xlink:href="#d"/>
<use x="95.410156" xlink:href="#c"/>
</g>
</g>
<g clip-path="url(#a)">
<g transform="translate(220.12 158.1) scale(.1 -.1)">
<defs>
<path id="m" d="m19.188 8.2969h34.422v-8.2969h-46.281v8.2969q5.6094 5.8125 15.297 15.594 9.7031 9.7969 12.188 12.641 4.7344 5.3125 6.6094 9 1.8906 3.6875 1.8906 7.25 0 5.8125-4.0781 9.4688-4.0781 3.6719-10.625 3.6719-4.6406 0-9.7969-1.6094-5.1406-1.6094-11-4.8906v9.9688q5.9531 2.3906 11.125 3.6094 5.1875 1.2188 9.4844 1.2188 11.328 0 18.062-5.6719 6.7344-5.6562 6.7344-15.125 0-4.5-1.6875-8.5312-1.6719-4.0156-6.125-9.4844-1.2188-1.4219-7.7656-8.1875-6.5312-6.7656-18.453-18.922z"/>
</defs>
<use xlink:href="#c"/>
<use x="63.623047" xlink:href="#d"/>
<use x="95.410156" xlink:href="#m"/>
</g>
</g>
<g clip-path="url(#a)">
<g transform="translate(534.29 273.25) scale(.1 -.1)">
<defs>
<path id="q" d="m10.797 72.906h38.719v-8.3125h-29.688v-17.859q2.1406 0.73438 4.2812 1.0938 2.1562 0.35938 4.3125 0.35938 12.203 0 19.328-6.6875 7.1406-6.6875 7.1406-18.109 0-11.766-7.3281-18.297-7.3281-6.5156-20.656-6.5156-4.5938 0-9.3594 0.78125-4.75 0.78125-9.8281 2.3438v9.9219q4.3906-2.3906 9.0781-3.5625t9.9062-1.1719q8.4531 0 13.375 4.4375 4.9375 4.4375 4.9375 12.062 0 7.6094-4.9375 12.047-4.9219 4.4531-13.375 4.4531-3.9531 0-7.8906-0.875-3.9219-0.875-8.0156-2.7344z"/>
</defs>
<use xlink:href="#c"/>
<use x="63.623047" xlink:href="#d"/>
<use x="95.410156" xlink:href="#q"/>
</g>
</g>
<g clip-path="url(#a)">
<g transform="translate(152.78 730.68) scale(.1 -.1)">
<defs>
<path id="ab" d="m33.016 40.375q-6.6406 0-10.531-4.5469-3.875-4.5312-3.875-12.438 0-7.8594 3.875-12.438 3.8906-4.5625 10.531-4.5625t10.516 4.5625q3.875 4.5781 3.875 12.438 0 7.9062-3.875 12.438-3.875 4.5469-10.516 4.5469zm19.578 30.922v-8.9844q-3.7188 1.75-7.5 2.6719-3.7812 0.9375-7.5 0.9375-9.7656 0-14.922-6.5938-5.1406-6.5938-5.875-19.922 2.875 4.25 7.2188 6.5156 4.3594 2.2656 9.5781 2.2656 10.984 0 17.359-6.6719 6.375-6.6562 6.375-18.125 0-11.234-6.6406-18.031-6.6406-6.7812-17.672-6.7812-12.656 0-19.344 9.6875-6.6875 9.7031-6.6875 28.109 0 17.281 8.2031 27.562t22.016 10.281q3.7188 0 7.5-0.73438t7.8906-2.1875z"/>
</defs>
<use xlink:href="#c"/>
<use x="63.623047" xlink:href="#d"/>
<use x="95.410156" xlink:href="#ab"/>
</g>
</g>
<g clip-path="url(#a)">
<g transform="translate(175.89 730.68) scale(.1 -.1)">
<defs>
<path id="ah" d="m8.2031 72.906h46.875v-4.2031l-26.469-68.703h-10.297l24.906 64.594h-35.016z"/>
</defs>
<use xlink:href="#c"/>
<use x="63.623047" xlink:href="#d"/>
<use x="95.410156" xlink:href="#ah"/>
</g>
</g>
<g clip-path="url(#a)">
<g transform="translate(75.565 502.79) scale(.1 -.1)">
<use xlink:href="#c"/>
<use x="63.623047" xlink:href="#d"/>
<use x="95.410156" xlink:href="#c"/>
<use x="159.033203" xlink:href="#m"/>
</g>
</g>
<g clip-path="url(#a)">
<g transform="translate(257.43 730.68) scale(.1 -.1)">
<defs>
<path id="o" d="m40.578 39.312q7.0781-1.5156 11.047-6.3125 3.9844-4.7812 3.9844-11.812 0-10.781-7.4219-16.703-7.4219-5.9062-21.094-5.9062-4.5781 0-9.4375 0.90625t-10.031 2.7188v9.5156q4.0938-2.3906 8.9688-3.6094 4.8906-1.2188 10.219-1.2188 9.2656 0 14.125 3.6562t4.8594 10.641q0 6.4531-4.5156 10.078-4.5156 3.6406-12.562 3.6406h-8.5v8.1094h8.8906q7.2656 0 11.125 2.9062t3.8594 8.375q0 5.6094-3.9844 8.6094-3.9688 3.0156-11.391 3.0156-4.0625 0-8.7031-0.89062-4.6406-0.875-10.203-2.7188v8.7812q5.625 1.5625 10.531 2.3438t9.25 0.78125q11.234 0 17.766-5.1094 6.5469-5.0938 6.5469-13.781 0-6.0625-3.4688-10.234t-9.8594-5.7812z"/>
</defs>
<use xlink:href="#c"/>
<use x="63.623047" xlink:href="#d"/>
<use x="95.410156" xlink:href="#c"/>
<use x="159.033203" xlink:href="#o"/>
</g>
</g>
<g clip-path="url(#a)">
<g transform="translate(269.63 617.03) scale(.1 -.1)">
<defs>
<path id="n" d="m37.797 64.312-24.906-38.922h24.906zm-2.5938 8.5938h12.406v-47.516h10.406v-8.2031h-10.406v-17.188h-9.8125v17.188h-32.906v9.5156z"/>
</defs>
<use xlink:href="#c"/>
<use x="63.623047" xlink:href="#d"/>
<use x="95.410156" xlink:href="#c"/>
<use x="159.033203" xlink:href="#n"/>
</g>
</g>
<g clip-path="url(#a)">
<g transform="translate(557.09 388.17) scale(.1 -.1)">
<use xlink:href="#c"/>
<use x="63.623047" xlink:href="#d"/>
<use x="95.410156" xlink:href="#c"/>
<use x="159.033203" xlink:href="#q"/>
</g>
</g>
<g clip-path="url(#a)">
<g transform="translate(1193.3 502.79) scale(.1 -.1)">
<use xlink:href="#c"/>
<use x="63.623047" xlink:href="#d"/>
<use x="95.410156" xlink:href="#c"/>
<use x="159.033203" xlink:href="#ab"/>
</g>
</g>
<g clip-path="url(#a)">
<g transform="translate(1027.7 730.68) scale(.1 -.1)">
<defs>
<path id="ag" d="m10.984 1.5156v8.9844q3.7188-1.7656 7.5156-2.6875 3.8125-0.92188 7.4844-0.92188 9.7656 0 14.906 6.5625 5.1562 6.5625 5.8906 19.953-2.8281-4.2031-7.1875-6.4531-4.3438-2.25-9.6094-2.25-10.938 0-17.312 6.6094-6.375 6.625-6.375 18.109 0 11.219 6.6406 18 6.6406 6.7969 17.672 6.7969 12.656 0 19.312-9.7031 6.6719-9.6875 6.6719-28.141 0-17.234-8.1875-27.516-8.1719-10.281-21.984-10.281-3.7188 0-7.5312 0.73438-3.7969 0.73438-7.9062 2.2031zm19.625 30.906q6.6406 0 10.516 4.5312 3.8906 4.5469 3.8906 12.469 0 7.8594-3.8906 12.422-3.875 4.5625-10.516 4.5625t-10.516-4.5625-3.875-12.422q0-7.9219 3.875-12.469 3.875-4.5312 10.516-4.5312z"/>
</defs>
<use xlink:href="#c"/>
<use x="63.623047" xlink:href="#d"/>
<use x="95.410156" xlink:href="#c"/>
<use x="159.033203" xlink:href="#ag"/>
</g>
</g>
<g clip-path="url(#a)">
<g transform="translate(1136.8 617.03) scale(.1 -.1)">
<defs>
<path id="ai" d="m31.781 66.406q-7.6094 0-11.453-7.5-3.8281-7.4844-3.8281-22.531 0-14.984 3.8281-22.484 3.8438-7.5 11.453-7.5 7.6719 0 11.5 7.5 3.8438 7.5 3.8438 22.484 0 15.047-3.8438 22.531-3.8281 7.5-11.5 7.5zm0 7.8125q12.266 0 18.734-9.7031 6.4688-9.6875 6.4688-28.141 0-18.406-6.4688-28.109-6.4688-9.6875-18.734-9.6875-12.25 0-18.719 9.6875-6.4688 9.7031-6.4688 28.109 0 18.453 6.4688 28.141 6.4688 9.7031 18.719 9.7031z"/>
</defs>
<use xlink:href="#c"/>
<use x="63.623047" xlink:href="#d"/>
<use x="95.410156" xlink:href="#m"/>
<use x="159.033203" xlink:href="#ai"/>
</g>
</g>
<g clip-path="url(#a)">
<g transform="translate(1415.4 617.03) scale(.1 -.1)">
<use xlink:href="#c"/>
<use x="63.623047" xlink:href="#d"/>
<use x="95.410156" xlink:href="#m"/>
<use x="159.033203" xlink:href="#c"/>
</g>
</g>
<g clip-path="url(#a)">
<g transform="translate(1251.1 730.68) scale(.1 -.1)">
<use xlink:href="#c"/>
<use x="63.623047" xlink:href="#d"/>
<use x="95.410156" xlink:href="#m"/>
<use x="159.033203" xlink:href="#m"/>
</g>
</g>
<g clip-path="url(#a)">
<g transform="translate(1330.7 730.68) scale(.1 -.1)">
<use xlink:href="#c"/>
<use x="63.623047" xlink:href="#d"/>
<use x="95.410156" xlink:href="#m"/>
<use x="159.033203" xlink:href="#o"/>
</g>
</g>
<g clip-path="url(#a)">
<g transform="translate(1412.8 730.68) scale(.1 -.1)">
<use xlink:href="#c"/>
<use x="63.623047" xlink:href="#d"/>
<use x="95.410156" xlink:href="#m"/>
<use x="159.033203" xlink:href="#n"/>
</g>
</g>
<g clip-path="url(#a)">
<g transform="translate(1099.6 730.68) scale(.1 -.1)">
<use xlink:href="#c"/>
<use x="63.623047" xlink:href="#d"/>
<use x="95.410156" xlink:href="#m"/>
<use x="159.033203" xlink:href="#q"/>
</g>
</g>
<g clip-path="url(#a)">
<g transform="translate(1174.1 730.68) scale(.1 -.1)">
<use xlink:href="#c"/>
<use x="63.623047" xlink:href="#d"/>
<use x="95.410156" xlink:href="#m"/>
<use x="159.033203" xlink:href="#ab"/>
</g>
</g>
<g clip-path="url(#a)">
<g transform="translate(450 730.68) scale(.1 -.1)">
<use xlink:href="#c"/>
<use x="63.623047" xlink:href="#d"/>
<use x="95.410156" xlink:href="#m"/>
<use x="159.033203" xlink:href="#ah"/>
</g>
</g>
<g clip-path="url(#a)">
<g transform="translate(496.22 730.68) scale(.1 -.1)">
<defs>
<path id="am" d="m31.781 34.625q-7.0312 0-11.062-3.7656-4.0156-3.7656-4.0156-10.344 0-6.5938 4.0156-10.359 4.0312-3.7656 11.062-3.7656t11.078 3.7812q4.0625 3.7969 4.0625 10.344 0 6.5781-4.0312 10.344-4.0156 3.7656-11.109 3.7656zm-9.8594 4.1875q-6.3438 1.5625-9.8906 5.9062-3.5312 4.3594-3.5312 10.609 0 8.7344 6.2188 13.812 6.2344 5.0781 17.062 5.0781 10.891 0 17.094-5.0781t6.2031-13.812q0-6.25-3.5469-10.609-3.5312-4.3438-9.8281-5.9062 7.125-1.6562 11.094-6.5 3.9844-4.8281 3.9844-11.797 0-10.609-6.4688-16.281-6.4688-5.6562-18.531-5.6562-12.047 0-18.531 5.6562-6.4688 5.6719-6.4688 16.281 0 6.9688 4 11.797 4.0156 4.8438 11.141 6.5zm-3.6094 15.578q0-5.6562 3.5312-8.8281 3.5469-3.1719 9.9375-3.1719 6.3594 0 9.9375 3.1719 3.5938 3.1719 3.5938 8.8281 0 5.6719-3.5938 8.8438-3.5781 3.1719-9.9375 3.1719-6.3906 0-9.9375-3.1719-3.5312-3.1719-3.5312-8.8438z"/>
</defs>
<use xlink:href="#c"/>
<use x="63.623047" xlink:href="#d"/>
<use x="95.410156" xlink:href="#m"/>
<use x="159.033203" xlink:href="#am"/>
</g>
</g>
<g clip-path="url(#a)">
<g transform="translate(570.68 617.03) scale(.1 -.1)">
<use xlink:href="#c"/>
<use x="63.623047" xlink:href="#d"/>
<use x="95.410156" xlink:href="#m"/>
<use x="159.033203" xlink:href="#ag"/>
</g>
</g>
<g clip-path="url(#a)">
<g transform="translate(711.47 502.79) scale(.1 -.1)">
<use xlink:href="#c"/>
<use x="63.623047" xlink:href="#d"/>
<use x="95.410156" xlink:href="#o"/>
<use x="159.033203" xlink:href="#ai"/>
</g>
</g>
<g clip-path="url(#a)">
<g transform="translate(650.27 730.68) scale(.1 -.1)">
<use xlink:href="#c"/>
<use x="63.623047" xlink:href="#d"/>
<use x="95.410156" xlink:href="#o"/>
<use x="159.033203" xlink:href="#c"/>
</g>
</g>
<g clip-path="url(#a)">
<g transform="translate(706.76 730.68) scale(.1 -.1)">
<use xlink:href="#c"/>
<use x="63.623047" xlink:href="#d"/>
<use x="95.410156" xlink:href="#o"/>
<use x="159.033203" xlink:href="#m"/>
</g>
</g>
<g clip-path="url(#a)">
<g transform="translate(723.02 617.03) scale(.1 -.1)">
<use xlink:href="#c"/>
<use x="63.623047" xlink:href="#d"/>
<use x="95.410156" xlink:href="#o"/>
<use x="159.033203" xlink:href="#o"/>
</g>
</g>
<g clip-path="url(#a)">
<g transform="translate(827.43 730.68) scale(.1 -.1)">
<use xlink:href="#c"/>
<use x="63.623047" xlink:href="#d"/>
<use x="95.410156" xlink:href="#o"/>
<use x="159.033203" xlink:href="#q"/>
</g>
</g>
<g clip-path="url(#a)">
<g transform="translate(891.62 730.68) scale(.1 -.1)">
<use xlink:href="#c"/>
<use x="63.623047" xlink:href="#d"/>
<use x="95.410156" xlink:href="#o"/>
<use x="159.033203" xlink:href="#ab"/>
</g>
</g>
<g clip-path="url(#a)">
<g transform="translate(545 730.68) scale(.1 -.1)">
<use xlink:href="#c"/>
<use x="63.623047" xlink:href="#d"/>
<use x="95.410156" xlink:href="#o"/>
<use x="159.033203" xlink:href="#ah"/>
</g>
</g>
<g clip-path="url(#a)">
<g transform="translate(596.35 730.68) scale(.1 -.1)">
<use xlink:href="#c"/>
<use x="63.623047" xlink:href="#d"/>
<use x="95.410156" xlink:href="#o"/>
<use x="159.033203" xlink:href="#am"/>
</g>
</g>
<g clip-path="url(#a)">
<g transform="translate(290.81 730.68) scale(.1 -.1)">
<use xlink:href="#c"/>
<use x="63.623047" xlink:href="#d"/>
<use x="95.410156" xlink:href="#o"/>
<use x="159.033203" xlink:href="#ag"/>
</g>
</g>
<g clip-path="url(#a)">
<g transform="translate(326.76 730.68) scale(.1 -.1)">
<use xlink:href="#c"/>
<use x="63.623047" xlink:href="#d"/>
<use x="95.410156" xlink:href="#n"/>
<use x="159.033203" xlink:href="#ai"/>
</g>
</g>
<g clip-path="url(#a)">
<g transform="translate(365.27 730.68) scale(.1 -.1)">
<use xlink:href="#c"/>
<use x="63.623047" xlink:href="#d"/>
<use x="95.410156" xlink:href="#n"/>
<use x="159.033203" xlink:href="#c"/>
</g>
</g>
<g clip-path="url(#a)">
<g transform="translate(64.867 730.68) scale(.1 -.1)">
<use xlink:href="#c"/>
<use x="63.623047" xlink:href="#d"/>
<use x="95.410156" xlink:href="#n"/>
<use x="159.033203" xlink:href="#m"/>
</g>
</g>
<g clip-path="url(#a)">
<g transform="translate(72.57 730.68) scale(.1 -.1)">
<use xlink:href="#c"/>
<use x="63.623047" xlink:href="#d"/>
<use x="95.410156" xlink:href="#n"/>
<use x="159.033203" xlink:href="#o"/>
</g>
</g>
<g clip-path="url(#a)">
<g transform="translate(89.259 617.03) scale(.1 -.1)">
<use xlink:href="#c"/>
<use x="63.623047" xlink:href="#d"/>
<use x="95.410156" xlink:href="#n"/>
<use x="159.033203" xlink:href="#n"/>
</g>
</g>
<g clip-path="url(#a)">
<g transform="translate(82.84 730.68) scale(.1 -.1)">
<use xlink:href="#c"/>
<use x="63.623047" xlink:href="#d"/>
<use x="95.410156" xlink:href="#n"/>
<use x="159.033203" xlink:href="#q"/>
</g>
</g>
<g clip-path="url(#a)">
<g transform="translate(95.678 730.68) scale(.1 -.1)">
<use xlink:href="#c"/>
<use x="63.623047" xlink:href="#d"/>
<use x="95.410156" xlink:href="#n"/>
<use x="159.033203" xlink:href="#ab"/>
</g>
</g>
<g clip-path="url(#a)">
<g transform="translate(111.08 730.68) scale(.1 -.1)">
<use xlink:href="#c"/>
<use x="63.623047" xlink:href="#d"/>
<use x="95.410156" xlink:href="#n"/>
<use x="159.033203" xlink:href="#ah"/>
</g>
</g>
<g clip-path="url(#a)">
<g transform="translate(129.06 730.68) scale(.1 -.1)">
<use xlink:href="#c"/>
<use x="63.623047" xlink:href="#d"/>
<use x="95.410156" xlink:href="#n"/>
<use x="159.033203" xlink:href="#am"/>
</g>
</g>
<g clip-path="url(#a)">
<g transform="translate(198.38 730.68) scale(.1 -.1)">
<use xlink:href="#c"/>
<use x="63.623047" xlink:href="#d"/>
<use x="95.410156" xlink:href="#n"/>
<use x="159.033203" xlink:href="#ag"/>
</g>
</g>
<g clip-path="url(#a)">
<g transform="translate(226.62 730.68) scale(.1 -.1)">
<use xlink:href="#c"/>
<use x="63.623047" xlink:href="#d"/>
<use x="95.410156" xlink:href="#q"/>
<use x="159.033203" xlink:href="#ai"/>
</g>
</g>
<g clip-path="url(#a)">
<g transform="translate(406.35 730.68) scale(.1 -.1)">
<use xlink:href="#c"/>
<use x="63.623047" xlink:href="#d"/>
<use x="95.410156" xlink:href="#q"/>
<use x="159.033203" xlink:href="#c"/>
</g>
</g>
<g clip-path="url(#a)">
<g transform="translate(765.81 730.68) scale(.1 -.1)">
<use xlink:href="#c"/>
<use x="63.623047" xlink:href="#d"/>
<use x="95.410156" xlink:href="#q"/>
<use x="159.033203" xlink:href="#m"/>
</g>
</g>
<g clip-path="url(#a)">
<g transform="translate(958.38 730.68) scale(.1 -.1)">
<use xlink:href="#c"/>
<use x="63.623047" xlink:href="#d"/>
<use x="95.410156" xlink:href="#q"/>
<use x="159.033203" xlink:href="#o"/>
</g>
</g>
<g clip-path="url(#a)">
<g transform="translate(1497.6 730.68) scale(.1 -.1)">
<use xlink:href="#c"/>
<use x="63.623047" xlink:href="#d"/>
<use x="95.410156" xlink:href="#q"/>
<use x="159.033203" xlink:href="#n"/>
</g>
</g>
<g clip-path="url(#a)">
<g transform="translate(1584.9 730.68) scale(.1 -.1)">
<use xlink:href="#c"/>
<use x="63.623047" xlink:href="#d"/>
<use x="95.410156" xlink:href="#q"/>
<use x="159.033203" xlink:href="#q"/>
</g>
</g>
<defs>
<clipPath id="a">
<rect width="1672" height="880"/>
</clipPath>
</defs>
</svg>
