<?xml version="1.0" encoding="UTF-8"?>
<!DOCTYPE svg  PUBLIC '-//W3C//DTD SVG 1.1//EN'  'http://www.w3.org/Graphics/SVG/1.1/DTD/svg11.dtd'>
<svg width="658.67pt" height="346.67pt" version="1.1" viewBox="0 0 658.67 346.67" xmlns="http://www.w3.org/2000/svg" xmlns:xlink="http://www.w3.org/1999/xlink">
<metadata>
<rdf:RDF xmlns:cc="http://creativecommons.org/ns#" xmlns:dc="http://purl.org/dc/elements/1.1/" xmlns:rdf="http://www.w3.org/1999/02/22-rdf-syntax-ns#">
<cc:Work>
<dc:type rdf:resource="http://purl.org/dc/dcmitype/StillImage"/>
<dc:date>2021-02-01T11:25:54.580624</dc:date>
<dc:format>image/svg+xml</dc:format>
<dc:creator>
<cc:Agent>
<dc:title>Matplotlib v3.3.3, https://matplotlib.org/</dc:title>
</cc:Agent>
</dc:creator>
</cc:Work>
</rdf:RDF>
</metadata>
<defs>
<style type="text/css">*{stroke-linecap:butt;stroke-linejoin:round;}</style>
</defs>
<path d="m0 346.67h658.67v-346.67h-658.67z" fill="#fff"/>
<g fill="none" stroke="#000">
<path d="m180.88 15.758-136.55 79.467" clip-path="url(#a)"/>
<path d="m180.88 15.758-41.551 237.45" clip-path="url(#a)"/>
<path d="m180.88 15.758-1.2475 237.45" clip-path="url(#a)"/>
<path d="m180.88 15.758 255.44 79.467" clip-path="url(#a)"/>
<path d="m180.88 15.758-76.096 237.45" clip-path="url(#a)"/>
<path d="m44.333 95.224 31.667 79.197" clip-path="url(#a)"/>
<path d="m44.333 95.224-14.394 157.98" clip-path="url(#a)"/>
<path d="m44.333 95.224 14.394 79.197" clip-path="url(#a)"/>
<path d="m139.33 253.21v77.703" clip-path="url(#a)"/>
<path d="m179.64 253.21v77.703" clip-path="url(#a)"/>
<path d="m436.33 95.224 192.4 79.197" clip-path="url(#a)"/>
<path d="m436.33 95.224-184.72 79.197" clip-path="url(#a)"/>
<path d="m436.33 95.224-101.24 157.98" clip-path="url(#a)"/>
<path d="m436.33 95.224-37.904 157.98" clip-path="url(#a)"/>
<path d="m436.33 95.224 31.187 157.98" clip-path="url(#a)"/>
<path d="m436.33 95.224 106.04 157.98" clip-path="url(#a)"/>
<path d="m436.33 95.224 186.64 157.98" clip-path="url(#a)"/>
<path d="m251.61 174.42-25.909 78.784" clip-path="url(#a)"/>
<path d="m251.61 174.42 25.909 78.784" clip-path="url(#a)"/>
<path d="m335.09 253.21v77.703" clip-path="url(#a)"/>
<path d="m398.42 253.21v77.703" clip-path="url(#a)"/>
<path d="m467.52 253.21v77.703" clip-path="url(#a)"/>
<path d="m225.7 253.21v77.703" clip-path="url(#a)"/>
<path d="m277.52 253.21v77.703" clip-path="url(#a)"/>
<path d="m29.939 253.21v77.703" clip-path="url(#a)"/>
<path d="m58.727 174.42-11.515 78.784" clip-path="url(#a)"/>
<path d="m58.727 174.42 11.515 78.784" clip-path="url(#a)"/>
<path d="m47.212 253.21v77.703" clip-path="url(#a)"/>
<path d="m70.242 253.21v77.703" clip-path="url(#a)"/>
<path d="m104.79 253.21v77.703" clip-path="url(#a)"/>
<path d="m542.36 253.21v77.703" clip-path="url(#a)"/>
<path d="m622.97 253.21v77.703" clip-path="url(#a)"/>
</g>
<path d="m113.16 62.424 5.1998-3.0261q2.0743-1.2072 0.86714-3.2815l-3.8944-6.6918q-1.2072-2.0743-3.2815-0.86714l-5.1998 3.0261q-2.0743 1.2072-0.86714 3.2815l3.8944 6.6918q1.2072 2.0743 3.2815 0.86714z" clip-path="url(#a)" fill="#fff" stroke="#fff"/>
<g clip-path="url(#a)">
<g transform="translate(111.12 58.912) rotate(-30.198) scale(.08 -.08)">
<defs>
<path id="ac" d="m9.8125 72.906h9.8594v-29.891h35.844v29.891h9.8594v-72.906h-9.8594v34.719h-35.844v-34.719h-9.8594z"/>
</defs>
<use xlink:href="#ac"/>
</g>
</g>
<path d="m165.9 137.76 0.76833-4.3908q0.41368-2.3641-1.9504-2.7778l-7.6266-1.3346q-2.3641-0.41368-2.7778 1.9504l-0.76833 4.3908q-0.41368 2.3641 1.9504 2.7778l7.6266 1.3346q2.3641 0.41368 2.7778-1.9504z" clip-path="url(#a)" fill="#fff" stroke="#fff"/>
<g clip-path="url(#a)">
<g transform="translate(161.9 137.06) rotate(-80.074) scale(.08 -.08)">
<defs>
<path id="u" d="m9.8125 72.906h9.8594v-64.609h35.5v-8.2969h-45.359z"/>
</defs>
<use xlink:href="#u"/>
</g>
</g>
<path d="m186.52 136.74 0.023417-4.4574q0.012609-2.4-2.3874-2.4126l-7.7424-0.040676q-2.4-0.012609-2.4126 2.3874l-0.023418 4.4574q-0.012609 2.4 2.3874 2.4126l7.7424 0.040676q2.4 0.012609 2.4126-2.3874z" clip-path="url(#a)" fill="#fff" stroke="#fff"/>
<g clip-path="url(#a)">
<g transform="translate(182.46 136.72) rotate(-89.699) scale(.08 -.08)">
<use xlink:href="#u"/>
</g>
</g>
<path d="m303.87 60.586 5.7447 1.7871q2.2917 0.71292 3.0046-1.5787l2.2999-7.393q0.71292-2.2917-1.5787-3.0046l-5.7447-1.7871q-2.2917-0.71292-3.0046 1.5787l-2.2999 7.393q-0.71292 2.2917 1.5787 3.0046z" clip-path="url(#a)" fill="#fff" stroke="#fff"/>
<g clip-path="url(#a)">
<g transform="translate(305.08 56.705) rotate(17.281) scale(.08 -.08)">
<use xlink:href="#ac"/>
</g>
</g>
<path d="m147.91 139.18 1.7869-5.5757q0.73244-2.2855-1.5531-3.0179l-7.3731-2.3629q-2.2855-0.73244-3.0179 1.5531l-1.7869 5.5757q-0.73244 2.2855 1.5531 3.0179l7.3731 2.3629q2.2855 0.73244 3.0179-1.5531z" clip-path="url(#a)" fill="#fff" stroke="#fff"/>
<g clip-path="url(#a)">
<g transform="translate(144.04 137.94) rotate(-72.231) scale(.08 -.08)">
<defs>
<path id="y" d="m8.6875 72.906h9.9219v-44.297q0-11.719 4.2344-16.875 4.25-5.1406 13.781-5.1406 9.4688 0 13.719 5.1406 4.25 5.1562 4.25 16.875v44.297h9.9062v-45.516q0-14.25-7.0625-21.531-7.0469-7.2812-20.812-7.2812-13.828 0-20.891 7.2812-7.0469 7.2812-7.0469 21.531z"/>
</defs>
<use xlink:href="#y"/>
</g>
</g>
<path d="m53.328 134.61 2.0318 5.0814q0.89104 2.2285 3.1195 1.3374l7.1891-2.8745q2.2285-0.89104 1.3374-3.1195l-2.0318-5.0814q-0.89104-2.2285-3.1195-1.3374l-7.1891 2.8745q-2.2285 0.89104-1.3374 3.1195z" clip-path="url(#a)" fill="#fff" stroke="#fff"/>
<g clip-path="url(#a)">
<g transform="translate(57.101 133.1) rotate(68.206) scale(.08 -.08)">
<defs>
<path id="w" d="m34.188 63.188-13.391-36.281h26.812zm-5.5781 9.7188h11.188l27.781-72.906h-10.25l-6.6406 18.703h-32.859l-6.6406-18.703h-10.406z"/>
</defs>
<use xlink:href="#w"/>
</g>
</g>
<path d="m43.163 177.19 0.43769-4.8039q0.21777-2.3901-2.1723-2.6079l-7.7106-0.70252q-2.3901-0.21777-2.6079 2.1723l-0.43769 4.8039q-0.21777 2.3901 2.1723 2.6079l7.7106 0.70252q2.3901 0.21777 2.6079-2.1723z" clip-path="url(#a)" fill="#fff" stroke="#fff"/>
<g clip-path="url(#a)">
<g transform="translate(39.116 176.82) rotate(-84.794) scale(.08 -.08)">
<defs>
<path id="t" d="m19.672 64.797v-27.391h12.406q6.8906 0 10.641 3.5625 3.7656 3.5625 3.7656 10.156 0 6.5469-3.7656 10.109-3.75 3.5625-10.641 3.5625zm-9.8594 8.1094h22.266q12.266 0 18.531-5.5469 6.2812-5.5469 6.2812-16.234 0-10.797-6.2812-16.312-6.2656-5.5156-18.531-5.5156h-12.406v-29.297h-9.8594z"/>
</defs>
<use xlink:href="#t"/>
</g>
</g>
<path d="m44.871 133.25 0.97858 5.3843q0.42916 2.3613 2.7905 1.9322l7.6177-1.3845q2.3613-0.42916 1.9322-2.7905l-0.97858-5.3843q-0.42916-2.3613-2.7905-1.9322l-7.6177 1.3845q-2.3613 0.42916-1.9322 2.7905z" clip-path="url(#a)" fill="#fff" stroke="#fff"/>
<g clip-path="url(#a)">
<g transform="translate(48.869 132.53) rotate(79.699) scale(.08 -.08)">
<use xlink:href="#w"/>
</g>
</g>
<path d="m133.06 275.15v33.808q0 2.4 2.4 2.4h7.7425q2.4 0 2.4-2.4v-33.808q0-2.4-2.4-2.4h-7.7425q-2.4 0-2.4 2.4z" clip-path="url(#a)" fill="#fff" stroke="#fff"/>
<g clip-path="url(#a)">
<g transform="translate(137.13 275.15) rotate(90) scale(.08 -.08)">
<defs>
<path id="e" d="m-0.29688 72.906h61.672v-8.3125h-25.875v-64.594h-9.9062v64.594h-25.891z"/>
<path id="l" d="m56.203 29.594v-4.3906h-41.312q0.59375-9.2812 5.5938-14.141t13.938-4.8594q5.1719 0 10.031 1.2656t9.6562 3.8125v-8.5q-4.8438-2.0469-9.9219-3.125t-10.297-1.0781q-13.094 0-20.734 7.6094-7.6406 7.625-7.6406 20.625 0 13.422 7.25 21.297 7.25 7.8906 19.562 7.8906 11.031 0 17.453-7.1094 6.4219-7.0938 6.4219-19.297zm-8.9844 2.6406q-0.09375 7.3594-4.125 11.75-4.0312 4.4062-10.672 4.4062-7.5156 0-12.031-4.25t-5.2031-11.969z"/>
<path id="g" d="m41.109 46.297q-1.5156 0.875-3.2969 1.2812-1.7812 0.42188-3.9219 0.42188-7.625 0-11.703-4.9531t-4.0781-14.234v-28.812h-9.0312v54.688h9.0312v-8.5q2.8438 4.9844 7.375 7.3906 4.5469 2.4219 11.047 2.4219 0.92188 0 2.0469-0.125 1.125-0.10938 2.4844-0.35938z"/>
<path id="i" d="m52 44.188q3.375 6.0625 8.0625 8.9375t11.031 2.875q8.5469 0 13.188-5.9844 4.6406-5.9688 4.6406-17v-33.016h-9.0312v32.719q0 7.8594-2.7969 11.656-2.7812 3.8125-8.4844 3.8125-6.9844 0-11.047-4.6406-4.0469-4.625-4.0469-12.641v-30.906h-9.0312v32.719q0 7.9062-2.7812 11.688t-8.5938 3.7812q-6.8906 0-10.953-4.6562-4.0469-4.6562-4.0469-12.625v-30.906h-9.0312v54.688h9.0312v-8.5q3.0781 5.0312 7.375 7.4219t10.203 2.3906q5.9688 0 10.141-3.0312 4.1719-3.0156 6.1719-8.7812z"/>
<path id="k" d="m9.4219 54.688h8.9844v-54.688h-8.9844zm0 21.297h8.9844v-11.391h-8.9844z"/>
<path id="h" d="m54.891 33.016v-33.016h-8.9844v32.719q0 7.7656-3.0312 11.609-3.0312 3.8594-9.0781 3.8594-7.2812 0-11.484-4.6406-4.2031-4.625-4.2031-12.641v-30.906h-9.0312v54.688h9.0312v-8.5q3.2344 4.9375 7.5938 7.375 4.375 2.4375 10.094 2.4375 9.4219 0 14.25-5.8281 4.8438-5.8281 4.8438-17.156z"/>
<path id="f" d="m34.281 27.484q-10.891 0-15.094-2.4844t-4.2031-8.5q0-4.7812 3.1562-7.5938 3.1562-2.7969 8.5625-2.7969 7.4844 0 12 5.2969t4.5156 14.078v2zm17.922 3.7188v-31.203h-8.9844v8.2969q-3.0781-4.9688-7.6719-7.3438t-11.234-2.375q-8.3906 0-13.359 4.7188-4.9531 4.7188-4.9531 12.625 0 9.2188 6.1719 13.906 6.1875 4.6875 18.438 4.6875h12.609v0.89062q0 6.2031-4.0781 9.5938t-11.453 3.3906q-4.6875 0-9.1406-1.125-4.4375-1.125-8.5312-3.375v8.3125q4.9219 1.9062 9.5625 2.8438 4.6406 0.95312 9.0312 0.95312 11.875 0 17.734-6.1562 5.8594-6.1406 5.8594-18.641z"/>
<path id="j" d="m9.4219 75.984h8.9844v-75.984h-8.9844z"/>
</defs>
<use xlink:href="#e"/>
<use x="44.083984" xlink:href="#l"/>
<use x="105.607422" xlink:href="#g"/>
<use x="144.970703" xlink:href="#i"/>
<use x="242.382812" xlink:href="#k"/>
<use x="270.166016" xlink:href="#h"/>
<use x="333.544922" xlink:href="#f"/>
<use x="394.824219" xlink:href="#j"/>
</g>
</g>
<path d="m173.37 275.15v33.808q0 2.4 2.4 2.4h7.7425q2.4 0 2.4-2.4v-33.808q0-2.4-2.4-2.4h-7.7425q-2.4 0-2.4 2.4z" clip-path="url(#a)" fill="#fff" stroke="#fff"/>
<g clip-path="url(#a)">
<g transform="translate(177.43 275.15) rotate(90) scale(.08 -.08)">
<use xlink:href="#e"/>
<use x="44.083984" xlink:href="#l"/>
<use x="105.607422" xlink:href="#g"/>
<use x="144.970703" xlink:href="#i"/>
<use x="242.382812" xlink:href="#k"/>
<use x="270.166016" xlink:href="#h"/>
<use x="333.544922" xlink:href="#f"/>
<use x="394.824219" xlink:href="#j"/>
</g>
</g>
<path d="m527.61 139.58 5.0605 2.0831q2.2193 0.91354 3.1329-1.3058l2.9471-7.1597q0.91355-2.2193-1.3058-3.1329l-5.0605-2.0831q-2.2193-0.91354-3.1329 1.3058l-2.9471 7.1597q-0.91354 2.2193 1.3058 3.1329z" clip-path="url(#a)" fill="#fff" stroke="#fff"/>
<g clip-path="url(#a)">
<g transform="translate(529.16 135.82) rotate(22.374) scale(.08 -.08)">
<use xlink:href="#w"/>
</g>
</g>
<path d="m343.92 141.67 5.0297-2.1564q2.2058-0.94572 1.2601-3.1515l-3.0509-7.1161q-0.94572-2.2058-3.1515-1.2601l-5.0297 2.1564q-2.2058 0.94572-1.2601 3.1515l3.0509 7.1161q0.94572 2.2058 3.1515 1.2601z" clip-path="url(#a)" fill="#fff" stroke="#fff"/>
<g clip-path="url(#a)">
<g transform="translate(342.32 137.93) rotate(-23.207) scale(.08 -.08)">
<use xlink:href="#w"/>
</g>
</g>
<path d="m389.33 180.19 3.3236-5.1865q1.2949-2.0207-0.7258-3.3156l-6.5189-4.1774q-2.0207-1.2949-3.3156 0.7258l-3.3236 5.1865q-1.2949 2.0207 0.7258 3.3156l6.5189 4.1774q2.0207 1.2949 3.3156-0.7258z" clip-path="url(#a)" fill="#fff" stroke="#fff"/>
<g clip-path="url(#a)">
<g transform="translate(385.91 178) rotate(-57.348) scale(.08 -.08)">
<defs>
<path id="ae" d="m19.672 64.797v-56.688h11.922q15.094 0 22.094 6.8281 7 6.8438 7 21.594 0 14.641-7 21.453t-22.094 6.8125zm-9.8594 8.1094h20.266q21.188 0 31.094-8.8125 9.9219-8.8125 9.9219-27.562 0-18.859-9.9688-27.703-9.9531-8.8281-31.047-8.8281h-20.266z"/>
</defs>
<use xlink:href="#ae"/>
</g>
</g>
<path d="m422.76 178.67 1.4372-5.99q0.55993-2.3338-1.7738-2.8937l-7.5288-1.8064q-2.3338-0.55993-2.8937 1.7738l-1.4372 5.99q-0.55994 2.3338 1.7738 2.8937l7.5288 1.8064q2.3338 0.55993 2.8937-1.7738z" clip-path="url(#a)" fill="#fff" stroke="#fff"/>
<g clip-path="url(#a)">
<g transform="translate(418.8 177.73) rotate(-76.508) scale(.08 -.08)">
<use xlink:href="#ae"/>
</g>
</g>
<path d="m445.3 173.06 0.93422 4.7324q0.46481 2.3546 2.8194 1.8897l7.5959-1.4995q2.3546-0.46481 1.8898-2.8194l-0.93422-4.7324q-0.46481-2.3546-2.8194-1.8898l-7.5959 1.4995q-2.3546 0.46481-1.8898 2.8194z" clip-path="url(#a)" fill="#fff" stroke="#fff"/>
<g clip-path="url(#a)">
<g transform="translate(449.29 172.28) rotate(78.833) scale(.08 -.08)">
<use xlink:href="#t"/>
</g>
</g>
<path d="m482.51 175.28 3.263 4.8615q1.3375 1.9928 3.3303 0.65524l6.4287-4.3149q1.9928-1.3375 0.65524-3.3303l-3.263-4.8615q-1.3375-1.9928-3.3303-0.65524l-6.4287 4.3149q-1.9928 1.3375-0.65524 3.3303z" clip-path="url(#a)" fill="#fff" stroke="#fff"/>
<g clip-path="url(#a)">
<g transform="translate(485.88 173.01) rotate(56.131) scale(.08 -.08)">
<use xlink:href="#y"/>
</g>
</g>
<path d="m523.36 177.11 4.469 3.7827q1.8319 1.5506 3.3824-0.28129l5.0022-5.9097q1.5506-1.8319-0.28129-3.3824l-4.469-3.7827q-1.8319-1.5506-3.3824 0.2813l-5.0022 5.9097q-1.5506 1.8319 0.28129 3.3824z" clip-path="url(#a)" fill="#fff" stroke="#fff"/>
<g clip-path="url(#a)">
<g transform="translate(525.99 174.01) rotate(40.246) scale(.08 -.08)">
<use xlink:href="#y"/>
</g>
</g>
<path d="m243.82 218.17 1.5792-4.802q0.74977-2.2799-1.5301-3.0296l-7.355-2.4188q-2.2799-0.74977-3.0296 1.5301l-1.5792 4.802q-0.74976 2.2799 1.5301 3.0296l7.355 2.4188q2.2799 0.74976 3.0296-1.5301z" clip-path="url(#a)" fill="#fff" stroke="#fff"/>
<g clip-path="url(#a)">
<g transform="translate(239.96 216.9) rotate(-71.796) scale(.08 -.08)">
<defs>
<path id="ad" d="m9.8125 72.906h46.094v-8.3125h-36.234v-21.578h34.719v-8.2969h-34.719v-26.422h37.109v-8.2969h-46.969z"/>
</defs>
<use xlink:href="#ad"/>
</g>
</g>
<path d="m257.73 213.12 1.7452 5.3067q0.74977 2.2799 3.0296 1.5301l7.355-2.4188q2.2799-0.74977 1.5301-3.0296l-1.7452-5.3067q-0.74977-2.2799-3.0296-1.5301l-7.355 2.4188q-2.2799 0.74977-1.5301 3.0296z" clip-path="url(#a)" fill="#fff" stroke="#fff"/>
<g clip-path="url(#a)">
<g transform="translate(261.59 211.85) rotate(71.796) scale(.08 -.08)">
<defs>
<path id="v" d="m64.406 67.281v-10.391q-4.9844 4.6406-10.625 6.9219-5.6406 2.2969-11.984 2.2969-12.5 0-19.141-7.6406t-6.6406-22.094q0-14.406 6.6406-22.047t19.141-7.6406q6.3438 0 11.984 2.2969t10.625 6.9375v-10.312q-5.1719-3.5156-10.969-5.2812-5.7812-1.75-12.219-1.75-16.562 0-26.094 10.125-9.5156 10.141-9.5156 27.672 0 17.578 9.5156 27.703 9.5312 10.141 26.094 10.141 6.5312 0 12.312-1.7344 5.7969-1.7344 10.875-5.2031z"/>
</defs>
<use xlink:href="#v"/>
</g>
</g>
<path d="m328.82 275.15v33.808q0 2.4 2.4 2.4h7.7425q2.4 0 2.4-2.4v-33.808q0-2.4-2.4-2.4h-7.7425q-2.4 0-2.4 2.4z" clip-path="url(#a)" fill="#fff" stroke="#fff"/>
<g clip-path="url(#a)">
<g transform="translate(332.88 275.15) rotate(90) scale(.08 -.08)">
<use xlink:href="#e"/>
<use x="44.083984" xlink:href="#l"/>
<use x="105.607422" xlink:href="#g"/>
<use x="144.970703" xlink:href="#i"/>
<use x="242.382812" xlink:href="#k"/>
<use x="270.166016" xlink:href="#h"/>
<use x="333.544922" xlink:href="#f"/>
<use x="394.824219" xlink:href="#j"/>
</g>
</g>
<path d="m392.15 275.15v33.808q0 2.4 2.4 2.4h7.7425q2.4 0 2.4-2.4v-33.808q0-2.4-2.4-2.4h-7.7425q-2.4 0-2.4 2.4z" clip-path="url(#a)" fill="#fff" stroke="#fff"/>
<g clip-path="url(#a)">
<g transform="translate(396.22 275.15) rotate(90) scale(.08 -.08)">
<use xlink:href="#e"/>
<use x="44.083984" xlink:href="#l"/>
<use x="105.607422" xlink:href="#g"/>
<use x="144.970703" xlink:href="#i"/>
<use x="242.382812" xlink:href="#k"/>
<use x="270.166016" xlink:href="#h"/>
<use x="333.544922" xlink:href="#f"/>
<use x="394.824219" xlink:href="#j"/>
</g>
</g>
<path d="m461.24 275.15v33.808q0 2.4 2.4 2.4h7.7425q2.4 0 2.4-2.4v-33.808q0-2.4-2.4-2.4h-7.7425q-2.4 0-2.4 2.4z" clip-path="url(#a)" fill="#fff" stroke="#fff"/>
<g clip-path="url(#a)">
<g transform="translate(465.31 275.15) rotate(90) scale(.08 -.08)">
<use xlink:href="#e"/>
<use x="44.083984" xlink:href="#l"/>
<use x="105.607422" xlink:href="#g"/>
<use x="144.970703" xlink:href="#i"/>
<use x="242.382812" xlink:href="#k"/>
<use x="270.166016" xlink:href="#h"/>
<use x="333.544922" xlink:href="#f"/>
<use x="394.824219" xlink:href="#j"/>
</g>
</g>
<path d="m219.43 275.15v33.808q0 2.4 2.4 2.4h7.7425q2.4 0 2.4-2.4v-33.808q0-2.4-2.4-2.4h-7.7425q-2.4 0-2.4 2.4z" clip-path="url(#a)" fill="#fff" stroke="#fff"/>
<g clip-path="url(#a)">
<g transform="translate(223.49 275.15) rotate(90) scale(.08 -.08)">
<use xlink:href="#e"/>
<use x="44.083984" xlink:href="#l"/>
<use x="105.607422" xlink:href="#g"/>
<use x="144.970703" xlink:href="#i"/>
<use x="242.382812" xlink:href="#k"/>
<use x="270.166016" xlink:href="#h"/>
<use x="333.544922" xlink:href="#f"/>
<use x="394.824219" xlink:href="#j"/>
</g>
</g>
<path d="m271.24 275.15v33.808q0 2.4 2.4 2.4h7.7425q2.4 0 2.4-2.4v-33.808q0-2.4-2.4-2.4h-7.7425q-2.4 0-2.4 2.4z" clip-path="url(#a)" fill="#fff" stroke="#fff"/>
<g clip-path="url(#a)">
<g transform="translate(275.31 275.15) rotate(90) scale(.08 -.08)">
<use xlink:href="#e"/>
<use x="44.083984" xlink:href="#l"/>
<use x="105.607422" xlink:href="#g"/>
<use x="144.970703" xlink:href="#i"/>
<use x="242.382812" xlink:href="#k"/>
<use x="270.166016" xlink:href="#h"/>
<use x="333.544922" xlink:href="#f"/>
<use x="394.824219" xlink:href="#j"/>
</g>
</g>
<path d="m23.668 275.15v33.808q0 2.4 2.4 2.4h7.7425q2.4 0 2.4-2.4v-33.808q0-2.4-2.4-2.4h-7.7425q-2.4 0-2.4 2.4z" clip-path="url(#a)" fill="#fff" stroke="#fff"/>
<g clip-path="url(#a)">
<g transform="translate(27.732 275.15) rotate(90) scale(.08 -.08)">
<use xlink:href="#e"/>
<use x="44.083984" xlink:href="#l"/>
<use x="105.607422" xlink:href="#g"/>
<use x="144.970703" xlink:href="#i"/>
<use x="242.382812" xlink:href="#k"/>
<use x="270.166016" xlink:href="#h"/>
<use x="333.544922" xlink:href="#f"/>
<use x="394.824219" xlink:href="#j"/>
</g>
</g>
<path d="m58.809 217.22 0.73108-5.0019q0.3471-2.3748-2.0277-2.7219l-7.6611-1.1198q-2.3748-0.3471-2.7219 2.0277l-0.73108 5.0019q-0.3471 2.3748 2.0277 2.7219l7.6611 1.1198q2.3748 0.3471 2.7219-2.0277z" clip-path="url(#a)" fill="#fff" stroke="#fff"/>
<g clip-path="url(#a)">
<g transform="translate(54.788 216.63) rotate(-81.684) scale(.08 -.08)">
<use xlink:href="#ad"/>
</g>
</g>
<path d="m57.876 211.96 0.80791 5.5275q0.3471 2.3748 2.7219 2.0277l7.6611-1.1198q2.3748-0.3471 2.0277-2.7219l-0.80791-5.5275q-0.3471-2.3748-2.7219-2.0277l-7.6611 1.1198q-2.3748 0.3471-2.0277 2.7219z" clip-path="url(#a)" fill="#fff" stroke="#fff"/>
<g clip-path="url(#a)">
<g transform="translate(61.897 211.37) rotate(81.684) scale(.08 -.08)">
<use xlink:href="#v"/>
</g>
</g>
<path d="m40.941 275.15v33.808q0 2.4 2.4 2.4h7.7425q2.4 0 2.4-2.4v-33.808q0-2.4-2.4-2.4h-7.7425q-2.4 0-2.4 2.4z" clip-path="url(#a)" fill="#fff" stroke="#fff"/>
<g clip-path="url(#a)">
<g transform="translate(45.005 275.15) rotate(90) scale(.08 -.08)">
<use xlink:href="#e"/>
<use x="44.083984" xlink:href="#l"/>
<use x="105.607422" xlink:href="#g"/>
<use x="144.970703" xlink:href="#i"/>
<use x="242.382812" xlink:href="#k"/>
<use x="270.166016" xlink:href="#h"/>
<use x="333.544922" xlink:href="#f"/>
<use x="394.824219" xlink:href="#j"/>
</g>
</g>
<path d="m63.971 275.15v33.808q0 2.4 2.4 2.4h7.7425q2.4 0 2.4-2.4v-33.808q0-2.4-2.4-2.4h-7.7425q-2.4 0-2.4 2.4z" clip-path="url(#a)" fill="#fff" stroke="#fff"/>
<g clip-path="url(#a)">
<g transform="translate(68.035 275.15) rotate(90) scale(.08 -.08)">
<use xlink:href="#e"/>
<use x="44.083984" xlink:href="#l"/>
<use x="105.607422" xlink:href="#g"/>
<use x="144.970703" xlink:href="#i"/>
<use x="242.382812" xlink:href="#k"/>
<use x="270.166016" xlink:href="#h"/>
<use x="333.544922" xlink:href="#f"/>
<use x="394.824219" xlink:href="#j"/>
</g>
</g>
<path d="m98.517 275.15v33.808q0 2.4 2.4 2.4h7.7425q2.4 0 2.4-2.4v-33.808q0-2.4-2.4-2.4h-7.7425q-2.4 0-2.4 2.4z" clip-path="url(#a)" fill="#fff" stroke="#fff"/>
<g clip-path="url(#a)">
<g transform="translate(102.58 275.15) rotate(90) scale(.08 -.08)">
<use xlink:href="#e"/>
<use x="44.083984" xlink:href="#l"/>
<use x="105.607422" xlink:href="#g"/>
<use x="144.970703" xlink:href="#i"/>
<use x="242.382812" xlink:href="#k"/>
<use x="270.166016" xlink:href="#h"/>
<use x="333.544922" xlink:href="#f"/>
<use x="394.824219" xlink:href="#j"/>
</g>
</g>
<path d="m536.09 275.15v33.808q0 2.4 2.4 2.4h7.7425q2.4 0 2.4-2.4v-33.808q0-2.4-2.4-2.4h-7.7425q-2.4 0-2.4 2.4z" clip-path="url(#a)" fill="#fff" stroke="#fff"/>
<g clip-path="url(#a)">
<g transform="translate(540.16 275.15) rotate(90) scale(.08 -.08)">
<use xlink:href="#e"/>
<use x="44.083984" xlink:href="#l"/>
<use x="105.607422" xlink:href="#g"/>
<use x="144.970703" xlink:href="#i"/>
<use x="242.382812" xlink:href="#k"/>
<use x="270.166016" xlink:href="#h"/>
<use x="333.544922" xlink:href="#f"/>
<use x="394.824219" xlink:href="#j"/>
</g>
</g>
<path d="m616.7 275.15v33.808q0 2.4 2.4 2.4h7.7425q2.4 0 2.4-2.4v-33.808q0-2.4-2.4-2.4h-7.7425q-2.4 0-2.4 2.4z" clip-path="url(#a)" fill="#fff" stroke="#fff"/>
<g clip-path="url(#a)">
<g transform="translate(620.76 275.15) rotate(90) scale(.08 -.08)">
<use xlink:href="#e"/>
<use x="44.083984" xlink:href="#l"/>
<use x="105.607422" xlink:href="#g"/>
<use x="144.970703" xlink:href="#i"/>
<use x="242.382812" xlink:href="#k"/>
<use x="270.166016" xlink:href="#h"/>
<use x="333.544922" xlink:href="#f"/>
<use x="394.824219" xlink:href="#j"/>
</g>
</g>
<defs>
<path id="b" d="m0 8.6603c2.2967 0 4.4997-0.9125 6.1237-2.5365 1.624-1.624 2.5365-3.827 2.5365-6.1237s-0.9125-4.4997-2.5365-6.1237c-1.624-1.624-3.827-2.5365-6.1237-2.5365s-4.4997 0.9125-6.1237 2.5365c-1.624 1.624-2.5365 3.827-2.5365 6.1237s0.9125 4.4997 2.5365 6.1237c1.624 1.624 3.827 2.5365 6.1237 2.5365z"/>
</defs>
<g clip-path="url(#a)" fill="#ffffff" stroke="#ffffff">
<use x="29.939394" y="330.909091" xlink:href="#b"/>
<use x="47.212121" y="330.909091" xlink:href="#b"/>
<use x="70.242424" y="330.909091" xlink:href="#b"/>
<use x="104.787879" y="330.909091" xlink:href="#b"/>
<use x="139.333333" y="330.909091" xlink:href="#b"/>
<use x="179.636364" y="330.909091" xlink:href="#b"/>
<use x="225.69697" y="330.909091" xlink:href="#b"/>
<use x="277.515152" y="330.909091" xlink:href="#b"/>
<use x="335.090909" y="330.909091" xlink:href="#b"/>
<use x="398.424242" y="330.909091" xlink:href="#b"/>
<use x="467.515152" y="330.909091" xlink:href="#b"/>
<use x="542.363636" y="330.909091" xlink:href="#b"/>
<use x="622.969697" y="330.909091" xlink:href="#b"/>
<use x="628.727273" y="174.421789" xlink:href="#b"/>
<use x="76" y="174.421789" xlink:href="#b"/>
<use x="180.883838" y="15.757576" xlink:href="#b"/>
<use x="44.333333" y="95.224453" xlink:href="#b"/>
<use x="139.333333" y="253.205908" xlink:href="#b"/>
<use x="179.636364" y="253.205908" xlink:href="#b"/>
<use x="436.328283" y="95.224453" xlink:href="#b"/>
<use x="251.606061" y="174.421789" xlink:href="#b"/>
<use x="335.090909" y="253.205908" xlink:href="#b"/>
<use x="398.424242" y="253.205908" xlink:href="#b"/>
<use x="467.515152" y="253.205908" xlink:href="#b"/>
<use x="225.69697" y="253.205908" xlink:href="#b"/>
<use x="277.515152" y="253.205908" xlink:href="#b"/>
<use x="29.939394" y="253.205908" xlink:href="#b"/>
<use x="58.727273" y="174.421789" xlink:href="#b"/>
<use x="47.212121" y="253.205908" xlink:href="#b"/>
<use x="70.242424" y="253.205908" xlink:href="#b"/>
<use x="104.787879" y="253.205908" xlink:href="#b"/>
<use x="542.363636" y="253.205908" xlink:href="#b"/>
<use x="622.969697" y="253.205908" xlink:href="#b"/>
</g>
<g clip-path="url(#a)">
<g transform="translate(-2.6208 333.67) scale(.1 -.1)">
<defs>
<path id="bb" d="m65.375 72.906v-72.906h-9.8594v64.594h-35.844v-64.594h-9.8594v72.906z"/>
<path id="av" d="m18.109 8.2031v-29h-9.0312v75.484h9.0312v-8.2969q2.8438 4.875 7.1562 7.2344 4.3281 2.375 10.328 2.375 9.9688 0 16.188-7.9062 6.2344-7.9062 6.2344-20.797t-6.2344-20.812q-6.2188-7.9062-16.188-7.9062-6 0-10.328 2.375-4.3125 2.375-7.1562 7.25zm30.578 19.094q0 9.9062-4.0781 15.547t-11.203 5.6406q-7.1406 0-11.219-5.6406t-4.0781-15.547 4.0781-15.547 11.219-5.6406q7.125 0 11.203 5.6406t4.0781 15.547z"/>
<path id="q" d="m30.609 48.391q-7.2188 0-11.422-5.6406t-4.2031-15.453 4.1719-15.453q4.1875-5.6406 11.453-5.6406 7.1875 0 11.375 5.6562 4.2031 5.6719 4.2031 15.438 0 9.7188-4.2031 15.406-4.1875 5.6875-11.375 5.6875zm0 7.6094q11.719 0 18.406-7.625 6.7031-7.6094 6.7031-21.078 0-13.422-6.7031-21.078-6.6875-7.6406-18.406-7.6406-11.766 0-18.438 7.6406-6.6562 7.6562-6.6562 21.078 0 13.469 6.6562 21.078 6.6719 7.625 18.438 7.625z"/>
<path id="az" d="m9.0781 0v54.688h38.578v-7.1719h-29.547v-47.516z"/>
<path id="r" d="m3.7188 0v7.4688q8.875 1.375 11.609 7.5156 3.3281 8.6562 3.3281 30.766v8.9375h36.953v-54.688h-8.9844v47.516h-18.984v-5.4219q0-21.094-4.2969-30.562-4.5938-10.109-19.625-11.531z"/>
<path id="p" d="m2.9375 54.688h52.391v-7.1719h-21.781v-47.516h-8.8438v47.516h-21.766z"/>
<path id="x" d="m55.906 54.688v-54.688h-8.9375v43.891l-26.359-43.891h-11.531v54.688h8.9375v-43.797l26.328 43.797z"/>
<path id="aq" d="m50.25 7.1719h23.141v47.516h9.0312v-54.688h-73.344v54.688h9.0312v-47.516h23.109v47.516h9.0312z"/>
<path id="aj" d="m43.453 16.219q0 4.3906-3.2031 6.6875-3.1875 2.2969-9.3438 2.2969h-12.797v-18.031h12.797q6.1562 0 9.3438 2.3125 3.2031 2.3281 3.2031 6.7344zm-34.375 38.469h9.0312v-22.312h13.188q10.453 0 16.094-3.9844 5.6406-3.9688 5.6406-12.172t-5.6406-12.219q-5.6406-4-16.094-4h-22.219z"/>
</defs>
<use xlink:href="#bb"/>
<use x="75.195312" xlink:href="#av"/>
<use x="138.671875" xlink:href="#q"/>
<use x="199.853516" xlink:href="#az"/>
<use x="252.392578" xlink:href="#r"/>
<use x="316.308594" xlink:href="#q"/>
<use x="377.490234" xlink:href="#p"/>
<use x="435.742188" xlink:href="#x"/>
<use x="500.732422" xlink:href="#aq"/>
<use x="592.236328" xlink:href="#aj"/>
</g>
</g>
<g clip-path="url(#a)">
<g transform="translate(31.046 333.67) scale(.1 -.1)">
<defs>
<path id="ba" d="m34.281 27.484q-10.891 0-15.094-2.4844t-4.2031-8.5q0-4.7812 3.1562-7.5938 3.1562-2.7969 8.5625-2.7969 7.4844 0 12 5.2969t4.5156 14.078v2zm17.922 3.7188v-31.203h-8.9844v8.2969q-3.0781-4.9688-7.6719-7.3438t-11.234-2.375q-8.3906 0-13.359 4.7188-4.9531 4.7188-4.9531 12.625 0 9.2188 6.1719 13.906 6.1875 4.6875 18.438 4.6875h12.609v0.89062q0 6.2031-4.0781 9.5938t-11.453 3.3906q-4.6875 0-9.1406-1.125-4.4375-1.125-8.5312-3.375v8.3125q4.9219 1.9062 9.5625 2.8438 4.6406 0.95312 9.0312 0.95312 11.875 0 17.734-6.1562 5.8594-6.1406 5.8594-18.641z"/>
<path id="ax" d="m9.0781 54.688h8.9375v-25.688l25.344 25.688h11.031l-20.891-21.141 23.578-33.547h-10.062l-19.375 27.594-9.625-9.7656v-17.828h-8.9375z"/>
<path id="ak" d="m32.172-5.0781q-3.7969-9.7656-7.4219-12.734-3.6094-2.9844-9.6562-2.9844h-7.1875v7.5156h5.2812q3.7031 0 5.75 1.7656 2.0625 1.75 4.5469 8.2969l1.6094 4.0938-22.109 53.812h9.5156l17.094-42.766 17.094 42.766h9.5156z"/>
<path id="o" d="m53.609 48.391q-7.2188 0-11.422-5.6406t-4.2031-15.453 4.1719-15.453q4.1875-5.6406 11.453-5.6406 7.1875 0 11.375 5.6562 4.2031 5.6719 4.2031 15.438 0 9.7188-4.2031 15.406-4.1875 5.6875-11.375 5.6875zm-24.797-15.531q0.92188 9.2812 7 16.203 6.0781 6.9375 17.797 6.9375t18.406-7.625q6.7031-7.6094 6.7031-21.078 0-13.422-6.7031-21.078-6.6875-7.6406-18.406-7.6406-11.766 0-18.188 7.375t-6.8594 19.484h-10.156v-25.438h-8.9844v54.688h8.9844v-21.828z"/>
</defs>
<use xlink:href="#p"/>
<use x="58.251953" xlink:href="#ba"/>
<use x="119.53125" xlink:href="#ax"/>
<use x="179.931641" xlink:href="#ak"/>
<use x="239.111328" xlink:href="#o"/>
</g>
</g>
<g clip-path="url(#a)">
<g transform="translate(48.914 333.67) scale(.1 -.1)">
<defs>
<path id="aa" d="m56.297 54.688v-54.688h-9.0312v47.516h-29.156v-47.516h-9.0312v54.688z"/>
</defs>
<use xlink:href="#aa"/>
<use x="65.380859" xlink:href="#x"/>
<use x="130.371094" xlink:href="#r"/>
<use x="194.287109" xlink:href="#o"/>
<use x="278.466797" xlink:href="#r"/>
<use x="342.382812" xlink:href="#o"/>
</g>
</g>
<g clip-path="url(#a)">
<g transform="translate(102.98 333.67) scale(.1 -.1)">
<defs>
<path id="ai" d="m4.8906 31.391h26.312v-8h-26.312z"/>
</defs>
<use xlink:href="#ai"/>
</g>
</g>
<g clip-path="url(#a)">
<g transform="translate(136.08 333.67) scale(.1 -.1)">
<use xlink:href="#x"/>
</g>
</g>
<g clip-path="url(#a)">
<g transform="translate(163.56 333.67) scale(.1 -.1)">
<defs>
<path id="aw" d="m9.0781 54.688h13.141l15.531-36.625 15.578 36.625h13.031v-54.688h-9.0312v46.094l-15.094-35.594h-8.9844l-15.141 35.594v-46.094h-9.0312z"/>
</defs>
<use xlink:href="#aa"/>
<use x="65.380859" xlink:href="#q"/>
<use x="126.5625" xlink:href="#p"/>
<use x="184.814453" xlink:href="#q"/>
<use x="245.996094" xlink:href="#aw"/>
</g>
</g>
<g clip-path="url(#a)">
<g transform="translate(208.85 333.67) scale(.1 -.1)">
<defs>
<path id="as" d="m56.297 0h-47.219v54.688h9.0312v-47.516h29.156v47.516h9.0312v-47.516h7.1875v-20.984h-7.1875z"/>
<path id="s" d="m56.203 29.594v-4.3906h-41.312q0.59375-9.2812 5.5938-14.141t13.938-4.8594q5.1719 0 10.031 1.2656t9.6562 3.8125v-8.5q-4.8438-2.0469-9.9219-3.125t-10.297-1.0781q-13.094 0-20.734 7.6094-7.6406 7.625-7.6406 20.625 0 13.422 7.25 21.297 7.25 7.8906 19.562 7.8906 11.031 0 17.453-7.1094 6.4219-7.0938 6.4219-19.297zm-8.9844 2.6406q-0.09375 7.3594-4.125 11.75-4.0312 4.4062-10.672 4.4062-7.5156 0-12.031-4.25t-5.2031-11.969z"/>
</defs>
<use xlink:href="#as"/>
<use x="68.066406" xlink:href="#s"/>
<use x="129.589844" xlink:href="#r"/>
<use x="193.505859" xlink:href="#ak"/>
<use x="252.685547" xlink:href="#o"/>
</g>
</g>
<g clip-path="url(#a)">
<g transform="translate(257.23 333.67) scale(.1 -.1)">
<defs>
<path id="al" d="m9.0781 54.688h9.0312v-22.312h29.156v22.312h9.0312v-54.688h-9.0312v25.203h-29.156v-25.203h-9.0312z"/>
<path id="ay" d="m21.625 7.1719h26.078v40.344h-18.891v-6.8438q0-20.109-5.7656-30.859zm-13.031 0q4.4375 1.9531 6.3906 6.1094 4.7969 10.297 4.7969 31.062v10.344h36.953v-47.516h7.1875v-20.984h-7.1875v13.812h-44.328v-13.812h-7.1875v20.984z"/>
</defs>
<use xlink:href="#al"/>
<use x="65.380859" xlink:href="#s"/>
<use x="126.904297" xlink:href="#ay"/>
<use x="196.044922" xlink:href="#s"/>
<use x="257.568359" xlink:href="#r"/>
<use x="321.484375" xlink:href="#o"/>
</g>
</g>
<g clip-path="url(#a)">
<g transform="translate(328.75 333.67) scale(.1 -.1)">
<use xlink:href="#al"/>
<use x="65.380859" xlink:href="#s"/>
</g>
</g>
<g clip-path="url(#a)">
<g transform="translate(377.71 333.67) scale(.1 -.1)">
<defs>
<path id="at" d="m54.891 54.688-19.781-26.609 20.797-28.078h-10.594l-15.922 21.484-15.906-21.484h-10.609l21.25 28.609-19.438 26.078h10.594l14.5-19.484 14.5 19.484z"/>
<path id="ar" d="m41.016 0v23h-16.75q-7.4688 0-12.453 4.6406-4.4844 4.2031-4.4844 13.188v13.859h8.9844v-13.031q0-5.7188 2.5312-8.5938 2.5938-2.8906 7.6719-2.8906h14.5v24.516h8.9844v-54.688z"/>
<path id="au" d="m48.781 52.594v-8.4062q-3.8125 2.1094-7.6406 3.1562t-7.7344 1.0469q-8.75 0-13.594-5.5469-4.8281-5.5312-4.8281-15.547t4.8281-15.562q4.8438-5.5312 13.594-5.5312 3.9062 0 7.7344 1.0469t7.6406 3.1562v-8.3125q-3.7656-1.75-7.7969-2.625-4.0156-0.89062-8.5625-0.89062-12.359 0-19.641 7.7656-7.2656 7.7656-7.2656 20.953 0 13.375 7.3438 21.031 7.3594 7.6719 20.156 7.6719 4.1406 0 8.0938-0.85938 3.9531-0.84375 7.6719-2.5469z"/>
<path id="ap" d="m18.453 38.922q0-4.0625 3.125-6.3594 3.125-2.2812 8.9375-2.2812h12.109v17.234h-12.109q-5.8125 0-8.9375-2.25t-3.125-6.3438zm-12.781-38.922 16.688 23.969q-5.6562 1.2812-9.4219 4.625-3.75 3.3438-3.75 10.328 0 7.9062 5.2344 11.828 5.25 3.9375 15.859 3.9375h21.375v-54.688h-9.0312v23.094h-11.172l-16.125-23.094z"/>
</defs>
<use xlink:href="#at"/>
<use x="59.179688" xlink:href="#q"/>
<use x="120.361328" xlink:href="#ar"/>
<use x="179.443359" xlink:href="#s"/>
<use x="240.966797" xlink:href="#p"/>
<use x="299.21875" xlink:href="#au"/>
<use x="354.199219" xlink:href="#ap"/>
</g>
</g>
<g clip-path="url(#a)">
<g transform="translate(455.14 333.67) scale(.1 -.1)">
<use xlink:href="#aa"/>
<use x="65.380859" xlink:href="#x"/>
<use x="130.371094" xlink:href="#p"/>
<use x="188.623047" xlink:href="#aj"/>
</g>
</g>
<g clip-path="url(#a)">
<g transform="translate(540.77 333.67) scale(.1 -.1)">
<defs>
<path id="d" d="m10.688 12.406h10.312v-12.406h-10.312z"/>
</defs>
<use xlink:href="#d"/>
</g>
</g>
<g clip-path="url(#a)">
<g transform="translate(621.17 333.67) scale(.1 -.1)">
<use xlink:href="#ai"/>
</g>
</g>
<g clip-path="url(#a)">
<g transform="translate(607.64 177.18) scale(.1 -.1)">
<defs>
<path id="n" d="m9.8125 72.906h9.8594v-72.906h-9.8594z"/>
<path id="ab" d="m9.8125 72.906h14.703l18.594-49.609 18.703 49.609h14.703v-72.906h-9.625v64.016l-18.797-50h-9.9062l-18.797 50v-64.016h-9.5781z"/>
</defs>
<use xlink:href="#n"/>
<use x="29.492188" xlink:href="#ab"/>
<use x="115.771484" xlink:href="#t"/>
<use x="176.074219" xlink:href="#u"/>
<use x="231.787109" xlink:href="#n"/>
<use x="261.279297" xlink:href="#v"/>
<use x="331.103516" xlink:href="#n"/>
<use x="360.595703" xlink:href="#e"/>
</g>
</g>
<g clip-path="url(#a)">
<g transform="translate(54.915 177.18) scale(.1 -.1)">
<use xlink:href="#n"/>
<use x="29.492188" xlink:href="#ab"/>
<use x="115.771484" xlink:href="#t"/>
<use x="176.074219" xlink:href="#u"/>
<use x="231.787109" xlink:href="#n"/>
<use x="261.279297" xlink:href="#v"/>
<use x="331.103516" xlink:href="#n"/>
<use x="360.595703" xlink:href="#e"/>
</g>
</g>
<g clip-path="url(#a)">
<g transform="translate(172.93 18.517) scale(.1 -.1)">
<defs>
<path id="c" d="m12.406 8.2969h16.109v55.625l-17.531-3.5156v8.9844l17.438 3.5156h9.8594v-64.609h16.109v-8.2969h-41.984z"/>
</defs>
<use xlink:href="#c"/>
<use x="63.623047" xlink:href="#d"/>
<use x="95.410156" xlink:href="#c"/>
</g>
</g>
<g clip-path="url(#a)">
<g transform="translate(36.382 97.984) scale(.1 -.1)">
<defs>
<path id="m" d="m19.188 8.2969h34.422v-8.2969h-46.281v8.2969q5.6094 5.8125 15.297 15.594 9.7031 9.7969 12.188 12.641 4.7344 5.3125 6.6094 9 1.8906 3.6875 1.8906 7.25 0 5.8125-4.0781 9.4688-4.0781 3.6719-10.625 3.6719-4.6406 0-9.7969-1.6094-5.1406-1.6094-11-4.8906v9.9688q5.9531 2.3906 11.125 3.6094 5.1875 1.2188 9.4844 1.2188 11.328 0 18.062-5.6719 6.7344-5.6562 6.7344-15.125 0-4.5-1.6875-8.5312-1.6719-4.0156-6.125-9.4844-1.2188-1.4219-7.7656-8.1875-6.5312-6.7656-18.453-18.922z"/>
</defs>
<use xlink:href="#c"/>
<use x="63.623047" xlink:href="#d"/>
<use x="95.410156" xlink:href="#m"/>
</g>
</g>
<g clip-path="url(#a)">
<g transform="translate(131.38 255.97) scale(.1 -.1)">
<defs>
<path id="z" d="m40.578 39.312q7.0781-1.5156 11.047-6.3125 3.9844-4.7812 3.9844-11.812 0-10.781-7.4219-16.703-7.4219-5.9062-21.094-5.9062-4.5781 0-9.4375 0.90625t-10.031 2.7188v9.5156q4.0938-2.3906 8.9688-3.6094 4.8906-1.2188 10.219-1.2188 9.2656 0 14.125 3.6562t4.8594 10.641q0 6.4531-4.5156 10.078-4.5156 3.6406-12.562 3.6406h-8.5v8.1094h8.8906q7.2656 0 11.125 2.9062t3.8594 8.375q0 5.6094-3.9844 8.6094-3.9688 3.0156-11.391 3.0156-4.0625 0-8.7031-0.89062-4.6406-0.875-10.203-2.7188v8.7812q5.625 1.5625 10.531 2.3438t9.25 0.78125q11.234 0 17.766-5.1094 6.5469-5.0938 6.5469-13.781 0-6.0625-3.4688-10.234t-9.8594-5.7812z"/>
</defs>
<use xlink:href="#c"/>
<use x="63.623047" xlink:href="#d"/>
<use x="95.410156" xlink:href="#z"/>
</g>
</g>
<g clip-path="url(#a)">
<g transform="translate(171.68 255.97) scale(.1 -.1)">
<defs>
<path id="ag" d="m37.797 64.312-24.906-38.922h24.906zm-2.5938 8.5938h12.406v-47.516h10.406v-8.2031h-10.406v-17.188h-9.8125v17.188h-32.906v9.5156z"/>
</defs>
<use xlink:href="#c"/>
<use x="63.623047" xlink:href="#d"/>
<use x="95.410156" xlink:href="#ag"/>
</g>
</g>
<g clip-path="url(#a)">
<g transform="translate(428.38 97.984) scale(.1 -.1)">
<defs>
<path id="af" d="m10.797 72.906h38.719v-8.3125h-29.688v-17.859q2.1406 0.73438 4.2812 1.0938 2.1562 0.35938 4.3125 0.35938 12.203 0 19.328-6.6875 7.1406-6.6875 7.1406-18.109 0-11.766-7.3281-18.297-7.3281-6.5156-20.656-6.5156-4.5938 0-9.3594 0.78125-4.75 0.78125-9.8281 2.3438v9.9219q4.3906-2.3906 9.0781-3.5625t9.9062-1.1719q8.4531 0 13.375 4.4375 4.9375 4.4375 4.9375 12.062 0 7.6094-4.9375 12.047-4.9219 4.4531-13.375 4.4531-3.9531 0-7.8906-0.875-3.9219-0.875-8.0156-2.7344z"/>
</defs>
<use xlink:href="#c"/>
<use x="63.623047" xlink:href="#d"/>
<use x="95.410156" xlink:href="#af"/>
</g>
</g>
<g clip-path="url(#a)">
<g transform="translate(240.47 177.18) scale(.1 -.1)">
<defs>
<path id="ah" d="m31.781 66.406q-7.6094 0-11.453-7.5-3.8281-7.4844-3.8281-22.531 0-14.984 3.8281-22.484 3.8438-7.5 11.453-7.5 7.6719 0 11.5 7.5 3.8438 7.5 3.8438 22.484 0 15.047-3.8438 22.531-3.8281 7.5-11.5 7.5zm0 7.8125q12.266 0 18.734-9.7031 6.4688-9.6875 6.4688-28.141 0-18.406-6.4688-28.109-6.4688-9.6875-18.734-9.6875-12.25 0-18.719 9.6875-6.4688 9.7031-6.4688 28.109 0 18.453 6.4688 28.141 6.4688 9.7031 18.719 9.7031z"/>
</defs>
<use xlink:href="#c"/>
<use x="63.623047" xlink:href="#d"/>
<use x="95.410156" xlink:href="#c"/>
<use x="159.033203" xlink:href="#ah"/>
</g>
</g>
<g clip-path="url(#a)">
<g transform="translate(323.96 255.97) scale(.1 -.1)">
<use xlink:href="#c"/>
<use x="63.623047" xlink:href="#d"/>
<use x="95.410156" xlink:href="#c"/>
<use x="159.033203" xlink:href="#c"/>
</g>
</g>
<g clip-path="url(#a)">
<g transform="translate(387.29 255.97) scale(.1 -.1)">
<use xlink:href="#c"/>
<use x="63.623047" xlink:href="#d"/>
<use x="95.410156" xlink:href="#c"/>
<use x="159.033203" xlink:href="#m"/>
</g>
</g>
<g clip-path="url(#a)">
<g transform="translate(456.38 255.97) scale(.1 -.1)">
<use xlink:href="#c"/>
<use x="63.623047" xlink:href="#d"/>
<use x="95.410156" xlink:href="#c"/>
<use x="159.033203" xlink:href="#z"/>
</g>
</g>
<g clip-path="url(#a)">
<g transform="translate(214.56 255.97) scale(.1 -.1)">
<use xlink:href="#c"/>
<use x="63.623047" xlink:href="#d"/>
<use x="95.410156" xlink:href="#c"/>
<use x="159.033203" xlink:href="#ag"/>
</g>
</g>
<g clip-path="url(#a)">
<g transform="translate(266.38 255.97) scale(.1 -.1)">
<use xlink:href="#c"/>
<use x="63.623047" xlink:href="#d"/>
<use x="95.410156" xlink:href="#c"/>
<use x="159.033203" xlink:href="#af"/>
</g>
</g>
<g clip-path="url(#a)">
<g transform="translate(18.807 255.97) scale(.1 -.1)">
<defs>
<path id="ao" d="m8.2031 72.906h46.875v-4.2031l-26.469-68.703h-10.297l24.906 64.594h-35.016z"/>
</defs>
<use xlink:href="#c"/>
<use x="63.623047" xlink:href="#d"/>
<use x="95.410156" xlink:href="#c"/>
<use x="159.033203" xlink:href="#ao"/>
</g>
</g>
<g clip-path="url(#a)">
<g transform="translate(47.594 177.18) scale(.1 -.1)">
<defs>
<path id="an" d="m31.781 34.625q-7.0312 0-11.062-3.7656-4.0156-3.7656-4.0156-10.344 0-6.5938 4.0156-10.359 4.0312-3.7656 11.062-3.7656t11.078 3.7812q4.0625 3.7969 4.0625 10.344 0 6.5781-4.0312 10.344-4.0156 3.7656-11.109 3.7656zm-9.8594 4.1875q-6.3438 1.5625-9.8906 5.9062-3.5312 4.3594-3.5312 10.609 0 8.7344 6.2188 13.812 6.2344 5.0781 17.062 5.0781 10.891 0 17.094-5.0781t6.2031-13.812q0-6.25-3.5469-10.609-3.5312-4.3438-9.8281-5.9062 7.125-1.6562 11.094-6.5 3.9844-4.8281 3.9844-11.797 0-10.609-6.4688-16.281-6.4688-5.6562-18.531-5.6562-12.047 0-18.531 5.6562-6.4688 5.6719-6.4688 16.281 0 6.9688 4 11.797 4.0156 4.8438 11.141 6.5zm-3.6094 15.578q0-5.6562 3.5312-8.8281 3.5469-3.1719 9.9375-3.1719 6.3594 0 9.9375 3.1719 3.5938 3.1719 3.5938 8.8281 0 5.6719-3.5938 8.8438-3.5781 3.1719-9.9375 3.1719-6.3906 0-9.9375-3.1719-3.5312-3.1719-3.5312-8.8438z"/>
</defs>
<use xlink:href="#c"/>
<use x="63.623047" xlink:href="#d"/>
<use x="95.410156" xlink:href="#c"/>
<use x="159.033203" xlink:href="#an"/>
</g>
</g>
<g clip-path="url(#a)">
<g transform="translate(36.079 255.97) scale(.1 -.1)">
<defs>
<path id="am" d="m10.984 1.5156v8.9844q3.7188-1.7656 7.5156-2.6875 3.8125-0.92188 7.4844-0.92188 9.7656 0 14.906 6.5625 5.1562 6.5625 5.8906 19.953-2.8281-4.2031-7.1875-6.4531-4.3438-2.25-9.6094-2.25-10.938 0-17.312 6.6094-6.375 6.625-6.375 18.109 0 11.219 6.6406 18 6.6406 6.7969 17.672 6.7969 12.656 0 19.312-9.7031 6.6719-9.6875 6.6719-28.141 0-17.234-8.1875-27.516-8.1719-10.281-21.984-10.281-3.7188 0-7.5312 0.73438-3.7969 0.73438-7.9062 2.2031zm19.625 30.906q6.6406 0 10.516 4.5312 3.8906 4.5469 3.8906 12.469 0 7.8594-3.8906 12.422-3.875 4.5625-10.516 4.5625t-10.516-4.5625-3.875-12.422q0-7.9219 3.875-12.469 3.875-4.5312 10.516-4.5312z"/>
</defs>
<use xlink:href="#c"/>
<use x="63.623047" xlink:href="#d"/>
<use x="95.410156" xlink:href="#c"/>
<use x="159.033203" xlink:href="#am"/>
</g>
</g>
<g clip-path="url(#a)">
<g transform="translate(59.11 255.97) scale(.1 -.1)">
<use xlink:href="#c"/>
<use x="63.623047" xlink:href="#d"/>
<use x="95.410156" xlink:href="#m"/>
<use x="159.033203" xlink:href="#ah"/>
</g>
</g>
<g clip-path="url(#a)">
<g transform="translate(93.655 255.97) scale(.1 -.1)">
<use xlink:href="#c"/>
<use x="63.623047" xlink:href="#d"/>
<use x="95.410156" xlink:href="#m"/>
<use x="159.033203" xlink:href="#c"/>
</g>
</g>
<g clip-path="url(#a)">
<g transform="translate(531.23 255.97) scale(.1 -.1)">
<use xlink:href="#c"/>
<use x="63.623047" xlink:href="#d"/>
<use x="95.410156" xlink:href="#m"/>
<use x="159.033203" xlink:href="#m"/>
</g>
</g>
<g clip-path="url(#a)">
<g transform="translate(611.84 255.97) scale(.1 -.1)">
<use xlink:href="#c"/>
<use x="63.623047" xlink:href="#d"/>
<use x="95.410156" xlink:href="#m"/>
<use x="159.033203" xlink:href="#z"/>
</g>
</g>
<defs>
<clipPath id="a">
<rect width="658.67" height="346.67"/>
</clipPath>
</defs>
</svg>
