<?xml version="1.0" encoding="UTF-8"?>
<!DOCTYPE svg  PUBLIC '-//W3C//DTD SVG 1.1//EN'  'http://www.w3.org/Graphics/SVG/1.1/DTD/svg11.dtd'>
<svg width="1064pt" height="560pt" version="1.1" viewBox="0 0 1064 560" xmlns="http://www.w3.org/2000/svg" xmlns:xlink="http://www.w3.org/1999/xlink">
<metadata>
<rdf:RDF xmlns:cc="http://creativecommons.org/ns#" xmlns:dc="http://purl.org/dc/elements/1.1/" xmlns:rdf="http://www.w3.org/1999/02/22-rdf-syntax-ns#">
<cc:Work>
<dc:type rdf:resource="http://purl.org/dc/dcmitype/StillImage"/>
<dc:date>2021-01-21T01:19:59.529791</dc:date>
<dc:format>image/svg+xml</dc:format>
<dc:creator>
<cc:Agent>
<dc:title>Matplotlib v3.3.3, https://matplotlib.org/</dc:title>
</cc:Agent>
</dc:creator>
</cc:Work>
</rdf:RDF>
</metadata>
<defs>
<style type="text/css">*{stroke-linecap:butt;stroke-linejoin:round;}</style>
</defs>
<path d="m0 560h1064v-560h-1064z" fill="#fff"/>
<g fill="none" stroke="#000">
<path d="m327.88 25.455-256.31 73.399" clip-path="url(#a)"/>
<path d="m327.88 25.455 46.043 292.75" clip-path="url(#a)"/>
<path d="m327.88 25.455 464.44 219.81" clip-path="url(#a)"/>
<path d="m327.88 25.455-144.02 437.77" clip-path="url(#a)"/>
<path d="m327.88 25.455-110.15 437.77" clip-path="url(#a)"/>
<path d="m71.573 98.854 82.174 73.277" clip-path="url(#a)"/>
<path d="m71.573 98.854 82.174 73.277" clip-path="url(#a)"/>
<path d="m71.573 98.854v73.277" clip-path="url(#a)"/>
<path d="m373.92 318.2 257.81 72.697" clip-path="url(#a)"/>
<path d="m373.92 318.2 257.81 72.697" clip-path="url(#a)"/>
<path d="m373.92 318.2-97.856 145.02" clip-path="url(#a)"/>
<path d="m373.92 318.2 129.85 72.697" clip-path="url(#a)"/>
<path d="m373.92 318.2-31.992 145.02" clip-path="url(#a)"/>
<path d="m792.32 245.26 223.31 72.945" clip-path="url(#a)"/>
<path d="m792.32 245.26 223.31 72.945" clip-path="url(#a)"/>
<path d="m792.32 245.26v72.945" clip-path="url(#a)"/>
<path d="m792.32 318.2 53.946 145.02" clip-path="url(#a)"/>
<path d="m792.32 318.2-288.55 72.697" clip-path="url(#a)" stroke-dasharray="3.7,1.6"/>
<path d="m792.32 318.2-92.838 145.02" clip-path="url(#a)"/>
<path d="m792.32 318.2-21.328 145.02" clip-path="url(#a)"/>
<path d="m792.32 318.2 132.98 145.02" clip-path="url(#a)"/>
<path d="m792.32 318.2 215.79 145.02" clip-path="url(#a)"/>
<path d="m846.27 463.22v71.326" clip-path="url(#a)"/>
<path d="m276.07 463.22-20.7 71.326" clip-path="url(#a)"/>
<path d="m276.07 463.22 20.7 71.326" clip-path="url(#a)"/>
<path d="m503.77 390.9-112.91 72.318" clip-path="url(#a)"/>
<path d="m503.77 390.9-60.219 72.318" clip-path="url(#a)"/>
<path d="m503.77 390.9-3.7637 72.318" clip-path="url(#a)"/>
<path d="m503.77 390.9 56.456 72.318" clip-path="url(#a)"/>
<path d="m503.77 390.9 120.44 72.318" clip-path="url(#a)"/>
<path d="m390.86 463.22v71.326" clip-path="url(#a)"/>
<path d="m443.55 463.22v71.326" clip-path="url(#a)"/>
<path d="m500.01 463.22v71.326" clip-path="url(#a)"/>
<path d="m560.23 463.22v71.326" clip-path="url(#a)"/>
<path d="m624.21 463.22v71.326" clip-path="url(#a)"/>
<path d="m71.573 172.13v73.129" clip-path="url(#a)"/>
<path d="m71.573 245.26 82.174 72.945" clip-path="url(#a)"/>
<path d="m71.573 245.26v72.945" clip-path="url(#a)"/>
<path d="m71.573 318.2-23.21 145.02" clip-path="url(#a)"/>
<path d="m71.573 318.2 35.128 72.697" clip-path="url(#a)"/>
<path d="m71.573 318.2-11.918 145.02" clip-path="url(#a)"/>
<path d="m48.364 463.22v71.326" clip-path="url(#a)"/>
<path d="m106.7 390.9-31.992 72.318" clip-path="url(#a)"/>
<path d="m106.7 390.9-13.173 72.318" clip-path="url(#a)"/>
<path d="m106.7 390.9 9.4093 72.318" clip-path="url(#a)"/>
<path d="m106.7 390.9 35.755 72.318" clip-path="url(#a)"/>
<path d="m59.655 463.22v71.326" clip-path="url(#a)"/>
<path d="m74.71 463.22v71.326" clip-path="url(#a)"/>
<path d="m93.528 463.22v71.326" clip-path="url(#a)"/>
<path d="m116.11 463.22v71.326" clip-path="url(#a)"/>
<path d="m142.46 463.22v71.326" clip-path="url(#a)"/>
<path d="m183.86 463.22v71.326" clip-path="url(#a)"/>
<path d="m217.73 463.22v71.326" clip-path="url(#a)"/>
<path d="m341.93 463.22v71.326" clip-path="url(#a)"/>
<path d="m699.48 463.22v71.326" clip-path="url(#a)"/>
<path d="m771 463.22v71.326" clip-path="url(#a)"/>
<path d="m925.31 463.22v71.326" clip-path="url(#a)"/>
<path d="m1008.1 463.22v71.326" clip-path="url(#a)"/>
</g>
<path d="m198.56 69.011 5.7838-1.6563q2.3073-0.66073 1.6465-2.968l-2.1316-7.4433q-0.66073-2.3073-2.968-1.6465l-5.7838 1.6563q-2.3073 0.66073-1.6465 2.968l2.1316 7.4433q0.66073 2.3073 2.968 1.6465z" clip-path="url(#a)" fill="#fff" stroke="#fff"/>
<g clip-path="url(#a)">
<g transform="translate(197.44 65.105) rotate(-15.98) scale(.08 -.08)">
<defs>
<path id="w" d="m9.8125 72.906h9.8594v-29.891h35.844v29.891h9.8594v-72.906h-9.8594v34.719h-35.844v-34.719h-9.8594z"/>
</defs>
<use xlink:href="#w"/>
</g>
</g>
<path d="m344.24 169.83 0.93472 5.9432q0.37288 2.3709 2.7437 1.998l7.6485-1.2029q2.3709-0.37288 1.998-2.7437l-0.93472-5.9432q-0.37288-2.3709-2.7437-1.998l-7.6485 1.2029q-2.3709 0.37288-1.998 2.7437z" clip-path="url(#a)" fill="#fff" stroke="#fff"/>
<g clip-path="url(#a)">
<g transform="translate(348.25 169.2) rotate(81.062) scale(.08 -.08)">
<use xlink:href="#w"/>
</g>
</g>
<path d="m554.7 139.74 5.438 2.5736q2.1693 1.0267 3.196-1.1426l3.3121-6.9983q1.0267-2.1693-1.1426-3.196l-5.438-2.5736q-2.1693-1.0267-3.196 1.1426l-3.3121 6.9983q-1.0267 2.1693 1.1426 3.196z" clip-path="url(#a)" fill="#fff" stroke="#fff"/>
<g clip-path="url(#a)">
<g transform="translate(556.44 136.07) rotate(25.327) scale(.08 -.08)">
<use xlink:href="#w"/>
</g>
</g>
<path d="m260.91 249.08 1.8298-5.5617q0.75005-2.2798-1.5297-3.0298l-7.3547-2.4197q-2.2798-0.75005-3.0298 1.5297l-1.8298 5.5617q-0.75005 2.2798 1.5297 3.0298l7.3547 2.4197q2.2798 0.75005 3.0298-1.5297z" clip-path="url(#a)" fill="#fff" stroke="#fff"/>
<g clip-path="url(#a)">
<g transform="translate(257.05 247.81) rotate(-71.789) scale(.08 -.08)">
<defs>
<path id="s" d="m8.6875 72.906h9.9219v-44.297q0-11.719 4.2344-16.875 4.25-5.1406 13.781-5.1406 9.4688 0 13.719 5.1406 4.25 5.1562 4.25 16.875v44.297h9.9062v-45.516q0-14.25-7.0625-21.531-7.0469-7.2812-20.812-7.2812-13.828 0-20.891 7.2812-7.0469 7.2812-7.0469 21.531z"/>
</defs>
<use xlink:href="#s"/>
</g>
</g>
<path d="m278.17 248.71 1.4287-5.678q0.58564-2.3275-1.7418-2.9131l-7.5085-1.8893q-2.3275-0.58564-2.9131 1.7418l-1.4287 5.678q-0.58564 2.3275 1.7418 2.9131l7.5085 1.8893q2.3275 0.58564 2.9131-1.7418z" clip-path="url(#a)" fill="#fff" stroke="#fff"/>
<g clip-path="url(#a)">
<g transform="translate(274.23 247.71) rotate(-75.876) scale(.08 -.08)">
<use xlink:href="#s"/>
</g>
</g>
<path d="m106.44 138.35 4.0844 3.6422q1.7913 1.5973 3.3886-0.19395l5.153-5.7787q1.5973-1.7913-0.19395-3.3886l-4.0844-3.6422q-1.7913-1.5973-3.3886 0.19395l-5.153 5.7787q-1.5973 1.7913 0.19395 3.3886z" clip-path="url(#a)" fill="#fff" stroke="#fff"/>
<g clip-path="url(#a)">
<g transform="translate(109.15 135.32) rotate(41.724) scale(.08 -.08)">
<defs>
<path id="q" d="m34.188 63.188-13.391-36.281h26.812zm-5.5781 9.7188h11.188l27.781-72.906h-10.25l-6.6406 18.703h-32.859l-6.6406-18.703h-10.406z"/>
</defs>
<use xlink:href="#q"/>
</g>
</g>
<path d="m106.69 138.57 3.6002 3.2104q1.7913 1.5973 3.3886-0.19395l5.153-5.7787q1.5973-1.7913-0.19395-3.3886l-3.6002-3.2104q-1.7913-1.5973-3.3886 0.19395l-5.153 5.7787q-1.5973 1.7913 0.19395 3.3886z" clip-path="url(#a)" fill="#fff" stroke="#fff"/>
<g clip-path="url(#a)">
<g transform="translate(109.39 135.53) rotate(41.724) scale(.08 -.08)">
<defs>
<path id="p" d="m19.672 64.797v-27.391h12.406q6.8906 0 10.641 3.5625 3.7656 3.5625 3.7656 10.156 0 6.5469-3.7656 10.109-3.75 3.5625-10.641 3.5625zm-9.8594 8.1094h22.266q12.266 0 18.531-5.5469 6.2812-5.5469 6.2812-16.234 0-10.797-6.2812-16.312-6.2656-5.5156-18.531-5.5156h-12.406v-29.297h-9.8594z"/>
</defs>
<use xlink:href="#p"/>
</g>
</g>
<path d="m65.302 132.76v5.4725q0 2.4 2.4 2.4h7.7425q2.4 0 2.4-2.4v-5.4725q0-2.4-2.4-2.4h-7.7425q-2.4 0-2.4 2.4z" clip-path="url(#a)" fill="#fff" stroke="#fff"/>
<g clip-path="url(#a)">
<g transform="translate(69.366 132.76) rotate(90) scale(.08 -.08)">
<use xlink:href="#q"/>
</g>
</g>
<path d="m498.5 359.85 5.2671 1.4852q2.3099 0.65134 2.9613-1.6586l2.1013-7.4519q0.65134-2.3099-1.6586-2.9613l-5.2671-1.4852q-2.3099-0.65134-2.9613 1.6586l-2.1013 7.4519q-0.65134 2.3099 1.6586 2.9613z" clip-path="url(#a)" fill="#fff" stroke="#fff"/>
<g clip-path="url(#a)">
<g transform="translate(499.6 355.94) rotate(15.747) scale(.08 -.08)">
<use xlink:href="#q"/>
</g>
</g>
<path d="m498.81 359.93 4.6427 1.3091q2.3099 0.65134 2.9613-1.6586l2.1013-7.4519q0.65134-2.3099-1.6586-2.9613l-4.6427-1.3091q-2.3099-0.65134-2.9613 1.6586l-2.1013 7.4519q-0.65134 2.3099 1.6586 2.9613z" clip-path="url(#a)" fill="#fff" stroke="#fff"/>
<g clip-path="url(#a)">
<g transform="translate(499.91 356.02) rotate(15.747) scale(.08 -.08)">
<use xlink:href="#p"/>
</g>
</g>
<path d="m328.46 396.79 3.4673-5.1383q1.3425-1.9894-0.64696-3.3319l-6.418-4.3308q-1.9894-1.3425-3.3319 0.64696l-3.4673 5.1383q-1.3425 1.9894 0.64696 3.3319l6.418 4.3308q1.9894 1.3425 3.3319-0.64696z" clip-path="url(#a)" fill="#fff" stroke="#fff"/>
<g clip-path="url(#a)">
<g transform="translate(325.09 394.52) rotate(-55.988) scale(.08 -.08)">
<defs>
<path id="au" d="m59.516 10.406v19.578h-16.109v8.1094h25.875v-31.312q-5.7031-4.0469-12.594-6.125-6.875-2.0781-14.688-2.0781-17.094 0-26.75 9.9844-9.6406 10-9.6406 27.812 0 17.875 9.6406 27.859 9.6562 9.9844 26.75 9.9844 7.125 0 13.547-1.7656 6.4219-1.75 11.844-5.1719v-10.5q-5.4688 4.6406-11.625 6.9844t-12.938 2.3438q-13.391 0-20.109-7.4688-6.7031-7.4688-6.7031-22.266 0-14.75 6.7031-22.219 6.7188-7.4688 20.109-7.4688 5.2188 0 9.3125 0.90625 4.1094 0.90625 7.375 2.8125z"/>
</defs>
<use xlink:href="#au"/>
</g>
</g>
<path d="m433.4 358.69 4.7751 2.6734q2.0941 1.1724 3.2666-0.9217l3.7823-6.7558q1.1724-2.0941-0.9217-3.2666l-4.7751-2.6734q-2.0941-1.1724-3.2666 0.9217l-3.7823 6.7558q-1.1724 2.0941 0.9217 3.2666z" clip-path="url(#a)" fill="#fff" stroke="#fff"/>
<g clip-path="url(#a)">
<g transform="translate(435.38 355.14) rotate(29.243) scale(.08 -.08)">
<use xlink:href="#q"/>
</g>
</g>
<path d="m363.42 394.92 1.2613-5.7175q0.51703-2.3436-1.8266-2.8607l-7.5607-1.668q-2.3436-0.51703-2.8607 1.8266l-1.2613 5.7175q-0.51703 2.3436 1.8266 2.8607l7.5607 1.668q2.3436 0.51703 2.8607-1.8266z" clip-path="url(#a)" fill="#fff" stroke="#fff"/>
<g clip-path="url(#a)">
<g transform="translate(359.45 394.05) rotate(-77.559) scale(.08 -.08)">
<use xlink:href="#s"/>
</g>
</g>
<path d="m899.43 286.84 5.202 1.6992q2.2814 0.7452 3.0266-1.5362l2.4041-7.3598q0.7452-2.2814-1.5362-3.0266l-5.202-1.6992q-2.2814-0.7452-3.0266 1.5362l-2.4041 7.3598q-0.7452 2.2814 1.5362 3.0266z" clip-path="url(#a)" fill="#fff" stroke="#fff"/>
<g clip-path="url(#a)">
<g transform="translate(900.69 282.98) rotate(18.089) scale(.08 -.08)">
<use xlink:href="#q"/>
</g>
</g>
<path d="m899.74 286.94 4.5853 1.4978q2.2814 0.7452 3.0266-1.5362l2.4041-7.3598q0.7452-2.2814-1.5362-3.0266l-4.5853-1.4978q-2.2814-0.7452-3.0266 1.5362l-2.4041 7.3598q-0.7452 2.2814 1.5362 3.0266z" clip-path="url(#a)" fill="#fff" stroke="#fff"/>
<g clip-path="url(#a)">
<g transform="translate(901 283.08) rotate(18.089) scale(.08 -.08)">
<use xlink:href="#p"/>
</g>
</g>
<path d="m786.05 279v5.4725q0 2.4 2.4 2.4h7.7425q2.4 0 2.4-2.4v-5.4725q0-2.4-2.4-2.4h-7.7425q-2.4 0-2.4 2.4z" clip-path="url(#a)" fill="#fff" stroke="#fff"/>
<g clip-path="url(#a)">
<g transform="translate(790.12 279) rotate(90) scale(.08 -.08)">
<use xlink:href="#q"/>
</g>
</g>
<path d="m812.37 390.08 2.0976 5.6387q0.83679 2.2494 3.0862 1.4126l7.2566-2.6995q2.2494-0.83679 1.4126-3.0862l-2.0976-5.6387q-0.83679-2.2494-3.0862-1.4126l-7.2566 2.6995q-2.2494 0.83679-1.4126 3.0862z" clip-path="url(#a)" fill="#fff" stroke="#fff"/>
<g clip-path="url(#a)">
<g transform="translate(816.18 388.66) rotate(69.595) scale(.08 -.08)">
<use xlink:href="#w"/>
</g>
</g>
<path d="m646.66 361.37 5.8339-1.4698q2.3273-0.58633 1.7409-2.9136l-1.8915-7.5079q-0.58633-2.3273-2.9136-1.7409l-5.8339 1.4698q-2.3273 0.58633-1.7409 2.9136l1.8915 7.5079q0.58633 2.3273 2.9136 1.7409z" clip-path="url(#a)" fill="#fff" stroke="#fff"/>
<g clip-path="url(#a)">
<g transform="translate(645.67 357.43) rotate(-14.141) scale(.08 -.08)">
<use xlink:href="#w"/>
</g>
</g>
<path d="m749.61 396.56 3.1568-4.9311q1.294-2.0213-0.72726-3.3153l-6.5207-4.1745q-2.0213-1.294-3.3153 0.72726l-3.1568 4.9311q-1.294 2.0213 0.72726 3.3153l6.5207 4.1745q2.0213 1.294 3.3153-0.72726z" clip-path="url(#a)" fill="#fff" stroke="#fff"/>
<g clip-path="url(#a)">
<g transform="translate(746.18 394.37) rotate(-57.373) scale(.08 -.08)">
<use xlink:href="#s"/>
</g>
</g>
<path d="m787.44 394.52 0.85194-5.7927q0.34922-2.3745-2.0252-2.7237l-7.6601-1.1266q-2.3745-0.34922-2.7237 2.0252l-0.85194 5.7927q-0.34922 2.3745 2.0252 2.7237l7.6601 1.1266q2.3745 0.34922 2.7237-2.0252z" clip-path="url(#a)" fill="#fff" stroke="#fff"/>
<g clip-path="url(#a)">
<g transform="translate(783.42 393.93) rotate(-81.633) scale(.08 -.08)">
<use xlink:href="#s"/>
</g>
</g>
<path d="m852.21 392.79 3.9572 4.3152q1.6221 1.7688 3.3909 0.14675l5.7064-5.2329q1.7688-1.6221 0.14675-3.3909l-3.9572-4.3152q-1.6221-1.7688-3.3909-0.14675l-5.7064 5.2329q-1.7688 1.6221-0.14675 3.3909z" clip-path="url(#a)" fill="#fff" stroke="#fff"/>
<g clip-path="url(#a)">
<g transform="translate(855.21 390.05) rotate(47.478) scale(.08 -.08)">
<use xlink:href="#s"/>
</g>
</g>
<path d="m894.29 394.28 4.8596 3.2658q1.992 1.3387 3.3306-0.6533l4.3186-6.4262q1.3387-1.992-0.6533-3.3306l-4.8596-3.2658q-1.992-1.3387-3.3306 0.6533l-4.3186 6.4262q-1.3387 1.992 0.6533 3.3306z" clip-path="url(#a)" fill="#fff" stroke="#fff"/>
<g clip-path="url(#a)">
<g transform="translate(896.55 390.91) rotate(33.902) scale(.08 -.08)">
<use xlink:href="#s"/>
</g>
</g>
<path d="m840 481.98v33.808q0 2.4 2.4 2.4h7.7425q2.4 0 2.4-2.4v-33.808q0-2.4-2.4-2.4h-7.7425q-2.4 0-2.4 2.4z" clip-path="url(#a)" fill="#fff" stroke="#fff"/>
<g clip-path="url(#a)">
<g transform="translate(844.06 481.98) rotate(90) scale(.08 -.08)">
<defs>
<path id="e" d="m-0.29688 72.906h61.672v-8.3125h-25.875v-64.594h-9.9062v64.594h-25.891z"/>
<path id="m" d="m56.203 29.594v-4.3906h-41.312q0.59375-9.2812 5.5938-14.141t13.938-4.8594q5.1719 0 10.031 1.2656t9.6562 3.8125v-8.5q-4.8438-2.0469-9.9219-3.125t-10.297-1.0781q-13.094 0-20.734 7.6094-7.6406 7.625-7.6406 20.625 0 13.422 7.25 21.297 7.25 7.8906 19.562 7.8906 11.031 0 17.453-7.1094 6.4219-7.0938 6.4219-19.297zm-8.9844 2.6406q-0.09375 7.3594-4.125 11.75-4.0312 4.4062-10.672 4.4062-7.5156 0-12.031-4.25t-5.2031-11.969z"/>
<path id="h" d="m41.109 46.297q-1.5156 0.875-3.2969 1.2812-1.7812 0.42188-3.9219 0.42188-7.625 0-11.703-4.9531t-4.0781-14.234v-28.812h-9.0312v54.688h9.0312v-8.5q2.8438 4.9844 7.375 7.3906 4.5469 2.4219 11.047 2.4219 0.92188 0 2.0469-0.125 1.125-0.10938 2.4844-0.35938z"/>
<path id="j" d="m52 44.188q3.375 6.0625 8.0625 8.9375t11.031 2.875q8.5469 0 13.188-5.9844 4.6406-5.9688 4.6406-17v-33.016h-9.0312v32.719q0 7.8594-2.7969 11.656-2.7812 3.8125-8.4844 3.8125-6.9844 0-11.047-4.6406-4.0469-4.625-4.0469-12.641v-30.906h-9.0312v32.719q0 7.9062-2.7812 11.688t-8.5938 3.7812q-6.8906 0-10.953-4.6562-4.0469-4.6562-4.0469-12.625v-30.906h-9.0312v54.688h9.0312v-8.5q3.0781 5.0312 7.375 7.4219t10.203 2.3906q5.9688 0 10.141-3.0312 4.1719-3.0156 6.1719-8.7812z"/>
<path id="l" d="m9.4219 54.688h8.9844v-54.688h-8.9844zm0 21.297h8.9844v-11.391h-8.9844z"/>
<path id="i" d="m54.891 33.016v-33.016h-8.9844v32.719q0 7.7656-3.0312 11.609-3.0312 3.8594-9.0781 3.8594-7.2812 0-11.484-4.6406-4.2031-4.625-4.2031-12.641v-30.906h-9.0312v54.688h9.0312v-8.5q3.2344 4.9375 7.5938 7.375 4.375 2.4375 10.094 2.4375 9.4219 0 14.25-5.8281 4.8438-5.8281 4.8438-17.156z"/>
<path id="f" d="m34.281 27.484q-10.891 0-15.094-2.4844t-4.2031-8.5q0-4.7812 3.1562-7.5938 3.1562-2.7969 8.5625-2.7969 7.4844 0 12 5.2969t4.5156 14.078v2zm17.922 3.7188v-31.203h-8.9844v8.2969q-3.0781-4.9688-7.6719-7.3438t-11.234-2.375q-8.3906 0-13.359 4.7188-4.9531 4.7188-4.9531 12.625 0 9.2188 6.1719 13.906 6.1875 4.6875 18.438 4.6875h12.609v0.89062q0 6.2031-4.0781 9.5938t-11.453 3.3906q-4.6875 0-9.1406-1.125-4.4375-1.125-8.5312-3.375v8.3125q4.9219 1.9062 9.5625 2.8438 4.6406 0.95312 9.0312 0.95312 11.875 0 17.734-6.1562 5.8594-6.1406 5.8594-18.641z"/>
<path id="k" d="m9.4219 75.984h8.9844v-75.984h-8.9844z"/>
</defs>
<use xlink:href="#e"/>
<use x="44.083984" xlink:href="#m"/>
<use x="105.607422" xlink:href="#h"/>
<use x="144.970703" xlink:href="#j"/>
<use x="242.382812" xlink:href="#l"/>
<use x="270.166016" xlink:href="#i"/>
<use x="333.544922" xlink:href="#f"/>
<use x="394.824219" xlink:href="#k"/>
</g>
</g>
<path d="m267.03 516.86 9.4229-32.468q0.66893-2.3049-1.636-2.9738l-7.4357-2.158q-2.3049-0.66893-2.9738 1.636l-9.4229 32.468q-0.66893 2.3049 1.636 2.9738l7.4357 2.158q2.3049 0.66893 2.9738-1.636z" clip-path="url(#a)" fill="#fff" stroke="#fff"/>
<g clip-path="url(#a)">
<g transform="translate(263.13 515.73) rotate(-73.816) scale(.08 -.08)">
<use xlink:href="#e"/>
<use x="44.083984" xlink:href="#m"/>
<use x="105.607422" xlink:href="#h"/>
<use x="144.970703" xlink:href="#j"/>
<use x="242.382812" xlink:href="#l"/>
<use x="270.166016" xlink:href="#i"/>
<use x="333.544922" xlink:href="#f"/>
<use x="394.824219" xlink:href="#k"/>
</g>
</g>
<path d="m275.68 484.4 9.4229 32.468q0.66893 2.3049 2.9738 1.636l7.4357-2.158q2.3049-0.66893 1.636-2.9738l-9.4229-32.468q-0.66893-2.3049-2.9738-1.636l-7.4357 2.158q-2.3049 0.66893-1.636 2.9738z" clip-path="url(#a)" fill="#fff" stroke="#fff"/>
<g clip-path="url(#a)">
<g transform="translate(279.59 483.26) rotate(73.816) scale(.08 -.08)">
<use xlink:href="#e"/>
<use x="44.083984" xlink:href="#m"/>
<use x="105.607422" xlink:href="#h"/>
<use x="144.970703" xlink:href="#j"/>
<use x="242.382812" xlink:href="#l"/>
<use x="270.166016" xlink:href="#i"/>
<use x="333.544922" xlink:href="#f"/>
<use x="394.824219" xlink:href="#k"/>
</g>
</g>
<path d="m448.39 433.82 4.6083-2.9516q2.021-1.2944 0.72658-3.3154l-4.1759-6.5198q-1.2944-2.021-3.3154-0.72658l-4.6083 2.9516q-2.021 1.2944-0.72658 3.3154l4.1759 6.5198q1.2944 2.021 3.3154 0.72658z" clip-path="url(#a)" fill="#fff" stroke="#fff"/>
<g clip-path="url(#a)">
<g transform="translate(446.2 430.4) rotate(-32.639) scale(.08 -.08)">
<use xlink:href="#q"/>
</g>
</g>
<path d="m476.92 432.95 3.1267-3.7549q1.5358-1.8443-0.30855-3.3801l-5.9498-4.9544q-1.8443-1.5358-3.3801 0.30855l-3.1267 3.7549q-1.5358 1.8443 0.30855 3.3801l5.9498 4.9544q1.8443 1.5358 3.3801-0.30855z" clip-path="url(#a)" fill="#fff" stroke="#fff"/>
<g clip-path="url(#a)">
<g transform="translate(473.8 430.35) rotate(-50.216) scale(.08 -.08)">
<use xlink:href="#e"/>
</g>
</g>
<path d="m507.99 430.46 0.32016-6.1517q0.12474-2.3968-2.272-2.5215l-7.732-0.4024q-2.3968-0.12474-2.5215 2.272l-0.32016 6.1517q-0.12474 2.3968 2.272 2.5215l7.732 0.4024q2.3968 0.12474 2.5215-2.272z" clip-path="url(#a)" fill="#fff" stroke="#fff"/>
<g clip-path="url(#a)">
<g transform="translate(503.93 430.25) rotate(-87.021) scale(.08 -.08)">
<defs>
<path id="aw" d="m19.672 64.797v-56.688h11.922q15.094 0 22.094 6.8281 7 6.8438 7 21.594 0 14.641-7 21.453t-22.094 6.8125zm-9.8594 8.1094h20.266q21.188 0 31.094-8.8125 9.9219-8.8125 9.9219-27.562 0-18.859-9.9688-27.703-9.9531-8.8281-31.047-8.8281h-20.266z"/>
</defs>
<use xlink:href="#aw"/>
</g>
</g>
<path d="m525.49 428.92 3.1252 4.0033q1.4769 1.8918 3.3687 0.41495l6.103-4.7644q1.8918-1.4768 0.41495-3.3687l-3.1252-4.0033q-1.4769-1.8918-3.3687-0.41495l-6.103 4.7644q-1.8918 1.4768-0.41495 3.3687z" clip-path="url(#a)" fill="#fff" stroke="#fff"/>
<g clip-path="url(#a)">
<g transform="translate(528.7 426.42) rotate(52.022) scale(.08 -.08)">
<defs>
<path id="ah" d="m53.516 70.516v-9.625q-5.6094 2.6875-10.594 4-4.9844 1.3281-9.625 1.3281-8.0469 0-12.422-3.125t-4.375-8.8906q0-4.8438 2.9062-7.3125 2.9062-2.4531 11.016-3.9688l5.9531-1.2188q11.031-2.1094 16.281-7.4062t5.25-14.172q0-10.609-7.1094-16.078-7.0938-5.4688-20.812-5.4688-5.1719 0-11.016 1.1719-5.8281 1.1719-12.078 3.4688v10.156q6-3.3594 11.766-5.0781 5.7656-1.7031 11.328-1.7031 8.4375 0 13.031 3.3125 4.5938 3.3281 4.5938 9.4844 0 5.3594-3.2969 8.3906t-10.812 4.5469l-6.0156 1.1719q-11.031 2.1875-15.969 6.875-4.9219 4.6875-4.9219 13.047 0 9.6719 6.8125 15.234t18.766 5.5625q5.1406 0 10.453-0.9375 5.3281-0.92188 10.891-2.7656z"/>
</defs>
<use xlink:href="#ah"/>
</g>
</g>
<path d="m558.42 431.03 4.6917 2.8171q2.0576 1.2355 3.293-0.82209l3.9857-6.6378q1.2355-2.0576-0.82209-3.293l-4.6917-2.8171q-2.0576-1.2355-3.293 0.82209l-3.9857 6.6378q-1.2355 2.0576 0.82209 3.293z" clip-path="url(#a)" fill="#fff" stroke="#fff"/>
<g clip-path="url(#a)">
<g transform="translate(560.51 427.54) rotate(30.983) scale(.08 -.08)">
<use xlink:href="#q"/>
</g>
</g>
<path d="m384.59 481.98v33.808q0 2.4 2.4 2.4h7.7425q2.4 0 2.4-2.4v-33.808q0-2.4-2.4-2.4h-7.7425q-2.4 0-2.4 2.4z" clip-path="url(#a)" fill="#fff" stroke="#fff"/>
<g clip-path="url(#a)">
<g transform="translate(388.65 481.98) rotate(90) scale(.08 -.08)">
<use xlink:href="#e"/>
<use x="44.083984" xlink:href="#m"/>
<use x="105.607422" xlink:href="#h"/>
<use x="144.970703" xlink:href="#j"/>
<use x="242.382812" xlink:href="#l"/>
<use x="270.166016" xlink:href="#i"/>
<use x="333.544922" xlink:href="#f"/>
<use x="394.824219" xlink:href="#k"/>
</g>
</g>
<path d="m437.28 481.98v33.808q0 2.4 2.4 2.4h7.7425q2.4 0 2.4-2.4v-33.808q0-2.4-2.4-2.4h-7.7425q-2.4 0-2.4 2.4z" clip-path="url(#a)" fill="#fff" stroke="#fff"/>
<g clip-path="url(#a)">
<g transform="translate(441.35 481.98) rotate(90) scale(.08 -.08)">
<use xlink:href="#e"/>
<use x="44.083984" xlink:href="#m"/>
<use x="105.607422" xlink:href="#h"/>
<use x="144.970703" xlink:href="#j"/>
<use x="242.382812" xlink:href="#l"/>
<use x="270.166016" xlink:href="#i"/>
<use x="333.544922" xlink:href="#f"/>
<use x="394.824219" xlink:href="#k"/>
</g>
</g>
<path d="m493.74 481.98v33.808q0 2.4 2.4 2.4h7.7425q2.4 0 2.4-2.4v-33.808q0-2.4-2.4-2.4h-7.7425q-2.4 0-2.4 2.4z" clip-path="url(#a)" fill="#fff" stroke="#fff"/>
<g clip-path="url(#a)">
<g transform="translate(497.8 481.98) rotate(90) scale(.08 -.08)">
<use xlink:href="#e"/>
<use x="44.083984" xlink:href="#m"/>
<use x="105.607422" xlink:href="#h"/>
<use x="144.970703" xlink:href="#j"/>
<use x="242.382812" xlink:href="#l"/>
<use x="270.166016" xlink:href="#i"/>
<use x="333.544922" xlink:href="#f"/>
<use x="394.824219" xlink:href="#k"/>
</g>
</g>
<path d="m553.96 481.98v33.808q0 2.4 2.4 2.4h7.7425q2.4 0 2.4-2.4v-33.808q0-2.4-2.4-2.4h-7.7425q-2.4 0-2.4 2.4z" clip-path="url(#a)" fill="#fff" stroke="#fff"/>
<g clip-path="url(#a)">
<g transform="translate(558.02 481.98) rotate(90) scale(.08 -.08)">
<use xlink:href="#e"/>
<use x="44.083984" xlink:href="#m"/>
<use x="105.607422" xlink:href="#h"/>
<use x="144.970703" xlink:href="#j"/>
<use x="242.382812" xlink:href="#l"/>
<use x="270.166016" xlink:href="#i"/>
<use x="333.544922" xlink:href="#f"/>
<use x="394.824219" xlink:href="#k"/>
</g>
</g>
<path d="m617.94 481.98v33.808q0 2.4 2.4 2.4h7.7425q2.4 0 2.4-2.4v-33.808q0-2.4-2.4-2.4h-7.7425q-2.4 0-2.4 2.4z" clip-path="url(#a)" fill="#fff" stroke="#fff"/>
<g clip-path="url(#a)">
<g transform="translate(622 481.98) rotate(90) scale(.08 -.08)">
<use xlink:href="#e"/>
<use x="44.083984" xlink:href="#m"/>
<use x="105.607422" xlink:href="#h"/>
<use x="144.970703" xlink:href="#j"/>
<use x="242.382812" xlink:href="#l"/>
<use x="270.166016" xlink:href="#i"/>
<use x="333.544922" xlink:href="#f"/>
<use x="394.824219" xlink:href="#k"/>
</g>
</g>
<path d="m65.302 205.69v6.0162q0 2.4 2.4 2.4h7.7425q2.4 0 2.4-2.4v-6.0162q0-2.4-2.4-2.4h-7.7425q-2.4 0-2.4 2.4z" clip-path="url(#a)" fill="#fff" stroke="#fff"/>
<g clip-path="url(#a)">
<g transform="translate(69.366 205.69) rotate(90) scale(.08 -.08)">
<use xlink:href="#w"/>
</g>
</g>
<path d="m106.6 284.74 3.7982 3.3716q1.7949 1.5933 3.3881-0.20159l5.1399-5.7903q1.5933-1.7949-0.20159-3.3881l-3.7982-3.3716q-1.7949-1.5933-3.3881 0.20159l-5.1399 5.7903q-1.5933 1.7949 0.20159 3.3881z" clip-path="url(#a)" fill="#fff" stroke="#fff"/>
<g clip-path="url(#a)">
<g transform="translate(109.3 281.7) rotate(41.595) scale(.08 -.08)">
<use xlink:href="#ah"/>
</g>
</g>
<path d="m65.302 279v5.4725q0 2.4 2.4 2.4h7.7425q2.4 0 2.4-2.4v-5.4725q0-2.4-2.4-2.4h-7.7425q-2.4 0-2.4 2.4z" clip-path="url(#a)" fill="#fff" stroke="#fff"/>
<g clip-path="url(#a)">
<g transform="translate(69.366 279) rotate(90) scale(.08 -.08)">
<use xlink:href="#q"/>
</g>
</g>
<path d="m65.719 394.46 0.88284-5.516q0.37929-2.3698-1.9905-2.7491l-7.6452-1.2236q-2.3698-0.37929-2.7491 1.9905l-0.88284 5.516q-0.37929 2.3698 1.9906 2.7491l7.6452 1.2236q2.3698 0.37929 2.7491-1.9905z" clip-path="url(#a)" fill="#fff" stroke="#fff"/>
<g clip-path="url(#a)">
<g transform="translate(61.707 393.82) rotate(-80.907) scale(.08 -.08)">
<defs>
<path id="t" d="m64.406 67.281v-10.391q-4.9844 4.6406-10.625 6.9219-5.6406 2.2969-11.984 2.2969-12.5 0-19.141-7.6406t-6.6406-22.094q0-14.406 6.6406-22.047t19.141-7.6406q6.3438 0 11.984 2.2969t10.625 6.9375v-10.312q-5.1719-3.5156-10.969-5.2812-5.7812-1.75-12.219-1.75-16.562 0-26.094 10.125-9.5156 10.141-9.5156 27.672 0 17.578 9.5156 27.703 9.5312 10.141 26.094 10.141 6.5312 0 12.312-1.7344 5.7969-1.7344 10.875-5.2031z"/>
</defs>
<use xlink:href="#t"/>
</g>
</g>
<path d="m82.391 355.01 2.1993 4.5515q1.0442 2.1609 3.2051 1.1168l6.9713-3.3686q2.1609-1.0442 1.1168-3.2051l-2.1993-4.5515q-1.0442-2.1609-3.2051-1.1168l-6.9713 3.3686q-2.1609 1.0442-1.1168 3.2051z" clip-path="url(#a)" fill="#fff" stroke="#fff"/>
<g clip-path="url(#a)">
<g transform="translate(86.05 353.24) rotate(64.21) scale(.08 -.08)">
<defs>
<path id="av" d="m9.8125 72.906h46.094v-8.3125h-36.234v-21.578h34.719v-8.2969h-34.719v-26.422h37.109v-8.2969h-46.969z"/>
</defs>
<use xlink:href="#av"/>
</g>
</g>
<path d="m71.624 394.14 0.47959-5.8353q0.19659-2.3919-2.1953-2.5885l-7.7165-0.6342q-2.3919-0.19659-2.5885 2.1953l-0.47959 5.8353q-0.19659 2.3919 2.1953 2.5885l7.7165 0.6342q2.3919 0.19659 2.5885-2.1953z" clip-path="url(#a)" fill="#fff" stroke="#fff"/>
<g clip-path="url(#a)">
<g transform="translate(67.574 393.81) rotate(-85.302) scale(.08 -.08)">
<use xlink:href="#s"/>
</g>
</g>
<path d="m42.092 481.98v33.808q0 2.4 2.4 2.4h7.7425q2.4 0 2.4-2.4v-33.808q0-2.4-2.4-2.4h-7.7425q-2.4 0-2.4 2.4z" clip-path="url(#a)" fill="#fff" stroke="#fff"/>
<g clip-path="url(#a)">
<g transform="translate(46.156 481.98) rotate(90) scale(.08 -.08)">
<use xlink:href="#e"/>
<use x="44.083984" xlink:href="#m"/>
<use x="105.607422" xlink:href="#h"/>
<use x="144.970703" xlink:href="#j"/>
<use x="242.382812" xlink:href="#l"/>
<use x="270.166016" xlink:href="#i"/>
<use x="333.544922" xlink:href="#f"/>
<use x="394.824219" xlink:href="#k"/>
</g>
</g>
<path d="m95.316 432.14 2.2488-5.0836q0.97093-2.1948-1.2239-3.1658l-7.0806-3.1323q-2.1948-0.97093-3.1658 1.2239l-2.2488 5.0836q-0.97093 2.1948 1.2239 3.1658l7.0806 3.1323q2.1948 0.97093 3.1658-1.2239z" clip-path="url(#a)" fill="#fff" stroke="#fff"/>
<g clip-path="url(#a)">
<g transform="translate(91.6 430.5) rotate(-66.137) scale(.08 -.08)">
<defs>
<path id="ai" d="m44.391 34.188q3.1719-1.0781 6.1719-4.5938t6.0312-9.6719l10.016-19.922h-10.609l-9.3125 18.703q-3.625 7.3281-7.0156 9.7188t-9.25 2.3906h-10.75v-30.812h-9.8594v72.906h22.266q12.5 0 18.656-5.2344 6.1562-5.2188 6.1562-15.766 0-6.8906-3.2031-11.438-3.2031-4.5312-9.2969-6.2812zm-24.719 30.609v-25.875h12.406q7.125 0 10.766 3.2969t3.6406 9.6875-3.6406 9.6406-10.766 3.25z"/>
</defs>
<use xlink:href="#ai"/>
</g>
</g>
<path d="m105.79 430.92 0.99616-5.4688q0.43009-2.3611-1.9311-2.7912l-7.6172-1.3875q-2.3611-0.43009-2.7912 1.9311l-0.99616 5.4688q-0.43009 2.3611 1.9311 2.7912l7.6172 1.3875q2.3611 0.43009 2.7912-1.9311z" clip-path="url(#a)" fill="#fff" stroke="#fff"/>
<g clip-path="url(#a)">
<g transform="translate(101.79 430.19) rotate(-79.677) scale(.08 -.08)">
<use xlink:href="#ai"/>
</g>
</g>
<path d="m104.83 425.16 0.70607 5.4268q0.30965 2.3799 2.6896 2.0703l7.6778-0.99895q2.3799-0.30965 2.0703-2.6896l-0.70607-5.4268q-0.30965-2.3799-2.6896-2.0703l-7.6778 0.99895q-2.3799 0.30965-2.0703 2.6896z" clip-path="url(#a)" fill="#fff" stroke="#fff"/>
<g clip-path="url(#a)">
<g transform="translate(108.86 424.63) rotate(82.587) scale(.08 -.08)">
<use xlink:href="#q"/>
</g>
</g>
<path d="m117.89 427.68 2.1379 4.3241q1.0637 2.1514 3.2151 1.0877l6.9405-3.4315q2.1514-1.0637 1.0877-3.2151l-2.1379-4.3241q-1.0637-2.1514-3.2151-1.0877l-6.9405 3.4315q-2.1514 1.0637-1.0877 3.2151z" clip-path="url(#a)" fill="#fff" stroke="#fff"/>
<g clip-path="url(#a)">
<g transform="translate(121.53 425.88) rotate(63.691) scale(.08 -.08)">
<use xlink:href="#p"/>
</g>
</g>
<path d="m53.384 481.98v33.808q0 2.4 2.4 2.4h7.7425q2.4 0 2.4-2.4v-33.808q0-2.4-2.4-2.4h-7.7425q-2.4 0-2.4 2.4z" clip-path="url(#a)" fill="#fff" stroke="#fff"/>
<g clip-path="url(#a)">
<g transform="translate(57.447 481.98) rotate(90) scale(.08 -.08)">
<use xlink:href="#e"/>
<use x="44.083984" xlink:href="#m"/>
<use x="105.607422" xlink:href="#h"/>
<use x="144.970703" xlink:href="#j"/>
<use x="242.382812" xlink:href="#l"/>
<use x="270.166016" xlink:href="#i"/>
<use x="333.544922" xlink:href="#f"/>
<use x="394.824219" xlink:href="#k"/>
</g>
</g>
<path d="m68.438 481.98v33.808q0 2.4 2.4 2.4h7.7425q2.4 0 2.4-2.4v-33.808q0-2.4-2.4-2.4h-7.7425q-2.4 0-2.4 2.4z" clip-path="url(#a)" fill="#fff" stroke="#fff"/>
<g clip-path="url(#a)">
<g transform="translate(72.502 481.98) rotate(90) scale(.08 -.08)">
<use xlink:href="#e"/>
<use x="44.083984" xlink:href="#m"/>
<use x="105.607422" xlink:href="#h"/>
<use x="144.970703" xlink:href="#j"/>
<use x="242.382812" xlink:href="#l"/>
<use x="270.166016" xlink:href="#i"/>
<use x="333.544922" xlink:href="#f"/>
<use x="394.824219" xlink:href="#k"/>
</g>
</g>
<path d="m87.257 481.98v33.808q0 2.4 2.4 2.4h7.7425q2.4 0 2.4-2.4v-33.808q0-2.4-2.4-2.4h-7.7425q-2.4 0-2.4 2.4z" clip-path="url(#a)" fill="#fff" stroke="#fff"/>
<g clip-path="url(#a)">
<g transform="translate(91.321 481.98) rotate(90) scale(.08 -.08)">
<use xlink:href="#e"/>
<use x="44.083984" xlink:href="#m"/>
<use x="105.607422" xlink:href="#h"/>
<use x="144.970703" xlink:href="#j"/>
<use x="242.382812" xlink:href="#l"/>
<use x="270.166016" xlink:href="#i"/>
<use x="333.544922" xlink:href="#f"/>
<use x="394.824219" xlink:href="#k"/>
</g>
</g>
<path d="m109.84 481.98v33.808q0 2.4 2.4 2.4h7.7425q2.4 0 2.4-2.4v-33.808q0-2.4-2.4-2.4h-7.7425q-2.4 0-2.4 2.4z" clip-path="url(#a)" fill="#fff" stroke="#fff"/>
<g clip-path="url(#a)">
<g transform="translate(113.9 481.98) rotate(90) scale(.08 -.08)">
<use xlink:href="#e"/>
<use x="44.083984" xlink:href="#m"/>
<use x="105.607422" xlink:href="#h"/>
<use x="144.970703" xlink:href="#j"/>
<use x="242.382812" xlink:href="#l"/>
<use x="270.166016" xlink:href="#i"/>
<use x="333.544922" xlink:href="#f"/>
<use x="394.824219" xlink:href="#k"/>
</g>
</g>
<path d="m136.19 481.98v33.808q0 2.4 2.4 2.4h7.7425q2.4 0 2.4-2.4v-33.808q0-2.4-2.4-2.4h-7.7425q-2.4 0-2.4 2.4z" clip-path="url(#a)" fill="#fff" stroke="#fff"/>
<g clip-path="url(#a)">
<g transform="translate(140.25 481.98) rotate(90) scale(.08 -.08)">
<use xlink:href="#e"/>
<use x="44.083984" xlink:href="#m"/>
<use x="105.607422" xlink:href="#h"/>
<use x="144.970703" xlink:href="#j"/>
<use x="242.382812" xlink:href="#l"/>
<use x="270.166016" xlink:href="#i"/>
<use x="333.544922" xlink:href="#f"/>
<use x="394.824219" xlink:href="#k"/>
</g>
</g>
<path d="m177.59 481.98v33.808q0 2.4 2.4 2.4h7.7425q2.4 0 2.4-2.4v-33.808q0-2.4-2.4-2.4h-7.7425q-2.4 0-2.4 2.4z" clip-path="url(#a)" fill="#fff" stroke="#fff"/>
<g clip-path="url(#a)">
<g transform="translate(181.65 481.98) rotate(90) scale(.08 -.08)">
<use xlink:href="#e"/>
<use x="44.083984" xlink:href="#m"/>
<use x="105.607422" xlink:href="#h"/>
<use x="144.970703" xlink:href="#j"/>
<use x="242.382812" xlink:href="#l"/>
<use x="270.166016" xlink:href="#i"/>
<use x="333.544922" xlink:href="#f"/>
<use x="394.824219" xlink:href="#k"/>
</g>
</g>
<path d="m211.46 481.98v33.808q0 2.4 2.4 2.4h7.7425q2.4 0 2.4-2.4v-33.808q0-2.4-2.4-2.4h-7.7425q-2.4 0-2.4 2.4z" clip-path="url(#a)" fill="#fff" stroke="#fff"/>
<g clip-path="url(#a)">
<g transform="translate(215.52 481.98) rotate(90) scale(.08 -.08)">
<use xlink:href="#e"/>
<use x="44.083984" xlink:href="#m"/>
<use x="105.607422" xlink:href="#h"/>
<use x="144.970703" xlink:href="#j"/>
<use x="242.382812" xlink:href="#l"/>
<use x="270.166016" xlink:href="#i"/>
<use x="333.544922" xlink:href="#f"/>
<use x="394.824219" xlink:href="#k"/>
</g>
</g>
<path d="m335.66 481.98v33.808q0 2.4 2.4 2.4h7.7425q2.4 0 2.4-2.4v-33.808q0-2.4-2.4-2.4h-7.7425q-2.4 0-2.4 2.4z" clip-path="url(#a)" fill="#fff" stroke="#fff"/>
<g clip-path="url(#a)">
<g transform="translate(339.73 481.98) rotate(90) scale(.08 -.08)">
<use xlink:href="#e"/>
<use x="44.083984" xlink:href="#m"/>
<use x="105.607422" xlink:href="#h"/>
<use x="144.970703" xlink:href="#j"/>
<use x="242.382812" xlink:href="#l"/>
<use x="270.166016" xlink:href="#i"/>
<use x="333.544922" xlink:href="#f"/>
<use x="394.824219" xlink:href="#k"/>
</g>
</g>
<path d="m693.21 481.98v33.808q0 2.4 2.4 2.4h7.7425q2.4 0 2.4-2.4v-33.808q0-2.4-2.4-2.4h-7.7425q-2.4 0-2.4 2.4z" clip-path="url(#a)" fill="#fff" stroke="#fff"/>
<g clip-path="url(#a)">
<g transform="translate(697.28 481.98) rotate(90) scale(.08 -.08)">
<use xlink:href="#e"/>
<use x="44.083984" xlink:href="#m"/>
<use x="105.607422" xlink:href="#h"/>
<use x="144.970703" xlink:href="#j"/>
<use x="242.382812" xlink:href="#l"/>
<use x="270.166016" xlink:href="#i"/>
<use x="333.544922" xlink:href="#f"/>
<use x="394.824219" xlink:href="#k"/>
</g>
</g>
<path d="m764.72 481.98v33.808q0 2.4 2.4 2.4h7.7425q2.4 0 2.4-2.4v-33.808q0-2.4-2.4-2.4h-7.7425q-2.4 0-2.4 2.4z" clip-path="url(#a)" fill="#fff" stroke="#fff"/>
<g clip-path="url(#a)">
<g transform="translate(768.79 481.98) rotate(90) scale(.08 -.08)">
<use xlink:href="#e"/>
<use x="44.083984" xlink:href="#m"/>
<use x="105.607422" xlink:href="#h"/>
<use x="144.970703" xlink:href="#j"/>
<use x="242.382812" xlink:href="#l"/>
<use x="270.166016" xlink:href="#i"/>
<use x="333.544922" xlink:href="#f"/>
<use x="394.824219" xlink:href="#k"/>
</g>
</g>
<path d="m919.04 481.98v33.808q0 2.4 2.4 2.4h7.7425q2.4 0 2.4-2.4v-33.808q0-2.4-2.4-2.4h-7.7425q-2.4 0-2.4 2.4z" clip-path="url(#a)" fill="#fff" stroke="#fff"/>
<g clip-path="url(#a)">
<g transform="translate(923.1 481.98) rotate(90) scale(.08 -.08)">
<use xlink:href="#e"/>
<use x="44.083984" xlink:href="#m"/>
<use x="105.607422" xlink:href="#h"/>
<use x="144.970703" xlink:href="#j"/>
<use x="242.382812" xlink:href="#l"/>
<use x="270.166016" xlink:href="#i"/>
<use x="333.544922" xlink:href="#f"/>
<use x="394.824219" xlink:href="#k"/>
</g>
</g>
<path d="m1001.8 481.98v33.808q0 2.4 2.4 2.4h7.7425q2.4 0 2.4-2.4v-33.808q0-2.4-2.4-2.4h-7.7425q-2.4 0-2.4 2.4z" clip-path="url(#a)" fill="#fff" stroke="#fff"/>
<g clip-path="url(#a)">
<g transform="translate(1005.9 481.98) rotate(90) scale(.08 -.08)">
<use xlink:href="#e"/>
<use x="44.083984" xlink:href="#m"/>
<use x="105.607422" xlink:href="#h"/>
<use x="144.970703" xlink:href="#j"/>
<use x="242.382812" xlink:href="#l"/>
<use x="270.166016" xlink:href="#i"/>
<use x="333.544922" xlink:href="#f"/>
<use x="394.824219" xlink:href="#k"/>
</g>
</g>
<defs>
<path id="b" d="m0 8.6603c2.2967 0 4.4997-0.9125 6.1237-2.5365 1.624-1.624 2.5365-3.827 2.5365-6.1237s-0.9125-4.4997-2.5365-6.1237c-1.624-1.624-3.827-2.5365-6.1237-2.5365s-4.4997 0.9125-6.1237 2.5365c-1.624 1.624-2.5365 3.827-2.5365 6.1237s0.9125 4.4997 2.5365 6.1237c1.624 1.624 3.827 2.5365 6.1237 2.5365z"/>
</defs>
<g clip-path="url(#a)" fill="#ffffff" stroke="#ffffff">
<use x="48.363636" y="534.545455" xlink:href="#b"/>
<use x="59.654758" y="534.545455" xlink:href="#b"/>
<use x="74.709586" y="534.545455" xlink:href="#b"/>
<use x="93.528122" y="534.545455" xlink:href="#b"/>
<use x="116.110364" y="534.545455" xlink:href="#b"/>
<use x="142.456314" y="534.545455" xlink:href="#b"/>
<use x="183.857092" y="534.545455" xlink:href="#b"/>
<use x="217.730456" y="534.545455" xlink:href="#b"/>
<use x="255.367527" y="534.545455" xlink:href="#b"/>
<use x="296.768306" y="534.545455" xlink:href="#b"/>
<use x="341.932791" y="534.545455" xlink:href="#b"/>
<use x="390.860983" y="534.545455" xlink:href="#b"/>
<use x="443.552883" y="534.545455" xlink:href="#b"/>
<use x="500.00849" y="534.545455" xlink:href="#b"/>
<use x="560.227803" y="534.545455" xlink:href="#b"/>
<use x="624.210824" y="534.545455" xlink:href="#b"/>
<use x="699.484966" y="534.545455" xlink:href="#b"/>
<use x="770.995401" y="534.545455" xlink:href="#b"/>
<use x="846.269544" y="534.545455" xlink:href="#b"/>
<use x="925.307393" y="534.545455" xlink:href="#b"/>
<use x="1008.108949" y="534.545455" xlink:href="#b"/>
<use x="1015.636364" y="318.204477" xlink:href="#b"/>
<use x="1015.636364" y="318.204477" xlink:href="#b"/>
<use x="631.738238" y="390.901743" xlink:href="#b"/>
<use x="631.738238" y="390.901743" xlink:href="#b"/>
<use x="153.747435" y="172.13057" xlink:href="#b"/>
<use x="153.747435" y="172.13057" xlink:href="#b"/>
<use x="153.747435" y="318.204477" xlink:href="#b"/>
<use x="327.881618" y="25.454545" xlink:href="#b"/>
<use x="71.573164" y="98.853958" xlink:href="#b"/>
<use x="373.924301" y="318.204477" xlink:href="#b"/>
<use x="792.323075" y="245.25979" xlink:href="#b"/>
<use x="792.323075" y="318.204477" xlink:href="#b"/>
<use x="846.269544" y="463.219709" xlink:href="#b"/>
<use x="276.067917" y="463.219709" xlink:href="#b"/>
<use x="503.772197" y="390.901743" xlink:href="#b"/>
<use x="390.860983" y="463.219709" xlink:href="#b"/>
<use x="443.552883" y="463.219709" xlink:href="#b"/>
<use x="500.00849" y="463.219709" xlink:href="#b"/>
<use x="560.227803" y="463.219709" xlink:href="#b"/>
<use x="624.210824" y="463.219709" xlink:href="#b"/>
<use x="71.573164" y="172.13057" xlink:href="#b"/>
<use x="71.573164" y="245.25979" xlink:href="#b"/>
<use x="71.573164" y="318.204477" xlink:href="#b"/>
<use x="48.363636" y="463.219709" xlink:href="#b"/>
<use x="106.701097" y="390.901743" xlink:href="#b"/>
<use x="59.654758" y="463.219709" xlink:href="#b"/>
<use x="74.709586" y="463.219709" xlink:href="#b"/>
<use x="93.528122" y="463.219709" xlink:href="#b"/>
<use x="116.110364" y="463.219709" xlink:href="#b"/>
<use x="142.456314" y="463.219709" xlink:href="#b"/>
<use x="183.857092" y="463.219709" xlink:href="#b"/>
<use x="217.730456" y="463.219709" xlink:href="#b"/>
<use x="341.932791" y="463.219709" xlink:href="#b"/>
<use x="699.484966" y="463.219709" xlink:href="#b"/>
<use x="770.995401" y="463.219709" xlink:href="#b"/>
<use x="925.307393" y="463.219709" xlink:href="#b"/>
<use x="1008.108949" y="463.219709" xlink:href="#b"/>
</g>
<g clip-path="url(#a)">
<g transform="translate(38.605 537.3) scale(.1 -.1)">
<defs>
<path id="at" d="m4.1094 0v8.2969q10.594 2.2969 13.609 10.312 4.25 12.594 4.25 41.891v12.406h43.359v-72.906h-9.8594v64.594h-23.688v-8.9844q0-27.625-4.9688-40.516-4.7969-12.359-22.703-15.094z"/>
<path id="aa" d="m55.906 54.688v-54.688h-8.9375v43.891l-26.359-43.891h-11.531v54.688h8.9375v-43.797l26.328 43.797z"/>
<path id="x" d="m48.781 52.594v-8.4062q-3.8125 2.1094-7.6406 3.1562t-7.7344 1.0469q-8.75 0-13.594-5.5469-4.8281-5.5312-4.8281-15.547t4.8281-15.562q4.8438-5.5312 13.594-5.5312 3.9062 0 7.7344 1.0469t7.6406 3.1562v-8.3125q-3.7656-1.75-7.7969-2.625-4.0156-0.89062-8.5625-0.89062-12.359 0-19.641 7.7656-7.2656 7.7656-7.2656 20.953 0 13.375 7.3438 21.031 7.3594 7.6719 20.156 7.6719 4.1406 0 8.0938-0.85938 3.9531-0.84375 7.6719-2.5469z"/>
</defs>
<use xlink:href="#at"/>
<use x="75.195312" xlink:href="#aa"/>
<use x="140.185547" xlink:href="#x"/>
</g>
</g>
<g clip-path="url(#a)">
<g transform="translate(58.066 537.3) scale(.1 -.1)">
<defs>
<path id="aj" d="m11.719 12.406h10.297v-8.4062l-8-15.625h-6.2969l4 15.625z"/>
</defs>
<use xlink:href="#aj"/>
</g>
</g>
<g clip-path="url(#a)">
<g transform="translate(71.96 537.3) scale(.1 -.1)">
<use xlink:href="#x"/>
</g>
</g>
<g clip-path="url(#a)">
<g transform="translate(70.583 537.3) scale(.1 -.1)">
<defs>
<path id="be" d="m9.0781 54.688h8.9375v-25.688l25.344 25.688h11.031l-20.891-21.141 23.578-33.547h-10.062l-19.375 27.594-9.625-9.7656v-17.828h-8.9375z"/>
<path id="y" d="m30.609 48.391q-7.2188 0-11.422-5.6406t-4.2031-15.453 4.1719-15.453q4.1875-5.6406 11.453-5.6406 7.1875 0 11.375 5.6562 4.2031 5.6719 4.2031 15.438 0 9.7188-4.2031 15.406-4.1875 5.6875-11.375 5.6875zm0 7.6094q11.719 0 18.406-7.625 6.7031-7.6094 6.7031-21.078 0-13.422-6.7031-21.078-6.6875-7.6406-18.406-7.6406-11.766 0-18.438 7.6406-6.6562 7.6562-6.6562 21.078 0 13.469 6.6562 21.078 6.6719 7.625 18.438 7.625z"/>
<path id="bc" d="m2.9375 54.688h52.391v-7.1719h-21.781v-47.516h-8.8438v47.516h-21.766z"/>
<path id="ao" d="m18.109 8.2031v-29h-9.0312v75.484h9.0312v-8.2969q2.8438 4.875 7.1562 7.2344 4.3281 2.375 10.328 2.375 9.9688 0 16.188-7.9062 6.2344-7.9062 6.2344-20.797t-6.2344-20.812q-6.2188-7.9062-16.188-7.9062-6 0-10.328 2.375-4.3125 2.375-7.1562 7.25zm30.578 19.094q0 9.9062-4.0781 15.547t-11.203 5.6406q-7.1406 0-11.219-5.6406t-4.0781-15.547 4.0781-15.547 11.219-5.6406q7.125 0 11.203 5.6406t4.0781 15.547z"/>
<path id="al" d="m61.047 54.688h8.9844v-54.688h-8.9844zm4.5 1.3125m-22.094-39.781q0 4.3906-3.2031 6.6875-3.1875 2.2969-9.3438 2.2969h-12.797v-18.031h12.797q6.1562 0 9.3438 2.3125 3.2031 2.3281 3.2031 6.7344zm-34.375 38.469h9.0312v-22.312h13.188q10.453 0 16.094-3.9844 5.6406-3.9688 5.6406-12.172t-5.6406-12.219q-5.6406-4-16.094-4h-22.219z"/>
<path id="z" d="m9.0781 54.688h13.141l15.531-36.625 15.578 36.625h13.031v-54.688h-9.0312v46.094l-15.094-35.594h-8.9844l-15.141 35.594v-46.094h-9.0312z"/>
</defs>
<use xlink:href="#be"/>
<use x="60.400391" xlink:href="#y"/>
<use x="121.582031" xlink:href="#bc"/>
<use x="179.833984" xlink:href="#y"/>
<use x="241.015625" xlink:href="#ao"/>
<use x="304.492188" xlink:href="#al"/>
<use x="383.447266" xlink:href="#z"/>
</g>
</g>
<g clip-path="url(#a)">
<g transform="translate(113.1 537.3) scale(.1 -.1)">
<defs>
<path id="ak" d="m18.453 38.922q0-4.0625 3.125-6.3594 3.125-2.2812 8.9375-2.2812h12.109v17.234h-12.109q-5.8125 0-8.9375-2.25t-3.125-6.3438zm-12.781-38.922 16.688 23.969q-5.6562 1.2812-9.4219 4.625-3.75 3.3438-3.75 10.328 0 7.9062 5.2344 11.828 5.25 3.9375 15.859 3.9375h21.375v-54.688h-9.0312v23.094h-11.172l-16.125-23.094z"/>
</defs>
<use xlink:href="#ak"/>
</g>
</g>
<g clip-path="url(#a)">
<g transform="translate(109.83 537.3) scale(.1 -.1)">
<defs>
<path id="bd" d="m56.297 54.688v-54.688h-9.0312v47.516h-29.156v-47.516h-9.0312v54.688z"/>
<path id="ar" d="m21.625 7.1719h26.078v40.344h-18.891v-6.8438q0-20.109-5.7656-30.859zm-13.031 0q4.4375 1.9531 6.3906 6.1094 4.7969 10.297 4.7969 31.062v10.344h36.953v-47.516h7.1875v-20.984h-7.1875v13.812h-44.328v-13.812h-7.1875v20.984z"/>
<path id="an" d="m32.172-5.0781q-3.7969-9.7656-7.4219-12.734-3.6094-2.9844-9.6562-2.9844h-7.1875v7.5156h5.2812q3.7031 0 5.75 1.7656 2.0625 1.75 4.5469 8.2969l1.6094 4.0938-22.109 53.812h9.5156l17.094-42.766 17.094 42.766h9.5156z"/>
<path id="bf" d="m40.578 54.688h8.9375v-25.688l23.875 25.688h10.453l-19.641-21.047 22.469-33.641h-9.625l-18.406 27.641-9.125-9.8125v-17.828h-8.9375v17.828l-9.125 9.8125-18.422-27.641h-9.6094l22.453 33.641-19.625 21.047h10.453l23.875-25.688z"/>
<path id="aq" d="m3.7188 0v7.4688q8.875 1.375 11.609 7.5156 3.3281 8.6562 3.3281 30.766v8.9375h36.953v-54.688h-8.9844v47.516h-18.984v-5.4219q0-21.094-4.2969-30.562-4.5938-10.109-19.625-11.531z"/>
</defs>
<use xlink:href="#bd"/>
<use x="65.380859" xlink:href="#y"/>
<use x="126.5625" xlink:href="#ar"/>
<use x="195.703125" xlink:href="#ao"/>
<use x="259.179688" xlink:href="#an"/>
<use x="318.359375" xlink:href="#bf"/>
<use x="408.447266" xlink:href="#aa"/>
<use x="473.4375" xlink:href="#aq"/>
<use x="537.353516" xlink:href="#x"/>
<use x="592.333984" xlink:href="#ak"/>
</g>
</g>
<g clip-path="url(#a)">
<g transform="translate(179.09 537.3) scale(.1 -.1)">
<defs>
<path id="d" d="m10.688 12.406h10.312v-12.406h-10.312z"/>
</defs>
<use xlink:href="#d"/>
<use x="31.787109" xlink:href="#d"/>
<use x="63.574219" xlink:href="#d"/>
</g>
</g>
<g clip-path="url(#a)">
<g transform="translate(215.93 537.3) scale(.1 -.1)">
<defs>
<path id="af" d="m4.8906 31.391h26.312v-8h-26.312z"/>
</defs>
<use xlink:href="#af"/>
</g>
</g>
<g clip-path="url(#a)">
<g transform="translate(237.41 537.3) scale(.1 -.1)">
<defs>
<path id="bh" d="m9.8125 72.906h14.703l18.594-49.609 18.703 49.609h14.703v-72.906h-9.625v64.016l-18.797-50h-9.9062l-18.797 50v-64.016h-9.5781z"/>
<path id="ag" d="m55.906 54.688v-54.688h-8.9375v43.891l-26.359-43.891h-11.531v54.688h8.9375v-43.797l26.328 43.797zm-38.688 20.828h5.7656q0.53125-3.6562 2.8906-5.5 2.375-1.8281 6.625-1.8281 4.2031 0 6.5469 1.8125t2.9688 5.5156h5.7656q-0.48438-6.9844-4.3438-10.5t-10.938-3.5156-10.938 3.5156-4.3438 10.5z"/>
</defs>
<use xlink:href="#bh"/>
<use x="86.279297" xlink:href="#aa"/>
<use x="151.269531" xlink:href="#aq"/>
<use x="215.185547" xlink:href="#al"/>
<use x="294.140625" xlink:href="#ag"/>
</g>
</g>
<g clip-path="url(#a)">
<g transform="translate(286.69 537.3) scale(.1 -.1)">
<use xlink:href="#z"/>
<use x="75.439453" xlink:href="#y"/>
<use x="136.621094" xlink:href="#ag"/>
</g>
</g>
<g clip-path="url(#a)">
<g transform="translate(340.34 537.3) scale(.1 -.1)">
<use xlink:href="#aj"/>
</g>
</g>
<g clip-path="url(#a)">
<g transform="translate(380.74 537.3) scale(.1 -.1)">
<defs>
<path id="ap" d="m9.0781 54.688h9.0312v-22.312h29.156v22.312h9.0312v-54.688h-9.0312v25.203h-29.156v-25.203h-9.0312z"/>
<path id="ab" d="m56.203 29.594v-4.3906h-41.312q0.59375-9.2812 5.5938-14.141t13.938-4.8594q5.1719 0 10.031 1.2656t9.6562 3.8125v-8.5q-4.8438-2.0469-9.9219-3.125t-10.297-1.0781q-13.094 0-20.734 7.6094-7.6406 7.625-7.6406 20.625 0 13.422 7.25 21.297 7.25 7.8906 19.562 7.8906 11.031 0 17.453-7.1094 6.4219-7.0938 6.4219-19.297zm-8.9844 2.6406q-0.09375 7.3594-4.125 11.75-4.0312 4.4062-10.672 4.4062-7.5156 0-12.031-4.25t-5.2031-11.969z"/>
</defs>
<use xlink:href="#z"/>
<use x="75.439453" xlink:href="#ap"/>
<use x="140.820312" xlink:href="#ab"/>
</g>
</g>
<g clip-path="url(#a)">
<g transform="translate(425.71 537.3) scale(.1 -.1)">
<defs>
<path id="am" d="m41.016 0v23h-16.75q-7.4688 0-12.453 4.6406-4.4844 4.2031-4.4844 13.188v13.859h8.9844v-13.031q0-5.7188 2.5312-8.5938 2.5938-2.8906 7.6719-2.8906h14.5v24.516h8.9844v-54.688z"/>
<path id="as" d="m34.281 27.484q-10.891 0-15.094-2.4844t-4.2031-8.5q0-4.7812 3.1562-7.5938 3.1562-2.7969 8.5625-2.7969 7.4844 0 12 5.2969t4.5156 14.078v2zm17.922 3.7188v-31.203h-8.9844v8.2969q-3.0781-4.9688-7.6719-7.3438t-11.234-2.375q-8.3906 0-13.359 4.7188-4.9531 4.7188-4.9531 12.625 0 9.2188 6.1719 13.906 6.1875 4.6875 18.438 4.6875h12.609v0.89062q0 6.2031-4.0781 9.5938t-11.453 3.3906q-4.6875 0-9.1406-1.125-4.4375-1.125-8.5312-3.375v8.3125q4.9219 1.9062 9.5625 2.8438 4.6406 0.95312 9.0312 0.95312 11.875 0 17.734-6.1562 5.8594-6.1406 5.8594-18.641z"/>
</defs>
<use xlink:href="#x"/>
<use x="54.980469" xlink:href="#ab"/>
<use x="116.503906" xlink:href="#ag"/>
<use x="181.494141" xlink:href="#am"/>
<use x="240.576172" xlink:href="#as"/>
<use x="301.855469" xlink:href="#x"/>
</g>
</g>
<g clip-path="url(#a)">
<g transform="translate(493.66 537.3) scale(.1 -.1)">
<use xlink:href="#ap"/>
<use x="65.380859" xlink:href="#ab"/>
</g>
</g>
<g clip-path="url(#a)">
<g transform="translate(553.71 537.3) scale(.1 -.1)">
<use xlink:href="#ar"/>
<use x="69.140625" xlink:href="#y"/>
</g>
</g>
<g clip-path="url(#a)">
<g transform="translate(611.39 537.3) scale(.1 -.1)">
<use xlink:href="#at"/>
<use x="75.195312" xlink:href="#aa"/>
<use x="140.185547" xlink:href="#x"/>
<use x="195.166016" xlink:href="#as"/>
</g>
</g>
<g clip-path="url(#a)">
<g transform="translate(697.48 537.3) scale(.1 -.1)">
<defs>
<path id="bb" d="m15.094 12.406h9.9062v-12.406h-9.9062zm0 60.5h9.9062v-31.984l-0.96875-17.438h-7.9219l-1.0156 17.438z"/>
</defs>
<use xlink:href="#bb"/>
</g>
</g>
<g clip-path="url(#a)">
<g transform="translate(769.19 537.3) scale(.1 -.1)">
<use xlink:href="#af"/>
</g>
</g>
<g clip-path="url(#a)">
<g transform="translate(826.69 537.3) scale(.1 -.1)">
<defs>
<path id="bg" d="m65.375 72.906v-72.906h-9.8594v64.594h-35.844v-64.594h-9.8594v72.906z"/>
</defs>
<use xlink:href="#bg"/>
<use x="75.195312" xlink:href="#y"/>
<use x="136.376953" xlink:href="#am"/>
<use x="195.458984" xlink:href="#ab"/>
<use x="256.982422" xlink:href="#z"/>
<use x="332.421875" xlink:href="#an"/>
</g>
</g>
<g clip-path="url(#a)">
<g transform="translate(922.65 537.3) scale(.1 -.1)">
<defs>
<path id="ax" d="m19.094 12.406h9.9062v-12.406h-9.9062zm9.625 7.1719h-9.3281v7.5156q0 4.9375 1.3594 8.1094 1.375 3.1719 5.7656 7.375l4.3906 4.3438q2.7812 2.5938 4.0312 4.8906t1.25 4.6875q0 4.3438-3.2031 7.0312t-8.4688 2.6875q-3.8594 0-8.2344-1.7188-4.3594-1.7031-9.1094-4.9844v9.1875q4.5938 2.7812 9.2969 4.1406 4.7188 1.375 9.75 1.375 8.9844 0 14.422-4.7344 5.4531-4.7344 5.4531-12.5 0-3.7188-1.7656-7.0625-1.75-3.3438-6.1406-7.5312l-4.2969-4.2031q-2.2969-2.2969-3.25-3.5938t-1.3438-2.5156q-0.29688-1.0156-0.4375-2.4844t-0.14062-4z"/>
</defs>
<use xlink:href="#ax"/>
</g>
</g>
<g clip-path="url(#a)">
<g transform="translate(1006.3 537.3) scale(.1 -.1)">
<use xlink:href="#af"/>
</g>
</g>
<g clip-path="url(#a)">
<g transform="translate(994.55 320.96) scale(.1 -.1)">
<defs>
<path id="g" d="m9.8125 72.906h9.8594v-72.906h-9.8594z"/>
<path id="u" d="m9.8125 72.906h14.703l18.594-49.609 18.703 49.609h14.703v-72.906h-9.625v64.016l-18.797-50h-9.9062l-18.797 50v-64.016h-9.5781z"/>
<path id="v" d="m9.8125 72.906h9.8594v-64.609h35.5v-8.2969h-45.359z"/>
</defs>
<use xlink:href="#g"/>
<use x="29.492188" xlink:href="#u"/>
<use x="115.771484" xlink:href="#p"/>
<use x="176.074219" xlink:href="#v"/>
<use x="231.787109" xlink:href="#g"/>
<use x="261.279297" xlink:href="#t"/>
<use x="331.103516" xlink:href="#g"/>
<use x="360.595703" xlink:href="#e"/>
</g>
</g>
<g clip-path="url(#a)">
<g transform="translate(994.55 320.96) scale(.1 -.1)">
<use xlink:href="#g"/>
<use x="29.492188" xlink:href="#u"/>
<use x="115.771484" xlink:href="#p"/>
<use x="176.074219" xlink:href="#v"/>
<use x="231.787109" xlink:href="#g"/>
<use x="261.279297" xlink:href="#t"/>
<use x="331.103516" xlink:href="#g"/>
<use x="360.595703" xlink:href="#e"/>
</g>
</g>
<g clip-path="url(#a)">
<g transform="translate(610.65 393.66) scale(.1 -.1)">
<use xlink:href="#g"/>
<use x="29.492188" xlink:href="#u"/>
<use x="115.771484" xlink:href="#p"/>
<use x="176.074219" xlink:href="#v"/>
<use x="231.787109" xlink:href="#g"/>
<use x="261.279297" xlink:href="#t"/>
<use x="331.103516" xlink:href="#g"/>
<use x="360.595703" xlink:href="#e"/>
</g>
</g>
<g clip-path="url(#a)">
<g transform="translate(610.65 393.66) scale(.1 -.1)">
<use xlink:href="#g"/>
<use x="29.492188" xlink:href="#u"/>
<use x="115.771484" xlink:href="#p"/>
<use x="176.074219" xlink:href="#v"/>
<use x="231.787109" xlink:href="#g"/>
<use x="261.279297" xlink:href="#t"/>
<use x="331.103516" xlink:href="#g"/>
<use x="360.595703" xlink:href="#e"/>
</g>
</g>
<g clip-path="url(#a)">
<g transform="translate(132.66 174.89) scale(.1 -.1)">
<use xlink:href="#g"/>
<use x="29.492188" xlink:href="#u"/>
<use x="115.771484" xlink:href="#p"/>
<use x="176.074219" xlink:href="#v"/>
<use x="231.787109" xlink:href="#g"/>
<use x="261.279297" xlink:href="#t"/>
<use x="331.103516" xlink:href="#g"/>
<use x="360.595703" xlink:href="#e"/>
</g>
</g>
<g clip-path="url(#a)">
<g transform="translate(132.66 174.89) scale(.1 -.1)">
<use xlink:href="#g"/>
<use x="29.492188" xlink:href="#u"/>
<use x="115.771484" xlink:href="#p"/>
<use x="176.074219" xlink:href="#v"/>
<use x="231.787109" xlink:href="#g"/>
<use x="261.279297" xlink:href="#t"/>
<use x="331.103516" xlink:href="#g"/>
<use x="360.595703" xlink:href="#e"/>
</g>
</g>
<g clip-path="url(#a)">
<g transform="translate(132.66 320.96) scale(.1 -.1)">
<use xlink:href="#g"/>
<use x="29.492188" xlink:href="#u"/>
<use x="115.771484" xlink:href="#p"/>
<use x="176.074219" xlink:href="#v"/>
<use x="231.787109" xlink:href="#g"/>
<use x="261.279297" xlink:href="#t"/>
<use x="331.103516" xlink:href="#g"/>
<use x="360.595703" xlink:href="#e"/>
</g>
</g>
<g clip-path="url(#a)">
<g transform="translate(319.93 28.214) scale(.1 -.1)">
<defs>
<path id="c" d="m12.406 8.2969h16.109v55.625l-17.531-3.5156v8.9844l17.438 3.5156h9.8594v-64.609h16.109v-8.2969h-41.984z"/>
</defs>
<use xlink:href="#c"/>
<use x="63.623047" xlink:href="#d"/>
<use x="95.410156" xlink:href="#c"/>
</g>
</g>
<g clip-path="url(#a)">
<g transform="translate(63.622 101.61) scale(.1 -.1)">
<defs>
<path id="o" d="m19.188 8.2969h34.422v-8.2969h-46.281v8.2969q5.6094 5.8125 15.297 15.594 9.7031 9.7969 12.188 12.641 4.7344 5.3125 6.6094 9 1.8906 3.6875 1.8906 7.25 0 5.8125-4.0781 9.4688-4.0781 3.6719-10.625 3.6719-4.6406 0-9.7969-1.6094-5.1406-1.6094-11-4.8906v9.9688q5.9531 2.3906 11.125 3.6094 5.1875 1.2188 9.4844 1.2188 11.328 0 18.062-5.6719 6.7344-5.6562 6.7344-15.125 0-4.5-1.6875-8.5312-1.6719-4.0156-6.125-9.4844-1.2188-1.4219-7.7656-8.1875-6.5312-6.7656-18.453-18.922z"/>
</defs>
<use xlink:href="#c"/>
<use x="63.623047" xlink:href="#d"/>
<use x="95.410156" xlink:href="#o"/>
</g>
</g>
<g clip-path="url(#a)">
<g transform="translate(365.97 320.96) scale(.1 -.1)">
<defs>
<path id="n" d="m40.578 39.312q7.0781-1.5156 11.047-6.3125 3.9844-4.7812 3.9844-11.812 0-10.781-7.4219-16.703-7.4219-5.9062-21.094-5.9062-4.5781 0-9.4375 0.90625t-10.031 2.7188v9.5156q4.0938-2.3906 8.9688-3.6094 4.8906-1.2188 10.219-1.2188 9.2656 0 14.125 3.6562t4.8594 10.641q0 6.4531-4.5156 10.078-4.5156 3.6406-12.562 3.6406h-8.5v8.1094h8.8906q7.2656 0 11.125 2.9062t3.8594 8.375q0 5.6094-3.9844 8.6094-3.9688 3.0156-11.391 3.0156-4.0625 0-8.7031-0.89062-4.6406-0.875-10.203-2.7188v8.7812q5.625 1.5625 10.531 2.3438t9.25 0.78125q11.234 0 17.766-5.1094 6.5469-5.0938 6.5469-13.781 0-6.0625-3.4688-10.234t-9.8594-5.7812z"/>
</defs>
<use xlink:href="#c"/>
<use x="63.623047" xlink:href="#d"/>
<use x="95.410156" xlink:href="#n"/>
</g>
</g>
<g clip-path="url(#a)">
<g transform="translate(784.37 248.02) scale(.1 -.1)">
<defs>
<path id="r" d="m37.797 64.312-24.906-38.922h24.906zm-2.5938 8.5938h12.406v-47.516h10.406v-8.2031h-10.406v-17.188h-9.8125v17.188h-32.906v9.5156z"/>
</defs>
<use xlink:href="#c"/>
<use x="63.623047" xlink:href="#d"/>
<use x="95.410156" xlink:href="#r"/>
</g>
</g>
<g clip-path="url(#a)">
<g transform="translate(781.19 320.96) scale(.1 -.1)">
<use xlink:href="#c"/>
<use x="63.623047" xlink:href="#d"/>
<use x="95.410156" xlink:href="#c"/>
<use x="159.033203" xlink:href="#c"/>
</g>
</g>
<g clip-path="url(#a)">
<g transform="translate(835.14 465.98) scale(.1 -.1)">
<use xlink:href="#c"/>
<use x="63.623047" xlink:href="#d"/>
<use x="95.410156" xlink:href="#c"/>
<use x="159.033203" xlink:href="#o"/>
</g>
</g>
<g clip-path="url(#a)">
<g transform="translate(264.94 465.98) scale(.1 -.1)">
<defs>
<path id="ad" d="m8.2031 72.906h46.875v-4.2031l-26.469-68.703h-10.297l24.906 64.594h-35.016z"/>
</defs>
<use xlink:href="#c"/>
<use x="63.623047" xlink:href="#d"/>
<use x="95.410156" xlink:href="#c"/>
<use x="159.033203" xlink:href="#ad"/>
</g>
</g>
<g clip-path="url(#a)">
<g transform="translate(492.64 393.66) scale(.1 -.1)">
<defs>
<path id="ac" d="m31.781 34.625q-7.0312 0-11.062-3.7656-4.0156-3.7656-4.0156-10.344 0-6.5938 4.0156-10.359 4.0312-3.7656 11.062-3.7656t11.078 3.7812q4.0625 3.7969 4.0625 10.344 0 6.5781-4.0312 10.344-4.0156 3.7656-11.109 3.7656zm-9.8594 4.1875q-6.3438 1.5625-9.8906 5.9062-3.5312 4.3594-3.5312 10.609 0 8.7344 6.2188 13.812 6.2344 5.0781 17.062 5.0781 10.891 0 17.094-5.0781t6.2031-13.812q0-6.25-3.5469-10.609-3.5312-4.3438-9.8281-5.9062 7.125-1.6562 11.094-6.5 3.9844-4.8281 3.9844-11.797 0-10.609-6.4688-16.281-6.4688-5.6562-18.531-5.6562-12.047 0-18.531 5.6562-6.4688 5.6719-6.4688 16.281 0 6.9688 4 11.797 4.0156 4.8438 11.141 6.5zm-3.6094 15.578q0-5.6562 3.5312-8.8281 3.5469-3.1719 9.9375-3.1719 6.3594 0 9.9375 3.1719 3.5938 3.1719 3.5938 8.8281 0 5.6719-3.5938 8.8438-3.5781 3.1719-9.9375 3.1719-6.3906 0-9.9375-3.1719-3.5312-3.1719-3.5312-8.8438z"/>
</defs>
<use xlink:href="#c"/>
<use x="63.623047" xlink:href="#d"/>
<use x="95.410156" xlink:href="#c"/>
<use x="159.033203" xlink:href="#ac"/>
</g>
</g>
<g clip-path="url(#a)">
<g transform="translate(379.73 465.98) scale(.1 -.1)">
<defs>
<path id="ae" d="m31.781 66.406q-7.6094 0-11.453-7.5-3.8281-7.4844-3.8281-22.531 0-14.984 3.8281-22.484 3.8438-7.5 11.453-7.5 7.6719 0 11.5 7.5 3.8438 7.5 3.8438 22.484 0 15.047-3.8438 22.531-3.8281 7.5-11.5 7.5zm0 7.8125q12.266 0 18.734-9.7031 6.4688-9.6875 6.4688-28.141 0-18.406-6.4688-28.109-6.4688-9.6875-18.734-9.6875-12.25 0-18.719 9.6875-6.4688 9.7031-6.4688 28.109 0 18.453 6.4688 28.141 6.4688 9.7031 18.719 9.7031z"/>
</defs>
<use xlink:href="#c"/>
<use x="63.623047" xlink:href="#d"/>
<use x="95.410156" xlink:href="#o"/>
<use x="159.033203" xlink:href="#ae"/>
</g>
</g>
<g clip-path="url(#a)">
<g transform="translate(432.42 465.98) scale(.1 -.1)">
<use xlink:href="#c"/>
<use x="63.623047" xlink:href="#d"/>
<use x="95.410156" xlink:href="#o"/>
<use x="159.033203" xlink:href="#c"/>
</g>
</g>
<g clip-path="url(#a)">
<g transform="translate(488.88 465.98) scale(.1 -.1)">
<use xlink:href="#c"/>
<use x="63.623047" xlink:href="#d"/>
<use x="95.410156" xlink:href="#o"/>
<use x="159.033203" xlink:href="#o"/>
</g>
</g>
<g clip-path="url(#a)">
<g transform="translate(549.09 465.98) scale(.1 -.1)">
<use xlink:href="#c"/>
<use x="63.623047" xlink:href="#d"/>
<use x="95.410156" xlink:href="#o"/>
<use x="159.033203" xlink:href="#n"/>
</g>
</g>
<g clip-path="url(#a)">
<g transform="translate(613.08 465.98) scale(.1 -.1)">
<use xlink:href="#c"/>
<use x="63.623047" xlink:href="#d"/>
<use x="95.410156" xlink:href="#o"/>
<use x="159.033203" xlink:href="#r"/>
</g>
</g>
<g clip-path="url(#a)">
<g transform="translate(60.44 174.89) scale(.1 -.1)">
<use xlink:href="#c"/>
<use x="63.623047" xlink:href="#d"/>
<use x="95.410156" xlink:href="#o"/>
<use x="159.033203" xlink:href="#ad"/>
</g>
</g>
<g clip-path="url(#a)">
<g transform="translate(60.44 248.02) scale(.1 -.1)">
<use xlink:href="#c"/>
<use x="63.623047" xlink:href="#d"/>
<use x="95.410156" xlink:href="#o"/>
<use x="159.033203" xlink:href="#ac"/>
</g>
</g>
<g clip-path="url(#a)">
<g transform="translate(60.44 320.96) scale(.1 -.1)">
<use xlink:href="#c"/>
<use x="63.623047" xlink:href="#d"/>
<use x="95.410156" xlink:href="#n"/>
<use x="159.033203" xlink:href="#ae"/>
</g>
</g>
<g clip-path="url(#a)">
<g transform="translate(37.231 465.98) scale(.1 -.1)">
<use xlink:href="#c"/>
<use x="63.623047" xlink:href="#d"/>
<use x="95.410156" xlink:href="#n"/>
<use x="159.033203" xlink:href="#c"/>
</g>
</g>
<g clip-path="url(#a)">
<g transform="translate(95.568 393.66) scale(.1 -.1)">
<use xlink:href="#c"/>
<use x="63.623047" xlink:href="#d"/>
<use x="95.410156" xlink:href="#n"/>
<use x="159.033203" xlink:href="#o"/>
</g>
</g>
<g clip-path="url(#a)">
<g transform="translate(48.522 465.98) scale(.1 -.1)">
<use xlink:href="#c"/>
<use x="63.623047" xlink:href="#d"/>
<use x="95.410156" xlink:href="#n"/>
<use x="159.033203" xlink:href="#n"/>
</g>
</g>
<g clip-path="url(#a)">
<g transform="translate(63.577 465.98) scale(.1 -.1)">
<use xlink:href="#c"/>
<use x="63.623047" xlink:href="#d"/>
<use x="95.410156" xlink:href="#n"/>
<use x="159.033203" xlink:href="#r"/>
</g>
</g>
<g clip-path="url(#a)">
<g transform="translate(82.395 465.98) scale(.1 -.1)">
<defs>
<path id="ba" d="m10.797 72.906h38.719v-8.3125h-29.688v-17.859q2.1406 0.73438 4.2812 1.0938 2.1562 0.35938 4.3125 0.35938 12.203 0 19.328-6.6875 7.1406-6.6875 7.1406-18.109 0-11.766-7.3281-18.297-7.3281-6.5156-20.656-6.5156-4.5938 0-9.3594 0.78125-4.75 0.78125-9.8281 2.3438v9.9219q4.3906-2.3906 9.0781-3.5625t9.9062-1.1719q8.4531 0 13.375 4.4375 4.9375 4.4375 4.9375 12.062 0 7.6094-4.9375 12.047-4.9219 4.4531-13.375 4.4531-3.9531 0-7.8906-0.875-3.9219-0.875-8.0156-2.7344z"/>
</defs>
<use xlink:href="#c"/>
<use x="63.623047" xlink:href="#d"/>
<use x="95.410156" xlink:href="#n"/>
<use x="159.033203" xlink:href="#ba"/>
</g>
</g>
<g clip-path="url(#a)">
<g transform="translate(104.98 465.98) scale(.1 -.1)">
<defs>
<path id="az" d="m33.016 40.375q-6.6406 0-10.531-4.5469-3.875-4.5312-3.875-12.438 0-7.8594 3.875-12.438 3.8906-4.5625 10.531-4.5625t10.516 4.5625q3.875 4.5781 3.875 12.438 0 7.9062-3.875 12.438-3.875 4.5469-10.516 4.5469zm19.578 30.922v-8.9844q-3.7188 1.75-7.5 2.6719-3.7812 0.9375-7.5 0.9375-9.7656 0-14.922-6.5938-5.1406-6.5938-5.875-19.922 2.875 4.25 7.2188 6.5156 4.3594 2.2656 9.5781 2.2656 10.984 0 17.359-6.6719 6.375-6.6562 6.375-18.125 0-11.234-6.6406-18.031-6.6406-6.7812-17.672-6.7812-12.656 0-19.344 9.6875-6.6875 9.7031-6.6875 28.109 0 17.281 8.2031 27.562t22.016 10.281q3.7188 0 7.5-0.73438t7.8906-2.1875z"/>
</defs>
<use xlink:href="#c"/>
<use x="63.623047" xlink:href="#d"/>
<use x="95.410156" xlink:href="#n"/>
<use x="159.033203" xlink:href="#az"/>
</g>
</g>
<g clip-path="url(#a)">
<g transform="translate(131.32 465.98) scale(.1 -.1)">
<use xlink:href="#c"/>
<use x="63.623047" xlink:href="#d"/>
<use x="95.410156" xlink:href="#n"/>
<use x="159.033203" xlink:href="#ad"/>
</g>
</g>
<g clip-path="url(#a)">
<g transform="translate(172.72 465.98) scale(.1 -.1)">
<use xlink:href="#c"/>
<use x="63.623047" xlink:href="#d"/>
<use x="95.410156" xlink:href="#n"/>
<use x="159.033203" xlink:href="#ac"/>
</g>
</g>
<g clip-path="url(#a)">
<g transform="translate(206.6 465.98) scale(.1 -.1)">
<defs>
<path id="ay" d="m10.984 1.5156v8.9844q3.7188-1.7656 7.5156-2.6875 3.8125-0.92188 7.4844-0.92188 9.7656 0 14.906 6.5625 5.1562 6.5625 5.8906 19.953-2.8281-4.2031-7.1875-6.4531-4.3438-2.25-9.6094-2.25-10.938 0-17.312 6.6094-6.375 6.625-6.375 18.109 0 11.219 6.6406 18 6.6406 6.7969 17.672 6.7969 12.656 0 19.312-9.7031 6.6719-9.6875 6.6719-28.141 0-17.234-8.1875-27.516-8.1719-10.281-21.984-10.281-3.7188 0-7.5312 0.73438-3.7969 0.73438-7.9062 2.2031zm19.625 30.906q6.6406 0 10.516 4.5312 3.8906 4.5469 3.8906 12.469 0 7.8594-3.8906 12.422-3.875 4.5625-10.516 4.5625t-10.516-4.5625-3.875-12.422q0-7.9219 3.875-12.469 3.875-4.5312 10.516-4.5312z"/>
</defs>
<use xlink:href="#c"/>
<use x="63.623047" xlink:href="#d"/>
<use x="95.410156" xlink:href="#n"/>
<use x="159.033203" xlink:href="#ay"/>
</g>
</g>
<g clip-path="url(#a)">
<g transform="translate(330.8 465.98) scale(.1 -.1)">
<use xlink:href="#c"/>
<use x="63.623047" xlink:href="#d"/>
<use x="95.410156" xlink:href="#r"/>
<use x="159.033203" xlink:href="#ae"/>
</g>
</g>
<g clip-path="url(#a)">
<g transform="translate(688.35 465.98) scale(.1 -.1)">
<use xlink:href="#c"/>
<use x="63.623047" xlink:href="#d"/>
<use x="95.410156" xlink:href="#r"/>
<use x="159.033203" xlink:href="#c"/>
</g>
</g>
<g clip-path="url(#a)">
<g transform="translate(759.86 465.98) scale(.1 -.1)">
<use xlink:href="#c"/>
<use x="63.623047" xlink:href="#d"/>
<use x="95.410156" xlink:href="#r"/>
<use x="159.033203" xlink:href="#o"/>
</g>
</g>
<g clip-path="url(#a)">
<g transform="translate(914.17 465.98) scale(.1 -.1)">
<use xlink:href="#c"/>
<use x="63.623047" xlink:href="#d"/>
<use x="95.410156" xlink:href="#r"/>
<use x="159.033203" xlink:href="#n"/>
</g>
</g>
<g clip-path="url(#a)">
<g transform="translate(996.98 465.98) scale(.1 -.1)">
<use xlink:href="#c"/>
<use x="63.623047" xlink:href="#d"/>
<use x="95.410156" xlink:href="#r"/>
<use x="159.033203" xlink:href="#r"/>
</g>
</g>
<defs>
<clipPath id="a">
<rect width="1064" height="560"/>
</clipPath>
</defs>
</svg>
