<?xml version="1.0" encoding="UTF-8"?>
<!DOCTYPE svg  PUBLIC '-//W3C//DTD SVG 1.1//EN'  'http://www.w3.org/Graphics/SVG/1.1/DTD/svg11.dtd'>
<svg width="1672pt" height="880pt" version="1.1" viewBox="0 0 1672 880" xmlns="http://www.w3.org/2000/svg" xmlns:xlink="http://www.w3.org/1999/xlink">
<metadata>
<rdf:RDF xmlns:cc="http://creativecommons.org/ns#" xmlns:dc="http://purl.org/dc/elements/1.1/" xmlns:rdf="http://www.w3.org/1999/02/22-rdf-syntax-ns#">
<cc:Work>
<dc:type rdf:resource="http://purl.org/dc/dcmitype/StillImage"/>
<dc:date>2021-02-23T11:04:10.574700</dc:date>
<dc:format>image/svg+xml</dc:format>
<dc:creator>
<cc:Agent>
<dc:title>Matplotlib v3.3.3, https://matplotlib.org/</dc:title>
</cc:Agent>
</dc:creator>
</cc:Work>
</rdf:RDF>
</metadata>
<defs>
<style type="text/css">*{stroke-linecap:butt;stroke-linejoin:round;}</style>
</defs>
<path d="m0 880h1672v-880h-1672z" fill="#fff"/>
<g fill="none" stroke="#000">
<path d="m561.86 40-485.86 669.03" clip-path="url(#a)"/>
<path d="m561.86 40-452.23 134.55" clip-path="url(#a)"/>
<path d="m561.86 40-401.56 669.03" clip-path="url(#a)"/>
<path d="m561.86 40-334.47 134.55" clip-path="url(#a)"/>
<path d="m561.86 40 188.56 536.25" clip-path="url(#a)"/>
<path d="m561.86 40 408.25 669.03" clip-path="url(#a)"/>
<path d="m561.86 40 687.43 268.82" clip-path="url(#a)"/>
<path d="m561.86 40 48.053 669.03" clip-path="url(#a)"/>
<path d="m561.86 40 341.83 669.03" clip-path="url(#a)"/>
<path d="m76 709.03v130.97" clip-path="url(#a)"/>
<path d="m109.64 174.55-18.308 134.28" clip-path="url(#a)"/>
<path d="m109.64 174.55-2.9804 534.49" clip-path="url(#a)"/>
<path d="m109.64 174.55 21.289 401.7" clip-path="url(#a)"/>
<path d="m160.3 709.03v130.97" clip-path="url(#a)"/>
<path d="m227.39 174.55-44.096 534.49" clip-path="url(#a)"/>
<path d="m227.39 174.55 186.6 134.28" clip-path="url(#a)"/>
<path d="m227.39 174.55-133.51 401.7" clip-path="url(#a)" stroke-dasharray="3.7,1.6"/>
<path d="m227.39 174.55-18.549 534.49" clip-path="url(#a)"/>
<path d="m227.39 174.55 9.5514 534.49" clip-path="url(#a)"/>
<path d="m750.42 576.25-86.857 132.79" clip-path="url(#a)"/>
<path d="m750.42 576.25-30.655 132.79" clip-path="url(#a)"/>
<path d="m750.42 576.25 28.101 132.79" clip-path="url(#a)"/>
<path d="m750.42 576.25 89.412 132.79" clip-path="url(#a)"/>
<path d="m970.12 709.03v130.97" clip-path="url(#a)"/>
<path d="m1249.3 308.82 346.71 133.94" clip-path="url(#a)"/>
<path d="m1249.3 308.82-174.43 267.42" clip-path="url(#a)"/>
<path d="m1249.3 308.82-64.584 400.21" clip-path="url(#a)"/>
<path d="m1249.3 308.82 12.055 400.21" clip-path="url(#a)"/>
<path d="m1249.3 308.82 226.96 133.94" clip-path="url(#a)"/>
<path d="m1074.9 576.25-35.765 132.79" clip-path="url(#a)"/>
<path d="m1074.9 576.25 35.765 132.79" clip-path="url(#a)"/>
<path d="m1184.7 709.03v130.97" clip-path="url(#a)"/>
<path d="m1261.3 709.03v130.97" clip-path="url(#a)"/>
<path d="m1476.3 442.76-135.71 266.27" clip-path="url(#a)"/>
<path d="m1476.3 442.76-11.815 133.48" clip-path="url(#a)"/>
<path d="m1476.3 442.76 30.336 266.27" clip-path="url(#a)"/>
<path d="m1476.3 442.76 117.19 266.27" clip-path="url(#a)"/>
<path d="m1340.5 709.03v130.97" clip-path="url(#a)"/>
<path d="m1464.4 576.25 42.151 132.79" clip-path="url(#a)" stroke-dasharray="3.7,1.6"/>
<path d="m1464.4 576.25-42.151 132.79" clip-path="url(#a)"/>
<path d="m1506.6 709.03v130.97" clip-path="url(#a)"/>
<path d="m1422.3 709.03v130.97" clip-path="url(#a)"/>
<path d="m1039.1 709.03v130.97" clip-path="url(#a)"/>
<path d="m1110.6 709.03v130.97" clip-path="url(#a)"/>
<path d="m663.56 709.03v130.97" clip-path="url(#a)"/>
<path d="m719.76 709.03v130.97" clip-path="url(#a)"/>
<path d="m778.52 709.03v130.97" clip-path="url(#a)"/>
<path d="m839.83 709.03v130.97" clip-path="url(#a)"/>
<path d="m183.29 709.03v130.97" clip-path="url(#a)"/>
<path d="m413.99 308.82-82.103 133.94" clip-path="url(#a)"/>
<path d="m413.99 308.82 80.329 133.94" clip-path="url(#a)"/>
<path d="m413.99 308.82 1.774 400.21" clip-path="url(#a)"/>
<path d="m331.89 442.76-47.686 133.48" clip-path="url(#a)"/>
<path d="m331.89 442.76 4.6835 266.27" clip-path="url(#a)"/>
<path d="m331.89 442.76 43.003 266.27" clip-path="url(#a)"/>
<path d="m494.32 442.76 64.504 133.48" clip-path="url(#a)"/>
<path d="m494.32 442.76-35.126 266.27" clip-path="url(#a)"/>
<path d="m494.32 442.76 35.126 133.48" clip-path="url(#a)"/>
<path d="m459.19 709.03v130.97" clip-path="url(#a)"/>
<path d="m529.45 576.25 29.378 132.79" clip-path="url(#a)"/>
<path d="m529.45 576.25-24.269 132.79" clip-path="url(#a)"/>
<path d="m529.45 576.25 24.269 132.79" clip-path="url(#a)"/>
<path d="m505.18 709.03v130.97" clip-path="url(#a)"/>
<path d="m553.71 709.03v130.97" clip-path="url(#a)"/>
<path d="m284.2 576.25-16.605 132.79" clip-path="url(#a)"/>
<path d="m284.2 576.25 16.605 132.79" clip-path="url(#a)"/>
<path d="m336.57 709.03v130.97" clip-path="url(#a)"/>
<path d="m374.89 709.03v130.97" clip-path="url(#a)"/>
<path d="m267.6 709.03v130.97" clip-path="url(#a)"/>
<path d="m300.81 709.03v130.97" clip-path="url(#a)"/>
<path d="m91.328 308.82-2.5546 133.94" clip-path="url(#a)"/>
<path d="m91.328 308.82 2.5546 267.42" clip-path="url(#a)"/>
<path d="m106.66 709.03v130.97" clip-path="url(#a)"/>
<path d="m130.92 576.25-8.9412 132.79" clip-path="url(#a)"/>
<path d="m130.92 576.25 8.9412 132.79" clip-path="url(#a)"/>
<path d="m121.98 709.03v130.97" clip-path="url(#a)"/>
<path d="m139.87 709.03v130.97" clip-path="url(#a)"/>
<path d="m88.773 442.76 5.1092 133.48" clip-path="url(#a)" stroke-dasharray="3.7,1.6"/>
<path d="m88.773 442.76-5.1092 266.27" clip-path="url(#a)"/>
<path d="m93.882 576.25v132.79" clip-path="url(#a)"/>
<path d="m93.882 709.03v130.97" clip-path="url(#a)"/>
<path d="m83.664 709.03v130.97" clip-path="url(#a)"/>
<path d="m208.84 709.03v130.97" clip-path="url(#a)"/>
<path d="m236.94 709.03v130.97" clip-path="url(#a)"/>
<path d="m415.76 709.03v130.97" clip-path="url(#a)"/>
<path d="m609.92 709.03v130.97" clip-path="url(#a)"/>
<path d="m903.7 709.03v130.97" clip-path="url(#a)"/>
<path d="m1593.4 709.03v130.97" clip-path="url(#a)"/>
</g>
<path d="m322.7 380.01 2.6193-3.6068q1.4103-1.9419-0.53167-3.3522l-6.2648-4.5496q-1.9419-1.4103-3.3522 0.53167l-2.6193 3.6068q-1.4103 1.9419 0.53167 3.3522l6.2648 4.5496q1.9419 1.4103 3.3522-0.53167z" clip-path="url(#a)" fill="#fff" stroke="#fff"/>
<g clip-path="url(#a)">
<g transform="translate(319.41 377.62) rotate(-54.012) scale(.08 -.08)">
<defs>
<path id="ad" d="m9.8125 72.906h9.8594v-64.609h35.5v-8.2969h-45.359z"/>
</defs>
<use xlink:href="#ad"/>
</g>
</g>
<path d="m334.65 114.14 5.7664-1.7156q2.3003-0.6844 1.6159-2.9848l-2.2079-7.421q-0.6844-2.3003-2.9848-1.6159l-5.7664 1.7156q-2.3003 0.6844-1.6159 2.9848l2.2079 7.421q0.6844 2.3003 2.9848 1.6159z" clip-path="url(#a)" fill="#fff" stroke="#fff"/>
<g clip-path="url(#a)">
<g transform="translate(333.5 110.25) rotate(-16.569) scale(.08 -.08)">
<defs>
<path id="ae" d="m9.8125 72.906h9.8594v-29.891h35.844v29.891h9.8594v-72.906h-9.8594v34.719h-35.844v-34.719h-9.8594z"/>
</defs>
<use xlink:href="#ae"/>
</g>
</g>
<path d="m365.31 379.66 2.294-3.8219q1.2351-2.0578-0.82269-3.2929l-6.6385-3.9845q-2.0578-1.2351-3.2929 0.82269l-2.294 3.8219q-1.2351 2.0578 0.82269 3.2929l6.6385 3.9845q2.0578 1.2351 3.2929-0.82269z" clip-path="url(#a)" fill="#fff" stroke="#fff"/>
<g clip-path="url(#a)">
<g transform="translate(361.83 377.56) rotate(-59.027) scale(.08 -.08)">
<use xlink:href="#ad"/>
</g>
</g>
<path d="m394.18 114.21 5.5816-2.2453q2.2266-0.89569 1.3309-3.1223l-2.8895-7.1831q-0.89569-2.2266-3.1223-1.3309l-5.5816 2.2453q-2.2266 0.89569-1.3309 3.1223l2.8895 7.1831q0.89569 2.2266 3.1223 1.3309z" clip-path="url(#a)" fill="#fff" stroke="#fff"/>
<g clip-path="url(#a)">
<g transform="translate(392.66 110.44) rotate(-21.913) scale(.08 -.08)">
<use xlink:href="#ae"/>
</g>
</g>
<path d="m649.23 307.37 1.9957 5.6756q0.79611 2.2641 3.0602 1.468l7.3041-2.5683q2.2641-0.79611 1.468-3.0602l-1.9957-5.6756q-0.79612-2.2641-3.0602-1.468l-7.3041 2.5683q-2.2641 0.79611-1.468 3.0602z" clip-path="url(#a)" fill="#fff" stroke="#fff"/>
<g clip-path="url(#a)">
<g transform="translate(653.06 306.02) rotate(70.627) scale(.08 -.08)">
<use xlink:href="#ae"/>
</g>
</g>
<path d="m759.48 375.88 2.3219 3.805q1.2501 2.0487 3.2988 0.79855l6.6092-4.033q2.0487-1.2501 0.79855-3.2988l-2.3219-3.805q-1.2501-2.0487-3.2988-0.79855l-6.6092 4.033q-2.0487 1.2501-0.79855 3.2988z" clip-path="url(#a)" fill="#fff" stroke="#fff"/>
<g clip-path="url(#a)">
<g transform="translate(762.95 373.76) rotate(58.608) scale(.08 -.08)">
<use xlink:href="#ad"/>
</g>
</g>
<path d="m900.49 179.16 5.6031 2.1911q2.2352 0.87408 3.1093-1.3611l2.8198-7.2107q0.87408-2.2352-1.3611-3.1093l-5.6031-2.1911q-2.2352-0.87408-3.1093 1.3611l-2.8198 7.2107q-0.87408 2.2352 1.3611 3.1093z" clip-path="url(#a)" fill="#fff" stroke="#fff"/>
<g clip-path="url(#a)">
<g transform="translate(901.97 175.37) rotate(21.358) scale(.08 -.08)">
<use xlink:href="#ae"/>
</g>
</g>
<path d="m579.42 372.05 0.41945 5.84q0.17193 2.3938 2.5658 2.2219l7.7226-0.55467q2.3938-0.17193 2.2219-2.5658l-0.41945-5.84q-0.17194-2.3938-2.5658-2.2219l-7.7226 0.55467q-2.3938 0.17193-2.2219 2.5658z" clip-path="url(#a)" fill="#fff" stroke="#fff"/>
<g clip-path="url(#a)">
<g transform="translate(583.48 371.76) rotate(85.892) scale(.08 -.08)">
<defs>
<path id="ac" d="m8.6875 72.906h9.9219v-44.297q0-11.719 4.2344-16.875 4.25-5.1406 13.781-5.1406 9.4688 0 13.719 5.1406 4.25 5.1562 4.25 16.875v44.297h9.9062v-45.516q0-14.25-7.0625-21.531-7.0469-7.2812-20.812-7.2812-13.828 0-20.891 7.2812-7.0469 7.2812-7.0469 21.531z"/>
</defs>
<use xlink:href="#ac"/>
</g>
</g>
<path d="m725.86 374.76 2.664 5.2139q1.092 2.1372 3.2292 1.0452l6.8947-3.5227q2.1372-1.092 1.0452-3.2292l-2.664-5.2139q-1.092-2.1372-3.2292-1.0452l-6.8947 3.5227q-2.1372 1.092-1.0452 3.2292z" clip-path="url(#a)" fill="#fff" stroke="#fff"/>
<g clip-path="url(#a)">
<g transform="translate(729.48 372.91) rotate(62.936) scale(.08 -.08)">
<use xlink:href="#ac"/>
</g>
</g>
<path d="m69.729 757.61v33.808q0 2.4 2.4 2.4h7.7425q2.4 0 2.4-2.4v-33.808q0-2.4-2.4-2.4h-7.7425q-2.4 0-2.4 2.4z" clip-path="url(#a)" fill="#fff" stroke="#fff"/>
<g clip-path="url(#a)">
<g transform="translate(73.792 757.61) rotate(90) scale(.08 -.08)">
<defs>
<path id="e" d="m-0.29688 72.906h61.672v-8.3125h-25.875v-64.594h-9.9062v64.594h-25.891z"/>
<path id="l" d="m56.203 29.594v-4.3906h-41.312q0.59375-9.2812 5.5938-14.141t13.938-4.8594q5.1719 0 10.031 1.2656t9.6562 3.8125v-8.5q-4.8438-2.0469-9.9219-3.125t-10.297-1.0781q-13.094 0-20.734 7.6094-7.6406 7.625-7.6406 20.625 0 13.422 7.25 21.297 7.25 7.8906 19.562 7.8906 11.031 0 17.453-7.1094 6.4219-7.0938 6.4219-19.297zm-8.9844 2.6406q-0.09375 7.3594-4.125 11.75-4.0312 4.4062-10.672 4.4062-7.5156 0-12.031-4.25t-5.2031-11.969z"/>
<path id="g" d="m41.109 46.297q-1.5156 0.875-3.2969 1.2812-1.7812 0.42188-3.9219 0.42188-7.625 0-11.703-4.9531t-4.0781-14.234v-28.812h-9.0312v54.688h9.0312v-8.5q2.8438 4.9844 7.375 7.3906 4.5469 2.4219 11.047 2.4219 0.92188 0 2.0469-0.125 1.125-0.10938 2.4844-0.35938z"/>
<path id="i" d="m52 44.188q3.375 6.0625 8.0625 8.9375t11.031 2.875q8.5469 0 13.188-5.9844 4.6406-5.9688 4.6406-17v-33.016h-9.0312v32.719q0 7.8594-2.7969 11.656-2.7812 3.8125-8.4844 3.8125-6.9844 0-11.047-4.6406-4.0469-4.625-4.0469-12.641v-30.906h-9.0312v32.719q0 7.9062-2.7812 11.688t-8.5938 3.7812q-6.8906 0-10.953-4.6562-4.0469-4.6562-4.0469-12.625v-30.906h-9.0312v54.688h9.0312v-8.5q3.0781 5.0312 7.375 7.4219t10.203 2.3906q5.9688 0 10.141-3.0312 4.1719-3.0156 6.1719-8.7812z"/>
<path id="k" d="m9.4219 54.688h8.9844v-54.688h-8.9844zm0 21.297h8.9844v-11.391h-8.9844z"/>
<path id="h" d="m54.891 33.016v-33.016h-8.9844v32.719q0 7.7656-3.0312 11.609-3.0312 3.8594-9.0781 3.8594-7.2812 0-11.484-4.6406-4.2031-4.625-4.2031-12.641v-30.906h-9.0312v54.688h9.0312v-8.5q3.2344 4.9375 7.5938 7.375 4.375 2.4375 10.094 2.4375 9.4219 0 14.25-5.8281 4.8438-5.8281 4.8438-17.156z"/>
<path id="f" d="m34.281 27.484q-10.891 0-15.094-2.4844t-4.2031-8.5q0-4.7812 3.1562-7.5938 3.1562-2.7969 8.5625-2.7969 7.4844 0 12 5.2969t4.5156 14.078v2zm17.922 3.7188v-31.203h-8.9844v8.2969q-3.0781-4.9688-7.6719-7.3438t-11.234-2.375q-8.3906 0-13.359 4.7188-4.9531 4.7188-4.9531 12.625 0 9.2188 6.1719 13.906 6.1875 4.6875 18.438 4.6875h12.609v0.89062q0 6.2031-4.0781 9.5938t-11.453 3.3906q-4.6875 0-9.1406-1.125-4.4375-1.125-8.5312-3.375v8.3125q4.9219 1.9062 9.5625 2.8438 4.6406 0.95312 9.0312 0.95312 11.875 0 17.734-6.1562 5.8594-6.1406 5.8594-18.641z"/>
<path id="j" d="m9.4219 75.984h8.9844v-75.984h-8.9844z"/>
</defs>
<use xlink:href="#e"/>
<use x="44.083984" xlink:href="#l"/>
<use x="105.607422" xlink:href="#g"/>
<use x="144.970703" xlink:href="#i"/>
<use x="242.382812" xlink:href="#k"/>
<use x="270.166016" xlink:href="#h"/>
<use x="333.544922" xlink:href="#f"/>
<use x="394.824219" xlink:href="#j"/>
</g>
</g>
<path d="m106.33 245.24 0.73931-5.4223q0.32423-2.378-2.0538-2.7022l-7.6715-1.046q-2.378-0.32423-2.7022 2.0538l-0.73931 5.4223q-0.32423 2.378 2.0538 2.7022l7.6715 1.046q2.378 0.32423 2.7022-2.0538z" clip-path="url(#a)" fill="#fff" stroke="#fff"/>
<g clip-path="url(#a)">
<g transform="translate(102.3 244.7) rotate(-82.236) scale(.08 -.08)">
<defs>
<path id="m" d="m34.188 63.188-13.391-36.281h26.812zm-5.5781 9.7188h11.188l27.781-72.906h-10.25l-6.6406 18.703h-32.859l-6.6406-18.703h-10.406z"/>
</defs>
<use xlink:href="#m"/>
</g>
</g>
<path d="m114.4 444.24 0.026898-4.8237q0.013382-2.4-2.3866-2.4133l-7.7424-0.043173q-2.4-0.013383-2.4133 2.3866l-0.026898 4.8237q-0.013383 2.4 2.3866 2.4133l7.7424 0.043173q2.4 0.013383 2.4133-2.3866z" clip-path="url(#a)" fill="#fff" stroke="#fff"/>
<g clip-path="url(#a)">
<g transform="translate(110.34 444.22) rotate(-89.681) scale(.08 -.08)">
<defs>
<path id="t" d="m19.672 64.797v-27.391h12.406q6.8906 0 10.641 3.5625 3.7656 3.5625 3.7656 10.156 0 6.5469-3.7656 10.109-3.75 3.5625-10.641 3.5625zm-9.8594 8.1094h22.266q12.266 0 18.531-5.5469 6.2812-5.5469 6.2812-16.234 0-10.797-6.2812-16.312-6.2656-5.5156-18.531-5.5156h-12.406v-29.297h-9.8594z"/>
</defs>
<use xlink:href="#t"/>
</g>
</g>
<path d="m113.87 373 0.28962 5.4648q0.12701 2.3966 2.5236 2.2696l7.7316-0.40975q2.3966-0.12701 2.2696-2.5236l-0.28962-5.4648q-0.12701-2.3966-2.5236-2.2696l-7.7316 0.40975q-2.3966 0.12701-2.2696 2.5236z" clip-path="url(#a)" fill="#fff" stroke="#fff"/>
<g clip-path="url(#a)">
<g transform="translate(117.93 372.78) rotate(86.966) scale(.08 -.08)">
<use xlink:href="#m"/>
</g>
</g>
<path d="m154.03 757.61v33.808q0 2.4 2.4 2.4h7.7425q2.4 0 2.4-2.4v-33.808q0-2.4-2.4-2.4h-7.7425q-2.4 0-2.4 2.4z" clip-path="url(#a)" fill="#fff" stroke="#fff"/>
<g clip-path="url(#a)">
<g transform="translate(158.1 757.61) rotate(90) scale(.08 -.08)">
<use xlink:href="#e"/>
<use x="44.083984" xlink:href="#l"/>
<use x="105.607422" xlink:href="#g"/>
<use x="144.970703" xlink:href="#i"/>
<use x="242.382812" xlink:href="#k"/>
<use x="270.166016" xlink:href="#h"/>
<use x="333.544922" xlink:href="#f"/>
<use x="394.824219" xlink:href="#j"/>
</g>
</g>
<path d="m211.39 444.71 0.39662-4.8074q0.19733-2.3919-2.1945-2.5892l-7.7163-0.6366q-2.3919-0.19733-2.5892 2.1945l-0.39662 4.8074q-0.19733 2.3919 2.1945 2.5892l7.7163 0.6366q2.3919 0.19733 2.5892-2.1945z" clip-path="url(#a)" fill="#fff" stroke="#fff"/>
<g clip-path="url(#a)">
<g transform="translate(207.34 444.38) rotate(-85.284) scale(.08 -.08)">
<use xlink:href="#t"/>
</g>
</g>
<path d="m314.81 245.18 4.442 3.1964q1.9481 1.4018 3.3499-0.54624l4.5223-6.2845q1.4018-1.9481-0.54624-3.3499l-4.442-3.1964q-1.9481-1.4018-3.3499 0.54625l-4.5223 6.2845q-1.4018 1.9481 0.54624 3.3499z" clip-path="url(#a)" fill="#fff" stroke="#fff"/>
<g clip-path="url(#a)">
<g transform="translate(317.18 241.88) rotate(35.739) scale(.08 -.08)">
<use xlink:href="#m"/>
</g>
</g>
<path d="m165.72 379.97 1.726-5.1932q0.75694-2.2775-1.5206-3.0345l-7.3473-2.4419q-2.2775-0.75694-3.0344 1.5206l-1.726 5.1932q-0.75694 2.2775 1.5206 3.0345l7.3473 2.4419q2.2775 0.75694 3.0345-1.5206z" clip-path="url(#a)" fill="#fff" stroke="#fff"/>
<g clip-path="url(#a)">
<g transform="translate(161.87 378.69) rotate(-71.615) scale(.08 -.08)">
<use xlink:href="#m"/>
</g>
</g>
<path d="m224.28 444.93 0.20308-5.8515q0.083242-2.3986-2.3153-2.4818l-7.7378-0.26854q-2.3986-0.083242-2.4818 2.3153l-0.20308 5.8515q-0.083242 2.3986 2.3153 2.4818l7.7378 0.26854q2.3986 0.083242 2.4818-2.3153z" clip-path="url(#a)" fill="#fff" stroke="#fff"/>
<g clip-path="url(#a)">
<g transform="translate(220.22 444.79) rotate(-88.012) scale(.08 -.08)">
<use xlink:href="#ac"/>
</g>
</g>
<path d="m225.84 438.98 0.10461 5.8541q0.042882 2.3996 2.4425 2.3567l7.7413-0.13834q2.3996-0.042882 2.3567-2.4425l-0.10461-5.8541q-0.042882-2.3996-2.4425-2.3567l-7.7413 0.13834q-2.3996 0.042882-2.3567 2.4425z" clip-path="url(#a)" fill="#fff" stroke="#fff"/>
<g clip-path="url(#a)">
<g transform="translate(229.91 438.9) rotate(88.976) scale(.08 -.08)">
<use xlink:href="#ac"/>
</g>
</g>
<path d="m710.74 648.36 2.9957-4.5798q1.3138-2.0085-0.69472-3.3223l-6.4795-4.2383q-2.0085-1.3138-3.3223 0.69472l-2.9957 4.5798q-1.3138 2.0085 0.69472 3.3223l6.4795 4.2383q2.0085 1.3138 3.3223-0.69472z" clip-path="url(#a)" fill="#fff" stroke="#fff"/>
<g clip-path="url(#a)">
<g transform="translate(707.34 646.14) rotate(-56.811) scale(.08 -.08)">
<use xlink:href="#m"/>
</g>
</g>
<path d="m740.51 647.05 1.3857-6.0021q0.53987-2.3385-1.7986-2.8784l-7.5441-1.7416q-2.3385-0.53987-2.8784 1.7986l-1.3857 6.0021q-0.53987 2.3385 1.7986 2.8784l7.5441 1.7416q2.3385 0.53987 2.8784-1.7986z" clip-path="url(#a)" fill="#fff" stroke="#fff"/>
<g clip-path="url(#a)">
<g transform="translate(736.55 646.14) rotate(-77) scale(.08 -.08)">
<defs>
<path id="at" d="m19.672 64.797v-56.688h11.922q15.094 0 22.094 6.8281 7 6.8438 7 21.594 0 14.641-7 21.453t-22.094 6.8125zm-9.8594 8.1094h20.266q21.188 0 31.094-8.8125 9.9219-8.8125 9.9219-27.562 0-18.859-9.9688-27.703-9.9531-8.8281-31.047-8.8281h-20.266z"/>
</defs>
<use xlink:href="#at"/>
</g>
</g>
<path d="m757.84 641.58 0.9987 4.7192q0.49689 2.348 2.8449 1.8511l7.5747-1.603q2.348-0.49689 1.8511-2.8449l-0.9987-4.7192q-0.49689-2.348-2.8449-1.8511l-7.5747 1.603q-2.348 0.49689-1.8511 2.8449z" clip-path="url(#a)" fill="#fff" stroke="#fff"/>
<g clip-path="url(#a)">
<g transform="translate(761.81 640.74) rotate(78.051) scale(.08 -.08)">
<use xlink:href="#t"/>
</g>
</g>
<path d="m788.4 643.87 3.0566 4.5394q1.3405 1.9908 3.3312 0.65029l6.4223-4.3244q1.9908-1.3405 0.65029-3.3312l-3.0566-4.5394q-1.3405-1.9908-3.3312-0.65029l-6.4223 4.3244q-1.9908 1.3405-0.65029 3.3312z" clip-path="url(#a)" fill="#fff" stroke="#fff"/>
<g clip-path="url(#a)">
<g transform="translate(791.77 641.6) rotate(56.046) scale(.08 -.08)">
<use xlink:href="#m"/>
</g>
</g>
<path d="m963.85 757.61v33.808q0 2.4 2.4 2.4h7.7425q2.4 0 2.4-2.4v-33.808q0-2.4-2.4-2.4h-7.7425q-2.4 0-2.4 2.4z" clip-path="url(#a)" fill="#fff" stroke="#fff"/>
<g clip-path="url(#a)">
<g transform="translate(967.91 757.61) rotate(90) scale(.08 -.08)">
<use xlink:href="#e"/>
<use x="44.083984" xlink:href="#l"/>
<use x="105.607422" xlink:href="#g"/>
<use x="144.970703" xlink:href="#i"/>
<use x="242.382812" xlink:href="#k"/>
<use x="270.166016" xlink:href="#h"/>
<use x="333.544922" xlink:href="#f"/>
<use x="394.824219" xlink:href="#j"/>
</g>
</g>
<path d="m1417.8 380.66 5.1048 1.9721q2.2388 0.86486 3.1036-1.3739l2.7901-7.2223q0.86486-2.2388-1.3739-3.1036l-5.1048-1.9721q-2.2388-0.86486-3.1036 1.3739l-2.7901 7.2223q-0.86486 2.2388 1.3739 3.1036z" clip-path="url(#a)" fill="#fff" stroke="#fff"/>
<g clip-path="url(#a)">
<g transform="translate(1419.3 376.87) rotate(21.122) scale(.08 -.08)">
<use xlink:href="#m"/>
</g>
</g>
<path d="m1165.6 448.54 3.3654-5.1594q1.3112-2.0102-0.69899-3.3214l-6.4849-4.2299q-2.0102-1.3112-3.3214 0.69899l-3.3654 5.1594q-1.3112 2.0102 0.69899 3.3214l6.4849 4.2299q2.0102 1.3112 3.3214-0.69899z" clip-path="url(#a)" fill="#fff" stroke="#fff"/>
<g clip-path="url(#a)">
<g transform="translate(1162.2 446.32) rotate(-56.885) scale(.08 -.08)">
<use xlink:href="#at"/>
</g>
</g>
<path d="m1222.8 512.31 0.76849-4.7621q0.38235-2.3693-1.987-2.7517l-7.6436-1.2335q-2.3693-0.38235-2.7517 1.987l-0.76849 4.7621q-0.38236 2.3693 1.987 2.7517l7.6436 1.2335q2.3693 0.38235 2.7517-1.987z" clip-path="url(#a)" fill="#fff" stroke="#fff"/>
<g clip-path="url(#a)">
<g transform="translate(1218.8 511.66) rotate(-80.833) scale(.08 -.08)">
<use xlink:href="#t"/>
</g>
</g>
<path d="m1249 506.38 0.16476 5.47q0.072257 2.3989 2.4712 2.3267l7.739-0.2331q2.3989-0.072257 2.3267-2.4712l-0.16476-5.47q-0.072257-2.3989-2.4712-2.3267l-7.739 0.2331q-2.3989 0.072257-2.3267 2.4712z" clip-path="url(#a)" fill="#fff" stroke="#fff"/>
<g clip-path="url(#a)">
<g transform="translate(1253 506.26) rotate(88.275) scale(.08 -.08)">
<use xlink:href="#m"/>
</g>
</g>
<path d="m1357.2 379.8 4.713 2.7813q2.0669 1.2198 3.2867-0.84716l3.935-6.668q1.2198-2.0669-0.84716-3.2867l-4.713-2.7813q-2.0669-1.2198-3.2867 0.84716l-3.935 6.668q-1.2198 2.0669 0.84716 3.2867z" clip-path="url(#a)" fill="#fff" stroke="#fff"/>
<g clip-path="url(#a)">
<g transform="translate(1359.3 376.3) rotate(30.546) scale(.08 -.08)">
<use xlink:href="#m"/>
</g>
</g>
<path d="m1062.4 646.71 1.3147-4.8811q0.62417-2.3174-1.6932-2.9416l-7.4761-2.0136q-2.3174-0.62417-2.9416 1.6932l-1.3147 4.8811q-0.62417 2.3174 1.6932 2.9416l7.4761 2.0136q2.3174 0.62417 2.9416-1.6932z" clip-path="url(#a)" fill="#fff" stroke="#fff"/>
<g clip-path="url(#a)">
<g transform="translate(1058.4 645.66) rotate(-74.926) scale(.08 -.08)">
<defs>
<path id="an" d="m9.8125 72.906h46.094v-8.3125h-36.234v-21.578h34.719v-8.2969h-34.719v-26.422h37.109v-8.2969h-46.969z"/>
</defs>
<use xlink:href="#an"/>
</g>
</g>
<path d="m1086 641.57 1.4528 5.394q0.62417 2.3174 2.9416 1.6932l7.4761-2.0136q2.3174-0.62417 1.6932-2.9416l-1.4528-5.394q-0.62417-2.3174-2.9416-1.6932l-7.4761 2.0136q-2.3174 0.62417-1.6932 2.9416z" clip-path="url(#a)" fill="#fff" stroke="#fff"/>
<g clip-path="url(#a)">
<g transform="translate(1089.9 640.52) rotate(74.926) scale(.08 -.08)">
<defs>
<path id="y" d="m64.406 67.281v-10.391q-4.9844 4.6406-10.625 6.9219-5.6406 2.2969-11.984 2.2969-12.5 0-19.141-7.6406t-6.6406-22.094q0-14.406 6.6406-22.047t19.141-7.6406q6.3438 0 11.984 2.2969t10.625 6.9375v-10.312q-5.1719-3.5156-10.969-5.2812-5.7812-1.75-12.219-1.75-16.562 0-26.094 10.125-9.5156 10.141-9.5156 27.672 0 17.578 9.5156 27.703 9.5312 10.141 26.094 10.141 6.5312 0 12.312-1.7344 5.7969-1.7344 10.875-5.2031z"/>
</defs>
<use xlink:href="#y"/>
</g>
</g>
<path d="m1178.4 757.61v33.808q0 2.4 2.4 2.4h7.7425q2.4 0 2.4-2.4v-33.808q0-2.4-2.4-2.4h-7.7425q-2.4 0-2.4 2.4z" clip-path="url(#a)" fill="#fff" stroke="#fff"/>
<g clip-path="url(#a)">
<g transform="translate(1182.5 757.61) rotate(90) scale(.08 -.08)">
<use xlink:href="#e"/>
<use x="44.083984" xlink:href="#l"/>
<use x="105.607422" xlink:href="#g"/>
<use x="144.970703" xlink:href="#i"/>
<use x="242.382812" xlink:href="#k"/>
<use x="270.166016" xlink:href="#h"/>
<use x="333.544922" xlink:href="#f"/>
<use x="394.824219" xlink:href="#j"/>
</g>
</g>
<path d="m1255.1 757.61v33.808q0 2.4 2.4 2.4h7.7425q2.4 0 2.4-2.4v-33.808q0-2.4-2.4-2.4h-7.7425q-2.4 0-2.4 2.4z" clip-path="url(#a)" fill="#fff" stroke="#fff"/>
<g clip-path="url(#a)">
<g transform="translate(1259.1 757.61) rotate(90) scale(.08 -.08)">
<use xlink:href="#e"/>
<use x="44.083984" xlink:href="#l"/>
<use x="105.607422" xlink:href="#g"/>
<use x="144.970703" xlink:href="#i"/>
<use x="242.382812" xlink:href="#k"/>
<use x="270.166016" xlink:href="#h"/>
<use x="333.544922" xlink:href="#f"/>
<use x="394.824219" xlink:href="#j"/>
</g>
</g>
<path d="m1412.7 581.22 2.5242-4.9526q1.0898-2.1383-1.0484-3.2281l-6.8982-3.5159q-2.1383-1.0898-3.2281 1.0484l-2.5242 4.9526q-1.0898 2.1383 1.0484 3.2281l6.8982 3.5159q2.1383 1.0898 3.2281-1.0484z" clip-path="url(#a)" fill="#fff" stroke="#fff"/>
<g clip-path="url(#a)">
<g transform="translate(1409.1 579.38) rotate(-62.993) scale(.08 -.08)">
<defs>
<path id="ay" d="m44.391 34.188q3.1719-1.0781 6.1719-4.5938t6.0312-9.6719l10.016-19.922h-10.609l-9.3125 18.703q-3.625 7.3281-7.0156 9.7188t-9.25 2.3906h-10.75v-30.812h-9.8594v72.906h22.266q12.5 0 18.656-5.2344 6.1562-5.2188 6.1562-15.766 0-6.8906-3.2031-11.438-3.2031-4.5312-9.2969-6.2812zm-24.719 30.609v-25.875h12.406q7.125 0 10.766 3.2969t3.6406 9.6875-3.6406 9.6406-10.766 3.25z"/>
</defs>
<use xlink:href="#ay"/>
</g>
</g>
<path d="m1476.4 512.58 0.44569-5.0353q0.2116-2.3907-2.179-2.6023l-7.7123-0.68265q-2.3907-0.2116-2.6023 2.179l-0.44569 5.0353q-0.2116 2.3907 2.179 2.6023l7.7123 0.68265q2.3907 0.2116 2.6023-2.179z" clip-path="url(#a)" fill="#fff" stroke="#fff"/>
<g clip-path="url(#a)">
<g transform="translate(1472.3 512.22) rotate(-84.942) scale(.08 -.08)">
<use xlink:href="#an"/>
</g>
</g>
<path d="m1484.9 573.83 0.63235 5.5503q0.27167 2.3846 2.6562 2.1129l7.6927-0.87643q2.3846-0.27167 2.1129-2.6562l-0.63235-5.5503q-0.27167-2.3846-2.6562-2.1129l-7.6927 0.87643q-2.3846 0.27167-2.1129 2.6562z" clip-path="url(#a)" fill="#fff" stroke="#fff"/>
<g clip-path="url(#a)">
<g transform="translate(1488.9 573.37) rotate(83.5) scale(.08 -.08)">
<use xlink:href="#y"/>
</g>
</g>
<path d="m1527.9 575.75 2.3586 5.3589q0.96681 2.1967 3.1635 1.2298l7.0865-3.119q2.1967-0.96681 1.2298-3.1635l-2.3586-5.3589q-0.96681-2.1967-3.1635-1.2298l-7.0865 3.119q-2.1967 0.96681-1.2298 3.1635z" clip-path="url(#a)" fill="#fff" stroke="#fff"/>
<g clip-path="url(#a)">
<g transform="translate(1531.6 574.11) rotate(66.244) scale(.08 -.08)">
<use xlink:href="#ac"/>
</g>
</g>
<path d="m1334.3 757.61v33.808q0 2.4 2.4 2.4h7.7425q2.4 0 2.4-2.4v-33.808q0-2.4-2.4-2.4h-7.7425q-2.4 0-2.4 2.4z" clip-path="url(#a)" fill="#fff" stroke="#fff"/>
<g clip-path="url(#a)">
<g transform="translate(1338.3 757.61) rotate(90) scale(.08 -.08)">
<use xlink:href="#e"/>
<use x="44.083984" xlink:href="#l"/>
<use x="105.607422" xlink:href="#g"/>
<use x="144.970703" xlink:href="#i"/>
<use x="242.382812" xlink:href="#k"/>
<use x="270.166016" xlink:href="#h"/>
<use x="333.544922" xlink:href="#f"/>
<use x="394.824219" xlink:href="#j"/>
</g>
</g>
<path d="m1478.7 641.93 1.6557 5.216q0.72614 2.2875 3.0137 1.5614l7.3796-2.3425q2.2875-0.72614 1.5614-3.0136l-1.6557-5.216q-0.72614-2.2875-3.0137-1.5614l-7.3796 2.3425q-2.2875 0.72614-1.5614 3.0137z" clip-path="url(#a)" fill="#fff" stroke="#fff"/>
<g clip-path="url(#a)">
<g transform="translate(1482.6 640.7) rotate(72.389) scale(.08 -.08)">
<use xlink:href="#m"/>
</g>
</g>
<path d="m1448.6 646.96 1.5366-4.8407q0.72614-2.2875-1.5614-3.0137l-7.3796-2.3425q-2.2875-0.72614-3.0137 1.5614l-1.5366 4.8407q-0.72614 2.2875 1.5614 3.0137l7.3796 2.3425q2.2875 0.72614 3.0136-1.5614z" clip-path="url(#a)" fill="#fff" stroke="#fff"/>
<g clip-path="url(#a)">
<g transform="translate(1444.7 645.73) rotate(-72.389) scale(.08 -.08)">
<defs>
<path id="ar" d="m53.516 70.516v-9.625q-5.6094 2.6875-10.594 4-4.9844 1.3281-9.625 1.3281-8.0469 0-12.422-3.125t-4.375-8.8906q0-4.8438 2.9062-7.3125 2.9062-2.4531 11.016-3.9688l5.9531-1.2188q11.031-2.1094 16.281-7.4062t5.25-14.172q0-10.609-7.1094-16.078-7.0938-5.4688-20.812-5.4688-5.1719 0-11.016 1.1719-5.8281 1.1719-12.078 3.4688v10.156q6-3.3594 11.766-5.0781 5.7656-1.7031 11.328-1.7031 8.4375 0 13.031 3.3125 4.5938 3.3281 4.5938 9.4844 0 5.3594-3.2969 8.3906t-10.812 4.5469l-6.0156 1.1719q-11.031 2.1875-15.969 6.875-4.9219 4.6875-4.9219 13.047 0 9.6719 6.8125 15.234t18.766 5.5625q5.1406 0 10.453-0.9375 5.3281-0.92188 10.891-2.7656z"/>
</defs>
<use xlink:href="#ar"/>
</g>
</g>
<path d="m1500.3 757.61v33.808q0 2.4 2.4 2.4h7.7425q2.4 0 2.4-2.4v-33.808q0-2.4-2.4-2.4h-7.7425q-2.4 0-2.4 2.4z" clip-path="url(#a)" fill="#fff" stroke="#fff"/>
<g clip-path="url(#a)">
<g transform="translate(1504.4 757.61) rotate(90) scale(.08 -.08)">
<use xlink:href="#e"/>
<use x="44.083984" xlink:href="#l"/>
<use x="105.607422" xlink:href="#g"/>
<use x="144.970703" xlink:href="#i"/>
<use x="242.382812" xlink:href="#k"/>
<use x="270.166016" xlink:href="#h"/>
<use x="333.544922" xlink:href="#f"/>
<use x="394.824219" xlink:href="#j"/>
</g>
</g>
<path d="m1416 757.61v33.808q0 2.4 2.4 2.4h7.7425q2.4 0 2.4-2.4v-33.808q0-2.4-2.4-2.4h-7.7425q-2.4 0-2.4 2.4z" clip-path="url(#a)" fill="#fff" stroke="#fff"/>
<g clip-path="url(#a)">
<g transform="translate(1420.1 757.61) rotate(90) scale(.08 -.08)">
<use xlink:href="#e"/>
<use x="44.083984" xlink:href="#l"/>
<use x="105.607422" xlink:href="#g"/>
<use x="144.970703" xlink:href="#i"/>
<use x="242.382812" xlink:href="#k"/>
<use x="270.166016" xlink:href="#h"/>
<use x="333.544922" xlink:href="#f"/>
<use x="394.824219" xlink:href="#j"/>
</g>
</g>
<path d="m1032.8 757.61v33.808q0 2.4 2.4 2.4h7.7425q2.4 0 2.4-2.4v-33.808q0-2.4-2.4-2.4h-7.7425q-2.4 0-2.4 2.4z" clip-path="url(#a)" fill="#fff" stroke="#fff"/>
<g clip-path="url(#a)">
<g transform="translate(1036.9 757.61) rotate(90) scale(.08 -.08)">
<use xlink:href="#e"/>
<use x="44.083984" xlink:href="#l"/>
<use x="105.607422" xlink:href="#g"/>
<use x="144.970703" xlink:href="#i"/>
<use x="242.382812" xlink:href="#k"/>
<use x="270.166016" xlink:href="#h"/>
<use x="333.544922" xlink:href="#f"/>
<use x="394.824219" xlink:href="#j"/>
</g>
</g>
<path d="m1104.4 757.61v33.808q0 2.4 2.4 2.4h7.7425q2.4 0 2.4-2.4v-33.808q0-2.4-2.4-2.4h-7.7425q-2.4 0-2.4 2.4z" clip-path="url(#a)" fill="#fff" stroke="#fff"/>
<g clip-path="url(#a)">
<g transform="translate(1108.4 757.61) rotate(90) scale(.08 -.08)">
<use xlink:href="#e"/>
<use x="44.083984" xlink:href="#l"/>
<use x="105.607422" xlink:href="#g"/>
<use x="144.970703" xlink:href="#i"/>
<use x="242.382812" xlink:href="#k"/>
<use x="270.166016" xlink:href="#h"/>
<use x="333.544922" xlink:href="#f"/>
<use x="394.824219" xlink:href="#j"/>
</g>
</g>
<path d="m657.29 757.61v33.808q0 2.4 2.4 2.4h7.7425q2.4 0 2.4-2.4v-33.808q0-2.4-2.4-2.4h-7.7425q-2.4 0-2.4 2.4z" clip-path="url(#a)" fill="#fff" stroke="#fff"/>
<g clip-path="url(#a)">
<g transform="translate(661.36 757.61) rotate(90) scale(.08 -.08)">
<use xlink:href="#e"/>
<use x="44.083984" xlink:href="#l"/>
<use x="105.607422" xlink:href="#g"/>
<use x="144.970703" xlink:href="#i"/>
<use x="242.382812" xlink:href="#k"/>
<use x="270.166016" xlink:href="#h"/>
<use x="333.544922" xlink:href="#f"/>
<use x="394.824219" xlink:href="#j"/>
</g>
</g>
<path d="m713.49 757.61v33.808q0 2.4 2.4 2.4h7.7425q2.4 0 2.4-2.4v-33.808q0-2.4-2.4-2.4h-7.7425q-2.4 0-2.4 2.4z" clip-path="url(#a)" fill="#fff" stroke="#fff"/>
<g clip-path="url(#a)">
<g transform="translate(717.56 757.61) rotate(90) scale(.08 -.08)">
<use xlink:href="#e"/>
<use x="44.083984" xlink:href="#l"/>
<use x="105.607422" xlink:href="#g"/>
<use x="144.970703" xlink:href="#i"/>
<use x="242.382812" xlink:href="#k"/>
<use x="270.166016" xlink:href="#h"/>
<use x="333.544922" xlink:href="#f"/>
<use x="394.824219" xlink:href="#j"/>
</g>
</g>
<path d="m772.25 757.61v33.808q0 2.4 2.4 2.4h7.7425q2.4 0 2.4-2.4v-33.808q0-2.4-2.4-2.4h-7.7425q-2.4 0-2.4 2.4z" clip-path="url(#a)" fill="#fff" stroke="#fff"/>
<g clip-path="url(#a)">
<g transform="translate(776.31 757.61) rotate(90) scale(.08 -.08)">
<use xlink:href="#e"/>
<use x="44.083984" xlink:href="#l"/>
<use x="105.607422" xlink:href="#g"/>
<use x="144.970703" xlink:href="#i"/>
<use x="242.382812" xlink:href="#k"/>
<use x="270.166016" xlink:href="#h"/>
<use x="333.544922" xlink:href="#f"/>
<use x="394.824219" xlink:href="#j"/>
</g>
</g>
<path d="m833.56 757.61v33.808q0 2.4 2.4 2.4h7.7425q2.4 0 2.4-2.4v-33.808q0-2.4-2.4-2.4h-7.7425q-2.4 0-2.4 2.4z" clip-path="url(#a)" fill="#fff" stroke="#fff"/>
<g clip-path="url(#a)">
<g transform="translate(837.62 757.61) rotate(90) scale(.08 -.08)">
<use xlink:href="#e"/>
<use x="44.083984" xlink:href="#l"/>
<use x="105.607422" xlink:href="#g"/>
<use x="144.970703" xlink:href="#i"/>
<use x="242.382812" xlink:href="#k"/>
<use x="270.166016" xlink:href="#h"/>
<use x="333.544922" xlink:href="#f"/>
<use x="394.824219" xlink:href="#j"/>
</g>
</g>
<path d="m177.02 757.61v33.808q0 2.4 2.4 2.4h7.7425q2.4 0 2.4-2.4v-33.808q0-2.4-2.4-2.4h-7.7425q-2.4 0-2.4 2.4z" clip-path="url(#a)" fill="#fff" stroke="#fff"/>
<g clip-path="url(#a)">
<g transform="translate(181.09 757.61) rotate(90) scale(.08 -.08)">
<use xlink:href="#e"/>
<use x="44.083984" xlink:href="#l"/>
<use x="105.607422" xlink:href="#g"/>
<use x="144.970703" xlink:href="#i"/>
<use x="242.382812" xlink:href="#k"/>
<use x="270.166016" xlink:href="#h"/>
<use x="333.544922" xlink:href="#f"/>
<use x="394.824219" xlink:href="#j"/>
</g>
</g>
<path d="m376.71 381.64 3.1442-5.1293q1.2543-2.0462-0.79189-3.3004l-6.601-4.0464q-2.0462-1.2543-3.3004 0.79189l-3.1442 5.1293q-1.2543 2.0462 0.79189 3.3004l6.601 4.0464q2.0462 1.2543 3.3004-0.79189z" clip-path="url(#a)" fill="#fff" stroke="#fff"/>
<g clip-path="url(#a)">
<g transform="translate(373.25 379.51) rotate(-58.492) scale(.08 -.08)">
<use xlink:href="#ae"/>
</g>
</g>
<path d="m447.23 376.44 3.0944 5.1595q1.2344 2.0582 3.2926 0.82381l6.6399-3.9822q2.0582-1.2344 0.82381-3.2926l-3.0944-5.1595q-1.2344-2.0582-3.2926-0.82381l-6.6399 3.9822q-2.0582 1.2344-0.82381 3.2926z" clip-path="url(#a)" fill="#fff" stroke="#fff"/>
<g clip-path="url(#a)">
<g transform="translate(450.71 374.35) rotate(59.047) scale(.08 -.08)">
<use xlink:href="#ae"/>
</g>
</g>
<path d="m408.59 506.03 0.025954 5.8549q0.010638 2.4 2.4106 2.3893l7.7424-0.03432q2.4-0.010639 2.3893-2.4106l-0.025954-5.8549q-0.010639-2.4-2.4106-2.3893l-7.7424 0.03432q-2.4 0.010639-2.3893 2.4106z" clip-path="url(#a)" fill="#fff" stroke="#fff"/>
<g clip-path="url(#a)">
<g transform="translate(412.66 506.01) rotate(89.746) scale(.08 -.08)">
<use xlink:href="#ac"/>
</g>
</g>
<path d="m313.03 514.19 1.8411-5.1535q0.80741-2.2601-1.4527-3.0675l-7.2912-2.6047q-2.2601-0.80741-3.0675 1.4527l-1.8411 5.1535q-0.80741 2.2601 1.4527 3.0675l7.2912 2.6047q2.2601 0.80741 3.0675-1.4527z" clip-path="url(#a)" fill="#fff" stroke="#fff"/>
<g clip-path="url(#a)">
<g transform="translate(309.2 512.82) rotate(-70.341) scale(.08 -.08)">
<use xlink:href="#m"/>
</g>
</g>
<path d="m327.91 572.93 0.10833 6.159q0.042207 2.3996 2.4418 2.3574l7.7413-0.13616q2.3996-0.042207 2.3574-2.4418l-0.10833-6.159q-0.042207-2.3996-2.4418-2.3574l-7.7413 0.13616q-2.3996 0.042207-2.3574 2.4418z" clip-path="url(#a)" fill="#fff" stroke="#fff"/>
<g clip-path="url(#a)">
<g transform="translate(331.97 572.86) rotate(88.992) scale(.08 -.08)">
<use xlink:href="#at"/>
</g>
</g>
<path d="m346.81 574.52 0.76907 4.762q0.38264 2.3693 2.7519 1.9867l7.6435-1.2344q2.3693-0.38264 1.9867-2.7519l-0.76907-4.762q-0.38264-2.3693-2.7519-1.9867l-7.6435 1.2344q-2.3693 0.38264-1.9867 2.7519z" clip-path="url(#a)" fill="#fff" stroke="#fff"/>
<g clip-path="url(#a)">
<g transform="translate(350.83 573.87) rotate(80.826) scale(.08 -.08)">
<use xlink:href="#t"/>
</g>
</g>
<path d="m519.73 509.77 2.3811 4.9273q1.0442 2.1609 3.2052 1.1167l6.9712-3.3687q2.1609-1.0442 1.1167-3.2052l-2.3811-4.9273q-1.0442-2.1609-3.2052-1.1167l-6.9712 3.3687q-2.1609 1.0442-1.1167 3.2052z" clip-path="url(#a)" fill="#fff" stroke="#fff"/>
<g clip-path="url(#a)">
<g transform="translate(523.39 508) rotate(64.209) scale(.08 -.08)">
<use xlink:href="#m"/>
</g>
</g>
<path d="m482.66 579.11 0.63088-4.7823q0.31388-2.3794-2.0655-2.6933l-7.676-1.0126q-2.3794-0.31388-2.6933 2.0655l-0.63087 4.7823q-0.31388 2.3794 2.0655 2.6933l7.676 1.0126q2.3794 0.31388 2.6933-2.0655z" clip-path="url(#a)" fill="#fff" stroke="#fff"/>
<g clip-path="url(#a)">
<g transform="translate(478.63 578.58) rotate(-82.485) scale(.08 -.08)">
<use xlink:href="#t"/>
</g>
</g>
<path d="m505.12 508.45 1.3927 5.2923q0.61076 2.321 2.9317 1.7102l7.4876-1.9703q2.321-0.61076 1.7102-2.9317l-1.3927-5.2923q-0.61076-2.321-2.9317-1.7102l-7.4876 1.9703q-2.321 0.61076-1.7102 2.9317z" clip-path="url(#a)" fill="#fff" stroke="#fff"/>
<g clip-path="url(#a)">
<g transform="translate(509.05 507.42) rotate(75.257) scale(.08 -.08)">
<use xlink:href="#m"/>
</g>
</g>
<path d="m452.92 757.61v33.808q0 2.4 2.4 2.4h7.7425q2.4 0 2.4-2.4v-33.808q0-2.4-2.4-2.4h-7.7425q-2.4 0-2.4 2.4z" clip-path="url(#a)" fill="#fff" stroke="#fff"/>
<g clip-path="url(#a)">
<g transform="translate(456.99 757.61) rotate(90) scale(.08 -.08)">
<use xlink:href="#e"/>
<use x="44.083984" xlink:href="#l"/>
<use x="105.607422" xlink:href="#g"/>
<use x="144.970703" xlink:href="#i"/>
<use x="242.382812" xlink:href="#k"/>
<use x="270.166016" xlink:href="#h"/>
<use x="333.544922" xlink:href="#f"/>
<use x="394.824219" xlink:href="#j"/>
</g>
</g>
<path d="m537.42 641.32 1.1822 5.3433q0.51844 2.3433 2.8618 1.8249l7.5597-1.6725q2.3433-0.51844 1.8249-2.8618l-1.1822-5.3433q-0.51844-2.3433-2.8618-1.8249l-7.5597 1.6725q-2.3433 0.51844-1.8249 2.8618z" clip-path="url(#a)" fill="#fff" stroke="#fff"/>
<g clip-path="url(#a)">
<g transform="translate(541.39 640.45) rotate(77.525) scale(.08 -.08)">
<use xlink:href="#m"/>
</g>
</g>
<path d="m523.05 646.14 0.86725-4.7452q0.43149-2.3609-1.9294-2.7924l-7.6163-1.392q-2.3609-0.43149-2.7924 1.9294l-0.86725 4.7452q-0.43149 2.3609 1.9294 2.7924l7.6163 1.392q2.3609 0.43149 2.7924-1.9294z" clip-path="url(#a)" fill="#fff" stroke="#fff"/>
<g clip-path="url(#a)">
<g transform="translate(519.05 645.41) rotate(-79.643) scale(.08 -.08)">
<use xlink:href="#t"/>
</g>
</g>
<path d="m534.92 641.08 0.98388 5.3833q0.43149 2.3609 2.7924 1.9294l7.6163-1.392q2.3609-0.43149 1.9294-2.7924l-0.98388-5.3833q-0.43149-2.3609-2.7924-1.9294l-7.6163 1.392q-2.3609 0.43149-1.9294 2.7924z" clip-path="url(#a)" fill="#fff" stroke="#fff"/>
<g clip-path="url(#a)">
<g transform="translate(538.92 640.35) rotate(79.643) scale(.08 -.08)">
<use xlink:href="#m"/>
</g>
</g>
<path d="m498.91 757.61v33.808q0 2.4 2.4 2.4h7.7425q2.4 0 2.4-2.4v-33.808q0-2.4-2.4-2.4h-7.7425q-2.4 0-2.4 2.4z" clip-path="url(#a)" fill="#fff" stroke="#fff"/>
<g clip-path="url(#a)">
<g transform="translate(502.97 757.61) rotate(90) scale(.08 -.08)">
<use xlink:href="#e"/>
<use x="44.083984" xlink:href="#l"/>
<use x="105.607422" xlink:href="#g"/>
<use x="144.970703" xlink:href="#i"/>
<use x="242.382812" xlink:href="#k"/>
<use x="270.166016" xlink:href="#h"/>
<use x="333.544922" xlink:href="#f"/>
<use x="394.824219" xlink:href="#j"/>
</g>
</g>
<path d="m547.44 757.61v33.808q0 2.4 2.4 2.4h7.7425q2.4 0 2.4-2.4v-33.808q0-2.4-2.4-2.4h-7.7425q-2.4 0-2.4 2.4z" clip-path="url(#a)" fill="#fff" stroke="#fff"/>
<g clip-path="url(#a)">
<g transform="translate(551.51 757.61) rotate(90) scale(.08 -.08)">
<use xlink:href="#e"/>
<use x="44.083984" xlink:href="#l"/>
<use x="105.607422" xlink:href="#g"/>
<use x="144.970703" xlink:href="#i"/>
<use x="242.382812" xlink:href="#k"/>
<use x="270.166016" xlink:href="#h"/>
<use x="333.544922" xlink:href="#f"/>
<use x="394.824219" xlink:href="#j"/>
</g>
</g>
<path d="m281.78 646.19 0.69316-5.5431q0.2978-2.3815-2.0837-2.6793l-7.6827-0.96072q-2.3815-0.2978-2.6793 2.0837l-0.69316 5.5431q-0.2978 2.3815 2.0837 2.6793l7.6827 0.96072q2.3815 0.2978 2.6793-2.0837z" clip-path="url(#a)" fill="#fff" stroke="#fff"/>
<g clip-path="url(#a)">
<g transform="translate(277.74 645.69) rotate(-82.872) scale(.08 -.08)">
<use xlink:href="#y"/>
</g>
</g>
<path d="m285.97 640.91 0.62724 5.0159q0.2978 2.3815 2.6793 2.0837l7.6827-0.96072q2.3815-0.2978 2.0837-2.6793l-0.62724-5.0159q-0.2978-2.3815-2.6793-2.0837l-7.6827 0.96072q-2.3815 0.2978-2.0837 2.6793z" clip-path="url(#a)" fill="#fff" stroke="#fff"/>
<g clip-path="url(#a)">
<g transform="translate(290 640.41) rotate(82.872) scale(.08 -.08)">
<use xlink:href="#an"/>
</g>
</g>
<path d="m330.3 757.61v33.808q0 2.4 2.4 2.4h7.7425q2.4 0 2.4-2.4v-33.808q0-2.4-2.4-2.4h-7.7425q-2.4 0-2.4 2.4z" clip-path="url(#a)" fill="#fff" stroke="#fff"/>
<g clip-path="url(#a)">
<g transform="translate(334.36 757.61) rotate(90) scale(.08 -.08)">
<use xlink:href="#e"/>
<use x="44.083984" xlink:href="#l"/>
<use x="105.607422" xlink:href="#g"/>
<use x="144.970703" xlink:href="#i"/>
<use x="242.382812" xlink:href="#k"/>
<use x="270.166016" xlink:href="#h"/>
<use x="333.544922" xlink:href="#f"/>
<use x="394.824219" xlink:href="#j"/>
</g>
</g>
<path d="m368.62 757.61v33.808q0 2.4 2.4 2.4h7.7425q2.4 0 2.4-2.4v-33.808q0-2.4-2.4-2.4h-7.7425q-2.4 0-2.4 2.4z" clip-path="url(#a)" fill="#fff" stroke="#fff"/>
<g clip-path="url(#a)">
<g transform="translate(372.68 757.61) rotate(90) scale(.08 -.08)">
<use xlink:href="#e"/>
<use x="44.083984" xlink:href="#l"/>
<use x="105.607422" xlink:href="#g"/>
<use x="144.970703" xlink:href="#i"/>
<use x="242.382812" xlink:href="#k"/>
<use x="270.166016" xlink:href="#h"/>
<use x="333.544922" xlink:href="#f"/>
<use x="394.824219" xlink:href="#j"/>
</g>
</g>
<path d="m261.33 757.61v33.808q0 2.4 2.4 2.4h7.7425q2.4 0 2.4-2.4v-33.808q0-2.4-2.4-2.4h-7.7425q-2.4 0-2.4 2.4z" clip-path="url(#a)" fill="#fff" stroke="#fff"/>
<g clip-path="url(#a)">
<g transform="translate(265.39 757.61) rotate(90) scale(.08 -.08)">
<use xlink:href="#e"/>
<use x="44.083984" xlink:href="#l"/>
<use x="105.607422" xlink:href="#g"/>
<use x="144.970703" xlink:href="#i"/>
<use x="242.382812" xlink:href="#k"/>
<use x="270.166016" xlink:href="#h"/>
<use x="333.544922" xlink:href="#f"/>
<use x="394.824219" xlink:href="#j"/>
</g>
</g>
<path d="m294.54 757.61v33.808q0 2.4 2.4 2.4h7.7425q2.4 0 2.4-2.4v-33.808q0-2.4-2.4-2.4h-7.7425q-2.4 0-2.4 2.4z" clip-path="url(#a)" fill="#fff" stroke="#fff"/>
<g clip-path="url(#a)">
<g transform="translate(298.6 757.61) rotate(90) scale(.08 -.08)">
<use xlink:href="#e"/>
<use x="44.083984" xlink:href="#l"/>
<use x="105.607422" xlink:href="#g"/>
<use x="144.970703" xlink:href="#i"/>
<use x="242.382812" xlink:href="#k"/>
<use x="270.166016" xlink:href="#h"/>
<use x="333.544922" xlink:href="#f"/>
<use x="394.824219" xlink:href="#j"/>
</g>
</g>
<path d="m96.272 378.44 0.096397-5.0541q0.045768-2.3996-2.3538-2.4453l-7.7411-0.14765q-2.3996-0.045767-2.4453 2.3538l-0.096397 5.0541q-0.045767 2.3996 2.3538 2.4453l7.7411 0.14765q2.3996 0.045767 2.4453-2.3538z" clip-path="url(#a)" fill="#fff" stroke="#fff"/>
<g clip-path="url(#a)">
<g transform="translate(92.209 378.36) rotate(-88.907) scale(.08 -.08)">
<use xlink:href="#an"/>
</g>
</g>
<path d="m86.307 439.8 0.053362 5.586q0.022926 2.3999 2.4228 2.377l7.7421-0.073959q2.3999-0.022925 2.377-2.4228l-0.053362-5.586q-0.022926-2.3999-2.4228-2.377l-7.7421 0.073959q-2.3999 0.022926-2.377 2.4228z" clip-path="url(#a)" fill="#fff" stroke="#fff"/>
<g clip-path="url(#a)">
<g transform="translate(90.371 439.76) rotate(89.453) scale(.08 -.08)">
<use xlink:href="#y"/>
</g>
</g>
<path d="m100.38 757.61v33.808q0 2.4 2.4 2.4h7.7425q2.4 0 2.4-2.4v-33.808q0-2.4-2.4-2.4h-7.7425q-2.4 0-2.4 2.4z" clip-path="url(#a)" fill="#fff" stroke="#fff"/>
<g clip-path="url(#a)">
<g transform="translate(104.45 757.61) rotate(90) scale(.08 -.08)">
<use xlink:href="#e"/>
<use x="44.083984" xlink:href="#l"/>
<use x="105.607422" xlink:href="#g"/>
<use x="144.970703" xlink:href="#i"/>
<use x="242.382812" xlink:href="#k"/>
<use x="270.166016" xlink:href="#h"/>
<use x="333.544922" xlink:href="#f"/>
<use x="394.824219" xlink:href="#j"/>
</g>
</g>
<path d="m132.52 645.84 0.37345-5.5462q0.16124-2.3946-2.2333-2.5558l-7.725-0.52016q-2.3946-0.16124-2.5558 2.2333l-0.37345 5.5462q-0.16124 2.3946 2.2333 2.5558l7.725 0.52016q2.3946 0.16124 2.5558-2.2333z" clip-path="url(#a)" fill="#fff" stroke="#fff"/>
<g clip-path="url(#a)">
<g transform="translate(128.47 645.56) rotate(-86.148) scale(.08 -.08)">
<use xlink:href="#ay"/>
</g>
</g>
<path d="m128.95 640.28 0.3753 5.5736q0.16124 2.3946 2.5558 2.2333l7.725-0.52016q2.3946-0.16124 2.2333-2.5558l-0.3753-5.5736q-0.16124-2.3946-2.5558-2.2333l-7.725 0.52016q-2.3946 0.16124-2.2333 2.5558z" clip-path="url(#a)" fill="#fff" stroke="#fff"/>
<g clip-path="url(#a)">
<g transform="translate(133 640) rotate(86.148) scale(.08 -.08)">
<use xlink:href="#y"/>
</g>
</g>
<path d="m115.71 757.61v33.808q0 2.4 2.4 2.4h7.7425q2.4 0 2.4-2.4v-33.808q0-2.4-2.4-2.4h-7.7425q-2.4 0-2.4 2.4z" clip-path="url(#a)" fill="#fff" stroke="#fff"/>
<g clip-path="url(#a)">
<g transform="translate(119.78 757.61) rotate(90) scale(.08 -.08)">
<use xlink:href="#e"/>
<use x="44.083984" xlink:href="#l"/>
<use x="105.607422" xlink:href="#g"/>
<use x="144.970703" xlink:href="#i"/>
<use x="242.382812" xlink:href="#k"/>
<use x="270.166016" xlink:href="#h"/>
<use x="333.544922" xlink:href="#f"/>
<use x="394.824219" xlink:href="#j"/>
</g>
</g>
<path d="m133.59 757.61v33.808q0 2.4 2.4 2.4h7.7425q2.4 0 2.4-2.4v-33.808q0-2.4-2.4-2.4h-7.7425q-2.4 0-2.4 2.4z" clip-path="url(#a)" fill="#fff" stroke="#fff"/>
<g clip-path="url(#a)">
<g transform="translate(137.66 757.61) rotate(90) scale(.08 -.08)">
<use xlink:href="#e"/>
<use x="44.083984" xlink:href="#l"/>
<use x="105.607422" xlink:href="#g"/>
<use x="144.970703" xlink:href="#i"/>
<use x="242.382812" xlink:href="#k"/>
<use x="270.166016" xlink:href="#h"/>
<use x="333.544922" xlink:href="#f"/>
<use x="394.824219" xlink:href="#j"/>
</g>
</g>
<path d="m84.956 507.01 0.20931 5.4685q0.091796 2.3982 2.49 2.3064l7.7368-0.29614q2.3982-0.091796 2.3064-2.49l-0.20931-5.4685q-0.091795-2.3982-2.49-2.3064l-7.7368 0.29614q-2.3982 0.091796-2.3064 2.49z" clip-path="url(#a)" fill="#fff" stroke="#fff"/>
<g clip-path="url(#a)">
<g transform="translate(89.017 506.86) rotate(87.808) scale(.08 -.08)">
<use xlink:href="#m"/>
</g>
</g>
<path d="m92.44 578.56 0.097434-5.0778q0.046043-2.3996-2.3535-2.4456l-7.7411-0.14854q-2.3996-0.046043-2.4456 2.3535l-0.097433 5.0778q-0.046043 2.3996 2.3535 2.4456l7.7411 0.14854q2.3996 0.046043 2.4456-2.3535z" clip-path="url(#a)" fill="#fff" stroke="#fff"/>
<g clip-path="url(#a)">
<g transform="translate(88.377 578.48) rotate(-88.901) scale(.08 -.08)">
<use xlink:href="#ar"/>
</g>
</g>
<path d="m87.482 636.02v13.246q0 2.4 2.4 2.4h8q2.4 0 2.4-2.4v-13.246q0-2.4-2.4-2.4h-8q-2.4 0-2.4 2.4z" clip-path="url(#a)" fill="#fff" stroke="#fff"/>
<g clip-path="url(#a)">
<g transform="translate(91.769 636.02) rotate(90) scale(.08 -.08)">
<defs>
<path id="bg" d="m21 76.422v-100h-8.2969v100z"/>
</defs>
<use xlink:href="#ar"/>
<use x="63.476562" xlink:href="#bg"/>
<use x="97.167969" xlink:href="#m"/>
</g>
</g>
<path d="m87.611 757.61v33.808q0 2.4 2.4 2.4h7.7425q2.4 0 2.4-2.4v-33.808q0-2.4-2.4-2.4h-7.7425q-2.4 0-2.4 2.4z" clip-path="url(#a)" fill="#fff" stroke="#fff"/>
<g clip-path="url(#a)">
<g transform="translate(91.675 757.61) rotate(90) scale(.08 -.08)">
<use xlink:href="#e"/>
<use x="44.083984" xlink:href="#l"/>
<use x="105.607422" xlink:href="#g"/>
<use x="144.970703" xlink:href="#i"/>
<use x="242.382812" xlink:href="#k"/>
<use x="270.166016" xlink:href="#h"/>
<use x="333.544922" xlink:href="#f"/>
<use x="394.824219" xlink:href="#j"/>
</g>
</g>
<path d="m77.393 757.61v33.808q0 2.4 2.4 2.4h7.7425q2.4 0 2.4-2.4v-33.808q0-2.4-2.4-2.4h-7.7425q-2.4 0-2.4 2.4z" clip-path="url(#a)" fill="#fff" stroke="#fff"/>
<g clip-path="url(#a)">
<g transform="translate(81.456 757.61) rotate(90) scale(.08 -.08)">
<use xlink:href="#e"/>
<use x="44.083984" xlink:href="#l"/>
<use x="105.607422" xlink:href="#g"/>
<use x="144.970703" xlink:href="#i"/>
<use x="242.382812" xlink:href="#k"/>
<use x="270.166016" xlink:href="#h"/>
<use x="333.544922" xlink:href="#f"/>
<use x="394.824219" xlink:href="#j"/>
</g>
</g>
<path d="m202.57 757.61v33.808q0 2.4 2.4 2.4h7.7425q2.4 0 2.4-2.4v-33.808q0-2.4-2.4-2.4h-7.7425q-2.4 0-2.4 2.4z" clip-path="url(#a)" fill="#fff" stroke="#fff"/>
<g clip-path="url(#a)">
<g transform="translate(206.63 757.61) rotate(90) scale(.08 -.08)">
<use xlink:href="#e"/>
<use x="44.083984" xlink:href="#l"/>
<use x="105.607422" xlink:href="#g"/>
<use x="144.970703" xlink:href="#i"/>
<use x="242.382812" xlink:href="#k"/>
<use x="270.166016" xlink:href="#h"/>
<use x="333.544922" xlink:href="#f"/>
<use x="394.824219" xlink:href="#j"/>
</g>
</g>
<path d="m230.67 757.61v33.808q0 2.4 2.4 2.4h7.7425q2.4 0 2.4-2.4v-33.808q0-2.4-2.4-2.4h-7.7425q-2.4 0-2.4 2.4z" clip-path="url(#a)" fill="#fff" stroke="#fff"/>
<g clip-path="url(#a)">
<g transform="translate(234.73 757.61) rotate(90) scale(.08 -.08)">
<use xlink:href="#e"/>
<use x="44.083984" xlink:href="#l"/>
<use x="105.607422" xlink:href="#g"/>
<use x="144.970703" xlink:href="#i"/>
<use x="242.382812" xlink:href="#k"/>
<use x="270.166016" xlink:href="#h"/>
<use x="333.544922" xlink:href="#f"/>
<use x="394.824219" xlink:href="#j"/>
</g>
</g>
<path d="m409.49 757.61v33.808q0 2.4 2.4 2.4h7.7425q2.4 0 2.4-2.4v-33.808q0-2.4-2.4-2.4h-7.7425q-2.4 0-2.4 2.4z" clip-path="url(#a)" fill="#fff" stroke="#fff"/>
<g clip-path="url(#a)">
<g transform="translate(413.56 757.61) rotate(90) scale(.08 -.08)">
<use xlink:href="#e"/>
<use x="44.083984" xlink:href="#l"/>
<use x="105.607422" xlink:href="#g"/>
<use x="144.970703" xlink:href="#i"/>
<use x="242.382812" xlink:href="#k"/>
<use x="270.166016" xlink:href="#h"/>
<use x="333.544922" xlink:href="#f"/>
<use x="394.824219" xlink:href="#j"/>
</g>
</g>
<path d="m603.64 757.61v33.808q0 2.4 2.4 2.4h7.7425q2.4 0 2.4-2.4v-33.808q0-2.4-2.4-2.4h-7.7425q-2.4 0-2.4 2.4z" clip-path="url(#a)" fill="#fff" stroke="#fff"/>
<g clip-path="url(#a)">
<g transform="translate(607.71 757.61) rotate(90) scale(.08 -.08)">
<use xlink:href="#e"/>
<use x="44.083984" xlink:href="#l"/>
<use x="105.607422" xlink:href="#g"/>
<use x="144.970703" xlink:href="#i"/>
<use x="242.382812" xlink:href="#k"/>
<use x="270.166016" xlink:href="#h"/>
<use x="333.544922" xlink:href="#f"/>
<use x="394.824219" xlink:href="#j"/>
</g>
</g>
<path d="m897.43 757.61v33.808q0 2.4 2.4 2.4h7.7425q2.4 0 2.4-2.4v-33.808q0-2.4-2.4-2.4h-7.7425q-2.4 0-2.4 2.4z" clip-path="url(#a)" fill="#fff" stroke="#fff"/>
<g clip-path="url(#a)">
<g transform="translate(901.49 757.61) rotate(90) scale(.08 -.08)">
<use xlink:href="#e"/>
<use x="44.083984" xlink:href="#l"/>
<use x="105.607422" xlink:href="#g"/>
<use x="144.970703" xlink:href="#i"/>
<use x="242.382812" xlink:href="#k"/>
<use x="270.166016" xlink:href="#h"/>
<use x="333.544922" xlink:href="#f"/>
<use x="394.824219" xlink:href="#j"/>
</g>
</g>
<path d="m1587.2 757.61v33.808q0 2.4 2.4 2.4h7.7425q2.4 0 2.4-2.4v-33.808q0-2.4-2.4-2.4h-7.7425q-2.4 0-2.4 2.4z" clip-path="url(#a)" fill="#fff" stroke="#fff"/>
<g clip-path="url(#a)">
<g transform="translate(1591.2 757.61) rotate(90) scale(.08 -.08)">
<use xlink:href="#e"/>
<use x="44.083984" xlink:href="#l"/>
<use x="105.607422" xlink:href="#g"/>
<use x="144.970703" xlink:href="#i"/>
<use x="242.382812" xlink:href="#k"/>
<use x="270.166016" xlink:href="#h"/>
<use x="333.544922" xlink:href="#f"/>
<use x="394.824219" xlink:href="#j"/>
</g>
</g>
<defs>
<path id="b" d="m0 8.6603c2.2967 0 4.4997-0.9125 6.1237-2.5365 1.624-1.624 2.5365-3.827 2.5365-6.1237s-0.9125-4.4997-2.5365-6.1237c-1.624-1.624-3.827-2.5365-6.1237-2.5365s-4.4997 0.9125-6.1237 2.5365c-1.624 1.624-2.5365 3.827-2.5365 6.1237s0.9125 4.4997 2.5365 6.1237c1.624 1.624 3.827 2.5365 6.1237 2.5365z"/>
</defs>
<g clip-path="url(#a)" fill="#ffffff" stroke="#ffffff">
<use x="76" y="840" xlink:href="#b"/>
<use x="83.663866" y="840" xlink:href="#b"/>
<use x="93.882353" y="840" xlink:href="#b"/>
<use x="106.655462" y="840" xlink:href="#b"/>
<use x="121.983193" y="840" xlink:href="#b"/>
<use x="139.865546" y="840" xlink:href="#b"/>
<use x="160.302521" y="840" xlink:href="#b"/>
<use x="183.294118" y="840" xlink:href="#b"/>
<use x="208.840336" y="840" xlink:href="#b"/>
<use x="236.941176" y="840" xlink:href="#b"/>
<use x="267.596639" y="840" xlink:href="#b"/>
<use x="300.806723" y="840" xlink:href="#b"/>
<use x="336.571429" y="840" xlink:href="#b"/>
<use x="374.890756" y="840" xlink:href="#b"/>
<use x="415.764706" y="840" xlink:href="#b"/>
<use x="459.193277" y="840" xlink:href="#b"/>
<use x="505.176471" y="840" xlink:href="#b"/>
<use x="553.714286" y="840" xlink:href="#b"/>
<use x="609.915966" y="840" xlink:href="#b"/>
<use x="663.563025" y="840" xlink:href="#b"/>
<use x="719.764706" y="840" xlink:href="#b"/>
<use x="778.521008" y="840" xlink:href="#b"/>
<use x="839.831933" y="840" xlink:href="#b"/>
<use x="903.697479" y="840" xlink:href="#b"/>
<use x="970.117647" y="840" xlink:href="#b"/>
<use x="1039.092437" y="840" xlink:href="#b"/>
<use x="1110.621849" y="840" xlink:href="#b"/>
<use x="1184.705882" y="840" xlink:href="#b"/>
<use x="1261.344538" y="840" xlink:href="#b"/>
<use x="1340.537815" y="840" xlink:href="#b"/>
<use x="1422.285714" y="840" xlink:href="#b"/>
<use x="1506.588235" y="840" xlink:href="#b"/>
<use x="1593.445378" y="840" xlink:href="#b"/>
<use x="1596" y="442.763002" xlink:href="#b"/>
<use x="558.823529" y="576.246932" xlink:href="#b"/>
<use x="558.823529" y="709.034404" xlink:href="#b"/>
<use x="561.863253" y="40" xlink:href="#b"/>
<use x="76" y="709.034404" xlink:href="#b"/>
<use x="109.635854" y="174.547703" xlink:href="#b"/>
<use x="160.302521" y="709.034404" xlink:href="#b"/>
<use x="227.389729" y="174.547703" xlink:href="#b"/>
<use x="750.420168" y="576.246932" xlink:href="#b"/>
<use x="970.117647" y="709.034404" xlink:href="#b"/>
<use x="1249.289916" y="308.824769" xlink:href="#b"/>
<use x="1074.857143" y="576.246932" xlink:href="#b"/>
<use x="1184.705882" y="709.034404" xlink:href="#b"/>
<use x="1261.344538" y="709.034404" xlink:href="#b"/>
<use x="1476.252101" y="442.763002" xlink:href="#b"/>
<use x="1340.537815" y="709.034404" xlink:href="#b"/>
<use x="1464.436975" y="576.246932" xlink:href="#b"/>
<use x="1506.588235" y="709.034404" xlink:href="#b"/>
<use x="1422.285714" y="709.034404" xlink:href="#b"/>
<use x="1039.092437" y="709.034404" xlink:href="#b"/>
<use x="1110.621849" y="709.034404" xlink:href="#b"/>
<use x="663.563025" y="709.034404" xlink:href="#b"/>
<use x="719.764706" y="709.034404" xlink:href="#b"/>
<use x="778.521008" y="709.034404" xlink:href="#b"/>
<use x="839.831933" y="709.034404" xlink:href="#b"/>
<use x="183.294118" y="709.034404" xlink:href="#b"/>
<use x="413.990663" y="308.824769" xlink:href="#b"/>
<use x="331.887955" y="442.763002" xlink:href="#b"/>
<use x="494.319328" y="442.763002" xlink:href="#b"/>
<use x="459.193277" y="709.034404" xlink:href="#b"/>
<use x="529.445378" y="576.246932" xlink:href="#b"/>
<use x="505.176471" y="709.034404" xlink:href="#b"/>
<use x="553.714286" y="709.034404" xlink:href="#b"/>
<use x="284.201681" y="576.246932" xlink:href="#b"/>
<use x="336.571429" y="709.034404" xlink:href="#b"/>
<use x="374.890756" y="709.034404" xlink:href="#b"/>
<use x="267.596639" y="709.034404" xlink:href="#b"/>
<use x="300.806723" y="709.034404" xlink:href="#b"/>
<use x="91.327731" y="308.824769" xlink:href="#b"/>
<use x="106.655462" y="709.034404" xlink:href="#b"/>
<use x="130.92437" y="576.246932" xlink:href="#b"/>
<use x="121.983193" y="709.034404" xlink:href="#b"/>
<use x="139.865546" y="709.034404" xlink:href="#b"/>
<use x="88.773109" y="442.763002" xlink:href="#b"/>
<use x="93.882353" y="576.246932" xlink:href="#b"/>
<use x="93.882353" y="709.034404" xlink:href="#b"/>
<use x="83.663866" y="709.034404" xlink:href="#b"/>
<use x="208.840336" y="709.034404" xlink:href="#b"/>
<use x="236.941176" y="709.034404" xlink:href="#b"/>
<use x="415.764706" y="709.034404" xlink:href="#b"/>
<use x="609.915966" y="709.034404" xlink:href="#b"/>
<use x="903.697479" y="709.034404" xlink:href="#b"/>
<use x="1593.445378" y="709.034404" xlink:href="#b"/>
</g>
<g clip-path="url(#a)">
<g transform="translate(69.18 842.76) scale(.1 -.1)">
<defs>
<path id="bp" d="m9.8125 72.906h9.8594v-29.891h35.844v29.891h9.8594v-72.906h-9.8594v34.719h-35.844v-34.719h-9.8594z"/>
<path id="o" d="m30.609 48.391q-7.2188 0-11.422-5.6406t-4.2031-15.453 4.1719-15.453q4.1875-5.6406 11.453-5.6406 7.1875 0 11.375 5.6562 4.2031 5.6719 4.2031 15.438 0 9.7188-4.2031 15.406-4.1875 5.6875-11.375 5.6875zm0 7.6094q11.719 0 18.406-7.625 6.7031-7.6094 6.7031-21.078 0-13.422-6.7031-21.078-6.6875-7.6406-18.406-7.6406-11.766 0-18.438 7.6406-6.6562 7.6562-6.6562 21.078 0 13.469 6.6562 21.078 6.6719 7.625 18.438 7.625z"/>
</defs>
<use xlink:href="#bp"/>
<use x="75.195312" xlink:href="#o"/>
</g>
</g>
<g clip-path="url(#a)">
<g transform="translate(54.279 842.76) scale(.1 -.1)">
<defs>
<path id="bd" d="m9.8125 72.906h14.703l18.594-49.609 18.703 49.609h14.703v-72.906h-9.625v64.016l-18.797-50h-9.9062l-18.797 50v-64.016h-9.5781z"/>
<path id="x" d="m34.281 27.484q-10.891 0-15.094-2.4844t-4.2031-8.5q0-4.7812 3.1562-7.5938 3.1562-2.7969 8.5625-2.7969 7.4844 0 12 5.2969t4.5156 14.078v2zm17.922 3.7188v-31.203h-8.9844v8.2969q-3.0781-4.9688-7.6719-7.3438t-11.234-2.375q-8.3906 0-13.359 4.7188-4.9531 4.7188-4.9531 12.625 0 9.2188 6.1719 13.906 6.1875 4.6875 18.438 4.6875h12.609v0.89062q0 6.2031-4.0781 9.5938t-11.453 3.3906q-4.6875 0-9.1406-1.125-4.4375-1.125-8.5312-3.375v8.3125q4.9219 1.9062 9.5625 2.8438 4.6406 0.95312 9.0312 0.95312 11.875 0 17.734-6.1562 5.8594-6.1406 5.8594-18.641z"/>
<path id="w" d="m3.7188 0v7.4688q8.875 1.375 11.609 7.5156 3.3281 8.6562 3.3281 30.766v8.9375h36.953v-54.688h-8.9844v47.516h-18.984v-5.4219q0-21.094-4.2969-30.562-4.5938-10.109-19.625-11.531z"/>
<path id="r" d="m56.203 29.594v-4.3906h-41.312q0.59375-9.2812 5.5938-14.141t13.938-4.8594q5.1719 0 10.031 1.2656t9.6562 3.8125v-8.5q-4.8438-2.0469-9.9219-3.125t-10.297-1.0781q-13.094 0-20.734 7.6094-7.6406 7.625-7.6406 20.625 0 13.422 7.25 21.297 7.25 7.8906 19.562 7.8906 11.031 0 17.453-7.1094 6.4219-7.0938 6.4219-19.297zm-8.9844 2.6406q-0.09375 7.3594-4.125 11.75-4.0312 4.4062-10.672 4.4062-7.5156 0-12.031-4.25t-5.2031-11.969z"/>
<path id="z" d="m9.0781 54.688h9.0312v-22.312h29.156v22.312h9.0312v-54.688h-9.0312v25.203h-29.156v-25.203h-9.0312z"/>
<path id="av" d="m43.453 16.219q0 4.3906-3.2031 6.6875-3.1875 2.2969-9.3438 2.2969h-12.797v-18.031h12.797q6.1562 0 9.3438 2.3125 3.2031 2.3281 3.2031 6.7344zm-34.375 38.469h9.0312v-22.312h13.188q10.453 0 16.094-3.9844 5.6406-3.9688 5.6406-12.172t-5.6406-12.219q-5.6406-4-16.094-4h-22.219z"/>
<path id="ab" d="m9.0781 54.688h8.9375v-25.688l25.344 25.688h11.031l-20.891-21.141 23.578-33.547h-10.062l-19.375 27.594-9.625-9.7656v-17.828h-8.9375z"/>
<path id="aa" d="m55.906 54.688v-54.688h-8.9375v43.891l-26.359-43.891h-11.531v54.688h8.9375v-43.797l26.328 43.797z"/>
<path id="ap" d="m55.906 54.688v-54.688h-8.9375v43.891l-26.359-43.891h-11.531v54.688h8.9375v-43.797l26.328 43.797zm-38.688 20.828h5.7656q0.53125-3.6562 2.8906-5.5 2.375-1.8281 6.625-1.8281 4.2031 0 6.5469 1.8125t2.9688 5.5156h5.7656q-0.48438-6.9844-4.3438-10.5t-10.938-3.5156-10.938 3.5156-4.3438 10.5z"/>
</defs>
<use xlink:href="#bd"/>
<use x="86.279297" xlink:href="#x"/>
<use x="147.558594" xlink:href="#w"/>
<use x="211.474609" xlink:href="#r"/>
<use x="272.998047" xlink:href="#z"/>
<use x="338.378906" xlink:href="#av"/>
<use x="397.314453" xlink:href="#ab"/>
<use x="457.714844" xlink:href="#aa"/>
<use x="522.705078" xlink:href="#ap"/>
</g>
</g>
<g clip-path="url(#a)">
<g transform="translate(77.518 842.76) scale(.1 -.1)">
<defs>
<path id="aj" d="m56.297 54.688v-54.688h-9.0312v47.516h-29.156v-47.516h-9.0312v54.688z"/>
<path id="ai" d="m18.109 8.2031v-29h-9.0312v75.484h9.0312v-8.2969q2.8438 4.875 7.1562 7.2344 4.3281 2.375 10.328 2.375 9.9688 0 16.188-7.9062 6.2344-7.9062 6.2344-20.797t-6.2344-20.812q-6.2188-7.9062-16.188-7.9062-6 0-10.328 2.375-4.3125 2.375-7.1562 7.25zm30.578 19.094q0 9.9062-4.0781 15.547t-11.203 5.6406q-7.1406 0-11.219-5.6406t-4.0781-15.547 4.0781-15.547 11.219-5.6406q7.125 0 11.203 5.6406t4.0781 15.547z"/>
<path id="aw" d="m56.297 0h-47.219v54.688h9.0312v-47.516h29.156v47.516h9.0312v-47.516h7.1875v-20.984h-7.1875z"/>
</defs>
<use xlink:href="#aj"/>
<use x="65.380859" xlink:href="#ai"/>
<use x="128.857422" xlink:href="#aa"/>
<use x="193.847656" xlink:href="#z"/>
<use x="259.228516" xlink:href="#aw"/>
</g>
</g>
<g clip-path="url(#a)">
<g transform="translate(78.387 842.76) scale(.1 -.1)">
<defs>
<path id="ah" d="m48.781 52.594v-8.4062q-3.8125 2.1094-7.6406 3.1562t-7.7344 1.0469q-8.75 0-13.594-5.5469-4.8281-5.5312-4.8281-15.547t4.8281-15.562q4.8438-5.5312 13.594-5.5312 3.9062 0 7.7344 1.0469t7.6406 3.1562v-8.3125q-3.7656-1.75-7.7969-2.625-4.0156-0.89062-8.5625-0.89062-12.359 0-19.641 7.7656-7.2656 7.7656-7.2656 20.953 0 13.375 7.3438 21.031 7.3594 7.6719 20.156 7.6719 4.1406 0 8.0938-0.85938 3.9531-0.84375 7.6719-2.5469z"/>
<path id="ak" d="m9.0781 54.688h13.141l15.531-36.625 15.578 36.625h13.031v-54.688h-9.0312v46.094l-15.094-35.594h-8.9844l-15.141 35.594v-46.094h-9.0312z"/>
<path id="v" d="m2.9375 54.688h52.391v-7.1719h-21.781v-47.516h-8.8438v47.516h-21.766z"/>
</defs>
<use xlink:href="#aj"/>
<use x="65.380859" xlink:href="#o"/>
<use x="126.5625" xlink:href="#ah"/>
<use x="181.542969" xlink:href="#ak"/>
<use x="256.982422" xlink:href="#o"/>
<use x="318.164062" xlink:href="#v"/>
<use x="376.416016" xlink:href="#ai"/>
<use x="439.892578" xlink:href="#r"/>
<use x="501.416016" xlink:href="#w"/>
</g>
</g>
<g clip-path="url(#a)">
<g transform="translate(115.65 842.76) scale(.1 -.1)">
<use xlink:href="#z"/>
<use x="65.380859" xlink:href="#x"/>
</g>
</g>
<g clip-path="url(#a)">
<g transform="translate(126.74 842.76) scale(.1 -.1)">
<defs>
<path id="ba" d="m18.453 38.922q0-4.0625 3.125-6.3594 3.125-2.2812 8.9375-2.2812h12.109v17.234h-12.109q-5.8125 0-8.9375-2.25t-3.125-6.3438zm-12.781-38.922 16.688 23.969q-5.6562 1.2812-9.4219 4.625-3.75 3.3438-3.75 10.328 0 7.9062 5.2344 11.828 5.25 3.9375 15.859 3.9375h21.375v-54.688h-9.0312v23.094h-11.172l-16.125-23.094z"/>
</defs>
<use xlink:href="#ak"/>
<use x="75.439453" xlink:href="#r"/>
<use x="136.962891" xlink:href="#z"/>
<use x="202.34375" xlink:href="#ba"/>
</g>
</g>
<g clip-path="url(#a)">
<g transform="translate(157.05 842.76) scale(.1 -.1)">
<use xlink:href="#aa"/>
</g>
</g>
<g clip-path="url(#a)">
<g transform="translate(154.37 842.76) scale(.1 -.1)">
<defs>
<path id="ax" d="m18.062 25.203v-18.031h12.797q6.1562 0 9.375 2.3125 3.2188 2.3281 3.2188 6.7344 0 4.3906-3.2188 6.6875t-9.375 2.2969zm0 22.312v-15.141h11.828q5.0781 0 8.2969 2.0156 3.2188 2.0312 3.2188 5.6562 0 3.6094-3.2188 5.5312-3.2188 1.9375-8.2969 1.9375zm-8.9844 7.1719h21.391q9.625 0 14.797-3.5156t5.1719-10.016q0-5.0156-2.6406-7.9844-2.625-2.9531-7.8125-3.6719 6.2031-1.1719 9.625-4.8906 3.4219-3.7031 3.4219-9.2812 0-7.3125-5.6406-11.328-5.6406-4-16.094-4h-22.219z"/>
</defs>
<use xlink:href="#aj"/>
<use x="65.380859" xlink:href="#ai"/>
<use x="128.857422" xlink:href="#o"/>
<use x="190.039062" xlink:href="#ak"/>
<use x="265.478516" xlink:href="#o"/>
<use x="326.660156" xlink:href="#w"/>
<use x="390.576172" xlink:href="#ax"/>
<use x="449.511719" xlink:href="#aa"/>
<use x="514.501953" xlink:href="#w"/>
</g>
</g>
<g clip-path="url(#a)">
<g transform="translate(207.16 842.76) scale(.1 -.1)">
<defs>
<path id="az" d="m11.719 12.406h10.297v-12.406h-10.297zm0 39.297h10.297v-12.391h-10.297z"/>
</defs>
<use xlink:href="#az"/>
</g>
</g>
<g clip-path="url(#a)">
<g transform="translate(235.14 842.76) scale(.1 -.1)">
<defs>
<path id="bf" d="m4.8906 31.391h26.312v-8h-26.312z"/>
</defs>
<use xlink:href="#bf"/>
</g>
</g>
<g clip-path="url(#a)">
<g transform="translate(256.94 842.76) scale(.1 -.1)">
<use xlink:href="#bd"/>
<use x="86.279297" xlink:href="#z"/>
<use x="151.660156" xlink:href="#r"/>
</g>
</g>
<g clip-path="url(#a)">
<g transform="translate(287.25 842.76) scale(.1 -.1)">
<defs>
<path id="bk" d="m40.578 54.688h8.9375v-25.688l23.875 25.688h10.453l-19.641-21.047 22.469-33.641h-9.625l-18.406 27.641-9.125-9.8125v-17.828h-8.9375v17.828l-9.125 9.8125-18.422-27.641h-9.6094l22.453 33.641-19.625 21.047h10.453l23.875-25.688z"/>
</defs>
<use xlink:href="#v"/>
<use x="58.251953" xlink:href="#o"/>
<use x="119.433594" xlink:href="#bk"/>
<use x="209.521484" xlink:href="#r"/>
</g>
</g>
<g clip-path="url(#a)">
<g transform="translate(315.85 842.76) scale(.1 -.1)">
<defs>
<path id="bi" d="m54.891 54.688-19.781-26.609 20.797-28.078h-10.594l-15.922 21.484-15.906-21.484h-10.609l21.25 28.609-19.438 26.078h10.594l14.5-19.484 14.5 19.484z"/>
<path id="bc" d="m41.016 0v23h-16.75q-7.4688 0-12.453 4.6406-4.4844 4.2031-4.4844 13.188v13.859h8.9844v-13.031q0-5.7188 2.5312-8.5938 2.5938-2.8906 7.6719-2.8906h14.5v24.516h8.9844v-54.688z"/>
</defs>
<use xlink:href="#bi"/>
<use x="59.179688" xlink:href="#o"/>
<use x="120.361328" xlink:href="#bc"/>
<use x="179.443359" xlink:href="#r"/>
<use x="240.966797" xlink:href="#v"/>
<use x="299.21875" xlink:href="#ah"/>
<use x="354.199219" xlink:href="#ba"/>
</g>
</g>
<g clip-path="url(#a)">
<g transform="translate(362.51 842.76) scale(.1 -.1)">
<use xlink:href="#aj"/>
<use x="65.380859" xlink:href="#aa"/>
<use x="130.371094" xlink:href="#v"/>
<use x="188.623047" xlink:href="#av"/>
</g>
</g>
<g clip-path="url(#a)">
<g transform="translate(411 842.76) scale(.1 -.1)">
<defs>
<path id="d" d="m10.688 12.406h10.312v-12.406h-10.312z"/>
</defs>
<use xlink:href="#d"/>
<use x="31.787109" xlink:href="#d"/>
<use x="63.574219" xlink:href="#d"/>
</g>
</g>
<g clip-path="url(#a)">
<g transform="translate(438.82 842.76) scale(.1 -.1)">
<defs>
<path id="bo" d="m65.375 72.906v-72.906h-9.8594v64.594h-35.844v-64.594h-9.8594v72.906z"/>
<path id="aq" d="m21.625 7.1719h26.078v40.344h-18.891v-6.8438q0-20.109-5.7656-30.859zm-13.031 0q4.4375 1.9531 6.3906 6.1094 4.7969 10.297 4.7969 31.062v10.344h36.953v-47.516h7.1875v-20.984h-7.1875v13.812h-44.328v-13.812h-7.1875v20.984z"/>
</defs>
<use xlink:href="#bo"/>
<use x="75.195312" xlink:href="#o"/>
<use x="136.376953" xlink:href="#ap"/>
<use x="201.367188" xlink:href="#aq"/>
<use x="270.507812" xlink:href="#r"/>
<use x="332.03125" xlink:href="#ak"/>
</g>
</g>
<g clip-path="url(#a)">
<g transform="translate(484.04 842.76) scale(.1 -.1)">
<defs>
<path id="bh" d="m82.422 0h-73.344v54.688h9.0312v-47.516h23.109v47.516h9.0312v-47.516h23.141v47.516h9.0312v-47.516h7.1719v-20.984h-7.1719z"/>
</defs>
<use xlink:href="#aj"/>
<use x="65.380859" xlink:href="#o"/>
<use x="126.5625" xlink:href="#aa"/>
<use x="191.552734" xlink:href="#bh"/>
<use x="285.742188" xlink:href="#r"/>
<use x="347.265625" xlink:href="#ak"/>
</g>
</g>
<g clip-path="url(#a)">
<g transform="translate(531.44 842.76) scale(.1 -.1)">
<use xlink:href="#ab"/>
<use x="60.400391" xlink:href="#o"/>
<use x="121.582031" xlink:href="#w"/>
<use x="185.498047" xlink:href="#o"/>
<use x="246.679688" xlink:href="#aq"/>
<use x="315.820312" xlink:href="#r"/>
<use x="377.34375" xlink:href="#aw"/>
</g>
</g>
<g clip-path="url(#a)">
<g transform="translate(605.15 842.76) scale(.1 -.1)">
<use xlink:href="#d"/>
<use x="31.787109" xlink:href="#d"/>
<use x="63.574219" xlink:href="#d"/>
</g>
</g>
<g clip-path="url(#a)">
<g transform="translate(660.09 842.76) scale(.1 -.1)">
<defs>
<path id="bn" d="m20.062 51.906q0-6.3906 3.6406-9.6875t10.766-3.2969h15.344v25.875h-15.344q-7.125 0-10.766-3.25t-3.6406-9.6406zm-13.422-51.906 19.922 31.891q-4.875 1.2656-11.125 5.3906t-6.25 14.625q0 10.062 6.3438 15.531t18.938 5.4688h25.203v-72.906h-9.8594v30.812h-13.188l-19.234-30.812z"/>
</defs>
<use xlink:href="#bn"/>
</g>
</g>
<g clip-path="url(#a)">
<g transform="translate(701.82 842.76) scale(.1 -.1)">
<defs>
<path id="am" d="m32.172-5.0781q-3.7969-9.7656-7.4219-12.734-3.6094-2.9844-9.6562-2.9844h-7.1875v7.5156h5.2812q3.7031 0 5.75 1.7656 2.0625 1.75 4.5469 8.2969l1.6094 4.0938-22.109 53.812h9.5156l17.094-42.766 17.094 42.766h9.5156z"/>
</defs>
<use xlink:href="#am"/>
<use x="59.179688" xlink:href="#ah"/>
<use x="114.160156" xlink:href="#v"/>
<use x="172.412109" xlink:href="#x"/>
<use x="233.691406" xlink:href="#w"/>
<use x="297.607422" xlink:href="#o"/>
</g>
</g>
<g clip-path="url(#a)">
<g transform="translate(760.4 842.76) scale(.1 -.1)">
<defs>
<path id="bj" d="m34.469 29.5q6.0625-1.1719 9.4219-4.75 3.375-3.5625 3.375-8.8281 0-8.4531-6.2969-12.906-6.2969-4.4375-17.922-4.4375-3.9062 0-8.0312 0.6875t-8.5156 2.0469v8.3594q3.4688-1.8125 7.6094-2.7188 4.1562-0.89062 8.6875-0.89062 7.375 0 11.5 2.7344t4.125 7.125q0 4.2969-3.6562 6.9062t-10.344 2.6094h-7.2344v7.4219h7.5625q5.6719 0 8.9688 2.1719t3.2969 5.5938q0 3.125-3.4062 5.375-3.3906 2.25-9.1875 2.25-3.4688 0-7.4062-0.64062-3.9219-0.64062-8.6719-2.0469v8.1562q4.7969 1.1719 8.9375 1.75 4.1562 0.59375 7.8594 0.59375 9.5781 0 15.109-3.8438 5.5469-3.8281 5.5469-10.719 0-4.5312-2.9375-7.6875-2.9219-3.1406-8.3906-4.3125z"/>
</defs>
<use xlink:href="#ai"/>
<use x="63.476562" xlink:href="#x"/>
<use x="124.755859" xlink:href="#bj"/>
<use x="177.929688" xlink:href="#ax"/>
<use x="236.865234" xlink:href="#r"/>
<use x="298.388672" xlink:href="#w"/>
</g>
</g>
<g clip-path="url(#a)">
<g transform="translate(820.59 842.76) scale(.1 -.1)">
<use xlink:href="#ai"/>
<use x="63.476562" xlink:href="#am"/>
<use x="122.65625" xlink:href="#ab"/>
<use x="183.056641" xlink:href="#x"/>
<use x="244.335938" xlink:href="#ak"/>
<use x="319.775391" xlink:href="#aa"/>
</g>
</g>
<g clip-path="url(#a)">
<g transform="translate(902.01 842.76) scale(.1 -.1)">
<use xlink:href="#az"/>
</g>
</g>
<g clip-path="url(#a)">
<g transform="translate(961.19 842.76) scale(.1 -.1)">
<use xlink:href="#bc"/>
<use x="59.082031" xlink:href="#v"/>
<use x="117.333984" xlink:href="#o"/>
</g>
</g>
<g clip-path="url(#a)">
<g transform="translate(1023.9 842.76) scale(.1 -.1)">
<use xlink:href="#v"/>
<use x="58.251953" xlink:href="#o"/>
<use x="119.433594" xlink:href="#w"/>
<use x="183.349609" xlink:href="#ab"/>
<use x="243.75" xlink:href="#am"/>
</g>
</g>
<g clip-path="url(#a)">
<g transform="translate(1092.2 842.76) scale(.1 -.1)">
<defs>
<path id="bl" d="m9.0781 0v54.688h38.578v-7.1719h-29.547v-47.516z"/>
</defs>
<use xlink:href="#z"/>
<use x="65.380859" xlink:href="#x"/>
<use x="126.660156" xlink:href="#am"/>
<use x="185.839844" xlink:href="#bl"/>
<use x="238.378906" xlink:href="#x"/>
<use x="299.658203" xlink:href="#aq"/>
</g>
</g>
<g clip-path="url(#a)">
<g transform="translate(1166.8 842.76) scale(.1 -.1)">
<use xlink:href="#aa"/>
<use x="64.990234" xlink:href="#ah"/>
<use x="119.970703" xlink:href="#ab"/>
<use x="180.371094" xlink:href="#x"/>
<use x="241.650391" xlink:href="#v"/>
<use x="299.902344" xlink:href="#av"/>
</g>
</g>
<g clip-path="url(#a)">
<g transform="translate(1238.2 842.76) scale(.1 -.1)">
<defs>
<path id="bb" d="m61.047 54.688h8.9844v-54.688h-8.9844zm4.5 1.3125m-22.094-39.781q0 4.3906-3.2031 6.6875-3.1875 2.2969-9.3438 2.2969h-12.797v-18.031h12.797q6.1562 0 9.3438 2.3125 3.2031 2.3281 3.2031 6.7344zm-34.375 38.469h9.0312v-22.312h13.188q10.453 0 16.094-3.9844 5.6406-3.9688 5.6406-12.172t-5.6406-12.219q-5.6406-4-16.094-4h-22.219z"/>
</defs>
<use xlink:href="#ab"/>
<use x="60.400391" xlink:href="#o"/>
<use x="121.582031" xlink:href="#w"/>
<use x="185.498047" xlink:href="#o"/>
<use x="246.679688" xlink:href="#aq"/>
<use x="315.820312" xlink:href="#aw"/>
<use x="383.886719" xlink:href="#bb"/>
</g>
</g>
<g clip-path="url(#a)">
<g transform="translate(1337.6 842.76) scale(.1 -.1)">
<use xlink:href="#ax"/>
</g>
</g>
<g clip-path="url(#a)">
<g transform="translate(1391.3 842.84) scale(.1 -.1)">
<defs>
<path id="bm" d="m31.109 56q11.719 0 18.406-7.625 6.6875-7.6094 6.6875-21.078 0-13.422-6.6875-21.078-6.6875-7.6406-18.406-7.6406-11.766 0-18.266 7.4219t-6.8438 21.297l-0.28125 11.188q-0.25 5.7969-0.25 7.8125 0 7.8125 2.8281 13.562 4.4531 9.0312 12.141 12.938t20.578 4.0156q5.9531 0.046875 8.5938 0.875l2.4844-7.125q-2.3906-0.98438-4.5781-1.0312l-12.219-0.82812q-6.1406-0.4375-9.8594-2.5938-9.7188-5.7031-10.641-13.172l-0.34375-2.7344q6.3438 5.7969 16.656 5.7969zm0-7.6094q-7.2344 0-11.438-5.6406-4.1875-5.6406-4.1875-15.453t4.1719-15.453 11.453-5.6406q7.1719 0 11.375 5.6562 4.2031 5.6719 4.2031 15.438 0 9.7188-4.2031 15.406t-11.375 5.6875z"/>
</defs>
<use xlink:href="#bm"/>
<use x="61.669922" xlink:href="#r"/>
<use x="123.193359" xlink:href="#ah"/>
<use x="178.173828" xlink:href="#ab"/>
<use x="238.574219" xlink:href="#ai"/>
<use x="302.050781" xlink:href="#x"/>
<use x="363.330078" xlink:href="#ap"/>
<use x="428.320312" xlink:href="#z"/>
<use x="493.701172" xlink:href="#r"/>
<use x="555.224609" xlink:href="#ap"/>
</g>
</g>
<g clip-path="url(#a)">
<g transform="translate(1484.4 842.76) scale(.1 -.1)">
<use xlink:href="#aj"/>
<use x="65.380859" xlink:href="#am"/>
<use x="124.560547" xlink:href="#ah"/>
<use x="179.541016" xlink:href="#v"/>
<use x="237.792969" xlink:href="#bb"/>
<use x="316.748047" xlink:href="#z"/>
<use x="382.128906" xlink:href="#r"/>
</g>
</g>
<g clip-path="url(#a)">
<g transform="translate(1590.8 842.76) scale(.1 -.1)">
<defs>
<path id="be" d="m19.094 12.406h9.9062v-12.406h-9.9062zm9.625 7.1719h-9.3281v7.5156q0 4.9375 1.3594 8.1094 1.375 3.1719 5.7656 7.375l4.3906 4.3438q2.7812 2.5938 4.0312 4.8906t1.25 4.6875q0 4.3438-3.2031 7.0312t-8.4688 2.6875q-3.8594 0-8.2344-1.7188-4.3594-1.7031-9.1094-4.9844v9.1875q4.5938 2.7812 9.2969 4.1406 4.7188 1.375 9.75 1.375 8.9844 0 14.422-4.7344 5.4531-4.7344 5.4531-12.5 0-3.7188-1.7656-7.0625-1.75-3.3438-6.1406-7.5312l-4.2969-4.2031q-2.2969-2.2969-3.25-3.5938t-1.3438-2.5156q-0.29688-1.0156-0.4375-2.4844t-0.14062-4z"/>
</defs>
<use xlink:href="#be"/>
</g>
</g>
<g clip-path="url(#a)">
<g transform="translate(1574.9 445.52) scale(.1 -.1)">
<defs>
<path id="u" d="m9.8125 72.906h9.8594v-72.906h-9.8594z"/>
<path id="as" d="m9.8125 72.906h14.703l18.594-49.609 18.703 49.609h14.703v-72.906h-9.625v64.016l-18.797-50h-9.9062l-18.797 50v-64.016h-9.5781z"/>
</defs>
<use xlink:href="#u"/>
<use x="29.492188" xlink:href="#as"/>
<use x="115.771484" xlink:href="#t"/>
<use x="176.074219" xlink:href="#ad"/>
<use x="231.787109" xlink:href="#u"/>
<use x="261.279297" xlink:href="#y"/>
<use x="331.103516" xlink:href="#u"/>
<use x="360.595703" xlink:href="#e"/>
</g>
</g>
<g clip-path="url(#a)">
<g transform="translate(537.74 579.01) scale(.1 -.1)">
<use xlink:href="#u"/>
<use x="29.492188" xlink:href="#as"/>
<use x="115.771484" xlink:href="#t"/>
<use x="176.074219" xlink:href="#ad"/>
<use x="231.787109" xlink:href="#u"/>
<use x="261.279297" xlink:href="#y"/>
<use x="331.103516" xlink:href="#u"/>
<use x="360.595703" xlink:href="#e"/>
</g>
</g>
<g clip-path="url(#a)">
<g transform="translate(537.74 711.79) scale(.1 -.1)">
<use xlink:href="#u"/>
<use x="29.492188" xlink:href="#as"/>
<use x="115.771484" xlink:href="#t"/>
<use x="176.074219" xlink:href="#ad"/>
<use x="231.787109" xlink:href="#u"/>
<use x="261.279297" xlink:href="#y"/>
<use x="331.103516" xlink:href="#u"/>
<use x="360.595703" xlink:href="#e"/>
</g>
</g>
<g clip-path="url(#a)">
<g transform="translate(553.91 42.759) scale(.1 -.1)">
<defs>
<path id="c" d="m12.406 8.2969h16.109v55.625l-17.531-3.5156v8.9844l17.438 3.5156h9.8594v-64.609h16.109v-8.2969h-41.984z"/>
</defs>
<use xlink:href="#c"/>
<use x="63.623047" xlink:href="#d"/>
<use x="95.410156" xlink:href="#c"/>
</g>
</g>
<g clip-path="url(#a)">
<g transform="translate(68.048 711.79) scale(.1 -.1)">
<defs>
<path id="q" d="m19.188 8.2969h34.422v-8.2969h-46.281v8.2969q5.6094 5.8125 15.297 15.594 9.7031 9.7969 12.188 12.641 4.7344 5.3125 6.6094 9 1.8906 3.6875 1.8906 7.25 0 5.8125-4.0781 9.4688-4.0781 3.6719-10.625 3.6719-4.6406 0-9.7969-1.6094-5.1406-1.6094-11-4.8906v9.9688q5.9531 2.3906 11.125 3.6094 5.1875 1.2188 9.4844 1.2188 11.328 0 18.062-5.6719 6.7344-5.6562 6.7344-15.125 0-4.5-1.6875-8.5312-1.6719-4.0156-6.125-9.4844-1.2188-1.4219-7.7656-8.1875-6.5312-6.7656-18.453-18.922z"/>
</defs>
<use xlink:href="#c"/>
<use x="63.623047" xlink:href="#d"/>
<use x="95.410156" xlink:href="#q"/>
</g>
</g>
<g clip-path="url(#a)">
<g transform="translate(101.68 177.31) scale(.1 -.1)">
<defs>
<path id="s" d="m40.578 39.312q7.0781-1.5156 11.047-6.3125 3.9844-4.7812 3.9844-11.812 0-10.781-7.4219-16.703-7.4219-5.9062-21.094-5.9062-4.5781 0-9.4375 0.90625t-10.031 2.7188v9.5156q4.0938-2.3906 8.9688-3.6094 4.8906-1.2188 10.219-1.2188 9.2656 0 14.125 3.6562t4.8594 10.641q0 6.4531-4.5156 10.078-4.5156 3.6406-12.562 3.6406h-8.5v8.1094h8.8906q7.2656 0 11.125 2.9062t3.8594 8.375q0 5.6094-3.9844 8.6094-3.9688 3.0156-11.391 3.0156-4.0625 0-8.7031-0.89062-4.6406-0.875-10.203-2.7188v8.7812q5.625 1.5625 10.531 2.3438t9.25 0.78125q11.234 0 17.766-5.1094 6.5469-5.0938 6.5469-13.781 0-6.0625-3.4688-10.234t-9.8594-5.7812z"/>
</defs>
<use xlink:href="#c"/>
<use x="63.623047" xlink:href="#d"/>
<use x="95.410156" xlink:href="#s"/>
</g>
</g>
<g clip-path="url(#a)">
<g transform="translate(152.35 711.79) scale(.1 -.1)">
<defs>
<path id="p" d="m37.797 64.312-24.906-38.922h24.906zm-2.5938 8.5938h12.406v-47.516h10.406v-8.2031h-10.406v-17.188h-9.8125v17.188h-32.906v9.5156z"/>
</defs>
<use xlink:href="#c"/>
<use x="63.623047" xlink:href="#d"/>
<use x="95.410156" xlink:href="#p"/>
</g>
</g>
<g clip-path="url(#a)">
<g transform="translate(219.44 177.31) scale(.1 -.1)">
<defs>
<path id="n" d="m10.797 72.906h38.719v-8.3125h-29.688v-17.859q2.1406 0.73438 4.2812 1.0938 2.1562 0.35938 4.3125 0.35938 12.203 0 19.328-6.6875 7.1406-6.6875 7.1406-18.109 0-11.766-7.3281-18.297-7.3281-6.5156-20.656-6.5156-4.5938 0-9.3594 0.78125-4.75 0.78125-9.8281 2.3438v9.9219q4.3906-2.3906 9.0781-3.5625t9.9062-1.1719q8.4531 0 13.375 4.4375 4.9375 4.4375 4.9375 12.062 0 7.6094-4.9375 12.047-4.9219 4.4531-13.375 4.4531-3.9531 0-7.8906-0.875-3.9219-0.875-8.0156-2.7344z"/>
</defs>
<use xlink:href="#c"/>
<use x="63.623047" xlink:href="#d"/>
<use x="95.410156" xlink:href="#n"/>
</g>
</g>
<g clip-path="url(#a)">
<g transform="translate(742.47 579.01) scale(.1 -.1)">
<defs>
<path id="ag" d="m33.016 40.375q-6.6406 0-10.531-4.5469-3.875-4.5312-3.875-12.438 0-7.8594 3.875-12.438 3.8906-4.5625 10.531-4.5625t10.516 4.5625q3.875 4.5781 3.875 12.438 0 7.9062-3.875 12.438-3.875 4.5469-10.516 4.5469zm19.578 30.922v-8.9844q-3.7188 1.75-7.5 2.6719-3.7812 0.9375-7.5 0.9375-9.7656 0-14.922-6.5938-5.1406-6.5938-5.875-19.922 2.875 4.25 7.2188 6.5156 4.3594 2.2656 9.5781 2.2656 10.984 0 17.359-6.6719 6.375-6.6562 6.375-18.125 0-11.234-6.6406-18.031-6.6406-6.7812-17.672-6.7812-12.656 0-19.344 9.6875-6.6875 9.7031-6.6875 28.109 0 17.281 8.2031 27.562t22.016 10.281q3.7188 0 7.5-0.73438t7.8906-2.1875z"/>
</defs>
<use xlink:href="#c"/>
<use x="63.623047" xlink:href="#d"/>
<use x="95.410156" xlink:href="#ag"/>
</g>
</g>
<g clip-path="url(#a)">
<g transform="translate(962.17 711.79) scale(.1 -.1)">
<defs>
<path id="al" d="m8.2031 72.906h46.875v-4.2031l-26.469-68.703h-10.297l24.906 64.594h-35.016z"/>
</defs>
<use xlink:href="#c"/>
<use x="63.623047" xlink:href="#d"/>
<use x="95.410156" xlink:href="#al"/>
</g>
</g>
<g clip-path="url(#a)">
<g transform="translate(1241.3 311.58) scale(.1 -.1)">
<defs>
<path id="af" d="m31.781 34.625q-7.0312 0-11.062-3.7656-4.0156-3.7656-4.0156-10.344 0-6.5938 4.0156-10.359 4.0312-3.7656 11.062-3.7656t11.078 3.7812q4.0625 3.7969 4.0625 10.344 0 6.5781-4.0312 10.344-4.0156 3.7656-11.109 3.7656zm-9.8594 4.1875q-6.3438 1.5625-9.8906 5.9062-3.5312 4.3594-3.5312 10.609 0 8.7344 6.2188 13.812 6.2344 5.0781 17.062 5.0781 10.891 0 17.094-5.0781t6.2031-13.812q0-6.25-3.5469-10.609-3.5312-4.3438-9.8281-5.9062 7.125-1.6562 11.094-6.5 3.9844-4.8281 3.9844-11.797 0-10.609-6.4688-16.281-6.4688-5.6562-18.531-5.6562-12.047 0-18.531 5.6562-6.4688 5.6719-6.4688 16.281 0 6.9688 4 11.797 4.0156 4.8438 11.141 6.5zm-3.6094 15.578q0-5.6562 3.5312-8.8281 3.5469-3.1719 9.9375-3.1719 6.3594 0 9.9375 3.1719 3.5938 3.1719 3.5938 8.8281 0 5.6719-3.5938 8.8438-3.5781 3.1719-9.9375 3.1719-6.3906 0-9.9375-3.1719-3.5312-3.1719-3.5312-8.8438z"/>
</defs>
<use xlink:href="#c"/>
<use x="63.623047" xlink:href="#d"/>
<use x="95.410156" xlink:href="#af"/>
</g>
</g>
<g clip-path="url(#a)">
<g transform="translate(1063.7 579.01) scale(.1 -.1)">
<use xlink:href="#c"/>
<use x="63.623047" xlink:href="#d"/>
<use x="95.410156" xlink:href="#c"/>
<use x="159.033203" xlink:href="#s"/>
</g>
</g>
<g clip-path="url(#a)">
<g transform="translate(1173.6 711.79) scale(.1 -.1)">
<use xlink:href="#c"/>
<use x="63.623047" xlink:href="#d"/>
<use x="95.410156" xlink:href="#c"/>
<use x="159.033203" xlink:href="#p"/>
</g>
</g>
<g clip-path="url(#a)">
<g transform="translate(1250.2 711.79) scale(.1 -.1)">
<use xlink:href="#c"/>
<use x="63.623047" xlink:href="#d"/>
<use x="95.410156" xlink:href="#c"/>
<use x="159.033203" xlink:href="#n"/>
</g>
</g>
<g clip-path="url(#a)">
<g transform="translate(1465.1 445.52) scale(.1 -.1)">
<use xlink:href="#c"/>
<use x="63.623047" xlink:href="#d"/>
<use x="95.410156" xlink:href="#c"/>
<use x="159.033203" xlink:href="#ag"/>
</g>
</g>
<g clip-path="url(#a)">
<g transform="translate(1329.4 711.79) scale(.1 -.1)">
<use xlink:href="#c"/>
<use x="63.623047" xlink:href="#d"/>
<use x="95.410156" xlink:href="#c"/>
<use x="159.033203" xlink:href="#al"/>
</g>
</g>
<g clip-path="url(#a)">
<g transform="translate(1453.3 579.01) scale(.1 -.1)">
<use xlink:href="#c"/>
<use x="63.623047" xlink:href="#d"/>
<use x="95.410156" xlink:href="#c"/>
<use x="159.033203" xlink:href="#af"/>
</g>
</g>
<g clip-path="url(#a)">
<g transform="translate(1495.5 711.79) scale(.1 -.1)">
<defs>
<path id="ao" d="m10.984 1.5156v8.9844q3.7188-1.7656 7.5156-2.6875 3.8125-0.92188 7.4844-0.92188 9.7656 0 14.906 6.5625 5.1562 6.5625 5.8906 19.953-2.8281-4.2031-7.1875-6.4531-4.3438-2.25-9.6094-2.25-10.938 0-17.312 6.6094-6.375 6.625-6.375 18.109 0 11.219 6.6406 18 6.6406 6.7969 17.672 6.7969 12.656 0 19.312-9.7031 6.6719-9.6875 6.6719-28.141 0-17.234-8.1875-27.516-8.1719-10.281-21.984-10.281-3.7188 0-7.5312 0.73438-3.7969 0.73438-7.9062 2.2031zm19.625 30.906q6.6406 0 10.516 4.5312 3.8906 4.5469 3.8906 12.469 0 7.8594-3.8906 12.422-3.875 4.5625-10.516 4.5625t-10.516-4.5625-3.875-12.422q0-7.9219 3.875-12.469 3.875-4.5312 10.516-4.5312z"/>
</defs>
<use xlink:href="#c"/>
<use x="63.623047" xlink:href="#d"/>
<use x="95.410156" xlink:href="#c"/>
<use x="159.033203" xlink:href="#ao"/>
</g>
</g>
<g clip-path="url(#a)">
<g transform="translate(1411.2 711.79) scale(.1 -.1)">
<defs>
<path id="au" d="m31.781 66.406q-7.6094 0-11.453-7.5-3.8281-7.4844-3.8281-22.531 0-14.984 3.8281-22.484 3.8438-7.5 11.453-7.5 7.6719 0 11.5 7.5 3.8438 7.5 3.8438 22.484 0 15.047-3.8438 22.531-3.8281 7.5-11.5 7.5zm0 7.8125q12.266 0 18.734-9.7031 6.4688-9.6875 6.4688-28.141 0-18.406-6.4688-28.109-6.4688-9.6875-18.734-9.6875-12.25 0-18.719 9.6875-6.4688 9.7031-6.4688 28.109 0 18.453 6.4688 28.141 6.4688 9.7031 18.719 9.7031z"/>
</defs>
<use xlink:href="#c"/>
<use x="63.623047" xlink:href="#d"/>
<use x="95.410156" xlink:href="#q"/>
<use x="159.033203" xlink:href="#au"/>
</g>
</g>
<g clip-path="url(#a)">
<g transform="translate(1028 711.79) scale(.1 -.1)">
<use xlink:href="#c"/>
<use x="63.623047" xlink:href="#d"/>
<use x="95.410156" xlink:href="#q"/>
<use x="159.033203" xlink:href="#c"/>
</g>
</g>
<g clip-path="url(#a)">
<g transform="translate(1099.5 711.79) scale(.1 -.1)">
<use xlink:href="#c"/>
<use x="63.623047" xlink:href="#d"/>
<use x="95.410156" xlink:href="#q"/>
<use x="159.033203" xlink:href="#q"/>
</g>
</g>
<g clip-path="url(#a)">
<g transform="translate(652.43 711.79) scale(.1 -.1)">
<use xlink:href="#c"/>
<use x="63.623047" xlink:href="#d"/>
<use x="95.410156" xlink:href="#q"/>
<use x="159.033203" xlink:href="#s"/>
</g>
</g>
<g clip-path="url(#a)">
<g transform="translate(708.63 711.79) scale(.1 -.1)">
<use xlink:href="#c"/>
<use x="63.623047" xlink:href="#d"/>
<use x="95.410156" xlink:href="#q"/>
<use x="159.033203" xlink:href="#p"/>
</g>
</g>
<g clip-path="url(#a)">
<g transform="translate(767.39 711.79) scale(.1 -.1)">
<use xlink:href="#c"/>
<use x="63.623047" xlink:href="#d"/>
<use x="95.410156" xlink:href="#q"/>
<use x="159.033203" xlink:href="#n"/>
</g>
</g>
<g clip-path="url(#a)">
<g transform="translate(828.7 711.79) scale(.1 -.1)">
<use xlink:href="#c"/>
<use x="63.623047" xlink:href="#d"/>
<use x="95.410156" xlink:href="#q"/>
<use x="159.033203" xlink:href="#ag"/>
</g>
</g>
<g clip-path="url(#a)">
<g transform="translate(172.16 711.79) scale(.1 -.1)">
<use xlink:href="#c"/>
<use x="63.623047" xlink:href="#d"/>
<use x="95.410156" xlink:href="#q"/>
<use x="159.033203" xlink:href="#al"/>
</g>
</g>
<g clip-path="url(#a)">
<g transform="translate(402.86 311.58) scale(.1 -.1)">
<use xlink:href="#c"/>
<use x="63.623047" xlink:href="#d"/>
<use x="95.410156" xlink:href="#q"/>
<use x="159.033203" xlink:href="#af"/>
</g>
</g>
<g clip-path="url(#a)">
<g transform="translate(320.76 445.52) scale(.1 -.1)">
<use xlink:href="#c"/>
<use x="63.623047" xlink:href="#d"/>
<use x="95.410156" xlink:href="#s"/>
<use x="159.033203" xlink:href="#c"/>
</g>
</g>
<g clip-path="url(#a)">
<g transform="translate(483.19 445.52) scale(.1 -.1)">
<use xlink:href="#c"/>
<use x="63.623047" xlink:href="#d"/>
<use x="95.410156" xlink:href="#s"/>
<use x="159.033203" xlink:href="#q"/>
</g>
</g>
<g clip-path="url(#a)">
<g transform="translate(448.06 711.79) scale(.1 -.1)">
<use xlink:href="#c"/>
<use x="63.623047" xlink:href="#d"/>
<use x="95.410156" xlink:href="#s"/>
<use x="159.033203" xlink:href="#n"/>
</g>
</g>
<g clip-path="url(#a)">
<g transform="translate(518.31 579.01) scale(.1 -.1)">
<use xlink:href="#c"/>
<use x="63.623047" xlink:href="#d"/>
<use x="95.410156" xlink:href="#s"/>
<use x="159.033203" xlink:href="#ag"/>
</g>
</g>
<g clip-path="url(#a)">
<g transform="translate(494.04 711.79) scale(.1 -.1)">
<use xlink:href="#c"/>
<use x="63.623047" xlink:href="#d"/>
<use x="95.410156" xlink:href="#s"/>
<use x="159.033203" xlink:href="#af"/>
</g>
</g>
<g clip-path="url(#a)">
<g transform="translate(542.58 711.79) scale(.1 -.1)">
<use xlink:href="#c"/>
<use x="63.623047" xlink:href="#d"/>
<use x="95.410156" xlink:href="#s"/>
<use x="159.033203" xlink:href="#ao"/>
</g>
</g>
<g clip-path="url(#a)">
<g transform="translate(273.07 579.01) scale(.1 -.1)">
<use xlink:href="#c"/>
<use x="63.623047" xlink:href="#d"/>
<use x="95.410156" xlink:href="#p"/>
<use x="159.033203" xlink:href="#au"/>
</g>
</g>
<g clip-path="url(#a)">
<g transform="translate(325.44 711.79) scale(.1 -.1)">
<use xlink:href="#c"/>
<use x="63.623047" xlink:href="#d"/>
<use x="95.410156" xlink:href="#p"/>
<use x="159.033203" xlink:href="#c"/>
</g>
</g>
<g clip-path="url(#a)">
<g transform="translate(363.76 711.79) scale(.1 -.1)">
<use xlink:href="#c"/>
<use x="63.623047" xlink:href="#d"/>
<use x="95.410156" xlink:href="#p"/>
<use x="159.033203" xlink:href="#q"/>
</g>
</g>
<g clip-path="url(#a)">
<g transform="translate(256.46 711.79) scale(.1 -.1)">
<use xlink:href="#c"/>
<use x="63.623047" xlink:href="#d"/>
<use x="95.410156" xlink:href="#p"/>
<use x="159.033203" xlink:href="#s"/>
</g>
</g>
<g clip-path="url(#a)">
<g transform="translate(289.67 711.79) scale(.1 -.1)">
<use xlink:href="#c"/>
<use x="63.623047" xlink:href="#d"/>
<use x="95.410156" xlink:href="#p"/>
<use x="159.033203" xlink:href="#p"/>
</g>
</g>
<g clip-path="url(#a)">
<g transform="translate(80.195 311.58) scale(.1 -.1)">
<use xlink:href="#c"/>
<use x="63.623047" xlink:href="#d"/>
<use x="95.410156" xlink:href="#p"/>
<use x="159.033203" xlink:href="#n"/>
</g>
</g>
<g clip-path="url(#a)">
<g transform="translate(95.523 711.79) scale(.1 -.1)">
<use xlink:href="#c"/>
<use x="63.623047" xlink:href="#d"/>
<use x="95.410156" xlink:href="#p"/>
<use x="159.033203" xlink:href="#ag"/>
</g>
</g>
<g clip-path="url(#a)">
<g transform="translate(119.79 579.01) scale(.1 -.1)">
<use xlink:href="#c"/>
<use x="63.623047" xlink:href="#d"/>
<use x="95.410156" xlink:href="#p"/>
<use x="159.033203" xlink:href="#al"/>
</g>
</g>
<g clip-path="url(#a)">
<g transform="translate(110.85 711.79) scale(.1 -.1)">
<use xlink:href="#c"/>
<use x="63.623047" xlink:href="#d"/>
<use x="95.410156" xlink:href="#p"/>
<use x="159.033203" xlink:href="#af"/>
</g>
</g>
<g clip-path="url(#a)">
<g transform="translate(128.73 711.79) scale(.1 -.1)">
<use xlink:href="#c"/>
<use x="63.623047" xlink:href="#d"/>
<use x="95.410156" xlink:href="#p"/>
<use x="159.033203" xlink:href="#ao"/>
</g>
</g>
<g clip-path="url(#a)">
<g transform="translate(77.64 445.52) scale(.1 -.1)">
<use xlink:href="#c"/>
<use x="63.623047" xlink:href="#d"/>
<use x="95.410156" xlink:href="#n"/>
<use x="159.033203" xlink:href="#au"/>
</g>
</g>
<g clip-path="url(#a)">
<g transform="translate(82.75 579.01) scale(.1 -.1)">
<use xlink:href="#c"/>
<use x="63.623047" xlink:href="#d"/>
<use x="95.410156" xlink:href="#n"/>
<use x="159.033203" xlink:href="#c"/>
</g>
</g>
<g clip-path="url(#a)">
<g transform="translate(82.75 711.79) scale(.1 -.1)">
<use xlink:href="#c"/>
<use x="63.623047" xlink:href="#d"/>
<use x="95.410156" xlink:href="#n"/>
<use x="159.033203" xlink:href="#q"/>
</g>
</g>
<g clip-path="url(#a)">
<g transform="translate(72.531 711.79) scale(.1 -.1)">
<use xlink:href="#c"/>
<use x="63.623047" xlink:href="#d"/>
<use x="95.410156" xlink:href="#n"/>
<use x="159.033203" xlink:href="#s"/>
</g>
</g>
<g clip-path="url(#a)">
<g transform="translate(197.71 711.79) scale(.1 -.1)">
<use xlink:href="#c"/>
<use x="63.623047" xlink:href="#d"/>
<use x="95.410156" xlink:href="#n"/>
<use x="159.033203" xlink:href="#p"/>
</g>
</g>
<g clip-path="url(#a)">
<g transform="translate(225.81 711.79) scale(.1 -.1)">
<use xlink:href="#c"/>
<use x="63.623047" xlink:href="#d"/>
<use x="95.410156" xlink:href="#n"/>
<use x="159.033203" xlink:href="#n"/>
</g>
</g>
<g clip-path="url(#a)">
<g transform="translate(404.63 711.79) scale(.1 -.1)">
<use xlink:href="#c"/>
<use x="63.623047" xlink:href="#d"/>
<use x="95.410156" xlink:href="#n"/>
<use x="159.033203" xlink:href="#ag"/>
</g>
</g>
<g clip-path="url(#a)">
<g transform="translate(598.78 711.79) scale(.1 -.1)">
<use xlink:href="#c"/>
<use x="63.623047" xlink:href="#d"/>
<use x="95.410156" xlink:href="#n"/>
<use x="159.033203" xlink:href="#al"/>
</g>
</g>
<g clip-path="url(#a)">
<g transform="translate(892.56 711.79) scale(.1 -.1)">
<use xlink:href="#c"/>
<use x="63.623047" xlink:href="#d"/>
<use x="95.410156" xlink:href="#n"/>
<use x="159.033203" xlink:href="#af"/>
</g>
</g>
<g clip-path="url(#a)">
<g transform="translate(1582.3 711.79) scale(.1 -.1)">
<use xlink:href="#c"/>
<use x="63.623047" xlink:href="#d"/>
<use x="95.410156" xlink:href="#n"/>
<use x="159.033203" xlink:href="#ao"/>
</g>
</g>
<defs>
<clipPath id="a">
<rect width="1672" height="880"/>
</clipPath>
</defs>
</svg>
