<?xml version="1.0" encoding="UTF-8"?>
<!DOCTYPE svg  PUBLIC '-//W3C//DTD SVG 1.1//EN'  'http://www.w3.org/Graphics/SVG/1.1/DTD/svg11.dtd'>
<svg width="709.33pt" height="373.33pt" version="1.1" viewBox="0 0 709.33 373.33" xmlns="http://www.w3.org/2000/svg" xmlns:xlink="http://www.w3.org/1999/xlink">
<metadata>
<rdf:RDF xmlns:cc="http://creativecommons.org/ns#" xmlns:dc="http://purl.org/dc/elements/1.1/" xmlns:rdf="http://www.w3.org/1999/02/22-rdf-syntax-ns#">
<cc:Work>
<dc:type rdf:resource="http://purl.org/dc/dcmitype/StillImage"/>
<dc:date>2021-02-01T11:26:23.943517</dc:date>
<dc:format>image/svg+xml</dc:format>
<dc:creator>
<cc:Agent>
<dc:title>Matplotlib v3.3.3, https://matplotlib.org/</dc:title>
</cc:Agent>
</dc:creator>
</cc:Work>
</rdf:RDF>
</metadata>
<defs>
<style type="text/css">*{stroke-linecap:butt;stroke-linejoin:round;}</style>
</defs>
<path d="m0 373.33h709.33v-373.33h-709.33z" fill="#fff"/>
<g fill="none" stroke="#000">
<path d="m194.27 16.97v57.081" clip-path="url(#a)"/>
<path d="m194.27 74.051 92.533 56.966" clip-path="url(#a)"/>
<path d="m194.27 74.051-62.823 226.75" clip-path="url(#a)"/>
<path d="m194.27 74.051-24.242 226.75" clip-path="url(#a)"/>
<path d="m194.27 74.051 19.85 226.75" clip-path="url(#a)"/>
<path d="m194.27 74.051-123.45 226.75" clip-path="url(#a)"/>
<path d="m194.27 74.051-95.892 226.75" clip-path="url(#a)"/>
<path d="m194.27 74.051 69.454 226.75" clip-path="url(#a)"/>
<path d="m194.27 74.051 124.57 226.75" clip-path="url(#a)"/>
<path d="m286.81 131.02-246.3 113.45" clip-path="url(#a)"/>
<path d="m286.81 131.02 246.3 56.822" clip-path="url(#a)"/>
<path d="m131.45 300.8v55.561" clip-path="url(#a)"/>
<path d="m170.03 300.8v55.561" clip-path="url(#a)"/>
<path d="m214.12 300.8v55.561" clip-path="url(#a)"/>
<path d="m40.51 244.47-8.2673 56.334" clip-path="url(#a)"/>
<path d="m40.51 244.47 8.2673 56.334" clip-path="url(#a)"/>
<path d="m533.1 187.84-153.63 112.96" clip-path="url(#a)"/>
<path d="m533.1 187.84-51.671 56.63" clip-path="url(#a)"/>
<path d="m533.1 187.84 61.316 112.96" clip-path="url(#a)"/>
<path d="m533.1 187.84 143.99 112.96" clip-path="url(#a)"/>
<path d="m379.47 300.8v55.561" clip-path="url(#a)"/>
<path d="m481.43 244.47-35.825 56.334" clip-path="url(#a)"/>
<path d="m481.43 244.47 35.825 56.334" clip-path="url(#a)"/>
<path d="m594.42 300.8v55.561" clip-path="url(#a)"/>
<path d="m445.61 300.8v55.561" clip-path="url(#a)"/>
<path d="m517.26 300.8v55.561" clip-path="url(#a)"/>
<path d="m32.242 300.8v55.561" clip-path="url(#a)"/>
<path d="m48.777 300.8v55.561" clip-path="url(#a)"/>
<path d="m70.823 300.8v55.561" clip-path="url(#a)"/>
<path d="m98.381 300.8v55.561" clip-path="url(#a)"/>
<path d="m263.73 300.8v55.561" clip-path="url(#a)"/>
<path d="m318.84 300.8v55.561" clip-path="url(#a)"/>
<path d="m677.09 300.8v55.561" clip-path="url(#a)"/>
</g>
<path d="m188 42.502v6.0162q0 2.4 2.4 2.4h7.7425q2.4 0 2.4-2.4v-6.0162q0-2.4-2.4-2.4h-7.7425q-2.4 0-2.4 2.4z" clip-path="url(#a)" fill="#fff" stroke="#fff"/>
<g clip-path="url(#a)">
<g transform="translate(192.07 42.502) rotate(90) scale(.08 -.08)">
<defs>
<path id="z" d="m9.8125 72.906h9.8594v-29.891h35.844v29.891h9.8594v-72.906h-9.8594v34.719h-35.844v-34.719h-9.8594z"/>
</defs>
<use xlink:href="#z"/>
</g>
</g>
<path d="m234.92 106.44 4.6602 2.8689q2.0438 1.2582 3.302-0.78556l4.059-6.5933q1.2582-2.0438-0.78557-3.302l-4.6602-2.8689q-2.0438-1.2582-3.302 0.78557l-4.059 6.5933q-1.2582 2.0438 0.78557 3.302z" clip-path="url(#a)" fill="#fff" stroke="#fff"/>
<g clip-path="url(#a)">
<g transform="translate(237.05 102.98) rotate(31.618) scale(.08 -.08)">
<defs>
<path id="q" d="m34.188 63.188-13.391-36.281h26.812zm-5.5781 9.7188h11.188l27.781-72.906h-10.25l-6.6406 18.703h-32.859l-6.6406-18.703h-10.406z"/>
</defs>
<use xlink:href="#q"/>
</g>
</g>
<path d="m168.26 191.43 1.2879-4.6486q0.64079-2.3129-1.6721-2.9537l-7.4614-2.0672q-2.3129-0.64079-2.9537 1.6721l-1.2879 4.6486q-0.64079 2.3129 1.6721 2.9537l7.4614 2.0672q2.3129 0.64079 2.9537-1.6721z" clip-path="url(#a)" fill="#fff" stroke="#fff"/>
<g clip-path="url(#a)">
<g transform="translate(164.34 190.34) rotate(-74.514) scale(.08 -.08)">
<defs>
<path id="y" d="m19.672 64.797v-27.391h12.406q6.8906 0 10.641 3.5625 3.7656 3.5625 3.7656 10.156 0 6.5469-3.7656 10.109-3.75 3.5625-10.641 3.5625zm-9.8594 8.1094h22.266q12.266 0 18.531-5.5469 6.2812-5.5469 6.2812-16.234 0-10.797-6.2812-16.312-6.2656-5.5156-18.531-5.5156h-12.406v-29.297h-9.8594z"/>
</defs>
<use xlink:href="#y"/>
</g>
</g>
<path d="m188.1 190.81 0.58175-5.4415q0.25513-2.3864-2.1313-2.6415l-7.6986-0.82306q-2.3864-0.25513-2.6415 2.1313l-0.58175 5.4415q-0.25513 2.3864 2.1313 2.6415l7.6986 0.82306q2.3864 0.25513 2.6415-2.1313z" clip-path="url(#a)" fill="#fff" stroke="#fff"/>
<g clip-path="url(#a)">
<g transform="translate(184.06 190.38) rotate(-83.898) scale(.08 -.08)">
<use xlink:href="#q"/>
</g>
</g>
<path d="m197.71 185.25 0.47724 5.4517q0.2093 2.3909 2.6002 2.1816l7.713-0.6752q2.3909-0.2093 2.1816-2.6002l-0.47724-5.4517q-0.2093-2.3909-2.6002-2.1816l-7.713 0.6752q-2.3909 0.2093-2.1816 2.6002z" clip-path="url(#a)" fill="#fff" stroke="#fff"/>
<g clip-path="url(#a)">
<g transform="translate(201.76 184.89) rotate(84.997) scale(.08 -.08)">
<use xlink:href="#q"/>
</g>
</g>
<path d="m136.66 193 2.7996-5.1423q1.1476-2.1079-0.96029-3.2554l-6.8-3.7021q-2.1079-1.1476-3.2554 0.96029l-2.7996 5.1423q-1.1476 2.1079 0.96029 3.2554l6.8 3.7021q2.1079 1.1476 3.2554-0.96029z" clip-path="url(#a)" fill="#fff" stroke="#fff"/>
<g clip-path="url(#a)">
<g transform="translate(133.09 191.05) rotate(-61.435) scale(.08 -.08)">
<defs>
<path id="n" d="m8.6875 72.906h9.9219v-44.297q0-11.719 4.2344-16.875 4.25-5.1406 13.781-5.1406 9.4688 0 13.719 5.1406 4.25 5.1562 4.25 16.875v44.297h9.9062v-45.516q0-14.25-7.0625-21.531-7.0469-7.2812-20.812-7.2812-13.828 0-20.891 7.2812-7.0469 7.2812-7.0469 21.531z"/>
</defs>
<use xlink:href="#n"/>
</g>
</g>
<path d="m150.96 192.57 2.2805-5.3926q0.93479-2.2105-1.2757-3.1453l-7.1311-3.0157q-2.2105-0.93479-3.1453 1.2757l-2.2805 5.3926q-0.93479 2.2105 1.2757 3.1453l7.1311 3.0157q2.2105 0.93479 3.1453-1.2757z" clip-path="url(#a)" fill="#fff" stroke="#fff"/>
<g clip-path="url(#a)">
<g transform="translate(147.22 190.98) rotate(-67.077) scale(.08 -.08)">
<use xlink:href="#n"/>
</g>
</g>
<path d="m222.15 186.46 1.7147 5.5983q0.70288 2.2948 2.9977 1.5919l7.403-2.2675q2.2948-0.70288 1.5919-2.9977l-1.7147-5.5983q-0.70288-2.2948-2.9977-1.5919l-7.403 2.2675q-2.2948 0.70288-1.5919 2.9977z" clip-path="url(#a)" fill="#fff" stroke="#fff"/>
<g clip-path="url(#a)">
<g transform="translate(226.03 185.27) rotate(72.97) scale(.08 -.08)">
<use xlink:href="#n"/>
</g>
</g>
<path d="m249.65 187.88 2.8191 5.1316q1.1556 2.1035 3.2591 0.94791l6.7859-3.7279q2.1035-1.1556 0.94791-3.2591l-2.8191-5.1316q-1.1556-2.1035-3.2591-0.94791l-6.7859 3.7279q-2.1035 1.1556-0.94791 3.2591z" clip-path="url(#a)" fill="#fff" stroke="#fff"/>
<g clip-path="url(#a)">
<g transform="translate(253.21 185.92) rotate(61.217) scale(.08 -.08)">
<use xlink:href="#n"/>
</g>
</g>
<path d="m163.47 194.74 5.6302-2.5934q2.1799-1.0041 1.1757-3.184l-3.2393-7.0323q-1.0041-2.1799-3.184-1.1757l-5.6302 2.5934q-2.1799 1.0041-1.1757 3.184l3.2393 7.0323q1.0041 2.1799 3.184 1.1757z" clip-path="url(#a)" fill="#fff" stroke="#fff"/>
<g clip-path="url(#a)">
<g transform="translate(161.77 191.04) rotate(-24.732) scale(.08 -.08)">
<defs>
<path id="ah" d="m59.516 10.406v19.578h-16.109v8.1094h25.875v-31.312q-5.7031-4.0469-12.594-6.125-6.875-2.0781-14.688-2.0781-17.094 0-26.75 9.9844-9.6406 10-9.6406 27.812 0 17.875 9.6406 27.859 9.6562 9.9844 26.75 9.9844 7.125 0 13.547-1.7656 6.4219-1.75 11.844-5.1719v-10.5q-5.4688 4.6406-11.625 6.9844t-12.938 2.3438q-13.391 0-20.109-7.4688-6.7031-7.4688-6.7031-22.266 0-14.75 6.7031-22.219 6.7188-7.4688 20.109-7.4688 5.2188 0 9.3125 0.90625 4.1094 0.90625 7.375 2.8125z"/>
</defs>
<use xlink:href="#ah"/>
</g>
</g>
<path d="m405.61 164.86 5.8623 1.3525q2.3386 0.53952 2.8781-1.799l1.7405-7.5443q0.53952-2.3386-1.799-2.8781l-5.8623-1.3525q-2.3386-0.53952-2.8781 1.799l-1.7405 7.5443q-0.53952 2.3386 1.799 2.8781z" clip-path="url(#a)" fill="#fff" stroke="#fff"/>
<g clip-path="url(#a)">
<g transform="translate(406.53 160.9) rotate(12.991) scale(.08 -.08)">
<use xlink:href="#z"/>
</g>
</g>
<path d="m125.18 311.68v33.808q0 2.4 2.4 2.4h7.7425q2.4 0 2.4-2.4v-33.808q0-2.4-2.4-2.4h-7.7425q-2.4 0-2.4 2.4z" clip-path="url(#a)" fill="#fff" stroke="#fff"/>
<g clip-path="url(#a)">
<g transform="translate(129.24 311.68) rotate(90) scale(.08 -.08)">
<defs>
<path id="f" d="m-0.29688 72.906h61.672v-8.3125h-25.875v-64.594h-9.9062v64.594h-25.891z"/>
<path id="l" d="m56.203 29.594v-4.3906h-41.312q0.59375-9.2812 5.5938-14.141t13.938-4.8594q5.1719 0 10.031 1.2656t9.6562 3.8125v-8.5q-4.8438-2.0469-9.9219-3.125t-10.297-1.0781q-13.094 0-20.734 7.6094-7.6406 7.625-7.6406 20.625 0 13.422 7.25 21.297 7.25 7.8906 19.562 7.8906 11.031 0 17.453-7.1094 6.4219-7.0938 6.4219-19.297zm-8.9844 2.6406q-0.09375 7.3594-4.125 11.75-4.0312 4.4062-10.672 4.4062-7.5156 0-12.031-4.25t-5.2031-11.969z"/>
<path id="g" d="m41.109 46.297q-1.5156 0.875-3.2969 1.2812-1.7812 0.42188-3.9219 0.42188-7.625 0-11.703-4.9531t-4.0781-14.234v-28.812h-9.0312v54.688h9.0312v-8.5q2.8438 4.9844 7.375 7.3906 4.5469 2.4219 11.047 2.4219 0.92188 0 2.0469-0.125 1.125-0.10938 2.4844-0.35938z"/>
<path id="i" d="m52 44.188q3.375 6.0625 8.0625 8.9375t11.031 2.875q8.5469 0 13.188-5.9844 4.6406-5.9688 4.6406-17v-33.016h-9.0312v32.719q0 7.8594-2.7969 11.656-2.7812 3.8125-8.4844 3.8125-6.9844 0-11.047-4.6406-4.0469-4.625-4.0469-12.641v-30.906h-9.0312v32.719q0 7.9062-2.7812 11.688t-8.5938 3.7812q-6.8906 0-10.953-4.6562-4.0469-4.6562-4.0469-12.625v-30.906h-9.0312v54.688h9.0312v-8.5q3.0781 5.0312 7.375 7.4219t10.203 2.3906q5.9688 0 10.141-3.0312 4.1719-3.0156 6.1719-8.7812z"/>
<path id="k" d="m9.4219 54.688h8.9844v-54.688h-8.9844zm0 21.297h8.9844v-11.391h-8.9844z"/>
<path id="h" d="m54.891 33.016v-33.016h-8.9844v32.719q0 7.7656-3.0312 11.609-3.0312 3.8594-9.0781 3.8594-7.2812 0-11.484-4.6406-4.2031-4.625-4.2031-12.641v-30.906h-9.0312v54.688h9.0312v-8.5q3.2344 4.9375 7.5938 7.375 4.375 2.4375 10.094 2.4375 9.4219 0 14.25-5.8281 4.8438-5.8281 4.8438-17.156z"/>
<path id="e" d="m34.281 27.484q-10.891 0-15.094-2.4844t-4.2031-8.5q0-4.7812 3.1562-7.5938 3.1562-2.7969 8.5625-2.7969 7.4844 0 12 5.2969t4.5156 14.078v2zm17.922 3.7188v-31.203h-8.9844v8.2969q-3.0781-4.9688-7.6719-7.3438t-11.234-2.375q-8.3906 0-13.359 4.7188-4.9531 4.7188-4.9531 12.625 0 9.2188 6.1719 13.906 6.1875 4.6875 18.438 4.6875h12.609v0.89062q0 6.2031-4.0781 9.5938t-11.453 3.3906q-4.6875 0-9.1406-1.125-4.4375-1.125-8.5312-3.375v8.3125q4.9219 1.9062 9.5625 2.8438 4.6406 0.95312 9.0312 0.95312 11.875 0 17.734-6.1562 5.8594-6.1406 5.8594-18.641z"/>
<path id="j" d="m9.4219 75.984h8.9844v-75.984h-8.9844z"/>
</defs>
<use xlink:href="#f"/>
<use x="44.083984" xlink:href="#l"/>
<use x="105.607422" xlink:href="#g"/>
<use x="144.970703" xlink:href="#i"/>
<use x="242.382812" xlink:href="#k"/>
<use x="270.166016" xlink:href="#h"/>
<use x="333.544922" xlink:href="#e"/>
<use x="394.824219" xlink:href="#j"/>
</g>
</g>
<path d="m163.76 311.68v33.808q0 2.4 2.4 2.4h7.7425q2.4 0 2.4-2.4v-33.808q0-2.4-2.4-2.4h-7.7425q-2.4 0-2.4 2.4z" clip-path="url(#a)" fill="#fff" stroke="#fff"/>
<g clip-path="url(#a)">
<g transform="translate(167.82 311.68) rotate(90) scale(.08 -.08)">
<use xlink:href="#f"/>
<use x="44.083984" xlink:href="#l"/>
<use x="105.607422" xlink:href="#g"/>
<use x="144.970703" xlink:href="#i"/>
<use x="242.382812" xlink:href="#k"/>
<use x="270.166016" xlink:href="#h"/>
<use x="333.544922" xlink:href="#e"/>
<use x="394.824219" xlink:href="#j"/>
</g>
</g>
<path d="m207.85 311.68v33.808q0 2.4 2.4 2.4h7.7425q2.4 0 2.4-2.4v-33.808q0-2.4-2.4-2.4h-7.7425q-2.4 0-2.4 2.4z" clip-path="url(#a)" fill="#fff" stroke="#fff"/>
<g clip-path="url(#a)">
<g transform="translate(211.92 311.68) rotate(90) scale(.08 -.08)">
<use xlink:href="#f"/>
<use x="44.083984" xlink:href="#l"/>
<use x="105.607422" xlink:href="#g"/>
<use x="144.970703" xlink:href="#i"/>
<use x="242.382812" xlink:href="#k"/>
<use x="270.166016" xlink:href="#h"/>
<use x="333.544922" xlink:href="#e"/>
<use x="394.824219" xlink:href="#j"/>
</g>
</g>
<path d="m42.175 276.31 0.81112-5.527q0.34848-2.3746-2.0261-2.723l-7.6604-1.1242q-2.3746-0.34848-2.723 2.0261l-0.81112 5.527q-0.34848 2.3746 2.0261 2.723l7.6604 1.1242q2.3746 0.34848 2.723-2.0261z" clip-path="url(#a)" fill="#fff" stroke="#fff"/>
<g clip-path="url(#a)">
<g transform="translate(38.155 275.72) rotate(-81.651) scale(.08 -.08)">
<defs>
<path id="p" d="m64.406 67.281v-10.391q-4.9844 4.6406-10.625 6.9219-5.6406 2.2969-11.984 2.2969-12.5 0-19.141-7.6406t-6.6406-22.094q0-14.406 6.6406-22.047t19.141-7.6406q6.3438 0 11.984 2.2969t10.625 6.9375v-10.312q-5.1719-3.5156-10.969-5.2812-5.7812-1.75-12.219-1.75-16.562 0-26.094 10.125-9.5156 10.141-9.5156 27.672 0 17.578 9.5156 27.703 9.5312 10.141 26.094 10.141 6.5312 0 12.312-1.7344 5.7969-1.7344 10.875-5.2031z"/>
</defs>
<use xlink:href="#p"/>
</g>
</g>
<path d="m38.033 270.78 0.81112 5.527q0.34848 2.3746 2.723 2.0261l7.6604-1.1242q2.3746-0.34848 2.0261-2.723l-0.81112-5.527q-0.34848-2.3746-2.723-2.0261l-7.6604 1.1242q-2.3746 0.34848-2.0261 2.723z" clip-path="url(#a)" fill="#fff" stroke="#fff"/>
<g clip-path="url(#a)">
<g transform="translate(42.054 270.19) rotate(81.651) scale(.08 -.08)">
<use xlink:href="#p"/>
</g>
</g>
<path d="m457.8 250.99 4.409-3.2418q1.9336-1.4217 0.51186-3.3553l-4.5865-6.2378q-1.4217-1.9336-3.3553-0.51186l-4.409 3.2418q-1.9336 1.4217-0.51186 3.3553l4.5865 6.2378q1.4217 1.9336 3.3553 0.51186z" clip-path="url(#a)" fill="#fff" stroke="#fff"/>
<g clip-path="url(#a)">
<g transform="translate(455.39 247.72) rotate(-36.326) scale(.08 -.08)">
<use xlink:href="#q"/>
</g>
</g>
<path d="m509.82 222.66 4.152-4.5505q1.6177-1.7729-0.15525-3.3906l-5.7195-5.2186q-1.7729-1.6177-3.3906 0.15525l-4.152 4.5505q-1.6177 1.7729 0.15525 3.3906l5.7195 5.2186q1.7729 1.6177 3.3906-0.15525z" clip-path="url(#a)" fill="#fff" stroke="#fff"/>
<g clip-path="url(#a)">
<g transform="translate(506.82 219.92) rotate(-47.622) scale(.08 -.08)">
<defs>
<path id="ai" d="m19.672 64.797v-56.688h11.922q15.094 0 22.094 6.8281 7 6.8438 7 21.594 0 14.641-7 21.453t-22.094 6.8125zm-9.8594 8.1094h20.266q21.188 0 31.094-8.8125 9.9219-8.8125 9.9219-27.562 0-18.859-9.9688-27.703-9.9531-8.8281-31.047-8.8281h-20.266z"/>
</defs>
<use xlink:href="#ai"/>
</g>
</g>
<path d="m557.1 245.19 2.3012 4.2395q1.1449 2.1093 3.2542 0.96439l6.8047-3.6935q2.1093-1.1449 0.96439-3.2542l-2.3012-4.2395q-1.1449-2.1093-3.2542-0.96439l-6.8047 3.6935q-2.1093 1.1449-0.96439 3.2542z" clip-path="url(#a)" fill="#fff" stroke="#fff"/>
<g clip-path="url(#a)">
<g transform="translate(560.67 243.25) rotate(61.507) scale(.08 -.08)">
<use xlink:href="#y"/>
</g>
</g>
<path d="m598.92 247.45 4.6065 3.614q1.8882 1.4814 3.3696-0.40686l4.779-6.0916q1.4814-1.8882-0.40686-3.3696l-4.6065-3.614q-1.8882-1.4814-3.3696 0.40686l-4.779 6.0916q-1.4814 1.8882 0.40686 3.3696z" clip-path="url(#a)" fill="#fff" stroke="#fff"/>
<g clip-path="url(#a)">
<g transform="translate(601.43 244.25) rotate(38.115) scale(.08 -.08)">
<use xlink:href="#n"/>
</g>
</g>
<path d="m373.2 311.68v33.808q0 2.4 2.4 2.4h7.7425q2.4 0 2.4-2.4v-33.808q0-2.4-2.4-2.4h-7.7425q-2.4 0-2.4 2.4z" clip-path="url(#a)" fill="#fff" stroke="#fff"/>
<g clip-path="url(#a)">
<g transform="translate(377.26 311.68) rotate(90) scale(.08 -.08)">
<use xlink:href="#f"/>
<use x="44.083984" xlink:href="#l"/>
<use x="105.607422" xlink:href="#g"/>
<use x="144.970703" xlink:href="#i"/>
<use x="242.382812" xlink:href="#k"/>
<use x="270.166016" xlink:href="#h"/>
<use x="333.544922" xlink:href="#e"/>
<use x="394.824219" xlink:href="#j"/>
</g>
</g>
<path d="m467.31 278.36 2.9977-4.7138q1.2879-2.0252-0.73729-3.3131l-6.5333-4.1548q-2.0252-1.2879-3.3131 0.73729l-2.9977 4.7138q-1.2879 2.0252 0.73729 3.3131l6.5333 4.1548q2.0252 1.2879 3.3131-0.73729z" clip-path="url(#a)" fill="#fff" stroke="#fff"/>
<g clip-path="url(#a)">
<g transform="translate(463.88 276.18) rotate(-57.546) scale(.08 -.08)">
<use xlink:href="#p"/>
</g>
</g>
<path d="m492.55 273.64 2.9977 4.7138q1.2879 2.0252 3.3131 0.73729l6.5333-4.1548q2.0252-1.2879 0.73729-3.3131l-2.9977-4.7138q-1.2879-2.0252-3.3131-0.73729l-6.5333 4.1548q-2.0252 1.2879-0.73729 3.3131z" clip-path="url(#a)" fill="#fff" stroke="#fff"/>
<g clip-path="url(#a)">
<g transform="translate(495.98 271.46) rotate(57.546) scale(.08 -.08)">
<use xlink:href="#p"/>
</g>
</g>
<path d="m588.15 311.68v33.808q0 2.4 2.4 2.4h7.7425q2.4 0 2.4-2.4v-33.808q0-2.4-2.4-2.4h-7.7425q-2.4 0-2.4 2.4z" clip-path="url(#a)" fill="#fff" stroke="#fff"/>
<g clip-path="url(#a)">
<g transform="translate(592.21 311.68) rotate(90) scale(.08 -.08)">
<use xlink:href="#f"/>
<use x="44.083984" xlink:href="#l"/>
<use x="105.607422" xlink:href="#g"/>
<use x="144.970703" xlink:href="#i"/>
<use x="242.382812" xlink:href="#k"/>
<use x="270.166016" xlink:href="#h"/>
<use x="333.544922" xlink:href="#e"/>
<use x="394.824219" xlink:href="#j"/>
</g>
</g>
<path d="m439.34 311.68v33.808q0 2.4 2.4 2.4h7.7425q2.4 0 2.4-2.4v-33.808q0-2.4-2.4-2.4h-7.7425q-2.4 0-2.4 2.4z" clip-path="url(#a)" fill="#fff" stroke="#fff"/>
<g clip-path="url(#a)">
<g transform="translate(443.4 311.68) rotate(90) scale(.08 -.08)">
<use xlink:href="#f"/>
<use x="44.083984" xlink:href="#l"/>
<use x="105.607422" xlink:href="#g"/>
<use x="144.970703" xlink:href="#i"/>
<use x="242.382812" xlink:href="#k"/>
<use x="270.166016" xlink:href="#h"/>
<use x="333.544922" xlink:href="#e"/>
<use x="394.824219" xlink:href="#j"/>
</g>
</g>
<path d="m510.99 311.68v33.808q0 2.4 2.4 2.4h7.7425q2.4 0 2.4-2.4v-33.808q0-2.4-2.4-2.4h-7.7425q-2.4 0-2.4 2.4z" clip-path="url(#a)" fill="#fff" stroke="#fff"/>
<g clip-path="url(#a)">
<g transform="translate(515.05 311.68) rotate(90) scale(.08 -.08)">
<use xlink:href="#f"/>
<use x="44.083984" xlink:href="#l"/>
<use x="105.607422" xlink:href="#g"/>
<use x="144.970703" xlink:href="#i"/>
<use x="242.382812" xlink:href="#k"/>
<use x="270.166016" xlink:href="#h"/>
<use x="333.544922" xlink:href="#e"/>
<use x="394.824219" xlink:href="#j"/>
</g>
</g>
<path d="m25.971 311.68v33.808q0 2.4 2.4 2.4h7.7425q2.4 0 2.4-2.4v-33.808q0-2.4-2.4-2.4h-7.7425q-2.4 0-2.4 2.4z" clip-path="url(#a)" fill="#fff" stroke="#fff"/>
<g clip-path="url(#a)">
<g transform="translate(30.035 311.68) rotate(90) scale(.08 -.08)">
<use xlink:href="#f"/>
<use x="44.083984" xlink:href="#l"/>
<use x="105.607422" xlink:href="#g"/>
<use x="144.970703" xlink:href="#i"/>
<use x="242.382812" xlink:href="#k"/>
<use x="270.166016" xlink:href="#h"/>
<use x="333.544922" xlink:href="#e"/>
<use x="394.824219" xlink:href="#j"/>
</g>
</g>
<path d="m42.506 311.68v33.808q0 2.4 2.4 2.4h7.7425q2.4 0 2.4-2.4v-33.808q0-2.4-2.4-2.4h-7.7425q-2.4 0-2.4 2.4z" clip-path="url(#a)" fill="#fff" stroke="#fff"/>
<g clip-path="url(#a)">
<g transform="translate(46.57 311.68) rotate(90) scale(.08 -.08)">
<use xlink:href="#f"/>
<use x="44.083984" xlink:href="#l"/>
<use x="105.607422" xlink:href="#g"/>
<use x="144.970703" xlink:href="#i"/>
<use x="242.382812" xlink:href="#k"/>
<use x="270.166016" xlink:href="#h"/>
<use x="333.544922" xlink:href="#e"/>
<use x="394.824219" xlink:href="#j"/>
</g>
</g>
<path d="m64.552 311.68v33.808q0 2.4 2.4 2.4h7.7425q2.4 0 2.4-2.4v-33.808q0-2.4-2.4-2.4h-7.7425q-2.4 0-2.4 2.4z" clip-path="url(#a)" fill="#fff" stroke="#fff"/>
<g clip-path="url(#a)">
<g transform="translate(68.616 311.68) rotate(90) scale(.08 -.08)">
<use xlink:href="#f"/>
<use x="44.083984" xlink:href="#l"/>
<use x="105.607422" xlink:href="#g"/>
<use x="144.970703" xlink:href="#i"/>
<use x="242.382812" xlink:href="#k"/>
<use x="270.166016" xlink:href="#h"/>
<use x="333.544922" xlink:href="#e"/>
<use x="394.824219" xlink:href="#j"/>
</g>
</g>
<path d="m92.109 311.68v33.808q0 2.4 2.4 2.4h7.7425q2.4 0 2.4-2.4v-33.808q0-2.4-2.4-2.4h-7.7425q-2.4 0-2.4 2.4z" clip-path="url(#a)" fill="#fff" stroke="#fff"/>
<g clip-path="url(#a)">
<g transform="translate(96.173 311.68) rotate(90) scale(.08 -.08)">
<use xlink:href="#f"/>
<use x="44.083984" xlink:href="#l"/>
<use x="105.607422" xlink:href="#g"/>
<use x="144.970703" xlink:href="#i"/>
<use x="242.382812" xlink:href="#k"/>
<use x="270.166016" xlink:href="#h"/>
<use x="333.544922" xlink:href="#e"/>
<use x="394.824219" xlink:href="#j"/>
</g>
</g>
<path d="m257.46 311.68v33.808q0 2.4 2.4 2.4h7.7425q2.4 0 2.4-2.4v-33.808q0-2.4-2.4-2.4h-7.7425q-2.4 0-2.4 2.4z" clip-path="url(#a)" fill="#fff" stroke="#fff"/>
<g clip-path="url(#a)">
<g transform="translate(261.52 311.68) rotate(90) scale(.08 -.08)">
<use xlink:href="#f"/>
<use x="44.083984" xlink:href="#l"/>
<use x="105.607422" xlink:href="#g"/>
<use x="144.970703" xlink:href="#i"/>
<use x="242.382812" xlink:href="#k"/>
<use x="270.166016" xlink:href="#h"/>
<use x="333.544922" xlink:href="#e"/>
<use x="394.824219" xlink:href="#j"/>
</g>
</g>
<path d="m312.57 311.68v33.808q0 2.4 2.4 2.4h7.7425q2.4 0 2.4-2.4v-33.808q0-2.4-2.4-2.4h-7.7425q-2.4 0-2.4 2.4z" clip-path="url(#a)" fill="#fff" stroke="#fff"/>
<g clip-path="url(#a)">
<g transform="translate(316.63 311.68) rotate(90) scale(.08 -.08)">
<use xlink:href="#f"/>
<use x="44.083984" xlink:href="#l"/>
<use x="105.607422" xlink:href="#g"/>
<use x="144.970703" xlink:href="#i"/>
<use x="242.382812" xlink:href="#k"/>
<use x="270.166016" xlink:href="#h"/>
<use x="333.544922" xlink:href="#e"/>
<use x="394.824219" xlink:href="#j"/>
</g>
</g>
<path d="m670.82 311.68v33.808q0 2.4 2.4 2.4h7.7425q2.4 0 2.4-2.4v-33.808q0-2.4-2.4-2.4h-7.7425q-2.4 0-2.4 2.4z" clip-path="url(#a)" fill="#fff" stroke="#fff"/>
<g clip-path="url(#a)">
<g transform="translate(674.88 311.68) rotate(90) scale(.08 -.08)">
<use xlink:href="#f"/>
<use x="44.083984" xlink:href="#l"/>
<use x="105.607422" xlink:href="#g"/>
<use x="144.970703" xlink:href="#i"/>
<use x="242.382812" xlink:href="#k"/>
<use x="270.166016" xlink:href="#h"/>
<use x="333.544922" xlink:href="#e"/>
<use x="394.824219" xlink:href="#j"/>
</g>
</g>
<defs>
<path id="b" d="m0 8.6603c2.2967 0 4.4997-0.9125 6.1237-2.5365 1.624-1.624 2.5365-3.827 2.5365-6.1237s-0.9125-4.4997-2.5365-6.1237c-1.624-1.624-3.827-2.5365-6.1237-2.5365s-4.4997 0.9125-6.1237 2.5365c-1.624 1.624-2.5365 3.827-2.5365 6.1237s0.9125 4.4997 2.5365 6.1237c1.624 1.624 3.827 2.5365 6.1237 2.5365z"/>
</defs>
<g clip-path="url(#a)" fill="#ffffff" stroke="#ffffff">
<use x="32.242424" y="356.363636" xlink:href="#b"/>
<use x="48.777001" y="356.363636" xlink:href="#b"/>
<use x="70.823103" y="356.363636" xlink:href="#b"/>
<use x="98.38073" y="356.363636" xlink:href="#b"/>
<use x="131.449883" y="356.363636" xlink:href="#b"/>
<use x="170.030562" y="356.363636" xlink:href="#b"/>
<use x="214.122766" y="356.363636" xlink:href="#b"/>
<use x="263.726496" y="356.363636" xlink:href="#b"/>
<use x="318.841751" y="356.363636" xlink:href="#b"/>
<use x="379.468531" y="356.363636" xlink:href="#b"/>
<use x="445.606838" y="356.363636" xlink:href="#b"/>
<use x="517.256669" y="356.363636" xlink:href="#b"/>
<use x="594.418026" y="356.363636" xlink:href="#b"/>
<use x="677.090909" y="356.363636" xlink:href="#b"/>
<use x="194.272663" y="16.969697" xlink:href="#b"/>
<use x="194.272663" y="74.050541" xlink:href="#b"/>
<use x="286.806009" y="131.016569" xlink:href="#b"/>
<use x="131.449883" y="300.802474" xlink:href="#b"/>
<use x="170.030562" y="300.802474" xlink:href="#b"/>
<use x="214.122766" y="300.802474" xlink:href="#b"/>
<use x="40.509713" y="244.468395" xlink:href="#b"/>
<use x="533.102305" y="187.838849" xlink:href="#b"/>
<use x="379.468531" y="300.802474" xlink:href="#b"/>
<use x="481.431753" y="244.468395" xlink:href="#b"/>
<use x="594.418026" y="300.802474" xlink:href="#b"/>
<use x="445.606838" y="300.802474" xlink:href="#b"/>
<use x="517.256669" y="300.802474" xlink:href="#b"/>
<use x="32.242424" y="300.802474" xlink:href="#b"/>
<use x="48.777001" y="300.802474" xlink:href="#b"/>
<use x="70.823103" y="300.802474" xlink:href="#b"/>
<use x="98.38073" y="300.802474" xlink:href="#b"/>
<use x="263.726496" y="300.802474" xlink:href="#b"/>
<use x="318.841751" y="300.802474" xlink:href="#b"/>
<use x="677.090909" y="300.802474" xlink:href="#b"/>
</g>
<g clip-path="url(#a)">
<g transform="translate(25.523 359.12) scale(.1 -.1)">
<defs>
<path id="au" d="m9.8125 72.906h9.8594v-29.891h35.844v29.891h9.8594v-72.906h-9.8594v34.719h-35.844v-34.719h-9.8594z"/>
<path id="u" d="m32.172-5.0781q-3.7969-9.7656-7.4219-12.734-3.6094-2.9844-9.6562-2.9844h-7.1875v7.5156h5.2812q3.7031 0 5.75 1.7656 2.0625 1.75 4.5469 8.2969l1.6094 4.0938-22.109 53.812h9.5156l17.094-42.766 17.094 42.766h9.5156z"/>
</defs>
<use xlink:href="#au"/>
<use x="75.195312" xlink:href="#u"/>
</g>
</g>
<g clip-path="url(#a)">
<g transform="translate(30.542 359.12) scale(.1 -.1)">
<defs>
<path id="w" d="m9.0781 54.688h9.0312v-22.312h29.156v22.312h9.0312v-54.688h-9.0312v25.203h-29.156v-25.203h-9.0312z"/>
<path id="r" d="m55.906 54.688v-54.688h-8.9375v43.891l-26.359-43.891h-11.531v54.688h8.9375v-43.797l26.328 43.797z"/>
<path id="ao" d="m41.016 0v23h-16.75q-7.4688 0-12.453 4.6406-4.4844 4.2031-4.4844 13.188v13.859h8.9844v-13.031q0-5.7188 2.5312-8.5938 2.5938-2.8906 7.6719-2.8906h14.5v24.516h8.9844v-54.688z"/>
<path id="x" d="m56.203 29.594v-4.3906h-41.312q0.59375-9.2812 5.5938-14.141t13.938-4.8594q5.1719 0 10.031 1.2656t9.6562 3.8125v-8.5q-4.8438-2.0469-9.9219-3.125t-10.297-1.0781q-13.094 0-20.734 7.6094-7.6406 7.625-7.6406 20.625 0 13.422 7.25 21.297 7.25 7.8906 19.562 7.8906 11.031 0 17.453-7.1094 6.4219-7.0938 6.4219-19.297zm-8.9844 2.6406q-0.09375 7.3594-4.125 11.75-4.0312 4.4062-10.672 4.4062-7.5156 0-12.031-4.25t-5.2031-11.969z"/>
<path id="as" d="m9.0781 0v54.688h38.578v-7.1719h-29.547v-47.516z"/>
<path id="o" d="m30.609 48.391q-7.2188 0-11.422-5.6406t-4.2031-15.453 4.1719-15.453q4.1875-5.6406 11.453-5.6406 7.1875 0 11.375 5.6562 4.2031 5.6719 4.2031 15.438 0 9.7188-4.2031 15.406-4.1875 5.6875-11.375 5.6875zm0 7.6094q11.719 0 18.406-7.625 6.7031-7.6094 6.7031-21.078 0-13.422-6.7031-21.078-6.6875-7.6406-18.406-7.6406-11.766 0-18.438 7.6406-6.6562 7.6562-6.6562 21.078 0 13.469 6.6562 21.078 6.6719 7.625 18.438 7.625z"/>
</defs>
<use xlink:href="#w"/>
<use x="65.380859" xlink:href="#r"/>
<use x="130.371094" xlink:href="#ao"/>
<use x="189.453125" xlink:href="#x"/>
<use x="250.976562" xlink:href="#as"/>
<use x="303.515625" xlink:href="#o"/>
</g>
</g>
<g clip-path="url(#a)">
<g transform="translate(69.234 359.12) scale(.1 -.1)">
<defs>
<path id="am" d="m11.719 12.406h10.297v-8.4062l-8-15.625h-6.2969l4 15.625z"/>
</defs>
<use xlink:href="#am"/>
</g>
</g>
<g clip-path="url(#a)">
<g transform="translate(96.577 359.12) scale(.1 -.1)">
<defs>
<path id="ad" d="m4.8906 31.391h26.312v-8h-26.312z"/>
</defs>
<use xlink:href="#ad"/>
</g>
</g>
<g clip-path="url(#a)">
<g transform="translate(106.89 359.12) scale(.1 -.1)">
<defs>
<path id="ap" d="m48.781 52.594v-8.4062q-3.8125 2.1094-7.6406 3.1562t-7.7344 1.0469q-8.75 0-13.594-5.5469-4.8281-5.5312-4.8281-15.547t4.8281-15.562q4.8438-5.5312 13.594-5.5312 3.9062 0 7.7344 1.0469t7.6406 3.1562v-8.3125q-3.7656-1.75-7.7969-2.625-4.0156-0.89062-8.5625-0.89062-12.359 0-19.641 7.7656-7.2656 7.7656-7.2656 20.953 0 13.375 7.3438 21.031 7.3594 7.6719 20.156 7.6719 4.1406 0 8.0938-0.85938 3.9531-0.84375 7.6719-2.5469z"/>
<path id="ae" d="m56.297 54.688v-54.688h-9.0312v47.516h-29.156v-47.516h-9.0312v54.688z"/>
<path id="ag" d="m9.0781 54.688h8.9375v-25.688l25.344 25.688h11.031l-20.891-21.141 23.578-33.547h-10.062l-19.375 27.594-9.625-9.7656v-17.828h-8.9375z"/>
<path id="aq" d="m3.7188 0v7.4688q8.875 1.375 11.609 7.5156 3.3281 8.6562 3.3281 30.766v8.9375h36.953v-54.688h-8.9844v47.516h-18.984v-5.4219q0-21.094-4.2969-30.562-4.5938-10.109-19.625-11.531z"/>
</defs>
<use xlink:href="#u"/>
<use x="59.179688" xlink:href="#ap"/>
<use x="114.160156" xlink:href="#ae"/>
<use x="179.541016" xlink:href="#o"/>
<use x="240.722656" xlink:href="#ag"/>
<use x="301.123047" xlink:href="#o"/>
<use x="362.304688" xlink:href="#r"/>
<use x="427.294922" xlink:href="#aq"/>
</g>
</g>
<g clip-path="url(#a)">
<g transform="translate(163.7 359.12) scale(.1 -.1)">
<use xlink:href="#o"/>
<use x="61.181641" xlink:href="#w"/>
</g>
</g>
<g clip-path="url(#a)">
<g transform="translate(201 359.12) scale(.1 -.1)">
<defs>
<path id="af" d="m9.0781 54.688h13.141l15.531-36.625 15.578 36.625h13.031v-54.688h-9.0312v46.094l-15.094-35.594h-8.9844l-15.141 35.594v-46.094h-9.0312z"/>
<path id="an" d="m18.453 38.922q0-4.0625 3.125-6.3594 3.125-2.2812 8.9375-2.2812h12.109v17.234h-12.109q-5.8125 0-8.9375-2.25t-3.125-6.3438zm-12.781-38.922 16.688 23.969q-5.6562 1.2812-9.4219 4.625-3.75 3.3438-3.75 10.328 0 7.9062 5.2344 11.828 5.25 3.9375 15.859 3.9375h21.375v-54.688h-9.0312v23.094h-11.172l-16.125-23.094z"/>
</defs>
<use xlink:href="#af"/>
<use x="75.439453" xlink:href="#x"/>
<use x="136.962891" xlink:href="#w"/>
<use x="202.34375" xlink:href="#an"/>
</g>
</g>
<g clip-path="url(#a)">
<g transform="translate(262.14 359.12) scale(.1 -.1)">
<defs>
<path id="d" d="m10.688 12.406h10.312v-12.406h-10.312z"/>
</defs>
<use xlink:href="#d"/>
</g>
</g>
<g clip-path="url(#a)">
<g transform="translate(317.04 359.12) scale(.1 -.1)">
<use xlink:href="#ad"/>
</g>
</g>
<g clip-path="url(#a)">
<g transform="translate(366.32 359.12) scale(.1 -.1)">
<defs>
<path id="av" d="m22.797 8.2969h32.234v56.297h-23.688v-10.344q0-24.359-5.4688-40.531-1.125-3.3125-3.0781-5.4219zm-14.391 0q6.5312 3.0781 8.3906 8.9375 4.7344 15.047 4.7344 41.891v13.781h43.359v-64.609h8.2969v-23.969h-8.2969v15.672h-51.656v-15.672h-8.2969v23.969z"/>
<path id="v" d="m2.9375 54.688h52.391v-7.1719h-21.781v-47.516h-8.8438v47.516h-21.766z"/>
</defs>
<use xlink:href="#av"/>
<use x="78.125" xlink:href="#x"/>
<use x="139.648438" xlink:href="#v"/>
<use x="197.900391" xlink:href="#r"/>
</g>
</g>
<g clip-path="url(#a)">
<g transform="translate(442.36 359.12) scale(.1 -.1)">
<use xlink:href="#r"/>
</g>
</g>
<g clip-path="url(#a)">
<g transform="translate(508.26 359.12) scale(.1 -.1)">
<defs>
<path id="at" d="m34.281 27.484q-10.891 0-15.094-2.4844t-4.2031-8.5q0-4.7812 3.1562-7.5938 3.1562-2.7969 8.5625-2.7969 7.4844 0 12 5.2969t4.5156 14.078v2zm17.922 3.7188v-31.203h-8.9844v8.2969q-3.0781-4.9688-7.6719-7.3438t-11.234-2.375q-8.3906 0-13.359 4.7188-4.9531 4.7188-4.9531 12.625 0 9.2188 6.1719 13.906 6.1875 4.6875 18.438 4.6875h12.609v0.89062q0 6.2031-4.0781 9.5938t-11.453 3.3906q-4.6875 0-9.1406-1.125-4.4375-1.125-8.5312-3.375v8.3125q4.9219 1.9062 9.5625 2.8438 4.6406 0.95312 9.0312 0.95312 11.875 0 17.734-6.1562 5.8594-6.1406 5.8594-18.641z"/>
</defs>
<use xlink:href="#v"/>
<use x="58.251953" xlink:href="#at"/>
<use x="119.53125" xlink:href="#ag"/>
</g>
</g>
<g clip-path="url(#a)">
<g transform="translate(575.2 359.12) scale(.1 -.1)">
<defs>
<path id="ar" d="m55.906 54.688v-54.688h-8.9375v43.891l-26.359-43.891h-11.531v54.688h8.9375v-43.797l26.328 43.797zm-38.688 20.828h5.7656q0.53125-3.6562 2.8906-5.5 2.375-1.8281 6.625-1.8281 4.2031 0 6.5469 1.8125t2.9688 5.5156h5.7656q-0.48438-6.9844-4.3438-10.5t-10.938-3.5156-10.938 3.5156-4.3438 10.5z"/>
</defs>
<use xlink:href="#ae"/>
<use x="65.380859" xlink:href="#o"/>
<use x="126.5625" xlink:href="#ar"/>
<use x="191.552734" xlink:href="#af"/>
<use x="266.992188" xlink:href="#u"/>
<use x="326.171875" xlink:href="#v"/>
</g>
</g>
<g clip-path="url(#a)">
<g transform="translate(675.5 359.12) scale(.1 -.1)">
<use xlink:href="#d"/>
</g>
</g>
<g clip-path="url(#a)">
<g transform="translate(186.32 19.729) scale(.1 -.1)">
<defs>
<path id="c" d="m12.406 8.2969h16.109v55.625l-17.531-3.5156v8.9844l17.438 3.5156h9.8594v-64.609h16.109v-8.2969h-41.984z"/>
</defs>
<use xlink:href="#c"/>
<use x="63.623047" xlink:href="#d"/>
<use x="95.410156" xlink:href="#c"/>
</g>
</g>
<g clip-path="url(#a)">
<g transform="translate(186.32 76.81) scale(.1 -.1)">
<defs>
<path id="m" d="m19.188 8.2969h34.422v-8.2969h-46.281v8.2969q5.6094 5.8125 15.297 15.594 9.7031 9.7969 12.188 12.641 4.7344 5.3125 6.6094 9 1.8906 3.6875 1.8906 7.25 0 5.8125-4.0781 9.4688-4.0781 3.6719-10.625 3.6719-4.6406 0-9.7969-1.6094-5.1406-1.6094-11-4.8906v9.9688q5.9531 2.3906 11.125 3.6094 5.1875 1.2188 9.4844 1.2188 11.328 0 18.062-5.6719 6.7344-5.6562 6.7344-15.125 0-4.5-1.6875-8.5312-1.6719-4.0156-6.125-9.4844-1.2188-1.4219-7.7656-8.1875-6.5312-6.7656-18.453-18.922z"/>
</defs>
<use xlink:href="#c"/>
<use x="63.623047" xlink:href="#d"/>
<use x="95.410156" xlink:href="#m"/>
</g>
</g>
<g clip-path="url(#a)">
<g transform="translate(278.85 133.78) scale(.1 -.1)">
<defs>
<path id="t" d="m37.797 64.312-24.906-38.922h24.906zm-2.5938 8.5938h12.406v-47.516h10.406v-8.2031h-10.406v-17.188h-9.8125v17.188h-32.906v9.5156z"/>
</defs>
<use xlink:href="#c"/>
<use x="63.623047" xlink:href="#d"/>
<use x="95.410156" xlink:href="#t"/>
</g>
</g>
<g clip-path="url(#a)">
<g transform="translate(123.5 303.56) scale(.1 -.1)">
<defs>
<path id="s" d="m10.797 72.906h38.719v-8.3125h-29.688v-17.859q2.1406 0.73438 4.2812 1.0938 2.1562 0.35938 4.3125 0.35938 12.203 0 19.328-6.6875 7.1406-6.6875 7.1406-18.109 0-11.766-7.3281-18.297-7.3281-6.5156-20.656-6.5156-4.5938 0-9.3594 0.78125-4.75 0.78125-9.8281 2.3438v9.9219q4.3906-2.3906 9.0781-3.5625t9.9062-1.1719q8.4531 0 13.375 4.4375 4.9375 4.4375 4.9375 12.062 0 7.6094-4.9375 12.047-4.9219 4.4531-13.375 4.4531-3.9531 0-7.8906-0.875-3.9219-0.875-8.0156-2.7344z"/>
</defs>
<use xlink:href="#c"/>
<use x="63.623047" xlink:href="#d"/>
<use x="95.410156" xlink:href="#s"/>
</g>
</g>
<g clip-path="url(#a)">
<g transform="translate(162.08 303.56) scale(.1 -.1)">
<defs>
<path id="ab" d="m33.016 40.375q-6.6406 0-10.531-4.5469-3.875-4.5312-3.875-12.438 0-7.8594 3.875-12.438 3.8906-4.5625 10.531-4.5625t10.516 4.5625q3.875 4.5781 3.875 12.438 0 7.9062-3.875 12.438-3.875 4.5469-10.516 4.5469zm19.578 30.922v-8.9844q-3.7188 1.75-7.5 2.6719-3.7812 0.9375-7.5 0.9375-9.7656 0-14.922-6.5938-5.1406-6.5938-5.875-19.922 2.875 4.25 7.2188 6.5156 4.3594 2.2656 9.5781 2.2656 10.984 0 17.359-6.6719 6.375-6.6562 6.375-18.125 0-11.234-6.6406-18.031-6.6406-6.7812-17.672-6.7812-12.656 0-19.344 9.6875-6.6875 9.7031-6.6875 28.109 0 17.281 8.2031 27.562t22.016 10.281q3.7188 0 7.5-0.73438t7.8906-2.1875z"/>
</defs>
<use xlink:href="#c"/>
<use x="63.623047" xlink:href="#d"/>
<use x="95.410156" xlink:href="#ab"/>
</g>
</g>
<g clip-path="url(#a)">
<g transform="translate(206.17 303.56) scale(.1 -.1)">
<defs>
<path id="aa" d="m8.2031 72.906h46.875v-4.2031l-26.469-68.703h-10.297l24.906 64.594h-35.016z"/>
</defs>
<use xlink:href="#c"/>
<use x="63.623047" xlink:href="#d"/>
<use x="95.410156" xlink:href="#aa"/>
</g>
</g>
<g clip-path="url(#a)">
<g transform="translate(29.377 247.23) scale(.1 -.1)">
<use xlink:href="#c"/>
<use x="63.623047" xlink:href="#d"/>
<use x="95.410156" xlink:href="#c"/>
<use x="159.033203" xlink:href="#m"/>
</g>
</g>
<g clip-path="url(#a)">
<g transform="translate(521.97 190.6) scale(.1 -.1)">
<defs>
<path id="ac" d="m40.578 39.312q7.0781-1.5156 11.047-6.3125 3.9844-4.7812 3.9844-11.812 0-10.781-7.4219-16.703-7.4219-5.9062-21.094-5.9062-4.5781 0-9.4375 0.90625t-10.031 2.7188v9.5156q4.0938-2.3906 8.9688-3.6094 4.8906-1.2188 10.219-1.2188 9.2656 0 14.125 3.6562t4.8594 10.641q0 6.4531-4.5156 10.078-4.5156 3.6406-12.562 3.6406h-8.5v8.1094h8.8906q7.2656 0 11.125 2.9062t3.8594 8.375q0 5.6094-3.9844 8.6094-3.9688 3.0156-11.391 3.0156-4.0625 0-8.7031-0.89062-4.6406-0.875-10.203-2.7188v8.7812q5.625 1.5625 10.531 2.3438t9.25 0.78125q11.234 0 17.766-5.1094 6.5469-5.0938 6.5469-13.781 0-6.0625-3.4688-10.234t-9.8594-5.7812z"/>
</defs>
<use xlink:href="#c"/>
<use x="63.623047" xlink:href="#d"/>
<use x="95.410156" xlink:href="#c"/>
<use x="159.033203" xlink:href="#ac"/>
</g>
</g>
<g clip-path="url(#a)">
<g transform="translate(368.34 303.56) scale(.1 -.1)">
<use xlink:href="#c"/>
<use x="63.623047" xlink:href="#d"/>
<use x="95.410156" xlink:href="#c"/>
<use x="159.033203" xlink:href="#t"/>
</g>
</g>
<g clip-path="url(#a)">
<g transform="translate(470.3 247.23) scale(.1 -.1)">
<use xlink:href="#c"/>
<use x="63.623047" xlink:href="#d"/>
<use x="95.410156" xlink:href="#c"/>
<use x="159.033203" xlink:href="#s"/>
</g>
</g>
<g clip-path="url(#a)">
<g transform="translate(583.29 303.56) scale(.1 -.1)">
<use xlink:href="#c"/>
<use x="63.623047" xlink:href="#d"/>
<use x="95.410156" xlink:href="#c"/>
<use x="159.033203" xlink:href="#ab"/>
</g>
</g>
<g clip-path="url(#a)">
<g transform="translate(434.47 303.56) scale(.1 -.1)">
<use xlink:href="#c"/>
<use x="63.623047" xlink:href="#d"/>
<use x="95.410156" xlink:href="#c"/>
<use x="159.033203" xlink:href="#aa"/>
</g>
</g>
<g clip-path="url(#a)">
<g transform="translate(506.12 303.56) scale(.1 -.1)">
<defs>
<path id="ak" d="m31.781 34.625q-7.0312 0-11.062-3.7656-4.0156-3.7656-4.0156-10.344 0-6.5938 4.0156-10.359 4.0312-3.7656 11.062-3.7656t11.078 3.7812q4.0625 3.7969 4.0625 10.344 0 6.5781-4.0312 10.344-4.0156 3.7656-11.109 3.7656zm-9.8594 4.1875q-6.3438 1.5625-9.8906 5.9062-3.5312 4.3594-3.5312 10.609 0 8.7344 6.2188 13.812 6.2344 5.0781 17.062 5.0781 10.891 0 17.094-5.0781t6.2031-13.812q0-6.25-3.5469-10.609-3.5312-4.3438-9.8281-5.9062 7.125-1.6562 11.094-6.5 3.9844-4.8281 3.9844-11.797 0-10.609-6.4688-16.281-6.4688-5.6562-18.531-5.6562-12.047 0-18.531 5.6562-6.4688 5.6719-6.4688 16.281 0 6.9688 4 11.797 4.0156 4.8438 11.141 6.5zm-3.6094 15.578q0-5.6562 3.5312-8.8281 3.5469-3.1719 9.9375-3.1719 6.3594 0 9.9375 3.1719 3.5938 3.1719 3.5938 8.8281 0 5.6719-3.5938 8.8438-3.5781 3.1719-9.9375 3.1719-6.3906 0-9.9375-3.1719-3.5312-3.1719-3.5312-8.8438z"/>
</defs>
<use xlink:href="#c"/>
<use x="63.623047" xlink:href="#d"/>
<use x="95.410156" xlink:href="#c"/>
<use x="159.033203" xlink:href="#ak"/>
</g>
</g>
<g clip-path="url(#a)">
<g transform="translate(21.11 303.56) scale(.1 -.1)">
<defs>
<path id="aj" d="m10.984 1.5156v8.9844q3.7188-1.7656 7.5156-2.6875 3.8125-0.92188 7.4844-0.92188 9.7656 0 14.906 6.5625 5.1562 6.5625 5.8906 19.953-2.8281-4.2031-7.1875-6.4531-4.3438-2.25-9.6094-2.25-10.938 0-17.312 6.6094-6.375 6.625-6.375 18.109 0 11.219 6.6406 18 6.6406 6.7969 17.672 6.7969 12.656 0 19.312-9.7031 6.6719-9.6875 6.6719-28.141 0-17.234-8.1875-27.516-8.1719-10.281-21.984-10.281-3.7188 0-7.5312 0.73438-3.7969 0.73438-7.9062 2.2031zm19.625 30.906q6.6406 0 10.516 4.5312 3.8906 4.5469 3.8906 12.469 0 7.8594-3.8906 12.422-3.875 4.5625-10.516 4.5625t-10.516-4.5625-3.875-12.422q0-7.9219 3.875-12.469 3.875-4.5312 10.516-4.5312z"/>
</defs>
<use xlink:href="#c"/>
<use x="63.623047" xlink:href="#d"/>
<use x="95.410156" xlink:href="#c"/>
<use x="159.033203" xlink:href="#aj"/>
</g>
</g>
<g clip-path="url(#a)">
<g transform="translate(37.644 303.56) scale(.1 -.1)">
<defs>
<path id="al" d="m31.781 66.406q-7.6094 0-11.453-7.5-3.8281-7.4844-3.8281-22.531 0-14.984 3.8281-22.484 3.8438-7.5 11.453-7.5 7.6719 0 11.5 7.5 3.8438 7.5 3.8438 22.484 0 15.047-3.8438 22.531-3.8281 7.5-11.5 7.5zm0 7.8125q12.266 0 18.734-9.7031 6.4688-9.6875 6.4688-28.141 0-18.406-6.4688-28.109-6.4688-9.6875-18.734-9.6875-12.25 0-18.719 9.6875-6.4688 9.7031-6.4688 28.109 0 18.453 6.4688 28.141 6.4688 9.7031 18.719 9.7031z"/>
</defs>
<use xlink:href="#c"/>
<use x="63.623047" xlink:href="#d"/>
<use x="95.410156" xlink:href="#m"/>
<use x="159.033203" xlink:href="#al"/>
</g>
</g>
<g clip-path="url(#a)">
<g transform="translate(59.69 303.56) scale(.1 -.1)">
<use xlink:href="#c"/>
<use x="63.623047" xlink:href="#d"/>
<use x="95.410156" xlink:href="#m"/>
<use x="159.033203" xlink:href="#c"/>
</g>
</g>
<g clip-path="url(#a)">
<g transform="translate(87.248 303.56) scale(.1 -.1)">
<use xlink:href="#c"/>
<use x="63.623047" xlink:href="#d"/>
<use x="95.410156" xlink:href="#m"/>
<use x="159.033203" xlink:href="#m"/>
</g>
</g>
<g clip-path="url(#a)">
<g transform="translate(252.59 303.56) scale(.1 -.1)">
<use xlink:href="#c"/>
<use x="63.623047" xlink:href="#d"/>
<use x="95.410156" xlink:href="#m"/>
<use x="159.033203" xlink:href="#ac"/>
</g>
</g>
<g clip-path="url(#a)">
<g transform="translate(307.71 303.56) scale(.1 -.1)">
<use xlink:href="#c"/>
<use x="63.623047" xlink:href="#d"/>
<use x="95.410156" xlink:href="#m"/>
<use x="159.033203" xlink:href="#t"/>
</g>
</g>
<g clip-path="url(#a)">
<g transform="translate(665.96 303.56) scale(.1 -.1)">
<use xlink:href="#c"/>
<use x="63.623047" xlink:href="#d"/>
<use x="95.410156" xlink:href="#m"/>
<use x="159.033203" xlink:href="#s"/>
</g>
</g>
<defs>
<clipPath id="a">
<rect width="709.33" height="373.33"/>
</clipPath>
</defs>
</svg>
