<?xml version="1.0" encoding="UTF-8"?>
<!DOCTYPE svg  PUBLIC '-//W3C//DTD SVG 1.1//EN'  'http://www.w3.org/Graphics/SVG/1.1/DTD/svg11.dtd'>
<svg width="912pt" height="480pt" version="1.1" viewBox="0 0 912 480" xmlns="http://www.w3.org/2000/svg" xmlns:xlink="http://www.w3.org/1999/xlink">
<metadata>
<rdf:RDF xmlns:cc="http://creativecommons.org/ns#" xmlns:dc="http://purl.org/dc/elements/1.1/" xmlns:rdf="http://www.w3.org/1999/02/22-rdf-syntax-ns#">
<cc:Work>
<dc:type rdf:resource="http://purl.org/dc/dcmitype/StillImage"/>
<dc:date>2021-01-21T01:20:23.450165</dc:date>
<dc:format>image/svg+xml</dc:format>
<dc:creator>
<cc:Agent>
<dc:title>Matplotlib v3.3.3, https://matplotlib.org/</dc:title>
</cc:Agent>
</dc:creator>
</cc:Work>
</rdf:RDF>
</metadata>
<defs>
<style type="text/css">*{stroke-linecap:butt;stroke-linejoin:round;}</style>
</defs>
<path d="m0 480h912v-480h-912z" fill="#fff"/>
<g fill="none" stroke="#000">
<path d="m303.11 21.818v55.055" clip-path="url(#a)"/>
<path d="m303.11 76.873 567.43 54.976" clip-path="url(#a)"/>
<path d="m303.11 76.873 567.43 54.976" clip-path="url(#a)"/>
<path d="m303.11 76.873v54.976" clip-path="url(#a)"/>
<path d="m303.11 131.85-231.6 54.884" clip-path="url(#a)"/>
<path d="m303.11 131.85 213.98 164.29" clip-path="url(#a)"/>
<path d="m303.11 131.85 17.616 272.91" clip-path="url(#a)"/>
<path d="m71.515 186.73 201.21 54.774" clip-path="url(#a)"/>
<path d="m71.515 186.73-30.061 218.03" clip-path="url(#a)"/>
<path d="m71.515 186.73 47.03 54.774" clip-path="url(#a)"/>
<path d="m71.515 186.73-16.97 218.03" clip-path="url(#a)"/>
<path d="m517.09 296.14-144 108.62" clip-path="url(#a)"/>
<path d="m517.09 296.14-87.273 108.62" clip-path="url(#a)"/>
<path d="m517.09 296.14 6.5455 108.62" clip-path="url(#a)"/>
<path d="m517.09 296.14 224.73 54.45" clip-path="url(#a)"/>
<path d="m373.09 404.76v53.423" clip-path="url(#a)"/>
<path d="m429.82 404.76v53.423" clip-path="url(#a)"/>
<path d="m523.64 404.76-32.727 53.423" clip-path="url(#a)"/>
<path d="m523.64 404.76 32.727 53.423" clip-path="url(#a)"/>
<path d="m741.82 350.59-115.64 54.166" clip-path="url(#a)"/>
<path d="m741.82 350.59-41.455 54.166" clip-path="url(#a)"/>
<path d="m741.82 350.59 37.091 54.166" clip-path="url(#a)"/>
<path d="m741.82 350.59 120 54.166" clip-path="url(#a)"/>
<path d="m626.18 404.76v53.423" clip-path="url(#a)"/>
<path d="m700.36 404.76v53.423" clip-path="url(#a)"/>
<path d="m778.91 404.76v53.423" clip-path="url(#a)"/>
<path d="m41.455 404.76v53.423" clip-path="url(#a)"/>
<path d="m118.55 241.51-46.545 163.25" clip-path="url(#a)"/>
<path d="m118.55 241.51-24.727 163.25" clip-path="url(#a)"/>
<path d="m118.55 241.51 69.818 54.636" clip-path="url(#a)"/>
<path d="m118.55 241.51 1.4545 163.25" clip-path="url(#a)"/>
<path d="m72 404.76v53.423" clip-path="url(#a)"/>
<path d="m93.818 404.76v53.423" clip-path="url(#a)"/>
<path d="m188.36 296.14-37.818 108.62" clip-path="url(#a)"/>
<path d="m188.36 296.14 37.818 54.45" clip-path="url(#a)"/>
<path d="m150.55 404.76v53.423" clip-path="url(#a)"/>
<path d="m226.18 350.59-40.727 54.166" clip-path="url(#a)"/>
<path d="m226.18 350.59-1.4545 54.166" clip-path="url(#a)"/>
<path d="m226.18 350.59 42.182 54.166" clip-path="url(#a)"/>
<path d="m185.45 404.76v53.423" clip-path="url(#a)"/>
<path d="m224.73 404.76v53.423" clip-path="url(#a)"/>
<path d="m268.36 404.76v53.423" clip-path="url(#a)"/>
<path d="m54.545 404.76v53.423" clip-path="url(#a)"/>
<path d="m120 404.76v53.423" clip-path="url(#a)"/>
<path d="m320.73 404.76v53.423" clip-path="url(#a)"/>
<path d="m861.82 404.76v53.423" clip-path="url(#a)"/>
</g>
<path d="m296.84 46.338v6.0162q0 2.4 2.4 2.4h7.7425q2.4 0 2.4-2.4v-6.0162q0-2.4-2.4-2.4h-7.7425q-2.4 0-2.4 2.4z" clip-path="url(#a)" fill="#fff" stroke="#fff"/>
<g clip-path="url(#a)">
<g transform="translate(300.9 46.338) rotate(90) scale(.08 -.08)">
<defs>
<path id="aa" d="m9.8125 72.906h9.8594v-29.891h35.844v29.891h9.8594v-72.906h-9.8594v34.719h-35.844v-34.719h-9.8594z"/>
</defs>
<use xlink:href="#aa"/>
</g>
</g>
<path d="m583.5 110.34 5.447 0.52773q2.3888 0.23144 2.6203-2.1574l0.74664-7.7064q0.23144-2.3888-2.1574-2.6203l-5.447-0.52773q-2.3888-0.23144-2.6203 2.1574l-0.74664 7.7064q-0.23144 2.3888 2.1574 2.6203z" clip-path="url(#a)" fill="#fff" stroke="#fff"/>
<g clip-path="url(#a)">
<g transform="translate(583.89 106.29) rotate(5.5339) scale(.08 -.08)">
<defs>
<path id="o" d="m34.188 63.188-13.391-36.281h26.812zm-5.5781 9.7188h11.188l27.781-72.906h-10.25l-6.6406 18.703h-32.859l-6.6406-18.703h-10.406z"/>
</defs>
<use xlink:href="#o"/>
</g>
</g>
<path d="m583.82 110.37 4.8013 0.46517q2.3888 0.23144 2.6203-2.1574l0.74664-7.7064q0.23144-2.3888-2.1574-2.6203l-4.8013-0.46517q-2.3888-0.23144-2.6203 2.1574l-0.74664 7.7064q-0.23144 2.3888 2.1574 2.6203z" clip-path="url(#a)" fill="#fff" stroke="#fff"/>
<g clip-path="url(#a)">
<g transform="translate(584.21 106.33) rotate(5.5339) scale(.08 -.08)">
<defs>
<path id="r" d="m19.672 64.797v-27.391h12.406q6.8906 0 10.641 3.5625 3.7656 3.5625 3.7656 10.156 0 6.5469-3.7656 10.109-3.75 3.5625-10.641 3.5625zm-9.8594 8.1094h22.266q12.266 0 18.531-5.5469 6.2812-5.5469 6.2812-16.234 0-10.797-6.2812-16.312-6.2656-5.5156-18.531-5.5156h-12.406v-29.297h-9.8594z"/>
</defs>
<use xlink:href="#r"/>
</g>
</g>
<path d="m296.84 101.62v5.4725q0 2.4 2.4 2.4h7.7425q2.4 0 2.4-2.4v-5.4725q0-2.4-2.4-2.4h-7.7425q-2.4 0-2.4 2.4z" clip-path="url(#a)" fill="#fff" stroke="#fff"/>
<g clip-path="url(#a)">
<g transform="translate(300.9 101.62) rotate(90) scale(.08 -.08)">
<use xlink:href="#o"/>
</g>
</g>
<path d="m185.83 166.09 5.8541-1.3873q2.3353-0.55343 1.7819-2.8887l-1.7854-7.5338q-0.55343-2.3353-2.8887-1.7819l-5.8541 1.3873q-2.3353 0.55343-1.7819 2.8887l1.7854 7.5338q0.55343 2.3353 2.8887 1.7819z" clip-path="url(#a)" fill="#fff" stroke="#fff"/>
<g clip-path="url(#a)">
<g transform="translate(184.9 162.13) rotate(-13.332) scale(.08 -.08)">
<use xlink:href="#aa"/>
</g>
</g>
<path d="m403.9 217.14 4.7719 3.6639q1.9036 1.4616 3.3652-0.44202l4.7152-6.1411q1.4616-1.9036-0.44202-3.3652l-4.7719-3.6639q-1.9036-1.4616-3.3652 0.44202l-4.7152 6.1411q-1.4616 1.9036 0.44202 3.3652z" clip-path="url(#a)" fill="#fff" stroke="#fff"/>
<g clip-path="url(#a)">
<g transform="translate(406.37 213.91) rotate(37.517) scale(.08 -.08)">
<use xlink:href="#aa"/>
</g>
</g>
<path d="m305.47 265.79 0.37715 5.8428q0.1546 2.395 2.5496 2.2404l7.7264-0.49874q2.395-0.1546 2.2404-2.5496l-0.37715-5.8428q-0.1546-2.395-2.5496-2.2404l-7.7264 0.49874q-2.395 0.1546-2.2404 2.5496z" clip-path="url(#a)" fill="#fff" stroke="#fff"/>
<g clip-path="url(#a)">
<g transform="translate(309.53 265.52) rotate(86.307) scale(.08 -.08)">
<defs>
<path id="w" d="m8.6875 72.906h9.9219v-44.297q0-11.719 4.2344-16.875 4.25-5.1406 13.781-5.1406 9.4688 0 13.719 5.1406 4.25 5.1562 4.25 16.875v44.297h9.9062v-45.516q0-14.25-7.0625-21.531-7.0469-7.2812-20.812-7.2812-13.828 0-20.891 7.2812-7.0469 7.2812-7.0469 21.531z"/>
</defs>
<use xlink:href="#w"/>
</g>
</g>
<path d="m167.83 219.45 5.2804 1.4374q2.3157 0.63039 2.9461-1.6853l2.0337-7.4706q0.63039-2.3157-1.6853-2.9461l-5.2804-1.4374q-2.3157-0.63039-2.9461 1.6853l-2.0337 7.4706q-0.63038 2.3157 1.6853 2.9461z" clip-path="url(#a)" fill="#fff" stroke="#fff"/>
<g clip-path="url(#a)">
<g transform="translate(168.9 215.53) rotate(15.228) scale(.08 -.08)">
<use xlink:href="#o"/>
</g>
</g>
<path d="m62.368 298.99 0.65885-4.7785q0.3278-2.3775-2.0497-2.7053l-7.6699-1.0575q-2.3775-0.3278-2.7053 2.0497l-0.65885 4.7785q-0.3278 2.3775 2.0497 2.7053l7.6699 1.0575q2.3775 0.3278 2.7053-2.0497z" clip-path="url(#a)" fill="#fff" stroke="#fff"/>
<g clip-path="url(#a)">
<g transform="translate(58.342 298.44) rotate(-82.15) scale(.08 -.08)">
<use xlink:href="#r"/>
</g>
</g>
<path d="m88.49 216.13 3.565 4.152q1.5635 1.8209 3.3843 0.25742l5.8742-5.0438q1.8209-1.5635 0.25742-3.3843l-3.565-4.152q-1.5635-1.8209-3.3843-0.25742l-5.8742 5.0438q-1.8209 1.5635-0.25742 3.3843z" clip-path="url(#a)" fill="#fff" stroke="#fff"/>
<g clip-path="url(#a)">
<g transform="translate(91.573 213.48) rotate(49.35) scale(.08 -.08)">
<use xlink:href="#o"/>
</g>
</g>
<path d="m69.055 299.15 0.45434-5.8373q0.18624-2.3928-2.2065-2.579l-7.7192-0.60081q-2.3928-0.18624-2.579 2.2065l-0.45434 5.8373q-0.18624 2.3928 2.2065 2.579l7.7192 0.60081q2.3928 0.18624 2.579-2.2065z" clip-path="url(#a)" fill="#fff" stroke="#fff"/>
<g clip-path="url(#a)">
<g transform="translate(65.004 298.84) rotate(-85.549) scale(.08 -.08)">
<use xlink:href="#w"/>
</g>
</g>
<path d="m446.68 357.11 4.369-3.2955q1.9161-1.4452 0.47081-3.3613l-4.6624-6.1813q-1.4452-1.9161-3.3613-0.47081l-4.369 3.2955q-1.9161 1.4452-0.47081 3.3613l4.6624 6.1813q1.4452 1.9161 3.3613 0.47081z" clip-path="url(#a)" fill="#fff" stroke="#fff"/>
<g clip-path="url(#a)">
<g transform="translate(444.24 353.86) rotate(-37.027) scale(.08 -.08)">
<use xlink:href="#o"/>
</g>
</g>
<path d="m476.9 356.17 2.882-3.5868q1.5033-1.8709-0.36764-3.3741l-6.0356-4.8496q-1.8709-1.5033-3.3741 0.36764l-2.882 3.5868q-1.5033 1.8709 0.36764 3.3741l6.0356 4.8496q1.8709 1.5033 3.3741-0.36764z" clip-path="url(#a)" fill="#fff" stroke="#fff"/>
<g clip-path="url(#a)">
<g transform="translate(473.73 353.63) rotate(-51.218) scale(.08 -.08)">
<defs>
<path id="au" d="m9.8125 72.906h41.891v-8.3125h-32.031v-21.484h28.906v-8.2969h-28.906v-34.812h-9.8594z"/>
</defs>
<use xlink:href="#au"/>
</g>
</g>
<path d="m513.95 348.29 0.3055 5.0696q0.14437 2.3957 2.54 2.2513l7.7285-0.46574q2.3957-0.14437 2.2513-2.54l-0.3055-5.0696q-0.14437-2.3957-2.54-2.2513l-7.7285 0.46574q-2.3957 0.14437-2.2513 2.54z" clip-path="url(#a)" fill="#fff" stroke="#fff"/>
<g clip-path="url(#a)">
<g transform="translate(518.01 348.05) rotate(86.551) scale(.08 -.08)">
<defs>
<path id="at" d="m53.516 70.516v-9.625q-5.6094 2.6875-10.594 4-4.9844 1.3281-9.625 1.3281-8.0469 0-12.422-3.125t-4.375-8.8906q0-4.8438 2.9062-7.3125 2.9062-2.4531 11.016-3.9688l5.9531-1.2188q11.031-2.1094 16.281-7.4062t5.25-14.172q0-10.609-7.1094-16.078-7.0938-5.4688-20.812-5.4688-5.1719 0-11.016 1.1719-5.8281 1.1719-12.078 3.4688v10.156q6-3.3594 11.766-5.0781 5.7656-1.7031 11.328-1.7031 8.4375 0 13.031 3.3125 4.5938 3.3281 4.5938 9.4844 0 5.3594-3.2969 8.3906t-10.812 4.5469l-6.0156 1.1719q-11.031 2.1875-15.969 6.875-4.9219 4.6875-4.9219 13.047 0 9.6719 6.8125 15.234t18.766 5.5625q5.1406 0 10.453-0.9375 5.3281-0.92188 10.891-2.7656z"/>
</defs>
<use xlink:href="#at"/>
</g>
</g>
<path d="m625.32 328.82 5.3186 1.2887q2.3325 0.56515 2.8977-1.7674l1.8232-7.5248q0.56516-2.3325-1.7674-2.8977l-5.3186-1.2887q-2.3325-0.56515-2.8977 1.7674l-1.8232 7.5248q-0.56515 2.3325 1.7674 2.8977z" clip-path="url(#a)" fill="#fff" stroke="#fff"/>
<g clip-path="url(#a)">
<g transform="translate(626.28 324.87) rotate(13.62) scale(.08 -.08)">
<use xlink:href="#o"/>
</g>
</g>
<path d="m366.82 414.57v33.808q0 2.4 2.4 2.4h7.7425q2.4 0 2.4-2.4v-33.808q0-2.4-2.4-2.4h-7.7425q-2.4 0-2.4 2.4z" clip-path="url(#a)" fill="#fff" stroke="#fff"/>
<g clip-path="url(#a)">
<g transform="translate(370.88 414.57) rotate(90) scale(.08 -.08)">
<defs>
<path id="e" d="m-0.29688 72.906h61.672v-8.3125h-25.875v-64.594h-9.9062v64.594h-25.891z"/>
<path id="l" d="m56.203 29.594v-4.3906h-41.312q0.59375-9.2812 5.5938-14.141t13.938-4.8594q5.1719 0 10.031 1.2656t9.6562 3.8125v-8.5q-4.8438-2.0469-9.9219-3.125t-10.297-1.0781q-13.094 0-20.734 7.6094-7.6406 7.625-7.6406 20.625 0 13.422 7.25 21.297 7.25 7.8906 19.562 7.8906 11.031 0 17.453-7.1094 6.4219-7.0938 6.4219-19.297zm-8.9844 2.6406q-0.09375 7.3594-4.125 11.75-4.0312 4.4062-10.672 4.4062-7.5156 0-12.031-4.25t-5.2031-11.969z"/>
<path id="g" d="m41.109 46.297q-1.5156 0.875-3.2969 1.2812-1.7812 0.42188-3.9219 0.42188-7.625 0-11.703-4.9531t-4.0781-14.234v-28.812h-9.0312v54.688h9.0312v-8.5q2.8438 4.9844 7.375 7.3906 4.5469 2.4219 11.047 2.4219 0.92188 0 2.0469-0.125 1.125-0.10938 2.4844-0.35938z"/>
<path id="i" d="m52 44.188q3.375 6.0625 8.0625 8.9375t11.031 2.875q8.5469 0 13.188-5.9844 4.6406-5.9688 4.6406-17v-33.016h-9.0312v32.719q0 7.8594-2.7969 11.656-2.7812 3.8125-8.4844 3.8125-6.9844 0-11.047-4.6406-4.0469-4.625-4.0469-12.641v-30.906h-9.0312v32.719q0 7.9062-2.7812 11.688t-8.5938 3.7812q-6.8906 0-10.953-4.6562-4.0469-4.6562-4.0469-12.625v-30.906h-9.0312v54.688h9.0312v-8.5q3.0781 5.0312 7.375 7.4219t10.203 2.3906q5.9688 0 10.141-3.0312 4.1719-3.0156 6.1719-8.7812z"/>
<path id="k" d="m9.4219 54.688h8.9844v-54.688h-8.9844zm0 21.297h8.9844v-11.391h-8.9844z"/>
<path id="h" d="m54.891 33.016v-33.016h-8.9844v32.719q0 7.7656-3.0312 11.609-3.0312 3.8594-9.0781 3.8594-7.2812 0-11.484-4.6406-4.2031-4.625-4.2031-12.641v-30.906h-9.0312v54.688h9.0312v-8.5q3.2344 4.9375 7.5938 7.375 4.375 2.4375 10.094 2.4375 9.4219 0 14.25-5.8281 4.8438-5.8281 4.8438-17.156z"/>
<path id="f" d="m34.281 27.484q-10.891 0-15.094-2.4844t-4.2031-8.5q0-4.7812 3.1562-7.5938 3.1562-2.7969 8.5625-2.7969 7.4844 0 12 5.2969t4.5156 14.078v2zm17.922 3.7188v-31.203h-8.9844v8.2969q-3.0781-4.9688-7.6719-7.3438t-11.234-2.375q-8.3906 0-13.359 4.7188-4.9531 4.7188-4.9531 12.625 0 9.2188 6.1719 13.906 6.1875 4.6875 18.438 4.6875h12.609v0.89062q0 6.2031-4.0781 9.5938t-11.453 3.3906q-4.6875 0-9.1406-1.125-4.4375-1.125-8.5312-3.375v8.3125q4.9219 1.9062 9.5625 2.8438 4.6406 0.95312 9.0312 0.95312 11.875 0 17.734-6.1562 5.8594-6.1406 5.8594-18.641z"/>
<path id="j" d="m9.4219 75.984h8.9844v-75.984h-8.9844z"/>
</defs>
<use xlink:href="#e"/>
<use x="44.083984" xlink:href="#l"/>
<use x="105.607422" xlink:href="#g"/>
<use x="144.970703" xlink:href="#i"/>
<use x="242.382812" xlink:href="#k"/>
<use x="270.166016" xlink:href="#h"/>
<use x="333.544922" xlink:href="#f"/>
<use x="394.824219" xlink:href="#j"/>
</g>
</g>
<path d="m423.55 414.57v33.808q0 2.4 2.4 2.4h7.7425q2.4 0 2.4-2.4v-33.808q0-2.4-2.4-2.4h-7.7425q-2.4 0-2.4 2.4z" clip-path="url(#a)" fill="#fff" stroke="#fff"/>
<g clip-path="url(#a)">
<g transform="translate(427.61 414.57) rotate(90) scale(.08 -.08)">
<use xlink:href="#e"/>
<use x="44.083984" xlink:href="#l"/>
<use x="105.607422" xlink:href="#g"/>
<use x="144.970703" xlink:href="#i"/>
<use x="242.382812" xlink:href="#k"/>
<use x="270.166016" xlink:href="#h"/>
<use x="333.544922" xlink:href="#f"/>
<use x="394.824219" xlink:href="#j"/>
</g>
</g>
<path d="m503.79 449.16 17.66-28.828q1.2537-2.0465-0.7928-3.3002l-6.6021-4.0445q-2.0465-1.2537-3.3002 0.7928l-17.66 28.828q-1.2537 2.0465 0.7928 3.3002l6.6021 4.0445q2.0465 1.2537 3.3002-0.7928z" clip-path="url(#a)" fill="#fff" stroke="#fff"/>
<g clip-path="url(#a)">
<g transform="translate(500.32 447.04) rotate(-58.508) scale(.08 -.08)">
<use xlink:href="#e"/>
<use x="44.083984" xlink:href="#l"/>
<use x="105.607422" xlink:href="#g"/>
<use x="144.970703" xlink:href="#i"/>
<use x="242.382812" xlink:href="#k"/>
<use x="270.166016" xlink:href="#h"/>
<use x="333.544922" xlink:href="#f"/>
<use x="394.824219" xlink:href="#j"/>
</g>
</g>
<path d="m525.82 420.33 17.66 28.828q1.2537 2.0465 3.3002 0.7928l6.6021-4.0445q2.0465-1.2537 0.7928-3.3002l-17.66-28.828q-1.2537-2.0465-3.3002-0.7928l-6.6021 4.0445q-2.0465 1.2537-0.7928 3.3002z" clip-path="url(#a)" fill="#fff" stroke="#fff"/>
<g clip-path="url(#a)">
<g transform="translate(529.29 418.21) rotate(58.508) scale(.08 -.08)">
<use xlink:href="#e"/>
<use x="44.083984" xlink:href="#l"/>
<use x="105.607422" xlink:href="#g"/>
<use x="144.970703" xlink:href="#i"/>
<use x="242.382812" xlink:href="#k"/>
<use x="270.166016" xlink:href="#h"/>
<use x="333.544922" xlink:href="#f"/>
<use x="394.824219" xlink:href="#j"/>
</g>
</g>
<path d="m684.14 384.53 5.0339-2.358q2.1734-1.018 1.1553-3.1914l-3.2843-7.0114q-1.018-2.1734-3.1914-1.1553l-5.0339 2.3579q-2.1734 1.018-1.1553 3.1914l3.2843 7.0114q1.018 2.1734 3.1914 1.1553z" clip-path="url(#a)" fill="#fff" stroke="#fff"/>
<g clip-path="url(#a)">
<g transform="translate(682.42 380.85) rotate(-25.099) scale(.08 -.08)">
<defs>
<path id="ai" d="m44.391 34.188q3.1719-1.0781 6.1719-4.5938t6.0312-9.6719l10.016-19.922h-10.609l-9.3125 18.703q-3.625 7.3281-7.0156 9.7188t-9.25 2.3906h-10.75v-30.812h-9.8594v72.906h22.266q12.5 0 18.656-5.2344 6.1562-5.2188 6.1562-15.766 0-6.8906-3.2031-11.438-3.2031-4.5312-9.2969-6.2812zm-24.719 30.609v-25.875h12.406q7.125 0 10.766 3.2969t3.6406 9.6875-3.6406 9.6406-10.766 3.25z"/>
</defs>
<use xlink:href="#ai"/>
</g>
</g>
<path d="m724.53 383.49 3.0722-4.0143q1.4586-1.9059-0.44727-3.3645l-6.1485-4.7056q-1.9059-1.4586-3.3645 0.44727l-3.0722 4.0143q-1.4586 1.9059 0.44727 3.3645l6.1485 4.7056q1.9059 1.4586 3.3645-0.44727z" clip-path="url(#a)" fill="#fff" stroke="#fff"/>
<g clip-path="url(#a)">
<g transform="translate(721.31 381.02) rotate(-52.572) scale(.08 -.08)">
<defs>
<path id="ab" d="m9.8125 72.906h46.094v-8.3125h-36.234v-21.578h34.719v-8.2969h-34.719v-26.422h37.109v-8.2969h-46.969z"/>
</defs>
<use xlink:href="#ab"/>
</g>
</g>
<path d="m753.61 378.91 3.1562 4.6092q1.356 1.9802 3.3362 0.62424l6.3883-4.3745q1.9802-1.356 0.62424-3.3362l-3.1562-4.6092q-1.356-1.9802-3.3362-0.62424l-6.3883 4.3745q-1.9802 1.356-0.62424 3.3362z" clip-path="url(#a)" fill="#fff" stroke="#fff"/>
<g clip-path="url(#a)">
<g transform="translate(756.96 376.62) rotate(55.598) scale(.08 -.08)">
<defs>
<path id="s" d="m64.406 67.281v-10.391q-4.9844 4.6406-10.625 6.9219-5.6406 2.2969-11.984 2.2969-12.5 0-19.141-7.6406t-6.6406-22.094q0-14.406 6.6406-22.047t19.141-7.6406q6.3438 0 11.984 2.2969t10.625 6.9375v-10.312q-5.1719-3.5156-10.969-5.2812-5.7812-1.75-12.219-1.75-16.562 0-26.094 10.125-9.5156 10.141-9.5156 27.672 0 17.578 9.5156 27.703 9.5312 10.141 26.094 10.141 6.5312 0 12.312-1.7344 5.7969-1.7344 10.875-5.2031z"/>
</defs>
<use xlink:href="#s"/>
</g>
</g>
<path d="m796.57 382.19 5.3365 2.4088q2.1875 0.98739 3.1749-1.2001l3.1854-7.0569q0.98739-2.1875-1.2001-3.1749l-5.3365-2.4088q-2.1875-0.98739-3.1749 1.2001l-3.1854 7.0569q-0.98739 2.1875 1.2001 3.1749z" clip-path="url(#a)" fill="#fff" stroke="#fff"/>
<g clip-path="url(#a)">
<g transform="translate(798.24 378.48) rotate(24.294) scale(.08 -.08)">
<use xlink:href="#w"/>
</g>
</g>
<path d="m619.91 414.57v33.808q0 2.4 2.4 2.4h7.7425q2.4 0 2.4-2.4v-33.808q0-2.4-2.4-2.4h-7.7425q-2.4 0-2.4 2.4z" clip-path="url(#a)" fill="#fff" stroke="#fff"/>
<g clip-path="url(#a)">
<g transform="translate(623.97 414.57) rotate(90) scale(.08 -.08)">
<use xlink:href="#e"/>
<use x="44.083984" xlink:href="#l"/>
<use x="105.607422" xlink:href="#g"/>
<use x="144.970703" xlink:href="#i"/>
<use x="242.382812" xlink:href="#k"/>
<use x="270.166016" xlink:href="#h"/>
<use x="333.544922" xlink:href="#f"/>
<use x="394.824219" xlink:href="#j"/>
</g>
</g>
<path d="m694.09 414.57v33.808q0 2.4 2.4 2.4h7.7425q2.4 0 2.4-2.4v-33.808q0-2.4-2.4-2.4h-7.7425q-2.4 0-2.4 2.4z" clip-path="url(#a)" fill="#fff" stroke="#fff"/>
<g clip-path="url(#a)">
<g transform="translate(698.16 414.57) rotate(90) scale(.08 -.08)">
<use xlink:href="#e"/>
<use x="44.083984" xlink:href="#l"/>
<use x="105.607422" xlink:href="#g"/>
<use x="144.970703" xlink:href="#i"/>
<use x="242.382812" xlink:href="#k"/>
<use x="270.166016" xlink:href="#h"/>
<use x="333.544922" xlink:href="#f"/>
<use x="394.824219" xlink:href="#j"/>
</g>
</g>
<path d="m772.64 414.57v33.808q0 2.4 2.4 2.4h7.7425q2.4 0 2.4-2.4v-33.808q0-2.4-2.4-2.4h-7.7425q-2.4 0-2.4 2.4z" clip-path="url(#a)" fill="#fff" stroke="#fff"/>
<g clip-path="url(#a)">
<g transform="translate(776.7 414.57) rotate(90) scale(.08 -.08)">
<use xlink:href="#e"/>
<use x="44.083984" xlink:href="#l"/>
<use x="105.607422" xlink:href="#g"/>
<use x="144.970703" xlink:href="#i"/>
<use x="242.382812" xlink:href="#k"/>
<use x="270.166016" xlink:href="#h"/>
<use x="333.544922" xlink:href="#f"/>
<use x="394.824219" xlink:href="#j"/>
</g>
</g>
<path d="m35.183 414.57v33.808q0 2.4 2.4 2.4h7.7425q2.4 0 2.4-2.4v-33.808q0-2.4-2.4-2.4h-7.7425q-2.4 0-2.4 2.4z" clip-path="url(#a)" fill="#fff" stroke="#fff"/>
<g clip-path="url(#a)">
<g transform="translate(39.247 414.57) rotate(90) scale(.08 -.08)">
<use xlink:href="#e"/>
<use x="44.083984" xlink:href="#l"/>
<use x="105.607422" xlink:href="#g"/>
<use x="144.970703" xlink:href="#i"/>
<use x="242.382812" xlink:href="#k"/>
<use x="270.166016" xlink:href="#h"/>
<use x="333.544922" xlink:href="#f"/>
<use x="394.824219" xlink:href="#j"/>
</g>
</g>
<path d="m100.55 327.48 1.5005-5.2628q0.65805-2.308-1.65-2.9661l-7.4458-2.1229q-2.308-0.65805-2.9661 1.65l-1.5005 5.2628q-0.65805 2.308 1.65 2.9661l7.4458 2.1229q2.308 0.65805 2.9661-1.65z" clip-path="url(#a)" fill="#fff" stroke="#fff"/>
<g clip-path="url(#a)">
<g transform="translate(96.645 326.37) rotate(-74.086) scale(.08 -.08)">
<use xlink:href="#o"/>
</g>
</g>
<path d="m112.02 326.46 0.7224-4.7694q0.35942-2.3729-2.0135-2.7324l-7.6552-1.1595q-2.3729-0.35942-2.7324 2.0135l-0.7224 4.7694q-0.35942 2.3729 2.0135 2.7324l7.6552 1.1595q2.3729 0.35942 2.7324-2.0135z" clip-path="url(#a)" fill="#fff" stroke="#fff"/>
<g clip-path="url(#a)">
<g transform="translate(108 325.85) rotate(-81.387) scale(.08 -.08)">
<use xlink:href="#r"/>
</g>
</g>
<path d="m147.43 272.08 4.3098 3.3726q1.8901 1.4791 3.3691-0.41102l4.7715-6.0975q1.4791-1.8901-0.41102-3.3691l-4.3098-3.3726q-1.8901-1.4791-3.3691 0.41102l-4.7715 6.0975q-1.4791 1.8901 0.41102 3.3691z" clip-path="url(#a)" fill="#fff" stroke="#fff"/>
<g clip-path="url(#a)">
<g transform="translate(149.94 268.88) rotate(38.045) scale(.08 -.08)">
<use xlink:href="#o"/>
</g>
</g>
<path d="m112.98 320.26 0.052165 5.8548q0.021382 2.3999 2.4213 2.3785l7.7422-0.068982q2.3999-0.021383 2.3785-2.4213l-0.052165-5.8548q-0.021383-2.3999-2.4213-2.3785l-7.7422 0.068982q-2.3999 0.021382-2.3785 2.4213z" clip-path="url(#a)" fill="#fff" stroke="#fff"/>
<g clip-path="url(#a)">
<g transform="translate(117.04 320.23) rotate(89.49) scale(.08 -.08)">
<use xlink:href="#w"/>
</g>
</g>
<path d="m65.729 414.57v33.808q0 2.4 2.4 2.4h7.7425q2.4 0 2.4-2.4v-33.808q0-2.4-2.4-2.4h-7.7425q-2.4 0-2.4 2.4z" clip-path="url(#a)" fill="#fff" stroke="#fff"/>
<g clip-path="url(#a)">
<g transform="translate(69.792 414.57) rotate(90) scale(.08 -.08)">
<use xlink:href="#e"/>
<use x="44.083984" xlink:href="#l"/>
<use x="105.607422" xlink:href="#g"/>
<use x="144.970703" xlink:href="#i"/>
<use x="242.382812" xlink:href="#k"/>
<use x="270.166016" xlink:href="#h"/>
<use x="333.544922" xlink:href="#f"/>
<use x="394.824219" xlink:href="#j"/>
</g>
</g>
<path d="m87.547 414.57v33.808q0 2.4 2.4 2.4h7.7425q2.4 0 2.4-2.4v-33.808q0-2.4-2.4-2.4h-7.7425q-2.4 0-2.4 2.4z" clip-path="url(#a)" fill="#fff" stroke="#fff"/>
<g clip-path="url(#a)">
<g transform="translate(91.611 414.57) rotate(90) scale(.08 -.08)">
<use xlink:href="#e"/>
<use x="44.083984" xlink:href="#l"/>
<use x="105.607422" xlink:href="#g"/>
<use x="144.970703" xlink:href="#i"/>
<use x="242.382812" xlink:href="#k"/>
<use x="270.166016" xlink:href="#h"/>
<use x="333.544922" xlink:href="#f"/>
<use x="394.824219" xlink:href="#j"/>
</g>
</g>
<path d="m174.46 355.15 1.8369-5.2756q0.78917-2.2665-1.4774-3.0557l-7.312-2.5459q-2.2665-0.78917-3.0557 1.4774l-1.8369 5.2756q-0.78917 2.2665 1.4774 3.0557l7.312 2.5459q2.2665 0.78917 3.0557-1.4774z" clip-path="url(#a)" fill="#fff" stroke="#fff"/>
<g clip-path="url(#a)">
<g transform="translate(170.62 353.81) rotate(-70.803) scale(.08 -.08)">
<use xlink:href="#s"/>
</g>
</g>
<path d="m200.68 324.87 2.8836 4.1518q1.3691 1.9712 3.3403 0.60211l6.3592-4.4167q1.9712-1.3691 0.60211-3.3403l-2.8836-4.1518q-1.3691-1.9712-3.3403-0.60211l-6.3592 4.4167q-1.9712 1.3691-0.60211 3.3403z" clip-path="url(#a)" fill="#fff" stroke="#fff"/>
<g clip-path="url(#a)">
<g transform="translate(204.02 322.55) rotate(55.218) scale(.08 -.08)">
<use xlink:href="#ab"/>
</g>
</g>
<path d="m144.27 414.57v33.808q0 2.4 2.4 2.4h7.7425q2.4 0 2.4-2.4v-33.808q0-2.4-2.4-2.4h-7.7425q-2.4 0-2.4 2.4z" clip-path="url(#a)" fill="#fff" stroke="#fff"/>
<g clip-path="url(#a)">
<g transform="translate(148.34 414.57) rotate(90) scale(.08 -.08)">
<use xlink:href="#e"/>
<use x="44.083984" xlink:href="#l"/>
<use x="105.607422" xlink:href="#g"/>
<use x="144.970703" xlink:href="#i"/>
<use x="242.382812" xlink:href="#k"/>
<use x="270.166016" xlink:href="#h"/>
<use x="333.544922" xlink:href="#f"/>
<use x="394.824219" xlink:href="#j"/>
</g>
</g>
<path d="m209.16 383.67 3.3406-4.443q1.4423-1.9183-0.47593-3.3606l-6.1884-4.653q-1.9183-1.4423-3.3606 0.47593l-3.3406 4.443q-1.4423 1.9183 0.47593 3.3606l6.1884 4.653q1.9183 1.4423 3.3606-0.47593z" clip-path="url(#a)" fill="#fff" stroke="#fff"/>
<g clip-path="url(#a)">
<g transform="translate(205.91 381.22) rotate(-53.061) scale(.08 -.08)">
<use xlink:href="#ai"/>
</g>
</g>
<path d="m231.66 380.37 0.1357-5.0532q0.064425-2.3991-2.3347-2.4636l-7.7397-0.20784q-2.3991-0.064425-2.4636 2.3347l-0.1357 5.0532q-0.064425 2.3991 2.3347 2.4636l7.7397 0.20784q2.3991 0.064425 2.4636-2.3347z" clip-path="url(#a)" fill="#fff" stroke="#fff"/>
<g clip-path="url(#a)">
<g transform="translate(227.59 380.26) rotate(-88.462) scale(.08 -.08)">
<use xlink:href="#ab"/>
</g>
</g>
<path d="m240.61 379.33 3.4323 4.4074q1.4746 1.8936 3.3682 0.41895l6.1087-4.7571q1.8936-1.4746 0.41895-3.3682l-3.4323-4.4074q-1.4746-1.8936-3.3682-0.41895l-6.1087 4.7571q-1.8936 1.4746-0.41895 3.3682z" clip-path="url(#a)" fill="#fff" stroke="#fff"/>
<g clip-path="url(#a)">
<g transform="translate(243.81 376.83) rotate(52.09) scale(.08 -.08)">
<use xlink:href="#s"/>
</g>
</g>
<path d="m179.18 414.57v33.808q0 2.4 2.4 2.4h7.7425q2.4 0 2.4-2.4v-33.808q0-2.4-2.4-2.4h-7.7425q-2.4 0-2.4 2.4z" clip-path="url(#a)" fill="#fff" stroke="#fff"/>
<g clip-path="url(#a)">
<g transform="translate(183.25 414.57) rotate(90) scale(.08 -.08)">
<use xlink:href="#e"/>
<use x="44.083984" xlink:href="#l"/>
<use x="105.607422" xlink:href="#g"/>
<use x="144.970703" xlink:href="#i"/>
<use x="242.382812" xlink:href="#k"/>
<use x="270.166016" xlink:href="#h"/>
<use x="333.544922" xlink:href="#f"/>
<use x="394.824219" xlink:href="#j"/>
</g>
</g>
<path d="m218.46 414.57v33.808q0 2.4 2.4 2.4h7.7425q2.4 0 2.4-2.4v-33.808q0-2.4-2.4-2.4h-7.7425q-2.4 0-2.4 2.4z" clip-path="url(#a)" fill="#fff" stroke="#fff"/>
<g clip-path="url(#a)">
<g transform="translate(222.52 414.57) rotate(90) scale(.08 -.08)">
<use xlink:href="#e"/>
<use x="44.083984" xlink:href="#l"/>
<use x="105.607422" xlink:href="#g"/>
<use x="144.970703" xlink:href="#i"/>
<use x="242.382812" xlink:href="#k"/>
<use x="270.166016" xlink:href="#h"/>
<use x="333.544922" xlink:href="#f"/>
<use x="394.824219" xlink:href="#j"/>
</g>
</g>
<path d="m262.09 414.57v33.808q0 2.4 2.4 2.4h7.7425q2.4 0 2.4-2.4v-33.808q0-2.4-2.4-2.4h-7.7425q-2.4 0-2.4 2.4z" clip-path="url(#a)" fill="#fff" stroke="#fff"/>
<g clip-path="url(#a)">
<g transform="translate(266.16 414.57) rotate(90) scale(.08 -.08)">
<use xlink:href="#e"/>
<use x="44.083984" xlink:href="#l"/>
<use x="105.607422" xlink:href="#g"/>
<use x="144.970703" xlink:href="#i"/>
<use x="242.382812" xlink:href="#k"/>
<use x="270.166016" xlink:href="#h"/>
<use x="333.544922" xlink:href="#f"/>
<use x="394.824219" xlink:href="#j"/>
</g>
</g>
<path d="m48.274 414.57v33.808q0 2.4 2.4 2.4h7.7425q2.4 0 2.4-2.4v-33.808q0-2.4-2.4-2.4h-7.7425q-2.4 0-2.4 2.4z" clip-path="url(#a)" fill="#fff" stroke="#fff"/>
<g clip-path="url(#a)">
<g transform="translate(52.338 414.57) rotate(90) scale(.08 -.08)">
<use xlink:href="#e"/>
<use x="44.083984" xlink:href="#l"/>
<use x="105.607422" xlink:href="#g"/>
<use x="144.970703" xlink:href="#i"/>
<use x="242.382812" xlink:href="#k"/>
<use x="270.166016" xlink:href="#h"/>
<use x="333.544922" xlink:href="#f"/>
<use x="394.824219" xlink:href="#j"/>
</g>
</g>
<path d="m113.73 414.57v33.808q0 2.4 2.4 2.4h7.7425q2.4 0 2.4-2.4v-33.808q0-2.4-2.4-2.4h-7.7425q-2.4 0-2.4 2.4z" clip-path="url(#a)" fill="#fff" stroke="#fff"/>
<g clip-path="url(#a)">
<g transform="translate(117.79 414.57) rotate(90) scale(.08 -.08)">
<use xlink:href="#e"/>
<use x="44.083984" xlink:href="#l"/>
<use x="105.607422" xlink:href="#g"/>
<use x="144.970703" xlink:href="#i"/>
<use x="242.382812" xlink:href="#k"/>
<use x="270.166016" xlink:href="#h"/>
<use x="333.544922" xlink:href="#f"/>
<use x="394.824219" xlink:href="#j"/>
</g>
</g>
<path d="m314.46 414.57v33.808q0 2.4 2.4 2.4h7.7425q2.4 0 2.4-2.4v-33.808q0-2.4-2.4-2.4h-7.7425q-2.4 0-2.4 2.4z" clip-path="url(#a)" fill="#fff" stroke="#fff"/>
<g clip-path="url(#a)">
<g transform="translate(318.52 414.57) rotate(90) scale(.08 -.08)">
<use xlink:href="#e"/>
<use x="44.083984" xlink:href="#l"/>
<use x="105.607422" xlink:href="#g"/>
<use x="144.970703" xlink:href="#i"/>
<use x="242.382812" xlink:href="#k"/>
<use x="270.166016" xlink:href="#h"/>
<use x="333.544922" xlink:href="#f"/>
<use x="394.824219" xlink:href="#j"/>
</g>
</g>
<path d="m855.55 414.57v33.808q0 2.4 2.4 2.4h7.7425q2.4 0 2.4-2.4v-33.808q0-2.4-2.4-2.4h-7.7425q-2.4 0-2.4 2.4z" clip-path="url(#a)" fill="#fff" stroke="#fff"/>
<g clip-path="url(#a)">
<g transform="translate(859.61 414.57) rotate(90) scale(.08 -.08)">
<use xlink:href="#e"/>
<use x="44.083984" xlink:href="#l"/>
<use x="105.607422" xlink:href="#g"/>
<use x="144.970703" xlink:href="#i"/>
<use x="242.382812" xlink:href="#k"/>
<use x="270.166016" xlink:href="#h"/>
<use x="333.544922" xlink:href="#f"/>
<use x="394.824219" xlink:href="#j"/>
</g>
</g>
<defs>
<path id="b" d="m0 8.6603c2.2967 0 4.4997-0.9125 6.1237-2.5365 1.624-1.624 2.5365-3.827 2.5365-6.1237s-0.9125-4.4997-2.5365-6.1237c-1.624-1.624-3.827-2.5365-6.1237-2.5365s-4.4997 0.9125-6.1237 2.5365c-1.624 1.624-2.5365 3.827-2.5365 6.1237s0.9125 4.4997 2.5365 6.1237c1.624 1.624 3.827 2.5365 6.1237 2.5365z"/>
</defs>
<g clip-path="url(#a)" fill="#ffffff" stroke="#ffffff">
<use x="41.454545" y="458.181818" xlink:href="#b"/>
<use x="54.545455" y="458.181818" xlink:href="#b"/>
<use x="72" y="458.181818" xlink:href="#b"/>
<use x="93.818182" y="458.181818" xlink:href="#b"/>
<use x="120" y="458.181818" xlink:href="#b"/>
<use x="150.545455" y="458.181818" xlink:href="#b"/>
<use x="185.454545" y="458.181818" xlink:href="#b"/>
<use x="224.727273" y="458.181818" xlink:href="#b"/>
<use x="268.363636" y="458.181818" xlink:href="#b"/>
<use x="320.727273" y="458.181818" xlink:href="#b"/>
<use x="373.090909" y="458.181818" xlink:href="#b"/>
<use x="429.818182" y="458.181818" xlink:href="#b"/>
<use x="490.909091" y="458.181818" xlink:href="#b"/>
<use x="556.363636" y="458.181818" xlink:href="#b"/>
<use x="626.181818" y="458.181818" xlink:href="#b"/>
<use x="700.363636" y="458.181818" xlink:href="#b"/>
<use x="778.909091" y="458.181818" xlink:href="#b"/>
<use x="861.818182" y="458.181818" xlink:href="#b"/>
<use x="870.545455" y="131.849243" xlink:href="#b"/>
<use x="870.545455" y="131.849243" xlink:href="#b"/>
<use x="272.727273" y="241.507092" xlink:href="#b"/>
<use x="303.111111" y="21.818182" xlink:href="#b"/>
<use x="303.111111" y="76.873143" xlink:href="#b"/>
<use x="303.111111" y="131.849243" xlink:href="#b"/>
<use x="71.515152" y="186.733366" xlink:href="#b"/>
<use x="517.090909" y="296.142602" xlink:href="#b"/>
<use x="373.090909" y="404.758893" xlink:href="#b"/>
<use x="429.818182" y="404.758893" xlink:href="#b"/>
<use x="523.636364" y="404.758893" xlink:href="#b"/>
<use x="741.818182" y="350.592796" xlink:href="#b"/>
<use x="626.181818" y="404.758893" xlink:href="#b"/>
<use x="700.363636" y="404.758893" xlink:href="#b"/>
<use x="778.909091" y="404.758893" xlink:href="#b"/>
<use x="41.454545" y="404.758893" xlink:href="#b"/>
<use x="118.545455" y="241.507092" xlink:href="#b"/>
<use x="72" y="404.758893" xlink:href="#b"/>
<use x="93.818182" y="404.758893" xlink:href="#b"/>
<use x="188.363636" y="296.142602" xlink:href="#b"/>
<use x="150.545455" y="404.758893" xlink:href="#b"/>
<use x="226.181818" y="350.592796" xlink:href="#b"/>
<use x="185.454545" y="404.758893" xlink:href="#b"/>
<use x="224.727273" y="404.758893" xlink:href="#b"/>
<use x="268.363636" y="404.758893" xlink:href="#b"/>
<use x="54.545455" y="404.758893" xlink:href="#b"/>
<use x="120" y="404.758893" xlink:href="#b"/>
<use x="320.727273" y="404.758893" xlink:href="#b"/>
<use x="861.818182" y="404.758893" xlink:href="#b"/>
</g>
<g clip-path="url(#a)">
<g transform="translate(16.823 460.94) scale(.1 -.1)">
<defs>
<path id="be" d="m65.375 72.906v-72.906h-9.8594v64.594h-35.844v-64.594h-9.8594v72.906z"/>
<path id="p" d="m30.609 48.391q-7.2188 0-11.422-5.6406t-4.2031-15.453 4.1719-15.453q4.1875-5.6406 11.453-5.6406 7.1875 0 11.375 5.6562 4.2031 5.6719 4.2031 15.438 0 9.7188-4.2031 15.406-4.1875 5.6875-11.375 5.6875zm0 7.6094q11.719 0 18.406-7.625 6.7031-7.6094 6.7031-21.078 0-13.422-6.7031-21.078-6.6875-7.6406-18.406-7.6406-11.766 0-18.438 7.6406-6.6562 7.6562-6.6562 21.078 0 13.469 6.6562 21.078 6.6719 7.625 18.438 7.625z"/>
<path id="af" d="m9.0781 54.688h13.141l15.531-36.625 15.578 36.625h13.031v-54.688h-9.0312v46.094l-15.094-35.594h-8.9844l-15.141 35.594v-46.094h-9.0312z"/>
<path id="ae" d="m9.0781 54.688h9.0312v-22.312h29.156v22.312h9.0312v-54.688h-9.0312v25.203h-29.156v-25.203h-9.0312z"/>
<path id="ar" d="m55.906 54.688v-54.688h-8.9375v43.891l-26.359-43.891h-11.531v54.688h8.9375v-43.797l26.328 43.797z"/>
<path id="ao" d="m50.25 7.1719h23.141v47.516h9.0312v-54.688h-73.344v54.688h9.0312v-47.516h23.109v47.516h9.0312z"/>
<path id="an" d="m43.453 16.219q0 4.3906-3.2031 6.6875-3.1875 2.2969-9.3438 2.2969h-12.797v-18.031h12.797q6.1562 0 9.3438 2.3125 3.2031 2.3281 3.2031 6.7344zm-34.375 38.469h9.0312v-22.312h13.188q10.453 0 16.094-3.9844 5.6406-3.9688 5.6406-12.172t-5.6406-12.219q-5.6406-4-16.094-4h-22.219z"/>
</defs>
<use xlink:href="#be"/>
<use x="75.195312" xlink:href="#p"/>
<use x="136.376953" xlink:href="#af"/>
<use x="211.816406" xlink:href="#ae"/>
<use x="277.197266" xlink:href="#ar"/>
<use x="342.1875" xlink:href="#ao"/>
<use x="433.691406" xlink:href="#an"/>
</g>
</g>
<g clip-path="url(#a)">
<g transform="translate(52.956 460.94) scale(.1 -.1)">
<defs>
<path id="aw" d="m11.719 12.406h10.297v-8.4062l-8-15.625h-6.2969l4 15.625z"/>
</defs>
<use xlink:href="#aw"/>
</g>
</g>
<g clip-path="url(#a)">
<g transform="translate(65.14 460.94) scale(.1 -.1)">
<defs>
<path id="t" d="m2.9375 54.688h52.391v-7.1719h-21.781v-47.516h-8.8438v47.516h-21.766z"/>
<path id="ay" d="m61.047 54.688h8.9844v-54.688h-8.9844zm4.5 1.3125m-22.094-39.781q0 4.3906-3.2031 6.6875-3.1875 2.2969-9.3438 2.2969h-12.797v-18.031h12.797q6.1562 0 9.3438 2.3125 3.2031 2.3281 3.2031 6.7344zm-34.375 38.469h9.0312v-22.312h13.188q10.453 0 16.094-3.9844 5.6406-3.9688 5.6406-12.172t-5.6406-12.219q-5.6406-4-16.094-4h-22.219z"/>
</defs>
<use xlink:href="#t"/>
<use x="58.251953" xlink:href="#ay"/>
</g>
</g>
<g clip-path="url(#a)">
<g transform="translate(73.629 460.94) scale(.1 -.1)">
<defs>
<path id="as" d="m31.109 56q11.719 0 18.406-7.625 6.6875-7.6094 6.6875-21.078 0-13.422-6.6875-21.078-6.6875-7.6406-18.406-7.6406-11.766 0-18.266 7.4219t-6.8438 21.297l-0.28125 11.188q-0.25 5.7969-0.25 7.8125 0 7.8125 2.8281 13.562 4.4531 9.0312 12.141 12.938t20.578 4.0156q5.9531 0.046875 8.5938 0.875l2.4844-7.125q-2.3906-0.98438-4.5781-1.0312l-12.219-0.82812q-6.1406-0.4375-9.8594-2.5938-9.7188-5.7031-10.641-13.172l-0.34375-2.7344q6.3438 5.7969 16.656 5.7969zm0-7.6094q-7.2344 0-11.438-5.6406-4.1875-5.6406-4.1875-15.453t4.1719-15.453 11.453-5.6406q7.1719 0 11.375 5.6562 4.2031 5.6719 4.2031 15.438 0 9.7188-4.2031 15.406t-11.375 5.6875z"/>
<path id="u" d="m56.203 29.594v-4.3906h-41.312q0.59375-9.2812 5.5938-14.141t13.938-4.8594q5.1719 0 10.031 1.2656t9.6562 3.8125v-8.5q-4.8438-2.0469-9.9219-3.125t-10.297-1.0781q-13.094 0-20.734 7.6094-7.6406 7.625-7.6406 20.625 0 13.422 7.25 21.297 7.25 7.8906 19.562 7.8906 11.031 0 17.453-7.1094 6.4219-7.0938 6.4219-19.297zm-8.9844 2.6406q-0.09375 7.3594-4.125 11.75-4.0312 4.4062-10.672 4.4062-7.5156 0-12.031-4.25t-5.2031-11.969z"/>
<path id="az" d="m82.422 0h-73.344v54.688h9.0312v-47.516h23.109v47.516h9.0312v-47.516h23.141v47.516h9.0312v-47.516h7.1719v-20.984h-7.1719z"/>
<path id="v" d="m34.281 27.484q-10.891 0-15.094-2.4844t-4.2031-8.5q0-4.7812 3.1562-7.5938 3.1562-2.7969 8.5625-2.7969 7.4844 0 12 5.2969t4.5156 14.078v2zm17.922 3.7188v-31.203h-8.9844v8.2969q-3.0781-4.9688-7.6719-7.3438t-11.234-2.375q-8.3906 0-13.359 4.7188-4.9531 4.7188-4.9531 12.625 0 9.2188 6.1719 13.906 6.1875 4.6875 18.438 4.6875h12.609v0.89062q0 6.2031-4.0781 9.5938t-11.453 3.3906q-4.6875 0-9.1406-1.125-4.4375-1.125-8.5312-3.375v8.3125q4.9219 1.9062 9.5625 2.8438 4.6406 0.95312 9.0312 0.95312 11.875 0 17.734-6.1562 5.8594-6.1406 5.8594-18.641z"/>
<path id="aq" d="m3.7188 0v7.4688q8.875 1.375 11.609 7.5156 3.3281 8.6562 3.3281 30.766v8.9375h36.953v-54.688h-8.9844v47.516h-18.984v-5.4219q0-21.094-4.2969-30.562-4.5938-10.109-19.625-11.531z"/>
</defs>
<use xlink:href="#p"/>
<use x="61.181641" xlink:href="#as"/>
<use x="122.851562" xlink:href="#u"/>
<use x="184.375" xlink:href="#az"/>
<use x="278.564453" xlink:href="#v"/>
<use x="339.84375" xlink:href="#aq"/>
</g>
</g>
<g clip-path="url(#a)">
<g transform="translate(115.23 460.94) scale(.1 -.1)">
<defs>
<path id="d" d="m10.688 12.406h10.312v-12.406h-10.312z"/>
</defs>
<use xlink:href="#d"/>
<use x="31.787109" xlink:href="#d"/>
<use x="63.574219" xlink:href="#d"/>
</g>
</g>
<g clip-path="url(#a)">
<g transform="translate(121.21 460.94) scale(.1 -.1)">
<defs>
<path id="ap" d="m18.109 8.2031v-29h-9.0312v75.484h9.0312v-8.2969q2.8438 4.875 7.1562 7.2344 4.3281 2.375 10.328 2.375 9.9688 0 16.188-7.9062 6.2344-7.9062 6.2344-20.797t-6.2344-20.812q-6.2188-7.9062-16.188-7.9062-6 0-10.328 2.375-4.3125 2.375-7.1562 7.25zm30.578 19.094q0 9.9062-4.0781 15.547t-11.203 5.6406q-7.1406 0-11.219-5.6406t-4.0781-15.547 4.0781-15.547 11.219-5.6406q7.125 0 11.203 5.6406t4.0781 15.547z"/>
<path id="ah" d="m21.625 7.1719h26.078v40.344h-18.891v-6.8438q0-20.109-5.7656-30.859zm-13.031 0q4.4375 1.9531 6.3906 6.1094 4.7969 10.297 4.7969 31.062v10.344h36.953v-47.516h7.1875v-20.984h-7.1875v13.812h-44.328v-13.812h-7.1875v20.984z"/>
<path id="ag" d="m9.0781 54.688h8.9375v-25.688l25.344 25.688h11.031l-20.891-21.141 23.578-33.547h-10.062l-19.375 27.594-9.625-9.7656v-17.828h-8.9375z"/>
</defs>
<use xlink:href="#ae"/>
<use x="65.380859" xlink:href="#v"/>
<use x="126.660156" xlink:href="#af"/>
<use x="202.099609" xlink:href="#p"/>
<use x="263.28125" xlink:href="#ap"/>
<use x="326.757812" xlink:href="#ah"/>
<use x="395.898438" xlink:href="#ae"/>
<use x="461.279297" xlink:href="#ar"/>
<use x="526.269531" xlink:href="#ag"/>
</g>
</g>
<g clip-path="url(#a)">
<g transform="translate(175.79 460.94) scale(.1 -.1)">
<defs>
<path id="ax" d="m18.453 38.922q0-4.0625 3.125-6.3594 3.125-2.2812 8.9375-2.2812h12.109v17.234h-12.109q-5.8125 0-8.9375-2.25t-3.125-6.3438zm-12.781-38.922 16.688 23.969q-5.6562 1.2812-9.4219 4.625-3.75 3.3438-3.75 10.328 0 7.9062 5.2344 11.828 5.25 3.9375 15.859 3.9375h21.375v-54.688h-9.0312v23.094h-11.172l-16.125-23.094z"/>
</defs>
<use xlink:href="#ah"/>
<use x="69.140625" xlink:href="#aq"/>
<use x="133.056641" xlink:href="#ax"/>
</g>
</g>
<g clip-path="url(#a)">
<g transform="translate(209.13 460.94) scale(.1 -.1)">
<defs>
<path id="bc" d="m9.0781 0v54.688h38.578v-7.1719h-29.547v-47.516z"/>
</defs>
<use xlink:href="#af"/>
<use x="75.439453" xlink:href="#p"/>
<use x="136.621094" xlink:href="#u"/>
<use x="198.144531" xlink:href="#bc"/>
<use x="250.683594" xlink:href="#p"/>
</g>
</g>
<g clip-path="url(#a)">
<g transform="translate(245.32 461.03) scale(.1 -.1)">
<use xlink:href="#as"/>
<use x="61.669922" xlink:href="#v"/>
<use x="122.949219" xlink:href="#ap"/>
<use x="186.425781" xlink:href="#v"/>
<use x="247.705078" xlink:href="#ao"/>
<use x="339.208984" xlink:href="#ag"/>
<use x="399.609375" xlink:href="#v"/>
</g>
</g>
<g clip-path="url(#a)">
<g transform="translate(315.96 460.94) scale(.1 -.1)">
<use xlink:href="#d"/>
<use x="31.787109" xlink:href="#d"/>
<use x="63.574219" xlink:href="#d"/>
</g>
</g>
<g clip-path="url(#a)">
<g transform="translate(369.62 460.94) scale(.1 -.1)">
<defs>
<path id="bd" d="m20.062 51.906q0-6.3906 3.6406-9.6875t10.766-3.2969h15.344v25.875h-15.344q-7.125 0-10.766-3.25t-3.6406-9.6406zm-13.422-51.906 19.922 31.891q-4.875 1.2656-11.125 5.3906t-6.25 14.625q0 10.062 6.3438 15.531t18.938 5.4688h25.203v-72.906h-9.8594v30.812h-13.188l-19.234-30.812z"/>
</defs>
<use xlink:href="#bd"/>
</g>
</g>
<g clip-path="url(#a)">
<g transform="translate(417.39 460.94) scale(.1 -.1)">
<defs>
<path id="x" d="m18.062 25.203v-18.031h12.797q6.1562 0 9.375 2.3125 3.2188 2.3281 3.2188 6.7344 0 4.3906-3.2188 6.6875t-9.375 2.2969zm0 22.312v-15.141h11.828q5.0781 0 8.2969 2.0156 3.2188 2.0312 3.2188 5.6562 0 3.6094-3.2188 5.5312-3.2188 1.9375-8.2969 1.9375zm-8.9844 7.1719h21.391q9.625 0 14.797-3.5156t5.1719-10.016q0-5.0156-2.6406-7.9844-2.625-2.9531-7.8125-3.6719 6.2031-1.1719 9.625-4.8906 3.4219-3.7031 3.4219-9.2812 0-7.3125-5.6406-11.328-5.6406-4-16.094-4h-22.219z"/>
</defs>
<use xlink:href="#x"/>
<use x="58.935547" xlink:href="#u"/>
<use x="120.458984" xlink:href="#ah"/>
<use x="189.599609" xlink:href="#an"/>
</g>
</g>
<g clip-path="url(#a)">
<g transform="translate(487.96 460.94) scale(.1 -.1)">
<use xlink:href="#x"/>
</g>
</g>
<g clip-path="url(#a)">
<g transform="translate(538.38 460.94) scale(.1 -.1)">
<use xlink:href="#p"/>
<use x="61.181641" xlink:href="#t"/>
<use x="119.433594" xlink:href="#x"/>
<use x="178.369141" xlink:href="#u"/>
<use x="239.892578" xlink:href="#t"/>
<use x="298.144531" xlink:href="#u"/>
</g>
</g>
<g clip-path="url(#a)">
<g transform="translate(620.46 460.94) scale(.1 -.1)">
<defs>
<path id="bb" d="m34.469 29.5q6.0625-1.1719 9.4219-4.75 3.375-3.5625 3.375-8.8281 0-8.4531-6.2969-12.906-6.2969-4.4375-17.922-4.4375-3.9062 0-8.0312 0.6875t-8.5156 2.0469v8.3594q3.4688-1.8125 7.6094-2.7188 4.1562-0.89062 8.6875-0.89062 7.375 0 11.5 2.7344t4.125 7.125q0 4.2969-3.6562 6.9062t-10.344 2.6094h-7.2344v7.4219h7.5625q5.6719 0 8.9688 2.1719t3.2969 5.5938q0 3.125-3.4062 5.375-3.3906 2.25-9.1875 2.25-3.4688 0-7.4062-0.64062-3.9219-0.64062-8.6719-2.0469v8.1562q4.7969 1.1719 8.9375 1.75 4.1562 0.59375 7.8594 0.59375 9.5781 0 15.109-3.8438 5.5469-3.8281 5.5469-10.719 0-4.5312-2.9375-7.6875-2.9219-3.1406-8.3906-4.3125z"/>
</defs>
<use xlink:href="#bb"/>
<use x="53.173828" xlink:href="#v"/>
</g>
</g>
<g clip-path="url(#a)">
<g transform="translate(691.48 460.94) scale(.1 -.1)">
<use xlink:href="#t"/>
<use x="58.251953" xlink:href="#p"/>
<use x="119.433594" xlink:href="#t"/>
</g>
</g>
<g clip-path="url(#a)">
<g transform="translate(760.49 460.94) scale(.1 -.1)">
<defs>
<path id="ba" d="m56.297 0h-47.219v54.688h9.0312v-47.516h29.156v47.516h9.0312v-47.516h7.1875v-20.984h-7.1875z"/>
</defs>
<use xlink:href="#ba"/>
<use x="68.066406" xlink:href="#x"/>
<use x="127.001953" xlink:href="#u"/>
<use x="188.525391" xlink:href="#t"/>
<use x="246.777344" xlink:href="#p"/>
<use x="307.958984" xlink:href="#ag"/>
</g>
</g>
<g clip-path="url(#a)">
<g transform="translate(860.23 460.94) scale(.1 -.1)">
<use xlink:href="#d"/>
</g>
</g>
<g clip-path="url(#a)">
<g transform="translate(849.46 134.61) scale(.1 -.1)">
<defs>
<path id="n" d="m9.8125 72.906h9.8594v-72.906h-9.8594z"/>
<path id="y" d="m9.8125 72.906h14.703l18.594-49.609 18.703 49.609h14.703v-72.906h-9.625v64.016l-18.797-50h-9.9062l-18.797 50v-64.016h-9.5781z"/>
<path id="z" d="m9.8125 72.906h9.8594v-64.609h35.5v-8.2969h-45.359z"/>
</defs>
<use xlink:href="#n"/>
<use x="29.492188" xlink:href="#y"/>
<use x="115.771484" xlink:href="#r"/>
<use x="176.074219" xlink:href="#z"/>
<use x="231.787109" xlink:href="#n"/>
<use x="261.279297" xlink:href="#s"/>
<use x="331.103516" xlink:href="#n"/>
<use x="360.595703" xlink:href="#e"/>
</g>
</g>
<g clip-path="url(#a)">
<g transform="translate(849.46 134.61) scale(.1 -.1)">
<use xlink:href="#n"/>
<use x="29.492188" xlink:href="#y"/>
<use x="115.771484" xlink:href="#r"/>
<use x="176.074219" xlink:href="#z"/>
<use x="231.787109" xlink:href="#n"/>
<use x="261.279297" xlink:href="#s"/>
<use x="331.103516" xlink:href="#n"/>
<use x="360.595703" xlink:href="#e"/>
</g>
</g>
<g clip-path="url(#a)">
<g transform="translate(251.64 244.27) scale(.1 -.1)">
<use xlink:href="#n"/>
<use x="29.492188" xlink:href="#y"/>
<use x="115.771484" xlink:href="#r"/>
<use x="176.074219" xlink:href="#z"/>
<use x="231.787109" xlink:href="#n"/>
<use x="261.279297" xlink:href="#s"/>
<use x="331.103516" xlink:href="#n"/>
<use x="360.595703" xlink:href="#e"/>
</g>
</g>
<g clip-path="url(#a)">
<g transform="translate(295.16 24.578) scale(.1 -.1)">
<defs>
<path id="c" d="m12.406 8.2969h16.109v55.625l-17.531-3.5156v8.9844l17.438 3.5156h9.8594v-64.609h16.109v-8.2969h-41.984z"/>
</defs>
<use xlink:href="#c"/>
<use x="63.623047" xlink:href="#d"/>
<use x="95.410156" xlink:href="#c"/>
</g>
</g>
<g clip-path="url(#a)">
<g transform="translate(295.16 79.633) scale(.1 -.1)">
<defs>
<path id="m" d="m19.188 8.2969h34.422v-8.2969h-46.281v8.2969q5.6094 5.8125 15.297 15.594 9.7031 9.7969 12.188 12.641 4.7344 5.3125 6.6094 9 1.8906 3.6875 1.8906 7.25 0 5.8125-4.0781 9.4688-4.0781 3.6719-10.625 3.6719-4.6406 0-9.7969-1.6094-5.1406-1.6094-11-4.8906v9.9688q5.9531 2.3906 11.125 3.6094 5.1875 1.2188 9.4844 1.2188 11.328 0 18.062-5.6719 6.7344-5.6562 6.7344-15.125 0-4.5-1.6875-8.5312-1.6719-4.0156-6.125-9.4844-1.2188-1.4219-7.7656-8.1875-6.5312-6.7656-18.453-18.922z"/>
</defs>
<use xlink:href="#c"/>
<use x="63.623047" xlink:href="#d"/>
<use x="95.410156" xlink:href="#m"/>
</g>
</g>
<g clip-path="url(#a)">
<g transform="translate(295.16 134.61) scale(.1 -.1)">
<defs>
<path id="ad" d="m33.016 40.375q-6.6406 0-10.531-4.5469-3.875-4.5312-3.875-12.438 0-7.8594 3.875-12.438 3.8906-4.5625 10.531-4.5625t10.516 4.5625q3.875 4.5781 3.875 12.438 0 7.9062-3.875 12.438-3.875 4.5469-10.516 4.5469zm19.578 30.922v-8.9844q-3.7188 1.75-7.5 2.6719-3.7812 0.9375-7.5 0.9375-9.7656 0-14.922-6.5938-5.1406-6.5938-5.875-19.922 2.875 4.25 7.2188 6.5156 4.3594 2.2656 9.5781 2.2656 10.984 0 17.359-6.6719 6.375-6.6562 6.375-18.125 0-11.234-6.6406-18.031-6.6406-6.7812-17.672-6.7812-12.656 0-19.344 9.6875-6.6875 9.7031-6.6875 28.109 0 17.281 8.2031 27.562t22.016 10.281q3.7188 0 7.5-0.73438t7.8906-2.1875z"/>
</defs>
<use xlink:href="#c"/>
<use x="63.623047" xlink:href="#d"/>
<use x="95.410156" xlink:href="#ad"/>
</g>
</g>
<g clip-path="url(#a)">
<g transform="translate(63.564 189.49) scale(.1 -.1)">
<defs>
<path id="ak" d="m8.2031 72.906h46.875v-4.2031l-26.469-68.703h-10.297l24.906 64.594h-35.016z"/>
</defs>
<use xlink:href="#c"/>
<use x="63.623047" xlink:href="#d"/>
<use x="95.410156" xlink:href="#ak"/>
</g>
</g>
<g clip-path="url(#a)">
<g transform="translate(509.14 298.9) scale(.1 -.1)">
<defs>
<path id="ac" d="m31.781 34.625q-7.0312 0-11.062-3.7656-4.0156-3.7656-4.0156-10.344 0-6.5938 4.0156-10.359 4.0312-3.7656 11.062-3.7656t11.078 3.7812q4.0625 3.7969 4.0625 10.344 0 6.5781-4.0312 10.344-4.0156 3.7656-11.109 3.7656zm-9.8594 4.1875q-6.3438 1.5625-9.8906 5.9062-3.5312 4.3594-3.5312 10.609 0 8.7344 6.2188 13.812 6.2344 5.0781 17.062 5.0781 10.891 0 17.094-5.0781t6.2031-13.812q0-6.25-3.5469-10.609-3.5312-4.3438-9.8281-5.9062 7.125-1.6562 11.094-6.5 3.9844-4.8281 3.9844-11.797 0-10.609-6.4688-16.281-6.4688-5.6562-18.531-5.6562-12.047 0-18.531 5.6562-6.4688 5.6719-6.4688 16.281 0 6.9688 4 11.797 4.0156 4.8438 11.141 6.5zm-3.6094 15.578q0-5.6562 3.5312-8.8281 3.5469-3.1719 9.9375-3.1719 6.3594 0 9.9375 3.1719 3.5938 3.1719 3.5938 8.8281 0 5.6719-3.5938 8.8438-3.5781 3.1719-9.9375 3.1719-6.3906 0-9.9375-3.1719-3.5312-3.1719-3.5312-8.8438z"/>
</defs>
<use xlink:href="#c"/>
<use x="63.623047" xlink:href="#d"/>
<use x="95.410156" xlink:href="#ac"/>
</g>
</g>
<g clip-path="url(#a)">
<g transform="translate(361.96 407.52) scale(.1 -.1)">
<defs>
<path id="am" d="m31.781 66.406q-7.6094 0-11.453-7.5-3.8281-7.4844-3.8281-22.531 0-14.984 3.8281-22.484 3.8438-7.5 11.453-7.5 7.6719 0 11.5 7.5 3.8438 7.5 3.8438 22.484 0 15.047-3.8438 22.531-3.8281 7.5-11.5 7.5zm0 7.8125q12.266 0 18.734-9.7031 6.4688-9.6875 6.4688-28.141 0-18.406-6.4688-28.109-6.4688-9.6875-18.734-9.6875-12.25 0-18.719 9.6875-6.4688 9.7031-6.4688 28.109 0 18.453 6.4688 28.141 6.4688 9.7031 18.719 9.7031z"/>
</defs>
<use xlink:href="#c"/>
<use x="63.623047" xlink:href="#d"/>
<use x="95.410156" xlink:href="#c"/>
<use x="159.033203" xlink:href="#am"/>
</g>
</g>
<g clip-path="url(#a)">
<g transform="translate(418.69 407.52) scale(.1 -.1)">
<use xlink:href="#c"/>
<use x="63.623047" xlink:href="#d"/>
<use x="95.410156" xlink:href="#c"/>
<use x="159.033203" xlink:href="#c"/>
</g>
</g>
<g clip-path="url(#a)">
<g transform="translate(512.5 407.52) scale(.1 -.1)">
<use xlink:href="#c"/>
<use x="63.623047" xlink:href="#d"/>
<use x="95.410156" xlink:href="#c"/>
<use x="159.033203" xlink:href="#m"/>
</g>
</g>
<g clip-path="url(#a)">
<g transform="translate(730.69 353.35) scale(.1 -.1)">
<defs>
<path id="q" d="m40.578 39.312q7.0781-1.5156 11.047-6.3125 3.9844-4.7812 3.9844-11.812 0-10.781-7.4219-16.703-7.4219-5.9062-21.094-5.9062-4.5781 0-9.4375 0.90625t-10.031 2.7188v9.5156q4.0938-2.3906 8.9688-3.6094 4.8906-1.2188 10.219-1.2188 9.2656 0 14.125 3.6562t4.8594 10.641q0 6.4531-4.5156 10.078-4.5156 3.6406-12.562 3.6406h-8.5v8.1094h8.8906q7.2656 0 11.125 2.9062t3.8594 8.375q0 5.6094-3.9844 8.6094-3.9688 3.0156-11.391 3.0156-4.0625 0-8.7031-0.89062-4.6406-0.875-10.203-2.7188v8.7812q5.625 1.5625 10.531 2.3438t9.25 0.78125q11.234 0 17.766-5.1094 6.5469-5.0938 6.5469-13.781 0-6.0625-3.4688-10.234t-9.8594-5.7812z"/>
</defs>
<use xlink:href="#c"/>
<use x="63.623047" xlink:href="#d"/>
<use x="95.410156" xlink:href="#c"/>
<use x="159.033203" xlink:href="#q"/>
</g>
</g>
<g clip-path="url(#a)">
<g transform="translate(615.05 407.52) scale(.1 -.1)">
<defs>
<path id="av" d="m37.797 64.312-24.906-38.922h24.906zm-2.5938 8.5938h12.406v-47.516h10.406v-8.2031h-10.406v-17.188h-9.8125v17.188h-32.906v9.5156z"/>
</defs>
<use xlink:href="#c"/>
<use x="63.623047" xlink:href="#d"/>
<use x="95.410156" xlink:href="#c"/>
<use x="159.033203" xlink:href="#av"/>
</g>
</g>
<g clip-path="url(#a)">
<g transform="translate(689.23 407.52) scale(.1 -.1)">
<defs>
<path id="al" d="m10.797 72.906h38.719v-8.3125h-29.688v-17.859q2.1406 0.73438 4.2812 1.0938 2.1562 0.35938 4.3125 0.35938 12.203 0 19.328-6.6875 7.1406-6.6875 7.1406-18.109 0-11.766-7.3281-18.297-7.3281-6.5156-20.656-6.5156-4.5938 0-9.3594 0.78125-4.75 0.78125-9.8281 2.3438v9.9219q4.3906-2.3906 9.0781-3.5625t9.9062-1.1719q8.4531 0 13.375 4.4375 4.9375 4.4375 4.9375 12.062 0 7.6094-4.9375 12.047-4.9219 4.4531-13.375 4.4531-3.9531 0-7.8906-0.875-3.9219-0.875-8.0156-2.7344z"/>
</defs>
<use xlink:href="#c"/>
<use x="63.623047" xlink:href="#d"/>
<use x="95.410156" xlink:href="#c"/>
<use x="159.033203" xlink:href="#al"/>
</g>
</g>
<g clip-path="url(#a)">
<g transform="translate(767.78 407.52) scale(.1 -.1)">
<use xlink:href="#c"/>
<use x="63.623047" xlink:href="#d"/>
<use x="95.410156" xlink:href="#c"/>
<use x="159.033203" xlink:href="#ad"/>
</g>
</g>
<g clip-path="url(#a)">
<g transform="translate(30.322 407.52) scale(.1 -.1)">
<use xlink:href="#c"/>
<use x="63.623047" xlink:href="#d"/>
<use x="95.410156" xlink:href="#c"/>
<use x="159.033203" xlink:href="#ac"/>
</g>
</g>
<g clip-path="url(#a)">
<g transform="translate(107.41 244.27) scale(.1 -.1)">
<defs>
<path id="aj" d="m10.984 1.5156v8.9844q3.7188-1.7656 7.5156-2.6875 3.8125-0.92188 7.4844-0.92188 9.7656 0 14.906 6.5625 5.1562 6.5625 5.8906 19.953-2.8281-4.2031-7.1875-6.4531-4.3438-2.25-9.6094-2.25-10.938 0-17.312 6.6094-6.375 6.625-6.375 18.109 0 11.219 6.6406 18 6.6406 6.7969 17.672 6.7969 12.656 0 19.312-9.7031 6.6719-9.6875 6.6719-28.141 0-17.234-8.1875-27.516-8.1719-10.281-21.984-10.281-3.7188 0-7.5312 0.73438-3.7969 0.73438-7.9062 2.2031zm19.625 30.906q6.6406 0 10.516 4.5312 3.8906 4.5469 3.8906 12.469 0 7.8594-3.8906 12.422-3.875 4.5625-10.516 4.5625t-10.516-4.5625-3.875-12.422q0-7.9219 3.875-12.469 3.875-4.5312 10.516-4.5312z"/>
</defs>
<use xlink:href="#c"/>
<use x="63.623047" xlink:href="#d"/>
<use x="95.410156" xlink:href="#c"/>
<use x="159.033203" xlink:href="#aj"/>
</g>
</g>
<g clip-path="url(#a)">
<g transform="translate(60.867 407.52) scale(.1 -.1)">
<use xlink:href="#c"/>
<use x="63.623047" xlink:href="#d"/>
<use x="95.410156" xlink:href="#m"/>
<use x="159.033203" xlink:href="#c"/>
</g>
</g>
<g clip-path="url(#a)">
<g transform="translate(82.685 407.52) scale(.1 -.1)">
<use xlink:href="#c"/>
<use x="63.623047" xlink:href="#d"/>
<use x="95.410156" xlink:href="#m"/>
<use x="159.033203" xlink:href="#m"/>
</g>
</g>
<g clip-path="url(#a)">
<g transform="translate(177.23 298.9) scale(.1 -.1)">
<use xlink:href="#c"/>
<use x="63.623047" xlink:href="#d"/>
<use x="95.410156" xlink:href="#m"/>
<use x="159.033203" xlink:href="#q"/>
</g>
</g>
<g clip-path="url(#a)">
<g transform="translate(139.41 407.52) scale(.1 -.1)">
<use xlink:href="#c"/>
<use x="63.623047" xlink:href="#d"/>
<use x="95.410156" xlink:href="#m"/>
<use x="159.033203" xlink:href="#al"/>
</g>
</g>
<g clip-path="url(#a)">
<g transform="translate(215.05 353.35) scale(.1 -.1)">
<use xlink:href="#c"/>
<use x="63.623047" xlink:href="#d"/>
<use x="95.410156" xlink:href="#m"/>
<use x="159.033203" xlink:href="#ad"/>
</g>
</g>
<g clip-path="url(#a)">
<g transform="translate(174.32 407.52) scale(.1 -.1)">
<use xlink:href="#c"/>
<use x="63.623047" xlink:href="#d"/>
<use x="95.410156" xlink:href="#m"/>
<use x="159.033203" xlink:href="#ak"/>
</g>
</g>
<g clip-path="url(#a)">
<g transform="translate(213.59 407.52) scale(.1 -.1)">
<use xlink:href="#c"/>
<use x="63.623047" xlink:href="#d"/>
<use x="95.410156" xlink:href="#m"/>
<use x="159.033203" xlink:href="#ac"/>
</g>
</g>
<g clip-path="url(#a)">
<g transform="translate(257.23 407.52) scale(.1 -.1)">
<use xlink:href="#c"/>
<use x="63.623047" xlink:href="#d"/>
<use x="95.410156" xlink:href="#m"/>
<use x="159.033203" xlink:href="#aj"/>
</g>
</g>
<g clip-path="url(#a)">
<g transform="translate(43.413 407.52) scale(.1 -.1)">
<use xlink:href="#c"/>
<use x="63.623047" xlink:href="#d"/>
<use x="95.410156" xlink:href="#q"/>
<use x="159.033203" xlink:href="#am"/>
</g>
</g>
<g clip-path="url(#a)">
<g transform="translate(108.87 407.52) scale(.1 -.1)">
<use xlink:href="#c"/>
<use x="63.623047" xlink:href="#d"/>
<use x="95.410156" xlink:href="#q"/>
<use x="159.033203" xlink:href="#c"/>
</g>
</g>
<g clip-path="url(#a)">
<g transform="translate(309.59 407.52) scale(.1 -.1)">
<use xlink:href="#c"/>
<use x="63.623047" xlink:href="#d"/>
<use x="95.410156" xlink:href="#q"/>
<use x="159.033203" xlink:href="#m"/>
</g>
</g>
<g clip-path="url(#a)">
<g transform="translate(850.69 407.52) scale(.1 -.1)">
<use xlink:href="#c"/>
<use x="63.623047" xlink:href="#d"/>
<use x="95.410156" xlink:href="#q"/>
<use x="159.033203" xlink:href="#q"/>
</g>
</g>
<defs>
<clipPath id="a">
<rect width="912" height="480"/>
</clipPath>
</defs>
</svg>
