<?xml version="1.0" encoding="UTF-8"?>
<!DOCTYPE svg  PUBLIC '-//W3C//DTD SVG 1.1//EN'  'http://www.w3.org/Graphics/SVG/1.1/DTD/svg11.dtd'>
<svg width="1672pt" height="880pt" version="1.1" viewBox="0 0 1672 880" xmlns="http://www.w3.org/2000/svg" xmlns:xlink="http://www.w3.org/1999/xlink">
<metadata>
<rdf:RDF xmlns:cc="http://creativecommons.org/ns#" xmlns:dc="http://purl.org/dc/elements/1.1/" xmlns:rdf="http://www.w3.org/1999/02/22-rdf-syntax-ns#">
<cc:Work>
<dc:type rdf:resource="http://purl.org/dc/dcmitype/StillImage"/>
<dc:date>2021-02-01T11:26:30.658339</dc:date>
<dc:format>image/svg+xml</dc:format>
<dc:creator>
<cc:Agent>
<dc:title>Matplotlib v3.3.3, https://matplotlib.org/</dc:title>
</cc:Agent>
</dc:creator>
</cc:Work>
</rdf:RDF>
</metadata>
<defs>
<style type="text/css">*{stroke-linecap:butt;stroke-linejoin:round;}</style>
</defs>
<path d="m0 880h1672v-880h-1672z" fill="#fff"/>
<g fill="none" stroke="#000">
<path d="m242.05 40-128.39 460.04" clip-path="url(#a)"/>
<path d="m242.05 40-18.414 687.92" clip-path="url(#a)"/>
<path d="m242.05 40 205.02 115.34" clip-path="url(#a)"/>
<path d="m242.05 40-58.211 687.92" clip-path="url(#a)"/>
<path d="m113.66 500.04-37.658 227.88" clip-path="url(#a)"/>
<path d="m113.66 500.04-5.991 114.24" clip-path="url(#a)"/>
<path d="m113.66 500.04 26.532 227.88" clip-path="url(#a)"/>
<path d="m113.66 500.04 47.072 227.88" clip-path="url(#a)"/>
<path d="m113.66 500.04-29.955 227.88" clip-path="url(#a)"/>
<path d="m223.64 727.92-14.122 112.08" clip-path="url(#a)"/>
<path d="m223.64 727.92 14.122 112.08" clip-path="url(#a)"/>
<path d="m447.07 155.34-178.5 572.57" clip-path="url(#a)"/>
<path d="m447.07 155.34-145.12 572.57" clip-path="url(#a)"/>
<path d="m447.07 155.34 503.45 115.15" clip-path="url(#a)"/>
<path d="m447.07 155.34-109.17 572.57" clip-path="url(#a)"/>
<path d="m447.07 155.34-70.661 572.57" clip-path="url(#a)"/>
<path d="m268.57 727.92v112.08" clip-path="url(#a)"/>
<path d="m301.95 727.92v112.08" clip-path="url(#a)"/>
<path d="m950.52 270.49-359.95 114.92" clip-path="url(#a)"/>
<path d="m950.52 270.49 273.18 457.43" clip-path="url(#a)"/>
<path d="m950.52 270.49-73.44 229.54" clip-path="url(#a)"/>
<path d="m950.52 270.49 160.21 457.43" clip-path="url(#a)"/>
<path d="m590.57 385.41-151.26 342.51" clip-path="url(#a)"/>
<path d="m590.57 385.41-34.434 342.51" clip-path="url(#a)"/>
<path d="m590.57 385.41 16.917 342.51" clip-path="url(#a)"/>
<path d="m590.57 385.41 251.99 114.63" clip-path="url(#a)"/>
<path d="m590.57 385.41-83.218 342.51" clip-path="url(#a)"/>
<path d="m1223.7 727.92-38.514 112.08" clip-path="url(#a)"/>
<path d="m1223.7 727.92 38.514 112.08" clip-path="url(#a)"/>
<path d="m877.08 500.04 590.54 114.24" clip-path="url(#a)"/>
<path d="m877.08 500.04-320.95 227.88" clip-path="url(#a)" stroke-dasharray="3.7,1.6"/>
<path d="m877.08 500.04-269.59 227.88" clip-path="url(#a)" stroke-dasharray="3.7,1.6"/>
<path d="m1467.6 614.27-125.81 113.64" clip-path="url(#a)"/>
<path d="m1467.6 614.27-43.649 113.64" clip-path="url(#a)"/>
<path d="m1467.6 614.27 41.081 113.64" clip-path="url(#a)"/>
<path d="m1467.6 614.27 128.38 113.64" clip-path="url(#a)"/>
<path d="m1341.8 727.92v112.08" clip-path="url(#a)"/>
<path d="m1424 727.92v112.08" clip-path="url(#a)"/>
<path d="m1508.7 727.92v112.08" clip-path="url(#a)"/>
<path d="m439.31 727.92-21.824 112.08" clip-path="url(#a)"/>
<path d="m439.31 727.92 21.824 112.08" clip-path="url(#a)"/>
<path d="m556.14 727.92v112.08" clip-path="url(#a)"/>
<path d="m607.49 727.92v112.08" clip-path="url(#a)"/>
<path d="m842.56 500.04-123.81 114.24" clip-path="url(#a)"/>
<path d="m842.56 500.04 127.81 227.88" clip-path="url(#a)"/>
<path d="m842.56 500.04-3.994 227.88" clip-path="url(#a)"/>
<path d="m718.75 614.27-57.342 113.64" clip-path="url(#a)"/>
<path d="m718.75 614.27-0.85586 113.64" clip-path="url(#a)"/>
<path d="m718.75 614.27 58.198 113.64" clip-path="url(#a)"/>
<path d="m970.37 727.92-67.613 112.08" clip-path="url(#a)"/>
<path d="m970.37 727.92-0.85586 112.08" clip-path="url(#a)"/>
<path d="m970.37 727.92 68.468 112.08" clip-path="url(#a)"/>
<path d="m661.41 727.92v112.08" clip-path="url(#a)"/>
<path d="m717.89 727.92v112.08" clip-path="url(#a)"/>
<path d="m776.95 727.92v112.08" clip-path="url(#a)"/>
<path d="m76 727.92v112.08" clip-path="url(#a)"/>
<path d="m107.67 614.27-13.694 225.73" clip-path="url(#a)"/>
<path d="m107.67 614.27 14.55 225.73" clip-path="url(#a)"/>
<path d="m107.67 614.27-0.85586 113.64" clip-path="url(#a)"/>
<path d="m140.19 727.92v112.08" clip-path="url(#a)"/>
<path d="m160.73 727.92v112.08" clip-path="url(#a)"/>
<path d="m83.703 727.92v112.08" clip-path="url(#a)"/>
<path d="m106.81 727.92v112.08" clip-path="url(#a)"/>
<path d="m183.84 727.92v112.08" clip-path="url(#a)"/>
<path d="m337.89 727.92v112.08" clip-path="url(#a)"/>
<path d="m376.41 727.92v112.08" clip-path="url(#a)"/>
<path d="m507.35 727.92v112.08" clip-path="url(#a)"/>
<path d="m838.57 727.92v112.08" clip-path="url(#a)"/>
<path d="m1110.7 727.92v112.08" clip-path="url(#a)"/>
<path d="m1596 727.92v112.08" clip-path="url(#a)"/>
</g>
<path d="m183.09 274.6 1.6173-5.7948q0.64516-2.3117-1.6665-2.9568l-7.4575-2.0813q-2.3117-0.64516-2.9568 1.6665l-1.6173 5.7948q-0.64516 2.3117 1.6665 2.9568l7.4575 2.0813q2.3117 0.64516 2.9568-1.6665z" clip-path="url(#a)" fill="#fff" stroke="#fff"/>
<g clip-path="url(#a)">
<g transform="translate(179.17 273.51) rotate(-74.406) scale(.08 -.08)">
<defs>
<path id="z" d="m9.8125 72.906h9.8594v-29.891h35.844v29.891h9.8594v-72.906h-9.8594v34.719h-35.844v-34.719h-9.8594z"/>
</defs>
<use xlink:href="#z"/>
</g>
</g>
<path d="m239.05 386.35 0.11928-4.4559q0.06422-2.3991-2.3349-2.4634l-7.7397-0.20718q-2.3991-0.06422-2.4634 2.3349l-0.11928 4.4559q-0.06422 2.3991 2.3349 2.4634l7.7397 0.20718q2.3991 0.06422 2.4634-2.3349z" clip-path="url(#a)" fill="#fff" stroke="#fff"/>
<g clip-path="url(#a)">
<g transform="translate(234.99 386.25) rotate(-88.467) scale(.08 -.08)">
<defs>
<path id="ap" d="m9.8125 72.906h9.8594v-64.609h35.5v-8.2969h-45.359z"/>
</defs>
<use xlink:href="#ap"/>
</g>
</g>
<path d="m338.86 101.66 5.2434 2.9499q2.0917 1.1768 3.2685-0.91491l3.7963-6.7479q1.1768-2.0917-0.91491-3.2685l-5.2434-2.9499q-2.0917-1.1768-3.2685 0.91491l-3.7963 6.7479q-1.1768 2.0917 0.91491 3.2685z" clip-path="url(#a)" fill="#fff" stroke="#fff"/>
<g clip-path="url(#a)">
<g transform="translate(340.85 98.12) rotate(29.362) scale(.08 -.08)">
<use xlink:href="#z"/>
</g>
</g>
<path d="m218.95 387.4 0.49368-5.8342q0.20236-2.3915-2.1891-2.5938l-7.7149-0.65284q-2.3915-0.20236-2.5938 2.1891l-0.49368 5.8341q-0.20236 2.3915 2.1891 2.5938l7.7149 0.65284q2.3915 0.20236 2.5938-2.1891z" clip-path="url(#a)" fill="#fff" stroke="#fff"/>
<g clip-path="url(#a)">
<g transform="translate(214.9 387.06) rotate(-85.163) scale(.08 -.08)">
<defs>
<path id="p" d="m8.6875 72.906h9.9219v-44.297q0-11.719 4.2344-16.875 4.25-5.1406 13.781-5.1406 9.4688 0 13.719 5.1406 4.25 5.1562 4.25 16.875v44.297h9.9062v-45.516q0-14.25-7.0625-21.531-7.0469-7.2812-20.812-7.2812-13.828 0-20.891 7.2812-7.0469 7.2812-7.0469 21.531z"/>
</defs>
<use xlink:href="#p"/>
</g>
</g>
<path d="m100.51 618.06 1.0106-6.1158q0.3913-2.3679-1.9766-2.7592l-7.6389-1.2623q-2.3679-0.3913-2.7592 1.9766l-1.0106 6.1158q-0.3913 2.3679 1.9766 2.7592l7.6389 1.2623q2.3679 0.3913 2.7592-1.9766z" clip-path="url(#a)" fill="#fff" stroke="#fff"/>
<g clip-path="url(#a)">
<g transform="translate(96.501 617.39) rotate(-80.617) scale(.08 -.08)">
<defs>
<path id="aq" d="m59.516 10.406v19.578h-16.109v8.1094h25.875v-31.312q-5.7031-4.0469-12.594-6.125-6.875-2.0781-14.688-2.0781-17.094 0-26.75 9.9844-9.6406 10-9.6406 27.812 0 17.875 9.6406 27.859 9.6562 9.9844 26.75 9.9844 7.125 0 13.547-1.7656 6.4219-1.75 11.844-5.1719v-10.5q-5.4688 4.6406-11.625 6.9844t-12.938 2.3438q-13.391 0-20.109-7.4688-6.7031-7.4688-6.7031-22.266 0-14.75 6.7031-22.219 6.7188-7.4688 20.109-7.4688 5.2188 0 9.3125 0.90625 4.1094 0.90625 7.375 2.8125z"/>
</defs>
<use xlink:href="#aq"/>
</g>
</g>
<path d="m116.78 560.22 0.2866-5.465q0.12569-2.3967-2.271-2.5224l-7.7319-0.40548q-2.3967-0.12569-2.5224 2.271l-0.2866 5.465q-0.12569 2.3967 2.271 2.5224l7.7319 0.40548q2.3967 0.12569 2.5224-2.271z" clip-path="url(#a)" fill="#fff" stroke="#fff"/>
<g clip-path="url(#a)">
<g transform="translate(112.72 560) rotate(-86.998) scale(.08 -.08)">
<defs>
<path id="r" d="m34.188 63.188-13.391-36.281h26.812zm-5.5781 9.7188h11.188l27.781-72.906h-10.25l-6.6406 18.703h-32.859l-6.6406-18.703h-10.406z"/>
</defs>
<use xlink:href="#r"/>
</g>
</g>
<path d="m120.38 611.98 0.63287 5.4358q0.27755 2.3839 2.6614 2.1063l7.6906-0.89539q2.3839-0.27755 2.1063-2.6614l-0.63287-5.4358q-0.27755-2.3839-2.6614-2.1063l-7.6906 0.89539q-2.3839 0.27755-2.1063 2.6614z" clip-path="url(#a)" fill="#fff" stroke="#fff"/>
<g clip-path="url(#a)">
<g transform="translate(124.41 611.51) rotate(83.359) scale(.08 -.08)">
<use xlink:href="#r"/>
</g>
</g>
<path d="m130.56 612.88 0.97581 4.724q0.4855 2.3504 2.8359 1.8649l7.5824-1.5663q2.3504-0.4855 1.8649-2.8359l-0.97581-4.724q-0.4855-2.3504-2.8359-1.8649l-7.5824 1.5663q-2.3504 0.4855-1.8649 2.8359z" clip-path="url(#a)" fill="#fff" stroke="#fff"/>
<g clip-path="url(#a)">
<g transform="translate(134.54 612.06) rotate(78.329) scale(.08 -.08)">
<defs>
<path id="ao" d="m19.672 64.797v-27.391h12.406q6.8906 0 10.641 3.5625 3.7656 3.5625 3.7656 10.156 0 6.5469-3.7656 10.109-3.75 3.5625-10.641 3.5625zm-9.8594 8.1094h22.266q12.266 0 18.531-5.5469 6.2812-5.5469 6.2812-16.234 0-10.797-6.2812-16.312-6.2656-5.5156-18.531-5.5156h-12.406v-29.297h-9.8594z"/>
</defs>
<use xlink:href="#ao"/>
</g>
</g>
<path d="m104.52 617.7 0.76308-5.8051q0.31279-2.3795-2.0667-2.6923l-7.6765-1.0091q-2.3795-0.31279-2.6923 2.0667l-0.76308 5.8051q-0.31279 2.3795 2.0667 2.6923l7.6765 1.0091q2.3795 0.31279 2.6923-2.0667z" clip-path="url(#a)" fill="#fff" stroke="#fff"/>
<g clip-path="url(#a)">
<g transform="translate(100.49 617.17) rotate(-82.511) scale(.08 -.08)">
<use xlink:href="#p"/>
</g>
</g>
<path d="m220.68 801.51 4.2261-33.542q0.30001-2.3812-2.0812-2.6812l-7.6818-0.96784q-2.3812-0.30001-2.6812 2.0812l-4.2261 33.542q-0.30001 2.3812 2.0812 2.6812l7.6818 0.96784q2.3812 0.30001 2.6812-2.0812z" clip-path="url(#a)" fill="#fff" stroke="#fff"/>
<g clip-path="url(#a)">
<g transform="translate(216.65 801.01) rotate(-82.819) scale(.08 -.08)">
<defs>
<path id="e" d="m-0.29688 72.906h61.672v-8.3125h-25.875v-64.594h-9.9062v64.594h-25.891z"/>
<path id="l" d="m56.203 29.594v-4.3906h-41.312q0.59375-9.2812 5.5938-14.141t13.938-4.8594q5.1719 0 10.031 1.2656t9.6562 3.8125v-8.5q-4.8438-2.0469-9.9219-3.125t-10.297-1.0781q-13.094 0-20.734 7.6094-7.6406 7.625-7.6406 20.625 0 13.422 7.25 21.297 7.25 7.8906 19.562 7.8906 11.031 0 17.453-7.1094 6.4219-7.0938 6.4219-19.297zm-8.9844 2.6406q-0.09375 7.3594-4.125 11.75-4.0312 4.4062-10.672 4.4062-7.5156 0-12.031-4.25t-5.2031-11.969z"/>
<path id="g" d="m41.109 46.297q-1.5156 0.875-3.2969 1.2812-1.7812 0.42188-3.9219 0.42188-7.625 0-11.703-4.9531t-4.0781-14.234v-28.812h-9.0312v54.688h9.0312v-8.5q2.8438 4.9844 7.375 7.3906 4.5469 2.4219 11.047 2.4219 0.92188 0 2.0469-0.125 1.125-0.10938 2.4844-0.35938z"/>
<path id="i" d="m52 44.188q3.375 6.0625 8.0625 8.9375t11.031 2.875q8.5469 0 13.188-5.9844 4.6406-5.9688 4.6406-17v-33.016h-9.0312v32.719q0 7.8594-2.7969 11.656-2.7812 3.8125-8.4844 3.8125-6.9844 0-11.047-4.6406-4.0469-4.625-4.0469-12.641v-30.906h-9.0312v32.719q0 7.9062-2.7812 11.688t-8.5938 3.7812q-6.8906 0-10.953-4.6562-4.0469-4.6562-4.0469-12.625v-30.906h-9.0312v54.688h9.0312v-8.5q3.0781 5.0312 7.375 7.4219t10.203 2.3906q5.9688 0 10.141-3.0312 4.1719-3.0156 6.1719-8.7812z"/>
<path id="k" d="m9.4219 54.688h8.9844v-54.688h-8.9844zm0 21.297h8.9844v-11.391h-8.9844z"/>
<path id="h" d="m54.891 33.016v-33.016h-8.9844v32.719q0 7.7656-3.0312 11.609-3.0312 3.8594-9.0781 3.8594-7.2812 0-11.484-4.6406-4.2031-4.625-4.2031-12.641v-30.906h-9.0312v54.688h9.0312v-8.5q3.2344 4.9375 7.5938 7.375 4.375 2.4375 10.094 2.4375 9.4219 0 14.25-5.8281 4.8438-5.8281 4.8438-17.156z"/>
<path id="f" d="m34.281 27.484q-10.891 0-15.094-2.4844t-4.2031-8.5q0-4.7812 3.1562-7.5938 3.1562-2.7969 8.5625-2.7969 7.4844 0 12 5.2969t4.5156 14.078v2zm17.922 3.7188v-31.203h-8.9844v8.2969q-3.0781-4.9688-7.6719-7.3438t-11.234-2.375q-8.3906 0-13.359 4.7188-4.9531 4.7188-4.9531 12.625 0 9.2188 6.1719 13.906 6.1875 4.6875 18.438 4.6875h12.609v0.89062q0 6.2031-4.0781 9.5938t-11.453 3.3906q-4.6875 0-9.1406-1.125-4.4375-1.125-8.5312-3.375v8.3125q4.9219 1.9062 9.5625 2.8438 4.6406 0.95312 9.0312 0.95312 11.875 0 17.734-6.1562 5.8594-6.1406 5.8594-18.641z"/>
<path id="j" d="m9.4219 75.984h8.9844v-75.984h-8.9844z"/>
</defs>
<use xlink:href="#e"/>
<use x="44.083984" xlink:href="#l"/>
<use x="105.607422" xlink:href="#g"/>
<use x="144.970703" xlink:href="#i"/>
<use x="242.382812" xlink:href="#k"/>
<use x="270.166016" xlink:href="#h"/>
<use x="333.544922" xlink:href="#f"/>
<use x="394.824219" xlink:href="#j"/>
</g>
</g>
<path d="m222.36 767.97 4.2261 33.542q0.30001 2.3812 2.6812 2.0812l7.6818-0.96784q2.3812-0.30001 2.0812-2.6812l-4.2261-33.542q-0.30001-2.3812-2.6812-2.0812l-7.6818 0.96784q-2.3812 0.30001-2.0812 2.6812z" clip-path="url(#a)" fill="#fff" stroke="#fff"/>
<g clip-path="url(#a)">
<g transform="translate(226.39 767.46) rotate(82.819) scale(.08 -.08)">
<use xlink:href="#e"/>
<use x="44.083984" xlink:href="#l"/>
<use x="105.607422" xlink:href="#g"/>
<use x="144.970703" xlink:href="#i"/>
<use x="242.382812" xlink:href="#k"/>
<use x="270.166016" xlink:href="#h"/>
<use x="333.544922" xlink:href="#f"/>
<use x="394.824219" xlink:href="#j"/>
</g>
</g>
<path d="m362.99 446.11 1.6287-5.2245q0.71429-2.2912-1.577-3.0055l-7.3916-2.3043q-2.2912-0.71429-3.0055 1.577l-1.6287 5.2245q-0.71429 2.2912 1.577 3.0055l7.3916 2.3043q2.2912 0.71429 3.0055-1.577z" clip-path="url(#a)" fill="#fff" stroke="#fff"/>
<g clip-path="url(#a)">
<g transform="translate(359.11 444.9) rotate(-72.685) scale(.08 -.08)">
<use xlink:href="#r"/>
</g>
</g>
<path d="m379.99 445.51 1.1851-4.6759q0.58964-2.3264-1.7368-2.9161l-7.5052-1.9022q-2.3264-0.58964-2.9161 1.7368l-1.1851 4.6759q-0.58964 2.3264 1.7368 2.9161l7.5052 1.9022q2.3264 0.58964 2.9161-1.7368z" clip-path="url(#a)" fill="#fff" stroke="#fff"/>
<g clip-path="url(#a)">
<g transform="translate(376.05 444.51) rotate(-75.778) scale(.08 -.08)">
<use xlink:href="#ao"/>
</g>
</g>
<path d="m694.73 218.42 5.3347 1.2202q2.3396 0.5351 2.8747-1.8045l1.7263-7.5476q0.5351-2.3396-1.8045-2.8747l-5.3347-1.2202q-2.3396-0.5351-2.8747 1.8045l-1.7263 7.5476q-0.5351 2.3396 1.8045 2.8747z" clip-path="url(#a)" fill="#fff" stroke="#fff"/>
<g clip-path="url(#a)">
<g transform="translate(695.63 214.46) rotate(12.883) scale(.08 -.08)">
<use xlink:href="#r"/>
</g>
</g>
<path d="m398.09 445.68 1.0966-5.7514q0.44952-2.3575-1.908-2.807l-7.6055-1.4502q-2.3575-0.44952-2.807 1.908l-1.0966 5.7514q-0.44952 2.3575 1.908 2.807l7.6055 1.4502q2.3575 0.44952 2.807-1.908z" clip-path="url(#a)" fill="#fff" stroke="#fff"/>
<g clip-path="url(#a)">
<g transform="translate(394.1 444.92) rotate(-79.205) scale(.08 -.08)">
<use xlink:href="#p"/>
</g>
</g>
<path d="m417.6 445.3 0.71712-5.8109q0.29395-2.3819-2.088-2.6759l-7.6842-0.9483q-2.3819-0.29395-2.6759 2.088l-0.71712 5.8109q-0.29395 2.3819 2.088 2.6759l7.6842 0.9483q2.3819 0.29395 2.6759-2.088z" clip-path="url(#a)" fill="#fff" stroke="#fff"/>
<g clip-path="url(#a)">
<g transform="translate(413.57 444.81) rotate(-82.965) scale(.08 -.08)">
<use xlink:href="#p"/>
</g>
</g>
<path d="m262.3 767.05v33.808q0 2.4 2.4 2.4h7.7425q2.4 0 2.4-2.4v-33.808q0-2.4-2.4-2.4h-7.7425q-2.4 0-2.4 2.4z" clip-path="url(#a)" fill="#fff" stroke="#fff"/>
<g clip-path="url(#a)">
<g transform="translate(266.36 767.05) rotate(90) scale(.08 -.08)">
<use xlink:href="#e"/>
<use x="44.083984" xlink:href="#l"/>
<use x="105.607422" xlink:href="#g"/>
<use x="144.970703" xlink:href="#i"/>
<use x="242.382812" xlink:href="#k"/>
<use x="270.166016" xlink:href="#h"/>
<use x="333.544922" xlink:href="#f"/>
<use x="394.824219" xlink:href="#j"/>
</g>
</g>
<path d="m295.67 767.05v33.808q0 2.4 2.4 2.4h7.7425q2.4 0 2.4-2.4v-33.808q0-2.4-2.4-2.4h-7.7425q-2.4 0-2.4 2.4z" clip-path="url(#a)" fill="#fff" stroke="#fff"/>
<g clip-path="url(#a)">
<g transform="translate(299.74 767.05) rotate(90) scale(.08 -.08)">
<use xlink:href="#e"/>
<use x="44.083984" xlink:href="#l"/>
<use x="105.607422" xlink:href="#g"/>
<use x="144.970703" xlink:href="#i"/>
<use x="242.382812" xlink:href="#k"/>
<use x="270.166016" xlink:href="#h"/>
<use x="333.544922" xlink:href="#f"/>
<use x="394.824219" xlink:href="#j"/>
</g>
</g>
<path d="m769.59 334.84 5.7313-1.8297q2.2863-0.72992 1.5564-3.0162l-2.3548-7.3757q-0.72992-2.2863-3.0162-1.5564l-5.7313 1.8297q-2.2863 0.72992-1.5564 3.0162l2.3548 7.3757q0.72992 2.2863 3.0162 1.5564z" clip-path="url(#a)" fill="#fff" stroke="#fff"/>
<g clip-path="url(#a)">
<g transform="translate(768.35 330.97) rotate(-17.706) scale(.08 -.08)">
<use xlink:href="#z"/>
</g>
</g>
<path d="m1080.6 500.51 2.2855 3.827q1.2306 2.0605 3.2911 0.82994l6.6473-3.9699q2.0605-1.2306 0.82994-3.2911l-2.2855-3.827q-1.2306-2.0605-3.2911-0.82994l-6.6473 3.9699q-2.0605 1.2306-0.82994 3.2911z" clip-path="url(#a)" fill="#fff" stroke="#fff"/>
<g clip-path="url(#a)">
<g transform="translate(1084.1 498.42) rotate(59.154) scale(.08 -.08)">
<use xlink:href="#ap"/>
</g>
</g>
<path d="m918.86 390.04 1.8333-5.7301q0.73133-2.2859-1.5545-3.0172l-7.3743-2.3593q-2.2859-0.73133-3.0172 1.5545l-1.8333 5.7301q-0.73133 2.2859 1.5545 3.0172l7.3743 2.3593q2.2859 0.73133 3.0172-1.5545z" clip-path="url(#a)" fill="#fff" stroke="#fff"/>
<g clip-path="url(#a)">
<g transform="translate(914.99 388.8) rotate(-72.259) scale(.08 -.08)">
<use xlink:href="#z"/>
</g>
</g>
<path d="m1023.7 498.51 1.9354 5.5259q0.79333 2.2651 3.0584 1.4718l7.3073-2.5593q2.2651-0.79333 1.4718-3.0584l-1.9354-5.5259q-0.79333-2.2651-3.0584-1.4718l-7.3073 2.5593q-2.2651 0.79333-1.4718 3.0584z" clip-path="url(#a)" fill="#fff" stroke="#fff"/>
<g clip-path="url(#a)">
<g transform="translate(1027.6 497.17) rotate(70.698) scale(.08 -.08)">
<use xlink:href="#p"/>
</g>
</g>
<path d="m519.42 562.03 2.5042-5.6704q0.96955-2.1954-1.2259-3.165l-7.0826-3.1278q-2.1954-0.96955-3.165 1.2259l-2.5042 5.6704q-0.96955 2.1954 1.2259 3.165l7.0826 3.1278q2.1954 0.96955 3.165-1.2259z" clip-path="url(#a)" fill="#fff" stroke="#fff"/>
<g clip-path="url(#a)">
<g transform="translate(515.71 560.39) rotate(-66.173) scale(.08 -.08)">
<use xlink:href="#aq"/>
</g>
</g>
<path d="m579.32 560.01 0.54742-5.4451q0.24007-2.388-2.1479-2.628l-7.7037-0.77448q-2.388-0.24007-2.628 2.1479l-0.54742 5.4451q-0.24007 2.388 2.1479 2.628l7.7037 0.77448q2.388 0.24007 2.628-2.1479z" clip-path="url(#a)" fill="#fff" stroke="#fff"/>
<g clip-path="url(#a)">
<g transform="translate(575.27 559.61) rotate(-84.259) scale(.08 -.08)">
<use xlink:href="#r"/>
</g>
</g>
<path d="m592.64 554.44 0.25055 5.0726q0.1184 2.3971 2.5155 2.2787l7.7331-0.38196q2.3971-0.1184 2.2787-2.5155l-0.25055-5.0726q-0.1184-2.3971-2.5155-2.2787l-7.7331 0.38196q-2.3971 0.1184-2.2787 2.5155z" clip-path="url(#a)" fill="#fff" stroke="#fff"/>
<g clip-path="url(#a)">
<g transform="translate(596.7 554.24) rotate(87.172) scale(.08 -.08)">
<defs>
<path id="am" d="m53.516 70.516v-9.625q-5.6094 2.6875-10.594 4-4.9844 1.3281-9.625 1.3281-8.0469 0-12.422-3.125t-4.375-8.8906q0-4.8438 2.9062-7.3125 2.9062-2.4531 11.016-3.9688l5.9531-1.2188q11.031-2.1094 16.281-7.4062t5.25-14.172q0-10.609-7.1094-16.078-7.0938-5.4688-20.812-5.4688-5.1719 0-11.016 1.1719-5.8281 1.1719-12.078 3.4688v10.156q6-3.3594 11.766-5.0781 5.7656-1.7031 11.328-1.7031 8.4375 0 13.031 3.3125 4.5938 3.3281 4.5938 9.4844 0 5.3594-3.2969 8.3906t-10.812 4.5469l-6.0156 1.1719q-11.031 2.1875-15.969 6.875-4.9219 4.6875-4.9219 13.047 0 9.6719 6.8125 15.234t18.766 5.5625q5.1406 0 10.453-0.9375 5.3281-0.92188 10.891-2.7656z"/>
</defs>
<use xlink:href="#am"/>
</g>
</g>
<path d="m711.74 447.42 4.4477 2.0232q2.1846 0.99374 3.1783-1.1909l3.2058-7.0476q0.99374-2.1846-1.1909-3.1783l-4.4477-2.0232q-2.1846-0.99374-3.1783 1.1909l-3.2058 7.0476q-0.99374 2.1846 1.1909 3.1783z" clip-path="url(#a)" fill="#fff" stroke="#fff"/>
<g clip-path="url(#a)">
<g transform="translate(713.43 443.72) rotate(24.46) scale(.08 -.08)">
<use xlink:href="#e"/>
</g>
</g>
<path d="m554.36 560.99 1.3823-5.6895q0.56663-2.3322-1.7655-2.8988l-7.5236-1.828q-2.3322-0.56663-2.8988 1.7655l-1.3823 5.6895q-0.56663 2.3322 1.7655 2.8988l7.5236 1.828q2.3322 0.56663 2.8988-1.7655z" clip-path="url(#a)" fill="#fff" stroke="#fff"/>
<g clip-path="url(#a)">
<g transform="translate(550.41 560.03) rotate(-76.344) scale(.08 -.08)">
<use xlink:href="#p"/>
</g>
</g>
<path d="m1204.9 801.98 10.986-31.973q0.77992-2.2697-1.4898-3.0497l-7.3223-2.516q-2.2697-0.77992-3.0497 1.4898l-10.986 31.973q-0.77992 2.2697 1.4898 3.0497l7.3223 2.516q2.2697 0.77992 3.0497-1.4898z" clip-path="url(#a)" fill="#fff" stroke="#fff"/>
<g clip-path="url(#a)">
<g transform="translate(1201 800.66) rotate(-71.037) scale(.08 -.08)">
<use xlink:href="#e"/>
<use x="44.083984" xlink:href="#l"/>
<use x="105.607422" xlink:href="#g"/>
<use x="144.970703" xlink:href="#i"/>
<use x="242.382812" xlink:href="#k"/>
<use x="270.166016" xlink:href="#h"/>
<use x="333.544922" xlink:href="#f"/>
<use x="394.824219" xlink:href="#j"/>
</g>
</g>
<path d="m1231.5 770.01 10.986 31.973q0.77992 2.2697 3.0497 1.4898l7.3223-2.516q2.2697-0.77992 1.4898-3.0497l-10.986-31.973q-0.77992-2.2697-3.0497-1.4898l-7.3223 2.516q-2.2697 0.77992-1.4898 3.0497z" clip-path="url(#a)" fill="#fff" stroke="#fff"/>
<g clip-path="url(#a)">
<g transform="translate(1235.4 768.69) rotate(71.037) scale(.08 -.08)">
<use xlink:href="#e"/>
<use x="44.083984" xlink:href="#l"/>
<use x="105.607422" xlink:href="#g"/>
<use x="144.970703" xlink:href="#i"/>
<use x="242.382812" xlink:href="#k"/>
<use x="270.166016" xlink:href="#h"/>
<use x="333.544922" xlink:href="#f"/>
<use x="394.824219" xlink:href="#j"/>
</g>
</g>
<path d="m1168.5 562.79 5.3729 1.0394q2.3563 0.45582 2.8121-1.9005l1.4705-7.6016q0.45582-2.3563-1.9005-2.8121l-5.3729-1.0394q-2.3563-0.45582-2.8121 1.9005l-1.4705 7.6016q-0.45582 2.3563 1.9005 2.8121z" clip-path="url(#a)" fill="#fff" stroke="#fff"/>
<g clip-path="url(#a)">
<g transform="translate(1169.2 558.8) rotate(10.948) scale(.08 -.08)">
<use xlink:href="#r"/>
</g>
</g>
<path d="m718.01 620.67 4.4621-3.1682q1.9569-1.3895 0.56744-3.3463l-4.4824-6.313q-1.3895-1.9569-3.3463-0.56744l-4.4621 3.1682q-1.9569 1.3895-0.56744 3.3463l4.4824 6.313q1.3895 1.9569 3.3463 0.56744z" clip-path="url(#a)" fill="#fff" stroke="#fff"/>
<g clip-path="url(#a)">
<g transform="translate(715.66 617.36) rotate(-35.376) scale(.08 -.08)">
<use xlink:href="#r"/>
</g>
</g>
<path d="m744.39 620.4 3.8787-3.2786q1.8329-1.5493 0.2836-3.3822l-4.9982-5.9131q-1.5493-1.8329-3.3822-0.2836l-3.8787 3.2786q-1.8329 1.5493-0.2836 3.3822l4.9982 5.9131q1.5493 1.8329 3.3822 0.2836z" clip-path="url(#a)" fill="#fff" stroke="#fff"/>
<g clip-path="url(#a)">
<g transform="translate(741.77 617.3) rotate(-40.207) scale(.08 -.08)">
<use xlink:href="#am"/>
</g>
</g>
<path d="m1406.9 677.61 4.125-3.7261q1.781-1.6087 0.17226-3.3897l-5.1899-5.7456q-1.6087-1.781-3.3897-0.17226l-4.125 3.7261q-1.781 1.6087-0.17226 3.3897l5.1899 5.7456q1.6087 1.781 3.3897 0.17226z" clip-path="url(#a)" fill="#fff" stroke="#fff"/>
<g clip-path="url(#a)">
<g transform="translate(1404.1 674.6) rotate(-42.091) scale(.08 -.08)">
<defs>
<path id="an" d="m44.391 34.188q3.1719-1.0781 6.1719-4.5938t6.0312-9.6719l10.016-19.922h-10.609l-9.3125 18.703q-3.625 7.3281-7.0156 9.7188t-9.25 2.3906h-10.75v-30.812h-9.8594v72.906h22.266q12.5 0 18.656-5.2344 6.1562-5.2188 6.1562-15.766 0-6.8906-3.2031-11.438-3.2031-4.5312-9.2969-6.2812zm-24.719 30.609v-25.875h12.406q7.125 0 10.766 3.2969t3.6406 9.6875-3.6406 9.6406-10.766 3.25z"/>
</defs>
<use xlink:href="#an"/>
</g>
</g>
<path d="m1450.7 675.7 1.8125-4.7189q0.86052-2.2404-1.3799-3.1009l-7.2277-2.7761q-2.2404-0.86052-3.1009 1.3799l-1.8125 4.7189q-0.86052 2.2404 1.3799 3.1009l7.2277 2.7761q2.2404 0.86052 3.1009-1.3799z" clip-path="url(#a)" fill="#fff" stroke="#fff"/>
<g clip-path="url(#a)">
<g transform="translate(1447 674.25) rotate(-68.989) scale(.08 -.08)">
<defs>
<path id="ar" d="m9.8125 72.906h46.094v-8.3125h-36.234v-21.578h34.719v-8.2969h-34.719v-26.422h37.109v-8.2969h-46.969z"/>
</defs>
<use xlink:href="#ar"/>
</g>
</g>
<path d="m1481.3 670.6 1.8991 5.2535q0.81591 2.2571 3.073 1.4411l7.2813-2.6322q2.2571-0.81591 1.4411-3.073l-1.8991-5.2535q-0.81591-2.2571-3.073-1.4411l-7.2813 2.6322q-2.2571 0.81591-1.4411 3.073z" clip-path="url(#a)" fill="#fff" stroke="#fff"/>
<g clip-path="url(#a)">
<g transform="translate(1485.1 669.22) rotate(70.125) scale(.08 -.08)">
<defs>
<path id="aa" d="m64.406 67.281v-10.391q-4.9844 4.6406-10.625 6.9219-5.6406 2.2969-11.984 2.2969-12.5 0-19.141-7.6406t-6.6406-22.094q0-14.406 6.6406-22.047t19.141-7.6406q6.3438 0 11.984 2.2969t10.625 6.9375v-10.312q-5.1719-3.5156-10.969-5.2812-5.7812-1.75-12.219-1.75-16.562 0-26.094 10.125-9.5156 10.141-9.5156 27.672 0 17.578 9.5156 27.703 9.5312 10.141 26.094 10.141 6.5312 0 12.312-1.7344 5.7969-1.7344 10.875-5.2031z"/>
</defs>
<use xlink:href="#aa"/>
</g>
</g>
<path d="m1525.5 673.85 4.3841 3.8808q1.7971 1.5908 3.3878-0.20628l5.1319-5.7974q1.5908-1.7971-0.20628-3.3878l-4.3841-3.8808q-1.7971-1.5908-3.3878 0.20627l-5.1319 5.7974q-1.5908 1.7971 0.20627 3.3878z" clip-path="url(#a)" fill="#fff" stroke="#fff"/>
<g clip-path="url(#a)">
<g transform="translate(1528.2 670.81) rotate(41.516) scale(.08 -.08)">
<use xlink:href="#p"/>
</g>
</g>
<path d="m1335.5 767.05v33.808q0 2.4 2.4 2.4h7.7425q2.4 0 2.4-2.4v-33.808q0-2.4-2.4-2.4h-7.7425q-2.4 0-2.4 2.4z" clip-path="url(#a)" fill="#fff" stroke="#fff"/>
<g clip-path="url(#a)">
<g transform="translate(1339.6 767.05) rotate(90) scale(.08 -.08)">
<use xlink:href="#e"/>
<use x="44.083984" xlink:href="#l"/>
<use x="105.607422" xlink:href="#g"/>
<use x="144.970703" xlink:href="#i"/>
<use x="242.382812" xlink:href="#k"/>
<use x="270.166016" xlink:href="#h"/>
<use x="333.544922" xlink:href="#f"/>
<use x="394.824219" xlink:href="#j"/>
</g>
</g>
<path d="m1417.7 767.05v33.808q0 2.4 2.4 2.4h7.7425q2.4 0 2.4-2.4v-33.808q0-2.4-2.4-2.4h-7.7425q-2.4 0-2.4 2.4z" clip-path="url(#a)" fill="#fff" stroke="#fff"/>
<g clip-path="url(#a)">
<g transform="translate(1421.8 767.05) rotate(90) scale(.08 -.08)">
<use xlink:href="#e"/>
<use x="44.083984" xlink:href="#l"/>
<use x="105.607422" xlink:href="#g"/>
<use x="144.970703" xlink:href="#i"/>
<use x="242.382812" xlink:href="#k"/>
<use x="270.166016" xlink:href="#h"/>
<use x="333.544922" xlink:href="#f"/>
<use x="394.824219" xlink:href="#j"/>
</g>
</g>
<path d="m1502.4 767.05v33.808q0 2.4 2.4 2.4h7.7425q2.4 0 2.4-2.4v-33.808q0-2.4-2.4-2.4h-7.7425q-2.4 0-2.4 2.4z" clip-path="url(#a)" fill="#fff" stroke="#fff"/>
<g clip-path="url(#a)">
<g transform="translate(1506.5 767.05) rotate(90) scale(.08 -.08)">
<use xlink:href="#e"/>
<use x="44.083984" xlink:href="#l"/>
<use x="105.607422" xlink:href="#g"/>
<use x="144.970703" xlink:href="#i"/>
<use x="242.382812" xlink:href="#k"/>
<use x="270.166016" xlink:href="#h"/>
<use x="333.544922" xlink:href="#f"/>
<use x="394.824219" xlink:href="#j"/>
</g>
</g>
<path d="m431.32 801.75 6.4615-33.184q0.4587-2.3558-1.8971-2.8145l-7.5998-1.4798q-2.3558-0.4587-2.8145 1.8971l-6.4615 33.184q-0.4587 2.3558 1.8971 2.8145l7.5998 1.4798q2.3558 0.4587 2.8145-1.8971z" clip-path="url(#a)" fill="#fff" stroke="#fff"/>
<g clip-path="url(#a)">
<g transform="translate(427.33 800.97) rotate(-78.982) scale(.08 -.08)">
<use xlink:href="#e"/>
<use x="44.083984" xlink:href="#l"/>
<use x="105.607422" xlink:href="#g"/>
<use x="144.970703" xlink:href="#i"/>
<use x="242.382812" xlink:href="#k"/>
<use x="270.166016" xlink:href="#h"/>
<use x="333.544922" xlink:href="#f"/>
<use x="394.824219" xlink:href="#j"/>
</g>
</g>
<path d="m440.84 768.56 6.4615 33.184q0.4587 2.3558 2.8145 1.8971l7.5998-1.4798q2.3558-0.4587 1.8971-2.8145l-6.4615-33.184q-0.4587-2.3558-2.8145-1.8971l-7.5998 1.4798q-2.3558 0.4587-1.8971 2.8145z" clip-path="url(#a)" fill="#fff" stroke="#fff"/>
<g clip-path="url(#a)">
<g transform="translate(444.83 767.79) rotate(78.982) scale(.08 -.08)">
<use xlink:href="#e"/>
<use x="44.083984" xlink:href="#l"/>
<use x="105.607422" xlink:href="#g"/>
<use x="144.970703" xlink:href="#i"/>
<use x="242.382812" xlink:href="#k"/>
<use x="270.166016" xlink:href="#h"/>
<use x="333.544922" xlink:href="#f"/>
<use x="394.824219" xlink:href="#j"/>
</g>
</g>
<path d="m549.86 767.05v33.808q0 2.4 2.4 2.4h7.7425q2.4 0 2.4-2.4v-33.808q0-2.4-2.4-2.4h-7.7425q-2.4 0-2.4 2.4z" clip-path="url(#a)" fill="#fff" stroke="#fff"/>
<g clip-path="url(#a)">
<g transform="translate(553.93 767.05) rotate(90) scale(.08 -.08)">
<use xlink:href="#e"/>
<use x="44.083984" xlink:href="#l"/>
<use x="105.607422" xlink:href="#g"/>
<use x="144.970703" xlink:href="#i"/>
<use x="242.382812" xlink:href="#k"/>
<use x="270.166016" xlink:href="#h"/>
<use x="333.544922" xlink:href="#f"/>
<use x="394.824219" xlink:href="#j"/>
</g>
</g>
<path d="m601.22 767.05v33.808q0 2.4 2.4 2.4h7.7425q2.4 0 2.4-2.4v-33.808q0-2.4-2.4-2.4h-7.7425q-2.4 0-2.4 2.4z" clip-path="url(#a)" fill="#fff" stroke="#fff"/>
<g clip-path="url(#a)">
<g transform="translate(605.28 767.05) rotate(90) scale(.08 -.08)">
<use xlink:href="#e"/>
<use x="44.083984" xlink:href="#l"/>
<use x="105.607422" xlink:href="#g"/>
<use x="144.970703" xlink:href="#i"/>
<use x="242.382812" xlink:href="#k"/>
<use x="270.166016" xlink:href="#h"/>
<use x="333.544922" xlink:href="#f"/>
<use x="394.824219" xlink:href="#j"/>
</g>
</g>
<path d="m782.85 563.66 4.1056-3.7881q1.7639-1.6275 0.13641-3.3914l-5.2503-5.6904q-1.6275-1.7639-3.3914-0.13641l-4.1056 3.7881q-1.7639 1.6275-0.13641 3.3914l5.2503 5.6904q1.6275 1.7639 3.3914 0.13641z" clip-path="url(#a)" fill="#fff" stroke="#fff"/>
<g clip-path="url(#a)">
<g transform="translate(780.1 560.67) rotate(-42.697) scale(.08 -.08)">
<use xlink:href="#aa"/>
</g>
</g>
<path d="m899.63 614.61 2.7326 4.8723q1.174 2.0933 3.2673 0.91924l6.7529-3.7874q2.0933-1.174 0.91925-3.2673l-2.7326-4.8723q-1.174-2.0933-3.2673-0.91924l-6.7529 3.7874q-2.0933 1.174-0.91925 3.2673z" clip-path="url(#a)" fill="#fff" stroke="#fff"/>
<g clip-path="url(#a)">
<g transform="translate(903.17 612.62) rotate(60.714) scale(.08 -.08)">
<use xlink:href="#aa"/>
</g>
</g>
<path d="m846.78 617.01 0.1026-5.8541q0.042058-2.3996-2.3576-2.4417l-7.7413-0.13568q-2.3996-0.042058-2.4417 2.3576l-0.1026 5.8541q-0.042057 2.3996 2.3576 2.4417l7.7413 0.13568q2.3996 0.042058 2.4417-2.3576z" clip-path="url(#a)" fill="#fff" stroke="#fff"/>
<g clip-path="url(#a)">
<g transform="translate(842.72 616.94) rotate(-88.996) scale(.08 -.08)">
<use xlink:href="#p"/>
</g>
</g>
<path d="m694.54 676.18 2.2772-4.513q1.0812-2.1427-1.0615-3.2238l-6.9124-3.4879q-2.1427-1.0812-3.2238 1.0615l-2.2772 4.513q-1.0812 2.1427 1.0615 3.2238l6.9124 3.4879q2.1427 1.0812 3.2238-1.0615z" clip-path="url(#a)" fill="#fff" stroke="#fff"/>
<g clip-path="url(#a)">
<g transform="translate(690.91 674.35) rotate(-63.225) scale(.08 -.08)">
<use xlink:href="#ar"/>
</g>
</g>
<path d="m724.57 673.94 0.04207-5.5861q0.018074-2.3999-2.3819-2.418l-7.7423-0.058308q-2.3999-0.018074-2.418 2.3819l-0.042069 5.5861q-0.018074 2.3999 2.3819 2.418l7.7423 0.058308q2.3999 0.018075 2.418-2.3819z" clip-path="url(#a)" fill="#fff" stroke="#fff"/>
<g clip-path="url(#a)">
<g transform="translate(720.51 673.91) rotate(-89.569) scale(.08 -.08)">
<use xlink:href="#aa"/>
</g>
</g>
<path d="m741 671.48 2.5338 4.9477q1.094 2.1362 3.2301 1.0422l6.8914-3.5292q2.1362-1.094 1.0422-3.2301l-2.5338-4.9477q-1.094-2.1362-3.2301-1.0422l-6.8914 3.5292q-2.1362 1.094-1.0422 3.2301z" clip-path="url(#a)" fill="#fff" stroke="#fff"/>
<g clip-path="url(#a)">
<g transform="translate(744.62 669.63) rotate(62.882) scale(.08 -.08)">
<use xlink:href="#an"/>
</g>
</g>
<path d="m933.2 801.67 17.463-28.948q1.2397-2.055-0.81537-3.2947l-6.6297-3.9992q-2.055-1.2397-3.2947 0.81537l-17.463 28.948q-1.2397 2.055 0.81537 3.2947l6.6297 3.9992q2.055 1.2397 3.2947-0.81537z" clip-path="url(#a)" fill="#fff" stroke="#fff"/>
<g clip-path="url(#a)">
<g transform="translate(929.72 799.57) rotate(-58.9) scale(.08 -.08)">
<use xlink:href="#e"/>
<use x="44.083984" xlink:href="#l"/>
<use x="105.607422" xlink:href="#g"/>
<use x="144.970703" xlink:href="#i"/>
<use x="242.382812" xlink:href="#k"/>
<use x="270.166016" xlink:href="#h"/>
<use x="333.544922" xlink:href="#f"/>
<use x="394.824219" xlink:href="#j"/>
</g>
</g>
<path d="m976.08 800.91 0.25814-33.807q0.018326-2.3999-2.3816-2.4183l-7.7423-0.059119q-2.3999-0.018326-2.4183 2.3816l-0.25814 33.807q-0.018326 2.3999 2.3816 2.4183l7.7423 0.059119q2.3999 0.018326 2.4183-2.3816z" clip-path="url(#a)" fill="#fff" stroke="#fff"/>
<g clip-path="url(#a)">
<g transform="translate(972.02 800.88) rotate(-89.563) scale(.08 -.08)">
<use xlink:href="#e"/>
<use x="44.083984" xlink:href="#l"/>
<use x="105.607422" xlink:href="#g"/>
<use x="144.970703" xlink:href="#i"/>
<use x="242.382812" xlink:href="#k"/>
<use x="270.166016" xlink:href="#h"/>
<use x="333.544922" xlink:href="#f"/>
<use x="394.824219" xlink:href="#j"/>
</g>
</g>
<path d="m990.44 772.8 17.624 28.85q1.2511 2.0481 3.2992 0.79697l6.6072-4.0362q2.0481-1.2511 0.79697-3.2992l-17.624-28.85q-1.2511-2.0481-3.2992-0.79697l-6.6072 4.0362q-2.0481 1.2511-0.79697 3.2992z" clip-path="url(#a)" fill="#fff" stroke="#fff"/>
<g clip-path="url(#a)">
<g transform="translate(993.91 770.68) rotate(58.58) scale(.08 -.08)">
<use xlink:href="#e"/>
<use x="44.083984" xlink:href="#l"/>
<use x="105.607422" xlink:href="#g"/>
<use x="144.970703" xlink:href="#i"/>
<use x="242.382812" xlink:href="#k"/>
<use x="270.166016" xlink:href="#h"/>
<use x="333.544922" xlink:href="#f"/>
<use x="394.824219" xlink:href="#j"/>
</g>
</g>
<path d="m655.13 767.05v33.808q0 2.4 2.4 2.4h7.7425q2.4 0 2.4-2.4v-33.808q0-2.4-2.4-2.4h-7.7425q-2.4 0-2.4 2.4z" clip-path="url(#a)" fill="#fff" stroke="#fff"/>
<g clip-path="url(#a)">
<g transform="translate(659.2 767.05) rotate(90) scale(.08 -.08)">
<use xlink:href="#e"/>
<use x="44.083984" xlink:href="#l"/>
<use x="105.607422" xlink:href="#g"/>
<use x="144.970703" xlink:href="#i"/>
<use x="242.382812" xlink:href="#k"/>
<use x="270.166016" xlink:href="#h"/>
<use x="333.544922" xlink:href="#f"/>
<use x="394.824219" xlink:href="#j"/>
</g>
</g>
<path d="m711.62 767.05v33.808q0 2.4 2.4 2.4h7.7425q2.4 0 2.4-2.4v-33.808q0-2.4-2.4-2.4h-7.7425q-2.4 0-2.4 2.4z" clip-path="url(#a)" fill="#fff" stroke="#fff"/>
<g clip-path="url(#a)">
<g transform="translate(715.68 767.05) rotate(90) scale(.08 -.08)">
<use xlink:href="#e"/>
<use x="44.083984" xlink:href="#l"/>
<use x="105.607422" xlink:href="#g"/>
<use x="144.970703" xlink:href="#i"/>
<use x="242.382812" xlink:href="#k"/>
<use x="270.166016" xlink:href="#h"/>
<use x="333.544922" xlink:href="#f"/>
<use x="394.824219" xlink:href="#j"/>
</g>
</g>
<path d="m770.67 767.05v33.808q0 2.4 2.4 2.4h7.7425q2.4 0 2.4-2.4v-33.808q0-2.4-2.4-2.4h-7.7425q-2.4 0-2.4 2.4z" clip-path="url(#a)" fill="#fff" stroke="#fff"/>
<g clip-path="url(#a)">
<g transform="translate(774.74 767.05) rotate(90) scale(.08 -.08)">
<use xlink:href="#e"/>
<use x="44.083984" xlink:href="#l"/>
<use x="105.607422" xlink:href="#g"/>
<use x="144.970703" xlink:href="#i"/>
<use x="242.382812" xlink:href="#k"/>
<use x="270.166016" xlink:href="#h"/>
<use x="333.544922" xlink:href="#f"/>
<use x="394.824219" xlink:href="#j"/>
</g>
</g>
<path d="m69.729 767.05v33.808q0 2.4 2.4 2.4h7.7425q2.4 0 2.4-2.4v-33.808q0-2.4-2.4-2.4h-7.7425q-2.4 0-2.4 2.4z" clip-path="url(#a)" fill="#fff" stroke="#fff"/>
<g clip-path="url(#a)">
<g transform="translate(73.792 767.05) rotate(90) scale(.08 -.08)">
<use xlink:href="#e"/>
<use x="44.083984" xlink:href="#l"/>
<use x="105.607422" xlink:href="#g"/>
<use x="144.970703" xlink:href="#i"/>
<use x="242.382812" xlink:href="#k"/>
<use x="270.166016" xlink:href="#h"/>
<use x="333.544922" xlink:href="#f"/>
<use x="394.824219" xlink:href="#j"/>
</g>
</g>
<path d="m106.06 744.39 2.0472-33.745q0.14533-2.3956-2.2503-2.5409l-7.7283-0.46884q-2.3956-0.14533-2.5409 2.2503l-2.0472 33.745q-0.14533 2.3956 2.2503 2.5409l7.7283 0.46884q2.3956 0.14533 2.5409-2.2503z" clip-path="url(#a)" fill="#fff" stroke="#fff"/>
<g clip-path="url(#a)">
<g transform="translate(102 744.14) rotate(-86.528) scale(.08 -.08)">
<use xlink:href="#e"/>
<use x="44.083984" xlink:href="#l"/>
<use x="105.607422" xlink:href="#g"/>
<use x="144.970703" xlink:href="#i"/>
<use x="242.382812" xlink:href="#k"/>
<use x="270.166016" xlink:href="#h"/>
<use x="333.544922" xlink:href="#f"/>
<use x="394.824219" xlink:href="#j"/>
</g>
</g>
<path d="m107.6 710.67 2.1746 33.737q0.15438 2.395 2.5494 2.2407l7.7265-0.49802q2.395-0.15438 2.2407-2.5494l-2.1746-33.737q-0.15438-2.395-2.5494-2.2407l-7.7265 0.49802q-2.395 0.15438-2.2407 2.5494z" clip-path="url(#a)" fill="#fff" stroke="#fff"/>
<g clip-path="url(#a)">
<g transform="translate(111.65 710.41) rotate(86.312) scale(.08 -.08)">
<use xlink:href="#e"/>
<use x="44.083984" xlink:href="#l"/>
<use x="105.607422" xlink:href="#g"/>
<use x="144.970703" xlink:href="#i"/>
<use x="242.382812" xlink:href="#k"/>
<use x="270.166016" xlink:href="#h"/>
<use x="333.544922" xlink:href="#f"/>
<use x="394.824219" xlink:href="#j"/>
</g>
</g>
<path d="m113.49 674.07 0.044094-5.8548q0.018074-2.3999-2.3819-2.418l-7.7423-0.058308q-2.3999-0.018074-2.418 2.3819l-0.044093 5.8548q-0.018074 2.3999 2.3819 2.418l7.7423 0.058308q2.3999 0.018074 2.418-2.3819z" clip-path="url(#a)" fill="#fff" stroke="#fff"/>
<g clip-path="url(#a)">
<g transform="translate(109.42 674.04) rotate(-89.569) scale(.08 -.08)">
<use xlink:href="#p"/>
</g>
</g>
<path d="m133.92 767.05v33.808q0 2.4 2.4 2.4h7.7425q2.4 0 2.4-2.4v-33.808q0-2.4-2.4-2.4h-7.7425q-2.4 0-2.4 2.4z" clip-path="url(#a)" fill="#fff" stroke="#fff"/>
<g clip-path="url(#a)">
<g transform="translate(137.98 767.05) rotate(90) scale(.08 -.08)">
<use xlink:href="#e"/>
<use x="44.083984" xlink:href="#l"/>
<use x="105.607422" xlink:href="#g"/>
<use x="144.970703" xlink:href="#i"/>
<use x="242.382812" xlink:href="#k"/>
<use x="270.166016" xlink:href="#h"/>
<use x="333.544922" xlink:href="#f"/>
<use x="394.824219" xlink:href="#j"/>
</g>
</g>
<path d="m154.46 767.05v33.808q0 2.4 2.4 2.4h7.7425q2.4 0 2.4-2.4v-33.808q0-2.4-2.4-2.4h-7.7425q-2.4 0-2.4 2.4z" clip-path="url(#a)" fill="#fff" stroke="#fff"/>
<g clip-path="url(#a)">
<g transform="translate(158.52 767.05) rotate(90) scale(.08 -.08)">
<use xlink:href="#e"/>
<use x="44.083984" xlink:href="#l"/>
<use x="105.607422" xlink:href="#g"/>
<use x="144.970703" xlink:href="#i"/>
<use x="242.382812" xlink:href="#k"/>
<use x="270.166016" xlink:href="#h"/>
<use x="333.544922" xlink:href="#f"/>
<use x="394.824219" xlink:href="#j"/>
</g>
</g>
<path d="m77.431 767.05v33.808q0 2.4 2.4 2.4h7.7425q2.4 0 2.4-2.4v-33.808q0-2.4-2.4-2.4h-7.7425q-2.4 0-2.4 2.4z" clip-path="url(#a)" fill="#fff" stroke="#fff"/>
<g clip-path="url(#a)">
<g transform="translate(81.495 767.05) rotate(90) scale(.08 -.08)">
<use xlink:href="#e"/>
<use x="44.083984" xlink:href="#l"/>
<use x="105.607422" xlink:href="#g"/>
<use x="144.970703" xlink:href="#i"/>
<use x="242.382812" xlink:href="#k"/>
<use x="270.166016" xlink:href="#h"/>
<use x="333.544922" xlink:href="#f"/>
<use x="394.824219" xlink:href="#j"/>
</g>
</g>
<path d="m100.54 767.05v33.808q0 2.4 2.4 2.4h7.7425q2.4 0 2.4-2.4v-33.808q0-2.4-2.4-2.4h-7.7425q-2.4 0-2.4 2.4z" clip-path="url(#a)" fill="#fff" stroke="#fff"/>
<g clip-path="url(#a)">
<g transform="translate(104.6 767.05) rotate(90) scale(.08 -.08)">
<use xlink:href="#e"/>
<use x="44.083984" xlink:href="#l"/>
<use x="105.607422" xlink:href="#g"/>
<use x="144.970703" xlink:href="#i"/>
<use x="242.382812" xlink:href="#k"/>
<use x="270.166016" xlink:href="#h"/>
<use x="333.544922" xlink:href="#f"/>
<use x="394.824219" xlink:href="#j"/>
</g>
</g>
<path d="m177.57 767.05v33.808q0 2.4 2.4 2.4h7.7425q2.4 0 2.4-2.4v-33.808q0-2.4-2.4-2.4h-7.7425q-2.4 0-2.4 2.4z" clip-path="url(#a)" fill="#fff" stroke="#fff"/>
<g clip-path="url(#a)">
<g transform="translate(181.63 767.05) rotate(90) scale(.08 -.08)">
<use xlink:href="#e"/>
<use x="44.083984" xlink:href="#l"/>
<use x="105.607422" xlink:href="#g"/>
<use x="144.970703" xlink:href="#i"/>
<use x="242.382812" xlink:href="#k"/>
<use x="270.166016" xlink:href="#h"/>
<use x="333.544922" xlink:href="#f"/>
<use x="394.824219" xlink:href="#j"/>
</g>
</g>
<path d="m331.62 767.05v33.808q0 2.4 2.4 2.4h7.7425q2.4 0 2.4-2.4v-33.808q0-2.4-2.4-2.4h-7.7425q-2.4 0-2.4 2.4z" clip-path="url(#a)" fill="#fff" stroke="#fff"/>
<g clip-path="url(#a)">
<g transform="translate(335.68 767.05) rotate(90) scale(.08 -.08)">
<use xlink:href="#e"/>
<use x="44.083984" xlink:href="#l"/>
<use x="105.607422" xlink:href="#g"/>
<use x="144.970703" xlink:href="#i"/>
<use x="242.382812" xlink:href="#k"/>
<use x="270.166016" xlink:href="#h"/>
<use x="333.544922" xlink:href="#f"/>
<use x="394.824219" xlink:href="#j"/>
</g>
</g>
<path d="m370.13 767.05v33.808q0 2.4 2.4 2.4h7.7425q2.4 0 2.4-2.4v-33.808q0-2.4-2.4-2.4h-7.7425q-2.4 0-2.4 2.4z" clip-path="url(#a)" fill="#fff" stroke="#fff"/>
<g clip-path="url(#a)">
<g transform="translate(374.2 767.05) rotate(90) scale(.08 -.08)">
<use xlink:href="#e"/>
<use x="44.083984" xlink:href="#l"/>
<use x="105.607422" xlink:href="#g"/>
<use x="144.970703" xlink:href="#i"/>
<use x="242.382812" xlink:href="#k"/>
<use x="270.166016" xlink:href="#h"/>
<use x="333.544922" xlink:href="#f"/>
<use x="394.824219" xlink:href="#j"/>
</g>
</g>
<path d="m501.08 767.05v33.808q0 2.4 2.4 2.4h7.7425q2.4 0 2.4-2.4v-33.808q0-2.4-2.4-2.4h-7.7425q-2.4 0-2.4 2.4z" clip-path="url(#a)" fill="#fff" stroke="#fff"/>
<g clip-path="url(#a)">
<g transform="translate(505.14 767.05) rotate(90) scale(.08 -.08)">
<use xlink:href="#e"/>
<use x="44.083984" xlink:href="#l"/>
<use x="105.607422" xlink:href="#g"/>
<use x="144.970703" xlink:href="#i"/>
<use x="242.382812" xlink:href="#k"/>
<use x="270.166016" xlink:href="#h"/>
<use x="333.544922" xlink:href="#f"/>
<use x="394.824219" xlink:href="#j"/>
</g>
</g>
<path d="m832.3 767.05v33.808q0 2.4 2.4 2.4h7.7425q2.4 0 2.4-2.4v-33.808q0-2.4-2.4-2.4h-7.7425q-2.4 0-2.4 2.4z" clip-path="url(#a)" fill="#fff" stroke="#fff"/>
<g clip-path="url(#a)">
<g transform="translate(836.36 767.05) rotate(90) scale(.08 -.08)">
<use xlink:href="#e"/>
<use x="44.083984" xlink:href="#l"/>
<use x="105.607422" xlink:href="#g"/>
<use x="144.970703" xlink:href="#i"/>
<use x="242.382812" xlink:href="#k"/>
<use x="270.166016" xlink:href="#h"/>
<use x="333.544922" xlink:href="#f"/>
<use x="394.824219" xlink:href="#j"/>
</g>
</g>
<path d="m1104.5 767.05v33.808q0 2.4 2.4 2.4h7.7425q2.4 0 2.4-2.4v-33.808q0-2.4-2.4-2.4h-7.7425q-2.4 0-2.4 2.4z" clip-path="url(#a)" fill="#fff" stroke="#fff"/>
<g clip-path="url(#a)">
<g transform="translate(1108.5 767.05) rotate(90) scale(.08 -.08)">
<use xlink:href="#e"/>
<use x="44.083984" xlink:href="#l"/>
<use x="105.607422" xlink:href="#g"/>
<use x="144.970703" xlink:href="#i"/>
<use x="242.382812" xlink:href="#k"/>
<use x="270.166016" xlink:href="#h"/>
<use x="333.544922" xlink:href="#f"/>
<use x="394.824219" xlink:href="#j"/>
</g>
</g>
<path d="m1589.7 767.05v33.808q0 2.4 2.4 2.4h7.7425q2.4 0 2.4-2.4v-33.808q0-2.4-2.4-2.4h-7.7425q-2.4 0-2.4 2.4z" clip-path="url(#a)" fill="#fff" stroke="#fff"/>
<g clip-path="url(#a)">
<g transform="translate(1593.8 767.05) rotate(90) scale(.08 -.08)">
<use xlink:href="#e"/>
<use x="44.083984" xlink:href="#l"/>
<use x="105.607422" xlink:href="#g"/>
<use x="144.970703" xlink:href="#i"/>
<use x="242.382812" xlink:href="#k"/>
<use x="270.166016" xlink:href="#h"/>
<use x="333.544922" xlink:href="#f"/>
<use x="394.824219" xlink:href="#j"/>
</g>
</g>
<defs>
<path id="b" d="m0 8.6603c2.2967 0 4.4997-0.9125 6.1237-2.5365 1.624-1.624 2.5365-3.827 2.5365-6.1237s-0.9125-4.4997-2.5365-6.1237c-1.624-1.624-3.827-2.5365-6.1237-2.5365s-4.4997 0.9125-6.1237 2.5365c-1.624 1.624-2.5365 3.827-2.5365 6.1237s0.9125 4.4997 2.5365 6.1237c1.624 1.624 3.827 2.5365 6.1237 2.5365z"/>
</defs>
<g clip-path="url(#a)" fill="#ffffff" stroke="#ffffff">
<use x="76" y="840" xlink:href="#b"/>
<use x="83.702703" y="840" xlink:href="#b"/>
<use x="93.972973" y="840" xlink:href="#b"/>
<use x="106.810811" y="840" xlink:href="#b"/>
<use x="122.216216" y="840" xlink:href="#b"/>
<use x="140.189189" y="840" xlink:href="#b"/>
<use x="160.72973" y="840" xlink:href="#b"/>
<use x="183.837838" y="840" xlink:href="#b"/>
<use x="209.513514" y="840" xlink:href="#b"/>
<use x="237.756757" y="840" xlink:href="#b"/>
<use x="268.567568" y="840" xlink:href="#b"/>
<use x="301.945946" y="840" xlink:href="#b"/>
<use x="337.891892" y="840" xlink:href="#b"/>
<use x="376.405405" y="840" xlink:href="#b"/>
<use x="417.486486" y="840" xlink:href="#b"/>
<use x="461.135135" y="840" xlink:href="#b"/>
<use x="507.351351" y="840" xlink:href="#b"/>
<use x="556.135135" y="840" xlink:href="#b"/>
<use x="607.486486" y="840" xlink:href="#b"/>
<use x="661.405405" y="840" xlink:href="#b"/>
<use x="717.891892" y="840" xlink:href="#b"/>
<use x="776.945946" y="840" xlink:href="#b"/>
<use x="838.567568" y="840" xlink:href="#b"/>
<use x="902.756757" y="840" xlink:href="#b"/>
<use x="969.513514" y="840" xlink:href="#b"/>
<use x="1038.837838" y="840" xlink:href="#b"/>
<use x="1110.72973" y="840" xlink:href="#b"/>
<use x="1185.189189" y="840" xlink:href="#b"/>
<use x="1262.216216" y="840" xlink:href="#b"/>
<use x="1341.810811" y="840" xlink:href="#b"/>
<use x="1423.972973" y="840" xlink:href="#b"/>
<use x="1508.702703" y="840" xlink:href="#b"/>
<use x="1596" y="840" xlink:href="#b"/>
<use x="242.04923" y="40" xlink:href="#b"/>
<use x="113.657658" y="500.035606" xlink:href="#b"/>
<use x="223.635135" y="727.916685" xlink:href="#b"/>
<use x="447.066291" y="155.341933" xlink:href="#b"/>
<use x="268.567568" y="727.916685" xlink:href="#b"/>
<use x="301.945946" y="727.916685" xlink:href="#b"/>
<use x="950.520646" y="270.490896" xlink:href="#b"/>
<use x="590.569069" y="385.408242" xlink:href="#b"/>
<use x="1223.702703" y="727.916685" xlink:href="#b"/>
<use x="877.081081" y="500.035606" xlink:href="#b"/>
<use x="1467.621622" y="614.274168" xlink:href="#b"/>
<use x="1341.810811" y="727.916685" xlink:href="#b"/>
<use x="1423.972973" y="727.916685" xlink:href="#b"/>
<use x="1508.702703" y="727.916685" xlink:href="#b"/>
<use x="439.310811" y="727.916685" xlink:href="#b"/>
<use x="556.135135" y="727.916685" xlink:href="#b"/>
<use x="607.486486" y="727.916685" xlink:href="#b"/>
<use x="842.561562" y="500.035606" xlink:href="#b"/>
<use x="718.747748" y="614.274168" xlink:href="#b"/>
<use x="970.369369" y="727.916685" xlink:href="#b"/>
<use x="661.405405" y="727.916685" xlink:href="#b"/>
<use x="717.891892" y="727.916685" xlink:href="#b"/>
<use x="776.945946" y="727.916685" xlink:href="#b"/>
<use x="76" y="727.916685" xlink:href="#b"/>
<use x="107.666667" y="614.274168" xlink:href="#b"/>
<use x="140.189189" y="727.916685" xlink:href="#b"/>
<use x="160.72973" y="727.916685" xlink:href="#b"/>
<use x="83.702703" y="727.916685" xlink:href="#b"/>
<use x="106.810811" y="727.916685" xlink:href="#b"/>
<use x="183.837838" y="727.916685" xlink:href="#b"/>
<use x="337.891892" y="727.916685" xlink:href="#b"/>
<use x="376.405405" y="727.916685" xlink:href="#b"/>
<use x="507.351351" y="727.916685" xlink:href="#b"/>
<use x="838.567568" y="727.916685" xlink:href="#b"/>
<use x="1110.72973" y="727.916685" xlink:href="#b"/>
<use x="1596" y="727.916685" xlink:href="#b"/>
</g>
<g clip-path="url(#a)">
<g transform="translate(53.65 842.76) scale(.1 -.1)">
<defs>
<path id="ax" d="m9.8125 72.906h9.8594v-29.891h35.844v29.891h9.8594v-72.906h-9.8594v34.719h-35.844v-34.719h-9.8594z"/>
<path id="x" d="m34.281 27.484q-10.891 0-15.094-2.4844t-4.2031-8.5q0-4.7812 3.1562-7.5938 3.1562-2.7969 8.5625-2.7969 7.4844 0 12 5.2969t4.5156 14.078v2zm17.922 3.7188v-31.203h-8.9844v8.2969q-3.0781-4.9688-7.6719-7.3438t-11.234-2.375q-8.3906 0-13.359 4.7188-4.9531 4.7188-4.9531 12.625 0 9.2188 6.1719 13.906 6.1875 4.6875 18.438 4.6875h12.609v0.89062q0 6.2031-4.0781 9.5938t-11.453 3.3906q-4.6875 0-9.1406-1.125-4.4375-1.125-8.5312-3.375v8.3125q4.9219 1.9062 9.5625 2.8438 4.6406 0.95312 9.0312 0.95312 11.875 0 17.734-6.1562 5.8594-6.1406 5.8594-18.641z"/>
<path id="w" d="m18.062 25.203v-18.031h12.797q6.1562 0 9.375 2.3125 3.2188 2.3281 3.2188 6.7344 0 4.3906-3.2188 6.6875t-9.375 2.2969zm0 22.312v-15.141h11.828q5.0781 0 8.2969 2.0156 3.2188 2.0312 3.2188 5.6562 0 3.6094-3.2188 5.5312-3.2188 1.9375-8.2969 1.9375zm-8.9844 7.1719h21.391q9.625 0 14.797-3.5156t5.1719-10.016q0-5.0156-2.6406-7.9844-2.625-2.9531-7.8125-3.6719 6.2031-1.1719 9.625-4.8906 3.4219-3.7031 3.4219-9.2812 0-7.3125-5.6406-11.328-5.6406-4-16.094-4h-22.219z"/>
<path id="t" d="m56.203 29.594v-4.3906h-41.312q0.59375-9.2812 5.5938-14.141t13.938-4.8594q5.1719 0 10.031 1.2656t9.6562 3.8125v-8.5q-4.8438-2.0469-9.9219-3.125t-10.297-1.0781q-13.094 0-20.734 7.6094-7.6406 7.625-7.6406 20.625 0 13.422 7.25 21.297 7.25 7.8906 19.562 7.8906 11.031 0 17.453-7.1094 6.4219-7.0938 6.4219-19.297zm-8.9844 2.6406q-0.09375 7.3594-4.125 11.75-4.0312 4.4062-10.672 4.4062-7.5156 0-12.031-4.25t-5.2031-11.969z"/>
<path id="ae" d="m18.109 8.2031v-29h-9.0312v75.484h9.0312v-8.2969q2.8438 4.875 7.1562 7.2344 4.3281 2.375 10.328 2.375 9.9688 0 16.188-7.9062 6.2344-7.9062 6.2344-20.797t-6.2344-20.812q-6.2188-7.9062-16.188-7.9062-6 0-10.328 2.375-4.3125 2.375-7.1562 7.25zm30.578 19.094q0 9.9062-4.0781 15.547t-11.203 5.6406q-7.1406 0-11.219-5.6406t-4.0781-15.547 4.0781-15.547 11.219-5.6406q7.125 0 11.203 5.6406t4.0781 15.547z"/>
<path id="s" d="m9.0781 54.688h9.0312v-22.312h29.156v22.312h9.0312v-54.688h-9.0312v25.203h-29.156v-25.203h-9.0312z"/>
<path id="m" d="m30.609 48.391q-7.2188 0-11.422-5.6406t-4.2031-15.453 4.1719-15.453q4.1875-5.6406 11.453-5.6406 7.1875 0 11.375 5.6562 4.2031 5.6719 4.2031 15.438 0 9.7188-4.2031 15.406-4.1875 5.6875-11.375 5.6875zm0 7.6094q11.719 0 18.406-7.625 6.7031-7.6094 6.7031-21.078 0-13.422-6.7031-21.078-6.6875-7.6406-18.406-7.6406-11.766 0-18.438 7.6406-6.6562 7.6562-6.6562 21.078 0 13.469 6.6562 21.078 6.6719 7.625 18.438 7.625z"/>
</defs>
<use xlink:href="#ax"/>
<use x="75.195312" xlink:href="#x"/>
<use x="136.474609" xlink:href="#w"/>
<use x="195.410156" xlink:href="#t"/>
<use x="256.933594" xlink:href="#ae"/>
<use x="320.410156" xlink:href="#s"/>
<use x="385.791016" xlink:href="#m"/>
</g>
</g>
<g clip-path="url(#a)">
<g transform="translate(82.114 842.76) scale(.1 -.1)">
<defs>
<path id="y" d="m11.719 12.406h10.297v-8.4062l-8-15.625h-6.2969l4 15.625z"/>
</defs>
<use xlink:href="#y"/>
</g>
</g>
<g clip-path="url(#a)">
<g transform="translate(84.981 842.76) scale(.1 -.1)">
<defs>
<path id="av" d="m9.0781 54.688h8.9375v-25.688l25.344 25.688h11.031l-20.891-21.141 23.578-33.547h-10.062l-19.375 27.594-9.625-9.7656v-17.828h-8.9375z"/>
<path id="q" d="m2.9375 54.688h52.391v-7.1719h-21.781v-47.516h-8.8438v47.516h-21.766z"/>
</defs>
<use xlink:href="#av"/>
<use x="60.400391" xlink:href="#q"/>
<use x="118.652344" xlink:href="#m"/>
</g>
</g>
<g clip-path="url(#a)">
<g transform="translate(105.01 842.76) scale(.1 -.1)">
<defs>
<path id="at" d="m4.8906 31.391h26.312v-8h-26.312z"/>
</defs>
<use xlink:href="#at"/>
</g>
</g>
<g clip-path="url(#a)">
<g transform="translate(116.24 842.76) scale(.1 -.1)">
<use xlink:href="#q"/>
<use x="58.251953" xlink:href="#m"/>
</g>
</g>
<g clip-path="url(#a)">
<g transform="translate(130.38 842.76) scale(.1 -.1)">
<defs>
<path id="af" d="m9.0781 54.688h13.141l15.531-36.625 15.578 36.625h13.031v-54.688h-9.0312v46.094l-15.094-35.594h-8.9844l-15.141 35.594v-46.094h-9.0312z"/>
<path id="ad" d="m32.172-5.0781q-3.7969-9.7656-7.4219-12.734-3.6094-2.9844-9.6562-2.9844h-7.1875v7.5156h5.2812q3.7031 0 5.75 1.7656 2.0625 1.75 4.5469 8.2969l1.6094 4.0938-22.109 53.812h9.5156l17.094-42.766 17.094 42.766h9.5156z"/>
</defs>
<use xlink:href="#t"/>
<use x="61.523438" xlink:href="#af"/>
<use x="136.962891" xlink:href="#ad"/>
</g>
</g>
<g clip-path="url(#a)">
<g transform="translate(139.52 842.76) scale(.1 -.1)">
<defs>
<path id="au" d="m41.016 0v23h-16.75q-7.4688 0-12.453 4.6406-4.4844 4.2031-4.4844 13.188v13.859h8.9844v-13.031q0-5.7188 2.5312-8.5938 2.5938-2.8906 7.6719-2.8906h14.5v24.516h8.9844v-54.688z"/>
<path id="ag" d="m3.7188 0v7.4688q8.875 1.375 11.609 7.5156 3.3281 8.6562 3.3281 30.766v8.9375h36.953v-54.688h-8.9844v47.516h-18.984v-5.4219q0-21.094-4.2969-30.562-4.5938-10.109-19.625-11.531z"/>
</defs>
<use xlink:href="#m"/>
<use x="61.181641" xlink:href="#q"/>
<use x="119.433594" xlink:href="#w"/>
<use x="178.369141" xlink:href="#t"/>
<use x="239.892578" xlink:href="#au"/>
<use x="298.974609" xlink:href="#x"/>
<use x="360.253906" xlink:href="#ag"/>
</g>
</g>
<g clip-path="url(#a)">
<g transform="translate(182.25 842.76) scale(.1 -.1)">
<use xlink:href="#y"/>
</g>
</g>
<g clip-path="url(#a)">
<g transform="translate(190.48 842.76) scale(.1 -.1)">
<defs>
<path id="bc" d="m56.297 54.688v-54.688h-9.0312v47.516h-29.156v-47.516h-9.0312v54.688z"/>
</defs>
<use xlink:href="#bc"/>
<use x="65.380859" xlink:href="#m"/>
<use x="126.5625" xlink:href="#q"/>
<use x="184.814453" xlink:href="#m"/>
<use x="245.996094" xlink:href="#af"/>
<use x="321.435547" xlink:href="#ad"/>
</g>
</g>
<g clip-path="url(#a)">
<g transform="translate(228.83 842.76) scale(.1 -.1)">
<use xlink:href="#au"/>
<use x="59.082031" xlink:href="#q"/>
<use x="117.333984" xlink:href="#m"/>
</g>
</g>
<g clip-path="url(#a)">
<g transform="translate(262.24 842.76) scale(.1 -.1)">
<use xlink:href="#m"/>
<use x="61.181641" xlink:href="#s"/>
</g>
</g>
<g clip-path="url(#a)">
<g transform="translate(277.94 842.76) scale(.1 -.1)">
<defs>
<path id="al" d="m34.469 29.5q6.0625-1.1719 9.4219-4.75 3.375-3.5625 3.375-8.8281 0-8.4531-6.2969-12.906-6.2969-4.4375-17.922-4.4375-3.9062 0-8.0312 0.6875t-8.5156 2.0469v8.3594q3.4688-1.8125 7.6094-2.7188 4.1562-0.89062 8.6875-0.89062 7.375 0 11.5 2.7344t4.125 7.125q0 4.2969-3.6562 6.9062t-10.344 2.6094h-7.2344v7.4219h7.5625q5.6719 0 8.9688 2.1719t3.2969 5.5938q0 3.125-3.4062 5.375-3.3906 2.25-9.1875 2.25-3.4688 0-7.4062-0.64062-3.9219-0.64062-8.6719-2.0469v8.1562q4.7969 1.1719 8.9375 1.75 4.1562 0.59375 7.8594 0.59375 9.5781 0 15.109-3.8438 5.5469-3.8281 5.5469-10.719 0-4.5312-2.9375-7.6875-2.9219-3.1406-8.3906-4.3125z"/>
<path id="bd" d="m55.906 54.688v-54.688h-8.9375v43.891l-26.359-43.891h-11.531v54.688h8.9375v-43.797l26.328 43.797z"/>
</defs>
<use xlink:href="#w"/>
<use x="58.935547" xlink:href="#m"/>
<use x="120.117188" xlink:href="#al"/>
<use x="173.291016" xlink:href="#ae"/>
<use x="236.767578" xlink:href="#x"/>
<use x="298.046875" xlink:href="#al"/>
<use x="351.220703" xlink:href="#bd"/>
<use x="416.210938" xlink:href="#ag"/>
</g>
</g>
<g clip-path="url(#a)">
<g transform="translate(336.21 842.76) scale(.1 -.1)">
<defs>
<path id="ay" d="m11.719 12.406h10.297v-12.406h-10.297zm0 39.297h10.297v-12.391h-10.297z"/>
</defs>
<use xlink:href="#ay"/>
</g>
</g>
<g clip-path="url(#a)">
<g transform="translate(374.6 842.76) scale(.1 -.1)">
<use xlink:href="#at"/>
</g>
</g>
<g clip-path="url(#a)">
<g transform="translate(410.77 842.76) scale(.1 -.1)">
<use xlink:href="#ax"/>
<use x="75.195312" xlink:href="#ad"/>
</g>
</g>
<g clip-path="url(#a)">
<g transform="translate(454.61 842.76) scale(.1 -.1)">
<defs>
<path id="v" d="m21.625 7.1719h26.078v40.344h-18.891v-6.8438q0-20.109-5.7656-30.859zm-13.031 0q4.4375 1.9531 6.3906 6.1094 4.7969 10.297 4.7969 31.062v10.344h36.953v-47.516h7.1875v-20.984h-7.1875v13.812h-44.328v-13.812h-7.1875v20.984z"/>
</defs>
<use xlink:href="#v"/>
<use x="69.140625" xlink:href="#x"/>
</g>
</g>
<g clip-path="url(#a)">
<g transform="translate(505.76 842.76) scale(.1 -.1)">
<use xlink:href="#y"/>
</g>
</g>
<g clip-path="url(#a)">
<g transform="translate(547.42 842.76) scale(.1 -.1)">
<defs>
<path id="az" d="m5.5156 10.406q7.7188-4.2031 15.391-4.2031 7.1719 0 12.297 4.1719t6.0625 14.828h-27.734v7.1719h27.438q-0.59375 5.125-4.4844 10.562-3.875 5.4531-13.578 5.4531-7.5312 0-15.391-4.2031v8.4062q7.6719 3.4062 15.781 3.4062 12.781 0 20.125-7.7344 7.3594-7.7344 7.3594-20.969 0-13.188-7.1562-20.953t-19.703-7.7656q-9.2188 0-16.406 3.5156z"/>
</defs>
<use xlink:href="#az"/>
<use x="54.882812" xlink:href="#q"/>
<use x="113.134766" xlink:href="#m"/>
</g>
</g>
<g clip-path="url(#a)">
<g transform="translate(594.2 842.76) scale(.1 -.1)">
<defs>
<path id="be" d="m31.109 56q11.719 0 18.406-7.625 6.6875-7.6094 6.6875-21.078 0-13.422-6.6875-21.078-6.6875-7.6406-18.406-7.6406-11.766 0-18.266 7.4219t-6.8438 21.297l-0.28125 11.188q-0.25 5.7969-0.25 7.8125 0 7.8125 2.8281 13.562 4.4531 9.0312 12.141 12.938t20.578 4.0156q5.9531 0.046875 8.5938 0.875l2.4844-7.125q-2.3906-0.98438-4.5781-1.0312l-12.219-0.82812q-6.1406-0.4375-9.8594-2.5938-9.7188-5.7031-10.641-13.172l-0.34375-2.7344q6.3438 5.7969 16.656 5.7969zm0-7.6094q-7.2344 0-11.438-5.6406-4.1875-5.6406-4.1875-15.453t4.1719-15.453 11.453-5.6406q7.1719 0 11.375 5.6562 4.2031 5.6719 4.2031 15.438 0 9.7188-4.2031 15.406t-11.375 5.6875z"/>
<path id="ba" d="m61.047 54.688h8.9844v-54.688h-8.9844zm4.5 1.3125m-22.094-39.781q0 4.3906-3.2031 6.6875-3.1875 2.2969-9.3438 2.2969h-12.797v-18.031h12.797q6.1562 0 9.3438 2.3125 3.2031 2.3281 3.2031 6.7344zm-34.375 38.469h9.0312v-22.312h13.188q10.453 0 16.094-3.9844 5.6406-3.9688 5.6406-12.172t-5.6406-12.219q-5.6406-4-16.094-4h-22.219z"/>
</defs>
<use xlink:href="#be"/>
<use x="61.669922" xlink:href="#ba"/>
<use x="140.625" xlink:href="#ag"/>
<use x="204.541016" xlink:href="#m"/>
</g>
</g>
<g clip-path="url(#a)">
<g transform="translate(645.9 842.76) scale(.1 -.1)">
<use xlink:href="#ae"/>
<use x="63.476562" xlink:href="#m"/>
<use x="124.658203" xlink:href="#w"/>
<use x="183.59375" xlink:href="#s"/>
<use x="248.974609" xlink:href="#m"/>
</g>
</g>
<g clip-path="url(#a)">
<g transform="translate(708.75 842.76) scale(.1 -.1)">
<defs>
<path id="aw" d="m9.0781 0v54.688h38.578v-7.1719h-29.547v-47.516z"/>
</defs>
<use xlink:href="#aw"/>
<use x="52.539062" xlink:href="#m"/>
<use x="113.720703" xlink:href="#v"/>
</g>
</g>
<g clip-path="url(#a)">
<g transform="translate(761.43 842.76) scale(.1 -.1)">
<use xlink:href="#s"/>
<use x="65.380859" xlink:href="#x"/>
<use x="126.660156" xlink:href="#al"/>
<use x="179.833984" xlink:href="#x"/>
<use x="241.113281" xlink:href="#v"/>
</g>
</g>
<g clip-path="url(#a)">
<g transform="translate(836.98 842.76) scale(.1 -.1)">
<use xlink:href="#y"/>
</g>
</g>
<g clip-path="url(#a)">
<g transform="translate(890.01 842.76) scale(.1 -.1)">
<defs>
<path id="ak" d="m43.453 16.219q0 4.3906-3.2031 6.6875-3.1875 2.2969-9.3438 2.2969h-12.797v-18.031h12.797q6.1562 0 9.3438 2.3125 3.2031 2.3281 3.2031 6.7344zm-34.375 38.469h9.0312v-22.312h13.188q10.453 0 16.094-3.9844 5.6406-3.9688 5.6406-12.172t-5.6406-12.219q-5.6406-4-16.094-4h-22.219z"/>
</defs>
<use xlink:href="#v"/>
<use x="69.140625" xlink:href="#t"/>
<use x="130.664062" xlink:href="#s"/>
<use x="196.044922" xlink:href="#ak"/>
</g>
</g>
<g clip-path="url(#a)">
<g transform="translate(966.57 842.76) scale(.1 -.1)">
<use xlink:href="#w"/>
</g>
</g>
<g clip-path="url(#a)">
<g transform="translate(1026.1 842.76) scale(.1 -.1)">
<use xlink:href="#v"/>
<use x="69.140625" xlink:href="#t"/>
<use x="130.664062" xlink:href="#s"/>
<use x="196.044922" xlink:href="#ak"/>
</g>
</g>
<g clip-path="url(#a)">
<g transform="translate(1109.1 842.76) scale(.1 -.1)">
<use xlink:href="#y"/>
</g>
</g>
<g clip-path="url(#a)">
<g transform="translate(1178.9 842.76) scale(.1 -.1)">
<use xlink:href="#s"/>
<use x="65.380859" xlink:href="#m"/>
</g>
</g>
<g clip-path="url(#a)">
<g transform="translate(1244 842.76) scale(.1 -.1)">
<use xlink:href="#q"/>
<use x="58.251953" xlink:href="#m"/>
<use x="119.433594" xlink:href="#ag"/>
<use x="183.349609" xlink:href="#ak"/>
<use x="242.285156" xlink:href="#av"/>
<use x="302.685547" xlink:href="#m"/>
</g>
</g>
<g clip-path="url(#a)">
<g transform="translate(1338.9 842.76) scale(.1 -.1)">
<use xlink:href="#w"/>
</g>
</g>
<g clip-path="url(#a)">
<g transform="translate(1404.9 842.76) scale(.1 -.1)">
<use xlink:href="#v"/>
<use x="69.140625" xlink:href="#ae"/>
<use x="132.617188" xlink:href="#ad"/>
<use x="191.796875" xlink:href="#aw"/>
<use x="244.335938" xlink:href="#m"/>
<use x="305.517578" xlink:href="#af"/>
</g>
</g>
<g clip-path="url(#a)">
<g transform="translate(1493.1 842.76) scale(.1 -.1)">
<defs>
<path id="bb" d="m48.781 52.594v-8.4062q-3.8125 2.1094-7.6406 3.1562t-7.7344 1.0469q-8.75 0-13.594-5.5469-4.8281-5.5312-4.8281-15.547t4.8281-15.562q4.8438-5.5312 13.594-5.5312 3.9062 0 7.7344 1.0469t7.6406 3.1562v-8.3125q-3.7656-1.75-7.7969-2.625-4.0156-0.89062-8.5625-0.89062-12.359 0-19.641 7.7656-7.2656 7.7656-7.2656 20.953 0 13.375 7.3438 21.031 7.3594 7.6719 20.156 7.6719 4.1406 0 8.0938-0.85938 3.9531-0.84375 7.6719-2.5469z"/>
</defs>
<use xlink:href="#af"/>
<use x="75.439453" xlink:href="#t"/>
<use x="136.962891" xlink:href="#bb"/>
<use x="191.943359" xlink:href="#q"/>
<use x="250.195312" xlink:href="#t"/>
</g>
</g>
<g clip-path="url(#a)">
<g transform="translate(1591.2 842.76) scale(.1 -.1)">
<defs>
<path id="d" d="m10.688 12.406h10.312v-12.406h-10.312z"/>
</defs>
<use xlink:href="#d"/>
<use x="31.787109" xlink:href="#d"/>
<use x="63.574219" xlink:href="#d"/>
</g>
</g>
<g clip-path="url(#a)">
<g transform="translate(234.1 42.759) scale(.1 -.1)">
<defs>
<path id="c" d="m12.406 8.2969h16.109v55.625l-17.531-3.5156v8.9844l17.438 3.5156h9.8594v-64.609h16.109v-8.2969h-41.984z"/>
</defs>
<use xlink:href="#c"/>
<use x="63.623047" xlink:href="#d"/>
<use x="95.410156" xlink:href="#c"/>
</g>
</g>
<g clip-path="url(#a)">
<g transform="translate(105.71 502.79) scale(.1 -.1)">
<defs>
<path id="o" d="m19.188 8.2969h34.422v-8.2969h-46.281v8.2969q5.6094 5.8125 15.297 15.594 9.7031 9.7969 12.188 12.641 4.7344 5.3125 6.6094 9 1.8906 3.6875 1.8906 7.25 0 5.8125-4.0781 9.4688-4.0781 3.6719-10.625 3.6719-4.6406 0-9.7969-1.6094-5.1406-1.6094-11-4.8906v9.9688q5.9531 2.3906 11.125 3.6094 5.1875 1.2188 9.4844 1.2188 11.328 0 18.062-5.6719 6.7344-5.6562 6.7344-15.125 0-4.5-1.6875-8.5312-1.6719-4.0156-6.125-9.4844-1.2188-1.4219-7.7656-8.1875-6.5312-6.7656-18.453-18.922z"/>
</defs>
<use xlink:href="#c"/>
<use x="63.623047" xlink:href="#d"/>
<use x="95.410156" xlink:href="#o"/>
</g>
</g>
<g clip-path="url(#a)">
<g transform="translate(215.68 730.68) scale(.1 -.1)">
<defs>
<path id="n" d="m40.578 39.312q7.0781-1.5156 11.047-6.3125 3.9844-4.7812 3.9844-11.812 0-10.781-7.4219-16.703-7.4219-5.9062-21.094-5.9062-4.5781 0-9.4375 0.90625t-10.031 2.7188v9.5156q4.0938-2.3906 8.9688-3.6094 4.8906-1.2188 10.219-1.2188 9.2656 0 14.125 3.6562t4.8594 10.641q0 6.4531-4.5156 10.078-4.5156 3.6406-12.562 3.6406h-8.5v8.1094h8.8906q7.2656 0 11.125 2.9062t3.8594 8.375q0 5.6094-3.9844 8.6094-3.9688 3.0156-11.391 3.0156-4.0625 0-8.7031-0.89062-4.6406-0.875-10.203-2.7188v8.7812q5.625 1.5625 10.531 2.3438t9.25 0.78125q11.234 0 17.766-5.1094 6.5469-5.0938 6.5469-13.781 0-6.0625-3.4688-10.234t-9.8594-5.7812z"/>
</defs>
<use xlink:href="#c"/>
<use x="63.623047" xlink:href="#d"/>
<use x="95.410156" xlink:href="#n"/>
</g>
</g>
<g clip-path="url(#a)">
<g transform="translate(439.11 158.1) scale(.1 -.1)">
<defs>
<path id="u" d="m37.797 64.312-24.906-38.922h24.906zm-2.5938 8.5938h12.406v-47.516h10.406v-8.2031h-10.406v-17.188h-9.8125v17.188h-32.906v9.5156z"/>
</defs>
<use xlink:href="#c"/>
<use x="63.623047" xlink:href="#d"/>
<use x="95.410156" xlink:href="#u"/>
</g>
</g>
<g clip-path="url(#a)">
<g transform="translate(260.62 730.68) scale(.1 -.1)">
<defs>
<path id="ac" d="m33.016 40.375q-6.6406 0-10.531-4.5469-3.875-4.5312-3.875-12.438 0-7.8594 3.875-12.438 3.8906-4.5625 10.531-4.5625t10.516 4.5625q3.875 4.5781 3.875 12.438 0 7.9062-3.875 12.438-3.875 4.5469-10.516 4.5469zm19.578 30.922v-8.9844q-3.7188 1.75-7.5 2.6719-3.7812 0.9375-7.5 0.9375-9.7656 0-14.922-6.5938-5.1406-6.5938-5.875-19.922 2.875 4.25 7.2188 6.5156 4.3594 2.2656 9.5781 2.2656 10.984 0 17.359-6.6719 6.375-6.6562 6.375-18.125 0-11.234-6.6406-18.031-6.6406-6.7812-17.672-6.7812-12.656 0-19.344 9.6875-6.6875 9.7031-6.6875 28.109 0 17.281 8.2031 27.562t22.016 10.281q3.7188 0 7.5-0.73438t7.8906-2.1875z"/>
</defs>
<use xlink:href="#c"/>
<use x="63.623047" xlink:href="#d"/>
<use x="95.410156" xlink:href="#ac"/>
</g>
</g>
<g clip-path="url(#a)">
<g transform="translate(293.99 730.68) scale(.1 -.1)">
<defs>
<path id="ah" d="m8.2031 72.906h46.875v-4.2031l-26.469-68.703h-10.297l24.906 64.594h-35.016z"/>
</defs>
<use xlink:href="#c"/>
<use x="63.623047" xlink:href="#d"/>
<use x="95.410156" xlink:href="#ah"/>
</g>
</g>
<g clip-path="url(#a)">
<g transform="translate(942.57 273.25) scale(.1 -.1)">
<defs>
<path id="ab" d="m31.781 34.625q-7.0312 0-11.062-3.7656-4.0156-3.7656-4.0156-10.344 0-6.5938 4.0156-10.359 4.0312-3.7656 11.062-3.7656t11.078 3.7812q4.0625 3.7969 4.0625 10.344 0 6.5781-4.0312 10.344-4.0156 3.7656-11.109 3.7656zm-9.8594 4.1875q-6.3438 1.5625-9.8906 5.9062-3.5312 4.3594-3.5312 10.609 0 8.7344 6.2188 13.812 6.2344 5.0781 17.062 5.0781 10.891 0 17.094-5.0781t6.2031-13.812q0-6.25-3.5469-10.609-3.5312-4.3438-9.8281-5.9062 7.125-1.6562 11.094-6.5 3.9844-4.8281 3.9844-11.797 0-10.609-6.4688-16.281-6.4688-5.6562-18.531-5.6562-12.047 0-18.531 5.6562-6.4688 5.6719-6.4688 16.281 0 6.9688 4 11.797 4.0156 4.8438 11.141 6.5zm-3.6094 15.578q0-5.6562 3.5312-8.8281 3.5469-3.1719 9.9375-3.1719 6.3594 0 9.9375 3.1719 3.5938 3.1719 3.5938 8.8281 0 5.6719-3.5938 8.8438-3.5781 3.1719-9.9375 3.1719-6.3906 0-9.9375-3.1719-3.5312-3.1719-3.5312-8.8438z"/>
</defs>
<use xlink:href="#c"/>
<use x="63.623047" xlink:href="#d"/>
<use x="95.410156" xlink:href="#ab"/>
</g>
</g>
<g clip-path="url(#a)">
<g transform="translate(579.44 388.17) scale(.1 -.1)">
<use xlink:href="#c"/>
<use x="63.623047" xlink:href="#d"/>
<use x="95.410156" xlink:href="#c"/>
<use x="159.033203" xlink:href="#c"/>
</g>
</g>
<g clip-path="url(#a)">
<g transform="translate(1212.6 730.68) scale(.1 -.1)">
<use xlink:href="#c"/>
<use x="63.623047" xlink:href="#d"/>
<use x="95.410156" xlink:href="#c"/>
<use x="159.033203" xlink:href="#o"/>
</g>
</g>
<g clip-path="url(#a)">
<g transform="translate(865.95 502.79) scale(.1 -.1)">
<use xlink:href="#c"/>
<use x="63.623047" xlink:href="#d"/>
<use x="95.410156" xlink:href="#c"/>
<use x="159.033203" xlink:href="#n"/>
</g>
</g>
<g clip-path="url(#a)">
<g transform="translate(1456.5 617.03) scale(.1 -.1)">
<defs>
<path id="ai" d="m10.797 72.906h38.719v-8.3125h-29.688v-17.859q2.1406 0.73438 4.2812 1.0938 2.1562 0.35938 4.3125 0.35938 12.203 0 19.328-6.6875 7.1406-6.6875 7.1406-18.109 0-11.766-7.3281-18.297-7.3281-6.5156-20.656-6.5156-4.5938 0-9.3594 0.78125-4.75 0.78125-9.8281 2.3438v9.9219q4.3906-2.3906 9.0781-3.5625t9.9062-1.1719q8.4531 0 13.375 4.4375 4.9375 4.4375 4.9375 12.062 0 7.6094-4.9375 12.047-4.9219 4.4531-13.375 4.4531-3.9531 0-7.8906-0.875-3.9219-0.875-8.0156-2.7344z"/>
</defs>
<use xlink:href="#c"/>
<use x="63.623047" xlink:href="#d"/>
<use x="95.410156" xlink:href="#c"/>
<use x="159.033203" xlink:href="#ai"/>
</g>
</g>
<g clip-path="url(#a)">
<g transform="translate(1330.7 730.68) scale(.1 -.1)">
<use xlink:href="#c"/>
<use x="63.623047" xlink:href="#d"/>
<use x="95.410156" xlink:href="#c"/>
<use x="159.033203" xlink:href="#ac"/>
</g>
</g>
<g clip-path="url(#a)">
<g transform="translate(1412.8 730.68) scale(.1 -.1)">
<use xlink:href="#c"/>
<use x="63.623047" xlink:href="#d"/>
<use x="95.410156" xlink:href="#c"/>
<use x="159.033203" xlink:href="#ah"/>
</g>
</g>
<g clip-path="url(#a)">
<g transform="translate(1497.6 730.68) scale(.1 -.1)">
<use xlink:href="#c"/>
<use x="63.623047" xlink:href="#d"/>
<use x="95.410156" xlink:href="#c"/>
<use x="159.033203" xlink:href="#ab"/>
</g>
</g>
<g clip-path="url(#a)">
<g transform="translate(428.18 730.68) scale(.1 -.1)">
<defs>
<path id="aj" d="m31.781 66.406q-7.6094 0-11.453-7.5-3.8281-7.4844-3.8281-22.531 0-14.984 3.8281-22.484 3.8438-7.5 11.453-7.5 7.6719 0 11.5 7.5 3.8438 7.5 3.8438 22.484 0 15.047-3.8438 22.531-3.8281 7.5-11.5 7.5zm0 7.8125q12.266 0 18.734-9.7031 6.4688-9.6875 6.4688-28.141 0-18.406-6.4688-28.109-6.4688-9.6875-18.734-9.6875-12.25 0-18.719 9.6875-6.4688 9.7031-6.4688 28.109 0 18.453 6.4688 28.141 6.4688 9.7031 18.719 9.7031z"/>
</defs>
<use xlink:href="#c"/>
<use x="63.623047" xlink:href="#d"/>
<use x="95.410156" xlink:href="#o"/>
<use x="159.033203" xlink:href="#aj"/>
</g>
</g>
<g clip-path="url(#a)">
<g transform="translate(545 730.68) scale(.1 -.1)">
<use xlink:href="#c"/>
<use x="63.623047" xlink:href="#d"/>
<use x="95.410156" xlink:href="#o"/>
<use x="159.033203" xlink:href="#c"/>
</g>
</g>
<g clip-path="url(#a)">
<g transform="translate(596.35 730.68) scale(.1 -.1)">
<use xlink:href="#c"/>
<use x="63.623047" xlink:href="#d"/>
<use x="95.410156" xlink:href="#o"/>
<use x="159.033203" xlink:href="#o"/>
</g>
</g>
<g clip-path="url(#a)">
<g transform="translate(831.43 502.79) scale(.1 -.1)">
<use xlink:href="#c"/>
<use x="63.623047" xlink:href="#d"/>
<use x="95.410156" xlink:href="#o"/>
<use x="159.033203" xlink:href="#n"/>
</g>
</g>
<g clip-path="url(#a)">
<g transform="translate(707.61 617.03) scale(.1 -.1)">
<use xlink:href="#c"/>
<use x="63.623047" xlink:href="#d"/>
<use x="95.410156" xlink:href="#o"/>
<use x="159.033203" xlink:href="#ai"/>
</g>
</g>
<g clip-path="url(#a)">
<g transform="translate(959.24 730.68) scale(.1 -.1)">
<use xlink:href="#c"/>
<use x="63.623047" xlink:href="#d"/>
<use x="95.410156" xlink:href="#o"/>
<use x="159.033203" xlink:href="#ac"/>
</g>
</g>
<g clip-path="url(#a)">
<g transform="translate(650.27 730.68) scale(.1 -.1)">
<use xlink:href="#c"/>
<use x="63.623047" xlink:href="#d"/>
<use x="95.410156" xlink:href="#o"/>
<use x="159.033203" xlink:href="#ab"/>
</g>
</g>
<g clip-path="url(#a)">
<g transform="translate(706.76 730.68) scale(.1 -.1)">
<defs>
<path id="as" d="m10.984 1.5156v8.9844q3.7188-1.7656 7.5156-2.6875 3.8125-0.92188 7.4844-0.92188 9.7656 0 14.906 6.5625 5.1562 6.5625 5.8906 19.953-2.8281-4.2031-7.1875-6.4531-4.3438-2.25-9.6094-2.25-10.938 0-17.312 6.6094-6.375 6.625-6.375 18.109 0 11.219 6.6406 18 6.6406 6.7969 17.672 6.7969 12.656 0 19.312-9.7031 6.6719-9.6875 6.6719-28.141 0-17.234-8.1875-27.516-8.1719-10.281-21.984-10.281-3.7188 0-7.5312 0.73438-3.7969 0.73438-7.9062 2.2031zm19.625 30.906q6.6406 0 10.516 4.5312 3.8906 4.5469 3.8906 12.469 0 7.8594-3.8906 12.422-3.875 4.5625-10.516 4.5625t-10.516-4.5625-3.875-12.422q0-7.9219 3.875-12.469 3.875-4.5312 10.516-4.5312z"/>
</defs>
<use xlink:href="#c"/>
<use x="63.623047" xlink:href="#d"/>
<use x="95.410156" xlink:href="#o"/>
<use x="159.033203" xlink:href="#as"/>
</g>
</g>
<g clip-path="url(#a)">
<g transform="translate(765.81 730.68) scale(.1 -.1)">
<use xlink:href="#c"/>
<use x="63.623047" xlink:href="#d"/>
<use x="95.410156" xlink:href="#n"/>
<use x="159.033203" xlink:href="#aj"/>
</g>
</g>
<g clip-path="url(#a)">
<g transform="translate(64.867 730.68) scale(.1 -.1)">
<use xlink:href="#c"/>
<use x="63.623047" xlink:href="#d"/>
<use x="95.410156" xlink:href="#n"/>
<use x="159.033203" xlink:href="#c"/>
</g>
</g>
<g clip-path="url(#a)">
<g transform="translate(96.534 617.03) scale(.1 -.1)">
<use xlink:href="#c"/>
<use x="63.623047" xlink:href="#d"/>
<use x="95.410156" xlink:href="#n"/>
<use x="159.033203" xlink:href="#o"/>
</g>
</g>
<g clip-path="url(#a)">
<g transform="translate(129.06 730.68) scale(.1 -.1)">
<use xlink:href="#c"/>
<use x="63.623047" xlink:href="#d"/>
<use x="95.410156" xlink:href="#n"/>
<use x="159.033203" xlink:href="#n"/>
</g>
</g>
<g clip-path="url(#a)">
<g transform="translate(149.6 730.68) scale(.1 -.1)">
<use xlink:href="#c"/>
<use x="63.623047" xlink:href="#d"/>
<use x="95.410156" xlink:href="#n"/>
<use x="159.033203" xlink:href="#u"/>
</g>
</g>
<g clip-path="url(#a)">
<g transform="translate(72.57 730.68) scale(.1 -.1)">
<use xlink:href="#c"/>
<use x="63.623047" xlink:href="#d"/>
<use x="95.410156" xlink:href="#n"/>
<use x="159.033203" xlink:href="#ai"/>
</g>
</g>
<g clip-path="url(#a)">
<g transform="translate(95.678 730.68) scale(.1 -.1)">
<use xlink:href="#c"/>
<use x="63.623047" xlink:href="#d"/>
<use x="95.410156" xlink:href="#n"/>
<use x="159.033203" xlink:href="#ac"/>
</g>
</g>
<g clip-path="url(#a)">
<g transform="translate(172.71 730.68) scale(.1 -.1)">
<use xlink:href="#c"/>
<use x="63.623047" xlink:href="#d"/>
<use x="95.410156" xlink:href="#n"/>
<use x="159.033203" xlink:href="#ah"/>
</g>
</g>
<g clip-path="url(#a)">
<g transform="translate(326.76 730.68) scale(.1 -.1)">
<use xlink:href="#c"/>
<use x="63.623047" xlink:href="#d"/>
<use x="95.410156" xlink:href="#n"/>
<use x="159.033203" xlink:href="#ab"/>
</g>
</g>
<g clip-path="url(#a)">
<g transform="translate(365.27 730.68) scale(.1 -.1)">
<use xlink:href="#c"/>
<use x="63.623047" xlink:href="#d"/>
<use x="95.410156" xlink:href="#n"/>
<use x="159.033203" xlink:href="#as"/>
</g>
</g>
<g clip-path="url(#a)">
<g transform="translate(496.22 730.68) scale(.1 -.1)">
<use xlink:href="#c"/>
<use x="63.623047" xlink:href="#d"/>
<use x="95.410156" xlink:href="#u"/>
<use x="159.033203" xlink:href="#aj"/>
</g>
</g>
<g clip-path="url(#a)">
<g transform="translate(827.43 730.68) scale(.1 -.1)">
<use xlink:href="#c"/>
<use x="63.623047" xlink:href="#d"/>
<use x="95.410156" xlink:href="#u"/>
<use x="159.033203" xlink:href="#c"/>
</g>
</g>
<g clip-path="url(#a)">
<g transform="translate(1099.6 730.68) scale(.1 -.1)">
<use xlink:href="#c"/>
<use x="63.623047" xlink:href="#d"/>
<use x="95.410156" xlink:href="#u"/>
<use x="159.033203" xlink:href="#o"/>
</g>
</g>
<g clip-path="url(#a)">
<g transform="translate(1584.9 730.68) scale(.1 -.1)">
<use xlink:href="#c"/>
<use x="63.623047" xlink:href="#d"/>
<use x="95.410156" xlink:href="#u"/>
<use x="159.033203" xlink:href="#n"/>
</g>
</g>
<defs>
<clipPath id="a">
<rect width="1672" height="880"/>
</clipPath>
</defs>
</svg>
