<?xml version="1.0" encoding="UTF-8"?>
<!DOCTYPE svg  PUBLIC '-//W3C//DTD SVG 1.1//EN'  'http://www.w3.org/Graphics/SVG/1.1/DTD/svg11.dtd'>
<svg width="1824pt" height="960pt" version="1.1" viewBox="0 0 1824 960" xmlns="http://www.w3.org/2000/svg" xmlns:xlink="http://www.w3.org/1999/xlink">
<metadata>
<rdf:RDF xmlns:cc="http://creativecommons.org/ns#" xmlns:dc="http://purl.org/dc/elements/1.1/" xmlns:rdf="http://www.w3.org/1999/02/22-rdf-syntax-ns#">
<cc:Work>
<dc:type rdf:resource="http://purl.org/dc/dcmitype/StillImage"/>
<dc:date>2021-02-23T11:04:44.388093</dc:date>
<dc:format>image/svg+xml</dc:format>
<dc:creator>
<cc:Agent>
<dc:title>Matplotlib v3.3.3, https://matplotlib.org/</dc:title>
</cc:Agent>
</dc:creator>
</cc:Work>
</rdf:RDF>
</metadata>
<defs>
<style type="text/css">*{stroke-linecap:butt;stroke-linejoin:round;}</style>
</defs>
<path d="m0 960h1824v-960h-1824z" fill="#fff"/>
<g fill="none" stroke="#000">
<path d="m557.9 43.636-446.57 351.76" clip-path="url(#a)"/>
<path d="m557.9 43.636-381.72 351.76" clip-path="url(#a)"/>
<path d="m557.9 43.636-266.54 700.97" clip-path="url(#a)"/>
<path d="m557.9 43.636-233.37 700.97" clip-path="url(#a)"/>
<path d="m557.9 43.636-178.89 526.82" clip-path="url(#a)"/>
<path d="m557.9 43.636-47.125 351.76" clip-path="url(#a)"/>
<path d="m557.9 43.636 171.7 700.97" clip-path="url(#a)"/>
<path d="m557.9 43.636 120.47 176.1" clip-path="url(#a)"/>
<path d="m557.9 43.636 413.32 700.97" clip-path="url(#a)"/>
<path d="m557.9 43.636 679.49 176.1" clip-path="url(#a)"/>
<path d="m557.9 43.636-297.33 700.97" clip-path="url(#a)"/>
<path d="m557.9 43.636 117.21 700.97" clip-path="url(#a)"/>
<path d="m557.9 43.636 349.36 700.97" clip-path="url(#a)"/>
<path d="m111.34 395.4 30.795 349.21" clip-path="url(#a)" stroke-dasharray="3.7,1.6"/>
<path d="m111.34 395.4-28.426 349.21" clip-path="url(#a)"/>
<path d="m111.34 395.4-16.582 175.06" clip-path="url(#a)"/>
<path d="m111.34 395.4v349.21" clip-path="url(#a)"/>
<path d="m111.34 395.4 14.213 349.21" clip-path="url(#a)"/>
<path d="m176.18 395.4-34.052 349.21" clip-path="url(#a)"/>
<path d="m176.18 395.4-15.101 349.21" clip-path="url(#a)"/>
<path d="m176.18 395.4 6.2182 349.21" clip-path="url(#a)"/>
<path d="m176.18 395.4 42.935 175.06" clip-path="url(#a)"/>
<path d="m291.37 744.6v171.76" clip-path="url(#a)"/>
<path d="m324.53 744.6v171.76" clip-path="url(#a)"/>
<path d="m379.01 570.46-18.951 174.15" clip-path="url(#a)"/>
<path d="m379.01 570.46 18.951 174.15" clip-path="url(#a)"/>
<path d="m510.78 395.4-72.545 349.21" clip-path="url(#a)"/>
<path d="m510.78 395.4-29.906 349.21" clip-path="url(#a)"/>
<path d="m510.78 395.4 15.101 349.21" clip-path="url(#a)"/>
<path d="m510.78 395.4 87.351 175.06" clip-path="url(#a)"/>
<path d="m729.6 744.6v171.76" clip-path="url(#a)"/>
<path d="m678.37 219.74 152.49 175.66" clip-path="url(#a)"/>
<path d="m678.37 219.74-152.49 524.87" clip-path="url(#a)" stroke-dasharray="3.7,1.6"/>
<path d="m971.22 744.6v171.76" clip-path="url(#a)"/>
<path d="m1237.4 219.74-32.848 175.66" clip-path="url(#a)"/>
<path d="m1237.4 219.74 167.32 524.87" clip-path="url(#a)"/>
<path d="m1237.4 219.74 247.86 524.87" clip-path="url(#a)"/>
<path d="m1237.4 219.74 416.84 350.72" clip-path="url(#a)"/>
<path d="m1237.4 219.74-799.16 524.87" clip-path="url(#a)" stroke-dasharray="3.7,1.6"/>
<path d="m1204.6 395.4-167 349.21" clip-path="url(#a)"/>
<path d="m1204.6 395.4-1.1844 175.06" clip-path="url(#a)"/>
<path d="m1204.6 395.4 46.192 349.21" clip-path="url(#a)"/>
<path d="m1204.6 395.4 121.99 349.21" clip-path="url(#a)"/>
<path d="m1404.7 744.6v171.76" clip-path="url(#a)"/>
<path d="m1485.3 744.6v171.76" clip-path="url(#a)"/>
<path d="m1654.2 570.46-86.068 174.15" clip-path="url(#a)"/>
<path d="m1654.2 570.46-0.78961 174.15" clip-path="url(#a)"/>
<path d="m1654.2 570.46 86.857 174.15" clip-path="url(#a)"/>
<path d="m1568.2 744.6v171.76" clip-path="url(#a)"/>
<path d="m1653.4 744.6v171.76" clip-path="url(#a)"/>
<path d="m1037.5 744.6v171.76" clip-path="url(#a)"/>
<path d="m1203.4 570.46 123.18 174.15" clip-path="url(#a)" stroke-dasharray="3.7,1.6"/>
<path d="m1203.4 570.46-97.122 174.15" clip-path="url(#a)"/>
<path d="m1203.4 570.46-26.057 174.15" clip-path="url(#a)"/>
<path d="m1250.7 744.6v171.76" clip-path="url(#a)"/>
<path d="m1326.5 744.6v171.76" clip-path="url(#a)"/>
<path d="m1106.2 744.6v171.76" clip-path="url(#a)"/>
<path d="m1177.3 744.6v171.76" clip-path="url(#a)"/>
<path d="m830.87 395.4-14.805 175.06" clip-path="url(#a)"/>
<path d="m830.87 395.4 14.805 349.21" clip-path="url(#a)"/>
<path d="m816.06 570.46 29.61 174.15" clip-path="url(#a)" stroke-dasharray="3.7,1.6"/>
<path d="m816.06 570.46-29.61 174.15" clip-path="url(#a)"/>
<path d="m845.67 744.6v171.76" clip-path="url(#a)"/>
<path d="m786.45 744.6v171.76" clip-path="url(#a)"/>
<path d="m438.23 744.6v171.76" clip-path="url(#a)"/>
<path d="m480.87 744.6v171.76" clip-path="url(#a)"/>
<path d="m525.88 744.6v171.76" clip-path="url(#a)"/>
<path d="m598.13 570.46-24.873 174.15" clip-path="url(#a)"/>
<path d="m598.13 570.46 24.873 174.15" clip-path="url(#a)"/>
<path d="m573.26 744.6v171.76" clip-path="url(#a)"/>
<path d="m623 744.6v171.76" clip-path="url(#a)"/>
<path d="m360.06 744.6v171.76" clip-path="url(#a)"/>
<path d="m397.96 744.6v171.76" clip-path="url(#a)"/>
<path d="m142.13 744.6v171.76" clip-path="url(#a)"/>
<path d="m161.08 744.6v171.76" clip-path="url(#a)"/>
<path d="m182.4 744.6v171.76" clip-path="url(#a)"/>
<path d="m219.12 570.46-13.029 174.15" clip-path="url(#a)"/>
<path d="m219.12 570.46 13.029 174.15" clip-path="url(#a)"/>
<path d="m206.09 744.6v171.76" clip-path="url(#a)"/>
<path d="m232.15 744.6v171.76" clip-path="url(#a)"/>
<path d="m82.909 744.6v171.76" clip-path="url(#a)"/>
<path d="m94.753 570.46-4.7377 174.15" clip-path="url(#a)"/>
<path d="m94.753 570.46 4.7377 174.15" clip-path="url(#a)"/>
<path d="m111.34 744.6v171.76" clip-path="url(#a)"/>
<path d="m125.55 744.6v171.76" clip-path="url(#a)"/>
<path d="m90.016 744.6v171.76" clip-path="url(#a)"/>
<path d="m99.491 744.6v171.76" clip-path="url(#a)"/>
<path d="m260.57 744.6v171.76" clip-path="url(#a)"/>
<path d="m675.12 744.6v171.76" clip-path="url(#a)"/>
<path d="m907.26 744.6v171.76" clip-path="url(#a)"/>
<path d="m1741.1 744.6v171.76" clip-path="url(#a)"/>
</g>
<path d="m336.14 226.3 4.7261-3.7227q1.8854-1.4851 0.40027-3.3704l-4.7909-6.0822q-1.4851-1.8854-3.3704-0.40027l-4.7261 3.7227q-1.8854 1.4851-0.40027 3.3704l4.7909 6.0822q1.4851 1.8854 3.3704 0.40027z" clip-path="url(#a)" fill="#fff" stroke="#fff"/>
<g clip-path="url(#a)">
<g transform="translate(333.62 223.11) rotate(-38.227) scale(.08 -.08)">
<defs>
<path id="ad" d="m9.8125 72.906h9.8594v-29.891h35.844v29.891h9.8594v-72.906h-9.8594v34.719h-35.844v-34.719h-9.8594z"/>
</defs>
<use xlink:href="#ad"/>
</g>
</g>
<path d="m369.08 226.17 4.4242-4.0769q1.7649-1.6264 0.13854-3.3913l-5.2468-5.6937q-1.6264-1.7649-3.3913-0.13854l-4.4242 4.0769q-1.7649 1.6264-0.13854 3.3913l5.2468 5.6937q1.6264 1.7649 3.3913 0.13854z" clip-path="url(#a)" fill="#fff" stroke="#fff"/>
<g clip-path="url(#a)">
<g transform="translate(366.33 223.18) rotate(-42.661) scale(.08 -.08)">
<use xlink:href="#ad"/>
</g>
</g>
<path d="m429.7 398.43 1.5843-4.1665q0.853-2.2433-1.3903-3.0963l-7.237-2.7518q-2.2433-0.853-3.0963 1.3903l-1.5843 4.1665q-0.853 2.2433 1.3903 3.0963l7.237 2.7518q2.2433 0.853 3.0963-1.3903z" clip-path="url(#a)" fill="#fff" stroke="#fff"/>
<g clip-path="url(#a)">
<g transform="translate(425.91 396.99) rotate(-69.181) scale(.08 -.08)">
<defs>
<path id="ap" d="m9.8125 72.906h9.8594v-64.609h35.5v-8.2969h-45.359z"/>
</defs>
<use xlink:href="#ap"/>
</g>
</g>
<path d="m446.46 398.22 1.4081-4.2293q0.75812-2.2771-1.519-3.0352l-7.3461-2.4457q-2.2771-0.75812-3.0352 1.519l-1.4081 4.2293q-0.75812 2.2771 1.519 3.0352l7.3461 2.4457q2.2771 0.75812 3.0352-1.519z" clip-path="url(#a)" fill="#fff" stroke="#fff"/>
<g clip-path="url(#a)">
<g transform="translate(442.61 396.93) rotate(-71.586) scale(.08 -.08)">
<use xlink:href="#ap"/>
</g>
</g>
<path d="m473.43 311.91 1.9344-5.6968q0.77168-2.2726-1.5009-3.0442l-7.3314-2.4895q-2.2726-0.77168-3.0442 1.5009l-1.9344 5.6968q-0.77168 2.2726 1.5009 3.0442l7.3314 2.4895q2.2726 0.77168 3.0442-1.5009z" clip-path="url(#a)" fill="#fff" stroke="#fff"/>
<g clip-path="url(#a)">
<g transform="translate(469.58 310.6) rotate(-71.244) scale(.08 -.08)">
<use xlink:href="#ad"/>
</g>
</g>
<path d="m540.16 223.33 0.79885-5.963q0.31868-2.3787-2.0601-2.6974l-7.6739-1.0281q-2.3787-0.31868-2.6974 2.0601l-0.79885 5.963q-0.31868 2.3787 2.0601 2.6974l7.6739 1.0281q2.3787 0.31868 2.6974-2.0601z" clip-path="url(#a)" fill="#fff" stroke="#fff"/>
<g clip-path="url(#a)">
<g transform="translate(536.13 222.79) rotate(-82.37) scale(.08 -.08)">
<use xlink:href="#ad"/>
</g>
</g>
<path d="m637.13 393.45 1.0605 4.3295q0.57098 2.3311 2.9021 1.7601l7.5202-1.842q2.3311-0.57098 1.7601-2.9021l-1.0605-4.3295q-0.57098-2.3311-2.9021-1.7601l-7.5202 1.842q-2.3311 0.57098-1.7601 2.9021z" clip-path="url(#a)" fill="#fff" stroke="#fff"/>
<g clip-path="url(#a)">
<g transform="translate(641.08 392.48) rotate(76.237) scale(.08 -.08)">
<use xlink:href="#ap"/>
</g>
</g>
<path d="m611.26 132.75 3.3969 4.9655q1.3551 1.9808 3.3359 0.62576l6.3903-4.3716q1.9808-1.3551 0.62576-3.3359l-3.3969-4.9655q-1.3551-1.9808-3.3359-0.62576l-6.3903 4.3716q-1.9808 1.3551-0.62576 3.3359z" clip-path="url(#a)" fill="#fff" stroke="#fff"/>
<g clip-path="url(#a)">
<g transform="translate(614.62 130.45) rotate(55.624) scale(.08 -.08)">
<use xlink:href="#ad"/>
</g>
</g>
<path d="m758.03 395.39 2.264 3.8397q1.219 2.0674 3.2864 0.84837l6.6694-3.9325q2.0674-1.219 0.84837-3.2864l-2.264-3.8397q-1.219-2.0674-3.2864-0.84837l-6.6694 3.9325q-2.0674 1.219-0.84837 3.2864z" clip-path="url(#a)" fill="#fff" stroke="#fff"/>
<g clip-path="url(#a)">
<g transform="translate(761.53 393.32) rotate(59.475) scale(.08 -.08)">
<use xlink:href="#ap"/>
</g>
</g>
<path d="m893.17 137 5.8238 1.5093q2.3232 0.6021 2.9254-1.7211l1.9424-7.4949q0.6021-2.3232-1.7211-2.9254l-5.8238-1.5093q-2.3232-0.60211-2.9254 1.7211l-1.9424 7.4949q-0.6021 2.3232 1.7211 2.9254z" clip-path="url(#a)" fill="#fff" stroke="#fff"/>
<g clip-path="url(#a)">
<g transform="translate(894.19 133.07) rotate(14.529) scale(.08 -.08)">
<use xlink:href="#ad"/>
</g>
</g>
<path d="m413.87 399.26 2.2864-5.3901q0.93719-2.2095-1.2723-3.1466l-7.1278-3.0234q-2.2095-0.93719-3.1466 1.2723l-2.2864 5.3901q-0.93719 2.2095 1.2723 3.1466l7.1278 3.0234q2.2094 0.93719 3.1466-1.2723z" clip-path="url(#a)" fill="#fff" stroke="#fff"/>
<g clip-path="url(#a)">
<g transform="translate(410.13 397.68) rotate(-67.015) scale(.08 -.08)">
<defs>
<path id="ag" d="m8.6875 72.906h9.9219v-44.297q0-11.719 4.2344-16.875 4.25-5.1406 13.781-5.1406 9.4688 0 13.719 5.1406 4.25 5.1562 4.25 16.875v44.297h9.9062v-45.516q0-14.25-7.0625-21.531-7.0469-7.2812-20.812-7.2812-13.828 0-20.891 7.2812-7.0469 7.2812-7.0469 21.531z"/>
</defs>
<use xlink:href="#ag"/>
</g>
</g>
<path d="m609.84 392.27 0.96564 5.7748q0.39582 2.3671 2.763 1.9713l7.6365-1.2769q2.3671-0.39582 1.9713-2.763l-0.96564-5.7748q-0.39582-2.3671-2.763-1.9713l-7.6365 1.2769q-2.3671 0.39582-1.9713 2.763z" clip-path="url(#a)" fill="#fff" stroke="#fff"/>
<g clip-path="url(#a)">
<g transform="translate(613.85 391.6) rotate(80.507) scale(.08 -.08)">
<use xlink:href="#ag"/>
</g>
</g>
<path d="m725.66 394.3 2.6117 5.2402q1.0706 2.148 3.2186 1.0775l6.9295-3.4536q2.148-1.0706 1.0775-3.2186l-2.6117-5.2402q-1.0706-2.148-3.2186-1.0775l-6.9295 3.4536q-2.148 1.0706-1.0775 3.2186z" clip-path="url(#a)" fill="#fff" stroke="#fff"/>
<g clip-path="url(#a)">
<g transform="translate(729.3 392.49) rotate(63.509) scale(.08 -.08)">
<use xlink:href="#ag"/>
</g>
</g>
<path d="m120.25 567.83 0.48072 5.4513q0.21082 2.3907 2.6015 2.1799l7.7126-0.68013q2.3907-0.21082 2.1799-2.6015l-0.48072-5.4513q-0.21082-2.3907-2.6015-2.1799l-7.7126 0.68013q-2.3907 0.21082-2.1799 2.6015z" clip-path="url(#a)" fill="#fff" stroke="#fff"/>
<g clip-path="url(#a)">
<g transform="translate(124.29 567.47) rotate(84.96) scale(.08 -.08)">
<defs>
<path id="r" d="m34.188 63.188-13.391-36.281h26.812zm-5.5781 9.7188h11.188l27.781-72.906h-10.25l-6.6406 18.703h-32.859l-6.6406-18.703h-10.406z"/>
</defs>
<use xlink:href="#r"/>
</g>
</g>
<path d="m103.18 572.91 0.39136-4.8078q0.19472-2.3921-2.1974-2.5868l-7.717-0.62817q-2.3921-0.19472-2.5868 2.1974l-0.39136 4.8078q-0.19472 2.3921 2.1974 2.5868l7.717 0.62817q2.3921 0.19472 2.5868-2.1974z" clip-path="url(#a)" fill="#fff" stroke="#fff"/>
<g clip-path="url(#a)">
<g transform="translate(99.127 572.58) rotate(-85.346) scale(.08 -.08)">
<defs>
<path id="ac" d="m19.672 64.797v-27.391h12.406q6.8906 0 10.641 3.5625 3.7656 3.5625 3.7656 10.156 0 6.5469-3.7656 10.109-3.75 3.5625-10.641 3.5625zm-9.8594 8.1094h22.266q12.266 0 18.531-5.5469 6.2812-5.5469 6.2812-16.234 0-10.797-6.2812-16.312-6.2656-5.5156-18.531-5.5156h-12.406v-29.297h-9.8594z"/>
</defs>
<use xlink:href="#ac"/>
</g>
</g>
<path d="m109.03 486.24 0.51604-5.4481q0.22632-2.3893-2.163-2.6156l-7.708-0.7301q-2.3893-0.22632-2.6156 2.163l-0.51604 5.4481q-0.22632 2.3893 2.163 2.6156l7.708 0.7301q2.3893 0.22632 2.6156-2.163z" clip-path="url(#a)" fill="#fff" stroke="#fff"/>
<g clip-path="url(#a)">
<g transform="translate(104.98 485.86) rotate(-84.589) scale(.08 -.08)">
<use xlink:href="#r"/>
</g>
</g>
<path d="m105.06 567.26v5.4725q0 2.4 2.4 2.4h7.7425q2.4 0 2.4-2.4v-5.4725q0-2.4-2.4-2.4h-7.7425q-2.4 0-2.4 2.4z" clip-path="url(#a)" fill="#fff" stroke="#fff"/>
<g clip-path="url(#a)">
<g transform="translate(109.13 567.26) rotate(90) scale(.08 -.08)">
<use xlink:href="#r"/>
</g>
</g>
<path d="m112.06 567.33 0.2381 5.8502q0.097601 2.398 2.4956 2.3004l7.7361-0.31486q2.398-0.097601 2.3004-2.4956l-0.2381-5.8502q-0.097601-2.398-2.4956-2.3004l-7.7361 0.31486q-2.398 0.0976-2.3004 2.4956z" clip-path="url(#a)" fill="#fff" stroke="#fff"/>
<g clip-path="url(#a)">
<g transform="translate(116.12 567.16) rotate(87.669) scale(.08 -.08)">
<use xlink:href="#ag"/>
</g>
</g>
<path d="m165.13 573.33 0.53111-5.4467q0.23292-2.3887-2.1557-2.6216l-7.706-0.75142q-2.3887-0.23292-2.6216 2.1557l-0.53111 5.4467q-0.23292 2.3887 2.1557 2.6216l7.706 0.75142q2.3887 0.23292 2.6216-2.1557z" clip-path="url(#a)" fill="#fff" stroke="#fff"/>
<g clip-path="url(#a)">
<g transform="translate(161.09 572.94) rotate(-84.431) scale(.08 -.08)">
<use xlink:href="#r"/>
</g>
</g>
<path d="m174.76 573.35 0.26614-6.1542q0.10369-2.3978-2.2941-2.5014l-7.7353-0.33451q-2.3978-0.10369-2.5014 2.2941l-0.26614 6.1542q-0.10369 2.3978 2.2941 2.5014l7.7353 0.33451q2.3978 0.10369 2.5014-2.2941z" clip-path="url(#a)" fill="#fff" stroke="#fff"/>
<g clip-path="url(#a)">
<g transform="translate(170.7 573.17) rotate(-87.524) scale(.08 -.08)">
<defs>
<path id="ai" d="m19.672 64.797v-56.688h11.922q15.094 0 22.094 6.8281 7 6.8438 7 21.594 0 14.641-7 21.453t-22.094 6.8125zm-9.8594 8.1094h20.266q21.188 0 31.094-8.8125 9.9219-8.8125 9.9219-27.562 0-18.859-9.9688-27.703-9.9531-8.8281-31.047-8.8281h-20.266z"/>
</defs>
<use xlink:href="#ai"/>
</g>
</g>
<path d="m172.98 567.7 0.08588 4.823q0.042729 2.3996 2.4423 2.3569l7.7413-0.13784q2.3996-0.042729 2.3569-2.4423l-0.08588-4.823q-0.042729-2.3996-2.4423-2.3569l-7.7413 0.13784q-2.3996 0.042729-2.3569 2.4423z" clip-path="url(#a)" fill="#fff" stroke="#fff"/>
<g clip-path="url(#a)">
<g transform="translate(177.04 567.63) rotate(88.98) scale(.08 -.08)">
<use xlink:href="#ac"/>
</g>
</g>
<path d="m190.91 481.76 1.3035 5.315q0.57167 2.3309 2.9026 1.7592l7.5196-1.8442q2.3309-0.57168 1.7592-2.9026l-1.3035-5.315q-0.57168-2.3309-2.9026-1.7592l-7.5196 1.8442q-2.3309 0.57168-1.7592 2.9026z" clip-path="url(#a)" fill="#fff" stroke="#fff"/>
<g clip-path="url(#a)">
<g transform="translate(194.85 480.79) rotate(76.22) scale(.08 -.08)">
<use xlink:href="#r"/>
</g>
</g>
<path d="m285.09 813.58v33.808q0 2.4 2.4 2.4h7.7425q2.4 0 2.4-2.4v-33.808q0-2.4-2.4-2.4h-7.7425q-2.4 0-2.4 2.4z" clip-path="url(#a)" fill="#fff" stroke="#fff"/>
<g clip-path="url(#a)">
<g transform="translate(289.16 813.58) rotate(90) scale(.08 -.08)">
<defs>
<path id="f" d="m-0.29688 72.906h61.672v-8.3125h-25.875v-64.594h-9.9062v64.594h-25.891z"/>
<path id="l" d="m56.203 29.594v-4.3906h-41.312q0.59375-9.2812 5.5938-14.141t13.938-4.8594q5.1719 0 10.031 1.2656t9.6562 3.8125v-8.5q-4.8438-2.0469-9.9219-3.125t-10.297-1.0781q-13.094 0-20.734 7.6094-7.6406 7.625-7.6406 20.625 0 13.422 7.25 21.297 7.25 7.8906 19.562 7.8906 11.031 0 17.453-7.1094 6.4219-7.0938 6.4219-19.297zm-8.9844 2.6406q-0.09375 7.3594-4.125 11.75-4.0312 4.4062-10.672 4.4062-7.5156 0-12.031-4.25t-5.2031-11.969z"/>
<path id="g" d="m41.109 46.297q-1.5156 0.875-3.2969 1.2812-1.7812 0.42188-3.9219 0.42188-7.625 0-11.703-4.9531t-4.0781-14.234v-28.812h-9.0312v54.688h9.0312v-8.5q2.8438 4.9844 7.375 7.3906 4.5469 2.4219 11.047 2.4219 0.92188 0 2.0469-0.125 1.125-0.10938 2.4844-0.35938z"/>
<path id="i" d="m52 44.188q3.375 6.0625 8.0625 8.9375t11.031 2.875q8.5469 0 13.188-5.9844 4.6406-5.9688 4.6406-17v-33.016h-9.0312v32.719q0 7.8594-2.7969 11.656-2.7812 3.8125-8.4844 3.8125-6.9844 0-11.047-4.6406-4.0469-4.625-4.0469-12.641v-30.906h-9.0312v32.719q0 7.9062-2.7812 11.688t-8.5938 3.7812q-6.8906 0-10.953-4.6562-4.0469-4.6562-4.0469-12.625v-30.906h-9.0312v54.688h9.0312v-8.5q3.0781 5.0312 7.375 7.4219t10.203 2.3906q5.9688 0 10.141-3.0312 4.1719-3.0156 6.1719-8.7812z"/>
<path id="k" d="m9.4219 54.688h8.9844v-54.688h-8.9844zm0 21.297h8.9844v-11.391h-8.9844z"/>
<path id="h" d="m54.891 33.016v-33.016h-8.9844v32.719q0 7.7656-3.0312 11.609-3.0312 3.8594-9.0781 3.8594-7.2812 0-11.484-4.6406-4.2031-4.625-4.2031-12.641v-30.906h-9.0312v54.688h9.0312v-8.5q3.2344 4.9375 7.5938 7.375 4.375 2.4375 10.094 2.4375 9.4219 0 14.25-5.8281 4.8438-5.8281 4.8438-17.156z"/>
<path id="e" d="m34.281 27.484q-10.891 0-15.094-2.4844t-4.2031-8.5q0-4.7812 3.1562-7.5938 3.1562-2.7969 8.5625-2.7969 7.4844 0 12 5.2969t4.5156 14.078v2zm17.922 3.7188v-31.203h-8.9844v8.2969q-3.0781-4.9688-7.6719-7.3438t-11.234-2.375q-8.3906 0-13.359 4.7188-4.9531 4.7188-4.9531 12.625 0 9.2188 6.1719 13.906 6.1875 4.6875 18.438 4.6875h12.609v0.89062q0 6.2031-4.0781 9.5938t-11.453 3.3906q-4.6875 0-9.1406-1.125-4.4375-1.125-8.5312-3.375v8.3125q4.9219 1.9062 9.5625 2.8438 4.6406 0.95312 9.0312 0.95312 11.875 0 17.734-6.1562 5.8594-6.1406 5.8594-18.641z"/>
<path id="j" d="m9.4219 75.984h8.9844v-75.984h-8.9844z"/>
</defs>
<use xlink:href="#f"/>
<use x="44.083984" xlink:href="#l"/>
<use x="105.607422" xlink:href="#g"/>
<use x="144.970703" xlink:href="#i"/>
<use x="242.382812" xlink:href="#k"/>
<use x="270.166016" xlink:href="#h"/>
<use x="333.544922" xlink:href="#e"/>
<use x="394.824219" xlink:href="#j"/>
</g>
</g>
<path d="m318.26 813.58v33.808q0 2.4 2.4 2.4h7.7425q2.4 0 2.4-2.4v-33.808q0-2.4-2.4-2.4h-7.7425q-2.4 0-2.4 2.4z" clip-path="url(#a)" fill="#fff" stroke="#fff"/>
<g clip-path="url(#a)">
<g transform="translate(322.32 813.58) rotate(90) scale(.08 -.08)">
<use xlink:href="#f"/>
<use x="44.083984" xlink:href="#l"/>
<use x="105.607422" xlink:href="#g"/>
<use x="144.970703" xlink:href="#i"/>
<use x="242.382812" xlink:href="#k"/>
<use x="270.166016" xlink:href="#h"/>
<use x="333.544922" xlink:href="#e"/>
<use x="394.824219" xlink:href="#j"/>
</g>
</g>
<path d="m375.51 660.61 0.52184-4.7954q0.25963-2.3859-2.1263-2.6455l-7.6971-0.83759q-2.3859-0.25963-2.6455 2.1263l-0.52184 4.7954q-0.25963 2.3859 2.1263 2.6455l7.6971 0.83759q2.3859 0.25963 2.6455-2.1263z" clip-path="url(#a)" fill="#fff" stroke="#fff"/>
<g clip-path="url(#a)">
<g transform="translate(371.47 660.17) rotate(-83.79) scale(.08 -.08)">
<use xlink:href="#ac"/>
</g>
</g>
<path d="m381.96 655.49 0.59202 5.4404q0.25963 2.3859 2.6455 2.1263l7.6971-0.83759q2.3859-0.25963 2.1263-2.6455l-0.59202-5.4404q-0.25963-2.3859-2.6455-2.1263l-7.6971 0.83759q-2.3859 0.25963-2.1263 2.6455z" clip-path="url(#a)" fill="#fff" stroke="#fff"/>
<g clip-path="url(#a)">
<g transform="translate(386 655.05) rotate(83.79) scale(.08 -.08)">
<use xlink:href="#r"/>
</g>
</g>
<path d="m480.09 573.95 1.1131-5.3581q0.48816-2.3498-1.8617-2.838l-7.5806-1.5748q-2.3498-0.48816-2.838 1.8617l-1.1131 5.3581q-0.48816 2.3498 1.8617 2.838l7.5806 1.5748q2.3498 0.48816 2.838-1.8617z" clip-path="url(#a)" fill="#fff" stroke="#fff"/>
<g clip-path="url(#a)">
<g transform="translate(476.11 573.13) rotate(-78.264) scale(.08 -.08)">
<use xlink:href="#r"/>
</g>
</g>
<path d="m501.81 573.6 0.52562-6.1375q0.20479-2.3912-2.1865-2.596l-7.7143-0.66065q-2.3912-0.20479-2.596 2.1865l-0.52562 6.1375q-0.20479 2.3912 2.1865 2.596l7.7143 0.66065q2.3912 0.20479 2.596-2.1865z" clip-path="url(#a)" fill="#fff" stroke="#fff"/>
<g clip-path="url(#a)">
<g transform="translate(497.76 573.26) rotate(-85.105) scale(.08 -.08)">
<use xlink:href="#ai"/>
</g>
</g>
<path d="m511.96 567.86 0.2084 4.8192q0.10369 2.3978 2.5014 2.2941l7.7353-0.33451q2.3978-0.10369 2.2941-2.5014l-0.2084-4.8192q-0.10369-2.3978-2.5014-2.2941l-7.7353 0.33451q-2.3978 0.10369-2.2941 2.5014z" clip-path="url(#a)" fill="#fff" stroke="#fff"/>
<g clip-path="url(#a)">
<g transform="translate(516.02 567.69) rotate(87.524) scale(.08 -.08)">
<use xlink:href="#ac"/>
</g>
</g>
<path d="m547.62 483.28 2.4433 4.8968q1.0715 2.1475 3.2191 1.076l6.928-3.4568q2.1475-1.0715 1.076-3.2191l-2.4433-4.8968q-1.0715-2.1475-3.2191-1.076l-6.928 3.4568q-2.1475 1.0715-1.076 3.2191z" clip-path="url(#a)" fill="#fff" stroke="#fff"/>
<g clip-path="url(#a)">
<g transform="translate(551.26 481.46) rotate(63.482) scale(.08 -.08)">
<use xlink:href="#r"/>
</g>
</g>
<path d="m723.33 813.58v33.808q0 2.4 2.4 2.4h7.7425q2.4 0 2.4-2.4v-33.808q0-2.4-2.4-2.4h-7.7425q-2.4 0-2.4 2.4z" clip-path="url(#a)" fill="#fff" stroke="#fff"/>
<g clip-path="url(#a)">
<g transform="translate(727.39 813.58) rotate(90) scale(.08 -.08)">
<use xlink:href="#f"/>
<use x="44.083984" xlink:href="#l"/>
<use x="105.607422" xlink:href="#g"/>
<use x="144.970703" xlink:href="#i"/>
<use x="242.382812" xlink:href="#k"/>
<use x="270.166016" xlink:href="#h"/>
<use x="333.544922" xlink:href="#e"/>
<use x="394.824219" xlink:href="#j"/>
</g>
</g>
<path d="m748.09 309.61 3.5876 4.1325q1.5733 1.8123 3.3857 0.23899l5.8467-5.0757q1.8123-1.5733 0.23899-3.3857l-3.5876-4.1325q-1.5733-1.8123-3.3857-0.23899l-5.8467 5.0757q-1.8123 1.5733-0.23899 3.3857z" clip-path="url(#a)" fill="#fff" stroke="#fff"/>
<g clip-path="url(#a)">
<g transform="translate(751.16 306.95) rotate(49.038) scale(.08 -.08)">
<use xlink:href="#r"/>
</g>
</g>
<path d="m607.48 486.24 1.3458-4.6322q0.6696-2.3047-1.6351-2.9743l-7.4351-2.1602q-2.3047-0.6696-2.9743 1.6351l-1.3458 4.6322q-0.6696 2.3047 1.6351 2.9743l7.4351 2.1602q2.3047 0.6696 2.9743-1.6351z" clip-path="url(#a)" fill="#fff" stroke="#fff"/>
<g clip-path="url(#a)">
<g transform="translate(603.57 485.1) rotate(-73.799) scale(.08 -.08)">
<use xlink:href="#ac"/>
</g>
</g>
<path d="m964.95 813.58v33.808q0 2.4 2.4 2.4h7.7425q2.4 0 2.4-2.4v-33.808q0-2.4-2.4-2.4h-7.7425q-2.4 0-2.4 2.4z" clip-path="url(#a)" fill="#fff" stroke="#fff"/>
<g clip-path="url(#a)">
<g transform="translate(969.01 813.58) rotate(90) scale(.08 -.08)">
<use xlink:href="#f"/>
<use x="44.083984" xlink:href="#l"/>
<use x="105.607422" xlink:href="#g"/>
<use x="144.970703" xlink:href="#i"/>
<use x="242.382812" xlink:href="#k"/>
<use x="270.166016" xlink:href="#h"/>
<use x="333.544922" xlink:href="#e"/>
<use x="394.824219" xlink:href="#j"/>
</g>
</g>
<path d="m1226.6 311.75 1.1323-6.055q0.44115-2.3591-1.918-2.8003l-7.6106-1.4232q-2.3591-0.44115-2.8003 1.918l-1.1323 6.055q-0.44115 2.3591 1.918 2.8003l7.6106 1.4232q2.3591 0.44115 2.8003-1.918z" clip-path="url(#a)" fill="#fff" stroke="#fff"/>
<g clip-path="url(#a)">
<g transform="translate(1222.6 311) rotate(-79.408) scale(.08 -.08)">
<use xlink:href="#ai"/>
</g>
</g>
<path d="m1314.1 481.14 1.8709 5.869q0.72894 2.2866 3.0156 1.5577l7.3767-2.3516q2.2866-0.72894 1.5577-3.0156l-1.8709-5.869q-0.72894-2.2866-3.0156-1.5577l-7.3767 2.3516q-2.2866 0.72894-1.5577 3.0156z" clip-path="url(#a)" fill="#fff" stroke="#fff"/>
<g clip-path="url(#a)">
<g transform="translate(1318 479.91) rotate(72.319) scale(.08 -.08)">
<use xlink:href="#ai"/>
</g>
</g>
<path d="m1354.6 482.67 2.0598 4.3619q1.0248 2.1702 3.195 1.1454l7.0011-3.3062q2.1702-1.0248 1.1454-3.195l-2.0598-4.3619q-1.0248-2.1702-3.195-1.1454l-7.0011 3.3062q-2.1702 1.0248-1.1454 3.195z" clip-path="url(#a)" fill="#fff" stroke="#fff"/>
<g clip-path="url(#a)">
<g transform="translate(1358.3 480.93) rotate(64.722) scale(.08 -.08)">
<use xlink:href="#ac"/>
</g>
</g>
<path d="m1439.7 398.13 4.1875 3.5233q1.8364 1.5452 3.3816-0.29129l4.9847-5.9244q1.5452-1.8364-0.29129-3.3816l-4.1875-3.5233q-1.8364-1.5452-3.3816 0.29129l-4.9847 5.9244q-1.5452 1.8364 0.29129 3.3816z" clip-path="url(#a)" fill="#fff" stroke="#fff"/>
<g clip-path="url(#a)">
<g transform="translate(1442.3 395.02) rotate(40.077) scale(.08 -.08)">
<use xlink:href="#r"/>
</g>
</g>
<path d="m838.97 488.92 4.5742-3.0042q2.006-1.3175 0.68853-3.3235l-4.2503-6.4716q-1.3175-2.006-3.3235-0.68853l-4.5742 3.0042q-2.006 1.3175-0.68853 3.3235l4.2503 6.4716q1.3175 2.006 3.3235 0.68853z" clip-path="url(#a)" fill="#fff" stroke="#fff"/>
<g clip-path="url(#a)">
<g transform="translate(836.74 485.52) rotate(-33.296) scale(.08 -.08)">
<use xlink:href="#r"/>
</g>
</g>
<path d="m1125.5 575.21 2.3982-5.0148q1.0354-2.1651-1.1297-3.2006l-6.9849-3.3404q-2.1651-1.0354-3.2006 1.1297l-2.3982 5.0148q-1.0354 2.1651 1.1297 3.2006l6.9849 3.3404q2.1651 1.0354 3.2006-1.1297z" clip-path="url(#a)" fill="#fff" stroke="#fff"/>
<g clip-path="url(#a)">
<g transform="translate(1121.8 573.46) rotate(-64.441) scale(.08 -.08)">
<defs>
<path id="ah" d="m44.391 34.188q3.1719-1.0781 6.1719-4.5938t6.0312-9.6719l10.016-19.922h-10.609l-9.3125 18.703q-3.625 7.3281-7.0156 9.7188t-9.25 2.3906h-10.75v-30.812h-9.8594v72.906h22.266q12.5 0 18.656-5.2344 6.1562-5.2188 6.1562-15.766 0-6.8906-3.2031-11.438-3.2031-4.5312-9.2969-6.2812zm-24.719 30.609v-25.875h12.406q7.125 0 10.766 3.2969t3.6406 9.6875-3.6406 9.6406-10.766 3.25z"/>
</defs>
<use xlink:href="#ah"/>
</g>
</g>
<path d="m1210.2 485.5 0.0342-5.0549q0.016237-2.3999-2.3837-2.4162l-7.7423-0.052382q-2.3999-0.016238-2.4162 2.3837l-0.0342 5.0549q-0.016237 2.3999 2.3837 2.4162l7.7423 0.052382q2.3999 0.016238 2.4162-2.3837z" clip-path="url(#a)" fill="#fff" stroke="#fff"/>
<g clip-path="url(#a)">
<g transform="translate(1206.1 485.47) rotate(-89.612) scale(.08 -.08)">
<defs>
<path id="av" d="m9.8125 72.906h46.094v-8.3125h-36.234v-21.578h34.719v-8.2969h-34.719v-26.422h37.109v-8.2969h-46.969z"/>
</defs>
<use xlink:href="#av"/>
</g>
</g>
<path d="m1221.1 568.32 0.66288 5.0113q0.31472 2.3793 2.694 2.0646l7.6756-1.0153q2.3793-0.31472 2.0646-2.694l-0.66288-5.0113q-0.31472-2.3793-2.694-2.0646l-7.6756 1.0153q-2.3793 0.31472-2.0646 2.694z" clip-path="url(#a)" fill="#fff" stroke="#fff"/>
<g clip-path="url(#a)">
<g transform="translate(1225.1 567.78) rotate(82.465) scale(.08 -.08)">
<use xlink:href="#av"/>
</g>
</g>
<path d="m1258.7 569.43 1.8423 5.2737q0.79152 2.2657 3.0572 1.4742l7.3093-2.5535q2.2657-0.79152 1.4742-3.0572l-1.8423-5.2737q-0.79152-2.2657-3.0572-1.4742l-7.3093 2.5535q-2.2657 0.79152-1.4742 3.0572z" clip-path="url(#a)" fill="#fff" stroke="#fff"/>
<g clip-path="url(#a)">
<g transform="translate(1262.5 568.09) rotate(70.743) scale(.08 -.08)">
<defs>
<path id="ae" d="m64.406 67.281v-10.391q-4.9844 4.6406-10.625 6.9219-5.6406 2.2969-11.984 2.2969-12.5 0-19.141-7.6406t-6.6406-22.094q0-14.406 6.6406-22.047t19.141-7.6406q6.3438 0 11.984 2.2969t10.625 6.9375v-10.312q-5.1719-3.5156-10.969-5.2812-5.7812-1.75-12.219-1.75-16.562 0-26.094 10.125-9.5156 10.141-9.5156 27.672 0 17.578 9.5156 27.703 9.5312 10.141 26.094 10.141 6.5312 0 12.312-1.7344 5.7969-1.7344 10.875-5.2031z"/>
</defs>
<use xlink:href="#ae"/>
</g>
</g>
<path d="m1398.4 813.58v33.808q0 2.4 2.4 2.4h7.7425q2.4 0 2.4-2.4v-33.808q0-2.4-2.4-2.4h-7.7425q-2.4 0-2.4 2.4z" clip-path="url(#a)" fill="#fff" stroke="#fff"/>
<g clip-path="url(#a)">
<g transform="translate(1402.5 813.58) rotate(90) scale(.08 -.08)">
<use xlink:href="#f"/>
<use x="44.083984" xlink:href="#l"/>
<use x="105.607422" xlink:href="#g"/>
<use x="144.970703" xlink:href="#i"/>
<use x="242.382812" xlink:href="#k"/>
<use x="270.166016" xlink:href="#h"/>
<use x="333.544922" xlink:href="#e"/>
<use x="394.824219" xlink:href="#j"/>
</g>
</g>
<path d="m1479 813.58v33.808q0 2.4 2.4 2.4h7.7425q2.4 0 2.4-2.4v-33.808q0-2.4-2.4-2.4h-7.7425q-2.4 0-2.4 2.4z" clip-path="url(#a)" fill="#fff" stroke="#fff"/>
<g clip-path="url(#a)">
<g transform="translate(1483 813.58) rotate(90) scale(.08 -.08)">
<use xlink:href="#f"/>
<use x="44.083984" xlink:href="#l"/>
<use x="105.607422" xlink:href="#g"/>
<use x="144.970703" xlink:href="#i"/>
<use x="242.382812" xlink:href="#k"/>
<use x="270.166016" xlink:href="#h"/>
<use x="333.544922" xlink:href="#e"/>
<use x="394.824219" xlink:href="#j"/>
</g>
</g>
<path d="m1615.6 662.8 2.4629-4.9834q1.0634-2.1516-1.0882-3.2149l-6.9411-3.4304q-2.1516-1.0634-3.2149 1.0882l-2.4629 4.9834q-1.0634 2.1516 1.0882 3.2149l6.9411 3.4304q2.1516 1.0634 3.2149-1.0882z" clip-path="url(#a)" fill="#fff" stroke="#fff"/>
<g clip-path="url(#a)">
<g transform="translate(1611.9 661) rotate(-63.7) scale(.08 -.08)">
<use xlink:href="#ah"/>
</g>
</g>
<path d="m1660.1 660.35 0.025329-5.5862q0.010882-2.4-2.3891-2.4109l-7.7424-0.035105q-2.4-0.010882-2.4109 2.3891l-0.025329 5.5862q-0.010882 2.4 2.3891 2.4109l7.7424 0.035105q2.4 0.010882 2.4109-2.3891z" clip-path="url(#a)" fill="#fff" stroke="#fff"/>
<g clip-path="url(#a)">
<g transform="translate(1656 660.33) rotate(-89.74) scale(.08 -.08)">
<use xlink:href="#ae"/>
</g>
</g>
<path d="m1690.7 657.71 2.6132 5.2395q1.0712 2.1477 3.2189 1.0765l6.9286-3.4556q2.1477-1.0712 1.0765-3.2189l-2.6132-5.2395q-1.0712-2.1477-3.2189-1.0765l-6.9286 3.4556q-2.1477 1.0712-1.0765 3.2189z" clip-path="url(#a)" fill="#fff" stroke="#fff"/>
<g clip-path="url(#a)">
<g transform="translate(1694.4 655.9) rotate(63.492) scale(.08 -.08)">
<use xlink:href="#ag"/>
</g>
</g>
<path d="m1561.9 813.58v33.808q0 2.4 2.4 2.4h7.7425q2.4 0 2.4-2.4v-33.808q0-2.4-2.4-2.4h-7.7425q-2.4 0-2.4 2.4z" clip-path="url(#a)" fill="#fff" stroke="#fff"/>
<g clip-path="url(#a)">
<g transform="translate(1566 813.58) rotate(90) scale(.08 -.08)">
<use xlink:href="#f"/>
<use x="44.083984" xlink:href="#l"/>
<use x="105.607422" xlink:href="#g"/>
<use x="144.970703" xlink:href="#i"/>
<use x="242.382812" xlink:href="#k"/>
<use x="270.166016" xlink:href="#h"/>
<use x="333.544922" xlink:href="#e"/>
<use x="394.824219" xlink:href="#j"/>
</g>
</g>
<path d="m1647.2 813.58v33.808q0 2.4 2.4 2.4h7.7425q2.4 0 2.4-2.4v-33.808q0-2.4-2.4-2.4h-7.7425q-2.4 0-2.4 2.4z" clip-path="url(#a)" fill="#fff" stroke="#fff"/>
<g clip-path="url(#a)">
<g transform="translate(1651.2 813.58) rotate(90) scale(.08 -.08)">
<use xlink:href="#f"/>
<use x="44.083984" xlink:href="#l"/>
<use x="105.607422" xlink:href="#g"/>
<use x="144.970703" xlink:href="#i"/>
<use x="242.382812" xlink:href="#k"/>
<use x="270.166016" xlink:href="#h"/>
<use x="333.544922" xlink:href="#e"/>
<use x="394.824219" xlink:href="#j"/>
</g>
</g>
<path d="m1031.3 813.58v33.808q0 2.4 2.4 2.4h7.7425q2.4 0 2.4-2.4v-33.808q0-2.4-2.4-2.4h-7.7425q-2.4 0-2.4 2.4z" clip-path="url(#a)" fill="#fff" stroke="#fff"/>
<g clip-path="url(#a)">
<g transform="translate(1035.3 813.58) rotate(90) scale(.08 -.08)">
<use xlink:href="#f"/>
<use x="44.083984" xlink:href="#l"/>
<use x="105.607422" xlink:href="#g"/>
<use x="144.970703" xlink:href="#i"/>
<use x="242.382812" xlink:href="#k"/>
<use x="270.166016" xlink:href="#h"/>
<use x="333.544922" xlink:href="#e"/>
<use x="394.824219" xlink:href="#j"/>
</g>
</g>
<path d="m1258.3 658.92 3.1602 4.4678q1.3859 1.9594 3.3453 0.57346l6.3211-4.4711q1.9594-1.3859 0.57347-3.3453l-3.1602-4.4678q-1.3859-1.9594-3.3453-0.57346l-6.3211 4.4711q-1.9594 1.3859-0.57346 3.3453z" clip-path="url(#a)" fill="#fff" stroke="#fff"/>
<g clip-path="url(#a)">
<g transform="translate(1261.6 656.57) rotate(54.727) scale(.08 -.08)">
<use xlink:href="#r"/>
</g>
</g>
<path d="m1158.8 663.28 3.0004-5.3799q1.169-2.0961-0.9271-3.265l-6.762-3.7712q-2.0961-1.169-3.265 0.92709l-3.0004 5.3799q-1.169 2.0961 0.92709 3.265l6.762 3.7712q2.0961 1.169 3.265-0.92709z" clip-path="url(#a)" fill="#fff" stroke="#fff"/>
<g clip-path="url(#a)">
<g transform="translate(1155.2 661.3) rotate(-60.852) scale(.08 -.08)">
<use xlink:href="#ai"/>
</g>
</g>
<path d="m1196.2 660.84 0.71381-4.7706q0.35515-2.3736-2.0184-2.7287l-7.6573-1.1457q-2.3736-0.35515-2.7287 2.0184l-0.71381 4.7706q-0.35515 2.3736 2.0184 2.7287l7.6573 1.1457q2.3736 0.35515 2.7287-2.0184z" clip-path="url(#a)" fill="#fff" stroke="#fff"/>
<g clip-path="url(#a)">
<g transform="translate(1192.2 660.24) rotate(-81.49) scale(.08 -.08)">
<use xlink:href="#ac"/>
</g>
</g>
<path d="m1244.5 813.58v33.808q0 2.4 2.4 2.4h7.7425q2.4 0 2.4-2.4v-33.808q0-2.4-2.4-2.4h-7.7425q-2.4 0-2.4 2.4z" clip-path="url(#a)" fill="#fff" stroke="#fff"/>
<g clip-path="url(#a)">
<g transform="translate(1248.5 813.58) rotate(90) scale(.08 -.08)">
<use xlink:href="#f"/>
<use x="44.083984" xlink:href="#l"/>
<use x="105.607422" xlink:href="#g"/>
<use x="144.970703" xlink:href="#i"/>
<use x="242.382812" xlink:href="#k"/>
<use x="270.166016" xlink:href="#h"/>
<use x="333.544922" xlink:href="#e"/>
<use x="394.824219" xlink:href="#j"/>
</g>
</g>
<path d="m1320.3 813.58v33.808q0 2.4 2.4 2.4h7.7425q2.4 0 2.4-2.4v-33.808q0-2.4-2.4-2.4h-7.7425q-2.4 0-2.4 2.4z" clip-path="url(#a)" fill="#fff" stroke="#fff"/>
<g clip-path="url(#a)">
<g transform="translate(1324.3 813.58) rotate(90) scale(.08 -.08)">
<use xlink:href="#f"/>
<use x="44.083984" xlink:href="#l"/>
<use x="105.607422" xlink:href="#g"/>
<use x="144.970703" xlink:href="#i"/>
<use x="242.382812" xlink:href="#k"/>
<use x="270.166016" xlink:href="#h"/>
<use x="333.544922" xlink:href="#e"/>
<use x="394.824219" xlink:href="#j"/>
</g>
</g>
<path d="m1100 813.58v33.808q0 2.4 2.4 2.4h7.7425q2.4 0 2.4-2.4v-33.808q0-2.4-2.4-2.4h-7.7425q-2.4 0-2.4 2.4z" clip-path="url(#a)" fill="#fff" stroke="#fff"/>
<g clip-path="url(#a)">
<g transform="translate(1104 813.58) rotate(90) scale(.08 -.08)">
<use xlink:href="#f"/>
<use x="44.083984" xlink:href="#l"/>
<use x="105.607422" xlink:href="#g"/>
<use x="144.970703" xlink:href="#i"/>
<use x="242.382812" xlink:href="#k"/>
<use x="270.166016" xlink:href="#h"/>
<use x="333.544922" xlink:href="#e"/>
<use x="394.824219" xlink:href="#j"/>
</g>
</g>
<path d="m1171 813.58v33.808q0 2.4 2.4 2.4h7.7425q2.4 0 2.4-2.4v-33.808q0-2.4-2.4-2.4h-7.7425q-2.4 0-2.4 2.4z" clip-path="url(#a)" fill="#fff" stroke="#fff"/>
<g clip-path="url(#a)">
<g transform="translate(1175.1 813.58) rotate(90) scale(.08 -.08)">
<use xlink:href="#f"/>
<use x="44.083984" xlink:href="#l"/>
<use x="105.607422" xlink:href="#g"/>
<use x="144.970703" xlink:href="#i"/>
<use x="242.382812" xlink:href="#k"/>
<use x="270.166016" xlink:href="#h"/>
<use x="333.544922" xlink:href="#e"/>
<use x="394.824219" xlink:href="#j"/>
</g>
</g>
<path d="m829.5 485.97 0.42599-5.037q0.20225-2.3915-2.1892-2.5937l-7.715-0.65246q-2.3915-0.20225-2.5937 2.1892l-0.42599 5.037q-0.20225 2.3915 2.1892 2.5937l7.715 0.65246q2.3915 0.20225 2.5937-2.1892z" clip-path="url(#a)" fill="#fff" stroke="#fff"/>
<g clip-path="url(#a)">
<g transform="translate(825.45 485.63) rotate(-85.166) scale(.08 -.08)">
<use xlink:href="#av"/>
</g>
</g>
<path d="m831.89 567.48 0.23662 5.5812q0.10166 2.3978 2.4995 2.2962l7.7356-0.32796q2.3978-0.10166 2.2962-2.4995l-0.23662-5.5812q-0.10166-2.3978-2.4995-2.2962l-7.7356 0.32796q-2.3978 0.10166-2.2962 2.4995z" clip-path="url(#a)" fill="#fff" stroke="#fff"/>
<g clip-path="url(#a)">
<g transform="translate(835.95 567.3) rotate(87.572) scale(.08 -.08)">
<use xlink:href="#ae"/>
</g>
</g>
<path d="m824.23 655.88 0.91732 5.3951q0.4023 2.366 2.7683 1.9637l7.633-1.2978q2.366-0.4023 1.9637-2.7683l-0.91732-5.3951q-0.4023-2.366-2.7683-1.9637l-7.633 1.2978q-2.366 0.4023-1.9637 2.7683z" clip-path="url(#a)" fill="#fff" stroke="#fff"/>
<g clip-path="url(#a)">
<g transform="translate(828.23 655.2) rotate(80.35) scale(.08 -.08)">
<use xlink:href="#r"/>
</g>
</g>
<path d="m807.01 661.09 0.85132-5.0069q0.4023-2.366-1.9637-2.7683l-7.633-1.2978q-2.366-0.4023-2.7683 1.9637l-0.85132 5.0069q-0.4023 2.366 1.9637 2.7683l7.633 1.2978q2.366 0.4023 2.7683-1.9637z" clip-path="url(#a)" fill="#fff" stroke="#fff"/>
<g clip-path="url(#a)">
<g transform="translate(803.01 660.4) rotate(-80.35) scale(.08 -.08)">
<defs>
<path id="bd" d="m53.516 70.516v-9.625q-5.6094 2.6875-10.594 4-4.9844 1.3281-9.625 1.3281-8.0469 0-12.422-3.125t-4.375-8.8906q0-4.8438 2.9062-7.3125 2.9062-2.4531 11.016-3.9688l5.9531-1.2188q11.031-2.1094 16.281-7.4062t5.25-14.172q0-10.609-7.1094-16.078-7.0938-5.4688-20.812-5.4688-5.1719 0-11.016 1.1719-5.8281 1.1719-12.078 3.4688v10.156q6-3.3594 11.766-5.0781 5.7656-1.7031 11.328-1.7031 8.4375 0 13.031 3.3125 4.5938 3.3281 4.5938 9.4844 0 5.3594-3.2969 8.3906t-10.812 4.5469l-6.0156 1.1719q-11.031 2.1875-15.969 6.875-4.9219 4.6875-4.9219 13.047 0 9.6719 6.8125 15.234t18.766 5.5625q5.1406 0 10.453-0.9375 5.3281-0.92188 10.891-2.7656z"/>
</defs>
<use xlink:href="#bd"/>
</g>
</g>
<path d="m839.4 813.58v33.808q0 2.4 2.4 2.4h7.7425q2.4 0 2.4-2.4v-33.808q0-2.4-2.4-2.4h-7.7425q-2.4 0-2.4 2.4z" clip-path="url(#a)" fill="#fff" stroke="#fff"/>
<g clip-path="url(#a)">
<g transform="translate(843.47 813.58) rotate(90) scale(.08 -.08)">
<use xlink:href="#f"/>
<use x="44.083984" xlink:href="#l"/>
<use x="105.607422" xlink:href="#g"/>
<use x="144.970703" xlink:href="#i"/>
<use x="242.382812" xlink:href="#k"/>
<use x="270.166016" xlink:href="#h"/>
<use x="333.544922" xlink:href="#e"/>
<use x="394.824219" xlink:href="#j"/>
</g>
</g>
<path d="m780.18 813.58v33.808q0 2.4 2.4 2.4h7.7425q2.4 0 2.4-2.4v-33.808q0-2.4-2.4-2.4h-7.7425q-2.4 0-2.4 2.4z" clip-path="url(#a)" fill="#fff" stroke="#fff"/>
<g clip-path="url(#a)">
<g transform="translate(784.24 813.58) rotate(90) scale(.08 -.08)">
<use xlink:href="#f"/>
<use x="44.083984" xlink:href="#l"/>
<use x="105.607422" xlink:href="#g"/>
<use x="144.970703" xlink:href="#i"/>
<use x="242.382812" xlink:href="#k"/>
<use x="270.166016" xlink:href="#h"/>
<use x="333.544922" xlink:href="#e"/>
<use x="394.824219" xlink:href="#j"/>
</g>
</g>
<path d="m431.96 813.58v33.808q0 2.4 2.4 2.4h7.7425q2.4 0 2.4-2.4v-33.808q0-2.4-2.4-2.4h-7.7425q-2.4 0-2.4 2.4z" clip-path="url(#a)" fill="#fff" stroke="#fff"/>
<g clip-path="url(#a)">
<g transform="translate(436.03 813.58) rotate(90) scale(.08 -.08)">
<use xlink:href="#f"/>
<use x="44.083984" xlink:href="#l"/>
<use x="105.607422" xlink:href="#g"/>
<use x="144.970703" xlink:href="#i"/>
<use x="242.382812" xlink:href="#k"/>
<use x="270.166016" xlink:href="#h"/>
<use x="333.544922" xlink:href="#e"/>
<use x="394.824219" xlink:href="#j"/>
</g>
</g>
<path d="m474.6 813.58v33.808q0 2.4 2.4 2.4h7.7425q2.4 0 2.4-2.4v-33.808q0-2.4-2.4-2.4h-7.7425q-2.4 0-2.4 2.4z" clip-path="url(#a)" fill="#fff" stroke="#fff"/>
<g clip-path="url(#a)">
<g transform="translate(478.67 813.58) rotate(90) scale(.08 -.08)">
<use xlink:href="#f"/>
<use x="44.083984" xlink:href="#l"/>
<use x="105.607422" xlink:href="#g"/>
<use x="144.970703" xlink:href="#i"/>
<use x="242.382812" xlink:href="#k"/>
<use x="270.166016" xlink:href="#h"/>
<use x="333.544922" xlink:href="#e"/>
<use x="394.824219" xlink:href="#j"/>
</g>
</g>
<path d="m519.61 813.58v33.808q0 2.4 2.4 2.4h7.7425q2.4 0 2.4-2.4v-33.808q0-2.4-2.4-2.4h-7.7425q-2.4 0-2.4 2.4z" clip-path="url(#a)" fill="#fff" stroke="#fff"/>
<g clip-path="url(#a)">
<g transform="translate(523.67 813.58) rotate(90) scale(.08 -.08)">
<use xlink:href="#f"/>
<use x="44.083984" xlink:href="#l"/>
<use x="105.607422" xlink:href="#g"/>
<use x="144.970703" xlink:href="#i"/>
<use x="242.382812" xlink:href="#k"/>
<use x="270.166016" xlink:href="#h"/>
<use x="333.544922" xlink:href="#e"/>
<use x="394.824219" xlink:href="#j"/>
</g>
</g>
<path d="m591.51 661.17 0.78595-5.5029q0.33934-2.3759-2.0366-2.7152l-7.6647-1.0947q-2.3759-0.33934-2.7152 2.0366l-0.78595 5.5029q-0.33934 2.3759 2.0366 2.7152l7.6647 1.0947q2.3759 0.33934 2.7152-2.0366z" clip-path="url(#a)" fill="#fff" stroke="#fff"/>
<g clip-path="url(#a)">
<g transform="translate(587.49 660.59) rotate(-81.872) scale(.08 -.08)">
<use xlink:href="#ah"/>
</g>
</g>
<path d="m603.96 655.65 0.78984 5.5301q0.33934 2.3759 2.7152 2.0366l7.6647-1.0947q2.3759-0.33934 2.0366-2.7152l-0.78984-5.5301q-0.33934-2.3759-2.7152-2.0366l-7.6647 1.0947q-2.3759 0.33934-2.0366 2.7152z" clip-path="url(#a)" fill="#fff" stroke="#fff"/>
<g clip-path="url(#a)">
<g transform="translate(607.99 655.08) rotate(81.872) scale(.08 -.08)">
<use xlink:href="#ae"/>
</g>
</g>
<path d="m566.99 813.58v33.808q0 2.4 2.4 2.4h7.7425q2.4 0 2.4-2.4v-33.808q0-2.4-2.4-2.4h-7.7425q-2.4 0-2.4 2.4z" clip-path="url(#a)" fill="#fff" stroke="#fff"/>
<g clip-path="url(#a)">
<g transform="translate(571.05 813.58) rotate(90) scale(.08 -.08)">
<use xlink:href="#f"/>
<use x="44.083984" xlink:href="#l"/>
<use x="105.607422" xlink:href="#g"/>
<use x="144.970703" xlink:href="#i"/>
<use x="242.382812" xlink:href="#k"/>
<use x="270.166016" xlink:href="#h"/>
<use x="333.544922" xlink:href="#e"/>
<use x="394.824219" xlink:href="#j"/>
</g>
</g>
<path d="m616.73 813.58v33.808q0 2.4 2.4 2.4h7.7425q2.4 0 2.4-2.4v-33.808q0-2.4-2.4-2.4h-7.7425q-2.4 0-2.4 2.4z" clip-path="url(#a)" fill="#fff" stroke="#fff"/>
<g clip-path="url(#a)">
<g transform="translate(620.8 813.58) rotate(90) scale(.08 -.08)">
<use xlink:href="#f"/>
<use x="44.083984" xlink:href="#l"/>
<use x="105.607422" xlink:href="#g"/>
<use x="144.970703" xlink:href="#i"/>
<use x="242.382812" xlink:href="#k"/>
<use x="270.166016" xlink:href="#h"/>
<use x="333.544922" xlink:href="#e"/>
<use x="394.824219" xlink:href="#j"/>
</g>
</g>
<path d="m353.79 813.58v33.808q0 2.4 2.4 2.4h7.7425q2.4 0 2.4-2.4v-33.808q0-2.4-2.4-2.4h-7.7425q-2.4 0-2.4 2.4z" clip-path="url(#a)" fill="#fff" stroke="#fff"/>
<g clip-path="url(#a)">
<g transform="translate(357.85 813.58) rotate(90) scale(.08 -.08)">
<use xlink:href="#f"/>
<use x="44.083984" xlink:href="#l"/>
<use x="105.607422" xlink:href="#g"/>
<use x="144.970703" xlink:href="#i"/>
<use x="242.382812" xlink:href="#k"/>
<use x="270.166016" xlink:href="#h"/>
<use x="333.544922" xlink:href="#e"/>
<use x="394.824219" xlink:href="#j"/>
</g>
</g>
<path d="m391.69 813.58v33.808q0 2.4 2.4 2.4h7.7425q2.4 0 2.4-2.4v-33.808q0-2.4-2.4-2.4h-7.7425q-2.4 0-2.4 2.4z" clip-path="url(#a)" fill="#fff" stroke="#fff"/>
<g clip-path="url(#a)">
<g transform="translate(395.76 813.58) rotate(90) scale(.08 -.08)">
<use xlink:href="#f"/>
<use x="44.083984" xlink:href="#l"/>
<use x="105.607422" xlink:href="#g"/>
<use x="144.970703" xlink:href="#i"/>
<use x="242.382812" xlink:href="#k"/>
<use x="270.166016" xlink:href="#h"/>
<use x="333.544922" xlink:href="#e"/>
<use x="394.824219" xlink:href="#j"/>
</g>
</g>
<path d="m135.86 813.58v33.808q0 2.4 2.4 2.4h7.7425q2.4 0 2.4-2.4v-33.808q0-2.4-2.4-2.4h-7.7425q-2.4 0-2.4 2.4z" clip-path="url(#a)" fill="#fff" stroke="#fff"/>
<g clip-path="url(#a)">
<g transform="translate(139.92 813.58) rotate(90) scale(.08 -.08)">
<use xlink:href="#f"/>
<use x="44.083984" xlink:href="#l"/>
<use x="105.607422" xlink:href="#g"/>
<use x="144.970703" xlink:href="#i"/>
<use x="242.382812" xlink:href="#k"/>
<use x="270.166016" xlink:href="#h"/>
<use x="333.544922" xlink:href="#e"/>
<use x="394.824219" xlink:href="#j"/>
</g>
</g>
<path d="m154.81 813.58v33.808q0 2.4 2.4 2.4h7.7425q2.4 0 2.4-2.4v-33.808q0-2.4-2.4-2.4h-7.7425q-2.4 0-2.4 2.4z" clip-path="url(#a)" fill="#fff" stroke="#fff"/>
<g clip-path="url(#a)">
<g transform="translate(158.87 813.58) rotate(90) scale(.08 -.08)">
<use xlink:href="#f"/>
<use x="44.083984" xlink:href="#l"/>
<use x="105.607422" xlink:href="#g"/>
<use x="144.970703" xlink:href="#i"/>
<use x="242.382812" xlink:href="#k"/>
<use x="270.166016" xlink:href="#h"/>
<use x="333.544922" xlink:href="#e"/>
<use x="394.824219" xlink:href="#j"/>
</g>
</g>
<path d="m176.13 813.58v33.808q0 2.4 2.4 2.4h7.7425q2.4 0 2.4-2.4v-33.808q0-2.4-2.4-2.4h-7.7425q-2.4 0-2.4 2.4z" clip-path="url(#a)" fill="#fff" stroke="#fff"/>
<g clip-path="url(#a)">
<g transform="translate(180.19 813.58) rotate(90) scale(.08 -.08)">
<use xlink:href="#f"/>
<use x="44.083984" xlink:href="#l"/>
<use x="105.607422" xlink:href="#g"/>
<use x="144.970703" xlink:href="#i"/>
<use x="242.382812" xlink:href="#k"/>
<use x="270.166016" xlink:href="#h"/>
<use x="333.544922" xlink:href="#e"/>
<use x="394.824219" xlink:href="#j"/>
</g>
</g>
<path d="m218.65 660.77 0.41471-5.5433q0.17905-2.3933-2.2143-2.5724l-7.7209-0.57763q-2.3933-0.17905-2.5724 2.2143l-0.41471 5.5433q-0.17905 2.3933 2.2143 2.5724l7.7209 0.57763q2.3933 0.17905 2.5724-2.2143z" clip-path="url(#a)" fill="#fff" stroke="#fff"/>
<g clip-path="url(#a)">
<g transform="translate(214.6 660.47) rotate(-85.721) scale(.08 -.08)">
<use xlink:href="#ah"/>
</g>
</g>
<path d="m219.17 655.21 0.41676 5.5707q0.17905 2.3933 2.5724 2.2143l7.7209-0.57763q2.3933-0.17905 2.2143-2.5724l-0.41676-5.5707q-0.17905-2.3933-2.5724-2.2143l-7.7209 0.57763q-2.3933 0.17905-2.2143 2.5724z" clip-path="url(#a)" fill="#fff" stroke="#fff"/>
<g clip-path="url(#a)">
<g transform="translate(223.22 654.91) rotate(85.721) scale(.08 -.08)">
<use xlink:href="#ae"/>
</g>
</g>
<path d="m199.82 813.58v33.808q0 2.4 2.4 2.4h7.7425q2.4 0 2.4-2.4v-33.808q0-2.4-2.4-2.4h-7.7425q-2.4 0-2.4 2.4z" clip-path="url(#a)" fill="#fff" stroke="#fff"/>
<g clip-path="url(#a)">
<g transform="translate(203.88 813.58) rotate(90) scale(.08 -.08)">
<use xlink:href="#f"/>
<use x="44.083984" xlink:href="#l"/>
<use x="105.607422" xlink:href="#g"/>
<use x="144.970703" xlink:href="#i"/>
<use x="242.382812" xlink:href="#k"/>
<use x="270.166016" xlink:href="#h"/>
<use x="333.544922" xlink:href="#e"/>
<use x="394.824219" xlink:href="#j"/>
</g>
</g>
<path d="m225.87 813.58v33.808q0 2.4 2.4 2.4h7.7425q2.4 0 2.4-2.4v-33.808q0-2.4-2.4-2.4h-7.7425q-2.4 0-2.4 2.4z" clip-path="url(#a)" fill="#fff" stroke="#fff"/>
<g clip-path="url(#a)">
<g transform="translate(229.94 813.58) rotate(90) scale(.08 -.08)">
<use xlink:href="#f"/>
<use x="44.083984" xlink:href="#l"/>
<use x="105.607422" xlink:href="#g"/>
<use x="144.970703" xlink:href="#i"/>
<use x="242.382812" xlink:href="#k"/>
<use x="270.166016" xlink:href="#h"/>
<use x="333.544922" xlink:href="#e"/>
<use x="394.824219" xlink:href="#j"/>
</g>
</g>
<path d="m76.638 813.58v33.808q0 2.4 2.4 2.4h7.7425q2.4 0 2.4-2.4v-33.808q0-2.4-2.4-2.4h-7.7425q-2.4 0-2.4 2.4z" clip-path="url(#a)" fill="#fff" stroke="#fff"/>
<g clip-path="url(#a)">
<g transform="translate(80.702 813.58) rotate(90) scale(.08 -.08)">
<use xlink:href="#f"/>
<use x="44.083984" xlink:href="#l"/>
<use x="105.607422" xlink:href="#g"/>
<use x="144.970703" xlink:href="#i"/>
<use x="242.382812" xlink:href="#k"/>
<use x="270.166016" xlink:href="#h"/>
<use x="333.544922" xlink:href="#e"/>
<use x="394.824219" xlink:href="#j"/>
</g>
</g>
<path d="m98.578 660.48 0.15117-5.5567q0.065267-2.3991-2.3338-2.4644l-7.7396-0.21056q-2.3991-0.065267-2.4644 2.3338l-0.15117 5.5567q-0.065268 2.3991 2.3338 2.4644l7.7396 0.21056q2.3991 0.065267 2.4644-2.3338z" clip-path="url(#a)" fill="#fff" stroke="#fff"/>
<g clip-path="url(#a)">
<g transform="translate(94.516 660.37) rotate(-88.442) scale(.08 -.08)">
<use xlink:href="#ah"/>
</g>
</g>
<path d="m90.777 654.91 0.15192 5.5842q0.065267 2.3991 2.4644 2.3338l7.7396-0.21056q2.3991-0.065268 2.3338-2.4644l-0.15192-5.5842q-0.065267-2.3991-2.4644-2.3338l-7.7396 0.21056q-2.3991 0.065268-2.3338 2.4644z" clip-path="url(#a)" fill="#fff" stroke="#fff"/>
<g clip-path="url(#a)">
<g transform="translate(94.839 654.8) rotate(88.442) scale(.08 -.08)">
<use xlink:href="#ae"/>
</g>
</g>
<path d="m105.06 813.58v33.808q0 2.4 2.4 2.4h7.7425q2.4 0 2.4-2.4v-33.808q0-2.4-2.4-2.4h-7.7425q-2.4 0-2.4 2.4z" clip-path="url(#a)" fill="#fff" stroke="#fff"/>
<g clip-path="url(#a)">
<g transform="translate(109.13 813.58) rotate(90) scale(.08 -.08)">
<use xlink:href="#f"/>
<use x="44.083984" xlink:href="#l"/>
<use x="105.607422" xlink:href="#g"/>
<use x="144.970703" xlink:href="#i"/>
<use x="242.382812" xlink:href="#k"/>
<use x="270.166016" xlink:href="#h"/>
<use x="333.544922" xlink:href="#e"/>
<use x="394.824219" xlink:href="#j"/>
</g>
</g>
<path d="m119.28 813.58v33.808q0 2.4 2.4 2.4h7.7425q2.4 0 2.4-2.4v-33.808q0-2.4-2.4-2.4h-7.7425q-2.4 0-2.4 2.4z" clip-path="url(#a)" fill="#fff" stroke="#fff"/>
<g clip-path="url(#a)">
<g transform="translate(123.34 813.58) rotate(90) scale(.08 -.08)">
<use xlink:href="#f"/>
<use x="44.083984" xlink:href="#l"/>
<use x="105.607422" xlink:href="#g"/>
<use x="144.970703" xlink:href="#i"/>
<use x="242.382812" xlink:href="#k"/>
<use x="270.166016" xlink:href="#h"/>
<use x="333.544922" xlink:href="#e"/>
<use x="394.824219" xlink:href="#j"/>
</g>
</g>
<path d="m83.744 813.58v33.808q0 2.4 2.4 2.4h7.7425q2.4 0 2.4-2.4v-33.808q0-2.4-2.4-2.4h-7.7425q-2.4 0-2.4 2.4z" clip-path="url(#a)" fill="#fff" stroke="#fff"/>
<g clip-path="url(#a)">
<g transform="translate(87.808 813.58) rotate(90) scale(.08 -.08)">
<use xlink:href="#f"/>
<use x="44.083984" xlink:href="#l"/>
<use x="105.607422" xlink:href="#g"/>
<use x="144.970703" xlink:href="#i"/>
<use x="242.382812" xlink:href="#k"/>
<use x="270.166016" xlink:href="#h"/>
<use x="333.544922" xlink:href="#e"/>
<use x="394.824219" xlink:href="#j"/>
</g>
</g>
<path d="m93.22 813.58v33.808q0 2.4 2.4 2.4h7.7425q2.4 0 2.4-2.4v-33.808q0-2.4-2.4-2.4h-7.7425q-2.4 0-2.4 2.4z" clip-path="url(#a)" fill="#fff" stroke="#fff"/>
<g clip-path="url(#a)">
<g transform="translate(97.283 813.58) rotate(90) scale(.08 -.08)">
<use xlink:href="#f"/>
<use x="44.083984" xlink:href="#l"/>
<use x="105.607422" xlink:href="#g"/>
<use x="144.970703" xlink:href="#i"/>
<use x="242.382812" xlink:href="#k"/>
<use x="270.166016" xlink:href="#h"/>
<use x="333.544922" xlink:href="#e"/>
<use x="394.824219" xlink:href="#j"/>
</g>
</g>
<path d="m254.3 813.58v33.808q0 2.4 2.4 2.4h7.7425q2.4 0 2.4-2.4v-33.808q0-2.4-2.4-2.4h-7.7425q-2.4 0-2.4 2.4z" clip-path="url(#a)" fill="#fff" stroke="#fff"/>
<g clip-path="url(#a)">
<g transform="translate(258.36 813.58) rotate(90) scale(.08 -.08)">
<use xlink:href="#f"/>
<use x="44.083984" xlink:href="#l"/>
<use x="105.607422" xlink:href="#g"/>
<use x="144.970703" xlink:href="#i"/>
<use x="242.382812" xlink:href="#k"/>
<use x="270.166016" xlink:href="#h"/>
<use x="333.544922" xlink:href="#e"/>
<use x="394.824219" xlink:href="#j"/>
</g>
</g>
<path d="m668.85 813.58v33.808q0 2.4 2.4 2.4h7.7425q2.4 0 2.4-2.4v-33.808q0-2.4-2.4-2.4h-7.7425q-2.4 0-2.4 2.4z" clip-path="url(#a)" fill="#fff" stroke="#fff"/>
<g clip-path="url(#a)">
<g transform="translate(672.91 813.58) rotate(90) scale(.08 -.08)">
<use xlink:href="#f"/>
<use x="44.083984" xlink:href="#l"/>
<use x="105.607422" xlink:href="#g"/>
<use x="144.970703" xlink:href="#i"/>
<use x="242.382812" xlink:href="#k"/>
<use x="270.166016" xlink:href="#h"/>
<use x="333.544922" xlink:href="#e"/>
<use x="394.824219" xlink:href="#j"/>
</g>
</g>
<path d="m900.99 813.58v33.808q0 2.4 2.4 2.4h7.7425q2.4 0 2.4-2.4v-33.808q0-2.4-2.4-2.4h-7.7425q-2.4 0-2.4 2.4z" clip-path="url(#a)" fill="#fff" stroke="#fff"/>
<g clip-path="url(#a)">
<g transform="translate(905.05 813.58) rotate(90) scale(.08 -.08)">
<use xlink:href="#f"/>
<use x="44.083984" xlink:href="#l"/>
<use x="105.607422" xlink:href="#g"/>
<use x="144.970703" xlink:href="#i"/>
<use x="242.382812" xlink:href="#k"/>
<use x="270.166016" xlink:href="#h"/>
<use x="333.544922" xlink:href="#e"/>
<use x="394.824219" xlink:href="#j"/>
</g>
</g>
<path d="m1734.8 813.58v33.808q0 2.4 2.4 2.4h7.7425q2.4 0 2.4-2.4v-33.808q0-2.4-2.4-2.4h-7.7425q-2.4 0-2.4 2.4z" clip-path="url(#a)" fill="#fff" stroke="#fff"/>
<g clip-path="url(#a)">
<g transform="translate(1738.9 813.58) rotate(90) scale(.08 -.08)">
<use xlink:href="#f"/>
<use x="44.083984" xlink:href="#l"/>
<use x="105.607422" xlink:href="#g"/>
<use x="144.970703" xlink:href="#i"/>
<use x="242.382812" xlink:href="#k"/>
<use x="270.166016" xlink:href="#h"/>
<use x="333.544922" xlink:href="#e"/>
<use x="394.824219" xlink:href="#j"/>
</g>
</g>
<defs>
<path id="b" d="m0 8.6603c2.2967 0 4.4997-0.9125 6.1237-2.5365 1.624-1.624 2.5365-3.827 2.5365-6.1237s-0.9125-4.4997-2.5365-6.1237c-1.624-1.624-3.827-2.5365-6.1237-2.5365s-4.4997 0.9125-6.1237 2.5365c-1.624 1.624-2.5365 3.827-2.5365 6.1237s0.9125 4.4997 2.5365 6.1237c1.624 1.624 3.827 2.5365 6.1237 2.5365z"/>
</defs>
<g clip-path="url(#a)" fill="#ffffff" stroke="#ffffff">
<use x="82.909091" y="916.363636" xlink:href="#b"/>
<use x="90.015584" y="916.363636" xlink:href="#b"/>
<use x="99.490909" y="916.363636" xlink:href="#b"/>
<use x="111.335065" y="916.363636" xlink:href="#b"/>
<use x="125.548052" y="916.363636" xlink:href="#b"/>
<use x="142.12987" y="916.363636" xlink:href="#b"/>
<use x="161.080519" y="916.363636" xlink:href="#b"/>
<use x="182.4" y="916.363636" xlink:href="#b"/>
<use x="206.088312" y="916.363636" xlink:href="#b"/>
<use x="232.145455" y="916.363636" xlink:href="#b"/>
<use x="260.571429" y="916.363636" xlink:href="#b"/>
<use x="291.366234" y="916.363636" xlink:href="#b"/>
<use x="324.52987" y="916.363636" xlink:href="#b"/>
<use x="360.062338" y="916.363636" xlink:href="#b"/>
<use x="397.963636" y="916.363636" xlink:href="#b"/>
<use x="438.233766" y="916.363636" xlink:href="#b"/>
<use x="480.872727" y="916.363636" xlink:href="#b"/>
<use x="525.880519" y="916.363636" xlink:href="#b"/>
<use x="573.257143" y="916.363636" xlink:href="#b"/>
<use x="623.002597" y="916.363636" xlink:href="#b"/>
<use x="675.116883" y="916.363636" xlink:href="#b"/>
<use x="729.6" y="916.363636" xlink:href="#b"/>
<use x="786.451948" y="916.363636" xlink:href="#b"/>
<use x="845.672727" y="916.363636" xlink:href="#b"/>
<use x="907.262338" y="916.363636" xlink:href="#b"/>
<use x="971.220779" y="916.363636" xlink:href="#b"/>
<use x="1037.548052" y="916.363636" xlink:href="#b"/>
<use x="1106.244156" y="916.363636" xlink:href="#b"/>
<use x="1177.309091" y="916.363636" xlink:href="#b"/>
<use x="1250.742857" y="916.363636" xlink:href="#b"/>
<use x="1326.545455" y="916.363636" xlink:href="#b"/>
<use x="1404.716883" y="916.363636" xlink:href="#b"/>
<use x="1485.257143" y="916.363636" xlink:href="#b"/>
<use x="1568.166234" y="916.363636" xlink:href="#b"/>
<use x="1653.444156" y="916.363636" xlink:href="#b"/>
<use x="1741.090909" y="916.363636" xlink:href="#b"/>
<use x="557.903776" y="43.636364" xlink:href="#b"/>
<use x="111.335065" y="395.395321" xlink:href="#b"/>
<use x="176.181818" y="395.395321" xlink:href="#b"/>
<use x="291.366234" y="744.604897" xlink:href="#b"/>
<use x="324.52987" y="744.604897" xlink:href="#b"/>
<use x="379.012987" y="570.456805" xlink:href="#b"/>
<use x="510.779221" y="395.395321" xlink:href="#b"/>
<use x="729.6" y="744.604897" xlink:href="#b"/>
<use x="678.374026" y="219.738029" xlink:href="#b"/>
<use x="971.220779" y="744.604897" xlink:href="#b"/>
<use x="1237.398442" y="219.738029" xlink:href="#b"/>
<use x="1204.550649" y="395.395321" xlink:href="#b"/>
<use x="1404.716883" y="744.604897" xlink:href="#b"/>
<use x="1485.257143" y="744.604897" xlink:href="#b"/>
<use x="1654.233766" y="570.456805" xlink:href="#b"/>
<use x="1568.166234" y="744.604897" xlink:href="#b"/>
<use x="1653.444156" y="744.604897" xlink:href="#b"/>
<use x="1037.548052" y="744.604897" xlink:href="#b"/>
<use x="1203.366234" y="570.456805" xlink:href="#b"/>
<use x="1250.742857" y="744.604897" xlink:href="#b"/>
<use x="1326.545455" y="744.604897" xlink:href="#b"/>
<use x="1106.244156" y="744.604897" xlink:href="#b"/>
<use x="1177.309091" y="744.604897" xlink:href="#b"/>
<use x="830.867532" y="395.395321" xlink:href="#b"/>
<use x="816.062338" y="570.456805" xlink:href="#b"/>
<use x="845.672727" y="744.604897" xlink:href="#b"/>
<use x="786.451948" y="744.604897" xlink:href="#b"/>
<use x="438.233766" y="744.604897" xlink:href="#b"/>
<use x="480.872727" y="744.604897" xlink:href="#b"/>
<use x="525.880519" y="744.604897" xlink:href="#b"/>
<use x="598.12987" y="570.456805" xlink:href="#b"/>
<use x="573.257143" y="744.604897" xlink:href="#b"/>
<use x="623.002597" y="744.604897" xlink:href="#b"/>
<use x="360.062338" y="744.604897" xlink:href="#b"/>
<use x="397.963636" y="744.604897" xlink:href="#b"/>
<use x="142.12987" y="744.604897" xlink:href="#b"/>
<use x="161.080519" y="744.604897" xlink:href="#b"/>
<use x="182.4" y="744.604897" xlink:href="#b"/>
<use x="219.116883" y="570.456805" xlink:href="#b"/>
<use x="206.088312" y="744.604897" xlink:href="#b"/>
<use x="232.145455" y="744.604897" xlink:href="#b"/>
<use x="82.909091" y="744.604897" xlink:href="#b"/>
<use x="94.753247" y="570.456805" xlink:href="#b"/>
<use x="111.335065" y="744.604897" xlink:href="#b"/>
<use x="125.548052" y="744.604897" xlink:href="#b"/>
<use x="90.015584" y="744.604897" xlink:href="#b"/>
<use x="99.490909" y="744.604897" xlink:href="#b"/>
<use x="260.571429" y="744.604897" xlink:href="#b"/>
<use x="675.116883" y="744.604897" xlink:href="#b"/>
<use x="907.262338" y="744.604897" xlink:href="#b"/>
<use x="1741.090909" y="744.604897" xlink:href="#b"/>
</g>
<g clip-path="url(#a)">
<g transform="translate(52.181 919.12) scale(.1 -.1)">
<defs>
<path id="bh" d="m9.8125 72.906h9.8594v-29.891h35.844v29.891h9.8594v-72.906h-9.8594v34.719h-35.844v-34.719h-9.8594z"/>
<path id="t" d="m34.281 27.484q-10.891 0-15.094-2.4844t-4.2031-8.5q0-4.7812 3.1562-7.5938 3.1562-2.7969 8.5625-2.7969 7.4844 0 12 5.2969t4.5156 14.078v2zm17.922 3.7188v-31.203h-8.9844v8.2969q-3.0781-4.9688-7.6719-7.3438t-11.234-2.375q-8.3906 0-13.359 4.7188-4.9531 4.7188-4.9531 12.625 0 9.2188 6.1719 13.906 6.1875 4.6875 18.438 4.6875h12.609v0.89062q0 6.2031-4.0781 9.5938t-11.453 3.3906q-4.6875 0-9.1406-1.125-4.4375-1.125-8.5312-3.375v8.3125q4.9219 1.9062 9.5625 2.8438 4.6406 0.95312 9.0312 0.95312 11.875 0 17.734-6.1562 5.8594-6.1406 5.8594-18.641z"/>
<path id="ay" d="m82.422 0h-73.344v54.688h9.0312v-47.516h23.109v47.516h9.0312v-47.516h23.141v47.516h9.0312v-47.516h7.1719v-20.984h-7.1719z"/>
<path id="af" d="m32.172-5.0781q-3.7969-9.7656-7.4219-12.734-3.6094-2.9844-9.6562-2.9844h-7.1875v7.5156h5.2812q3.7031 0 5.75 1.7656 2.0625 1.75 4.5469 8.2969l1.6094 4.0938-22.109 53.812h9.5156l17.094-42.766 17.094 42.766h9.5156z"/>
<path id="ao" d="m56.297 54.688v-54.688h-9.0312v47.516h-29.156v-47.516h-9.0312v54.688z"/>
<path id="ar" d="m61.047 54.688h8.9844v-54.688h-8.9844zm4.5 1.3125m-22.094-39.781q0 4.3906-3.2031 6.6875-3.1875 2.2969-9.3438 2.2969h-12.797v-18.031h12.797q6.1562 0 9.3438 2.3125 3.2031 2.3281 3.2031 6.7344zm-34.375 38.469h9.0312v-22.312h13.188q10.453 0 16.094-3.9844 5.6406-3.9688 5.6406-12.172t-5.6406-12.219q-5.6406-4-16.094-4h-22.219z"/>
<path id="aa" d="m18.062 25.203v-18.031h12.797q6.1562 0 9.375 2.3125 3.2188 2.3281 3.2188 6.7344 0 4.3906-3.2188 6.6875t-9.375 2.2969zm0 22.312v-15.141h11.828q5.0781 0 8.2969 2.0156 3.2188 2.0312 3.2188 5.6562 0 3.6094-3.2188 5.5312-3.2188 1.9375-8.2969 1.9375zm-8.9844 7.1719h21.391q9.625 0 14.797-3.5156t5.1719-10.016q0-5.0156-2.6406-7.9844-2.625-2.9531-7.8125-3.6719 6.2031-1.1719 9.625-4.8906 3.4219-3.7031 3.4219-9.2812 0-7.3125-5.6406-11.328-5.6406-4-16.094-4h-22.219z"/>
<path id="aw" d="m18.453 38.922q0-4.0625 3.125-6.3594 3.125-2.2812 8.9375-2.2812h12.109v17.234h-12.109q-5.8125 0-8.9375-2.25t-3.125-6.3438zm-12.781-38.922 16.688 23.969q-5.6562 1.2812-9.4219 4.625-3.75 3.3438-3.75 10.328 0 7.9062 5.2344 11.828 5.25 3.9375 15.859 3.9375h21.375v-54.688h-9.0312v23.094h-11.172l-16.125-23.094z"/>
</defs>
<use xlink:href="#bh"/>
<use x="75.195312" xlink:href="#t"/>
<use x="136.474609" xlink:href="#ay"/>
<use x="230.664062" xlink:href="#af"/>
<use x="289.84375" xlink:href="#ao"/>
<use x="355.224609" xlink:href="#ar"/>
<use x="434.179688" xlink:href="#aa"/>
<use x="493.115234" xlink:href="#t"/>
<use x="554.394531" xlink:href="#aw"/>
</g>
</g>
<g clip-path="url(#a)">
<g transform="translate(87.069 919.12) scale(.1 -.1)">
<use xlink:href="#aa"/>
</g>
</g>
<g clip-path="url(#a)">
<g transform="translate(77.051 919.12) scale(.1 -.1)">
<defs>
<path id="z" d="m9.0781 54.688h8.9375v-25.688l25.344 25.688h11.031l-20.891-21.141 23.578-33.547h-10.062l-19.375 27.594-9.625-9.7656v-17.828h-8.9375z"/>
<path id="v" d="m18.109 8.2031v-29h-9.0312v75.484h9.0312v-8.2969q2.8438 4.875 7.1562 7.2344 4.3281 2.375 10.328 2.375 9.9688 0 16.188-7.9062 6.2344-7.9062 6.2344-20.797t-6.2344-20.812q-6.2188-7.9062-16.188-7.9062-6 0-10.328 2.375-4.3125 2.375-7.1562 7.25zm30.578 19.094q0 9.9062-4.0781 15.547t-11.203 5.6406q-7.1406 0-11.219-5.6406t-4.0781-15.547 4.0781-15.547 11.219-5.6406q7.125 0 11.203 5.6406t4.0781 15.547z"/>
<path id="w" d="m9.0781 54.688h13.141l15.531-36.625 15.578 36.625h13.031v-54.688h-9.0312v46.094l-15.094-35.594h-8.9844l-15.141 35.594v-46.094h-9.0312z"/>
<path id="ab" d="m9.0781 54.688h9.0312v-22.312h29.156v22.312h9.0312v-54.688h-9.0312v25.203h-29.156v-25.203h-9.0312z"/>
<path id="m" d="m56.203 29.594v-4.3906h-41.312q0.59375-9.2812 5.5938-14.141t13.938-4.8594q5.1719 0 10.031 1.2656t9.6562 3.8125v-8.5q-4.8438-2.0469-9.9219-3.125t-10.297-1.0781q-13.094 0-20.734 7.6094-7.6406 7.625-7.6406 20.625 0 13.422 7.25 21.297 7.25 7.8906 19.562 7.8906 11.031 0 17.453-7.1094 6.4219-7.0938 6.4219-19.297zm-8.9844 2.6406q-0.09375 7.3594-4.125 11.75-4.0312 4.4062-10.672 4.4062-7.5156 0-12.031-4.25t-5.2031-11.969z"/>
</defs>
<use xlink:href="#z"/>
<use x="60.400391" xlink:href="#t"/>
<use x="121.679688" xlink:href="#v"/>
<use x="185.15625" xlink:href="#w"/>
<use x="260.595703" xlink:href="#t"/>
<use x="321.875" xlink:href="#ab"/>
<use x="387.255859" xlink:href="#m"/>
</g>
</g>
<g clip-path="url(#a)">
<g transform="translate(83.737 919.12) scale(.1 -.1)">
<defs>
<path id="q" d="m30.609 48.391q-7.2188 0-11.422-5.6406t-4.2031-15.453 4.1719-15.453q4.1875-5.6406 11.453-5.6406 7.1875 0 11.375 5.6562 4.2031 5.6719 4.2031 15.438 0 9.7188-4.2031 15.406-4.1875 5.6875-11.375 5.6875zm0 7.6094q11.719 0 18.406-7.625 6.7031-7.6094 6.7031-21.078 0-13.422-6.7031-21.078-6.6875-7.6406-18.406-7.6406-11.766 0-18.438 7.6406-6.6562 7.6562-6.6562 21.078 0 13.469 6.6562 21.078 6.6719 7.625 18.438 7.625z"/>
<path id="x" d="m3.7188 0v7.4688q8.875 1.375 11.609 7.5156 3.3281 8.6562 3.3281 30.766v8.9375h36.953v-54.688h-8.9844v47.516h-18.984v-5.4219q0-21.094-4.2969-30.562-4.5938-10.109-19.625-11.531z"/>
<path id="ax" d="m43.453 16.219q0 4.3906-3.2031 6.6875-3.1875 2.2969-9.3438 2.2969h-12.797v-18.031h12.797q6.1562 0 9.3438 2.3125 3.2031 2.3281 3.2031 6.7344zm-34.375 38.469h9.0312v-22.312h13.188q10.453 0 16.094-3.9844 5.6406-3.9688 5.6406-12.172t-5.6406-12.219q-5.6406-4-16.094-4h-22.219z"/>
</defs>
<use xlink:href="#v"/>
<use x="63.476562" xlink:href="#m"/>
<use x="125" xlink:href="#aa"/>
<use x="183.935547" xlink:href="#q"/>
<use x="245.117188" xlink:href="#x"/>
<use x="309.033203" xlink:href="#ax"/>
<use x="367.96875" xlink:href="#aa"/>
<use x="426.904297" xlink:href="#m"/>
<use x="488.427734" xlink:href="#v"/>
</g>
</g>
<g clip-path="url(#a)">
<g transform="translate(123.96 919.12) scale(.1 -.1)">
<defs>
<path id="aq" d="m11.719 12.406h10.297v-8.4062l-8-15.625h-6.2969l4 15.625z"/>
</defs>
<use xlink:href="#aq"/>
</g>
</g>
<g clip-path="url(#a)">
<g transform="translate(139.12 919.12) scale(.1 -.1)">
<use xlink:href="#aw"/>
</g>
</g>
<g clip-path="url(#a)">
<g transform="translate(145.46 919.12) scale(.1 -.1)">
<defs>
<path id="bc" d="m31.109 56q11.719 0 18.406-7.625 6.6875-7.6094 6.6875-21.078 0-13.422-6.6875-21.078-6.6875-7.6406-18.406-7.6406-11.766 0-18.266 7.4219t-6.8438 21.297l-0.28125 11.188q-0.25 5.7969-0.25 7.8125 0 7.8125 2.8281 13.562 4.4531 9.0312 12.141 12.938t20.578 4.0156q5.9531 0.046875 8.5938 0.875l2.4844-7.125q-2.3906-0.98438-4.5781-1.0312l-12.219-0.82812q-6.1406-0.4375-9.8594-2.5938-9.7188-5.7031-10.641-13.172l-0.34375-2.7344q6.3438 5.7969 16.656 5.7969zm0-7.6094q-7.2344 0-11.438-5.6406-4.1875-5.6406-4.1875-15.453t4.1719-15.453 11.453-5.6406q7.1719 0 11.375 5.6562 4.2031 5.6719 4.2031 15.438 0 9.7188-4.2031 15.406t-11.375 5.6875z"/>
<path id="bb" d="m9.0781 0v54.688h38.578v-7.1719h-29.547v-47.516z"/>
</defs>
<use xlink:href="#bc"/>
<use x="61.669922" xlink:href="#m"/>
<use x="123.193359" xlink:href="#bb"/>
<use x="175.732422" xlink:href="#q"/>
<use x="236.914062" xlink:href="#w"/>
</g>
</g>
<g clip-path="url(#a)">
<g transform="translate(158.13 919.21) scale(.1 -.1)">
<defs>
<path id="u" d="m48.781 52.594v-8.4062q-3.8125 2.1094-7.6406 3.1562t-7.7344 1.0469q-8.75 0-13.594-5.5469-4.8281-5.5312-4.8281-15.547t4.8281-15.562q4.8438-5.5312 13.594-5.5312 3.9062 0 7.7344 1.0469t7.6406 3.1562v-8.3125q-3.7656-1.75-7.7969-2.625-4.0156-0.89062-8.5625-0.89062-12.359 0-19.641 7.7656-7.2656 7.7656-7.2656 20.953 0 13.375 7.3438 21.031 7.3594 7.6719 20.156 7.6719 4.1406 0 8.0938-0.85938 3.9531-0.84375 7.6719-2.5469z"/>
<path id="y" d="m55.906 54.688v-54.688h-8.9375v43.891l-26.359-43.891h-11.531v54.688h8.9375v-43.797l26.328 43.797z"/>
</defs>
<use xlink:href="#bc"/>
<use x="61.669922" xlink:href="#v"/>
<use x="125.146484" xlink:href="#q"/>
<use x="186.328125" xlink:href="#u"/>
<use x="241.308594" xlink:href="#y"/>
<use x="306.298828" xlink:href="#x"/>
<use x="370.214844" xlink:href="#u"/>
<use x="425.195312" xlink:href="#aw"/>
</g>
</g>
<g clip-path="url(#a)">
<g transform="translate(203.07 919.12) scale(.1 -.1)">
<use xlink:href="#z"/>
</g>
</g>
<g clip-path="url(#a)">
<g transform="translate(222.55 919.12) scale(.1 -.1)">
<defs>
<path id="at" d="m55.906 54.688v-54.688h-8.9375v43.891l-26.359-43.891h-11.531v54.688h8.9375v-43.797l26.328 43.797zm-38.688 20.828h5.7656q0.53125-3.6562 2.8906-5.5 2.375-1.8281 6.625-1.8281 4.2031 0 6.5469 1.8125t2.9688 5.5156h5.7656q-0.48438-6.9844-4.3438-10.5t-10.938-3.5156-10.938 3.5156-4.3438 10.5z"/>
</defs>
<use xlink:href="#ab"/>
<use x="65.380859" xlink:href="#m"/>
<use x="126.904297" xlink:href="#at"/>
</g>
</g>
<g clip-path="url(#a)">
<g transform="translate(258.98 919.12) scale(.1 -.1)">
<use xlink:href="#aq"/>
</g>
</g>
<g clip-path="url(#a)">
<g transform="translate(285.04 919.12) scale(.1 -.1)">
<use xlink:href="#ab"/>
<use x="65.380859" xlink:href="#q"/>
</g>
</g>
<g clip-path="url(#a)">
<g transform="translate(314.84 919.12) scale(.1 -.1)">
<use xlink:href="#ao"/>
<use x="65.380859" xlink:href="#v"/>
<use x="128.857422" xlink:href="#y"/>
</g>
</g>
<g clip-path="url(#a)">
<g transform="translate(345.4 919.12) scale(.1 -.1)">
<defs>
<path id="au" d="m34.469 29.5q6.0625-1.1719 9.4219-4.75 3.375-3.5625 3.375-8.8281 0-8.4531-6.2969-12.906-6.2969-4.4375-17.922-4.4375-3.9062 0-8.0312 0.6875t-8.5156 2.0469v8.3594q3.4688-1.8125 7.6094-2.7188 4.1562-0.89062 8.6875-0.89062 7.375 0 11.5 2.7344t4.125 7.125q0 4.2969-3.6562 6.9062t-10.344 2.6094h-7.2344v7.4219h7.5625q5.6719 0 8.9688 2.1719t3.2969 5.5938q0 3.125-3.4062 5.375-3.3906 2.25-9.1875 2.25-3.4688 0-7.4062-0.64062-3.9219-0.64062-8.6719-2.0469v8.1562q4.7969 1.1719 8.9375 1.75 4.1562 0.59375 7.8594 0.59375 9.5781 0 15.109-3.8438 5.5469-3.8281 5.5469-10.719 0-4.5312-2.9375-7.6875-2.9219-3.1406-8.3906-4.3125z"/>
</defs>
<use xlink:href="#au"/>
<use x="53.173828" xlink:href="#aa"/>
<use x="112.109375" xlink:href="#af"/>
<use x="171.289062" xlink:href="#z"/>
<use x="231.689453" xlink:href="#m"/>
</g>
</g>
<g clip-path="url(#a)">
<g transform="translate(381.69 919.12) scale(.1 -.1)">
<defs>
<path id="az" d="m50.25 7.1719h23.141v47.516h9.0312v-54.688h-73.344v54.688h9.0312v-47.516h23.109v47.516h9.0312z"/>
</defs>
<use xlink:href="#az"/>
<use x="91.503906" xlink:href="#t"/>
<use x="152.783203" xlink:href="#bb"/>
<use x="205.322266" xlink:href="#q"/>
<use x="266.503906" xlink:href="#aa"/>
</g>
</g>
<g clip-path="url(#a)">
<g transform="translate(419.39 919.12) scale(.1 -.1)">
<use xlink:href="#au"/>
<use x="53.173828" xlink:href="#w"/>
<use x="128.613281" xlink:href="#m"/>
<use x="190.136719" xlink:href="#at"/>
<use x="255.126953" xlink:href="#z"/>
<use x="315.527344" xlink:href="#t"/>
</g>
</g>
<g clip-path="url(#a)">
<g transform="translate(468.69 919.12) scale(.1 -.1)">
<defs>
<path id="as" d="m2.9375 54.688h52.391v-7.1719h-21.781v-47.516h-8.8438v47.516h-21.766z"/>
<path id="bf" d="m54.891 54.688-19.781-26.609 20.797-28.078h-10.594l-15.922 21.484-15.906-21.484h-10.609l21.25 28.609-19.438 26.078h10.594l14.5-19.484 14.5 19.484z"/>
</defs>
<use xlink:href="#as"/>
<use x="58.251953" xlink:href="#y"/>
<use x="123.242188" xlink:href="#bf"/>
<use x="182.421875" xlink:href="#q"/>
</g>
</g>
<g clip-path="url(#a)">
<g transform="translate(493.16 919.12) scale(.1 -.1)">
<use xlink:href="#au"/>
<use x="53.173828" xlink:href="#t"/>
<use x="114.453125" xlink:href="#u"/>
<use x="169.433594" xlink:href="#as"/>
<use x="227.685547" xlink:href="#v"/>
<use x="291.162109" xlink:href="#af"/>
<use x="350.341797" xlink:href="#y"/>
<use x="415.332031" xlink:href="#x"/>
<use x="479.248047" xlink:href="#t"/>
<use x="540.527344" xlink:href="#u"/>
<use x="595.507812" xlink:href="#ax"/>
</g>
</g>
<g clip-path="url(#a)">
<g transform="translate(566.93 919.12) scale(.1 -.1)">
<use xlink:href="#ao"/>
<use x="65.380859" xlink:href="#q"/>
</g>
</g>
<g clip-path="url(#a)">
<g transform="translate(607.93 919.12) scale(.1 -.1)">
<use xlink:href="#ao"/>
<use x="65.380859" xlink:href="#m"/>
<use x="126.904297" xlink:href="#u"/>
<use x="181.884766" xlink:href="#z"/>
<use x="242.285156" xlink:href="#af"/>
</g>
</g>
<g clip-path="url(#a)">
<g transform="translate(673.53 919.12) scale(.1 -.1)">
<use xlink:href="#aq"/>
</g>
</g>
<g clip-path="url(#a)">
<g transform="translate(711.32 919.12) scale(.1 -.1)">
<use xlink:href="#u"/>
<use x="54.980469" xlink:href="#x"/>
<use x="118.896484" xlink:href="#q"/>
<use x="180.078125" xlink:href="#aa"/>
<use x="239.013672" xlink:href="#ab"/>
<use x="304.394531" xlink:href="#q"/>
</g>
</g>
<g clip-path="url(#a)">
<g transform="translate(754.82 919.12) scale(.1 -.1)">
<defs>
<path id="be" d="m53.609 48.391q-7.2188 0-11.422-5.6406t-4.2031-15.453 4.1719-15.453q4.1875-5.6406 11.453-5.6406 7.1875 0 11.375 5.6562 4.2031 5.6719 4.2031 15.438 0 9.7188-4.2031 15.406-4.1875 5.6875-11.375 5.6875zm-24.797-15.531q0.92188 9.2812 7 16.203 6.0781 6.9375 17.797 6.9375t18.406-7.625q6.7031-7.6094 6.7031-21.078 0-13.422-6.7031-21.078-6.6875-7.6406-18.406-7.6406-11.766 0-18.188 7.375t-6.8594 19.484h-10.156v-25.438h-8.9844v54.688h8.9844v-21.828z"/>
</defs>
<use xlink:href="#af"/>
<use x="59.179688" xlink:href="#w"/>
<use x="134.619141" xlink:href="#y"/>
<use x="199.609375" xlink:href="#v"/>
<use x="263.085938" xlink:href="#t"/>
<use x="324.365234" xlink:href="#be"/>
<use x="408.544922" xlink:href="#ay"/>
<use x="502.734375" xlink:href="#y"/>
<use x="567.724609" xlink:href="#at"/>
</g>
</g>
<g clip-path="url(#a)">
<g transform="translate(827.41 919.12) scale(.1 -.1)">
<defs>
<path id="ba" d="m41.016 0v23h-16.75q-7.4688 0-12.453 4.6406-4.4844 4.2031-4.4844 13.188v13.859h8.9844v-13.031q0-5.7188 2.5312-8.5938 2.5938-2.8906 7.6719-2.8906h14.5v24.516h8.9844v-54.688z"/>
</defs>
<use xlink:href="#v"/>
<use x="63.476562" xlink:href="#af"/>
<use x="122.65625" xlink:href="#ba"/>
<use x="181.738281" xlink:href="#m"/>
<use x="243.261719" xlink:href="#m"/>
<use x="304.785156" xlink:href="#z"/>
</g>
</g>
<g clip-path="url(#a)">
<g transform="translate(905.67 919.12) scale(.1 -.1)">
<use xlink:href="#aq"/>
</g>
</g>
<g clip-path="url(#a)">
<g transform="translate(967.97 919.12) scale(.1 -.1)">
<use xlink:href="#y"/>
</g>
</g>
<g clip-path="url(#a)">
<g transform="translate(1034.8 919.12) scale(.1 -.1)">
<use xlink:href="#u"/>
</g>
</g>
<g clip-path="url(#a)">
<g transform="translate(1096.9 919.12) scale(.1 -.1)">
<use xlink:href="#m"/>
<use x="61.523438" xlink:href="#x"/>
<use x="125.439453" xlink:href="#m"/>
</g>
</g>
<g clip-path="url(#a)">
<g transform="translate(1151.9 919.12) scale(.1 -.1)">
<use xlink:href="#u"/>
<use x="54.980469" xlink:href="#x"/>
<use x="118.896484" xlink:href="#ar"/>
<use x="197.851562" xlink:href="#az"/>
<use x="289.355469" xlink:href="#ab"/>
<use x="354.736328" xlink:href="#ar"/>
<use x="433.691406" xlink:href="#w"/>
</g>
</g>
<g clip-path="url(#a)">
<g transform="translate(1209.5 919.12) scale(.1 -.1)">
<use xlink:href="#w"/>
<use x="75.439453" xlink:href="#m"/>
<use x="136.962891" xlink:href="#as"/>
<use x="195.214844" xlink:href="#t"/>
<use x="256.494141" xlink:href="#x"/>
<use x="320.410156" xlink:href="#x"/>
<use x="384.326172" xlink:href="#y"/>
<use x="449.316406" xlink:href="#ba"/>
<use x="508.398438" xlink:href="#m"/>
<use x="569.921875" xlink:href="#u"/>
<use x="624.902344" xlink:href="#z"/>
<use x="685.302734" xlink:href="#y"/>
<use x="750.292969" xlink:href="#w"/>
</g>
</g>
<g clip-path="url(#a)">
<g transform="translate(1307.8 919.12) scale(.1 -.1)">
<use xlink:href="#au"/>
<use x="53.173828" xlink:href="#aa"/>
<use x="112.109375" xlink:href="#q"/>
<use x="173.291016" xlink:href="#ab"/>
<use x="238.671875" xlink:href="#q"/>
<use x="299.853516" xlink:href="#w"/>
</g>
</g>
<g clip-path="url(#a)">
<g transform="translate(1370.4 919.12) scale(.1 -.1)">
<use xlink:href="#ab"/>
<use x="65.380859" xlink:href="#m"/>
<use x="126.904297" xlink:href="#as"/>
<use x="185.15625" xlink:href="#q"/>
<use x="246.337891" xlink:href="#v"/>
<use x="309.814453" xlink:href="#q"/>
<use x="370.996094" xlink:href="#ao"/>
<use x="436.376953" xlink:href="#x"/>
<use x="500.292969" xlink:href="#y"/>
<use x="565.283203" xlink:href="#aa"/>
<use x="624.21875" xlink:href="#q"/>
</g>
</g>
<g clip-path="url(#a)">
<g transform="translate(1460.4 919.12) scale(.1 -.1)">
<use xlink:href="#u"/>
<use x="54.980469" xlink:href="#z"/>
<use x="115.380859" xlink:href="#v"/>
<use x="178.857422" xlink:href="#ar"/>
<use x="257.8125" xlink:href="#x"/>
<use x="321.728516" xlink:href="#t"/>
<use x="383.007812" xlink:href="#u"/>
<use x="437.988281" xlink:href="#ax"/>
</g>
</g>
<g clip-path="url(#a)">
<g transform="translate(1556.8 919.12) scale(.1 -.1)">
<defs>
<path id="bg" d="m40.578 54.688h8.9375v-25.688l23.875 25.688h10.453l-19.641-21.047 22.469-33.641h-9.625l-18.406 27.641-9.125-9.8125v-17.828h-8.9375v17.828l-9.125 9.8125-18.422-27.641h-9.6094l22.453 33.641-19.625 21.047h10.453l23.875-25.688z"/>
</defs>
<use xlink:href="#w"/>
<use x="75.439453" xlink:href="#m"/>
<use x="136.962891" xlink:href="#bg"/>
</g>
</g>
<g clip-path="url(#a)">
<g transform="translate(1634 919.12) scale(.1 -.1)">
<use xlink:href="#z"/>
<use x="60.400391" xlink:href="#t"/>
<use x="121.679688" xlink:href="#w"/>
<use x="197.119141" xlink:href="#ab"/>
<use x="262.5" xlink:href="#m"/>
<use x="324.023438" xlink:href="#at"/>
</g>
</g>
<g clip-path="url(#a)">
<g transform="translate(1739.5 919.12) scale(.1 -.1)">
<defs>
<path id="d" d="m10.688 12.406h10.312v-12.406h-10.312z"/>
</defs>
<use xlink:href="#d"/>
</g>
</g>
<g clip-path="url(#a)">
<g transform="translate(549.95 46.396) scale(.1 -.1)">
<defs>
<path id="c" d="m12.406 8.2969h16.109v55.625l-17.531-3.5156v8.9844l17.438 3.5156h9.8594v-64.609h16.109v-8.2969h-41.984z"/>
</defs>
<use xlink:href="#c"/>
<use x="63.623047" xlink:href="#d"/>
<use x="95.410156" xlink:href="#c"/>
</g>
</g>
<g clip-path="url(#a)">
<g transform="translate(103.38 398.15) scale(.1 -.1)">
<defs>
<path id="p" d="m19.188 8.2969h34.422v-8.2969h-46.281v8.2969q5.6094 5.8125 15.297 15.594 9.7031 9.7969 12.188 12.641 4.7344 5.3125 6.6094 9 1.8906 3.6875 1.8906 7.25 0 5.8125-4.0781 9.4688-4.0781 3.6719-10.625 3.6719-4.6406 0-9.7969-1.6094-5.1406-1.6094-11-4.8906v9.9688q5.9531 2.3906 11.125 3.6094 5.1875 1.2188 9.4844 1.2188 11.328 0 18.062-5.6719 6.7344-5.6562 6.7344-15.125 0-4.5-1.6875-8.5312-1.6719-4.0156-6.125-9.4844-1.2188-1.4219-7.7656-8.1875-6.5312-6.7656-18.453-18.922z"/>
</defs>
<use xlink:href="#c"/>
<use x="63.623047" xlink:href="#d"/>
<use x="95.410156" xlink:href="#p"/>
</g>
</g>
<g clip-path="url(#a)">
<g transform="translate(168.23 398.15) scale(.1 -.1)">
<defs>
<path id="o" d="m40.578 39.312q7.0781-1.5156 11.047-6.3125 3.9844-4.7812 3.9844-11.812 0-10.781-7.4219-16.703-7.4219-5.9062-21.094-5.9062-4.5781 0-9.4375 0.90625t-10.031 2.7188v9.5156q4.0938-2.3906 8.9688-3.6094 4.8906-1.2188 10.219-1.2188 9.2656 0 14.125 3.6562t4.8594 10.641q0 6.4531-4.5156 10.078-4.5156 3.6406-12.562 3.6406h-8.5v8.1094h8.8906q7.2656 0 11.125 2.9062t3.8594 8.375q0 5.6094-3.9844 8.6094-3.9688 3.0156-11.391 3.0156-4.0625 0-8.7031-0.89062-4.6406-0.875-10.203-2.7188v8.7812q5.625 1.5625 10.531 2.3438t9.25 0.78125q11.234 0 17.766-5.1094 6.5469-5.0938 6.5469-13.781 0-6.0625-3.4688-10.234t-9.8594-5.7812z"/>
</defs>
<use xlink:href="#c"/>
<use x="63.623047" xlink:href="#d"/>
<use x="95.410156" xlink:href="#o"/>
</g>
</g>
<g clip-path="url(#a)">
<g transform="translate(283.41 747.36) scale(.1 -.1)">
<defs>
<path id="n" d="m37.797 64.312-24.906-38.922h24.906zm-2.5938 8.5938h12.406v-47.516h10.406v-8.2031h-10.406v-17.188h-9.8125v17.188h-32.906v9.5156z"/>
</defs>
<use xlink:href="#c"/>
<use x="63.623047" xlink:href="#d"/>
<use x="95.410156" xlink:href="#n"/>
</g>
</g>
<g clip-path="url(#a)">
<g transform="translate(316.58 747.36) scale(.1 -.1)">
<defs>
<path id="s" d="m10.797 72.906h38.719v-8.3125h-29.688v-17.859q2.1406 0.73438 4.2812 1.0938 2.1562 0.35938 4.3125 0.35938 12.203 0 19.328-6.6875 7.1406-6.6875 7.1406-18.109 0-11.766-7.3281-18.297-7.3281-6.5156-20.656-6.5156-4.5938 0-9.3594 0.78125-4.75 0.78125-9.8281 2.3438v9.9219q4.3906-2.3906 9.0781-3.5625t9.9062-1.1719q8.4531 0 13.375 4.4375 4.9375 4.4375 4.9375 12.062 0 7.6094-4.9375 12.047-4.9219 4.4531-13.375 4.4531-3.9531 0-7.8906-0.875-3.9219-0.875-8.0156-2.7344z"/>
</defs>
<use xlink:href="#c"/>
<use x="63.623047" xlink:href="#d"/>
<use x="95.410156" xlink:href="#s"/>
</g>
</g>
<g clip-path="url(#a)">
<g transform="translate(371.06 573.22) scale(.1 -.1)">
<defs>
<path id="am" d="m33.016 40.375q-6.6406 0-10.531-4.5469-3.875-4.5312-3.875-12.438 0-7.8594 3.875-12.438 3.8906-4.5625 10.531-4.5625t10.516 4.5625q3.875 4.5781 3.875 12.438 0 7.9062-3.875 12.438-3.875 4.5469-10.516 4.5469zm19.578 30.922v-8.9844q-3.7188 1.75-7.5 2.6719-3.7812 0.9375-7.5 0.9375-9.7656 0-14.922-6.5938-5.1406-6.5938-5.875-19.922 2.875 4.25 7.2188 6.5156 4.3594 2.2656 9.5781 2.2656 10.984 0 17.359-6.6719 6.375-6.6562 6.375-18.125 0-11.234-6.6406-18.031-6.6406-6.7812-17.672-6.7812-12.656 0-19.344 9.6875-6.6875 9.7031-6.6875 28.109 0 17.281 8.2031 27.562t22.016 10.281q3.7188 0 7.5-0.73438t7.8906-2.1875z"/>
</defs>
<use xlink:href="#c"/>
<use x="63.623047" xlink:href="#d"/>
<use x="95.410156" xlink:href="#am"/>
</g>
</g>
<g clip-path="url(#a)">
<g transform="translate(502.83 398.15) scale(.1 -.1)">
<defs>
<path id="al" d="m8.2031 72.906h46.875v-4.2031l-26.469-68.703h-10.297l24.906 64.594h-35.016z"/>
</defs>
<use xlink:href="#c"/>
<use x="63.623047" xlink:href="#d"/>
<use x="95.410156" xlink:href="#al"/>
</g>
</g>
<g clip-path="url(#a)">
<g transform="translate(721.65 747.36) scale(.1 -.1)">
<defs>
<path id="ak" d="m31.781 34.625q-7.0312 0-11.062-3.7656-4.0156-3.7656-4.0156-10.344 0-6.5938 4.0156-10.359 4.0312-3.7656 11.062-3.7656t11.078 3.7812q4.0625 3.7969 4.0625 10.344 0 6.5781-4.0312 10.344-4.0156 3.7656-11.109 3.7656zm-9.8594 4.1875q-6.3438 1.5625-9.8906 5.9062-3.5312 4.3594-3.5312 10.609 0 8.7344 6.2188 13.812 6.2344 5.0781 17.062 5.0781 10.891 0 17.094-5.0781t6.2031-13.812q0-6.25-3.5469-10.609-3.5312-4.3438-9.8281-5.9062 7.125-1.6562 11.094-6.5 3.9844-4.8281 3.9844-11.797 0-10.609-6.4688-16.281-6.4688-5.6562-18.531-5.6562-12.047 0-18.531 5.6562-6.4688 5.6719-6.4688 16.281 0 6.9688 4 11.797 4.0156 4.8438 11.141 6.5zm-3.6094 15.578q0-5.6562 3.5312-8.8281 3.5469-3.1719 9.9375-3.1719 6.3594 0 9.9375 3.1719 3.5938 3.1719 3.5938 8.8281 0 5.6719-3.5938 8.8438-3.5781 3.1719-9.9375 3.1719-6.3906 0-9.9375-3.1719-3.5312-3.1719-3.5312-8.8438z"/>
</defs>
<use xlink:href="#c"/>
<use x="63.623047" xlink:href="#d"/>
<use x="95.410156" xlink:href="#ak"/>
</g>
</g>
<g clip-path="url(#a)">
<g transform="translate(670.42 222.5) scale(.1 -.1)">
<defs>
<path id="aj" d="m10.984 1.5156v8.9844q3.7188-1.7656 7.5156-2.6875 3.8125-0.92188 7.4844-0.92188 9.7656 0 14.906 6.5625 5.1562 6.5625 5.8906 19.953-2.8281-4.2031-7.1875-6.4531-4.3438-2.25-9.6094-2.25-10.938 0-17.312 6.6094-6.375 6.625-6.375 18.109 0 11.219 6.6406 18 6.6406 6.7969 17.672 6.7969 12.656 0 19.312-9.7031 6.6719-9.6875 6.6719-28.141 0-17.234-8.1875-27.516-8.1719-10.281-21.984-10.281-3.7188 0-7.5312 0.73438-3.7969 0.73438-7.9062 2.2031zm19.625 30.906q6.6406 0 10.516 4.5312 3.8906 4.5469 3.8906 12.469 0 7.8594-3.8906 12.422-3.875 4.5625-10.516 4.5625t-10.516-4.5625-3.875-12.422q0-7.9219 3.875-12.469 3.875-4.5312 10.516-4.5312z"/>
</defs>
<use xlink:href="#c"/>
<use x="63.623047" xlink:href="#d"/>
<use x="95.410156" xlink:href="#aj"/>
</g>
</g>
<g clip-path="url(#a)">
<g transform="translate(960.09 747.36) scale(.1 -.1)">
<defs>
<path id="an" d="m31.781 66.406q-7.6094 0-11.453-7.5-3.8281-7.4844-3.8281-22.531 0-14.984 3.8281-22.484 3.8438-7.5 11.453-7.5 7.6719 0 11.5 7.5 3.8438 7.5 3.8438 22.484 0 15.047-3.8438 22.531-3.8281 7.5-11.5 7.5zm0 7.8125q12.266 0 18.734-9.7031 6.4688-9.6875 6.4688-28.141 0-18.406-6.4688-28.109-6.4688-9.6875-18.734-9.6875-12.25 0-18.719 9.6875-6.4688 9.7031-6.4688 28.109 0 18.453 6.4688 28.141 6.4688 9.7031 18.719 9.7031z"/>
</defs>
<use xlink:href="#c"/>
<use x="63.623047" xlink:href="#d"/>
<use x="95.410156" xlink:href="#c"/>
<use x="159.033203" xlink:href="#an"/>
</g>
</g>
<g clip-path="url(#a)">
<g transform="translate(1226.3 222.5) scale(.1 -.1)">
<use xlink:href="#c"/>
<use x="63.623047" xlink:href="#d"/>
<use x="95.410156" xlink:href="#c"/>
<use x="159.033203" xlink:href="#c"/>
</g>
</g>
<g clip-path="url(#a)">
<g transform="translate(1193.4 398.15) scale(.1 -.1)">
<use xlink:href="#c"/>
<use x="63.623047" xlink:href="#d"/>
<use x="95.410156" xlink:href="#c"/>
<use x="159.033203" xlink:href="#s"/>
</g>
</g>
<g clip-path="url(#a)">
<g transform="translate(1393.6 747.36) scale(.1 -.1)">
<use xlink:href="#c"/>
<use x="63.623047" xlink:href="#d"/>
<use x="95.410156" xlink:href="#c"/>
<use x="159.033203" xlink:href="#am"/>
</g>
</g>
<g clip-path="url(#a)">
<g transform="translate(1474.1 747.36) scale(.1 -.1)">
<use xlink:href="#c"/>
<use x="63.623047" xlink:href="#d"/>
<use x="95.410156" xlink:href="#c"/>
<use x="159.033203" xlink:href="#al"/>
</g>
</g>
<g clip-path="url(#a)">
<g transform="translate(1643.1 573.22) scale(.1 -.1)">
<use xlink:href="#c"/>
<use x="63.623047" xlink:href="#d"/>
<use x="95.410156" xlink:href="#c"/>
<use x="159.033203" xlink:href="#ak"/>
</g>
</g>
<g clip-path="url(#a)">
<g transform="translate(1557 747.36) scale(.1 -.1)">
<use xlink:href="#c"/>
<use x="63.623047" xlink:href="#d"/>
<use x="95.410156" xlink:href="#c"/>
<use x="159.033203" xlink:href="#aj"/>
</g>
</g>
<g clip-path="url(#a)">
<g transform="translate(1642.3 747.36) scale(.1 -.1)">
<use xlink:href="#c"/>
<use x="63.623047" xlink:href="#d"/>
<use x="95.410156" xlink:href="#p"/>
<use x="159.033203" xlink:href="#an"/>
</g>
</g>
<g clip-path="url(#a)">
<g transform="translate(1026.4 747.36) scale(.1 -.1)">
<use xlink:href="#c"/>
<use x="63.623047" xlink:href="#d"/>
<use x="95.410156" xlink:href="#p"/>
<use x="159.033203" xlink:href="#p"/>
</g>
</g>
<g clip-path="url(#a)">
<g transform="translate(1192.2 573.22) scale(.1 -.1)">
<use xlink:href="#c"/>
<use x="63.623047" xlink:href="#d"/>
<use x="95.410156" xlink:href="#p"/>
<use x="159.033203" xlink:href="#o"/>
</g>
</g>
<g clip-path="url(#a)">
<g transform="translate(1239.6 747.36) scale(.1 -.1)">
<use xlink:href="#c"/>
<use x="63.623047" xlink:href="#d"/>
<use x="95.410156" xlink:href="#p"/>
<use x="159.033203" xlink:href="#n"/>
</g>
</g>
<g clip-path="url(#a)">
<g transform="translate(1315.4 747.36) scale(.1 -.1)">
<use xlink:href="#c"/>
<use x="63.623047" xlink:href="#d"/>
<use x="95.410156" xlink:href="#p"/>
<use x="159.033203" xlink:href="#s"/>
</g>
</g>
<g clip-path="url(#a)">
<g transform="translate(1095.1 747.36) scale(.1 -.1)">
<use xlink:href="#c"/>
<use x="63.623047" xlink:href="#d"/>
<use x="95.410156" xlink:href="#p"/>
<use x="159.033203" xlink:href="#am"/>
</g>
</g>
<g clip-path="url(#a)">
<g transform="translate(1166.2 747.36) scale(.1 -.1)">
<use xlink:href="#c"/>
<use x="63.623047" xlink:href="#d"/>
<use x="95.410156" xlink:href="#p"/>
<use x="159.033203" xlink:href="#al"/>
</g>
</g>
<g clip-path="url(#a)">
<g transform="translate(819.73 398.15) scale(.1 -.1)">
<use xlink:href="#c"/>
<use x="63.623047" xlink:href="#d"/>
<use x="95.410156" xlink:href="#p"/>
<use x="159.033203" xlink:href="#ak"/>
</g>
</g>
<g clip-path="url(#a)">
<g transform="translate(804.93 573.22) scale(.1 -.1)">
<use xlink:href="#c"/>
<use x="63.623047" xlink:href="#d"/>
<use x="95.410156" xlink:href="#p"/>
<use x="159.033203" xlink:href="#aj"/>
</g>
</g>
<g clip-path="url(#a)">
<g transform="translate(834.54 747.36) scale(.1 -.1)">
<use xlink:href="#c"/>
<use x="63.623047" xlink:href="#d"/>
<use x="95.410156" xlink:href="#o"/>
<use x="159.033203" xlink:href="#an"/>
</g>
</g>
<g clip-path="url(#a)">
<g transform="translate(775.32 747.36) scale(.1 -.1)">
<use xlink:href="#c"/>
<use x="63.623047" xlink:href="#d"/>
<use x="95.410156" xlink:href="#o"/>
<use x="159.033203" xlink:href="#c"/>
</g>
</g>
<g clip-path="url(#a)">
<g transform="translate(427.1 747.36) scale(.1 -.1)">
<use xlink:href="#c"/>
<use x="63.623047" xlink:href="#d"/>
<use x="95.410156" xlink:href="#o"/>
<use x="159.033203" xlink:href="#p"/>
</g>
</g>
<g clip-path="url(#a)">
<g transform="translate(469.74 747.36) scale(.1 -.1)">
<use xlink:href="#c"/>
<use x="63.623047" xlink:href="#d"/>
<use x="95.410156" xlink:href="#o"/>
<use x="159.033203" xlink:href="#o"/>
</g>
</g>
<g clip-path="url(#a)">
<g transform="translate(514.75 747.36) scale(.1 -.1)">
<use xlink:href="#c"/>
<use x="63.623047" xlink:href="#d"/>
<use x="95.410156" xlink:href="#o"/>
<use x="159.033203" xlink:href="#n"/>
</g>
</g>
<g clip-path="url(#a)">
<g transform="translate(587 573.22) scale(.1 -.1)">
<use xlink:href="#c"/>
<use x="63.623047" xlink:href="#d"/>
<use x="95.410156" xlink:href="#o"/>
<use x="159.033203" xlink:href="#s"/>
</g>
</g>
<g clip-path="url(#a)">
<g transform="translate(562.12 747.36) scale(.1 -.1)">
<use xlink:href="#c"/>
<use x="63.623047" xlink:href="#d"/>
<use x="95.410156" xlink:href="#o"/>
<use x="159.033203" xlink:href="#am"/>
</g>
</g>
<g clip-path="url(#a)">
<g transform="translate(611.87 747.36) scale(.1 -.1)">
<use xlink:href="#c"/>
<use x="63.623047" xlink:href="#d"/>
<use x="95.410156" xlink:href="#o"/>
<use x="159.033203" xlink:href="#al"/>
</g>
</g>
<g clip-path="url(#a)">
<g transform="translate(348.93 747.36) scale(.1 -.1)">
<use xlink:href="#c"/>
<use x="63.623047" xlink:href="#d"/>
<use x="95.410156" xlink:href="#o"/>
<use x="159.033203" xlink:href="#ak"/>
</g>
</g>
<g clip-path="url(#a)">
<g transform="translate(386.83 747.36) scale(.1 -.1)">
<use xlink:href="#c"/>
<use x="63.623047" xlink:href="#d"/>
<use x="95.410156" xlink:href="#o"/>
<use x="159.033203" xlink:href="#aj"/>
</g>
</g>
<g clip-path="url(#a)">
<g transform="translate(131 747.36) scale(.1 -.1)">
<use xlink:href="#c"/>
<use x="63.623047" xlink:href="#d"/>
<use x="95.410156" xlink:href="#n"/>
<use x="159.033203" xlink:href="#an"/>
</g>
</g>
<g clip-path="url(#a)">
<g transform="translate(149.95 747.36) scale(.1 -.1)">
<use xlink:href="#c"/>
<use x="63.623047" xlink:href="#d"/>
<use x="95.410156" xlink:href="#n"/>
<use x="159.033203" xlink:href="#c"/>
</g>
</g>
<g clip-path="url(#a)">
<g transform="translate(171.27 747.36) scale(.1 -.1)">
<use xlink:href="#c"/>
<use x="63.623047" xlink:href="#d"/>
<use x="95.410156" xlink:href="#n"/>
<use x="159.033203" xlink:href="#p"/>
</g>
</g>
<g clip-path="url(#a)">
<g transform="translate(207.98 573.22) scale(.1 -.1)">
<use xlink:href="#c"/>
<use x="63.623047" xlink:href="#d"/>
<use x="95.410156" xlink:href="#n"/>
<use x="159.033203" xlink:href="#o"/>
</g>
</g>
<g clip-path="url(#a)">
<g transform="translate(194.96 747.36) scale(.1 -.1)">
<use xlink:href="#c"/>
<use x="63.623047" xlink:href="#d"/>
<use x="95.410156" xlink:href="#n"/>
<use x="159.033203" xlink:href="#n"/>
</g>
</g>
<g clip-path="url(#a)">
<g transform="translate(221.01 747.36) scale(.1 -.1)">
<use xlink:href="#c"/>
<use x="63.623047" xlink:href="#d"/>
<use x="95.410156" xlink:href="#n"/>
<use x="159.033203" xlink:href="#s"/>
</g>
</g>
<g clip-path="url(#a)">
<g transform="translate(71.776 747.36) scale(.1 -.1)">
<use xlink:href="#c"/>
<use x="63.623047" xlink:href="#d"/>
<use x="95.410156" xlink:href="#n"/>
<use x="159.033203" xlink:href="#am"/>
</g>
</g>
<g clip-path="url(#a)">
<g transform="translate(83.62 573.22) scale(.1 -.1)">
<use xlink:href="#c"/>
<use x="63.623047" xlink:href="#d"/>
<use x="95.410156" xlink:href="#n"/>
<use x="159.033203" xlink:href="#al"/>
</g>
</g>
<g clip-path="url(#a)">
<g transform="translate(100.2 747.36) scale(.1 -.1)">
<use xlink:href="#c"/>
<use x="63.623047" xlink:href="#d"/>
<use x="95.410156" xlink:href="#n"/>
<use x="159.033203" xlink:href="#ak"/>
</g>
</g>
<g clip-path="url(#a)">
<g transform="translate(114.42 747.36) scale(.1 -.1)">
<use xlink:href="#c"/>
<use x="63.623047" xlink:href="#d"/>
<use x="95.410156" xlink:href="#n"/>
<use x="159.033203" xlink:href="#aj"/>
</g>
</g>
<g clip-path="url(#a)">
<g transform="translate(78.883 747.36) scale(.1 -.1)">
<use xlink:href="#c"/>
<use x="63.623047" xlink:href="#d"/>
<use x="95.410156" xlink:href="#s"/>
<use x="159.033203" xlink:href="#an"/>
</g>
</g>
<g clip-path="url(#a)">
<g transform="translate(88.358 747.36) scale(.1 -.1)">
<use xlink:href="#c"/>
<use x="63.623047" xlink:href="#d"/>
<use x="95.410156" xlink:href="#s"/>
<use x="159.033203" xlink:href="#c"/>
</g>
</g>
<g clip-path="url(#a)">
<g transform="translate(249.44 747.36) scale(.1 -.1)">
<use xlink:href="#c"/>
<use x="63.623047" xlink:href="#d"/>
<use x="95.410156" xlink:href="#s"/>
<use x="159.033203" xlink:href="#p"/>
</g>
</g>
<g clip-path="url(#a)">
<g transform="translate(663.98 747.36) scale(.1 -.1)">
<use xlink:href="#c"/>
<use x="63.623047" xlink:href="#d"/>
<use x="95.410156" xlink:href="#s"/>
<use x="159.033203" xlink:href="#o"/>
</g>
</g>
<g clip-path="url(#a)">
<g transform="translate(896.13 747.36) scale(.1 -.1)">
<use xlink:href="#c"/>
<use x="63.623047" xlink:href="#d"/>
<use x="95.410156" xlink:href="#s"/>
<use x="159.033203" xlink:href="#n"/>
</g>
</g>
<g clip-path="url(#a)">
<g transform="translate(1730 747.36) scale(.1 -.1)">
<use xlink:href="#c"/>
<use x="63.623047" xlink:href="#d"/>
<use x="95.410156" xlink:href="#s"/>
<use x="159.033203" xlink:href="#s"/>
</g>
</g>
<defs>
<clipPath id="a">
<rect width="1824" height="960"/>
</clipPath>
</defs>
</svg>
