<?xml version="1.0" encoding="UTF-8"?>
<!DOCTYPE svg  PUBLIC '-//W3C//DTD SVG 1.1//EN'  'http://www.w3.org/Graphics/SVG/1.1/DTD/svg11.dtd'>
<svg width="2026.7pt" height="1066.7pt" version="1.1" viewBox="0 0 2026.7 1066.7" xmlns="http://www.w3.org/2000/svg" xmlns:xlink="http://www.w3.org/1999/xlink">
<metadata>
<rdf:RDF xmlns:cc="http://creativecommons.org/ns#" xmlns:dc="http://purl.org/dc/elements/1.1/" xmlns:rdf="http://www.w3.org/1999/02/22-rdf-syntax-ns#">
<cc:Work>
<dc:type rdf:resource="http://purl.org/dc/dcmitype/StillImage"/>
<dc:date>2021-02-23T11:04:57.906753</dc:date>
<dc:format>image/svg+xml</dc:format>
<dc:creator>
<cc:Agent>
<dc:title>Matplotlib v3.3.3, https://matplotlib.org/</dc:title>
</cc:Agent>
</dc:creator>
</cc:Work>
</rdf:RDF>
</metadata>
<defs>
<style type="text/css">*{stroke-linecap:butt;stroke-linejoin:round;}</style>
</defs>
<path d="m0 1066.7h2026.7v-1066.7h-2026.7z" fill="#fff"/>
<g fill="none" stroke="#000">
<path d="m627.29 48.485v122.34" clip-path="url(#a)"/>
<path d="m627.29 170.83 1307.3 122.17" clip-path="url(#a)"/>
<path d="m627.29 170.83 1307.3 122.17" clip-path="url(#a)"/>
<path d="m627.29 170.83v122.17" clip-path="url(#a)"/>
<path d="m627.29 293-521.78 365.1" clip-path="url(#a)"/>
<path d="m627.29 293-454.83 486.1" clip-path="url(#a)"/>
<path d="m627.29 293-377.92 121.96" clip-path="url(#a)"/>
<path d="m627.29 293 101.11 606.47" clip-path="url(#a)"/>
<path d="m627.29 293 264.28 243.68" clip-path="url(#a)"/>
<path d="m627.29 293 831.08 243.68" clip-path="url(#a)"/>
<path d="m627.29 293-481.61 606.47" clip-path="url(#a)"/>
<path d="m627.29 293 0.41716 606.47" clip-path="url(#a)"/>
<path d="m627.29 293 49.691 606.47" clip-path="url(#a)"/>
<path d="m627.29 293 589.56 606.47" clip-path="url(#a)"/>
<path d="m105.51 658.09-13.39 241.37" clip-path="url(#a)"/>
<path d="m105.51 658.09-6.9626 241.37" clip-path="url(#a)"/>
<path d="m105.51 658.09 1.6068 241.37" clip-path="url(#a)"/>
<path d="m105.51 658.09 18.746 121" clip-path="url(#a)"/>
<path d="m172.46 779.1-9.6406 120.37" clip-path="url(#a)"/>
<path d="m172.46 779.1 9.6406 120.37" clip-path="url(#a)"/>
<path d="m249.38 414.96-45.852 484.5" clip-path="url(#a)"/>
<path d="m249.38 414.96-22.286 484.5" clip-path="url(#a)"/>
<path d="m249.38 414.96 68.139 121.72" clip-path="url(#a)"/>
<path d="m728.4 899.46v118.72" clip-path="url(#a)"/>
<path d="m891.58 536.68-109.62 362.78" clip-path="url(#a)"/>
<path d="m891.58 536.68-53.916 362.78" clip-path="url(#a)"/>
<path d="m891.58 536.68 159.61 121.41" clip-path="url(#a)"/>
<path d="m891.58 536.68 3.9276 362.78" clip-path="url(#a)"/>
<path d="m1458.4 536.68-134.4 242.41" clip-path="url(#a)"/>
<path d="m1458.4 536.68-22.995 362.78" clip-path="url(#a)"/>
<path d="m1458.4 536.68 157.39 121.41" clip-path="url(#a)"/>
<path d="m1324 779.1-36.42 120.37" clip-path="url(#a)"/>
<path d="m1324 779.1 36.42 120.37" clip-path="url(#a)"/>
<path d="m1435.4 899.46v118.72" clip-path="url(#a)"/>
<path d="m1615.8 658.09-103.26 241.37" clip-path="url(#a)"/>
<path d="m1615.8 658.09 127.26 121" clip-path="url(#a)"/>
<path d="m1615.8 658.09-23.994 241.37" clip-path="url(#a)"/>
<path d="m1512.5 899.46v118.72" clip-path="url(#a)"/>
<path d="m1743 779.1-230.52 120.37" clip-path="url(#a)" stroke-dasharray="3.7,1.6"/>
<path d="m1743 779.1-69.841 120.37" clip-path="url(#a)"/>
<path d="m1743 779.1 13.711 120.37" clip-path="url(#a)"/>
<path d="m1743 779.1 99.405 120.37" clip-path="url(#a)"/>
<path d="m1743 779.1 187.24 120.37" clip-path="url(#a)"/>
<path d="m1673.2 899.46v118.72" clip-path="url(#a)"/>
<path d="m1756.7 899.46v118.72" clip-path="url(#a)"/>
<path d="m1842.4 899.46v118.72" clip-path="url(#a)"/>
<path d="m1287.6 899.46v118.72" clip-path="url(#a)"/>
<path d="m1360.4 899.46v118.72" clip-path="url(#a)"/>
<path d="m781.96 899.46v118.72" clip-path="url(#a)"/>
<path d="m837.66 899.46v118.72" clip-path="url(#a)"/>
<path d="m1051.2 658.09-95.692 241.37" clip-path="url(#a)"/>
<path d="m1051.2 658.09-1.4282 121" clip-path="url(#a)"/>
<path d="m1051.2 658.09 97.12 241.37" clip-path="url(#a)"/>
<path d="m955.49 899.46v118.72" clip-path="url(#a)"/>
<path d="m1049.8 779.1-32.135 120.37" clip-path="url(#a)"/>
<path d="m1049.8 779.1 32.135 120.37" clip-path="url(#a)"/>
<path d="m1148.3 899.46v118.72" clip-path="url(#a)"/>
<path d="m1017.6 899.46v118.72" clip-path="url(#a)"/>
<path d="m1081.9 899.46v118.72" clip-path="url(#a)"/>
<path d="m203.52 899.46v118.72" clip-path="url(#a)"/>
<path d="m227.09 899.46v118.72" clip-path="url(#a)"/>
<path d="m317.51 536.68-64.717 362.78" clip-path="url(#a)"/>
<path d="m317.51 536.68-36.866 362.78" clip-path="url(#a)"/>
<path d="m317.51 536.68 108.46 121.41" clip-path="url(#a)"/>
<path d="m317.51 536.68-6.8734 362.78" clip-path="url(#a)"/>
<path d="m252.8 899.46v118.72" clip-path="url(#a)"/>
<path d="m280.65 899.46v118.72" clip-path="url(#a)"/>
<path d="m425.97 658.09-72.483 121" clip-path="url(#a)"/>
<path d="m425.97 658.09 46.418 121" clip-path="url(#a)"/>
<path d="m425.97 658.09 26.065 241.37" clip-path="url(#a)"/>
<path d="m353.49 779.1-72.84 120.37" clip-path="url(#a)" stroke-dasharray="3.7,1.6"/>
<path d="m353.49 779.1-10.712 120.37" clip-path="url(#a)"/>
<path d="m353.49 779.1 23.566 120.37" clip-path="url(#a)"/>
<path d="m353.49 779.1 59.986 120.37" clip-path="url(#a)"/>
<path d="m472.39 779.1-191.74 120.37" clip-path="url(#a)" stroke-dasharray="3.7,1.6"/>
<path d="m472.39 779.1 20.352 120.37" clip-path="url(#a)"/>
<path d="m472.39 779.1 63.199 120.37" clip-path="url(#a)"/>
<path d="m472.39 779.1 108.19 120.37" clip-path="url(#a)"/>
<path d="m492.74 899.46v118.72" clip-path="url(#a)"/>
<path d="m535.59 899.46v118.72" clip-path="url(#a)"/>
<path d="m580.58 899.46v118.72" clip-path="url(#a)"/>
<path d="m342.78 899.46v118.72" clip-path="url(#a)"/>
<path d="m377.05 899.46v118.72" clip-path="url(#a)"/>
<path d="m413.47 899.46v118.72" clip-path="url(#a)"/>
<path d="m162.82 899.46v118.72" clip-path="url(#a)"/>
<path d="m182.1 899.46v118.72" clip-path="url(#a)"/>
<path d="m92.121 899.46v118.72" clip-path="url(#a)"/>
<path d="m98.548 899.46v118.72" clip-path="url(#a)"/>
<path d="m107.12 899.46v118.72" clip-path="url(#a)"/>
<path d="m124.26 779.1-6.4271 120.37" clip-path="url(#a)"/>
<path d="m124.26 779.1 6.4271 120.37" clip-path="url(#a)"/>
<path d="m117.83 899.46v118.72" clip-path="url(#a)"/>
<path d="m130.68 899.46v118.72" clip-path="url(#a)"/>
<path d="m145.68 899.46v118.72" clip-path="url(#a)"/>
<path d="m310.64 899.46v118.72" clip-path="url(#a)"/>
<path d="m452.04 899.46v118.72" clip-path="url(#a)"/>
<path d="m627.71 899.46v118.72" clip-path="url(#a)"/>
<path d="m676.98 899.46v118.72" clip-path="url(#a)"/>
<path d="m895.5 899.46v118.72" clip-path="url(#a)"/>
<path d="m1216.9 899.46v118.72" clip-path="url(#a)"/>
<path d="m1591.8 899.46v118.72" clip-path="url(#a)"/>
<path d="m1930.3 899.46v118.72" clip-path="url(#a)"/>
</g>
<path d="m621.02 106.65v6.0162q0 2.4 2.4 2.4h7.7425q2.4 0 2.4-2.4v-6.0162q0-2.4-2.4-2.4h-7.7425q-2.4 0-2.4 2.4z" clip-path="url(#a)" fill="#fff" stroke="#fff"/>
<g clip-path="url(#a)">
<g transform="translate(625.08 106.65) rotate(90) scale(.08 -.08)">
<defs>
<path id="ap" d="m9.8125 72.906h9.8594v-29.891h35.844v29.891h9.8594v-72.906h-9.8594v34.719h-35.844v-34.719h-9.8594z"/>
</defs>
<use xlink:href="#ap"/>
</g>
</g>
<path d="m1277.6 237.9 5.4488 0.50921q2.3896 0.22332 2.6129-2.1663l0.72043-7.7089q0.22332-2.3896-2.1663-2.6129l-5.4488-0.50921q-2.3896-0.22332-2.6129 2.1663l-0.72044 7.7089q-0.22332 2.3896 2.1663 2.6129z" clip-path="url(#a)" fill="#fff" stroke="#fff"/>
<g clip-path="url(#a)">
<g transform="translate(1278 233.86) rotate(5.3391) scale(.08 -.08)">
<defs>
<path id="m" d="m34.188 63.188-13.391-36.281h26.812zm-5.5781 9.7188h11.188l27.781-72.906h-10.25l-6.6406 18.703h-32.859l-6.6406-18.703h-10.406z"/>
</defs>
<use xlink:href="#m"/>
</g>
</g>
<path d="m1277.9 237.93 4.8028 0.44885q2.3896 0.22332 2.6129-2.1663l0.72044-7.7089q0.22332-2.3896-2.1663-2.6129l-4.8028-0.44885q-2.3896-0.22332-2.6129 2.1663l-0.72043 7.7089q-0.22332 2.3896 2.1663 2.6129z" clip-path="url(#a)" fill="#fff" stroke="#fff"/>
<g clip-path="url(#a)">
<g transform="translate(1278.3 233.89) rotate(5.3391) scale(.08 -.08)">
<defs>
<path id="w" d="m19.672 64.797v-27.391h12.406q6.8906 0 10.641 3.5625 3.7656 3.5625 3.7656 10.156 0 6.5469-3.7656 10.109-3.75 3.5625-10.641 3.5625zm-9.8594 8.1094h22.266q12.266 0 18.531-5.5469 6.2812-5.5469 6.2812-16.234 0-10.797-6.2812-16.312-6.2656-5.5156-18.531-5.5156h-12.406v-29.297h-9.8594z"/>
</defs>
<use xlink:href="#w"/>
</g>
</g>
<path d="m621.02 229.18v5.4725q0 2.4 2.4 2.4h7.7425q2.4 0 2.4-2.4v-5.4725q0-2.4-2.4-2.4h-7.7425q-2.4 0-2.4 2.4z" clip-path="url(#a)" fill="#fff" stroke="#fff"/>
<g clip-path="url(#a)">
<g transform="translate(625.08 229.18) rotate(90) scale(.08 -.08)">
<use xlink:href="#m"/>
</g>
</g>
<path d="m367.53 482.41 4.9294-3.4491q1.9664-1.3759 0.5905-3.3424l-4.4388-6.3438q-1.3759-1.9664-3.3424-0.5905l-4.9294 3.4491q-1.9664 1.3759-0.5905 3.3424l4.4388 6.3438q1.3759 1.9664 3.3424 0.5905z" clip-path="url(#a)" fill="#fff" stroke="#fff"/>
<g clip-path="url(#a)">
<g transform="translate(365.2 479.08) rotate(-34.981) scale(.08 -.08)">
<use xlink:href="#ap"/>
</g>
</g>
<path d="m402.93 541.96 3.0455-3.2549q1.6398-1.7525-0.11271-3.3922l-5.6536-5.2899q-1.7525-1.6398-3.3922 0.11271l-3.0455 3.2549q-1.6398 1.7525 0.11271 3.3922l5.6536 5.2899q1.7525 1.6398 3.3922-0.11271z" clip-path="url(#a)" fill="#fff" stroke="#fff"/>
<g clip-path="url(#a)">
<g transform="translate(399.97 539.18) rotate(-46.903) scale(.08 -.08)">
<defs>
<path id="aq" d="m9.8125 72.906h9.8594v-64.609h35.5v-8.2969h-45.359z"/>
</defs>
<use xlink:href="#aq"/>
</g>
</g>
<path d="m437.4 360.87 5.7255-1.8478q2.284-0.73711 1.5469-3.0211l-2.378-7.3683q-0.73711-2.284-3.0211-1.5469l-5.7255 1.8478q-2.284 0.73711-1.5469 3.0211l2.378 7.3683q0.73711 2.284 3.0211 1.5469z" clip-path="url(#a)" fill="#fff" stroke="#fff"/>
<g clip-path="url(#a)">
<g transform="translate(436.15 357.01) rotate(-17.886) scale(.08 -.08)">
<use xlink:href="#ap"/>
</g>
</g>
<path d="m671.29 595.06 0.73302 4.3968q0.39467 2.3673 2.762 1.9727l7.6371-1.2732q2.3673-0.39467 1.9727-2.762l-0.73302-4.3968q-0.39467-2.3673-2.762-1.9727l-7.6371 1.2732q-2.3673 0.39467-1.9727 2.762z" clip-path="url(#a)" fill="#fff" stroke="#fff"/>
<g clip-path="url(#a)">
<g transform="translate(675.3 594.4) rotate(80.535) scale(.08 -.08)">
<use xlink:href="#aq"/>
</g>
</g>
<path d="m752.97 417.41 4.423 4.0783q1.7644 1.6269 3.3913-0.13753l5.2484-5.6921q1.6269-1.7644-0.13753-3.3913l-4.423-4.0783q-1.7644-1.6269-3.3913 0.13753l-5.2484 5.6921q-1.6269 1.7644 0.13753 3.3913z" clip-path="url(#a)" fill="#fff" stroke="#fff"/>
<g clip-path="url(#a)">
<g transform="translate(755.73 414.42) rotate(42.678) scale(.08 -.08)">
<use xlink:href="#ap"/>
</g>
</g>
<path d="m1038.2 420.01 5.7732 1.6928q2.303 0.67528 2.9783-1.6278l2.1785-7.4297q0.67528-2.303-1.6278-2.9783l-5.7732-1.6928q-2.303-0.67528-2.9783 1.6278l-2.1785 7.4297q-0.67528 2.303 1.6278 2.9783z" clip-path="url(#a)" fill="#fff" stroke="#fff"/>
<g clip-path="url(#a)">
<g transform="translate(1039.3 416.11) rotate(16.342) scale(.08 -.08)">
<use xlink:href="#ap"/>
</g>
</g>
<path d="m389.58 602.42 3.6412-4.5851q1.4925-1.8795-0.38692-3.372l-6.0632-4.815q-1.8795-1.4925-3.372 0.38692l-3.6412 4.5851q-1.4925 1.8795 0.38692 3.372l6.0632 4.815q1.8795 1.4925 3.372-0.38692z" clip-path="url(#a)" fill="#fff" stroke="#fff"/>
<g clip-path="url(#a)">
<g transform="translate(386.39 599.9) rotate(-51.546) scale(.08 -.08)">
<defs>
<path id="v" d="m8.6875 72.906h9.9219v-44.297q0-11.719 4.2344-16.875 4.25-5.1406 13.781-5.1406 9.4688 0 13.719 5.1406 4.25 5.1562 4.25 16.875v44.297h9.9062v-45.516q0-14.25-7.0625-21.531-7.0469-7.2812-20.812-7.2812-13.828 0-20.891 7.2812-7.0469 7.2812-7.0469 21.531z"/>
</defs>
<use xlink:href="#v"/>
</g>
</g>
<path d="m621.23 593.31 0.004027 5.855q0.001651 2.4 2.4016 2.3983l7.7425-0.005326q2.4-0.001651 2.3983-2.4016l-0.004027-5.855q-0.001651-2.4-2.4017-2.3983l-7.7425 0.005326q-2.4 0.001651-2.3983 2.4016z" clip-path="url(#a)" fill="#fff" stroke="#fff"/>
<g clip-path="url(#a)">
<g transform="translate(625.29 593.31) rotate(89.961) scale(.08 -.08)">
<use xlink:href="#v"/>
</g>
</g>
<path d="m645.65 593.83 0.47813 5.8354q0.19599 2.392 2.588 2.196l7.7166-0.63227q2.392-0.19599 2.196-2.588l-0.47813-5.8354q-0.19599-2.392-2.588-2.196l-7.7166 0.63227q-2.392 0.19599-2.196 2.588z" clip-path="url(#a)" fill="#fff" stroke="#fff"/>
<g clip-path="url(#a)">
<g transform="translate(649.7 593.49) rotate(85.316) scale(.08 -.08)">
<use xlink:href="#v"/>
</g>
</g>
<path d="m915.54 598.5 4.0812 4.1982q1.6729 1.7209 3.3938 0.047958l5.5516-5.3969q1.7209-1.6729 0.047959-3.3938l-4.0812-4.1982q-1.6729-1.7209-3.3938-0.047958l-5.5516 5.3969q-1.7209 1.6729-0.047958 3.3938z" clip-path="url(#a)" fill="#fff" stroke="#fff"/>
<g clip-path="url(#a)">
<g transform="translate(918.45 595.67) rotate(45.81) scale(.08 -.08)">
<use xlink:href="#v"/>
</g>
</g>
<path d="m104.93 781.86 0.30312-5.4641q0.13293-2.3963-2.2634-2.5292l-7.7306-0.42885q-2.3963-0.13293-2.5292 2.2634l-0.30312 5.4641q-0.13293 2.3963 2.2634 2.5292l7.7306 0.42885q2.3963 0.13293 2.5292-2.2634z" clip-path="url(#a)" fill="#fff" stroke="#fff"/>
<g clip-path="url(#a)">
<g transform="translate(100.87 781.63) rotate(-86.825) scale(.08 -.08)">
<use xlink:href="#m"/>
</g>
</g>
<path d="m108.23 781.37 0.13909-4.8217q0.069202-2.399-2.3298-2.4682l-7.7393-0.22325q-2.399-0.069203-2.4682 2.3298l-0.13909 4.8217q-0.069203 2.399 2.3298 2.4682l7.7393 0.22325q2.399 0.069202 2.4682-2.3298z" clip-path="url(#a)" fill="#fff" stroke="#fff"/>
<g clip-path="url(#a)">
<g transform="translate(104.17 781.25) rotate(-88.348) scale(.08 -.08)">
<use xlink:href="#w"/>
</g>
</g>
<path d="m100.03 776.38 0.032526 4.8861q0.015976 2.3999 2.4159 2.384l7.7423-0.05154q2.3999-0.015976 2.384-2.4159l-0.032526-4.8861q-0.015976-2.3999-2.4159-2.384l-7.7423 0.051539q-2.3999 0.015976-2.384 2.4159z" clip-path="url(#a)" fill="#fff" stroke="#fff"/>
<g clip-path="url(#a)">
<g transform="translate(104.09 776.35) rotate(89.619) scale(.08 -.08)">
<defs>
<path id="e" d="m-0.29688 72.906h61.672v-8.3125h-25.875v-64.594h-9.9062v64.594h-25.891z"/>
</defs>
<use xlink:href="#e"/>
</g>
</g>
<path d="m108.27 716.85 0.83781 5.408q0.36743 2.3717 2.7391 2.0043l7.6512-1.1853q2.3717-0.36743 2.0043-2.7391l-0.83782-5.408q-0.36743-2.3717-2.7391-2.0043l-7.6512 1.1853q-2.3717 0.36743-2.0043 2.7391z" clip-path="url(#a)" fill="#fff" stroke="#fff"/>
<g clip-path="url(#a)">
<g transform="translate(112.28 716.23) rotate(81.194) scale(.08 -.08)">
<use xlink:href="#m"/>
</g>
</g>
<path d="m173.67 842.56 0.44598-5.5684q0.19161-2.3923-2.2007-2.5839l-7.7178-0.61813q-2.3923-0.19161-2.5839 2.2007l-0.44598 5.5684q-0.19161 2.3923 2.2007 2.5839l7.7178 0.61813q2.3923 0.19161 2.5839-2.2007z" clip-path="url(#a)" fill="#fff" stroke="#fff"/>
<g clip-path="url(#a)">
<g transform="translate(169.62 842.24) rotate(-85.421) scale(.08 -.08)">
<defs>
<path id="u" d="m64.406 67.281v-10.391q-4.9844 4.6406-10.625 6.9219-5.6406 2.2969-11.984 2.2969-12.5 0-19.141-7.6406t-6.6406-22.094q0-14.406 6.6406-22.047t19.141-7.6406q6.3438 0 11.984 2.2969t10.625 6.9375v-10.312q-5.1719-3.5156-10.969-5.2812-5.7812-1.75-12.219-1.75-16.562 0-26.094 10.125-9.5156 10.141-9.5156 27.672 0 17.578 9.5156 27.703 9.5312 10.141 26.094 10.141 6.5312 0 12.312-1.7344 5.7969-1.7344 10.875-5.2031z"/>
</defs>
<use xlink:href="#u"/>
</g>
</g>
<path d="m170.81 837 0.44598 5.5684q0.19161 2.3923 2.5839 2.2007l7.7178-0.61813q2.3923-0.19161 2.2007-2.5839l-0.44598-5.5684q-0.19161-2.3923-2.5839-2.2007l-7.7178 0.61813q-2.3923 0.19161-2.2007 2.5839z" clip-path="url(#a)" fill="#fff" stroke="#fff"/>
<g clip-path="url(#a)">
<g transform="translate(174.86 836.67) rotate(85.421) scale(.08 -.08)">
<use xlink:href="#u"/>
</g>
</g>
<path d="m232.44 660.53 0.5156-5.4482q0.22612-2.3893-2.1632-2.6154l-7.7081-0.72948q-2.3893-0.22612-2.6154 2.1632l-0.5156 5.4482q-0.22612 2.3893 2.1632 2.6154l7.7081 0.72948q2.3893 0.22612 2.6154-2.1632z" clip-path="url(#a)" fill="#fff" stroke="#fff"/>
<g clip-path="url(#a)">
<g transform="translate(228.39 660.15) rotate(-84.594) scale(.08 -.08)">
<use xlink:href="#m"/>
</g>
</g>
<path d="m244.38 660.04 0.23337-5.0734q0.11028-2.3975-2.2872-2.5077l-7.7343-0.35577q-2.3975-0.11028-2.5077 2.2872l-0.23337 5.0734q-0.11028 2.3975 2.2872 2.5077l7.7343 0.35577q2.3975 0.11028 2.5077-2.2872z" clip-path="url(#a)" fill="#fff" stroke="#fff"/>
<g clip-path="url(#a)">
<g transform="translate(240.32 659.85) rotate(-87.366) scale(.08 -.08)">
<defs>
<path id="ax" d="m53.516 70.516v-9.625q-5.6094 2.6875-10.594 4-4.9844 1.3281-9.625 1.3281-8.0469 0-12.422-3.125t-4.375-8.8906q0-4.8438 2.9062-7.3125 2.9062-2.4531 11.016-3.9688l5.9531-1.2188q11.031-2.1094 16.281-7.4062t5.25-14.172q0-10.609-7.1094-16.078-7.0938-5.4688-20.812-5.4688-5.1719 0-11.016 1.1719-5.8281 1.1719-12.078 3.4688v10.156q6-3.3594 11.766-5.0781 5.7656-1.7031 11.328-1.7031 8.4375 0 13.031 3.3125 4.5938 3.3281 4.5938 9.4844 0 5.3594-3.2969 8.3906t-10.812 4.5469l-6.0156 1.1719q-11.031 2.1875-15.969 6.875-4.9219 4.6875-4.9219 13.047 0 9.6719 6.8125 15.234t18.766 5.5625q5.1406 0 10.453-0.9375 5.3281-0.92188 10.891-2.7656z"/>
</defs>
<use xlink:href="#ax"/>
</g>
</g>
<path d="m276.64 476.5 2.6732 4.7752q1.1723 2.0942 3.2665 0.92186l6.7559-3.782q2.0942-1.1723 0.92186-3.2665l-2.6732-4.7752q-1.1723-2.0942-3.2665-0.92186l-6.7559 3.782q-2.0942 1.1723-0.92186 3.2665z" clip-path="url(#a)" fill="#fff" stroke="#fff"/>
<g clip-path="url(#a)">
<g transform="translate(280.18 474.51) rotate(60.76) scale(.08 -.08)">
<use xlink:href="#m"/>
</g>
</g>
<path d="m722.13 941.92v33.808q0 2.4 2.4 2.4h7.7425q2.4 0 2.4-2.4v-33.808q0-2.4-2.4-2.4h-7.7425q-2.4 0-2.4 2.4z" clip-path="url(#a)" fill="#fff" stroke="#fff"/>
<g clip-path="url(#a)">
<g transform="translate(726.19 941.92) rotate(90) scale(.08 -.08)">
<defs>
<path id="l" d="m56.203 29.594v-4.3906h-41.312q0.59375-9.2812 5.5938-14.141t13.938-4.8594q5.1719 0 10.031 1.2656t9.6562 3.8125v-8.5q-4.8438-2.0469-9.9219-3.125t-10.297-1.0781q-13.094 0-20.734 7.6094-7.6406 7.625-7.6406 20.625 0 13.422 7.25 21.297 7.25 7.8906 19.562 7.8906 11.031 0 17.453-7.1094 6.4219-7.0938 6.4219-19.297zm-8.9844 2.6406q-0.09375 7.3594-4.125 11.75-4.0312 4.4062-10.672 4.4062-7.5156 0-12.031-4.25t-5.2031-11.969z"/>
<path id="g" d="m41.109 46.297q-1.5156 0.875-3.2969 1.2812-1.7812 0.42188-3.9219 0.42188-7.625 0-11.703-4.9531t-4.0781-14.234v-28.812h-9.0312v54.688h9.0312v-8.5q2.8438 4.9844 7.375 7.3906 4.5469 2.4219 11.047 2.4219 0.92188 0 2.0469-0.125 1.125-0.10938 2.4844-0.35938z"/>
<path id="i" d="m52 44.188q3.375 6.0625 8.0625 8.9375t11.031 2.875q8.5469 0 13.188-5.9844 4.6406-5.9688 4.6406-17v-33.016h-9.0312v32.719q0 7.8594-2.7969 11.656-2.7812 3.8125-8.4844 3.8125-6.9844 0-11.047-4.6406-4.0469-4.625-4.0469-12.641v-30.906h-9.0312v32.719q0 7.9062-2.7812 11.688t-8.5938 3.7812q-6.8906 0-10.953-4.6562-4.0469-4.6562-4.0469-12.625v-30.906h-9.0312v54.688h9.0312v-8.5q3.0781 5.0312 7.375 7.4219t10.203 2.3906q5.9688 0 10.141-3.0312 4.1719-3.0156 6.1719-8.7812z"/>
<path id="k" d="m9.4219 54.688h8.9844v-54.688h-8.9844zm0 21.297h8.9844v-11.391h-8.9844z"/>
<path id="h" d="m54.891 33.016v-33.016h-8.9844v32.719q0 7.7656-3.0312 11.609-3.0312 3.8594-9.0781 3.8594-7.2812 0-11.484-4.6406-4.2031-4.625-4.2031-12.641v-30.906h-9.0312v54.688h9.0312v-8.5q3.2344 4.9375 7.5938 7.375 4.375 2.4375 10.094 2.4375 9.4219 0 14.25-5.8281 4.8438-5.8281 4.8438-17.156z"/>
<path id="f" d="m34.281 27.484q-10.891 0-15.094-2.4844t-4.2031-8.5q0-4.7812 3.1562-7.5938 3.1562-2.7969 8.5625-2.7969 7.4844 0 12 5.2969t4.5156 14.078v2zm17.922 3.7188v-31.203h-8.9844v8.2969q-3.0781-4.9688-7.6719-7.3438t-11.234-2.375q-8.3906 0-13.359 4.7188-4.9531 4.7188-4.9531 12.625 0 9.2188 6.1719 13.906 6.1875 4.6875 18.438 4.6875h12.609v0.89062q0 6.2031-4.0781 9.5938t-11.453 3.3906q-4.6875 0-9.1406-1.125-4.4375-1.125-8.5312-3.375v8.3125q4.9219 1.9062 9.5625 2.8438 4.6406 0.95312 9.0312 0.95312 11.875 0 17.734-6.1562 5.8594-6.1406 5.8594-18.641z"/>
<path id="j" d="m9.4219 75.984h8.9844v-75.984h-8.9844z"/>
</defs>
<use xlink:href="#e"/>
<use x="44.083984" xlink:href="#l"/>
<use x="105.607422" xlink:href="#g"/>
<use x="144.970703" xlink:href="#i"/>
<use x="242.382812" xlink:href="#k"/>
<use x="270.166016" xlink:href="#h"/>
<use x="333.544922" xlink:href="#f"/>
<use x="394.824219" xlink:href="#j"/>
</g>
</g>
<path d="m841.98 722.51 1.5829-5.2386q0.69418-2.2974-1.6032-2.9916l-7.4116-2.2395q-2.2974-0.69418-2.9916 1.6032l-1.5829 5.2386q-0.69418 2.2974 1.6032 2.9916l7.4116 2.2395q2.2974 0.69418 2.9916-1.6032z" clip-path="url(#a)" fill="#fff" stroke="#fff"/>
<g clip-path="url(#a)">
<g transform="translate(838.09 721.33) rotate(-73.187) scale(.08 -.08)">
<use xlink:href="#m"/>
</g>
</g>
<path d="m870.47 721.38 0.70911-4.7713q0.35281-2.3739-2.0211-2.7267l-7.6584-1.1382q-2.3739-0.35281-2.7267 2.0211l-0.70911 4.7713q-0.35281 2.3739 2.0211 2.7267l7.6584 1.1382q2.3739 0.35281 2.7267-2.0211z" clip-path="url(#a)" fill="#fff" stroke="#fff"/>
<g clip-path="url(#a)">
<g transform="translate(866.45 720.78) rotate(-81.547) scale(.08 -.08)">
<use xlink:href="#w"/>
</g>
</g>
<path d="m965.4 600.72 4.3555 3.3133q1.9101 1.4531 3.3632-0.45709l4.6876-6.1622q1.4531-1.9101-0.45709-3.3632l-4.3555-3.3133q-1.9101-1.453-3.3632 0.45709l-4.6876 6.1622q-1.4531 1.9101 0.45709 3.3632z" clip-path="url(#a)" fill="#fff" stroke="#fff"/>
<g clip-path="url(#a)">
<g transform="translate(967.86 597.49) rotate(37.26) scale(.08 -.08)">
<use xlink:href="#m"/>
</g>
</g>
<path d="m887.24 715.21 0.063385 5.8547q0.025982 2.3999 2.4258 2.3739l7.742-0.083819q2.3999-0.025982 2.3739-2.4258l-0.063385-5.8547q-0.025982-2.3999-2.4258-2.3739l-7.742 0.083819q-2.3999 0.025982-2.3739 2.4258z" clip-path="url(#a)" fill="#fff" stroke="#fff"/>
<g clip-path="url(#a)">
<g transform="translate(891.3 715.17) rotate(89.38) scale(.08 -.08)">
<use xlink:href="#v"/>
</g>
</g>
<path d="m1395.3 663.32 2.6535-4.7861q1.1637-2.099-0.93528-3.2627l-6.7714-3.7542q-2.099-1.1637-3.2627 0.93528l-2.6535 4.7861q-1.1637 2.099 0.93528 3.2627l6.7714 3.7542q2.099 1.1637 3.2627-0.93528z" clip-path="url(#a)" fill="#fff" stroke="#fff"/>
<g clip-path="url(#a)">
<g transform="translate(1391.8 661.35) rotate(-60.995) scale(.08 -.08)">
<use xlink:href="#m"/>
</g>
</g>
<path d="m1453 721 0.32127-5.0686q0.15182-2.3952-2.2434-2.547l-7.727-0.48977q-2.3952-0.15182-2.547 2.2434l-0.32127 5.0686q-0.15182 2.3952 2.2434 2.547l7.727 0.48977q2.3952 0.15182 2.547-2.2434z" clip-path="url(#a)" fill="#fff" stroke="#fff"/>
<g clip-path="url(#a)">
<g transform="translate(1448.9 720.75) rotate(-86.373) scale(.08 -.08)">
<use xlink:href="#ax"/>
</g>
</g>
<path d="m1531.1 600.68 4.3331 3.3426q1.9003 1.4659 3.3662-0.4344l4.729-6.1305q1.4659-1.9003-0.4344-3.3662l-4.3331-3.3426q-1.9003-1.4659-3.3662 0.4344l-4.729 6.1305q-1.4659 1.9003 0.4344 3.3662z" clip-path="url(#a)" fill="#fff" stroke="#fff"/>
<g clip-path="url(#a)">
<g transform="translate(1533.6 597.47) rotate(37.647) scale(.08 -.08)">
<use xlink:href="#m"/>
</g>
</g>
<path d="m1311 843.76 1.6098-5.3205q0.69505-2.2972-1.6021-2.9922l-7.4107-2.2423q-2.2972-0.69505-2.9922 1.6021l-1.6098 5.3205q-0.69505 2.2972 1.6021 2.9922l7.4107 2.2423q2.2972 0.69505 2.9922-1.6021z" clip-path="url(#a)" fill="#fff" stroke="#fff"/>
<g clip-path="url(#a)">
<g transform="translate(1307.1 842.58) rotate(-73.166) scale(.08 -.08)">
<defs>
<path id="ae" d="m44.391 34.188q3.1719-1.0781 6.1719-4.5938t6.0312-9.6719l10.016-19.922h-10.609l-9.3125 18.703q-3.625 7.3281-7.0156 9.7188t-9.25 2.3906h-10.75v-30.812h-9.8594v72.906h22.266q12.5 0 18.656-5.2344 6.1562-5.2188 6.1562-15.766 0-6.8906-3.2031-11.438-3.2031-4.5312-9.2969-6.2812zm-24.719 30.609v-25.875h12.406q7.125 0 10.766 3.2969t3.6406 9.6875-3.6406 9.6406-10.766 3.25z"/>
</defs>
<use xlink:href="#ae"/>
</g>
</g>
<path d="m1335.4 838.42 1.6178 5.3469q0.69505 2.2972 2.9922 1.6021l7.4107-2.2423q2.2972-0.69505 1.6021-2.9922l-1.6178-5.3469q-0.69505-2.2972-2.9922-1.6021l-7.4107 2.2423q-2.2972 0.69505-1.6021 2.9922z" clip-path="url(#a)" fill="#fff" stroke="#fff"/>
<g clip-path="url(#a)">
<g transform="translate(1339.3 837.25) rotate(73.166) scale(.08 -.08)">
<use xlink:href="#u"/>
</g>
</g>
<path d="m1429.1 941.92v33.808q0 2.4 2.4 2.4h7.7425q2.4 0 2.4-2.4v-33.808q0-2.4-2.4-2.4h-7.7425q-2.4 0-2.4 2.4z" clip-path="url(#a)" fill="#fff" stroke="#fff"/>
<g clip-path="url(#a)">
<g transform="translate(1433.2 941.92) rotate(90) scale(.08 -.08)">
<use xlink:href="#e"/>
<use x="44.083984" xlink:href="#l"/>
<use x="105.607422" xlink:href="#g"/>
<use x="144.970703" xlink:href="#i"/>
<use x="242.382812" xlink:href="#k"/>
<use x="270.166016" xlink:href="#h"/>
<use x="333.544922" xlink:href="#f"/>
<use x="394.824219" xlink:href="#j"/>
</g>
</g>
<path d="m1568.8 783.81 2.1972-5.136q0.944-2.2066-1.2626-3.1505l-7.1184-3.0454q-2.2066-0.944-3.1505 1.2626l-2.1972 5.136q-0.944 2.2066 1.2626 3.1505l7.1184 3.0454q2.2066 0.944 3.1505-1.2626z" clip-path="url(#a)" fill="#fff" stroke="#fff"/>
<g clip-path="url(#a)">
<g transform="translate(1565.1 782.22) rotate(-66.838) scale(.08 -.08)">
<use xlink:href="#u"/>
</g>
</g>
<path d="m1673.2 721.4 3.6633 3.4833q1.7393 1.6538 3.393-0.085496l5.3351-5.6109q1.6538-1.7393-0.085496-3.393l-3.6633-3.4833q-1.7393-1.6538-3.393 0.085496l-5.3351 5.6109q-1.6538 1.7393 0.085496 3.393z" clip-path="url(#a)" fill="#fff" stroke="#fff"/>
<g clip-path="url(#a)">
<g transform="translate(1676 718.45) rotate(43.557) scale(.08 -.08)">
<defs>
<path id="au" d="m9.8125 72.906h46.094v-8.3125h-36.234v-21.578h34.719v-8.2969h-34.719v-26.422h37.109v-8.2969h-46.969z"/>
</defs>
<use xlink:href="#au"/>
</g>
</g>
<path d="m1609.7 782.31 0.57919-5.8263q0.23741-2.3882-2.1508-2.6256l-7.7045-0.7659q-2.3882-0.23741-2.6256 2.1508l-0.57919 5.8263q-0.23741 2.3882 2.1508 2.6256l7.7045 0.7659q2.3882 0.23741 2.6256-2.1508z" clip-path="url(#a)" fill="#fff" stroke="#fff"/>
<g clip-path="url(#a)">
<g transform="translate(1605.7 781.91) rotate(-84.323) scale(.08 -.08)">
<use xlink:href="#v"/>
</g>
</g>
<path d="m1506.2 941.92v33.808q0 2.4 2.4 2.4h7.7425q2.4 0 2.4-2.4v-33.808q0-2.4-2.4-2.4h-7.7425q-2.4 0-2.4 2.4z" clip-path="url(#a)" fill="#fff" stroke="#fff"/>
<g clip-path="url(#a)">
<g transform="translate(1510.3 941.92) rotate(90) scale(.08 -.08)">
<use xlink:href="#e"/>
<use x="44.083984" xlink:href="#l"/>
<use x="105.607422" xlink:href="#g"/>
<use x="144.970703" xlink:href="#i"/>
<use x="242.382812" xlink:href="#k"/>
<use x="270.166016" xlink:href="#h"/>
<use x="333.544922" xlink:href="#f"/>
<use x="394.824219" xlink:href="#j"/>
</g>
</g>
<path d="m1628.2 846.11 4.851-2.533q2.1274-1.1109 1.0166-3.2383l-3.5837-6.8632q-1.1109-2.1274-3.2383-1.0166l-4.851 2.533q-2.1274 1.1109-1.0165 3.2383l3.5837 6.8632q1.1109 2.1274 3.2383 1.0166z" clip-path="url(#a)" fill="#fff" stroke="#fff"/>
<g clip-path="url(#a)">
<g transform="translate(1626.4 842.5) rotate(-27.572) scale(.08 -.08)">
<use xlink:href="#m"/>
</g>
</g>
<path d="m1712.1 844.83 2.7897-4.808q1.2045-2.0759-0.87141-3.2803l-6.6969-3.8857q-2.0759-1.2045-3.2803 0.87141l-2.7897 4.808q-1.2045 2.0759 0.87141 3.2803l6.6969 3.8857q2.0759 1.2045 3.2803-0.87141z" clip-path="url(#a)" fill="#fff" stroke="#fff"/>
<g clip-path="url(#a)">
<g transform="translate(1708.6 842.79) rotate(-59.877) scale(.08 -.08)">
<use xlink:href="#ae"/>
</g>
</g>
<path d="m1743.3 836.93 0.69717 6.1204q0.27162 2.3846 2.6562 2.113l7.6928-0.87627q2.3846-0.27162 2.113-2.6562l-0.69717-6.1204q-0.27162-2.3846-2.6562-2.113l-7.6928 0.87627q-2.3846 0.27162-2.113 2.6562z" clip-path="url(#a)" fill="#fff" stroke="#fff"/>
<g clip-path="url(#a)">
<g transform="translate(1747.3 836.47) rotate(83.502) scale(.08 -.08)">
<defs>
<path id="be" d="m19.672 64.797v-56.688h11.922q15.094 0 22.094 6.8281 7 6.8438 7 21.594 0 14.641-7 21.453t-22.094 6.8125zm-9.8594 8.1094h20.266q21.188 0 31.094-8.8125 9.9219-8.8125 9.9219-27.562 0-18.859-9.9688-27.703-9.9531-8.8281-31.047-8.8281h-20.266z"/>
</defs>
<use xlink:href="#be"/>
</g>
</g>
<path d="m1786.4 841.41 3.0716 3.7194q1.5282 1.8505 3.3788 0.3223l5.9699-4.9302q1.8505-1.5282 0.3223-3.3788l-3.0716-3.7194q-1.5282-1.8505-3.3788-0.3223l-5.9699 4.9302q-1.8505 1.5282-0.3223 3.3788z" clip-path="url(#a)" fill="#fff" stroke="#fff"/>
<g clip-path="url(#a)">
<g transform="translate(1789.5 838.83) rotate(50.449) scale(.08 -.08)">
<use xlink:href="#w"/>
</g>
</g>
<path d="m1830.8 842.97 4.9251 3.1661q2.0188 1.2978 3.3166-0.72102l4.1868-6.5128q1.2978-2.0188-0.72102-3.3166l-4.9251-3.1661q-2.0188-1.2978-3.3166 0.72102l-4.1868 6.5128q-1.2978 2.0188 0.72102 3.3166z" clip-path="url(#a)" fill="#fff" stroke="#fff"/>
<g clip-path="url(#a)">
<g transform="translate(1833 839.55) rotate(32.735) scale(.08 -.08)">
<use xlink:href="#v"/>
</g>
</g>
<path d="m1666.9 941.92v33.808q0 2.4 2.4 2.4h7.7425q2.4 0 2.4-2.4v-33.808q0-2.4-2.4-2.4h-7.7425q-2.4 0-2.4 2.4z" clip-path="url(#a)" fill="#fff" stroke="#fff"/>
<g clip-path="url(#a)">
<g transform="translate(1671 941.92) rotate(90) scale(.08 -.08)">
<use xlink:href="#e"/>
<use x="44.083984" xlink:href="#l"/>
<use x="105.607422" xlink:href="#g"/>
<use x="144.970703" xlink:href="#i"/>
<use x="242.382812" xlink:href="#k"/>
<use x="270.166016" xlink:href="#h"/>
<use x="333.544922" xlink:href="#f"/>
<use x="394.824219" xlink:href="#j"/>
</g>
</g>
<path d="m1750.5 941.92v33.808q0 2.4 2.4 2.4h7.7425q2.4 0 2.4-2.4v-33.808q0-2.4-2.4-2.4h-7.7425q-2.4 0-2.4 2.4z" clip-path="url(#a)" fill="#fff" stroke="#fff"/>
<g clip-path="url(#a)">
<g transform="translate(1754.5 941.92) rotate(90) scale(.08 -.08)">
<use xlink:href="#e"/>
<use x="44.083984" xlink:href="#l"/>
<use x="105.607422" xlink:href="#g"/>
<use x="144.970703" xlink:href="#i"/>
<use x="242.382812" xlink:href="#k"/>
<use x="270.166016" xlink:href="#h"/>
<use x="333.544922" xlink:href="#f"/>
<use x="394.824219" xlink:href="#j"/>
</g>
</g>
<path d="m1836.2 941.92v33.808q0 2.4 2.4 2.4h7.7425q2.4 0 2.4-2.4v-33.808q0-2.4-2.4-2.4h-7.7425q-2.4 0-2.4 2.4z" clip-path="url(#a)" fill="#fff" stroke="#fff"/>
<g clip-path="url(#a)">
<g transform="translate(1840.2 941.92) rotate(90) scale(.08 -.08)">
<use xlink:href="#e"/>
<use x="44.083984" xlink:href="#l"/>
<use x="105.607422" xlink:href="#g"/>
<use x="144.970703" xlink:href="#i"/>
<use x="242.382812" xlink:href="#k"/>
<use x="270.166016" xlink:href="#h"/>
<use x="333.544922" xlink:href="#f"/>
<use x="394.824219" xlink:href="#j"/>
</g>
</g>
<path d="m1281.3 941.92v33.808q0 2.4 2.4 2.4h7.7425q2.4 0 2.4-2.4v-33.808q0-2.4-2.4-2.4h-7.7425q-2.4 0-2.4 2.4z" clip-path="url(#a)" fill="#fff" stroke="#fff"/>
<g clip-path="url(#a)">
<g transform="translate(1285.3 941.92) rotate(90) scale(.08 -.08)">
<use xlink:href="#e"/>
<use x="44.083984" xlink:href="#l"/>
<use x="105.607422" xlink:href="#g"/>
<use x="144.970703" xlink:href="#i"/>
<use x="242.382812" xlink:href="#k"/>
<use x="270.166016" xlink:href="#h"/>
<use x="333.544922" xlink:href="#f"/>
<use x="394.824219" xlink:href="#j"/>
</g>
</g>
<path d="m1354.1 941.92v33.808q0 2.4 2.4 2.4h7.7425q2.4 0 2.4-2.4v-33.808q0-2.4-2.4-2.4h-7.7425q-2.4 0-2.4 2.4z" clip-path="url(#a)" fill="#fff" stroke="#fff"/>
<g clip-path="url(#a)">
<g transform="translate(1358.2 941.92) rotate(90) scale(.08 -.08)">
<use xlink:href="#e"/>
<use x="44.083984" xlink:href="#l"/>
<use x="105.607422" xlink:href="#g"/>
<use x="144.970703" xlink:href="#i"/>
<use x="242.382812" xlink:href="#k"/>
<use x="270.166016" xlink:href="#h"/>
<use x="333.544922" xlink:href="#f"/>
<use x="394.824219" xlink:href="#j"/>
</g>
</g>
<path d="m775.69 941.92v33.808q0 2.4 2.4 2.4h7.7425q2.4 0 2.4-2.4v-33.808q0-2.4-2.4-2.4h-7.7425q-2.4 0-2.4 2.4z" clip-path="url(#a)" fill="#fff" stroke="#fff"/>
<g clip-path="url(#a)">
<g transform="translate(779.75 941.92) rotate(90) scale(.08 -.08)">
<use xlink:href="#e"/>
<use x="44.083984" xlink:href="#l"/>
<use x="105.607422" xlink:href="#g"/>
<use x="144.970703" xlink:href="#i"/>
<use x="242.382812" xlink:href="#k"/>
<use x="270.166016" xlink:href="#h"/>
<use x="333.544922" xlink:href="#f"/>
<use x="394.824219" xlink:href="#j"/>
</g>
</g>
<path d="m831.39 941.92v33.808q0 2.4 2.4 2.4h7.7425q2.4 0 2.4-2.4v-33.808q0-2.4-2.4-2.4h-7.7425q-2.4 0-2.4 2.4z" clip-path="url(#a)" fill="#fff" stroke="#fff"/>
<g clip-path="url(#a)">
<g transform="translate(835.45 941.92) rotate(90) scale(.08 -.08)">
<use xlink:href="#e"/>
<use x="44.083984" xlink:href="#l"/>
<use x="105.607422" xlink:href="#g"/>
<use x="144.970703" xlink:href="#i"/>
<use x="242.382812" xlink:href="#k"/>
<use x="270.166016" xlink:href="#h"/>
<use x="333.544922" xlink:href="#f"/>
<use x="394.824219" xlink:href="#j"/>
</g>
</g>
<path d="m1008.1 783.67 2.0487-5.1675q0.88451-2.2311-1.3466-3.1156l-7.1975-2.8535q-2.2311-0.88451-3.1156 1.3465l-2.0487 5.1675q-0.88451 2.2311 1.3466 3.1156l7.1975 2.8535q2.2311 0.88451 3.1156-1.3466z" clip-path="url(#a)" fill="#fff" stroke="#fff"/>
<g clip-path="url(#a)">
<g transform="translate(1004.4 782.18) rotate(-68.374) scale(.08 -.08)">
<use xlink:href="#ae"/>
</g>
</g>
<path d="m1056.7 721.4 0.064591-5.4721q0.028326-2.3998-2.3715-2.4282l-7.742-0.091383q-2.3998-0.028326-2.4282 2.3715l-0.06459 5.4721q-0.028327 2.3998 2.3715 2.4282l7.742 0.091383q2.3998 0.028326 2.4282-2.3715z" clip-path="url(#a)" fill="#fff" stroke="#fff"/>
<g clip-path="url(#a)">
<g transform="translate(1052.6 721.36) rotate(-89.324) scale(.08 -.08)">
<use xlink:href="#m"/>
</g>
</g>
<path d="m1093 778.88 1.8006 4.4751q0.89589 2.2265 3.1224 1.3306l7.1828-2.8902q2.2265-0.89589 1.3306-3.1224l-1.8006-4.4751q-0.89589-2.2265-3.1224-1.3306l-7.1828 2.8902q-2.2265 0.89589-1.3306 3.1224z" clip-path="url(#a)" fill="#fff" stroke="#fff"/>
<g clip-path="url(#a)">
<g transform="translate(1096.8 777.37) rotate(68.082) scale(.08 -.08)">
<use xlink:href="#w"/>
</g>
</g>
<path d="m949.22 941.92v33.808q0 2.4 2.4 2.4h7.7425q2.4 0 2.4-2.4v-33.808q0-2.4-2.4-2.4h-7.7425q-2.4 0-2.4 2.4z" clip-path="url(#a)" fill="#fff" stroke="#fff"/>
<g clip-path="url(#a)">
<g transform="translate(953.28 941.92) rotate(90) scale(.08 -.08)">
<use xlink:href="#e"/>
<use x="44.083984" xlink:href="#l"/>
<use x="105.607422" xlink:href="#g"/>
<use x="144.970703" xlink:href="#i"/>
<use x="242.382812" xlink:href="#k"/>
<use x="270.166016" xlink:href="#h"/>
<use x="333.544922" xlink:href="#f"/>
<use x="394.824219" xlink:href="#j"/>
</g>
</g>
<path d="m1038.9 843.94 1.6244-6.0844q0.61905-2.3188-1.6997-2.9378l-7.4805-1.9971q-2.3188-0.61905-2.9378 1.6997l-1.6244 6.0844q-0.61905 2.3188 1.6997 2.9378l7.4805 1.9971q2.3188 0.61905 2.9378-1.6997z" clip-path="url(#a)" fill="#fff" stroke="#fff"/>
<g clip-path="url(#a)">
<g transform="translate(1035 842.89) rotate(-75.052) scale(.08 -.08)">
<defs>
<path id="bd" d="m39.406 66.219q-10.75 0-17.078-8.0156-6.3125-8-6.3125-21.828 0-13.766 6.3125-21.781 6.3281-8 17.078-8 10.734 0 17.016 8 6.2812 8.0156 6.2812 21.781 0 13.828-6.2812 21.828-6.2812 8.0156-17.016 8.0156zm13.812-64.906 13-14.203h-11.922l-10.797 11.672q-1.6094-0.09375-2.4688-0.14062-0.84375-0.0625-1.625-0.0625-15.375 0-24.594 10.281-9.2031 10.281-9.2031 27.516 0 17.281 9.2031 27.562 9.2188 10.281 24.594 10.281 15.328 0 24.5-10.281 9.1875-10.281 9.1875-27.562 0-12.688-5.1094-21.734-5.0938-9.0312-14.766-13.328z"/>
</defs>
<use xlink:href="#bd"/>
</g>
</g>
<path d="m1059 838.2 1.4409 5.3972q0.61905 2.3188 2.9378 1.6997l7.4805-1.9971q2.3188-0.61905 1.6997-2.9378l-1.4409-5.3972q-0.61905-2.3188-2.9378-1.6997l-7.4805 1.9971q-2.3188 0.61905-1.6997 2.9378z" clip-path="url(#a)" fill="#fff" stroke="#fff"/>
<g clip-path="url(#a)">
<g transform="translate(1063 837.15) rotate(75.052) scale(.08 -.08)">
<use xlink:href="#u"/>
</g>
</g>
<path d="m1142 941.92v33.808q0 2.4 2.4 2.4h7.7425q2.4 0 2.4-2.4v-33.808q0-2.4-2.4-2.4h-7.7425q-2.4 0-2.4 2.4z" clip-path="url(#a)" fill="#fff" stroke="#fff"/>
<g clip-path="url(#a)">
<g transform="translate(1146.1 941.92) rotate(90) scale(.08 -.08)">
<use xlink:href="#e"/>
<use x="44.083984" xlink:href="#l"/>
<use x="105.607422" xlink:href="#g"/>
<use x="144.970703" xlink:href="#i"/>
<use x="242.382812" xlink:href="#k"/>
<use x="270.166016" xlink:href="#h"/>
<use x="333.544922" xlink:href="#f"/>
<use x="394.824219" xlink:href="#j"/>
</g>
</g>
<path d="m1011.3 941.92v33.808q0 2.4 2.4 2.4h7.7425q2.4 0 2.4-2.4v-33.808q0-2.4-2.4-2.4h-7.7425q-2.4 0-2.4 2.4z" clip-path="url(#a)" fill="#fff" stroke="#fff"/>
<g clip-path="url(#a)">
<g transform="translate(1015.4 941.92) rotate(90) scale(.08 -.08)">
<use xlink:href="#e"/>
<use x="44.083984" xlink:href="#l"/>
<use x="105.607422" xlink:href="#g"/>
<use x="144.970703" xlink:href="#i"/>
<use x="242.382812" xlink:href="#k"/>
<use x="270.166016" xlink:href="#h"/>
<use x="333.544922" xlink:href="#f"/>
<use x="394.824219" xlink:href="#j"/>
</g>
</g>
<path d="m1075.6 941.92v33.808q0 2.4 2.4 2.4h7.7425q2.4 0 2.4-2.4v-33.808q0-2.4-2.4-2.4h-7.7425q-2.4 0-2.4 2.4z" clip-path="url(#a)" fill="#fff" stroke="#fff"/>
<g clip-path="url(#a)">
<g transform="translate(1079.7 941.92) rotate(90) scale(.08 -.08)">
<use xlink:href="#e"/>
<use x="44.083984" xlink:href="#l"/>
<use x="105.607422" xlink:href="#g"/>
<use x="144.970703" xlink:href="#i"/>
<use x="242.382812" xlink:href="#k"/>
<use x="270.166016" xlink:href="#h"/>
<use x="333.544922" xlink:href="#f"/>
<use x="394.824219" xlink:href="#j"/>
</g>
</g>
<path d="m197.25 941.92v33.808q0 2.4 2.4 2.4h7.7425q2.4 0 2.4-2.4v-33.808q0-2.4-2.4-2.4h-7.7425q-2.4 0-2.4 2.4z" clip-path="url(#a)" fill="#fff" stroke="#fff"/>
<g clip-path="url(#a)">
<g transform="translate(201.32 941.92) rotate(90) scale(.08 -.08)">
<use xlink:href="#e"/>
<use x="44.083984" xlink:href="#l"/>
<use x="105.607422" xlink:href="#g"/>
<use x="144.970703" xlink:href="#i"/>
<use x="242.382812" xlink:href="#k"/>
<use x="270.166016" xlink:href="#h"/>
<use x="333.544922" xlink:href="#f"/>
<use x="394.824219" xlink:href="#j"/>
</g>
</g>
<path d="m220.82 941.92v33.808q0 2.4 2.4 2.4h7.7425q2.4 0 2.4-2.4v-33.808q0-2.4-2.4-2.4h-7.7425q-2.4 0-2.4 2.4z" clip-path="url(#a)" fill="#fff" stroke="#fff"/>
<g clip-path="url(#a)">
<g transform="translate(224.88 941.92) rotate(90) scale(.08 -.08)">
<use xlink:href="#e"/>
<use x="44.083984" xlink:href="#l"/>
<use x="105.607422" xlink:href="#g"/>
<use x="144.970703" xlink:href="#i"/>
<use x="242.382812" xlink:href="#k"/>
<use x="270.166016" xlink:href="#h"/>
<use x="333.544922" xlink:href="#f"/>
<use x="394.824219" xlink:href="#j"/>
</g>
</g>
<path d="m290.89 721.66 0.88775-4.9764q0.42148-2.3627-1.9412-2.7842l-7.6222-1.3597q-2.3627-0.42148-2.7842 1.9412l-0.88775 4.9764q-0.42148 2.3627 1.9412 2.7842l7.6222 1.3597q2.3627 0.42148 2.7842-1.9412z" clip-path="url(#a)" fill="#fff" stroke="#fff"/>
<g clip-path="url(#a)">
<g transform="translate(286.89 720.95) rotate(-79.885) scale(.08 -.08)">
<use xlink:href="#au"/>
</g>
</g>
<path d="m305.04 721.49 0.56477-5.5576q0.24264-2.3877-2.1451-2.6303l-7.7028-0.78277q-2.3877-0.24264-2.6303 2.1451l-0.56477 5.5576q-0.24264 2.3877 2.1451 2.6303l7.7028 0.78277q2.3877 0.24264 2.6303-2.1451z" clip-path="url(#a)" fill="#fff" stroke="#fff"/>
<g clip-path="url(#a)">
<g transform="translate(301 721.08) rotate(-84.197) scale(.08 -.08)">
<use xlink:href="#u"/>
</g>
</g>
<path d="m365.38 599.68 3.3676 3.7699q1.5989 1.7899 3.3887 0.19099l5.7742-5.158q1.7899-1.5989 0.19099-3.3887l-3.3676-3.7699q-1.5989-1.7899-3.3887-0.19099l-5.7742 5.158q-1.7899 1.5989-0.19099 3.3887z" clip-path="url(#a)" fill="#fff" stroke="#fff"/>
<g clip-path="url(#a)">
<g transform="translate(368.41 596.97) rotate(48.226) scale(.08 -.08)">
<use xlink:href="#au"/>
</g>
</g>
<path d="m320.29 721.12 0.11091-5.8539q0.045463-2.3996-2.3541-2.445l-7.7411-0.14667q-2.3996-0.045463-2.445 2.3541l-0.11091 5.8539q-0.045463 2.3996 2.3541 2.445l7.7411 0.14666q2.3996 0.045463 2.445-2.3541z" clip-path="url(#a)" fill="#fff" stroke="#fff"/>
<g clip-path="url(#a)">
<g transform="translate(316.23 721.04) rotate(-88.915) scale(.08 -.08)">
<use xlink:href="#v"/>
</g>
</g>
<path d="m246.53 941.92v33.808q0 2.4 2.4 2.4h7.7425q2.4 0 2.4-2.4v-33.808q0-2.4-2.4-2.4h-7.7425q-2.4 0-2.4 2.4z" clip-path="url(#a)" fill="#fff" stroke="#fff"/>
<g clip-path="url(#a)">
<g transform="translate(250.59 941.92) rotate(90) scale(.08 -.08)">
<use xlink:href="#e"/>
<use x="44.083984" xlink:href="#l"/>
<use x="105.607422" xlink:href="#g"/>
<use x="144.970703" xlink:href="#i"/>
<use x="242.382812" xlink:href="#k"/>
<use x="270.166016" xlink:href="#h"/>
<use x="333.544922" xlink:href="#f"/>
<use x="394.824219" xlink:href="#j"/>
</g>
</g>
<path d="m274.38 941.92v33.808q0 2.4 2.4 2.4h7.7425q2.4 0 2.4-2.4v-33.808q0-2.4-2.4-2.4h-7.7425q-2.4 0-2.4 2.4z" clip-path="url(#a)" fill="#fff" stroke="#fff"/>
<g clip-path="url(#a)">
<g transform="translate(278.44 941.92) rotate(90) scale(.08 -.08)">
<use xlink:href="#e"/>
<use x="44.083984" xlink:href="#l"/>
<use x="105.607422" xlink:href="#g"/>
<use x="144.970703" xlink:href="#i"/>
<use x="242.382812" xlink:href="#k"/>
<use x="270.166016" xlink:href="#h"/>
<use x="333.544922" xlink:href="#f"/>
<use x="394.824219" xlink:href="#j"/>
</g>
</g>
<path d="m393.67 724.21 2.8707-4.7922q1.2333-2.0589-0.82554-3.2922l-6.642-3.9787q-2.0589-1.2333-3.2922 0.82554l-2.8707 4.7922q-1.2333 2.0589 0.82554 3.2922l6.642 3.9787q2.0589 1.2333 3.2922-0.82554z" clip-path="url(#a)" fill="#fff" stroke="#fff"/>
<g clip-path="url(#a)">
<g transform="translate(390.19 722.13) rotate(-59.077) scale(.08 -.08)">
<use xlink:href="#u"/>
</g>
</g>
<path d="m442.32 718.23 2.0008 5.2156q0.8596 2.2408 3.1004 1.3812l7.2288-2.7731q2.2408-0.8596 1.3812-3.1004l-2.0008-5.2156q-0.8596-2.2408-3.1004-1.3812l-7.2288 2.7731q-2.2408 0.8596-1.3812 3.1004z" clip-path="url(#a)" fill="#fff" stroke="#fff"/>
<g clip-path="url(#a)">
<g transform="translate(446.12 716.78) rotate(69.012) scale(.08 -.08)">
<use xlink:href="#u"/>
</g>
</g>
<path d="m432.45 776.54 0.62862 5.8212q0.25768 2.3861 2.6438 2.1285l7.6977-0.83127q2.3861-0.25768 2.1285-2.6438l-0.62862-5.8212q-0.25768-2.3861-2.6438-2.1285l-7.6977 0.83127q-2.3861 0.25768-2.1285 2.6438z" clip-path="url(#a)" fill="#fff" stroke="#fff"/>
<g clip-path="url(#a)">
<g transform="translate(436.49 776.11) rotate(83.837) scale(.08 -.08)">
<use xlink:href="#v"/>
</g>
</g>
<path d="m321.02 844.87 2.8332-4.682q1.2425-2.0533-0.81077-3.2959l-6.6241-4.0085q-2.0533-1.2425-3.2959 0.81077l-2.8332 4.682q-1.2425 2.0533 0.81077 3.2959l6.6241 4.0085q2.0533 1.2425 3.2959-0.81077z" clip-path="url(#a)" fill="#fff" stroke="#fff"/>
<g clip-path="url(#a)">
<g transform="translate(317.54 842.76) rotate(-58.82) scale(.08 -.08)">
<use xlink:href="#m"/>
</g>
</g>
<path d="m354.13 842.6 0.49273-5.5369q0.21274-2.3906-2.1778-2.6033l-7.712-0.6863q-2.3906-0.21274-2.6033 2.1778l-0.49273 5.5369q-0.21274 2.3906 2.1778 2.6033l7.712 0.6863q2.3906 0.21274 2.6033-2.1778z" clip-path="url(#a)" fill="#fff" stroke="#fff"/>
<g clip-path="url(#a)">
<g transform="translate(350.08 842.24) rotate(-84.915) scale(.08 -.08)">
<use xlink:href="#ae"/>
</g>
</g>
<path d="m358.59 837.8 1.0514 5.3705q0.46112 2.3553 2.8164 1.8942l7.5982-1.4876q2.3553-0.46112 1.8942-2.8164l-1.0514-5.3705q-0.46112-2.3553-2.8164-1.8942l-7.5982 1.4876q-2.3553 0.46112-1.8942 2.8164z" clip-path="url(#a)" fill="#fff" stroke="#fff"/>
<g clip-path="url(#a)">
<g transform="translate(362.58 837.02) rotate(78.923) scale(.08 -.08)">
<use xlink:href="#m"/>
</g>
</g>
<path d="m376.79 839.92 2.1515 4.3173q1.0705 2.148 3.2185 1.0776l6.9297-3.4534q2.148-1.0705 1.0776-3.2185l-2.1515-4.3173q-1.0705-2.148-3.2185-1.0776l-6.9297 3.4534q-2.148 1.0705-1.0776 3.2185z" clip-path="url(#a)" fill="#fff" stroke="#fff"/>
<g clip-path="url(#a)">
<g transform="translate(380.43 838.11) rotate(63.511) scale(.08 -.08)">
<use xlink:href="#w"/>
</g>
</g>
<path d="m377.54 846.05 4.6349-2.9096q2.0327-1.276 0.75662-3.3087l-4.1166-6.5574q-1.276-2.0327-3.3087-0.75662l-4.6349 2.9096q-2.0327 1.276-0.75662 3.3087l4.1166 6.5574q1.276 2.0327 3.3087 0.75662z" clip-path="url(#a)" fill="#fff" stroke="#fff"/>
<g clip-path="url(#a)">
<g transform="translate(375.37 842.6) rotate(-32.119) scale(.08 -.08)">
<use xlink:href="#m"/>
</g>
</g>
<path d="m475.92 837.58 0.92674 5.481q0.40012 2.3664 2.7665 1.9663l7.6341-1.2908q2.3664-0.40012 1.9663-2.7665l-0.92674-5.481q-0.40012-2.3664-2.7665-1.9663l-7.6341 1.2908q-2.3664 0.40012-1.9663 2.7665z" clip-path="url(#a)" fill="#fff" stroke="#fff"/>
<g clip-path="url(#a)">
<g transform="translate(479.93 836.91) rotate(80.403) scale(.08 -.08)">
<use xlink:href="#ae"/>
</g>
</g>
<path d="m497.16 839.77 2.544 4.8452q1.1157 2.1249 3.2406 1.0092l6.8551-3.5992q2.1249-1.1157 1.0092-3.2406l-2.544-4.8452q-1.1157-2.1249-3.2406-1.0092l-6.8551 3.5992q-2.1249 1.1157-1.0092 3.2406z" clip-path="url(#a)" fill="#fff" stroke="#fff"/>
<g clip-path="url(#a)">
<g transform="translate(500.76 837.88) rotate(62.298) scale(.08 -.08)">
<use xlink:href="#m"/>
</g>
</g>
<path d="m520.21 841.68 3.2246 3.5876q1.6043 1.785 3.3893 0.18062l5.7584-5.1757q1.785-1.6043 0.18062-3.3893l-3.2246-3.5876q-1.6043-1.785-3.3893-0.18062l-5.7584 5.1757q-1.785 1.6043-0.18062 3.3893z" clip-path="url(#a)" fill="#fff" stroke="#fff"/>
<g clip-path="url(#a)">
<g transform="translate(523.23 838.96) rotate(48.051) scale(.08 -.08)">
<use xlink:href="#w"/>
</g>
</g>
<path d="m486.47 941.92v33.808q0 2.4 2.4 2.4h7.7425q2.4 0 2.4-2.4v-33.808q0-2.4-2.4-2.4h-7.7425q-2.4 0-2.4 2.4z" clip-path="url(#a)" fill="#fff" stroke="#fff"/>
<g clip-path="url(#a)">
<g transform="translate(490.53 941.92) rotate(90) scale(.08 -.08)">
<use xlink:href="#e"/>
<use x="44.083984" xlink:href="#l"/>
<use x="105.607422" xlink:href="#g"/>
<use x="144.970703" xlink:href="#i"/>
<use x="242.382812" xlink:href="#k"/>
<use x="270.166016" xlink:href="#h"/>
<use x="333.544922" xlink:href="#f"/>
<use x="394.824219" xlink:href="#j"/>
</g>
</g>
<path d="m529.32 941.92v33.808q0 2.4 2.4 2.4h7.7425q2.4 0 2.4-2.4v-33.808q0-2.4-2.4-2.4h-7.7425q-2.4 0-2.4 2.4z" clip-path="url(#a)" fill="#fff" stroke="#fff"/>
<g clip-path="url(#a)">
<g transform="translate(533.38 941.92) rotate(90) scale(.08 -.08)">
<use xlink:href="#e"/>
<use x="44.083984" xlink:href="#l"/>
<use x="105.607422" xlink:href="#g"/>
<use x="144.970703" xlink:href="#i"/>
<use x="242.382812" xlink:href="#k"/>
<use x="270.166016" xlink:href="#h"/>
<use x="333.544922" xlink:href="#f"/>
<use x="394.824219" xlink:href="#j"/>
</g>
</g>
<path d="m574.31 941.92v33.808q0 2.4 2.4 2.4h7.7425q2.4 0 2.4-2.4v-33.808q0-2.4-2.4-2.4h-7.7425q-2.4 0-2.4 2.4z" clip-path="url(#a)" fill="#fff" stroke="#fff"/>
<g clip-path="url(#a)">
<g transform="translate(578.37 941.92) rotate(90) scale(.08 -.08)">
<use xlink:href="#e"/>
<use x="44.083984" xlink:href="#l"/>
<use x="105.607422" xlink:href="#g"/>
<use x="144.970703" xlink:href="#i"/>
<use x="242.382812" xlink:href="#k"/>
<use x="270.166016" xlink:href="#h"/>
<use x="333.544922" xlink:href="#f"/>
<use x="394.824219" xlink:href="#j"/>
</g>
</g>
<path d="m336.51 941.92v33.808q0 2.4 2.4 2.4h7.7425q2.4 0 2.4-2.4v-33.808q0-2.4-2.4-2.4h-7.7425q-2.4 0-2.4 2.4z" clip-path="url(#a)" fill="#fff" stroke="#fff"/>
<g clip-path="url(#a)">
<g transform="translate(340.57 941.92) rotate(90) scale(.08 -.08)">
<use xlink:href="#e"/>
<use x="44.083984" xlink:href="#l"/>
<use x="105.607422" xlink:href="#g"/>
<use x="144.970703" xlink:href="#i"/>
<use x="242.382812" xlink:href="#k"/>
<use x="270.166016" xlink:href="#h"/>
<use x="333.544922" xlink:href="#f"/>
<use x="394.824219" xlink:href="#j"/>
</g>
</g>
<path d="m370.78 941.92v33.808q0 2.4 2.4 2.4h7.7425q2.4 0 2.4-2.4v-33.808q0-2.4-2.4-2.4h-7.7425q-2.4 0-2.4 2.4z" clip-path="url(#a)" fill="#fff" stroke="#fff"/>
<g clip-path="url(#a)">
<g transform="translate(374.85 941.92) rotate(90) scale(.08 -.08)">
<use xlink:href="#e"/>
<use x="44.083984" xlink:href="#l"/>
<use x="105.607422" xlink:href="#g"/>
<use x="144.970703" xlink:href="#i"/>
<use x="242.382812" xlink:href="#k"/>
<use x="270.166016" xlink:href="#h"/>
<use x="333.544922" xlink:href="#f"/>
<use x="394.824219" xlink:href="#j"/>
</g>
</g>
<path d="m407.2 941.92v33.808q0 2.4 2.4 2.4h7.7425q2.4 0 2.4-2.4v-33.808q0-2.4-2.4-2.4h-7.7425q-2.4 0-2.4 2.4z" clip-path="url(#a)" fill="#fff" stroke="#fff"/>
<g clip-path="url(#a)">
<g transform="translate(411.27 941.92) rotate(90) scale(.08 -.08)">
<use xlink:href="#e"/>
<use x="44.083984" xlink:href="#l"/>
<use x="105.607422" xlink:href="#g"/>
<use x="144.970703" xlink:href="#i"/>
<use x="242.382812" xlink:href="#k"/>
<use x="270.166016" xlink:href="#h"/>
<use x="333.544922" xlink:href="#f"/>
<use x="394.824219" xlink:href="#j"/>
</g>
</g>
<path d="m156.55 941.92v33.808q0 2.4 2.4 2.4h7.7425q2.4 0 2.4-2.4v-33.808q0-2.4-2.4-2.4h-7.7425q-2.4 0-2.4 2.4z" clip-path="url(#a)" fill="#fff" stroke="#fff"/>
<g clip-path="url(#a)">
<g transform="translate(160.61 941.92) rotate(90) scale(.08 -.08)">
<use xlink:href="#e"/>
<use x="44.083984" xlink:href="#l"/>
<use x="105.607422" xlink:href="#g"/>
<use x="144.970703" xlink:href="#i"/>
<use x="242.382812" xlink:href="#k"/>
<use x="270.166016" xlink:href="#h"/>
<use x="333.544922" xlink:href="#f"/>
<use x="394.824219" xlink:href="#j"/>
</g>
</g>
<path d="m175.83 941.92v33.808q0 2.4 2.4 2.4h7.7425q2.4 0 2.4-2.4v-33.808q0-2.4-2.4-2.4h-7.7425q-2.4 0-2.4 2.4z" clip-path="url(#a)" fill="#fff" stroke="#fff"/>
<g clip-path="url(#a)">
<g transform="translate(179.89 941.92) rotate(90) scale(.08 -.08)">
<use xlink:href="#e"/>
<use x="44.083984" xlink:href="#l"/>
<use x="105.607422" xlink:href="#g"/>
<use x="144.970703" xlink:href="#i"/>
<use x="242.382812" xlink:href="#k"/>
<use x="270.166016" xlink:href="#h"/>
<use x="333.544922" xlink:href="#f"/>
<use x="394.824219" xlink:href="#j"/>
</g>
</g>
<path d="m85.85 941.92v33.808q0 2.4 2.4 2.4h7.7425q2.4 0 2.4-2.4v-33.808q0-2.4-2.4-2.4h-7.7425q-2.4 0-2.4 2.4z" clip-path="url(#a)" fill="#fff" stroke="#fff"/>
<g clip-path="url(#a)">
<g transform="translate(89.914 941.92) rotate(90) scale(.08 -.08)">
<use xlink:href="#e"/>
<use x="44.083984" xlink:href="#l"/>
<use x="105.607422" xlink:href="#g"/>
<use x="144.970703" xlink:href="#i"/>
<use x="242.382812" xlink:href="#k"/>
<use x="270.166016" xlink:href="#h"/>
<use x="333.544922" xlink:href="#f"/>
<use x="394.824219" xlink:href="#j"/>
</g>
</g>
<path d="m92.277 941.92v33.808q0 2.4 2.4 2.4h7.7425q2.4 0 2.4-2.4v-33.808q0-2.4-2.4-2.4h-7.7425q-2.4 0-2.4 2.4z" clip-path="url(#a)" fill="#fff" stroke="#fff"/>
<g clip-path="url(#a)">
<g transform="translate(96.341 941.92) rotate(90) scale(.08 -.08)">
<use xlink:href="#e"/>
<use x="44.083984" xlink:href="#l"/>
<use x="105.607422" xlink:href="#g"/>
<use x="144.970703" xlink:href="#i"/>
<use x="242.382812" xlink:href="#k"/>
<use x="270.166016" xlink:href="#h"/>
<use x="333.544922" xlink:href="#f"/>
<use x="394.824219" xlink:href="#j"/>
</g>
</g>
<path d="m100.85 941.92v33.808q0 2.4 2.4 2.4h7.7425q2.4 0 2.4-2.4v-33.808q0-2.4-2.4-2.4h-7.7425q-2.4 0-2.4 2.4z" clip-path="url(#a)" fill="#fff" stroke="#fff"/>
<g clip-path="url(#a)">
<g transform="translate(104.91 941.92) rotate(90) scale(.08 -.08)">
<use xlink:href="#e"/>
<use x="44.083984" xlink:href="#l"/>
<use x="105.607422" xlink:href="#g"/>
<use x="144.970703" xlink:href="#i"/>
<use x="242.382812" xlink:href="#k"/>
<use x="270.166016" xlink:href="#h"/>
<use x="333.544922" xlink:href="#f"/>
<use x="394.824219" xlink:href="#j"/>
</g>
</g>
<path d="m127.16 842.39 0.29638-5.5508q0.12796-2.3966-2.2686-2.5246l-7.7315-0.41282q-2.3966-0.12796-2.5246 2.2686l-0.29638 5.5508q-0.12796 2.3966 2.2686 2.5246l7.7315 0.41282q2.3966 0.12796 2.5246-2.2686z" clip-path="url(#a)" fill="#fff" stroke="#fff"/>
<g clip-path="url(#a)">
<g transform="translate(123.1 842.17) rotate(-86.944) scale(.08 -.08)">
<use xlink:href="#ae"/>
</g>
</g>
<path d="m121.06 836.82 0.29785 5.5783q0.12796 2.3966 2.5246 2.2686l7.7315-0.41282q2.3966-0.12796 2.2686-2.5246l-0.29785-5.5783q-0.12796-2.3966-2.5246-2.2686l-7.7315 0.41282q-2.3966 0.12796-2.2686 2.5246z" clip-path="url(#a)" fill="#fff" stroke="#fff"/>
<g clip-path="url(#a)">
<g transform="translate(125.12 836.61) rotate(86.944) scale(.08 -.08)">
<use xlink:href="#u"/>
</g>
</g>
<path d="m111.56 941.92v33.808q0 2.4 2.4 2.4h7.7425q2.4 0 2.4-2.4v-33.808q0-2.4-2.4-2.4h-7.7425q-2.4 0-2.4 2.4z" clip-path="url(#a)" fill="#fff" stroke="#fff"/>
<g clip-path="url(#a)">
<g transform="translate(115.62 941.92) rotate(90) scale(.08 -.08)">
<use xlink:href="#e"/>
<use x="44.083984" xlink:href="#l"/>
<use x="105.607422" xlink:href="#g"/>
<use x="144.970703" xlink:href="#i"/>
<use x="242.382812" xlink:href="#k"/>
<use x="270.166016" xlink:href="#h"/>
<use x="333.544922" xlink:href="#f"/>
<use x="394.824219" xlink:href="#j"/>
</g>
</g>
<path d="m124.41 941.92v33.808q0 2.4 2.4 2.4h7.7425q2.4 0 2.4-2.4v-33.808q0-2.4-2.4-2.4h-7.7425q-2.4 0-2.4 2.4z" clip-path="url(#a)" fill="#fff" stroke="#fff"/>
<g clip-path="url(#a)">
<g transform="translate(128.48 941.92) rotate(90) scale(.08 -.08)">
<use xlink:href="#e"/>
<use x="44.083984" xlink:href="#l"/>
<use x="105.607422" xlink:href="#g"/>
<use x="144.970703" xlink:href="#i"/>
<use x="242.382812" xlink:href="#k"/>
<use x="270.166016" xlink:href="#h"/>
<use x="333.544922" xlink:href="#f"/>
<use x="394.824219" xlink:href="#j"/>
</g>
</g>
<path d="m139.41 941.92v33.808q0 2.4 2.4 2.4h7.7425q2.4 0 2.4-2.4v-33.808q0-2.4-2.4-2.4h-7.7425q-2.4 0-2.4 2.4z" clip-path="url(#a)" fill="#fff" stroke="#fff"/>
<g clip-path="url(#a)">
<g transform="translate(143.47 941.92) rotate(90) scale(.08 -.08)">
<use xlink:href="#e"/>
<use x="44.083984" xlink:href="#l"/>
<use x="105.607422" xlink:href="#g"/>
<use x="144.970703" xlink:href="#i"/>
<use x="242.382812" xlink:href="#k"/>
<use x="270.166016" xlink:href="#h"/>
<use x="333.544922" xlink:href="#f"/>
<use x="394.824219" xlink:href="#j"/>
</g>
</g>
<path d="m304.37 941.92v33.808q0 2.4 2.4 2.4h7.7425q2.4 0 2.4-2.4v-33.808q0-2.4-2.4-2.4h-7.7425q-2.4 0-2.4 2.4z" clip-path="url(#a)" fill="#fff" stroke="#fff"/>
<g clip-path="url(#a)">
<g transform="translate(308.43 941.92) rotate(90) scale(.08 -.08)">
<use xlink:href="#e"/>
<use x="44.083984" xlink:href="#l"/>
<use x="105.607422" xlink:href="#g"/>
<use x="144.970703" xlink:href="#i"/>
<use x="242.382812" xlink:href="#k"/>
<use x="270.166016" xlink:href="#h"/>
<use x="333.544922" xlink:href="#f"/>
<use x="394.824219" xlink:href="#j"/>
</g>
</g>
<path d="m445.77 941.92v33.808q0 2.4 2.4 2.4h7.7425q2.4 0 2.4-2.4v-33.808q0-2.4-2.4-2.4h-7.7425q-2.4 0-2.4 2.4z" clip-path="url(#a)" fill="#fff" stroke="#fff"/>
<g clip-path="url(#a)">
<g transform="translate(449.83 941.92) rotate(90) scale(.08 -.08)">
<use xlink:href="#e"/>
<use x="44.083984" xlink:href="#l"/>
<use x="105.607422" xlink:href="#g"/>
<use x="144.970703" xlink:href="#i"/>
<use x="242.382812" xlink:href="#k"/>
<use x="270.166016" xlink:href="#h"/>
<use x="333.544922" xlink:href="#f"/>
<use x="394.824219" xlink:href="#j"/>
</g>
</g>
<path d="m621.44 941.92v33.808q0 2.4 2.4 2.4h7.7425q2.4 0 2.4-2.4v-33.808q0-2.4-2.4-2.4h-7.7425q-2.4 0-2.4 2.4z" clip-path="url(#a)" fill="#fff" stroke="#fff"/>
<g clip-path="url(#a)">
<g transform="translate(625.5 941.92) rotate(90) scale(.08 -.08)">
<use xlink:href="#e"/>
<use x="44.083984" xlink:href="#l"/>
<use x="105.607422" xlink:href="#g"/>
<use x="144.970703" xlink:href="#i"/>
<use x="242.382812" xlink:href="#k"/>
<use x="270.166016" xlink:href="#h"/>
<use x="333.544922" xlink:href="#f"/>
<use x="394.824219" xlink:href="#j"/>
</g>
</g>
<path d="m670.71 941.92v33.808q0 2.4 2.4 2.4h7.7425q2.4 0 2.4-2.4v-33.808q0-2.4-2.4-2.4h-7.7425q-2.4 0-2.4 2.4z" clip-path="url(#a)" fill="#fff" stroke="#fff"/>
<g clip-path="url(#a)">
<g transform="translate(674.78 941.92) rotate(90) scale(.08 -.08)">
<use xlink:href="#e"/>
<use x="44.083984" xlink:href="#l"/>
<use x="105.607422" xlink:href="#g"/>
<use x="144.970703" xlink:href="#i"/>
<use x="242.382812" xlink:href="#k"/>
<use x="270.166016" xlink:href="#h"/>
<use x="333.544922" xlink:href="#f"/>
<use x="394.824219" xlink:href="#j"/>
</g>
</g>
<path d="m889.23 941.92v33.808q0 2.4 2.4 2.4h7.7425q2.4 0 2.4-2.4v-33.808q0-2.4-2.4-2.4h-7.7425q-2.4 0-2.4 2.4z" clip-path="url(#a)" fill="#fff" stroke="#fff"/>
<g clip-path="url(#a)">
<g transform="translate(893.3 941.92) rotate(90) scale(.08 -.08)">
<use xlink:href="#e"/>
<use x="44.083984" xlink:href="#l"/>
<use x="105.607422" xlink:href="#g"/>
<use x="144.970703" xlink:href="#i"/>
<use x="242.382812" xlink:href="#k"/>
<use x="270.166016" xlink:href="#h"/>
<use x="333.544922" xlink:href="#f"/>
<use x="394.824219" xlink:href="#j"/>
</g>
</g>
<path d="m1210.6 941.92v33.808q0 2.4 2.4 2.4h7.7425q2.4 0 2.4-2.4v-33.808q0-2.4-2.4-2.4h-7.7425q-2.4 0-2.4 2.4z" clip-path="url(#a)" fill="#fff" stroke="#fff"/>
<g clip-path="url(#a)">
<g transform="translate(1214.6 941.92) rotate(90) scale(.08 -.08)">
<use xlink:href="#e"/>
<use x="44.083984" xlink:href="#l"/>
<use x="105.607422" xlink:href="#g"/>
<use x="144.970703" xlink:href="#i"/>
<use x="242.382812" xlink:href="#k"/>
<use x="270.166016" xlink:href="#h"/>
<use x="333.544922" xlink:href="#f"/>
<use x="394.824219" xlink:href="#j"/>
</g>
</g>
<path d="m1585.5 941.92v33.808q0 2.4 2.4 2.4h7.7425q2.4 0 2.4-2.4v-33.808q0-2.4-2.4-2.4h-7.7425q-2.4 0-2.4 2.4z" clip-path="url(#a)" fill="#fff" stroke="#fff"/>
<g clip-path="url(#a)">
<g transform="translate(1589.6 941.92) rotate(90) scale(.08 -.08)">
<use xlink:href="#e"/>
<use x="44.083984" xlink:href="#l"/>
<use x="105.607422" xlink:href="#g"/>
<use x="144.970703" xlink:href="#i"/>
<use x="242.382812" xlink:href="#k"/>
<use x="270.166016" xlink:href="#h"/>
<use x="333.544922" xlink:href="#f"/>
<use x="394.824219" xlink:href="#j"/>
</g>
</g>
<path d="m1924 941.92v33.808q0 2.4 2.4 2.4h7.7425q2.4 0 2.4-2.4v-33.808q0-2.4-2.4-2.4h-7.7425q-2.4 0-2.4 2.4z" clip-path="url(#a)" fill="#fff" stroke="#fff"/>
<g clip-path="url(#a)">
<g transform="translate(1928.1 941.92) rotate(90) scale(.08 -.08)">
<use xlink:href="#e"/>
<use x="44.083984" xlink:href="#l"/>
<use x="105.607422" xlink:href="#g"/>
<use x="144.970703" xlink:href="#i"/>
<use x="242.382812" xlink:href="#k"/>
<use x="270.166016" xlink:href="#h"/>
<use x="333.544922" xlink:href="#f"/>
<use x="394.824219" xlink:href="#j"/>
</g>
</g>
<defs>
<path id="b" d="m0 8.6603c2.2967 0 4.4997-0.9125 6.1237-2.5365 1.624-1.624 2.5365-3.827 2.5365-6.1237s-0.9125-4.4997-2.5365-6.1237c-1.624-1.624-3.827-2.5365-6.1237-2.5365s-4.4997 0.9125-6.1237 2.5365c-1.624 1.624-2.5365 3.827-2.5365 6.1237s0.9125 4.4997 2.5365 6.1237c1.624 1.624 3.827 2.5365 6.1237 2.5365z"/>
</defs>
<g clip-path="url(#a)" fill="#ffffff" stroke="#ffffff">
<use x="92.121212" y="1018.181818" xlink:href="#b"/>
<use x="98.548273" y="1018.181818" xlink:href="#b"/>
<use x="107.117689" y="1018.181818" xlink:href="#b"/>
<use x="117.829457" y="1018.181818" xlink:href="#b"/>
<use x="130.68358" y="1018.181818" xlink:href="#b"/>
<use x="145.680056" y="1018.181818" xlink:href="#b"/>
<use x="162.818887" y="1018.181818" xlink:href="#b"/>
<use x="182.10007" y="1018.181818" xlink:href="#b"/>
<use x="203.523608" y="1018.181818" xlink:href="#b"/>
<use x="227.0895" y="1018.181818" xlink:href="#b"/>
<use x="252.797745" y="1018.181818" xlink:href="#b"/>
<use x="280.648344" y="1018.181818" xlink:href="#b"/>
<use x="310.641297" y="1018.181818" xlink:href="#b"/>
<use x="342.776603" y="1018.181818" xlink:href="#b"/>
<use x="377.054264" y="1018.181818" xlink:href="#b"/>
<use x="413.474278" y="1018.181818" xlink:href="#b"/>
<use x="452.036646" y="1018.181818" xlink:href="#b"/>
<use x="492.741367" y="1018.181818" xlink:href="#b"/>
<use x="535.588443" y="1018.181818" xlink:href="#b"/>
<use x="580.577872" y="1018.181818" xlink:href="#b"/>
<use x="627.709655" y="1018.181818" xlink:href="#b"/>
<use x="676.983791" y="1018.181818" xlink:href="#b"/>
<use x="728.400282" y="1018.181818" xlink:href="#b"/>
<use x="781.959126" y="1018.181818" xlink:href="#b"/>
<use x="837.660324" y="1018.181818" xlink:href="#b"/>
<use x="895.503876" y="1018.181818" xlink:href="#b"/>
<use x="955.489782" y="1018.181818" xlink:href="#b"/>
<use x="1017.618041" y="1018.181818" xlink:href="#b"/>
<use x="1081.888654" y="1018.181818" xlink:href="#b"/>
<use x="1148.301621" y="1018.181818" xlink:href="#b"/>
<use x="1216.856942" y="1018.181818" xlink:href="#b"/>
<use x="1287.554616" y="1018.181818" xlink:href="#b"/>
<use x="1360.394644" y="1018.181818" xlink:href="#b"/>
<use x="1435.377026" y="1018.181818" xlink:href="#b"/>
<use x="1512.501762" y="1018.181818" xlink:href="#b"/>
<use x="1591.768851" y="1018.181818" xlink:href="#b"/>
<use x="1673.178295" y="1018.181818" xlink:href="#b"/>
<use x="1756.730092" y="1018.181818" xlink:href="#b"/>
<use x="1842.424242" y="1018.181818" xlink:href="#b"/>
<use x="1930.260747" y="1018.181818" xlink:href="#b"/>
<use x="1934.545455" y="292.998318" xlink:href="#b"/>
<use x="1934.545455" y="292.998318" xlink:href="#b"/>
<use x="627.292491" y="48.484848" xlink:href="#b"/>
<use x="627.292491" y="170.829207" xlink:href="#b"/>
<use x="627.292491" y="292.998318" xlink:href="#b"/>
<use x="105.510923" y="658.094672" xlink:href="#b"/>
<use x="172.459479" y="779.095102" xlink:href="#b"/>
<use x="249.37593" y="414.963035" xlink:href="#b"/>
<use x="728.400282" y="899.464206" xlink:href="#b"/>
<use x="891.576227" y="536.682426" xlink:href="#b"/>
<use x="1458.371623" y="536.682426" xlink:href="#b"/>
<use x="1323.97463" y="779.095102" xlink:href="#b"/>
<use x="1435.377026" y="899.464206" xlink:href="#b"/>
<use x="1615.763214" y="658.094672" xlink:href="#b"/>
<use x="1512.501762" y="899.464206" xlink:href="#b"/>
<use x="1743.019027" y="779.095102" xlink:href="#b"/>
<use x="1673.178295" y="899.464206" xlink:href="#b"/>
<use x="1756.730092" y="899.464206" xlink:href="#b"/>
<use x="1842.424242" y="899.464206" xlink:href="#b"/>
<use x="1287.554616" y="899.464206" xlink:href="#b"/>
<use x="1360.394644" y="899.464206" xlink:href="#b"/>
<use x="781.959126" y="899.464206" xlink:href="#b"/>
<use x="837.660324" y="899.464206" xlink:href="#b"/>
<use x="1051.181583" y="658.094672" xlink:href="#b"/>
<use x="955.489782" y="899.464206" xlink:href="#b"/>
<use x="1049.753347" y="779.095102" xlink:href="#b"/>
<use x="1148.301621" y="899.464206" xlink:href="#b"/>
<use x="1017.618041" y="899.464206" xlink:href="#b"/>
<use x="1081.888654" y="899.464206" xlink:href="#b"/>
<use x="203.523608" y="899.464206" xlink:href="#b"/>
<use x="227.0895" y="899.464206" xlink:href="#b"/>
<use x="317.514682" y="536.682426" xlink:href="#b"/>
<use x="252.797745" y="899.464206" xlink:href="#b"/>
<use x="280.648344" y="899.464206" xlink:href="#b"/>
<use x="425.971341" y="658.094672" xlink:href="#b"/>
<use x="353.488372" y="779.095102" xlink:href="#b"/>
<use x="472.389006" y="779.095102" xlink:href="#b"/>
<use x="492.741367" y="899.464206" xlink:href="#b"/>
<use x="535.588443" y="899.464206" xlink:href="#b"/>
<use x="580.577872" y="899.464206" xlink:href="#b"/>
<use x="342.776603" y="899.464206" xlink:href="#b"/>
<use x="377.054264" y="899.464206" xlink:href="#b"/>
<use x="413.474278" y="899.464206" xlink:href="#b"/>
<use x="162.818887" y="899.464206" xlink:href="#b"/>
<use x="182.10007" y="899.464206" xlink:href="#b"/>
<use x="92.121212" y="899.464206" xlink:href="#b"/>
<use x="98.548273" y="899.464206" xlink:href="#b"/>
<use x="107.117689" y="899.464206" xlink:href="#b"/>
<use x="124.256519" y="779.095102" xlink:href="#b"/>
<use x="117.829457" y="899.464206" xlink:href="#b"/>
<use x="130.68358" y="899.464206" xlink:href="#b"/>
<use x="145.680056" y="899.464206" xlink:href="#b"/>
<use x="310.641297" y="899.464206" xlink:href="#b"/>
<use x="452.036646" y="899.464206" xlink:href="#b"/>
<use x="627.709655" y="899.464206" xlink:href="#b"/>
<use x="676.983791" y="899.464206" xlink:href="#b"/>
<use x="895.503876" y="899.464206" xlink:href="#b"/>
<use x="1216.856942" y="899.464206" xlink:href="#b"/>
<use x="1591.768851" y="899.464206" xlink:href="#b"/>
<use x="1930.260747" y="899.464206" xlink:href="#b"/>
</g>
<g clip-path="url(#a)">
<g transform="translate(85.12 1020.9) scale(.1 -.1)">
<defs>
<path id="bl" d="m-0.29688 72.906h61.672v-8.3125h-25.875v-64.594h-9.9062v64.594h-25.891z"/>
<path id="aj" d="m61.047 54.688h8.9844v-54.688h-8.9844zm4.5 1.3125m-22.094-39.781q0 4.3906-3.2031 6.6875-3.1875 2.2969-9.3438 2.2969h-12.797v-18.031h12.797q6.1562 0 9.3438 2.3125 3.2031 2.3281 3.2031 6.7344zm-34.375 38.469h9.0312v-22.312h13.188q10.453 0 16.094-3.9844 5.6406-3.9688 5.6406-12.172t-5.6406-12.219q-5.6406-4-16.094-4h-22.219z"/>
</defs>
<use xlink:href="#bl"/>
<use x="61.083984" xlink:href="#aj"/>
</g>
</g>
<g clip-path="url(#a)">
<g transform="translate(65.782 1020.9) scale(.1 -.1)">
<defs>
<path id="bh" d="m56.297 54.688v-54.688h-9.0312v47.516h-29.156v-47.516h-9.0312v54.688z"/>
<path id="ad" d="m30.609 48.391q-7.2188 0-11.422-5.6406t-4.2031-15.453 4.1719-15.453q4.1875-5.6406 11.453-5.6406 7.1875 0 11.375 5.6562 4.2031 5.6719 4.2031 15.438 0 9.7188-4.2031 15.406-4.1875 5.6875-11.375 5.6875zm0 7.6094q11.719 0 18.406-7.625 6.7031-7.6094 6.7031-21.078 0-13.422-6.7031-21.078-6.6875-7.6406-18.406-7.6406-11.766 0-18.438 7.6406-6.6562 7.6562-6.6562 21.078 0 13.469 6.6562 21.078 6.6719 7.625 18.438 7.625z"/>
<path id="x" d="m48.781 52.594v-8.4062q-3.8125 2.1094-7.6406 3.1562t-7.7344 1.0469q-8.75 0-13.594-5.5469-4.8281-5.5312-4.8281-15.547t4.8281-15.562q4.8438-5.5312 13.594-5.5312 3.9062 0 7.7344 1.0469t7.6406 3.1562v-8.3125q-3.7656-1.75-7.7969-2.625-4.0156-0.89062-8.5625-0.89062-12.359 0-19.641 7.7656-7.2656 7.7656-7.2656 20.953 0 13.375 7.3438 21.031 7.3594 7.6719 20.156 7.6719 4.1406 0 8.0938-0.85938 3.9531-0.84375 7.6719-2.5469z"/>
<path id="al" d="m9.0781 54.688h13.141l15.531-36.625 15.578 36.625h13.031v-54.688h-9.0312v46.094l-15.094-35.594h-8.9844l-15.141 35.594v-46.094h-9.0312z"/>
<path id="t" d="m2.9375 54.688h52.391v-7.1719h-21.781v-47.516h-8.8438v47.516h-21.766z"/>
<path id="ba" d="m18.109 8.2031v-29h-9.0312v75.484h9.0312v-8.2969q2.8438 4.875 7.1562 7.2344 4.3281 2.375 10.328 2.375 9.9688 0 16.188-7.9062 6.2344-7.9062 6.2344-20.797t-6.2344-20.812q-6.2188-7.9062-16.188-7.9062-6 0-10.328 2.375-4.3125 2.375-7.1562 7.25zm30.578 19.094q0 9.9062-4.0781 15.547t-11.203 5.6406q-7.1406 0-11.219-5.6406t-4.0781-15.547 4.0781-15.547 11.219-5.6406q7.125 0 11.203 5.6406t4.0781 15.547z"/>
<path id="as" d="m55.906 54.688v-54.688h-8.9375v43.891l-26.359-43.891h-11.531v54.688h8.9375v-43.797l26.328 43.797z"/>
<path id="av" d="m50.25 7.1719h23.141v47.516h9.0312v-54.688h-73.344v54.688h9.0312v-47.516h23.109v47.516h9.0312z"/>
<path id="ai" d="m43.453 16.219q0 4.3906-3.2031 6.6875-3.1875 2.2969-9.3438 2.2969h-12.797v-18.031h12.797q6.1562 0 9.3438 2.3125 3.2031 2.3281 3.2031 6.7344zm-34.375 38.469h9.0312v-22.312h13.188q10.453 0 16.094-3.9844 5.6406-3.9688 5.6406-12.172t-5.6406-12.219q-5.6406-4-16.094-4h-22.219z"/>
</defs>
<use xlink:href="#bh"/>
<use x="65.380859" xlink:href="#ad"/>
<use x="126.5625" xlink:href="#x"/>
<use x="181.542969" xlink:href="#al"/>
<use x="256.982422" xlink:href="#ad"/>
<use x="318.164062" xlink:href="#t"/>
<use x="376.416016" xlink:href="#ba"/>
<use x="439.892578" xlink:href="#as"/>
<use x="504.882812" xlink:href="#av"/>
<use x="596.386719" xlink:href="#ai"/>
</g>
</g>
<g clip-path="url(#a)">
<g transform="translate(90.679 1020.9) scale(.1 -.1)">
<defs>
<path id="aw" d="m9.0781 54.688h9.0312v-22.312h29.156v22.312h9.0312v-54.688h-9.0312v25.203h-29.156v-25.203h-9.0312z"/>
<path id="az" d="m41.016 0v23h-16.75q-7.4688 0-12.453 4.6406-4.4844 4.2031-4.4844 13.188v13.859h8.9844v-13.031q0-5.7188 2.5312-8.5938 2.5938-2.8906 7.6719-2.8906h14.5v24.516h8.9844v-54.688z"/>
<path id="ar" d="m53.609 48.391q-7.2188 0-11.422-5.6406t-4.2031-15.453 4.1719-15.453q4.1875-5.6406 11.453-5.6406 7.1875 0 11.375 5.6562 4.2031 5.6719 4.2031 15.438 0 9.7188-4.2031 15.406-4.1875 5.6875-11.375 5.6875zm-24.797-15.531q0.92188 9.2812 7 16.203 6.0781 6.9375 17.797 6.9375t18.406-7.625q6.7031-7.6094 6.7031-21.078 0-13.422-6.7031-21.078-6.6875-7.6406-18.406-7.6406-11.766 0-18.188 7.375t-6.8594 19.484h-10.156v-25.438h-8.9844v54.688h8.9844v-21.828z"/>
</defs>
<use xlink:href="#aw"/>
<use x="65.380859" xlink:href="#ad"/>
<use x="126.5625" xlink:href="#az"/>
<use x="185.644531" xlink:href="#ai"/>
<use x="244.580078" xlink:href="#ar"/>
</g>
</g>
<g clip-path="url(#a)">
<g transform="translate(111.5 1020.9) scale(.1 -.1)">
<defs>
<path id="ao" d="m34.281 27.484q-10.891 0-15.094-2.4844t-4.2031-8.5q0-4.7812 3.1562-7.5938 3.1562-2.7969 8.5625-2.7969 7.4844 0 12 5.2969t4.5156 14.078v2zm17.922 3.7188v-31.203h-8.9844v8.2969q-3.0781-4.9688-7.6719-7.3438t-11.234-2.375q-8.3906 0-13.359 4.7188-4.9531 4.7188-4.9531 12.625 0 9.2188 6.1719 13.906 6.1875 4.6875 18.438 4.6875h12.609v0.89062q0 6.2031-4.0781 9.5938t-11.453 3.3906q-4.6875 0-9.1406-1.125-4.4375-1.125-8.5312-3.375v8.3125q4.9219 1.9062 9.5625 2.8438 4.6406 0.95312 9.0312 0.95312 11.875 0 17.734-6.1562 5.8594-6.1406 5.8594-18.641z"/>
</defs>
<use xlink:href="#aw"/>
<use x="65.380859" xlink:href="#ao"/>
</g>
</g>
<g clip-path="url(#a)">
<g transform="translate(118.2 1020.9) scale(.1 -.1)">
<defs>
<path id="q" d="m56.203 29.594v-4.3906h-41.312q0.59375-9.2812 5.5938-14.141t13.938-4.8594q5.1719 0 10.031 1.2656t9.6562 3.8125v-8.5q-4.8438-2.0469-9.9219-3.125t-10.297-1.0781q-13.094 0-20.734 7.6094-7.6406 7.625-7.6406 20.625 0 13.422 7.25 21.297 7.25 7.8906 19.562 7.8906 11.031 0 17.453-7.1094 6.4219-7.0938 6.4219-19.297zm-8.9844 2.6406q-0.09375 7.3594-4.125 11.75-4.0312 4.4062-10.672 4.4062-7.5156 0-12.031-4.25t-5.2031-11.969z"/>
<path id="at" d="m31.109 56q11.719 0 18.406-7.625 6.6875-7.6094 6.6875-21.078 0-13.422-6.6875-21.078-6.6875-7.6406-18.406-7.6406-11.766 0-18.266 7.4219t-6.8438 21.297l-0.28125 11.188q-0.25 5.7969-0.25 7.8125 0 7.8125 2.8281 13.562 4.4531 9.0312 12.141 12.938t20.578 4.0156q5.9531 0.046875 8.5938 0.875l2.4844-7.125q-2.3906-0.98438-4.5781-1.0312l-12.219-0.82812q-6.1406-0.4375-9.8594-2.5938-9.7188-5.7031-10.641-13.172l-0.34375-2.7344q6.3438 5.7969 16.656 5.7969zm0-7.6094q-7.2344 0-11.438-5.6406-4.1875-5.6406-4.1875-15.453t4.1719-15.453 11.453-5.6406q7.1719 0 11.375 5.6562 4.2031 5.6719 4.2031 15.438 0 9.7188-4.2031 15.406t-11.375 5.6875z"/>
</defs>
<use xlink:href="#aw"/>
<use x="65.380859" xlink:href="#q"/>
<use x="126.904297" xlink:href="#at"/>
<use x="188.574219" xlink:href="#ad"/>
</g>
</g>
<g clip-path="url(#a)">
<g transform="translate(144.09 1020.9) scale(.1 -.1)">
<defs>
<path id="ah" d="m11.719 12.406h10.297v-8.4062l-8-15.625h-6.2969l4 15.625z"/>
</defs>
<use xlink:href="#ah"/>
</g>
</g>
<g clip-path="url(#a)">
<g transform="translate(159.75 1020.9) scale(.1 -.1)">
<use xlink:href="#ao"/>
</g>
</g>
<g clip-path="url(#a)">
<g transform="translate(169.67 1020.9) scale(.1 -.1)">
<defs>
<path id="an" d="m18.062 25.203v-18.031h12.797q6.1562 0 9.375 2.3125 3.2188 2.3281 3.2188 6.7344 0 4.3906-3.2188 6.6875t-9.375 2.2969zm0 22.312v-15.141h11.828q5.0781 0 8.2969 2.0156 3.2188 2.0312 3.2188 5.6562 0 3.6094-3.2188 5.5312-3.2188 1.9375-8.2969 1.9375zm-8.9844 7.1719h21.391q9.625 0 14.797-3.5156t5.1719-10.016q0-5.0156-2.6406-7.9844-2.625-2.9531-7.8125-3.6719 6.2031-1.1719 9.625-4.8906 3.4219-3.7031 3.4219-9.2812 0-7.3125-5.6406-11.328-5.6406-4-16.094-4h-22.219z"/>
<path id="y" d="m21.625 7.1719h26.078v40.344h-18.891v-6.8438q0-20.109-5.7656-30.859zm-13.031 0q4.4375 1.9531 6.3906 6.1094 4.7969 10.297 4.7969 31.062v10.344h36.953v-47.516h7.1875v-20.984h-7.1875v13.812h-44.328v-13.812h-7.1875v20.984z"/>
</defs>
<use xlink:href="#an"/>
<use x="58.935547" xlink:href="#q"/>
<use x="120.458984" xlink:href="#y"/>
<use x="189.599609" xlink:href="#ai"/>
</g>
</g>
<g clip-path="url(#a)">
<g transform="translate(193.78 1020.9) scale(.1 -.1)">
<use xlink:href="#t"/>
<use x="58.251953" xlink:href="#ao"/>
<use x="119.53125" xlink:href="#al"/>
</g>
</g>
<g clip-path="url(#a)">
<g transform="translate(211.6 1021) scale(.1 -.1)">
<defs>
<path id="ak" d="m32.172-5.0781q-3.7969-9.7656-7.4219-12.734-3.6094-2.9844-9.6562-2.9844h-7.1875v7.5156h5.2812q3.7031 0 5.75 1.7656 2.0625 1.75 4.5469 8.2969l1.6094 4.0938-22.109 53.812h9.5156l17.094-42.766 17.094 42.766h9.5156z"/>
</defs>
<use xlink:href="#at"/>
<use x="61.669922" xlink:href="#ak"/>
<use x="120.849609" xlink:href="#y"/>
<use x="189.990234" xlink:href="#q"/>
<use x="251.513672" xlink:href="#t"/>
</g>
</g>
<g clip-path="url(#a)">
<g transform="translate(237.73 1020.9) scale(.1 -.1)">
<defs>
<path id="bb" d="m9.0781 54.688h8.9375v-25.688l25.344 25.688h11.031l-20.891-21.141 23.578-33.547h-10.062l-19.375 27.594-9.625-9.7656v-17.828h-8.9375z"/>
<path id="ac" d="m18.453 38.922q0-4.0625 3.125-6.3594 3.125-2.2812 8.9375-2.2812h12.109v17.234h-12.109q-5.8125 0-8.9375-2.25t-3.125-6.3438zm-12.781-38.922 16.688 23.969q-5.6562 1.2812-9.4219 4.625-3.75 3.3438-3.75 10.328 0 7.9062 5.2344 11.828 5.25 3.9375 15.859 3.9375h21.375v-54.688h-9.0312v23.094h-11.172l-16.125-23.094z"/>
</defs>
<use xlink:href="#t"/>
<use x="58.251953" xlink:href="#ao"/>
<use x="119.53125" xlink:href="#bb"/>
<use x="179.931641" xlink:href="#ao"/>
<use x="241.210938" xlink:href="#ac"/>
</g>
</g>
<g clip-path="url(#a)">
<g transform="translate(262.79 1020.9) scale(.1 -.1)">
<defs>
<path id="am" d="m34.469 29.5q6.0625-1.1719 9.4219-4.75 3.375-3.5625 3.375-8.8281 0-8.4531-6.2969-12.906-6.2969-4.4375-17.922-4.4375-3.9062 0-8.0312 0.6875t-8.5156 2.0469v8.3594q3.4688-1.8125 7.6094-2.7188 4.1562-0.89062 8.6875-0.89062 7.375 0 11.5 2.7344t4.125 7.125q0 4.2969-3.6562 6.9062t-10.344 2.6094h-7.2344v7.4219h7.5625q5.6719 0 8.9688 2.1719t3.2969 5.5938q0 3.125-3.4062 5.375-3.3906 2.25-9.1875 2.25-3.4688 0-7.4062-0.64062-3.9219-0.64062-8.6719-2.0469v8.1562q4.7969 1.1719 8.9375 1.75 4.1562 0.59375 7.8594 0.59375 9.5781 0 15.109-3.8438 5.5469-3.8281 5.5469-10.719 0-4.5312-2.9375-7.6875-2.9219-3.1406-8.3906-4.3125z"/>
</defs>
<use xlink:href="#am"/>
<use x="53.173828" xlink:href="#an"/>
<use x="112.109375" xlink:href="#q"/>
<use x="173.632812" xlink:href="#am"/>
<use x="226.806641" xlink:href="#y"/>
<use x="295.947266" xlink:href="#ao"/>
</g>
</g>
<g clip-path="url(#a)">
<g transform="translate(309.05 1020.9) scale(.1 -.1)">
<use xlink:href="#ah"/>
</g>
</g>
<g clip-path="url(#a)">
<g transform="translate(333.62 1020.9) scale(.1 -.1)">
<defs>
<path id="bc" d="m9.0781 0v54.688h38.578v-7.1719h-29.547v-47.516z"/>
</defs>
<use xlink:href="#bc"/>
<use x="52.539062" xlink:href="#y"/>
<use x="121.679688" xlink:href="#q"/>
</g>
</g>
<g clip-path="url(#a)">
<g transform="translate(374.05 1020.9) scale(.1 -.1)">
<use xlink:href="#ac"/>
</g>
</g>
<g clip-path="url(#a)">
<g transform="translate(399.81 1020.9) scale(.1 -.1)">
<defs>
<path id="bj" d="m40.578 54.688h8.9375v-25.688l23.875 25.688h10.453l-19.641-21.047 22.469-33.641h-9.625l-18.406 27.641-9.125-9.8125v-17.828h-8.9375v17.828l-9.125 9.8125-18.422-27.641h-9.6094l22.453 33.641-19.625 21.047h10.453l23.875-25.688z"/>
</defs>
<use xlink:href="#bj"/>
<use x="90.087891" xlink:href="#as"/>
<use x="155.078125" xlink:href="#an"/>
<use x="214.013672" xlink:href="#ak"/>
</g>
</g>
<g clip-path="url(#a)">
<g transform="translate(450.45 1020.9) scale(.1 -.1)">
<use xlink:href="#ah"/>
</g>
</g>
<g clip-path="url(#a)">
<g transform="translate(483.58 1020.9) scale(.1 -.1)">
<use xlink:href="#bc"/>
<use x="52.539062" xlink:href="#y"/>
<use x="121.679688" xlink:href="#q"/>
</g>
</g>
<g clip-path="url(#a)">
<g transform="translate(532.58 1020.9) scale(.1 -.1)">
<use xlink:href="#ac"/>
</g>
</g>
<g clip-path="url(#a)">
<g transform="translate(561.07 1020.9) scale(.1 -.1)">
<use xlink:href="#x"/>
<use x="54.980469" xlink:href="#al"/>
<use x="130.419922" xlink:href="#q"/>
<use x="191.943359" xlink:href="#ar"/>
<use x="276.123047" xlink:href="#x"/>
<use x="331.103516" xlink:href="#ai"/>
</g>
</g>
<g clip-path="url(#a)">
<g transform="translate(626.12 1020.9) scale(.1 -.1)">
<use xlink:href="#ah"/>
</g>
</g>
<g clip-path="url(#a)">
<g transform="translate(675.18 1020.9) scale(.1 -.1)">
<defs>
<path id="bf" d="m4.8906 31.391h26.312v-8h-26.312z"/>
</defs>
<use xlink:href="#bf"/>
</g>
</g>
<g clip-path="url(#a)">
<g transform="translate(725.15 1020.9) scale(.1 -.1)">
<use xlink:href="#as"/>
</g>
</g>
<g clip-path="url(#a)">
<g transform="translate(775.1 1020.9) scale(.1 -.1)">
<use xlink:href="#t"/>
<use x="58.251953" xlink:href="#aj"/>
</g>
</g>
<g clip-path="url(#a)">
<g transform="translate(809.46 1020.9) scale(.1 -.1)">
<defs>
<path id="bi" d="m3.7188 0v7.4688q8.875 1.375 11.609 7.5156 3.3281 8.6562 3.3281 30.766v8.9375h36.953v-54.688h-8.9844v47.516h-18.984v-5.4219q0-21.094-4.2969-30.562-4.5938-10.109-19.625-11.531z"/>
</defs>
<use xlink:href="#ak"/>
<use x="59.179688" xlink:href="#x"/>
<use x="114.160156" xlink:href="#bi"/>
<use x="178.076172" xlink:href="#aj"/>
<use x="257.03125" xlink:href="#av"/>
<use x="348.535156" xlink:href="#as"/>
<use x="413.525391" xlink:href="#av"/>
<use x="505.029297" xlink:href="#ai"/>
</g>
</g>
<g clip-path="url(#a)">
<g transform="translate(893.91 1020.9) scale(.1 -.1)">
<use xlink:href="#ah"/>
</g>
</g>
<g clip-path="url(#a)">
<g transform="translate(946.56 1020.9) scale(.1 -.1)">
<use xlink:href="#az"/>
<use x="59.082031" xlink:href="#t"/>
<use x="117.333984" xlink:href="#ad"/>
</g>
</g>
<g clip-path="url(#a)">
<g transform="translate(1008.8 1020.9) scale(.1 -.1)">
<use xlink:href="#an"/>
<use x="58.935547" xlink:href="#x"/>
<use x="113.916016" xlink:href="#q"/>
</g>
</g>
<g clip-path="url(#a)">
<g transform="translate(1063.1 1020.9) scale(.1 -.1)">
<use xlink:href="#am"/>
<use x="53.173828" xlink:href="#an"/>
<use x="112.109375" xlink:href="#q"/>
<use x="173.632812" xlink:href="#am"/>
<use x="226.806641" xlink:href="#y"/>
<use x="295.947266" xlink:href="#aj"/>
</g>
</g>
<g clip-path="url(#a)">
<g transform="translate(1125.8 1020.9) scale(.1 -.1)">
<use xlink:href="#x"/>
<use x="54.980469" xlink:href="#al"/>
<use x="130.419922" xlink:href="#q"/>
<use x="191.943359" xlink:href="#ar"/>
<use x="276.123047" xlink:href="#t"/>
<use x="334.375" xlink:href="#x"/>
<use x="389.355469" xlink:href="#ac"/>
</g>
</g>
<g clip-path="url(#a)">
<g transform="translate(1215.3 1020.9) scale(.1 -.1)">
<defs>
<path id="d" d="m10.688 12.406h10.312v-12.406h-10.312z"/>
</defs>
<use xlink:href="#d"/>
</g>
</g>
<g clip-path="url(#a)">
<g transform="translate(1284.5 1020.9) scale(.1 -.1)">
<defs>
<path id="bk" d="m31.984 8.8438q-1.0312-2.4531-2.5938-4.2969-3.8594-4.5469-16.109-4.5469h-3.7656v8.2969h3.0781q5.8125 0 8.0625 1.3281 1.3594 0.82812 2.25 2.875l2.1875 5.1719-23.391 55.234h10.609l18.109-42.781 18.219 42.781h10.594z"/>
</defs>
<use xlink:href="#bk"/>
</g>
</g>
<g clip-path="url(#a)">
<g transform="translate(1348.3 1020.9) scale(.1 -.1)">
<use xlink:href="#t"/>
<use x="58.251953" xlink:href="#q"/>
<use x="119.775391" xlink:href="#at"/>
<use x="181.445312" xlink:href="#ac"/>
</g>
</g>
<g clip-path="url(#a)">
<g transform="translate(1420 1021) scale(.1 -.1)">
<use xlink:href="#at"/>
<use x="61.669922" xlink:href="#ak"/>
<use x="120.849609" xlink:href="#y"/>
<use x="189.990234" xlink:href="#ak"/>
<use x="249.169922" xlink:href="#t"/>
</g>
</g>
<g clip-path="url(#a)">
<g transform="translate(1493.8 1020.9) scale(.1 -.1)">
<use xlink:href="#am"/>
<use x="53.173828" xlink:href="#an"/>
<use x="112.109375" xlink:href="#q"/>
<use x="173.632812" xlink:href="#am"/>
<use x="226.806641" xlink:href="#y"/>
<use x="295.947266" xlink:href="#aj"/>
</g>
</g>
<g clip-path="url(#a)">
<g transform="translate(1590.2 1020.9) scale(.1 -.1)">
<use xlink:href="#ah"/>
</g>
</g>
<g clip-path="url(#a)">
<g transform="translate(1650.9 1020.9) scale(.1 -.1)">
<use xlink:href="#bb"/>
<use x="60.400391" xlink:href="#ad"/>
<use x="121.582031" xlink:href="#t"/>
<use x="179.833984" xlink:href="#ad"/>
<use x="241.015625" xlink:href="#ba"/>
<use x="304.492188" xlink:href="#aj"/>
<use x="383.447266" xlink:href="#q"/>
</g>
</g>
<g clip-path="url(#a)">
<g transform="translate(1739.8 1020.9) scale(.1 -.1)">
<use xlink:href="#ak"/>
<use x="59.179688" xlink:href="#al"/>
<use x="134.619141" xlink:href="#q"/>
<use x="196.142578" xlink:href="#ar"/>
<use x="280.322266" xlink:href="#t"/>
</g>
</g>
<g clip-path="url(#a)">
<g transform="translate(1818.2 1020.9) scale(.1 -.1)">
<use xlink:href="#x"/>
<use x="54.980469" xlink:href="#al"/>
<use x="130.419922" xlink:href="#q"/>
<use x="191.943359" xlink:href="#ac"/>
<use x="252.099609" xlink:href="#t"/>
<use x="310.351562" xlink:href="#ai"/>
<use x="369.287109" xlink:href="#x"/>
<use x="424.267578" xlink:href="#ac"/>
</g>
</g>
<g clip-path="url(#a)">
<g transform="translate(1928.3 1020.9) scale(.1 -.1)">
<defs>
<path id="bg" d="m15.094 12.406h9.9062v-12.406h-9.9062zm0 60.5h9.9062v-31.984l-0.96875-17.438h-7.9219l-1.0156 17.438z"/>
</defs>
<use xlink:href="#bg"/>
</g>
</g>
<g clip-path="url(#a)">
<g transform="translate(1913.5 295.76) scale(.1 -.1)">
<defs>
<path id="af" d="m9.8125 72.906h9.8594v-72.906h-9.8594z"/>
<path id="ay" d="m9.8125 72.906h14.703l18.594-49.609 18.703 49.609h14.703v-72.906h-9.625v64.016l-18.797-50h-9.9062l-18.797 50v-64.016h-9.5781z"/>
</defs>
<use xlink:href="#af"/>
<use x="29.492188" xlink:href="#ay"/>
<use x="115.771484" xlink:href="#w"/>
<use x="176.074219" xlink:href="#aq"/>
<use x="231.787109" xlink:href="#af"/>
<use x="261.279297" xlink:href="#u"/>
<use x="331.103516" xlink:href="#af"/>
<use x="360.595703" xlink:href="#e"/>
</g>
</g>
<g clip-path="url(#a)">
<g transform="translate(1913.5 295.76) scale(.1 -.1)">
<use xlink:href="#af"/>
<use x="29.492188" xlink:href="#ay"/>
<use x="115.771484" xlink:href="#w"/>
<use x="176.074219" xlink:href="#aq"/>
<use x="231.787109" xlink:href="#af"/>
<use x="261.279297" xlink:href="#u"/>
<use x="331.103516" xlink:href="#af"/>
<use x="360.595703" xlink:href="#e"/>
</g>
</g>
<g clip-path="url(#a)">
<g transform="translate(619.34 51.244) scale(.1 -.1)">
<defs>
<path id="c" d="m12.406 8.2969h16.109v55.625l-17.531-3.5156v8.9844l17.438 3.5156h9.8594v-64.609h16.109v-8.2969h-41.984z"/>
</defs>
<use xlink:href="#c"/>
<use x="63.623047" xlink:href="#d"/>
<use x="95.410156" xlink:href="#c"/>
</g>
</g>
<g clip-path="url(#a)">
<g transform="translate(619.34 173.59) scale(.1 -.1)">
<defs>
<path id="p" d="m19.188 8.2969h34.422v-8.2969h-46.281v8.2969q5.6094 5.8125 15.297 15.594 9.7031 9.7969 12.188 12.641 4.7344 5.3125 6.6094 9 1.8906 3.6875 1.8906 7.25 0 5.8125-4.0781 9.4688-4.0781 3.6719-10.625 3.6719-4.6406 0-9.7969-1.6094-5.1406-1.6094-11-4.8906v9.9688q5.9531 2.3906 11.125 3.6094 5.1875 1.2188 9.4844 1.2188 11.328 0 18.062-5.6719 6.7344-5.6562 6.7344-15.125 0-4.5-1.6875-8.5312-1.6719-4.0156-6.125-9.4844-1.2188-1.4219-7.7656-8.1875-6.5312-6.7656-18.453-18.922z"/>
</defs>
<use xlink:href="#c"/>
<use x="63.623047" xlink:href="#d"/>
<use x="95.410156" xlink:href="#p"/>
</g>
</g>
<g clip-path="url(#a)">
<g transform="translate(619.34 295.76) scale(.1 -.1)">
<defs>
<path id="n" d="m33.016 40.375q-6.6406 0-10.531-4.5469-3.875-4.5312-3.875-12.438 0-7.8594 3.875-12.438 3.8906-4.5625 10.531-4.5625t10.516 4.5625q3.875 4.5781 3.875 12.438 0 7.9062-3.875 12.438-3.875 4.5469-10.516 4.5469zm19.578 30.922v-8.9844q-3.7188 1.75-7.5 2.6719-3.7812 0.9375-7.5 0.9375-9.7656 0-14.922-6.5938-5.1406-6.5938-5.875-19.922 2.875 4.25 7.2188 6.5156 4.3594 2.2656 9.5781 2.2656 10.984 0 17.359-6.6719 6.375-6.6562 6.375-18.125 0-11.234-6.6406-18.031-6.6406-6.7812-17.672-6.7812-12.656 0-19.344 9.6875-6.6875 9.7031-6.6875 28.109 0 17.281 8.2031 27.562t22.016 10.281q3.7188 0 7.5-0.73438t7.8906-2.1875z"/>
</defs>
<use xlink:href="#c"/>
<use x="63.623047" xlink:href="#d"/>
<use x="95.410156" xlink:href="#n"/>
</g>
</g>
<g clip-path="url(#a)">
<g transform="translate(97.559 660.85) scale(.1 -.1)">
<defs>
<path id="ab" d="m8.2031 72.906h46.875v-4.2031l-26.469-68.703h-10.297l24.906 64.594h-35.016z"/>
</defs>
<use xlink:href="#c"/>
<use x="63.623047" xlink:href="#d"/>
<use x="95.410156" xlink:href="#ab"/>
</g>
</g>
<g clip-path="url(#a)">
<g transform="translate(164.51 781.85) scale(.1 -.1)">
<defs>
<path id="aa" d="m31.781 34.625q-7.0312 0-11.062-3.7656-4.0156-3.7656-4.0156-10.344 0-6.5938 4.0156-10.359 4.0312-3.7656 11.062-3.7656t11.078 3.7812q4.0625 3.7969 4.0625 10.344 0 6.5781-4.0312 10.344-4.0156 3.7656-11.109 3.7656zm-9.8594 4.1875q-6.3438 1.5625-9.8906 5.9062-3.5312 4.3594-3.5312 10.609 0 8.7344 6.2188 13.812 6.2344 5.0781 17.062 5.0781 10.891 0 17.094-5.0781t6.2031-13.812q0-6.25-3.5469-10.609-3.5312-4.3438-9.8281-5.9062 7.125-1.6562 11.094-6.5 3.9844-4.8281 3.9844-11.797 0-10.609-6.4688-16.281-6.4688-5.6562-18.531-5.6562-12.047 0-18.531 5.6562-6.4688 5.6719-6.4688 16.281 0 6.9688 4 11.797 4.0156 4.8438 11.141 6.5zm-3.6094 15.578q0-5.6562 3.5312-8.8281 3.5469-3.1719 9.9375-3.1719 6.3594 0 9.9375 3.1719 3.5938 3.1719 3.5938 8.8281 0 5.6719-3.5938 8.8438-3.5781 3.1719-9.9375 3.1719-6.3906 0-9.9375-3.1719-3.5312-3.1719-3.5312-8.8438z"/>
</defs>
<use xlink:href="#c"/>
<use x="63.623047" xlink:href="#d"/>
<use x="95.410156" xlink:href="#aa"/>
</g>
</g>
<g clip-path="url(#a)">
<g transform="translate(241.42 417.72) scale(.1 -.1)">
<defs>
<path id="z" d="m10.984 1.5156v8.9844q3.7188-1.7656 7.5156-2.6875 3.8125-0.92188 7.4844-0.92188 9.7656 0 14.906 6.5625 5.1562 6.5625 5.8906 19.953-2.8281-4.2031-7.1875-6.4531-4.3438-2.25-9.6094-2.25-10.938 0-17.312 6.6094-6.375 6.625-6.375 18.109 0 11.219 6.6406 18 6.6406 6.7969 17.672 6.7969 12.656 0 19.312-9.7031 6.6719-9.6875 6.6719-28.141 0-17.234-8.1875-27.516-8.1719-10.281-21.984-10.281-3.7188 0-7.5312 0.73438-3.7969 0.73438-7.9062 2.2031zm19.625 30.906q6.6406 0 10.516 4.5312 3.8906 4.5469 3.8906 12.469 0 7.8594-3.8906 12.422-3.875 4.5625-10.516 4.5625t-10.516-4.5625-3.875-12.422q0-7.9219 3.875-12.469 3.875-4.5312 10.516-4.5312z"/>
</defs>
<use xlink:href="#c"/>
<use x="63.623047" xlink:href="#d"/>
<use x="95.410156" xlink:href="#z"/>
</g>
</g>
<g clip-path="url(#a)">
<g transform="translate(717.27 902.22) scale(.1 -.1)">
<defs>
<path id="ag" d="m31.781 66.406q-7.6094 0-11.453-7.5-3.8281-7.4844-3.8281-22.531 0-14.984 3.8281-22.484 3.8438-7.5 11.453-7.5 7.6719 0 11.5 7.5 3.8438 7.5 3.8438 22.484 0 15.047-3.8438 22.531-3.8281 7.5-11.5 7.5zm0 7.8125q12.266 0 18.734-9.7031 6.4688-9.6875 6.4688-28.141 0-18.406-6.4688-28.109-6.4688-9.6875-18.734-9.6875-12.25 0-18.719 9.6875-6.4688 9.7031-6.4688 28.109 0 18.453 6.4688 28.141 6.4688 9.7031 18.719 9.7031z"/>
</defs>
<use xlink:href="#c"/>
<use x="63.623047" xlink:href="#d"/>
<use x="95.410156" xlink:href="#c"/>
<use x="159.033203" xlink:href="#ag"/>
</g>
</g>
<g clip-path="url(#a)">
<g transform="translate(880.44 539.44) scale(.1 -.1)">
<use xlink:href="#c"/>
<use x="63.623047" xlink:href="#d"/>
<use x="95.410156" xlink:href="#c"/>
<use x="159.033203" xlink:href="#c"/>
</g>
</g>
<g clip-path="url(#a)">
<g transform="translate(1447.2 539.44) scale(.1 -.1)">
<use xlink:href="#c"/>
<use x="63.623047" xlink:href="#d"/>
<use x="95.410156" xlink:href="#c"/>
<use x="159.033203" xlink:href="#p"/>
</g>
</g>
<g clip-path="url(#a)">
<g transform="translate(1312.8 781.85) scale(.1 -.1)">
<use xlink:href="#c"/>
<use x="63.623047" xlink:href="#d"/>
<use x="95.410156" xlink:href="#c"/>
<use x="159.033203" xlink:href="#ab"/>
</g>
</g>
<g clip-path="url(#a)">
<g transform="translate(1424.2 902.22) scale(.1 -.1)">
<use xlink:href="#c"/>
<use x="63.623047" xlink:href="#d"/>
<use x="95.410156" xlink:href="#c"/>
<use x="159.033203" xlink:href="#aa"/>
</g>
</g>
<g clip-path="url(#a)">
<g transform="translate(1604.6 660.85) scale(.1 -.1)">
<use xlink:href="#c"/>
<use x="63.623047" xlink:href="#d"/>
<use x="95.410156" xlink:href="#c"/>
<use x="159.033203" xlink:href="#z"/>
</g>
</g>
<g clip-path="url(#a)">
<g transform="translate(1501.4 902.22) scale(.1 -.1)">
<use xlink:href="#c"/>
<use x="63.623047" xlink:href="#d"/>
<use x="95.410156" xlink:href="#p"/>
<use x="159.033203" xlink:href="#ag"/>
</g>
</g>
<g clip-path="url(#a)">
<g transform="translate(1731.9 781.85) scale(.1 -.1)">
<use xlink:href="#c"/>
<use x="63.623047" xlink:href="#d"/>
<use x="95.410156" xlink:href="#p"/>
<use x="159.033203" xlink:href="#c"/>
</g>
</g>
<g clip-path="url(#a)">
<g transform="translate(1662 902.22) scale(.1 -.1)">
<defs>
<path id="s" d="m40.578 39.312q7.0781-1.5156 11.047-6.3125 3.9844-4.7812 3.9844-11.812 0-10.781-7.4219-16.703-7.4219-5.9062-21.094-5.9062-4.5781 0-9.4375 0.90625t-10.031 2.7188v9.5156q4.0938-2.3906 8.9688-3.6094 4.8906-1.2188 10.219-1.2188 9.2656 0 14.125 3.6562t4.8594 10.641q0 6.4531-4.5156 10.078-4.5156 3.6406-12.562 3.6406h-8.5v8.1094h8.8906q7.2656 0 11.125 2.9062t3.8594 8.375q0 5.6094-3.9844 8.6094-3.9688 3.0156-11.391 3.0156-4.0625 0-8.7031-0.89062-4.6406-0.875-10.203-2.7188v8.7812q5.625 1.5625 10.531 2.3438t9.25 0.78125q11.234 0 17.766-5.1094 6.5469-5.0938 6.5469-13.781 0-6.0625-3.4688-10.234t-9.8594-5.7812z"/>
</defs>
<use xlink:href="#c"/>
<use x="63.623047" xlink:href="#d"/>
<use x="95.410156" xlink:href="#p"/>
<use x="159.033203" xlink:href="#s"/>
</g>
</g>
<g clip-path="url(#a)">
<g transform="translate(1745.6 902.22) scale(.1 -.1)">
<defs>
<path id="r" d="m37.797 64.312-24.906-38.922h24.906zm-2.5938 8.5938h12.406v-47.516h10.406v-8.2031h-10.406v-17.188h-9.8125v17.188h-32.906v9.5156z"/>
</defs>
<use xlink:href="#c"/>
<use x="63.623047" xlink:href="#d"/>
<use x="95.410156" xlink:href="#p"/>
<use x="159.033203" xlink:href="#r"/>
</g>
</g>
<g clip-path="url(#a)">
<g transform="translate(1831.3 902.22) scale(.1 -.1)">
<defs>
<path id="o" d="m10.797 72.906h38.719v-8.3125h-29.688v-17.859q2.1406 0.73438 4.2812 1.0938 2.1562 0.35938 4.3125 0.35938 12.203 0 19.328-6.6875 7.1406-6.6875 7.1406-18.109 0-11.766-7.3281-18.297-7.3281-6.5156-20.656-6.5156-4.5938 0-9.3594 0.78125-4.75 0.78125-9.8281 2.3438v9.9219q4.3906-2.3906 9.0781-3.5625t9.9062-1.1719q8.4531 0 13.375 4.4375 4.9375 4.4375 4.9375 12.062 0 7.6094-4.9375 12.047-4.9219 4.4531-13.375 4.4531-3.9531 0-7.8906-0.875-3.9219-0.875-8.0156-2.7344z"/>
</defs>
<use xlink:href="#c"/>
<use x="63.623047" xlink:href="#d"/>
<use x="95.410156" xlink:href="#p"/>
<use x="159.033203" xlink:href="#o"/>
</g>
</g>
<g clip-path="url(#a)">
<g transform="translate(1276.4 902.22) scale(.1 -.1)">
<use xlink:href="#c"/>
<use x="63.623047" xlink:href="#d"/>
<use x="95.410156" xlink:href="#p"/>
<use x="159.033203" xlink:href="#n"/>
</g>
</g>
<g clip-path="url(#a)">
<g transform="translate(1349.3 902.22) scale(.1 -.1)">
<use xlink:href="#c"/>
<use x="63.623047" xlink:href="#d"/>
<use x="95.410156" xlink:href="#p"/>
<use x="159.033203" xlink:href="#ab"/>
</g>
</g>
<g clip-path="url(#a)">
<g transform="translate(770.83 902.22) scale(.1 -.1)">
<use xlink:href="#c"/>
<use x="63.623047" xlink:href="#d"/>
<use x="95.410156" xlink:href="#p"/>
<use x="159.033203" xlink:href="#aa"/>
</g>
</g>
<g clip-path="url(#a)">
<g transform="translate(826.53 902.22) scale(.1 -.1)">
<use xlink:href="#c"/>
<use x="63.623047" xlink:href="#d"/>
<use x="95.410156" xlink:href="#p"/>
<use x="159.033203" xlink:href="#z"/>
</g>
</g>
<g clip-path="url(#a)">
<g transform="translate(1040 660.85) scale(.1 -.1)">
<use xlink:href="#c"/>
<use x="63.623047" xlink:href="#d"/>
<use x="95.410156" xlink:href="#s"/>
<use x="159.033203" xlink:href="#ag"/>
</g>
</g>
<g clip-path="url(#a)">
<g transform="translate(944.36 902.22) scale(.1 -.1)">
<use xlink:href="#c"/>
<use x="63.623047" xlink:href="#d"/>
<use x="95.410156" xlink:href="#s"/>
<use x="159.033203" xlink:href="#p"/>
</g>
</g>
<g clip-path="url(#a)">
<g transform="translate(1038.6 781.85) scale(.1 -.1)">
<use xlink:href="#c"/>
<use x="63.623047" xlink:href="#d"/>
<use x="95.410156" xlink:href="#s"/>
<use x="159.033203" xlink:href="#s"/>
</g>
</g>
<g clip-path="url(#a)">
<g transform="translate(1137.2 902.22) scale(.1 -.1)">
<use xlink:href="#c"/>
<use x="63.623047" xlink:href="#d"/>
<use x="95.410156" xlink:href="#s"/>
<use x="159.033203" xlink:href="#r"/>
</g>
</g>
<g clip-path="url(#a)">
<g transform="translate(1006.5 902.22) scale(.1 -.1)">
<use xlink:href="#c"/>
<use x="63.623047" xlink:href="#d"/>
<use x="95.410156" xlink:href="#s"/>
<use x="159.033203" xlink:href="#o"/>
</g>
</g>
<g clip-path="url(#a)">
<g transform="translate(1070.8 902.22) scale(.1 -.1)">
<use xlink:href="#c"/>
<use x="63.623047" xlink:href="#d"/>
<use x="95.410156" xlink:href="#s"/>
<use x="159.033203" xlink:href="#n"/>
</g>
</g>
<g clip-path="url(#a)">
<g transform="translate(192.39 902.22) scale(.1 -.1)">
<use xlink:href="#c"/>
<use x="63.623047" xlink:href="#d"/>
<use x="95.410156" xlink:href="#s"/>
<use x="159.033203" xlink:href="#ab"/>
</g>
</g>
<g clip-path="url(#a)">
<g transform="translate(215.96 902.22) scale(.1 -.1)">
<use xlink:href="#c"/>
<use x="63.623047" xlink:href="#d"/>
<use x="95.410156" xlink:href="#s"/>
<use x="159.033203" xlink:href="#aa"/>
</g>
</g>
<g clip-path="url(#a)">
<g transform="translate(306.38 539.44) scale(.1 -.1)">
<use xlink:href="#c"/>
<use x="63.623047" xlink:href="#d"/>
<use x="95.410156" xlink:href="#s"/>
<use x="159.033203" xlink:href="#z"/>
</g>
</g>
<g clip-path="url(#a)">
<g transform="translate(241.66 902.22) scale(.1 -.1)">
<use xlink:href="#c"/>
<use x="63.623047" xlink:href="#d"/>
<use x="95.410156" xlink:href="#r"/>
<use x="159.033203" xlink:href="#ag"/>
</g>
</g>
<g clip-path="url(#a)">
<g transform="translate(269.52 902.22) scale(.1 -.1)">
<use xlink:href="#c"/>
<use x="63.623047" xlink:href="#d"/>
<use x="95.410156" xlink:href="#r"/>
<use x="159.033203" xlink:href="#c"/>
</g>
</g>
<g clip-path="url(#a)">
<g transform="translate(414.84 660.85) scale(.1 -.1)">
<use xlink:href="#c"/>
<use x="63.623047" xlink:href="#d"/>
<use x="95.410156" xlink:href="#r"/>
<use x="159.033203" xlink:href="#p"/>
</g>
</g>
<g clip-path="url(#a)">
<g transform="translate(342.36 781.85) scale(.1 -.1)">
<use xlink:href="#c"/>
<use x="63.623047" xlink:href="#d"/>
<use x="95.410156" xlink:href="#r"/>
<use x="159.033203" xlink:href="#r"/>
</g>
</g>
<g clip-path="url(#a)">
<g transform="translate(461.26 781.85) scale(.1 -.1)">
<use xlink:href="#c"/>
<use x="63.623047" xlink:href="#d"/>
<use x="95.410156" xlink:href="#r"/>
<use x="159.033203" xlink:href="#o"/>
</g>
</g>
<g clip-path="url(#a)">
<g transform="translate(481.61 902.22) scale(.1 -.1)">
<use xlink:href="#c"/>
<use x="63.623047" xlink:href="#d"/>
<use x="95.410156" xlink:href="#r"/>
<use x="159.033203" xlink:href="#ab"/>
</g>
</g>
<g clip-path="url(#a)">
<g transform="translate(524.46 902.22) scale(.1 -.1)">
<use xlink:href="#c"/>
<use x="63.623047" xlink:href="#d"/>
<use x="95.410156" xlink:href="#r"/>
<use x="159.033203" xlink:href="#aa"/>
</g>
</g>
<g clip-path="url(#a)">
<g transform="translate(569.45 902.22) scale(.1 -.1)">
<use xlink:href="#c"/>
<use x="63.623047" xlink:href="#d"/>
<use x="95.410156" xlink:href="#r"/>
<use x="159.033203" xlink:href="#z"/>
</g>
</g>
<g clip-path="url(#a)">
<g transform="translate(331.64 902.22) scale(.1 -.1)">
<use xlink:href="#c"/>
<use x="63.623047" xlink:href="#d"/>
<use x="95.410156" xlink:href="#o"/>
<use x="159.033203" xlink:href="#ag"/>
</g>
</g>
<g clip-path="url(#a)">
<g transform="translate(365.92 902.22) scale(.1 -.1)">
<use xlink:href="#c"/>
<use x="63.623047" xlink:href="#d"/>
<use x="95.410156" xlink:href="#o"/>
<use x="159.033203" xlink:href="#c"/>
</g>
</g>
<g clip-path="url(#a)">
<g transform="translate(402.34 902.22) scale(.1 -.1)">
<use xlink:href="#c"/>
<use x="63.623047" xlink:href="#d"/>
<use x="95.410156" xlink:href="#o"/>
<use x="159.033203" xlink:href="#p"/>
</g>
</g>
<g clip-path="url(#a)">
<g transform="translate(151.69 902.22) scale(.1 -.1)">
<use xlink:href="#c"/>
<use x="63.623047" xlink:href="#d"/>
<use x="95.410156" xlink:href="#o"/>
<use x="159.033203" xlink:href="#s"/>
</g>
</g>
<g clip-path="url(#a)">
<g transform="translate(170.97 902.22) scale(.1 -.1)">
<use xlink:href="#c"/>
<use x="63.623047" xlink:href="#d"/>
<use x="95.410156" xlink:href="#o"/>
<use x="159.033203" xlink:href="#r"/>
</g>
</g>
<g clip-path="url(#a)">
<g transform="translate(80.988 902.22) scale(.1 -.1)">
<use xlink:href="#c"/>
<use x="63.623047" xlink:href="#d"/>
<use x="95.410156" xlink:href="#o"/>
<use x="159.033203" xlink:href="#o"/>
</g>
</g>
<g clip-path="url(#a)">
<g transform="translate(87.415 902.22) scale(.1 -.1)">
<use xlink:href="#c"/>
<use x="63.623047" xlink:href="#d"/>
<use x="95.410156" xlink:href="#o"/>
<use x="159.033203" xlink:href="#n"/>
</g>
</g>
<g clip-path="url(#a)">
<g transform="translate(95.985 902.22) scale(.1 -.1)">
<use xlink:href="#c"/>
<use x="63.623047" xlink:href="#d"/>
<use x="95.410156" xlink:href="#o"/>
<use x="159.033203" xlink:href="#ab"/>
</g>
</g>
<g clip-path="url(#a)">
<g transform="translate(113.12 781.85) scale(.1 -.1)">
<use xlink:href="#c"/>
<use x="63.623047" xlink:href="#d"/>
<use x="95.410156" xlink:href="#o"/>
<use x="159.033203" xlink:href="#aa"/>
</g>
</g>
<g clip-path="url(#a)">
<g transform="translate(106.7 902.22) scale(.1 -.1)">
<use xlink:href="#c"/>
<use x="63.623047" xlink:href="#d"/>
<use x="95.410156" xlink:href="#o"/>
<use x="159.033203" xlink:href="#z"/>
</g>
</g>
<g clip-path="url(#a)">
<g transform="translate(119.55 902.22) scale(.1 -.1)">
<use xlink:href="#c"/>
<use x="63.623047" xlink:href="#d"/>
<use x="95.410156" xlink:href="#n"/>
<use x="159.033203" xlink:href="#ag"/>
</g>
</g>
<g clip-path="url(#a)">
<g transform="translate(134.55 902.22) scale(.1 -.1)">
<use xlink:href="#c"/>
<use x="63.623047" xlink:href="#d"/>
<use x="95.410156" xlink:href="#n"/>
<use x="159.033203" xlink:href="#c"/>
</g>
</g>
<g clip-path="url(#a)">
<g transform="translate(299.51 902.22) scale(.1 -.1)">
<use xlink:href="#c"/>
<use x="63.623047" xlink:href="#d"/>
<use x="95.410156" xlink:href="#n"/>
<use x="159.033203" xlink:href="#p"/>
</g>
</g>
<g clip-path="url(#a)">
<g transform="translate(440.9 902.22) scale(.1 -.1)">
<use xlink:href="#c"/>
<use x="63.623047" xlink:href="#d"/>
<use x="95.410156" xlink:href="#n"/>
<use x="159.033203" xlink:href="#s"/>
</g>
</g>
<g clip-path="url(#a)">
<g transform="translate(616.58 902.22) scale(.1 -.1)">
<use xlink:href="#c"/>
<use x="63.623047" xlink:href="#d"/>
<use x="95.410156" xlink:href="#n"/>
<use x="159.033203" xlink:href="#r"/>
</g>
</g>
<g clip-path="url(#a)">
<g transform="translate(665.85 902.22) scale(.1 -.1)">
<use xlink:href="#c"/>
<use x="63.623047" xlink:href="#d"/>
<use x="95.410156" xlink:href="#n"/>
<use x="159.033203" xlink:href="#o"/>
</g>
</g>
<g clip-path="url(#a)">
<g transform="translate(884.37 902.22) scale(.1 -.1)">
<use xlink:href="#c"/>
<use x="63.623047" xlink:href="#d"/>
<use x="95.410156" xlink:href="#n"/>
<use x="159.033203" xlink:href="#n"/>
</g>
</g>
<g clip-path="url(#a)">
<g transform="translate(1205.7 902.22) scale(.1 -.1)">
<use xlink:href="#c"/>
<use x="63.623047" xlink:href="#d"/>
<use x="95.410156" xlink:href="#n"/>
<use x="159.033203" xlink:href="#ab"/>
</g>
</g>
<g clip-path="url(#a)">
<g transform="translate(1580.6 902.22) scale(.1 -.1)">
<use xlink:href="#c"/>
<use x="63.623047" xlink:href="#d"/>
<use x="95.410156" xlink:href="#n"/>
<use x="159.033203" xlink:href="#aa"/>
</g>
</g>
<g clip-path="url(#a)">
<g transform="translate(1919.1 902.22) scale(.1 -.1)">
<use xlink:href="#c"/>
<use x="63.623047" xlink:href="#d"/>
<use x="95.410156" xlink:href="#n"/>
<use x="159.033203" xlink:href="#z"/>
</g>
</g>
<defs>
<clipPath id="a">
<rect width="2026.7" height="1066.7"/>
</clipPath>
</defs>
</svg>
