<?xml version="1.0" encoding="UTF-8"?>
<!DOCTYPE svg  PUBLIC '-//W3C//DTD SVG 1.1//EN'  'http://www.w3.org/Graphics/SVG/1.1/DTD/svg11.dtd'>
<svg width="1317.3pt" height="693.33pt" version="1.1" viewBox="0 0 1317.3 693.33" xmlns="http://www.w3.org/2000/svg" xmlns:xlink="http://www.w3.org/1999/xlink">
<metadata>
<rdf:RDF xmlns:cc="http://creativecommons.org/ns#" xmlns:dc="http://purl.org/dc/elements/1.1/" xmlns:rdf="http://www.w3.org/1999/02/22-rdf-syntax-ns#">
<cc:Work>
<dc:type rdf:resource="http://purl.org/dc/dcmitype/StillImage"/>
<dc:date>2021-02-01T11:26:53.255661</dc:date>
<dc:format>image/svg+xml</dc:format>
<dc:creator>
<cc:Agent>
<dc:title>Matplotlib v3.3.3, https://matplotlib.org/</dc:title>
</cc:Agent>
</dc:creator>
</cc:Work>
</rdf:RDF>
</metadata>
<defs>
<style type="text/css">*{stroke-linecap:butt;stroke-linejoin:round;}</style>
</defs>
<path d="m0 693.33h1317.3v-693.33h-1317.3z" fill="#fff"/>
<g fill="none" stroke="#000">
<path d="m315.43 31.515-244.96 380.48" clip-path="url(#a)"/>
<path d="m315.43 31.515-37.272 127.18" clip-path="url(#a)"/>
<path d="m315.43 31.515 524.75 254.05" clip-path="url(#a)"/>
<path d="m315.43 31.515-217.43 506.26" clip-path="url(#a)"/>
<path d="m315.43 31.515-198.37 506.26" clip-path="url(#a)"/>
<path d="m315.43 31.515 173.29 506.26" clip-path="url(#a)"/>
<path d="m70.467 412-10.589 125.77" clip-path="url(#a)"/>
<path d="m70.467 412-1.0589 125.77" clip-path="url(#a)"/>
<path d="m70.467 412 11.648 125.77" clip-path="url(#a)"/>
<path d="m278.16 158.7 159.74 126.86" clip-path="url(#a)"/>
<path d="m278.16 158.7 159.74 126.86" clip-path="url(#a)"/>
<path d="m278.16 158.7v126.86" clip-path="url(#a)"/>
<path d="m840.17 285.56-239.22 126.43" clip-path="url(#a)"/>
<path d="m840.17 285.56-116.39 252.21" clip-path="url(#a)"/>
<path d="m840.17 285.56-49.678 252.21" clip-path="url(#a)"/>
<path d="m840.17 285.56 20.207 252.21" clip-path="url(#a)"/>
<path d="m840.17 285.56 291.81 126.43" clip-path="url(#a)"/>
<path d="m840.17 285.56 93.268 252.21" clip-path="url(#a)"/>
<path d="m600.96 412-58.238 125.77" clip-path="url(#a)"/>
<path d="m600.96 412-1.0589 125.77" clip-path="url(#a)"/>
<path d="m600.96 412 59.296 125.77" clip-path="url(#a)"/>
<path d="m723.79 537.77v124.05" clip-path="url(#a)"/>
<path d="m790.5 537.77v124.05" clip-path="url(#a)"/>
<path d="m860.38 537.77v124.05" clip-path="url(#a)"/>
<path d="m1132 412-122.3 125.77" clip-path="url(#a)"/>
<path d="m1132 412-42.884 125.77" clip-path="url(#a)"/>
<path d="m1132 412 39.707 125.77" clip-path="url(#a)"/>
<path d="m1132 412 125.48 125.77" clip-path="url(#a)"/>
<path d="m1009.7 537.77v124.05" clip-path="url(#a)"/>
<path d="m1089.1 537.77v124.05" clip-path="url(#a)"/>
<path d="m1171.7 537.77v124.05" clip-path="url(#a)"/>
<path d="m542.72 537.77v124.05" clip-path="url(#a)"/>
<path d="m599.9 537.77v124.05" clip-path="url(#a)"/>
<path d="m660.25 537.77v124.05" clip-path="url(#a)"/>
<path d="m278.16 285.56-138.86 252.21" clip-path="url(#a)"/>
<path d="m278.16 285.56-68.977 126.43" clip-path="url(#a)"/>
<path d="m278.16 285.56 0.9076 126.43" clip-path="url(#a)"/>
<path d="m278.16 285.56 61.263 252.21" clip-path="url(#a)"/>
<path d="m278.16 285.56 105.74 252.21" clip-path="url(#a)"/>
<path d="m278.16 285.56 153.38 252.21" clip-path="url(#a)"/>
<path d="m278.16 285.56-113.45 252.21" clip-path="url(#a)"/>
<path d="m139.29 537.77v124.05" clip-path="url(#a)"/>
<path d="m209.18 412-15.883 125.77" clip-path="url(#a)"/>
<path d="m209.18 412 15.883 125.77" clip-path="url(#a)"/>
<path d="m279.06 412-19.06 125.77" clip-path="url(#a)"/>
<path d="m279.06 412 19.06 125.77" clip-path="url(#a)"/>
<path d="m339.42 537.77v124.05" clip-path="url(#a)"/>
<path d="m383.89 537.77v124.05" clip-path="url(#a)"/>
<path d="m431.54 537.77v124.05" clip-path="url(#a)"/>
<path d="m260 537.77v124.05" clip-path="url(#a)"/>
<path d="m298.12 537.77v124.05" clip-path="url(#a)"/>
<path d="m193.3 537.77v124.05" clip-path="url(#a)"/>
<path d="m225.06 537.77v124.05" clip-path="url(#a)"/>
<path d="m59.879 537.77v124.05" clip-path="url(#a)"/>
<path d="m69.409 537.77v124.05" clip-path="url(#a)"/>
<path d="m82.115 537.77v124.05" clip-path="url(#a)"/>
<path d="m97.998 537.77v124.05" clip-path="url(#a)"/>
<path d="m117.06 537.77v124.05" clip-path="url(#a)"/>
<path d="m164.71 537.77v124.05" clip-path="url(#a)"/>
<path d="m488.72 537.77v124.05" clip-path="url(#a)"/>
<path d="m933.44 537.77v124.05" clip-path="url(#a)"/>
<path d="m1257.5 537.77v124.05" clip-path="url(#a)"/>
</g>
<path d="m196.59 227.68 3.2568-5.0585q1.2992-2.0179-0.71875-3.3171l-6.51-4.1912q-2.0179-1.2992-3.3171 0.71875l-3.2568 5.0585q-1.2992 2.0179 0.71875 3.3171l6.51 4.1912q2.0179 1.2992 3.3171-0.71875z" clip-path="url(#a)" fill="#fff" stroke="#fff"/>
<g clip-path="url(#a)">
<g transform="translate(193.18 225.48) rotate(-57.226) scale(.08 -.08)">
<defs>
<path id="af" d="m9.8125 72.906h9.8594v-29.891h35.844v29.891h9.8594v-72.906h-9.8594v34.719h-35.844v-34.719h-9.8594z"/>
</defs>
<use xlink:href="#af"/>
</g>
</g>
<path d="m301.96 99.758 1.692-5.7734q0.67495-2.3031-1.6282-2.9781l-7.43-2.1774q-2.3031-0.67495-2.9781 1.6282l-1.692 5.7734q-0.67495 2.3031 1.6282 2.9781l7.43 2.1774q2.3031 0.67495 2.9781-1.6282z" clip-path="url(#a)" fill="#fff" stroke="#fff"/>
<g clip-path="url(#a)">
<g transform="translate(298.06 98.615) rotate(-73.666) scale(.08 -.08)">
<use xlink:href="#af"/>
</g>
</g>
<path d="m572.36 162.87 5.415 2.6216q2.1602 1.0458 3.206-1.1143l3.3738-6.9688q1.0458-2.1602-1.1143-3.206l-5.415-2.6216q-2.1602-1.0458-3.206 1.1143l-3.3738 6.9688q-1.0458 2.1602 1.1143 3.206z" clip-path="url(#a)" fill="#fff" stroke="#fff"/>
<g clip-path="url(#a)">
<g transform="translate(574.13 159.22) rotate(25.833) scale(.08 -.08)">
<use xlink:href="#af"/>
</g>
</g>
<path d="m211.32 289.81 2.3106-5.3798q0.94712-2.2052-1.2581-3.1523l-7.1141-3.0554q-2.2052-0.94712-3.1523 1.2581l-2.3106 5.3798q-0.94711 2.2052 1.2581 3.1523l7.1141 3.0554q2.2052 0.94712 3.1523-1.2581z" clip-path="url(#a)" fill="#fff" stroke="#fff"/>
<g clip-path="url(#a)">
<g transform="translate(207.59 288.2) rotate(-66.757) scale(.08 -.08)">
<defs>
<path id="s" d="m8.6875 72.906h9.9219v-44.297q0-11.719 4.2344-16.875 4.25-5.1406 13.781-5.1406 9.4688 0 13.719 5.1406 4.25 5.1562 4.25 16.875v44.297h9.9062v-45.516q0-14.25-7.0625-21.531-7.0469-7.2812-20.812-7.2812-13.828 0-20.891 7.2812-7.0469 7.2812-7.0469 21.531z"/>
</defs>
<use xlink:href="#s"/>
</g>
</g>
<path d="m221.01 289.66 2.1361-5.4514q0.8756-2.2346-1.359-3.1102l-7.2088-2.8247q-2.2346-0.8756-3.1102 1.359l-2.1361 5.4514q-0.8756 2.2346 1.359 3.1102l7.2088 2.8247q2.2346 0.8756 3.1102-1.359z" clip-path="url(#a)" fill="#fff" stroke="#fff"/>
<g clip-path="url(#a)">
<g transform="translate(217.23 288.17) rotate(-68.603) scale(.08 -.08)">
<use xlink:href="#s"/>
</g>
</g>
<path d="m395.19 283.9 1.8961 5.5395q0.77724 2.2707 3.0479 1.4934l7.3252-2.5074q2.2707-0.77724 1.4934-3.0479l-1.8962-5.5395q-0.77724-2.2707-3.0479-1.4934l-7.3252 2.5074q-2.2707 0.77724-1.4934 3.0479z" clip-path="url(#a)" fill="#fff" stroke="#fff"/>
<g clip-path="url(#a)">
<g transform="translate(399.04 282.59) rotate(71.104) scale(.08 -.08)">
<use xlink:href="#s"/>
</g>
</g>
<path d="m71.193 478.14 0.4591-5.4532q0.20134-2.3915-2.1902-2.5929l-7.7152-0.64953q-2.3915-0.20134-2.5929 2.1902l-0.4591 5.4532q-0.20134 2.3915 2.1902 2.5929l7.7152 0.64953q2.3915 0.20134 2.5929-2.1902z" clip-path="url(#a)" fill="#fff" stroke="#fff"/>
<g clip-path="url(#a)">
<g transform="translate(67.143 477.8) rotate(-85.188) scale(.08 -.08)">
<defs>
<path id="o" d="m34.188 63.188-13.391-36.281h26.812zm-5.5781 9.7188h11.188l27.781-72.906h-10.25l-6.6406 18.703h-32.859l-6.6406-18.703h-10.406z"/>
</defs>
<use xlink:href="#o"/>
</g>
</g>
<path d="m76.183 478.02 0.051858-6.1598q0.020205-2.3999-2.3797-2.4201l-7.7422-0.065181q-2.3999-0.020204-2.4201 2.3797l-0.051858 6.1598q-0.020205 2.3999 2.3797 2.4201l7.7422 0.06518q2.3999 0.020205 2.4201-2.3797z" clip-path="url(#a)" fill="#fff" stroke="#fff"/>
<g clip-path="url(#a)">
<g transform="translate(72.119 477.98) rotate(-89.518) scale(.08 -.08)">
<defs>
<path id="ag" d="m19.672 64.797v-56.688h11.922q15.094 0 22.094 6.8281 7 6.8438 7 21.594 0 14.641-7 21.453t-22.094 6.8125zm-9.8594 8.1094h20.266q21.188 0 31.094-8.8125 9.9219-8.8125 9.9219-27.562 0-18.859-9.9688-27.703-9.9531-8.8281-31.047-8.8281h-20.266z"/>
</defs>
<use xlink:href="#ag"/>
</g>
</g>
<path d="m69.824 473.06 0.44481 4.8032q0.22131 2.3898 2.6111 2.1685l7.7095-0.71395q2.3898-0.22131 2.1685-2.6111l-0.44481-4.8032q-0.22131-2.3898-2.6111-2.1685l-7.7095 0.71395q-2.3898 0.22131-2.1685 2.6111z" clip-path="url(#a)" fill="#fff" stroke="#fff"/>
<g clip-path="url(#a)">
<g transform="translate(73.871 472.69) rotate(84.709) scale(.08 -.08)">
<defs>
<path id="t" d="m19.672 64.797v-27.391h12.406q6.8906 0 10.641 3.5625 3.7656 3.5625 3.7656 10.156 0 6.5469-3.7656 10.109-3.75 3.5625-10.641 3.5625zm-9.8594 8.1094h22.266q12.266 0 18.531-5.5469 6.2812-5.5469 6.2812-16.234 0-10.797-6.2812-16.312-6.2656-5.5156-18.531-5.5156h-12.406v-29.297h-9.8594z"/>
</defs>
<use xlink:href="#t"/>
</g>
</g>
<path d="m351.98 225.34 4.2854 3.4035q1.8794 1.4926 3.372-0.38678l4.8152-6.063q1.4926-1.8794-0.38678-3.372l-4.2854-3.4035q-1.8794-1.4926-3.372 0.38678l-4.8152 6.063q-1.4926 1.8794 0.38678 3.372z" clip-path="url(#a)" fill="#fff" stroke="#fff"/>
<g clip-path="url(#a)">
<g transform="translate(354.51 222.16) rotate(38.457) scale(.08 -.08)">
<use xlink:href="#o"/>
</g>
</g>
<path d="m352.24 225.54 3.7774 3q1.8794 1.4926 3.372-0.38678l4.8152-6.063q1.4926-1.8794-0.38678-3.372l-3.7774-3q-1.8794-1.4926-3.372 0.38678l-4.8152 6.063q-1.4926 1.8794 0.38678 3.372z" clip-path="url(#a)" fill="#fff" stroke="#fff"/>
<g clip-path="url(#a)">
<g transform="translate(354.76 222.36) rotate(38.457) scale(.08 -.08)">
<use xlink:href="#t"/>
</g>
</g>
<path d="m271.88 219.4v5.4725q0 2.4 2.4 2.4h7.7425q2.4 0 2.4-2.4v-5.4725q0-2.4-2.4-2.4h-7.7425q-2.4 0-2.4 2.4z" clip-path="url(#a)" fill="#fff" stroke="#fff"/>
<g clip-path="url(#a)">
<g transform="translate(275.95 219.4) rotate(90) scale(.08 -.08)">
<use xlink:href="#o"/>
</g>
</g>
<path d="m721.34 355.47 4.32-2.2833q2.1219-1.1215 1.0004-3.2433l-3.6179-6.8452q-1.1215-2.1219-3.2433-1.0004l-4.32 2.2833q-2.1219 1.1215-1.0004 3.2433l3.6179 6.8452q1.1215 2.1219 3.2433 1.0004z" clip-path="url(#a)" fill="#fff" stroke="#fff"/>
<g clip-path="url(#a)">
<g transform="translate(719.44 351.87) rotate(-27.858) scale(.08 -.08)">
<defs>
<path id="e" d="m-0.29688 72.906h61.672v-8.3125h-25.875v-64.594h-9.9062v64.594h-25.891z"/>
</defs>
<use xlink:href="#e"/>
</g>
</g>
<path d="m786.53 416.78 2.293-4.9689q1.0056-2.1792-1.1735-3.1848l-7.03-3.2442q-2.1792-1.0056-3.1848 1.1735l-2.293 4.9689q-1.0056 2.1792 1.1735 3.1848l7.03 3.2442q2.1792 1.0056 3.1848-1.1735z" clip-path="url(#a)" fill="#fff" stroke="#fff"/>
<g clip-path="url(#a)">
<g transform="translate(782.84 415.08) rotate(-65.228) scale(.08 -.08)">
<use xlink:href="#o"/>
</g>
</g>
<path d="m820.89 415.9 1.1905-6.0439q0.46383-2.3548-1.8909-2.8186l-7.5965-1.4963q-2.3548-0.46383-2.8186 1.8909l-1.1905 6.0439q-0.46383 2.3548 1.8909 2.8186l7.5965 1.4963q2.3548 0.46383 2.8186-1.8909z" clip-path="url(#a)" fill="#fff" stroke="#fff"/>
<g clip-path="url(#a)">
<g transform="translate(816.91 415.12) rotate(-78.857) scale(.08 -.08)">
<use xlink:href="#ag"/>
</g>
</g>
<path d="m843.83 409.76 0.38524 4.8083q0.19167 2.3923 2.584 2.2007l7.7178-0.61834q2.3923-0.19167 2.2007-2.584l-0.38524-4.8083q-0.19167-2.3923-2.584-2.2007l-7.7178 0.61834q-2.3923 0.19167-2.2007 2.584z" clip-path="url(#a)" fill="#fff" stroke="#fff"/>
<g clip-path="url(#a)">
<g transform="translate(847.88 409.44) rotate(85.419) scale(.08 -.08)">
<use xlink:href="#t"/>
</g>
</g>
<path d="m981.07 353.45 5.0214 2.1757q2.2022 0.95416 3.1563-1.248l3.0782-7.1043q0.95416-2.2022-1.248-3.1563l-5.0214-2.1757q-2.2022-0.95416-3.1563 1.248l-3.0782 7.1043q-0.95416 2.2022 1.248 3.1563z" clip-path="url(#a)" fill="#fff" stroke="#fff"/>
<g clip-path="url(#a)">
<g transform="translate(982.69 349.72) rotate(23.426) scale(.08 -.08)">
<use xlink:href="#o"/>
</g>
</g>
<path d="m879.91 411.1 2.0308 5.4915q0.83244 2.251 3.0835 1.4186l7.2618-2.6855q2.251-0.83244 1.4186-3.0835l-2.0308-5.4915q-0.83244-2.251-3.0835-1.4186l-7.2618 2.6855q-2.251 0.83244-1.4186 3.0835z" clip-path="url(#a)" fill="#fff" stroke="#fff"/>
<g clip-path="url(#a)">
<g transform="translate(883.72 409.69) rotate(69.705) scale(.08 -.08)">
<use xlink:href="#s"/>
</g>
</g>
<path d="m576.36 480.04 2.3357-5.0442q1.0084-2.1779-1.1694-3.1863l-7.0259-3.2532q-2.1779-1.0084-3.1863 1.1694l-2.3357 5.0442q-1.0084 2.1779 1.1694 3.1863l7.0259 3.2532q2.1779 1.0084 3.1863-1.1694z" clip-path="url(#a)" fill="#fff" stroke="#fff"/>
<g clip-path="url(#a)">
<g transform="translate(572.68 478.33) rotate(-65.154) scale(.08 -.08)">
<defs>
<path id="z" d="m44.391 34.188q3.1719-1.0781 6.1719-4.5938t6.0312-9.6719l10.016-19.922h-10.609l-9.3125 18.703q-3.625 7.3281-7.0156 9.7188t-9.25 2.3906h-10.75v-30.812h-9.8594v72.906h22.266q12.5 0 18.656-5.2344 6.1562-5.2188 6.1562-15.766 0-6.8906-3.2031-11.438-3.2031-4.5312-9.2969-6.2812zm-24.719 30.609v-25.875h12.406q7.125 0 10.766 3.2969t3.6406 9.6875-3.6406 9.6406-10.766 3.25z"/>
</defs>
<use xlink:href="#z"/>
</g>
</g>
<path d="m606.68 477.46 0.042555-5.0548q0.020205-2.3999-2.3797-2.4201l-7.7422-0.06518q-2.3999-0.020205-2.4201 2.3797l-0.042556 5.0548q-0.020204 2.3999 2.3797 2.4201l7.7422 0.06518q2.3999 0.020204 2.4201-2.3797z" clip-path="url(#a)" fill="#fff" stroke="#fff"/>
<g clip-path="url(#a)">
<g transform="translate(602.62 477.43) rotate(-89.518) scale(.08 -.08)">
<defs>
<path id="ax" d="m9.8125 72.906h46.094v-8.3125h-36.234v-21.578h34.719v-8.2969h-34.719v-26.422h37.109v-8.2969h-46.969z"/>
</defs>
<use xlink:href="#ax"/>
</g>
</g>
<path d="m623.74 475.03 2.3822 5.0529q1.0234 2.1708 3.1943 1.1474l7.0032-3.3017q2.1708-1.0234 1.1474-3.1943l-2.3822-5.0529q-1.0234-2.1708-3.1943-1.1474l-7.0032 3.3017q-2.1708 1.0234-1.1474 3.1943z" clip-path="url(#a)" fill="#fff" stroke="#fff"/>
<g clip-path="url(#a)">
<g transform="translate(627.42 473.3) rotate(64.758) scale(.08 -.08)">
<defs>
<path id="w" d="m64.406 67.281v-10.391q-4.9844 4.6406-10.625 6.9219-5.6406 2.2969-11.984 2.2969-12.5 0-19.141-7.6406t-6.6406-22.094q0-14.406 6.6406-22.047t19.141-7.6406q6.3438 0 11.984 2.2969t10.625 6.9375v-10.312q-5.1719-3.5156-10.969-5.2812-5.7812-1.75-12.219-1.75-16.562 0-26.094 10.125-9.5156 10.141-9.5156 27.672 0 17.578 9.5156 27.703 9.5312 10.141 26.094 10.141 6.5312 0 12.312-1.7344 5.7969-1.7344 10.875-5.2031z"/>
</defs>
<use xlink:href="#w"/>
</g>
</g>
<path d="m717.52 582.89v33.808q0 2.4 2.4 2.4h7.7425q2.4 0 2.4-2.4v-33.808q0-2.4-2.4-2.4h-7.7425q-2.4 0-2.4 2.4z" clip-path="url(#a)" fill="#fff" stroke="#fff"/>
<g clip-path="url(#a)">
<g transform="translate(721.58 582.89) rotate(90) scale(.08 -.08)">
<defs>
<path id="l" d="m56.203 29.594v-4.3906h-41.312q0.59375-9.2812 5.5938-14.141t13.938-4.8594q5.1719 0 10.031 1.2656t9.6562 3.8125v-8.5q-4.8438-2.0469-9.9219-3.125t-10.297-1.0781q-13.094 0-20.734 7.6094-7.6406 7.625-7.6406 20.625 0 13.422 7.25 21.297 7.25 7.8906 19.562 7.8906 11.031 0 17.453-7.1094 6.4219-7.0938 6.4219-19.297zm-8.9844 2.6406q-0.09375 7.3594-4.125 11.75-4.0312 4.4062-10.672 4.4062-7.5156 0-12.031-4.25t-5.2031-11.969z"/>
<path id="g" d="m41.109 46.297q-1.5156 0.875-3.2969 1.2812-1.7812 0.42188-3.9219 0.42188-7.625 0-11.703-4.9531t-4.0781-14.234v-28.812h-9.0312v54.688h9.0312v-8.5q2.8438 4.9844 7.375 7.3906 4.5469 2.4219 11.047 2.4219 0.92188 0 2.0469-0.125 1.125-0.10938 2.4844-0.35938z"/>
<path id="i" d="m52 44.188q3.375 6.0625 8.0625 8.9375t11.031 2.875q8.5469 0 13.188-5.9844 4.6406-5.9688 4.6406-17v-33.016h-9.0312v32.719q0 7.8594-2.7969 11.656-2.7812 3.8125-8.4844 3.8125-6.9844 0-11.047-4.6406-4.0469-4.625-4.0469-12.641v-30.906h-9.0312v32.719q0 7.9062-2.7812 11.688t-8.5938 3.7812q-6.8906 0-10.953-4.6562-4.0469-4.6562-4.0469-12.625v-30.906h-9.0312v54.688h9.0312v-8.5q3.0781 5.0312 7.375 7.4219t10.203 2.3906q5.9688 0 10.141-3.0312 4.1719-3.0156 6.1719-8.7812z"/>
<path id="k" d="m9.4219 54.688h8.9844v-54.688h-8.9844zm0 21.297h8.9844v-11.391h-8.9844z"/>
<path id="h" d="m54.891 33.016v-33.016h-8.9844v32.719q0 7.7656-3.0312 11.609-3.0312 3.8594-9.0781 3.8594-7.2812 0-11.484-4.6406-4.2031-4.625-4.2031-12.641v-30.906h-9.0312v54.688h9.0312v-8.5q3.2344 4.9375 7.5938 7.375 4.375 2.4375 10.094 2.4375 9.4219 0 14.25-5.8281 4.8438-5.8281 4.8438-17.156z"/>
<path id="f" d="m34.281 27.484q-10.891 0-15.094-2.4844t-4.2031-8.5q0-4.7812 3.1562-7.5938 3.1562-2.7969 8.5625-2.7969 7.4844 0 12 5.2969t4.5156 14.078v2zm17.922 3.7188v-31.203h-8.9844v8.2969q-3.0781-4.9688-7.6719-7.3438t-11.234-2.375q-8.3906 0-13.359 4.7188-4.9531 4.7188-4.9531 12.625 0 9.2188 6.1719 13.906 6.1875 4.6875 18.438 4.6875h12.609v0.89062q0 6.2031-4.0781 9.5938t-11.453 3.3906q-4.6875 0-9.1406-1.125-4.4375-1.125-8.5312-3.375v8.3125q4.9219 1.9062 9.5625 2.8438 4.6406 0.95312 9.0312 0.95312 11.875 0 17.734-6.1562 5.8594-6.1406 5.8594-18.641z"/>
<path id="j" d="m9.4219 75.984h8.9844v-75.984h-8.9844z"/>
</defs>
<use xlink:href="#e"/>
<use x="44.083984" xlink:href="#l"/>
<use x="105.607422" xlink:href="#g"/>
<use x="144.970703" xlink:href="#i"/>
<use x="242.382812" xlink:href="#k"/>
<use x="270.166016" xlink:href="#h"/>
<use x="333.544922" xlink:href="#f"/>
<use x="394.824219" xlink:href="#j"/>
</g>
</g>
<path d="m784.22 582.89v33.808q0 2.4 2.4 2.4h7.7425q2.4 0 2.4-2.4v-33.808q0-2.4-2.4-2.4h-7.7425q-2.4 0-2.4 2.4z" clip-path="url(#a)" fill="#fff" stroke="#fff"/>
<g clip-path="url(#a)">
<g transform="translate(788.29 582.89) rotate(90) scale(.08 -.08)">
<use xlink:href="#e"/>
<use x="44.083984" xlink:href="#l"/>
<use x="105.607422" xlink:href="#g"/>
<use x="144.970703" xlink:href="#i"/>
<use x="242.382812" xlink:href="#k"/>
<use x="270.166016" xlink:href="#h"/>
<use x="333.544922" xlink:href="#f"/>
<use x="394.824219" xlink:href="#j"/>
</g>
</g>
<path d="m854.11 582.89v33.808q0 2.4 2.4 2.4h7.7425q2.4 0 2.4-2.4v-33.808q0-2.4-2.4-2.4h-7.7425q-2.4 0-2.4 2.4z" clip-path="url(#a)" fill="#fff" stroke="#fff"/>
<g clip-path="url(#a)">
<g transform="translate(858.17 582.89) rotate(90) scale(.08 -.08)">
<use xlink:href="#e"/>
<use x="44.083984" xlink:href="#l"/>
<use x="105.607422" xlink:href="#g"/>
<use x="144.970703" xlink:href="#i"/>
<use x="242.382812" xlink:href="#k"/>
<use x="270.166016" xlink:href="#h"/>
<use x="333.544922" xlink:href="#f"/>
<use x="394.824219" xlink:href="#j"/>
</g>
</g>
<path d="m1073.4 481.25 3.8752-3.9853q1.6731-1.7207-0.047537-3.3938l-5.5509-5.3976q-1.7207-1.6731-3.3938 0.047537l-3.8752 3.9853q-1.6731 1.7207 0.047537 3.3938l5.5509 5.3976q1.7207 1.6731 3.3938-0.047537z" clip-path="url(#a)" fill="#fff" stroke="#fff"/>
<g clip-path="url(#a)">
<g transform="translate(1070.5 478.41) rotate(-45.802) scale(.08 -.08)">
<use xlink:href="#z"/>
</g>
</g>
<path d="m1115.6 479.5 1.7661-5.1797q0.77452-2.2716-1.4971-3.0461l-7.3282-2.4986q-2.2716-0.77452-3.0461 1.4971l-1.7661 5.1797q-0.77452 2.2716 1.4971 3.0461l7.3282 2.4986q2.2716 0.77452 3.0461-1.4971z" clip-path="url(#a)" fill="#fff" stroke="#fff"/>
<g clip-path="url(#a)">
<g transform="translate(1111.7 478.19) rotate(-71.173) scale(.08 -.08)">
<use xlink:href="#o"/>
</g>
</g>
<path d="m1145.1 474.47 1.4522 4.6q0.72254 2.2887 3.0112 1.5661l7.3833-2.3309q2.2887-0.72254 1.5661-3.0112l-1.4522-4.6q-0.72254-2.2887-3.0112-1.5661l-7.3833 2.3309q-2.2887 0.72254-1.5661 3.0112z" clip-path="url(#a)" fill="#fff" stroke="#fff"/>
<g clip-path="url(#a)">
<g transform="translate(1149 473.25) rotate(72.479) scale(.08 -.08)">
<use xlink:href="#t"/>
</g>
</g>
<path d="m1188.2 477.24 4.1352 4.145q1.695 1.6991 3.3941 0.004028l5.4813-5.4683q1.6991-1.695 0.004028-3.3941l-4.1352-4.145q-1.695-1.6991-3.3941-0.004029l-5.4813 5.4683q-1.6991 1.695-0.004029 3.3941z" clip-path="url(#a)" fill="#fff" stroke="#fff"/>
<g clip-path="url(#a)">
<g transform="translate(1191.1 474.37) rotate(45.068) scale(.08 -.08)">
<use xlink:href="#s"/>
</g>
</g>
<path d="m1003.4 582.89v33.808q0 2.4 2.4 2.4h7.7425q2.4 0 2.4-2.4v-33.808q0-2.4-2.4-2.4h-7.7425q-2.4 0-2.4 2.4z" clip-path="url(#a)" fill="#fff" stroke="#fff"/>
<g clip-path="url(#a)">
<g transform="translate(1007.5 582.89) rotate(90) scale(.08 -.08)">
<use xlink:href="#e"/>
<use x="44.083984" xlink:href="#l"/>
<use x="105.607422" xlink:href="#g"/>
<use x="144.970703" xlink:href="#i"/>
<use x="242.382812" xlink:href="#k"/>
<use x="270.166016" xlink:href="#h"/>
<use x="333.544922" xlink:href="#f"/>
<use x="394.824219" xlink:href="#j"/>
</g>
</g>
<path d="m1082.8 582.89v33.808q0 2.4 2.4 2.4h7.7425q2.4 0 2.4-2.4v-33.808q0-2.4-2.4-2.4h-7.7425q-2.4 0-2.4 2.4z" clip-path="url(#a)" fill="#fff" stroke="#fff"/>
<g clip-path="url(#a)">
<g transform="translate(1086.9 582.89) rotate(90) scale(.08 -.08)">
<use xlink:href="#e"/>
<use x="44.083984" xlink:href="#l"/>
<use x="105.607422" xlink:href="#g"/>
<use x="144.970703" xlink:href="#i"/>
<use x="242.382812" xlink:href="#k"/>
<use x="270.166016" xlink:href="#h"/>
<use x="333.544922" xlink:href="#f"/>
<use x="394.824219" xlink:href="#j"/>
</g>
</g>
<path d="m1165.4 582.89v33.808q0 2.4 2.4 2.4h7.7425q2.4 0 2.4-2.4v-33.808q0-2.4-2.4-2.4h-7.7425q-2.4 0-2.4 2.4z" clip-path="url(#a)" fill="#fff" stroke="#fff"/>
<g clip-path="url(#a)">
<g transform="translate(1169.5 582.89) rotate(90) scale(.08 -.08)">
<use xlink:href="#e"/>
<use x="44.083984" xlink:href="#l"/>
<use x="105.607422" xlink:href="#g"/>
<use x="144.970703" xlink:href="#i"/>
<use x="242.382812" xlink:href="#k"/>
<use x="270.166016" xlink:href="#h"/>
<use x="333.544922" xlink:href="#f"/>
<use x="394.824219" xlink:href="#j"/>
</g>
</g>
<path d="m536.45 582.89v33.808q0 2.4 2.4 2.4h7.7425q2.4 0 2.4-2.4v-33.808q0-2.4-2.4-2.4h-7.7425q-2.4 0-2.4 2.4z" clip-path="url(#a)" fill="#fff" stroke="#fff"/>
<g clip-path="url(#a)">
<g transform="translate(540.51 582.89) rotate(90) scale(.08 -.08)">
<use xlink:href="#e"/>
<use x="44.083984" xlink:href="#l"/>
<use x="105.607422" xlink:href="#g"/>
<use x="144.970703" xlink:href="#i"/>
<use x="242.382812" xlink:href="#k"/>
<use x="270.166016" xlink:href="#h"/>
<use x="333.544922" xlink:href="#f"/>
<use x="394.824219" xlink:href="#j"/>
</g>
</g>
<path d="m593.63 582.89v33.808q0 2.4 2.4 2.4h7.7425q2.4 0 2.4-2.4v-33.808q0-2.4-2.4-2.4h-7.7425q-2.4 0-2.4 2.4z" clip-path="url(#a)" fill="#fff" stroke="#fff"/>
<g clip-path="url(#a)">
<g transform="translate(597.69 582.89) rotate(90) scale(.08 -.08)">
<use xlink:href="#e"/>
<use x="44.083984" xlink:href="#l"/>
<use x="105.607422" xlink:href="#g"/>
<use x="144.970703" xlink:href="#i"/>
<use x="242.382812" xlink:href="#k"/>
<use x="270.166016" xlink:href="#h"/>
<use x="333.544922" xlink:href="#f"/>
<use x="394.824219" xlink:href="#j"/>
</g>
</g>
<path d="m653.98 582.89v33.808q0 2.4 2.4 2.4h7.7425q2.4 0 2.4-2.4v-33.808q0-2.4-2.4-2.4h-7.7425q-2.4 0-2.4 2.4z" clip-path="url(#a)" fill="#fff" stroke="#fff"/>
<g clip-path="url(#a)">
<g transform="translate(658.05 582.89) rotate(90) scale(.08 -.08)">
<use xlink:href="#e"/>
<use x="44.083984" xlink:href="#l"/>
<use x="105.607422" xlink:href="#g"/>
<use x="144.970703" xlink:href="#i"/>
<use x="242.382812" xlink:href="#k"/>
<use x="270.166016" xlink:href="#h"/>
<use x="333.544922" xlink:href="#f"/>
<use x="394.824219" xlink:href="#j"/>
</g>
</g>
<path d="m212.72 417.41 2.9898-5.4301q1.1576-2.1024-0.94484-3.26l-6.7824-3.7343q-2.1024-1.1576-3.26 0.94484l-2.9898 5.4301q-1.1576 2.1024 0.94484 3.26l6.7824 3.7343q2.1024 1.1576 3.26-0.94484z" clip-path="url(#a)" fill="#fff" stroke="#fff"/>
<g clip-path="url(#a)">
<g transform="translate(209.16 415.45) rotate(-61.163) scale(.08 -.08)">
<defs>
<path id="aw" d="m59.516 10.406v19.578h-16.109v8.1094h25.875v-31.312q-5.7031-4.0469-12.594-6.125-6.875-2.0781-14.688-2.0781-17.094 0-26.75 9.9844-9.6406 10-9.6406 27.812 0 17.875 9.6406 27.859 9.6562 9.9844 26.75 9.9844 7.125 0 13.547-1.7656 6.4219-1.75 11.844-5.1719v-10.5q-5.4688 4.6406-11.625 6.9844t-12.938 2.3438q-13.391 0-20.109-7.4688-6.7031-7.4688-6.7031-22.266 0-14.75 6.7031-22.219 6.7188-7.4688 20.109-7.4688 5.2188 0 9.3125 0.90625 4.1094 0.90625 7.375 2.8125z"/>
</defs>
<use xlink:href="#aw"/>
</g>
</g>
<path d="m247.86 354.19 2.6209-4.8041q1.1494-2.1069-0.95743-3.2563l-6.7968-3.7081q-2.1069-1.1494-3.2563 0.95743l-2.6209 4.8041q-1.1494 2.1069 0.95743 3.2563l6.7968 3.7081q2.1069 1.1494 3.2563-0.95743z" clip-path="url(#a)" fill="#fff" stroke="#fff"/>
<g clip-path="url(#a)">
<g transform="translate(244.29 352.24) rotate(-61.385) scale(.08 -.08)">
<use xlink:href="#o"/>
</g>
</g>
<path d="m272.32 346.09 0.039283 5.4724q0.017228 2.3999 2.4172 2.3827l7.7423-0.055578q2.3999-0.017228 2.3827-2.4172l-0.039283-5.4724q-0.017228-2.3999-2.4172-2.3827l-7.7423 0.055578q-2.3999 0.017228-2.3827 2.4172z" clip-path="url(#a)" fill="#fff" stroke="#fff"/>
<g clip-path="url(#a)">
<g transform="translate(276.38 346.06) rotate(89.589) scale(.08 -.08)">
<use xlink:href="#o"/>
</g>
</g>
<path d="m301.97 410.15 1.454 5.9859q0.5665 2.3322 2.8987 1.7657l7.5237-1.8276q2.3322-0.5665 1.7657-2.8987l-1.454-5.9859q-0.5665-2.3322-2.8987-1.7657l-7.5237 1.8276q-2.3322 0.5665-1.7657 2.8987z" clip-path="url(#a)" fill="#fff" stroke="#fff"/>
<g clip-path="url(#a)">
<g transform="translate(305.92 409.19) rotate(76.347) scale(.08 -.08)">
<use xlink:href="#ag"/>
</g>
</g>
<path d="m324.26 411.75 1.9636 4.6838q0.92793 2.2134 3.1413 1.2854l7.1404-2.9935q2.2134-0.92793 1.2854-3.1413l-1.9636-4.6838q-0.92793-2.2134-3.1413-1.2854l-7.1404 2.9935q-2.2134 0.92793-1.2854 3.1413z" clip-path="url(#a)" fill="#fff" stroke="#fff"/>
<g clip-path="url(#a)">
<g transform="translate(328.01 410.18) rotate(67.255) scale(.08 -.08)">
<defs>
<path id="av" d="m53.516 70.516v-9.625q-5.6094 2.6875-10.594 4-4.9844 1.3281-9.625 1.3281-8.0469 0-12.422-3.125t-4.375-8.8906q0-4.8438 2.9062-7.3125 2.9062-2.4531 11.016-3.9688l5.9531-1.2188q11.031-2.1094 16.281-7.4062t5.25-14.172q0-10.609-7.1094-16.078-7.0938-5.4688-20.812-5.4688-5.1719 0-11.016 1.1719-5.8281 1.1719-12.078 3.4688v10.156q6-3.3594 11.766-5.0781 5.7656-1.7031 11.328-1.7031 8.4375 0 13.031 3.3125 4.5938 3.3281 4.5938 9.4844 0 5.3594-3.2969 8.3906t-10.812 4.5469l-6.0156 1.1719q-11.031 2.1875-15.969 6.875-4.9219 4.6875-4.9219 13.047 0 9.6719 6.8125 15.234t18.766 5.5625q5.1406 0 10.453-0.9375 5.3281-0.92188 10.891-2.7656z"/>
</defs>
<use xlink:href="#av"/>
</g>
</g>
<path d="m348.07 412.59 2.8436 4.6757q1.2471 2.0506 3.2976 0.80348l6.6152-4.0231q2.0506-1.2471 0.80348-3.2976l-2.8436-4.6757q-1.2471-2.0506-3.2976-0.80348l-6.6152 4.0231q-2.0506 1.2471-0.80348 3.2976z" clip-path="url(#a)" fill="#fff" stroke="#fff"/>
<g clip-path="url(#a)">
<g transform="translate(351.54 410.48) rotate(58.693) scale(.08 -.08)">
<use xlink:href="#o"/>
</g>
</g>
<path d="m225.95 416.91 2.4019-5.3396q0.98456-2.1888-1.2042-3.1733l-7.061-3.1762q-2.1888-0.98456-3.1733 1.2042l-2.4019 5.3396q-0.98456 2.1888 1.2042 3.1733l7.061 3.1762q2.1888 0.98456 3.1733-1.2042z" clip-path="url(#a)" fill="#fff" stroke="#fff"/>
<g clip-path="url(#a)">
<g transform="translate(222.24 415.24) rotate(-65.78) scale(.08 -.08)">
<use xlink:href="#s"/>
</g>
</g>
<path d="m133.02 582.89v33.808q0 2.4 2.4 2.4h7.7425q2.4 0 2.4-2.4v-33.808q0-2.4-2.4-2.4h-7.7425q-2.4 0-2.4 2.4z" clip-path="url(#a)" fill="#fff" stroke="#fff"/>
<g clip-path="url(#a)">
<g transform="translate(137.09 582.89) rotate(90) scale(.08 -.08)">
<use xlink:href="#e"/>
<use x="44.083984" xlink:href="#l"/>
<use x="105.607422" xlink:href="#g"/>
<use x="144.970703" xlink:href="#i"/>
<use x="242.382812" xlink:href="#k"/>
<use x="270.166016" xlink:href="#h"/>
<use x="333.544922" xlink:href="#f"/>
<use x="394.824219" xlink:href="#j"/>
</g>
</g>
<path d="m207.11 478.43 0.69644-5.515q0.30069-2.3811-2.0804-2.6818l-7.6815-0.97004q-2.3811-0.30069-2.6818 2.0804l-0.69644 5.515q-0.30069 2.3811 2.0804 2.6818l7.6815 0.97004q2.3811 0.30069 2.6818-2.0804z" clip-path="url(#a)" fill="#fff" stroke="#fff"/>
<g clip-path="url(#a)">
<g transform="translate(203.08 477.92) rotate(-82.803) scale(.08 -.08)">
<use xlink:href="#z"/>
</g>
</g>
<path d="m210.55 472.9 0.69988 5.5422q0.30069 2.3811 2.6818 2.0804l7.6815-0.97004q2.3811-0.30069 2.0804-2.6818l-0.69989-5.5422q-0.30069-2.3811-2.6818-2.0804l-7.6815 0.97004q-2.3811 0.30069-2.0804 2.6818z" clip-path="url(#a)" fill="#fff" stroke="#fff"/>
<g clip-path="url(#a)">
<g transform="translate(214.58 472.39) rotate(82.803) scale(.08 -.08)">
<use xlink:href="#w"/>
</g>
</g>
<path d="m275.32 478.57 0.83286-5.496q0.35959-2.3729-2.0133-2.7325l-7.6551-1.16q-2.3729-0.35959-2.7325 2.0133l-0.83286 5.496q-0.35959 2.3729 2.0133 2.7325l7.6551 1.16q2.3729 0.35959 2.7325-2.0133z" clip-path="url(#a)" fill="#fff" stroke="#fff"/>
<g clip-path="url(#a)">
<g transform="translate(271.3 477.96) rotate(-81.383) scale(.08 -.08)">
<use xlink:href="#z"/>
</g>
</g>
<path d="m281.97 473.06 0.83698 5.5232q0.35959 2.3729 2.7325 2.0133l7.6551-1.16q2.3729-0.35959 2.0133-2.7325l-0.83698-5.5232q-0.35959-2.3729-2.7325-2.0133l-7.6551 1.16q-2.3729 0.35959-2.0133 2.7325z" clip-path="url(#a)" fill="#fff" stroke="#fff"/>
<g clip-path="url(#a)">
<g transform="translate(285.99 472.45) rotate(81.383) scale(.08 -.08)">
<use xlink:href="#w"/>
</g>
</g>
<path d="m333.15 582.89v33.808q0 2.4 2.4 2.4h7.7425q2.4 0 2.4-2.4v-33.808q0-2.4-2.4-2.4h-7.7425q-2.4 0-2.4 2.4z" clip-path="url(#a)" fill="#fff" stroke="#fff"/>
<g clip-path="url(#a)">
<g transform="translate(337.21 582.89) rotate(90) scale(.08 -.08)">
<use xlink:href="#e"/>
<use x="44.083984" xlink:href="#l"/>
<use x="105.607422" xlink:href="#g"/>
<use x="144.970703" xlink:href="#i"/>
<use x="242.382812" xlink:href="#k"/>
<use x="270.166016" xlink:href="#h"/>
<use x="333.544922" xlink:href="#f"/>
<use x="394.824219" xlink:href="#j"/>
</g>
</g>
<path d="m377.62 582.89v33.808q0 2.4 2.4 2.4h7.7425q2.4 0 2.4-2.4v-33.808q0-2.4-2.4-2.4h-7.7425q-2.4 0-2.4 2.4z" clip-path="url(#a)" fill="#fff" stroke="#fff"/>
<g clip-path="url(#a)">
<g transform="translate(381.68 582.89) rotate(90) scale(.08 -.08)">
<use xlink:href="#e"/>
<use x="44.083984" xlink:href="#l"/>
<use x="105.607422" xlink:href="#g"/>
<use x="144.970703" xlink:href="#i"/>
<use x="242.382812" xlink:href="#k"/>
<use x="270.166016" xlink:href="#h"/>
<use x="333.544922" xlink:href="#f"/>
<use x="394.824219" xlink:href="#j"/>
</g>
</g>
<path d="m425.27 582.89v33.808q0 2.4 2.4 2.4h7.7425q2.4 0 2.4-2.4v-33.808q0-2.4-2.4-2.4h-7.7425q-2.4 0-2.4 2.4z" clip-path="url(#a)" fill="#fff" stroke="#fff"/>
<g clip-path="url(#a)">
<g transform="translate(429.33 582.89) rotate(90) scale(.08 -.08)">
<use xlink:href="#e"/>
<use x="44.083984" xlink:href="#l"/>
<use x="105.607422" xlink:href="#g"/>
<use x="144.970703" xlink:href="#i"/>
<use x="242.382812" xlink:href="#k"/>
<use x="270.166016" xlink:href="#h"/>
<use x="333.544922" xlink:href="#f"/>
<use x="394.824219" xlink:href="#j"/>
</g>
</g>
<path d="m253.73 582.89v33.808q0 2.4 2.4 2.4h7.7425q2.4 0 2.4-2.4v-33.808q0-2.4-2.4-2.4h-7.7425q-2.4 0-2.4 2.4z" clip-path="url(#a)" fill="#fff" stroke="#fff"/>
<g clip-path="url(#a)">
<g transform="translate(257.8 582.89) rotate(90) scale(.08 -.08)">
<use xlink:href="#e"/>
<use x="44.083984" xlink:href="#l"/>
<use x="105.607422" xlink:href="#g"/>
<use x="144.970703" xlink:href="#i"/>
<use x="242.382812" xlink:href="#k"/>
<use x="270.166016" xlink:href="#h"/>
<use x="333.544922" xlink:href="#f"/>
<use x="394.824219" xlink:href="#j"/>
</g>
</g>
<path d="m291.85 582.89v33.808q0 2.4 2.4 2.4h7.7425q2.4 0 2.4-2.4v-33.808q0-2.4-2.4-2.4h-7.7425q-2.4 0-2.4 2.4z" clip-path="url(#a)" fill="#fff" stroke="#fff"/>
<g clip-path="url(#a)">
<g transform="translate(295.92 582.89) rotate(90) scale(.08 -.08)">
<use xlink:href="#e"/>
<use x="44.083984" xlink:href="#l"/>
<use x="105.607422" xlink:href="#g"/>
<use x="144.970703" xlink:href="#i"/>
<use x="242.382812" xlink:href="#k"/>
<use x="270.166016" xlink:href="#h"/>
<use x="333.544922" xlink:href="#f"/>
<use x="394.824219" xlink:href="#j"/>
</g>
</g>
<path d="m187.02 582.89v33.808q0 2.4 2.4 2.4h7.7425q2.4 0 2.4-2.4v-33.808q0-2.4-2.4-2.4h-7.7425q-2.4 0-2.4 2.4z" clip-path="url(#a)" fill="#fff" stroke="#fff"/>
<g clip-path="url(#a)">
<g transform="translate(191.09 582.89) rotate(90) scale(.08 -.08)">
<use xlink:href="#e"/>
<use x="44.083984" xlink:href="#l"/>
<use x="105.607422" xlink:href="#g"/>
<use x="144.970703" xlink:href="#i"/>
<use x="242.382812" xlink:href="#k"/>
<use x="270.166016" xlink:href="#h"/>
<use x="333.544922" xlink:href="#f"/>
<use x="394.824219" xlink:href="#j"/>
</g>
</g>
<path d="m218.79 582.89v33.808q0 2.4 2.4 2.4h7.7425q2.4 0 2.4-2.4v-33.808q0-2.4-2.4-2.4h-7.7425q-2.4 0-2.4 2.4z" clip-path="url(#a)" fill="#fff" stroke="#fff"/>
<g clip-path="url(#a)">
<g transform="translate(222.85 582.89) rotate(90) scale(.08 -.08)">
<use xlink:href="#e"/>
<use x="44.083984" xlink:href="#l"/>
<use x="105.607422" xlink:href="#g"/>
<use x="144.970703" xlink:href="#i"/>
<use x="242.382812" xlink:href="#k"/>
<use x="270.166016" xlink:href="#h"/>
<use x="333.544922" xlink:href="#f"/>
<use x="394.824219" xlink:href="#j"/>
</g>
</g>
<path d="m53.608 582.89v33.808q0 2.4 2.4 2.4h7.7425q2.4 0 2.4-2.4v-33.808q0-2.4-2.4-2.4h-7.7425q-2.4 0-2.4 2.4z" clip-path="url(#a)" fill="#fff" stroke="#fff"/>
<g clip-path="url(#a)">
<g transform="translate(57.671 582.89) rotate(90) scale(.08 -.08)">
<use xlink:href="#e"/>
<use x="44.083984" xlink:href="#l"/>
<use x="105.607422" xlink:href="#g"/>
<use x="144.970703" xlink:href="#i"/>
<use x="242.382812" xlink:href="#k"/>
<use x="270.166016" xlink:href="#h"/>
<use x="333.544922" xlink:href="#f"/>
<use x="394.824219" xlink:href="#j"/>
</g>
</g>
<path d="m63.137 582.89v33.808q0 2.4 2.4 2.4h7.7425q2.4 0 2.4-2.4v-33.808q0-2.4-2.4-2.4h-7.7425q-2.4 0-2.4 2.4z" clip-path="url(#a)" fill="#fff" stroke="#fff"/>
<g clip-path="url(#a)">
<g transform="translate(67.201 582.89) rotate(90) scale(.08 -.08)">
<use xlink:href="#e"/>
<use x="44.083984" xlink:href="#l"/>
<use x="105.607422" xlink:href="#g"/>
<use x="144.970703" xlink:href="#i"/>
<use x="242.382812" xlink:href="#k"/>
<use x="270.166016" xlink:href="#h"/>
<use x="333.544922" xlink:href="#f"/>
<use x="394.824219" xlink:href="#j"/>
</g>
</g>
<path d="m75.844 582.89v33.808q0 2.4 2.4 2.4h7.7425q2.4 0 2.4-2.4v-33.808q0-2.4-2.4-2.4h-7.7425q-2.4 0-2.4 2.4z" clip-path="url(#a)" fill="#fff" stroke="#fff"/>
<g clip-path="url(#a)">
<g transform="translate(79.907 582.89) rotate(90) scale(.08 -.08)">
<use xlink:href="#e"/>
<use x="44.083984" xlink:href="#l"/>
<use x="105.607422" xlink:href="#g"/>
<use x="144.970703" xlink:href="#i"/>
<use x="242.382812" xlink:href="#k"/>
<use x="270.166016" xlink:href="#h"/>
<use x="333.544922" xlink:href="#f"/>
<use x="394.824219" xlink:href="#j"/>
</g>
</g>
<path d="m91.727 582.89v33.808q0 2.4 2.4 2.4h7.7425q2.4 0 2.4-2.4v-33.808q0-2.4-2.4-2.4h-7.7425q-2.4 0-2.4 2.4z" clip-path="url(#a)" fill="#fff" stroke="#fff"/>
<g clip-path="url(#a)">
<g transform="translate(95.79 582.89) rotate(90) scale(.08 -.08)">
<use xlink:href="#e"/>
<use x="44.083984" xlink:href="#l"/>
<use x="105.607422" xlink:href="#g"/>
<use x="144.970703" xlink:href="#i"/>
<use x="242.382812" xlink:href="#k"/>
<use x="270.166016" xlink:href="#h"/>
<use x="333.544922" xlink:href="#f"/>
<use x="394.824219" xlink:href="#j"/>
</g>
</g>
<path d="m110.79 582.89v33.808q0 2.4 2.4 2.4h7.7425q2.4 0 2.4-2.4v-33.808q0-2.4-2.4-2.4h-7.7425q-2.4 0-2.4 2.4z" clip-path="url(#a)" fill="#fff" stroke="#fff"/>
<g clip-path="url(#a)">
<g transform="translate(114.85 582.89) rotate(90) scale(.08 -.08)">
<use xlink:href="#e"/>
<use x="44.083984" xlink:href="#l"/>
<use x="105.607422" xlink:href="#g"/>
<use x="144.970703" xlink:href="#i"/>
<use x="242.382812" xlink:href="#k"/>
<use x="270.166016" xlink:href="#h"/>
<use x="333.544922" xlink:href="#f"/>
<use x="394.824219" xlink:href="#j"/>
</g>
</g>
<path d="m158.44 582.89v33.808q0 2.4 2.4 2.4h7.7425q2.4 0 2.4-2.4v-33.808q0-2.4-2.4-2.4h-7.7425q-2.4 0-2.4 2.4z" clip-path="url(#a)" fill="#fff" stroke="#fff"/>
<g clip-path="url(#a)">
<g transform="translate(162.5 582.89) rotate(90) scale(.08 -.08)">
<use xlink:href="#e"/>
<use x="44.083984" xlink:href="#l"/>
<use x="105.607422" xlink:href="#g"/>
<use x="144.970703" xlink:href="#i"/>
<use x="242.382812" xlink:href="#k"/>
<use x="270.166016" xlink:href="#h"/>
<use x="333.544922" xlink:href="#f"/>
<use x="394.824219" xlink:href="#j"/>
</g>
</g>
<path d="m482.45 582.89v33.808q0 2.4 2.4 2.4h7.7425q2.4 0 2.4-2.4v-33.808q0-2.4-2.4-2.4h-7.7425q-2.4 0-2.4 2.4z" clip-path="url(#a)" fill="#fff" stroke="#fff"/>
<g clip-path="url(#a)">
<g transform="translate(486.51 582.89) rotate(90) scale(.08 -.08)">
<use xlink:href="#e"/>
<use x="44.083984" xlink:href="#l"/>
<use x="105.607422" xlink:href="#g"/>
<use x="144.970703" xlink:href="#i"/>
<use x="242.382812" xlink:href="#k"/>
<use x="270.166016" xlink:href="#h"/>
<use x="333.544922" xlink:href="#f"/>
<use x="394.824219" xlink:href="#j"/>
</g>
</g>
<path d="m927.17 582.89v33.808q0 2.4 2.4 2.4h7.7425q2.4 0 2.4-2.4v-33.808q0-2.4-2.4-2.4h-7.7425q-2.4 0-2.4 2.4z" clip-path="url(#a)" fill="#fff" stroke="#fff"/>
<g clip-path="url(#a)">
<g transform="translate(931.23 582.89) rotate(90) scale(.08 -.08)">
<use xlink:href="#e"/>
<use x="44.083984" xlink:href="#l"/>
<use x="105.607422" xlink:href="#g"/>
<use x="144.970703" xlink:href="#i"/>
<use x="242.382812" xlink:href="#k"/>
<use x="270.166016" xlink:href="#h"/>
<use x="333.544922" xlink:href="#f"/>
<use x="394.824219" xlink:href="#j"/>
</g>
</g>
<path d="m1251.2 582.89v33.808q0 2.4 2.4 2.4h7.7425q2.4 0 2.4-2.4v-33.808q0-2.4-2.4-2.4h-7.7425q-2.4 0-2.4 2.4z" clip-path="url(#a)" fill="#fff" stroke="#fff"/>
<g clip-path="url(#a)">
<g transform="translate(1255.2 582.89) rotate(90) scale(.08 -.08)">
<use xlink:href="#e"/>
<use x="44.083984" xlink:href="#l"/>
<use x="105.607422" xlink:href="#g"/>
<use x="144.970703" xlink:href="#i"/>
<use x="242.382812" xlink:href="#k"/>
<use x="270.166016" xlink:href="#h"/>
<use x="333.544922" xlink:href="#f"/>
<use x="394.824219" xlink:href="#j"/>
</g>
</g>
<defs>
<path id="b" d="m0 8.6603c2.2967 0 4.4997-0.9125 6.1237-2.5365 1.624-1.624 2.5365-3.827 2.5365-6.1237s-0.9125-4.4997-2.5365-6.1237c-1.624-1.624-3.827-2.5365-6.1237-2.5365s-4.4997 0.9125-6.1237 2.5365c-1.624 1.624-2.5365 3.827-2.5365 6.1237s0.9125 4.4997 2.5365 6.1237c1.624 1.624 3.827 2.5365 6.1237 2.5365z"/>
</defs>
<g clip-path="url(#a)" fill="#ffffff" stroke="#ffffff">
<use x="59.878788" y="661.818182" xlink:href="#b"/>
<use x="69.408568" y="661.818182" xlink:href="#b"/>
<use x="82.114943" y="661.818182" xlink:href="#b"/>
<use x="97.99791" y="661.818182" xlink:href="#b"/>
<use x="117.057471" y="661.818182" xlink:href="#b"/>
<use x="139.293626" y="661.818182" xlink:href="#b"/>
<use x="164.706374" y="661.818182" xlink:href="#b"/>
<use x="193.295716" y="661.818182" xlink:href="#b"/>
<use x="225.061651" y="661.818182" xlink:href="#b"/>
<use x="260.00418" y="661.818182" xlink:href="#b"/>
<use x="298.123302" y="661.818182" xlink:href="#b"/>
<use x="339.419018" y="661.818182" xlink:href="#b"/>
<use x="383.891327" y="661.818182" xlink:href="#b"/>
<use x="431.54023" y="661.818182" xlink:href="#b"/>
<use x="488.718913" y="661.818182" xlink:href="#b"/>
<use x="542.721003" y="661.818182" xlink:href="#b"/>
<use x="599.899687" y="661.818182" xlink:href="#b"/>
<use x="660.254963" y="661.818182" xlink:href="#b"/>
<use x="723.786834" y="661.818182" xlink:href="#b"/>
<use x="790.495298" y="661.818182" xlink:href="#b"/>
<use x="860.380355" y="661.818182" xlink:href="#b"/>
<use x="933.442006" y="661.818182" xlink:href="#b"/>
<use x="1009.680251" y="661.818182" xlink:href="#b"/>
<use x="1089.095089" y="661.818182" xlink:href="#b"/>
<use x="1171.68652" y="661.818182" xlink:href="#b"/>
<use x="1257.454545" y="661.818182" xlink:href="#b"/>
<use x="437.893417" y="285.563287" xlink:href="#b"/>
<use x="437.893417" y="285.563287" xlink:href="#b"/>
<use x="315.428594" y="31.515152" xlink:href="#b"/>
<use x="70.467433" y="411.996581" xlink:href="#b"/>
<use x="278.156143" y="158.699688" xlink:href="#b"/>
<use x="840.173691" y="285.563287" xlink:href="#b"/>
<use x="600.958551" y="411.996581" xlink:href="#b"/>
<use x="723.786834" y="537.770204" xlink:href="#b"/>
<use x="790.495298" y="537.770204" xlink:href="#b"/>
<use x="860.380355" y="537.770204" xlink:href="#b"/>
<use x="1131.979101" y="411.996581" xlink:href="#b"/>
<use x="1009.680251" y="537.770204" xlink:href="#b"/>
<use x="1089.095089" y="537.770204" xlink:href="#b"/>
<use x="1171.68652" y="537.770204" xlink:href="#b"/>
<use x="542.721003" y="537.770204" xlink:href="#b"/>
<use x="599.899687" y="537.770204" xlink:href="#b"/>
<use x="660.254963" y="537.770204" xlink:href="#b"/>
<use x="278.156143" y="285.563287" xlink:href="#b"/>
<use x="139.293626" y="537.770204" xlink:href="#b"/>
<use x="209.178683" y="411.996581" xlink:href="#b"/>
<use x="279.063741" y="411.996581" xlink:href="#b"/>
<use x="339.419018" y="537.770204" xlink:href="#b"/>
<use x="383.891327" y="537.770204" xlink:href="#b"/>
<use x="431.54023" y="537.770204" xlink:href="#b"/>
<use x="260.00418" y="537.770204" xlink:href="#b"/>
<use x="298.123302" y="537.770204" xlink:href="#b"/>
<use x="193.295716" y="537.770204" xlink:href="#b"/>
<use x="225.061651" y="537.770204" xlink:href="#b"/>
<use x="59.878788" y="537.770204" xlink:href="#b"/>
<use x="69.408568" y="537.770204" xlink:href="#b"/>
<use x="82.114943" y="537.770204" xlink:href="#b"/>
<use x="97.99791" y="537.770204" xlink:href="#b"/>
<use x="117.057471" y="537.770204" xlink:href="#b"/>
<use x="164.706374" y="537.770204" xlink:href="#b"/>
<use x="488.718913" y="537.770204" xlink:href="#b"/>
<use x="933.442006" y="537.770204" xlink:href="#b"/>
<use x="1257.454545" y="537.770204" xlink:href="#b"/>
</g>
<g clip-path="url(#a)">
<g transform="translate(52.674 664.58) scale(.1 -.1)">
<defs>
<path id="bi" d="m39.406 66.219q-10.75 0-17.078-8.0156-6.3125-8-6.3125-21.828 0-13.766 6.3125-21.781 6.3281-8 17.078-8 10.734 0 17.016 8 6.2812 8.0156 6.2812 21.781 0 13.828-6.2812 21.828-6.2812 8.0156-17.016 8.0156zm0 8q15.328 0 24.5-10.281 9.1875-10.281 9.1875-27.562 0-17.234-9.1875-27.516-9.1719-10.281-24.5-10.281-15.375 0-24.594 10.25-9.2031 10.266-9.2031 27.547t9.2031 27.562q9.2188 10.281 24.594 10.281z"/>
<path id="q" d="m9.0781 54.688h9.0312v-22.312h29.156v22.312h9.0312v-54.688h-9.0312v25.203h-29.156v-25.203h-9.0312z"/>
</defs>
<use xlink:href="#bi"/>
<use x="78.710938" xlink:href="#q"/>
</g>
</g>
<g clip-path="url(#a)">
<g transform="translate(54.244 664.58) scale(.1 -.1)">
<defs>
<path id="ae" d="m18.062 25.203v-18.031h12.797q6.1562 0 9.375 2.3125 3.2188 2.3281 3.2188 6.7344 0 4.3906-3.2188 6.6875t-9.375 2.2969zm0 22.312v-15.141h11.828q5.0781 0 8.2969 2.0156 3.2188 2.0312 3.2188 5.6562 0 3.6094-3.2188 5.5312-3.2188 1.9375-8.2969 1.9375zm-8.9844 7.1719h21.391q9.625 0 14.797-3.5156t5.1719-10.016q0-5.0156-2.6406-7.9844-2.625-2.9531-7.8125-3.6719 6.2031-1.1719 9.625-4.8906 3.4219-3.7031 3.4219-9.2812 0-7.3125-5.6406-11.328-5.6406-4-16.094-4h-22.219z"/>
<path id="ad" d="m21.625 7.1719h26.078v40.344h-18.891v-6.8438q0-20.109-5.7656-30.859zm-13.031 0q4.4375 1.9531 6.3906 6.1094 4.7969 10.297 4.7969 31.062v10.344h36.953v-47.516h7.1875v-20.984h-7.1875v13.812h-44.328v-13.812h-7.1875v20.984z"/>
<path id="au" d="m18.109 8.2031v-29h-9.0312v75.484h9.0312v-8.2969q2.8438 4.875 7.1562 7.2344 4.3281 2.375 10.328 2.375 9.9688 0 16.188-7.9062 6.2344-7.9062 6.2344-20.797t-6.2344-20.812q-6.2188-7.9062-16.188-7.9062-6 0-10.328 2.375-4.3125 2.375-7.1562 7.25zm30.578 19.094q0 9.9062-4.0781 15.547t-11.203 5.6406q-7.1406 0-11.219-5.6406t-4.0781-15.547 4.0781-15.547 11.219-5.6406q7.125 0 11.203 5.6406t4.0781 15.547z"/>
<path id="x" d="m32.172-5.0781q-3.7969-9.7656-7.4219-12.734-3.6094-2.9844-9.6562-2.9844h-7.1875v7.5156h5.2812q3.7031 0 5.75 1.7656 2.0625 1.75 4.5469 8.2969l1.6094 4.0938-22.109 53.812h9.5156l17.094-42.766 17.094 42.766h9.5156z"/>
<path id="bg" d="m9.0781 0v54.688h38.578v-7.1719h-29.547v-47.516z"/>
</defs>
<use xlink:href="#ae"/>
<use x="58.935547" xlink:href="#ad"/>
<use x="128.076172" xlink:href="#au"/>
<use x="191.552734" xlink:href="#x"/>
<use x="250.732422" xlink:href="#bg"/>
</g>
</g>
<g clip-path="url(#a)">
<g transform="translate(51.796 664.58) scale(.1 -.1)">
<defs>
<path id="at" d="m48.781 52.594v-8.4062q-3.8125 2.1094-7.6406 3.1562t-7.7344 1.0469q-8.75 0-13.594-5.5469-4.8281-5.5312-4.8281-15.547t4.8281-15.562q4.8438-5.5312 13.594-5.5312 3.9062 0 7.7344 1.0469t7.6406 3.1562v-8.3125q-3.7656-1.75-7.7969-2.625-4.0156-0.89062-8.5625-0.89062-12.359 0-19.641 7.7656-7.2656 7.7656-7.2656 20.953 0 13.375 7.3438 21.031 7.3594 7.6719 20.156 7.6719 4.1406 0 8.0938-0.85938 3.9531-0.84375 7.6719-2.5469z"/>
<path id="bd" d="m56.297 54.688v-54.688h-9.0312v47.516h-29.156v-47.516h-9.0312v54.688z"/>
<path id="y" d="m30.609 48.391q-7.2188 0-11.422-5.6406t-4.2031-15.453 4.1719-15.453q4.1875-5.6406 11.453-5.6406 7.1875 0 11.375 5.6562 4.2031 5.6719 4.2031 15.438 0 9.7188-4.2031 15.406-4.1875 5.6875-11.375 5.6875zm0 7.6094q11.719 0 18.406-7.625 6.7031-7.6094 6.7031-21.078 0-13.422-6.7031-21.078-6.6875-7.6406-18.406-7.6406-11.766 0-18.438 7.6406-6.6562 7.6562-6.6562 21.078 0 13.469 6.6562 21.078 6.6719 7.625 18.438 7.625z"/>
<path id="ao" d="m9.0781 54.688h8.9375v-25.688l25.344 25.688h11.031l-20.891-21.141 23.578-33.547h-10.062l-19.375 27.594-9.625-9.7656v-17.828h-8.9375z"/>
<path id="ac" d="m55.906 54.688v-54.688h-8.9375v43.891l-26.359-43.891h-11.531v54.688h8.9375v-43.797l26.328 43.797z"/>
<path id="an" d="m3.7188 0v7.4688q8.875 1.375 11.609 7.5156 3.3281 8.6562 3.3281 30.766v8.9375h36.953v-54.688h-8.9844v47.516h-18.984v-5.4219q0-21.094-4.2969-30.562-4.5938-10.109-19.625-11.531z"/>
<path id="am" d="m18.453 38.922q0-4.0625 3.125-6.3594 3.125-2.2812 8.9375-2.2812h12.109v17.234h-12.109q-5.8125 0-8.9375-2.25t-3.125-6.3438zm-12.781-38.922 16.688 23.969q-5.6562 1.2812-9.4219 4.625-3.75 3.3438-3.75 10.328 0 7.9062 5.2344 11.828 5.25 3.9375 15.859 3.9375h21.375v-54.688h-9.0312v23.094h-11.172l-16.125-23.094z"/>
</defs>
<use xlink:href="#x"/>
<use x="59.179688" xlink:href="#at"/>
<use x="114.160156" xlink:href="#bd"/>
<use x="179.541016" xlink:href="#y"/>
<use x="240.722656" xlink:href="#ao"/>
<use x="301.123047" xlink:href="#y"/>
<use x="362.304688" xlink:href="#ac"/>
<use x="427.294922" xlink:href="#an"/>
<use x="491.210938" xlink:href="#at"/>
<use x="546.191406" xlink:href="#am"/>
</g>
</g>
<g clip-path="url(#a)">
<g transform="translate(96.314 664.58) scale(.1 -.1)">
<defs>
<path id="ay" d="m11.719 12.406h10.297v-12.406h-10.297zm0 39.297h10.297v-12.391h-10.297z"/>
</defs>
<use xlink:href="#ay"/>
</g>
</g>
<g clip-path="url(#a)">
<g transform="translate(115.25 664.58) scale(.1 -.1)">
<defs>
<path id="az" d="m4.8906 31.391h26.312v-8h-26.312z"/>
</defs>
<use xlink:href="#az"/>
</g>
</g>
<g clip-path="url(#a)">
<g transform="translate(119.83 664.58) scale(.1 -.1)">
<defs>
<path id="bh" d="m65.375 72.906v-72.906h-9.8594v64.594h-35.844v-64.594h-9.8594v72.906z"/>
<path id="r" d="m34.281 27.484q-10.891 0-15.094-2.4844t-4.2031-8.5q0-4.7812 3.1562-7.5938 3.1562-2.7969 8.5625-2.7969 7.4844 0 12 5.2969t4.5156 14.078v2zm17.922 3.7188v-31.203h-8.9844v8.2969q-3.0781-4.9688-7.6719-7.3438t-11.234-2.375q-8.3906 0-13.359 4.7188-4.9531 4.7188-4.9531 12.625 0 9.2188 6.1719 13.906 6.1875 4.6875 18.438 4.6875h12.609v0.89062q0 6.2031-4.0781 9.5938t-11.453 3.3906q-4.6875 0-9.1406-1.125-4.4375-1.125-8.5312-3.375v8.3125q4.9219 1.9062 9.5625 2.8438 4.6406 0.95312 9.0312 0.95312 11.875 0 17.734-6.1562 5.8594-6.1406 5.8594-18.641z"/>
</defs>
<use xlink:href="#bh"/>
<use x="75.195312" xlink:href="#au"/>
<use x="138.671875" xlink:href="#r"/>
<use x="199.951172" xlink:href="#ae"/>
<use x="258.886719" xlink:href="#ad"/>
<use x="328.027344" xlink:href="#r"/>
</g>
</g>
<g clip-path="url(#a)">
<g transform="translate(163.12 664.58) scale(.1 -.1)">
<defs>
<path id="ar" d="m11.719 12.406h10.297v-8.4062l-8-15.625h-6.2969l4 15.625z"/>
</defs>
<use xlink:href="#ar"/>
</g>
</g>
<g clip-path="url(#a)">
<g transform="translate(186.96 664.58) scale(.1 -.1)">
<use xlink:href="#q"/>
<use x="65.380859" xlink:href="#r"/>
</g>
</g>
<g clip-path="url(#a)">
<g transform="translate(209.39 664.58) scale(.1 -.1)">
<defs>
<path id="as" d="m54.891 54.688-19.781-26.609 20.797-28.078h-10.594l-15.922 21.484-15.906-21.484h-10.609l21.25 28.609-19.438 26.078h10.594l14.5-19.484 14.5 19.484z"/>
</defs>
<use xlink:href="#ad"/>
<use x="69.140625" xlink:href="#ae"/>
<use x="128.076172" xlink:href="#y"/>
<use x="189.257812" xlink:href="#ac"/>
<use x="254.248047" xlink:href="#as"/>
</g>
</g>
<g clip-path="url(#a)">
<g transform="translate(257.04 664.58) scale(.1 -.1)">
<use xlink:href="#x"/>
</g>
</g>
<g clip-path="url(#a)">
<g transform="translate(288.7 664.58) scale(.1 -.1)">
<defs>
<path id="v" d="m56.203 29.594v-4.3906h-41.312q0.59375-9.2812 5.5938-14.141t13.938-4.8594q5.1719 0 10.031 1.2656t9.6562 3.8125v-8.5q-4.8438-2.0469-9.9219-3.125t-10.297-1.0781q-13.094 0-20.734 7.6094-7.6406 7.625-7.6406 20.625 0 13.422 7.25 21.297 7.25 7.8906 19.562 7.8906 11.031 0 17.453-7.1094 6.4219-7.0938 6.4219-19.297zm-8.9844 2.6406q-0.09375 7.3594-4.125 11.75-4.0312 4.4062-10.672 4.4062-7.5156 0-12.031-4.25t-5.2031-11.969z"/>
</defs>
<use xlink:href="#q"/>
<use x="65.380859" xlink:href="#v"/>
<use x="126.904297" xlink:href="#v"/>
</g>
</g>
<g clip-path="url(#a)">
<g transform="translate(333.07 664.58) scale(.1 -.1)">
<use xlink:href="#q"/>
<use x="65.380859" xlink:href="#v"/>
</g>
</g>
<g clip-path="url(#a)">
<g transform="translate(365.85 664.58) scale(.1 -.1)">
<defs>
<path id="ab" d="m2.9375 54.688h52.391v-7.1719h-21.781v-47.516h-8.8438v47.516h-21.766z"/>
</defs>
<use xlink:href="#as"/>
<use x="59.179688" xlink:href="#ae"/>
<use x="118.115234" xlink:href="#r"/>
<use x="179.394531" xlink:href="#ab"/>
<use x="237.646484" xlink:href="#ac"/>
<use x="302.636719" xlink:href="#ab"/>
</g>
</g>
<g clip-path="url(#a)">
<g transform="translate(422.01 664.58) scale(.1 -.1)">
<use xlink:href="#am"/>
<use x="60.15625" xlink:href="#ad"/>
<use x="129.296875" xlink:href="#r"/>
</g>
</g>
<g clip-path="url(#a)">
<g transform="translate(483.95 664.58) scale(.1 -.1)">
<defs>
<path id="d" d="m10.688 12.406h10.312v-12.406h-10.312z"/>
</defs>
<use xlink:href="#d"/>
<use x="31.787109" xlink:href="#d"/>
<use x="63.574219" xlink:href="#d"/>
</g>
</g>
<g clip-path="url(#a)">
<g transform="translate(539.29 664.58) scale(.1 -.1)">
<defs>
<path id="bj" d="m19.672 34.812v-26.703h15.828q7.9531 0 11.781 3.2969 3.8438 3.2969 3.8438 10.078 0 6.8438-3.8438 10.078-3.8281 3.25-11.781 3.25zm0 29.984v-21.969h14.609q7.2188 0 10.75 2.7031 3.5469 2.7188 3.5469 8.2812 0 5.5156-3.5469 8.25-3.5312 2.7344-10.75 2.7344zm-9.8594 8.1094h25.203q11.281 0 17.375-4.6875 6.1094-4.6875 6.1094-13.328 0-6.7031-3.125-10.656t-9.1875-4.9219q7.2812-1.5625 11.312-6.5312 4.0312-4.9531 4.0312-12.375 0-9.7656-6.6406-15.094-6.6406-5.3125-18.906-5.3125h-26.172z"/>
</defs>
<use xlink:href="#bj"/>
</g>
</g>
<g clip-path="url(#a)">
<g transform="translate(594.03 664.58) scale(.1 -.1)">
<use xlink:href="#ab"/>
<use x="58.251953" xlink:href="#x"/>
</g>
</g>
<g clip-path="url(#a)">
<g transform="translate(648.03 664.58) scale(.1 -.1)">
<defs>
<path id="bc" d="m41.016 0v23h-16.75q-7.4688 0-12.453 4.6406-4.4844 4.2031-4.4844 13.188v13.859h8.9844v-13.031q0-5.7188 2.5312-8.5938 2.5938-2.8906 7.6719-2.8906h14.5v24.516h8.9844v-54.688z"/>
<path id="ba" d="m43.453 16.219q0 4.3906-3.2031 6.6875-3.1875 2.2969-9.3438 2.2969h-12.797v-18.031h12.797q6.1562 0 9.3438 2.3125 3.2031 2.3281 3.2031 6.7344zm-34.375 38.469h9.0312v-22.312h13.188q10.453 0 16.094-3.9844 5.6406-3.9688 5.6406-12.172t-5.6406-12.219q-5.6406-4-16.094-4h-22.219z"/>
</defs>
<use xlink:href="#q"/>
<use x="65.380859" xlink:href="#y"/>
<use x="126.5625" xlink:href="#bc"/>
<use x="185.644531" xlink:href="#ba"/>
</g>
</g>
<g clip-path="url(#a)">
<g transform="translate(720.78 664.58) scale(.1 -.1)">
<use xlink:href="#am"/>
</g>
</g>
<g clip-path="url(#a)">
<g transform="translate(784.15 664.58) scale(.1 -.1)">
<use xlink:href="#q"/>
<use x="65.380859" xlink:href="#v"/>
</g>
</g>
<g clip-path="url(#a)">
<g transform="translate(838.45 664.58) scale(.1 -.1)">
<defs>
<path id="bf" d="m34.469 29.5q6.0625-1.1719 9.4219-4.75 3.375-3.5625 3.375-8.8281 0-8.4531-6.2969-12.906-6.2969-4.4375-17.922-4.4375-3.9062 0-8.0312 0.6875t-8.5156 2.0469v8.3594q3.4688-1.8125 7.6094-2.7188 4.1562-0.89062 8.6875-0.89062 7.375 0 11.5 2.7344t4.125 7.125q0 4.2969-3.6562 6.9062t-10.344 2.6094h-7.2344v7.4219h7.5625q5.6719 0 8.9688 2.1719t3.2969 5.5938q0 3.125-3.4062 5.375-3.3906 2.25-9.1875 2.25-3.4688 0-7.4062-0.64062-3.9219-0.64062-8.6719-2.0469v8.1562q4.7969 1.1719 8.9375 1.75 4.1562 0.59375 7.8594 0.59375 9.5781 0 15.109-3.8438 5.5469-3.8281 5.5469-10.719 0-4.5312-2.9375-7.6875-2.9219-3.1406-8.3906-4.3125z"/>
<path id="be" d="m9.0781 54.688h13.141l15.531-36.625 15.578 36.625h13.031v-54.688h-9.0312v46.094l-15.094-35.594h-8.9844l-15.141 35.594v-46.094h-9.0312z"/>
</defs>
<use xlink:href="#bf"/>
<use x="53.173828" xlink:href="#r"/>
<use x="114.453125" xlink:href="#be"/>
<use x="189.892578" xlink:href="#v"/>
<use x="251.416016" xlink:href="#ab"/>
<use x="309.667969" xlink:href="#ac"/>
<use x="374.658203" xlink:href="#an"/>
</g>
</g>
<g clip-path="url(#a)">
<g transform="translate(931.85 664.58) scale(.1 -.1)">
<use xlink:href="#ar"/>
</g>
</g>
<g clip-path="url(#a)">
<g transform="translate(1000.6 664.58) scale(.1 -.1)">
<use xlink:href="#ao"/>
<use x="60.400391" xlink:href="#r"/>
<use x="121.679688" xlink:href="#ao"/>
</g>
</g>
<g clip-path="url(#a)">
<g transform="translate(1082.8 664.58) scale(.1 -.1)">
<use xlink:href="#y"/>
<use x="61.181641" xlink:href="#q"/>
</g>
</g>
<g clip-path="url(#a)">
<g transform="translate(1157.9 664.58) scale(.1 -.1)">
<defs>
<path id="bb" d="m50.25 7.1719h23.141v47.516h9.0312v-54.688h-73.344v54.688h9.0312v-47.516h23.109v47.516h9.0312z"/>
</defs>
<use xlink:href="#x"/>
<use x="59.179688" xlink:href="#bb"/>
<use x="150.683594" xlink:href="#v"/>
<use x="212.207031" xlink:href="#an"/>
</g>
</g>
<g clip-path="url(#a)">
<g transform="translate(1255.9 664.58) scale(.1 -.1)">
<use xlink:href="#d"/>
</g>
</g>
<g clip-path="url(#a)">
<g transform="translate(416.81 288.32) scale(.1 -.1)">
<defs>
<path id="u" d="m9.8125 72.906h9.8594v-72.906h-9.8594z"/>
<path id="ap" d="m9.8125 72.906h14.703l18.594-49.609 18.703 49.609h14.703v-72.906h-9.625v64.016l-18.797-50h-9.9062l-18.797 50v-64.016h-9.5781z"/>
<path id="aq" d="m9.8125 72.906h9.8594v-64.609h35.5v-8.2969h-45.359z"/>
</defs>
<use xlink:href="#u"/>
<use x="29.492188" xlink:href="#ap"/>
<use x="115.771484" xlink:href="#t"/>
<use x="176.074219" xlink:href="#aq"/>
<use x="231.787109" xlink:href="#u"/>
<use x="261.279297" xlink:href="#w"/>
<use x="331.103516" xlink:href="#u"/>
<use x="360.595703" xlink:href="#e"/>
</g>
</g>
<g clip-path="url(#a)">
<g transform="translate(416.81 288.32) scale(.1 -.1)">
<use xlink:href="#u"/>
<use x="29.492188" xlink:href="#ap"/>
<use x="115.771484" xlink:href="#t"/>
<use x="176.074219" xlink:href="#aq"/>
<use x="231.787109" xlink:href="#u"/>
<use x="261.279297" xlink:href="#w"/>
<use x="331.103516" xlink:href="#u"/>
<use x="360.595703" xlink:href="#e"/>
</g>
</g>
<g clip-path="url(#a)">
<g transform="translate(307.48 34.275) scale(.1 -.1)">
<defs>
<path id="c" d="m12.406 8.2969h16.109v55.625l-17.531-3.5156v8.9844l17.438 3.5156h9.8594v-64.609h16.109v-8.2969h-41.984z"/>
</defs>
<use xlink:href="#c"/>
<use x="63.623047" xlink:href="#d"/>
<use x="95.410156" xlink:href="#c"/>
</g>
</g>
<g clip-path="url(#a)">
<g transform="translate(62.516 414.76) scale(.1 -.1)">
<defs>
<path id="n" d="m19.188 8.2969h34.422v-8.2969h-46.281v8.2969q5.6094 5.8125 15.297 15.594 9.7031 9.7969 12.188 12.641 4.7344 5.3125 6.6094 9 1.8906 3.6875 1.8906 7.25 0 5.8125-4.0781 9.4688-4.0781 3.6719-10.625 3.6719-4.6406 0-9.7969-1.6094-5.1406-1.6094-11-4.8906v9.9688q5.9531 2.3906 11.125 3.6094 5.1875 1.2188 9.4844 1.2188 11.328 0 18.062-5.6719 6.7344-5.6562 6.7344-15.125 0-4.5-1.6875-8.5312-1.6719-4.0156-6.125-9.4844-1.2188-1.4219-7.7656-8.1875-6.5312-6.7656-18.453-18.922z"/>
</defs>
<use xlink:href="#c"/>
<use x="63.623047" xlink:href="#d"/>
<use x="95.410156" xlink:href="#n"/>
</g>
</g>
<g clip-path="url(#a)">
<g transform="translate(270.2 161.46) scale(.1 -.1)">
<defs>
<path id="m" d="m40.578 39.312q7.0781-1.5156 11.047-6.3125 3.9844-4.7812 3.9844-11.812 0-10.781-7.4219-16.703-7.4219-5.9062-21.094-5.9062-4.5781 0-9.4375 0.90625t-10.031 2.7188v9.5156q4.0938-2.3906 8.9688-3.6094 4.8906-1.2188 10.219-1.2188 9.2656 0 14.125 3.6562t4.8594 10.641q0 6.4531-4.5156 10.078-4.5156 3.6406-12.562 3.6406h-8.5v8.1094h8.8906q7.2656 0 11.125 2.9062t3.8594 8.375q0 5.6094-3.9844 8.6094-3.9688 3.0156-11.391 3.0156-4.0625 0-8.7031-0.89062-4.6406-0.875-10.203-2.7188v8.7812q5.625 1.5625 10.531 2.3438t9.25 0.78125q11.234 0 17.766-5.1094 6.5469-5.0938 6.5469-13.781 0-6.0625-3.4688-10.234t-9.8594-5.7812z"/>
</defs>
<use xlink:href="#c"/>
<use x="63.623047" xlink:href="#d"/>
<use x="95.410156" xlink:href="#m"/>
</g>
</g>
<g clip-path="url(#a)">
<g transform="translate(832.22 288.32) scale(.1 -.1)">
<defs>
<path id="p" d="m37.797 64.312-24.906-38.922h24.906zm-2.5938 8.5938h12.406v-47.516h10.406v-8.2031h-10.406v-17.188h-9.8125v17.188h-32.906v9.5156z"/>
</defs>
<use xlink:href="#c"/>
<use x="63.623047" xlink:href="#d"/>
<use x="95.410156" xlink:href="#p"/>
</g>
</g>
<g clip-path="url(#a)">
<g transform="translate(593.01 414.76) scale(.1 -.1)">
<defs>
<path id="aa" d="m10.984 1.5156v8.9844q3.7188-1.7656 7.5156-2.6875 3.8125-0.92188 7.4844-0.92188 9.7656 0 14.906 6.5625 5.1562 6.5625 5.8906 19.953-2.8281-4.2031-7.1875-6.4531-4.3438-2.25-9.6094-2.25-10.938 0-17.312 6.6094-6.375 6.625-6.375 18.109 0 11.219 6.6406 18 6.6406 6.7969 17.672 6.7969 12.656 0 19.312-9.7031 6.6719-9.6875 6.6719-28.141 0-17.234-8.1875-27.516-8.1719-10.281-21.984-10.281-3.7188 0-7.5312 0.73438-3.7969 0.73438-7.9062 2.2031zm19.625 30.906q6.6406 0 10.516 4.5312 3.8906 4.5469 3.8906 12.469 0 7.8594-3.8906 12.422-3.875 4.5625-10.516 4.5625t-10.516-4.5625-3.875-12.422q0-7.9219 3.875-12.469 3.875-4.5312 10.516-4.5312z"/>
</defs>
<use xlink:href="#c"/>
<use x="63.623047" xlink:href="#d"/>
<use x="95.410156" xlink:href="#aa"/>
</g>
</g>
<g clip-path="url(#a)">
<g transform="translate(712.65 540.53) scale(.1 -.1)">
<defs>
<path id="al" d="m31.781 66.406q-7.6094 0-11.453-7.5-3.8281-7.4844-3.8281-22.531 0-14.984 3.8281-22.484 3.8438-7.5 11.453-7.5 7.6719 0 11.5 7.5 3.8438 7.5 3.8438 22.484 0 15.047-3.8438 22.531-3.8281 7.5-11.5 7.5zm0 7.8125q12.266 0 18.734-9.7031 6.4688-9.6875 6.4688-28.141 0-18.406-6.4688-28.109-6.4688-9.6875-18.734-9.6875-12.25 0-18.719 9.6875-6.4688 9.7031-6.4688 28.109 0 18.453 6.4688 28.141 6.4688 9.7031 18.719 9.7031z"/>
</defs>
<use xlink:href="#c"/>
<use x="63.623047" xlink:href="#d"/>
<use x="95.410156" xlink:href="#c"/>
<use x="159.033203" xlink:href="#al"/>
</g>
</g>
<g clip-path="url(#a)">
<g transform="translate(779.36 540.53) scale(.1 -.1)">
<use xlink:href="#c"/>
<use x="63.623047" xlink:href="#d"/>
<use x="95.410156" xlink:href="#c"/>
<use x="159.033203" xlink:href="#c"/>
</g>
</g>
<g clip-path="url(#a)">
<g transform="translate(849.25 540.53) scale(.1 -.1)">
<use xlink:href="#c"/>
<use x="63.623047" xlink:href="#d"/>
<use x="95.410156" xlink:href="#c"/>
<use x="159.033203" xlink:href="#n"/>
</g>
</g>
<g clip-path="url(#a)">
<g transform="translate(1120.8 414.76) scale(.1 -.1)">
<use xlink:href="#c"/>
<use x="63.623047" xlink:href="#d"/>
<use x="95.410156" xlink:href="#c"/>
<use x="159.033203" xlink:href="#m"/>
</g>
</g>
<g clip-path="url(#a)">
<g transform="translate(998.55 540.53) scale(.1 -.1)">
<defs>
<path id="ak" d="m10.797 72.906h38.719v-8.3125h-29.688v-17.859q2.1406 0.73438 4.2812 1.0938 2.1562 0.35938 4.3125 0.35938 12.203 0 19.328-6.6875 7.1406-6.6875 7.1406-18.109 0-11.766-7.3281-18.297-7.3281-6.5156-20.656-6.5156-4.5938 0-9.3594 0.78125-4.75 0.78125-9.8281 2.3438v9.9219q4.3906-2.3906 9.0781-3.5625t9.9062-1.1719q8.4531 0 13.375 4.4375 4.9375 4.4375 4.9375 12.062 0 7.6094-4.9375 12.047-4.9219 4.4531-13.375 4.4531-3.9531 0-7.8906-0.875-3.9219-0.875-8.0156-2.7344z"/>
</defs>
<use xlink:href="#c"/>
<use x="63.623047" xlink:href="#d"/>
<use x="95.410156" xlink:href="#c"/>
<use x="159.033203" xlink:href="#ak"/>
</g>
</g>
<g clip-path="url(#a)">
<g transform="translate(1078 540.53) scale(.1 -.1)">
<defs>
<path id="aj" d="m33.016 40.375q-6.6406 0-10.531-4.5469-3.875-4.5312-3.875-12.438 0-7.8594 3.875-12.438 3.8906-4.5625 10.531-4.5625t10.516 4.5625q3.875 4.5781 3.875 12.438 0 7.9062-3.875 12.438-3.875 4.5469-10.516 4.5469zm19.578 30.922v-8.9844q-3.7188 1.75-7.5 2.6719-3.7812 0.9375-7.5 0.9375-9.7656 0-14.922-6.5938-5.1406-6.5938-5.875-19.922 2.875 4.25 7.2188 6.5156 4.3594 2.2656 9.5781 2.2656 10.984 0 17.359-6.6719 6.375-6.6562 6.375-18.125 0-11.234-6.6406-18.031-6.6406-6.7812-17.672-6.7812-12.656 0-19.344 9.6875-6.6875 9.7031-6.6875 28.109 0 17.281 8.2031 27.562t22.016 10.281q3.7188 0 7.5-0.73438t7.8906-2.1875z"/>
</defs>
<use xlink:href="#c"/>
<use x="63.623047" xlink:href="#d"/>
<use x="95.410156" xlink:href="#c"/>
<use x="159.033203" xlink:href="#aj"/>
</g>
</g>
<g clip-path="url(#a)">
<g transform="translate(1160.6 540.53) scale(.1 -.1)">
<defs>
<path id="ai" d="m8.2031 72.906h46.875v-4.2031l-26.469-68.703h-10.297l24.906 64.594h-35.016z"/>
</defs>
<use xlink:href="#c"/>
<use x="63.623047" xlink:href="#d"/>
<use x="95.410156" xlink:href="#c"/>
<use x="159.033203" xlink:href="#ai"/>
</g>
</g>
<g clip-path="url(#a)">
<g transform="translate(531.59 540.53) scale(.1 -.1)">
<defs>
<path id="ah" d="m31.781 34.625q-7.0312 0-11.062-3.7656-4.0156-3.7656-4.0156-10.344 0-6.5938 4.0156-10.359 4.0312-3.7656 11.062-3.7656t11.078 3.7812q4.0625 3.7969 4.0625 10.344 0 6.5781-4.0312 10.344-4.0156 3.7656-11.109 3.7656zm-9.8594 4.1875q-6.3438 1.5625-9.8906 5.9062-3.5312 4.3594-3.5312 10.609 0 8.7344 6.2188 13.812 6.2344 5.0781 17.062 5.0781 10.891 0 17.094-5.0781t6.2031-13.812q0-6.25-3.5469-10.609-3.5312-4.3438-9.8281-5.9062 7.125-1.6562 11.094-6.5 3.9844-4.8281 3.9844-11.797 0-10.609-6.4688-16.281-6.4688-5.6562-18.531-5.6562-12.047 0-18.531 5.6562-6.4688 5.6719-6.4688 16.281 0 6.9688 4 11.797 4.0156 4.8438 11.141 6.5zm-3.6094 15.578q0-5.6562 3.5312-8.8281 3.5469-3.1719 9.9375-3.1719 6.3594 0 9.9375 3.1719 3.5938 3.1719 3.5938 8.8281 0 5.6719-3.5938 8.8438-3.5781 3.1719-9.9375 3.1719-6.3906 0-9.9375-3.1719-3.5312-3.1719-3.5312-8.8438z"/>
</defs>
<use xlink:href="#c"/>
<use x="63.623047" xlink:href="#d"/>
<use x="95.410156" xlink:href="#c"/>
<use x="159.033203" xlink:href="#ah"/>
</g>
</g>
<g clip-path="url(#a)">
<g transform="translate(588.77 540.53) scale(.1 -.1)">
<use xlink:href="#c"/>
<use x="63.623047" xlink:href="#d"/>
<use x="95.410156" xlink:href="#c"/>
<use x="159.033203" xlink:href="#aa"/>
</g>
</g>
<g clip-path="url(#a)">
<g transform="translate(649.12 540.53) scale(.1 -.1)">
<use xlink:href="#c"/>
<use x="63.623047" xlink:href="#d"/>
<use x="95.410156" xlink:href="#n"/>
<use x="159.033203" xlink:href="#al"/>
</g>
</g>
<g clip-path="url(#a)">
<g transform="translate(267.02 288.32) scale(.1 -.1)">
<use xlink:href="#c"/>
<use x="63.623047" xlink:href="#d"/>
<use x="95.410156" xlink:href="#n"/>
<use x="159.033203" xlink:href="#m"/>
</g>
</g>
<g clip-path="url(#a)">
<g transform="translate(128.16 540.53) scale(.1 -.1)">
<use xlink:href="#c"/>
<use x="63.623047" xlink:href="#d"/>
<use x="95.410156" xlink:href="#n"/>
<use x="159.033203" xlink:href="#p"/>
</g>
</g>
<g clip-path="url(#a)">
<g transform="translate(198.05 414.76) scale(.1 -.1)">
<use xlink:href="#c"/>
<use x="63.623047" xlink:href="#d"/>
<use x="95.410156" xlink:href="#n"/>
<use x="159.033203" xlink:href="#ak"/>
</g>
</g>
<g clip-path="url(#a)">
<g transform="translate(267.93 414.76) scale(.1 -.1)">
<use xlink:href="#c"/>
<use x="63.623047" xlink:href="#d"/>
<use x="95.410156" xlink:href="#n"/>
<use x="159.033203" xlink:href="#aj"/>
</g>
</g>
<g clip-path="url(#a)">
<g transform="translate(328.29 540.53) scale(.1 -.1)">
<use xlink:href="#c"/>
<use x="63.623047" xlink:href="#d"/>
<use x="95.410156" xlink:href="#n"/>
<use x="159.033203" xlink:href="#ai"/>
</g>
</g>
<g clip-path="url(#a)">
<g transform="translate(372.76 540.53) scale(.1 -.1)">
<use xlink:href="#c"/>
<use x="63.623047" xlink:href="#d"/>
<use x="95.410156" xlink:href="#n"/>
<use x="159.033203" xlink:href="#ah"/>
</g>
</g>
<g clip-path="url(#a)">
<g transform="translate(420.41 540.53) scale(.1 -.1)">
<use xlink:href="#c"/>
<use x="63.623047" xlink:href="#d"/>
<use x="95.410156" xlink:href="#n"/>
<use x="159.033203" xlink:href="#aa"/>
</g>
</g>
<g clip-path="url(#a)">
<g transform="translate(248.87 540.53) scale(.1 -.1)">
<use xlink:href="#c"/>
<use x="63.623047" xlink:href="#d"/>
<use x="95.410156" xlink:href="#m"/>
<use x="159.033203" xlink:href="#c"/>
</g>
</g>
<g clip-path="url(#a)">
<g transform="translate(286.99 540.53) scale(.1 -.1)">
<use xlink:href="#c"/>
<use x="63.623047" xlink:href="#d"/>
<use x="95.410156" xlink:href="#m"/>
<use x="159.033203" xlink:href="#n"/>
</g>
</g>
<g clip-path="url(#a)">
<g transform="translate(182.16 540.53) scale(.1 -.1)">
<use xlink:href="#c"/>
<use x="63.623047" xlink:href="#d"/>
<use x="95.410156" xlink:href="#m"/>
<use x="159.033203" xlink:href="#m"/>
</g>
</g>
<g clip-path="url(#a)">
<g transform="translate(213.93 540.53) scale(.1 -.1)">
<use xlink:href="#c"/>
<use x="63.623047" xlink:href="#d"/>
<use x="95.410156" xlink:href="#m"/>
<use x="159.033203" xlink:href="#p"/>
</g>
</g>
<g clip-path="url(#a)">
<g transform="translate(48.746 540.53) scale(.1 -.1)">
<use xlink:href="#c"/>
<use x="63.623047" xlink:href="#d"/>
<use x="95.410156" xlink:href="#m"/>
<use x="159.033203" xlink:href="#ak"/>
</g>
</g>
<g clip-path="url(#a)">
<g transform="translate(58.276 540.53) scale(.1 -.1)">
<use xlink:href="#c"/>
<use x="63.623047" xlink:href="#d"/>
<use x="95.410156" xlink:href="#m"/>
<use x="159.033203" xlink:href="#aj"/>
</g>
</g>
<g clip-path="url(#a)">
<g transform="translate(70.982 540.53) scale(.1 -.1)">
<use xlink:href="#c"/>
<use x="63.623047" xlink:href="#d"/>
<use x="95.410156" xlink:href="#m"/>
<use x="159.033203" xlink:href="#ai"/>
</g>
</g>
<g clip-path="url(#a)">
<g transform="translate(86.865 540.53) scale(.1 -.1)">
<use xlink:href="#c"/>
<use x="63.623047" xlink:href="#d"/>
<use x="95.410156" xlink:href="#m"/>
<use x="159.033203" xlink:href="#ah"/>
</g>
</g>
<g clip-path="url(#a)">
<g transform="translate(105.92 540.53) scale(.1 -.1)">
<use xlink:href="#c"/>
<use x="63.623047" xlink:href="#d"/>
<use x="95.410156" xlink:href="#m"/>
<use x="159.033203" xlink:href="#aa"/>
</g>
</g>
<g clip-path="url(#a)">
<g transform="translate(153.57 540.53) scale(.1 -.1)">
<use xlink:href="#c"/>
<use x="63.623047" xlink:href="#d"/>
<use x="95.410156" xlink:href="#p"/>
<use x="159.033203" xlink:href="#al"/>
</g>
</g>
<g clip-path="url(#a)">
<g transform="translate(477.59 540.53) scale(.1 -.1)">
<use xlink:href="#c"/>
<use x="63.623047" xlink:href="#d"/>
<use x="95.410156" xlink:href="#p"/>
<use x="159.033203" xlink:href="#c"/>
</g>
</g>
<g clip-path="url(#a)">
<g transform="translate(922.31 540.53) scale(.1 -.1)">
<use xlink:href="#c"/>
<use x="63.623047" xlink:href="#d"/>
<use x="95.410156" xlink:href="#p"/>
<use x="159.033203" xlink:href="#n"/>
</g>
</g>
<g clip-path="url(#a)">
<g transform="translate(1246.3 540.53) scale(.1 -.1)">
<use xlink:href="#c"/>
<use x="63.623047" xlink:href="#d"/>
<use x="95.410156" xlink:href="#p"/>
<use x="159.033203" xlink:href="#m"/>
</g>
</g>
<defs>
<clipPath id="a">
<rect width="1317.3" height="693.33"/>
</clipPath>
</defs>
</svg>
