<?xml version="1.0" encoding="UTF-8"?>
<!DOCTYPE svg  PUBLIC '-//W3C//DTD SVG 1.1//EN'  'http://www.w3.org/Graphics/SVG/1.1/DTD/svg11.dtd'>
<svg width="810.67pt" height="426.67pt" version="1.1" viewBox="0 0 810.67 426.67" xmlns="http://www.w3.org/2000/svg" xmlns:xlink="http://www.w3.org/1999/xlink">
<metadata>
<rdf:RDF xmlns:cc="http://creativecommons.org/ns#" xmlns:dc="http://purl.org/dc/elements/1.1/" xmlns:rdf="http://www.w3.org/1999/02/22-rdf-syntax-ns#">
<cc:Work>
<dc:type rdf:resource="http://purl.org/dc/dcmitype/StillImage"/>
<dc:date>2021-01-21T01:20:52.897789</dc:date>
<dc:format>image/svg+xml</dc:format>
<dc:creator>
<cc:Agent>
<dc:title>Matplotlib v3.3.3, https://matplotlib.org/</dc:title>
</cc:Agent>
</dc:creator>
</cc:Work>
</rdf:RDF>
</metadata>
<defs>
<style type="text/css">*{stroke-linecap:butt;stroke-linejoin:round;}</style>
</defs>
<path d="m0 426.67h810.67v-426.67h-810.67z" fill="#fff"/>
<g fill="none" stroke="#000">
<path d="m144.75 19.394-107.9 324.38" clip-path="url(#a)"/>
<path d="m144.75 19.394-72.808 260" clip-path="url(#a)"/>
<path d="m144.75 19.394 181.17 65.235" clip-path="url(#a)"/>
<path d="m144.75 19.394-16.977 324.38" clip-path="url(#a)"/>
<path d="m144.75 19.394 16.521 324.38" clip-path="url(#a)"/>
<path d="m36.848 343.77v63.498" clip-path="url(#a)"/>
<path d="m71.942 279.39 27.118 64.382" clip-path="url(#a)"/>
<path d="m71.942 279.39-20.737 64.382" clip-path="url(#a)"/>
<path d="m71.942 279.39-1.5952 64.382" clip-path="url(#a)"/>
<path d="m71.942 279.39 22.332 64.382" clip-path="url(#a)"/>
<path d="m325.92 84.629 447.9 65.104" clip-path="url(#a)"/>
<path d="m325.92 84.629 447.9 65.104" clip-path="url(#a)"/>
<path d="m325.92 84.629v65.104" clip-path="url(#a)"/>
<path d="m325.92 149.73-126.36 194.04" clip-path="url(#a)"/>
<path d="m325.92 149.73 209.65 64.94" clip-path="url(#a)"/>
<path d="m325.92 149.73-83.291 194.04" clip-path="url(#a)"/>
<path d="m199.56 343.77v63.498" clip-path="url(#a)"/>
<path d="m535.57 214.67 238.25 64.719" clip-path="url(#a)"/>
<path d="m535.57 214.67-218.77 64.719" clip-path="url(#a)"/>
<path d="m535.57 214.67-72.808 129.1" clip-path="url(#a)"/>
<path d="m535.57 214.67-5.811 129.1" clip-path="url(#a)"/>
<path d="m535.57 214.67 65.972 129.1" clip-path="url(#a)"/>
<path d="m535.57 214.67-135.02 129.1" clip-path="url(#a)"/>
<path d="m535.57 214.67 142.54 129.1" clip-path="url(#a)"/>
<path d="m535.57 214.67 223.89 129.1" clip-path="url(#a)"/>
<path d="m316.8 279.39-26.32 64.382" clip-path="url(#a)"/>
<path d="m316.8 279.39 26.32 64.382" clip-path="url(#a)"/>
<path d="m462.76 343.77v63.498" clip-path="url(#a)"/>
<path d="m529.76 343.77v63.498" clip-path="url(#a)"/>
<path d="m601.54 343.77v63.498" clip-path="url(#a)"/>
<path d="m290.48 343.77v63.498" clip-path="url(#a)"/>
<path d="m343.12 343.77v63.498" clip-path="url(#a)"/>
<path d="m51.205 343.77v63.498" clip-path="url(#a)"/>
<path d="m70.347 343.77v63.498" clip-path="url(#a)"/>
<path d="m94.275 343.77v63.498" clip-path="url(#a)"/>
<path d="m127.77 343.77v63.498" clip-path="url(#a)"/>
<path d="m161.27 343.77v63.498" clip-path="url(#a)"/>
<path d="m242.63 343.77v63.498" clip-path="url(#a)"/>
<path d="m400.55 343.77v63.498" clip-path="url(#a)"/>
<path d="m678.11 343.77v63.498" clip-path="url(#a)"/>
<path d="m759.46 343.77v63.498" clip-path="url(#a)"/>
</g>
<path d="m96.047 185.68 1.4069-4.2296q0.75753-2.2773-1.5198-3.0348l-7.3467-2.4438q-2.2773-0.75753-3.0348 1.5198l-1.4069 4.2296q-0.75753 2.2773 1.5198 3.0348l7.3467 2.4438q2.2773 0.75753 3.0348-1.5198z" clip-path="url(#a)" fill="#fff" stroke="#fff"/>
<g clip-path="url(#a)">
<g transform="translate(92.191 184.4) rotate(-71.601) scale(.08 -.08)">
<defs>
<path id="u" d="m9.8125 72.906h9.8594v-64.609h35.5v-8.2969h-45.359z"/>
</defs>
<use xlink:href="#u"/>
</g>
</g>
<path d="m113.57 153.98 1.6223-5.7934q0.64718-2.3111-1.6639-2.9583l-7.4557-2.0878q-2.3111-0.64718-2.9583 1.6639l-1.6223 5.7934q-0.64718 2.3111 1.6639 2.9583l7.4557 2.0878q2.3111 0.64718 2.9583-1.6639z" clip-path="url(#a)" fill="#fff" stroke="#fff"/>
<g clip-path="url(#a)">
<g transform="translate(109.66 152.89) rotate(-74.356) scale(.08 -.08)">
<defs>
<path id="ac" d="m9.8125 72.906h9.8594v-29.891h35.844v29.891h9.8594v-72.906h-9.8594v34.719h-35.844v-34.719h-9.8594z"/>
</defs>
<use xlink:href="#ac"/>
</g>
</g>
<path d="m230.38 56.893 5.6605 2.0382q2.2581 0.8131 3.0712-1.445l2.6231-7.2846q0.8131-2.2581-1.445-3.0712l-5.6605-2.0382q-2.2581-0.8131-3.0712 1.445l-2.6231 7.2846q-0.8131 2.2581 1.445 3.0712z" clip-path="url(#a)" fill="#fff" stroke="#fff"/>
<g clip-path="url(#a)">
<g transform="translate(231.76 53.069) rotate(19.803) scale(.08 -.08)">
<use xlink:href="#ac"/>
</g>
</g>
<path d="m142.37 184.84 0.30602-5.847q0.12544-2.3967-2.2713-2.5222l-7.7319-0.40467q-2.3967-0.12544-2.5222 2.2713l-0.30602 5.847q-0.12544 2.3967 2.2713 2.5222l7.7319 0.40467q2.3967 0.12544 2.5222-2.2713z" clip-path="url(#a)" fill="#fff" stroke="#fff"/>
<g clip-path="url(#a)">
<g transform="translate(138.31 184.62) rotate(-87.004) scale(.08 -.08)">
<defs>
<path id="q" d="m8.6875 72.906h9.9219v-44.297q0-11.719 4.2344-16.875 4.25-5.1406 13.781-5.1406 9.4688 0 13.719 5.1406 4.25 5.1562 4.25 16.875v44.297h9.9062v-45.516q0-14.25-7.0625-21.531-7.0469-7.2812-20.812-7.2812-13.828 0-20.891 7.2812-7.0469 7.2812-7.0469 21.531z"/>
</defs>
<use xlink:href="#q"/>
</g>
</g>
<path d="m146.6 178.98 0.29782 5.8474q0.12208 2.3969 2.519 2.2748l7.7325-0.39383q2.3969-0.12208 2.2748-2.519l-0.29782-5.8474q-0.12208-2.3969-2.519-2.2748l-7.7325 0.39383q-2.3969 0.12208-2.2748 2.519z" clip-path="url(#a)" fill="#fff" stroke="#fff"/>
<g clip-path="url(#a)">
<g transform="translate(150.66 178.77) rotate(87.084) scale(.08 -.08)">
<use xlink:href="#q"/>
</g>
</g>
<path d="m30.577 358.62v33.808q0 2.4 2.4 2.4h7.7425q2.4 0 2.4-2.4v-33.808q0-2.4-2.4-2.4h-7.7425q-2.4 0-2.4 2.4z" clip-path="url(#a)" fill="#fff" stroke="#fff"/>
<g clip-path="url(#a)">
<g transform="translate(34.641 358.62) rotate(90) scale(.08 -.08)">
<defs>
<path id="e" d="m-0.29688 72.906h61.672v-8.3125h-25.875v-64.594h-9.9062v64.594h-25.891z"/>
<path id="l" d="m56.203 29.594v-4.3906h-41.312q0.59375-9.2812 5.5938-14.141t13.938-4.8594q5.1719 0 10.031 1.2656t9.6562 3.8125v-8.5q-4.8438-2.0469-9.9219-3.125t-10.297-1.0781q-13.094 0-20.734 7.6094-7.6406 7.625-7.6406 20.625 0 13.422 7.25 21.297 7.25 7.8906 19.562 7.8906 11.031 0 17.453-7.1094 6.4219-7.0938 6.4219-19.297zm-8.9844 2.6406q-0.09375 7.3594-4.125 11.75-4.0312 4.4062-10.672 4.4062-7.5156 0-12.031-4.25t-5.2031-11.969z"/>
<path id="g" d="m41.109 46.297q-1.5156 0.875-3.2969 1.2812-1.7812 0.42188-3.9219 0.42188-7.625 0-11.703-4.9531t-4.0781-14.234v-28.812h-9.0312v54.688h9.0312v-8.5q2.8438 4.9844 7.375 7.3906 4.5469 2.4219 11.047 2.4219 0.92188 0 2.0469-0.125 1.125-0.10938 2.4844-0.35938z"/>
<path id="i" d="m52 44.188q3.375 6.0625 8.0625 8.9375t11.031 2.875q8.5469 0 13.188-5.9844 4.6406-5.9688 4.6406-17v-33.016h-9.0312v32.719q0 7.8594-2.7969 11.656-2.7812 3.8125-8.4844 3.8125-6.9844 0-11.047-4.6406-4.0469-4.625-4.0469-12.641v-30.906h-9.0312v32.719q0 7.9062-2.7812 11.688t-8.5938 3.7812q-6.8906 0-10.953-4.6562-4.0469-4.6562-4.0469-12.625v-30.906h-9.0312v54.688h9.0312v-8.5q3.0781 5.0312 7.375 7.4219t10.203 2.3906q5.9688 0 10.141-3.0312 4.1719-3.0156 6.1719-8.7812z"/>
<path id="k" d="m9.4219 54.688h8.9844v-54.688h-8.9844zm0 21.297h8.9844v-11.391h-8.9844z"/>
<path id="h" d="m54.891 33.016v-33.016h-8.9844v32.719q0 7.7656-3.0312 11.609-3.0312 3.8594-9.0781 3.8594-7.2812 0-11.484-4.6406-4.2031-4.625-4.2031-12.641v-30.906h-9.0312v54.688h9.0312v-8.5q3.2344 4.9375 7.5938 7.375 4.375 2.4375 10.094 2.4375 9.4219 0 14.25-5.8281 4.8438-5.8281 4.8438-17.156z"/>
<path id="f" d="m34.281 27.484q-10.891 0-15.094-2.4844t-4.2031-8.5q0-4.7812 3.1562-7.5938 3.1562-2.7969 8.5625-2.7969 7.4844 0 12 5.2969t4.5156 14.078v2zm17.922 3.7188v-31.203h-8.9844v8.2969q-3.0781-4.9688-7.6719-7.3438t-11.234-2.375q-8.3906 0-13.359 4.7188-4.9531 4.7188-4.9531 12.625 0 9.2188 6.1719 13.906 6.1875 4.6875 18.438 4.6875h12.609v0.89062q0 6.2031-4.0781 9.5938t-11.453 3.3906q-4.6875 0-9.1406-1.125-4.4375-1.125-8.5312-3.375v8.3125q4.9219 1.9062 9.5625 2.8438 4.6406 0.95312 9.0312 0.95312 11.875 0 17.734-6.1562 5.8594-6.1406 5.8594-18.641z"/>
<path id="j" d="m9.4219 75.984h8.9844v-75.984h-8.9844z"/>
</defs>
<use xlink:href="#e"/>
<use x="44.083984" xlink:href="#l"/>
<use x="105.607422" xlink:href="#g"/>
<use x="144.970703" xlink:href="#i"/>
<use x="242.382812" xlink:href="#k"/>
<use x="270.166016" xlink:href="#h"/>
<use x="333.544922" xlink:href="#f"/>
<use x="394.824219" xlink:href="#j"/>
</g>
</g>
<path d="m78.66 311.5 2.1243 5.0434q0.93162 2.2118 3.1434 1.2802l7.1354-3.0055q2.2118-0.93162 1.2802-3.1434l-2.1243-5.0434q-0.93162-2.2118-3.1434-1.2802l-7.1354 3.0055q-2.2118 0.93162-1.2802 3.1434z" clip-path="url(#a)" fill="#fff" stroke="#fff"/>
<g clip-path="url(#a)">
<g transform="translate(82.405 309.92) rotate(67.159) scale(.08 -.08)">
<defs>
<path id="v" d="m34.188 63.188-13.391-36.281h26.812zm-5.5781 9.7188h11.188l27.781-72.906h-10.25l-6.6406 18.703h-32.859l-6.6406-18.703h-10.406z"/>
</defs>
<use xlink:href="#v"/>
</g>
</g>
<path d="m66.599 316.44 1.8886-5.8634q0.73581-2.2844-1.5486-3.0202l-7.3696-2.3737q-2.2844-0.73581-3.0202 1.5486l-1.8886 5.8634q-0.73581 2.2844 1.5486 3.0202l7.3696 2.3737q2.2844 0.73581 3.0202-1.5486z" clip-path="url(#a)" fill="#fff" stroke="#fff"/>
<g clip-path="url(#a)">
<g transform="translate(62.731 315.19) rotate(-72.146) scale(.08 -.08)">
<defs>
<path id="z" d="m19.672 64.797v-56.688h11.922q15.094 0 22.094 6.8281 7 6.8438 7 21.594 0 14.641-7 21.453t-22.094 6.8125zm-9.8594 8.1094h20.266q21.188 0 31.094-8.8125 9.9219-8.8125 9.9219-27.562 0-18.859-9.9688-27.703-9.9531-8.8281-31.047-8.8281h-20.266z"/>
</defs>
<use xlink:href="#z"/>
</g>
</g>
<path d="m77.338 314.82 0.15258-6.1581q0.059446-2.3993-2.3398-2.4587l-7.7401-0.19178q-2.3993-0.059446-2.4587 2.3398l-0.15258 6.1581q-0.059446 2.3993 2.3398 2.4587l7.7401 0.19178q2.3993 0.059446 2.4587-2.3398z" clip-path="url(#a)" fill="#fff" stroke="#fff"/>
<g clip-path="url(#a)">
<g transform="translate(73.275 314.72) rotate(-88.581) scale(.08 -.08)">
<use xlink:href="#z"/>
</g>
</g>
<path d="m76.351 311.24 1.6644 4.7983q0.78652 2.2675 3.054 1.4809l7.3149-2.5374q2.2675-0.78652 1.4809-3.054l-1.6644-4.7983q-0.78652-2.2675-3.054-1.4809l-7.3149 2.5374q-2.2675 0.78652-1.4809 3.054z" clip-path="url(#a)" fill="#fff" stroke="#fff"/>
<g clip-path="url(#a)">
<g transform="translate(80.191 309.91) rotate(70.87) scale(.08 -.08)">
<defs>
<path id="aq" d="m53.516 70.516v-9.625q-5.6094 2.6875-10.594 4-4.9844 1.3281-9.625 1.3281-8.0469 0-12.422-3.125t-4.375-8.8906q0-4.8438 2.9062-7.3125 2.9062-2.4531 11.016-3.9688l5.9531-1.2188q11.031-2.1094 16.281-7.4062t5.25-14.172q0-10.609-7.1094-16.078-7.0938-5.4688-20.812-5.4688-5.1719 0-11.016 1.1719-5.8281 1.1719-12.078 3.4688v10.156q6-3.3594 11.766-5.0781 5.7656-1.7031 11.328-1.7031 8.4375 0 13.031 3.3125 4.5938 3.3281 4.5938 9.4844 0 5.3594-3.2969 8.3906t-10.812 4.5469l-6.0156 1.1719q-11.031 2.1875-15.969 6.875-4.9219 4.6875-4.9219 13.047 0 9.6719 6.8125 15.234t18.766 5.5625q5.1406 0 10.453-0.9375 5.3281-0.92188 10.891-2.7656z"/>
</defs>
<use xlink:href="#aq"/>
</g>
</g>
<path d="m546.26 122.99 5.4156 0.78718q2.375 0.34522 2.7203-2.0298l1.1137-7.662q0.34522-2.375-2.0298-2.7203l-5.4156-0.78717q-2.375-0.34522-2.7203 2.0298l-1.1137 7.662q-0.34522 2.375 2.0298 2.7203z" clip-path="url(#a)" fill="#fff" stroke="#fff"/>
<g clip-path="url(#a)">
<g transform="translate(546.84 118.97) rotate(8.2702) scale(.08 -.08)">
<use xlink:href="#v"/>
</g>
</g>
<path d="m546.58 123.04 4.7736 0.69386q2.375 0.34522 2.7203-2.0298l1.1137-7.662q0.34522-2.375-2.0298-2.7203l-4.7736-0.69386q-2.375-0.34522-2.7203 2.0298l-1.1137 7.662q-0.34522 2.375 2.0298 2.7203z" clip-path="url(#a)" fill="#fff" stroke="#fff"/>
<g clip-path="url(#a)">
<g transform="translate(547.16 119.02) rotate(8.2702) scale(.08 -.08)">
<defs>
<path id="o" d="m19.672 64.797v-27.391h12.406q6.8906 0 10.641 3.5625 3.7656 3.5625 3.7656 10.156 0 6.5469-3.7656 10.109-3.75 3.5625-10.641 3.5625zm-9.8594 8.1094h22.266q12.266 0 18.531-5.5469 6.2812-5.5469 6.2812-16.234 0-10.797-6.2812-16.312-6.2656-5.5156-18.531-5.5156h-12.406v-29.297h-9.8594z"/>
</defs>
<use xlink:href="#o"/>
</g>
</g>
<path d="m319.65 114.44v5.4725q0 2.4 2.4 2.4h7.7425q2.4 0 2.4-2.4v-5.4725q0-2.4-2.4-2.4h-7.7425q-2.4 0-2.4 2.4z" clip-path="url(#a)" fill="#fff" stroke="#fff"/>
<g clip-path="url(#a)">
<g transform="translate(323.71 114.44) rotate(90) scale(.08 -.08)">
<use xlink:href="#v"/>
</g>
</g>
<path d="m266.68 252.2 2.6323-4.0422q1.3097-2.0112-0.70148-3.3208l-6.4881-4.2251q-2.0112-1.3097-3.3208 0.70148l-2.6323 4.0422q-1.3097 2.0112 0.70148 3.3208l6.4881 4.2251q2.0112 1.3097 3.3208-0.70148z" clip-path="url(#a)" fill="#fff" stroke="#fff"/>
<g clip-path="url(#a)">
<g transform="translate(263.27 249.98) rotate(-56.928) scale(.08 -.08)">
<use xlink:href="#o"/>
</g>
</g>
<path d="m426.27 187.38 5.2275 1.6192q2.2925 0.71012 3.0027-1.5824l2.2909-7.3958q0.71012-2.2925-1.5824-3.0027l-5.2275-1.6192q-2.2925-0.71012-3.0027 1.5824l-2.2909 7.3958q-0.71012 2.2925 1.5824 3.0027z" clip-path="url(#a)" fill="#fff" stroke="#fff"/>
<g clip-path="url(#a)">
<g transform="translate(427.48 183.5) rotate(17.21) scale(.08 -.08)">
<use xlink:href="#v"/>
</g>
</g>
<path d="m288.88 251.92 2.3094-5.3803q0.94666-2.2054-1.2588-3.1521l-7.1147-3.054q-2.2054-0.94666-3.1521 1.2588l-2.3095 5.3803q-0.94666 2.2054 1.2588 3.1521l7.1147 3.054q2.2054 0.94666 3.1521-1.2588z" clip-path="url(#a)" fill="#fff" stroke="#fff"/>
<g clip-path="url(#a)">
<g transform="translate(285.14 250.31) rotate(-66.769) scale(.08 -.08)">
<use xlink:href="#q"/>
</g>
</g>
<path d="m193.28 358.62v33.808q0 2.4 2.4 2.4h7.7425q2.4 0 2.4-2.4v-33.808q0-2.4-2.4-2.4h-7.7425q-2.4 0-2.4 2.4z" clip-path="url(#a)" fill="#fff" stroke="#fff"/>
<g clip-path="url(#a)">
<g transform="translate(197.35 358.62) rotate(90) scale(.08 -.08)">
<use xlink:href="#e"/>
<use x="44.083984" xlink:href="#l"/>
<use x="105.607422" xlink:href="#g"/>
<use x="144.970703" xlink:href="#i"/>
<use x="242.382812" xlink:href="#k"/>
<use x="270.166016" xlink:href="#h"/>
<use x="333.544922" xlink:href="#f"/>
<use x="394.824219" xlink:href="#j"/>
</g>
</g>
<path d="m650.41 252.37 5.2811 1.4346q2.3161 0.62915 2.9452-1.6869l2.0297-7.4717q0.62915-2.3161-1.6869-2.9452l-5.2811-1.4346q-2.3161-0.62915-2.9452 1.6869l-2.0297 7.4717q-0.62915 2.3161 1.6869 2.9452z" clip-path="url(#a)" fill="#fff" stroke="#fff"/>
<g clip-path="url(#a)">
<g transform="translate(651.47 248.45) rotate(15.197) scale(.08 -.08)">
<use xlink:href="#v"/>
</g>
</g>
<path d="m425.62 253.74 4.6855-1.3862q2.3014-0.68084 1.6206-2.9822l-2.1964-7.4244q-0.68084-2.3014-2.9822-1.6206l-4.6855 1.3862q-2.3014 0.68084-1.6206 2.9822l2.1964 7.4244q0.68084 2.3014 2.9822 1.6206z" clip-path="url(#a)" fill="#fff" stroke="#fff"/>
<g clip-path="url(#a)">
<g transform="translate(424.47 249.84) rotate(-16.48) scale(.08 -.08)">
<use xlink:href="#e"/>
</g>
</g>
<path d="m503.1 285 3.045-5.3993q1.1789-2.0905-0.91153-3.2694l-6.744-3.8033q-2.0905-1.1789-3.2694 0.91152l-3.045 5.3993q-1.1789 2.0905 0.91153 3.2694l6.744 3.8033q2.0905 1.1789 3.2694-0.91152z" clip-path="url(#a)" fill="#fff" stroke="#fff"/>
<g clip-path="url(#a)">
<g transform="translate(499.56 283.01) rotate(-60.579) scale(.08 -.08)">
<defs>
<path id="ar" d="m59.516 10.406v19.578h-16.109v8.1094h25.875v-31.312q-5.7031-4.0469-12.594-6.125-6.875-2.0781-14.688-2.0781-17.094 0-26.75 9.9844-9.6406 10-9.6406 27.812 0 17.875 9.6406 27.859 9.6562 9.9844 26.75 9.9844 7.125 0 13.547-1.7656 6.4219-1.75 11.844-5.1719v-10.5q-5.4688 4.6406-11.625 6.9844t-12.938 2.3438q-13.391 0-20.109-7.4688-6.7031-7.4688-6.7031-22.266 0-14.75 6.7031-22.219 6.7188-7.4688 20.109-7.4688 5.2188 0 9.3125 0.90625 4.1094 0.90625 7.375 2.8125z"/>
</defs>
<use xlink:href="#ar"/>
</g>
</g>
<path d="m538.79 282.58 0.27699-6.1538q0.10792-2.3976-2.2897-2.5055l-7.7347-0.34815q-2.3976-0.10792-2.5055 2.2897l-0.27699 6.1538q-0.10792 2.3976 2.2897 2.5055l7.7347 0.34815q2.3976 0.10792 2.5055-2.2897z" clip-path="url(#a)" fill="#fff" stroke="#fff"/>
<g clip-path="url(#a)">
<g transform="translate(534.73 282.4) rotate(-87.423) scale(.08 -.08)">
<use xlink:href="#z"/>
</g>
</g>
<path d="m561.87 279.93 2.195 4.2954q1.0921 2.1371 3.2292 1.045l6.8945-3.5231q2.1371-1.0921 1.045-3.2292l-2.195-4.2954q-1.0921-2.1371-3.2292-1.045l-6.8945 3.5231q-2.1371 1.0921-1.045 3.2292z" clip-path="url(#a)" fill="#fff" stroke="#fff"/>
<g clip-path="url(#a)">
<g transform="translate(565.49 278.08) rotate(62.933) scale(.08 -.08)">
<use xlink:href="#o"/>
</g>
</g>
<path d="m470.28 285.78 4.2318-4.0463q1.7346-1.6586 0.076039-3.3933l-5.3507-5.5961q-1.6586-1.7346-3.3933-0.07604l-4.2318 4.0463q-1.7346 1.6586-0.076039 3.3933l5.3507 5.5961q1.6586 1.7346 3.3933 0.07604z" clip-path="url(#a)" fill="#fff" stroke="#fff"/>
<g clip-path="url(#a)">
<g transform="translate(467.47 282.84) rotate(-43.716) scale(.08 -.08)">
<use xlink:href="#q"/>
</g>
</g>
<path d="m600.46 281.91 4.3396 3.9305q1.7788 1.6111 3.39-0.16771l5.1976-5.7386q1.6111-1.7788-0.16771-3.39l-4.3396-3.9305q-1.7788-1.6111-3.39 0.16771l-5.1976 5.7386q-1.6111 1.7788 0.16771 3.39z" clip-path="url(#a)" fill="#fff" stroke="#fff"/>
<g clip-path="url(#a)">
<g transform="translate(603.19 278.89) rotate(42.168) scale(.08 -.08)">
<use xlink:href="#q"/>
</g>
</g>
<path d="m641.85 283.19 5.0722 2.9247q2.0791 1.1989 3.278-0.88026l3.8676-6.7073q1.1989-2.0791-0.88026-3.278l-5.0722-2.9247q-2.0791-1.1989-3.278 0.88026l-3.8676 6.7073q-1.1989 2.0791 0.88026 3.278z" clip-path="url(#a)" fill="#fff" stroke="#fff"/>
<g clip-path="url(#a)">
<g transform="translate(643.88 279.67) rotate(29.969) scale(.08 -.08)">
<use xlink:href="#q"/>
</g>
</g>
<path d="m308.39 316.54 2.1139-5.1708q0.9082-2.2215-1.3133-3.1297l-7.1667-2.9299q-2.2215-0.9082-3.1297 1.3133l-2.1139 5.1708q-0.9082 2.2215 1.3133 3.1297l7.1667 2.9299q2.2215 0.9082 3.1297-1.3133z" clip-path="url(#a)" fill="#fff" stroke="#fff"/>
<g clip-path="url(#a)">
<g transform="translate(304.63 315) rotate(-67.764) scale(.08 -.08)">
<defs>
<path id="r" d="m64.406 67.281v-10.391q-4.9844 4.6406-10.625 6.9219-5.6406 2.2969-11.984 2.2969-12.5 0-19.141-7.6406t-6.6406-22.094q0-14.406 6.6406-22.047t19.141-7.6406q6.3438 0 11.984 2.2969t10.625 6.9375v-10.312q-5.1719-3.5156-10.969-5.2812-5.7812-1.75-12.219-1.75-16.562 0-26.094 10.125-9.5156 10.141-9.5156 27.672 0 17.578 9.5156 27.703 9.5312 10.141 26.094 10.141 6.5312 0 12.312-1.7344 5.7969-1.7344 10.875-5.2031z"/>
</defs>
<use xlink:href="#r"/>
</g>
</g>
<path d="m323.1 311.37 2.1139 5.1708q0.9082 2.2215 3.1297 1.3133l7.1667-2.9299q2.2215-0.9082 1.3133-3.1297l-2.1139-5.1708q-0.9082-2.2215-3.1297-1.3133l-7.1667 2.9299q-2.2215 0.9082-1.3133 3.1297z" clip-path="url(#a)" fill="#fff" stroke="#fff"/>
<g clip-path="url(#a)">
<g transform="translate(326.86 309.83) rotate(67.764) scale(.08 -.08)">
<use xlink:href="#r"/>
</g>
</g>
<path d="m456.49 358.62v33.808q0 2.4 2.4 2.4h7.7425q2.4 0 2.4-2.4v-33.808q0-2.4-2.4-2.4h-7.7425q-2.4 0-2.4 2.4z" clip-path="url(#a)" fill="#fff" stroke="#fff"/>
<g clip-path="url(#a)">
<g transform="translate(460.55 358.62) rotate(90) scale(.08 -.08)">
<use xlink:href="#e"/>
<use x="44.083984" xlink:href="#l"/>
<use x="105.607422" xlink:href="#g"/>
<use x="144.970703" xlink:href="#i"/>
<use x="242.382812" xlink:href="#k"/>
<use x="270.166016" xlink:href="#h"/>
<use x="333.544922" xlink:href="#f"/>
<use x="394.824219" xlink:href="#j"/>
</g>
</g>
<path d="m523.49 358.62v33.808q0 2.4 2.4 2.4h7.7425q2.4 0 2.4-2.4v-33.808q0-2.4-2.4-2.4h-7.7425q-2.4 0-2.4 2.4z" clip-path="url(#a)" fill="#fff" stroke="#fff"/>
<g clip-path="url(#a)">
<g transform="translate(527.55 358.62) rotate(90) scale(.08 -.08)">
<use xlink:href="#e"/>
<use x="44.083984" xlink:href="#l"/>
<use x="105.607422" xlink:href="#g"/>
<use x="144.970703" xlink:href="#i"/>
<use x="242.382812" xlink:href="#k"/>
<use x="270.166016" xlink:href="#h"/>
<use x="333.544922" xlink:href="#f"/>
<use x="394.824219" xlink:href="#j"/>
</g>
</g>
<path d="m595.27 358.62v33.808q0 2.4 2.4 2.4h7.7425q2.4 0 2.4-2.4v-33.808q0-2.4-2.4-2.4h-7.7425q-2.4 0-2.4 2.4z" clip-path="url(#a)" fill="#fff" stroke="#fff"/>
<g clip-path="url(#a)">
<g transform="translate(599.33 358.62) rotate(90) scale(.08 -.08)">
<use xlink:href="#e"/>
<use x="44.083984" xlink:href="#l"/>
<use x="105.607422" xlink:href="#g"/>
<use x="144.970703" xlink:href="#i"/>
<use x="242.382812" xlink:href="#k"/>
<use x="270.166016" xlink:href="#h"/>
<use x="333.544922" xlink:href="#f"/>
<use x="394.824219" xlink:href="#j"/>
</g>
</g>
<path d="m284.21 358.62v33.808q0 2.4 2.4 2.4h7.7425q2.4 0 2.4-2.4v-33.808q0-2.4-2.4-2.4h-7.7425q-2.4 0-2.4 2.4z" clip-path="url(#a)" fill="#fff" stroke="#fff"/>
<g clip-path="url(#a)">
<g transform="translate(288.27 358.62) rotate(90) scale(.08 -.08)">
<use xlink:href="#e"/>
<use x="44.083984" xlink:href="#l"/>
<use x="105.607422" xlink:href="#g"/>
<use x="144.970703" xlink:href="#i"/>
<use x="242.382812" xlink:href="#k"/>
<use x="270.166016" xlink:href="#h"/>
<use x="333.544922" xlink:href="#f"/>
<use x="394.824219" xlink:href="#j"/>
</g>
</g>
<path d="m336.85 358.62v33.808q0 2.4 2.4 2.4h7.7425q2.4 0 2.4-2.4v-33.808q0-2.4-2.4-2.4h-7.7425q-2.4 0-2.4 2.4z" clip-path="url(#a)" fill="#fff" stroke="#fff"/>
<g clip-path="url(#a)">
<g transform="translate(340.91 358.62) rotate(90) scale(.08 -.08)">
<use xlink:href="#e"/>
<use x="44.083984" xlink:href="#l"/>
<use x="105.607422" xlink:href="#g"/>
<use x="144.970703" xlink:href="#i"/>
<use x="242.382812" xlink:href="#k"/>
<use x="270.166016" xlink:href="#h"/>
<use x="333.544922" xlink:href="#f"/>
<use x="394.824219" xlink:href="#j"/>
</g>
</g>
<path d="m44.934 358.62v33.808q0 2.4 2.4 2.4h7.7425q2.4 0 2.4-2.4v-33.808q0-2.4-2.4-2.4h-7.7425q-2.4 0-2.4 2.4z" clip-path="url(#a)" fill="#fff" stroke="#fff"/>
<g clip-path="url(#a)">
<g transform="translate(48.998 358.62) rotate(90) scale(.08 -.08)">
<use xlink:href="#e"/>
<use x="44.083984" xlink:href="#l"/>
<use x="105.607422" xlink:href="#g"/>
<use x="144.970703" xlink:href="#i"/>
<use x="242.382812" xlink:href="#k"/>
<use x="270.166016" xlink:href="#h"/>
<use x="333.544922" xlink:href="#f"/>
<use x="394.824219" xlink:href="#j"/>
</g>
</g>
<path d="m64.076 358.62v33.808q0 2.4 2.4 2.4h7.7425q2.4 0 2.4-2.4v-33.808q0-2.4-2.4-2.4h-7.7425q-2.4 0-2.4 2.4z" clip-path="url(#a)" fill="#fff" stroke="#fff"/>
<g clip-path="url(#a)">
<g transform="translate(68.14 358.62) rotate(90) scale(.08 -.08)">
<use xlink:href="#e"/>
<use x="44.083984" xlink:href="#l"/>
<use x="105.607422" xlink:href="#g"/>
<use x="144.970703" xlink:href="#i"/>
<use x="242.382812" xlink:href="#k"/>
<use x="270.166016" xlink:href="#h"/>
<use x="333.544922" xlink:href="#f"/>
<use x="394.824219" xlink:href="#j"/>
</g>
</g>
<path d="m88.003 358.62v33.808q0 2.4 2.4 2.4h7.7425q2.4 0 2.4-2.4v-33.808q0-2.4-2.4-2.4h-7.7425q-2.4 0-2.4 2.4z" clip-path="url(#a)" fill="#fff" stroke="#fff"/>
<g clip-path="url(#a)">
<g transform="translate(92.067 358.62) rotate(90) scale(.08 -.08)">
<use xlink:href="#e"/>
<use x="44.083984" xlink:href="#l"/>
<use x="105.607422" xlink:href="#g"/>
<use x="144.970703" xlink:href="#i"/>
<use x="242.382812" xlink:href="#k"/>
<use x="270.166016" xlink:href="#h"/>
<use x="333.544922" xlink:href="#f"/>
<use x="394.824219" xlink:href="#j"/>
</g>
</g>
<path d="m121.5 358.62v33.808q0 2.4 2.4 2.4h7.7425q2.4 0 2.4-2.4v-33.808q0-2.4-2.4-2.4h-7.7425q-2.4 0-2.4 2.4z" clip-path="url(#a)" fill="#fff" stroke="#fff"/>
<g clip-path="url(#a)">
<g transform="translate(125.57 358.62) rotate(90) scale(.08 -.08)">
<use xlink:href="#e"/>
<use x="44.083984" xlink:href="#l"/>
<use x="105.607422" xlink:href="#g"/>
<use x="144.970703" xlink:href="#i"/>
<use x="242.382812" xlink:href="#k"/>
<use x="270.166016" xlink:href="#h"/>
<use x="333.544922" xlink:href="#f"/>
<use x="394.824219" xlink:href="#j"/>
</g>
</g>
<path d="m155 358.62v33.808q0 2.4 2.4 2.4h7.7425q2.4 0 2.4-2.4v-33.808q0-2.4-2.4-2.4h-7.7425q-2.4 0-2.4 2.4z" clip-path="url(#a)" fill="#fff" stroke="#fff"/>
<g clip-path="url(#a)">
<g transform="translate(159.06 358.62) rotate(90) scale(.08 -.08)">
<use xlink:href="#e"/>
<use x="44.083984" xlink:href="#l"/>
<use x="105.607422" xlink:href="#g"/>
<use x="144.970703" xlink:href="#i"/>
<use x="242.382812" xlink:href="#k"/>
<use x="270.166016" xlink:href="#h"/>
<use x="333.544922" xlink:href="#f"/>
<use x="394.824219" xlink:href="#j"/>
</g>
</g>
<path d="m236.35 358.62v33.808q0 2.4 2.4 2.4h7.7425q2.4 0 2.4-2.4v-33.808q0-2.4-2.4-2.4h-7.7425q-2.4 0-2.4 2.4z" clip-path="url(#a)" fill="#fff" stroke="#fff"/>
<g clip-path="url(#a)">
<g transform="translate(240.42 358.62) rotate(90) scale(.08 -.08)">
<use xlink:href="#e"/>
<use x="44.083984" xlink:href="#l"/>
<use x="105.607422" xlink:href="#g"/>
<use x="144.970703" xlink:href="#i"/>
<use x="242.382812" xlink:href="#k"/>
<use x="270.166016" xlink:href="#h"/>
<use x="333.544922" xlink:href="#f"/>
<use x="394.824219" xlink:href="#j"/>
</g>
</g>
<path d="m394.28 358.62v33.808q0 2.4 2.4 2.4h7.7425q2.4 0 2.4-2.4v-33.808q0-2.4-2.4-2.4h-7.7425q-2.4 0-2.4 2.4z" clip-path="url(#a)" fill="#fff" stroke="#fff"/>
<g clip-path="url(#a)">
<g transform="translate(398.34 358.62) rotate(90) scale(.08 -.08)">
<use xlink:href="#e"/>
<use x="44.083984" xlink:href="#l"/>
<use x="105.607422" xlink:href="#g"/>
<use x="144.970703" xlink:href="#i"/>
<use x="242.382812" xlink:href="#k"/>
<use x="270.166016" xlink:href="#h"/>
<use x="333.544922" xlink:href="#f"/>
<use x="394.824219" xlink:href="#j"/>
</g>
</g>
<path d="m671.84 358.62v33.808q0 2.4 2.4 2.4h7.7425q2.4 0 2.4-2.4v-33.808q0-2.4-2.4-2.4h-7.7425q-2.4 0-2.4 2.4z" clip-path="url(#a)" fill="#fff" stroke="#fff"/>
<g clip-path="url(#a)">
<g transform="translate(675.9 358.62) rotate(90) scale(.08 -.08)">
<use xlink:href="#e"/>
<use x="44.083984" xlink:href="#l"/>
<use x="105.607422" xlink:href="#g"/>
<use x="144.970703" xlink:href="#i"/>
<use x="242.382812" xlink:href="#k"/>
<use x="270.166016" xlink:href="#h"/>
<use x="333.544922" xlink:href="#f"/>
<use x="394.824219" xlink:href="#j"/>
</g>
</g>
<path d="m753.19 358.62v33.808q0 2.4 2.4 2.4h7.7425q2.4 0 2.4-2.4v-33.808q0-2.4-2.4-2.4h-7.7425q-2.4 0-2.4 2.4z" clip-path="url(#a)" fill="#fff" stroke="#fff"/>
<g clip-path="url(#a)">
<g transform="translate(757.25 358.62) rotate(90) scale(.08 -.08)">
<use xlink:href="#e"/>
<use x="44.083984" xlink:href="#l"/>
<use x="105.607422" xlink:href="#g"/>
<use x="144.970703" xlink:href="#i"/>
<use x="242.382812" xlink:href="#k"/>
<use x="270.166016" xlink:href="#h"/>
<use x="333.544922" xlink:href="#f"/>
<use x="394.824219" xlink:href="#j"/>
</g>
</g>
<defs>
<path id="b" d="m0 8.6603c2.2967 0 4.4997-0.9125 6.1237-2.5365 1.624-1.624 2.5365-3.827 2.5365-6.1237s-0.9125-4.4997-2.5365-6.1237c-1.624-1.624-3.827-2.5365-6.1237-2.5365s-4.4997 0.9125-6.1237 2.5365c-1.624 1.624-2.5365 3.827-2.5365 6.1237s0.9125 4.4997 2.5365 6.1237c1.624 1.624 3.827 2.5365 6.1237 2.5365z"/>
</defs>
<g clip-path="url(#a)" fill="#ffffff" stroke="#ffffff">
<use x="36.848485" y="407.272727" xlink:href="#b"/>
<use x="51.205037" y="407.272727" xlink:href="#b"/>
<use x="70.347107" y="407.272727" xlink:href="#b"/>
<use x="94.274695" y="407.272727" xlink:href="#b"/>
<use x="127.773318" y="407.272727" xlink:href="#b"/>
<use x="161.27194" y="407.272727" xlink:href="#b"/>
<use x="199.55608" y="407.272727" xlink:href="#b"/>
<use x="242.625738" y="407.272727" xlink:href="#b"/>
<use x="290.480913" y="407.272727" xlink:href="#b"/>
<use x="343.121606" y="407.272727" xlink:href="#b"/>
<use x="400.547816" y="407.272727" xlink:href="#b"/>
<use x="462.759543" y="407.272727" xlink:href="#b"/>
<use x="529.756789" y="407.272727" xlink:href="#b"/>
<use x="601.539551" y="407.272727" xlink:href="#b"/>
<use x="678.107832" y="407.272727" xlink:href="#b"/>
<use x="759.461629" y="407.272727" xlink:href="#b"/>
<use x="773.818182" y="149.733221" xlink:href="#b"/>
<use x="773.818182" y="149.733221" xlink:href="#b"/>
<use x="773.818182" y="279.392452" xlink:href="#b"/>
<use x="99.060213" y="343.774256" xlink:href="#b"/>
<use x="144.750511" y="19.393939" xlink:href="#b"/>
<use x="36.848485" y="343.774256" xlink:href="#b"/>
<use x="71.94228" y="279.392452" xlink:href="#b"/>
<use x="325.916531" y="84.629189" xlink:href="#b"/>
<use x="325.916531" y="149.733221" xlink:href="#b"/>
<use x="199.55608" y="343.774256" xlink:href="#b"/>
<use x="535.567774" y="214.672971" xlink:href="#b"/>
<use x="316.801259" y="279.392452" xlink:href="#b"/>
<use x="462.759543" y="343.774256" xlink:href="#b"/>
<use x="529.756789" y="343.774256" xlink:href="#b"/>
<use x="601.539551" y="343.774256" xlink:href="#b"/>
<use x="290.480913" y="343.774256" xlink:href="#b"/>
<use x="343.121606" y="343.774256" xlink:href="#b"/>
<use x="51.205037" y="343.774256" xlink:href="#b"/>
<use x="70.347107" y="343.774256" xlink:href="#b"/>
<use x="94.274695" y="343.774256" xlink:href="#b"/>
<use x="127.773318" y="343.774256" xlink:href="#b"/>
<use x="161.27194" y="343.774256" xlink:href="#b"/>
<use x="242.625738" y="343.774256" xlink:href="#b"/>
<use x="400.547816" y="343.774256" xlink:href="#b"/>
<use x="678.107832" y="343.774256" xlink:href="#b"/>
<use x="759.461629" y="343.774256" xlink:href="#b"/>
</g>
<g clip-path="url(#a)">
<g transform="translate(20.285 410.03) scale(.1 -.1)">
<defs>
<path id="be" d="m65.375 72.906v-72.906h-9.8594v64.594h-35.844v-64.594h-9.8594v72.906z"/>
<path id="s" d="m30.609 48.391q-7.2188 0-11.422-5.6406t-4.2031-15.453 4.1719-15.453q4.1875-5.6406 11.453-5.6406 7.1875 0 11.375 5.6562 4.2031 5.6719 4.2031 15.438 0 9.7188-4.2031 15.406-4.1875 5.6875-11.375 5.6875zm0 7.6094q11.719 0 18.406-7.625 6.7031-7.6094 6.7031-21.078 0-13.422-6.7031-21.078-6.6875-7.6406-18.406-7.6406-11.766 0-18.438 7.6406-6.6562 7.6562-6.6562 21.078 0 13.469 6.6562 21.078 6.6719 7.625 18.438 7.625z"/>
<path id="al" d="m2.9375 54.688h52.391v-7.1719h-21.781v-47.516h-8.8438v47.516h-21.766z"/>
<path id="ba" d="m9.0781 54.688h13.141l15.531-36.625 15.578 36.625h13.031v-54.688h-9.0312v46.094l-15.094-35.594h-8.9844l-15.141 35.594v-46.094h-9.0312z"/>
</defs>
<use xlink:href="#be"/>
<use x="75.195312" xlink:href="#s"/>
<use x="136.376953" xlink:href="#al"/>
<use x="194.628906" xlink:href="#s"/>
<use x="255.810547" xlink:href="#ba"/>
</g>
</g>
<g clip-path="url(#a)">
<g transform="translate(36.117 410.03) scale(.1 -.1)">
<defs>
<path id="y" d="m48.781 52.594v-8.4062q-3.8125 2.1094-7.6406 3.1562t-7.7344 1.0469q-8.75 0-13.594-5.5469-4.8281-5.5312-4.8281-15.547t4.8281-15.562q4.8438-5.5312 13.594-5.5312 3.9062 0 7.7344 1.0469t7.6406 3.1562v-8.3125q-3.7656-1.75-7.7969-2.625-4.0156-0.89062-8.5625-0.89062-12.359 0-19.641 7.7656-7.2656 7.7656-7.2656 20.953 0 13.375 7.3438 21.031 7.3594 7.6719 20.156 7.6719 4.1406 0 8.0938-0.85938 3.9531-0.84375 7.6719-2.5469z"/>
<path id="t" d="m9.0781 54.688h9.0312v-22.312h29.156v22.312h9.0312v-54.688h-9.0312v25.203h-29.156v-25.203h-9.0312z"/>
<path id="bd" d="m18.062 25.203v-18.031h12.797q6.1562 0 9.375 2.3125 3.2188 2.3281 3.2188 6.7344 0 4.3906-3.2188 6.6875t-9.375 2.2969zm0 22.312v-15.141h11.828q5.0781 0 8.2969 2.0156 3.2188 2.0312 3.2188 5.6562 0 3.6094-3.2188 5.5312-3.2188 1.9375-8.2969 1.9375zm-8.9844 7.1719h21.391q9.625 0 14.797-3.5156t5.1719-10.016q0-5.0156-2.6406-7.9844-2.625-2.9531-7.8125-3.6719 6.2031-1.1719 9.625-4.8906 3.4219-3.7031 3.4219-9.2812 0-7.3125-5.6406-11.328-5.6406-4-16.094-4h-22.219z"/>
<path id="ab" d="m34.281 27.484q-10.891 0-15.094-2.4844t-4.2031-8.5q0-4.7812 3.1562-7.5938 3.1562-2.7969 8.5625-2.7969 7.4844 0 12 5.2969t4.5156 14.078v2zm17.922 3.7188v-31.203h-8.9844v8.2969q-3.0781-4.9688-7.6719-7.3438t-11.234-2.375q-8.3906 0-13.359 4.7188-4.9531 4.7188-4.9531 12.625 0 9.2188 6.1719 13.906 6.1875 4.6875 18.438 4.6875h12.609v0.89062q0 6.2031-4.0781 9.5938t-11.453 3.3906q-4.6875 0-9.1406-1.125-4.4375-1.125-8.5312-3.375v8.3125q4.9219 1.9062 9.5625 2.8438 4.6406 0.95312 9.0312 0.95312 11.875 0 17.734-6.1562 5.8594-6.1406 5.8594-18.641z"/>
</defs>
<use xlink:href="#y"/>
<use x="54.980469" xlink:href="#t"/>
<use x="120.361328" xlink:href="#s"/>
<use x="181.542969" xlink:href="#bd"/>
<use x="240.478516" xlink:href="#ab"/>
</g>
</g>
<g clip-path="url(#a)">
<g transform="translate(58.425 410.03) scale(.1 -.1)">
<defs>
<path id="an" d="m3.7188 0v7.4688q8.875 1.375 11.609 7.5156 3.3281 8.6562 3.3281 30.766v8.9375h36.953v-54.688h-8.9844v47.516h-18.984v-5.4219q0-21.094-4.2969-30.562-4.5938-10.109-19.625-11.531z"/>
</defs>
<use xlink:href="#y"/>
<use x="54.980469" xlink:href="#al"/>
<use x="113.232422" xlink:href="#ab"/>
<use x="174.511719" xlink:href="#an"/>
</g>
</g>
<g clip-path="url(#a)">
<g transform="translate(70.247 410.03) scale(.1 -.1)">
<defs>
<path id="p" d="m56.203 29.594v-4.3906h-41.312q0.59375-9.2812 5.5938-14.141t13.938-4.8594q5.1719 0 10.031 1.2656t9.6562 3.8125v-8.5q-4.8438-2.0469-9.9219-3.125t-10.297-1.0781q-13.094 0-20.734 7.6094-7.6406 7.625-7.6406 20.625 0 13.422 7.25 21.297 7.25 7.8906 19.562 7.8906 11.031 0 17.453-7.1094 6.4219-7.0938 6.4219-19.297zm-8.9844 2.6406q-0.09375 7.3594-4.125 11.75-4.0312 4.4062-10.672 4.4062-7.5156 0-12.031-4.25t-5.2031-11.969z"/>
<path id="am" d="m18.109 8.2031v-29h-9.0312v75.484h9.0312v-8.2969q2.8438 4.875 7.1562 7.2344 4.3281 2.375 10.328 2.375 9.9688 0 16.188-7.9062 6.2344-7.9062 6.2344-20.797t-6.2344-20.812q-6.2188-7.9062-16.188-7.9062-6 0-10.328 2.375-4.3125 2.375-7.1562 7.25zm30.578 19.094q0 9.9062-4.0781 15.547t-11.203 5.6406q-7.1406 0-11.219-5.6406t-4.0781-15.547 4.0781-15.547 11.219-5.6406q7.125 0 11.203 5.6406t4.0781 15.547z"/>
<path id="aa" d="m43.453 16.219q0 4.3906-3.2031 6.6875-3.1875 2.2969-9.3438 2.2969h-12.797v-18.031h12.797q6.1562 0 9.3438 2.3125 3.2031 2.3281 3.2031 6.7344zm-34.375 38.469h9.0312v-22.312h13.188q10.453 0 16.094-3.9844 5.6406-3.9688 5.6406-12.172t-5.6406-12.219q-5.6406-4-16.094-4h-22.219z"/>
<path id="bb" d="m34.469 29.5q6.0625-1.1719 9.4219-4.75 3.375-3.5625 3.375-8.8281 0-8.4531-6.2969-12.906-6.2969-4.4375-17.922-4.4375-3.9062 0-8.0312 0.6875t-8.5156 2.0469v8.3594q3.4688-1.8125 7.6094-2.7188 4.1562-0.89062 8.6875-0.89062 7.375 0 11.5 2.7344t4.125 7.125q0 4.2969-3.6562 6.9062t-10.344 2.6094h-7.2344v7.4219h7.5625q5.6719 0 8.9688 2.1719t3.2969 5.5938q0 3.125-3.4062 5.375-3.3906 2.25-9.1875 2.25-3.4688 0-7.4062-0.64062-3.9219-0.64062-8.6719-2.0469v8.1562q4.7969 1.1719 8.9375 1.75 4.1562 0.59375 7.8594 0.59375 9.5781 0 15.109-3.8438 5.5469-3.8281 5.5469-10.719 0-4.5312-2.9375-7.6875-2.9219-3.1406-8.3906-4.3125z"/>
</defs>
<use xlink:href="#y"/>
<use x="54.980469" xlink:href="#p"/>
<use x="116.503906" xlink:href="#am"/>
<use x="179.980469" xlink:href="#aa"/>
<use x="238.916016" xlink:href="#p"/>
<use x="300.439453" xlink:href="#bb"/>
<use x="353.613281" xlink:href="#p"/>
<use x="415.136719" xlink:href="#t"/>
</g>
</g>
<g clip-path="url(#a)">
<g transform="translate(126.09 410.03) scale(.1 -.1)">
<defs>
<path id="as" d="m11.719 12.406h10.297v-12.406h-10.297zm0 39.297h10.297v-12.391h-10.297z"/>
</defs>
<use xlink:href="#as"/>
</g>
</g>
<g clip-path="url(#a)">
<g transform="translate(159.47 410.03) scale(.1 -.1)">
<defs>
<path id="ai" d="m4.8906 31.391h26.312v-8h-26.312z"/>
</defs>
<use xlink:href="#ai"/>
</g>
</g>
<g clip-path="url(#a)">
<g transform="translate(179.42 410.03) scale(.1 -.1)">
<defs>
<path id="bf" d="m28.562 74.219q12.016 0 19.625-5.1094 7.625-5.0938 7.625-13.781 0-6.0625-3.4688-10.234t-9.8594-5.7812q7.0781-1.5156 11.047-6.3125 3.9844-4.7812 3.9844-11.812 0-11.219-8.6719-16.922-8.6562-5.6875-20.281-5.6875-5.9531 0-12.891 1.6094-6.9375 1.625-9.0781 2.9844v10.156q7.4688-4.3438 11.594-5.3906t10.188-1.0469q9.1719 0 14.25 3.5156t5.0781 10.781q0 6.4531-4.5156 10.078-4.5156 3.6406-14.031 3.6406h-9.9688v8.1094h10.359q8.7344 0 12.594 2.9062t3.8594 8.375q0 5.6094-3.9844 8.6094-3.9844 3.0156-13.641 3.0156-6.5469 0-8.7969-0.59375-2.25-0.57812-12.25-4.3438v9.625q5.5156 1.9531 11.266 2.7812 5.7656 0.82812 9.9688 0.82812z"/>
<path id="aj" d="m50.25 7.1719h23.141v47.516h9.0312v-54.688h-73.344v54.688h9.0312v-47.516h23.109v47.516h9.0312z"/>
</defs>
<use xlink:href="#bf"/>
<use x="64.111328" xlink:href="#t"/>
<use x="129.492188" xlink:href="#ab"/>
<use x="190.771484" xlink:href="#p"/>
<use x="252.294922" xlink:href="#aj"/>
<use x="343.798828" xlink:href="#aa"/>
</g>
</g>
<g clip-path="url(#a)">
<g transform="translate(237.86 410.03) scale(.1 -.1)">
<defs>
<path id="d" d="m10.688 12.406h10.312v-12.406h-10.312z"/>
</defs>
<use xlink:href="#d"/>
<use x="31.787109" xlink:href="#d"/>
<use x="63.574219" xlink:href="#d"/>
</g>
</g>
<g clip-path="url(#a)">
<g transform="translate(269.23 410.03) scale(.1 -.1)">
<defs>
<path id="bc" d="m9.0781 0v54.688h38.578v-7.1719h-29.547v-47.516z"/>
<path id="ap" d="m21.625 7.1719h26.078v40.344h-18.891v-6.8438q0-20.109-5.7656-30.859zm-13.031 0q4.4375 1.9531 6.3906 6.1094 4.7969 10.297 4.7969 31.062v10.344h36.953v-47.516h7.1875v-20.984h-7.1875v13.812h-44.328v-13.812h-7.1875v20.984z"/>
<path id="av" d="m18.453 38.922q0-4.0625 3.125-6.3594 3.125-2.2812 8.9375-2.2812h12.109v17.234h-12.109q-5.8125 0-8.9375-2.25t-3.125-6.3438zm-12.781-38.922 16.688 23.969q-5.6562 1.2812-9.4219 4.625-3.75 3.3438-3.75 10.328 0 7.9062 5.2344 11.828 5.25 3.9375 15.859 3.9375h21.375v-54.688h-9.0312v23.094h-11.172l-16.125-23.094z"/>
</defs>
<use xlink:href="#y"/>
<use x="54.980469" xlink:href="#p"/>
<use x="116.503906" xlink:href="#bc"/>
<use x="169.042969" xlink:href="#s"/>
<use x="230.224609" xlink:href="#ap"/>
<use x="299.365234" xlink:href="#t"/>
<use x="364.746094" xlink:href="#av"/>
</g>
</g>
<g clip-path="url(#a)">
<g transform="translate(326.68 410.03) scale(.1 -.1)">
<defs>
<path id="ak" d="m41.016 0v23h-16.75q-7.4688 0-12.453 4.6406-4.4844 4.2031-4.4844 13.188v13.859h8.9844v-13.031q0-5.7188 2.5312-8.5938 2.5938-2.8906 7.6719-2.8906h14.5v24.516h8.9844v-54.688z"/>
<path id="aw" d="m53.609 48.391q-7.2188 0-11.422-5.6406t-4.2031-15.453 4.1719-15.453q4.1875-5.6406 11.453-5.6406 7.1875 0 11.375 5.6562 4.2031 5.6719 4.2031 15.438 0 9.7188-4.2031 15.406-4.1875 5.6875-11.375 5.6875zm-24.797-15.531q0.92188 9.2812 7 16.203 6.0781 6.9375 17.797 6.9375t18.406-7.625q6.7031-7.6094 6.7031-21.078 0-13.422-6.7031-21.078-6.6875-7.6406-18.406-7.6406-11.766 0-18.188 7.375t-6.8594 19.484h-10.156v-25.438h-8.9844v54.688h8.9844v-21.828z"/>
</defs>
<use xlink:href="#t"/>
<use x="65.380859" xlink:href="#s"/>
<use x="126.5625" xlink:href="#ak"/>
<use x="185.644531" xlink:href="#aa"/>
<use x="244.580078" xlink:href="#aw"/>
</g>
</g>
<g clip-path="url(#a)">
<g transform="translate(395.78 410.03) scale(.1 -.1)">
<use xlink:href="#d"/>
<use x="31.787109" xlink:href="#d"/>
<use x="63.574219" xlink:href="#d"/>
</g>
</g>
<g clip-path="url(#a)">
<g transform="translate(446 410.03) scale(.1 -.1)">
<defs>
<path id="ay" d="m32.172-5.0781q-3.7969-9.7656-7.4219-12.734-3.6094-2.9844-9.6562-2.9844h-7.1875v7.5156h5.2812q3.7031 0 5.75 1.7656 2.0625 1.75 4.5469 8.2969l1.6094 4.0938-22.109 53.812h9.5156l17.094-42.766 17.094 42.766h9.5156z"/>
</defs>
<use xlink:href="#an"/>
<use x="63.916016" xlink:href="#ay"/>
<use x="123.095703" xlink:href="#ak"/>
<use x="182.177734" xlink:href="#aj"/>
<use x="273.681641" xlink:href="#p"/>
</g>
</g>
<g clip-path="url(#a)">
<g transform="translate(523.41 410.03) scale(.1 -.1)">
<use xlink:href="#t"/>
<use x="65.380859" xlink:href="#p"/>
</g>
</g>
<g clip-path="url(#a)">
<g transform="translate(579.12 410.03) scale(.1 -.1)">
<defs>
<path id="az" d="m56.297 54.688v-54.688h-9.0312v47.516h-29.156v-47.516h-9.0312v54.688z"/>
<path id="ao" d="m55.906 54.688v-54.688h-8.9375v43.891l-26.359-43.891h-11.531v54.688h8.9375v-43.797l26.328 43.797z"/>
<path id="ax" d="m54.891 54.688-19.781-26.609 20.797-28.078h-10.594l-15.922 21.484-15.906-21.484h-10.609l21.25 28.609-19.438 26.078h10.594l14.5-19.484 14.5 19.484z"/>
</defs>
<use xlink:href="#az"/>
<use x="65.380859" xlink:href="#am"/>
<use x="128.857422" xlink:href="#ao"/>
<use x="193.847656" xlink:href="#ax"/>
<use x="253.027344" xlink:href="#s"/>
<use x="314.208984" xlink:href="#ap"/>
<use x="383.349609" xlink:href="#ao"/>
</g>
</g>
<g clip-path="url(#a)">
<g transform="translate(676.52 410.03) scale(.1 -.1)">
<use xlink:href="#d"/>
</g>
</g>
<g clip-path="url(#a)">
<g transform="translate(757.66 410.03) scale(.1 -.1)">
<use xlink:href="#ai"/>
</g>
</g>
<g clip-path="url(#a)">
<g transform="translate(752.73 152.49) scale(.1 -.1)">
<defs>
<path id="m" d="m9.8125 72.906h9.8594v-72.906h-9.8594z"/>
<path id="x" d="m9.8125 72.906h14.703l18.594-49.609 18.703 49.609h14.703v-72.906h-9.625v64.016l-18.797-50h-9.9062l-18.797 50v-64.016h-9.5781z"/>
</defs>
<use xlink:href="#m"/>
<use x="29.492188" xlink:href="#x"/>
<use x="115.771484" xlink:href="#o"/>
<use x="176.074219" xlink:href="#u"/>
<use x="231.787109" xlink:href="#m"/>
<use x="261.279297" xlink:href="#r"/>
<use x="331.103516" xlink:href="#m"/>
<use x="360.595703" xlink:href="#e"/>
</g>
</g>
<g clip-path="url(#a)">
<g transform="translate(752.73 152.49) scale(.1 -.1)">
<use xlink:href="#m"/>
<use x="29.492188" xlink:href="#x"/>
<use x="115.771484" xlink:href="#o"/>
<use x="176.074219" xlink:href="#u"/>
<use x="231.787109" xlink:href="#m"/>
<use x="261.279297" xlink:href="#r"/>
<use x="331.103516" xlink:href="#m"/>
<use x="360.595703" xlink:href="#e"/>
</g>
</g>
<g clip-path="url(#a)">
<g transform="translate(752.73 282.15) scale(.1 -.1)">
<use xlink:href="#m"/>
<use x="29.492188" xlink:href="#x"/>
<use x="115.771484" xlink:href="#o"/>
<use x="176.074219" xlink:href="#u"/>
<use x="231.787109" xlink:href="#m"/>
<use x="261.279297" xlink:href="#r"/>
<use x="331.103516" xlink:href="#m"/>
<use x="360.595703" xlink:href="#e"/>
</g>
</g>
<g clip-path="url(#a)">
<g transform="translate(77.975 346.53) scale(.1 -.1)">
<use xlink:href="#m"/>
<use x="29.492188" xlink:href="#x"/>
<use x="115.771484" xlink:href="#o"/>
<use x="176.074219" xlink:href="#u"/>
<use x="231.787109" xlink:href="#m"/>
<use x="261.279297" xlink:href="#r"/>
<use x="331.103516" xlink:href="#m"/>
<use x="360.595703" xlink:href="#e"/>
</g>
</g>
<g clip-path="url(#a)">
<g transform="translate(136.8 22.153) scale(.1 -.1)">
<defs>
<path id="c" d="m12.406 8.2969h16.109v55.625l-17.531-3.5156v8.9844l17.438 3.5156h9.8594v-64.609h16.109v-8.2969h-41.984z"/>
</defs>
<use xlink:href="#c"/>
<use x="63.623047" xlink:href="#d"/>
<use x="95.410156" xlink:href="#c"/>
</g>
</g>
<g clip-path="url(#a)">
<g transform="translate(28.897 346.53) scale(.1 -.1)">
<defs>
<path id="n" d="m19.188 8.2969h34.422v-8.2969h-46.281v8.2969q5.6094 5.8125 15.297 15.594 9.7031 9.7969 12.188 12.641 4.7344 5.3125 6.6094 9 1.8906 3.6875 1.8906 7.25 0 5.8125-4.0781 9.4688-4.0781 3.6719-10.625 3.6719-4.6406 0-9.7969-1.6094-5.1406-1.6094-11-4.8906v9.9688q5.9531 2.3906 11.125 3.6094 5.1875 1.2188 9.4844 1.2188 11.328 0 18.062-5.6719 6.7344-5.6562 6.7344-15.125 0-4.5-1.6875-8.5312-1.6719-4.0156-6.125-9.4844-1.2188-1.4219-7.7656-8.1875-6.5312-6.7656-18.453-18.922z"/>
</defs>
<use xlink:href="#c"/>
<use x="63.623047" xlink:href="#d"/>
<use x="95.410156" xlink:href="#n"/>
</g>
</g>
<g clip-path="url(#a)">
<g transform="translate(63.991 282.15) scale(.1 -.1)">
<defs>
<path id="w" d="m40.578 39.312q7.0781-1.5156 11.047-6.3125 3.9844-4.7812 3.9844-11.812 0-10.781-7.4219-16.703-7.4219-5.9062-21.094-5.9062-4.5781 0-9.4375 0.90625t-10.031 2.7188v9.5156q4.0938-2.3906 8.9688-3.6094 4.8906-1.2188 10.219-1.2188 9.2656 0 14.125 3.6562t4.8594 10.641q0 6.4531-4.5156 10.078-4.5156 3.6406-12.562 3.6406h-8.5v8.1094h8.8906q7.2656 0 11.125 2.9062t3.8594 8.375q0 5.6094-3.9844 8.6094-3.9688 3.0156-11.391 3.0156-4.0625 0-8.7031-0.89062-4.6406-0.875-10.203-2.7188v8.7812q5.625 1.5625 10.531 2.3438t9.25 0.78125q11.234 0 17.766-5.1094 6.5469-5.0938 6.5469-13.781 0-6.0625-3.4688-10.234t-9.8594-5.7812z"/>
</defs>
<use xlink:href="#c"/>
<use x="63.623047" xlink:href="#d"/>
<use x="95.410156" xlink:href="#w"/>
</g>
</g>
<g clip-path="url(#a)">
<g transform="translate(317.96 87.389) scale(.1 -.1)">
<defs>
<path id="ah" d="m37.797 64.312-24.906-38.922h24.906zm-2.5938 8.5938h12.406v-47.516h10.406v-8.2031h-10.406v-17.188h-9.8125v17.188h-32.906v9.5156z"/>
</defs>
<use xlink:href="#c"/>
<use x="63.623047" xlink:href="#d"/>
<use x="95.410156" xlink:href="#ah"/>
</g>
</g>
<g clip-path="url(#a)">
<g transform="translate(314.78 152.49) scale(.1 -.1)">
<use xlink:href="#c"/>
<use x="63.623047" xlink:href="#d"/>
<use x="95.410156" xlink:href="#c"/>
<use x="159.033203" xlink:href="#c"/>
</g>
</g>
<g clip-path="url(#a)">
<g transform="translate(188.42 346.53) scale(.1 -.1)">
<use xlink:href="#c"/>
<use x="63.623047" xlink:href="#d"/>
<use x="95.410156" xlink:href="#c"/>
<use x="159.033203" xlink:href="#n"/>
</g>
</g>
<g clip-path="url(#a)">
<g transform="translate(524.43 217.43) scale(.1 -.1)">
<use xlink:href="#c"/>
<use x="63.623047" xlink:href="#d"/>
<use x="95.410156" xlink:href="#c"/>
<use x="159.033203" xlink:href="#w"/>
</g>
</g>
<g clip-path="url(#a)">
<g transform="translate(305.67 282.15) scale(.1 -.1)">
<defs>
<path id="ag" d="m33.016 40.375q-6.6406 0-10.531-4.5469-3.875-4.5312-3.875-12.438 0-7.8594 3.875-12.438 3.8906-4.5625 10.531-4.5625t10.516 4.5625q3.875 4.5781 3.875 12.438 0 7.9062-3.875 12.438-3.875 4.5469-10.516 4.5469zm19.578 30.922v-8.9844q-3.7188 1.75-7.5 2.6719-3.7812 0.9375-7.5 0.9375-9.7656 0-14.922-6.5938-5.1406-6.5938-5.875-19.922 2.875 4.25 7.2188 6.5156 4.3594 2.2656 9.5781 2.2656 10.984 0 17.359-6.6719 6.375-6.6562 6.375-18.125 0-11.234-6.6406-18.031-6.6406-6.7812-17.672-6.7812-12.656 0-19.344 9.6875-6.6875 9.7031-6.6875 28.109 0 17.281 8.2031 27.562t22.016 10.281q3.7188 0 7.5-0.73438t7.8906-2.1875z"/>
</defs>
<use xlink:href="#c"/>
<use x="63.623047" xlink:href="#d"/>
<use x="95.410156" xlink:href="#c"/>
<use x="159.033203" xlink:href="#ag"/>
</g>
</g>
<g clip-path="url(#a)">
<g transform="translate(451.63 346.53) scale(.1 -.1)">
<defs>
<path id="af" d="m8.2031 72.906h46.875v-4.2031l-26.469-68.703h-10.297l24.906 64.594h-35.016z"/>
</defs>
<use xlink:href="#c"/>
<use x="63.623047" xlink:href="#d"/>
<use x="95.410156" xlink:href="#c"/>
<use x="159.033203" xlink:href="#af"/>
</g>
</g>
<g clip-path="url(#a)">
<g transform="translate(518.62 346.53) scale(.1 -.1)">
<defs>
<path id="ae" d="m31.781 34.625q-7.0312 0-11.062-3.7656-4.0156-3.7656-4.0156-10.344 0-6.5938 4.0156-10.359 4.0312-3.7656 11.062-3.7656t11.078 3.7812q4.0625 3.7969 4.0625 10.344 0 6.5781-4.0312 10.344-4.0156 3.7656-11.109 3.7656zm-9.8594 4.1875q-6.3438 1.5625-9.8906 5.9062-3.5312 4.3594-3.5312 10.609 0 8.7344 6.2188 13.812 6.2344 5.0781 17.062 5.0781 10.891 0 17.094-5.0781t6.2031-13.812q0-6.25-3.5469-10.609-3.5312-4.3438-9.8281-5.9062 7.125-1.6562 11.094-6.5 3.9844-4.8281 3.9844-11.797 0-10.609-6.4688-16.281-6.4688-5.6562-18.531-5.6562-12.047 0-18.531 5.6562-6.4688 5.6719-6.4688 16.281 0 6.9688 4 11.797 4.0156 4.8438 11.141 6.5zm-3.6094 15.578q0-5.6562 3.5312-8.8281 3.5469-3.1719 9.9375-3.1719 6.3594 0 9.9375 3.1719 3.5938 3.1719 3.5938 8.8281 0 5.6719-3.5938 8.8438-3.5781 3.1719-9.9375 3.1719-6.3906 0-9.9375-3.1719-3.5312-3.1719-3.5312-8.8438z"/>
</defs>
<use xlink:href="#c"/>
<use x="63.623047" xlink:href="#d"/>
<use x="95.410156" xlink:href="#c"/>
<use x="159.033203" xlink:href="#ae"/>
</g>
</g>
<g clip-path="url(#a)">
<g transform="translate(590.41 346.53) scale(.1 -.1)">
<defs>
<path id="ad" d="m10.984 1.5156v8.9844q3.7188-1.7656 7.5156-2.6875 3.8125-0.92188 7.4844-0.92188 9.7656 0 14.906 6.5625 5.1562 6.5625 5.8906 19.953-2.8281-4.2031-7.1875-6.4531-4.3438-2.25-9.6094-2.25-10.938 0-17.312 6.6094-6.375 6.625-6.375 18.109 0 11.219 6.6406 18 6.6406 6.7969 17.672 6.7969 12.656 0 19.312-9.7031 6.6719-9.6875 6.6719-28.141 0-17.234-8.1875-27.516-8.1719-10.281-21.984-10.281-3.7188 0-7.5312 0.73438-3.7969 0.73438-7.9062 2.2031zm19.625 30.906q6.6406 0 10.516 4.5312 3.8906 4.5469 3.8906 12.469 0 7.8594-3.8906 12.422-3.875 4.5625-10.516 4.5625t-10.516-4.5625-3.875-12.422q0-7.9219 3.875-12.469 3.875-4.5312 10.516-4.5312z"/>
</defs>
<use xlink:href="#c"/>
<use x="63.623047" xlink:href="#d"/>
<use x="95.410156" xlink:href="#c"/>
<use x="159.033203" xlink:href="#ad"/>
</g>
</g>
<g clip-path="url(#a)">
<g transform="translate(279.35 346.53) scale(.1 -.1)">
<use xlink:href="#c"/>
<use x="63.623047" xlink:href="#d"/>
<use x="95.410156" xlink:href="#n"/>
<use x="159.033203" xlink:href="#c"/>
</g>
</g>
<g clip-path="url(#a)">
<g transform="translate(331.99 346.53) scale(.1 -.1)">
<use xlink:href="#c"/>
<use x="63.623047" xlink:href="#d"/>
<use x="95.410156" xlink:href="#n"/>
<use x="159.033203" xlink:href="#n"/>
</g>
</g>
<g clip-path="url(#a)">
<g transform="translate(40.072 346.53) scale(.1 -.1)">
<use xlink:href="#c"/>
<use x="63.623047" xlink:href="#d"/>
<use x="95.410156" xlink:href="#n"/>
<use x="159.033203" xlink:href="#ah"/>
</g>
</g>
<g clip-path="url(#a)">
<g transform="translate(59.214 346.53) scale(.1 -.1)">
<defs>
<path id="at" d="m10.797 72.906h38.719v-8.3125h-29.688v-17.859q2.1406 0.73438 4.2812 1.0938 2.1562 0.35938 4.3125 0.35938 12.203 0 19.328-6.6875 7.1406-6.6875 7.1406-18.109 0-11.766-7.3281-18.297-7.3281-6.5156-20.656-6.5156-4.5938 0-9.3594 0.78125-4.75 0.78125-9.8281 2.3438v9.9219q4.3906-2.3906 9.0781-3.5625t9.9062-1.1719q8.4531 0 13.375 4.4375 4.9375 4.4375 4.9375 12.062 0 7.6094-4.9375 12.047-4.9219 4.4531-13.375 4.4531-3.9531 0-7.8906-0.875-3.9219-0.875-8.0156-2.7344z"/>
</defs>
<use xlink:href="#c"/>
<use x="63.623047" xlink:href="#d"/>
<use x="95.410156" xlink:href="#n"/>
<use x="159.033203" xlink:href="#at"/>
</g>
</g>
<g clip-path="url(#a)">
<g transform="translate(83.142 346.53) scale(.1 -.1)">
<use xlink:href="#c"/>
<use x="63.623047" xlink:href="#d"/>
<use x="95.410156" xlink:href="#n"/>
<use x="159.033203" xlink:href="#ag"/>
</g>
</g>
<g clip-path="url(#a)">
<g transform="translate(116.64 346.53) scale(.1 -.1)">
<use xlink:href="#c"/>
<use x="63.623047" xlink:href="#d"/>
<use x="95.410156" xlink:href="#n"/>
<use x="159.033203" xlink:href="#af"/>
</g>
</g>
<g clip-path="url(#a)">
<g transform="translate(150.14 346.53) scale(.1 -.1)">
<use xlink:href="#c"/>
<use x="63.623047" xlink:href="#d"/>
<use x="95.410156" xlink:href="#n"/>
<use x="159.033203" xlink:href="#ae"/>
</g>
</g>
<g clip-path="url(#a)">
<g transform="translate(231.49 346.53) scale(.1 -.1)">
<use xlink:href="#c"/>
<use x="63.623047" xlink:href="#d"/>
<use x="95.410156" xlink:href="#n"/>
<use x="159.033203" xlink:href="#ad"/>
</g>
</g>
<g clip-path="url(#a)">
<g transform="translate(389.42 346.53) scale(.1 -.1)">
<defs>
<path id="au" d="m31.781 66.406q-7.6094 0-11.453-7.5-3.8281-7.4844-3.8281-22.531 0-14.984 3.8281-22.484 3.8438-7.5 11.453-7.5 7.6719 0 11.5 7.5 3.8438 7.5 3.8438 22.484 0 15.047-3.8438 22.531-3.8281 7.5-11.5 7.5zm0 7.8125q12.266 0 18.734-9.7031 6.4688-9.6875 6.4688-28.141 0-18.406-6.4688-28.109-6.4688-9.6875-18.734-9.6875-12.25 0-18.719 9.6875-6.4688 9.7031-6.4688 28.109 0 18.453 6.4688 28.141 6.4688 9.7031 18.719 9.7031z"/>
</defs>
<use xlink:href="#c"/>
<use x="63.623047" xlink:href="#d"/>
<use x="95.410156" xlink:href="#w"/>
<use x="159.033203" xlink:href="#au"/>
</g>
</g>
<g clip-path="url(#a)">
<g transform="translate(666.98 346.53) scale(.1 -.1)">
<use xlink:href="#c"/>
<use x="63.623047" xlink:href="#d"/>
<use x="95.410156" xlink:href="#w"/>
<use x="159.033203" xlink:href="#c"/>
</g>
</g>
<g clip-path="url(#a)">
<g transform="translate(748.33 346.53) scale(.1 -.1)">
<use xlink:href="#c"/>
<use x="63.623047" xlink:href="#d"/>
<use x="95.410156" xlink:href="#w"/>
<use x="159.033203" xlink:href="#n"/>
</g>
</g>
<defs>
<clipPath id="a">
<rect width="810.67" height="426.67"/>
</clipPath>
</defs>
</svg>
