<?xml version="1.0" encoding="UTF-8"?>
<!DOCTYPE svg  PUBLIC '-//W3C//DTD SVG 1.1//EN'  'http://www.w3.org/Graphics/SVG/1.1/DTD/svg11.dtd'>
<svg width="1216pt" height="640pt" version="1.1" viewBox="0 0 1216 640" xmlns="http://www.w3.org/2000/svg" xmlns:xlink="http://www.w3.org/1999/xlink">
<metadata>
<rdf:RDF xmlns:cc="http://creativecommons.org/ns#" xmlns:dc="http://purl.org/dc/elements/1.1/" xmlns:rdf="http://www.w3.org/1999/02/22-rdf-syntax-ns#">
<cc:Work>
<dc:type rdf:resource="http://purl.org/dc/dcmitype/StillImage"/>
<dc:date>2021-01-21T01:20:56.726426</dc:date>
<dc:format>image/svg+xml</dc:format>
<dc:creator>
<cc:Agent>
<dc:title>Matplotlib v3.3.3, https://matplotlib.org/</dc:title>
</cc:Agent>
</dc:creator>
</cc:Work>
</rdf:RDF>
</metadata>
<defs>
<style type="text/css">*{stroke-linecap:butt;stroke-linejoin:round;}</style>
</defs>
<path d="m0 640h1216v-640h-1216z" fill="#fff"/>
<g fill="none" stroke="#000">
<path d="m525.84 29.091v97.853" clip-path="url(#a)"/>
<path d="m525.84 126.94 634.89 97.656" clip-path="url(#a)"/>
<path d="m525.84 126.94 634.89 97.656" clip-path="url(#a)"/>
<path d="m525.84 126.94v97.656" clip-path="url(#a)"/>
<path d="m525.84 224.6-449.24 97.41" clip-path="url(#a)"/>
<path d="m525.84 224.6-307.01 97.41" clip-path="url(#a)"/>
<path d="m525.84 224.6 30.414 97.41" clip-path="url(#a)"/>
<path d="m525.84 224.6 382.41 291.06" clip-path="url(#a)"/>
<path d="m525.84 224.6 543.9 194.49" clip-path="url(#a)"/>
<path d="m525.84 224.6-385.27 291.06" clip-path="url(#a)"/>
<path d="m525.84 224.6-122.55 291.06" clip-path="url(#a)"/>
<path d="m525.84 224.6 307.35 291.06" clip-path="url(#a)"/>
<path d="m76.597 322.01-21.324 193.65" clip-path="url(#a)"/>
<path d="m76.597 322.01-11.089 193.65" clip-path="url(#a)"/>
<path d="m76.597 322.01 2.5589 193.65" clip-path="url(#a)"/>
<path d="m76.597 322.01 29.854 97.079" clip-path="url(#a)"/>
<path d="m218.83 322.01-50.965 193.65" clip-path="url(#a)"/>
<path d="m218.83 322.01-20.258 193.65" clip-path="url(#a)"/>
<path d="m218.83 322.01 13.861 193.65" clip-path="url(#a)"/>
<path d="m218.83 322.01 57.363 97.079" clip-path="url(#a)"/>
<path d="m556.25 322.01-101.79 193.65" clip-path="url(#a)"/>
<path d="m556.25 322.01-47.198 193.65" clip-path="url(#a)"/>
<path d="m556.25 322.01 138.18 97.079" clip-path="url(#a)"/>
<path d="m556.25 322.01 10.804 193.65" clip-path="url(#a)"/>
<path d="m908.25 515.66v95.248" clip-path="url(#a)"/>
<path d="m1069.7 419.09-83.023 96.573" clip-path="url(#a)"/>
<path d="m1069.7 419.09-1.1373 96.573" clip-path="url(#a)"/>
<path d="m1069.7 419.09 84.16 96.573" clip-path="url(#a)"/>
<path d="m986.72 515.66v95.248" clip-path="url(#a)"/>
<path d="m1068.6 515.66v95.248" clip-path="url(#a)"/>
<path d="m454.46 515.66v95.248" clip-path="url(#a)"/>
<path d="m509.05 515.66v95.248" clip-path="url(#a)"/>
<path d="m694.43 419.09-65.963 96.573" clip-path="url(#a)"/>
<path d="m694.43 419.09-1.1373 96.573" clip-path="url(#a)"/>
<path d="m694.43 419.09 67.101 96.573" clip-path="url(#a)"/>
<path d="m628.47 515.66v95.248" clip-path="url(#a)"/>
<path d="m693.3 515.66v95.248" clip-path="url(#a)"/>
<path d="m761.54 515.66v95.248" clip-path="url(#a)"/>
<path d="m167.87 515.66v95.248" clip-path="url(#a)"/>
<path d="m198.57 515.66v95.248" clip-path="url(#a)"/>
<path d="m232.69 515.66v95.248" clip-path="url(#a)"/>
<path d="m276.19 419.09-108.33 96.573" clip-path="url(#a)" stroke-dasharray="3.7,1.6"/>
<path d="m276.19 419.09-5.9708 96.573" clip-path="url(#a)"/>
<path d="m276.19 419.09 34.972 96.573" clip-path="url(#a)"/>
<path d="m276.19 419.09 79.327 96.573" clip-path="url(#a)"/>
<path d="m270.22 515.66v95.248" clip-path="url(#a)"/>
<path d="m311.16 515.66v95.248" clip-path="url(#a)"/>
<path d="m355.52 515.66v95.248" clip-path="url(#a)"/>
<path d="m55.273 515.66v95.248" clip-path="url(#a)"/>
<path d="m65.508 515.66v95.248" clip-path="url(#a)"/>
<path d="m79.156 515.66v95.248" clip-path="url(#a)"/>
<path d="m106.45 419.09-10.236 96.573" clip-path="url(#a)"/>
<path d="m106.45 419.09 10.236 96.573" clip-path="url(#a)"/>
<path d="m96.215 515.66v95.248" clip-path="url(#a)"/>
<path d="m116.69 515.66v95.248" clip-path="url(#a)"/>
<path d="m140.57 515.66v95.248" clip-path="url(#a)"/>
<path d="m403.29 515.66v95.248" clip-path="url(#a)"/>
<path d="m567.06 515.66v95.248" clip-path="url(#a)"/>
<path d="m833.19 515.66v95.248" clip-path="url(#a)"/>
<path d="m1153.9 515.66v95.248" clip-path="url(#a)"/>
</g>
<path d="m519.57 75.009v6.0162q0 2.4 2.4 2.4h7.7425q2.4 0 2.4-2.4v-6.0162q0-2.4-2.4-2.4h-7.7425q-2.4 0-2.4 2.4z" clip-path="url(#a)" fill="#fff" stroke="#fff"/>
<g clip-path="url(#a)">
<g transform="translate(523.63 75.009) rotate(90) scale(.08 -.08)">
<defs>
<path id="x" d="m9.8125 72.906h9.8594v-29.891h35.844v29.891h9.8594v-72.906h-9.8594v34.719h-35.844v-34.719h-9.8594z"/>
</defs>
<use xlink:href="#x"/>
</g>
</g>
<path d="m839.63 181.55 5.4089 0.83197q2.3721 0.36487 2.737-2.0072l1.1771-7.6525q0.36487-2.3721-2.0072-2.737l-5.4089-0.83197q-2.3721-0.36487-2.737 2.0072l-1.1771 7.6525q-0.36487 2.3721 2.0072 2.737z" clip-path="url(#a)" fill="#fff" stroke="#fff"/>
<g clip-path="url(#a)">
<g transform="translate(840.24 177.54) rotate(8.7445) scale(.08 -.08)">
<defs>
<path id="m" d="m34.188 63.188-13.391-36.281h26.812zm-5.5781 9.7188h11.188l27.781-72.906h-10.25l-6.6406 18.703h-32.859l-6.6406-18.703h-10.406z"/>
</defs>
<use xlink:href="#m"/>
</g>
</g>
<path d="m839.95 181.6 4.7677 0.73335q2.3721 0.36487 2.737-2.0072l1.1771-7.6525q0.36487-2.3721-2.0072-2.737l-4.7677-0.73335q-2.3721-0.36487-2.737 2.0072l-1.1771 7.6525q-0.36487 2.3721 2.0072 2.737z" clip-path="url(#a)" fill="#fff" stroke="#fff"/>
<g clip-path="url(#a)">
<g transform="translate(840.56 177.59) rotate(8.7445) scale(.08 -.08)">
<defs>
<path id="r" d="m19.672 64.797v-27.391h12.406q6.8906 0 10.641 3.5625 3.7656 3.5625 3.7656 10.156 0 6.5469-3.7656 10.109-3.75 3.5625-10.641 3.5625zm-9.8594 8.1094h22.266q12.266 0 18.531-5.5469 6.2812-5.5469 6.2812-16.234 0-10.797-6.2812-16.312-6.2656-5.5156-18.531-5.5156h-12.406v-29.297h-9.8594z"/>
</defs>
<use xlink:href="#r"/>
</g>
</g>
<path d="m519.57 173.04v5.4725q0 2.4 2.4 2.4h7.7425q2.4 0 2.4-2.4v-5.4725q0-2.4-2.4-2.4h-7.7425q-2.4 0-2.4 2.4z" clip-path="url(#a)" fill="#fff" stroke="#fff"/>
<g clip-path="url(#a)">
<g transform="translate(523.63 173.04) rotate(90) scale(.08 -.08)">
<use xlink:href="#m"/>
</g>
</g>
<path d="m299.61 280.07 5.8796-1.2749q2.3455-0.50858 1.8369-2.8541l-1.6407-7.5667q-0.50858-2.3455-2.8541-1.8369l-5.8796 1.2749q-2.3455 0.50858-1.8369 2.8541l1.6407 7.5667q0.50858 2.3455 2.8541 1.8369z" clip-path="url(#a)" fill="#fff" stroke="#fff"/>
<g clip-path="url(#a)">
<g transform="translate(298.75 276.1) rotate(-12.234) scale(.08 -.08)">
<use xlink:href="#x"/>
</g>
</g>
<path d="m371.36 280.19 5.7345-1.8195q2.2876-0.72583 1.5618-3.0134l-2.3416-7.3799q-0.72583-2.2876-3.0134-1.5618l-5.7345 1.8195q-2.2876 0.72583-1.5618 3.0134l2.3416 7.3799q0.72583 2.2876 3.0134 1.5618z" clip-path="url(#a)" fill="#fff" stroke="#fff"/>
<g clip-path="url(#a)">
<g transform="translate(370.14 276.32) rotate(-17.604) scale(.08 -.08)">
<use xlink:href="#x"/>
</g>
</g>
<path d="m534.16 272.3 1.7931 5.7428q0.71529 2.2909 3.0062 1.5756l7.3906-2.3076q2.2909-0.71529 1.5756-3.0062l-1.7931-5.7428q-0.71529-2.2909-3.0062-1.5756l-7.3906 2.3076q-2.2909 0.71529-1.5756 3.0062z" clip-path="url(#a)" fill="#fff" stroke="#fff"/>
<g clip-path="url(#a)">
<g transform="translate(538.04 271.09) rotate(72.66) scale(.08 -.08)">
<use xlink:href="#x"/>
</g>
</g>
<path d="m711.47 373.77 3.547 2.6997q1.9098 1.4536 3.3633-0.45618l4.6893-6.1609q1.4536-1.9098-0.45618-3.3633l-3.547-2.6997q-1.9098-1.4536-3.3633 0.45618l-4.6893 6.1609q-1.4536 1.9098 0.45618 3.3633z" clip-path="url(#a)" fill="#fff" stroke="#fff"/>
<g clip-path="url(#a)">
<g transform="translate(713.93 370.54) rotate(37.276) scale(.08 -.08)">
<defs>
<path id="ai" d="m9.8125 72.906h9.8594v-64.609h35.5v-8.2969h-45.359z"/>
</defs>
<use xlink:href="#ai"/>
</g>
</g>
<path d="m792.85 326.74 5.665 2.0257q2.2599 0.80808 3.068-1.4518l2.6069-7.2904q0.80808-2.2599-1.4518-3.068l-5.665-2.0257q-2.2599-0.80808-3.068 1.4518l-2.6069 7.2904q-0.80808 2.2599 1.4518 3.068z" clip-path="url(#a)" fill="#fff" stroke="#fff"/>
<g clip-path="url(#a)">
<g transform="translate(794.22 322.91) rotate(19.676) scale(.08 -.08)">
<use xlink:href="#x"/>
</g>
</g>
<path d="m334.65 376.9 4.6717-3.5294q1.915-1.4467 0.46825-3.3617l-4.6671-6.1777q-1.4467-1.915-3.3617-0.46825l-4.6717 3.5294q-1.915 1.4467-0.46825 3.3617l4.6671 6.1777q1.4467 1.915 3.3617 0.46825z" clip-path="url(#a)" fill="#fff" stroke="#fff"/>
<g clip-path="url(#a)">
<g transform="translate(332.2 373.66) rotate(-37.07) scale(.08 -.08)">
<defs>
<path id="w" d="m8.6875 72.906h9.9219v-44.297q0-11.719 4.2344-16.875 4.25-5.1406 13.781-5.1406 9.4688 0 13.719 5.1406 4.25 5.1562 4.25 16.875v44.297h9.9062v-45.516q0-14.25-7.0625-21.531-7.0469-7.2812-20.812-7.2812-13.828 0-20.891 7.2812-7.0469 7.2812-7.0469 21.531z"/>
</defs>
<use xlink:href="#w"/>
</g>
</g>
<path d="m469.21 375.26 2.2721-5.3962q0.93134-2.2119-1.2806-3.1433l-7.1358-3.0045q-2.2119-0.93134-3.1433 1.2806l-2.2721 5.3962q-0.93134 2.2119 1.2806 3.1433l7.1358 3.0045q2.2119 0.93134 3.1433-1.2806z" clip-path="url(#a)" fill="#fff" stroke="#fff"/>
<g clip-path="url(#a)">
<g transform="translate(465.46 373.69) rotate(-67.166) scale(.08 -.08)">
<use xlink:href="#w"/>
</g>
</g>
<path d="m673.07 372.67 4.2512 4.026q1.7426 1.6503 3.3929-0.09233l5.3238-5.6217q1.6503-1.7426-0.092331-3.3929l-4.2512-4.026q-1.7426-1.6503-3.3929 0.092331l-5.3238 5.6217q-1.6503 1.7426 0.09233 3.3929z" clip-path="url(#a)" fill="#fff" stroke="#fff"/>
<g clip-path="url(#a)">
<g transform="translate(675.87 369.72) rotate(43.441) scale(.08 -.08)">
<use xlink:href="#w"/>
</g>
</g>
<path d="m71.829 422.6 0.67849-6.1615q0.26269-2.3856-2.1229-2.6483l-7.696-0.84746q-2.3856-0.26269-2.6483 2.1229l-0.67849 6.1615q-0.26269 2.3856 2.1229 2.6483l7.696 0.84746q2.3856 0.26269 2.6483-2.1229z" clip-path="url(#a)" fill="#fff" stroke="#fff"/>
<g clip-path="url(#a)">
<g transform="translate(67.79 422.16) rotate(-83.716) scale(.08 -.08)">
<defs>
<path id="aw" d="m59.516 10.406v19.578h-16.109v8.1094h25.875v-31.312q-5.7031-4.0469-12.594-6.125-6.875-2.0781-14.688-2.0781-17.094 0-26.75 9.9844-9.6406 10-9.6406 27.812 0 17.875 9.6406 27.859 9.6562 9.9844 26.75 9.9844 7.125 0 13.547-1.7656 6.4219-1.75 11.844-5.1719v-10.5q-5.4688 4.6406-11.625 6.9844t-12.938 2.3438q-13.391 0-20.109-7.4688-6.7031-7.4688-6.7031-22.266 0-14.75 6.7031-22.219 6.7188-7.4688 20.109-7.4688 5.2188 0 9.3125 0.90625 4.1094 0.90625 7.375 2.8125z"/>
</defs>
<use xlink:href="#aw"/>
</g>
</g>
<path d="m77.157 421.93 0.31285-5.4636q0.1372-2.3961-2.2589-2.5333l-7.7298-0.44262q-2.3961-0.1372-2.5333 2.2589l-0.31285 5.4636q-0.1372 2.3961 2.2589 2.5333l7.7298 0.44262q2.3961 0.1372 2.5333-2.2589z" clip-path="url(#a)" fill="#fff" stroke="#fff"/>
<g clip-path="url(#a)">
<g transform="translate(73.1 421.69) rotate(-86.723) scale(.08 -.08)">
<use xlink:href="#m"/>
</g>
</g>
<path d="m71.574 416.51 0.063735 4.8233q0.031711 2.3998 2.4315 2.3681l7.7418-0.1023q2.3998-0.031711 2.3681-2.4315l-0.063736-4.8233q-0.031711-2.3998-2.4315-2.3681l-7.7418 0.1023q-2.3998 0.031711-2.3681 2.4315z" clip-path="url(#a)" fill="#fff" stroke="#fff"/>
<g clip-path="url(#a)">
<g transform="translate(75.637 416.45) rotate(89.243) scale(.08 -.08)">
<use xlink:href="#r"/>
</g>
</g>
<path d="m84.726 369.78 1.6086 5.2308q0.70545 2.294 2.9994 1.5885l7.4005-2.2758q2.294-0.70545 1.5885-2.9994l-1.6086-5.2308q-0.70545-2.294-2.9994-1.5885l-7.4005 2.2758q-2.294 0.70545-1.5885 2.9994z" clip-path="url(#a)" fill="#fff" stroke="#fff"/>
<g clip-path="url(#a)">
<g transform="translate(88.61 368.58) rotate(72.906) scale(.08 -.08)">
<use xlink:href="#m"/>
</g>
</g>
<path d="m198.72 423.08 1.3928-5.2923q0.61083-2.321-1.7101-2.9318l-7.4875-1.9706q-2.321-0.61083-2.9318 1.7101l-1.3928 5.2923q-0.61083 2.321 1.7101 2.9318l7.4875 1.9706q2.321 0.61083 2.9318-1.7101z" clip-path="url(#a)" fill="#fff" stroke="#fff"/>
<g clip-path="url(#a)">
<g transform="translate(194.79 422.04) rotate(-75.255) scale(.08 -.08)">
<use xlink:href="#m"/>
</g>
</g>
<path d="m214.7 421.78 0.47873-4.5763q0.2497-2.387-2.1373-2.6367l-7.7005-0.80556q-2.387-0.2497-2.6367 2.1373l-0.47873 4.5763q-0.2497 2.387 2.1373 2.6367l7.7005 0.80556q2.387 0.2497 2.6367-2.1373z" clip-path="url(#a)" fill="#fff" stroke="#fff"/>
<g clip-path="url(#a)">
<g transform="translate(210.66 421.35) rotate(-84.028) scale(.08 -.08)">
<defs>
<path id="ax" d="m9.8125 72.906h41.891v-8.3125h-32.031v-21.484h28.906v-8.2969h-28.906v-34.812h-9.8594z"/>
</defs>
<use xlink:href="#ax"/>
</g>
</g>
<path d="m219.32 416.75 0.36259 5.0658q0.17134 2.3939 2.5652 2.2225l7.7227-0.55276q2.3939-0.17134 2.2225-2.5652l-0.36259-5.0658q-0.17134-2.3939-2.5652-2.2225l-7.7227 0.55276q-2.3939 0.17134-2.2225 2.5652z" clip-path="url(#a)" fill="#fff" stroke="#fff"/>
<g clip-path="url(#a)">
<g transform="translate(223.38 416.46) rotate(85.906) scale(.08 -.08)">
<defs>
<path id="aq" d="m53.516 70.516v-9.625q-5.6094 2.6875-10.594 4-4.9844 1.3281-9.625 1.3281-8.0469 0-12.422-3.125t-4.375-8.8906q0-4.8438 2.9062-7.3125 2.9062-2.4531 11.016-3.9688l5.9531-1.2188q11.031-2.1094 16.281-7.4062t5.25-14.172q0-10.609-7.1094-16.078-7.0938-5.4688-20.812-5.4688-5.1719 0-11.016 1.1719-5.8281 1.1719-12.078 3.4688v10.156q6-3.3594 11.766-5.0781 5.7656-1.7031 11.328-1.7031 8.4375 0 13.031 3.3125 4.5938 3.3281 4.5938 9.4844 0 5.3594-3.2969 8.3906t-10.812 4.5469l-6.0156 1.1719q-11.031 2.1875-15.969 6.875-4.9219 4.6875-4.9219 13.047 0 9.6719 6.8125 15.234t18.766 5.5625q5.1406 0 10.453-0.9375 5.3281-0.92188 10.891-2.7656z"/>
</defs>
<use xlink:href="#aq"/>
</g>
</g>
<path d="m240.72 371.38 2.7839 4.7115q1.2209 2.0662 3.2872 0.84534l6.6658-3.9387q2.0662-1.2209 0.84534-3.2872l-2.7839-4.7115q-1.2209-2.0662-3.2872-0.84534l-6.6658 3.9387q-2.0662 1.2209-0.84534 3.2872z" clip-path="url(#a)" fill="#fff" stroke="#fff"/>
<g clip-path="url(#a)">
<g transform="translate(244.22 369.32) rotate(59.422) scale(.08 -.08)">
<use xlink:href="#m"/>
</g>
</g>
<path d="m509.64 424.18 2.5462-4.8441q1.1166-2.1244-1.0078-3.241l-6.8534-3.6023q-2.1244-1.1166-3.241 1.0078l-2.5462 4.8441q-1.1166 2.1244 1.0078 3.241l6.8534 3.6023q2.1244 1.1166 3.2411-1.0078z" clip-path="url(#a)" fill="#fff" stroke="#fff"/>
<g clip-path="url(#a)">
<g transform="translate(506.04 422.28) rotate(-62.272) scale(.08 -.08)">
<use xlink:href="#m"/>
</g>
</g>
<path d="m538.18 422.66 1.1422-4.6866q0.56831-2.3317-1.7634-2.9l-7.5223-1.8334q-2.3317-0.5683-2.9 1.7634l-1.1422 4.6866q-0.56831 2.3317 1.7634 2.9l7.5223 1.8334q2.3317 0.56831 2.9-1.7634z" clip-path="url(#a)" fill="#fff" stroke="#fff"/>
<g clip-path="url(#a)">
<g transform="translate(534.23 421.7) rotate(-76.303) scale(.08 -.08)">
<use xlink:href="#r"/>
</g>
</g>
<path d="m619.5 374.11 4.4779 3.1459q1.9638 1.3797 3.3435-0.58414l4.4509-6.3353q1.3797-1.9638-0.58414-3.3435l-4.4779-3.1459q-1.9638-1.3797-3.3435 0.58414l-4.4509 6.3353q-1.3797 1.9638 0.58414 3.3435z" clip-path="url(#a)" fill="#fff" stroke="#fff"/>
<g clip-path="url(#a)">
<g transform="translate(621.84 370.78) rotate(35.09) scale(.08 -.08)">
<use xlink:href="#m"/>
</g>
</g>
<path d="m555.23 416.26 0.32616 5.8459q0.13369 2.3963 2.53 2.2626l7.7305-0.4313q2.3963-0.13369 2.2626-2.53l-0.32616-5.8459q-0.13369-2.3963-2.53-2.2626l-7.7305 0.4313q-2.3963 0.1337-2.2626 2.53z" clip-path="url(#a)" fill="#fff" stroke="#fff"/>
<g clip-path="url(#a)">
<g transform="translate(559.29 416.04) rotate(86.807) scale(.08 -.08)">
<use xlink:href="#w"/>
</g>
</g>
<path d="m901.98 546.38v33.808q0 2.4 2.4 2.4h7.7425q2.4 0 2.4-2.4v-33.808q0-2.4-2.4-2.4h-7.7425q-2.4 0-2.4 2.4z" clip-path="url(#a)" fill="#fff" stroke="#fff"/>
<g clip-path="url(#a)">
<g transform="translate(906.04 546.38) rotate(90) scale(.08 -.08)">
<defs>
<path id="e" d="m-0.29688 72.906h61.672v-8.3125h-25.875v-64.594h-9.9062v64.594h-25.891z"/>
<path id="l" d="m56.203 29.594v-4.3906h-41.312q0.59375-9.2812 5.5938-14.141t13.938-4.8594q5.1719 0 10.031 1.2656t9.6562 3.8125v-8.5q-4.8438-2.0469-9.9219-3.125t-10.297-1.0781q-13.094 0-20.734 7.6094-7.6406 7.625-7.6406 20.625 0 13.422 7.25 21.297 7.25 7.8906 19.562 7.8906 11.031 0 17.453-7.1094 6.4219-7.0938 6.4219-19.297zm-8.9844 2.6406q-0.09375 7.3594-4.125 11.75-4.0312 4.4062-10.672 4.4062-7.5156 0-12.031-4.25t-5.2031-11.969z"/>
<path id="g" d="m41.109 46.297q-1.5156 0.875-3.2969 1.2812-1.7812 0.42188-3.9219 0.42188-7.625 0-11.703-4.9531t-4.0781-14.234v-28.812h-9.0312v54.688h9.0312v-8.5q2.8438 4.9844 7.375 7.3906 4.5469 2.4219 11.047 2.4219 0.92188 0 2.0469-0.125 1.125-0.10938 2.4844-0.35938z"/>
<path id="i" d="m52 44.188q3.375 6.0625 8.0625 8.9375t11.031 2.875q8.5469 0 13.188-5.9844 4.6406-5.9688 4.6406-17v-33.016h-9.0312v32.719q0 7.8594-2.7969 11.656-2.7812 3.8125-8.4844 3.8125-6.9844 0-11.047-4.6406-4.0469-4.625-4.0469-12.641v-30.906h-9.0312v32.719q0 7.9062-2.7812 11.688t-8.5938 3.7812q-6.8906 0-10.953-4.6562-4.0469-4.6562-4.0469-12.625v-30.906h-9.0312v54.688h9.0312v-8.5q3.0781 5.0312 7.375 7.4219t10.203 2.3906q5.9688 0 10.141-3.0312 4.1719-3.0156 6.1719-8.7812z"/>
<path id="k" d="m9.4219 54.688h8.9844v-54.688h-8.9844zm0 21.297h8.9844v-11.391h-8.9844z"/>
<path id="h" d="m54.891 33.016v-33.016h-8.9844v32.719q0 7.7656-3.0312 11.609-3.0312 3.8594-9.0781 3.8594-7.2812 0-11.484-4.6406-4.2031-4.625-4.2031-12.641v-30.906h-9.0312v54.688h9.0312v-8.5q3.2344 4.9375 7.5938 7.375 4.375 2.4375 10.094 2.4375 9.4219 0 14.25-5.8281 4.8438-5.8281 4.8438-17.156z"/>
<path id="f" d="m34.281 27.484q-10.891 0-15.094-2.4844t-4.2031-8.5q0-4.7812 3.1562-7.5938 3.1562-2.7969 8.5625-2.7969 7.4844 0 12 5.2969t4.5156 14.078v2zm17.922 3.7188v-31.203h-8.9844v8.2969q-3.0781-4.9688-7.6719-7.3438t-11.234-2.375q-8.3906 0-13.359 4.7188-4.9531 4.7188-4.9531 12.625 0 9.2188 6.1719 13.906 6.1875 4.6875 18.438 4.6875h12.609v0.89062q0 6.2031-4.0781 9.5938t-11.453 3.3906q-4.6875 0-9.1406-1.125-4.4375-1.125-8.5312-3.375v8.3125q4.9219 1.9062 9.5625 2.8438 4.6406 0.95312 9.0312 0.95312 11.875 0 17.734-6.1562 5.8594-6.1406 5.8594-18.641z"/>
<path id="j" d="m9.4219 75.984h8.9844v-75.984h-8.9844z"/>
</defs>
<use xlink:href="#e"/>
<use x="44.083984" xlink:href="#l"/>
<use x="105.607422" xlink:href="#g"/>
<use x="144.970703" xlink:href="#i"/>
<use x="242.382812" xlink:href="#k"/>
<use x="270.166016" xlink:href="#h"/>
<use x="333.544922" xlink:href="#f"/>
<use x="394.824219" xlink:href="#j"/>
</g>
</g>
<path d="m1031.2 473.54 3.5676-4.1498q1.5646-1.8199-0.25535-3.3845l-5.8711-5.0474q-1.8199-1.5646-3.3845 0.25535l-3.5676 4.1498q-1.5646 1.8199 0.25535 3.3845l5.8711 5.0474q1.8199 1.5646 3.3845-0.25535z" clip-path="url(#a)" fill="#fff" stroke="#fff"/>
<g clip-path="url(#a)">
<g transform="translate(1028.1 470.89) rotate(-49.315) scale(.08 -.08)">
<use xlink:href="#m"/>
</g>
</g>
<path d="m1075.4 469.99 0.059806-5.0784q0.028262-2.3998-2.3716-2.4281l-7.742-0.091174q-2.3998-0.028262-2.4281 2.3716l-0.059806 5.0784q-0.028262 2.3998 2.3716 2.4281l7.742 0.091174q2.3998 0.028262 2.4281-2.3716z" clip-path="url(#a)" fill="#fff" stroke="#fff"/>
<g clip-path="url(#a)">
<g transform="translate(1071.4 469.94) rotate(-89.325) scale(.08 -.08)">
<use xlink:href="#aq"/>
</g>
</g>
<path d="m1105.2 469.29 3.8467 4.4141q1.5768 1.8093 3.3861 0.23256l5.837-5.0868q1.8093-1.5768 0.23256-3.3861l-3.8467-4.4141q-1.5768-1.8093-3.3861-0.23256l-5.837 5.0868q-1.8093 1.5768-0.23256 3.3861z" clip-path="url(#a)" fill="#fff" stroke="#fff"/>
<g clip-path="url(#a)">
<g transform="translate(1108.2 466.62) rotate(48.929) scale(.08 -.08)">
<use xlink:href="#w"/>
</g>
</g>
<path d="m980.45 546.38v33.808q0 2.4 2.4 2.4h7.7425q2.4 0 2.4-2.4v-33.808q0-2.4-2.4-2.4h-7.7425q-2.4 0-2.4 2.4z" clip-path="url(#a)" fill="#fff" stroke="#fff"/>
<g clip-path="url(#a)">
<g transform="translate(984.51 546.38) rotate(90) scale(.08 -.08)">
<use xlink:href="#e"/>
<use x="44.083984" xlink:href="#l"/>
<use x="105.607422" xlink:href="#g"/>
<use x="144.970703" xlink:href="#i"/>
<use x="242.382812" xlink:href="#k"/>
<use x="270.166016" xlink:href="#h"/>
<use x="333.544922" xlink:href="#f"/>
<use x="394.824219" xlink:href="#j"/>
</g>
</g>
<path d="m1062.3 546.38v33.808q0 2.4 2.4 2.4h7.7425q2.4 0 2.4-2.4v-33.808q0-2.4-2.4-2.4h-7.7425q-2.4 0-2.4 2.4z" clip-path="url(#a)" fill="#fff" stroke="#fff"/>
<g clip-path="url(#a)">
<g transform="translate(1066.4 546.38) rotate(90) scale(.08 -.08)">
<use xlink:href="#e"/>
<use x="44.083984" xlink:href="#l"/>
<use x="105.607422" xlink:href="#g"/>
<use x="144.970703" xlink:href="#i"/>
<use x="242.382812" xlink:href="#k"/>
<use x="270.166016" xlink:href="#h"/>
<use x="333.544922" xlink:href="#f"/>
<use x="394.824219" xlink:href="#j"/>
</g>
</g>
<path d="m448.19 546.38v33.808q0 2.4 2.4 2.4h7.7425q2.4 0 2.4-2.4v-33.808q0-2.4-2.4-2.4h-7.7425q-2.4 0-2.4 2.4z" clip-path="url(#a)" fill="#fff" stroke="#fff"/>
<g clip-path="url(#a)">
<g transform="translate(452.26 546.38) rotate(90) scale(.08 -.08)">
<use xlink:href="#e"/>
<use x="44.083984" xlink:href="#l"/>
<use x="105.607422" xlink:href="#g"/>
<use x="144.970703" xlink:href="#i"/>
<use x="242.382812" xlink:href="#k"/>
<use x="270.166016" xlink:href="#h"/>
<use x="333.544922" xlink:href="#f"/>
<use x="394.824219" xlink:href="#j"/>
</g>
</g>
<path d="m502.78 546.38v33.808q0 2.4 2.4 2.4h7.7425q2.4 0 2.4-2.4v-33.808q0-2.4-2.4-2.4h-7.7425q-2.4 0-2.4 2.4z" clip-path="url(#a)" fill="#fff" stroke="#fff"/>
<g clip-path="url(#a)">
<g transform="translate(506.85 546.38) rotate(90) scale(.08 -.08)">
<use xlink:href="#e"/>
<use x="44.083984" xlink:href="#l"/>
<use x="105.607422" xlink:href="#g"/>
<use x="144.970703" xlink:href="#i"/>
<use x="242.382812" xlink:href="#k"/>
<use x="270.166016" xlink:href="#h"/>
<use x="333.544922" xlink:href="#f"/>
<use x="394.824219" xlink:href="#j"/>
</g>
</g>
<path d="m665.06 473.21 3.1353-4.5902q1.3537-1.9818-0.62815-3.3355l-6.3934-4.367q-1.9818-1.3537-3.3355 0.62815l-3.1353 4.5902q-1.3537 1.9818 0.62815 3.3355l6.3934 4.367q1.9818 1.3537 3.3355-0.62815z" clip-path="url(#a)" fill="#fff" stroke="#fff"/>
<g clip-path="url(#a)">
<g transform="translate(661.71 470.92) rotate(-55.665) scale(.08 -.08)">
<defs>
<path id="ar" d="m44.391 34.188q3.1719-1.0781 6.1719-4.5938t6.0312-9.6719l10.016-19.922h-10.609l-9.3125 18.703q-3.625 7.3281-7.0156 9.7188t-9.25 2.3906h-10.75v-30.812h-9.8594v72.906h22.266q12.5 0 18.656-5.2344 6.1562-5.2188 6.1562-15.766 0-6.8906-3.2031-11.438-3.2031-4.5312-9.2969-6.2812zm-24.719 30.609v-25.875h12.406q7.125 0 10.766 3.2969t3.6406 9.6875-3.6406 9.6406-10.766 3.25z"/>
</defs>
<use xlink:href="#ar"/>
</g>
</g>
<path d="m700.1 470.18 0.064443-5.4721q0.028262-2.3998-2.3716-2.4281l-7.742-0.091174q-2.3998-0.028261-2.4281 2.3716l-0.064443 5.4721q-0.028261 2.3998 2.3716 2.4281l7.742 0.091174q2.3998 0.028262 2.4281-2.3716z" clip-path="url(#a)" fill="#fff" stroke="#fff"/>
<g clip-path="url(#a)">
<g transform="translate(696.04 470.14) rotate(-89.325) scale(.08 -.08)">
<use xlink:href="#m"/>
</g>
</g>
<path d="m721.46 468.97 2.7524 3.9614q1.3694 1.9709 3.3404 0.60149l6.3583-4.4179q1.9709-1.3694 0.60149-3.3404l-2.7524-3.9614q-1.3694-1.9709-3.3404-0.60149l-6.3583 4.4179q-1.9709 1.3694-0.60149 3.3404z" clip-path="url(#a)" fill="#fff" stroke="#fff"/>
<g clip-path="url(#a)">
<g transform="translate(724.8 466.65) rotate(55.208) scale(.08 -.08)">
<use xlink:href="#r"/>
</g>
</g>
<path d="m622.2 546.38v33.808q0 2.4 2.4 2.4h7.7425q2.4 0 2.4-2.4v-33.808q0-2.4-2.4-2.4h-7.7425q-2.4 0-2.4 2.4z" clip-path="url(#a)" fill="#fff" stroke="#fff"/>
<g clip-path="url(#a)">
<g transform="translate(626.26 546.38) rotate(90) scale(.08 -.08)">
<use xlink:href="#e"/>
<use x="44.083984" xlink:href="#l"/>
<use x="105.607422" xlink:href="#g"/>
<use x="144.970703" xlink:href="#i"/>
<use x="242.382812" xlink:href="#k"/>
<use x="270.166016" xlink:href="#h"/>
<use x="333.544922" xlink:href="#f"/>
<use x="394.824219" xlink:href="#j"/>
</g>
</g>
<path d="m687.03 546.38v33.808q0 2.4 2.4 2.4h7.7425q2.4 0 2.4-2.4v-33.808q0-2.4-2.4-2.4h-7.7425q-2.4 0-2.4 2.4z" clip-path="url(#a)" fill="#fff" stroke="#fff"/>
<g clip-path="url(#a)">
<g transform="translate(691.09 546.38) rotate(90) scale(.08 -.08)">
<use xlink:href="#e"/>
<use x="44.083984" xlink:href="#l"/>
<use x="105.607422" xlink:href="#g"/>
<use x="144.970703" xlink:href="#i"/>
<use x="242.382812" xlink:href="#k"/>
<use x="270.166016" xlink:href="#h"/>
<use x="333.544922" xlink:href="#f"/>
<use x="394.824219" xlink:href="#j"/>
</g>
</g>
<path d="m755.26 546.38v33.808q0 2.4 2.4 2.4h7.7425q2.4 0 2.4-2.4v-33.808q0-2.4-2.4-2.4h-7.7425q-2.4 0-2.4 2.4z" clip-path="url(#a)" fill="#fff" stroke="#fff"/>
<g clip-path="url(#a)">
<g transform="translate(759.33 546.38) rotate(90) scale(.08 -.08)">
<use xlink:href="#e"/>
<use x="44.083984" xlink:href="#l"/>
<use x="105.607422" xlink:href="#g"/>
<use x="144.970703" xlink:href="#i"/>
<use x="242.382812" xlink:href="#k"/>
<use x="270.166016" xlink:href="#h"/>
<use x="333.544922" xlink:href="#f"/>
<use x="394.824219" xlink:href="#j"/>
</g>
</g>
<path d="m161.59 546.38v33.808q0 2.4 2.4 2.4h7.7425q2.4 0 2.4-2.4v-33.808q0-2.4-2.4-2.4h-7.7425q-2.4 0-2.4 2.4z" clip-path="url(#a)" fill="#fff" stroke="#fff"/>
<g clip-path="url(#a)">
<g transform="translate(165.66 546.38) rotate(90) scale(.08 -.08)">
<use xlink:href="#e"/>
<use x="44.083984" xlink:href="#l"/>
<use x="105.607422" xlink:href="#g"/>
<use x="144.970703" xlink:href="#i"/>
<use x="242.382812" xlink:href="#k"/>
<use x="270.166016" xlink:href="#h"/>
<use x="333.544922" xlink:href="#f"/>
<use x="394.824219" xlink:href="#j"/>
</g>
</g>
<path d="m192.3 546.38v33.808q0 2.4 2.4 2.4h7.7425q2.4 0 2.4-2.4v-33.808q0-2.4-2.4-2.4h-7.7425q-2.4 0-2.4 2.4z" clip-path="url(#a)" fill="#fff" stroke="#fff"/>
<g clip-path="url(#a)">
<g transform="translate(196.36 546.38) rotate(90) scale(.08 -.08)">
<use xlink:href="#e"/>
<use x="44.083984" xlink:href="#l"/>
<use x="105.607422" xlink:href="#g"/>
<use x="144.970703" xlink:href="#i"/>
<use x="242.382812" xlink:href="#k"/>
<use x="270.166016" xlink:href="#h"/>
<use x="333.544922" xlink:href="#f"/>
<use x="394.824219" xlink:href="#j"/>
</g>
</g>
<path d="m226.42 546.38v33.808q0 2.4 2.4 2.4h7.7425q2.4 0 2.4-2.4v-33.808q0-2.4-2.4-2.4h-7.7425q-2.4 0-2.4 2.4z" clip-path="url(#a)" fill="#fff" stroke="#fff"/>
<g clip-path="url(#a)">
<g transform="translate(230.48 546.38) rotate(90) scale(.08 -.08)">
<use xlink:href="#e"/>
<use x="44.083984" xlink:href="#l"/>
<use x="105.607422" xlink:href="#g"/>
<use x="144.970703" xlink:href="#i"/>
<use x="242.382812" xlink:href="#k"/>
<use x="270.166016" xlink:href="#h"/>
<use x="333.544922" xlink:href="#f"/>
<use x="394.824219" xlink:href="#j"/>
</g>
</g>
<path d="m224.16 473.88 4.0849-3.6417q1.7915-1.5971 0.1944-3.3885l-5.1522-5.7794q-1.5971-1.7915-3.3885-0.1944l-4.0849 3.6417q-1.7915 1.5971-0.1944 3.3885l5.1522 5.7794q1.5971 1.7915 3.3885 0.1944z" clip-path="url(#a)" fill="#fff" stroke="#fff"/>
<g clip-path="url(#a)">
<g transform="translate(221.46 470.84) rotate(-41.717) scale(.08 -.08)">
<use xlink:href="#m"/>
</g>
</g>
<path d="m279.3 470.49 0.3377-5.4621q0.1481-2.3954-2.2473-2.5435l-7.7277-0.47778q-2.3954-0.1481-2.5435 2.2473l-0.3377 5.4621q-0.1481 2.3954 2.2473 2.5435l7.7277 0.47778q2.3954 0.1481 2.5435-2.2473z" clip-path="url(#a)" fill="#fff" stroke="#fff"/>
<g clip-path="url(#a)">
<g transform="translate(275.24 470.24) rotate(-86.462) scale(.08 -.08)">
<use xlink:href="#m"/>
</g>
</g>
<path d="m286.85 466.94 1.8633 5.1455q0.81718 2.2566 3.0738 1.4394l7.2799-2.6363q2.2566-0.81718 1.4394-3.0738l-1.8633-5.1455q-0.81718-2.2566-3.0738-1.4394l-7.2799 2.6363q-2.2566 0.81718-1.4394 3.0738z" clip-path="url(#a)" fill="#fff" stroke="#fff"/>
<g clip-path="url(#a)">
<g transform="translate(290.67 465.55) rotate(70.093) scale(.08 -.08)">
<use xlink:href="#m"/>
</g>
</g>
<path d="m309.48 469.49 3.0618 3.7275q1.5234 1.8546 3.3779 0.33119l5.9829-4.9144q1.8546-1.5234 0.33119-3.3779l-3.0618-3.7275q-1.5234-1.8546-3.3779-0.33119l-5.9829 4.9144q-1.8546 1.5234-0.33119 3.3779z" clip-path="url(#a)" fill="#fff" stroke="#fff"/>
<g clip-path="url(#a)">
<g transform="translate(312.62 466.91) rotate(50.6) scale(.08 -.08)">
<use xlink:href="#r"/>
</g>
</g>
<path d="m263.95 546.38v33.808q0 2.4 2.4 2.4h7.7425q2.4 0 2.4-2.4v-33.808q0-2.4-2.4-2.4h-7.7425q-2.4 0-2.4 2.4z" clip-path="url(#a)" fill="#fff" stroke="#fff"/>
<g clip-path="url(#a)">
<g transform="translate(268.01 546.38) rotate(90) scale(.08 -.08)">
<use xlink:href="#e"/>
<use x="44.083984" xlink:href="#l"/>
<use x="105.607422" xlink:href="#g"/>
<use x="144.970703" xlink:href="#i"/>
<use x="242.382812" xlink:href="#k"/>
<use x="270.166016" xlink:href="#h"/>
<use x="333.544922" xlink:href="#f"/>
<use x="394.824219" xlink:href="#j"/>
</g>
</g>
<path d="m304.89 546.38v33.808q0 2.4 2.4 2.4h7.7425q2.4 0 2.4-2.4v-33.808q0-2.4-2.4-2.4h-7.7425q-2.4 0-2.4 2.4z" clip-path="url(#a)" fill="#fff" stroke="#fff"/>
<g clip-path="url(#a)">
<g transform="translate(308.96 546.38) rotate(90) scale(.08 -.08)">
<use xlink:href="#e"/>
<use x="44.083984" xlink:href="#l"/>
<use x="105.607422" xlink:href="#g"/>
<use x="144.970703" xlink:href="#i"/>
<use x="242.382812" xlink:href="#k"/>
<use x="270.166016" xlink:href="#h"/>
<use x="333.544922" xlink:href="#f"/>
<use x="394.824219" xlink:href="#j"/>
</g>
</g>
<path d="m349.25 546.38v33.808q0 2.4 2.4 2.4h7.7425q2.4 0 2.4-2.4v-33.808q0-2.4-2.4-2.4h-7.7425q-2.4 0-2.4 2.4z" clip-path="url(#a)" fill="#fff" stroke="#fff"/>
<g clip-path="url(#a)">
<g transform="translate(353.31 546.38) rotate(90) scale(.08 -.08)">
<use xlink:href="#e"/>
<use x="44.083984" xlink:href="#l"/>
<use x="105.607422" xlink:href="#g"/>
<use x="144.970703" xlink:href="#i"/>
<use x="242.382812" xlink:href="#k"/>
<use x="270.166016" xlink:href="#h"/>
<use x="333.544922" xlink:href="#f"/>
<use x="394.824219" xlink:href="#j"/>
</g>
</g>
<path d="m49.001 546.38v33.808q0 2.4 2.4 2.4h7.7425q2.4 0 2.4-2.4v-33.808q0-2.4-2.4-2.4h-7.7425q-2.4 0-2.4 2.4z" clip-path="url(#a)" fill="#fff" stroke="#fff"/>
<g clip-path="url(#a)">
<g transform="translate(53.065 546.38) rotate(90) scale(.08 -.08)">
<use xlink:href="#e"/>
<use x="44.083984" xlink:href="#l"/>
<use x="105.607422" xlink:href="#g"/>
<use x="144.970703" xlink:href="#i"/>
<use x="242.382812" xlink:href="#k"/>
<use x="270.166016" xlink:href="#h"/>
<use x="333.544922" xlink:href="#f"/>
<use x="394.824219" xlink:href="#j"/>
</g>
</g>
<path d="m59.237 546.38v33.808q0 2.4 2.4 2.4h7.7425q2.4 0 2.4-2.4v-33.808q0-2.4-2.4-2.4h-7.7425q-2.4 0-2.4 2.4z" clip-path="url(#a)" fill="#fff" stroke="#fff"/>
<g clip-path="url(#a)">
<g transform="translate(63.301 546.38) rotate(90) scale(.08 -.08)">
<use xlink:href="#e"/>
<use x="44.083984" xlink:href="#l"/>
<use x="105.607422" xlink:href="#g"/>
<use x="144.970703" xlink:href="#i"/>
<use x="242.382812" xlink:href="#k"/>
<use x="270.166016" xlink:href="#h"/>
<use x="333.544922" xlink:href="#f"/>
<use x="394.824219" xlink:href="#j"/>
</g>
</g>
<path d="m72.885 546.38v33.808q0 2.4 2.4 2.4h7.7425q2.4 0 2.4-2.4v-33.808q0-2.4-2.4-2.4h-7.7425q-2.4 0-2.4 2.4z" clip-path="url(#a)" fill="#fff" stroke="#fff"/>
<g clip-path="url(#a)">
<g transform="translate(76.949 546.38) rotate(90) scale(.08 -.08)">
<use xlink:href="#e"/>
<use x="44.083984" xlink:href="#l"/>
<use x="105.607422" xlink:href="#g"/>
<use x="144.970703" xlink:href="#i"/>
<use x="242.382812" xlink:href="#k"/>
<use x="270.166016" xlink:href="#h"/>
<use x="333.544922" xlink:href="#f"/>
<use x="394.824219" xlink:href="#j"/>
</g>
</g>
<path d="m107.28 470.8 0.58589-5.5278q0.25296-2.3866-2.1337-2.6396l-7.6994-0.81605q-2.3866-0.25296-2.6396 2.1337l-0.58589 5.5278q-0.25296 2.3866 2.1337 2.6396l7.6994 0.81605q2.3866 0.25296 2.6396-2.1337z" clip-path="url(#a)" fill="#fff" stroke="#fff"/>
<g clip-path="url(#a)">
<g transform="translate(103.24 470.37) rotate(-83.95) scale(.08 -.08)">
<use xlink:href="#ar"/>
</g>
</g>
<path d="m105.04 465.26 0.58878 5.5551q0.25296 2.3866 2.6396 2.1337l7.6994-0.81605q2.3866-0.25296 2.1337-2.6396l-0.58879-5.5551q-0.25296-2.3866-2.6396-2.1337l-7.6994 0.81605q-2.3866 0.25296-2.1337 2.6396z" clip-path="url(#a)" fill="#fff" stroke="#fff"/>
<g clip-path="url(#a)">
<g transform="translate(109.08 464.83) rotate(83.95) scale(.08 -.08)">
<defs>
<path id="aj" d="m64.406 67.281v-10.391q-4.9844 4.6406-10.625 6.9219-5.6406 2.2969-11.984 2.2969-12.5 0-19.141-7.6406t-6.6406-22.094q0-14.406 6.6406-22.047t19.141-7.6406q6.3438 0 11.984 2.2969t10.625 6.9375v-10.312q-5.1719-3.5156-10.969-5.2812-5.7812-1.75-12.219-1.75-16.562 0-26.094 10.125-9.5156 10.141-9.5156 27.672 0 17.578 9.5156 27.703 9.5312 10.141 26.094 10.141 6.5312 0 12.312-1.7344 5.7969-1.7344 10.875-5.2031z"/>
</defs>
<use xlink:href="#aj"/>
</g>
</g>
<path d="m89.944 546.38v33.808q0 2.4 2.4 2.4h7.7425q2.4 0 2.4-2.4v-33.808q0-2.4-2.4-2.4h-7.7425q-2.4 0-2.4 2.4z" clip-path="url(#a)" fill="#fff" stroke="#fff"/>
<g clip-path="url(#a)">
<g transform="translate(94.008 546.38) rotate(90) scale(.08 -.08)">
<use xlink:href="#e"/>
<use x="44.083984" xlink:href="#l"/>
<use x="105.607422" xlink:href="#g"/>
<use x="144.970703" xlink:href="#i"/>
<use x="242.382812" xlink:href="#k"/>
<use x="270.166016" xlink:href="#h"/>
<use x="333.544922" xlink:href="#f"/>
<use x="394.824219" xlink:href="#j"/>
</g>
</g>
<path d="m110.42 546.38v33.808q0 2.4 2.4 2.4h7.7425q2.4 0 2.4-2.4v-33.808q0-2.4-2.4-2.4h-7.7425q-2.4 0-2.4 2.4z" clip-path="url(#a)" fill="#fff" stroke="#fff"/>
<g clip-path="url(#a)">
<g transform="translate(114.48 546.38) rotate(90) scale(.08 -.08)">
<use xlink:href="#e"/>
<use x="44.083984" xlink:href="#l"/>
<use x="105.607422" xlink:href="#g"/>
<use x="144.970703" xlink:href="#i"/>
<use x="242.382812" xlink:href="#k"/>
<use x="270.166016" xlink:href="#h"/>
<use x="333.544922" xlink:href="#f"/>
<use x="394.824219" xlink:href="#j"/>
</g>
</g>
<path d="m134.3 546.38v33.808q0 2.4 2.4 2.4h7.7425q2.4 0 2.4-2.4v-33.808q0-2.4-2.4-2.4h-7.7425q-2.4 0-2.4 2.4z" clip-path="url(#a)" fill="#fff" stroke="#fff"/>
<g clip-path="url(#a)">
<g transform="translate(138.36 546.38) rotate(90) scale(.08 -.08)">
<use xlink:href="#e"/>
<use x="44.083984" xlink:href="#l"/>
<use x="105.607422" xlink:href="#g"/>
<use x="144.970703" xlink:href="#i"/>
<use x="242.382812" xlink:href="#k"/>
<use x="270.166016" xlink:href="#h"/>
<use x="333.544922" xlink:href="#f"/>
<use x="394.824219" xlink:href="#j"/>
</g>
</g>
<path d="m397.01 546.38v33.808q0 2.4 2.4 2.4h7.7425q2.4 0 2.4-2.4v-33.808q0-2.4-2.4-2.4h-7.7425q-2.4 0-2.4 2.4z" clip-path="url(#a)" fill="#fff" stroke="#fff"/>
<g clip-path="url(#a)">
<g transform="translate(401.08 546.38) rotate(90) scale(.08 -.08)">
<use xlink:href="#e"/>
<use x="44.083984" xlink:href="#l"/>
<use x="105.607422" xlink:href="#g"/>
<use x="144.970703" xlink:href="#i"/>
<use x="242.382812" xlink:href="#k"/>
<use x="270.166016" xlink:href="#h"/>
<use x="333.544922" xlink:href="#f"/>
<use x="394.824219" xlink:href="#j"/>
</g>
</g>
<path d="m560.79 546.38v33.808q0 2.4 2.4 2.4h7.7425q2.4 0 2.4-2.4v-33.808q0-2.4-2.4-2.4h-7.7425q-2.4 0-2.4 2.4z" clip-path="url(#a)" fill="#fff" stroke="#fff"/>
<g clip-path="url(#a)">
<g transform="translate(564.85 546.38) rotate(90) scale(.08 -.08)">
<use xlink:href="#e"/>
<use x="44.083984" xlink:href="#l"/>
<use x="105.607422" xlink:href="#g"/>
<use x="144.970703" xlink:href="#i"/>
<use x="242.382812" xlink:href="#k"/>
<use x="270.166016" xlink:href="#h"/>
<use x="333.544922" xlink:href="#f"/>
<use x="394.824219" xlink:href="#j"/>
</g>
</g>
<path d="m826.91 546.38v33.808q0 2.4 2.4 2.4h7.7425q2.4 0 2.4-2.4v-33.808q0-2.4-2.4-2.4h-7.7425q-2.4 0-2.4 2.4z" clip-path="url(#a)" fill="#fff" stroke="#fff"/>
<g clip-path="url(#a)">
<g transform="translate(830.98 546.38) rotate(90) scale(.08 -.08)">
<use xlink:href="#e"/>
<use x="44.083984" xlink:href="#l"/>
<use x="105.607422" xlink:href="#g"/>
<use x="144.970703" xlink:href="#i"/>
<use x="242.382812" xlink:href="#k"/>
<use x="270.166016" xlink:href="#h"/>
<use x="333.544922" xlink:href="#f"/>
<use x="394.824219" xlink:href="#j"/>
</g>
</g>
<path d="m1147.6 546.38v33.808q0 2.4 2.4 2.4h7.7425q2.4 0 2.4-2.4v-33.808q0-2.4-2.4-2.4h-7.7425q-2.4 0-2.4 2.4z" clip-path="url(#a)" fill="#fff" stroke="#fff"/>
<g clip-path="url(#a)">
<g transform="translate(1151.7 546.38) rotate(90) scale(.08 -.08)">
<use xlink:href="#e"/>
<use x="44.083984" xlink:href="#l"/>
<use x="105.607422" xlink:href="#g"/>
<use x="144.970703" xlink:href="#i"/>
<use x="242.382812" xlink:href="#k"/>
<use x="270.166016" xlink:href="#h"/>
<use x="333.544922" xlink:href="#f"/>
<use x="394.824219" xlink:href="#j"/>
</g>
</g>
<defs>
<path id="b" d="m0 8.6603c2.2967 0 4.4997-0.9125 6.1237-2.5365 1.624-1.624 2.5365-3.827 2.5365-6.1237s-0.9125-4.4997-2.5365-6.1237c-1.624-1.624-3.827-2.5365-6.1237-2.5365s-4.4997 0.9125-6.1237 2.5365c-1.624 1.624-2.5365 3.827-2.5365 6.1237s0.9125 4.4997 2.5365 6.1237c1.624 1.624 3.827 2.5365 6.1237 2.5365z"/>
</defs>
<g clip-path="url(#a)" fill="#ffffff" stroke="#ffffff">
<use x="55.272727" y="610.909091" xlink:href="#b"/>
<use x="65.508418" y="610.909091" xlink:href="#b"/>
<use x="79.156004" y="610.909091" xlink:href="#b"/>
<use x="96.215488" y="610.909091" xlink:href="#b"/>
<use x="116.686869" y="610.909091" xlink:href="#b"/>
<use x="140.570146" y="610.909091" xlink:href="#b"/>
<use x="167.86532" y="610.909091" xlink:href="#b"/>
<use x="198.572391" y="610.909091" xlink:href="#b"/>
<use x="232.691358" y="610.909091" xlink:href="#b"/>
<use x="270.222222" y="610.909091" xlink:href="#b"/>
<use x="311.164983" y="610.909091" xlink:href="#b"/>
<use x="355.519641" y="610.909091" xlink:href="#b"/>
<use x="403.286195" y="610.909091" xlink:href="#b"/>
<use x="454.464646" y="610.909091" xlink:href="#b"/>
<use x="509.054994" y="610.909091" xlink:href="#b"/>
<use x="567.057239" y="610.909091" xlink:href="#b"/>
<use x="628.47138" y="610.909091" xlink:href="#b"/>
<use x="693.297419" y="610.909091" xlink:href="#b"/>
<use x="761.535354" y="610.909091" xlink:href="#b"/>
<use x="833.185185" y="610.909091" xlink:href="#b"/>
<use x="908.246914" y="610.909091" xlink:href="#b"/>
<use x="986.720539" y="610.909091" xlink:href="#b"/>
<use x="1068.606061" y="610.909091" xlink:href="#b"/>
<use x="1153.903479" y="610.909091" xlink:href="#b"/>
<use x="1160.727273" y="224.599832" xlink:href="#b"/>
<use x="1160.727273" y="224.599832" xlink:href="#b"/>
<use x="525.839039" y="29.090909" xlink:href="#b"/>
<use x="525.839039" y="126.943784" xlink:href="#b"/>
<use x="525.839039" y="224.599832" xlink:href="#b"/>
<use x="76.597082" y="322.009456" xlink:href="#b"/>
<use x="218.830527" y="322.009456" xlink:href="#b"/>
<use x="556.252899" y="322.009456" xlink:href="#b"/>
<use x="908.246914" y="515.661385" xlink:href="#b"/>
<use x="1069.74336" y="419.088678" xlink:href="#b"/>
<use x="986.720539" y="515.661385" xlink:href="#b"/>
<use x="1068.606061" y="515.661385" xlink:href="#b"/>
<use x="454.464646" y="515.661385" xlink:href="#b"/>
<use x="509.054994" y="515.661385" xlink:href="#b"/>
<use x="694.434718" y="419.088678" xlink:href="#b"/>
<use x="628.47138" y="515.661385" xlink:href="#b"/>
<use x="693.297419" y="515.661385" xlink:href="#b"/>
<use x="761.535354" y="515.661385" xlink:href="#b"/>
<use x="167.86532" y="515.661385" xlink:href="#b"/>
<use x="198.572391" y="515.661385" xlink:href="#b"/>
<use x="232.691358" y="515.661385" xlink:href="#b"/>
<use x="276.193042" y="419.088678" xlink:href="#b"/>
<use x="270.222222" y="515.661385" xlink:href="#b"/>
<use x="311.164983" y="515.661385" xlink:href="#b"/>
<use x="355.519641" y="515.661385" xlink:href="#b"/>
<use x="55.272727" y="515.661385" xlink:href="#b"/>
<use x="65.508418" y="515.661385" xlink:href="#b"/>
<use x="79.156004" y="515.661385" xlink:href="#b"/>
<use x="106.451178" y="419.088678" xlink:href="#b"/>
<use x="96.215488" y="515.661385" xlink:href="#b"/>
<use x="116.686869" y="515.661385" xlink:href="#b"/>
<use x="140.570146" y="515.661385" xlink:href="#b"/>
<use x="403.286195" y="515.661385" xlink:href="#b"/>
<use x="567.057239" y="515.661385" xlink:href="#b"/>
<use x="833.185185" y="515.661385" xlink:href="#b"/>
<use x="1153.903479" y="515.661385" xlink:href="#b"/>
</g>
<g clip-path="url(#a)">
<g transform="translate(29.864 613.67) scale(.1 -.1)">
<defs>
<path id="bh" d="m9.8125 72.906h9.8594v-29.891h35.844v29.891h9.8594v-72.906h-9.8594v34.719h-35.844v-34.719h-9.8594z"/>
<path id="u" d="m34.281 27.484q-10.891 0-15.094-2.4844t-4.2031-8.5q0-4.7812 3.1562-7.5938 3.1562-2.7969 8.5625-2.7969 7.4844 0 12 5.2969t4.5156 14.078v2zm17.922 3.7188v-31.203h-8.9844v8.2969q-3.0781-4.9688-7.6719-7.3438t-11.234-2.375q-8.3906 0-13.359 4.7188-4.9531 4.7188-4.9531 12.625 0 9.2188 6.1719 13.906 6.1875 4.6875 18.438 4.6875h12.609v0.89062q0 6.2031-4.0781 9.5938t-11.453 3.3906q-4.6875 0-9.1406-1.125-4.4375-1.125-8.5312-3.375v8.3125q4.9219 1.9062 9.5625 2.8438 4.6406 0.95312 9.0312 0.95312 11.875 0 17.734-6.1562 5.8594-6.1406 5.8594-18.641z"/>
<path id="ap" d="m56.297 54.688v-54.688h-9.0312v47.516h-29.156v-47.516h-9.0312v54.688z"/>
<path id="af" d="m18.109 8.2031v-29h-9.0312v75.484h9.0312v-8.2969q2.8438 4.875 7.1562 7.2344 4.3281 2.375 10.328 2.375 9.9688 0 16.188-7.9062 6.2344-7.9062 6.2344-20.797t-6.2344-20.812q-6.2188-7.9062-16.188-7.9062-6 0-10.328 2.375-4.3125 2.375-7.1562 7.25zm30.578 19.094q0 9.9062-4.0781 15.547t-11.203 5.6406q-7.1406 0-11.219-5.6406t-4.0781-15.547 4.0781-15.547 11.219-5.6406q7.125 0 11.203 5.6406t4.0781 15.547z"/>
<path id="ae" d="m48.781 52.594v-8.4062q-3.8125 2.1094-7.6406 3.1562t-7.7344 1.0469q-8.75 0-13.594-5.5469-4.8281-5.5312-4.8281-15.547t4.8281-15.562q4.8438-5.5312 13.594-5.5312 3.9062 0 7.7344 1.0469t7.6406 3.1562v-8.3125q-3.7656-1.75-7.7969-2.625-4.0156-0.89062-8.5625-0.89062-12.359 0-19.641 7.7656-7.2656 7.7656-7.2656 20.953 0 13.375 7.3438 21.031 7.3594 7.6719 20.156 7.6719 4.1406 0 8.0938-0.85938 3.9531-0.84375 7.6719-2.5469z"/>
<path id="t" d="m9.0781 54.688h9.0312v-22.312h29.156v22.312h9.0312v-54.688h-9.0312v25.203h-29.156v-25.203h-9.0312z"/>
<path id="p" d="m30.609 48.391q-7.2188 0-11.422-5.6406t-4.2031-15.453 4.1719-15.453q4.1875-5.6406 11.453-5.6406 7.1875 0 11.375 5.6562 4.2031 5.6719 4.2031 15.438 0 9.7188-4.2031 15.406-4.1875 5.6875-11.375 5.6875zm0 7.6094q11.719 0 18.406-7.625 6.7031-7.6094 6.7031-21.078 0-13.422-6.7031-21.078-6.6875-7.6406-18.406-7.6406-11.766 0-18.438 7.6406-6.6562 7.6562-6.6562 21.078 0 13.469 6.6562 21.078 6.6719 7.625 18.438 7.625z"/>
</defs>
<use xlink:href="#bh"/>
<use x="75.195312" xlink:href="#u"/>
<use x="136.474609" xlink:href="#ap"/>
<use x="201.855469" xlink:href="#af"/>
<use x="265.332031" xlink:href="#u"/>
<use x="326.611328" xlink:href="#ae"/>
<use x="381.591797" xlink:href="#t"/>
<use x="446.972656" xlink:href="#p"/>
</g>
</g>
<g clip-path="url(#a)">
<g transform="translate(58.648 613.67) scale(.1 -.1)">
<defs>
<path id="s" d="m2.9375 54.688h52.391v-7.1719h-21.781v-47.516h-8.8438v47.516h-21.766z"/>
<path id="ba" d="m61.047 54.688h8.9844v-54.688h-8.9844zm4.5 1.3125m-22.094-39.781q0 4.3906-3.2031 6.6875-3.1875 2.2969-9.3438 2.2969h-12.797v-18.031h12.797q6.1562 0 9.3438 2.3125 3.2031 2.3281 3.2031 6.7344zm-34.375 38.469h9.0312v-22.312h13.188q10.453 0 16.094-3.9844 5.6406-3.9688 5.6406-12.172t-5.6406-12.219q-5.6406-4-16.094-4h-22.219z"/>
</defs>
<use xlink:href="#s"/>
<use x="58.251953" xlink:href="#ba"/>
</g>
</g>
<g clip-path="url(#a)">
<g transform="translate(61.851 613.67) scale(.1 -.1)">
<defs>
<path id="au" d="m55.906 54.688v-54.688h-8.9375v43.891l-26.359-43.891h-11.531v54.688h8.9375v-43.797l26.328 43.797z"/>
<path id="ah" d="m21.625 7.1719h26.078v40.344h-18.891v-6.8438q0-20.109-5.7656-30.859zm-13.031 0q4.4375 1.9531 6.3906 6.1094 4.7969 10.297 4.7969 31.062v10.344h36.953v-47.516h7.1875v-20.984h-7.1875v13.812h-44.328v-13.812h-7.1875v20.984z"/>
<path id="q" d="m56.203 29.594v-4.3906h-41.312q0.59375-9.2812 5.5938-14.141t13.938-4.8594q5.1719 0 10.031 1.2656t9.6562 3.8125v-8.5q-4.8438-2.0469-9.9219-3.125t-10.297-1.0781q-13.094 0-20.734 7.6094-7.6406 7.625-7.6406 20.625 0 13.422 7.25 21.297 7.25 7.8906 19.562 7.8906 11.031 0 17.453-7.1094 6.4219-7.0938 6.4219-19.297zm-8.9844 2.6406q-0.09375 7.3594-4.125 11.75-4.0312 4.4062-10.672 4.4062-7.5156 0-12.031-4.25t-5.2031-11.969z"/>
<path id="bb" d="m50.25 7.1719h23.141v47.516h9.0312v-54.688h-73.344v54.688h9.0312v-47.516h23.109v47.516h9.0312z"/>
<path id="an" d="m43.453 16.219q0 4.3906-3.2031 6.6875-3.1875 2.2969-9.3438 2.2969h-12.797v-18.031h12.797q6.1562 0 9.3438 2.3125 3.2031 2.3281 3.2031 6.7344zm-34.375 38.469h9.0312v-22.312h13.188q10.453 0 16.094-3.9844 5.6406-3.9688 5.6406-12.172t-5.6406-12.219q-5.6406-4-16.094-4h-22.219z"/>
</defs>
<use xlink:href="#au"/>
<use x="64.990234" xlink:href="#ah"/>
<use x="134.130859" xlink:href="#q"/>
<use x="195.654297" xlink:href="#bb"/>
<use x="287.158203" xlink:href="#an"/>
</g>
</g>
<g clip-path="url(#a)">
<g transform="translate(90.407 613.67) scale(.1 -.1)">
<use xlink:href="#ae"/>
<use x="54.980469" xlink:href="#p"/>
</g>
</g>
<g clip-path="url(#a)">
<g transform="translate(103.34 613.67) scale(.1 -.1)">
<defs>
<path id="ag" d="m9.0781 54.688h13.141l15.531-36.625 15.578 36.625h13.031v-54.688h-9.0312v46.094l-15.094-35.594h-8.9844l-15.141 35.594v-46.094h-9.0312z"/>
<path id="be" d="m55.906 54.688v-54.688h-8.9375v43.891l-26.359-43.891h-11.531v54.688h8.9375v-43.797l26.328 43.797zm-38.688 20.828h5.7656q0.53125-3.6562 2.8906-5.5 2.375-1.8281 6.625-1.8281 4.2031 0 6.5469 1.8125t2.9688 5.5156h5.7656q-0.48438-6.9844-4.3438-10.5t-10.938-3.5156-10.938 3.5156-4.3438 10.5z"/>
</defs>
<use xlink:href="#ag"/>
<use x="75.439453" xlink:href="#t"/>
<use x="140.820312" xlink:href="#p"/>
<use x="202.001953" xlink:href="#be"/>
</g>
</g>
<g clip-path="url(#a)">
<g transform="translate(138.98 613.67) scale(.1 -.1)">
<defs>
<path id="d" d="m10.688 12.406h10.312v-12.406h-10.312z"/>
</defs>
<use xlink:href="#d"/>
</g>
</g>
<g clip-path="url(#a)">
<g transform="translate(155.57 613.67) scale(.1 -.1)">
<defs>
<path id="av" d="m-0.29688 72.906h61.672v-8.3125h-25.875v-64.594h-9.9062v64.594h-25.891z"/>
<path id="z" d="m31.109 56q11.719 0 18.406-7.625 6.6875-7.6094 6.6875-21.078 0-13.422-6.6875-21.078-6.6875-7.6406-18.406-7.6406-11.766 0-18.266 7.4219t-6.8438 21.297l-0.28125 11.188q-0.25 5.7969-0.25 7.8125 0 7.8125 2.8281 13.562 4.4531 9.0312 12.141 12.938t20.578 4.0156q5.9531 0.046875 8.5938 0.875l2.4844-7.125q-2.3906-0.98438-4.5781-1.0312l-12.219-0.82812q-6.1406-0.4375-9.8594-2.5938-9.7188-5.7031-10.641-13.172l-0.34375-2.7344q6.3438 5.7969 16.656 5.7969zm0-7.6094q-7.2344 0-11.438-5.6406-4.1875-5.6406-4.1875-15.453t4.1719-15.453 11.453-5.6406q7.1719 0 11.375 5.6562 4.2031 5.6719 4.2031 15.438 0 9.7188-4.2031 15.406t-11.375 5.6875z"/>
</defs>
<use xlink:href="#av"/>
<use x="61.083984" xlink:href="#q"/>
<use x="122.607422" xlink:href="#z"/>
<use x="184.277344" xlink:href="#q"/>
</g>
</g>
<g clip-path="url(#a)">
<g transform="translate(183.08 613.75) scale(.1 -.1)">
<defs>
<path id="ao" d="m32.172-5.0781q-3.7969-9.7656-7.4219-12.734-3.6094-2.9844-9.6562-2.9844h-7.1875v7.5156h5.2812q3.7031 0 5.75 1.7656 2.0625 1.75 4.5469 8.2969l1.6094 4.0938-22.109 53.812h9.5156l17.094-42.766 17.094 42.766h9.5156z"/>
</defs>
<use xlink:href="#z"/>
<use x="61.669922" xlink:href="#ao"/>
<use x="120.849609" xlink:href="#ah"/>
<use x="189.990234" xlink:href="#q"/>
<use x="251.513672" xlink:href="#s"/>
</g>
</g>
<g clip-path="url(#a)">
<g transform="translate(214.08 613.67) scale(.1 -.1)">
<defs>
<path id="bc" d="m3.7188 0v7.4688q8.875 1.375 11.609 7.5156 3.3281 8.6562 3.3281 30.766v8.9375h36.953v-54.688h-8.9844v47.516h-18.984v-5.4219q0-21.094-4.2969-30.562-4.5938-10.109-19.625-11.531z"/>
</defs>
<use xlink:href="#z"/>
<use x="61.669922" xlink:href="#p"/>
<use x="122.851562" xlink:href="#bc"/>
<use x="186.767578" xlink:href="#an"/>
<use x="245.703125" xlink:href="#t"/>
<use x="311.083984" xlink:href="#p"/>
</g>
</g>
<g clip-path="url(#a)">
<g transform="translate(263.89 613.67) scale(.1 -.1)">
<use xlink:href="#t"/>
<use x="65.380859" xlink:href="#u"/>
</g>
</g>
<g clip-path="url(#a)">
<g transform="translate(298.04 613.67) scale(.1 -.1)">
<defs>
<path id="am" d="m18.453 38.922q0-4.0625 3.125-6.3594 3.125-2.2812 8.9375-2.2812h12.109v17.234h-12.109q-5.8125 0-8.9375-2.25t-3.125-6.3438zm-12.781-38.922 16.688 23.969q-5.6562 1.2812-9.4219 4.625-3.75 3.3438-3.75 10.328 0 7.9062 5.2344 11.828 5.25 3.9375 15.859 3.9375h21.375v-54.688h-9.0312v23.094h-11.172l-16.125-23.094z"/>
</defs>
<use xlink:href="#ag"/>
<use x="75.439453" xlink:href="#q"/>
<use x="136.962891" xlink:href="#t"/>
<use x="202.34375" xlink:href="#am"/>
</g>
</g>
<g clip-path="url(#a)">
<g transform="translate(330.92 613.67) scale(.1 -.1)">
<use xlink:href="#ae"/>
<use x="54.980469" xlink:href="#ag"/>
<use x="130.419922" xlink:href="#p"/>
<use x="191.601562" xlink:href="#s"/>
<use x="249.853516" xlink:href="#af"/>
<use x="313.330078" xlink:href="#q"/>
<use x="374.853516" xlink:href="#s"/>
<use x="433.105469" xlink:href="#an"/>
</g>
</g>
<g clip-path="url(#a)">
<g transform="translate(401.7 613.67) scale(.1 -.1)">
<use xlink:href="#d"/>
</g>
</g>
<g clip-path="url(#a)">
<g transform="translate(442.17 613.67) scale(.1 -.1)">
<use xlink:href="#av"/>
<use x="61.083984" xlink:href="#q"/>
<use x="122.607422" xlink:href="#z"/>
<use x="184.277344" xlink:href="#q"/>
</g>
</g>
<g clip-path="url(#a)">
<g transform="translate(480.39 613.67) scale(.1 -.1)">
<defs>
<path id="bd" d="m9.0781 54.688h8.9375v-25.688l25.344 25.688h11.031l-20.891-21.141 23.578-33.547h-10.062l-19.375 27.594-9.625-9.7656v-17.828h-8.9375z"/>
<path id="bf" d="m40.578 54.688h8.9375v-25.688l23.875 25.688h10.453l-19.641-21.047 22.469-33.641h-9.625l-18.406 27.641-9.125-9.8125v-17.828h-8.9375v17.828l-9.125 9.8125-18.422-27.641h-9.6094l22.453 33.641-19.625 21.047h10.453l23.875-25.688z"/>
</defs>
<use xlink:href="#ap"/>
<use x="65.380859" xlink:href="#p"/>
<use x="126.5625" xlink:href="#bd"/>
<use x="186.962891" xlink:href="#u"/>
<use x="248.242188" xlink:href="#bf"/>
<use x="338.330078" xlink:href="#q"/>
<use x="399.853516" xlink:href="#s"/>
<use x="458.105469" xlink:href="#ae"/>
<use x="513.085938" xlink:href="#am"/>
</g>
</g>
<g clip-path="url(#a)">
<g transform="translate(565.47 613.67) scale(.1 -.1)">
<defs>
<path id="at" d="m11.719 12.406h10.297v-8.4062l-8-15.625h-6.2969l4 15.625z"/>
</defs>
<use xlink:href="#at"/>
</g>
</g>
<g clip-path="url(#a)">
<g transform="translate(613 613.75) scale(.1 -.1)">
<use xlink:href="#z"/>
<use x="61.669922" xlink:href="#ao"/>
<use x="120.849609" xlink:href="#ah"/>
<use x="189.990234" xlink:href="#s"/>
<use x="248.242188" xlink:href="#p"/>
</g>
</g>
<g clip-path="url(#a)">
<g transform="translate(690.29 613.67) scale(.1 -.1)">
<use xlink:href="#am"/>
</g>
</g>
<g clip-path="url(#a)">
<g transform="translate(741.11 613.67) scale(.1 -.1)">
<defs>
<path id="ay" d="m53.609 48.391q-7.2188 0-11.422-5.6406t-4.2031-15.453 4.1719-15.453q4.1875-5.6406 11.453-5.6406 7.1875 0 11.375 5.6562 4.2031 5.6719 4.2031 15.438 0 9.7188-4.2031 15.406-4.1875 5.6875-11.375 5.6875zm-24.797-15.531q0.92188 9.2812 7 16.203 6.0781 6.9375 17.797 6.9375t18.406-7.625q6.7031-7.6094 6.7031-21.078 0-13.422-6.7031-21.078-6.6875-7.6406-18.406-7.6406-11.766 0-18.188 7.375t-6.8594 19.484h-10.156v-25.438h-8.9844v54.688h8.9844v-21.828z"/>
</defs>
<use xlink:href="#ao"/>
<use x="59.179688" xlink:href="#ag"/>
<use x="134.619141" xlink:href="#au"/>
<use x="199.609375" xlink:href="#af"/>
<use x="263.085938" xlink:href="#u"/>
<use x="324.365234" xlink:href="#ay"/>
</g>
</g>
<g clip-path="url(#a)">
<g transform="translate(831.6 613.67) scale(.1 -.1)">
<use xlink:href="#at"/>
</g>
</g>
<g clip-path="url(#a)">
<g transform="translate(901.92 613.67) scale(.1 -.1)">
<use xlink:href="#t"/>
<use x="65.380859" xlink:href="#p"/>
</g>
</g>
<g clip-path="url(#a)">
<g transform="translate(978 613.67) scale(.1 -.1)">
<defs>
<path id="az" d="m5.5156 10.406q7.7188-4.2031 15.391-4.2031 7.1719 0 12.297 4.1719t6.0625 14.828h-27.734v7.1719h27.438q-0.59375 5.125-4.4844 10.562-3.875 5.4531-13.578 5.4531-7.5312 0-15.391-4.2031v8.4062q7.6719 3.4062 15.781 3.4062 12.781 0 20.125-7.7344 7.3594-7.7344 7.3594-20.969 0-13.188-7.1562-20.953t-19.703-7.7656q-9.2188 0-16.406 3.5156z"/>
</defs>
<use xlink:href="#az"/>
<use x="54.882812" xlink:href="#s"/>
<use x="113.134766" xlink:href="#p"/>
</g>
</g>
<g clip-path="url(#a)">
<g transform="translate(1043.3 613.67) scale(.1 -.1)">
<defs>
<path id="bg" d="m18.062 25.203v-18.031h12.797q6.1562 0 9.375 2.3125 3.2188 2.3281 3.2188 6.7344 0 4.3906-3.2188 6.6875t-9.375 2.2969zm0 22.312v-15.141h11.828q5.0781 0 8.2969 2.0156 3.2188 2.0312 3.2188 5.6562 0 3.6094-3.2188 5.5312-3.2188 1.9375-8.2969 1.9375zm-8.9844 7.1719h21.391q9.625 0 14.797-3.5156t5.1719-10.016q0-5.0156-2.6406-7.9844-2.625-2.9531-7.8125-3.6719 6.2031-1.1719 9.625-4.8906 3.4219-3.7031 3.4219-9.2812 0-7.3125-5.6406-11.328-5.6406-4-16.094-4h-22.219z"/>
</defs>
<use xlink:href="#t"/>
<use x="65.380859" xlink:href="#q"/>
<use x="126.904297" xlink:href="#ap"/>
<use x="192.285156" xlink:href="#af"/>
<use x="255.761719" xlink:href="#u"/>
<use x="317.041016" xlink:href="#bg"/>
<use x="375.976562" xlink:href="#ah"/>
<use x="445.117188" xlink:href="#u"/>
</g>
</g>
<g clip-path="url(#a)">
<g transform="translate(1149.1 613.67) scale(.1 -.1)">
<use xlink:href="#d"/>
<use x="31.787109" xlink:href="#d"/>
<use x="63.574219" xlink:href="#d"/>
</g>
</g>
<g clip-path="url(#a)">
<g transform="translate(1139.6 227.36) scale(.1 -.1)">
<defs>
<path id="v" d="m9.8125 72.906h9.8594v-72.906h-9.8594z"/>
<path id="as" d="m9.8125 72.906h14.703l18.594-49.609 18.703 49.609h14.703v-72.906h-9.625v64.016l-18.797-50h-9.9062l-18.797 50v-64.016h-9.5781z"/>
</defs>
<use xlink:href="#v"/>
<use x="29.492188" xlink:href="#as"/>
<use x="115.771484" xlink:href="#r"/>
<use x="176.074219" xlink:href="#ai"/>
<use x="231.787109" xlink:href="#v"/>
<use x="261.279297" xlink:href="#aj"/>
<use x="331.103516" xlink:href="#v"/>
<use x="360.595703" xlink:href="#e"/>
</g>
</g>
<g clip-path="url(#a)">
<g transform="translate(1139.6 227.36) scale(.1 -.1)">
<use xlink:href="#v"/>
<use x="29.492188" xlink:href="#as"/>
<use x="115.771484" xlink:href="#r"/>
<use x="176.074219" xlink:href="#ai"/>
<use x="231.787109" xlink:href="#v"/>
<use x="261.279297" xlink:href="#aj"/>
<use x="331.103516" xlink:href="#v"/>
<use x="360.595703" xlink:href="#e"/>
</g>
</g>
<g clip-path="url(#a)">
<g transform="translate(517.89 31.85) scale(.1 -.1)">
<defs>
<path id="c" d="m12.406 8.2969h16.109v55.625l-17.531-3.5156v8.9844l17.438 3.5156h9.8594v-64.609h16.109v-8.2969h-41.984z"/>
</defs>
<use xlink:href="#c"/>
<use x="63.623047" xlink:href="#d"/>
<use x="95.410156" xlink:href="#c"/>
</g>
</g>
<g clip-path="url(#a)">
<g transform="translate(517.89 129.7) scale(.1 -.1)">
<defs>
<path id="o" d="m19.188 8.2969h34.422v-8.2969h-46.281v8.2969q5.6094 5.8125 15.297 15.594 9.7031 9.7969 12.188 12.641 4.7344 5.3125 6.6094 9 1.8906 3.6875 1.8906 7.25 0 5.8125-4.0781 9.4688-4.0781 3.6719-10.625 3.6719-4.6406 0-9.7969-1.6094-5.1406-1.6094-11-4.8906v9.9688q5.9531 2.3906 11.125 3.6094 5.1875 1.2188 9.4844 1.2188 11.328 0 18.062-5.6719 6.7344-5.6562 6.7344-15.125 0-4.5-1.6875-8.5312-1.6719-4.0156-6.125-9.4844-1.2188-1.4219-7.7656-8.1875-6.5312-6.7656-18.453-18.922z"/>
</defs>
<use xlink:href="#c"/>
<use x="63.623047" xlink:href="#d"/>
<use x="95.410156" xlink:href="#o"/>
</g>
</g>
<g clip-path="url(#a)">
<g transform="translate(517.89 227.36) scale(.1 -.1)">
<defs>
<path id="ad" d="m10.797 72.906h38.719v-8.3125h-29.688v-17.859q2.1406 0.73438 4.2812 1.0938 2.1562 0.35938 4.3125 0.35938 12.203 0 19.328-6.6875 7.1406-6.6875 7.1406-18.109 0-11.766-7.3281-18.297-7.3281-6.5156-20.656-6.5156-4.5938 0-9.3594 0.78125-4.75 0.78125-9.8281 2.3438v9.9219q4.3906-2.3906 9.0781-3.5625t9.9062-1.1719q8.4531 0 13.375 4.4375 4.9375 4.4375 4.9375 12.062 0 7.6094-4.9375 12.047-4.9219 4.4531-13.375 4.4531-3.9531 0-7.8906-0.875-3.9219-0.875-8.0156-2.7344z"/>
</defs>
<use xlink:href="#c"/>
<use x="63.623047" xlink:href="#d"/>
<use x="95.410156" xlink:href="#ad"/>
</g>
</g>
<g clip-path="url(#a)">
<g transform="translate(68.646 324.77) scale(.1 -.1)">
<defs>
<path id="ak" d="m33.016 40.375q-6.6406 0-10.531-4.5469-3.875-4.5312-3.875-12.438 0-7.8594 3.875-12.438 3.8906-4.5625 10.531-4.5625t10.516 4.5625q3.875 4.5781 3.875 12.438 0 7.9062-3.875 12.438-3.875 4.5469-10.516 4.5469zm19.578 30.922v-8.9844q-3.7188 1.75-7.5 2.6719-3.7812 0.9375-7.5 0.9375-9.7656 0-14.922-6.5938-5.1406-6.5938-5.875-19.922 2.875 4.25 7.2188 6.5156 4.3594 2.2656 9.5781 2.2656 10.984 0 17.359-6.6719 6.375-6.6562 6.375-18.125 0-11.234-6.6406-18.031-6.6406-6.7812-17.672-6.7812-12.656 0-19.344 9.6875-6.6875 9.7031-6.6875 28.109 0 17.281 8.2031 27.562t22.016 10.281q3.7188 0 7.5-0.73438t7.8906-2.1875z"/>
</defs>
<use xlink:href="#c"/>
<use x="63.623047" xlink:href="#d"/>
<use x="95.410156" xlink:href="#ak"/>
</g>
</g>
<g clip-path="url(#a)">
<g transform="translate(210.88 324.77) scale(.1 -.1)">
<defs>
<path id="ac" d="m8.2031 72.906h46.875v-4.2031l-26.469-68.703h-10.297l24.906 64.594h-35.016z"/>
</defs>
<use xlink:href="#c"/>
<use x="63.623047" xlink:href="#d"/>
<use x="95.410156" xlink:href="#ac"/>
</g>
</g>
<g clip-path="url(#a)">
<g transform="translate(548.3 324.77) scale(.1 -.1)">
<defs>
<path id="ab" d="m31.781 34.625q-7.0312 0-11.062-3.7656-4.0156-3.7656-4.0156-10.344 0-6.5938 4.0156-10.359 4.0312-3.7656 11.062-3.7656t11.078 3.7812q4.0625 3.7969 4.0625 10.344 0 6.5781-4.0312 10.344-4.0156 3.7656-11.109 3.7656zm-9.8594 4.1875q-6.3438 1.5625-9.8906 5.9062-3.5312 4.3594-3.5312 10.609 0 8.7344 6.2188 13.812 6.2344 5.0781 17.062 5.0781 10.891 0 17.094-5.0781t6.2031-13.812q0-6.25-3.5469-10.609-3.5312-4.3438-9.8281-5.9062 7.125-1.6562 11.094-6.5 3.9844-4.8281 3.9844-11.797 0-10.609-6.4688-16.281-6.4688-5.6562-18.531-5.6562-12.047 0-18.531 5.6562-6.4688 5.6719-6.4688 16.281 0 6.9688 4 11.797 4.0156 4.8438 11.141 6.5zm-3.6094 15.578q0-5.6562 3.5312-8.8281 3.5469-3.1719 9.9375-3.1719 6.3594 0 9.9375 3.1719 3.5938 3.1719 3.5938 8.8281 0 5.6719-3.5938 8.8438-3.5781 3.1719-9.9375 3.1719-6.3906 0-9.9375-3.1719-3.5312-3.1719-3.5312-8.8438z"/>
</defs>
<use xlink:href="#c"/>
<use x="63.623047" xlink:href="#d"/>
<use x="95.410156" xlink:href="#ab"/>
</g>
</g>
<g clip-path="url(#a)">
<g transform="translate(900.3 518.42) scale(.1 -.1)">
<defs>
<path id="aa" d="m10.984 1.5156v8.9844q3.7188-1.7656 7.5156-2.6875 3.8125-0.92188 7.4844-0.92188 9.7656 0 14.906 6.5625 5.1562 6.5625 5.8906 19.953-2.8281-4.2031-7.1875-6.4531-4.3438-2.25-9.6094-2.25-10.938 0-17.312 6.6094-6.375 6.625-6.375 18.109 0 11.219 6.6406 18 6.6406 6.7969 17.672 6.7969 12.656 0 19.312-9.7031 6.6719-9.6875 6.6719-28.141 0-17.234-8.1875-27.516-8.1719-10.281-21.984-10.281-3.7188 0-7.5312 0.73438-3.7969 0.73438-7.9062 2.2031zm19.625 30.906q6.6406 0 10.516 4.5312 3.8906 4.5469 3.8906 12.469 0 7.8594-3.8906 12.422-3.875 4.5625-10.516 4.5625t-10.516-4.5625-3.875-12.422q0-7.9219 3.875-12.469 3.875-4.5312 10.516-4.5312z"/>
</defs>
<use xlink:href="#c"/>
<use x="63.623047" xlink:href="#d"/>
<use x="95.410156" xlink:href="#aa"/>
</g>
</g>
<g clip-path="url(#a)">
<g transform="translate(1058.6 421.85) scale(.1 -.1)">
<defs>
<path id="al" d="m31.781 66.406q-7.6094 0-11.453-7.5-3.8281-7.4844-3.8281-22.531 0-14.984 3.8281-22.484 3.8438-7.5 11.453-7.5 7.6719 0 11.5 7.5 3.8438 7.5 3.8438 22.484 0 15.047-3.8438 22.531-3.8281 7.5-11.5 7.5zm0 7.8125q12.266 0 18.734-9.7031 6.4688-9.6875 6.4688-28.141 0-18.406-6.4688-28.109-6.4688-9.6875-18.734-9.6875-12.25 0-18.719 9.6875-6.4688 9.7031-6.4688 28.109 0 18.453 6.4688 28.141 6.4688 9.7031 18.719 9.7031z"/>
</defs>
<use xlink:href="#c"/>
<use x="63.623047" xlink:href="#d"/>
<use x="95.410156" xlink:href="#c"/>
<use x="159.033203" xlink:href="#al"/>
</g>
</g>
<g clip-path="url(#a)">
<g transform="translate(975.59 518.42) scale(.1 -.1)">
<defs>
<path id="y" d="m37.797 64.312-24.906-38.922h24.906zm-2.5938 8.5938h12.406v-47.516h10.406v-8.2031h-10.406v-17.188h-9.8125v17.188h-32.906v9.5156z"/>
</defs>
<use xlink:href="#c"/>
<use x="63.623047" xlink:href="#d"/>
<use x="95.410156" xlink:href="#c"/>
<use x="159.033203" xlink:href="#y"/>
</g>
</g>
<g clip-path="url(#a)">
<g transform="translate(1057.5 518.42) scale(.1 -.1)">
<use xlink:href="#c"/>
<use x="63.623047" xlink:href="#d"/>
<use x="95.410156" xlink:href="#c"/>
<use x="159.033203" xlink:href="#ad"/>
</g>
</g>
<g clip-path="url(#a)">
<g transform="translate(443.33 518.42) scale(.1 -.1)">
<use xlink:href="#c"/>
<use x="63.623047" xlink:href="#d"/>
<use x="95.410156" xlink:href="#c"/>
<use x="159.033203" xlink:href="#ac"/>
</g>
</g>
<g clip-path="url(#a)">
<g transform="translate(497.92 518.42) scale(.1 -.1)">
<use xlink:href="#c"/>
<use x="63.623047" xlink:href="#d"/>
<use x="95.410156" xlink:href="#c"/>
<use x="159.033203" xlink:href="#ab"/>
</g>
</g>
<g clip-path="url(#a)">
<g transform="translate(683.3 421.85) scale(.1 -.1)">
<use xlink:href="#c"/>
<use x="63.623047" xlink:href="#d"/>
<use x="95.410156" xlink:href="#c"/>
<use x="159.033203" xlink:href="#aa"/>
</g>
</g>
<g clip-path="url(#a)">
<g transform="translate(617.34 518.42) scale(.1 -.1)">
<use xlink:href="#c"/>
<use x="63.623047" xlink:href="#d"/>
<use x="95.410156" xlink:href="#o"/>
<use x="159.033203" xlink:href="#c"/>
</g>
</g>
<g clip-path="url(#a)">
<g transform="translate(682.16 518.42) scale(.1 -.1)">
<use xlink:href="#c"/>
<use x="63.623047" xlink:href="#d"/>
<use x="95.410156" xlink:href="#o"/>
<use x="159.033203" xlink:href="#o"/>
</g>
</g>
<g clip-path="url(#a)">
<g transform="translate(750.4 518.42) scale(.1 -.1)">
<defs>
<path id="n" d="m40.578 39.312q7.0781-1.5156 11.047-6.3125 3.9844-4.7812 3.9844-11.812 0-10.781-7.4219-16.703-7.4219-5.9062-21.094-5.9062-4.5781 0-9.4375 0.90625t-10.031 2.7188v9.5156q4.0938-2.3906 8.9688-3.6094 4.8906-1.2188 10.219-1.2188 9.2656 0 14.125 3.6562t4.8594 10.641q0 6.4531-4.5156 10.078-4.5156 3.6406-12.562 3.6406h-8.5v8.1094h8.8906q7.2656 0 11.125 2.9062t3.8594 8.375q0 5.6094-3.9844 8.6094-3.9688 3.0156-11.391 3.0156-4.0625 0-8.7031-0.89062-4.6406-0.875-10.203-2.7188v8.7812q5.625 1.5625 10.531 2.3438t9.25 0.78125q11.234 0 17.766-5.1094 6.5469-5.0938 6.5469-13.781 0-6.0625-3.4688-10.234t-9.8594-5.7812z"/>
</defs>
<use xlink:href="#c"/>
<use x="63.623047" xlink:href="#d"/>
<use x="95.410156" xlink:href="#o"/>
<use x="159.033203" xlink:href="#n"/>
</g>
</g>
<g clip-path="url(#a)">
<g transform="translate(156.73 518.42) scale(.1 -.1)">
<use xlink:href="#c"/>
<use x="63.623047" xlink:href="#d"/>
<use x="95.410156" xlink:href="#o"/>
<use x="159.033203" xlink:href="#y"/>
</g>
</g>
<g clip-path="url(#a)">
<g transform="translate(187.44 518.42) scale(.1 -.1)">
<use xlink:href="#c"/>
<use x="63.623047" xlink:href="#d"/>
<use x="95.410156" xlink:href="#o"/>
<use x="159.033203" xlink:href="#ad"/>
</g>
</g>
<g clip-path="url(#a)">
<g transform="translate(221.56 518.42) scale(.1 -.1)">
<use xlink:href="#c"/>
<use x="63.623047" xlink:href="#d"/>
<use x="95.410156" xlink:href="#o"/>
<use x="159.033203" xlink:href="#ak"/>
</g>
</g>
<g clip-path="url(#a)">
<g transform="translate(265.06 421.85) scale(.1 -.1)">
<use xlink:href="#c"/>
<use x="63.623047" xlink:href="#d"/>
<use x="95.410156" xlink:href="#o"/>
<use x="159.033203" xlink:href="#ac"/>
</g>
</g>
<g clip-path="url(#a)">
<g transform="translate(259.09 518.42) scale(.1 -.1)">
<use xlink:href="#c"/>
<use x="63.623047" xlink:href="#d"/>
<use x="95.410156" xlink:href="#o"/>
<use x="159.033203" xlink:href="#ab"/>
</g>
</g>
<g clip-path="url(#a)">
<g transform="translate(300.03 518.42) scale(.1 -.1)">
<use xlink:href="#c"/>
<use x="63.623047" xlink:href="#d"/>
<use x="95.410156" xlink:href="#o"/>
<use x="159.033203" xlink:href="#aa"/>
</g>
</g>
<g clip-path="url(#a)">
<g transform="translate(344.39 518.42) scale(.1 -.1)">
<use xlink:href="#c"/>
<use x="63.623047" xlink:href="#d"/>
<use x="95.410156" xlink:href="#n"/>
<use x="159.033203" xlink:href="#al"/>
</g>
</g>
<g clip-path="url(#a)">
<g transform="translate(44.14 518.42) scale(.1 -.1)">
<use xlink:href="#c"/>
<use x="63.623047" xlink:href="#d"/>
<use x="95.410156" xlink:href="#n"/>
<use x="159.033203" xlink:href="#c"/>
</g>
</g>
<g clip-path="url(#a)">
<g transform="translate(54.376 518.42) scale(.1 -.1)">
<use xlink:href="#c"/>
<use x="63.623047" xlink:href="#d"/>
<use x="95.410156" xlink:href="#n"/>
<use x="159.033203" xlink:href="#o"/>
</g>
</g>
<g clip-path="url(#a)">
<g transform="translate(68.023 518.42) scale(.1 -.1)">
<use xlink:href="#c"/>
<use x="63.623047" xlink:href="#d"/>
<use x="95.410156" xlink:href="#n"/>
<use x="159.033203" xlink:href="#n"/>
</g>
</g>
<g clip-path="url(#a)">
<g transform="translate(95.318 421.85) scale(.1 -.1)">
<use xlink:href="#c"/>
<use x="63.623047" xlink:href="#d"/>
<use x="95.410156" xlink:href="#n"/>
<use x="159.033203" xlink:href="#y"/>
</g>
</g>
<g clip-path="url(#a)">
<g transform="translate(85.083 518.42) scale(.1 -.1)">
<use xlink:href="#c"/>
<use x="63.623047" xlink:href="#d"/>
<use x="95.410156" xlink:href="#n"/>
<use x="159.033203" xlink:href="#ad"/>
</g>
</g>
<g clip-path="url(#a)">
<g transform="translate(105.55 518.42) scale(.1 -.1)">
<use xlink:href="#c"/>
<use x="63.623047" xlink:href="#d"/>
<use x="95.410156" xlink:href="#n"/>
<use x="159.033203" xlink:href="#ak"/>
</g>
</g>
<g clip-path="url(#a)">
<g transform="translate(129.44 518.42) scale(.1 -.1)">
<use xlink:href="#c"/>
<use x="63.623047" xlink:href="#d"/>
<use x="95.410156" xlink:href="#n"/>
<use x="159.033203" xlink:href="#ac"/>
</g>
</g>
<g clip-path="url(#a)">
<g transform="translate(392.15 518.42) scale(.1 -.1)">
<use xlink:href="#c"/>
<use x="63.623047" xlink:href="#d"/>
<use x="95.410156" xlink:href="#n"/>
<use x="159.033203" xlink:href="#ab"/>
</g>
</g>
<g clip-path="url(#a)">
<g transform="translate(555.92 518.42) scale(.1 -.1)">
<use xlink:href="#c"/>
<use x="63.623047" xlink:href="#d"/>
<use x="95.410156" xlink:href="#n"/>
<use x="159.033203" xlink:href="#aa"/>
</g>
</g>
<g clip-path="url(#a)">
<g transform="translate(822.05 518.42) scale(.1 -.1)">
<use xlink:href="#c"/>
<use x="63.623047" xlink:href="#d"/>
<use x="95.410156" xlink:href="#y"/>
<use x="159.033203" xlink:href="#al"/>
</g>
</g>
<g clip-path="url(#a)">
<g transform="translate(1142.8 518.42) scale(.1 -.1)">
<use xlink:href="#c"/>
<use x="63.623047" xlink:href="#d"/>
<use x="95.410156" xlink:href="#y"/>
<use x="159.033203" xlink:href="#c"/>
</g>
</g>
<defs>
<clipPath id="a">
<rect width="1216" height="640"/>
</clipPath>
</defs>
</svg>
