<?xml version="1.0" encoding="UTF-8"?>
<!DOCTYPE svg  PUBLIC '-//W3C//DTD SVG 1.1//EN'  'http://www.w3.org/Graphics/SVG/1.1/DTD/svg11.dtd'>
<svg width="861.33pt" height="453.33pt" version="1.1" viewBox="0 0 861.33 453.33" xmlns="http://www.w3.org/2000/svg" xmlns:xlink="http://www.w3.org/1999/xlink">
<metadata>
<rdf:RDF xmlns:cc="http://creativecommons.org/ns#" xmlns:dc="http://purl.org/dc/elements/1.1/" xmlns:rdf="http://www.w3.org/1999/02/22-rdf-syntax-ns#">
<cc:Work>
<dc:type rdf:resource="http://purl.org/dc/dcmitype/StillImage"/>
<dc:date>2021-02-23T11:05:05.411621</dc:date>
<dc:format>image/svg+xml</dc:format>
<dc:creator>
<cc:Agent>
<dc:title>Matplotlib v3.3.3, https://matplotlib.org/</dc:title>
</cc:Agent>
</dc:creator>
</cc:Work>
</rdf:RDF>
</metadata>
<defs>
<style type="text/css">*{stroke-linecap:butt;stroke-linejoin:round;}</style>
</defs>
<path d="m0 453.33h861.33v-453.33h-861.33z" fill="#fff"/>
<g fill="none" stroke="#000">
<path d="m267.78 20.606v69.312" clip-path="url(#a)"/>
<path d="m267.78 89.919 554.4 69.173" clip-path="url(#a)"/>
<path d="m267.78 89.919 554.4 69.173" clip-path="url(#a)"/>
<path d="m267.78 89.919v69.173" clip-path="url(#a)"/>
<path d="m267.78 159.09-221.76 137.76" clip-path="url(#a)"/>
<path d="m267.78 159.09-140.1 137.76" clip-path="url(#a)"/>
<path d="m267.78 159.09 58.329 68.998" clip-path="url(#a)"/>
<path d="m267.78 159.09 389.55 137.76" clip-path="url(#a)"/>
<path d="m267.78 159.09-192 206.17" clip-path="url(#a)"/>
<path d="m267.78 159.09-72.939 206.17" clip-path="url(#a)"/>
<path d="m267.78 159.09 178.91 206.17" clip-path="url(#a)"/>
<path d="m46.02 296.85 11.448 68.406" clip-path="url(#a)"/>
<path d="m46.02 296.85-6.8687 68.406" clip-path="url(#a)"/>
<path d="m46.02 296.85 6.8687 68.406" clip-path="url(#a)"/>
<path d="m127.68 296.85-29.001 68.406" clip-path="url(#a)"/>
<path d="m127.68 296.85-1.5264 68.406" clip-path="url(#a)"/>
<path d="m127.68 296.85 30.527 68.406" clip-path="url(#a)"/>
<path d="m326.11 228.09-67.16 68.764" clip-path="url(#a)"/>
<path d="m326.11 228.09 6.1055 137.17" clip-path="url(#a)"/>
<path d="m326.11 228.09 61.055 137.17" clip-path="url(#a)"/>
<path d="m657.33 296.85-146.53 68.406" clip-path="url(#a)"/>
<path d="m657.33 296.85-77.845 68.406" clip-path="url(#a)"/>
<path d="m657.33 296.85-4.5791 68.406" clip-path="url(#a)"/>
<path d="m657.33 296.85 73.266 68.406" clip-path="url(#a)"/>
<path d="m657.33 296.85 155.69 68.406" clip-path="url(#a)"/>
<path d="m510.8 365.26v67.467" clip-path="url(#a)"/>
<path d="m579.49 365.26v67.467" clip-path="url(#a)"/>
<path d="m652.75 365.26v67.467" clip-path="url(#a)"/>
<path d="m730.6 365.26v67.467" clip-path="url(#a)"/>
<path d="m258.95 296.85-22.896 68.406" clip-path="url(#a)"/>
<path d="m258.95 296.85 22.896 68.406" clip-path="url(#a)"/>
<path d="m332.22 365.26v67.467" clip-path="url(#a)"/>
<path d="m387.16 365.26v67.467" clip-path="url(#a)"/>
<path d="m236.05 365.26v67.467" clip-path="url(#a)"/>
<path d="m281.85 365.26v67.467" clip-path="url(#a)"/>
<path d="m98.68 365.26v67.467" clip-path="url(#a)"/>
<path d="m126.15 365.26v67.467" clip-path="url(#a)"/>
<path d="m158.21 365.26v67.467" clip-path="url(#a)"/>
<path d="m39.152 365.26v67.467" clip-path="url(#a)"/>
<path d="m52.889 365.26v67.467" clip-path="url(#a)"/>
<path d="m75.785 365.26v67.467" clip-path="url(#a)"/>
<path d="m194.84 365.26v67.467" clip-path="url(#a)"/>
<path d="m446.69 365.26v67.467" clip-path="url(#a)"/>
<path d="m813.02 365.26v67.467" clip-path="url(#a)"/>
</g>
<path d="m261.51 52.254v6.0162q0 2.4 2.4 2.4h7.7425q2.4 0 2.4-2.4v-6.0162q0-2.4-2.4-2.4h-7.7425q-2.4 0-2.4 2.4z" clip-path="url(#a)" fill="#fff" stroke="#fff"/>
<g clip-path="url(#a)">
<g transform="translate(265.57 52.254) rotate(90) scale(.08 -.08)">
<defs>
<path id="s" d="m9.8125 72.906h9.8594v-29.891h35.844v29.891h9.8594v-72.906h-9.8594v34.719h-35.844v-34.719h-9.8594z"/>
</defs>
<use xlink:href="#s"/>
</g>
</g>
<path d="m541.49 130.39 5.4304 0.67755q2.3815 0.29715 2.6787-2.0844l0.9586-7.6829q0.29715-2.3815-2.0844-2.6787l-5.4304-0.67755q-2.3815-0.29715-2.6787 2.0844l-0.9586 7.6829q-0.29715 2.3815 2.0844 2.6787z" clip-path="url(#a)" fill="#fff" stroke="#fff"/>
<g clip-path="url(#a)">
<g transform="translate(541.99 126.36) rotate(7.1121) scale(.08 -.08)">
<defs>
<path id="q" d="m34.188 63.188-13.391-36.281h26.812zm-5.5781 9.7188h11.188l27.781-72.906h-10.25l-6.6406 18.703h-32.859l-6.6406-18.703h-10.406z"/>
</defs>
<use xlink:href="#q"/>
</g>
</g>
<path d="m541.81 130.43 4.7866 0.59723q2.3815 0.29714 2.6787-2.0844l0.9586-7.6829q0.29715-2.3815-2.0844-2.6787l-4.7866-0.59723q-2.3815-0.29715-2.6787 2.0844l-0.9586 7.6829q-0.29715 2.3815 2.0844 2.6787z" clip-path="url(#a)" fill="#fff" stroke="#fff"/>
<g clip-path="url(#a)">
<g transform="translate(542.31 126.4) rotate(7.1121) scale(.08 -.08)">
<defs>
<path id="r" d="m19.672 64.797v-27.391h12.406q6.8906 0 10.641 3.5625 3.7656 3.5625 3.7656 10.156 0 6.5469-3.7656 10.109-3.75 3.5625-10.641 3.5625zm-9.8594 8.1094h22.266q12.266 0 18.531-5.5469 6.2812-5.5469 6.2812-16.234 0-10.797-6.2812-16.312-6.2656-5.5156-18.531-5.5156h-12.406v-29.297h-9.8594z"/>
</defs>
<use xlink:href="#r"/>
</g>
</g>
<path d="m261.51 121.77v5.4725q0 2.4 2.4 2.4h7.7425q2.4 0 2.4-2.4v-5.4725q0-2.4-2.4-2.4h-7.7425q-2.4 0-2.4 2.4z" clip-path="url(#a)" fill="#fff" stroke="#fff"/>
<g clip-path="url(#a)">
<g transform="translate(265.57 121.77) rotate(90) scale(.08 -.08)">
<use xlink:href="#q"/>
</g>
</g>
<path d="m157.65 234.89 5.1104-3.1747q2.0386-1.2665 0.77219-3.3051l-4.0856-6.5768q-1.2665-2.0386-3.3051-0.77219l-5.1104 3.1747q-2.0386 1.2665-0.77219 3.3051l4.0856 6.5768q1.2665 2.0386 3.3051 0.77219z" clip-path="url(#a)" fill="#fff" stroke="#fff"/>
<g clip-path="url(#a)">
<g transform="translate(155.51 231.44) rotate(-31.85) scale(.08 -.08)">
<use xlink:href="#s"/>
</g>
</g>
<path d="m199.98 234.55 4.2898-4.2182q1.7113-1.6827 0.028539-3.394l-5.4285-5.5206q-1.6827-1.7113-3.394-0.02854l-4.2898 4.2182q-1.7113 1.6827-0.028539 3.394l5.4285 5.5206q1.6827 1.7113 3.394 0.028539z" clip-path="url(#a)" fill="#fff" stroke="#fff"/>
<g clip-path="url(#a)">
<g transform="translate(197.13 231.66) rotate(-44.518) scale(.08 -.08)">
<use xlink:href="#s"/>
</g>
</g>
<path d="m290.21 195.34 3.8841 4.5945q1.5494 1.8328 3.3823 0.28341l5.9128-4.9985q1.8328-1.5494 0.28341-3.3823l-3.8841-4.5945q-1.5494-1.8328-3.3823-0.28341l-5.9128 4.9985q-1.8328 1.5494-0.28341 3.3823z" clip-path="url(#a)" fill="#fff" stroke="#fff"/>
<g clip-path="url(#a)">
<g transform="translate(293.32 192.72) rotate(49.79) scale(.08 -.08)">
<use xlink:href="#s"/>
</g>
</g>
<path d="m457.63 232.88 5.672 2.0059q2.2627 0.80018 3.0629-1.4625l2.5814-7.2995q0.80018-2.2627-1.4625-3.0629l-5.672-2.0059q-2.2627-0.80018-3.0629 1.4625l-2.5814 7.2995q-0.80018 2.2627 1.4625 3.0629z" clip-path="url(#a)" fill="#fff" stroke="#fff"/>
<g clip-path="url(#a)">
<g transform="translate(458.98 229.05) rotate(19.476) scale(.08 -.08)">
<use xlink:href="#s"/>
</g>
</g>
<path d="m174.38 268.59 3.9902-4.2848q1.6356-1.7564-0.12074-3.392l-5.6661-5.2766q-1.7564-1.6356-3.392 0.12074l-3.9902 4.2848q-1.6356 1.7564 0.12074 3.392l5.6661 5.2766q1.7563 1.6356 3.392-0.12074z" clip-path="url(#a)" fill="#fff" stroke="#fff"/>
<g clip-path="url(#a)">
<g transform="translate(171.4 265.82) rotate(-47.039) scale(.08 -.08)">
<defs>
<path id="v" d="m8.6875 72.906h9.9219v-44.297q0-11.719 4.2344-16.875 4.25-5.1406 13.781-5.1406 9.4688 0 13.719 5.1406 4.25 5.1562 4.25 16.875v44.297h9.9062v-45.516q0-14.25-7.0625-21.531-7.0469-7.2812-20.812-7.2812-13.828 0-20.891 7.2812-7.0469 7.2812-7.0469 21.531z"/>
</defs>
<use xlink:href="#v"/>
</g>
</g>
<path d="m236.25 267.03 1.9528-5.5197q0.80046-2.2626-1.4621-3.063l-7.2992-2.5823q-2.2626-0.80046-3.063 1.4621l-1.9528 5.5197q-0.80046 2.2626 1.4621 3.063l7.2992 2.5823q2.2626 0.80046 3.063-1.4621z" clip-path="url(#a)" fill="#fff" stroke="#fff"/>
<g clip-path="url(#a)">
<g transform="translate(232.42 265.67) rotate(-70.517) scale(.08 -.08)">
<use xlink:href="#v"/>
</g>
</g>
<path d="m350.58 264.08 3.8375 4.4221q1.573 1.8126 3.3856 0.23963l5.8476-5.0746q1.8126-1.573 0.23963-3.3856l-3.8375-4.4221q-1.573-1.8126-3.3856-0.23963l-5.8476 5.0746q-1.8126 1.573-0.23963 3.3856z" clip-path="url(#a)" fill="#fff" stroke="#fff"/>
<g clip-path="url(#a)">
<g transform="translate(353.65 261.41) rotate(49.049) scale(.08 -.08)">
<use xlink:href="#v"/>
</g>
</g>
<path d="m45.107 329.39 0.90327 5.3974q0.39614 2.3671 2.7632 1.9709l7.6363-1.2779q2.3671-0.39614 1.9709-2.7632l-0.90327-5.3974q-0.39614-2.3671-2.7632-1.9709l-7.6363 1.278q-2.3671 0.39614-1.9709 2.7632z" clip-path="url(#a)" fill="#fff" stroke="#fff"/>
<g clip-path="url(#a)">
<g transform="translate(49.115 328.72) rotate(80.499) scale(.08 -.08)">
<use xlink:href="#q"/>
</g>
</g>
<path d="m48.585 334.08 0.48193-4.7996q0.23978-2.388-2.1482-2.6278l-7.7038-0.77354q-2.388-0.23978-2.6278 2.1482l-0.48193 4.7996q-0.23978 2.388 2.1482 2.6278l7.7038 0.77354q2.388 0.23978 2.6278-2.1482z" clip-path="url(#a)" fill="#fff" stroke="#fff"/>
<g clip-path="url(#a)">
<g transform="translate(44.541 333.68) rotate(-84.266) scale(.08 -.08)">
<use xlink:href="#r"/>
</g>
</g>
<path d="m42.985 329.39 0.4597 4.5782q0.23978 2.388 2.6278 2.1482l7.7038-0.77354q2.388-0.23978 2.1482-2.6278l-0.4597-4.5782q-0.23978-2.388-2.6278-2.1482l-7.7038 0.77354q-2.388 0.23978-2.1482 2.6278z" clip-path="url(#a)" fill="#fff" stroke="#fff"/>
<g clip-path="url(#a)">
<g transform="translate(47.028 328.99) rotate(84.266) scale(.08 -.08)">
<defs>
<path id="ar" d="m9.8125 72.906h41.891v-8.3125h-32.031v-21.484h28.906v-8.2969h-28.906v-34.812h-9.8594z"/>
</defs>
<use xlink:href="#ar"/>
</g>
</g>
<path d="m117.89 336.02 2.1361-5.0384q0.93679-2.2096-1.2728-3.1464l-7.1283-3.0221q-2.2096-0.93679-3.1464 1.2728l-2.1361 5.0384q-0.93679 2.2096 1.2728 3.1464l7.1283 3.0221q2.2096 0.93679 3.1464-1.2728z" clip-path="url(#a)" fill="#fff" stroke="#fff"/>
<g clip-path="url(#a)">
<g transform="translate(114.15 334.44) rotate(-67.025) scale(.08 -.08)">
<use xlink:href="#q"/>
</g>
</g>
<path d="m133.12 334.28 0.13742-6.1585q0.053539-2.3994-2.3459-2.4529l-7.7406-0.17272q-2.3994-0.05354-2.4529 2.3459l-0.13742 6.1585q-0.05354 2.3994 2.3459 2.4529l7.7406 0.17272q2.3994 0.053539 2.4529-2.3459z" clip-path="url(#a)" fill="#fff" stroke="#fff"/>
<g clip-path="url(#a)">
<g transform="translate(129.06 334.19) rotate(-88.722) scale(.08 -.08)">
<defs>
<path id="ac" d="m19.672 64.797v-56.688h11.922q15.094 0 22.094 6.8281 7 6.8438 7 21.594 0 14.641-7 21.453t-22.094 6.8125zm-9.8594 8.1094h20.266q21.188 0 31.094-8.8125 9.9219-8.8125 9.9219-27.562 0-18.859-9.9688-27.703-9.9531-8.8281-31.047-8.8281h-20.266z"/>
</defs>
<use xlink:href="#ac"/>
</g>
</g>
<path d="m136.18 331.29 2.0697 4.6379q0.97808 2.1917 3.1697 1.2136l7.0704-3.1553q2.1917-0.97808 1.2136-3.1697l-2.0697-4.6379q-0.97808-2.1917-3.1697-1.2136l-7.0704 3.1553q-2.1917 0.97808-1.2136 3.1697z" clip-path="url(#a)" fill="#fff" stroke="#fff"/>
<g clip-path="url(#a)">
<g transform="translate(139.89 329.64) rotate(65.95) scale(.08 -.08)">
<defs>
<path id="ah" d="m53.516 70.516v-9.625q-5.6094 2.6875-10.594 4-4.9844 1.3281-9.625 1.3281-8.0469 0-12.422-3.125t-4.375-8.8906q0-4.8438 2.9062-7.3125 2.9062-2.4531 11.016-3.9688l5.9531-1.2188q11.031-2.1094 16.281-7.4062t5.25-14.172q0-10.609-7.1094-16.078-7.0938-5.4688-20.812-5.4688-5.1719 0-11.016 1.1719-5.8281 1.1719-12.078 3.4688v10.156q6-3.3594 11.766-5.0781 5.7656-1.7031 11.328-1.7031 8.4375 0 13.031 3.3125 4.5938 3.3281 4.5938 9.4844 0 5.3594-3.2969 8.3906t-10.812 4.5469l-6.0156 1.1719q-11.031 2.1875-15.969 6.875-4.9219 4.6875-4.9219 13.047 0 9.6719 6.8125 15.234t18.766 5.5625q5.1406 0 10.453-0.9375 5.3281-0.92188 10.891-2.7656z"/>
</defs>
<use xlink:href="#ah"/>
</g>
</g>
<path d="m295.1 268.81 3.8237-3.915q1.6769-1.717-0.040049-3.3939l-5.539-5.4098q-1.717-1.6769-3.3939 0.040049l-3.8237 3.915q-1.6769 1.717 0.040048 3.3939l5.539 5.4098q1.717 1.6769 3.3939-0.040049z" clip-path="url(#a)" fill="#fff" stroke="#fff"/>
<g clip-path="url(#a)">
<g transform="translate(292.2 265.97) rotate(-45.676) scale(.08 -.08)">
<use xlink:href="#q"/>
</g>
</g>
<path d="m322.76 293.88 0.27391 6.1539q0.10672 2.3976 2.5043 2.2909l7.7348-0.34428q2.3976-0.10672 2.2909-2.5043l-0.27391-6.1539q-0.10672-2.3976-2.5043-2.2909l-7.7348 0.34428q-2.3976 0.10672-2.2909 2.5043z" clip-path="url(#a)" fill="#fff" stroke="#fff"/>
<g clip-path="url(#a)">
<g transform="translate(326.82 293.7) rotate(87.451) scale(.08 -.08)">
<use xlink:href="#ac"/>
</g>
</g>
<path d="m349.88 296.91 2.0652 4.6399q0.97594 2.1926 3.1686 1.2167l7.0735-3.1484q2.1926-0.97594 1.2167-3.1686l-2.0652-4.6399q-0.97594-2.1926-3.1686-1.2167l-7.0735 3.1484q-2.1926 0.97594-1.2167 3.1686z" clip-path="url(#a)" fill="#fff" stroke="#fff"/>
<g clip-path="url(#a)">
<g transform="translate(353.59 295.25) rotate(66.006) scale(.08 -.08)">
<use xlink:href="#ah"/>
</g>
</g>
<path d="m584.24 337.9 4.9588-2.3149q2.1747-1.0152 1.1595-3.1899l-3.2751-7.0157q-1.0152-2.1747-3.1899-1.1595l-4.9588 2.3149q-2.1747 1.0152-1.1595 3.1899l3.2751 7.0157q1.0152 2.1747 3.1899 1.1595z" clip-path="url(#a)" fill="#fff" stroke="#fff"/>
<g clip-path="url(#a)">
<g transform="translate(582.52 334.22) rotate(-25.025) scale(.08 -.08)">
<use xlink:href="#q"/>
</g>
</g>
<path d="m620.49 337.57 4.1108-3.6124q1.8028-1.5842 0.21861-3.3871l-5.1108-5.816q-1.5842-1.8028-3.3871-0.21861l-4.1108 3.6124q-1.8028 1.5842-0.21861 3.3871l5.1108 5.816q1.5842 1.8028 3.3871 0.21861z" clip-path="url(#a)" fill="#fff" stroke="#fff"/>
<g clip-path="url(#a)">
<g transform="translate(617.81 334.52) rotate(-41.307) scale(.08 -.08)">
<use xlink:href="#q"/>
</g>
</g>
<path d="m661.1 334.55 0.41143-6.1462q0.1603-2.3946-2.2343-2.5549l-7.7252-0.51713q-2.3946-0.1603-2.5549 2.2343l-0.41143 6.1462q-0.1603 2.3946 2.2343 2.5549l7.7252 0.51713q2.3946 0.1603 2.5549-2.2343z" clip-path="url(#a)" fill="#fff" stroke="#fff"/>
<g clip-path="url(#a)">
<g transform="translate(657.04 334.28) rotate(-86.17) scale(.08 -.08)">
<use xlink:href="#ac"/>
</g>
</g>
<path d="m687.92 334 3.5258 3.292q1.7542 1.6379 3.3921-0.11637l5.2838-5.6593q1.6379-1.7542-0.11637-3.3921l-3.5258-3.292q-1.7542-1.6379-3.3921 0.11637l-5.2838 5.6593q-1.6379 1.7542 0.11637 3.3921z" clip-path="url(#a)" fill="#fff" stroke="#fff"/>
<g clip-path="url(#a)">
<g transform="translate(690.7 331.02) rotate(43.035) scale(.08 -.08)">
<use xlink:href="#r"/>
</g>
</g>
<path d="m729.98 335.62 5.3604 2.3552q2.1973 0.96541 3.1627-1.2319l3.1145-7.0885q0.96541-2.1973-1.2319-3.1627l-5.3604-2.3552q-2.1973-0.96541-3.1627 1.2319l-3.1145 7.0885q-0.96541 2.1973 1.2319 3.1627z" clip-path="url(#a)" fill="#fff" stroke="#fff"/>
<g clip-path="url(#a)">
<g transform="translate(731.61 331.9) rotate(23.719) scale(.08 -.08)">
<use xlink:href="#v"/>
</g>
</g>
<path d="m504.53 382.09v33.808q0 2.4 2.4 2.4h7.7425q2.4 0 2.4-2.4v-33.808q0-2.4-2.4-2.4h-7.7425q-2.4 0-2.4 2.4z" clip-path="url(#a)" fill="#fff" stroke="#fff"/>
<g clip-path="url(#a)">
<g transform="translate(508.59 382.09) rotate(90) scale(.08 -.08)">
<defs>
<path id="e" d="m-0.29688 72.906h61.672v-8.3125h-25.875v-64.594h-9.9062v64.594h-25.891z"/>
<path id="l" d="m56.203 29.594v-4.3906h-41.312q0.59375-9.2812 5.5938-14.141t13.938-4.8594q5.1719 0 10.031 1.2656t9.6562 3.8125v-8.5q-4.8438-2.0469-9.9219-3.125t-10.297-1.0781q-13.094 0-20.734 7.6094-7.6406 7.625-7.6406 20.625 0 13.422 7.25 21.297 7.25 7.8906 19.562 7.8906 11.031 0 17.453-7.1094 6.4219-7.0938 6.4219-19.297zm-8.9844 2.6406q-0.09375 7.3594-4.125 11.75-4.0312 4.4062-10.672 4.4062-7.5156 0-12.031-4.25t-5.2031-11.969z"/>
<path id="g" d="m41.109 46.297q-1.5156 0.875-3.2969 1.2812-1.7812 0.42188-3.9219 0.42188-7.625 0-11.703-4.9531t-4.0781-14.234v-28.812h-9.0312v54.688h9.0312v-8.5q2.8438 4.9844 7.375 7.3906 4.5469 2.4219 11.047 2.4219 0.92188 0 2.0469-0.125 1.125-0.10938 2.4844-0.35938z"/>
<path id="i" d="m52 44.188q3.375 6.0625 8.0625 8.9375t11.031 2.875q8.5469 0 13.188-5.9844 4.6406-5.9688 4.6406-17v-33.016h-9.0312v32.719q0 7.8594-2.7969 11.656-2.7812 3.8125-8.4844 3.8125-6.9844 0-11.047-4.6406-4.0469-4.625-4.0469-12.641v-30.906h-9.0312v32.719q0 7.9062-2.7812 11.688t-8.5938 3.7812q-6.8906 0-10.953-4.6562-4.0469-4.6562-4.0469-12.625v-30.906h-9.0312v54.688h9.0312v-8.5q3.0781 5.0312 7.375 7.4219t10.203 2.3906q5.9688 0 10.141-3.0312 4.1719-3.0156 6.1719-8.7812z"/>
<path id="k" d="m9.4219 54.688h8.9844v-54.688h-8.9844zm0 21.297h8.9844v-11.391h-8.9844z"/>
<path id="h" d="m54.891 33.016v-33.016h-8.9844v32.719q0 7.7656-3.0312 11.609-3.0312 3.8594-9.0781 3.8594-7.2812 0-11.484-4.6406-4.2031-4.625-4.2031-12.641v-30.906h-9.0312v54.688h9.0312v-8.5q3.2344 4.9375 7.5938 7.375 4.375 2.4375 10.094 2.4375 9.4219 0 14.25-5.8281 4.8438-5.8281 4.8438-17.156z"/>
<path id="f" d="m34.281 27.484q-10.891 0-15.094-2.4844t-4.2031-8.5q0-4.7812 3.1562-7.5938 3.1562-2.7969 8.5625-2.7969 7.4844 0 12 5.2969t4.5156 14.078v2zm17.922 3.7188v-31.203h-8.9844v8.2969q-3.0781-4.9688-7.6719-7.3438t-11.234-2.375q-8.3906 0-13.359 4.7188-4.9531 4.7188-4.9531 12.625 0 9.2188 6.1719 13.906 6.1875 4.6875 18.438 4.6875h12.609v0.89062q0 6.2031-4.0781 9.5938t-11.453 3.3906q-4.6875 0-9.1406-1.125-4.4375-1.125-8.5312-3.375v8.3125q4.9219 1.9062 9.5625 2.8438 4.6406 0.95312 9.0312 0.95312 11.875 0 17.734-6.1562 5.8594-6.1406 5.8594-18.641z"/>
<path id="j" d="m9.4219 75.984h8.9844v-75.984h-8.9844z"/>
</defs>
<use xlink:href="#e"/>
<use x="44.083984" xlink:href="#l"/>
<use x="105.607422" xlink:href="#g"/>
<use x="144.970703" xlink:href="#i"/>
<use x="242.382812" xlink:href="#k"/>
<use x="270.166016" xlink:href="#h"/>
<use x="333.544922" xlink:href="#f"/>
<use x="394.824219" xlink:href="#j"/>
</g>
</g>
<path d="m573.22 382.09v33.808q0 2.4 2.4 2.4h7.7425q2.4 0 2.4-2.4v-33.808q0-2.4-2.4-2.4h-7.7425q-2.4 0-2.4 2.4z" clip-path="url(#a)" fill="#fff" stroke="#fff"/>
<g clip-path="url(#a)">
<g transform="translate(577.28 382.09) rotate(90) scale(.08 -.08)">
<use xlink:href="#e"/>
<use x="44.083984" xlink:href="#l"/>
<use x="105.607422" xlink:href="#g"/>
<use x="144.970703" xlink:href="#i"/>
<use x="242.382812" xlink:href="#k"/>
<use x="270.166016" xlink:href="#h"/>
<use x="333.544922" xlink:href="#f"/>
<use x="394.824219" xlink:href="#j"/>
</g>
</g>
<path d="m646.48 382.09v33.808q0 2.4 2.4 2.4h7.7425q2.4 0 2.4-2.4v-33.808q0-2.4-2.4-2.4h-7.7425q-2.4 0-2.4 2.4z" clip-path="url(#a)" fill="#fff" stroke="#fff"/>
<g clip-path="url(#a)">
<g transform="translate(650.55 382.09) rotate(90) scale(.08 -.08)">
<use xlink:href="#e"/>
<use x="44.083984" xlink:href="#l"/>
<use x="105.607422" xlink:href="#g"/>
<use x="144.970703" xlink:href="#i"/>
<use x="242.382812" xlink:href="#k"/>
<use x="270.166016" xlink:href="#h"/>
<use x="333.544922" xlink:href="#f"/>
<use x="394.824219" xlink:href="#j"/>
</g>
</g>
<path d="m724.33 382.09v33.808q0 2.4 2.4 2.4h7.7425q2.4 0 2.4-2.4v-33.808q0-2.4-2.4-2.4h-7.7425q-2.4 0-2.4 2.4z" clip-path="url(#a)" fill="#fff" stroke="#fff"/>
<g clip-path="url(#a)">
<g transform="translate(728.39 382.09) rotate(90) scale(.08 -.08)">
<use xlink:href="#e"/>
<use x="44.083984" xlink:href="#l"/>
<use x="105.607422" xlink:href="#g"/>
<use x="144.970703" xlink:href="#i"/>
<use x="242.382812" xlink:href="#k"/>
<use x="270.166016" xlink:href="#h"/>
<use x="333.544922" xlink:href="#f"/>
<use x="394.824219" xlink:href="#j"/>
</g>
</g>
<path d="m252.65 335.44 1.6044-4.7936q0.76175-2.2759-1.5141-3.0377l-7.3422-2.4574q-2.2759-0.76175-3.0377 1.5142l-1.6044 4.7936q-0.76175 2.2759 1.5141 3.0377l7.3422 2.4574q2.2759 0.76175 3.0377-1.5142z" clip-path="url(#a)" fill="#fff" stroke="#fff"/>
<g clip-path="url(#a)">
<g transform="translate(248.79 334.15) rotate(-71.494) scale(.08 -.08)">
<defs>
<path id="as" d="m9.8125 72.906h46.094v-8.3125h-36.234v-21.578h34.719v-8.2969h-34.719v-26.422h37.109v-8.2969h-46.969z"/>
</defs>
<use xlink:href="#as"/>
</g>
</g>
<path d="m263.56 330.4 1.7731 5.2974q0.76175 2.2759 3.0377 1.5142l7.3422-2.4574q2.2759-0.76175 1.5142-3.0377l-1.7731-5.2974q-0.76175-2.2759-3.0377-1.5142l-7.3422 2.4574q-2.2759 0.76175-1.5142 3.0377z" clip-path="url(#a)" fill="#fff" stroke="#fff"/>
<g clip-path="url(#a)">
<g transform="translate(267.42 329.11) rotate(71.494) scale(.08 -.08)">
<defs>
<path id="w" d="m64.406 67.281v-10.391q-4.9844 4.6406-10.625 6.9219-5.6406 2.2969-11.984 2.2969-12.5 0-19.141-7.6406t-6.6406-22.094q0-14.406 6.6406-22.047t19.141-7.6406q6.3438 0 11.984 2.2969t10.625 6.9375v-10.312q-5.1719-3.5156-10.969-5.2812-5.7812-1.75-12.219-1.75-16.562 0-26.094 10.125-9.5156 10.141-9.5156 27.672 0 17.578 9.5156 27.703 9.5312 10.141 26.094 10.141 6.5312 0 12.312-1.7344 5.7969-1.7344 10.875-5.2031z"/>
</defs>
<use xlink:href="#w"/>
</g>
</g>
<path d="m325.94 382.09v33.808q0 2.4 2.4 2.4h7.7425q2.4 0 2.4-2.4v-33.808q0-2.4-2.4-2.4h-7.7425q-2.4 0-2.4 2.4z" clip-path="url(#a)" fill="#fff" stroke="#fff"/>
<g clip-path="url(#a)">
<g transform="translate(330.01 382.09) rotate(90) scale(.08 -.08)">
<use xlink:href="#e"/>
<use x="44.083984" xlink:href="#l"/>
<use x="105.607422" xlink:href="#g"/>
<use x="144.970703" xlink:href="#i"/>
<use x="242.382812" xlink:href="#k"/>
<use x="270.166016" xlink:href="#h"/>
<use x="333.544922" xlink:href="#f"/>
<use x="394.824219" xlink:href="#j"/>
</g>
</g>
<path d="m380.89 382.09v33.808q0 2.4 2.4 2.4h7.7425q2.4 0 2.4-2.4v-33.808q0-2.4-2.4-2.4h-7.7425q-2.4 0-2.4 2.4z" clip-path="url(#a)" fill="#fff" stroke="#fff"/>
<g clip-path="url(#a)">
<g transform="translate(384.96 382.09) rotate(90) scale(.08 -.08)">
<use xlink:href="#e"/>
<use x="44.083984" xlink:href="#l"/>
<use x="105.607422" xlink:href="#g"/>
<use x="144.970703" xlink:href="#i"/>
<use x="242.382812" xlink:href="#k"/>
<use x="270.166016" xlink:href="#h"/>
<use x="333.544922" xlink:href="#f"/>
<use x="394.824219" xlink:href="#j"/>
</g>
</g>
<path d="m229.78 382.09v33.808q0 2.4 2.4 2.4h7.7425q2.4 0 2.4-2.4v-33.808q0-2.4-2.4-2.4h-7.7425q-2.4 0-2.4 2.4z" clip-path="url(#a)" fill="#fff" stroke="#fff"/>
<g clip-path="url(#a)">
<g transform="translate(233.85 382.09) rotate(90) scale(.08 -.08)">
<use xlink:href="#e"/>
<use x="44.083984" xlink:href="#l"/>
<use x="105.607422" xlink:href="#g"/>
<use x="144.970703" xlink:href="#i"/>
<use x="242.382812" xlink:href="#k"/>
<use x="270.166016" xlink:href="#h"/>
<use x="333.544922" xlink:href="#f"/>
<use x="394.824219" xlink:href="#j"/>
</g>
</g>
<path d="m275.57 382.09v33.808q0 2.4 2.4 2.4h7.7425q2.4 0 2.4-2.4v-33.808q0-2.4-2.4-2.4h-7.7425q-2.4 0-2.4 2.4z" clip-path="url(#a)" fill="#fff" stroke="#fff"/>
<g clip-path="url(#a)">
<g transform="translate(279.64 382.09) rotate(90) scale(.08 -.08)">
<use xlink:href="#e"/>
<use x="44.083984" xlink:href="#l"/>
<use x="105.607422" xlink:href="#g"/>
<use x="144.970703" xlink:href="#i"/>
<use x="242.382812" xlink:href="#k"/>
<use x="270.166016" xlink:href="#h"/>
<use x="333.544922" xlink:href="#f"/>
<use x="394.824219" xlink:href="#j"/>
</g>
</g>
<path d="m92.409 382.09v33.808q0 2.4 2.4 2.4h7.7425q2.4 0 2.4-2.4v-33.808q0-2.4-2.4-2.4h-7.7425q-2.4 0-2.4 2.4z" clip-path="url(#a)" fill="#fff" stroke="#fff"/>
<g clip-path="url(#a)">
<g transform="translate(96.473 382.09) rotate(90) scale(.08 -.08)">
<use xlink:href="#e"/>
<use x="44.083984" xlink:href="#l"/>
<use x="105.607422" xlink:href="#g"/>
<use x="144.970703" xlink:href="#i"/>
<use x="242.382812" xlink:href="#k"/>
<use x="270.166016" xlink:href="#h"/>
<use x="333.544922" xlink:href="#f"/>
<use x="394.824219" xlink:href="#j"/>
</g>
</g>
<path d="m119.88 382.09v33.808q0 2.4 2.4 2.4h7.7425q2.4 0 2.4-2.4v-33.808q0-2.4-2.4-2.4h-7.7425q-2.4 0-2.4 2.4z" clip-path="url(#a)" fill="#fff" stroke="#fff"/>
<g clip-path="url(#a)">
<g transform="translate(123.95 382.09) rotate(90) scale(.08 -.08)">
<use xlink:href="#e"/>
<use x="44.083984" xlink:href="#l"/>
<use x="105.607422" xlink:href="#g"/>
<use x="144.970703" xlink:href="#i"/>
<use x="242.382812" xlink:href="#k"/>
<use x="270.166016" xlink:href="#h"/>
<use x="333.544922" xlink:href="#f"/>
<use x="394.824219" xlink:href="#j"/>
</g>
</g>
<path d="m151.94 382.09v33.808q0 2.4 2.4 2.4h7.7425q2.4 0 2.4-2.4v-33.808q0-2.4-2.4-2.4h-7.7425q-2.4 0-2.4 2.4z" clip-path="url(#a)" fill="#fff" stroke="#fff"/>
<g clip-path="url(#a)">
<g transform="translate(156 382.09) rotate(90) scale(.08 -.08)">
<use xlink:href="#e"/>
<use x="44.083984" xlink:href="#l"/>
<use x="105.607422" xlink:href="#g"/>
<use x="144.970703" xlink:href="#i"/>
<use x="242.382812" xlink:href="#k"/>
<use x="270.166016" xlink:href="#h"/>
<use x="333.544922" xlink:href="#f"/>
<use x="394.824219" xlink:href="#j"/>
</g>
</g>
<path d="m32.88 382.09v33.808q0 2.4 2.4 2.4h7.7425q2.4 0 2.4-2.4v-33.808q0-2.4-2.4-2.4h-7.7425q-2.4 0-2.4 2.4z" clip-path="url(#a)" fill="#fff" stroke="#fff"/>
<g clip-path="url(#a)">
<g transform="translate(36.944 382.09) rotate(90) scale(.08 -.08)">
<use xlink:href="#e"/>
<use x="44.083984" xlink:href="#l"/>
<use x="105.607422" xlink:href="#g"/>
<use x="144.970703" xlink:href="#i"/>
<use x="242.382812" xlink:href="#k"/>
<use x="270.166016" xlink:href="#h"/>
<use x="333.544922" xlink:href="#f"/>
<use x="394.824219" xlink:href="#j"/>
</g>
</g>
<path d="m46.618 382.09v33.808q0 2.4 2.4 2.4h7.7425q2.4 0 2.4-2.4v-33.808q0-2.4-2.4-2.4h-7.7425q-2.4 0-2.4 2.4z" clip-path="url(#a)" fill="#fff" stroke="#fff"/>
<g clip-path="url(#a)">
<g transform="translate(50.681 382.09) rotate(90) scale(.08 -.08)">
<use xlink:href="#e"/>
<use x="44.083984" xlink:href="#l"/>
<use x="105.607422" xlink:href="#g"/>
<use x="144.970703" xlink:href="#i"/>
<use x="242.382812" xlink:href="#k"/>
<use x="270.166016" xlink:href="#h"/>
<use x="333.544922" xlink:href="#f"/>
<use x="394.824219" xlink:href="#j"/>
</g>
</g>
<path d="m69.513 382.09v33.808q0 2.4 2.4 2.4h7.7425q2.4 0 2.4-2.4v-33.808q0-2.4-2.4-2.4h-7.7425q-2.4 0-2.4 2.4z" clip-path="url(#a)" fill="#fff" stroke="#fff"/>
<g clip-path="url(#a)">
<g transform="translate(73.577 382.09) rotate(90) scale(.08 -.08)">
<use xlink:href="#e"/>
<use x="44.083984" xlink:href="#l"/>
<use x="105.607422" xlink:href="#g"/>
<use x="144.970703" xlink:href="#i"/>
<use x="242.382812" xlink:href="#k"/>
<use x="270.166016" xlink:href="#h"/>
<use x="333.544922" xlink:href="#f"/>
<use x="394.824219" xlink:href="#j"/>
</g>
</g>
<path d="m188.57 382.09v33.808q0 2.4 2.4 2.4h7.7425q2.4 0 2.4-2.4v-33.808q0-2.4-2.4-2.4h-7.7425q-2.4 0-2.4 2.4z" clip-path="url(#a)" fill="#fff" stroke="#fff"/>
<g clip-path="url(#a)">
<g transform="translate(192.63 382.09) rotate(90) scale(.08 -.08)">
<use xlink:href="#e"/>
<use x="44.083984" xlink:href="#l"/>
<use x="105.607422" xlink:href="#g"/>
<use x="144.970703" xlink:href="#i"/>
<use x="242.382812" xlink:href="#k"/>
<use x="270.166016" xlink:href="#h"/>
<use x="333.544922" xlink:href="#f"/>
<use x="394.824219" xlink:href="#j"/>
</g>
</g>
<path d="m440.42 382.09v33.808q0 2.4 2.4 2.4h7.7425q2.4 0 2.4-2.4v-33.808q0-2.4-2.4-2.4h-7.7425q-2.4 0-2.4 2.4z" clip-path="url(#a)" fill="#fff" stroke="#fff"/>
<g clip-path="url(#a)">
<g transform="translate(444.49 382.09) rotate(90) scale(.08 -.08)">
<use xlink:href="#e"/>
<use x="44.083984" xlink:href="#l"/>
<use x="105.607422" xlink:href="#g"/>
<use x="144.970703" xlink:href="#i"/>
<use x="242.382812" xlink:href="#k"/>
<use x="270.166016" xlink:href="#h"/>
<use x="333.544922" xlink:href="#f"/>
<use x="394.824219" xlink:href="#j"/>
</g>
</g>
<path d="m806.75 382.09v33.808q0 2.4 2.4 2.4h7.7425q2.4 0 2.4-2.4v-33.808q0-2.4-2.4-2.4h-7.7425q-2.4 0-2.4 2.4z" clip-path="url(#a)" fill="#fff" stroke="#fff"/>
<g clip-path="url(#a)">
<g transform="translate(810.82 382.09) rotate(90) scale(.08 -.08)">
<use xlink:href="#e"/>
<use x="44.083984" xlink:href="#l"/>
<use x="105.607422" xlink:href="#g"/>
<use x="144.970703" xlink:href="#i"/>
<use x="242.382812" xlink:href="#k"/>
<use x="270.166016" xlink:href="#h"/>
<use x="333.544922" xlink:href="#f"/>
<use x="394.824219" xlink:href="#j"/>
</g>
</g>
<defs>
<path id="b" d="m0 8.6603c2.2967 0 4.4997-0.9125 6.1237-2.5365 1.624-1.624 2.5365-3.827 2.5365-6.1237s-0.9125-4.4997-2.5365-6.1237c-1.624-1.624-3.827-2.5365-6.1237-2.5365s-4.4997 0.9125-6.1237 2.5365c-1.624 1.624-2.5365 3.827-2.5365 6.1237s0.9125 4.4997 2.5365 6.1237c1.624 1.624 3.827 2.5365 6.1237 2.5365z"/>
</defs>
<g clip-path="url(#a)" fill="#ffffff" stroke="#ffffff">
<use x="39.151515" y="432.727273" xlink:href="#b"/>
<use x="52.888889" y="432.727273" xlink:href="#b"/>
<use x="75.784512" y="432.727273" xlink:href="#b"/>
<use x="98.680135" y="432.727273" xlink:href="#b"/>
<use x="126.154882" y="432.727273" xlink:href="#b"/>
<use x="158.208754" y="432.727273" xlink:href="#b"/>
<use x="194.841751" y="432.727273" xlink:href="#b"/>
<use x="236.053872" y="432.727273" xlink:href="#b"/>
<use x="281.845118" y="432.727273" xlink:href="#b"/>
<use x="332.215488" y="432.727273" xlink:href="#b"/>
<use x="387.164983" y="432.727273" xlink:href="#b"/>
<use x="446.693603" y="432.727273" xlink:href="#b"/>
<use x="510.801347" y="432.727273" xlink:href="#b"/>
<use x="579.488215" y="432.727273" xlink:href="#b"/>
<use x="652.754209" y="432.727273" xlink:href="#b"/>
<use x="730.599327" y="432.727273" xlink:href="#b"/>
<use x="813.023569" y="432.727273" xlink:href="#b"/>
<use x="822.181818" y="159.091548" xlink:href="#b"/>
<use x="822.181818" y="159.091548" xlink:href="#b"/>
<use x="57.468013" y="365.260147" xlink:href="#b"/>
<use x="267.780664" y="20.606061" xlink:href="#b"/>
<use x="267.780664" y="89.918514" xlink:href="#b"/>
<use x="267.780664" y="159.091548" xlink:href="#b"/>
<use x="46.020202" y="296.85448" xlink:href="#b"/>
<use x="127.681257" y="296.85448" xlink:href="#b"/>
<use x="326.109989" y="228.090031" xlink:href="#b"/>
<use x="657.333333" y="296.85448" xlink:href="#b"/>
<use x="510.801347" y="365.260147" xlink:href="#b"/>
<use x="579.488215" y="365.260147" xlink:href="#b"/>
<use x="652.754209" y="365.260147" xlink:href="#b"/>
<use x="730.599327" y="365.260147" xlink:href="#b"/>
<use x="258.949495" y="296.85448" xlink:href="#b"/>
<use x="332.215488" y="365.260147" xlink:href="#b"/>
<use x="387.164983" y="365.260147" xlink:href="#b"/>
<use x="236.053872" y="365.260147" xlink:href="#b"/>
<use x="281.845118" y="365.260147" xlink:href="#b"/>
<use x="98.680135" y="365.260147" xlink:href="#b"/>
<use x="126.154882" y="365.260147" xlink:href="#b"/>
<use x="158.208754" y="365.260147" xlink:href="#b"/>
<use x="39.151515" y="365.260147" xlink:href="#b"/>
<use x="52.888889" y="365.260147" xlink:href="#b"/>
<use x="75.784512" y="365.260147" xlink:href="#b"/>
<use x="194.841751" y="365.260147" xlink:href="#b"/>
<use x="446.693603" y="365.260147" xlink:href="#b"/>
<use x="813.023569" y="365.260147" xlink:href="#b"/>
</g>
<g clip-path="url(#a)">
<g transform="translate(18.244 435.49) scale(.1 -.1)">
<defs>
<path id="bb" d="m19.672 34.812v-26.703h15.828q7.9531 0 11.781 3.2969 3.8438 3.2969 3.8438 10.078 0 6.8438-3.8438 10.078-3.8281 3.25-11.781 3.25zm0 29.984v-21.969h14.609q7.2188 0 10.75 2.7031 3.5469 2.7188 3.5469 8.2812 0 5.5156-3.5469 8.25-3.5312 2.7344-10.75 2.7344zm-9.8594 8.1094h25.203q11.281 0 17.375-4.6875 6.1094-4.6875 6.1094-13.328 0-6.7031-3.125-10.656t-9.1875-4.9219q7.2812-1.5625 11.312-6.5312 4.0312-4.9531 4.0312-12.375 0-9.7656-6.6406-15.094-6.6406-5.3125-18.906-5.3125h-26.172z"/>
<path id="u" d="m55.906 54.688v-54.688h-8.9375v43.891l-26.359-43.891h-11.531v54.688h8.9375v-43.797l26.328 43.797z"/>
<path id="ap" d="m21.625 7.1719h26.078v40.344h-18.891v-6.8438q0-20.109-5.7656-30.859zm-13.031 0q4.4375 1.9531 6.3906 6.1094 4.7969 10.297 4.7969 31.062v10.344h36.953v-47.516h7.1875v-20.984h-7.1875v13.812h-44.328v-13.812h-7.1875v20.984z"/>
<path id="am" d="m50.25 7.1719h23.141v47.516h9.0312v-54.688h-73.344v54.688h9.0312v-47.516h23.109v47.516h9.0312z"/>
<path id="al" d="m43.453 16.219q0 4.3906-3.2031 6.6875-3.1875 2.2969-9.3438 2.2969h-12.797v-18.031h12.797q6.1562 0 9.3438 2.3125 3.2031 2.3281 3.2031 6.7344zm-34.375 38.469h9.0312v-22.312h13.188q10.453 0 16.094-3.9844 5.6406-3.9688 5.6406-12.172t-5.6406-12.219q-5.6406-4-16.094-4h-22.219z"/>
</defs>
<use xlink:href="#bb"/>
<use x="68.603516" xlink:href="#u"/>
<use x="133.59375" xlink:href="#ap"/>
<use x="202.734375" xlink:href="#u"/>
<use x="267.724609" xlink:href="#am"/>
<use x="359.228516" xlink:href="#al"/>
</g>
</g>
<g clip-path="url(#a)">
<g transform="translate(46.444 435.49) scale(.1 -.1)">
<defs>
<path id="t" d="m3.7188 0v7.4688q8.875 1.375 11.609 7.5156 3.3281 8.6562 3.3281 30.766v8.9375h36.953v-54.688h-8.9844v47.516h-18.984v-5.4219q0-21.094-4.2969-30.562-4.5938-10.109-19.625-11.531z"/>
</defs>
<use xlink:href="#t"/>
<use x="63.916016" xlink:href="#u"/>
</g>
</g>
<g clip-path="url(#a)">
<g transform="translate(71.017 435.49) scale(.1 -.1)">
<defs>
<path id="d" d="m10.688 12.406h10.312v-12.406h-10.312z"/>
</defs>
<use xlink:href="#d"/>
<use x="31.787109" xlink:href="#d"/>
<use x="63.574219" xlink:href="#d"/>
</g>
</g>
<g clip-path="url(#a)">
<g transform="translate(89.964 435.49) scale(.1 -.1)">
<defs>
<path id="au" d="m5.5156 10.406q7.7188-4.2031 15.391-4.2031 7.1719 0 12.297 4.1719t6.0625 14.828h-27.734v7.1719h27.438q-0.59375 5.125-4.4844 10.562-3.875 5.4531-13.578 5.4531-7.5312 0-15.391-4.2031v8.4062q7.6719 3.4062 15.781 3.4062 12.781 0 20.125-7.7344 7.3594-7.7344 7.3594-20.969 0-13.188-7.1562-20.953t-19.703-7.7656q-9.2188 0-16.406 3.5156z"/>
<path id="y" d="m2.9375 54.688h52.391v-7.1719h-21.781v-47.516h-8.8438v47.516h-21.766z"/>
<path id="p" d="m30.609 48.391q-7.2188 0-11.422-5.6406t-4.2031-15.453 4.1719-15.453q4.1875-5.6406 11.453-5.6406 7.1875 0 11.375 5.6562 4.2031 5.6719 4.2031 15.438 0 9.7188-4.2031 15.406-4.1875 5.6875-11.375 5.6875zm0 7.6094q11.719 0 18.406-7.625 6.7031-7.6094 6.7031-21.078 0-13.422-6.7031-21.078-6.6875-7.6406-18.406-7.6406-11.766 0-18.438 7.6406-6.6562 7.6562-6.6562 21.078 0 13.469 6.6562 21.078 6.6719 7.625 18.438 7.625z"/>
</defs>
<use xlink:href="#au"/>
<use x="54.882812" xlink:href="#y"/>
<use x="113.134766" xlink:href="#p"/>
</g>
</g>
<g clip-path="url(#a)">
<g transform="translate(110.85 435.49) scale(.1 -.1)">
<defs>
<path id="av" d="m41.016 0v23h-16.75q-7.4688 0-12.453 4.6406-4.4844 4.2031-4.4844 13.188v13.859h8.9844v-13.031q0-5.7188 2.5312-8.5938 2.5938-2.8906 7.6719-2.8906h14.5v24.516h8.9844v-54.688z"/>
<path id="n" d="m56.203 29.594v-4.3906h-41.312q0.59375-9.2812 5.5938-14.141t13.938-4.8594q5.1719 0 10.031 1.2656t9.6562 3.8125v-8.5q-4.8438-2.0469-9.9219-3.125t-10.297-1.0781q-13.094 0-20.734 7.6094-7.6406 7.625-7.6406 20.625 0 13.422 7.25 21.297 7.25 7.8906 19.562 7.8906 11.031 0 17.453-7.1094 6.4219-7.0938 6.4219-19.297zm-8.9844 2.6406q-0.09375 7.3594-4.125 11.75-4.0312 4.4062-10.672 4.4062-7.5156 0-12.031-4.25t-5.2031-11.969z"/>
<path id="z" d="m9.0781 54.688h9.0312v-22.312h29.156v22.312h9.0312v-54.688h-9.0312v25.203h-29.156v-25.203h-9.0312z"/>
</defs>
<use xlink:href="#p"/>
<use x="61.181641" xlink:href="#av"/>
<use x="120.263672" xlink:href="#n"/>
<use x="181.787109" xlink:href="#z"/>
<use x="247.167969" xlink:href="#al"/>
</g>
</g>
<g clip-path="url(#a)">
<g transform="translate(139.34 435.49) scale(.1 -.1)">
<defs>
<path id="ba" d="m34.281 27.484q-10.891 0-15.094-2.4844t-4.2031-8.5q0-4.7812 3.1562-7.5938 3.1562-2.7969 8.5625-2.7969 7.4844 0 12 5.2969t4.5156 14.078v2zm17.922 3.7188v-31.203h-8.9844v8.2969q-3.0781-4.9688-7.6719-7.3438t-11.234-2.375q-8.3906 0-13.359 4.7188-4.9531 4.7188-4.9531 12.625 0 9.2188 6.1719 13.906 6.1875 4.6875 18.438 4.6875h12.609v0.89062q0 6.2031-4.0781 9.5938t-11.453 3.3906q-4.6875 0-9.1406-1.125-4.4375-1.125-8.5312-3.375v8.3125q4.9219 1.9062 9.5625 2.8438 4.6406 0.95312 9.0312 0.95312 11.875 0 17.734-6.1562 5.8594-6.1406 5.8594-18.641z"/>
<path id="ao" d="m9.0781 54.688h8.9375v-25.688l25.344 25.688h11.031l-20.891-21.141 23.578-33.547h-10.062l-19.375 27.594-9.625-9.7656v-17.828h-8.9375z"/>
</defs>
<use xlink:href="#ap"/>
<use x="69.140625" xlink:href="#ba"/>
<use x="130.419922" xlink:href="#t"/>
<use x="194.335938" xlink:href="#n"/>
<use x="255.859375" xlink:href="#ao"/>
<use x="316.259766" xlink:href="#p"/>
</g>
</g>
<g clip-path="url(#a)">
<g transform="translate(193.25 435.49) scale(.1 -.1)">
<use xlink:href="#d"/>
</g>
</g>
<g clip-path="url(#a)">
<g transform="translate(225.6 435.49) scale(.1 -.1)">
<defs>
<path id="aq" d="m9.8125 72.906h14.703l18.594-49.609 18.703 49.609h14.703v-72.906h-9.625v64.016l-18.797-50h-9.9062l-18.797 50v-64.016h-9.5781z"/>
</defs>
<use xlink:href="#aq"/>
<use x="86.279297" xlink:href="#p"/>
<use x="147.460938" xlink:href="#n"/>
</g>
</g>
<g clip-path="url(#a)">
<g transform="translate(269.6 435.49) scale(.1 -.1)">
<use xlink:href="#y"/>
<use x="58.251953" xlink:href="#n"/>
<use x="119.775391" xlink:href="#t"/>
<use x="183.691406" xlink:href="#p"/>
</g>
</g>
<g clip-path="url(#a)">
<g transform="translate(308.59 435.49) scale(.1 -.1)">
<defs>
<path id="an" d="m48.781 52.594v-8.4062q-3.8125 2.1094-7.6406 3.1562t-7.7344 1.0469q-8.75 0-13.594-5.5469-4.8281-5.5312-4.8281-15.547t4.8281-15.562q4.8438-5.5312 13.594-5.5312 3.9062 0 7.7344 1.0469t7.6406 3.1562v-8.3125q-3.7656-1.75-7.7969-2.625-4.0156-0.89062-8.5625-0.89062-12.359 0-19.641 7.7656-7.2656 7.7656-7.2656 20.953 0 13.375 7.3438 21.031 7.3594 7.6719 20.156 7.6719 4.1406 0 8.0938-0.85938 3.9531-0.84375 7.6719-2.5469z"/>
<path id="ax" d="m9.0781 54.688h13.141l15.531-36.625 15.578 36.625h13.031v-54.688h-9.0312v46.094l-15.094-35.594h-8.9844l-15.141 35.594v-46.094h-9.0312z"/>
</defs>
<use xlink:href="#an"/>
<use x="54.980469" xlink:href="#t"/>
<use x="118.896484" xlink:href="#u"/>
<use x="183.886719" xlink:href="#am"/>
<use x="275.390625" xlink:href="#ao"/>
<use x="335.791016" xlink:href="#p"/>
<use x="396.972656" xlink:href="#ax"/>
</g>
</g>
<g clip-path="url(#a)">
<g transform="translate(364.33 435.49) scale(.1 -.1)">
<defs>
<path id="at" d="m18.453 38.922q0-4.0625 3.125-6.3594 3.125-2.2812 8.9375-2.2812h12.109v17.234h-12.109q-5.8125 0-8.9375-2.25t-3.125-6.3438zm-12.781-38.922 16.688 23.969q-5.6562 1.2812-9.4219 4.625-3.75 3.3438-3.75 10.328 0 7.9062 5.2344 11.828 5.25 3.9375 15.859 3.9375h21.375v-54.688h-9.0312v23.094h-11.172l-16.125-23.094z"/>
<path id="ay" d="m40.578 54.688h8.9375v-25.688l23.875 25.688h10.453l-19.641-21.047 22.469-33.641h-9.625l-18.406 27.641-9.125-9.8125v-17.828h-8.9375v17.828l-9.125 9.8125-18.422-27.641h-9.6094l22.453 33.641-19.625 21.047h10.453l23.875-25.688z"/>
</defs>
<use xlink:href="#y"/>
<use x="58.251953" xlink:href="#at"/>
<use x="118.408203" xlink:href="#ay"/>
<use x="208.496094" xlink:href="#n"/>
<use x="270.019531" xlink:href="#t"/>
<use x="333.935547" xlink:href="#p"/>
<use x="395.117188" xlink:href="#n"/>
</g>
</g>
<g clip-path="url(#a)">
<g transform="translate(445.1 435.49) scale(.1 -.1)">
<use xlink:href="#d"/>
</g>
</g>
<g clip-path="url(#a)">
<g transform="translate(500.14 435.49) scale(.1 -.1)">
<use xlink:href="#aq"/>
<use x="86.279297" xlink:href="#z"/>
<use x="151.660156" xlink:href="#n"/>
</g>
</g>
<g clip-path="url(#a)">
<g transform="translate(570.72 435.49) scale(.1 -.1)">
<defs>
<path id="az" d="m9.0781 0v54.688h38.578v-7.1719h-29.547v-47.516z"/>
</defs>
<use xlink:href="#n"/>
<use x="61.523438" xlink:href="#az"/>
<use x="114.0625" xlink:href="#p"/>
</g>
</g>
<g clip-path="url(#a)">
<g transform="translate(646.41 435.49) scale(.1 -.1)">
<use xlink:href="#z"/>
<use x="65.380859" xlink:href="#n"/>
</g>
</g>
<g clip-path="url(#a)">
<g transform="translate(712.38 435.49) scale(.1 -.1)">
<defs>
<path id="aw" d="m32.172-5.0781q-3.7969-9.7656-7.4219-12.734-3.6094-2.9844-9.6562-2.9844h-7.1875v7.5156h5.2812q3.7031 0 5.75 1.7656 2.0625 1.75 4.5469 8.2969l1.6094 4.0938-22.109 53.812h9.5156l17.094-42.766 17.094 42.766h9.5156z"/>
</defs>
<use xlink:href="#aw"/>
<use x="59.179688" xlink:href="#z"/>
<use x="124.560547" xlink:href="#n"/>
<use x="186.083984" xlink:href="#an"/>
<use x="241.064453" xlink:href="#y"/>
<use x="299.316406" xlink:href="#u"/>
</g>
</g>
<g clip-path="url(#a)">
<g transform="translate(811.43 435.49) scale(.1 -.1)">
<use xlink:href="#d"/>
</g>
</g>
<g clip-path="url(#a)">
<g transform="translate(801.1 161.85) scale(.1 -.1)">
<defs>
<path id="o" d="m9.8125 72.906h9.8594v-72.906h-9.8594z"/>
<path id="aa" d="m9.8125 72.906h14.703l18.594-49.609 18.703 49.609h14.703v-72.906h-9.625v64.016l-18.797-50h-9.9062l-18.797 50v-64.016h-9.5781z"/>
<path id="ab" d="m9.8125 72.906h9.8594v-64.609h35.5v-8.2969h-45.359z"/>
</defs>
<use xlink:href="#o"/>
<use x="29.492188" xlink:href="#aa"/>
<use x="115.771484" xlink:href="#r"/>
<use x="176.074219" xlink:href="#ab"/>
<use x="231.787109" xlink:href="#o"/>
<use x="261.279297" xlink:href="#w"/>
<use x="331.103516" xlink:href="#o"/>
<use x="360.595703" xlink:href="#e"/>
</g>
</g>
<g clip-path="url(#a)">
<g transform="translate(801.1 161.85) scale(.1 -.1)">
<use xlink:href="#o"/>
<use x="29.492188" xlink:href="#aa"/>
<use x="115.771484" xlink:href="#r"/>
<use x="176.074219" xlink:href="#ab"/>
<use x="231.787109" xlink:href="#o"/>
<use x="261.279297" xlink:href="#w"/>
<use x="331.103516" xlink:href="#o"/>
<use x="360.595703" xlink:href="#e"/>
</g>
</g>
<g clip-path="url(#a)">
<g transform="translate(36.383 368.02) scale(.1 -.1)">
<use xlink:href="#o"/>
<use x="29.492188" xlink:href="#aa"/>
<use x="115.771484" xlink:href="#r"/>
<use x="176.074219" xlink:href="#ab"/>
<use x="231.787109" xlink:href="#o"/>
<use x="261.279297" xlink:href="#w"/>
<use x="331.103516" xlink:href="#o"/>
<use x="360.595703" xlink:href="#e"/>
</g>
</g>
<g clip-path="url(#a)">
<g transform="translate(259.83 23.365) scale(.1 -.1)">
<defs>
<path id="c" d="m12.406 8.2969h16.109v55.625l-17.531-3.5156v8.9844l17.438 3.5156h9.8594v-64.609h16.109v-8.2969h-41.984z"/>
</defs>
<use xlink:href="#c"/>
<use x="63.623047" xlink:href="#d"/>
<use x="95.410156" xlink:href="#c"/>
</g>
</g>
<g clip-path="url(#a)">
<g transform="translate(259.83 92.678) scale(.1 -.1)">
<defs>
<path id="m" d="m19.188 8.2969h34.422v-8.2969h-46.281v8.2969q5.6094 5.8125 15.297 15.594 9.7031 9.7969 12.188 12.641 4.7344 5.3125 6.6094 9 1.8906 3.6875 1.8906 7.25 0 5.8125-4.0781 9.4688-4.0781 3.6719-10.625 3.6719-4.6406 0-9.7969-1.6094-5.1406-1.6094-11-4.8906v9.9688q5.9531 2.3906 11.125 3.6094 5.1875 1.2188 9.4844 1.2188 11.328 0 18.062-5.6719 6.7344-5.6562 6.7344-15.125 0-4.5-1.6875-8.5312-1.6719-4.0156-6.125-9.4844-1.2188-1.4219-7.7656-8.1875-6.5312-6.7656-18.453-18.922z"/>
</defs>
<use xlink:href="#c"/>
<use x="63.623047" xlink:href="#d"/>
<use x="95.410156" xlink:href="#m"/>
</g>
</g>
<g clip-path="url(#a)">
<g transform="translate(259.83 161.85) scale(.1 -.1)">
<defs>
<path id="ai" d="m33.016 40.375q-6.6406 0-10.531-4.5469-3.875-4.5312-3.875-12.438 0-7.8594 3.875-12.438 3.8906-4.5625 10.531-4.5625t10.516 4.5625q3.875 4.5781 3.875 12.438 0 7.9062-3.875 12.438-3.875 4.5469-10.516 4.5469zm19.578 30.922v-8.9844q-3.7188 1.75-7.5 2.6719-3.7812 0.9375-7.5 0.9375-9.7656 0-14.922-6.5938-5.1406-6.5938-5.875-19.922 2.875 4.25 7.2188 6.5156 4.3594 2.2656 9.5781 2.2656 10.984 0 17.359-6.6719 6.375-6.6562 6.375-18.125 0-11.234-6.6406-18.031-6.6406-6.7812-17.672-6.7812-12.656 0-19.344 9.6875-6.6875 9.7031-6.6875 28.109 0 17.281 8.2031 27.562t22.016 10.281q3.7188 0 7.5-0.73438t7.8906-2.1875z"/>
</defs>
<use xlink:href="#c"/>
<use x="63.623047" xlink:href="#d"/>
<use x="95.410156" xlink:href="#ai"/>
</g>
</g>
<g clip-path="url(#a)">
<g transform="translate(38.069 299.61) scale(.1 -.1)">
<defs>
<path id="af" d="m8.2031 72.906h46.875v-4.2031l-26.469-68.703h-10.297l24.906 64.594h-35.016z"/>
</defs>
<use xlink:href="#c"/>
<use x="63.623047" xlink:href="#d"/>
<use x="95.410156" xlink:href="#af"/>
</g>
</g>
<g clip-path="url(#a)">
<g transform="translate(119.73 299.61) scale(.1 -.1)">
<defs>
<path id="ae" d="m31.781 34.625q-7.0312 0-11.062-3.7656-4.0156-3.7656-4.0156-10.344 0-6.5938 4.0156-10.359 4.0312-3.7656 11.062-3.7656t11.078 3.7812q4.0625 3.7969 4.0625 10.344 0 6.5781-4.0312 10.344-4.0156 3.7656-11.109 3.7656zm-9.8594 4.1875q-6.3438 1.5625-9.8906 5.9062-3.5312 4.3594-3.5312 10.609 0 8.7344 6.2188 13.812 6.2344 5.0781 17.062 5.0781 10.891 0 17.094-5.0781t6.2031-13.812q0-6.25-3.5469-10.609-3.5312-4.3438-9.8281-5.9062 7.125-1.6562 11.094-6.5 3.9844-4.8281 3.9844-11.797 0-10.609-6.4688-16.281-6.4688-5.6562-18.531-5.6562-12.047 0-18.531 5.6562-6.4688 5.6719-6.4688 16.281 0 6.9688 4 11.797 4.0156 4.8438 11.141 6.5zm-3.6094 15.578q0-5.6562 3.5312-8.8281 3.5469-3.1719 9.9375-3.1719 6.3594 0 9.9375 3.1719 3.5938 3.1719 3.5938 8.8281 0 5.6719-3.5938 8.8438-3.5781 3.1719-9.9375 3.1719-6.3906 0-9.9375-3.1719-3.5312-3.1719-3.5312-8.8438z"/>
</defs>
<use xlink:href="#c"/>
<use x="63.623047" xlink:href="#d"/>
<use x="95.410156" xlink:href="#ae"/>
</g>
</g>
<g clip-path="url(#a)">
<g transform="translate(318.16 230.85) scale(.1 -.1)">
<defs>
<path id="ad" d="m10.984 1.5156v8.9844q3.7188-1.7656 7.5156-2.6875 3.8125-0.92188 7.4844-0.92188 9.7656 0 14.906 6.5625 5.1562 6.5625 5.8906 19.953-2.8281-4.2031-7.1875-6.4531-4.3438-2.25-9.6094-2.25-10.938 0-17.312 6.6094-6.375 6.625-6.375 18.109 0 11.219 6.6406 18 6.6406 6.7969 17.672 6.7969 12.656 0 19.312-9.7031 6.6719-9.6875 6.6719-28.141 0-17.234-8.1875-27.516-8.1719-10.281-21.984-10.281-3.7188 0-7.5312 0.73438-3.7969 0.73438-7.9062 2.2031zm19.625 30.906q6.6406 0 10.516 4.5312 3.8906 4.5469 3.8906 12.469 0 7.8594-3.8906 12.422-3.875 4.5625-10.516 4.5625t-10.516-4.5625-3.875-12.422q0-7.9219 3.875-12.469 3.875-4.5312 10.516-4.5312z"/>
</defs>
<use xlink:href="#c"/>
<use x="63.623047" xlink:href="#d"/>
<use x="95.410156" xlink:href="#ad"/>
</g>
</g>
<g clip-path="url(#a)">
<g transform="translate(646.2 299.61) scale(.1 -.1)">
<defs>
<path id="ag" d="m31.781 66.406q-7.6094 0-11.453-7.5-3.8281-7.4844-3.8281-22.531 0-14.984 3.8281-22.484 3.8438-7.5 11.453-7.5 7.6719 0 11.5 7.5 3.8438 7.5 3.8438 22.484 0 15.047-3.8438 22.531-3.8281 7.5-11.5 7.5zm0 7.8125q12.266 0 18.734-9.7031 6.4688-9.6875 6.4688-28.141 0-18.406-6.4688-28.109-6.4688-9.6875-18.734-9.6875-12.25 0-18.719 9.6875-6.4688 9.7031-6.4688 28.109 0 18.453 6.4688 28.141 6.4688 9.7031 18.719 9.7031z"/>
</defs>
<use xlink:href="#c"/>
<use x="63.623047" xlink:href="#d"/>
<use x="95.410156" xlink:href="#c"/>
<use x="159.033203" xlink:href="#ag"/>
</g>
</g>
<g clip-path="url(#a)">
<g transform="translate(499.67 368.02) scale(.1 -.1)">
<defs>
<path id="ak" d="m37.797 64.312-24.906-38.922h24.906zm-2.5938 8.5938h12.406v-47.516h10.406v-8.2031h-10.406v-17.188h-9.8125v17.188h-32.906v9.5156z"/>
</defs>
<use xlink:href="#c"/>
<use x="63.623047" xlink:href="#d"/>
<use x="95.410156" xlink:href="#c"/>
<use x="159.033203" xlink:href="#ak"/>
</g>
</g>
<g clip-path="url(#a)">
<g transform="translate(568.36 368.02) scale(.1 -.1)">
<defs>
<path id="aj" d="m10.797 72.906h38.719v-8.3125h-29.688v-17.859q2.1406 0.73438 4.2812 1.0938 2.1562 0.35938 4.3125 0.35938 12.203 0 19.328-6.6875 7.1406-6.6875 7.1406-18.109 0-11.766-7.3281-18.297-7.3281-6.5156-20.656-6.5156-4.5938 0-9.3594 0.78125-4.75 0.78125-9.8281 2.3438v9.9219q4.3906-2.3906 9.0781-3.5625t9.9062-1.1719q8.4531 0 13.375 4.4375 4.9375 4.4375 4.9375 12.062 0 7.6094-4.9375 12.047-4.9219 4.4531-13.375 4.4531-3.9531 0-7.8906-0.875-3.9219-0.875-8.0156-2.7344z"/>
</defs>
<use xlink:href="#c"/>
<use x="63.623047" xlink:href="#d"/>
<use x="95.410156" xlink:href="#c"/>
<use x="159.033203" xlink:href="#aj"/>
</g>
</g>
<g clip-path="url(#a)">
<g transform="translate(641.62 368.02) scale(.1 -.1)">
<use xlink:href="#c"/>
<use x="63.623047" xlink:href="#d"/>
<use x="95.410156" xlink:href="#c"/>
<use x="159.033203" xlink:href="#ai"/>
</g>
</g>
<g clip-path="url(#a)">
<g transform="translate(719.47 368.02) scale(.1 -.1)">
<use xlink:href="#c"/>
<use x="63.623047" xlink:href="#d"/>
<use x="95.410156" xlink:href="#c"/>
<use x="159.033203" xlink:href="#af"/>
</g>
</g>
<g clip-path="url(#a)">
<g transform="translate(247.82 299.61) scale(.1 -.1)">
<use xlink:href="#c"/>
<use x="63.623047" xlink:href="#d"/>
<use x="95.410156" xlink:href="#c"/>
<use x="159.033203" xlink:href="#ae"/>
</g>
</g>
<g clip-path="url(#a)">
<g transform="translate(321.08 368.02) scale(.1 -.1)">
<use xlink:href="#c"/>
<use x="63.623047" xlink:href="#d"/>
<use x="95.410156" xlink:href="#c"/>
<use x="159.033203" xlink:href="#ad"/>
</g>
</g>
<g clip-path="url(#a)">
<g transform="translate(376.03 368.02) scale(.1 -.1)">
<use xlink:href="#c"/>
<use x="63.623047" xlink:href="#d"/>
<use x="95.410156" xlink:href="#m"/>
<use x="159.033203" xlink:href="#ag"/>
</g>
</g>
<g clip-path="url(#a)">
<g transform="translate(224.92 368.02) scale(.1 -.1)">
<use xlink:href="#c"/>
<use x="63.623047" xlink:href="#d"/>
<use x="95.410156" xlink:href="#m"/>
<use x="159.033203" xlink:href="#c"/>
</g>
</g>
<g clip-path="url(#a)">
<g transform="translate(270.71 368.02) scale(.1 -.1)">
<use xlink:href="#c"/>
<use x="63.623047" xlink:href="#d"/>
<use x="95.410156" xlink:href="#m"/>
<use x="159.033203" xlink:href="#m"/>
</g>
</g>
<g clip-path="url(#a)">
<g transform="translate(87.547 368.02) scale(.1 -.1)">
<defs>
<path id="x" d="m40.578 39.312q7.0781-1.5156 11.047-6.3125 3.9844-4.7812 3.9844-11.812 0-10.781-7.4219-16.703-7.4219-5.9062-21.094-5.9062-4.5781 0-9.4375 0.90625t-10.031 2.7188v9.5156q4.0938-2.3906 8.9688-3.6094 4.8906-1.2188 10.219-1.2188 9.2656 0 14.125 3.6562t4.8594 10.641q0 6.4531-4.5156 10.078-4.5156 3.6406-12.562 3.6406h-8.5v8.1094h8.8906q7.2656 0 11.125 2.9062t3.8594 8.375q0 5.6094-3.9844 8.6094-3.9688 3.0156-11.391 3.0156-4.0625 0-8.7031-0.89062-4.6406-0.875-10.203-2.7188v8.7812q5.625 1.5625 10.531 2.3438t9.25 0.78125q11.234 0 17.766-5.1094 6.5469-5.0938 6.5469-13.781 0-6.0625-3.4688-10.234t-9.8594-5.7812z"/>
</defs>
<use xlink:href="#c"/>
<use x="63.623047" xlink:href="#d"/>
<use x="95.410156" xlink:href="#m"/>
<use x="159.033203" xlink:href="#x"/>
</g>
</g>
<g clip-path="url(#a)">
<g transform="translate(115.02 368.02) scale(.1 -.1)">
<use xlink:href="#c"/>
<use x="63.623047" xlink:href="#d"/>
<use x="95.410156" xlink:href="#m"/>
<use x="159.033203" xlink:href="#ak"/>
</g>
</g>
<g clip-path="url(#a)">
<g transform="translate(147.08 368.02) scale(.1 -.1)">
<use xlink:href="#c"/>
<use x="63.623047" xlink:href="#d"/>
<use x="95.410156" xlink:href="#m"/>
<use x="159.033203" xlink:href="#aj"/>
</g>
</g>
<g clip-path="url(#a)">
<g transform="translate(28.019 368.02) scale(.1 -.1)">
<use xlink:href="#c"/>
<use x="63.623047" xlink:href="#d"/>
<use x="95.410156" xlink:href="#m"/>
<use x="159.033203" xlink:href="#af"/>
</g>
</g>
<g clip-path="url(#a)">
<g transform="translate(41.756 368.02) scale(.1 -.1)">
<use xlink:href="#c"/>
<use x="63.623047" xlink:href="#d"/>
<use x="95.410156" xlink:href="#m"/>
<use x="159.033203" xlink:href="#ae"/>
</g>
</g>
<g clip-path="url(#a)">
<g transform="translate(64.652 368.02) scale(.1 -.1)">
<use xlink:href="#c"/>
<use x="63.623047" xlink:href="#d"/>
<use x="95.410156" xlink:href="#m"/>
<use x="159.033203" xlink:href="#ad"/>
</g>
</g>
<g clip-path="url(#a)">
<g transform="translate(183.71 368.02) scale(.1 -.1)">
<use xlink:href="#c"/>
<use x="63.623047" xlink:href="#d"/>
<use x="95.410156" xlink:href="#x"/>
<use x="159.033203" xlink:href="#ag"/>
</g>
</g>
<g clip-path="url(#a)">
<g transform="translate(435.56 368.02) scale(.1 -.1)">
<use xlink:href="#c"/>
<use x="63.623047" xlink:href="#d"/>
<use x="95.410156" xlink:href="#x"/>
<use x="159.033203" xlink:href="#c"/>
</g>
</g>
<g clip-path="url(#a)">
<g transform="translate(801.89 368.02) scale(.1 -.1)">
<use xlink:href="#c"/>
<use x="63.623047" xlink:href="#d"/>
<use x="95.410156" xlink:href="#x"/>
<use x="159.033203" xlink:href="#m"/>
</g>
</g>
<defs>
<clipPath id="a">
<rect width="861.33" height="453.33"/>
</clipPath>
</defs>
</svg>
