<?xml version="1.0" encoding="UTF-8"?>
<!DOCTYPE svg  PUBLIC '-//W3C//DTD SVG 1.1//EN'  'http://www.w3.org/Graphics/SVG/1.1/DTD/svg11.dtd'>
<svg width="1418.7pt" height="746.67pt" version="1.1" viewBox="0 0 1418.7 746.67" xmlns="http://www.w3.org/2000/svg" xmlns:xlink="http://www.w3.org/1999/xlink">
<metadata>
<rdf:RDF xmlns:cc="http://creativecommons.org/ns#" xmlns:dc="http://purl.org/dc/elements/1.1/" xmlns:rdf="http://www.w3.org/1999/02/22-rdf-syntax-ns#">
<cc:Work>
<dc:type rdf:resource="http://purl.org/dc/dcmitype/StillImage"/>
<dc:date>2021-01-21T01:21:04.623510</dc:date>
<dc:format>image/svg+xml</dc:format>
<dc:creator>
<cc:Agent>
<dc:title>Matplotlib v3.3.3, https://matplotlib.org/</dc:title>
</cc:Agent>
</dc:creator>
</cc:Work>
</rdf:RDF>
</metadata>
<defs>
<style type="text/css">*{stroke-linecap:butt;stroke-linejoin:round;}</style>
</defs>
<path d="m0 746.67h1418.7v-746.67h-1418.7z" fill="#fff"/>
<g fill="none" stroke="#000">
<path d="m438.16 33.939-369.23 545.2" clip-path="url(#a)"/>
<path d="m438.16 33.939-345.51 273.59" clip-path="url(#a)"/>
<path d="m438.16 33.939-293.63 545.2" clip-path="url(#a)"/>
<path d="m438.16 33.939-214.24 136.97" clip-path="url(#a)"/>
<path d="m438.16 33.939 76.976 545.2" clip-path="url(#a)"/>
<path d="m438.16 33.939 186.67 545.2" clip-path="url(#a)"/>
<path d="m438.16 33.939 245.97 409.75" clip-path="url(#a)"/>
<path d="m438.16 33.939 559.25 273.59" clip-path="url(#a)"/>
<path d="m438.16 33.939-314.38 545.2" clip-path="url(#a)"/>
<path d="m438.16 33.939 26.574 545.2" clip-path="url(#a)"/>
<path d="m438.16 33.939 130.34 545.2" clip-path="url(#a)"/>
<path d="m438.16 33.939 311.2 545.2" clip-path="url(#a)"/>
<path d="m68.932 579.14-4.4472 133.59" clip-path="url(#a)"/>
<path d="m68.932 579.14 4.4472 133.59" clip-path="url(#a)"/>
<path d="m92.651 307.53 13.342 136.16" clip-path="url(#a)"/>
<path d="m92.651 307.53 13.342 136.16" clip-path="url(#a)"/>
<path d="m92.651 307.53v136.16" clip-path="url(#a)"/>
<path d="m144.54 579.14v133.59" clip-path="url(#a)"/>
<path d="m223.93 170.91-55.673 408.23" clip-path="url(#a)"/>
<path d="m223.93 170.91-28.989 408.23" clip-path="url(#a)"/>
<path d="m223.93 170.91 84.003 136.62" clip-path="url(#a)"/>
<path d="m223.93 170.91 0.65885 408.23" clip-path="url(#a)"/>
<path d="m515.14 579.14v133.59" clip-path="url(#a)"/>
<path d="m624.84 579.14v133.59" clip-path="url(#a)"/>
<path d="m684.13 443.69 2.9648 135.45" clip-path="url(#a)"/>
<path d="m684.13 443.69v135.45" clip-path="url(#a)"/>
<path d="m997.42 307.53-182.83 271.61" clip-path="url(#a)"/>
<path d="m997.42 307.53-114.64 271.61" clip-path="url(#a)"/>
<path d="m997.42 307.53-43.484 271.61" clip-path="url(#a)"/>
<path d="m997.42 307.53 69.179 136.16" clip-path="url(#a)"/>
<path d="m997.42 307.53 271.78 136.16" clip-path="url(#a)"/>
<path d="m814.58 579.14v133.59" clip-path="url(#a)"/>
<path d="m882.78 579.14v133.59" clip-path="url(#a)"/>
<path d="m953.93 579.14v133.59" clip-path="url(#a)"/>
<path d="m1066.6 443.69-38.543 135.45" clip-path="url(#a)"/>
<path d="m1066.6 443.69 38.543 135.45" clip-path="url(#a)"/>
<path d="m1269.2 443.69-84.003 135.45" clip-path="url(#a)"/>
<path d="m1269.2 443.69-0.98827 135.45" clip-path="url(#a)"/>
<path d="m1269.2 443.69 84.992 135.45" clip-path="url(#a)"/>
<path d="m1185.2 579.14v133.59" clip-path="url(#a)"/>
<path d="m1268.2 579.14v133.59" clip-path="url(#a)"/>
<path d="m1028.1 579.14v133.59" clip-path="url(#a)"/>
<path d="m1105.1 579.14v133.59" clip-path="url(#a)"/>
<path d="m684.13 579.14v133.59" clip-path="url(#a)"/>
<path d="m168.25 579.14v133.59" clip-path="url(#a)"/>
<path d="m194.94 579.14v133.59" clip-path="url(#a)"/>
<path d="m307.93 307.53-50.731 271.61" clip-path="url(#a)"/>
<path d="m307.93 307.53-15.154 271.61" clip-path="url(#a)"/>
<path d="m307.93 307.53 65.885 136.16" clip-path="url(#a)"/>
<path d="m257.2 579.14v133.59" clip-path="url(#a)"/>
<path d="m292.78 579.14v133.59" clip-path="url(#a)"/>
<path d="m373.81 443.69-42.496 135.45" clip-path="url(#a)"/>
<path d="m373.81 443.69-0.98827 135.45" clip-path="url(#a)"/>
<path d="m373.81 443.69 43.484 135.45" clip-path="url(#a)"/>
<path d="m331.32 579.14v133.59" clip-path="url(#a)"/>
<path d="m372.83 579.14v133.59" clip-path="url(#a)"/>
<path d="m417.3 579.14v133.59" clip-path="url(#a)"/>
<path d="m92.651 443.69-7.4121 135.45" clip-path="url(#a)"/>
<path d="m92.651 443.69 7.4121 135.45" clip-path="url(#a)"/>
<path d="m85.239 579.14v133.59" clip-path="url(#a)"/>
<path d="m100.06 579.14v133.59" clip-path="url(#a)"/>
<path d="m123.78 579.14v133.59" clip-path="url(#a)"/>
<path d="m224.59 579.14v133.59" clip-path="url(#a)"/>
<path d="m464.74 579.14v133.59" clip-path="url(#a)"/>
<path d="m568.5 579.14v133.59" clip-path="url(#a)"/>
<path d="m749.36 579.14v133.59" clip-path="url(#a)"/>
<path d="m1354.2 579.14v133.59" clip-path="url(#a)"/>
</g>
<path d="m257.49 311.9 2.4995-3.6908q1.3458-1.9872-0.64138-3.333l-6.4107-4.3416q-1.9872-1.3458-3.333 0.64138l-2.4995 3.6908q-1.3458 1.9872 0.64138 3.333l6.4107 4.3416q1.9872 1.3458 3.333-0.64138z" clip-path="url(#a)" fill="#fff" stroke="#fff"/>
<g clip-path="url(#a)">
<g transform="translate(254.13 309.62) rotate(-55.893) scale(.08 -.08)">
<defs>
<path id="x" d="m9.8125 72.906h9.8594v-64.609h35.5v-8.2969h-45.359z"/>
</defs>
<use xlink:href="#x"/>
</g>
</g>
<path d="m266.94 177.52 4.7166-3.7348q1.8815-1.4899 0.39166-3.3714l-4.8064-6.07q-1.4899-1.8816-3.3714-0.39166l-4.7166 3.7348q-1.8816 1.4899-0.39166 3.3714l4.8064 6.07q1.4899 1.8816 3.3714 0.39166z" clip-path="url(#a)" fill="#fff" stroke="#fff"/>
<g clip-path="url(#a)">
<g transform="translate(264.42 174.33) rotate(-38.374) scale(.08 -.08)">
<defs>
<path id="ad" d="m9.8125 72.906h9.8594v-29.891h35.844v29.891h9.8594v-72.906h-9.8594v34.719h-35.844v-34.719h-9.8594z"/>
</defs>
<use xlink:href="#ad"/>
</g>
</g>
<path d="m295.81 311.47 2.1136-3.9245q1.138-2.113-0.97502-3.2511l-6.8167-3.6713q-2.113-1.138-3.2511 0.97502l-2.1136 3.9245q-1.138 2.113 0.97502 3.2511l6.8167 3.6713q2.113 1.138 3.2511-0.97502z" clip-path="url(#a)" fill="#fff" stroke="#fff"/>
<g clip-path="url(#a)">
<g transform="translate(292.24 309.55) rotate(-61.694) scale(.08 -.08)">
<use xlink:href="#x"/>
</g>
</g>
<path d="m331.89 109.33 5.0688-3.2407q2.0221-1.2928 0.72929-3.3148l-4.1705-6.5233q-1.2928-2.0221-3.3148-0.72929l-5.0688 3.2407q-2.0221 1.2928-0.72929 3.3148l4.1705 6.5233q1.2928 2.0221 3.3148 0.72929z" clip-path="url(#a)" fill="#fff" stroke="#fff"/>
<g clip-path="url(#a)">
<g transform="translate(329.7 105.9) rotate(-32.592) scale(.08 -.08)">
<use xlink:href="#ad"/>
</g>
</g>
<path d="m470.13 305.21 0.62317 4.4137q0.33552 2.3764 2.712 2.0409l7.6665-1.0824q2.3764-0.33552 2.0409-2.712l-0.62317-4.4137q-0.33552-2.3764-2.712-2.0409l-7.6665 1.0824q-2.3764 0.33552-2.0409 2.712z" clip-path="url(#a)" fill="#fff" stroke="#fff"/>
<g clip-path="url(#a)">
<g transform="translate(474.15 304.64) rotate(81.964) scale(.08 -.08)">
<use xlink:href="#x"/>
</g>
</g>
<path d="m524.84 306.46 1.4439 4.2172q0.77744 2.2706 3.048 1.4931l7.325-2.5081q2.2706-0.77744 1.4931-3.048l-1.4439-4.2172q-0.77744-2.2706-3.048-1.4931l-7.325 2.5081q-2.2706 0.77744-1.4931 3.048z" clip-path="url(#a)" fill="#fff" stroke="#fff"/>
<g clip-path="url(#a)">
<g transform="translate(528.69 305.14) rotate(71.099) scale(.08 -.08)">
<use xlink:href="#x"/>
</g>
</g>
<path d="m554.22 239.46 3.0965 5.1582q1.2352 2.0577 3.293 0.82248l6.6383-3.9849q2.0577-1.2352 0.82248-3.293l-3.0965-5.1582q-1.2352-2.0577-3.293-0.82248l-6.6383 3.9849q-2.0577 1.2352-0.82248 3.293z" clip-path="url(#a)" fill="#fff" stroke="#fff"/>
<g clip-path="url(#a)">
<g transform="translate(557.71 237.37) rotate(59.024) scale(.08 -.08)">
<use xlink:href="#ad"/>
</g>
</g>
<path d="m712.33 175.05 5.4042 2.6438q2.1559 1.0547 3.2105-1.1012l3.4024-6.9549q1.0547-2.1559-1.1012-3.2105l-5.4042-2.6438q-2.1559-1.0547-3.2105 1.1012l-3.4024 6.9549q-1.0547 2.1559 1.1012 3.2105z" clip-path="url(#a)" fill="#fff" stroke="#fff"/>
<g clip-path="url(#a)">
<g transform="translate(714.12 171.4) rotate(26.068) scale(.08 -.08)">
<use xlink:href="#ad"/>
</g>
</g>
<path d="m284.94 312.21 2.9248-5.0721q1.1989-2.0791-0.88022-3.278l-6.7073-3.8677q-2.0791-1.1989-3.278 0.88022l-2.9248 5.0721q-1.1989 2.0791 0.88022 3.278l6.7073 3.8677q2.0791 1.1989 3.278-0.88022z" clip-path="url(#a)" fill="#fff" stroke="#fff"/>
<g clip-path="url(#a)">
<g transform="translate(281.42 310.18) rotate(-60.031) scale(.08 -.08)">
<defs>
<path id="z" d="m8.6875 72.906h9.9219v-44.297q0-11.719 4.2344-16.875 4.25-5.1406 13.781-5.1406 9.4688 0 13.719 5.1406 4.25 5.1562 4.25 16.875v44.297h9.9062v-45.516q0-14.25-7.0625-21.531-7.0469-7.2812-20.812-7.2812-13.828 0-20.891 7.2812-7.0469 7.2812-7.0469 21.531z"/>
</defs>
<use xlink:href="#z"/>
</g>
</g>
<path d="m445.04 303.92 0.28504 5.8481q0.11684 2.3972 2.514 2.2803l7.7333-0.37693q2.3972-0.11684 2.2803-2.514l-0.28504-5.8481q-0.11684-2.3972-2.514-2.2803l-7.7333 0.37693q-2.3972 0.11684-2.2803 2.514z" clip-path="url(#a)" fill="#fff" stroke="#fff"/>
<g clip-path="url(#a)">
<g transform="translate(449.1 303.72) rotate(87.21) scale(.08 -.08)">
<use xlink:href="#z"/>
</g>
</g>
<path d="m496.55 305.15 1.3614 5.6945q0.55805 2.3342 2.8923 1.7762l7.5303-1.8003q2.3342-0.55805 1.7762-2.8923l-1.3614-5.6945q-0.55805-2.3342-2.8923-1.7762l-7.5303 1.8003q-2.3342 0.55805-1.7762 2.8923z" clip-path="url(#a)" fill="#fff" stroke="#fff"/>
<g clip-path="url(#a)">
<g transform="translate(500.51 304.2) rotate(76.554) scale(.08 -.08)">
<use xlink:href="#z"/>
</g>
</g>
<path d="m586.86 307.1 2.9025 5.085q1.1897 2.0844 3.2741 0.89461l6.7242-3.8381q2.0844-1.1897 0.89461-3.2741l-2.9025-5.085q-1.1897-2.0844-3.2741-0.89461l-6.7242 3.8381q-2.0844 1.1897-0.89461 3.2741z" clip-path="url(#a)" fill="#fff" stroke="#fff"/>
<g clip-path="url(#a)">
<g transform="translate(590.39 305.09) rotate(60.282) scale(.08 -.08)">
<use xlink:href="#z"/>
</g>
</g>
<path d="m72.414 663.04 1.1248-33.789q0.079852-2.3987-2.3188-2.4785l-7.7382-0.25761q-2.3987-0.079852-2.4785 2.3188l-1.1248 33.789q-0.079852 2.3987 2.3188 2.4785l7.7382 0.25761q2.3987 0.079852 2.4785-2.3188z" clip-path="url(#a)" fill="#fff" stroke="#fff"/>
<g clip-path="url(#a)">
<g transform="translate(68.352 662.9) rotate(-88.093) scale(.08 -.08)">
<defs>
<path id="e" d="m-0.29688 72.906h61.672v-8.3125h-25.875v-64.594h-9.9062v64.594h-25.891z"/>
<path id="l" d="m56.203 29.594v-4.3906h-41.312q0.59375-9.2812 5.5938-14.141t13.938-4.8594q5.1719 0 10.031 1.2656t9.6562 3.8125v-8.5q-4.8438-2.0469-9.9219-3.125t-10.297-1.0781q-13.094 0-20.734 7.6094-7.6406 7.625-7.6406 20.625 0 13.422 7.25 21.297 7.25 7.8906 19.562 7.8906 11.031 0 17.453-7.1094 6.4219-7.0938 6.4219-19.297zm-8.9844 2.6406q-0.09375 7.3594-4.125 11.75-4.0312 4.4062-10.672 4.4062-7.5156 0-12.031-4.25t-5.2031-11.969z"/>
<path id="g" d="m41.109 46.297q-1.5156 0.875-3.2969 1.2812-1.7812 0.42188-3.9219 0.42188-7.625 0-11.703-4.9531t-4.0781-14.234v-28.812h-9.0312v54.688h9.0312v-8.5q2.8438 4.9844 7.375 7.3906 4.5469 2.4219 11.047 2.4219 0.92188 0 2.0469-0.125 1.125-0.10938 2.4844-0.35938z"/>
<path id="i" d="m52 44.188q3.375 6.0625 8.0625 8.9375t11.031 2.875q8.5469 0 13.188-5.9844 4.6406-5.9688 4.6406-17v-33.016h-9.0312v32.719q0 7.8594-2.7969 11.656-2.7812 3.8125-8.4844 3.8125-6.9844 0-11.047-4.6406-4.0469-4.625-4.0469-12.641v-30.906h-9.0312v32.719q0 7.9062-2.7812 11.688t-8.5938 3.7812q-6.8906 0-10.953-4.6562-4.0469-4.6562-4.0469-12.625v-30.906h-9.0312v54.688h9.0312v-8.5q3.0781 5.0312 7.375 7.4219t10.203 2.3906q5.9688 0 10.141-3.0312 4.1719-3.0156 6.1719-8.7812z"/>
<path id="k" d="m9.4219 54.688h8.9844v-54.688h-8.9844zm0 21.297h8.9844v-11.391h-8.9844z"/>
<path id="h" d="m54.891 33.016v-33.016h-8.9844v32.719q0 7.7656-3.0312 11.609-3.0312 3.8594-9.0781 3.8594-7.2812 0-11.484-4.6406-4.2031-4.625-4.2031-12.641v-30.906h-9.0312v54.688h9.0312v-8.5q3.2344 4.9375 7.5938 7.375 4.375 2.4375 10.094 2.4375 9.4219 0 14.25-5.8281 4.8438-5.8281 4.8438-17.156z"/>
<path id="f" d="m34.281 27.484q-10.891 0-15.094-2.4844t-4.2031-8.5q0-4.7812 3.1562-7.5938 3.1562-2.7969 8.5625-2.7969 7.4844 0 12 5.2969t4.5156 14.078v2zm17.922 3.7188v-31.203h-8.9844v8.2969q-3.0781-4.9688-7.6719-7.3438t-11.234-2.375q-8.3906 0-13.359 4.7188-4.9531 4.7188-4.9531 12.625 0 9.2188 6.1719 13.906 6.1875 4.6875 18.438 4.6875h12.609v0.89062q0 6.2031-4.0781 9.5938t-11.453 3.3906q-4.6875 0-9.1406-1.125-4.4375-1.125-8.5312-3.375v8.3125q4.9219 1.9062 9.5625 2.8438 4.6406 0.95312 9.0312 0.95312 11.875 0 17.734-6.1562 5.8594-6.1406 5.8594-18.641z"/>
<path id="j" d="m9.4219 75.984h8.9844v-75.984h-8.9844z"/>
</defs>
<use xlink:href="#e"/>
<use x="44.083984" xlink:href="#l"/>
<use x="105.607422" xlink:href="#g"/>
<use x="144.970703" xlink:href="#i"/>
<use x="242.382812" xlink:href="#k"/>
<use x="270.166016" xlink:href="#h"/>
<use x="333.544922" xlink:href="#f"/>
<use x="394.824219" xlink:href="#j"/>
</g>
</g>
<path d="m64.326 629.25 1.1248 33.789q0.079852 2.3987 2.4785 2.3188l7.7382-0.25761q2.3987-0.079852 2.3188-2.4785l-1.1248-33.789q-0.079853-2.3987-2.4785-2.3188l-7.7382 0.25761q-2.3987 0.079852-2.3188 2.4785z" clip-path="url(#a)" fill="#fff" stroke="#fff"/>
<g clip-path="url(#a)">
<g transform="translate(68.387 629.11) rotate(88.093) scale(.08 -.08)">
<use xlink:href="#e"/>
<use x="44.083984" xlink:href="#l"/>
<use x="105.607422" xlink:href="#g"/>
<use x="144.970703" xlink:href="#i"/>
<use x="242.382812" xlink:href="#k"/>
<use x="270.166016" xlink:href="#h"/>
<use x="333.544922" xlink:href="#f"/>
<use x="394.824219" xlink:href="#j"/>
</g>
</g>
<path d="m92.813 373.5 0.53367 5.4464q0.23405 2.3886 2.6226 2.1545l7.7056-0.75504q2.3886-0.23405 2.1545-2.6226l-0.53367-5.4464q-0.23405-2.3886-2.6226-2.1545l-7.7056 0.75504q-2.3886 0.23405-2.1545 2.6226z" clip-path="url(#a)" fill="#fff" stroke="#fff"/>
<g clip-path="url(#a)">
<g transform="translate(96.858 373.1) rotate(84.404) scale(.08 -.08)">
<defs>
<path id="r" d="m34.188 63.188-13.391-36.281h26.812zm-5.5781 9.7188h11.188l27.781-72.906h-10.25l-6.6406 18.703h-32.859l-6.6406-18.703h-10.406z"/>
</defs>
<use xlink:href="#r"/>
</g>
</g>
<path d="m92.845 373.82 0.47041 4.8008q0.23405 2.3886 2.6226 2.1545l7.7056-0.75504q2.3886-0.23405 2.1545-2.6226l-0.47041-4.8008q-0.23405-2.3886-2.6226-2.1545l-7.7056 0.75504q-2.3886 0.23405-2.1545 2.6226z" clip-path="url(#a)" fill="#fff" stroke="#fff"/>
<g clip-path="url(#a)">
<g transform="translate(96.889 373.42) rotate(84.404) scale(.08 -.08)">
<defs>
<path id="u" d="m19.672 64.797v-27.391h12.406q6.8906 0 10.641 3.5625 3.7656 3.5625 3.7656 10.156 0 6.5469-3.7656 10.109-3.75 3.5625-10.641 3.5625zm-9.8594 8.1094h22.266q12.266 0 18.531-5.5469 6.2812-5.5469 6.2812-16.234 0-10.797-6.2812-16.312-6.2656-5.5156-18.531-5.5156h-12.406v-29.297h-9.8594z"/>
</defs>
<use xlink:href="#u"/>
</g>
</g>
<path d="m86.379 372.53v6.16q0 2.4 2.4 2.4h7.7425q2.4 0 2.4-2.4v-6.16q0-2.4-2.4-2.4h-7.7425q-2.4 0-2.4 2.4z" clip-path="url(#a)" fill="#fff" stroke="#fff"/>
<g clip-path="url(#a)">
<g transform="translate(90.443 372.53) rotate(90) scale(.08 -.08)">
<defs>
<path id="aq" d="m19.672 64.797v-56.688h11.922q15.094 0 22.094 6.8281 7 6.8438 7 21.594 0 14.641-7 21.453t-22.094 6.8125zm-9.8594 8.1094h20.266q21.188 0 31.094-8.8125 9.9219-8.8125 9.9219-27.562 0-18.859-9.9688-27.703-9.9531-8.8281-31.047-8.8281h-20.266z"/>
</defs>
<use xlink:href="#aq"/>
</g>
</g>
<path d="m138.26 629.03v33.808q0 2.4 2.4 2.4h7.7425q2.4 0 2.4-2.4v-33.808q0-2.4-2.4-2.4h-7.7425q-2.4 0-2.4 2.4z" clip-path="url(#a)" fill="#fff" stroke="#fff"/>
<g clip-path="url(#a)">
<g transform="translate(142.33 629.03) rotate(90) scale(.08 -.08)">
<use xlink:href="#e"/>
<use x="44.083984" xlink:href="#l"/>
<use x="105.607422" xlink:href="#g"/>
<use x="144.970703" xlink:href="#i"/>
<use x="242.382812" xlink:href="#k"/>
<use x="270.166016" xlink:href="#h"/>
<use x="333.544922" xlink:href="#f"/>
<use x="394.824219" xlink:href="#j"/>
</g>
</g>
<path d="m201.93 378.58 0.73947-5.4223q0.3243-2.378-2.0537-2.7023l-7.6715-1.0462q-2.378-0.3243-2.7023 2.0537l-0.73947 5.4223q-0.3243 2.378 2.0537 2.7023l7.6715 1.0462q2.378 0.3243 2.7023-2.0537z" clip-path="url(#a)" fill="#fff" stroke="#fff"/>
<g clip-path="url(#a)">
<g transform="translate(197.91 378.03) rotate(-82.234) scale(.08 -.08)">
<use xlink:href="#r"/>
</g>
</g>
<path d="m215.52 377.87 0.34168-4.8116q0.17-2.394-2.224-2.564l-7.7231-0.54843q-2.394-0.17-2.564 2.224l-0.34169 4.8116q-0.17 2.394 2.224 2.564l7.7231 0.54843q2.394 0.17 2.564-2.224z" clip-path="url(#a)" fill="#fff" stroke="#fff"/>
<g clip-path="url(#a)">
<g transform="translate(211.46 377.58) rotate(-85.938) scale(.08 -.08)">
<use xlink:href="#u"/>
</g>
</g>
<path d="m259.15 240.17 2.8663 4.6618q1.2571 2.0445 3.3015 0.78741l6.5955-4.0553q2.0445-1.2571 0.78741-3.3015l-2.8663-4.6618q-1.2571-2.0445-3.3015-0.78741l-6.5955 4.0553q-2.0445 1.2571-0.78741 3.3015z" clip-path="url(#a)" fill="#fff" stroke="#fff"/>
<g clip-path="url(#a)">
<g transform="translate(262.61 238.04) rotate(58.414) scale(.08 -.08)">
<use xlink:href="#r"/>
</g>
</g>
<path d="m217.98 372.1 0.009449 5.855q0.003874 2.4 2.4039 2.3961l7.7425-0.012496q2.4-0.003873 2.3961-2.4039l-0.009449-5.855q-0.003874-2.4-2.4039-2.3961l-7.7425 0.012496q-2.4 0.003873-2.3961 2.4039z" clip-path="url(#a)" fill="#fff" stroke="#fff"/>
<g clip-path="url(#a)">
<g transform="translate(222.04 372.1) rotate(89.908) scale(.08 -.08)">
<use xlink:href="#z"/>
</g>
</g>
<path d="m508.87 629.03v33.808q0 2.4 2.4 2.4h7.7425q2.4 0 2.4-2.4v-33.808q0-2.4-2.4-2.4h-7.7425q-2.4 0-2.4 2.4z" clip-path="url(#a)" fill="#fff" stroke="#fff"/>
<g clip-path="url(#a)">
<g transform="translate(512.93 629.03) rotate(90) scale(.08 -.08)">
<use xlink:href="#e"/>
<use x="44.083984" xlink:href="#l"/>
<use x="105.607422" xlink:href="#g"/>
<use x="144.970703" xlink:href="#i"/>
<use x="242.382812" xlink:href="#k"/>
<use x="270.166016" xlink:href="#h"/>
<use x="333.544922" xlink:href="#f"/>
<use x="394.824219" xlink:href="#j"/>
</g>
</g>
<path d="m618.56 629.03v33.808q0 2.4 2.4 2.4h7.7425q2.4 0 2.4-2.4v-33.808q0-2.4-2.4-2.4h-7.7425q-2.4 0-2.4 2.4z" clip-path="url(#a)" fill="#fff" stroke="#fff"/>
<g clip-path="url(#a)">
<g transform="translate(622.63 629.03) rotate(90) scale(.08 -.08)">
<use xlink:href="#e"/>
<use x="44.083984" xlink:href="#l"/>
<use x="105.607422" xlink:href="#g"/>
<use x="144.970703" xlink:href="#i"/>
<use x="242.382812" xlink:href="#k"/>
<use x="270.166016" xlink:href="#h"/>
<use x="333.544922" xlink:href="#f"/>
<use x="394.824219" xlink:href="#j"/>
</g>
</g>
<path d="m679.29 508.81 0.11976 5.4712q0.052521 2.3994 2.4519 2.3469l7.7406-0.16943q2.3994-0.052521 2.3469-2.4519l-0.11976-5.4712q-0.05252-2.3994-2.4519-2.3469l-7.7406 0.16943q-2.3994 0.052521-2.3469 2.4519z" clip-path="url(#a)" fill="#fff" stroke="#fff"/>
<g clip-path="url(#a)">
<g transform="translate(683.35 508.73) rotate(88.746) scale(.08 -.08)">
<use xlink:href="#r"/>
</g>
</g>
<path d="m677.86 509v4.8238q0 2.4 2.4 2.4h7.7425q2.4 0 2.4-2.4v-4.8238q0-2.4-2.4-2.4h-7.7425q-2.4 0-2.4 2.4z" clip-path="url(#a)" fill="#fff" stroke="#fff"/>
<g clip-path="url(#a)">
<g transform="translate(681.92 509) rotate(90) scale(.08 -.08)">
<use xlink:href="#u"/>
</g>
</g>
<path d="m909.67 449.11 3.0559-4.5398q1.3402-1.991-0.65076-3.3311l-6.4229-4.3235q-1.991-1.3402-3.3311 0.65076l-3.0559 4.5398q-1.3402 1.9909 0.65076 3.3311l6.4229 4.3235q1.991 1.3402 3.3311-0.65076z" clip-path="url(#a)" fill="#fff" stroke="#fff"/>
<g clip-path="url(#a)">
<g transform="translate(906.3 446.84) rotate(-56.054) scale(.08 -.08)">
<use xlink:href="#r"/>
</g>
</g>
<path d="m944.68 448.61 2.3954-5.6752q0.93326-2.2111-1.2778-3.1444l-7.1331-3.0107q-2.2111-0.93326-3.1444 1.2778l-2.3954 5.6752q-0.93326 2.2111 1.2778 3.1444l7.1331 3.0107q2.2111 0.93326 3.1444-1.2778z" clip-path="url(#a)" fill="#fff" stroke="#fff"/>
<g clip-path="url(#a)">
<g transform="translate(940.93 447.03) rotate(-67.116) scale(.08 -.08)">
<use xlink:href="#aq"/>
</g>
</g>
<path d="m981.48 446.71 0.76257-4.7631q0.3794-2.3698-1.9904-2.7492l-7.6451-1.224q-2.3698-0.37941-2.7492 1.9904l-0.76257 4.7631q-0.37941 2.3698 1.9904 2.7492l7.6451 1.224q2.3698 0.3794 2.7492-1.9904z" clip-path="url(#a)" fill="#fff" stroke="#fff"/>
<g clip-path="url(#a)">
<g transform="translate(977.47 446.06) rotate(-80.904) scale(.08 -.08)">
<use xlink:href="#u"/>
</g>
</g>
<path d="m1025.2 376.01 2.4788 4.8789q1.0871 2.1397 3.2268 1.0526l6.9027-3.5071q2.1397-1.0871 1.0526-3.2268l-2.4788-4.8789q-1.0871-2.1397-3.2268-1.0526l-6.9027 3.5071q-2.1397 1.0871-1.0526 3.2268z" clip-path="url(#a)" fill="#fff" stroke="#fff"/>
<g clip-path="url(#a)">
<g transform="translate(1028.8 374.17) rotate(63.066) scale(.08 -.08)">
<use xlink:href="#r"/>
</g>
</g>
<path d="m1128 379.99 4.8928 2.4513q2.1458 1.075 3.2208-1.0707l3.4681-6.9223q1.075-2.1458-1.0707-3.2208l-4.8928-2.4513q-2.1458-1.075-3.2208 1.0707l-3.4681 6.9223q-1.075 2.1458 1.0707 3.2208z" clip-path="url(#a)" fill="#fff" stroke="#fff"/>
<g clip-path="url(#a)">
<g transform="translate(1129.9 376.36) rotate(26.611) scale(.08 -.08)">
<use xlink:href="#r"/>
</g>
</g>
<path d="m808.31 629.03v33.808q0 2.4 2.4 2.4h7.7425q2.4 0 2.4-2.4v-33.808q0-2.4-2.4-2.4h-7.7425q-2.4 0-2.4 2.4z" clip-path="url(#a)" fill="#fff" stroke="#fff"/>
<g clip-path="url(#a)">
<g transform="translate(812.38 629.03) rotate(90) scale(.08 -.08)">
<use xlink:href="#e"/>
<use x="44.083984" xlink:href="#l"/>
<use x="105.607422" xlink:href="#g"/>
<use x="144.970703" xlink:href="#i"/>
<use x="242.382812" xlink:href="#k"/>
<use x="270.166016" xlink:href="#h"/>
<use x="333.544922" xlink:href="#f"/>
<use x="394.824219" xlink:href="#j"/>
</g>
</g>
<path d="m876.5 629.03v33.808q0 2.4 2.4 2.4h7.7425q2.4 0 2.4-2.4v-33.808q0-2.4-2.4-2.4h-7.7425q-2.4 0-2.4 2.4z" clip-path="url(#a)" fill="#fff" stroke="#fff"/>
<g clip-path="url(#a)">
<g transform="translate(880.57 629.03) rotate(90) scale(.08 -.08)">
<use xlink:href="#e"/>
<use x="44.083984" xlink:href="#l"/>
<use x="105.607422" xlink:href="#g"/>
<use x="144.970703" xlink:href="#i"/>
<use x="242.382812" xlink:href="#k"/>
<use x="270.166016" xlink:href="#h"/>
<use x="333.544922" xlink:href="#f"/>
<use x="394.824219" xlink:href="#j"/>
</g>
</g>
<path d="m947.66 629.03v33.808q0 2.4 2.4 2.4h7.7425q2.4 0 2.4-2.4v-33.808q0-2.4-2.4-2.4h-7.7425q-2.4 0-2.4 2.4z" clip-path="url(#a)" fill="#fff" stroke="#fff"/>
<g clip-path="url(#a)">
<g transform="translate(951.72 629.03) rotate(90) scale(.08 -.08)">
<use xlink:href="#e"/>
<use x="44.083984" xlink:href="#l"/>
<use x="105.607422" xlink:href="#g"/>
<use x="144.970703" xlink:href="#i"/>
<use x="242.382812" xlink:href="#k"/>
<use x="270.166016" xlink:href="#h"/>
<use x="333.544922" xlink:href="#f"/>
<use x="394.824219" xlink:href="#j"/>
</g>
</g>
<path d="m1052.6 515.8 1.5214-5.3465q0.65686-2.3084-1.6515-2.9652l-7.4469-2.1191q-2.3084-0.65686-2.9652 1.6515l-1.5214 5.3465q-0.65686 2.3084 1.6515 2.9652l7.4469 2.1191q2.3084 0.65686 2.9652-1.6515z" clip-path="url(#a)" fill="#fff" stroke="#fff"/>
<g clip-path="url(#a)">
<g transform="translate(1048.7 514.69) rotate(-74.116) scale(.08 -.08)">
<defs>
<path id="ap" d="m44.391 34.188q3.1719-1.0781 6.1719-4.5938t6.0312-9.6719l10.016-19.922h-10.609l-9.3125 18.703q-3.625 7.3281-7.0156 9.7188t-9.25 2.3906h-10.75v-30.812h-9.8594v72.906h22.266q12.5 0 18.656-5.2344 6.1562-5.2188 6.1562-15.766 0-6.8906-3.2031-11.438-3.2031-4.5312-9.2969-6.2812zm-24.719 30.609v-25.875h12.406q7.125 0 10.766 3.2969t3.6406 9.6875-3.6406 9.6406-10.766 3.25z"/>
</defs>
<use xlink:href="#ap"/>
</g>
</g>
<path d="m1079.1 510.44 1.5289 5.373q0.65686 2.3084 2.9652 1.6515l7.4469-2.1191q2.3084-0.65686 1.6515-2.9652l-1.5289-5.373q-0.65686-2.3084-2.9652-1.6515l-7.4469 2.1191q-2.3084 0.65686-1.6515 2.9652z" clip-path="url(#a)" fill="#fff" stroke="#fff"/>
<g clip-path="url(#a)">
<g transform="translate(1083 509.33) rotate(74.116) scale(.08 -.08)">
<defs>
<path id="y" d="m64.406 67.281v-10.391q-4.9844 4.6406-10.625 6.9219-5.6406 2.2969-11.984 2.2969-12.5 0-19.141-7.6406t-6.6406-22.094q0-14.406 6.6406-22.047t19.141-7.6406q6.3438 0 11.984 2.2969t10.625 6.9375v-10.312q-5.1719-3.5156-10.969-5.2812-5.7812-1.75-12.219-1.75-16.562 0-26.094 10.125-9.5156 10.141-9.5156 27.672 0 17.578 9.5156 27.703 9.5312 10.141 26.094 10.141 6.5312 0 12.312-1.7344 5.7969-1.7344 10.875-5.2031z"/>
</defs>
<use xlink:href="#y"/>
</g>
</g>
<path d="m1231.2 516.87 2.6643-4.2959q1.2649-2.0396-0.77467-3.3045l-6.5798-4.0807q-2.0396-1.2649-3.3045 0.77467l-2.6643 4.2959q-1.2649 2.0396 0.77467 3.3045l6.5798 4.0807q2.0396 1.2649 3.3045-0.77467z" clip-path="url(#a)" fill="#fff" stroke="#fff"/>
<g clip-path="url(#a)">
<g transform="translate(1227.7 514.72) rotate(-58.193) scale(.08 -.08)">
<defs>
<path id="ai" d="m9.8125 72.906h46.094v-8.3125h-36.234v-21.578h34.719v-8.2969h-34.719v-26.422h37.109v-8.2969h-46.969z"/>
</defs>
<use xlink:href="#ai"/>
</g>
</g>
<path d="m1274.9 514.25 0.040758-5.5861q0.017511-2.3999-2.3824-2.4174l-7.7423-0.05649q-2.3999-0.01751-2.4174 2.3824l-0.040758 5.5861q-0.017511 2.3999 2.3824 2.4174l7.7423 0.05649q2.3999 0.017511 2.4174-2.3824z" clip-path="url(#a)" fill="#fff" stroke="#fff"/>
<g clip-path="url(#a)">
<g transform="translate(1270.9 514.22) rotate(-89.582) scale(.08 -.08)">
<use xlink:href="#y"/>
</g>
</g>
<path d="m1304.8 512.27 3.112 4.9595q1.2756 2.0329 3.3085 0.7573l6.5583-4.1152q2.0329-1.2756 0.7573-3.3085l-3.112-4.9595q-1.2756-2.0329-3.3085-0.7573l-6.5583 4.1152q-2.0329 1.2756-0.7573 3.3085z" clip-path="url(#a)" fill="#fff" stroke="#fff"/>
<g clip-path="url(#a)">
<g transform="translate(1308.3 510.11) rotate(57.892) scale(.08 -.08)">
<use xlink:href="#z"/>
</g>
</g>
<path d="m1178.9 629.03v33.808q0 2.4 2.4 2.4h7.7425q2.4 0 2.4-2.4v-33.808q0-2.4-2.4-2.4h-7.7425q-2.4 0-2.4 2.4z" clip-path="url(#a)" fill="#fff" stroke="#fff"/>
<g clip-path="url(#a)">
<g transform="translate(1183 629.03) rotate(90) scale(.08 -.08)">
<use xlink:href="#e"/>
<use x="44.083984" xlink:href="#l"/>
<use x="105.607422" xlink:href="#g"/>
<use x="144.970703" xlink:href="#i"/>
<use x="242.382812" xlink:href="#k"/>
<use x="270.166016" xlink:href="#h"/>
<use x="333.544922" xlink:href="#f"/>
<use x="394.824219" xlink:href="#j"/>
</g>
</g>
<path d="m1261.9 629.03v33.808q0 2.4 2.4 2.4h7.7425q2.4 0 2.4-2.4v-33.808q0-2.4-2.4-2.4h-7.7425q-2.4 0-2.4 2.4z" clip-path="url(#a)" fill="#fff" stroke="#fff"/>
<g clip-path="url(#a)">
<g transform="translate(1266 629.03) rotate(90) scale(.08 -.08)">
<use xlink:href="#e"/>
<use x="44.083984" xlink:href="#l"/>
<use x="105.607422" xlink:href="#g"/>
<use x="144.970703" xlink:href="#i"/>
<use x="242.382812" xlink:href="#k"/>
<use x="270.166016" xlink:href="#h"/>
<use x="333.544922" xlink:href="#f"/>
<use x="394.824219" xlink:href="#j"/>
</g>
</g>
<path d="m1021.8 629.03v33.808q0 2.4 2.4 2.4h7.7425q2.4 0 2.4-2.4v-33.808q0-2.4-2.4-2.4h-7.7425q-2.4 0-2.4 2.4z" clip-path="url(#a)" fill="#fff" stroke="#fff"/>
<g clip-path="url(#a)">
<g transform="translate(1025.8 629.03) rotate(90) scale(.08 -.08)">
<use xlink:href="#e"/>
<use x="44.083984" xlink:href="#l"/>
<use x="105.607422" xlink:href="#g"/>
<use x="144.970703" xlink:href="#i"/>
<use x="242.382812" xlink:href="#k"/>
<use x="270.166016" xlink:href="#h"/>
<use x="333.544922" xlink:href="#f"/>
<use x="394.824219" xlink:href="#j"/>
</g>
</g>
<path d="m1098.9 629.03v33.808q0 2.4 2.4 2.4h7.7425q2.4 0 2.4-2.4v-33.808q0-2.4-2.4-2.4h-7.7425q-2.4 0-2.4 2.4z" clip-path="url(#a)" fill="#fff" stroke="#fff"/>
<g clip-path="url(#a)">
<g transform="translate(1102.9 629.03) rotate(90) scale(.08 -.08)">
<use xlink:href="#e"/>
<use x="44.083984" xlink:href="#l"/>
<use x="105.607422" xlink:href="#g"/>
<use x="144.970703" xlink:href="#i"/>
<use x="242.382812" xlink:href="#k"/>
<use x="270.166016" xlink:href="#h"/>
<use x="333.544922" xlink:href="#f"/>
<use x="394.824219" xlink:href="#j"/>
</g>
</g>
<path d="m677.86 629.03v33.808q0 2.4 2.4 2.4h7.7425q2.4 0 2.4-2.4v-33.808q0-2.4-2.4-2.4h-7.7425q-2.4 0-2.4 2.4z" clip-path="url(#a)" fill="#fff" stroke="#fff"/>
<g clip-path="url(#a)">
<g transform="translate(681.92 629.03) rotate(90) scale(.08 -.08)">
<use xlink:href="#e"/>
<use x="44.083984" xlink:href="#l"/>
<use x="105.607422" xlink:href="#g"/>
<use x="144.970703" xlink:href="#i"/>
<use x="242.382812" xlink:href="#k"/>
<use x="270.166016" xlink:href="#h"/>
<use x="333.544922" xlink:href="#f"/>
<use x="394.824219" xlink:href="#j"/>
</g>
</g>
<path d="m161.98 629.03v33.808q0 2.4 2.4 2.4h7.7425q2.4 0 2.4-2.4v-33.808q0-2.4-2.4-2.4h-7.7425q-2.4 0-2.4 2.4z" clip-path="url(#a)" fill="#fff" stroke="#fff"/>
<g clip-path="url(#a)">
<g transform="translate(166.05 629.03) rotate(90) scale(.08 -.08)">
<use xlink:href="#e"/>
<use x="44.083984" xlink:href="#l"/>
<use x="105.607422" xlink:href="#g"/>
<use x="144.970703" xlink:href="#i"/>
<use x="242.382812" xlink:href="#k"/>
<use x="270.166016" xlink:href="#h"/>
<use x="333.544922" xlink:href="#f"/>
<use x="394.824219" xlink:href="#j"/>
</g>
</g>
<path d="m188.67 629.03v33.808q0 2.4 2.4 2.4h7.7425q2.4 0 2.4-2.4v-33.808q0-2.4-2.4-2.4h-7.7425q-2.4 0-2.4 2.4z" clip-path="url(#a)" fill="#fff" stroke="#fff"/>
<g clip-path="url(#a)">
<g transform="translate(192.73 629.03) rotate(90) scale(.08 -.08)">
<use xlink:href="#e"/>
<use x="44.083984" xlink:href="#l"/>
<use x="105.607422" xlink:href="#g"/>
<use x="144.970703" xlink:href="#i"/>
<use x="242.382812" xlink:href="#k"/>
<use x="270.166016" xlink:href="#h"/>
<use x="333.544922" xlink:href="#f"/>
<use x="394.824219" xlink:href="#j"/>
</g>
</g>
<path d="m288.23 447.17 1.0048-5.3795q0.44066-2.3592-1.9185-2.7999l-7.6109-1.4216q-2.3592-0.44066-2.7999 1.9185l-1.0048 5.3795q-0.44066 2.3592 1.9185 2.7999l7.6109 1.4216q2.3592 0.44066 2.7999-1.9185z" clip-path="url(#a)" fill="#fff" stroke="#fff"/>
<g clip-path="url(#a)">
<g transform="translate(284.23 446.43) rotate(-79.42) scale(.08 -.08)">
<use xlink:href="#r"/>
</g>
</g>
<path d="m306.48 446.09 0.26871-4.8163q0.13369-2.3963-2.2626-2.53l-7.7305-0.4313q-2.3963-0.13369-2.53 2.2626l-0.26871 4.8163q-0.13369 2.3963 2.2626 2.53l7.7305 0.4313q2.3963 0.13369 2.53-2.2626z" clip-path="url(#a)" fill="#fff" stroke="#fff"/>
<g clip-path="url(#a)">
<g transform="translate(302.42 445.86) rotate(-86.807) scale(.08 -.08)">
<use xlink:href="#u"/>
</g>
</g>
<path d="m334.04 375.88 2.3837 4.9261q1.0454 2.1604 3.2057 1.115l6.9695-3.3724q2.1604-1.0454 1.115-3.2057l-2.3837-4.9261q-1.0454-2.1604-3.2057-1.115l-6.9695 3.3724q-2.1604 1.0454-1.115 3.2057z" clip-path="url(#a)" fill="#fff" stroke="#fff"/>
<g clip-path="url(#a)">
<g transform="translate(337.69 374.11) rotate(64.178) scale(.08 -.08)">
<use xlink:href="#r"/>
</g>
</g>
<path d="m250.93 629.03v33.808q0 2.4 2.4 2.4h7.7425q2.4 0 2.4-2.4v-33.808q0-2.4-2.4-2.4h-7.7425q-2.4 0-2.4 2.4z" clip-path="url(#a)" fill="#fff" stroke="#fff"/>
<g clip-path="url(#a)">
<g transform="translate(254.99 629.03) rotate(90) scale(.08 -.08)">
<use xlink:href="#e"/>
<use x="44.083984" xlink:href="#l"/>
<use x="105.607422" xlink:href="#g"/>
<use x="144.970703" xlink:href="#i"/>
<use x="242.382812" xlink:href="#k"/>
<use x="270.166016" xlink:href="#h"/>
<use x="333.544922" xlink:href="#f"/>
<use x="394.824219" xlink:href="#j"/>
</g>
</g>
<path d="m286.5 629.03v33.808q0 2.4 2.4 2.4h7.7425q2.4 0 2.4-2.4v-33.808q0-2.4-2.4-2.4h-7.7425q-2.4 0-2.4 2.4z" clip-path="url(#a)" fill="#fff" stroke="#fff"/>
<g clip-path="url(#a)">
<g transform="translate(290.57 629.03) rotate(90) scale(.08 -.08)">
<use xlink:href="#e"/>
<use x="44.083984" xlink:href="#l"/>
<use x="105.607422" xlink:href="#g"/>
<use x="144.970703" xlink:href="#i"/>
<use x="242.382812" xlink:href="#k"/>
<use x="270.166016" xlink:href="#h"/>
<use x="333.544922" xlink:href="#f"/>
<use x="394.824219" xlink:href="#j"/>
</g>
</g>
<path d="m357.72 515.94 1.664-5.3038q0.71845-2.2899-1.5715-3.0084l-7.3874-2.3177q-2.2899-0.71845-3.0084 1.5715l-1.664 5.3038q-0.71845 2.2899 1.5715 3.0084l7.3874 2.3177q2.2899 0.71845 3.0084-1.5715z" clip-path="url(#a)" fill="#fff" stroke="#fff"/>
<g clip-path="url(#a)">
<g transform="translate(353.84 514.73) rotate(-72.581) scale(.08 -.08)">
<use xlink:href="#ap"/>
</g>
</g>
<path d="m379.57 513.99 0.036882-5.0549q0.01751-2.3999-2.3824-2.4174l-7.7423-0.05649q-2.3999-0.01751-2.4174 2.3824l-0.036882 5.0549q-0.017511 2.3999 2.3824 2.4174l7.7423 0.05649q2.3999 0.017511 2.4174-2.3824z" clip-path="url(#a)" fill="#fff" stroke="#fff"/>
<g clip-path="url(#a)">
<g transform="translate(375.51 513.96) rotate(-89.582) scale(.08 -.08)">
<use xlink:href="#ai"/>
</g>
</g>
<path d="m388.73 510.67 1.7076 5.3189q0.73361 2.2851 3.0187 1.5515l7.3719-2.3667q2.2851-0.73361 1.5515-3.0187l-1.7076-5.3189q-0.73361-2.2851-3.0187-1.5515l-7.3719 2.3667q-2.2851 0.73361-1.5515 3.0187z" clip-path="url(#a)" fill="#fff" stroke="#fff"/>
<g clip-path="url(#a)">
<g transform="translate(392.6 509.43) rotate(72.201) scale(.08 -.08)">
<use xlink:href="#y"/>
</g>
</g>
<path d="m325.05 629.03v33.808q0 2.4 2.4 2.4h7.7425q2.4 0 2.4-2.4v-33.808q0-2.4-2.4-2.4h-7.7425q-2.4 0-2.4 2.4z" clip-path="url(#a)" fill="#fff" stroke="#fff"/>
<g clip-path="url(#a)">
<g transform="translate(329.11 629.03) rotate(90) scale(.08 -.08)">
<use xlink:href="#e"/>
<use x="44.083984" xlink:href="#l"/>
<use x="105.607422" xlink:href="#g"/>
<use x="144.970703" xlink:href="#i"/>
<use x="242.382812" xlink:href="#k"/>
<use x="270.166016" xlink:href="#h"/>
<use x="333.544922" xlink:href="#f"/>
<use x="394.824219" xlink:href="#j"/>
</g>
</g>
<path d="m366.55 629.03v33.808q0 2.4 2.4 2.4h7.7425q2.4 0 2.4-2.4v-33.808q0-2.4-2.4-2.4h-7.7425q-2.4 0-2.4 2.4z" clip-path="url(#a)" fill="#fff" stroke="#fff"/>
<g clip-path="url(#a)">
<g transform="translate(370.62 629.03) rotate(90) scale(.08 -.08)">
<use xlink:href="#e"/>
<use x="44.083984" xlink:href="#l"/>
<use x="105.607422" xlink:href="#g"/>
<use x="144.970703" xlink:href="#i"/>
<use x="242.382812" xlink:href="#k"/>
<use x="270.166016" xlink:href="#h"/>
<use x="333.544922" xlink:href="#f"/>
<use x="394.824219" xlink:href="#j"/>
</g>
</g>
<path d="m411.03 629.03v33.808q0 2.4 2.4 2.4h7.7425q2.4 0 2.4-2.4v-33.808q0-2.4-2.4-2.4h-7.7425q-2.4 0-2.4 2.4z" clip-path="url(#a)" fill="#fff" stroke="#fff"/>
<g clip-path="url(#a)">
<g transform="translate(415.09 629.03) rotate(90) scale(.08 -.08)">
<use xlink:href="#e"/>
<use x="44.083984" xlink:href="#l"/>
<use x="105.607422" xlink:href="#g"/>
<use x="144.970703" xlink:href="#i"/>
<use x="242.382812" xlink:href="#k"/>
<use x="270.166016" xlink:href="#h"/>
<use x="333.544922" xlink:href="#f"/>
<use x="394.824219" xlink:href="#j"/>
</g>
</g>
<path d="m95.068 514.28 0.27621-5.0474q0.13114-2.3964-2.2653-2.5276l-7.7309-0.42306q-2.3964-0.13114-2.5276 2.2653l-0.27621 5.0474q-0.13114 2.3964 2.2653 2.5276l7.7309 0.42305q2.3964 0.13114 2.5276-2.2653z" clip-path="url(#a)" fill="#fff" stroke="#fff"/>
<g clip-path="url(#a)">
<g transform="translate(91.011 514.06) rotate(-86.868) scale(.08 -.08)">
<use xlink:href="#ai"/>
</g>
</g>
<path d="m89.942 508.97 0.30524 5.5779q0.13114 2.3964 2.5276 2.2653l7.7309-0.42305q2.3964-0.13114 2.2653-2.5276l-0.30524-5.5779q-0.13114-2.3964-2.5276-2.2653l-7.7309 0.42305q-2.3964 0.13114-2.2653 2.5276z" clip-path="url(#a)" fill="#fff" stroke="#fff"/>
<g clip-path="url(#a)">
<g transform="translate(94 508.74) rotate(86.868) scale(.08 -.08)">
<use xlink:href="#y"/>
</g>
</g>
<path d="m78.967 629.03v33.808q0 2.4 2.4 2.4h7.7425q2.4 0 2.4-2.4v-33.808q0-2.4-2.4-2.4h-7.7425q-2.4 0-2.4 2.4z" clip-path="url(#a)" fill="#fff" stroke="#fff"/>
<g clip-path="url(#a)">
<g transform="translate(83.031 629.03) rotate(90) scale(.08 -.08)">
<use xlink:href="#e"/>
<use x="44.083984" xlink:href="#l"/>
<use x="105.607422" xlink:href="#g"/>
<use x="144.970703" xlink:href="#i"/>
<use x="242.382812" xlink:href="#k"/>
<use x="270.166016" xlink:href="#h"/>
<use x="333.544922" xlink:href="#f"/>
<use x="394.824219" xlink:href="#j"/>
</g>
</g>
<path d="m93.791 629.03v33.808q0 2.4 2.4 2.4h7.7425q2.4 0 2.4-2.4v-33.808q0-2.4-2.4-2.4h-7.7425q-2.4 0-2.4 2.4z" clip-path="url(#a)" fill="#fff" stroke="#fff"/>
<g clip-path="url(#a)">
<g transform="translate(97.855 629.03) rotate(90) scale(.08 -.08)">
<use xlink:href="#e"/>
<use x="44.083984" xlink:href="#l"/>
<use x="105.607422" xlink:href="#g"/>
<use x="144.970703" xlink:href="#i"/>
<use x="242.382812" xlink:href="#k"/>
<use x="270.166016" xlink:href="#h"/>
<use x="333.544922" xlink:href="#f"/>
<use x="394.824219" xlink:href="#j"/>
</g>
</g>
<path d="m117.51 629.03v33.808q0 2.4 2.4 2.4h7.7425q2.4 0 2.4-2.4v-33.808q0-2.4-2.4-2.4h-7.7425q-2.4 0-2.4 2.4z" clip-path="url(#a)" fill="#fff" stroke="#fff"/>
<g clip-path="url(#a)">
<g transform="translate(121.57 629.03) rotate(90) scale(.08 -.08)">
<use xlink:href="#e"/>
<use x="44.083984" xlink:href="#l"/>
<use x="105.607422" xlink:href="#g"/>
<use x="144.970703" xlink:href="#i"/>
<use x="242.382812" xlink:href="#k"/>
<use x="270.166016" xlink:href="#h"/>
<use x="333.544922" xlink:href="#f"/>
<use x="394.824219" xlink:href="#j"/>
</g>
</g>
<path d="m218.31 629.03v33.808q0 2.4 2.4 2.4h7.7425q2.4 0 2.4-2.4v-33.808q0-2.4-2.4-2.4h-7.7425q-2.4 0-2.4 2.4z" clip-path="url(#a)" fill="#fff" stroke="#fff"/>
<g clip-path="url(#a)">
<g transform="translate(222.38 629.03) rotate(90) scale(.08 -.08)">
<use xlink:href="#e"/>
<use x="44.083984" xlink:href="#l"/>
<use x="105.607422" xlink:href="#g"/>
<use x="144.970703" xlink:href="#i"/>
<use x="242.382812" xlink:href="#k"/>
<use x="270.166016" xlink:href="#h"/>
<use x="333.544922" xlink:href="#f"/>
<use x="394.824219" xlink:href="#j"/>
</g>
</g>
<path d="m458.46 629.03v33.808q0 2.4 2.4 2.4h7.7425q2.4 0 2.4-2.4v-33.808q0-2.4-2.4-2.4h-7.7425q-2.4 0-2.4 2.4z" clip-path="url(#a)" fill="#fff" stroke="#fff"/>
<g clip-path="url(#a)">
<g transform="translate(462.53 629.03) rotate(90) scale(.08 -.08)">
<use xlink:href="#e"/>
<use x="44.083984" xlink:href="#l"/>
<use x="105.607422" xlink:href="#g"/>
<use x="144.970703" xlink:href="#i"/>
<use x="242.382812" xlink:href="#k"/>
<use x="270.166016" xlink:href="#h"/>
<use x="333.544922" xlink:href="#f"/>
<use x="394.824219" xlink:href="#j"/>
</g>
</g>
<path d="m562.23 629.03v33.808q0 2.4 2.4 2.4h7.7425q2.4 0 2.4-2.4v-33.808q0-2.4-2.4-2.4h-7.7425q-2.4 0-2.4 2.4z" clip-path="url(#a)" fill="#fff" stroke="#fff"/>
<g clip-path="url(#a)">
<g transform="translate(566.3 629.03) rotate(90) scale(.08 -.08)">
<use xlink:href="#e"/>
<use x="44.083984" xlink:href="#l"/>
<use x="105.607422" xlink:href="#g"/>
<use x="144.970703" xlink:href="#i"/>
<use x="242.382812" xlink:href="#k"/>
<use x="270.166016" xlink:href="#h"/>
<use x="333.544922" xlink:href="#f"/>
<use x="394.824219" xlink:href="#j"/>
</g>
</g>
<path d="m743.09 629.03v33.808q0 2.4 2.4 2.4h7.7425q2.4 0 2.4-2.4v-33.808q0-2.4-2.4-2.4h-7.7425q-2.4 0-2.4 2.4z" clip-path="url(#a)" fill="#fff" stroke="#fff"/>
<g clip-path="url(#a)">
<g transform="translate(747.15 629.03) rotate(90) scale(.08 -.08)">
<use xlink:href="#e"/>
<use x="44.083984" xlink:href="#l"/>
<use x="105.607422" xlink:href="#g"/>
<use x="144.970703" xlink:href="#i"/>
<use x="242.382812" xlink:href="#k"/>
<use x="270.166016" xlink:href="#h"/>
<use x="333.544922" xlink:href="#f"/>
<use x="394.824219" xlink:href="#j"/>
</g>
</g>
<path d="m1347.9 629.03v33.808q0 2.4 2.4 2.4h7.7425q2.4 0 2.4-2.4v-33.808q0-2.4-2.4-2.4h-7.7425q-2.4 0-2.4 2.4z" clip-path="url(#a)" fill="#fff" stroke="#fff"/>
<g clip-path="url(#a)">
<g transform="translate(1352 629.03) rotate(90) scale(.08 -.08)">
<use xlink:href="#e"/>
<use x="44.083984" xlink:href="#l"/>
<use x="105.607422" xlink:href="#g"/>
<use x="144.970703" xlink:href="#i"/>
<use x="242.382812" xlink:href="#k"/>
<use x="270.166016" xlink:href="#h"/>
<use x="333.544922" xlink:href="#f"/>
<use x="394.824219" xlink:href="#j"/>
</g>
</g>
<defs>
<path id="b" d="m0 8.6603c2.2967 0 4.4997-0.9125 6.1237-2.5365 1.624-1.624 2.5365-3.827 2.5365-6.1237s-0.9125-4.4997-2.5365-6.1237c-1.624-1.624-3.827-2.5365-6.1237-2.5365s-4.4997 0.9125-6.1237 2.5365c-1.624 1.624-2.5365 3.827-2.5365 6.1237s0.9125 4.4997 2.5365 6.1237c1.624 1.624 3.827 2.5365 6.1237 2.5365z"/>
</defs>
<g clip-path="url(#a)" fill="#ffffff" stroke="#ffffff">
<use x="64.484848" y="712.727273" xlink:href="#b"/>
<use x="73.37931" y="712.727273" xlink:href="#b"/>
<use x="85.238593" y="712.727273" xlink:href="#b"/>
<use x="100.062696" y="712.727273" xlink:href="#b"/>
<use x="123.781261" y="712.727273" xlink:href="#b"/>
<use x="144.535005" y="712.727273" xlink:href="#b"/>
<use x="168.25357" y="712.727273" xlink:href="#b"/>
<use x="194.936956" y="712.727273" xlink:href="#b"/>
<use x="224.585162" y="712.727273" xlink:href="#b"/>
<use x="257.198189" y="712.727273" xlink:href="#b"/>
<use x="292.776036" y="712.727273" xlink:href="#b"/>
<use x="331.318704" y="712.727273" xlink:href="#b"/>
<use x="372.826193" y="712.727273" xlink:href="#b"/>
<use x="417.298502" y="712.727273" xlink:href="#b"/>
<use x="464.735632" y="712.727273" xlink:href="#b"/>
<use x="515.137583" y="712.727273" xlink:href="#b"/>
<use x="568.504354" y="712.727273" xlink:href="#b"/>
<use x="624.835946" y="712.727273" xlink:href="#b"/>
<use x="684.132358" y="712.727273" xlink:href="#b"/>
<use x="749.358412" y="712.727273" xlink:href="#b"/>
<use x="814.584465" y="712.727273" xlink:href="#b"/>
<use x="882.77534" y="712.727273" xlink:href="#b"/>
<use x="953.931034" y="712.727273" xlink:href="#b"/>
<use x="1028.05155" y="712.727273" xlink:href="#b"/>
<use x="1105.136886" y="712.727273" xlink:href="#b"/>
<use x="1185.187043" y="712.727273" xlink:href="#b"/>
<use x="1268.20202" y="712.727273" xlink:href="#b"/>
<use x="1354.181818" y="712.727273" xlink:href="#b"/>
<use x="687.097179" y="579.137142" xlink:href="#b"/>
<use x="105.992337" y="443.688626" xlink:href="#b"/>
<use x="105.992337" y="443.688626" xlink:href="#b"/>
<use x="438.162055" y="33.939394" xlink:href="#b"/>
<use x="68.932079" y="579.137142" xlink:href="#b"/>
<use x="92.650644" y="307.529694" xlink:href="#b"/>
<use x="144.535005" y="579.137142" xlink:href="#b"/>
<use x="223.926313" y="170.907356" xlink:href="#b"/>
<use x="515.137583" y="579.137142" xlink:href="#b"/>
<use x="624.835946" y="579.137142" xlink:href="#b"/>
<use x="684.132358" y="443.688626" xlink:href="#b"/>
<use x="997.41507" y="307.529694" xlink:href="#b"/>
<use x="814.584465" y="579.137142" xlink:href="#b"/>
<use x="882.77534" y="579.137142" xlink:href="#b"/>
<use x="953.931034" y="579.137142" xlink:href="#b"/>
<use x="1066.594218" y="443.688626" xlink:href="#b"/>
<use x="1269.190294" y="443.688626" xlink:href="#b"/>
<use x="1185.187043" y="579.137142" xlink:href="#b"/>
<use x="1268.20202" y="579.137142" xlink:href="#b"/>
<use x="1028.05155" y="579.137142" xlink:href="#b"/>
<use x="1105.136886" y="579.137142" xlink:href="#b"/>
<use x="684.132358" y="579.137142" xlink:href="#b"/>
<use x="168.25357" y="579.137142" xlink:href="#b"/>
<use x="194.936956" y="579.137142" xlink:href="#b"/>
<use x="307.929564" y="307.529694" xlink:href="#b"/>
<use x="257.198189" y="579.137142" xlink:href="#b"/>
<use x="292.776036" y="579.137142" xlink:href="#b"/>
<use x="373.814467" y="443.688626" xlink:href="#b"/>
<use x="331.318704" y="579.137142" xlink:href="#b"/>
<use x="372.826193" y="579.137142" xlink:href="#b"/>
<use x="417.298502" y="579.137142" xlink:href="#b"/>
<use x="92.650644" y="443.688626" xlink:href="#b"/>
<use x="85.238593" y="579.137142" xlink:href="#b"/>
<use x="100.062696" y="579.137142" xlink:href="#b"/>
<use x="123.781261" y="579.137142" xlink:href="#b"/>
<use x="224.585162" y="579.137142" xlink:href="#b"/>
<use x="464.735632" y="579.137142" xlink:href="#b"/>
<use x="568.504354" y="579.137142" xlink:href="#b"/>
<use x="749.358412" y="579.137142" xlink:href="#b"/>
<use x="1354.181818" y="579.137142" xlink:href="#b"/>
</g>
<g clip-path="url(#a)">
<g transform="translate(58.372 715.49) scale(.1 -.1)">
<defs>
<path id="bd" d="m-0.29688 72.906h61.672v-8.3125h-25.875v-64.594h-9.9062v64.594h-25.891z"/>
<path id="s" d="m30.609 48.391q-7.2188 0-11.422-5.6406t-4.2031-15.453 4.1719-15.453q4.1875-5.6406 11.453-5.6406 7.1875 0 11.375 5.6562 4.2031 5.6719 4.2031 15.438 0 9.7188-4.2031 15.406-4.1875 5.6875-11.375 5.6875zm0 7.6094q11.719 0 18.406-7.625 6.7031-7.6094 6.7031-21.078 0-13.422-6.7031-21.078-6.6875-7.6406-18.406-7.6406-11.766 0-18.438 7.6406-6.6562 7.6562-6.6562 21.078 0 13.469 6.6562 21.078 6.6719 7.625 18.438 7.625z"/>
</defs>
<use xlink:href="#bd"/>
<use x="61.083984" xlink:href="#s"/>
</g>
</g>
<g clip-path="url(#a)">
<g transform="translate(61.694 715.49) scale(.1 -.1)">
<defs>
<path id="o" d="m56.203 29.594v-4.3906h-41.312q0.59375-9.2812 5.5938-14.141t13.938-4.8594q5.1719 0 10.031 1.2656t9.6562 3.8125v-8.5q-4.8438-2.0469-9.9219-3.125t-10.297-1.0781q-13.094 0-20.734 7.6094-7.6406 7.625-7.6406 20.625 0 13.422 7.25 21.297 7.25 7.8906 19.562 7.8906 11.031 0 17.453-7.1094 6.4219-7.0938 6.4219-19.297zm-8.9844 2.6406q-0.09375 7.3594-4.125 11.75-4.0312 4.4062-10.672 4.4062-7.5156 0-12.031-4.25t-5.2031-11.969z"/>
<path id="v" d="m48.781 52.594v-8.4062q-3.8125 2.1094-7.6406 3.1562t-7.7344 1.0469q-8.75 0-13.594-5.5469-4.8281-5.5312-4.8281-15.547t4.8281-15.562q4.8438-5.5312 13.594-5.5312 3.9062 0 7.7344 1.0469t7.6406 3.1562v-8.3125q-3.7656-1.75-7.7969-2.625-4.0156-0.89062-8.5625-0.89062-12.359 0-19.641 7.7656-7.2656 7.7656-7.2656 20.953 0 13.375 7.3438 21.031 7.3594 7.6719 20.156 7.6719 4.1406 0 8.0938-0.85938 3.9531-0.84375 7.6719-2.5469z"/>
<path id="ag" d="m2.9375 54.688h52.391v-7.1719h-21.781v-47.516h-8.8438v47.516h-21.766z"/>
<path id="as" d="m43.453 16.219q0 4.3906-3.2031 6.6875-3.1875 2.2969-9.3438 2.2969h-12.797v-18.031h12.797q6.1562 0 9.3438 2.3125 3.2031 2.3281 3.2031 6.7344zm-34.375 38.469h9.0312v-22.312h13.188q10.453 0 16.094-3.9844 5.6406-3.9688 5.6406-12.172t-5.6406-12.219q-5.6406-4-16.094-4h-22.219z"/>
</defs>
<use xlink:href="#o"/>
<use x="61.523438" xlink:href="#v"/>
<use x="116.503906" xlink:href="#ag"/>
<use x="174.755859" xlink:href="#as"/>
</g>
</g>
<g clip-path="url(#a)">
<g transform="translate(78.893 715.49) scale(.1 -.1)">
<defs>
<path id="w" d="m9.0781 54.688h9.0312v-22.312h29.156v22.312h9.0312v-54.688h-9.0312v25.203h-29.156v-25.203h-9.0312z"/>
</defs>
<use xlink:href="#w"/>
<use x="65.380859" xlink:href="#o"/>
</g>
</g>
<g clip-path="url(#a)">
<g transform="translate(81.71 715.49) scale(.1 -.1)">
<defs>
<path id="aa" d="m18.062 25.203v-18.031h12.797q6.1562 0 9.375 2.3125 3.2188 2.3281 3.2188 6.7344 0 4.3906-3.2188 6.6875t-9.375 2.2969zm0 22.312v-15.141h11.828q5.0781 0 8.2969 2.0156 3.2188 2.0312 3.2188 5.6562 0 3.6094-3.2188 5.5312-3.2188 1.9375-8.2969 1.9375zm-8.9844 7.1719h21.391q9.625 0 14.797-3.5156t5.1719-10.016q0-5.0156-2.6406-7.9844-2.625-2.9531-7.8125-3.6719 6.2031-1.1719 9.625-4.8906 3.4219-3.7031 3.4219-9.2812 0-7.3125-5.6406-11.328-5.6406-4-16.094-4h-22.219z"/>
<path id="bb" d="m9.0781 54.688h13.141l15.531-36.625 15.578 36.625h13.031v-54.688h-9.0312v46.094l-15.094-35.594h-8.9844l-15.141 35.594v-46.094h-9.0312z"/>
</defs>
<use xlink:href="#v"/>
<use x="54.980469" xlink:href="#s"/>
<use x="116.162109" xlink:href="#aa"/>
<use x="175.097656" xlink:href="#v"/>
<use x="230.078125" xlink:href="#o"/>
<use x="291.601562" xlink:href="#bb"/>
</g>
</g>
<g clip-path="url(#a)">
<g transform="translate(119.01 715.49) scale(.1 -.1)">
<defs>
<path id="d" d="m10.688 12.406h10.312v-12.406h-10.312z"/>
</defs>
<use xlink:href="#d"/>
<use x="31.787109" xlink:href="#d"/>
<use x="63.574219" xlink:href="#d"/>
</g>
</g>
<g clip-path="url(#a)">
<g transform="translate(137.72 715.49) scale(.1 -.1)">
<defs>
<path id="be" d="m9.8125 72.906h9.8594v-29.891h35.844v29.891h9.8594v-72.906h-9.8594v34.719h-35.844v-34.719h-9.8594z"/>
</defs>
<use xlink:href="#be"/>
<use x="75.195312" xlink:href="#s"/>
</g>
</g>
<g clip-path="url(#a)">
<g transform="translate(165.25 715.49) scale(.1 -.1)">
<defs>
<path id="an" d="m18.453 38.922q0-4.0625 3.125-6.3594 3.125-2.2812 8.9375-2.2812h12.109v17.234h-12.109q-5.8125 0-8.9375-2.25t-3.125-6.3438zm-12.781-38.922 16.688 23.969q-5.6562 1.2812-9.4219 4.625-3.75 3.3438-3.75 10.328 0 7.9062 5.2344 11.828 5.25 3.9375 15.859 3.9375h21.375v-54.688h-9.0312v23.094h-11.172l-16.125-23.094z"/>
</defs>
<use xlink:href="#an"/>
</g>
</g>
<g clip-path="url(#a)">
<g transform="translate(181.74 715.49) scale(.1 -.1)">
<defs>
<path id="av" d="m34.469 29.5q6.0625-1.1719 9.4219-4.75 3.375-3.5625 3.375-8.8281 0-8.4531-6.2969-12.906-6.2969-4.4375-17.922-4.4375-3.9062 0-8.0312 0.6875t-8.5156 2.0469v8.3594q3.4688-1.8125 7.6094-2.7188 4.1562-0.89062 8.6875-0.89062 7.375 0 11.5 2.7344t4.125 7.125q0 4.2969-3.6562 6.9062t-10.344 2.6094h-7.2344v7.4219h7.5625q5.6719 0 8.9688 2.1719t3.2969 5.5938q0 3.125-3.4062 5.375-3.3906 2.25-9.1875 2.25-3.4688 0-7.4062-0.64062-3.9219-0.64062-8.6719-2.0469v8.1562q4.7969 1.1719 8.9375 1.75 4.1562 0.59375 7.8594 0.59375 9.5781 0 15.109-3.8438 5.5469-3.8281 5.5469-10.719 0-4.5312-2.9375-7.6875-2.9219-3.1406-8.3906-4.3125z"/>
<path id="t" d="m34.281 27.484q-10.891 0-15.094-2.4844t-4.2031-8.5q0-4.7812 3.1562-7.5938 3.1562-2.7969 8.5625-2.7969 7.4844 0 12 5.2969t4.5156 14.078v2zm17.922 3.7188v-31.203h-8.9844v8.2969q-3.0781-4.9688-7.6719-7.3438t-11.234-2.375q-8.3906 0-13.359 4.7188-4.9531 4.7188-4.9531 12.625 0 9.2188 6.1719 13.906 6.1875 4.6875 18.438 4.6875h12.609v0.89062q0 6.2031-4.0781 9.5938t-11.453 3.3906q-4.6875 0-9.1406-1.125-4.4375-1.125-8.5312-3.375v8.3125q4.9219 1.9062 9.5625 2.8438 4.6406 0.95312 9.0312 0.95312 11.875 0 17.734-6.1562 5.8594-6.1406 5.8594-18.641z"/>
<path id="ar" d="m53.609 48.391q-7.2188 0-11.422-5.6406t-4.2031-15.453 4.1719-15.453q4.1875-5.6406 11.453-5.6406 7.1875 0 11.375 5.6562 4.2031 5.6719 4.2031 15.438 0 9.7188-4.2031 15.406-4.1875 5.6875-11.375 5.6875zm-24.797-15.531q0.92188 9.2812 7 16.203 6.0781 6.9375 17.797 6.9375t18.406-7.625q6.7031-7.6094 6.7031-21.078 0-13.422-6.7031-21.078-6.6875-7.6406-18.406-7.6406-11.766 0-18.188 7.375t-6.8594 19.484h-10.156v-25.438h-8.9844v54.688h8.9844v-21.828z"/>
</defs>
<use xlink:href="#av"/>
<use x="53.173828" xlink:href="#w"/>
<use x="118.554688" xlink:href="#t"/>
<use x="179.833984" xlink:href="#ar"/>
</g>
</g>
<g clip-path="url(#a)">
<g transform="translate(222.9 715.49) scale(.1 -.1)">
<defs>
<path id="ay" d="m11.719 12.406h10.297v-12.406h-10.297zm0 39.297h10.297v-12.391h-10.297z"/>
</defs>
<use xlink:href="#ay"/>
</g>
</g>
<g clip-path="url(#a)">
<g transform="translate(250.87 715.49) scale(.1 -.1)">
<use xlink:href="#s"/>
<use x="61.181641" xlink:href="#w"/>
</g>
</g>
<g clip-path="url(#a)">
<g transform="translate(259.81 715.49) scale(.1 -.1)">
<defs>
<path id="at" d="m18.109 8.2031v-29h-9.0312v75.484h9.0312v-8.2969q2.8438 4.875 7.1562 7.2344 4.3281 2.375 10.328 2.375 9.9688 0 16.188-7.9062 6.2344-7.9062 6.2344-20.797t-6.2344-20.812q-6.2188-7.9062-16.188-7.9062-6 0-10.328 2.375-4.3125 2.375-7.1562 7.25zm30.578 19.094q0 9.9062-4.0781 15.547t-11.203 5.6406q-7.1406 0-11.219-5.6406t-4.0781-15.547 4.0781-15.547 11.219-5.6406q7.125 0 11.203 5.6406t4.0781 15.547z"/>
<path id="bc" d="m55.906 54.688v-54.688h-8.9375v43.891l-26.359-43.891h-11.531v54.688h8.9375v-43.797l26.328 43.797z"/>
<path id="ac" d="m3.7188 0v7.4688q8.875 1.375 11.609 7.5156 3.3281 8.6562 3.3281 30.766v8.9375h36.953v-54.688h-8.9844v47.516h-18.984v-5.4219q0-21.094-4.2969-30.562-4.5938-10.109-19.625-11.531z"/>
</defs>
<use xlink:href="#aa"/>
<use x="58.935547" xlink:href="#s"/>
<use x="120.117188" xlink:href="#av"/>
<use x="173.291016" xlink:href="#aa"/>
<use x="232.226562" xlink:href="#at"/>
<use x="295.703125" xlink:href="#t"/>
<use x="356.982422" xlink:href="#ag"/>
<use x="415.234375" xlink:href="#bc"/>
<use x="480.224609" xlink:href="#ac"/>
<use x="544.140625" xlink:href="#v"/>
<use x="599.121094" xlink:href="#an"/>
</g>
</g>
<g clip-path="url(#a)">
<g transform="translate(324.99 715.49) scale(.1 -.1)">
<use xlink:href="#w"/>
<use x="65.380859" xlink:href="#t"/>
</g>
</g>
<g clip-path="url(#a)">
<g transform="translate(359.86 715.49) scale(.1 -.1)">
<use xlink:href="#v"/>
<use x="54.980469" xlink:href="#aa"/>
<use x="113.916016" xlink:href="#s"/>
<use x="175.097656" xlink:href="#ar"/>
</g>
</g>
<g clip-path="url(#a)">
<g transform="translate(392.53 715.49) scale(.1 -.1)">
<defs>
<path id="au" d="m56.297 54.688v-54.688h-9.0312v47.516h-29.156v-47.516h-9.0312v54.688z"/>
<path id="ao" d="m9.0781 54.688h8.9375v-25.688l25.344 25.688h11.031l-20.891-21.141 23.578-33.547h-10.062l-19.375 27.594-9.625-9.7656v-17.828h-8.9375z"/>
<path id="ba" d="m32.172-5.0781q-3.7969-9.7656-7.4219-12.734-3.6094-2.9844-9.6562-2.9844h-7.1875v7.5156h5.2812q3.7031 0 5.75 1.7656 2.0625 1.75 4.5469 8.2969l1.6094 4.0938-22.109 53.812h9.5156l17.094-42.766 17.094 42.766h9.5156z"/>
</defs>
<use xlink:href="#au"/>
<use x="65.380859" xlink:href="#ac"/>
<use x="129.296875" xlink:href="#t"/>
<use x="190.576172" xlink:href="#w"/>
<use x="255.957031" xlink:href="#o"/>
<use x="317.480469" xlink:href="#ag"/>
<use x="375.732422" xlink:href="#ao"/>
<use x="436.132812" xlink:href="#ba"/>
</g>
</g>
<g clip-path="url(#a)">
<g transform="translate(463.15 715.49) scale(.1 -.1)">
<defs>
<path id="am" d="m11.719 12.406h10.297v-8.4062l-8-15.625h-6.2969l4 15.625z"/>
</defs>
<use xlink:href="#am"/>
</g>
</g>
<g clip-path="url(#a)">
<g transform="translate(502.71 715.49) scale(.1 -.1)">
<defs>
<path id="aw" d="m21.625 7.1719h26.078v40.344h-18.891v-6.8438q0-20.109-5.7656-30.859zm-13.031 0q4.4375 1.9531 6.3906 6.1094 4.7969 10.297 4.7969 31.062v10.344h36.953v-47.516h7.1875v-20.984h-7.1875v13.812h-44.328v-13.812h-7.1875v20.984z"/>
</defs>
<use xlink:href="#aa"/>
<use x="58.935547" xlink:href="#o"/>
<use x="120.458984" xlink:href="#aw"/>
<use x="189.599609" xlink:href="#as"/>
</g>
</g>
<g clip-path="url(#a)">
<g transform="translate(566.92 715.49) scale(.1 -.1)">
<use xlink:href="#am"/>
</g>
</g>
<g clip-path="url(#a)">
<g transform="translate(609.61 715.49) scale(.1 -.1)">
<defs>
<path id="ax" d="m9.0781 0v54.688h38.578v-7.1719h-29.547v-47.516z"/>
</defs>
<use xlink:href="#ao"/>
<use x="60.400391" xlink:href="#s"/>
<use x="121.582031" xlink:href="#ax"/>
<use x="174.121094" xlink:href="#aw"/>
<use x="243.261719" xlink:href="#t"/>
</g>
</g>
<g clip-path="url(#a)">
<g transform="translate(660.12 715.49) scale(.1 -.1)">
<use xlink:href="#at"/>
<use x="63.476562" xlink:href="#t"/>
<use x="124.755859" xlink:href="#v"/>
<use x="179.736328" xlink:href="#v"/>
<use x="234.716797" xlink:href="#aa"/>
<use x="293.652344" xlink:href="#o"/>
<use x="355.175781" xlink:href="#ac"/>
<use x="419.091797" xlink:href="#s"/>
</g>
</g>
<g clip-path="url(#a)">
<g transform="translate(747.77 715.49) scale(.1 -.1)">
<use xlink:href="#am"/>
</g>
</g>
<g clip-path="url(#a)">
<g transform="translate(811.58 715.49) scale(.1 -.1)">
<use xlink:href="#an"/>
</g>
</g>
<g clip-path="url(#a)">
<g transform="translate(876.43 715.49) scale(.1 -.1)">
<use xlink:href="#w"/>
<use x="65.380859" xlink:href="#o"/>
</g>
</g>
<g clip-path="url(#a)">
<g transform="translate(936.75 715.49) scale(.1 -.1)">
<defs>
<path id="az" d="m50.25 7.1719h23.141v47.516h9.0312v-54.688h-73.344v54.688h9.0312v-47.516h23.109v47.516h9.0312z"/>
</defs>
<use xlink:href="#w"/>
<use x="65.380859" xlink:href="#t"/>
<use x="126.660156" xlink:href="#az"/>
<use x="218.164062" xlink:href="#o"/>
<use x="279.6875" xlink:href="#ac"/>
</g>
</g>
<g clip-path="url(#a)">
<g transform="translate(1021.7 715.49) scale(.1 -.1)">
<use xlink:href="#w"/>
<use x="65.380859" xlink:href="#t"/>
</g>
</g>
<g clip-path="url(#a)">
<g transform="translate(1089.9 715.49) scale(.1 -.1)">
<use xlink:href="#au"/>
<use x="65.380859" xlink:href="#o"/>
<use x="126.904297" xlink:href="#v"/>
<use x="181.884766" xlink:href="#ao"/>
<use x="242.285156" xlink:href="#o"/>
</g>
</g>
<g clip-path="url(#a)">
<g transform="translate(1176.4 715.49) scale(.1 -.1)">
<use xlink:href="#o"/>
<use x="61.523438" xlink:href="#ax"/>
<use x="114.0625" xlink:href="#s"/>
</g>
</g>
<g clip-path="url(#a)">
<g transform="translate(1256 715.49) scale(.1 -.1)">
<use xlink:href="#ag"/>
<use x="58.251953" xlink:href="#o"/>
<use x="119.775391" xlink:href="#ac"/>
<use x="183.691406" xlink:href="#t"/>
</g>
</g>
<g clip-path="url(#a)">
<g transform="translate(1352.6 715.49) scale(.1 -.1)">
<use xlink:href="#d"/>
</g>
</g>
<g clip-path="url(#a)">
<g transform="translate(666.01 581.9) scale(.1 -.1)">
<defs>
<path id="q" d="m9.8125 72.906h9.8594v-72.906h-9.8594z"/>
<path id="ah" d="m9.8125 72.906h14.703l18.594-49.609 18.703 49.609h14.703v-72.906h-9.625v64.016l-18.797-50h-9.9062l-18.797 50v-64.016h-9.5781z"/>
</defs>
<use xlink:href="#q"/>
<use x="29.492188" xlink:href="#ah"/>
<use x="115.771484" xlink:href="#u"/>
<use x="176.074219" xlink:href="#x"/>
<use x="231.787109" xlink:href="#q"/>
<use x="261.279297" xlink:href="#y"/>
<use x="331.103516" xlink:href="#q"/>
<use x="360.595703" xlink:href="#e"/>
</g>
</g>
<g clip-path="url(#a)">
<g transform="translate(84.907 446.45) scale(.1 -.1)">
<use xlink:href="#q"/>
<use x="29.492188" xlink:href="#ah"/>
<use x="115.771484" xlink:href="#u"/>
<use x="176.074219" xlink:href="#x"/>
<use x="231.787109" xlink:href="#q"/>
<use x="261.279297" xlink:href="#y"/>
<use x="331.103516" xlink:href="#q"/>
<use x="360.595703" xlink:href="#e"/>
</g>
</g>
<g clip-path="url(#a)">
<g transform="translate(84.907 446.45) scale(.1 -.1)">
<use xlink:href="#q"/>
<use x="29.492188" xlink:href="#ah"/>
<use x="115.771484" xlink:href="#u"/>
<use x="176.074219" xlink:href="#x"/>
<use x="231.787109" xlink:href="#q"/>
<use x="261.279297" xlink:href="#y"/>
<use x="331.103516" xlink:href="#q"/>
<use x="360.595703" xlink:href="#e"/>
</g>
</g>
<g clip-path="url(#a)">
<g transform="translate(430.21 36.699) scale(.1 -.1)">
<defs>
<path id="c" d="m12.406 8.2969h16.109v55.625l-17.531-3.5156v8.9844l17.438 3.5156h9.8594v-64.609h16.109v-8.2969h-41.984z"/>
</defs>
<use xlink:href="#c"/>
<use x="63.623047" xlink:href="#d"/>
<use x="95.410156" xlink:href="#c"/>
</g>
</g>
<g clip-path="url(#a)">
<g transform="translate(60.981 581.9) scale(.1 -.1)">
<defs>
<path id="n" d="m19.188 8.2969h34.422v-8.2969h-46.281v8.2969q5.6094 5.8125 15.297 15.594 9.7031 9.7969 12.188 12.641 4.7344 5.3125 6.6094 9 1.8906 3.6875 1.8906 7.25 0 5.8125-4.0781 9.4688-4.0781 3.6719-10.625 3.6719-4.6406 0-9.7969-1.6094-5.1406-1.6094-11-4.8906v9.9688q5.9531 2.3906 11.125 3.6094 5.1875 1.2188 9.4844 1.2188 11.328 0 18.062-5.6719 6.7344-5.6562 6.7344-15.125 0-4.5-1.6875-8.5312-1.6719-4.0156-6.125-9.4844-1.2188-1.4219-7.7656-8.1875-6.5312-6.7656-18.453-18.922z"/>
</defs>
<use xlink:href="#c"/>
<use x="63.623047" xlink:href="#d"/>
<use x="95.410156" xlink:href="#n"/>
</g>
</g>
<g clip-path="url(#a)">
<g transform="translate(84.699 310.29) scale(.1 -.1)">
<defs>
<path id="m" d="m40.578 39.312q7.0781-1.5156 11.047-6.3125 3.9844-4.7812 3.9844-11.812 0-10.781-7.4219-16.703-7.4219-5.9062-21.094-5.9062-4.5781 0-9.4375 0.90625t-10.031 2.7188v9.5156q4.0938-2.3906 8.9688-3.6094 4.8906-1.2188 10.219-1.2188 9.2656 0 14.125 3.6562t4.8594 10.641q0 6.4531-4.5156 10.078-4.5156 3.6406-12.562 3.6406h-8.5v8.1094h8.8906q7.2656 0 11.125 2.9062t3.8594 8.375q0 5.6094-3.9844 8.6094-3.9688 3.0156-11.391 3.0156-4.0625 0-8.7031-0.89062-4.6406-0.875-10.203-2.7188v8.7812q5.625 1.5625 10.531 2.3438t9.25 0.78125q11.234 0 17.766-5.1094 6.5469-5.0938 6.5469-13.781 0-6.0625-3.4688-10.234t-9.8594-5.7812z"/>
</defs>
<use xlink:href="#c"/>
<use x="63.623047" xlink:href="#d"/>
<use x="95.410156" xlink:href="#m"/>
</g>
</g>
<g clip-path="url(#a)">
<g transform="translate(136.58 581.9) scale(.1 -.1)">
<defs>
<path id="p" d="m37.797 64.312-24.906-38.922h24.906zm-2.5938 8.5938h12.406v-47.516h10.406v-8.2031h-10.406v-17.188h-9.8125v17.188h-32.906v9.5156z"/>
</defs>
<use xlink:href="#c"/>
<use x="63.623047" xlink:href="#d"/>
<use x="95.410156" xlink:href="#p"/>
</g>
</g>
<g clip-path="url(#a)">
<g transform="translate(215.97 173.67) scale(.1 -.1)">
<defs>
<path id="ab" d="m10.797 72.906h38.719v-8.3125h-29.688v-17.859q2.1406 0.73438 4.2812 1.0938 2.1562 0.35938 4.3125 0.35938 12.203 0 19.328-6.6875 7.1406-6.6875 7.1406-18.109 0-11.766-7.3281-18.297-7.3281-6.5156-20.656-6.5156-4.5938 0-9.3594 0.78125-4.75 0.78125-9.8281 2.3438v9.9219q4.3906-2.3906 9.0781-3.5625t9.9062-1.1719q8.4531 0 13.375 4.4375 4.9375 4.4375 4.9375 12.062 0 7.6094-4.9375 12.047-4.9219 4.4531-13.375 4.4531-3.9531 0-7.8906-0.875-3.9219-0.875-8.0156-2.7344z"/>
</defs>
<use xlink:href="#c"/>
<use x="63.623047" xlink:href="#d"/>
<use x="95.410156" xlink:href="#ab"/>
</g>
</g>
<g clip-path="url(#a)">
<g transform="translate(507.19 581.9) scale(.1 -.1)">
<defs>
<path id="af" d="m33.016 40.375q-6.6406 0-10.531-4.5469-3.875-4.5312-3.875-12.438 0-7.8594 3.875-12.438 3.8906-4.5625 10.531-4.5625t10.516 4.5625q3.875 4.5781 3.875 12.438 0 7.9062-3.875 12.438-3.875 4.5469-10.516 4.5469zm19.578 30.922v-8.9844q-3.7188 1.75-7.5 2.6719-3.7812 0.9375-7.5 0.9375-9.7656 0-14.922-6.5938-5.1406-6.5938-5.875-19.922 2.875 4.25 7.2188 6.5156 4.3594 2.2656 9.5781 2.2656 10.984 0 17.359-6.6719 6.375-6.6562 6.375-18.125 0-11.234-6.6406-18.031-6.6406-6.7812-17.672-6.7812-12.656 0-19.344 9.6875-6.6875 9.7031-6.6875 28.109 0 17.281 8.2031 27.562t22.016 10.281q3.7188 0 7.5-0.73438t7.8906-2.1875z"/>
</defs>
<use xlink:href="#c"/>
<use x="63.623047" xlink:href="#d"/>
<use x="95.410156" xlink:href="#af"/>
</g>
</g>
<g clip-path="url(#a)">
<g transform="translate(616.88 581.9) scale(.1 -.1)">
<defs>
<path id="ak" d="m8.2031 72.906h46.875v-4.2031l-26.469-68.703h-10.297l24.906 64.594h-35.016z"/>
</defs>
<use xlink:href="#c"/>
<use x="63.623047" xlink:href="#d"/>
<use x="95.410156" xlink:href="#ak"/>
</g>
</g>
<g clip-path="url(#a)">
<g transform="translate(676.18 446.45) scale(.1 -.1)">
<defs>
<path id="ae" d="m31.781 34.625q-7.0312 0-11.062-3.7656-4.0156-3.7656-4.0156-10.344 0-6.5938 4.0156-10.359 4.0312-3.7656 11.062-3.7656t11.078 3.7812q4.0625 3.7969 4.0625 10.344 0 6.5781-4.0312 10.344-4.0156 3.7656-11.109 3.7656zm-9.8594 4.1875q-6.3438 1.5625-9.8906 5.9062-3.5312 4.3594-3.5312 10.609 0 8.7344 6.2188 13.812 6.2344 5.0781 17.062 5.0781 10.891 0 17.094-5.0781t6.2031-13.812q0-6.25-3.5469-10.609-3.5312-4.3438-9.8281-5.9062 7.125-1.6562 11.094-6.5 3.9844-4.8281 3.9844-11.797 0-10.609-6.4688-16.281-6.4688-5.6562-18.531-5.6562-12.047 0-18.531 5.6562-6.4688 5.6719-6.4688 16.281 0 6.9688 4 11.797 4.0156 4.8438 11.141 6.5zm-3.6094 15.578q0-5.6562 3.5312-8.8281 3.5469-3.1719 9.9375-3.1719 6.3594 0 9.9375 3.1719 3.5938 3.1719 3.5938 8.8281 0 5.6719-3.5938 8.8438-3.5781 3.1719-9.9375 3.1719-6.3906 0-9.9375-3.1719-3.5312-3.1719-3.5312-8.8438z"/>
</defs>
<use xlink:href="#c"/>
<use x="63.623047" xlink:href="#d"/>
<use x="95.410156" xlink:href="#ae"/>
</g>
</g>
<g clip-path="url(#a)">
<g transform="translate(989.46 310.29) scale(.1 -.1)">
<defs>
<path id="aj" d="m10.984 1.5156v8.9844q3.7188-1.7656 7.5156-2.6875 3.8125-0.92188 7.4844-0.92188 9.7656 0 14.906 6.5625 5.1562 6.5625 5.8906 19.953-2.8281-4.2031-7.1875-6.4531-4.3438-2.25-9.6094-2.25-10.938 0-17.312 6.6094-6.375 6.625-6.375 18.109 0 11.219 6.6406 18 6.6406 6.7969 17.672 6.7969 12.656 0 19.312-9.7031 6.6719-9.6875 6.6719-28.141 0-17.234-8.1875-27.516-8.1719-10.281-21.984-10.281-3.7188 0-7.5312 0.73438-3.7969 0.73438-7.9062 2.2031zm19.625 30.906q6.6406 0 10.516 4.5312 3.8906 4.5469 3.8906 12.469 0 7.8594-3.8906 12.422-3.875 4.5625-10.516 4.5625t-10.516-4.5625-3.875-12.422q0-7.9219 3.875-12.469 3.875-4.5312 10.516-4.5312z"/>
</defs>
<use xlink:href="#c"/>
<use x="63.623047" xlink:href="#d"/>
<use x="95.410156" xlink:href="#aj"/>
</g>
</g>
<g clip-path="url(#a)">
<g transform="translate(803.45 581.9) scale(.1 -.1)">
<use xlink:href="#c"/>
<use x="63.623047" xlink:href="#d"/>
<use x="95.410156" xlink:href="#c"/>
<use x="159.033203" xlink:href="#ab"/>
</g>
</g>
<g clip-path="url(#a)">
<g transform="translate(871.64 581.9) scale(.1 -.1)">
<use xlink:href="#c"/>
<use x="63.623047" xlink:href="#d"/>
<use x="95.410156" xlink:href="#c"/>
<use x="159.033203" xlink:href="#af"/>
</g>
</g>
<g clip-path="url(#a)">
<g transform="translate(942.8 581.9) scale(.1 -.1)">
<use xlink:href="#c"/>
<use x="63.623047" xlink:href="#d"/>
<use x="95.410156" xlink:href="#c"/>
<use x="159.033203" xlink:href="#ak"/>
</g>
</g>
<g clip-path="url(#a)">
<g transform="translate(1055.5 446.45) scale(.1 -.1)">
<use xlink:href="#c"/>
<use x="63.623047" xlink:href="#d"/>
<use x="95.410156" xlink:href="#c"/>
<use x="159.033203" xlink:href="#ae"/>
</g>
</g>
<g clip-path="url(#a)">
<g transform="translate(1258.1 446.45) scale(.1 -.1)">
<use xlink:href="#c"/>
<use x="63.623047" xlink:href="#d"/>
<use x="95.410156" xlink:href="#c"/>
<use x="159.033203" xlink:href="#aj"/>
</g>
</g>
<g clip-path="url(#a)">
<g transform="translate(1174.1 581.9) scale(.1 -.1)">
<defs>
<path id="al" d="m31.781 66.406q-7.6094 0-11.453-7.5-3.8281-7.4844-3.8281-22.531 0-14.984 3.8281-22.484 3.8438-7.5 11.453-7.5 7.6719 0 11.5 7.5 3.8438 7.5 3.8438 22.484 0 15.047-3.8438 22.531-3.8281 7.5-11.5 7.5zm0 7.8125q12.266 0 18.734-9.7031 6.4688-9.6875 6.4688-28.141 0-18.406-6.4688-28.109-6.4688-9.6875-18.734-9.6875-12.25 0-18.719 9.6875-6.4688 9.7031-6.4688 28.109 0 18.453 6.4688 28.141 6.4688 9.7031 18.719 9.7031z"/>
</defs>
<use xlink:href="#c"/>
<use x="63.623047" xlink:href="#d"/>
<use x="95.410156" xlink:href="#n"/>
<use x="159.033203" xlink:href="#al"/>
</g>
</g>
<g clip-path="url(#a)">
<g transform="translate(1257.1 581.9) scale(.1 -.1)">
<use xlink:href="#c"/>
<use x="63.623047" xlink:href="#d"/>
<use x="95.410156" xlink:href="#n"/>
<use x="159.033203" xlink:href="#c"/>
</g>
</g>
<g clip-path="url(#a)">
<g transform="translate(1016.9 581.9) scale(.1 -.1)">
<use xlink:href="#c"/>
<use x="63.623047" xlink:href="#d"/>
<use x="95.410156" xlink:href="#n"/>
<use x="159.033203" xlink:href="#n"/>
</g>
</g>
<g clip-path="url(#a)">
<g transform="translate(1094 581.9) scale(.1 -.1)">
<use xlink:href="#c"/>
<use x="63.623047" xlink:href="#d"/>
<use x="95.410156" xlink:href="#n"/>
<use x="159.033203" xlink:href="#m"/>
</g>
</g>
<g clip-path="url(#a)">
<g transform="translate(673 581.9) scale(.1 -.1)">
<use xlink:href="#c"/>
<use x="63.623047" xlink:href="#d"/>
<use x="95.410156" xlink:href="#n"/>
<use x="159.033203" xlink:href="#ab"/>
</g>
</g>
<g clip-path="url(#a)">
<g transform="translate(157.12 581.9) scale(.1 -.1)">
<use xlink:href="#c"/>
<use x="63.623047" xlink:href="#d"/>
<use x="95.410156" xlink:href="#n"/>
<use x="159.033203" xlink:href="#af"/>
</g>
</g>
<g clip-path="url(#a)">
<g transform="translate(183.8 581.9) scale(.1 -.1)">
<use xlink:href="#c"/>
<use x="63.623047" xlink:href="#d"/>
<use x="95.410156" xlink:href="#n"/>
<use x="159.033203" xlink:href="#ak"/>
</g>
</g>
<g clip-path="url(#a)">
<g transform="translate(296.8 310.29) scale(.1 -.1)">
<use xlink:href="#c"/>
<use x="63.623047" xlink:href="#d"/>
<use x="95.410156" xlink:href="#n"/>
<use x="159.033203" xlink:href="#ae"/>
</g>
</g>
<g clip-path="url(#a)">
<g transform="translate(246.07 581.9) scale(.1 -.1)">
<use xlink:href="#c"/>
<use x="63.623047" xlink:href="#d"/>
<use x="95.410156" xlink:href="#m"/>
<use x="159.033203" xlink:href="#al"/>
</g>
</g>
<g clip-path="url(#a)">
<g transform="translate(281.64 581.9) scale(.1 -.1)">
<use xlink:href="#c"/>
<use x="63.623047" xlink:href="#d"/>
<use x="95.410156" xlink:href="#m"/>
<use x="159.033203" xlink:href="#c"/>
</g>
</g>
<g clip-path="url(#a)">
<g transform="translate(362.68 446.45) scale(.1 -.1)">
<use xlink:href="#c"/>
<use x="63.623047" xlink:href="#d"/>
<use x="95.410156" xlink:href="#m"/>
<use x="159.033203" xlink:href="#n"/>
</g>
</g>
<g clip-path="url(#a)">
<g transform="translate(320.19 581.9) scale(.1 -.1)">
<use xlink:href="#c"/>
<use x="63.623047" xlink:href="#d"/>
<use x="95.410156" xlink:href="#m"/>
<use x="159.033203" xlink:href="#m"/>
</g>
</g>
<g clip-path="url(#a)">
<g transform="translate(361.69 581.9) scale(.1 -.1)">
<use xlink:href="#c"/>
<use x="63.623047" xlink:href="#d"/>
<use x="95.410156" xlink:href="#m"/>
<use x="159.033203" xlink:href="#p"/>
</g>
</g>
<g clip-path="url(#a)">
<g transform="translate(406.17 581.9) scale(.1 -.1)">
<use xlink:href="#c"/>
<use x="63.623047" xlink:href="#d"/>
<use x="95.410156" xlink:href="#m"/>
<use x="159.033203" xlink:href="#ab"/>
</g>
</g>
<g clip-path="url(#a)">
<g transform="translate(81.518 446.45) scale(.1 -.1)">
<use xlink:href="#c"/>
<use x="63.623047" xlink:href="#d"/>
<use x="95.410156" xlink:href="#m"/>
<use x="159.033203" xlink:href="#ae"/>
</g>
</g>
<g clip-path="url(#a)">
<g transform="translate(74.106 581.9) scale(.1 -.1)">
<use xlink:href="#c"/>
<use x="63.623047" xlink:href="#d"/>
<use x="95.410156" xlink:href="#m"/>
<use x="159.033203" xlink:href="#aj"/>
</g>
</g>
<g clip-path="url(#a)">
<g transform="translate(88.93 581.9) scale(.1 -.1)">
<use xlink:href="#c"/>
<use x="63.623047" xlink:href="#d"/>
<use x="95.410156" xlink:href="#p"/>
<use x="159.033203" xlink:href="#al"/>
</g>
</g>
<g clip-path="url(#a)">
<g transform="translate(112.65 581.9) scale(.1 -.1)">
<use xlink:href="#c"/>
<use x="63.623047" xlink:href="#d"/>
<use x="95.410156" xlink:href="#p"/>
<use x="159.033203" xlink:href="#c"/>
</g>
</g>
<g clip-path="url(#a)">
<g transform="translate(213.45 581.9) scale(.1 -.1)">
<use xlink:href="#c"/>
<use x="63.623047" xlink:href="#d"/>
<use x="95.410156" xlink:href="#p"/>
<use x="159.033203" xlink:href="#n"/>
</g>
</g>
<g clip-path="url(#a)">
<g transform="translate(453.6 581.9) scale(.1 -.1)">
<use xlink:href="#c"/>
<use x="63.623047" xlink:href="#d"/>
<use x="95.410156" xlink:href="#p"/>
<use x="159.033203" xlink:href="#m"/>
</g>
</g>
<g clip-path="url(#a)">
<g transform="translate(557.37 581.9) scale(.1 -.1)">
<use xlink:href="#c"/>
<use x="63.623047" xlink:href="#d"/>
<use x="95.410156" xlink:href="#p"/>
<use x="159.033203" xlink:href="#p"/>
</g>
</g>
<g clip-path="url(#a)">
<g transform="translate(738.23 581.9) scale(.1 -.1)">
<use xlink:href="#c"/>
<use x="63.623047" xlink:href="#d"/>
<use x="95.410156" xlink:href="#p"/>
<use x="159.033203" xlink:href="#ab"/>
</g>
</g>
<g clip-path="url(#a)">
<g transform="translate(1343 581.9) scale(.1 -.1)">
<use xlink:href="#c"/>
<use x="63.623047" xlink:href="#d"/>
<use x="95.410156" xlink:href="#p"/>
<use x="159.033203" xlink:href="#af"/>
</g>
</g>
<defs>
<clipPath id="a">
<rect width="1418.7" height="746.67"/>
</clipPath>
</defs>
</svg>
