<?xml version="1.0" encoding="UTF-8"?>
<!DOCTYPE svg  PUBLIC '-//W3C//DTD SVG 1.1//EN'  'http://www.w3.org/Graphics/SVG/1.1/DTD/svg11.dtd'>
<svg width="1621.3pt" height="853.33pt" version="1.1" viewBox="0 0 1621.3 853.33" xmlns="http://www.w3.org/2000/svg" xmlns:xlink="http://www.w3.org/1999/xlink">
<metadata>
<rdf:RDF xmlns:cc="http://creativecommons.org/ns#" xmlns:dc="http://purl.org/dc/elements/1.1/" xmlns:rdf="http://www.w3.org/1999/02/22-rdf-syntax-ns#">
<cc:Work>
<dc:type rdf:resource="http://purl.org/dc/dcmitype/StillImage"/>
<dc:date>2021-02-01T11:27:04.724746</dc:date>
<dc:format>image/svg+xml</dc:format>
<dc:creator>
<cc:Agent>
<dc:title>Matplotlib v3.3.3, https://matplotlib.org/</dc:title>
</cc:Agent>
</dc:creator>
</cc:Work>
</rdf:RDF>
</metadata>
<defs>
<style type="text/css">*{stroke-linecap:butt;stroke-linejoin:round;}</style>
</defs>
<path d="m0 853.33h1621.3v-853.33h-1621.3z" fill="#fff"/>
<g fill="none" stroke="#000">
<path d="m1036.9 38.788-861.79 97.875" clip-path="url(#a)"/>
<path d="m1036.9 38.788 258.02 680.78" clip-path="url(#a)"/>
<path d="m1036.9 38.788 424.71 584.49" clip-path="url(#a)"/>
<path d="m1036.9 38.788 179.06 680.78" clip-path="url(#a)"/>
<path d="m175.15 136.66-101.46 582.91" clip-path="url(#a)"/>
<path d="m175.15 136.66-93.559 582.91" clip-path="url(#a)"/>
<path d="m175.15 136.66-83.031 582.91" clip-path="url(#a)"/>
<path d="m175.15 136.66-69.871 582.91" clip-path="url(#a)"/>
<path d="m175.15 136.66 401.99 97.735" clip-path="url(#a)"/>
<path d="m175.15 136.66-54.079 582.91" clip-path="url(#a)"/>
<path d="m1295 719.57v94.974" clip-path="url(#a)"/>
<path d="m1461.7 623.28-85.102 96.295" clip-path="url(#a)"/>
<path d="m1461.7 623.28-0.87734 96.295" clip-path="url(#a)"/>
<path d="m1461.7 623.28 85.98 96.295" clip-path="url(#a)"/>
<path d="m1376.6 719.57v94.974" clip-path="url(#a)"/>
<path d="m1460.8 719.57v94.974" clip-path="url(#a)"/>
<path d="m73.697 719.57v94.974" clip-path="url(#a)"/>
<path d="m81.593 719.57v94.974" clip-path="url(#a)"/>
<path d="m92.121 719.57v94.974" clip-path="url(#a)"/>
<path d="m105.28 719.57v94.974" clip-path="url(#a)"/>
<path d="m577.15 234.4-390.27 388.88" clip-path="url(#a)"/>
<path d="m577.15 234.4-83.202 97.572" clip-path="url(#a)"/>
<path d="m577.15 234.4 220.36 485.17" clip-path="url(#a)"/>
<path d="m577.15 234.4 394.07 292.08" clip-path="url(#a)"/>
<path d="m577.15 234.4-300.78 485.17" clip-path="url(#a)"/>
<path d="m577.15 234.4 159.82 485.17" clip-path="url(#a)"/>
<path d="m186.87 623.28 57.905 96.295" clip-path="url(#a)"/>
<path d="m186.87 623.28 57.905 96.295" clip-path="url(#a)"/>
<path d="m186.87 623.28-47.377 96.295" clip-path="url(#a)"/>
<path d="m186.87 623.28-2.632 96.295" clip-path="url(#a)"/>
<path d="m186.87 623.28 52.641 96.295" clip-path="url(#a)"/>
<path d="m186.87 623.28-26.32 96.295" clip-path="url(#a)"/>
<path d="m186.87 623.28 23.688 96.295" clip-path="url(#a)"/>
<path d="m493.95 331.97-155.73 97.376" clip-path="url(#a)"/>
<path d="m493.95 331.97-85.98 291.31" clip-path="url(#a)"/>
<path d="m493.95 331.97-20.179 387.6" clip-path="url(#a)"/>
<path d="m493.95 331.97 27.198 387.6" clip-path="url(#a)"/>
<path d="m493.95 331.97 77.206 387.6" clip-path="url(#a)"/>
<path d="m493.95 331.97 157.48 291.31" clip-path="url(#a)"/>
<path d="m797.51 719.57v94.974" clip-path="url(#a)"/>
<path d="m971.22 526.48-110.55 193.1" clip-path="url(#a)"/>
<path d="m971.22 526.48-44.745 193.1" clip-path="url(#a)"/>
<path d="m971.22 526.48 23.688 193.1" clip-path="url(#a)"/>
<path d="m971.22 526.48 131.6 96.8" clip-path="url(#a)"/>
<path d="m860.68 719.57v94.974" clip-path="url(#a)"/>
<path d="m926.48 719.57v94.974" clip-path="url(#a)"/>
<path d="m994.91 719.57v94.974" clip-path="url(#a)"/>
<path d="m1102.8 623.28-36.848 96.295" clip-path="url(#a)"/>
<path d="m1102.8 623.28 36.848 96.295" clip-path="url(#a)"/>
<path d="m1066 719.57v94.974" clip-path="url(#a)"/>
<path d="m1139.7 719.57v94.974" clip-path="url(#a)"/>
<path d="m338.22 429.35-9.2121 97.13" clip-path="url(#a)"/>
<path d="m338.22 429.35 9.2121 193.93" clip-path="url(#a)"/>
<path d="m407.97 623.28-21.056 96.295" clip-path="url(#a)"/>
<path d="m407.97 623.28 21.056 96.295" clip-path="url(#a)"/>
<path d="m473.77 719.57v94.974" clip-path="url(#a)"/>
<path d="m521.14 719.57v94.974" clip-path="url(#a)"/>
<path d="m571.15 719.57v94.974" clip-path="url(#a)"/>
<path d="m651.43 623.28-27.636 96.295" clip-path="url(#a)"/>
<path d="m651.43 623.28 27.636 96.295" clip-path="url(#a)"/>
<path d="m623.79 719.57v94.974" clip-path="url(#a)"/>
<path d="m679.06 719.57v94.974" clip-path="url(#a)"/>
<path d="m386.91 719.57v94.974" clip-path="url(#a)"/>
<path d="m429.02 719.57v94.974" clip-path="url(#a)"/>
<path d="m329 526.48 18.424 96.8" clip-path="url(#a)" stroke-dasharray="3.7,1.6"/>
<path d="m329 526.48-18.424 193.1" clip-path="url(#a)"/>
<path d="m347.43 623.28v96.295" clip-path="url(#a)"/>
<path d="m347.43 719.57v94.974" clip-path="url(#a)"/>
<path d="m310.58 719.57v94.974" clip-path="url(#a)"/>
<path d="m139.5 719.57v94.974" clip-path="url(#a)"/>
<path d="m184.24 719.57v94.974" clip-path="url(#a)"/>
<path d="m239.52 719.57v94.974" clip-path="url(#a)"/>
<path d="m121.07 719.57v94.974" clip-path="url(#a)"/>
<path d="m160.55 719.57v94.974" clip-path="url(#a)"/>
<path d="m210.56 719.57v94.974" clip-path="url(#a)"/>
<path d="m276.36 719.57v94.974" clip-path="url(#a)"/>
<path d="m736.97 719.57v94.974" clip-path="url(#a)"/>
<path d="m1216 719.57v94.974" clip-path="url(#a)"/>
<path d="m1547.6 719.57v94.974" clip-path="url(#a)"/>
</g>
<path d="m603.77 94.296 5.9778-0.67891q2.3847-0.27083 2.1138-2.6555l-0.87372-7.693q-0.27083-2.3847-2.6555-2.1138l-5.9778 0.67892q-2.3847 0.27083-2.1138 2.6555l0.87372 7.693q0.27083 2.3847 2.6555 2.1138z" clip-path="url(#a)" fill="#fff" stroke="#fff"/>
<g clip-path="url(#a)">
<g transform="translate(603.31 90.258) rotate(-6.4794) scale(.08 -.08)">
<defs>
<path id="ac" d="m9.8125 72.906h9.8594v-29.891h35.844v29.891h9.8594v-72.906h-9.8594v34.719h-35.844v-34.719h-9.8594z"/>
</defs>
<use xlink:href="#ac"/>
</g>
</g>
<path d="m1159.3 379.32 1.5797 4.1682q0.85057 2.2442 3.0948 1.3937l7.24-2.744q2.2442-0.85057 1.3937-3.0948l-1.5797-4.1682q-0.85057-2.2442-3.0948-1.3937l-7.24 2.744q-2.2442 0.85057-1.3937 3.0948z" clip-path="url(#a)" fill="#fff" stroke="#fff"/>
<g clip-path="url(#a)">
<g transform="translate(1163.1 377.88) rotate(69.243) scale(.08 -.08)">
<defs>
<path id="aj" d="m9.8125 72.906h9.8594v-64.609h35.5v-8.2969h-45.359z"/>
</defs>
<use xlink:href="#aj"/>
</g>
</g>
<path d="m1242.5 332.28 3.5366 4.867q1.4108 1.9415 3.3524 0.53074l6.2635-4.5513q1.9415-1.4108 0.53074-3.3524l-3.5366-4.867q-1.4108-1.9415-3.3524-0.53074l-6.2635 4.5513q-1.9415 1.4108-0.53074 3.3524z" clip-path="url(#a)" fill="#fff" stroke="#fff"/>
<g clip-path="url(#a)">
<g transform="translate(1245.7 329.9) rotate(53.996) scale(.08 -.08)">
<use xlink:href="#ac"/>
</g>
</g>
<path d="m1119.7 377.94 1.4893 5.6624q0.61048 2.3211 2.9315 1.7106l7.4878-1.9694q2.3211-0.61048 1.7106-2.9315l-1.4893-5.6624q-0.61048-2.3211-2.9315-1.7106l-7.4878 1.9694q-2.3211 0.61048-1.7106 2.9315z" clip-path="url(#a)" fill="#fff" stroke="#fff"/>
<g clip-path="url(#a)">
<g transform="translate(1123.6 376.91) rotate(75.264) scale(.08 -.08)">
<defs>
<path id="u" d="m8.6875 72.906h9.9219v-44.297q0-11.719 4.2344-16.875 4.25-5.1406 13.781-5.1406 9.4688 0 13.719 5.1406 4.25 5.1562 4.25 16.875v44.297h9.9062v-45.516q0-14.25-7.0625-21.531-7.0469-7.2812-20.812-7.2812-13.828 0-20.891 7.2812-7.0469 7.2812-7.0469 21.531z"/>
</defs>
<use xlink:href="#u"/>
</g>
</g>
<path d="m130.07 432.23 1.0563-6.0688q0.41153-2.3645-1.9529-2.776l-7.6278-1.3276q-2.3645-0.41153-2.776 1.9529l-1.0563 6.0688q-0.41153 2.3645 1.9529 2.776l7.6278 1.3276q2.3645 0.41153 2.776-1.9529z" clip-path="url(#a)" fill="#fff" stroke="#fff"/>
<g clip-path="url(#a)">
<g transform="translate(126.07 431.53) rotate(-80.127) scale(.08 -.08)">
<defs>
<path id="as" d="m19.672 64.797v-56.688h11.922q15.094 0 22.094 6.8281 7 6.8438 7 21.594 0 14.641-7 21.453t-22.094 6.8125zm-9.8594 8.1094h20.266q21.188 0 31.094-8.8125 9.9219-8.8125 9.9219-27.562 0-18.859-9.9688-27.703-9.9531-8.8281-31.047-8.8281h-20.266z"/>
</defs>
<use xlink:href="#as"/>
</g>
</g>
<path d="m134.13 431.81 0.86726-5.4033q0.38034-2.3697-1.9893-2.75l-7.6447-1.227q-2.3697-0.38034-2.75 1.9893l-0.86726 5.4033q-0.38034 2.3697 1.9893 2.75l7.6447 1.227q2.3697 0.38034 2.75-1.9893z" clip-path="url(#a)" fill="#fff" stroke="#fff"/>
<g clip-path="url(#a)">
<g transform="translate(130.12 431.17) rotate(-80.882) scale(.08 -.08)">
<defs>
<path id="q" d="m34.188 63.188-13.391-36.281h26.812zm-5.5781 9.7188h11.188l27.781-72.906h-10.25l-6.6406 18.703h-32.859l-6.6406-18.703h-10.406z"/>
</defs>
<use xlink:href="#q"/>
</g>
</g>
<path d="m139.51 431.39 0.68024-4.7755q0.33845-2.376-2.0376-2.7145l-7.6651-1.0918q-2.376-0.33845-2.7145 2.0376l-0.68024 4.7755q-0.33845 2.376 2.0376 2.7145l7.6651 1.0918q2.376 0.33845 2.7145-2.0376z" clip-path="url(#a)" fill="#fff" stroke="#fff"/>
<g clip-path="url(#a)">
<g transform="translate(135.48 430.82) rotate(-81.893) scale(.08 -.08)">
<defs>
<path id="ab" d="m19.672 64.797v-27.391h12.406q6.8906 0 10.641 3.5625 3.7656 3.5625 3.7656 10.156 0 6.5469-3.7656 10.109-3.75 3.5625-10.641 3.5625zm-9.8594 8.1094h22.266q12.266 0 18.531-5.5469 6.2812-5.5469 6.2812-16.234 0-10.797-6.2812-16.312-6.2656-5.5156-18.531-5.5156h-12.406v-29.297h-9.8594z"/>
</defs>
<use xlink:href="#ab"/>
</g>
</g>
<path d="m146.12 431.58 0.6513-5.4336q0.28563-2.3829-2.0973-2.6686l-7.6875-0.92147q-2.3829-0.28563-2.6686 2.0973l-0.6513 5.4336q-0.28563 2.3829 2.0973 2.6686l7.6875 0.92147q2.3829 0.28563 2.6686-2.0973z" clip-path="url(#a)" fill="#fff" stroke="#fff"/>
<g clip-path="url(#a)">
<g transform="translate(142.08 431.1) rotate(-83.165) scale(.08 -.08)">
<use xlink:href="#q"/>
</g>
</g>
<path d="m372.01 190.98 5.3176 1.2928q2.3321 0.56698 2.8991-1.7651l1.8291-7.5233q0.56699-2.3321-1.7651-2.899l-5.3176-1.2928q-2.3321-0.56699-2.899 1.7651l-1.8291 7.5233q-0.56698 2.3321 1.7651 2.899z" clip-path="url(#a)" fill="#fff" stroke="#fff"/>
<g clip-path="url(#a)">
<g transform="translate(372.97 187.03) rotate(13.665) scale(.08 -.08)">
<use xlink:href="#q"/>
</g>
</g>
<path d="m154.09 431.61 0.54087-5.83q0.2217-2.3897-2.168-2.6114l-7.7094-0.71523q-2.3897-0.2217-2.6114 2.168l-0.54087 5.83q-0.2217 2.3897 2.168 2.6114l7.7094 0.71523q2.3897 0.2217 2.6114-2.168z" clip-path="url(#a)" fill="#fff" stroke="#fff"/>
<g clip-path="url(#a)">
<g transform="translate(150.04 431.24) rotate(-84.7) scale(.08 -.08)">
<use xlink:href="#u"/>
</g>
</g>
<path d="m1288.7 750.15v33.808q0 2.4 2.4 2.4h7.7425q2.4 0 2.4-2.4v-33.808q0-2.4-2.4-2.4h-7.7425q-2.4 0-2.4 2.4z" clip-path="url(#a)" fill="#fff" stroke="#fff"/>
<g clip-path="url(#a)">
<g transform="translate(1292.8 750.15) rotate(90) scale(.08 -.08)">
<defs>
<path id="e" d="m-0.29688 72.906h61.672v-8.3125h-25.875v-64.594h-9.9062v64.594h-25.891z"/>
<path id="l" d="m56.203 29.594v-4.3906h-41.312q0.59375-9.2812 5.5938-14.141t13.938-4.8594q5.1719 0 10.031 1.2656t9.6562 3.8125v-8.5q-4.8438-2.0469-9.9219-3.125t-10.297-1.0781q-13.094 0-20.734 7.6094-7.6406 7.625-7.6406 20.625 0 13.422 7.25 21.297 7.25 7.8906 19.562 7.8906 11.031 0 17.453-7.1094 6.4219-7.0938 6.4219-19.297zm-8.9844 2.6406q-0.09375 7.3594-4.125 11.75-4.0312 4.4062-10.672 4.4062-7.5156 0-12.031-4.25t-5.2031-11.969z"/>
<path id="g" d="m41.109 46.297q-1.5156 0.875-3.2969 1.2812-1.7812 0.42188-3.9219 0.42188-7.625 0-11.703-4.9531t-4.0781-14.234v-28.812h-9.0312v54.688h9.0312v-8.5q2.8438 4.9844 7.375 7.3906 4.5469 2.4219 11.047 2.4219 0.92188 0 2.0469-0.125 1.125-0.10938 2.4844-0.35938z"/>
<path id="i" d="m52 44.188q3.375 6.0625 8.0625 8.9375t11.031 2.875q8.5469 0 13.188-5.9844 4.6406-5.9688 4.6406-17v-33.016h-9.0312v32.719q0 7.8594-2.7969 11.656-2.7812 3.8125-8.4844 3.8125-6.9844 0-11.047-4.6406-4.0469-4.625-4.0469-12.641v-30.906h-9.0312v32.719q0 7.9062-2.7812 11.688t-8.5938 3.7812q-6.8906 0-10.953-4.6562-4.0469-4.6562-4.0469-12.625v-30.906h-9.0312v54.688h9.0312v-8.5q3.0781 5.0312 7.375 7.4219t10.203 2.3906q5.9688 0 10.141-3.0312 4.1719-3.0156 6.1719-8.7812z"/>
<path id="k" d="m9.4219 54.688h8.9844v-54.688h-8.9844zm0 21.297h8.9844v-11.391h-8.9844z"/>
<path id="h" d="m54.891 33.016v-33.016h-8.9844v32.719q0 7.7656-3.0312 11.609-3.0312 3.8594-9.0781 3.8594-7.2812 0-11.484-4.6406-4.2031-4.625-4.2031-12.641v-30.906h-9.0312v54.688h9.0312v-8.5q3.2344 4.9375 7.5938 7.375 4.375 2.4375 10.094 2.4375 9.4219 0 14.25-5.8281 4.8438-5.8281 4.8438-17.156z"/>
<path id="f" d="m34.281 27.484q-10.891 0-15.094-2.4844t-4.2031-8.5q0-4.7812 3.1562-7.5938 3.1562-2.7969 8.5625-2.7969 7.4844 0 12 5.2969t4.5156 14.078v2zm17.922 3.7188v-31.203h-8.9844v8.2969q-3.0781-4.9688-7.6719-7.3438t-11.234-2.375q-8.3906 0-13.359 4.7188-4.9531 4.7188-4.9531 12.625 0 9.2188 6.1719 13.906 6.1875 4.6875 18.438 4.6875h12.609v0.89062q0 6.2031-4.0781 9.5938t-11.453 3.3906q-4.6875 0-9.1406-1.125-4.4375-1.125-8.5312-3.375v8.3125q4.9219 1.9062 9.5625 2.8438 4.6406 0.95312 9.0312 0.95312 11.875 0 17.734-6.1562 5.8594-6.1406 5.8594-18.641z"/>
<path id="j" d="m9.4219 75.984h8.9844v-75.984h-8.9844z"/>
</defs>
<use xlink:href="#e"/>
<use x="44.083984" xlink:href="#l"/>
<use x="105.607422" xlink:href="#g"/>
<use x="144.970703" xlink:href="#i"/>
<use x="242.382812" xlink:href="#k"/>
<use x="270.166016" xlink:href="#h"/>
<use x="333.544922" xlink:href="#f"/>
<use x="394.824219" xlink:href="#j"/>
</g>
</g>
<path d="m1422 677.63 3.624-4.1006q1.5893-1.7984-0.20903-3.3877l-5.8016-5.1272q-1.7984-1.5893-3.3877 0.20903l-3.624 4.1006q-1.5893 1.7984 0.20903 3.3877l5.8016 5.1272q1.7984 1.5893 3.3877-0.20903z" clip-path="url(#a)" fill="#fff" stroke="#fff"/>
<g clip-path="url(#a)">
<g transform="translate(1418.9 674.94) rotate(-48.531) scale(.08 -.08)">
<use xlink:href="#q"/>
</g>
</g>
<path d="m1467.5 674.02 0.04627-5.0785q0.021866-2.3999-2.378-2.4218l-7.7422-0.070539q-2.3999-0.021866-2.4218 2.378l-0.046271 5.0785q-0.021865 2.3999 2.378 2.4218l7.7422 0.070539q2.3999 0.021865 2.4218-2.378z" clip-path="url(#a)" fill="#fff" stroke="#fff"/>
<g clip-path="url(#a)">
<g transform="translate(1463.4 673.98) rotate(-89.478) scale(.08 -.08)">
<defs>
<path id="ai" d="m53.516 70.516v-9.625q-5.6094 2.6875-10.594 4-4.9844 1.3281-9.625 1.3281-8.0469 0-12.422-3.125t-4.375-8.8906q0-4.8438 2.9062-7.3125 2.9062-2.4531 11.016-3.9688l5.9531-1.2188q11.031-2.1094 16.281-7.4062t5.25-14.172q0-10.609-7.1094-16.078-7.0938-5.4688-20.812-5.4688-5.1719 0-11.016 1.1719-5.8281 1.1719-12.078 3.4688v10.156q6-3.3594 11.766-5.0781 5.7656-1.7031 11.328-1.7031 8.4375 0 13.031 3.3125 4.5938 3.3281 4.5938 9.4844 0 5.3594-3.2969 8.3906t-10.812 4.5469l-6.0156 1.1719q-11.031 2.1875-15.969 6.875-4.9219 4.6875-4.9219 13.047 0 9.6719 6.8125 15.234t18.766 5.5625q5.1406 0 10.453-0.9375 5.3281-0.92188 10.891-2.7656z"/>
</defs>
<use xlink:href="#ai"/>
</g>
</g>
<path d="m1498 673.42 3.8996 4.3674q1.5985 1.7902 3.3887 0.19178l5.7754-5.1567q1.7902-1.5985 0.19178-3.3887l-3.8996-4.3674q-1.5985-1.7902-3.3887-0.19178l-5.7754 5.1567q-1.7902 1.5985-0.19178 3.3887z" clip-path="url(#a)" fill="#fff" stroke="#fff"/>
<g clip-path="url(#a)">
<g transform="translate(1501.1 670.71) rotate(48.239) scale(.08 -.08)">
<use xlink:href="#u"/>
</g>
</g>
<path d="m1370.3 750.15v33.808q0 2.4 2.4 2.4h7.7425q2.4 0 2.4-2.4v-33.808q0-2.4-2.4-2.4h-7.7425q-2.4 0-2.4 2.4z" clip-path="url(#a)" fill="#fff" stroke="#fff"/>
<g clip-path="url(#a)">
<g transform="translate(1374.3 750.15) rotate(90) scale(.08 -.08)">
<use xlink:href="#e"/>
<use x="44.083984" xlink:href="#l"/>
<use x="105.607422" xlink:href="#g"/>
<use x="144.970703" xlink:href="#i"/>
<use x="242.382812" xlink:href="#k"/>
<use x="270.166016" xlink:href="#h"/>
<use x="333.544922" xlink:href="#f"/>
<use x="394.824219" xlink:href="#j"/>
</g>
</g>
<path d="m1454.5 750.15v33.808q0 2.4 2.4 2.4h7.7425q2.4 0 2.4-2.4v-33.808q0-2.4-2.4-2.4h-7.7425q-2.4 0-2.4 2.4z" clip-path="url(#a)" fill="#fff" stroke="#fff"/>
<g clip-path="url(#a)">
<g transform="translate(1458.6 750.15) rotate(90) scale(.08 -.08)">
<use xlink:href="#e"/>
<use x="44.083984" xlink:href="#l"/>
<use x="105.607422" xlink:href="#g"/>
<use x="144.970703" xlink:href="#i"/>
<use x="242.382812" xlink:href="#k"/>
<use x="270.166016" xlink:href="#h"/>
<use x="333.544922" xlink:href="#f"/>
<use x="394.824219" xlink:href="#j"/>
</g>
</g>
<path d="m67.426 750.15v33.808q0 2.4 2.4 2.4h7.7425q2.4 0 2.4-2.4v-33.808q0-2.4-2.4-2.4h-7.7425q-2.4 0-2.4 2.4z" clip-path="url(#a)" fill="#fff" stroke="#fff"/>
<g clip-path="url(#a)">
<g transform="translate(71.489 750.15) rotate(90) scale(.08 -.08)">
<use xlink:href="#e"/>
<use x="44.083984" xlink:href="#l"/>
<use x="105.607422" xlink:href="#g"/>
<use x="144.970703" xlink:href="#i"/>
<use x="242.382812" xlink:href="#k"/>
<use x="270.166016" xlink:href="#h"/>
<use x="333.544922" xlink:href="#f"/>
<use x="394.824219" xlink:href="#j"/>
</g>
</g>
<path d="m75.322 750.15v33.808q0 2.4 2.4 2.4h7.7425q2.4 0 2.4-2.4v-33.808q0-2.4-2.4-2.4h-7.7425q-2.4 0-2.4 2.4z" clip-path="url(#a)" fill="#fff" stroke="#fff"/>
<g clip-path="url(#a)">
<g transform="translate(79.386 750.15) rotate(90) scale(.08 -.08)">
<use xlink:href="#e"/>
<use x="44.083984" xlink:href="#l"/>
<use x="105.607422" xlink:href="#g"/>
<use x="144.970703" xlink:href="#i"/>
<use x="242.382812" xlink:href="#k"/>
<use x="270.166016" xlink:href="#h"/>
<use x="333.544922" xlink:href="#f"/>
<use x="394.824219" xlink:href="#j"/>
</g>
</g>
<path d="m85.85 750.15v33.808q0 2.4 2.4 2.4h7.7425q2.4 0 2.4-2.4v-33.808q0-2.4-2.4-2.4h-7.7425q-2.4 0-2.4 2.4z" clip-path="url(#a)" fill="#fff" stroke="#fff"/>
<g clip-path="url(#a)">
<g transform="translate(89.914 750.15) rotate(90) scale(.08 -.08)">
<use xlink:href="#e"/>
<use x="44.083984" xlink:href="#l"/>
<use x="105.607422" xlink:href="#g"/>
<use x="144.970703" xlink:href="#i"/>
<use x="242.382812" xlink:href="#k"/>
<use x="270.166016" xlink:href="#h"/>
<use x="333.544922" xlink:href="#f"/>
<use x="394.824219" xlink:href="#j"/>
</g>
</g>
<path d="m99.01 750.15v33.808q0 2.4 2.4 2.4h7.7425q2.4 0 2.4-2.4v-33.808q0-2.4-2.4-2.4h-7.7425q-2.4 0-2.4 2.4z" clip-path="url(#a)" fill="#fff" stroke="#fff"/>
<g clip-path="url(#a)">
<g transform="translate(103.07 750.15) rotate(90) scale(.08 -.08)">
<use xlink:href="#e"/>
<use x="44.083984" xlink:href="#l"/>
<use x="105.607422" xlink:href="#g"/>
<use x="144.970703" xlink:href="#i"/>
<use x="242.382812" xlink:href="#k"/>
<use x="270.166016" xlink:href="#h"/>
<use x="333.544922" xlink:href="#f"/>
<use x="394.824219" xlink:href="#j"/>
</g>
</g>
<path d="m384.31 435.4 4.2617-4.2465q1.7001-1.694 0.006076-3.3941l-5.465-5.4846q-1.694-1.7001-3.3941-0.006076l-4.2617 4.2465q-1.7001 1.694-0.006076 3.3941l5.465 5.4846q1.694 1.7001 3.3941 0.006076z" clip-path="url(#a)" fill="#fff" stroke="#fff"/>
<g clip-path="url(#a)">
<g transform="translate(381.44 432.52) rotate(-44.897) scale(.08 -.08)">
<use xlink:href="#ac"/>
</g>
</g>
<path d="m538.37 289.54 3.9036-4.5779q1.5572-1.8262-0.26896-3.3834l-5.8914-5.0237q-1.8262-1.5572-3.3834 0.26896l-3.9036 4.5779q-1.5572 1.8262 0.26896 3.3834l5.8914 5.0237q1.8262 1.5572 3.3834-0.26896z" clip-path="url(#a)" fill="#fff" stroke="#fff"/>
<g clip-path="url(#a)">
<g transform="translate(535.27 286.91) rotate(-49.545) scale(.08 -.08)">
<use xlink:href="#ac"/>
</g>
</g>
<path d="m680.7 477.55 1.8433 4.0585q0.99248 2.1852 3.1777 1.1927l7.0495-3.2018q2.1852-0.99248 1.1927-3.1777l-1.8433-4.0585q-0.99248-2.1852-3.1777-1.1927l-7.0495 3.2018q-2.1852 0.99248-1.1927 3.1777z" clip-path="url(#a)" fill="#fff" stroke="#fff"/>
<g clip-path="url(#a)">
<g transform="translate(684.4 475.87) rotate(65.573) scale(.08 -.08)">
<use xlink:href="#aj"/>
</g>
</g>
<path d="m768.03 383.68 4.8334 3.5824q1.9281 1.4291 3.3572-0.49905l4.6103-6.2203q1.4291-1.9281-0.49905-3.3572l-4.8334-3.5824q-1.9281-1.4291-3.3572 0.49906l-4.6103 6.2203q-1.4291 1.9281 0.49905 3.3572z" clip-path="url(#a)" fill="#fff" stroke="#fff"/>
<g clip-path="url(#a)">
<g transform="translate(770.45 380.42) rotate(36.545) scale(.08 -.08)">
<use xlink:href="#ac"/>
</g>
</g>
<path d="m430.54 482.78 3.0851-4.9763q1.2646-2.0398-0.77523-3.3044l-6.5805-4.0796q-2.0398-1.2646-3.3044 0.77523l-3.0851 4.9763q-1.2646 2.0398 0.77523 3.3044l6.5805 4.0796q2.0398 1.2646 3.3044-0.77523z" clip-path="url(#a)" fill="#fff" stroke="#fff"/>
<g clip-path="url(#a)">
<g transform="translate(427.09 480.64) rotate(-58.203) scale(.08 -.08)">
<use xlink:href="#u"/>
</g>
</g>
<path d="m650.19 476.17 1.8319 5.561q0.7509 2.2795 3.0304 1.5286l7.3538-2.4224q2.2795-0.7509 1.5286-3.0304l-1.8319-5.561q-0.7509-2.2795-3.0304-1.5286l-7.3538 2.4224q-2.2795 0.7509-1.5286 3.0304z" clip-path="url(#a)" fill="#fff" stroke="#fff"/>
<g clip-path="url(#a)">
<g transform="translate(654.05 474.9) rotate(71.767) scale(.08 -.08)">
<use xlink:href="#u"/>
</g>
</g>
<path d="m209.04 672.31 2.8201 4.6899q1.2368 2.0568 3.2936 0.81999l6.6353-3.9899q2.0568-1.2368 0.81999-3.2936l-2.8201-4.6899q-1.2368-2.0568-3.2936-0.81999l-6.6353 3.9899q-2.0568 1.2368-0.81999 3.2936z" clip-path="url(#a)" fill="#fff" stroke="#fff"/>
<g clip-path="url(#a)">
<g transform="translate(212.52 670.22) rotate(58.98) scale(.08 -.08)">
<use xlink:href="#q"/>
</g>
</g>
<path d="m209.14 672.48 2.6172 4.3524q1.2368 2.0568 3.2936 0.81999l6.6353-3.9899q2.0568-1.2368 0.81999-3.2936l-2.6172-4.3524q-1.2368-2.0568-3.2936-0.81999l-6.6353 3.9899q-2.0568 1.2368-0.81999 3.2936z" clip-path="url(#a)" fill="#fff" stroke="#fff"/>
<g clip-path="url(#a)">
<g transform="translate(212.63 670.39) rotate(58.98) scale(.08 -.08)">
<use xlink:href="#ai"/>
</g>
</g>
<path d="m167.44 676.97 2.7365-5.562q1.0595-2.1535-1.094-3.213l-6.9472-3.418q-2.1535-1.0595-3.213 1.094l-2.7365 5.562q-1.0595 2.1535 1.094 3.213l6.9472 3.418q2.1535 1.0595 3.213-1.094z" clip-path="url(#a)" fill="#fff" stroke="#fff"/>
<g clip-path="url(#a)">
<g transform="translate(163.8 675.18) rotate(-63.803) scale(.08 -.08)">
<defs>
<path id="ar" d="m59.516 10.406v19.578h-16.109v8.1094h25.875v-31.312q-5.7031-4.0469-12.594-6.125-6.875-2.0781-14.688-2.0781-17.094 0-26.75 9.9844-9.6406 10-9.6406 27.812 0 17.875 9.6406 27.859 9.6562 9.9844 26.75 9.9844 7.125 0 13.547-1.7656 6.4219-1.75 11.844-5.1719v-10.5q-5.4688 4.6406-11.625 6.9844t-12.938 2.3438q-13.391 0-20.109-7.4688-6.7031-7.4688-6.7031-22.266 0-14.75 6.7031-22.219 6.7188-7.4688 20.109-7.4688 5.2188 0 9.3125 0.90625 4.1094 0.90625 7.375 2.8125z"/>
</defs>
<use xlink:href="#ar"/>
</g>
</g>
<path d="m191.74 674.69 0.16937-6.1964q0.065574-2.3991-2.3335-2.4647l-7.7396-0.21155q-2.3991-0.065574-2.4647 2.3335l-0.16937 6.1964q-0.065574 2.3991 2.3335 2.4647l7.7396 0.21155q2.3991 0.065575 2.4647-2.3335z" clip-path="url(#a)" fill="#fff" stroke="#fff"/>
<g clip-path="url(#a)">
<g transform="translate(187.68 674.58) rotate(-88.434) scale(.08 -.08)">
<use xlink:href="#ar"/>
</g>
</g>
<path d="m206.21 671.71 2.9733 5.4391q1.1512 2.1059 3.2571 0.95468l6.7937-3.7138q2.1059-1.1512 0.95468-3.2571l-2.9733-5.4391q-1.1512-2.1059-3.2571-0.95468l-6.7937 3.7138q-2.1059 1.1512-0.95468 3.2571z" clip-path="url(#a)" fill="#fff" stroke="#fff"/>
<g clip-path="url(#a)">
<g transform="translate(209.77 669.76) rotate(61.336) scale(.08 -.08)">
<use xlink:href="#ar"/>
</g>
</g>
<path d="m178.99 675.9 1.5437-5.6478q0.63278-2.3151-1.6823-2.9479l-7.4685-2.0414q-2.3151-0.63278-2.9479 1.6823l-1.5437 5.6478q-0.63278 2.3151 1.6823 2.9479l7.4685 2.0414q2.3151 0.63278 2.9479-1.6823z" clip-path="url(#a)" fill="#fff" stroke="#fff"/>
<g clip-path="url(#a)">
<g transform="translate(175.07 674.83) rotate(-74.713) scale(.08 -.08)">
<use xlink:href="#u"/>
</g>
</g>
<path d="m191.93 670.08 1.3986 5.6855q0.5733 2.3305 2.9038 1.7572l7.5184-1.8495q2.3305-0.5733 1.7572-2.9038l-1.3986-5.6855q-0.5733-2.3305-2.9038-1.7572l-7.5184 1.8495q-2.3305 0.5733-1.7572 2.9038z" clip-path="url(#a)" fill="#fff" stroke="#fff"/>
<g clip-path="url(#a)">
<g transform="translate(195.88 669.11) rotate(76.18) scale(.08 -.08)">
<use xlink:href="#u"/>
</g>
</g>
<path d="m417.09 387.43 4.6401-2.9014q2.0349-1.2724 0.76251-3.3074l-4.1049-6.5648q-1.2724-2.0349-3.3074-0.76251l-4.6401 2.9014q-2.0349 1.2724-0.76251 3.3074l4.1049 6.5648q1.2724 2.0349 3.3074 0.76251z" clip-path="url(#a)" fill="#fff" stroke="#fff"/>
<g clip-path="url(#a)">
<g transform="translate(414.93 383.98) rotate(-32.017) scale(.08 -.08)">
<use xlink:href="#q"/>
</g>
</g>
<path d="m456.28 481.74 1.3832-4.6864q0.67939-2.3018-1.6224-2.9812l-7.4258-2.1918q-2.3018-0.67939-2.9812 1.6224l-1.3832 4.6864q-0.67939 2.3018 1.6224 2.9812l7.4258 2.1917q2.3018 0.67939 2.9812-1.6224z" clip-path="url(#a)" fill="#fff" stroke="#fff"/>
<g clip-path="url(#a)">
<g transform="translate(452.38 480.59) rotate(-73.556) scale(.08 -.08)">
<use xlink:href="#e"/>
</g>
</g>
<path d="m489.96 529.17 0.32026-6.1517q0.12478-2.3968-2.272-2.5215l-7.732-0.40254q-2.3968-0.12478-2.5215 2.272l-0.32026 6.1517q-0.12478 2.3968 2.272 2.5215l7.732 0.40254q2.3968 0.12478 2.5215-2.272z" clip-path="url(#a)" fill="#fff" stroke="#fff"/>
<g clip-path="url(#a)">
<g transform="translate(485.9 528.96) rotate(-87.02) scale(.08 -.08)">
<use xlink:href="#as"/>
</g>
</g>
<path d="m501.12 523.8 0.33765 4.8119q0.16799 2.3941 2.5621 2.2261l7.7235-0.54195q2.3941-0.16799 2.2261-2.5621l-0.33765-4.8119q-0.16799-2.3941-2.5621-2.2261l-7.7235 0.54195q-2.3941 0.16799-2.2261 2.5621z" clip-path="url(#a)" fill="#fff" stroke="#fff"/>
<g clip-path="url(#a)">
<g transform="translate(505.17 523.52) rotate(85.986) scale(.08 -.08)">
<use xlink:href="#ab"/>
</g>
</g>
<path d="m525.86 524.31 1.0691 5.3671q0.46885 2.3538 2.8226 1.8849l7.5933-1.5125q2.3538-0.46885 1.8849-2.8226l-1.0691-5.3671q-0.46885-2.3538-2.8226-1.8849l-7.5933 1.5125q-2.3538 0.46885-1.8849 2.8226z" clip-path="url(#a)" fill="#fff" stroke="#fff"/>
<g clip-path="url(#a)">
<g transform="translate(529.85 523.52) rotate(78.735) scale(.08 -.08)">
<use xlink:href="#q"/>
</g>
</g>
<path d="m565.87 478.2 2.6025 4.814q1.1414 2.1112 3.2526 0.96987l6.8109-3.6821q2.1112-1.1414 0.96988-3.2526l-2.6025-4.814q-1.1414-2.1112-3.2526-0.96987l-6.8109 3.6821q-2.1112 1.1414-0.96987 3.2526z" clip-path="url(#a)" fill="#fff" stroke="#fff"/>
<g clip-path="url(#a)">
<g transform="translate(569.44 476.27) rotate(61.604) scale(.08 -.08)">
<use xlink:href="#q"/>
</g>
</g>
<path d="m791.24 750.15v33.808q0 2.4 2.4 2.4h7.7425q2.4 0 2.4-2.4v-33.808q0-2.4-2.4-2.4h-7.7425q-2.4 0-2.4 2.4z" clip-path="url(#a)" fill="#fff" stroke="#fff"/>
<g clip-path="url(#a)">
<g transform="translate(795.3 750.15) rotate(90) scale(.08 -.08)">
<use xlink:href="#e"/>
<use x="44.083984" xlink:href="#l"/>
<use x="105.607422" xlink:href="#g"/>
<use x="144.970703" xlink:href="#i"/>
<use x="242.382812" xlink:href="#k"/>
<use x="270.166016" xlink:href="#h"/>
<use x="333.544922" xlink:href="#f"/>
<use x="394.824219" xlink:href="#j"/>
</g>
</g>
<path d="m920.03 628.51 2.7189-4.7493q1.1924-2.0828-0.89043-3.2752l-6.7193-3.8467q-2.0828-1.1924-3.2752 0.89043l-2.7189 4.7493q-1.1924 2.0828 0.89043 3.2752l6.7193 3.8467q2.0828 1.1924 3.2752-0.89043z" clip-path="url(#a)" fill="#fff" stroke="#fff"/>
<g clip-path="url(#a)">
<g transform="translate(916.5 626.49) rotate(-60.209) scale(.08 -.08)">
<use xlink:href="#q"/>
</g>
</g>
<path d="m954.26 627.44 1.3906-6.001q0.54178-2.338-1.7963-2.8798l-7.5426-1.7478q-2.338-0.54178-2.8798 1.7963l-1.3906 6.001q-0.54178 2.338 1.7963 2.8798l7.5426 1.7478q2.338 0.54178 2.8798-1.7963z" clip-path="url(#a)" fill="#fff" stroke="#fff"/>
<g clip-path="url(#a)">
<g transform="translate(950.3 626.52) rotate(-76.954) scale(.08 -.08)">
<use xlink:href="#as"/>
</g>
</g>
<path d="m976.55 621.39 0.58736 4.7879q0.29223 2.3821 2.6744 2.0899l7.6849-0.94276q2.3821-0.29223 2.0899-2.6744l-0.58736-4.7879q-0.29223-2.3821-2.6744-2.0899l-7.6849 0.94276q-2.3821 0.29223-2.0899 2.6744z" clip-path="url(#a)" fill="#fff" stroke="#fff"/>
<g clip-path="url(#a)">
<g transform="translate(980.58 620.9) rotate(83.006) scale(.08 -.08)">
<use xlink:href="#ab"/>
</g>
</g>
<path d="m1031.1 578.31 4.4084 3.2426q1.9333 1.4221 3.3554-0.51126l4.5876-6.237q1.4221-1.9333-0.51126-3.3554l-4.4084-3.2426q-1.9333-1.4221-3.3554 0.51126l-4.5876 6.237q-1.4221 1.9333 0.51126 3.3554z" clip-path="url(#a)" fill="#fff" stroke="#fff"/>
<g clip-path="url(#a)">
<g transform="translate(1033.5 575.03) rotate(36.337) scale(.08 -.08)">
<use xlink:href="#q"/>
</g>
</g>
<path d="m854.4 750.15v33.808q0 2.4 2.4 2.4h7.7425q2.4 0 2.4-2.4v-33.808q0-2.4-2.4-2.4h-7.7425q-2.4 0-2.4 2.4z" clip-path="url(#a)" fill="#fff" stroke="#fff"/>
<g clip-path="url(#a)">
<g transform="translate(858.47 750.15) rotate(90) scale(.08 -.08)">
<use xlink:href="#e"/>
<use x="44.083984" xlink:href="#l"/>
<use x="105.607422" xlink:href="#g"/>
<use x="144.970703" xlink:href="#i"/>
<use x="242.382812" xlink:href="#k"/>
<use x="270.166016" xlink:href="#h"/>
<use x="333.544922" xlink:href="#f"/>
<use x="394.824219" xlink:href="#j"/>
</g>
</g>
<path d="m920.2 750.15v33.808q0 2.4 2.4 2.4h7.7425q2.4 0 2.4-2.4v-33.808q0-2.4-2.4-2.4h-7.7425q-2.4 0-2.4 2.4z" clip-path="url(#a)" fill="#fff" stroke="#fff"/>
<g clip-path="url(#a)">
<g transform="translate(924.27 750.15) rotate(90) scale(.08 -.08)">
<use xlink:href="#e"/>
<use x="44.083984" xlink:href="#l"/>
<use x="105.607422" xlink:href="#g"/>
<use x="144.970703" xlink:href="#i"/>
<use x="242.382812" xlink:href="#k"/>
<use x="270.166016" xlink:href="#h"/>
<use x="333.544922" xlink:href="#f"/>
<use x="394.824219" xlink:href="#j"/>
</g>
</g>
<path d="m988.64 750.15v33.808q0 2.4 2.4 2.4h7.7425q2.4 0 2.4-2.4v-33.808q0-2.4-2.4-2.4h-7.7425q-2.4 0-2.4 2.4z" clip-path="url(#a)" fill="#fff" stroke="#fff"/>
<g clip-path="url(#a)">
<g transform="translate(992.7 750.15) rotate(90) scale(.08 -.08)">
<use xlink:href="#e"/>
<use x="44.083984" xlink:href="#l"/>
<use x="105.607422" xlink:href="#g"/>
<use x="144.970703" xlink:href="#i"/>
<use x="242.382812" xlink:href="#k"/>
<use x="270.166016" xlink:href="#h"/>
<use x="333.544922" xlink:href="#f"/>
<use x="394.824219" xlink:href="#j"/>
</g>
</g>
<path d="m1089.3 676.26 1.9866-5.1916q0.85773-2.2415-1.3838-3.0992l-7.2312-2.7671q-2.2415-0.85773-3.0992 1.3838l-1.9866 5.1916q-0.85773 2.2415 1.3838 3.0992l7.2312 2.7671q2.2415 0.85773 3.0992-1.3838z" clip-path="url(#a)" fill="#fff" stroke="#fff"/>
<g clip-path="url(#a)">
<g transform="translate(1085.5 674.81) rotate(-69.06) scale(.08 -.08)">
<defs>
<path id="ax" d="m44.391 34.188q3.1719-1.0781 6.1719-4.5938t6.0312-9.6719l10.016-19.922h-10.609l-9.3125 18.703q-3.625 7.3281-7.0156 9.7188t-9.25 2.3906h-10.75v-30.812h-9.8594v72.906h22.266q12.5 0 18.656-5.2344 6.1562-5.2188 6.1562-15.766 0-6.8906-3.2031-11.438-3.2031-4.5312-9.2969-6.2812zm-24.719 30.609v-25.875h12.406q7.125 0 10.766 3.2969t3.6406 9.6875-3.6406 9.6406-10.766 3.25z"/>
</defs>
<use xlink:href="#ax"/>
</g>
</g>
<path d="m1114.4 671.06 1.9965 5.2173q0.85773 2.2415 3.0992 1.3838l7.2312-2.7671q2.2415-0.85773 1.3838-3.0992l-1.9965-5.2173q-0.85773-2.2415-3.0992-1.3838l-7.2312 2.7671q-2.2415 0.85773-1.3838 3.0992z" clip-path="url(#a)" fill="#fff" stroke="#fff"/>
<g clip-path="url(#a)">
<g transform="translate(1118.2 669.6) rotate(69.06) scale(.08 -.08)">
<defs>
<path id="y" d="m64.406 67.281v-10.391q-4.9844 4.6406-10.625 6.9219-5.6406 2.2969-11.984 2.2969-12.5 0-19.141-7.6406t-6.6406-22.094q0-14.406 6.6406-22.047t19.141-7.6406q6.3438 0 11.984 2.2969t10.625 6.9375v-10.312q-5.1719-3.5156-10.969-5.2812-5.7812-1.75-12.219-1.75-16.562 0-26.094 10.125-9.5156 10.141-9.5156 27.672 0 17.578 9.5156 27.703 9.5312 10.141 26.094 10.141 6.5312 0 12.312-1.7344 5.7969-1.7344 10.875-5.2031z"/>
</defs>
<use xlink:href="#y"/>
</g>
</g>
<path d="m1059.7 750.15v33.808q0 2.4 2.4 2.4h7.7425q2.4 0 2.4-2.4v-33.808q0-2.4-2.4-2.4h-7.7425q-2.4 0-2.4 2.4z" clip-path="url(#a)" fill="#fff" stroke="#fff"/>
<g clip-path="url(#a)">
<g transform="translate(1063.8 750.15) rotate(90) scale(.08 -.08)">
<use xlink:href="#e"/>
<use x="44.083984" xlink:href="#l"/>
<use x="105.607422" xlink:href="#g"/>
<use x="144.970703" xlink:href="#i"/>
<use x="242.382812" xlink:href="#k"/>
<use x="270.166016" xlink:href="#h"/>
<use x="333.544922" xlink:href="#f"/>
<use x="394.824219" xlink:href="#j"/>
</g>
</g>
<path d="m1133.4 750.15v33.808q0 2.4 2.4 2.4h7.7425q2.4 0 2.4-2.4v-33.808q0-2.4-2.4-2.4h-7.7425q-2.4 0-2.4 2.4z" clip-path="url(#a)" fill="#fff" stroke="#fff"/>
<g clip-path="url(#a)">
<g transform="translate(1137.5 750.15) rotate(90) scale(.08 -.08)">
<use xlink:href="#e"/>
<use x="44.083984" xlink:href="#l"/>
<use x="105.607422" xlink:href="#g"/>
<use x="144.970703" xlink:href="#i"/>
<use x="242.382812" xlink:href="#k"/>
<use x="270.166016" xlink:href="#h"/>
<use x="333.544922" xlink:href="#f"/>
<use x="394.824219" xlink:href="#j"/>
</g>
</g>
<path d="m339.61 481.02 0.47729-5.0324q0.22661-2.3893-2.1627-2.6159l-7.7079-0.73104q-2.3893-0.22661-2.6159 2.1627l-0.47729 5.0324q-0.22661 2.3893 2.1627 2.6159l7.7079 0.73104q2.3893 0.22661 2.6159-2.1627z" clip-path="url(#a)" fill="#fff" stroke="#fff"/>
<g clip-path="url(#a)">
<g transform="translate(335.57 480.64) rotate(-84.582) scale(.08 -.08)">
<defs>
<path id="az" d="m9.8125 72.906h46.094v-8.3125h-36.234v-21.578h34.719v-8.2969h-34.719v-26.422h37.109v-8.2969h-46.969z"/>
</defs>
<use xlink:href="#az"/>
</g>
</g>
<path d="m336.43 523.82 0.26506 5.58q0.11388 2.3973 2.5112 2.2834l7.7338-0.36737q2.3973-0.11388 2.2834-2.5112l-0.26506-5.58q-0.11388-2.3973-2.5112-2.2834l-7.7338 0.36737q-2.3973 0.11388-2.2834 2.5112z" clip-path="url(#a)" fill="#fff" stroke="#fff"/>
<g clip-path="url(#a)">
<g transform="translate(340.48 523.63) rotate(87.28) scale(.08 -.08)">
<use xlink:href="#y"/>
</g>
</g>
<path d="m402.97 675.48 1.1874-5.4304q0.51268-2.3446-1.8319-2.8573l-7.5638-1.6539q-2.3446-0.51268-2.8573 1.8319l-1.1874 5.4304q-0.51268 2.3446 1.8319 2.8573l7.5638 1.6539q2.3446 0.51268 2.8573-1.8319z" clip-path="url(#a)" fill="#fff" stroke="#fff"/>
<g clip-path="url(#a)">
<g transform="translate(399 674.61) rotate(-77.666) scale(.08 -.08)">
<use xlink:href="#ax"/>
</g>
</g>
<path d="m411.77 670.03 1.1933 5.4573q0.51268 2.3446 2.8573 1.8319l7.5638-1.6539q2.3446-0.51268 1.8319-2.8573l-1.1933-5.4573q-0.51268-2.3446-2.8573-1.8319l-7.5638 1.6539q-2.3446 0.51268-1.8319 2.8573z" clip-path="url(#a)" fill="#fff" stroke="#fff"/>
<g clip-path="url(#a)">
<g transform="translate(415.74 669.17) rotate(77.666) scale(.08 -.08)">
<use xlink:href="#y"/>
</g>
</g>
<path d="m467.49 750.15v33.808q0 2.4 2.4 2.4h7.7425q2.4 0 2.4-2.4v-33.808q0-2.4-2.4-2.4h-7.7425q-2.4 0-2.4 2.4z" clip-path="url(#a)" fill="#fff" stroke="#fff"/>
<g clip-path="url(#a)">
<g transform="translate(471.56 750.15) rotate(90) scale(.08 -.08)">
<use xlink:href="#e"/>
<use x="44.083984" xlink:href="#l"/>
<use x="105.607422" xlink:href="#g"/>
<use x="144.970703" xlink:href="#i"/>
<use x="242.382812" xlink:href="#k"/>
<use x="270.166016" xlink:href="#h"/>
<use x="333.544922" xlink:href="#f"/>
<use x="394.824219" xlink:href="#j"/>
</g>
</g>
<path d="m514.87 750.15v33.808q0 2.4 2.4 2.4h7.7425q2.4 0 2.4-2.4v-33.808q0-2.4-2.4-2.4h-7.7425q-2.4 0-2.4 2.4z" clip-path="url(#a)" fill="#fff" stroke="#fff"/>
<g clip-path="url(#a)">
<g transform="translate(518.94 750.15) rotate(90) scale(.08 -.08)">
<use xlink:href="#e"/>
<use x="44.083984" xlink:href="#l"/>
<use x="105.607422" xlink:href="#g"/>
<use x="144.970703" xlink:href="#i"/>
<use x="242.382812" xlink:href="#k"/>
<use x="270.166016" xlink:href="#h"/>
<use x="333.544922" xlink:href="#f"/>
<use x="394.824219" xlink:href="#j"/>
</g>
</g>
<path d="m564.88 750.15v33.808q0 2.4 2.4 2.4h7.7425q2.4 0 2.4-2.4v-33.808q0-2.4-2.4-2.4h-7.7425q-2.4 0-2.4 2.4z" clip-path="url(#a)" fill="#fff" stroke="#fff"/>
<g clip-path="url(#a)">
<g transform="translate(568.94 750.15) rotate(90) scale(.08 -.08)">
<use xlink:href="#e"/>
<use x="44.083984" xlink:href="#l"/>
<use x="105.607422" xlink:href="#g"/>
<use x="144.970703" xlink:href="#i"/>
<use x="242.382812" xlink:href="#k"/>
<use x="270.166016" xlink:href="#h"/>
<use x="333.544922" xlink:href="#f"/>
<use x="394.824219" xlink:href="#j"/>
</g>
</g>
<path d="m642.94 675.58 1.3945-4.8589q0.66206-2.3069-1.6448-2.9689l-7.4421-2.1358q-2.3069-0.66206-2.9689 1.6448l-1.3945 4.8589q-0.66206 2.3069 1.6448 2.9689l7.4421 2.1358q2.3069 0.66206 2.9689-1.6448z" clip-path="url(#a)" fill="#fff" stroke="#fff"/>
<g clip-path="url(#a)">
<g transform="translate(639.03 674.46) rotate(-73.987) scale(.08 -.08)">
<use xlink:href="#az"/>
</g>
</g>
<path d="m658.45 670.47 1.541 5.3695q0.66206 2.3069 2.9689 1.6448l7.4421-2.1358q2.3069-0.66206 1.6448-2.9689l-1.541-5.3695q-0.66206-2.3069-2.9689-1.6448l-7.4421 2.1358q-2.3069 0.66206-1.6448 2.9689z" clip-path="url(#a)" fill="#fff" stroke="#fff"/>
<g clip-path="url(#a)">
<g transform="translate(662.35 669.35) rotate(73.987) scale(.08 -.08)">
<use xlink:href="#y"/>
</g>
</g>
<path d="m617.52 750.15v33.808q0 2.4 2.4 2.4h7.7425q2.4 0 2.4-2.4v-33.808q0-2.4-2.4-2.4h-7.7425q-2.4 0-2.4 2.4z" clip-path="url(#a)" fill="#fff" stroke="#fff"/>
<g clip-path="url(#a)">
<g transform="translate(621.58 750.15) rotate(90) scale(.08 -.08)">
<use xlink:href="#e"/>
<use x="44.083984" xlink:href="#l"/>
<use x="105.607422" xlink:href="#g"/>
<use x="144.970703" xlink:href="#i"/>
<use x="242.382812" xlink:href="#k"/>
<use x="270.166016" xlink:href="#h"/>
<use x="333.544922" xlink:href="#f"/>
<use x="394.824219" xlink:href="#j"/>
</g>
</g>
<path d="m672.79 750.15v33.808q0 2.4 2.4 2.4h7.7425q2.4 0 2.4-2.4v-33.808q0-2.4-2.4-2.4h-7.7425q-2.4 0-2.4 2.4z" clip-path="url(#a)" fill="#fff" stroke="#fff"/>
<g clip-path="url(#a)">
<g transform="translate(676.86 750.15) rotate(90) scale(.08 -.08)">
<use xlink:href="#e"/>
<use x="44.083984" xlink:href="#l"/>
<use x="105.607422" xlink:href="#g"/>
<use x="144.970703" xlink:href="#i"/>
<use x="242.382812" xlink:href="#k"/>
<use x="270.166016" xlink:href="#h"/>
<use x="333.544922" xlink:href="#f"/>
<use x="394.824219" xlink:href="#j"/>
</g>
</g>
<path d="m380.64 750.15v33.808q0 2.4 2.4 2.4h7.7425q2.4 0 2.4-2.4v-33.808q0-2.4-2.4-2.4h-7.7425q-2.4 0-2.4 2.4z" clip-path="url(#a)" fill="#fff" stroke="#fff"/>
<g clip-path="url(#a)">
<g transform="translate(384.7 750.15) rotate(90) scale(.08 -.08)">
<use xlink:href="#e"/>
<use x="44.083984" xlink:href="#l"/>
<use x="105.607422" xlink:href="#g"/>
<use x="144.970703" xlink:href="#i"/>
<use x="242.382812" xlink:href="#k"/>
<use x="270.166016" xlink:href="#h"/>
<use x="333.544922" xlink:href="#f"/>
<use x="394.824219" xlink:href="#j"/>
</g>
</g>
<path d="m422.75 750.15v33.808q0 2.4 2.4 2.4h7.7425q2.4 0 2.4-2.4v-33.808q0-2.4-2.4-2.4h-7.7425q-2.4 0-2.4 2.4z" clip-path="url(#a)" fill="#fff" stroke="#fff"/>
<g clip-path="url(#a)">
<g transform="translate(426.81 750.15) rotate(90) scale(.08 -.08)">
<use xlink:href="#e"/>
<use x="44.083984" xlink:href="#l"/>
<use x="105.607422" xlink:href="#g"/>
<use x="144.970703" xlink:href="#i"/>
<use x="242.382812" xlink:href="#k"/>
<use x="270.166016" xlink:href="#h"/>
<use x="333.544922" xlink:href="#f"/>
<use x="394.824219" xlink:href="#j"/>
</g>
</g>
<path d="m331.54 573.36 1.0232 5.376q0.44874 2.3577 2.8064 1.9089l7.606-1.4477q2.3577-0.44874 1.9089-2.8064l-1.0232-5.376q-0.44874-2.3577-2.8064-1.9089l-7.606 1.4477q-2.3577 0.44874-1.9089 2.8064z" clip-path="url(#a)" fill="#fff" stroke="#fff"/>
<g clip-path="url(#a)">
<g transform="translate(335.54 572.6) rotate(79.224) scale(.08 -.08)">
<use xlink:href="#q"/>
</g>
</g>
<path d="m325.79 626.15 0.4824-5.0558q0.22796-2.3891-2.1612-2.6171l-7.7075-0.73541q-2.3892-0.22796-2.6171 2.1612l-0.4824 5.0558q-0.22796 2.3891 2.1612 2.6171l7.7075 0.73541q2.3891 0.22796 2.6171-2.1612z" clip-path="url(#a)" fill="#fff" stroke="#fff"/>
<g clip-path="url(#a)">
<g transform="translate(321.75 625.76) rotate(-84.55) scale(.08 -.08)">
<use xlink:href="#ai"/>
</g>
</g>
<path d="m341.03 664.8v13.246q0 2.4 2.4 2.4h8q2.4 0 2.4-2.4v-13.246q0-2.4-2.4-2.4h-8q-2.4 0-2.4 2.4z" clip-path="url(#a)" fill="#fff" stroke="#fff"/>
<g clip-path="url(#a)">
<g transform="translate(345.31 664.8) rotate(90) scale(.08 -.08)">
<defs>
<path id="bg" d="m21 76.422v-100h-8.2969v100z"/>
</defs>
<use xlink:href="#ai"/>
<use x="63.476562" xlink:href="#bg"/>
<use x="97.167969" xlink:href="#q"/>
</g>
</g>
<path d="m341.16 750.15v33.808q0 2.4 2.4 2.4h7.7425q2.4 0 2.4-2.4v-33.808q0-2.4-2.4-2.4h-7.7425q-2.4 0-2.4 2.4z" clip-path="url(#a)" fill="#fff" stroke="#fff"/>
<g clip-path="url(#a)">
<g transform="translate(345.22 750.15) rotate(90) scale(.08 -.08)">
<use xlink:href="#e"/>
<use x="44.083984" xlink:href="#l"/>
<use x="105.607422" xlink:href="#g"/>
<use x="144.970703" xlink:href="#i"/>
<use x="242.382812" xlink:href="#k"/>
<use x="270.166016" xlink:href="#h"/>
<use x="333.544922" xlink:href="#f"/>
<use x="394.824219" xlink:href="#j"/>
</g>
</g>
<path d="m304.31 750.15v33.808q0 2.4 2.4 2.4h7.7425q2.4 0 2.4-2.4v-33.808q0-2.4-2.4-2.4h-7.7425q-2.4 0-2.4 2.4z" clip-path="url(#a)" fill="#fff" stroke="#fff"/>
<g clip-path="url(#a)">
<g transform="translate(308.37 750.15) rotate(90) scale(.08 -.08)">
<use xlink:href="#e"/>
<use x="44.083984" xlink:href="#l"/>
<use x="105.607422" xlink:href="#g"/>
<use x="144.970703" xlink:href="#i"/>
<use x="242.382812" xlink:href="#k"/>
<use x="270.166016" xlink:href="#h"/>
<use x="333.544922" xlink:href="#f"/>
<use x="394.824219" xlink:href="#j"/>
</g>
</g>
<path d="m133.23 750.15v33.808q0 2.4 2.4 2.4h7.7425q2.4 0 2.4-2.4v-33.808q0-2.4-2.4-2.4h-7.7425q-2.4 0-2.4 2.4z" clip-path="url(#a)" fill="#fff" stroke="#fff"/>
<g clip-path="url(#a)">
<g transform="translate(137.29 750.15) rotate(90) scale(.08 -.08)">
<use xlink:href="#e"/>
<use x="44.083984" xlink:href="#l"/>
<use x="105.607422" xlink:href="#g"/>
<use x="144.970703" xlink:href="#i"/>
<use x="242.382812" xlink:href="#k"/>
<use x="270.166016" xlink:href="#h"/>
<use x="333.544922" xlink:href="#f"/>
<use x="394.824219" xlink:href="#j"/>
</g>
</g>
<path d="m177.97 750.15v33.808q0 2.4 2.4 2.4h7.7425q2.4 0 2.4-2.4v-33.808q0-2.4-2.4-2.4h-7.7425q-2.4 0-2.4 2.4z" clip-path="url(#a)" fill="#fff" stroke="#fff"/>
<g clip-path="url(#a)">
<g transform="translate(182.03 750.15) rotate(90) scale(.08 -.08)">
<use xlink:href="#e"/>
<use x="44.083984" xlink:href="#l"/>
<use x="105.607422" xlink:href="#g"/>
<use x="144.970703" xlink:href="#i"/>
<use x="242.382812" xlink:href="#k"/>
<use x="270.166016" xlink:href="#h"/>
<use x="333.544922" xlink:href="#f"/>
<use x="394.824219" xlink:href="#j"/>
</g>
</g>
<path d="m233.24 750.15v33.808q0 2.4 2.4 2.4h7.7425q2.4 0 2.4-2.4v-33.808q0-2.4-2.4-2.4h-7.7425q-2.4 0-2.4 2.4z" clip-path="url(#a)" fill="#fff" stroke="#fff"/>
<g clip-path="url(#a)">
<g transform="translate(237.31 750.15) rotate(90) scale(.08 -.08)">
<use xlink:href="#e"/>
<use x="44.083984" xlink:href="#l"/>
<use x="105.607422" xlink:href="#g"/>
<use x="144.970703" xlink:href="#i"/>
<use x="242.382812" xlink:href="#k"/>
<use x="270.166016" xlink:href="#h"/>
<use x="333.544922" xlink:href="#f"/>
<use x="394.824219" xlink:href="#j"/>
</g>
</g>
<path d="m114.8 750.15v33.808q0 2.4 2.4 2.4h7.7425q2.4 0 2.4-2.4v-33.808q0-2.4-2.4-2.4h-7.7425q-2.4 0-2.4 2.4z" clip-path="url(#a)" fill="#fff" stroke="#fff"/>
<g clip-path="url(#a)">
<g transform="translate(118.87 750.15) rotate(90) scale(.08 -.08)">
<use xlink:href="#e"/>
<use x="44.083984" xlink:href="#l"/>
<use x="105.607422" xlink:href="#g"/>
<use x="144.970703" xlink:href="#i"/>
<use x="242.382812" xlink:href="#k"/>
<use x="270.166016" xlink:href="#h"/>
<use x="333.544922" xlink:href="#f"/>
<use x="394.824219" xlink:href="#j"/>
</g>
</g>
<path d="m154.28 750.15v33.808q0 2.4 2.4 2.4h7.7425q2.4 0 2.4-2.4v-33.808q0-2.4-2.4-2.4h-7.7425q-2.4 0-2.4 2.4z" clip-path="url(#a)" fill="#fff" stroke="#fff"/>
<g clip-path="url(#a)">
<g transform="translate(158.35 750.15) rotate(90) scale(.08 -.08)">
<use xlink:href="#e"/>
<use x="44.083984" xlink:href="#l"/>
<use x="105.607422" xlink:href="#g"/>
<use x="144.970703" xlink:href="#i"/>
<use x="242.382812" xlink:href="#k"/>
<use x="270.166016" xlink:href="#h"/>
<use x="333.544922" xlink:href="#f"/>
<use x="394.824219" xlink:href="#j"/>
</g>
</g>
<path d="m204.29 750.15v33.808q0 2.4 2.4 2.4h7.7425q2.4 0 2.4-2.4v-33.808q0-2.4-2.4-2.4h-7.7425q-2.4 0-2.4 2.4z" clip-path="url(#a)" fill="#fff" stroke="#fff"/>
<g clip-path="url(#a)">
<g transform="translate(208.36 750.15) rotate(90) scale(.08 -.08)">
<use xlink:href="#e"/>
<use x="44.083984" xlink:href="#l"/>
<use x="105.607422" xlink:href="#g"/>
<use x="144.970703" xlink:href="#i"/>
<use x="242.382812" xlink:href="#k"/>
<use x="270.166016" xlink:href="#h"/>
<use x="333.544922" xlink:href="#f"/>
<use x="394.824219" xlink:href="#j"/>
</g>
</g>
<path d="m270.09 750.15v33.808q0 2.4 2.4 2.4h7.7425q2.4 0 2.4-2.4v-33.808q0-2.4-2.4-2.4h-7.7425q-2.4 0-2.4 2.4z" clip-path="url(#a)" fill="#fff" stroke="#fff"/>
<g clip-path="url(#a)">
<g transform="translate(274.16 750.15) rotate(90) scale(.08 -.08)">
<use xlink:href="#e"/>
<use x="44.083984" xlink:href="#l"/>
<use x="105.607422" xlink:href="#g"/>
<use x="144.970703" xlink:href="#i"/>
<use x="242.382812" xlink:href="#k"/>
<use x="270.166016" xlink:href="#h"/>
<use x="333.544922" xlink:href="#f"/>
<use x="394.824219" xlink:href="#j"/>
</g>
</g>
<path d="m730.7 750.15v33.808q0 2.4 2.4 2.4h7.7425q2.4 0 2.4-2.4v-33.808q0-2.4-2.4-2.4h-7.7425q-2.4 0-2.4 2.4z" clip-path="url(#a)" fill="#fff" stroke="#fff"/>
<g clip-path="url(#a)">
<g transform="translate(734.76 750.15) rotate(90) scale(.08 -.08)">
<use xlink:href="#e"/>
<use x="44.083984" xlink:href="#l"/>
<use x="105.607422" xlink:href="#g"/>
<use x="144.970703" xlink:href="#i"/>
<use x="242.382812" xlink:href="#k"/>
<use x="270.166016" xlink:href="#h"/>
<use x="333.544922" xlink:href="#f"/>
<use x="394.824219" xlink:href="#j"/>
</g>
</g>
<path d="m1209.7 750.15v33.808q0 2.4 2.4 2.4h7.7425q2.4 0 2.4-2.4v-33.808q0-2.4-2.4-2.4h-7.7425q-2.4 0-2.4 2.4z" clip-path="url(#a)" fill="#fff" stroke="#fff"/>
<g clip-path="url(#a)">
<g transform="translate(1213.8 750.15) rotate(90) scale(.08 -.08)">
<use xlink:href="#e"/>
<use x="44.083984" xlink:href="#l"/>
<use x="105.607422" xlink:href="#g"/>
<use x="144.970703" xlink:href="#i"/>
<use x="242.382812" xlink:href="#k"/>
<use x="270.166016" xlink:href="#h"/>
<use x="333.544922" xlink:href="#f"/>
<use x="394.824219" xlink:href="#j"/>
</g>
</g>
<path d="m1541.4 750.15v33.808q0 2.4 2.4 2.4h7.7425q2.4 0 2.4-2.4v-33.808q0-2.4-2.4-2.4h-7.7425q-2.4 0-2.4 2.4z" clip-path="url(#a)" fill="#fff" stroke="#fff"/>
<g clip-path="url(#a)">
<g transform="translate(1545.4 750.15) rotate(90) scale(.08 -.08)">
<use xlink:href="#e"/>
<use x="44.083984" xlink:href="#l"/>
<use x="105.607422" xlink:href="#g"/>
<use x="144.970703" xlink:href="#i"/>
<use x="242.382812" xlink:href="#k"/>
<use x="270.166016" xlink:href="#h"/>
<use x="333.544922" xlink:href="#f"/>
<use x="394.824219" xlink:href="#j"/>
</g>
</g>
<defs>
<path id="b" d="m0 8.6603c2.2967 0 4.4997-0.9125 6.1237-2.5365 1.624-1.624 2.5365-3.827 2.5365-6.1237s-0.9125-4.4997-2.5365-6.1237c-1.624-1.624-3.827-2.5365-6.1237-2.5365s-4.4997 0.9125-6.1237 2.5365c-1.624 1.624-2.5365 3.827-2.5365 6.1237s0.9125 4.4997 2.5365 6.1237c1.624 1.624 3.827 2.5365 6.1237 2.5365z"/>
</defs>
<g clip-path="url(#a)" fill="#ffffff" stroke="#ffffff">
<use x="73.69697" y="814.545455" xlink:href="#b"/>
<use x="81.593074" y="814.545455" xlink:href="#b"/>
<use x="92.121212" y="814.545455" xlink:href="#b"/>
<use x="105.281385" y="814.545455" xlink:href="#b"/>
<use x="121.073593" y="814.545455" xlink:href="#b"/>
<use x="139.497835" y="814.545455" xlink:href="#b"/>
<use x="160.554113" y="814.545455" xlink:href="#b"/>
<use x="184.242424" y="814.545455" xlink:href="#b"/>
<use x="210.562771" y="814.545455" xlink:href="#b"/>
<use x="239.515152" y="814.545455" xlink:href="#b"/>
<use x="276.363636" y="814.545455" xlink:href="#b"/>
<use x="310.580087" y="814.545455" xlink:href="#b"/>
<use x="347.428571" y="814.545455" xlink:href="#b"/>
<use x="386.909091" y="814.545455" xlink:href="#b"/>
<use x="429.021645" y="814.545455" xlink:href="#b"/>
<use x="473.766234" y="814.545455" xlink:href="#b"/>
<use x="521.142857" y="814.545455" xlink:href="#b"/>
<use x="571.151515" y="814.545455" xlink:href="#b"/>
<use x="623.792208" y="814.545455" xlink:href="#b"/>
<use x="679.064935" y="814.545455" xlink:href="#b"/>
<use x="736.969697" y="814.545455" xlink:href="#b"/>
<use x="797.506494" y="814.545455" xlink:href="#b"/>
<use x="860.675325" y="814.545455" xlink:href="#b"/>
<use x="926.47619" y="814.545455" xlink:href="#b"/>
<use x="994.909091" y="814.545455" xlink:href="#b"/>
<use x="1065.974026" y="814.545455" xlink:href="#b"/>
<use x="1139.670996" y="814.545455" xlink:href="#b"/>
<use x="1216" y="814.545455" xlink:href="#b"/>
<use x="1294.961039" y="814.545455" xlink:href="#b"/>
<use x="1376.554113" y="814.545455" xlink:href="#b"/>
<use x="1460.779221" y="814.545455" xlink:href="#b"/>
<use x="1547.636364" y="814.545455" xlink:href="#b"/>
<use x="244.779221" y="719.571365" xlink:href="#b"/>
<use x="244.779221" y="719.571365" xlink:href="#b"/>
<use x="1036.94244" y="38.787879" xlink:href="#b"/>
<use x="175.152156" y="136.663366" xlink:href="#b"/>
<use x="1294.961039" y="719.571365" xlink:href="#b"/>
<use x="1461.656566" y="623.276082" xlink:href="#b"/>
<use x="1376.554113" y="719.571365" xlink:href="#b"/>
<use x="1460.779221" y="719.571365" xlink:href="#b"/>
<use x="73.69697" y="719.571365" xlink:href="#b"/>
<use x="81.593074" y="719.571365" xlink:href="#b"/>
<use x="92.121212" y="719.571365" xlink:href="#b"/>
<use x="105.281385" y="719.571365" xlink:href="#b"/>
<use x="577.146705" y="234.398654" xlink:href="#b"/>
<use x="186.874459" y="623.276082" xlink:href="#b"/>
<use x="493.945166" y="331.970428" xlink:href="#b"/>
<use x="797.506494" y="719.571365" xlink:href="#b"/>
<use x="971.220779" y="526.475738" xlink:href="#b"/>
<use x="860.675325" y="719.571365" xlink:href="#b"/>
<use x="926.47619" y="719.571365" xlink:href="#b"/>
<use x="994.909091" y="719.571365" xlink:href="#b"/>
<use x="1102.822511" y="623.276082" xlink:href="#b"/>
<use x="1065.974026" y="719.571365" xlink:href="#b"/>
<use x="1139.670996" y="719.571365" xlink:href="#b"/>
<use x="338.21645" y="429.345941" xlink:href="#b"/>
<use x="407.965368" y="623.276082" xlink:href="#b"/>
<use x="473.766234" y="719.571365" xlink:href="#b"/>
<use x="521.142857" y="719.571365" xlink:href="#b"/>
<use x="571.151515" y="719.571365" xlink:href="#b"/>
<use x="651.428571" y="623.276082" xlink:href="#b"/>
<use x="623.792208" y="719.571365" xlink:href="#b"/>
<use x="679.064935" y="719.571365" xlink:href="#b"/>
<use x="386.909091" y="719.571365" xlink:href="#b"/>
<use x="429.021645" y="719.571365" xlink:href="#b"/>
<use x="329.004329" y="526.475738" xlink:href="#b"/>
<use x="347.428571" y="623.276082" xlink:href="#b"/>
<use x="347.428571" y="719.571365" xlink:href="#b"/>
<use x="310.580087" y="719.571365" xlink:href="#b"/>
<use x="139.497835" y="719.571365" xlink:href="#b"/>
<use x="184.242424" y="719.571365" xlink:href="#b"/>
<use x="239.515152" y="719.571365" xlink:href="#b"/>
<use x="121.073593" y="719.571365" xlink:href="#b"/>
<use x="160.554113" y="719.571365" xlink:href="#b"/>
<use x="210.562771" y="719.571365" xlink:href="#b"/>
<use x="276.363636" y="719.571365" xlink:href="#b"/>
<use x="736.969697" y="719.571365" xlink:href="#b"/>
<use x="1216" y="719.571365" xlink:href="#b"/>
<use x="1547.636364" y="719.571365" xlink:href="#b"/>
</g>
<g clip-path="url(#a)">
<g transform="translate(54.48 817.3) scale(.1 -.1)">
<defs>
<path id="bo" d="m64.984 72.906v-72.906h-9.5625v60.984l-32.328-60.984h-13.281v72.906h9.5781v-60.984l32.312 60.984z"/>
<path id="o" d="m9.0781 54.688h9.0312v-22.312h29.156v22.312h9.0312v-54.688h-9.0312v25.203h-29.156v-25.203h-9.0312z"/>
<path id="p" d="m30.609 48.391q-7.2188 0-11.422-5.6406t-4.2031-15.453 4.1719-15.453q4.1875-5.6406 11.453-5.6406 7.1875 0 11.375 5.6562 4.2031 5.6719 4.2031 15.438 0 9.7188-4.2031 15.406-4.1875 5.6875-11.375 5.6875zm0 7.6094q11.719 0 18.406-7.625 6.7031-7.6094 6.7031-21.078 0-13.422-6.7031-21.078-6.6875-7.6406-18.406-7.6406-11.766 0-18.438 7.6406-6.6562 7.6562-6.6562 21.078 0 13.469 6.6562 21.078 6.6719 7.625 18.438 7.625z"/>
<path id="ap" d="m9.0781 0v54.688h38.578v-7.1719h-29.547v-47.516z"/>
<path id="ao" d="m21.625 7.1719h26.078v40.344h-18.891v-6.8438q0-20.109-5.7656-30.859zm-13.031 0q4.4375 1.9531 6.3906 6.1094 4.7969 10.297 4.7969 31.062v10.344h36.953v-47.516h7.1875v-20.984h-7.1875v13.812h-44.328v-13.812h-7.1875v20.984z"/>
<path id="s" d="m34.281 27.484q-10.891 0-15.094-2.4844t-4.2031-8.5q0-4.7812 3.1562-7.5938 3.1562-2.7969 8.5625-2.7969 7.4844 0 12 5.2969t4.5156 14.078v2zm17.922 3.7188v-31.203h-8.9844v8.2969q-3.0781-4.9688-7.6719-7.3438t-11.234-2.375q-8.3906 0-13.359 4.7188-4.9531 4.7188-4.9531 12.625 0 9.2188 6.1719 13.906 6.1875 4.6875 18.438 4.6875h12.609v0.89062q0 6.2031-4.0781 9.5938t-11.453 3.3906q-4.6875 0-9.1406-1.125-4.4375-1.125-8.5312-3.375v8.3125q4.9219 1.9062 9.5625 2.8438 4.6406 0.95312 9.0312 0.95312 11.875 0 17.734-6.1562 5.8594-6.1406 5.8594-18.641z"/>
</defs>
<use xlink:href="#bo"/>
<use x="74.804688" xlink:href="#o"/>
<use x="140.185547" xlink:href="#p"/>
<use x="201.367188" xlink:href="#ap"/>
<use x="253.90625" xlink:href="#ao"/>
<use x="323.046875" xlink:href="#s"/>
</g>
</g>
<g clip-path="url(#a)">
<g transform="translate(78.585 817.3) scale(.1 -.1)">
<defs>
<path id="au" d="m18.453 38.922q0-4.0625 3.125-6.3594 3.125-2.2812 8.9375-2.2812h12.109v17.234h-12.109q-5.8125 0-8.9375-2.25t-3.125-6.3438zm-12.781-38.922 16.688 23.969q-5.6562 1.2812-9.4219 4.625-3.75 3.3438-3.75 10.328 0 7.9062 5.2344 11.828 5.25 3.9375 15.859 3.9375h21.375v-54.688h-9.0312v23.094h-11.172l-16.125-23.094z"/>
</defs>
<use xlink:href="#au"/>
</g>
</g>
<g clip-path="url(#a)">
<g transform="translate(73.045 817.3) scale(.1 -.1)">
<defs>
<path id="aq" d="m18.062 25.203v-18.031h12.797q6.1562 0 9.375 2.3125 3.2188 2.3281 3.2188 6.7344 0 4.3906-3.2188 6.6875t-9.375 2.2969zm0 22.312v-15.141h11.828q5.0781 0 8.2969 2.0156 3.2188 2.0312 3.2188 5.6562 0 3.6094-3.2188 5.5312-3.2188 1.9375-8.2969 1.9375zm-8.9844 7.1719h21.391q9.625 0 14.797-3.5156t5.1719-10.016q0-5.0156-2.6406-7.9844-2.625-2.9531-7.8125-3.6719 6.2031-1.1719 9.625-4.8906 3.4219-3.7031 3.4219-9.2812 0-7.3125-5.6406-11.328-5.6406-4-16.094-4h-22.219z"/>
<path id="af" d="m18.109 8.2031v-29h-9.0312v75.484h9.0312v-8.2969q2.8438 4.875 7.1562 7.2344 4.3281 2.375 10.328 2.375 9.9688 0 16.188-7.9062 6.2344-7.9062 6.2344-20.797t-6.2344-20.812q-6.2188-7.9062-16.188-7.9062-6 0-10.328 2.375-4.3125 2.375-7.1562 7.25zm30.578 19.094q0 9.9062-4.0781 15.547t-11.203 5.6406q-7.1406 0-11.219-5.6406t-4.0781-15.547 4.0781-15.547 11.219-5.6406q7.125 0 11.203 5.6406t4.0781 15.547z"/>
<path id="bh" d="m53.609 48.391q-7.2188 0-11.422-5.6406t-4.2031-15.453 4.1719-15.453q4.1875-5.6406 11.453-5.6406 7.1875 0 11.375 5.6562 4.2031 5.6719 4.2031 15.438 0 9.7188-4.2031 15.406-4.1875 5.6875-11.375 5.6875zm-24.797-15.531q0.92188 9.2812 7 16.203 6.0781 6.9375 17.797 6.9375t18.406-7.625q6.7031-7.6094 6.7031-21.078 0-13.422-6.7031-21.078-6.6875-7.6406-18.406-7.6406-11.766 0-18.188 7.375t-6.8594 19.484h-10.156v-25.438h-8.9844v54.688h8.9844v-21.828z"/>
</defs>
<use xlink:href="#ap"/>
<use x="52.539062" xlink:href="#p"/>
<use x="113.720703" xlink:href="#aq"/>
<use x="172.65625" xlink:href="#p"/>
<use x="233.837891" xlink:href="#af"/>
<use x="297.314453" xlink:href="#bh"/>
</g>
</g>
<g clip-path="url(#a)">
<g transform="translate(93.295 817.3) scale(.1 -.1)">
<defs>
<path id="aa" d="m48.781 52.594v-8.4062q-3.8125 2.1094-7.6406 3.1562t-7.7344 1.0469q-8.75 0-13.594-5.5469-4.8281-5.5312-4.8281-15.547t4.8281-15.562q4.8438-5.5312 13.594-5.5312 3.9062 0 7.7344 1.0469t7.6406 3.1562v-8.3125q-3.7656-1.75-7.7969-2.625-4.0156-0.89062-8.5625-0.89062-12.359 0-19.641 7.7656-7.2656 7.7656-7.2656 20.953 0 13.375 7.3438 21.031 7.3594 7.6719 20.156 7.6719 4.1406 0 8.0938-0.85938 3.9531-0.84375 7.6719-2.5469z"/>
<path id="t" d="m56.203 29.594v-4.3906h-41.312q0.59375-9.2812 5.5938-14.141t13.938-4.8594q5.1719 0 10.031 1.2656t9.6562 3.8125v-8.5q-4.8438-2.0469-9.9219-3.125t-10.297-1.0781q-13.094 0-20.734 7.6094-7.6406 7.625-7.6406 20.625 0 13.422 7.25 21.297 7.25 7.8906 19.562 7.8906 11.031 0 17.453-7.1094 6.4219-7.0938 6.4219-19.297zm-8.9844 2.6406q-0.09375 7.3594-4.125 11.75-4.0312 4.4062-10.672 4.4062-7.5156 0-12.031-4.25t-5.2031-11.969z"/>
<path id="bd" d="m31.109 56q11.719 0 18.406-7.625 6.6875-7.6094 6.6875-21.078 0-13.422-6.6875-21.078-6.6875-7.6406-18.406-7.6406-11.766 0-18.266 7.4219t-6.8438 21.297l-0.28125 11.188q-0.25 5.7969-0.25 7.8125 0 7.8125 2.8281 13.562 4.4531 9.0312 12.141 12.938t20.578 4.0156q5.9531 0.046875 8.5938 0.875l2.4844-7.125q-2.3906-0.98438-4.5781-1.0312l-12.219-0.82812q-6.1406-0.4375-9.8594-2.5938-9.7188-5.7031-10.641-13.172l-0.34375-2.7344q6.3438 5.7969 16.656 5.7969zm0-7.6094q-7.2344 0-11.438-5.6406-4.1875-5.6406-4.1875-15.453t4.1719-15.453 11.453-5.6406q7.1719 0 11.375 5.6562 4.2031 5.6719 4.2031 15.438 0 9.7188-4.2031 15.406t-11.375 5.6875z"/>
</defs>
<use xlink:href="#aa"/>
<use x="54.980469" xlink:href="#t"/>
<use x="116.503906" xlink:href="#bd"/>
<use x="178.173828" xlink:href="#t"/>
</g>
</g>
<g clip-path="url(#a)">
<g transform="translate(119.39 817.3) scale(.1 -.1)">
<defs>
<path id="be" d="m11.719 12.406h10.297v-12.406h-10.297zm0 39.297h10.297v-12.391h-10.297z"/>
</defs>
<use xlink:href="#be"/>
</g>
</g>
<g clip-path="url(#a)">
<g transform="translate(130.24 817.3) scale(.1 -.1)">
<defs>
<path id="z" d="m2.9375 54.688h52.391v-7.1719h-21.781v-47.516h-8.8438v47.516h-21.766z"/>
</defs>
<use xlink:href="#o"/>
<use x="65.380859" xlink:href="#t"/>
<use x="126.904297" xlink:href="#z"/>
</g>
</g>
<g clip-path="url(#a)">
<g transform="translate(158.97 817.3) scale(.1 -.1)">
<defs>
<path id="at" d="m11.719 12.406h10.297v-8.4062l-8-15.625h-6.2969l4 15.625z"/>
</defs>
<use xlink:href="#at"/>
</g>
</g>
<g clip-path="url(#a)">
<g transform="translate(162.54 817.3) scale(.1 -.1)">
<defs>
<path id="w" d="m9.0781 54.688h8.9375v-25.688l25.344 25.688h11.031l-20.891-21.141 23.578-33.547h-10.062l-19.375 27.594-9.625-9.7656v-17.828h-8.9375z"/>
<path id="an" d="m41.016 0v23h-16.75q-7.4688 0-12.453 4.6406-4.4844 4.2031-4.4844 13.188v13.859h8.9844v-13.031q0-5.7188 2.5312-8.5938 2.5938-2.8906 7.6719-2.8906h14.5v24.516h8.9844v-54.688z"/>
</defs>
<use xlink:href="#w"/>
<use x="60.400391" xlink:href="#p"/>
<use x="121.582031" xlink:href="#o"/>
<use x="186.962891" xlink:href="#t"/>
<use x="248.486328" xlink:href="#an"/>
<use x="307.568359" xlink:href="#o"/>
<use x="372.949219" xlink:href="#p"/>
</g>
</g>
<g clip-path="url(#a)">
<g transform="translate(208.97 817.3) scale(.1 -.1)">
<use xlink:href="#at"/>
</g>
</g>
<g clip-path="url(#a)">
<g transform="translate(230.26 817.3) scale(.1 -.1)">
<use xlink:href="#o"/>
<use x="65.380859" xlink:href="#t"/>
<use x="126.904297" xlink:href="#z"/>
</g>
</g>
<g clip-path="url(#a)">
<g transform="translate(274.36 817.3) scale(.1 -.1)">
<defs>
<path id="bf" d="m15.094 12.406h9.9062v-12.406h-9.9062zm0 60.5h9.9062v-31.984l-0.96875-17.438h-7.9219l-1.0156 17.438z"/>
</defs>
<use xlink:href="#bf"/>
</g>
</g>
<g clip-path="url(#a)">
<g transform="translate(281.19 817.3) scale(.1 -.1)">
<defs>
<path id="bn" d="m9.8125 72.906h14.703l18.594-49.609 18.703 49.609h14.703v-72.906h-9.625v64.016l-18.797-50h-9.9062l-18.797 50v-64.016h-9.5781z"/>
<path id="ag" d="m3.7188 0v7.4688q8.875 1.375 11.609 7.5156 3.3281 8.6562 3.3281 30.766v8.9375h36.953v-54.688h-8.9844v47.516h-18.984v-5.4219q0-21.094-4.2969-30.562-4.5938-10.109-19.625-11.531z"/>
<path id="av" d="m43.453 16.219q0 4.3906-3.2031 6.6875-3.1875 2.2969-9.3438 2.2969h-12.797v-18.031h12.797q6.1562 0 9.3438 2.3125 3.2031 2.3281 3.2031 6.7344zm-34.375 38.469h9.0312v-22.312h13.188q10.453 0 16.094-3.9844 5.6406-3.9688 5.6406-12.172t-5.6406-12.219q-5.6406-4-16.094-4h-22.219z"/>
<path id="ah" d="m55.906 54.688v-54.688h-8.9375v43.891l-26.359-43.891h-11.531v54.688h8.9375v-43.797l26.328 43.797z"/>
<path id="bl" d="m55.906 54.688v-54.688h-8.9375v43.891l-26.359-43.891h-11.531v54.688h8.9375v-43.797l26.328 43.797zm-38.688 20.828h5.7656q0.53125-3.6562 2.8906-5.5 2.375-1.8281 6.625-1.8281 4.2031 0 6.5469 1.8125t2.9688 5.5156h5.7656q-0.48438-6.9844-4.3438-10.5t-10.938-3.5156-10.938 3.5156-4.3438 10.5z"/>
</defs>
<use xlink:href="#bn"/>
<use x="86.279297" xlink:href="#s"/>
<use x="147.558594" xlink:href="#ag"/>
<use x="211.474609" xlink:href="#t"/>
<use x="272.998047" xlink:href="#o"/>
<use x="338.378906" xlink:href="#av"/>
<use x="397.314453" xlink:href="#w"/>
<use x="457.714844" xlink:href="#ah"/>
<use x="522.705078" xlink:href="#bl"/>
</g>
</g>
<g clip-path="url(#a)">
<g transform="translate(331.06 817.3) scale(.1 -.1)">
<defs>
<path id="bb" d="m56.297 54.688v-54.688h-9.0312v47.516h-29.156v-47.516h-9.0312v54.688z"/>
<path id="bj" d="m56.297 0h-47.219v54.688h9.0312v-47.516h29.156v47.516h9.0312v-47.516h7.1875v-20.984h-7.1875z"/>
</defs>
<use xlink:href="#bb"/>
<use x="65.380859" xlink:href="#af"/>
<use x="128.857422" xlink:href="#ah"/>
<use x="193.847656" xlink:href="#o"/>
<use x="259.228516" xlink:href="#bj"/>
</g>
</g>
<g clip-path="url(#a)">
<g transform="translate(380.58 817.3) scale(.1 -.1)">
<use xlink:href="#o"/>
<use x="65.380859" xlink:href="#s"/>
</g>
</g>
<g clip-path="url(#a)">
<g transform="translate(416.79 817.3) scale(.1 -.1)">
<use xlink:href="#o"/>
<use x="65.380859" xlink:href="#p"/>
<use x="126.5625" xlink:href="#an"/>
<use x="185.644531" xlink:href="#av"/>
</g>
</g>
<g clip-path="url(#a)">
<g transform="translate(455.85 817.3) scale(.1 -.1)">
<use xlink:href="#aq"/>
<use x="58.935547" xlink:href="#aa"/>
<use x="113.916016" xlink:href="#t"/>
<use x="175.439453" xlink:href="#ap"/>
<use x="227.978516" xlink:href="#ao"/>
<use x="297.119141" xlink:href="#s"/>
</g>
</g>
<g clip-path="url(#a)">
<g transform="translate(492.67 817.3) scale(.1 -.1)">
<defs>
<path id="ba" d="m61.047 54.688h8.9844v-54.688h-8.9844zm4.5 1.3125m-22.094-39.781q0 4.3906-3.2031 6.6875-3.1875 2.2969-9.3438 2.2969h-12.797v-18.031h12.797q6.1562 0 9.3438 2.3125 3.2031 2.3281 3.2031 6.7344zm-34.375 38.469h9.0312v-22.312h13.188q10.453 0 16.094-3.9844 5.6406-3.9688 5.6406-12.172t-5.6406-12.219q-5.6406-4-16.094-4h-22.219z"/>
</defs>
<use xlink:href="#o"/>
<use x="65.380859" xlink:href="#s"/>
<use x="126.660156" xlink:href="#w"/>
<use x="187.060547" xlink:href="#af"/>
<use x="250.537109" xlink:href="#ba"/>
<use x="329.492188" xlink:href="#aq"/>
<use x="388.427734" xlink:href="#s"/>
<use x="449.707031" xlink:href="#t"/>
<use x="511.230469" xlink:href="#z"/>
</g>
</g>
<g clip-path="url(#a)">
<g transform="translate(559.3 817.3) scale(.1 -.1)">
<defs>
<path id="bc" d="m34.469 29.5q6.0625-1.1719 9.4219-4.75 3.375-3.5625 3.375-8.8281 0-8.4531-6.2969-12.906-6.2969-4.4375-17.922-4.4375-3.9062 0-8.0312 0.6875t-8.5156 2.0469v8.3594q3.4688-1.8125 7.6094-2.7188 4.1562-0.89062 8.6875-0.89062 7.375 0 11.5 2.7344t4.125 7.125q0 4.2969-3.6562 6.9062t-10.344 2.6094h-7.2344v7.4219h7.5625q5.6719 0 8.9688 2.1719t3.2969 5.5938q0 3.125-3.4062 5.375-3.3906 2.25-9.1875 2.25-3.4688 0-7.4062-0.64062-3.9219-0.64062-8.6719-2.0469v8.1562q4.7969 1.1719 8.9375 1.75 4.1562 0.59375 7.8594 0.59375 9.5781 0 15.109-3.8438 5.5469-3.8281 5.5469-10.719 0-4.5312-2.9375-7.6875-2.9219-3.1406-8.3906-4.3125z"/>
<path id="bk" d="m32.172-5.0781q-3.7969-9.7656-7.4219-12.734-3.6094-2.9844-9.6562-2.9844h-7.1875v7.5156h5.2812q3.7031 0 5.75 1.7656 2.0625 1.75 4.5469 8.2969l1.6094 4.0938-22.109 53.812h9.5156l17.094-42.766 17.094 42.766h9.5156z"/>
</defs>
<use xlink:href="#af"/>
<use x="63.476562" xlink:href="#p"/>
<use x="124.658203" xlink:href="#bc"/>
<use x="177.832031" xlink:href="#bk"/>
</g>
</g>
<g clip-path="url(#a)">
<g transform="translate(591.57 817.3) scale(.1 -.1)">
<defs>
<path id="aw" d="m9.0781 54.688h13.141l15.531-36.625 15.578 36.625h13.031v-54.688h-9.0312v46.094l-15.094-35.594h-8.9844l-15.141 35.594v-46.094h-9.0312z"/>
</defs>
<use xlink:href="#aa"/>
<use x="54.980469" xlink:href="#z"/>
<use x="113.232422" xlink:href="#t"/>
<use x="174.755859" xlink:href="#w"/>
<use x="235.15625" xlink:href="#ag"/>
<use x="299.072266" xlink:href="#au"/>
<use x="359.228516" xlink:href="#o"/>
<use x="424.609375" xlink:href="#o"/>
<use x="489.990234" xlink:href="#ba"/>
<use x="568.945312" xlink:href="#aw"/>
</g>
</g>
<g clip-path="url(#a)">
<g transform="translate(653.6 817.3) scale(.1 -.1)">
<use xlink:href="#w"/>
<use x="60.400391" xlink:href="#p"/>
<use x="121.582031" xlink:href="#ag"/>
<use x="185.498047" xlink:href="#bb"/>
<use x="250.878906" xlink:href="#s"/>
<use x="312.158203" xlink:href="#w"/>
<use x="372.558594" xlink:href="#p"/>
<use x="433.740234" xlink:href="#aw"/>
</g>
</g>
<g clip-path="url(#a)">
<g transform="translate(735.38 817.3) scale(.1 -.1)">
<use xlink:href="#at"/>
</g>
</g>
<g clip-path="url(#a)">
<g transform="translate(794.26 817.3) scale(.1 -.1)">
<use xlink:href="#ah"/>
</g>
</g>
<g clip-path="url(#a)">
<g transform="translate(854.35 817.3) scale(.1 -.1)">
<use xlink:href="#p"/>
<use x="61.181641" xlink:href="#o"/>
</g>
</g>
<g clip-path="url(#a)">
<g transform="translate(911.17 817.3) scale(.1 -.1)">
<use xlink:href="#p"/>
<use x="61.181641" xlink:href="#an"/>
<use x="120.263672" xlink:href="#t"/>
<use x="181.787109" xlink:href="#o"/>
<use x="247.167969" xlink:href="#av"/>
</g>
</g>
<g clip-path="url(#a)">
<g transform="translate(976.27 817.3) scale(.1 -.1)">
<use xlink:href="#aa"/>
<use x="54.980469" xlink:href="#ag"/>
<use x="118.896484" xlink:href="#t"/>
<use x="180.419922" xlink:href="#ao"/>
<use x="249.560547" xlink:href="#ah"/>
<use x="314.550781" xlink:href="#z"/>
</g>
</g>
<g clip-path="url(#a)">
<g transform="translate(1060.3 817.3) scale(.1 -.1)">
<use xlink:href="#bc"/>
<use x="53.173828" xlink:href="#s"/>
</g>
</g>
<g clip-path="url(#a)">
<g transform="translate(1112.9 817.39) scale(.1 -.1)">
<defs>
<path id="bi" d="m50.25 7.1719h23.141v47.516h9.0312v-54.688h-73.344v54.688h9.0312v-47.516h23.109v47.516h9.0312z"/>
</defs>
<use xlink:href="#bd"/>
<use x="61.669922" xlink:href="#s"/>
<use x="122.949219" xlink:href="#af"/>
<use x="186.425781" xlink:href="#s"/>
<use x="247.705078" xlink:href="#bi"/>
<use x="339.208984" xlink:href="#w"/>
<use x="399.609375" xlink:href="#p"/>
<use x="460.791016" xlink:href="#aw"/>
</g>
</g>
<g clip-path="url(#a)">
<g transform="translate(1211.2 817.3) scale(.1 -.1)">
<defs>
<path id="d" d="m10.688 12.406h10.312v-12.406h-10.312z"/>
</defs>
<use xlink:href="#d"/>
<use x="31.787109" xlink:href="#d"/>
<use x="63.574219" xlink:href="#d"/>
</g>
</g>
<g clip-path="url(#a)">
<g transform="translate(1279.7 817.3) scale(.1 -.1)">
<defs>
<path id="bm" d="m-0.29688 72.906h61.672v-8.3125h-25.875v-64.594h-9.9062v64.594h-25.891z"/>
</defs>
<use xlink:href="#bm"/>
<use x="61.083984" xlink:href="#p"/>
<use x="122.265625" xlink:href="#ap"/>
<use x="174.804688" xlink:href="#ao"/>
<use x="243.945312" xlink:href="#s"/>
</g>
</g>
<g clip-path="url(#a)">
<g transform="translate(1373.5 817.3) scale(.1 -.1)">
<use xlink:href="#au"/>
</g>
</g>
<g clip-path="url(#a)">
<g transform="translate(1437 817.3) scale(.1 -.1)">
<use xlink:href="#aa"/>
<use x="54.980469" xlink:href="#an"/>
<use x="114.0625" xlink:href="#s"/>
<use x="175.341797" xlink:href="#aa"/>
<use x="230.322266" xlink:href="#z"/>
<use x="288.574219" xlink:href="#ag"/>
<use x="352.490234" xlink:href="#ah"/>
<use x="417.480469" xlink:href="#aq"/>
</g>
</g>
<g clip-path="url(#a)">
<g transform="translate(1546 817.3) scale(.1 -.1)">
<use xlink:href="#d"/>
</g>
</g>
<g clip-path="url(#a)">
<g transform="translate(223.69 722.33) scale(.1 -.1)">
<defs>
<path id="x" d="m9.8125 72.906h9.8594v-72.906h-9.8594z"/>
<path id="ay" d="m9.8125 72.906h14.703l18.594-49.609 18.703 49.609h14.703v-72.906h-9.625v64.016l-18.797-50h-9.9062l-18.797 50v-64.016h-9.5781z"/>
</defs>
<use xlink:href="#x"/>
<use x="29.492188" xlink:href="#ay"/>
<use x="115.771484" xlink:href="#ab"/>
<use x="176.074219" xlink:href="#aj"/>
<use x="231.787109" xlink:href="#x"/>
<use x="261.279297" xlink:href="#y"/>
<use x="331.103516" xlink:href="#x"/>
<use x="360.595703" xlink:href="#e"/>
</g>
</g>
<g clip-path="url(#a)">
<g transform="translate(223.69 722.33) scale(.1 -.1)">
<use xlink:href="#x"/>
<use x="29.492188" xlink:href="#ay"/>
<use x="115.771484" xlink:href="#ab"/>
<use x="176.074219" xlink:href="#aj"/>
<use x="231.787109" xlink:href="#x"/>
<use x="261.279297" xlink:href="#y"/>
<use x="331.103516" xlink:href="#x"/>
<use x="360.595703" xlink:href="#e"/>
</g>
</g>
<g clip-path="url(#a)">
<g transform="translate(1029 41.547) scale(.1 -.1)">
<defs>
<path id="c" d="m12.406 8.2969h16.109v55.625l-17.531-3.5156v8.9844l17.438 3.5156h9.8594v-64.609h16.109v-8.2969h-41.984z"/>
</defs>
<use xlink:href="#c"/>
<use x="63.623047" xlink:href="#d"/>
<use x="95.410156" xlink:href="#c"/>
</g>
</g>
<g clip-path="url(#a)">
<g transform="translate(167.2 139.42) scale(.1 -.1)">
<defs>
<path id="n" d="m19.188 8.2969h34.422v-8.2969h-46.281v8.2969q5.6094 5.8125 15.297 15.594 9.7031 9.7969 12.188 12.641 4.7344 5.3125 6.6094 9 1.8906 3.6875 1.8906 7.25 0 5.8125-4.0781 9.4688-4.0781 3.6719-10.625 3.6719-4.6406 0-9.7969-1.6094-5.1406-1.6094-11-4.8906v9.9688q5.9531 2.3906 11.125 3.6094 5.1875 1.2188 9.4844 1.2188 11.328 0 18.062-5.6719 6.7344-5.6562 6.7344-15.125 0-4.5-1.6875-8.5312-1.6719-4.0156-6.125-9.4844-1.2188-1.4219-7.7656-8.1875-6.5312-6.7656-18.453-18.922z"/>
</defs>
<use xlink:href="#c"/>
<use x="63.623047" xlink:href="#d"/>
<use x="95.410156" xlink:href="#n"/>
</g>
</g>
<g clip-path="url(#a)">
<g transform="translate(1287 722.33) scale(.1 -.1)">
<defs>
<path id="m" d="m40.578 39.312q7.0781-1.5156 11.047-6.3125 3.9844-4.7812 3.9844-11.812 0-10.781-7.4219-16.703-7.4219-5.9062-21.094-5.9062-4.5781 0-9.4375 0.90625t-10.031 2.7188v9.5156q4.0938-2.3906 8.9688-3.6094 4.8906-1.2188 10.219-1.2188 9.2656 0 14.125 3.6562t4.8594 10.641q0 6.4531-4.5156 10.078-4.5156 3.6406-12.562 3.6406h-8.5v8.1094h8.8906q7.2656 0 11.125 2.9062t3.8594 8.375q0 5.6094-3.9844 8.6094-3.9688 3.0156-11.391 3.0156-4.0625 0-8.7031-0.89062-4.6406-0.875-10.203-2.7188v8.7812q5.625 1.5625 10.531 2.3438t9.25 0.78125q11.234 0 17.766-5.1094 6.5469-5.0938 6.5469-13.781 0-6.0625-3.4688-10.234t-9.8594-5.7812z"/>
</defs>
<use xlink:href="#c"/>
<use x="63.623047" xlink:href="#d"/>
<use x="95.410156" xlink:href="#m"/>
</g>
</g>
<g clip-path="url(#a)">
<g transform="translate(1453.7 626.04) scale(.1 -.1)">
<defs>
<path id="r" d="m37.797 64.312-24.906-38.922h24.906zm-2.5938 8.5938h12.406v-47.516h10.406v-8.2031h-10.406v-17.188h-9.8125v17.188h-32.906v9.5156z"/>
</defs>
<use xlink:href="#c"/>
<use x="63.623047" xlink:href="#d"/>
<use x="95.410156" xlink:href="#r"/>
</g>
</g>
<g clip-path="url(#a)">
<g transform="translate(1368.6 722.33) scale(.1 -.1)">
<defs>
<path id="ae" d="m8.2031 72.906h46.875v-4.2031l-26.469-68.703h-10.297l24.906 64.594h-35.016z"/>
</defs>
<use xlink:href="#c"/>
<use x="63.623047" xlink:href="#d"/>
<use x="95.410156" xlink:href="#ae"/>
</g>
</g>
<g clip-path="url(#a)">
<g transform="translate(1452.8 722.33) scale(.1 -.1)">
<defs>
<path id="ad" d="m31.781 34.625q-7.0312 0-11.062-3.7656-4.0156-3.7656-4.0156-10.344 0-6.5938 4.0156-10.359 4.0312-3.7656 11.062-3.7656t11.078 3.7812q4.0625 3.7969 4.0625 10.344 0 6.5781-4.0312 10.344-4.0156 3.7656-11.109 3.7656zm-9.8594 4.1875q-6.3438 1.5625-9.8906 5.9062-3.5312 4.3594-3.5312 10.609 0 8.7344 6.2188 13.812 6.2344 5.0781 17.062 5.0781 10.891 0 17.094-5.0781t6.2031-13.812q0-6.25-3.5469-10.609-3.5312-4.3438-9.8281-5.9062 7.125-1.6562 11.094-6.5 3.9844-4.8281 3.9844-11.797 0-10.609-6.4688-16.281-6.4688-5.6562-18.531-5.6562-12.047 0-18.531 5.6562-6.4688 5.6719-6.4688 16.281 0 6.9688 4 11.797 4.0156 4.8438 11.141 6.5zm-3.6094 15.578q0-5.6562 3.5312-8.8281 3.5469-3.1719 9.9375-3.1719 6.3594 0 9.9375 3.1719 3.5938 3.1719 3.5938 8.8281 0 5.6719-3.5938 8.8438-3.5781 3.1719-9.9375 3.1719-6.3906 0-9.9375-3.1719-3.5312-3.1719-3.5312-8.8438z"/>
</defs>
<use xlink:href="#c"/>
<use x="63.623047" xlink:href="#d"/>
<use x="95.410156" xlink:href="#ad"/>
</g>
</g>
<g clip-path="url(#a)">
<g transform="translate(65.745 722.33) scale(.1 -.1)">
<defs>
<path id="ak" d="m10.984 1.5156v8.9844q3.7188-1.7656 7.5156-2.6875 3.8125-0.92188 7.4844-0.92188 9.7656 0 14.906 6.5625 5.1562 6.5625 5.8906 19.953-2.8281-4.2031-7.1875-6.4531-4.3438-2.25-9.6094-2.25-10.938 0-17.312 6.6094-6.375 6.625-6.375 18.109 0 11.219 6.6406 18 6.6406 6.7969 17.672 6.7969 12.656 0 19.312-9.7031 6.6719-9.6875 6.6719-28.141 0-17.234-8.1875-27.516-8.1719-10.281-21.984-10.281-3.7188 0-7.5312 0.73438-3.7969 0.73438-7.9062 2.2031zm19.625 30.906q6.6406 0 10.516 4.5312 3.8906 4.5469 3.8906 12.469 0 7.8594-3.8906 12.422-3.875 4.5625-10.516 4.5625t-10.516-4.5625-3.875-12.422q0-7.9219 3.875-12.469 3.875-4.5312 10.516-4.5312z"/>
</defs>
<use xlink:href="#c"/>
<use x="63.623047" xlink:href="#d"/>
<use x="95.410156" xlink:href="#ak"/>
</g>
</g>
<g clip-path="url(#a)">
<g transform="translate(70.46 722.33) scale(.1 -.1)">
<defs>
<path id="am" d="m31.781 66.406q-7.6094 0-11.453-7.5-3.8281-7.4844-3.8281-22.531 0-14.984 3.8281-22.484 3.8438-7.5 11.453-7.5 7.6719 0 11.5 7.5 3.8438 7.5 3.8438 22.484 0 15.047-3.8438 22.531-3.8281 7.5-11.5 7.5zm0 7.8125q12.266 0 18.734-9.7031 6.4688-9.6875 6.4688-28.141 0-18.406-6.4688-28.109-6.4688-9.6875-18.734-9.6875-12.25 0-18.719 9.6875-6.4688 9.7031-6.4688 28.109 0 18.453 6.4688 28.141 6.4688 9.7031 18.719 9.7031z"/>
</defs>
<use xlink:href="#c"/>
<use x="63.623047" xlink:href="#d"/>
<use x="95.410156" xlink:href="#c"/>
<use x="159.033203" xlink:href="#am"/>
</g>
</g>
<g clip-path="url(#a)">
<g transform="translate(80.988 722.33) scale(.1 -.1)">
<use xlink:href="#c"/>
<use x="63.623047" xlink:href="#d"/>
<use x="95.410156" xlink:href="#c"/>
<use x="159.033203" xlink:href="#c"/>
</g>
</g>
<g clip-path="url(#a)">
<g transform="translate(94.149 722.33) scale(.1 -.1)">
<use xlink:href="#c"/>
<use x="63.623047" xlink:href="#d"/>
<use x="95.410156" xlink:href="#c"/>
<use x="159.033203" xlink:href="#n"/>
</g>
</g>
<g clip-path="url(#a)">
<g transform="translate(566.01 237.16) scale(.1 -.1)">
<use xlink:href="#c"/>
<use x="63.623047" xlink:href="#d"/>
<use x="95.410156" xlink:href="#c"/>
<use x="159.033203" xlink:href="#m"/>
</g>
</g>
<g clip-path="url(#a)">
<g transform="translate(175.74 626.04) scale(.1 -.1)">
<defs>
<path id="v" d="m10.797 72.906h38.719v-8.3125h-29.688v-17.859q2.1406 0.73438 4.2812 1.0938 2.1562 0.35938 4.3125 0.35938 12.203 0 19.328-6.6875 7.1406-6.6875 7.1406-18.109 0-11.766-7.3281-18.297-7.3281-6.5156-20.656-6.5156-4.5938 0-9.3594 0.78125-4.75 0.78125-9.8281 2.3438v9.9219q4.3906-2.3906 9.0781-3.5625t9.9062-1.1719q8.4531 0 13.375 4.4375 4.9375 4.4375 4.9375 12.062 0 7.6094-4.9375 12.047-4.9219 4.4531-13.375 4.4531-3.9531 0-7.8906-0.875-3.9219-0.875-8.0156-2.7344z"/>
</defs>
<use xlink:href="#c"/>
<use x="63.623047" xlink:href="#d"/>
<use x="95.410156" xlink:href="#c"/>
<use x="159.033203" xlink:href="#v"/>
</g>
</g>
<g clip-path="url(#a)">
<g transform="translate(482.81 334.73) scale(.1 -.1)">
<defs>
<path id="al" d="m33.016 40.375q-6.6406 0-10.531-4.5469-3.875-4.5312-3.875-12.438 0-7.8594 3.875-12.438 3.8906-4.5625 10.531-4.5625t10.516 4.5625q3.875 4.5781 3.875 12.438 0 7.9062-3.875 12.438-3.875 4.5469-10.516 4.5469zm19.578 30.922v-8.9844q-3.7188 1.75-7.5 2.6719-3.7812 0.9375-7.5 0.9375-9.7656 0-14.922-6.5938-5.1406-6.5938-5.875-19.922 2.875 4.25 7.2188 6.5156 4.3594 2.2656 9.5781 2.2656 10.984 0 17.359-6.6719 6.375-6.6562 6.375-18.125 0-11.234-6.6406-18.031-6.6406-6.7812-17.672-6.7812-12.656 0-19.344 9.6875-6.6875 9.7031-6.6875 28.109 0 17.281 8.2031 27.562t22.016 10.281q3.7188 0 7.5-0.73438t7.8906-2.1875z"/>
</defs>
<use xlink:href="#c"/>
<use x="63.623047" xlink:href="#d"/>
<use x="95.410156" xlink:href="#c"/>
<use x="159.033203" xlink:href="#al"/>
</g>
</g>
<g clip-path="url(#a)">
<g transform="translate(786.37 722.33) scale(.1 -.1)">
<use xlink:href="#c"/>
<use x="63.623047" xlink:href="#d"/>
<use x="95.410156" xlink:href="#c"/>
<use x="159.033203" xlink:href="#ae"/>
</g>
</g>
<g clip-path="url(#a)">
<g transform="translate(960.09 529.24) scale(.1 -.1)">
<use xlink:href="#c"/>
<use x="63.623047" xlink:href="#d"/>
<use x="95.410156" xlink:href="#c"/>
<use x="159.033203" xlink:href="#ad"/>
</g>
</g>
<g clip-path="url(#a)">
<g transform="translate(849.54 722.33) scale(.1 -.1)">
<use xlink:href="#c"/>
<use x="63.623047" xlink:href="#d"/>
<use x="95.410156" xlink:href="#n"/>
<use x="159.033203" xlink:href="#c"/>
</g>
</g>
<g clip-path="url(#a)">
<g transform="translate(915.34 722.33) scale(.1 -.1)">
<use xlink:href="#c"/>
<use x="63.623047" xlink:href="#d"/>
<use x="95.410156" xlink:href="#n"/>
<use x="159.033203" xlink:href="#n"/>
</g>
</g>
<g clip-path="url(#a)">
<g transform="translate(983.78 722.33) scale(.1 -.1)">
<use xlink:href="#c"/>
<use x="63.623047" xlink:href="#d"/>
<use x="95.410156" xlink:href="#n"/>
<use x="159.033203" xlink:href="#m"/>
</g>
</g>
<g clip-path="url(#a)">
<g transform="translate(1091.7 626.04) scale(.1 -.1)">
<use xlink:href="#c"/>
<use x="63.623047" xlink:href="#d"/>
<use x="95.410156" xlink:href="#n"/>
<use x="159.033203" xlink:href="#r"/>
</g>
</g>
<g clip-path="url(#a)">
<g transform="translate(1054.8 722.33) scale(.1 -.1)">
<use xlink:href="#c"/>
<use x="63.623047" xlink:href="#d"/>
<use x="95.410156" xlink:href="#n"/>
<use x="159.033203" xlink:href="#v"/>
</g>
</g>
<g clip-path="url(#a)">
<g transform="translate(1128.5 722.33) scale(.1 -.1)">
<use xlink:href="#c"/>
<use x="63.623047" xlink:href="#d"/>
<use x="95.410156" xlink:href="#n"/>
<use x="159.033203" xlink:href="#al"/>
</g>
</g>
<g clip-path="url(#a)">
<g transform="translate(327.08 432.11) scale(.1 -.1)">
<use xlink:href="#c"/>
<use x="63.623047" xlink:href="#d"/>
<use x="95.410156" xlink:href="#n"/>
<use x="159.033203" xlink:href="#ae"/>
</g>
</g>
<g clip-path="url(#a)">
<g transform="translate(396.83 626.04) scale(.1 -.1)">
<use xlink:href="#c"/>
<use x="63.623047" xlink:href="#d"/>
<use x="95.410156" xlink:href="#n"/>
<use x="159.033203" xlink:href="#ad"/>
</g>
</g>
<g clip-path="url(#a)">
<g transform="translate(462.63 722.33) scale(.1 -.1)">
<use xlink:href="#c"/>
<use x="63.623047" xlink:href="#d"/>
<use x="95.410156" xlink:href="#n"/>
<use x="159.033203" xlink:href="#ak"/>
</g>
</g>
<g clip-path="url(#a)">
<g transform="translate(510.01 722.33) scale(.1 -.1)">
<use xlink:href="#c"/>
<use x="63.623047" xlink:href="#d"/>
<use x="95.410156" xlink:href="#m"/>
<use x="159.033203" xlink:href="#am"/>
</g>
</g>
<g clip-path="url(#a)">
<g transform="translate(560.02 722.33) scale(.1 -.1)">
<use xlink:href="#c"/>
<use x="63.623047" xlink:href="#d"/>
<use x="95.410156" xlink:href="#m"/>
<use x="159.033203" xlink:href="#c"/>
</g>
</g>
<g clip-path="url(#a)">
<g transform="translate(640.3 626.04) scale(.1 -.1)">
<use xlink:href="#c"/>
<use x="63.623047" xlink:href="#d"/>
<use x="95.410156" xlink:href="#m"/>
<use x="159.033203" xlink:href="#n"/>
</g>
</g>
<g clip-path="url(#a)">
<g transform="translate(612.66 722.33) scale(.1 -.1)">
<use xlink:href="#c"/>
<use x="63.623047" xlink:href="#d"/>
<use x="95.410156" xlink:href="#m"/>
<use x="159.033203" xlink:href="#m"/>
</g>
</g>
<g clip-path="url(#a)">
<g transform="translate(667.93 722.33) scale(.1 -.1)">
<use xlink:href="#c"/>
<use x="63.623047" xlink:href="#d"/>
<use x="95.410156" xlink:href="#m"/>
<use x="159.033203" xlink:href="#r"/>
</g>
</g>
<g clip-path="url(#a)">
<g transform="translate(375.78 722.33) scale(.1 -.1)">
<use xlink:href="#c"/>
<use x="63.623047" xlink:href="#d"/>
<use x="95.410156" xlink:href="#m"/>
<use x="159.033203" xlink:href="#v"/>
</g>
</g>
<g clip-path="url(#a)">
<g transform="translate(417.89 722.33) scale(.1 -.1)">
<use xlink:href="#c"/>
<use x="63.623047" xlink:href="#d"/>
<use x="95.410156" xlink:href="#m"/>
<use x="159.033203" xlink:href="#al"/>
</g>
</g>
<g clip-path="url(#a)">
<g transform="translate(317.87 529.24) scale(.1 -.1)">
<use xlink:href="#c"/>
<use x="63.623047" xlink:href="#d"/>
<use x="95.410156" xlink:href="#m"/>
<use x="159.033203" xlink:href="#ae"/>
</g>
</g>
<g clip-path="url(#a)">
<g transform="translate(336.3 626.04) scale(.1 -.1)">
<use xlink:href="#c"/>
<use x="63.623047" xlink:href="#d"/>
<use x="95.410156" xlink:href="#m"/>
<use x="159.033203" xlink:href="#ad"/>
</g>
</g>
<g clip-path="url(#a)">
<g transform="translate(336.3 722.33) scale(.1 -.1)">
<use xlink:href="#c"/>
<use x="63.623047" xlink:href="#d"/>
<use x="95.410156" xlink:href="#m"/>
<use x="159.033203" xlink:href="#ak"/>
</g>
</g>
<g clip-path="url(#a)">
<g transform="translate(299.45 722.33) scale(.1 -.1)">
<use xlink:href="#c"/>
<use x="63.623047" xlink:href="#d"/>
<use x="95.410156" xlink:href="#r"/>
<use x="159.033203" xlink:href="#am"/>
</g>
</g>
<g clip-path="url(#a)">
<g transform="translate(128.37 722.33) scale(.1 -.1)">
<use xlink:href="#c"/>
<use x="63.623047" xlink:href="#d"/>
<use x="95.410156" xlink:href="#r"/>
<use x="159.033203" xlink:href="#m"/>
</g>
</g>
<g clip-path="url(#a)">
<g transform="translate(173.11 722.33) scale(.1 -.1)">
<use xlink:href="#c"/>
<use x="63.623047" xlink:href="#d"/>
<use x="95.410156" xlink:href="#r"/>
<use x="159.033203" xlink:href="#r"/>
</g>
</g>
<g clip-path="url(#a)">
<g transform="translate(228.38 722.33) scale(.1 -.1)">
<use xlink:href="#c"/>
<use x="63.623047" xlink:href="#d"/>
<use x="95.410156" xlink:href="#r"/>
<use x="159.033203" xlink:href="#v"/>
</g>
</g>
<g clip-path="url(#a)">
<g transform="translate(109.94 722.33) scale(.1 -.1)">
<use xlink:href="#c"/>
<use x="63.623047" xlink:href="#d"/>
<use x="95.410156" xlink:href="#r"/>
<use x="159.033203" xlink:href="#al"/>
</g>
</g>
<g clip-path="url(#a)">
<g transform="translate(149.42 722.33) scale(.1 -.1)">
<use xlink:href="#c"/>
<use x="63.623047" xlink:href="#d"/>
<use x="95.410156" xlink:href="#r"/>
<use x="159.033203" xlink:href="#ae"/>
</g>
</g>
<g clip-path="url(#a)">
<g transform="translate(199.43 722.33) scale(.1 -.1)">
<use xlink:href="#c"/>
<use x="63.623047" xlink:href="#d"/>
<use x="95.410156" xlink:href="#r"/>
<use x="159.033203" xlink:href="#ad"/>
</g>
</g>
<g clip-path="url(#a)">
<g transform="translate(265.23 722.33) scale(.1 -.1)">
<use xlink:href="#c"/>
<use x="63.623047" xlink:href="#d"/>
<use x="95.410156" xlink:href="#r"/>
<use x="159.033203" xlink:href="#ak"/>
</g>
</g>
<g clip-path="url(#a)">
<g transform="translate(725.84 722.33) scale(.1 -.1)">
<use xlink:href="#c"/>
<use x="63.623047" xlink:href="#d"/>
<use x="95.410156" xlink:href="#v"/>
<use x="159.033203" xlink:href="#am"/>
</g>
</g>
<g clip-path="url(#a)">
<g transform="translate(1204.9 722.33) scale(.1 -.1)">
<use xlink:href="#c"/>
<use x="63.623047" xlink:href="#d"/>
<use x="95.410156" xlink:href="#v"/>
<use x="159.033203" xlink:href="#c"/>
</g>
</g>
<g clip-path="url(#a)">
<g transform="translate(1536.5 722.33) scale(.1 -.1)">
<use xlink:href="#c"/>
<use x="63.623047" xlink:href="#d"/>
<use x="95.410156" xlink:href="#v"/>
<use x="159.033203" xlink:href="#n"/>
</g>
</g>
<defs>
<clipPath id="a">
<rect width="1621.3" height="853.33"/>
</clipPath>
</defs>
</svg>
