<?xml version="1.0" encoding="UTF-8"?>
<!DOCTYPE svg  PUBLIC '-//W3C//DTD SVG 1.1//EN'  'http://www.w3.org/Graphics/SVG/1.1/DTD/svg11.dtd'>
<svg width="912pt" height="480pt" version="1.1" viewBox="0 0 912 480" xmlns="http://www.w3.org/2000/svg" xmlns:xlink="http://www.w3.org/1999/xlink">
<metadata>
<rdf:RDF xmlns:cc="http://creativecommons.org/ns#" xmlns:dc="http://purl.org/dc/elements/1.1/" xmlns:rdf="http://www.w3.org/1999/02/22-rdf-syntax-ns#">
<cc:Work>
<dc:type rdf:resource="http://purl.org/dc/dcmitype/StillImage"/>
<dc:date>2021-02-23T11:05:19.463930</dc:date>
<dc:format>image/svg+xml</dc:format>
<dc:creator>
<cc:Agent>
<dc:title>Matplotlib v3.3.3, https://matplotlib.org/</dc:title>
</cc:Agent>
</dc:creator>
</cc:Work>
</rdf:RDF>
</metadata>
<defs>
<style type="text/css">*{stroke-linecap:butt;stroke-linejoin:round;}</style>
</defs>
<path d="m0 480h912v-480h-912z" fill="#fff"/>
<g fill="none" stroke="#000">
<path d="m265.45 21.818-224 328.77" clip-path="url(#a)"/>
<path d="m265.45 21.818-193.45 110.03" clip-path="url(#a)"/>
<path d="m265.45 21.818-60.364 219.69" clip-path="url(#a)"/>
<path d="m265.45 21.818 81.455 219.69" clip-path="url(#a)"/>
<path d="m265.45 21.818 335.27 110.03" clip-path="url(#a)"/>
<path d="m265.45 21.818-114.91 328.77" clip-path="url(#a)"/>
<path d="m265.45 21.818 7.2727 328.77" clip-path="url(#a)"/>
<path d="m265.45 21.818 168.73 328.77" clip-path="url(#a)"/>
<path d="m41.455 350.59v107.59" clip-path="url(#a)"/>
<path d="m72 131.85-17.455 218.74" clip-path="url(#a)"/>
<path d="m72 131.85v218.74" clip-path="url(#a)"/>
<path d="m72 131.85 17.455 109.66" clip-path="url(#a)"/>
<path d="m205.09 241.51 24 109.09" clip-path="url(#a)"/>
<path d="m205.09 241.51-19.636 109.09" clip-path="url(#a)"/>
<path d="m205.09 241.51 19.636 109.09" clip-path="url(#a)"/>
<path d="m346.91 241.51 30.545 109.09" clip-path="url(#a)"/>
<path d="m346.91 241.51-26.182 109.09" clip-path="url(#a)"/>
<path d="m346.91 241.51 26.182 109.09" clip-path="url(#a)"/>
<path d="m600.73 131.85 269.82 109.66" clip-path="url(#a)"/>
<path d="m600.73 131.85-105.45 218.74" clip-path="url(#a)"/>
<path d="m600.73 131.85-40 218.74" clip-path="url(#a)"/>
<path d="m600.73 131.85 145.45 109.66" clip-path="url(#a)"/>
<path d="m495.27 350.59v107.59" clip-path="url(#a)"/>
<path d="m560.73 350.59v107.59" clip-path="url(#a)"/>
<path d="m746.18 241.51-115.64 109.09" clip-path="url(#a)"/>
<path d="m746.18 241.51-41.455 109.09" clip-path="url(#a)"/>
<path d="m746.18 241.51 37.091 109.09" clip-path="url(#a)"/>
<path d="m746.18 241.51 120 109.09" clip-path="url(#a)"/>
<path d="m630.55 350.59v107.59" clip-path="url(#a)"/>
<path d="m704.73 350.59v107.59" clip-path="url(#a)"/>
<path d="m783.27 350.59v107.59" clip-path="url(#a)"/>
<path d="m320.73 350.59v107.59" clip-path="url(#a)"/>
<path d="m373.09 350.59v107.59" clip-path="url(#a)"/>
<path d="m185.45 350.59v107.59" clip-path="url(#a)"/>
<path d="m224.73 350.59v107.59" clip-path="url(#a)"/>
<path d="m54.545 350.59v107.59" clip-path="url(#a)"/>
<path d="m72 350.59v107.59" clip-path="url(#a)"/>
<path d="m89.455 241.51-34.909 109.09" clip-path="url(#a)" stroke-dasharray="3.7,1.6"/>
<path d="m89.455 241.51 4.3636 109.09" clip-path="url(#a)"/>
<path d="m89.455 241.51 30.545 109.09" clip-path="url(#a)"/>
<path d="m93.818 350.59v107.59" clip-path="url(#a)"/>
<path d="m120 350.59v107.59" clip-path="url(#a)"/>
<path d="m150.55 350.59v107.59" clip-path="url(#a)"/>
<path d="m272.73 350.59v107.59" clip-path="url(#a)"/>
<path d="m434.18 350.59v107.59" clip-path="url(#a)"/>
<path d="m866.18 350.59v107.59" clip-path="url(#a)"/>
</g>
<path d="m157.38 191.58 2.5098-3.6838q1.3513-1.9834-0.63208-3.3347l-6.3986-4.3594q-1.9834-1.3513-3.3347 0.63208l-2.5098 3.6838q-1.3513 1.9834 0.63208 3.3347l6.3986 4.3594q1.9834 1.3513 3.3347-0.63208z" clip-path="url(#a)" fill="#fff" stroke="#fff"/>
<g clip-path="url(#a)">
<g transform="translate(154.02 189.29) rotate(-55.733) scale(.08 -.08)">
<defs>
<path id="y" d="m9.8125 72.906h9.8594v-64.609h35.5v-8.2969h-45.359z"/>
</defs>
<use xlink:href="#y"/>
</g>
</g>
<path d="m169.21 83.772 5.2295-2.9744q2.0862-1.1865 0.89962-3.2727l-3.8279-6.7301q-1.1865-2.0862-3.2727-0.89962l-5.2295 2.9744q-2.0862 1.1866-0.89962 3.2727l3.8279 6.7301q1.1866 2.0862 3.2727 0.89962z" clip-path="url(#a)" fill="#fff" stroke="#fff"/>
<g clip-path="url(#a)">
<g transform="translate(167.2 80.24) rotate(-29.63) scale(.08 -.08)">
<defs>
<path id="z" d="m9.8125 72.906h9.8594v-29.891h35.844v29.891h9.8594v-72.906h-9.8594v34.719h-35.844v-34.719h-9.8594z"/>
</defs>
<use xlink:href="#z"/>
</g>
</g>
<path d="m240.52 136.22 1.594-5.8012q0.63588-2.3142-1.6784-2.9501l-7.4658-2.0514q-2.3142-0.63588-2.9501 1.6784l-1.594 5.8012q-0.63588 2.3142 1.6784 2.9501l7.4658 2.0514q2.3142 0.63588 2.9501-1.6784z" clip-path="url(#a)" fill="#fff" stroke="#fff"/>
<g clip-path="url(#a)">
<g transform="translate(236.6 135.15) rotate(-74.636) scale(.08 -.08)">
<use xlink:href="#z"/>
</g>
</g>
<path d="m299.26 131.02 2.0915 5.641q0.83435 2.2503 3.0847 1.416l7.2596-2.6916q2.2503-0.83435 1.416-3.0847l-2.0915-5.641q-0.83435-2.2503-3.0847-1.416l-7.2596 2.6916q-2.2503 0.83435-1.416 3.0847z" clip-path="url(#a)" fill="#fff" stroke="#fff"/>
<g clip-path="url(#a)">
<g transform="translate(303.07 129.61) rotate(69.657) scale(.08 -.08)">
<use xlink:href="#z"/>
</g>
</g>
<path d="m428.28 81.854 5.7163 1.876q2.2803 0.74837 3.0287-1.532l2.4143-7.3565q0.74837-2.2803-1.532-3.0287l-5.7163-1.876q-2.2803-0.74837-3.0287 1.532l-2.4143 7.3565q-0.74837 2.2803 1.532 3.0287z" clip-path="url(#a)" fill="#fff" stroke="#fff"/>
<g clip-path="url(#a)">
<g transform="translate(429.54 77.993) rotate(18.169) scale(.08 -.08)">
<use xlink:href="#z"/>
</g>
</g>
<path d="m212.95 191.04 1.9318-5.5271q0.79185-2.2656-1.4738-3.0575l-7.3089-2.5545q-2.2656-0.79185-3.0575 1.4738l-1.9318 5.5271q-0.79185 2.2656 1.4738 3.0575l7.3089 2.5545q2.2656 0.79185 3.0575-1.4738z" clip-path="url(#a)" fill="#fff" stroke="#fff"/>
<g clip-path="url(#a)">
<g transform="translate(209.12 189.7) rotate(-70.735) scale(.08 -.08)">
<defs>
<path id="x" d="m8.6875 72.906h9.9219v-44.297q0-11.719 4.2344-16.875 4.25-5.1406 13.781-5.1406 9.4688 0 13.719 5.1406 4.25 5.1562 4.25 16.875v44.297h9.9062v-45.516q0-14.25-7.0625-21.531-7.0469-7.2812-20.812-7.2812-13.828 0-20.891 7.2812-7.0469 7.2812-7.0469 21.531z"/>
</defs>
<use xlink:href="#x"/>
</g>
</g>
<path d="m262.76 183.42 0.12948 5.8536q0.053077 2.3994 2.4525 2.3463l7.7406-0.17123q2.3994-0.053077 2.3463-2.4525l-0.12948-5.8536q-0.053077-2.3994-2.4525-2.3463l-7.7406 0.17123q-2.3994 0.053076-2.3463 2.4525z" clip-path="url(#a)" fill="#fff" stroke="#fff"/>
<g clip-path="url(#a)">
<g transform="translate(266.82 183.33) rotate(88.733) scale(.08 -.08)">
<use xlink:href="#x"/>
</g>
</g>
<path d="m342.9 186.46 2.6733 5.2091q1.0958 2.1352 3.231 1.0394l6.8883-3.5351q2.1352-1.0958 1.0394-3.231l-2.6733-5.2091q-1.0958-2.1352-3.231-1.0394l-6.8883 3.5351q-2.1352 1.0958-1.0394 3.231z" clip-path="url(#a)" fill="#fff" stroke="#fff"/>
<g clip-path="url(#a)">
<g transform="translate(346.52 184.61) rotate(62.833) scale(.08 -.08)">
<use xlink:href="#x"/>
</g>
</g>
<path d="m35.183 387.48v33.808q0 2.4 2.4 2.4h7.7425q2.4 0 2.4-2.4v-33.808q0-2.4-2.4-2.4h-7.7425q-2.4 0-2.4 2.4z" clip-path="url(#a)" fill="#fff" stroke="#fff"/>
<g clip-path="url(#a)">
<g transform="translate(39.247 387.48) rotate(90) scale(.08 -.08)">
<defs>
<path id="e" d="m-0.29688 72.906h61.672v-8.3125h-25.875v-64.594h-9.9062v64.594h-25.891z"/>
<path id="l" d="m56.203 29.594v-4.3906h-41.312q0.59375-9.2812 5.5938-14.141t13.938-4.8594q5.1719 0 10.031 1.2656t9.6562 3.8125v-8.5q-4.8438-2.0469-9.9219-3.125t-10.297-1.0781q-13.094 0-20.734 7.6094-7.6406 7.625-7.6406 20.625 0 13.422 7.25 21.297 7.25 7.8906 19.562 7.8906 11.031 0 17.453-7.1094 6.4219-7.0938 6.4219-19.297zm-8.9844 2.6406q-0.09375 7.3594-4.125 11.75-4.0312 4.4062-10.672 4.4062-7.5156 0-12.031-4.25t-5.2031-11.969z"/>
<path id="g" d="m41.109 46.297q-1.5156 0.875-3.2969 1.2812-1.7812 0.42188-3.9219 0.42188-7.625 0-11.703-4.9531t-4.0781-14.234v-28.812h-9.0312v54.688h9.0312v-8.5q2.8438 4.9844 7.375 7.3906 4.5469 2.4219 11.047 2.4219 0.92188 0 2.0469-0.125 1.125-0.10938 2.4844-0.35938z"/>
<path id="i" d="m52 44.188q3.375 6.0625 8.0625 8.9375t11.031 2.875q8.5469 0 13.188-5.9844 4.6406-5.9688 4.6406-17v-33.016h-9.0312v32.719q0 7.8594-2.7969 11.656-2.7812 3.8125-8.4844 3.8125-6.9844 0-11.047-4.6406-4.0469-4.625-4.0469-12.641v-30.906h-9.0312v32.719q0 7.9062-2.7812 11.688t-8.5938 3.7812q-6.8906 0-10.953-4.6562-4.0469-4.6562-4.0469-12.625v-30.906h-9.0312v54.688h9.0312v-8.5q3.0781 5.0312 7.375 7.4219t10.203 2.3906q5.9688 0 10.141-3.0312 4.1719-3.0156 6.1719-8.7812z"/>
<path id="k" d="m9.4219 54.688h8.9844v-54.688h-8.9844zm0 21.297h8.9844v-11.391h-8.9844z"/>
<path id="h" d="m54.891 33.016v-33.016h-8.9844v32.719q0 7.7656-3.0312 11.609-3.0312 3.8594-9.0781 3.8594-7.2812 0-11.484-4.6406-4.2031-4.625-4.2031-12.641v-30.906h-9.0312v54.688h9.0312v-8.5q3.2344 4.9375 7.5938 7.375 4.375 2.4375 10.094 2.4375 9.4219 0 14.25-5.8281 4.8438-5.8281 4.8438-17.156z"/>
<path id="f" d="m34.281 27.484q-10.891 0-15.094-2.4844t-4.2031-8.5q0-4.7812 3.1562-7.5938 3.1562-2.7969 8.5625-2.7969 7.4844 0 12 5.2969t4.5156 14.078v2zm17.922 3.7188v-31.203h-8.9844v8.2969q-3.0781-4.9688-7.6719-7.3438t-11.234-2.375q-8.3906 0-13.359 4.7188-4.9531 4.7188-4.9531 12.625 0 9.2188 6.1719 13.906 6.1875 4.6875 18.438 4.6875h12.609v0.89062q0 6.2031-4.0781 9.5938t-11.453 3.3906q-4.6875 0-9.1406-1.125-4.4375-1.125-8.5312-3.375v8.3125q4.9219 1.9062 9.5625 2.8438 4.6406 0.95312 9.0312 0.95312 11.875 0 17.734-6.1562 5.8594-6.1406 5.8594-18.641z"/>
<path id="j" d="m9.4219 75.984h8.9844v-75.984h-8.9844z"/>
</defs>
<use xlink:href="#e"/>
<use x="44.083984" xlink:href="#l"/>
<use x="105.607422" xlink:href="#g"/>
<use x="144.970703" xlink:href="#i"/>
<use x="242.382812" xlink:href="#k"/>
<use x="270.166016" xlink:href="#h"/>
<use x="333.544922" xlink:href="#f"/>
<use x="394.824219" xlink:href="#j"/>
</g>
</g>
<path d="m69.306 244.45 0.43529-5.4552q0.1909-2.3924-2.2015-2.5833l-7.718-0.61585q-2.3924-0.1909-2.5833 2.2015l-0.43529 5.4552q-0.1909 2.3924 2.2015 2.5833l7.718 0.61585q2.3924 0.1909 2.5833-2.2015z" clip-path="url(#a)" fill="#fff" stroke="#fff"/>
<g clip-path="url(#a)">
<g transform="translate(65.256 244.12) rotate(-85.438) scale(.08 -.08)">
<defs>
<path id="o" d="m34.188 63.188-13.391-36.281h26.812zm-5.5781 9.7188h11.188l27.781-72.906h-10.25l-6.6406 18.703h-32.859l-6.6406-18.703h-10.406z"/>
</defs>
<use xlink:href="#o"/>
</g>
</g>
<path d="m65.729 238.81v4.8238q0 2.4 2.4 2.4h7.7425q2.4 0 2.4-2.4v-4.8238q0-2.4-2.4-2.4h-7.7425q-2.4 0-2.4 2.4z" clip-path="url(#a)" fill="#fff" stroke="#fff"/>
<g clip-path="url(#a)">
<g transform="translate(69.792 238.81) rotate(90) scale(.08 -.08)">
<defs>
<path id="p" d="m19.672 64.797v-27.391h12.406q6.8906 0 10.641 3.5625 3.7656 3.5625 3.7656 10.156 0 6.5469-3.7656 10.109-3.75 3.5625-10.641 3.5625zm-9.8594 8.1094h22.266q12.266 0 18.531-5.5469 6.2812-5.5469 6.2812-16.234 0-10.797-6.2812-16.312-6.2656-5.5156-18.531-5.5156h-12.406v-29.297h-9.8594z"/>
</defs>
<use xlink:href="#p"/>
</g>
</g>
<path d="m74.104 184.96 0.86024 5.4045q0.37727 2.3702 2.7474 1.9929l7.6462-1.2171q2.3702-0.37726 1.9929-2.7474l-0.86024-5.4045q-0.37726-2.3702-2.7474-1.9929l-7.6462 1.2171q-2.3702 0.37727-1.9929 2.7474z" clip-path="url(#a)" fill="#fff" stroke="#fff"/>
<g clip-path="url(#a)">
<g transform="translate(78.117 184.32) rotate(80.956) scale(.08 -.08)">
<use xlink:href="#o"/>
</g>
</g>
<path d="m210.38 294.73 1.1759 5.3447q0.51569 2.3439 2.8596 1.8282l7.5617-1.6636q2.3439-0.51569 1.8282-2.8596l-1.1759-5.3447q-0.51569-2.3439-2.8596-1.8282l-7.5617 1.6636q-2.3439 0.51569-1.8282 2.8596z" clip-path="url(#a)" fill="#fff" stroke="#fff"/>
<g clip-path="url(#a)">
<g transform="translate(214.35 293.85) rotate(77.592) scale(.08 -.08)">
<use xlink:href="#o"/>
</g>
</g>
<path d="m201.02 299.53 0.85458-4.7474q0.42519-2.362-1.9368-2.7872l-7.62-1.3717q-2.362-0.42519-2.7872 1.9368l-0.85458 4.7474q-0.42519 2.362 1.9368 2.7872l7.62 1.3717q2.362 0.42519 2.7872-1.9368z" clip-path="url(#a)" fill="#fff" stroke="#fff"/>
<g clip-path="url(#a)">
<g transform="translate(197.02 298.81) rotate(-79.796) scale(.08 -.08)">
<use xlink:href="#p"/>
</g>
</g>
<path d="m208.25 294.47 0.96952 5.3859q0.42519 2.362 2.7872 1.9368l7.62-1.3717q2.362-0.42519 1.9368-2.7872l-0.96952-5.3859q-0.42519-2.362-2.7872-1.9368l-7.62 1.3717q-2.362 0.42519-1.9368 2.7872z" clip-path="url(#a)" fill="#fff" stroke="#fff"/>
<g clip-path="url(#a)">
<g transform="translate(212.25 293.75) rotate(79.796) scale(.08 -.08)">
<use xlink:href="#o"/>
</g>
</g>
<path d="m355.41 295.11 1.4756 5.2698q0.64714 2.3111 2.9582 1.664l7.4557-2.0877q2.3111-0.64714 1.664-2.9582l-1.4756-5.2698q-0.64714-2.3111-2.9582-1.664l-7.4557 2.0877q-2.3111 0.64714-1.664 2.9582z" clip-path="url(#a)" fill="#fff" stroke="#fff"/>
<g clip-path="url(#a)">
<g transform="translate(359.32 294.01) rotate(74.357) scale(.08 -.08)">
<use xlink:href="#o"/>
</g>
</g>
<path d="m339.2 300.51 1.4376-5.9899q0.56012-2.3337-1.7736-2.8938l-7.5287-1.807q-2.3337-0.56012-2.8938 1.7736l-1.4376 5.9899q-0.56012 2.3337 1.7736 2.8938l7.5287 1.807q2.3337 0.56012 2.8938-1.7736z" clip-path="url(#a)" fill="#fff" stroke="#fff"/>
<g clip-path="url(#a)">
<g transform="translate(335.25 299.56) rotate(-76.504) scale(.08 -.08)">
<defs>
<path id="an" d="m19.672 64.797v-56.688h11.922q15.094 0 22.094 6.8281 7 6.8438 7 21.594 0 14.641-7 21.453t-22.094 6.8125zm-9.8594 8.1094h20.266q21.188 0 31.094-8.8125 9.9219-8.8125 9.9219-27.562 0-18.859-9.9688-27.703-9.9531-8.8281-31.047-8.8281h-20.266z"/>
</defs>
<use xlink:href="#an"/>
</g>
</g>
<path d="m353.34 295.17 1.1258 4.6905q0.56012 2.3337 2.8938 1.7736l7.5287-1.807q2.3337-0.56012 1.7736-2.8938l-1.1258-4.6905q-0.56012-2.3337-2.8938-1.7736l-7.5287 1.807q-2.3337 0.56012-1.7736 2.8938z" clip-path="url(#a)" fill="#fff" stroke="#fff"/>
<g clip-path="url(#a)">
<g transform="translate(357.29 294.22) rotate(76.504) scale(.08 -.08)">
<use xlink:href="#p"/>
</g>
</g>
<path d="m730.74 191.46 5.0698 2.0604q2.2234 0.90362 3.127-1.3198l2.9151-7.1728q0.90362-2.2234-1.3198-3.127l-5.0698-2.0604q-2.2234-0.90362-3.127 1.3198l-2.9151 7.1728q-0.90362 2.2234 1.3198 3.127z" clip-path="url(#a)" fill="#fff" stroke="#fff"/>
<g clip-path="url(#a)">
<g transform="translate(732.27 187.69) rotate(22.118) scale(.08 -.08)">
<use xlink:href="#o"/>
</g>
</g>
<path d="m552.6 246.12 2.0948-4.3452q1.0422-2.1619-1.1197-3.2041l-6.9743-3.3623q-2.1619-1.0422-3.2041 1.1197l-2.0948 4.3452q-1.0422 2.1619 1.1197 3.2041l6.9743 3.3623q2.1619 1.0422 3.2041-1.1197z" clip-path="url(#a)" fill="#fff" stroke="#fff"/>
<g clip-path="url(#a)">
<g transform="translate(548.94 244.35) rotate(-64.262) scale(.08 -.08)">
<use xlink:href="#p"/>
</g>
</g>
<path d="m586.34 245.38 1.1081-6.0595q0.43171-2.3609-1.9291-2.7926l-7.6162-1.3927q-2.3609-0.43171-2.7926 1.9291l-1.1081 6.0595q-0.43171 2.3609 1.9291 2.7926l7.6162 1.3927q2.3609 0.43171 2.7926-1.9291z" clip-path="url(#a)" fill="#fff" stroke="#fff"/>
<g clip-path="url(#a)">
<g transform="translate(582.34 244.65) rotate(-79.637) scale(.08 -.08)">
<use xlink:href="#an"/>
</g>
</g>
<path d="m667.49 190.04 4.3698 3.2944q1.9164 1.4448 3.3612-0.47163l4.6609-6.1824q1.4448-1.9164-0.47163-3.3612l-4.3698-3.2944q-1.9164-1.4448-3.3612 0.47163l-4.6609 6.1824q-1.4448 1.9164 0.47163 3.3612z" clip-path="url(#a)" fill="#fff" stroke="#fff"/>
<g clip-path="url(#a)">
<g transform="translate(669.94 186.79) rotate(37.013) scale(.08 -.08)">
<use xlink:href="#o"/>
</g>
</g>
<path d="m489 387.48v33.808q0 2.4 2.4 2.4h7.7425q2.4 0 2.4-2.4v-33.808q0-2.4-2.4-2.4h-7.7425q-2.4 0-2.4 2.4z" clip-path="url(#a)" fill="#fff" stroke="#fff"/>
<g clip-path="url(#a)">
<g transform="translate(493.07 387.48) rotate(90) scale(.08 -.08)">
<use xlink:href="#e"/>
<use x="44.083984" xlink:href="#l"/>
<use x="105.607422" xlink:href="#g"/>
<use x="144.970703" xlink:href="#i"/>
<use x="242.382812" xlink:href="#k"/>
<use x="270.166016" xlink:href="#h"/>
<use x="333.544922" xlink:href="#f"/>
<use x="394.824219" xlink:href="#j"/>
</g>
</g>
<path d="m554.46 387.48v33.808q0 2.4 2.4 2.4h7.7425q2.4 0 2.4-2.4v-33.808q0-2.4-2.4-2.4h-7.7425q-2.4 0-2.4 2.4z" clip-path="url(#a)" fill="#fff" stroke="#fff"/>
<g clip-path="url(#a)">
<g transform="translate(558.52 387.48) rotate(90) scale(.08 -.08)">
<use xlink:href="#e"/>
<use x="44.083984" xlink:href="#l"/>
<use x="105.607422" xlink:href="#g"/>
<use x="144.970703" xlink:href="#i"/>
<use x="242.382812" xlink:href="#k"/>
<use x="270.166016" xlink:href="#h"/>
<use x="333.544922" xlink:href="#f"/>
<use x="394.824219" xlink:href="#j"/>
</g>
</g>
<path d="m690.65 302.52 4.0435-3.8144q1.7458-1.6469 0.098896-3.3927l-5.3129-5.632q-1.6469-1.7458-3.3927-0.098897l-4.0435 3.8144q-1.7458 1.6469-0.098897 3.3927l5.3129 5.632q1.6469 1.7458 3.3927 0.098897z" clip-path="url(#a)" fill="#fff" stroke="#fff"/>
<g clip-path="url(#a)">
<g transform="translate(687.86 299.56) rotate(-43.33) scale(.08 -.08)">
<defs>
<path id="at" d="m44.391 34.188q3.1719-1.0781 6.1719-4.5938t6.0312-9.6719l10.016-19.922h-10.609l-9.3125 18.703q-3.625 7.3281-7.0156 9.7188t-9.25 2.3906h-10.75v-30.812h-9.8594v72.906h22.266q12.5 0 18.656-5.2344 6.1562-5.2188 6.1562-15.766 0-6.8906-3.2031-11.438-3.2031-4.5312-9.2969-6.2812zm-24.719 30.609v-25.875h12.406q7.125 0 10.766 3.2969t3.6406 9.6875-3.6406 9.6406-10.766 3.25z"/>
</defs>
<use xlink:href="#at"/>
</g>
</g>
<path d="m730.42 300.64 1.7957-4.7253q0.85256-2.2435-1.3909-3.096l-7.2375-2.7504q-2.2435-0.85256-3.096 1.3909l-1.7957 4.7253q-0.85256 2.2435 1.3909 3.096l7.2375 2.7504q2.2435 0.85256 3.096-1.3909z" clip-path="url(#a)" fill="#fff" stroke="#fff"/>
<g clip-path="url(#a)">
<g transform="translate(726.62 299.2) rotate(-69.192) scale(.08 -.08)">
<defs>
<path id="au" d="m9.8125 72.906h46.094v-8.3125h-36.234v-21.578h34.719v-8.2969h-34.719v-26.422h37.109v-8.2969h-46.969z"/>
</defs>
<use xlink:href="#au"/>
</g>
</g>
<path d="m757.89 295.42 1.7983 5.2889q0.7726 2.2722 3.0448 1.4996l7.3304-2.4924q2.2722-0.7726 1.4996-3.0448l-1.7983-5.2889q-0.7726-2.2722-3.0448-1.4996l-7.3304 2.4924q-2.2722 0.7726-1.4996 3.0448z" clip-path="url(#a)" fill="#fff" stroke="#fff"/>
<g clip-path="url(#a)">
<g transform="translate(761.74 294.12) rotate(71.221) scale(.08 -.08)">
<defs>
<path id="aa" d="m64.406 67.281v-10.391q-4.9844 4.6406-10.625 6.9219-5.6406 2.2969-11.984 2.2969-12.5 0-19.141-7.6406t-6.6406-22.094q0-14.406 6.6406-22.047t19.141-7.6406q6.3438 0 11.984 2.2969t10.625 6.9375v-10.312q-5.1719-3.5156-10.969-5.2812-5.7812-1.75-12.219-1.75-16.562 0-26.094 10.125-9.5156 10.141-9.5156 27.672 0 17.578 9.5156 27.703 9.5312 10.141 26.094 10.141 6.5312 0 12.312-1.7344 5.7969-1.7344 10.875-5.2031z"/>
</defs>
<use xlink:href="#aa"/>
</g>
</g>
<path d="m799.8 298.72 4.3324 3.9384q1.7759 1.6144 3.3903-0.16152l5.208-5.7291q1.6144-1.7759-0.16152-3.3903l-4.3324-3.9384q-1.7759-1.6144-3.3903 0.16152l-5.208 5.7291q-1.6144 1.7759 0.16152 3.3903z" clip-path="url(#a)" fill="#fff" stroke="#fff"/>
<g clip-path="url(#a)">
<g transform="translate(802.53 295.71) rotate(42.272) scale(.08 -.08)">
<use xlink:href="#x"/>
</g>
</g>
<path d="m624.27 387.48v33.808q0 2.4 2.4 2.4h7.7425q2.4 0 2.4-2.4v-33.808q0-2.4-2.4-2.4h-7.7425q-2.4 0-2.4 2.4z" clip-path="url(#a)" fill="#fff" stroke="#fff"/>
<g clip-path="url(#a)">
<g transform="translate(628.34 387.48) rotate(90) scale(.08 -.08)">
<use xlink:href="#e"/>
<use x="44.083984" xlink:href="#l"/>
<use x="105.607422" xlink:href="#g"/>
<use x="144.970703" xlink:href="#i"/>
<use x="242.382812" xlink:href="#k"/>
<use x="270.166016" xlink:href="#h"/>
<use x="333.544922" xlink:href="#f"/>
<use x="394.824219" xlink:href="#j"/>
</g>
</g>
<path d="m698.46 387.48v33.808q0 2.4 2.4 2.4h7.7425q2.4 0 2.4-2.4v-33.808q0-2.4-2.4-2.4h-7.7425q-2.4 0-2.4 2.4z" clip-path="url(#a)" fill="#fff" stroke="#fff"/>
<g clip-path="url(#a)">
<g transform="translate(702.52 387.48) rotate(90) scale(.08 -.08)">
<use xlink:href="#e"/>
<use x="44.083984" xlink:href="#l"/>
<use x="105.607422" xlink:href="#g"/>
<use x="144.970703" xlink:href="#i"/>
<use x="242.382812" xlink:href="#k"/>
<use x="270.166016" xlink:href="#h"/>
<use x="333.544922" xlink:href="#f"/>
<use x="394.824219" xlink:href="#j"/>
</g>
</g>
<path d="m777 387.48v33.808q0 2.4 2.4 2.4h7.7425q2.4 0 2.4-2.4v-33.808q0-2.4-2.4-2.4h-7.7425q-2.4 0-2.4 2.4z" clip-path="url(#a)" fill="#fff" stroke="#fff"/>
<g clip-path="url(#a)">
<g transform="translate(781.07 387.48) rotate(90) scale(.08 -.08)">
<use xlink:href="#e"/>
<use x="44.083984" xlink:href="#l"/>
<use x="105.607422" xlink:href="#g"/>
<use x="144.970703" xlink:href="#i"/>
<use x="242.382812" xlink:href="#k"/>
<use x="270.166016" xlink:href="#h"/>
<use x="333.544922" xlink:href="#f"/>
<use x="394.824219" xlink:href="#j"/>
</g>
</g>
<path d="m314.46 387.48v33.808q0 2.4 2.4 2.4h7.7425q2.4 0 2.4-2.4v-33.808q0-2.4-2.4-2.4h-7.7425q-2.4 0-2.4 2.4z" clip-path="url(#a)" fill="#fff" stroke="#fff"/>
<g clip-path="url(#a)">
<g transform="translate(318.52 387.48) rotate(90) scale(.08 -.08)">
<use xlink:href="#e"/>
<use x="44.083984" xlink:href="#l"/>
<use x="105.607422" xlink:href="#g"/>
<use x="144.970703" xlink:href="#i"/>
<use x="242.382812" xlink:href="#k"/>
<use x="270.166016" xlink:href="#h"/>
<use x="333.544922" xlink:href="#f"/>
<use x="394.824219" xlink:href="#j"/>
</g>
</g>
<path d="m366.82 387.48v33.808q0 2.4 2.4 2.4h7.7425q2.4 0 2.4-2.4v-33.808q0-2.4-2.4-2.4h-7.7425q-2.4 0-2.4 2.4z" clip-path="url(#a)" fill="#fff" stroke="#fff"/>
<g clip-path="url(#a)">
<g transform="translate(370.88 387.48) rotate(90) scale(.08 -.08)">
<use xlink:href="#e"/>
<use x="44.083984" xlink:href="#l"/>
<use x="105.607422" xlink:href="#g"/>
<use x="144.970703" xlink:href="#i"/>
<use x="242.382812" xlink:href="#k"/>
<use x="270.166016" xlink:href="#h"/>
<use x="333.544922" xlink:href="#f"/>
<use x="394.824219" xlink:href="#j"/>
</g>
</g>
<path d="m179.18 387.48v33.808q0 2.4 2.4 2.4h7.7425q2.4 0 2.4-2.4v-33.808q0-2.4-2.4-2.4h-7.7425q-2.4 0-2.4 2.4z" clip-path="url(#a)" fill="#fff" stroke="#fff"/>
<g clip-path="url(#a)">
<g transform="translate(183.25 387.48) rotate(90) scale(.08 -.08)">
<use xlink:href="#e"/>
<use x="44.083984" xlink:href="#l"/>
<use x="105.607422" xlink:href="#g"/>
<use x="144.970703" xlink:href="#i"/>
<use x="242.382812" xlink:href="#k"/>
<use x="270.166016" xlink:href="#h"/>
<use x="333.544922" xlink:href="#f"/>
<use x="394.824219" xlink:href="#j"/>
</g>
</g>
<path d="m218.46 387.48v33.808q0 2.4 2.4 2.4h7.7425q2.4 0 2.4-2.4v-33.808q0-2.4-2.4-2.4h-7.7425q-2.4 0-2.4 2.4z" clip-path="url(#a)" fill="#fff" stroke="#fff"/>
<g clip-path="url(#a)">
<g transform="translate(222.52 387.48) rotate(90) scale(.08 -.08)">
<use xlink:href="#e"/>
<use x="44.083984" xlink:href="#l"/>
<use x="105.607422" xlink:href="#g"/>
<use x="144.970703" xlink:href="#i"/>
<use x="242.382812" xlink:href="#k"/>
<use x="270.166016" xlink:href="#h"/>
<use x="333.544922" xlink:href="#f"/>
<use x="394.824219" xlink:href="#j"/>
</g>
</g>
<path d="m48.274 387.48v33.808q0 2.4 2.4 2.4h7.7425q2.4 0 2.4-2.4v-33.808q0-2.4-2.4-2.4h-7.7425q-2.4 0-2.4 2.4z" clip-path="url(#a)" fill="#fff" stroke="#fff"/>
<g clip-path="url(#a)">
<g transform="translate(52.338 387.48) rotate(90) scale(.08 -.08)">
<use xlink:href="#e"/>
<use x="44.083984" xlink:href="#l"/>
<use x="105.607422" xlink:href="#g"/>
<use x="144.970703" xlink:href="#i"/>
<use x="242.382812" xlink:href="#k"/>
<use x="270.166016" xlink:href="#h"/>
<use x="333.544922" xlink:href="#f"/>
<use x="394.824219" xlink:href="#j"/>
</g>
</g>
<path d="m65.729 387.48v33.808q0 2.4 2.4 2.4h7.7425q2.4 0 2.4-2.4v-33.808q0-2.4-2.4-2.4h-7.7425q-2.4 0-2.4 2.4z" clip-path="url(#a)" fill="#fff" stroke="#fff"/>
<g clip-path="url(#a)">
<g transform="translate(69.792 387.48) rotate(90) scale(.08 -.08)">
<use xlink:href="#e"/>
<use x="44.083984" xlink:href="#l"/>
<use x="105.607422" xlink:href="#g"/>
<use x="144.970703" xlink:href="#i"/>
<use x="242.382812" xlink:href="#k"/>
<use x="270.166016" xlink:href="#h"/>
<use x="333.544922" xlink:href="#f"/>
<use x="394.824219" xlink:href="#j"/>
</g>
</g>
<path d="m77.139 300.57 1.668-5.2121q0.73149-2.2858-1.5543-3.0173l-7.3741-2.3598q-2.2858-0.73149-3.0173 1.5543l-1.668 5.2121q-0.73149 2.2858 1.5543 3.0173l7.3741 2.3598q2.2858 0.73149 3.0173-1.5543z" clip-path="url(#a)" fill="#fff" stroke="#fff"/>
<g clip-path="url(#a)">
<g transform="translate(73.268 299.33) rotate(-72.255) scale(.08 -.08)">
<use xlink:href="#o"/>
</g>
</g>
<path d="m85.261 293.57 0.21874 5.4681q0.095928 2.3981 2.494 2.3022l7.7363-0.30947q2.3981-0.095928 2.3022-2.494l-0.21874-5.4681q-0.095927-2.3981-2.494-2.3022l-7.7363 0.30947q-2.3981 0.095928-2.3022 2.494z" clip-path="url(#a)" fill="#fff" stroke="#fff"/>
<g clip-path="url(#a)">
<g transform="translate(89.321 293.4) rotate(87.709) scale(.08 -.08)">
<use xlink:href="#o"/>
</g>
</g>
<path d="m98.038 295.42 1.3007 4.6451q0.64714 2.3111 2.9582 1.664l7.4557-2.0877q2.3111-0.64714 1.664-2.9582l-1.3007-4.6451q-0.64714-2.3111-2.9582-1.664l-7.4557 2.0877q-2.3111 0.64714-1.664 2.9582z" clip-path="url(#a)" fill="#fff" stroke="#fff"/>
<g clip-path="url(#a)">
<g transform="translate(101.95 294.32) rotate(74.357) scale(.08 -.08)">
<use xlink:href="#p"/>
</g>
</g>
<path d="m87.547 387.48v33.808q0 2.4 2.4 2.4h7.7425q2.4 0 2.4-2.4v-33.808q0-2.4-2.4-2.4h-7.7425q-2.4 0-2.4 2.4z" clip-path="url(#a)" fill="#fff" stroke="#fff"/>
<g clip-path="url(#a)">
<g transform="translate(91.611 387.48) rotate(90) scale(.08 -.08)">
<use xlink:href="#e"/>
<use x="44.083984" xlink:href="#l"/>
<use x="105.607422" xlink:href="#g"/>
<use x="144.970703" xlink:href="#i"/>
<use x="242.382812" xlink:href="#k"/>
<use x="270.166016" xlink:href="#h"/>
<use x="333.544922" xlink:href="#f"/>
<use x="394.824219" xlink:href="#j"/>
</g>
</g>
<path d="m113.73 387.48v33.808q0 2.4 2.4 2.4h7.7425q2.4 0 2.4-2.4v-33.808q0-2.4-2.4-2.4h-7.7425q-2.4 0-2.4 2.4z" clip-path="url(#a)" fill="#fff" stroke="#fff"/>
<g clip-path="url(#a)">
<g transform="translate(117.79 387.48) rotate(90) scale(.08 -.08)">
<use xlink:href="#e"/>
<use x="44.083984" xlink:href="#l"/>
<use x="105.607422" xlink:href="#g"/>
<use x="144.970703" xlink:href="#i"/>
<use x="242.382812" xlink:href="#k"/>
<use x="270.166016" xlink:href="#h"/>
<use x="333.544922" xlink:href="#f"/>
<use x="394.824219" xlink:href="#j"/>
</g>
</g>
<path d="m144.27 387.48v33.808q0 2.4 2.4 2.4h7.7425q2.4 0 2.4-2.4v-33.808q0-2.4-2.4-2.4h-7.7425q-2.4 0-2.4 2.4z" clip-path="url(#a)" fill="#fff" stroke="#fff"/>
<g clip-path="url(#a)">
<g transform="translate(148.34 387.48) rotate(90) scale(.08 -.08)">
<use xlink:href="#e"/>
<use x="44.083984" xlink:href="#l"/>
<use x="105.607422" xlink:href="#g"/>
<use x="144.970703" xlink:href="#i"/>
<use x="242.382812" xlink:href="#k"/>
<use x="270.166016" xlink:href="#h"/>
<use x="333.544922" xlink:href="#f"/>
<use x="394.824219" xlink:href="#j"/>
</g>
</g>
<path d="m266.46 387.48v33.808q0 2.4 2.4 2.4h7.7425q2.4 0 2.4-2.4v-33.808q0-2.4-2.4-2.4h-7.7425q-2.4 0-2.4 2.4z" clip-path="url(#a)" fill="#fff" stroke="#fff"/>
<g clip-path="url(#a)">
<g transform="translate(270.52 387.48) rotate(90) scale(.08 -.08)">
<use xlink:href="#e"/>
<use x="44.083984" xlink:href="#l"/>
<use x="105.607422" xlink:href="#g"/>
<use x="144.970703" xlink:href="#i"/>
<use x="242.382812" xlink:href="#k"/>
<use x="270.166016" xlink:href="#h"/>
<use x="333.544922" xlink:href="#f"/>
<use x="394.824219" xlink:href="#j"/>
</g>
</g>
<path d="m427.91 387.48v33.808q0 2.4 2.4 2.4h7.7425q2.4 0 2.4-2.4v-33.808q0-2.4-2.4-2.4h-7.7425q-2.4 0-2.4 2.4z" clip-path="url(#a)" fill="#fff" stroke="#fff"/>
<g clip-path="url(#a)">
<g transform="translate(431.97 387.48) rotate(90) scale(.08 -.08)">
<use xlink:href="#e"/>
<use x="44.083984" xlink:href="#l"/>
<use x="105.607422" xlink:href="#g"/>
<use x="144.970703" xlink:href="#i"/>
<use x="242.382812" xlink:href="#k"/>
<use x="270.166016" xlink:href="#h"/>
<use x="333.544922" xlink:href="#f"/>
<use x="394.824219" xlink:href="#j"/>
</g>
</g>
<path d="m859.91 387.48v33.808q0 2.4 2.4 2.4h7.7425q2.4 0 2.4-2.4v-33.808q0-2.4-2.4-2.4h-7.7425q-2.4 0-2.4 2.4z" clip-path="url(#a)" fill="#fff" stroke="#fff"/>
<g clip-path="url(#a)">
<g transform="translate(863.97 387.48) rotate(90) scale(.08 -.08)">
<use xlink:href="#e"/>
<use x="44.083984" xlink:href="#l"/>
<use x="105.607422" xlink:href="#g"/>
<use x="144.970703" xlink:href="#i"/>
<use x="242.382812" xlink:href="#k"/>
<use x="270.166016" xlink:href="#h"/>
<use x="333.544922" xlink:href="#f"/>
<use x="394.824219" xlink:href="#j"/>
</g>
</g>
<defs>
<path id="b" d="m0 8.6603c2.2967 0 4.4997-0.9125 6.1237-2.5365 1.624-1.624 2.5365-3.827 2.5365-6.1237s-0.9125-4.4997-2.5365-6.1237c-1.624-1.624-3.827-2.5365-6.1237-2.5365s-4.4997 0.9125-6.1237 2.5365c-1.624 1.624-2.5365 3.827-2.5365 6.1237s0.9125 4.4997 2.5365 6.1237c1.624 1.624 3.827 2.5365 6.1237 2.5365z"/>
</defs>
<g clip-path="url(#a)" fill="#ffffff" stroke="#ffffff">
<use x="41.454545" y="458.181818" xlink:href="#b"/>
<use x="54.545455" y="458.181818" xlink:href="#b"/>
<use x="72" y="458.181818" xlink:href="#b"/>
<use x="93.818182" y="458.181818" xlink:href="#b"/>
<use x="120" y="458.181818" xlink:href="#b"/>
<use x="150.545455" y="458.181818" xlink:href="#b"/>
<use x="185.454545" y="458.181818" xlink:href="#b"/>
<use x="224.727273" y="458.181818" xlink:href="#b"/>
<use x="272.727273" y="458.181818" xlink:href="#b"/>
<use x="320.727273" y="458.181818" xlink:href="#b"/>
<use x="373.090909" y="458.181818" xlink:href="#b"/>
<use x="434.181818" y="458.181818" xlink:href="#b"/>
<use x="495.272727" y="458.181818" xlink:href="#b"/>
<use x="560.727273" y="458.181818" xlink:href="#b"/>
<use x="630.545455" y="458.181818" xlink:href="#b"/>
<use x="704.727273" y="458.181818" xlink:href="#b"/>
<use x="783.272727" y="458.181818" xlink:href="#b"/>
<use x="866.181818" y="458.181818" xlink:href="#b"/>
<use x="870.545455" y="241.507092" xlink:href="#b"/>
<use x="377.454545" y="350.592796" xlink:href="#b"/>
<use x="229.090909" y="350.592796" xlink:href="#b"/>
<use x="265.454545" y="21.818182" xlink:href="#b"/>
<use x="41.454545" y="350.592796" xlink:href="#b"/>
<use x="72" y="131.849243" xlink:href="#b"/>
<use x="205.090909" y="241.507092" xlink:href="#b"/>
<use x="346.909091" y="241.507092" xlink:href="#b"/>
<use x="600.727273" y="131.849243" xlink:href="#b"/>
<use x="495.272727" y="350.592796" xlink:href="#b"/>
<use x="560.727273" y="350.592796" xlink:href="#b"/>
<use x="746.181818" y="241.507092" xlink:href="#b"/>
<use x="630.545455" y="350.592796" xlink:href="#b"/>
<use x="704.727273" y="350.592796" xlink:href="#b"/>
<use x="783.272727" y="350.592796" xlink:href="#b"/>
<use x="320.727273" y="350.592796" xlink:href="#b"/>
<use x="373.090909" y="350.592796" xlink:href="#b"/>
<use x="185.454545" y="350.592796" xlink:href="#b"/>
<use x="224.727273" y="350.592796" xlink:href="#b"/>
<use x="54.545455" y="350.592796" xlink:href="#b"/>
<use x="72" y="350.592796" xlink:href="#b"/>
<use x="89.454545" y="241.507092" xlink:href="#b"/>
<use x="93.818182" y="350.592796" xlink:href="#b"/>
<use x="120" y="350.592796" xlink:href="#b"/>
<use x="150.545455" y="350.592796" xlink:href="#b"/>
<use x="272.727273" y="350.592796" xlink:href="#b"/>
<use x="434.181818" y="350.592796" xlink:href="#b"/>
<use x="866.181818" y="350.592796" xlink:href="#b"/>
</g>
<g clip-path="url(#a)">
<g transform="translate(29.101 460.94) scale(.1 -.1)">
<defs>
<path id="bh" d="m9.8125 72.906h46.094v-8.3125h-36.234v-21.578h34.719v-8.2969h-34.719v-26.422h37.109v-8.2969h-46.969z"/>
<path id="u" d="m48.781 52.594v-8.4062q-3.8125 2.1094-7.6406 3.1562t-7.7344 1.0469q-8.75 0-13.594-5.5469-4.8281-5.5312-4.8281-15.547t4.8281-15.562q4.8438-5.5312 13.594-5.5312 3.9062 0 7.7344 1.0469t7.6406 3.1562v-8.3125q-3.7656-1.75-7.7969-2.625-4.0156-0.89062-8.5625-0.89062-12.359 0-19.641 7.7656-7.2656 7.7656-7.2656 20.953 0 13.375 7.3438 21.031 7.3594 7.6719 20.156 7.6719 4.1406 0 8.0938-0.85938 3.9531-0.84375 7.6719-2.5469z"/>
<path id="ad" d="m3.7188 0v7.4688q8.875 1.375 11.609 7.5156 3.3281 8.6562 3.3281 30.766v8.9375h36.953v-54.688h-8.9844v47.516h-18.984v-5.4219q0-21.094-4.2969-30.562-4.5938-10.109-19.625-11.531z"/>
<path id="v" d="m55.906 54.688v-54.688h-8.9375v43.891l-26.359-43.891h-11.531v54.688h8.9375v-43.797l26.328 43.797z"/>
</defs>
<use xlink:href="#bh"/>
<use x="63.183594" xlink:href="#u"/>
<use x="118.164062" xlink:href="#ad"/>
<use x="182.080078" xlink:href="#v"/>
</g>
</g>
<g clip-path="url(#a)">
<g transform="translate(44.763 460.94) scale(.1 -.1)">
<defs>
<path id="am" d="m18.062 25.203v-18.031h12.797q6.1562 0 9.375 2.3125 3.2188 2.3281 3.2188 6.7344 0 4.3906-3.2188 6.6875t-9.375 2.2969zm0 22.312v-15.141h11.828q5.0781 0 8.2969 2.0156 3.2188 2.0312 3.2188 5.6562 0 3.6094-3.2188 5.5312-3.2188 1.9375-8.2969 1.9375zm-8.9844 7.1719h21.391q9.625 0 14.797-3.5156t5.1719-10.016q0-5.0156-2.6406-7.9844-2.625-2.9531-7.8125-3.6719 6.2031-1.1719 9.625-4.8906 3.4219-3.7031 3.4219-9.2812 0-7.3125-5.6406-11.328-5.6406-4-16.094-4h-22.219z"/>
<path id="w" d="m34.281 27.484q-10.891 0-15.094-2.4844t-4.2031-8.5q0-4.7812 3.1562-7.5938 3.1562-2.7969 8.5625-2.7969 7.4844 0 12 5.2969t4.5156 14.078v2zm17.922 3.7188v-31.203h-8.9844v8.2969q-3.0781-4.9688-7.6719-7.3438t-11.234-2.375q-8.3906 0-13.359 4.7188-4.9531 4.7188-4.9531 12.625 0 9.2188 6.1719 13.906 6.1875 4.6875 18.438 4.6875h12.609v0.89062q0 6.2031-4.0781 9.5938t-11.453 3.3906q-4.6875 0-9.1406-1.125-4.4375-1.125-8.5312-3.375v8.3125q4.9219 1.9062 9.5625 2.8438 4.6406 0.95312 9.0312 0.95312 11.875 0 17.734-6.1562 5.8594-6.1406 5.8594-18.641z"/>
<path id="ak" d="m9.0781 54.688h13.141l15.531-36.625 15.578 36.625h13.031v-54.688h-9.0312v46.094l-15.094-35.594h-8.9844l-15.141 35.594v-46.094h-9.0312z"/>
</defs>
<use xlink:href="#am"/>
<use x="58.935547" xlink:href="#w"/>
<use x="120.214844" xlink:href="#ak"/>
</g>
</g>
<g clip-path="url(#a)">
<g transform="translate(48.223 460.94) scale(.1 -.1)">
<defs>
<path id="ar" d="m32.172-5.0781q-3.7969-9.7656-7.4219-12.734-3.6094-2.9844-9.6562-2.9844h-7.1875v7.5156h5.2812q3.7031 0 5.75 1.7656 2.0625 1.75 4.5469 8.2969l1.6094 4.0938-22.109 53.812h9.5156l17.094-42.766 17.094 42.766h9.5156z"/>
<path id="bc" d="m41.016 0v23h-16.75q-7.4688 0-12.453 4.6406-4.4844 4.2031-4.4844 13.188v13.859h8.9844v-13.031q0-5.7188 2.5312-8.5938 2.5938-2.8906 7.6719-2.8906h14.5v24.516h8.9844v-54.688z"/>
<path id="r" d="m2.9375 54.688h52.391v-7.1719h-21.781v-47.516h-8.8438v47.516h-21.766z"/>
<path id="ax" d="m18.453 38.922q0-4.0625 3.125-6.3594 3.125-2.2812 8.9375-2.2812h12.109v17.234h-12.109q-5.8125 0-8.9375-2.25t-3.125-6.3438zm-12.781-38.922 16.688 23.969q-5.6562 1.2812-9.4219 4.625-3.75 3.3438-3.75 10.328 0 7.9062 5.2344 11.828 5.25 3.9375 15.859 3.9375h21.375v-54.688h-9.0312v23.094h-11.172l-16.125-23.094z"/>
</defs>
<use xlink:href="#u"/>
<use x="54.980469" xlink:href="#ad"/>
<use x="118.896484" xlink:href="#ar"/>
<use x="178.076172" xlink:href="#bc"/>
<use x="237.158203" xlink:href="#v"/>
<use x="302.148438" xlink:href="#r"/>
<use x="360.400391" xlink:href="#u"/>
<use x="415.380859" xlink:href="#ax"/>
</g>
</g>
<g clip-path="url(#a)">
<g transform="translate(85.034 460.94) scale(.1 -.1)">
<use xlink:href="#r"/>
<use x="58.251953" xlink:href="#ar"/>
<use x="117.431641" xlink:href="#r"/>
</g>
</g>
<g clip-path="url(#a)">
<g transform="translate(91.334 460.94) scale(.1 -.1)">
<defs>
<path id="ab" d="m56.297 54.688v-54.688h-9.0312v47.516h-29.156v-47.516h-9.0312v54.688z"/>
<path id="bd" d="m18.109 8.2031v-29h-9.0312v75.484h9.0312v-8.2969q2.8438 4.875 7.1562 7.2344 4.3281 2.375 10.328 2.375 9.9688 0 16.188-7.9062 6.2344-7.9062 6.2344-20.797t-6.2344-20.812q-6.2188-7.9062-16.188-7.9062-6 0-10.328 2.375-4.3125 2.375-7.1562 7.25zm30.578 19.094q0 9.9062-4.0781 15.547t-11.203 5.6406q-7.1406 0-11.219-5.6406t-4.0781-15.547 4.0781-15.547 11.219-5.6406q7.125 0 11.203 5.6406t4.0781 15.547z"/>
<path id="s" d="m30.609 48.391q-7.2188 0-11.422-5.6406t-4.2031-15.453 4.1719-15.453q4.1875-5.6406 11.453-5.6406 7.1875 0 11.375 5.6562 4.2031 5.6719 4.2031 15.438 0 9.7188-4.2031 15.406-4.1875 5.6875-11.375 5.6875zm0 7.6094q11.719 0 18.406-7.625 6.7031-7.6094 6.7031-21.078 0-13.422-6.7031-21.078-6.6875-7.6406-18.406-7.6406-11.766 0-18.438 7.6406-6.6562 7.6562-6.6562 21.078 0 13.469 6.6562 21.078 6.6719 7.625 18.438 7.625z"/>
<path id="q" d="m56.203 29.594v-4.3906h-41.312q0.59375-9.2812 5.5938-14.141t13.938-4.8594q5.1719 0 10.031 1.2656t9.6562 3.8125v-8.5q-4.8438-2.0469-9.9219-3.125t-10.297-1.0781q-13.094 0-20.734 7.6094-7.6406 7.625-7.6406 20.625 0 13.422 7.25 21.297 7.25 7.8906 19.562 7.8906 11.031 0 17.453-7.1094 6.4219-7.0938 6.4219-19.297zm-8.9844 2.6406q-0.09375 7.3594-4.125 11.75-4.0312 4.4062-10.672 4.4062-7.5156 0-12.031-4.25t-5.2031-11.969z"/>
<path id="ae" d="m34.469 29.5q6.0625-1.1719 9.4219-4.75 3.375-3.5625 3.375-8.8281 0-8.4531-6.2969-12.906-6.2969-4.4375-17.922-4.4375-3.9062 0-8.0312 0.6875t-8.5156 2.0469v8.3594q3.4688-1.8125 7.6094-2.7188 4.1562-0.89062 8.6875-0.89062 7.375 0 11.5 2.7344t4.125 7.125q0 4.2969-3.6562 6.9062t-10.344 2.6094h-7.2344v7.4219h7.5625q5.6719 0 8.9688 2.1719t3.2969 5.5938q0 3.125-3.4062 5.375-3.3906 2.25-9.1875 2.25-3.4688 0-7.4062-0.64062-3.9219-0.64062-8.6719-2.0469v8.1562q4.7969 1.1719 8.9375 1.75 4.1562 0.59375 7.8594 0.59375 9.5781 0 15.109-3.8438 5.5469-3.8281 5.5469-10.719 0-4.5312-2.9375-7.6875-2.9219-3.1406-8.3906-4.3125z"/>
<path id="bf" d="m40.578 54.688h8.9375v-25.688l23.875 25.688h10.453l-19.641-21.047 22.469-33.641h-9.625l-18.406 27.641-9.125-9.8125v-17.828h-8.9375v17.828l-9.125 9.8125-18.422-27.641h-9.6094l22.453 33.641-19.625 21.047h10.453l23.875-25.688z"/>
<path id="ba" d="m43.453 16.219q0 4.3906-3.2031 6.6875-3.1875 2.2969-9.3438 2.2969h-12.797v-18.031h12.797q6.1562 0 9.3438 2.3125 3.2031 2.3281 3.2031 6.7344zm-34.375 38.469h9.0312v-22.312h13.188q10.453 0 16.094-3.9844 5.6406-3.9688 5.6406-12.172t-5.6406-12.219q-5.6406-4-16.094-4h-22.219z"/>
</defs>
<use xlink:href="#ab"/>
<use x="65.380859" xlink:href="#bd"/>
<use x="128.857422" xlink:href="#s"/>
<use x="190.039062" xlink:href="#q"/>
<use x="251.5625" xlink:href="#ae"/>
<use x="304.736328" xlink:href="#bf"/>
<use x="394.824219" xlink:href="#w"/>
<use x="456.103516" xlink:href="#r"/>
<use x="514.355469" xlink:href="#ba"/>
</g>
</g>
<g clip-path="url(#a)">
<g transform="translate(148.96 460.94) scale(.1 -.1)">
<defs>
<path id="aj" d="m11.719 12.406h10.297v-8.4062l-8-15.625h-6.2969l4 15.625z"/>
</defs>
<use xlink:href="#aj"/>
</g>
</g>
<g clip-path="url(#a)">
<g transform="translate(159.72 460.94) scale(.1 -.1)">
<defs>
<path id="be" d="m9.0781 54.688h8.9375v-25.688l25.344 25.688h11.031l-20.891-21.141 23.578-33.547h-10.062l-19.375 27.594-9.625-9.7656v-17.828h-8.9375z"/>
<path id="ac" d="m9.0781 54.688h9.0312v-22.312h29.156v22.312h9.0312v-54.688h-9.0312v25.203h-29.156v-25.203h-9.0312z"/>
<path id="ay" d="m53.609 48.391q-7.2188 0-11.422-5.6406t-4.2031-15.453 4.1719-15.453q4.1875-5.6406 11.453-5.6406 7.1875 0 11.375 5.6562 4.2031 5.6719 4.2031 15.438 0 9.7188-4.2031 15.406-4.1875 5.6875-11.375 5.6875zm-24.797-15.531q0.92188 9.2812 7 16.203 6.0781 6.9375 17.797 6.9375t18.406-7.625q6.7031-7.6094 6.7031-21.078 0-13.422-6.7031-21.078-6.6875-7.6406-18.406-7.6406-11.766 0-18.188 7.375t-6.8594 19.484h-10.156v-25.438h-8.9844v54.688h8.9844v-21.828z"/>
</defs>
<use xlink:href="#ae"/>
<use x="53.173828" xlink:href="#w"/>
<use x="114.453125" xlink:href="#be"/>
<use x="174.853516" xlink:href="#ad"/>
<use x="238.769531" xlink:href="#v"/>
<use x="303.759766" xlink:href="#ac"/>
<use x="369.140625" xlink:href="#w"/>
<use x="430.419922" xlink:href="#ay"/>
</g>
</g>
<g clip-path="url(#a)">
<g transform="translate(215.97 460.94) scale(.1 -.1)">
<use xlink:href="#am"/>
<use x="58.935547" xlink:href="#w"/>
<use x="120.214844" xlink:href="#u"/>
</g>
</g>
<g clip-path="url(#a)">
<g transform="translate(271.14 460.94) scale(.1 -.1)">
<use xlink:href="#aj"/>
</g>
</g>
<g clip-path="url(#a)">
<g transform="translate(314.38 460.94) scale(.1 -.1)">
<use xlink:href="#ac"/>
<use x="65.380859" xlink:href="#q"/>
</g>
</g>
<g clip-path="url(#a)">
<g transform="translate(350.18 460.94) scale(.1 -.1)">
<defs>
<path id="bb" d="m50.25 7.1719h23.141v47.516h9.0312v-54.688h-73.344v54.688h9.0312v-47.516h23.109v47.516h9.0312z"/>
</defs>
<use xlink:href="#u"/>
<use x="54.980469" xlink:href="#ab"/>
<use x="120.361328" xlink:href="#q"/>
<use x="181.884766" xlink:href="#bb"/>
<use x="273.388672" xlink:href="#v"/>
<use x="338.378906" xlink:href="#r"/>
<use x="396.630859" xlink:href="#q"/>
</g>
</g>
<g clip-path="url(#a)">
<g transform="translate(432.59 460.94) scale(.1 -.1)">
<use xlink:href="#aj"/>
</g>
</g>
<g clip-path="url(#a)">
<g transform="translate(466.2 460.94) scale(.1 -.1)">
<defs>
<path id="al" d="m21.625 7.1719h26.078v40.344h-18.891v-6.8438q0-20.109-5.7656-30.859zm-13.031 0q4.4375 1.9531 6.3906 6.1094 4.7969 10.297 4.7969 31.062v10.344h36.953v-47.516h7.1875v-20.984h-7.1875v13.812h-44.328v-13.812h-7.1875v20.984z"/>
</defs>
<use xlink:href="#ab"/>
<use x="65.380859" xlink:href="#s"/>
<use x="126.5625" xlink:href="#ak"/>
<use x="202.001953" xlink:href="#q"/>
<use x="263.525391" xlink:href="#al"/>
<use x="332.666016" xlink:href="#ad"/>
<use x="396.582031" xlink:href="#v"/>
<use x="461.572266" xlink:href="#r"/>
<use x="519.824219" xlink:href="#q"/>
</g>
</g>
<g clip-path="url(#a)">
<g transform="translate(538.6 460.94) scale(.1 -.1)">
<defs>
<path id="bg" d="m9.0781 0v54.688h38.578v-7.1719h-29.547v-47.516z"/>
</defs>
<use xlink:href="#ac"/>
<use x="65.380859" xlink:href="#q"/>
<use x="126.904297" xlink:href="#ak"/>
<use x="202.34375" xlink:href="#ac"/>
<use x="267.724609" xlink:href="#s"/>
<use x="328.90625" xlink:href="#bg"/>
<use x="381.445312" xlink:href="#s"/>
</g>
</g>
<g clip-path="url(#a)">
<g transform="translate(620.76 460.94) scale(.1 -.1)">
<use xlink:href="#ab"/>
<use x="65.380859" xlink:href="#s"/>
<use x="126.5625" xlink:href="#al"/>
</g>
</g>
<g clip-path="url(#a)">
<g transform="translate(692.76 460.94) scale(.1 -.1)">
<defs>
<path id="az" d="m5.5156 10.406q7.7188-4.2031 15.391-4.2031 7.1719 0 12.297 4.1719t6.0625 14.828h-27.734v7.1719h27.438q-0.59375 5.125-4.4844 10.562-3.875 5.4531-13.578 5.4531-7.5312 0-15.391-4.2031v8.4062q7.6719 3.4062 15.781 3.4062 12.781 0 20.125-7.7344 7.3594-7.7344 7.3594-20.969 0-13.188-7.1562-20.953t-19.703-7.7656q-9.2188 0-16.406 3.5156z"/>
<path id="as" d="m55.906 54.688v-54.688h-8.9375v43.891l-26.359-43.891h-11.531v54.688h8.9375v-43.797l26.328 43.797zm-38.688 20.828h5.7656q0.53125-3.6562 2.8906-5.5 2.375-1.8281 6.625-1.8281 4.2031 0 6.5469 1.8125t2.9688 5.5156h5.7656q-0.48438-6.9844-4.3438-10.5t-10.938-3.5156-10.938 3.5156-4.3438 10.5z"/>
</defs>
<use xlink:href="#az"/>
<use x="54.882812" xlink:href="#r"/>
<use x="113.134766" xlink:href="#s"/>
<use x="174.316406" xlink:href="#as"/>
</g>
</g>
<g clip-path="url(#a)">
<g transform="translate(762.17 460.94) scale(.1 -.1)">
<use xlink:href="#ae"/>
<use x="53.173828" xlink:href="#am"/>
<use x="112.109375" xlink:href="#q"/>
<use x="173.632812" xlink:href="#ae"/>
<use x="226.806641" xlink:href="#al"/>
<use x="295.947266" xlink:href="#s"/>
<use x="357.128906" xlink:href="#as"/>
</g>
</g>
<g clip-path="url(#a)">
<g transform="translate(864.18 460.94) scale(.1 -.1)">
<defs>
<path id="aw" d="m15.094 12.406h9.9062v-12.406h-9.9062zm0 60.5h9.9062v-31.984l-0.96875-17.438h-7.9219l-1.0156 17.438z"/>
</defs>
<use xlink:href="#aw"/>
</g>
</g>
<g clip-path="url(#a)">
<g transform="translate(849.46 244.27) scale(.1 -.1)">
<defs>
<path id="n" d="m9.8125 72.906h9.8594v-72.906h-9.8594z"/>
<path id="af" d="m9.8125 72.906h14.703l18.594-49.609 18.703 49.609h14.703v-72.906h-9.625v64.016l-18.797-50h-9.9062l-18.797 50v-64.016h-9.5781z"/>
</defs>
<use xlink:href="#n"/>
<use x="29.492188" xlink:href="#af"/>
<use x="115.771484" xlink:href="#p"/>
<use x="176.074219" xlink:href="#y"/>
<use x="231.787109" xlink:href="#n"/>
<use x="261.279297" xlink:href="#aa"/>
<use x="331.103516" xlink:href="#n"/>
<use x="360.595703" xlink:href="#e"/>
</g>
</g>
<g clip-path="url(#a)">
<g transform="translate(356.37 353.35) scale(.1 -.1)">
<use xlink:href="#n"/>
<use x="29.492188" xlink:href="#af"/>
<use x="115.771484" xlink:href="#p"/>
<use x="176.074219" xlink:href="#y"/>
<use x="231.787109" xlink:href="#n"/>
<use x="261.279297" xlink:href="#aa"/>
<use x="331.103516" xlink:href="#n"/>
<use x="360.595703" xlink:href="#e"/>
</g>
</g>
<g clip-path="url(#a)">
<g transform="translate(208.01 353.35) scale(.1 -.1)">
<use xlink:href="#n"/>
<use x="29.492188" xlink:href="#af"/>
<use x="115.771484" xlink:href="#p"/>
<use x="176.074219" xlink:href="#y"/>
<use x="231.787109" xlink:href="#n"/>
<use x="261.279297" xlink:href="#aa"/>
<use x="331.103516" xlink:href="#n"/>
<use x="360.595703" xlink:href="#e"/>
</g>
</g>
<g clip-path="url(#a)">
<g transform="translate(257.5 24.578) scale(.1 -.1)">
<defs>
<path id="c" d="m12.406 8.2969h16.109v55.625l-17.531-3.5156v8.9844l17.438 3.5156h9.8594v-64.609h16.109v-8.2969h-41.984z"/>
<path id="d" d="m10.688 12.406h10.312v-12.406h-10.312z"/>
</defs>
<use xlink:href="#c"/>
<use x="63.623047" xlink:href="#d"/>
<use x="95.410156" xlink:href="#c"/>
</g>
</g>
<g clip-path="url(#a)">
<g transform="translate(33.503 353.35) scale(.1 -.1)">
<defs>
<path id="m" d="m19.188 8.2969h34.422v-8.2969h-46.281v8.2969q5.6094 5.8125 15.297 15.594 9.7031 9.7969 12.188 12.641 4.7344 5.3125 6.6094 9 1.8906 3.6875 1.8906 7.25 0 5.8125-4.0781 9.4688-4.0781 3.6719-10.625 3.6719-4.6406 0-9.7969-1.6094-5.1406-1.6094-11-4.8906v9.9688q5.9531 2.3906 11.125 3.6094 5.1875 1.2188 9.4844 1.2188 11.328 0 18.062-5.6719 6.7344-5.6562 6.7344-15.125 0-4.5-1.6875-8.5312-1.6719-4.0156-6.125-9.4844-1.2188-1.4219-7.7656-8.1875-6.5312-6.7656-18.453-18.922z"/>
</defs>
<use xlink:href="#c"/>
<use x="63.623047" xlink:href="#d"/>
<use x="95.410156" xlink:href="#m"/>
</g>
</g>
<g clip-path="url(#a)">
<g transform="translate(64.048 134.61) scale(.1 -.1)">
<defs>
<path id="t" d="m40.578 39.312q7.0781-1.5156 11.047-6.3125 3.9844-4.7812 3.9844-11.812 0-10.781-7.4219-16.703-7.4219-5.9062-21.094-5.9062-4.5781 0-9.4375 0.90625t-10.031 2.7188v9.5156q4.0938-2.3906 8.9688-3.6094 4.8906-1.2188 10.219-1.2188 9.2656 0 14.125 3.6562t4.8594 10.641q0 6.4531-4.5156 10.078-4.5156 3.6406-12.562 3.6406h-8.5v8.1094h8.8906q7.2656 0 11.125 2.9062t3.8594 8.375q0 5.6094-3.9844 8.6094-3.9688 3.0156-11.391 3.0156-4.0625 0-8.7031-0.89062-4.6406-0.875-10.203-2.7188v8.7812q5.625 1.5625 10.531 2.3438t9.25 0.78125q11.234 0 17.766-5.1094 6.5469-5.0938 6.5469-13.781 0-6.0625-3.4688-10.234t-9.8594-5.7812z"/>
</defs>
<use xlink:href="#c"/>
<use x="63.623047" xlink:href="#d"/>
<use x="95.410156" xlink:href="#t"/>
</g>
</g>
<g clip-path="url(#a)">
<g transform="translate(197.14 244.27) scale(.1 -.1)">
<defs>
<path id="ai" d="m37.797 64.312-24.906-38.922h24.906zm-2.5938 8.5938h12.406v-47.516h10.406v-8.2031h-10.406v-17.188h-9.8125v17.188h-32.906v9.5156z"/>
</defs>
<use xlink:href="#c"/>
<use x="63.623047" xlink:href="#d"/>
<use x="95.410156" xlink:href="#ai"/>
</g>
</g>
<g clip-path="url(#a)">
<g transform="translate(338.96 244.27) scale(.1 -.1)">
<defs>
<path id="ah" d="m10.797 72.906h38.719v-8.3125h-29.688v-17.859q2.1406 0.73438 4.2812 1.0938 2.1562 0.35938 4.3125 0.35938 12.203 0 19.328-6.6875 7.1406-6.6875 7.1406-18.109 0-11.766-7.3281-18.297-7.3281-6.5156-20.656-6.5156-4.5938 0-9.3594 0.78125-4.75 0.78125-9.8281 2.3438v9.9219q4.3906-2.3906 9.0781-3.5625t9.9062-1.1719q8.4531 0 13.375 4.4375 4.9375 4.4375 4.9375 12.062 0 7.6094-4.9375 12.047-4.9219 4.4531-13.375 4.4531-3.9531 0-7.8906-0.875-3.9219-0.875-8.0156-2.7344z"/>
</defs>
<use xlink:href="#c"/>
<use x="63.623047" xlink:href="#d"/>
<use x="95.410156" xlink:href="#ah"/>
</g>
</g>
<g clip-path="url(#a)">
<g transform="translate(592.78 134.61) scale(.1 -.1)">
<defs>
<path id="ag" d="m33.016 40.375q-6.6406 0-10.531-4.5469-3.875-4.5312-3.875-12.438 0-7.8594 3.875-12.438 3.8906-4.5625 10.531-4.5625t10.516 4.5625q3.875 4.5781 3.875 12.438 0 7.9062-3.875 12.438-3.875 4.5469-10.516 4.5469zm19.578 30.922v-8.9844q-3.7188 1.75-7.5 2.6719-3.7812 0.9375-7.5 0.9375-9.7656 0-14.922-6.5938-5.1406-6.5938-5.875-19.922 2.875 4.25 7.2188 6.5156 4.3594 2.2656 9.5781 2.2656 10.984 0 17.359-6.6719 6.375-6.6562 6.375-18.125 0-11.234-6.6406-18.031-6.6406-6.7812-17.672-6.7812-12.656 0-19.344 9.6875-6.6875 9.7031-6.6875 28.109 0 17.281 8.2031 27.562t22.016 10.281q3.7188 0 7.5-0.73438t7.8906-2.1875z"/>
</defs>
<use xlink:href="#c"/>
<use x="63.623047" xlink:href="#d"/>
<use x="95.410156" xlink:href="#ag"/>
</g>
</g>
<g clip-path="url(#a)">
<g transform="translate(484.14 353.35) scale(.1 -.1)">
<use xlink:href="#c"/>
<use x="63.623047" xlink:href="#d"/>
<use x="95.410156" xlink:href="#c"/>
<use x="159.033203" xlink:href="#m"/>
</g>
</g>
<g clip-path="url(#a)">
<g transform="translate(549.59 353.35) scale(.1 -.1)">
<use xlink:href="#c"/>
<use x="63.623047" xlink:href="#d"/>
<use x="95.410156" xlink:href="#c"/>
<use x="159.033203" xlink:href="#t"/>
</g>
</g>
<g clip-path="url(#a)">
<g transform="translate(735.05 244.27) scale(.1 -.1)">
<use xlink:href="#c"/>
<use x="63.623047" xlink:href="#d"/>
<use x="95.410156" xlink:href="#c"/>
<use x="159.033203" xlink:href="#ai"/>
</g>
</g>
<g clip-path="url(#a)">
<g transform="translate(619.41 353.35) scale(.1 -.1)">
<use xlink:href="#c"/>
<use x="63.623047" xlink:href="#d"/>
<use x="95.410156" xlink:href="#c"/>
<use x="159.033203" xlink:href="#ah"/>
</g>
</g>
<g clip-path="url(#a)">
<g transform="translate(693.59 353.35) scale(.1 -.1)">
<use xlink:href="#c"/>
<use x="63.623047" xlink:href="#d"/>
<use x="95.410156" xlink:href="#c"/>
<use x="159.033203" xlink:href="#ag"/>
</g>
</g>
<g clip-path="url(#a)">
<g transform="translate(772.14 353.35) scale(.1 -.1)">
<defs>
<path id="ap" d="m8.2031 72.906h46.875v-4.2031l-26.469-68.703h-10.297l24.906 64.594h-35.016z"/>
</defs>
<use xlink:href="#c"/>
<use x="63.623047" xlink:href="#d"/>
<use x="95.410156" xlink:href="#c"/>
<use x="159.033203" xlink:href="#ap"/>
</g>
</g>
<g clip-path="url(#a)">
<g transform="translate(309.59 353.35) scale(.1 -.1)">
<defs>
<path id="ao" d="m10.984 1.5156v8.9844q3.7188-1.7656 7.5156-2.6875 3.8125-0.92188 7.4844-0.92188 9.7656 0 14.906 6.5625 5.1562 6.5625 5.8906 19.953-2.8281-4.2031-7.1875-6.4531-4.3438-2.25-9.6094-2.25-10.938 0-17.312 6.6094-6.375 6.625-6.375 18.109 0 11.219 6.6406 18 6.6406 6.7969 17.672 6.7969 12.656 0 19.312-9.7031 6.6719-9.6875 6.6719-28.141 0-17.234-8.1875-27.516-8.1719-10.281-21.984-10.281-3.7188 0-7.5312 0.73438-3.7969 0.73438-7.9062 2.2031zm19.625 30.906q6.6406 0 10.516 4.5312 3.8906 4.5469 3.8906 12.469 0 7.8594-3.8906 12.422-3.875 4.5625-10.516 4.5625t-10.516-4.5625-3.875-12.422q0-7.9219 3.875-12.469 3.875-4.5312 10.516-4.5312z"/>
</defs>
<use xlink:href="#c"/>
<use x="63.623047" xlink:href="#d"/>
<use x="95.410156" xlink:href="#c"/>
<use x="159.033203" xlink:href="#ao"/>
</g>
</g>
<g clip-path="url(#a)">
<g transform="translate(361.96 353.35) scale(.1 -.1)">
<defs>
<path id="aq" d="m31.781 66.406q-7.6094 0-11.453-7.5-3.8281-7.4844-3.8281-22.531 0-14.984 3.8281-22.484 3.8438-7.5 11.453-7.5 7.6719 0 11.5 7.5 3.8438 7.5 3.8438 22.484 0 15.047-3.8438 22.531-3.8281 7.5-11.5 7.5zm0 7.8125q12.266 0 18.734-9.7031 6.4688-9.6875 6.4688-28.141 0-18.406-6.4688-28.109-6.4688-9.6875-18.734-9.6875-12.25 0-18.719 9.6875-6.4688 9.7031-6.4688 28.109 0 18.453 6.4688 28.141 6.4688 9.7031 18.719 9.7031z"/>
</defs>
<use xlink:href="#c"/>
<use x="63.623047" xlink:href="#d"/>
<use x="95.410156" xlink:href="#m"/>
<use x="159.033203" xlink:href="#aq"/>
</g>
</g>
<g clip-path="url(#a)">
<g transform="translate(174.32 353.35) scale(.1 -.1)">
<use xlink:href="#c"/>
<use x="63.623047" xlink:href="#d"/>
<use x="95.410156" xlink:href="#m"/>
<use x="159.033203" xlink:href="#m"/>
</g>
</g>
<g clip-path="url(#a)">
<g transform="translate(213.59 353.35) scale(.1 -.1)">
<use xlink:href="#c"/>
<use x="63.623047" xlink:href="#d"/>
<use x="95.410156" xlink:href="#m"/>
<use x="159.033203" xlink:href="#t"/>
</g>
</g>
<g clip-path="url(#a)">
<g transform="translate(43.413 353.35) scale(.1 -.1)">
<use xlink:href="#c"/>
<use x="63.623047" xlink:href="#d"/>
<use x="95.410156" xlink:href="#m"/>
<use x="159.033203" xlink:href="#ai"/>
</g>
</g>
<g clip-path="url(#a)">
<g transform="translate(60.867 353.35) scale(.1 -.1)">
<use xlink:href="#c"/>
<use x="63.623047" xlink:href="#d"/>
<use x="95.410156" xlink:href="#m"/>
<use x="159.033203" xlink:href="#ah"/>
</g>
</g>
<g clip-path="url(#a)">
<g transform="translate(78.322 244.27) scale(.1 -.1)">
<use xlink:href="#c"/>
<use x="63.623047" xlink:href="#d"/>
<use x="95.410156" xlink:href="#m"/>
<use x="159.033203" xlink:href="#ag"/>
</g>
</g>
<g clip-path="url(#a)">
<g transform="translate(82.685 353.35) scale(.1 -.1)">
<use xlink:href="#c"/>
<use x="63.623047" xlink:href="#d"/>
<use x="95.410156" xlink:href="#m"/>
<use x="159.033203" xlink:href="#ap"/>
</g>
</g>
<g clip-path="url(#a)">
<g transform="translate(108.87 353.35) scale(.1 -.1)">
<defs>
<path id="av" d="m31.781 34.625q-7.0312 0-11.062-3.7656-4.0156-3.7656-4.0156-10.344 0-6.5938 4.0156-10.359 4.0312-3.7656 11.062-3.7656t11.078 3.7812q4.0625 3.7969 4.0625 10.344 0 6.5781-4.0312 10.344-4.0156 3.7656-11.109 3.7656zm-9.8594 4.1875q-6.3438 1.5625-9.8906 5.9062-3.5312 4.3594-3.5312 10.609 0 8.7344 6.2188 13.812 6.2344 5.0781 17.062 5.0781 10.891 0 17.094-5.0781t6.2031-13.812q0-6.25-3.5469-10.609-3.5312-4.3438-9.8281-5.9062 7.125-1.6562 11.094-6.5 3.9844-4.8281 3.9844-11.797 0-10.609-6.4688-16.281-6.4688-5.6562-18.531-5.6562-12.047 0-18.531 5.6562-6.4688 5.6719-6.4688 16.281 0 6.9688 4 11.797 4.0156 4.8438 11.141 6.5zm-3.6094 15.578q0-5.6562 3.5312-8.8281 3.5469-3.1719 9.9375-3.1719 6.3594 0 9.9375 3.1719 3.5938 3.1719 3.5938 8.8281 0 5.6719-3.5938 8.8438-3.5781 3.1719-9.9375 3.1719-6.3906 0-9.9375-3.1719-3.5312-3.1719-3.5312-8.8438z"/>
</defs>
<use xlink:href="#c"/>
<use x="63.623047" xlink:href="#d"/>
<use x="95.410156" xlink:href="#m"/>
<use x="159.033203" xlink:href="#av"/>
</g>
</g>
<g clip-path="url(#a)">
<g transform="translate(139.41 353.35) scale(.1 -.1)">
<use xlink:href="#c"/>
<use x="63.623047" xlink:href="#d"/>
<use x="95.410156" xlink:href="#m"/>
<use x="159.033203" xlink:href="#ao"/>
</g>
</g>
<g clip-path="url(#a)">
<g transform="translate(261.59 353.35) scale(.1 -.1)">
<use xlink:href="#c"/>
<use x="63.623047" xlink:href="#d"/>
<use x="95.410156" xlink:href="#t"/>
<use x="159.033203" xlink:href="#aq"/>
</g>
</g>
<g clip-path="url(#a)">
<g transform="translate(423.05 353.35) scale(.1 -.1)">
<use xlink:href="#c"/>
<use x="63.623047" xlink:href="#d"/>
<use x="95.410156" xlink:href="#t"/>
<use x="159.033203" xlink:href="#c"/>
</g>
</g>
<g clip-path="url(#a)">
<g transform="translate(855.05 353.35) scale(.1 -.1)">
<use xlink:href="#c"/>
<use x="63.623047" xlink:href="#d"/>
<use x="95.410156" xlink:href="#t"/>
<use x="159.033203" xlink:href="#m"/>
</g>
</g>
<defs>
<clipPath id="a">
<rect width="912" height="480"/>
</clipPath>
</defs>
</svg>
